<!-- Generator: Adobe Illustrator 18.0.0, SVG Export Plug-In  -->
<svg version="1.1"
	 xmlns="http://www.w3.org/2000/svg" xmlns:xlink="http://www.w3.org/1999/xlink" xmlns:a="http://ns.adobe.com/AdobeSVGViewerExtensions/3.0/"
	 x="0px" y="0px" width="1115px" height="700px" viewBox="0 0 1115 700" enable-background="new 0 0 1115 700" xml:space="preserve"
	>
<defs>
</defs>
<g>
	<g id="details_1_">
		<rect x="0" y="0" fill="#FFFFFF" width="1115" height="700"/>
		<g>
			<path fill="#221F1F" d="M75.2,536.4c0,2.4-0.6,4.2-1.9,5.4s-3.1,1.9-5.5,1.9h-3.9v-14.3h4.4c2.2,0,3.9,0.6,5.2,1.8
				C74.6,532.4,75.2,534.2,75.2,536.4z M73.5,536.4c0-1.9-0.5-3.3-1.4-4.2c-0.9-0.9-2.3-1.4-4.2-1.4h-2.4v11.4h2
				c2,0,3.5-0.5,4.5-1.5S73.5,538.3,73.5,536.4z"/>
			<path fill="#221F1F" d="M82.7,543.8c-1.6,0-2.8-0.5-3.7-1.4s-1.4-2.3-1.4-4c0-1.7,0.4-3.1,1.3-4.1c0.8-1,2-1.5,3.4-1.5
				c1.3,0,2.4,0.4,3.2,1.3s1.2,2,1.2,3.5v1h-7.4c0,1.3,0.3,2.2,1,2.9s1.4,1,2.5,1c1.1,0,2.3-0.2,3.4-0.7v1.4
				c-0.6,0.2-1.1,0.4-1.6,0.5C84,543.8,83.4,543.8,82.7,543.8z M82.2,534.1c-0.9,0-1.5,0.3-2.1,0.8c-0.5,0.6-0.8,1.3-0.9,2.3h5.6
				c0-1-0.2-1.8-0.7-2.3C83.7,534.4,83.1,534.1,82.2,534.1z"/>
			<path fill="#221F1F" d="M91.7,543.6l-4.1-10.7h1.7l2.3,6.3c0.5,1.5,0.8,2.4,0.9,2.9h0.1c0.1-0.3,0.3-1.1,0.7-2.1
				c0.4-1.1,1.2-3.4,2.6-7.1h1.7l-4.1,10.7H91.7z"/>
			<path fill="#221F1F" d="M103.9,543.8c-1.6,0-2.8-0.5-3.7-1.4s-1.4-2.3-1.4-4c0-1.7,0.4-3.1,1.3-4.1c0.8-1,2-1.5,3.4-1.5
				c1.3,0,2.4,0.4,3.2,1.3s1.2,2,1.2,3.5v1h-7.4c0,1.3,0.3,2.2,1,2.9s1.4,1,2.5,1c1.1,0,2.3-0.2,3.4-0.7v1.4
				c-0.6,0.2-1.1,0.4-1.6,0.5C105.2,543.8,104.6,543.8,103.9,543.8z M103.4,534.1c-0.9,0-1.5,0.3-2.1,0.8c-0.5,0.6-0.8,1.3-0.9,2.3
				h5.6c0-1-0.2-1.8-0.7-2.3C104.9,534.4,104.3,534.1,103.4,534.1z"/>
			<path fill="#221F1F" d="M112.2,543.6h-1.6v-15.2h1.6V543.6z"/>
			<path fill="#221F1F" d="M124.8,538.3c0,1.7-0.4,3.1-1.3,4.1c-0.9,1-2.1,1.5-3.6,1.5c-1,0-1.8-0.2-2.5-0.7s-1.3-1.1-1.7-1.9
				s-0.6-1.8-0.6-2.9c0-1.7,0.4-3.1,1.3-4.1c0.9-1,2.1-1.5,3.6-1.5c1.5,0,2.7,0.5,3.6,1.5C124.4,535.2,124.8,536.6,124.8,538.3z
				 M116.7,538.3c0,1.4,0.3,2.4,0.8,3.1s1.3,1.1,2.4,1.1c1.1,0,1.9-0.4,2.4-1.1c0.5-0.7,0.8-1.8,0.8-3.1c0-1.4-0.3-2.4-0.8-3.1
				c-0.5-0.7-1.4-1.1-2.4-1.1c-1.1,0-1.9,0.3-2.4,1C116.9,535.9,116.7,536.9,116.7,538.3z"/>
			<path fill="#221F1F" d="M132.6,543.8c-0.7,0-1.3-0.1-1.9-0.4c-0.6-0.3-1.1-0.7-1.4-1.2h-0.1c0.1,0.6,0.1,1.2,0.1,1.8v4.4h-1.6
				v-15.5h1.3l0.2,1.5h0.1c0.4-0.6,0.9-1,1.5-1.3s1.2-0.4,1.9-0.4c1.4,0,2.5,0.5,3.3,1.5s1.2,2.3,1.2,4.1c0,1.8-0.4,3.1-1.2,4.1
				C135.1,543.4,134,543.8,132.6,543.8z M132.4,534.1c-1.1,0-1.9,0.3-2.4,0.9s-0.7,1.6-0.8,2.9v0.4c0,1.5,0.2,2.6,0.8,3.2
				s1.3,1,2.4,1c0.9,0,1.6-0.4,2.2-1.1c0.5-0.7,0.8-1.8,0.8-3.1c0-1.3-0.3-2.4-0.8-3.1C134.1,534.5,133.3,534.1,132.4,534.1z"/>
			<path fill="#221F1F" d="M144.4,543.8c-1.6,0-2.8-0.5-3.7-1.4s-1.4-2.3-1.4-4c0-1.7,0.4-3.1,1.3-4.1c0.8-1,2-1.5,3.4-1.5
				c1.3,0,2.4,0.4,3.2,1.3s1.2,2,1.2,3.5v1H141c0,1.3,0.3,2.2,1,2.9s1.4,1,2.5,1c1.1,0,2.3-0.2,3.4-0.7v1.4
				c-0.6,0.2-1.1,0.4-1.6,0.5C145.7,543.8,145.1,543.8,144.4,543.8z M144,534.1c-0.9,0-1.5,0.3-2.1,0.8c-0.5,0.6-0.8,1.3-0.9,2.3
				h5.6c0-1-0.2-1.8-0.7-2.3C145.5,534.4,144.8,534.1,144,534.1z"/>
			<path fill="#221F1F" d="M158.4,542.2L158.4,542.2c-0.8,1.1-2,1.6-3.4,1.6c-1.4,0-2.5-0.5-3.3-1.4s-1.2-2.3-1.2-4.1
				s0.4-3.1,1.2-4.1s1.9-1.5,3.3-1.5c1.4,0,2.6,0.5,3.3,1.6h0.1l-0.1-0.8l0-0.8v-4.4h1.6v15.2h-1.3L158.4,542.2z M155.1,542.5
				c1.1,0,1.9-0.3,2.4-0.9s0.7-1.6,0.7-2.9v-0.3c0-1.5-0.3-2.6-0.8-3.2c-0.5-0.6-1.3-1-2.4-1c-0.9,0-1.7,0.4-2.2,1.1
				s-0.8,1.8-0.8,3.1c0,1.4,0.2,2.4,0.8,3.1S154.1,542.5,155.1,542.5z"/>
			<path fill="#221F1F" d="M173.3,534.2h-2.7v9.4H169v-9.4h-1.9v-0.7l1.9-0.6v-0.6c0-2.6,1.1-3.9,3.4-3.9c0.6,0,1.2,0.1,2,0.3
				L174,530c-0.6-0.2-1.2-0.3-1.6-0.3c-0.6,0-1.1,0.2-1.4,0.6c-0.3,0.4-0.4,1.1-0.4,2v0.7h2.7V534.2z"/>
			<path fill="#221F1F" d="M180.1,532.7c0.5,0,0.9,0,1.3,0.1l-0.2,1.5c-0.4-0.1-0.8-0.1-1.2-0.1c-0.9,0-1.6,0.4-2.2,1.1
				c-0.6,0.7-0.9,1.6-0.9,2.6v5.7h-1.6v-10.7h1.3l0.2,2h0.1c0.4-0.7,0.9-1.2,1.4-1.6C178.9,532.9,179.5,532.7,180.1,532.7z"/>
			<path fill="#221F1F" d="M190.3,540.7c0,1-0.4,1.8-1.1,2.3s-1.8,0.8-3.1,0.8c-1.4,0-2.5-0.2-3.3-0.7v-1.5c0.5,0.3,1.1,0.5,1.7,0.6
				c0.6,0.1,1.2,0.2,1.7,0.2c0.8,0,1.5-0.1,1.9-0.4c0.5-0.3,0.7-0.7,0.7-1.2c0-0.4-0.2-0.8-0.5-1.1c-0.4-0.3-1.1-0.6-2.1-1
				c-1-0.4-1.7-0.7-2.1-1c-0.4-0.3-0.7-0.6-0.9-0.9s-0.3-0.8-0.3-1.3c0-0.9,0.4-1.6,1.1-2.1c0.7-0.5,1.7-0.8,2.9-0.8
				c1.1,0,2.3,0.2,3.4,0.7l-0.6,1.3c-1.1-0.4-2-0.7-2.9-0.7c-0.8,0-1.3,0.1-1.7,0.4c-0.4,0.2-0.6,0.6-0.6,1c0,0.3,0.1,0.5,0.2,0.7
				c0.1,0.2,0.4,0.4,0.7,0.6c0.3,0.2,0.9,0.4,1.9,0.8c1.3,0.5,2.1,0.9,2.6,1.4C190.1,539.4,190.3,540,190.3,540.7z"/>
			<path fill="#221F1F" d="M196.4,542.5c0.3,0,0.6,0,0.8-0.1c0.3,0,0.5-0.1,0.6-0.1v1.2c-0.2,0.1-0.4,0.2-0.8,0.2
				c-0.3,0.1-0.6,0.1-0.9,0.1c-2.1,0-3.1-1.1-3.1-3.3v-6.4h-1.5v-0.8l1.5-0.7l0.7-2.3h0.9v2.5h3.1v1.3h-3.1v6.3
				c0,0.6,0.2,1.1,0.5,1.5C195.4,542.3,195.9,542.5,196.4,542.5z"/>
			<path fill="#221F1F" d="M211.7,543.6l-0.3-1.5h-0.1c-0.5,0.7-1.1,1.1-1.6,1.4c-0.5,0.2-1.2,0.4-2,0.4c-1.1,0-1.9-0.3-2.5-0.8
				s-0.9-1.3-0.9-2.3c0-2.2,1.7-3.3,5.2-3.4l1.8-0.1v-0.7c0-0.8-0.2-1.5-0.5-1.9c-0.4-0.4-0.9-0.6-1.7-0.6c-0.9,0-1.9,0.3-3,0.8
				l-0.5-1.2c0.5-0.3,1.1-0.5,1.7-0.7s1.3-0.2,1.9-0.2c1.3,0,2.2,0.3,2.8,0.8c0.6,0.6,0.9,1.5,0.9,2.7v7.3H211.7z M208.1,542.5
				c1,0,1.8-0.3,2.4-0.8s0.9-1.3,0.9-2.3v-1l-1.6,0.1c-1.3,0-2.2,0.2-2.8,0.6c-0.6,0.4-0.9,0.9-0.9,1.7c0,0.6,0.2,1,0.5,1.3
				C207,542.3,207.4,542.5,208.1,542.5z"/>
			<path fill="#221F1F" d="M223.2,540.7c0,1-0.4,1.8-1.1,2.3s-1.8,0.8-3.1,0.8c-1.4,0-2.5-0.2-3.3-0.7v-1.5c0.5,0.3,1.1,0.5,1.7,0.6
				c0.6,0.1,1.2,0.2,1.7,0.2c0.8,0,1.5-0.1,1.9-0.4c0.5-0.3,0.7-0.7,0.7-1.2c0-0.4-0.2-0.8-0.5-1.1c-0.4-0.3-1.1-0.6-2.1-1
				c-1-0.4-1.7-0.7-2.1-1c-0.4-0.3-0.7-0.6-0.9-0.9s-0.3-0.8-0.3-1.3c0-0.9,0.4-1.6,1.1-2.1c0.7-0.5,1.7-0.8,2.9-0.8
				c1.1,0,2.3,0.2,3.4,0.7l-0.6,1.3c-1.1-0.4-2-0.7-2.9-0.7c-0.8,0-1.3,0.1-1.7,0.4c-0.4,0.2-0.6,0.6-0.6,1c0,0.3,0.1,0.5,0.2,0.7
				c0.1,0.2,0.4,0.4,0.7,0.6c0.3,0.2,0.9,0.4,1.9,0.8c1.3,0.5,2.1,0.9,2.6,1.4C222.9,539.4,223.2,540,223.2,540.7z"/>
			<path fill="#221F1F" d="M237.5,543.6l-0.3-1.5h-0.1c-0.5,0.7-1.1,1.1-1.6,1.4c-0.5,0.2-1.2,0.4-2,0.4c-1.1,0-1.9-0.3-2.5-0.8
				s-0.9-1.3-0.9-2.3c0-2.2,1.7-3.3,5.2-3.4l1.8-0.1v-0.7c0-0.8-0.2-1.5-0.5-1.9c-0.4-0.4-0.9-0.6-1.7-0.6c-0.9,0-1.9,0.3-3,0.8
				l-0.5-1.2c0.5-0.3,1.1-0.5,1.7-0.7s1.3-0.2,1.9-0.2c1.3,0,2.2,0.3,2.8,0.8c0.6,0.6,0.9,1.5,0.9,2.7v7.3H237.5z M233.9,542.5
				c1,0,1.8-0.3,2.4-0.8s0.9-1.3,0.9-2.3v-1l-1.6,0.1c-1.3,0-2.2,0.2-2.8,0.6c-0.6,0.4-0.9,0.9-0.9,1.7c0,0.6,0.2,1,0.5,1.3
				C232.8,542.3,233.3,542.5,233.9,542.5z"/>
			<path fill="#221F1F" d="M248.9,543.6h-1.6v-15.2h1.6V543.6z"/>
			<path fill="#221F1F" d="M258.9,543.6l-0.3-1.5h-0.1c-0.5,0.7-1.1,1.1-1.6,1.4c-0.5,0.2-1.2,0.4-2,0.4c-1.1,0-1.9-0.3-2.5-0.8
				s-0.9-1.3-0.9-2.3c0-2.2,1.7-3.3,5.2-3.4l1.8-0.1v-0.7c0-0.8-0.2-1.5-0.5-1.9c-0.4-0.4-0.9-0.6-1.7-0.6c-0.9,0-1.9,0.3-3,0.8
				l-0.5-1.2c0.5-0.3,1.1-0.5,1.7-0.7s1.3-0.2,1.9-0.2c1.3,0,2.2,0.3,2.8,0.8c0.6,0.6,0.9,1.5,0.9,2.7v7.3H258.9z M255.2,542.5
				c1,0,1.8-0.3,2.4-0.8s0.9-1.3,0.9-2.3v-1l-1.6,0.1c-1.3,0-2.2,0.2-2.8,0.6c-0.6,0.4-0.9,0.9-0.9,1.7c0,0.6,0.2,1,0.5,1.3
				C254.1,542.3,254.6,542.5,255.2,542.5z"/>
			<path fill="#221F1F" d="M268.4,532.8c1.4,0,2.5,0.5,3.3,1.4c0.8,1,1.2,2.3,1.2,4.1s-0.4,3.1-1.2,4.1c-0.8,1-1.9,1.5-3.3,1.5
				c-0.7,0-1.3-0.1-1.9-0.4c-0.6-0.3-1.1-0.7-1.4-1.2h-0.1l-0.3,1.4h-1.2v-15.2h1.6v3.7c0,0.8,0,1.6-0.1,2.2h0.1
				C265.8,533.3,266.9,532.8,268.4,532.8z M268.2,534.1c-1.1,0-1.9,0.3-2.4,1s-0.7,1.7-0.7,3.2s0.2,2.6,0.8,3.2s1.3,1,2.4,1
				c1,0,1.7-0.4,2.2-1.1s0.7-1.8,0.7-3.1c0-1.4-0.2-2.4-0.7-3.1S269.2,534.1,268.2,534.1z"/>
			<path fill="#221F1F" d="M280.2,543.8c-1.6,0-2.8-0.5-3.7-1.4s-1.4-2.3-1.4-4c0-1.7,0.4-3.1,1.3-4.1c0.8-1,2-1.5,3.4-1.5
				c1.3,0,2.4,0.4,3.2,1.3s1.2,2,1.2,3.5v1h-7.4c0,1.3,0.3,2.2,1,2.9s1.4,1,2.5,1c1.1,0,2.3-0.2,3.4-0.7v1.4
				c-0.6,0.2-1.1,0.4-1.6,0.5C281.5,543.8,280.9,543.8,280.2,543.8z M279.7,534.1c-0.9,0-1.5,0.3-2.1,0.8c-0.5,0.6-0.8,1.3-0.9,2.3
				h5.6c0-1-0.2-1.8-0.7-2.3C281.2,534.4,280.6,534.1,279.7,534.1z"/>
			<path fill="#221F1F" d="M288.5,543.6h-1.6v-15.2h1.6V543.6z"/>
			<path fill="#221F1F" d="M301.9,534.2h-2.7v9.4h-1.6v-9.4h-1.9v-0.7l1.9-0.6v-0.6c0-2.6,1.1-3.9,3.4-3.9c0.6,0,1.2,0.1,2,0.3
				l-0.4,1.3c-0.6-0.2-1.2-0.3-1.6-0.3c-0.6,0-1.1,0.2-1.4,0.6c-0.3,0.4-0.4,1.1-0.4,2v0.7h2.7V534.2z"/>
			<path fill="#221F1F" d="M308.7,532.7c0.5,0,0.9,0,1.3,0.1l-0.2,1.5c-0.4-0.1-0.8-0.1-1.2-0.1c-0.9,0-1.6,0.4-2.2,1.1
				c-0.6,0.7-0.9,1.6-0.9,2.6v5.7h-1.6v-10.7h1.3l0.2,2h0.1c0.4-0.7,0.9-1.2,1.4-1.6C307.4,532.9,308.1,532.7,308.7,532.7z"/>
			<path fill="#221F1F" d="M316.5,543.8c-1.6,0-2.8-0.5-3.7-1.4s-1.4-2.3-1.4-4c0-1.7,0.4-3.1,1.3-4.1c0.8-1,2-1.5,3.4-1.5
				c1.3,0,2.4,0.4,3.2,1.3s1.2,2,1.2,3.5v1h-7.4c0,1.3,0.3,2.2,1,2.9s1.4,1,2.5,1c1.1,0,2.3-0.2,3.4-0.7v1.4
				c-0.6,0.2-1.1,0.4-1.6,0.5C317.8,543.8,317.2,543.8,316.5,543.8z M316.1,534.1c-0.9,0-1.5,0.3-2.1,0.8c-0.5,0.6-0.8,1.3-0.9,2.3
				h5.6c0-1-0.2-1.8-0.7-2.3C317.6,534.4,316.9,534.1,316.1,534.1z"/>
			<path fill="#221F1F" d="M327.7,543.8c-1.6,0-2.8-0.5-3.7-1.4s-1.4-2.3-1.4-4c0-1.7,0.4-3.1,1.3-4.1c0.8-1,2-1.5,3.4-1.5
				c1.3,0,2.4,0.4,3.2,1.3s1.2,2,1.2,3.5v1h-7.4c0,1.3,0.3,2.2,1,2.9s1.4,1,2.5,1c1.1,0,2.3-0.2,3.4-0.7v1.4
				c-0.6,0.2-1.1,0.4-1.6,0.5C329,543.8,328.4,543.8,327.7,543.8z M327.3,534.1c-0.9,0-1.5,0.3-2.1,0.8c-0.5,0.6-0.8,1.3-0.9,2.3
				h5.6c0-1-0.2-1.8-0.7-2.3C328.8,534.4,328.1,534.1,327.3,534.1z"/>
			<path fill="#221F1F" d="M346.5,540.7c0,1-0.4,1.8-1.1,2.3s-1.8,0.8-3.1,0.8c-1.4,0-2.5-0.2-3.3-0.7v-1.5c0.5,0.3,1.1,0.5,1.7,0.6
				c0.6,0.1,1.2,0.2,1.7,0.2c0.8,0,1.5-0.1,1.9-0.4c0.5-0.3,0.7-0.7,0.7-1.2c0-0.4-0.2-0.8-0.5-1.1c-0.4-0.3-1.1-0.6-2.1-1
				c-1-0.4-1.7-0.7-2.1-1c-0.4-0.3-0.7-0.6-0.9-0.9s-0.3-0.8-0.3-1.3c0-0.9,0.4-1.6,1.1-2.1c0.7-0.5,1.7-0.8,2.9-0.8
				c1.1,0,2.3,0.2,3.4,0.7l-0.6,1.3c-1.1-0.4-2-0.7-2.9-0.7c-0.8,0-1.3,0.1-1.7,0.4c-0.4,0.2-0.6,0.6-0.6,1c0,0.3,0.1,0.5,0.2,0.7
				c0.1,0.2,0.4,0.4,0.7,0.6c0.3,0.2,0.9,0.4,1.9,0.8c1.3,0.5,2.1,0.9,2.6,1.4C346.2,539.4,346.5,540,346.5,540.7z"/>
			<path fill="#221F1F" d="M347.4,532.9h1.7l2.3,6.1c0.5,1.4,0.8,2.4,1,3h0.1c0.1-0.3,0.3-0.9,0.5-1.7s1.2-3.3,2.6-7.4h1.7
				l-4.6,12.2c-0.5,1.2-1,2.1-1.6,2.6s-1.4,0.8-2.2,0.8c-0.5,0-1-0.1-1.5-0.2V547c0.4,0.1,0.8,0.1,1.2,0.1c1.1,0,1.9-0.6,2.4-1.9
				l0.6-1.5L347.4,532.9z"/>
			<path fill="#221F1F" d="M362.6,542.5c0.3,0,0.6,0,0.8-0.1c0.3,0,0.5-0.1,0.6-0.1v1.2c-0.2,0.1-0.4,0.2-0.8,0.2
				c-0.3,0.1-0.6,0.1-0.9,0.1c-2.1,0-3.1-1.1-3.1-3.3v-6.4h-1.5v-0.8l1.5-0.7l0.7-2.3h0.9v2.5h3.1v1.3h-3.1v6.3
				c0,0.6,0.2,1.1,0.5,1.5C361.7,542.3,362.1,542.5,362.6,542.5z"/>
			<path fill="#221F1F" d="M370.7,543.8c-1.6,0-2.8-0.5-3.7-1.4s-1.4-2.3-1.4-4c0-1.7,0.4-3.1,1.3-4.1c0.8-1,2-1.5,3.4-1.5
				c1.3,0,2.4,0.4,3.2,1.3s1.2,2,1.2,3.5v1h-7.4c0,1.3,0.3,2.2,1,2.9s1.4,1,2.5,1c1.1,0,2.3-0.2,3.4-0.7v1.4
				c-0.6,0.2-1.1,0.4-1.6,0.5C372.1,543.8,371.4,543.8,370.7,543.8z M370.3,534.1c-0.9,0-1.5,0.3-2.1,0.8c-0.5,0.6-0.8,1.3-0.9,2.3
				h5.6c0-1-0.2-1.8-0.7-2.3C371.8,534.4,371.1,534.1,370.3,534.1z"/>
			<path fill="#221F1F" d="M391,543.6v-7c0-0.9-0.2-1.5-0.5-1.9c-0.4-0.4-0.9-0.6-1.7-0.6c-1,0-1.8,0.3-2.2,0.9s-0.7,1.5-0.7,2.7v6
				h-1.6v-7c0-0.9-0.2-1.5-0.5-1.9s-0.9-0.6-1.7-0.6c-1,0-1.8,0.3-2.2,0.9s-0.7,1.6-0.7,3v5.6h-1.6v-10.7h1.3l0.3,1.5h0.1
				c0.3-0.5,0.7-0.9,1.3-1.2s1.2-0.4,1.9-0.4c1.7,0,2.8,0.6,3.3,1.8h0.1c0.3-0.6,0.8-1,1.4-1.3c0.6-0.3,1.3-0.5,2.1-0.5
				c1.2,0,2.1,0.3,2.7,0.9s0.9,1.6,0.9,3v7H391z"/>
			<path fill="#221F1F" d="M406,534.2h-2.7v9.4h-1.6v-9.4h-1.9v-0.7l1.9-0.6v-0.6c0-2.6,1.1-3.9,3.4-3.9c0.6,0,1.2,0.1,2,0.3
				l-0.4,1.3c-0.6-0.2-1.2-0.3-1.6-0.3c-0.6,0-1.1,0.2-1.4,0.6c-0.3,0.4-0.4,1.1-0.4,2v0.7h2.7V534.2z"/>
			<path fill="#221F1F" d="M417.1,538.3c0,1.7-0.4,3.1-1.3,4.1c-0.9,1-2.1,1.5-3.6,1.5c-1,0-1.8-0.2-2.5-0.7s-1.3-1.1-1.7-1.9
				s-0.6-1.8-0.6-2.9c0-1.7,0.4-3.1,1.3-4.1c0.9-1,2.1-1.5,3.6-1.5c1.5,0,2.7,0.5,3.6,1.5C416.7,535.2,417.1,536.6,417.1,538.3z
				 M409,538.3c0,1.4,0.3,2.4,0.8,3.1s1.3,1.1,2.4,1.1c1.1,0,1.9-0.4,2.4-1.1c0.5-0.7,0.8-1.8,0.8-3.1c0-1.4-0.3-2.4-0.8-3.1
				c-0.5-0.7-1.4-1.1-2.4-1.1c-1.1,0-1.9,0.3-2.4,1C409.3,535.9,409,536.9,409,538.3z"/>
			<path fill="#221F1F" d="M424.9,532.7c0.5,0,0.9,0,1.3,0.1l-0.2,1.5c-0.4-0.1-0.8-0.1-1.2-0.1c-0.9,0-1.6,0.4-2.2,1.1
				c-0.6,0.7-0.9,1.6-0.9,2.6v5.7H420v-10.7h1.3l0.2,2h0.1c0.4-0.7,0.9-1.2,1.4-1.6C423.6,532.9,424.2,532.7,424.9,532.7z"/>
			<path fill="#221F1F" d="M67,566.5c0.3,0,0.6,0,0.8-0.1c0.3,0,0.5-0.1,0.6-0.1v1.2c-0.2,0.1-0.4,0.2-0.8,0.2
				c-0.3,0.1-0.6,0.1-0.9,0.1c-2.1,0-3.1-1.1-3.1-3.3v-6.4h-1.5v-0.8l1.5-0.7l0.7-2.3h0.9v2.5h3.1v1.3h-3.1v6.3
				c0,0.6,0.2,1.1,0.5,1.5C66.1,566.3,66.5,566.5,67,566.5z"/>
			<path fill="#221F1F" d="M77.9,567.6v-6.9c0-0.9-0.2-1.5-0.6-2s-1-0.6-1.9-0.6c-1.1,0-1.9,0.3-2.5,0.9s-0.8,1.6-0.8,3v5.6h-1.6
				v-15.2h1.6v4.6c0,0.6,0,1-0.1,1.4h0.1c0.3-0.5,0.8-0.9,1.4-1.2c0.6-0.3,1.3-0.4,2-0.4c1.3,0,2.3,0.3,2.9,0.9c0.7,0.6,1,1.6,1,3v7
				H77.9z"/>
			<path fill="#221F1F" d="M87.4,567.8c-1.6,0-2.8-0.5-3.7-1.4s-1.4-2.3-1.4-4c0-1.7,0.4-3.1,1.3-4.1c0.8-1,2-1.5,3.4-1.5
				c1.3,0,2.4,0.4,3.2,1.3s1.2,2,1.2,3.5v1H84c0,1.3,0.3,2.2,1,2.9s1.4,1,2.5,1c1.1,0,2.3-0.2,3.4-0.7v1.4c-0.6,0.2-1.1,0.4-1.6,0.5
				C88.7,567.8,88.1,567.8,87.4,567.8z M87,558.1c-0.9,0-1.5,0.3-2.1,0.8c-0.5,0.6-0.8,1.3-0.9,2.3h5.6c0-1-0.2-1.8-0.7-2.3
				C88.5,558.4,87.8,558.1,87,558.1z"/>
			<path fill="#221F1F" d="M105.8,567.6L101,555h-0.1c0.1,1,0.1,2.2,0.1,3.6v9.1h-1.5v-14.3h2.5l4.5,11.8h0.1l4.6-11.8h2.5v14.3H112
				v-9.2c0-1.1,0-2.2,0.1-3.4H112l-4.9,12.6H105.8z"/>
			<path fill="#221F1F" d="M118.8,556.9v6.9c0,0.9,0.2,1.5,0.6,2s1,0.6,1.9,0.6c1.1,0,1.9-0.3,2.5-0.9s0.8-1.6,0.8-3v-5.6h1.6v10.7
				h-1.3l-0.2-1.4h-0.1c-0.3,0.5-0.8,0.9-1.4,1.2c-0.6,0.3-1.3,0.4-2,0.4c-1.3,0-2.3-0.3-2.9-0.9s-1-1.6-1-3v-7H118.8z"/>
			<path fill="#221F1F" d="M136.4,564.7c0,1-0.4,1.8-1.1,2.3s-1.8,0.8-3.1,0.8c-1.4,0-2.5-0.2-3.3-0.7v-1.5c0.5,0.3,1.1,0.5,1.7,0.6
				c0.6,0.1,1.2,0.2,1.7,0.2c0.8,0,1.5-0.1,1.9-0.4c0.5-0.3,0.7-0.7,0.7-1.2c0-0.4-0.2-0.8-0.5-1.1c-0.4-0.3-1.1-0.6-2.1-1
				c-1-0.4-1.7-0.7-2.1-1c-0.4-0.3-0.7-0.6-0.9-0.9s-0.3-0.8-0.3-1.3c0-0.9,0.4-1.6,1.1-2.1c0.7-0.5,1.7-0.8,2.9-0.8
				c1.1,0,2.3,0.2,3.4,0.7l-0.6,1.3c-1.1-0.4-2-0.7-2.9-0.7c-0.8,0-1.3,0.1-1.7,0.4c-0.4,0.2-0.6,0.6-0.6,1c0,0.3,0.1,0.5,0.2,0.7
				c0.1,0.2,0.4,0.4,0.7,0.6c0.3,0.2,0.9,0.4,1.9,0.8c1.3,0.5,2.1,0.9,2.6,1.4C136.2,563.4,136.4,564,136.4,564.7z"/>
			<path fill="#221F1F" d="M143.6,567.8c-1.6,0-2.8-0.5-3.7-1.4s-1.4-2.3-1.4-4c0-1.7,0.4-3.1,1.3-4.1c0.8-1,2-1.5,3.4-1.5
				c1.3,0,2.4,0.4,3.2,1.3s1.2,2,1.2,3.5v1h-7.4c0,1.3,0.3,2.2,1,2.9s1.4,1,2.5,1c1.1,0,2.3-0.2,3.4-0.7v1.4
				c-0.6,0.2-1.1,0.4-1.6,0.5C144.9,567.8,144.3,567.8,143.6,567.8z M143.1,558.1c-0.9,0-1.5,0.3-2.1,0.8c-0.5,0.6-0.8,1.3-0.9,2.3
				h5.6c0-1-0.2-1.8-0.7-2.3C144.6,558.4,144,558.1,143.1,558.1z"/>
			<path fill="#221F1F" d="M151.8,556.9v6.9c0,0.9,0.2,1.5,0.6,2s1,0.6,1.9,0.6c1.1,0,1.9-0.3,2.5-0.9s0.8-1.6,0.8-3v-5.6h1.6v10.7
				h-1.3l-0.2-1.4h-0.1c-0.3,0.5-0.8,0.9-1.4,1.2c-0.6,0.3-1.3,0.4-2,0.4c-1.3,0-2.3-0.3-2.9-0.9s-1-1.6-1-3v-7H151.8z"/>
			<path fill="#221F1F" d="M176.1,567.6v-7c0-0.9-0.2-1.5-0.5-1.9c-0.4-0.4-0.9-0.6-1.7-0.6c-1,0-1.8,0.3-2.2,0.9s-0.7,1.5-0.7,2.7
				v6h-1.6v-7c0-0.9-0.2-1.5-0.5-1.9s-0.9-0.6-1.7-0.6c-1,0-1.8,0.3-2.2,0.9s-0.7,1.6-0.7,3v5.6h-1.6v-10.7h1.3l0.3,1.5h0.1
				c0.3-0.5,0.7-0.9,1.3-1.2s1.2-0.4,1.9-0.4c1.7,0,2.8,0.6,3.3,1.8h0.1c0.3-0.6,0.8-1,1.4-1.3c0.6-0.3,1.3-0.5,2.1-0.5
				c1.2,0,2.1,0.3,2.7,0.9s0.9,1.6,0.9,3v7H176.1z"/>
			<path fill="#221F1F" d="M195.5,562.3c0,1.7-0.4,3.1-1.3,4.1c-0.9,1-2.1,1.5-3.6,1.5c-1,0-1.8-0.2-2.5-0.7s-1.3-1.1-1.7-1.9
				s-0.6-1.8-0.6-2.9c0-1.7,0.4-3.1,1.3-4.1c0.9-1,2.1-1.5,3.6-1.5c1.5,0,2.7,0.5,3.6,1.5C195.1,559.2,195.5,560.6,195.5,562.3z
				 M187.4,562.3c0,1.4,0.3,2.4,0.8,3.1s1.3,1.1,2.4,1.1c1.1,0,1.9-0.4,2.4-1.1c0.5-0.7,0.8-1.8,0.8-3.1c0-1.4-0.3-2.4-0.8-3.1
				c-0.5-0.7-1.4-1.1-2.4-1.1c-1.1,0-1.9,0.3-2.4,1C187.6,559.9,187.4,560.9,187.4,562.3z"/>
			<path fill="#221F1F" d="M203.2,558.2h-2.7v9.4h-1.6v-9.4h-1.9v-0.7l1.9-0.6v-0.6c0-2.6,1.1-3.9,3.4-3.9c0.6,0,1.2,0.1,2,0.3
				l-0.4,1.3c-0.6-0.2-1.2-0.3-1.6-0.3c-0.6,0-1.1,0.2-1.4,0.6c-0.3,0.4-0.4,1.1-0.4,2v0.7h2.7V558.2z"/>
			<path fill="#221F1F" d="M222.9,560.5c0,2.3-0.6,4.1-1.7,5.4s-2.8,2-4.8,2c-2.1,0-3.7-0.6-4.9-1.9c-1.1-1.3-1.7-3.1-1.7-5.4
				c0-2.3,0.6-4.1,1.7-5.4c1.1-1.3,2.8-1.9,4.9-1.9c2,0,3.6,0.7,4.8,2C222.3,556.4,222.9,558.2,222.9,560.5z M211.5,560.5
				c0,1.9,0.4,3.4,1.2,4.4c0.8,1,2,1.5,3.6,1.5c1.6,0,2.8-0.5,3.6-1.5s1.2-2.5,1.2-4.4c0-1.9-0.4-3.4-1.2-4.4c-0.8-1-2-1.5-3.6-1.5
				c-1.6,0-2.8,0.5-3.6,1.5C212,557.1,211.5,558.6,211.5,560.5z"/>
			<path fill="#221F1F" d="M227.5,567.6h-1.6v-15.2h1.6V567.6z"/>
			<path fill="#221F1F" d="M238.2,566.2L238.2,566.2c-0.8,1.1-2,1.6-3.4,1.6c-1.4,0-2.5-0.5-3.3-1.4s-1.2-2.3-1.2-4.1
				s0.4-3.1,1.2-4.1s1.9-1.5,3.3-1.5c1.4,0,2.6,0.5,3.3,1.6h0.1l-0.1-0.8l0-0.8v-4.4h1.6v15.2h-1.3L238.2,566.2z M234.9,566.5
				c1.1,0,1.9-0.3,2.4-0.9s0.7-1.6,0.7-2.9v-0.3c0-1.5-0.3-2.6-0.8-3.2c-0.5-0.6-1.3-1-2.4-1c-0.9,0-1.7,0.4-2.2,1.1
				s-0.8,1.8-0.8,3.1c0,1.4,0.2,2.4,0.8,3.1S233.9,566.5,234.9,566.5z"/>
			<path fill="#221F1F" d="M254.9,567.6l-0.3-1.5h-0.1c-0.5,0.7-1.1,1.1-1.6,1.4c-0.5,0.2-1.2,0.4-2,0.4c-1.1,0-1.9-0.3-2.5-0.8
				s-0.9-1.3-0.9-2.3c0-2.2,1.7-3.3,5.2-3.4l1.8-0.1v-0.7c0-0.8-0.2-1.5-0.5-1.9c-0.4-0.4-0.9-0.6-1.7-0.6c-0.9,0-1.9,0.3-3,0.8
				l-0.5-1.2c0.5-0.3,1.1-0.5,1.7-0.7s1.3-0.2,1.9-0.2c1.3,0,2.2,0.3,2.8,0.8c0.6,0.6,0.9,1.5,0.9,2.7v7.3H254.9z M251.2,566.5
				c1,0,1.8-0.3,2.4-0.8s0.9-1.3,0.9-2.3v-1l-1.6,0.1c-1.3,0-2.2,0.2-2.8,0.6c-0.6,0.4-0.9,0.9-0.9,1.7c0,0.6,0.2,1,0.5,1.3
				C250.1,566.3,250.6,566.5,251.2,566.5z"/>
			<path fill="#221F1F" d="M266.7,567.6v-6.9c0-0.9-0.2-1.5-0.6-2s-1-0.6-1.9-0.6c-1.1,0-1.9,0.3-2.5,0.9s-0.8,1.6-0.8,3v5.6h-1.6
				v-10.7h1.3l0.3,1.5h0.1c0.3-0.5,0.8-0.9,1.4-1.2c0.6-0.3,1.3-0.4,2-0.4c1.3,0,2.3,0.3,2.9,0.9c0.6,0.6,1,1.6,1,3v7H266.7z"/>
			<path fill="#221F1F" d="M278.9,566.2L278.9,566.2c-0.8,1.1-2,1.6-3.4,1.6c-1.4,0-2.5-0.5-3.3-1.4s-1.2-2.3-1.2-4.1
				s0.4-3.1,1.2-4.1s1.9-1.5,3.3-1.5c1.4,0,2.6,0.5,3.3,1.6h0.1l-0.1-0.8l0-0.8v-4.4h1.6v15.2h-1.3L278.9,566.2z M275.7,566.5
				c1.1,0,1.9-0.3,2.4-0.9s0.7-1.6,0.7-2.9v-0.3c0-1.5-0.3-2.6-0.8-3.2c-0.5-0.6-1.3-1-2.4-1c-0.9,0-1.7,0.4-2.2,1.1
				s-0.8,1.8-0.8,3.1c0,1.4,0.2,2.4,0.8,3.1S274.7,566.5,275.7,566.5z"/>
			<path fill="#221F1F" d="M296.4,567.6v-6.9c0-0.9-0.2-1.5-0.6-2s-1-0.6-1.9-0.6c-1.1,0-1.9,0.3-2.5,0.9s-0.8,1.6-0.8,3v5.6h-1.6
				v-10.7h1.3l0.3,1.5h0.1c0.3-0.5,0.8-0.9,1.4-1.2c0.6-0.3,1.3-0.4,2-0.4c1.3,0,2.3,0.3,2.9,0.9c0.6,0.6,1,1.6,1,3v7H296.4z"/>
			<path fill="#221F1F" d="M305.8,567.8c-1.6,0-2.8-0.5-3.7-1.4s-1.4-2.3-1.4-4c0-1.7,0.4-3.1,1.3-4.1c0.8-1,2-1.5,3.4-1.5
				c1.3,0,2.4,0.4,3.2,1.3s1.2,2,1.2,3.5v1h-7.4c0,1.3,0.3,2.2,1,2.9s1.4,1,2.5,1c1.1,0,2.3-0.2,3.4-0.7v1.4
				c-0.6,0.2-1.1,0.4-1.6,0.5C307.2,567.8,306.6,567.8,305.8,567.8z M305.4,558.1c-0.9,0-1.5,0.3-2.1,0.8c-0.5,0.6-0.8,1.3-0.9,2.3
				h5.6c0-1-0.2-1.8-0.7-2.3C306.9,558.4,306.2,558.1,305.4,558.1z"/>
			<path fill="#221F1F" d="M321.2,567.6l-2-6.3c-0.1-0.4-0.4-1.3-0.7-2.6h-0.1c-0.3,1.1-0.5,2-0.7,2.6l-2,6.3h-1.9l-2.9-10.7h1.7
				c0.7,2.7,1.2,4.7,1.6,6.1c0.4,1.4,0.6,2.4,0.6,2.8h0.1c0.1-0.4,0.2-0.9,0.3-1.4s0.3-1.1,0.4-1.4l2-6.1h1.8l1.9,6.1
				c0.4,1.1,0.6,2.1,0.7,2.8h0.1c0-0.2,0.1-0.6,0.2-1.1s0.8-3.1,2-7.9h1.7l-3,10.7H321.2z"/>
			<path fill="#221F1F" d="M342.4,567.6l-1.8-4.5H335l-1.8,4.5h-1.7l5.6-14.3h1.4l5.6,14.3H342.4z M340.1,561.6l-1.7-4.4
				c-0.2-0.6-0.4-1.2-0.7-2.1c-0.1,0.6-0.3,1.3-0.6,2.1l-1.7,4.4H340.1z"/>
			<path fill="#221F1F" d="M350.7,556.7c0.5,0,0.9,0,1.3,0.1l-0.2,1.5c-0.4-0.1-0.8-0.1-1.2-0.1c-0.9,0-1.6,0.4-2.2,1.1
				c-0.6,0.7-0.9,1.6-0.9,2.6v5.7h-1.6v-10.7h1.3l0.2,2h0.1c0.4-0.7,0.9-1.2,1.4-1.6C349.5,556.9,350.1,556.7,350.7,556.7z"/>
			<path fill="#221F1F" d="M357.5,566.5c0.3,0,0.6,0,0.8-0.1c0.3,0,0.5-0.1,0.6-0.1v1.2c-0.2,0.1-0.4,0.2-0.8,0.2
				c-0.3,0.1-0.6,0.1-0.9,0.1c-2.1,0-3.1-1.1-3.1-3.3v-6.4h-1.5v-0.8l1.5-0.7l0.7-2.3h0.9v2.5h3.1v1.3h-3.1v6.3
				c0,0.6,0.2,1.1,0.5,1.5C356.5,566.3,356.9,566.5,357.5,566.5z"/>
			<path fill="#221F1F" d="M365.4,563v-1.5h4.8v1.5H365.4z"/>
			<path fill="#221F1F" d="M384.4,567.6l-4.8-12.7h-0.1c0.1,1,0.1,2.2,0.1,3.6v9.1h-1.5v-14.3h2.5l4.5,11.8h0.1l4.6-11.8h2.5v14.3
				h-1.7v-9.2c0-1.1,0-2.2,0.1-3.4h-0.1l-4.9,12.6H384.4z"/>
			<path fill="#221F1F" d="M408.5,560.5c0,2.3-0.6,4.1-1.7,5.4s-2.8,2-4.8,2c-2.1,0-3.7-0.6-4.9-1.9c-1.1-1.3-1.7-3.1-1.7-5.4
				c0-2.3,0.6-4.1,1.7-5.4c1.1-1.3,2.8-1.9,4.9-1.9c2,0,3.6,0.7,4.8,2C407.9,556.4,408.5,558.2,408.5,560.5z M397.1,560.5
				c0,1.9,0.4,3.4,1.2,4.4c0.8,1,2,1.5,3.6,1.5c1.6,0,2.8-0.5,3.6-1.5s1.2-2.5,1.2-4.4c0-1.9-0.4-3.4-1.2-4.4c-0.8-1-2-1.5-3.6-1.5
				c-1.6,0-2.8,0.5-3.6,1.5C397.5,557.1,397.1,558.6,397.1,560.5z"/>
			<path fill="#221F1F" d="M422.8,567.6h-1.9l-7.8-12H413c0.1,1.4,0.2,2.7,0.2,3.9v8.1h-1.5v-14.3h1.9l7.8,11.9h0.1
				c0-0.2,0-0.7-0.1-1.7s-0.1-1.6,0-2v-8.2h1.5V567.6z"/>
			<path fill="#221F1F" d="M435.7,567.6l-1.8-4.5h-5.7l-1.8,4.5h-1.7l5.6-14.3h1.4l5.6,14.3H435.7z M433.4,561.6l-1.7-4.4
				c-0.2-0.6-0.4-1.2-0.7-2.1c-0.1,0.6-0.3,1.3-0.6,2.1l-1.7,4.4H433.4z"/>
			<path fill="#221F1F" d="M72.8,591.6l-1.8-4.5h-5.7l-1.8,4.5h-1.7l5.6-14.3h1.4l5.6,14.3H72.8z M70.5,585.6l-1.7-4.4
				c-0.2-0.6-0.4-1.2-0.7-2.1c-0.1,0.6-0.3,1.3-0.6,2.1l-1.7,4.4H70.5z"/>
			<path fill="#221F1F" d="M81.1,580.7c0.5,0,0.9,0,1.3,0.1l-0.2,1.5c-0.4-0.1-0.8-0.1-1.2-0.1c-0.9,0-1.6,0.4-2.2,1.1
				c-0.6,0.7-0.9,1.6-0.9,2.6v5.7h-1.6v-10.7h1.3l0.2,2h0.1c0.4-0.7,0.9-1.2,1.4-1.6C79.8,580.9,80.4,580.7,81.1,580.7z"/>
			<path fill="#221F1F" d="M87.8,590.5c0.3,0,0.6,0,0.8-0.1c0.3,0,0.5-0.1,0.6-0.1v1.2c-0.2,0.1-0.4,0.2-0.8,0.2
				c-0.3,0.1-0.6,0.1-0.9,0.1c-2.1,0-3.1-1.1-3.1-3.3v-6.4H83v-0.8l1.5-0.7l0.7-2.3h0.9v2.5h3.1v1.3h-3.1v6.3c0,0.6,0.2,1.1,0.5,1.5
				C86.9,590.3,87.3,590.5,87.8,590.5z"/>
			<path fill="#221F1F" d="M101.6,591.8c-0.7,0-1.3-0.1-1.9-0.4c-0.6-0.3-1.1-0.7-1.4-1.2h-0.1c0.1,0.6,0.1,1.2,0.1,1.8v4.4h-1.6
				v-15.5h1.3l0.2,1.5h0.1c0.4-0.6,0.9-1,1.5-1.3s1.2-0.4,1.9-0.4c1.4,0,2.5,0.5,3.3,1.5s1.2,2.3,1.2,4.1c0,1.8-0.4,3.1-1.2,4.1
				C104.1,591.4,103,591.8,101.6,591.8z M101.3,582.1c-1.1,0-1.9,0.3-2.4,0.9s-0.7,1.6-0.8,2.9v0.4c0,1.5,0.2,2.6,0.8,3.2
				s1.3,1,2.4,1c0.9,0,1.6-0.4,2.2-1.1c0.5-0.7,0.8-1.8,0.8-3.1c0-1.3-0.3-2.4-0.8-3.1C103,582.5,102.3,582.1,101.3,582.1z"/>
			<path fill="#221F1F" d="M113.7,580.7c0.5,0,0.9,0,1.3,0.1l-0.2,1.5c-0.4-0.1-0.8-0.1-1.2-0.1c-0.9,0-1.6,0.4-2.2,1.1
				c-0.6,0.7-0.9,1.6-0.9,2.6v5.7h-1.6v-10.7h1.3l0.2,2h0.1c0.4-0.7,0.9-1.2,1.4-1.6C112.4,580.9,113,580.7,113.7,580.7z"/>
			<path fill="#221F1F" d="M126.2,586.3c0,1.7-0.4,3.1-1.3,4.1c-0.9,1-2.1,1.5-3.6,1.5c-1,0-1.8-0.2-2.5-0.7s-1.3-1.1-1.7-1.9
				s-0.6-1.8-0.6-2.9c0-1.7,0.4-3.1,1.3-4.1c0.9-1,2.1-1.5,3.6-1.5c1.5,0,2.7,0.5,3.6,1.5C125.8,583.2,126.2,584.6,126.2,586.3z
				 M118.1,586.3c0,1.4,0.3,2.4,0.8,3.1s1.3,1.1,2.4,1.1c1.1,0,1.9-0.4,2.4-1.1c0.5-0.7,0.8-1.8,0.8-3.1c0-1.4-0.3-2.4-0.8-3.1
				c-0.5-0.7-1.4-1.1-2.4-1.1c-1.1,0-1.9,0.3-2.4,1C118.3,583.9,118.1,584.9,118.1,586.3z"/>
			<path fill="#221F1F" d="M133.3,591.8c-1.5,0-2.7-0.5-3.6-1.4c-0.8-1-1.3-2.3-1.3-4c0-1.8,0.4-3.2,1.3-4.2c0.9-1,2.1-1.5,3.7-1.5
				c0.5,0,1,0.1,1.5,0.2c0.5,0.1,0.9,0.2,1.2,0.4l-0.5,1.4c-0.4-0.1-0.7-0.3-1.2-0.4s-0.8-0.1-1.1-0.1c-2.2,0-3.3,1.4-3.3,4.2
				c0,1.3,0.3,2.3,0.8,3s1.3,1.1,2.4,1.1c0.9,0,1.8-0.2,2.7-0.6v1.4C135.3,591.7,134.4,591.8,133.3,591.8z"/>
			<path fill="#221F1F" d="M143.1,591.8c-1.6,0-2.8-0.5-3.7-1.4s-1.4-2.3-1.4-4c0-1.7,0.4-3.1,1.3-4.1c0.8-1,2-1.5,3.4-1.5
				c1.3,0,2.4,0.4,3.2,1.3s1.2,2,1.2,3.5v1h-7.4c0,1.3,0.3,2.2,1,2.9s1.4,1,2.5,1c1.1,0,2.3-0.2,3.4-0.7v1.4
				c-0.6,0.2-1.1,0.4-1.6,0.5C144.4,591.8,143.8,591.8,143.1,591.8z M142.6,582.1c-0.9,0-1.5,0.3-2.1,0.8c-0.5,0.6-0.8,1.3-0.9,2.3
				h5.6c0-1-0.2-1.8-0.7-2.3C144.1,582.4,143.5,582.1,142.6,582.1z"/>
			<path fill="#221F1F" d="M156.6,588.7c0,1-0.4,1.8-1.1,2.3s-1.8,0.8-3.1,0.8c-1.4,0-2.5-0.2-3.3-0.7v-1.5c0.5,0.3,1.1,0.5,1.7,0.6
				c0.6,0.1,1.2,0.2,1.7,0.2c0.8,0,1.5-0.1,1.9-0.4c0.5-0.3,0.7-0.7,0.7-1.2c0-0.4-0.2-0.8-0.5-1.1c-0.4-0.3-1.1-0.6-2.1-1
				c-1-0.4-1.7-0.7-2.1-1c-0.4-0.3-0.7-0.6-0.9-0.9s-0.3-0.8-0.3-1.3c0-0.9,0.4-1.6,1.1-2.1c0.7-0.5,1.7-0.8,2.9-0.8
				c1.1,0,2.3,0.2,3.4,0.7l-0.6,1.3c-1.1-0.4-2-0.7-2.9-0.7c-0.8,0-1.3,0.1-1.7,0.4c-0.4,0.2-0.6,0.6-0.6,1c0,0.3,0.1,0.5,0.2,0.7
				c0.1,0.2,0.4,0.4,0.7,0.6c0.3,0.2,0.9,0.4,1.9,0.8c1.3,0.5,2.1,0.9,2.6,1.4C156.4,587.4,156.6,588,156.6,588.7z"/>
			<path fill="#221F1F" d="M166.2,588.7c0,1-0.4,1.8-1.1,2.3s-1.8,0.8-3.1,0.8c-1.4,0-2.5-0.2-3.3-0.7v-1.5c0.5,0.3,1.1,0.5,1.7,0.6
				c0.6,0.1,1.2,0.2,1.7,0.2c0.8,0,1.5-0.1,1.9-0.4c0.5-0.3,0.7-0.7,0.7-1.2c0-0.4-0.2-0.8-0.5-1.1c-0.4-0.3-1.1-0.6-2.1-1
				c-1-0.4-1.7-0.7-2.1-1c-0.4-0.3-0.7-0.6-0.9-0.9s-0.3-0.8-0.3-1.3c0-0.9,0.4-1.6,1.1-2.1c0.7-0.5,1.7-0.8,2.9-0.8
				c1.1,0,2.3,0.2,3.4,0.7l-0.6,1.3c-1.1-0.4-2-0.7-2.9-0.7c-0.8,0-1.3,0.1-1.7,0.4c-0.4,0.2-0.6,0.6-0.6,1c0,0.3,0.1,0.5,0.2,0.7
				c0.1,0.2,0.4,0.4,0.7,0.6c0.3,0.2,0.9,0.4,1.9,0.8c1.3,0.5,2.1,0.9,2.6,1.4C165.9,587.4,166.2,588,166.2,588.7z"/>
			<path fill="#221F1F" d="M178,586.3c0,1.7-0.4,3.1-1.3,4.1c-0.9,1-2.1,1.5-3.6,1.5c-1,0-1.8-0.2-2.5-0.7s-1.3-1.1-1.7-1.9
				s-0.6-1.8-0.6-2.9c0-1.7,0.4-3.1,1.3-4.1c0.9-1,2.1-1.5,3.6-1.5c1.5,0,2.7,0.5,3.6,1.5C177.6,583.2,178,584.6,178,586.3z
				 M169.9,586.3c0,1.4,0.3,2.4,0.8,3.1s1.3,1.1,2.4,1.1c1.1,0,1.9-0.4,2.4-1.1c0.5-0.7,0.8-1.8,0.8-3.1c0-1.4-0.3-2.4-0.8-3.1
				c-0.5-0.7-1.4-1.1-2.4-1.1c-1.1,0-1.9,0.3-2.4,1C170.1,583.9,169.9,584.9,169.9,586.3z"/>
			<path fill="#221F1F" d="M185.7,580.7c0.5,0,0.9,0,1.3,0.1l-0.2,1.5c-0.4-0.1-0.8-0.1-1.2-0.1c-0.9,0-1.6,0.4-2.2,1.1
				c-0.6,0.7-0.9,1.6-0.9,2.6v5.7h-1.6v-10.7h1.3l0.2,2h0.1c0.4-0.7,0.9-1.2,1.4-1.6C184.4,580.9,185.1,580.7,185.7,580.7z"/>
			<path fill="#221F1F" d="M195.9,588.7c0,1-0.4,1.8-1.1,2.3s-1.8,0.8-3.1,0.8c-1.4,0-2.5-0.2-3.3-0.7v-1.5c0.5,0.3,1.1,0.5,1.7,0.6
				c0.6,0.1,1.2,0.2,1.7,0.2c0.8,0,1.5-0.1,1.9-0.4c0.5-0.3,0.7-0.7,0.7-1.2c0-0.4-0.2-0.8-0.5-1.1c-0.4-0.3-1.1-0.6-2.1-1
				c-1-0.4-1.7-0.7-2.1-1c-0.4-0.3-0.7-0.6-0.9-0.9s-0.3-0.8-0.3-1.3c0-0.9,0.4-1.6,1.1-2.1c0.7-0.5,1.7-0.8,2.9-0.8
				c1.1,0,2.3,0.2,3.4,0.7l-0.6,1.3c-1.1-0.4-2-0.7-2.9-0.7c-0.8,0-1.3,0.1-1.7,0.4c-0.4,0.2-0.6,0.6-0.6,1c0,0.3,0.1,0.5,0.2,0.7
				c0.1,0.2,0.4,0.4,0.7,0.6c0.3,0.2,0.9,0.4,1.9,0.8c1.3,0.5,2.1,0.9,2.6,1.4C195.7,587.4,195.9,588,195.9,588.7z"/>
			<path fill="#221F1F" d="M211.9,591.6h-7.9v-14.3h7.9v1.5h-6.3v4.6h5.9v1.5h-5.9v5.3h6.3V591.6z"/>
			<path fill="#221F1F" d="M222.1,591.6v-6.9c0-0.9-0.2-1.5-0.6-2s-1-0.6-1.9-0.6c-1.1,0-1.9,0.3-2.5,0.9s-0.8,1.6-0.8,3v5.6h-1.6
				v-10.7h1.3l0.3,1.5h0.1c0.3-0.5,0.8-0.9,1.4-1.2c0.6-0.3,1.3-0.4,2-0.4c1.3,0,2.3,0.3,2.9,0.9c0.6,0.6,1,1.6,1,3v7H222.1z"/>
			<path fill="#221F1F" d="M234,588.7c0,1-0.4,1.8-1.1,2.3s-1.8,0.8-3.1,0.8c-1.4,0-2.5-0.2-3.3-0.7v-1.5c0.5,0.3,1.1,0.5,1.7,0.6
				c0.6,0.1,1.2,0.2,1.7,0.2c0.8,0,1.5-0.1,1.9-0.4c0.5-0.3,0.7-0.7,0.7-1.2c0-0.4-0.2-0.8-0.5-1.1c-0.4-0.3-1.1-0.6-2.1-1
				c-1-0.4-1.7-0.7-2.1-1c-0.4-0.3-0.7-0.6-0.9-0.9s-0.3-0.8-0.3-1.3c0-0.9,0.4-1.6,1.1-2.1c0.7-0.5,1.7-0.8,2.9-0.8
				c1.1,0,2.3,0.2,3.4,0.7l-0.6,1.3c-1.1-0.4-2-0.7-2.9-0.7c-0.8,0-1.3,0.1-1.7,0.4c-0.4,0.2-0.6,0.6-0.6,1c0,0.3,0.1,0.5,0.2,0.7
				c0.1,0.2,0.4,0.4,0.7,0.6c0.3,0.2,0.9,0.4,1.9,0.8c1.3,0.5,2.1,0.9,2.6,1.4C233.7,587.4,234,588,234,588.7z"/>
			<path fill="#221F1F" d="M245.8,586.3c0,1.7-0.4,3.1-1.3,4.1c-0.9,1-2.1,1.5-3.6,1.5c-1,0-1.8-0.2-2.5-0.7s-1.3-1.1-1.7-1.9
				s-0.6-1.8-0.6-2.9c0-1.7,0.4-3.1,1.3-4.1c0.9-1,2.1-1.5,3.6-1.5c1.5,0,2.7,0.5,3.6,1.5C245.4,583.2,245.8,584.6,245.8,586.3z
				 M237.7,586.3c0,1.4,0.3,2.4,0.8,3.1s1.3,1.1,2.4,1.1c1.1,0,1.9-0.4,2.4-1.1c0.5-0.7,0.8-1.8,0.8-3.1c0-1.4-0.3-2.4-0.8-3.1
				c-0.5-0.7-1.4-1.1-2.4-1.1c-1.1,0-1.9,0.3-2.4,1C237.9,583.9,237.7,584.9,237.7,586.3z"/>
			<path fill="#221F1F" d="M260.7,588.7c0,1-0.4,1.8-1.1,2.3s-1.8,0.8-3.1,0.8c-1.4,0-2.5-0.2-3.3-0.7v-1.5c0.5,0.3,1.1,0.5,1.7,0.6
				c0.6,0.1,1.2,0.2,1.7,0.2c0.8,0,1.5-0.1,1.9-0.4c0.5-0.3,0.7-0.7,0.7-1.2c0-0.4-0.2-0.8-0.5-1.1c-0.4-0.3-1.1-0.6-2.1-1
				c-1-0.4-1.7-0.7-2.1-1c-0.4-0.3-0.7-0.6-0.9-0.9s-0.3-0.8-0.3-1.3c0-0.9,0.4-1.6,1.1-2.1c0.7-0.5,1.7-0.8,2.9-0.8
				c1.1,0,2.3,0.2,3.4,0.7l-0.6,1.3c-1.1-0.4-2-0.7-2.9-0.7c-0.8,0-1.3,0.1-1.7,0.4c-0.4,0.2-0.6,0.6-0.6,1c0,0.3,0.1,0.5,0.2,0.7
				c0.1,0.2,0.4,0.4,0.7,0.6c0.3,0.2,0.9,0.4,1.9,0.8c1.3,0.5,2.1,0.9,2.6,1.4C260.5,587.4,260.7,588,260.7,588.7z"/>
			<path fill="#221F1F" d="M261.7,580.9h1.7l2.3,6.1c0.5,1.4,0.8,2.4,1,3h0.1c0.1-0.3,0.3-0.9,0.5-1.7s1.2-3.3,2.6-7.4h1.7
				l-4.6,12.2c-0.5,1.2-1,2.1-1.6,2.6s-1.4,0.8-2.2,0.8c-0.5,0-1-0.1-1.5-0.2V595c0.4,0.1,0.8,0.1,1.2,0.1c1.1,0,1.9-0.6,2.4-1.9
				l0.6-1.5L261.7,580.9z"/>
			<path fill="#221F1F" d="M280.3,588.7c0,1-0.4,1.8-1.1,2.3s-1.8,0.8-3.1,0.8c-1.4,0-2.5-0.2-3.3-0.7v-1.5c0.5,0.3,1.1,0.5,1.7,0.6
				c0.6,0.1,1.2,0.2,1.7,0.2c0.8,0,1.5-0.1,1.9-0.4c0.5-0.3,0.7-0.7,0.7-1.2c0-0.4-0.2-0.8-0.5-1.1c-0.4-0.3-1.1-0.6-2.1-1
				c-1-0.4-1.7-0.7-2.1-1c-0.4-0.3-0.7-0.6-0.9-0.9s-0.3-0.8-0.3-1.3c0-0.9,0.4-1.6,1.1-2.1c0.7-0.5,1.7-0.8,2.9-0.8
				c1.1,0,2.3,0.2,3.4,0.7l-0.6,1.3c-1.1-0.4-2-0.7-2.9-0.7c-0.8,0-1.3,0.1-1.7,0.4c-0.4,0.2-0.6,0.6-0.6,1c0,0.3,0.1,0.5,0.2,0.7
				c0.1,0.2,0.4,0.4,0.7,0.6c0.3,0.2,0.9,0.4,1.9,0.8c1.3,0.5,2.1,0.9,2.6,1.4C280.1,587.4,280.3,588,280.3,588.7z"/>
			<path fill="#221F1F" d="M286.4,590.5c0.3,0,0.6,0,0.8-0.1c0.3,0,0.5-0.1,0.6-0.1v1.2c-0.2,0.1-0.4,0.2-0.8,0.2
				c-0.3,0.1-0.6,0.1-0.9,0.1c-2.1,0-3.1-1.1-3.1-3.3v-6.4h-1.5v-0.8l1.5-0.7l0.7-2.3h0.9v2.5h3.1v1.3h-3.1v6.3
				c0,0.6,0.2,1.1,0.5,1.5C285.4,590.3,285.8,590.5,286.4,590.5z"/>
			<path fill="#221F1F" d="M294.5,591.8c-1.6,0-2.8-0.5-3.7-1.4s-1.4-2.3-1.4-4c0-1.7,0.4-3.1,1.3-4.1c0.8-1,2-1.5,3.4-1.5
				c1.3,0,2.4,0.4,3.2,1.3s1.2,2,1.2,3.5v1h-7.4c0,1.3,0.3,2.2,1,2.9s1.4,1,2.5,1c1.1,0,2.3-0.2,3.4-0.7v1.4
				c-0.6,0.2-1.1,0.4-1.6,0.5C295.8,591.8,295.2,591.8,294.5,591.8z M294.1,582.1c-0.9,0-1.5,0.3-2.1,0.8c-0.5,0.6-0.8,1.3-0.9,2.3
				h5.6c0-1-0.2-1.8-0.7-2.3C295.5,582.4,294.9,582.1,294.1,582.1z"/>
			<path fill="#221F1F" d="M314.8,591.6v-7c0-0.9-0.2-1.5-0.5-1.9c-0.4-0.4-0.9-0.6-1.7-0.6c-1,0-1.8,0.3-2.2,0.9s-0.7,1.5-0.7,2.7
				v6H308v-7c0-0.9-0.2-1.5-0.5-1.9s-0.9-0.6-1.7-0.6c-1,0-1.8,0.3-2.2,0.9s-0.7,1.6-0.7,3v5.6h-1.6v-10.7h1.3l0.3,1.5h0.1
				c0.3-0.5,0.7-0.9,1.3-1.2s1.2-0.4,1.9-0.4c1.7,0,2.8,0.6,3.3,1.8h0.1c0.3-0.6,0.8-1,1.4-1.3c0.6-0.3,1.3-0.5,2.1-0.5
				c1.2,0,2.1,0.3,2.7,0.9s0.9,1.6,0.9,3v7H314.8z"/>
			<path fill="#221F1F" d="M324.8,578c0-0.4,0.1-0.6,0.3-0.8c0.2-0.2,0.4-0.3,0.7-0.3c0.3,0,0.5,0.1,0.7,0.3
				c0.2,0.2,0.3,0.4,0.3,0.8s-0.1,0.6-0.3,0.8c-0.2,0.2-0.4,0.3-0.7,0.3c-0.3,0-0.5-0.1-0.7-0.3C324.9,578.7,324.8,578.4,324.8,578z
				 M326.5,591.6h-1.6v-10.7h1.6V591.6z"/>
			<path fill="#221F1F" d="M336.9,588.7c0,1-0.4,1.8-1.1,2.3s-1.8,0.8-3.1,0.8c-1.4,0-2.5-0.2-3.3-0.7v-1.5c0.5,0.3,1.1,0.5,1.7,0.6
				c0.6,0.1,1.2,0.2,1.7,0.2c0.8,0,1.5-0.1,1.9-0.4c0.5-0.3,0.7-0.7,0.7-1.2c0-0.4-0.2-0.8-0.5-1.1c-0.4-0.3-1.1-0.6-2.1-1
				c-1-0.4-1.7-0.7-2.1-1c-0.4-0.3-0.7-0.6-0.9-0.9s-0.3-0.8-0.3-1.3c0-0.9,0.4-1.6,1.1-2.1c0.7-0.5,1.7-0.8,2.9-0.8
				c1.1,0,2.3,0.2,3.4,0.7l-0.6,1.3c-1.1-0.4-2-0.7-2.9-0.7c-0.8,0-1.3,0.1-1.7,0.4c-0.4,0.2-0.6,0.6-0.6,1c0,0.3,0.1,0.5,0.2,0.7
				c0.1,0.2,0.4,0.4,0.7,0.6c0.3,0.2,0.9,0.4,1.9,0.8c1.3,0.5,2.1,0.9,2.6,1.4C336.6,587.4,336.9,588,336.9,588.7z"/>
			<path fill="#221F1F" d="M352,591.6v-6.9c0-0.9-0.2-1.5-0.6-2s-1-0.6-1.9-0.6c-1.1,0-1.9,0.3-2.5,0.9s-0.8,1.6-0.8,3v5.6h-1.6
				v-10.7h1.3l0.3,1.5h0.1c0.3-0.5,0.8-0.9,1.4-1.2c0.6-0.3,1.3-0.4,2-0.4c1.3,0,2.3,0.3,2.9,0.9c0.6,0.6,1,1.6,1,3v7H352z"/>
			<path fill="#221F1F" d="M366.2,586.3c0,1.7-0.4,3.1-1.3,4.1c-0.9,1-2.1,1.5-3.6,1.5c-1,0-1.8-0.2-2.5-0.7s-1.3-1.1-1.7-1.9
				s-0.6-1.8-0.6-2.9c0-1.7,0.4-3.1,1.3-4.1c0.9-1,2.1-1.5,3.6-1.5c1.5,0,2.7,0.5,3.6,1.5C365.7,583.2,366.2,584.6,366.2,586.3z
				 M358,586.3c0,1.4,0.3,2.4,0.8,3.1s1.3,1.1,2.4,1.1c1.1,0,1.9-0.4,2.4-1.1c0.5-0.7,0.8-1.8,0.8-3.1c0-1.4-0.3-2.4-0.8-3.1
				c-0.5-0.7-1.4-1.1-2.4-1.1c-1.1,0-1.9,0.3-2.4,1C358.3,583.9,358,584.9,358,586.3z"/>
			<path fill="#221F1F" d="M377.7,591.6l-2-6.3c-0.1-0.4-0.4-1.3-0.7-2.6H375c-0.3,1.1-0.5,2-0.7,2.6l-2,6.3h-1.9l-2.9-10.7h1.7
				c0.7,2.7,1.2,4.7,1.6,6.1c0.4,1.4,0.6,2.4,0.6,2.8h0.1c0.1-0.4,0.2-0.9,0.3-1.4s0.3-1.1,0.4-1.4l2-6.1h1.8l1.9,6.1
				c0.4,1.1,0.6,2.1,0.7,2.8h0.1c0-0.2,0.1-0.6,0.2-1.1s0.8-3.1,2-7.9h1.7l-3,10.7H377.7z"/>
			<path fill="#221F1F" d="M394.6,580.7c0.5,0,0.9,0,1.3,0.1l-0.2,1.5c-0.4-0.1-0.8-0.1-1.2-0.1c-0.9,0-1.6,0.4-2.2,1.1
				c-0.6,0.7-0.9,1.6-0.9,2.6v5.7h-1.6v-10.7h1.3l0.2,2h0.1c0.4-0.7,0.9-1.2,1.4-1.6C393.3,580.9,393.9,580.7,394.6,580.7z"/>
			<path fill="#221F1F" d="M404.4,591.6l-0.3-1.5H404c-0.5,0.7-1.1,1.1-1.6,1.4c-0.5,0.2-1.2,0.4-2,0.4c-1.1,0-1.9-0.3-2.5-0.8
				s-0.9-1.3-0.9-2.3c0-2.2,1.7-3.3,5.2-3.4l1.8-0.1v-0.7c0-0.8-0.2-1.5-0.5-1.9c-0.4-0.4-0.9-0.6-1.7-0.6c-0.9,0-1.9,0.3-3,0.8
				l-0.5-1.2c0.5-0.3,1.1-0.5,1.7-0.7s1.3-0.2,1.9-0.2c1.3,0,2.2,0.3,2.8,0.8c0.6,0.6,0.9,1.5,0.9,2.7v7.3H404.4z M400.8,590.5
				c1,0,1.8-0.3,2.4-0.8s0.9-1.3,0.9-2.3v-1l-1.6,0.1c-1.3,0-2.2,0.2-2.8,0.6c-0.6,0.4-0.9,0.9-0.9,1.7c0,0.6,0.2,1,0.5,1.3
				C399.6,590.3,400.1,590.5,400.8,590.5z"/>
			<path fill="#221F1F" d="M413.9,591.8c-0.7,0-1.3-0.1-1.9-0.4c-0.6-0.3-1.1-0.7-1.4-1.2h-0.1c0.1,0.6,0.1,1.2,0.1,1.8v4.4H409
				v-15.5h1.3l0.2,1.5h0.1c0.4-0.6,0.9-1,1.5-1.3s1.2-0.4,1.9-0.4c1.4,0,2.5,0.5,3.3,1.5s1.2,2.3,1.2,4.1c0,1.8-0.4,3.1-1.2,4.1
				C416.4,591.4,415.3,591.8,413.9,591.8z M413.7,582.1c-1.1,0-1.9,0.3-2.4,0.9s-0.7,1.6-0.8,2.9v0.4c0,1.5,0.2,2.6,0.8,3.2
				s1.3,1,2.4,1c0.9,0,1.6-0.4,2.2-1.1c0.5-0.7,0.8-1.8,0.8-3.1c0-1.3-0.3-2.4-0.8-3.1C415.4,582.5,414.6,582.1,413.7,582.1z"/>
			<path fill="#221F1F" d="M421.1,578c0-0.4,0.1-0.6,0.3-0.8c0.2-0.2,0.4-0.3,0.7-0.3c0.3,0,0.5,0.1,0.7,0.3
				c0.2,0.2,0.3,0.4,0.3,0.8s-0.1,0.6-0.3,0.8c-0.2,0.2-0.4,0.3-0.7,0.3c-0.3,0-0.5-0.1-0.7-0.3C421.1,578.7,421.1,578.4,421.1,578z
				 M422.8,591.6h-1.6v-10.7h1.6V591.6z"/>
			<path fill="#221F1F" d="M433.1,588.7c0,1-0.4,1.8-1.1,2.3s-1.8,0.8-3.1,0.8c-1.4,0-2.5-0.2-3.3-0.7v-1.5c0.5,0.3,1.1,0.5,1.7,0.6
				c0.6,0.1,1.2,0.2,1.7,0.2c0.8,0,1.5-0.1,1.9-0.4c0.5-0.3,0.7-0.7,0.7-1.2c0-0.4-0.2-0.8-0.5-1.1c-0.4-0.3-1.1-0.6-2.1-1
				c-1-0.4-1.7-0.7-2.1-1c-0.4-0.3-0.7-0.6-0.9-0.9s-0.3-0.8-0.3-1.3c0-0.9,0.4-1.6,1.1-2.1c0.7-0.5,1.7-0.8,2.9-0.8
				c1.1,0,2.3,0.2,3.4,0.7l-0.6,1.3c-1.1-0.4-2-0.7-2.9-0.7c-0.8,0-1.3,0.1-1.7,0.4c-0.4,0.2-0.6,0.6-0.6,1c0,0.3,0.1,0.5,0.2,0.7
				c0.1,0.2,0.4,0.4,0.7,0.6c0.3,0.2,0.9,0.4,1.9,0.8c1.3,0.5,2.1,0.9,2.6,1.4C432.9,587.4,433.1,588,433.1,588.7z"/>
			<path fill="#221F1F" d="M437.4,591.6h-1.6v-15.2h1.6V591.6z"/>
			<path fill="#221F1F" d="M439.1,580.9h1.7l2.3,6.1c0.5,1.4,0.8,2.4,1,3h0.1c0.1-0.3,0.3-0.9,0.5-1.7s1.2-3.3,2.6-7.4h1.7
				l-4.6,12.2c-0.5,1.2-1,2.1-1.6,2.6s-1.4,0.8-2.2,0.8c-0.5,0-1-0.1-1.5-0.2V595c0.4,0.1,0.8,0.1,1.2,0.1c1.1,0,1.9-0.6,2.4-1.9
				l0.6-1.5L439.1,580.9z"/>
			<path fill="#221F1F" d="M68.6,604.8c1.4,0,2.5,0.5,3.3,1.4c0.8,1,1.2,2.3,1.2,4.1s-0.4,3.1-1.2,4.1c-0.8,1-1.9,1.5-3.3,1.5
				c-0.7,0-1.3-0.1-1.9-0.4c-0.6-0.3-1.1-0.7-1.4-1.2h-0.1l-0.3,1.4h-1.2v-15.2h1.6v3.7c0,0.8,0,1.6-0.1,2.2h0.1
				C66,605.3,67.1,604.8,68.6,604.8z M68.3,606.1c-1.1,0-1.9,0.3-2.4,1s-0.7,1.7-0.7,3.2s0.2,2.6,0.8,3.2s1.3,1,2.4,1
				c1,0,1.7-0.4,2.2-1.1s0.7-1.8,0.7-3.1c0-1.4-0.2-2.4-0.7-3.1S69.3,606.1,68.3,606.1z"/>
			<path fill="#221F1F" d="M80.3,615.8c-1.6,0-2.8-0.5-3.7-1.4s-1.4-2.3-1.4-4c0-1.7,0.4-3.1,1.3-4.1c0.8-1,2-1.5,3.4-1.5
				c1.3,0,2.4,0.4,3.2,1.3s1.2,2,1.2,3.5v1h-7.4c0,1.3,0.3,2.2,1,2.9s1.4,1,2.5,1c1.1,0,2.3-0.2,3.4-0.7v1.4
				c-0.6,0.2-1.1,0.4-1.6,0.5C81.7,615.8,81.1,615.8,80.3,615.8z M79.9,606.1c-0.9,0-1.5,0.3-2.1,0.8c-0.5,0.6-0.8,1.3-0.9,2.3h5.6
				c0-1-0.2-1.8-0.7-2.3C81.4,606.4,80.7,606.1,79.9,606.1z"/>
			<path fill="#221F1F" d="M86.9,602c0-0.4,0.1-0.6,0.3-0.8c0.2-0.2,0.4-0.3,0.7-0.3c0.3,0,0.5,0.1,0.7,0.3c0.2,0.2,0.3,0.4,0.3,0.8
				s-0.1,0.6-0.3,0.8c-0.2,0.2-0.4,0.3-0.7,0.3c-0.3,0-0.5-0.1-0.7-0.3C87,602.7,86.9,602.4,86.9,602z M88.6,615.6H87v-10.7h1.6
				V615.6z"/>
			<path fill="#221F1F" d="M99.4,615.6v-6.9c0-0.9-0.2-1.5-0.6-2s-1-0.6-1.9-0.6c-1.1,0-1.9,0.3-2.5,0.9s-0.8,1.6-0.8,3v5.6h-1.6
				v-10.7h1.3l0.3,1.5h0.1c0.3-0.5,0.8-0.9,1.4-1.2c0.6-0.3,1.3-0.4,2-0.4c1.3,0,2.3,0.3,2.9,0.9c0.6,0.6,1,1.6,1,3v7H99.4z"/>
			<path fill="#221F1F" d="M113.1,604.9v1l-2,0.2c0.2,0.2,0.3,0.5,0.5,0.9s0.2,0.8,0.2,1.2c0,1-0.4,1.9-1.1,2.5
				c-0.7,0.6-1.7,0.9-2.9,0.9c-0.3,0-0.6,0-0.9-0.1c-0.7,0.4-1,0.8-1,1.4c0,0.3,0.1,0.5,0.4,0.6s0.7,0.2,1.2,0.2h1.9
				c1.2,0,2,0.2,2.7,0.7c0.6,0.5,0.9,1.2,0.9,2.1c0,1.2-0.5,2.1-1.4,2.7s-2.3,0.9-4.2,0.9c-1.4,0-2.5-0.3-3.2-0.8s-1.1-1.3-1.1-2.2
				c0-0.7,0.2-1.2,0.6-1.7s1-0.8,1.8-1c-0.3-0.1-0.5-0.3-0.7-0.6s-0.3-0.6-0.3-0.9c0-0.4,0.1-0.7,0.3-1s0.5-0.6,1-0.8
				c-0.6-0.2-1-0.6-1.4-1.2s-0.5-1.2-0.5-1.9c0-1.2,0.4-2.1,1.1-2.7s1.7-1,3-1c0.6,0,1.1,0.1,1.5,0.2H113.1z M104.5,617.4
				c0,0.6,0.2,1,0.7,1.3s1.2,0.4,2.1,0.4c1.4,0,2.4-0.2,3-0.6c0.7-0.4,1-1,1-1.7c0-0.6-0.2-1-0.5-1.2s-1-0.3-2-0.3h-1.9
				c-0.7,0-1.3,0.2-1.7,0.5C104.8,616.3,104.5,616.8,104.5,617.4z M105.4,608.4c0,0.7,0.2,1.3,0.6,1.7c0.4,0.4,1,0.6,1.8,0.6
				c1.6,0,2.4-0.8,2.4-2.3c0-1.6-0.8-2.4-2.4-2.4c-0.8,0-1.3,0.2-1.8,0.6C105.6,607,105.4,607.6,105.4,608.4z"/>
			<path fill="#221F1F" d="M127,615.6l-0.3-1.5h-0.1c-0.5,0.7-1.1,1.1-1.6,1.4c-0.5,0.2-1.2,0.4-2,0.4c-1.1,0-1.9-0.3-2.5-0.8
				s-0.9-1.3-0.9-2.3c0-2.2,1.7-3.3,5.2-3.4l1.8-0.1v-0.7c0-0.8-0.2-1.5-0.5-1.9c-0.4-0.4-0.9-0.6-1.7-0.6c-0.9,0-1.9,0.3-3,0.8
				l-0.5-1.2c0.5-0.3,1.1-0.5,1.7-0.7s1.3-0.2,1.9-0.2c1.3,0,2.2,0.3,2.8,0.8c0.6,0.6,0.9,1.5,0.9,2.7v7.3H127z M123.4,614.5
				c1,0,1.8-0.3,2.4-0.8s0.9-1.3,0.9-2.3v-1l-1.6,0.1c-1.3,0-2.2,0.2-2.8,0.6c-0.6,0.4-0.9,0.9-0.9,1.7c0,0.6,0.2,1,0.5,1.3
				C122.2,614.3,122.7,614.5,123.4,614.5z"/>
			<path fill="#221F1F" d="M138.8,614.2L138.8,614.2c-0.8,1.1-2,1.6-3.4,1.6c-1.4,0-2.5-0.5-3.3-1.4s-1.2-2.3-1.2-4.1
				s0.4-3.1,1.2-4.1s1.9-1.5,3.3-1.5c1.4,0,2.6,0.5,3.3,1.6h0.1l-0.1-0.8l0-0.8v-4.4h1.6v15.2H139L138.8,614.2z M135.6,614.5
				c1.1,0,1.9-0.3,2.4-0.9s0.7-1.6,0.7-2.9v-0.3c0-1.5-0.3-2.6-0.8-3.2c-0.5-0.6-1.3-1-2.4-1c-0.9,0-1.7,0.4-2.2,1.1
				s-0.8,1.8-0.8,3.1c0,1.4,0.2,2.4,0.8,3.1S134.6,614.5,135.6,614.5z"/>
			<path fill="#221F1F" d="M153,610.3c0,1.7-0.4,3.1-1.3,4.1c-0.9,1-2.1,1.5-3.6,1.5c-1,0-1.8-0.2-2.5-0.7s-1.3-1.1-1.7-1.9
				s-0.6-1.8-0.6-2.9c0-1.7,0.4-3.1,1.3-4.1c0.9-1,2.1-1.5,3.6-1.5c1.5,0,2.7,0.5,3.6,1.5C152.6,607.2,153,608.6,153,610.3z
				 M144.9,610.3c0,1.4,0.3,2.4,0.8,3.1s1.3,1.1,2.4,1.1c1.1,0,1.9-0.4,2.4-1.1c0.5-0.7,0.8-1.8,0.8-3.1c0-1.4-0.3-2.4-0.8-3.1
				c-0.5-0.7-1.4-1.1-2.4-1.1c-1.1,0-1.9,0.3-2.4,1C145.1,607.9,144.9,608.9,144.9,610.3z"/>
			<path fill="#221F1F" d="M160.8,615.8c-0.7,0-1.3-0.1-1.9-0.4c-0.6-0.3-1.1-0.7-1.4-1.2h-0.1c0.1,0.6,0.1,1.2,0.1,1.8v4.4h-1.6
				v-15.5h1.3l0.2,1.5h0.1c0.4-0.6,0.9-1,1.5-1.3s1.2-0.4,1.9-0.4c1.4,0,2.5,0.5,3.3,1.5s1.2,2.3,1.2,4.1c0,1.8-0.4,3.1-1.2,4.1
				C163.3,615.4,162.2,615.8,160.8,615.8z M160.6,606.1c-1.1,0-1.9,0.3-2.4,0.9s-0.7,1.6-0.8,2.9v0.4c0,1.5,0.2,2.6,0.8,3.2
				s1.3,1,2.4,1c0.9,0,1.6-0.4,2.2-1.1c0.5-0.7,0.8-1.8,0.8-3.1c0-1.3-0.3-2.4-0.8-3.1C162.3,606.5,161.5,606.1,160.6,606.1z"/>
			<path fill="#221F1F" d="M171.5,614.5c0.3,0,0.6,0,0.8-0.1c0.3,0,0.5-0.1,0.6-0.1v1.2c-0.2,0.1-0.4,0.2-0.8,0.2
				c-0.3,0.1-0.6,0.1-0.9,0.1c-2.1,0-3.1-1.1-3.1-3.3v-6.4h-1.5v-0.8l1.5-0.7l0.7-2.3h0.9v2.5h3.1v1.3h-3.1v6.3
				c0,0.6,0.2,1.1,0.5,1.5C170.6,614.3,171,614.5,171.5,614.5z"/>
			<path fill="#221F1F" d="M179.6,615.8c-1.6,0-2.8-0.5-3.7-1.4s-1.4-2.3-1.4-4c0-1.7,0.4-3.1,1.3-4.1c0.8-1,2-1.5,3.4-1.5
				c1.3,0,2.4,0.4,3.2,1.3s1.2,2,1.2,3.5v1h-7.4c0,1.3,0.3,2.2,1,2.9s1.4,1,2.5,1c1.1,0,2.3-0.2,3.4-0.7v1.4
				c-0.6,0.2-1.1,0.4-1.6,0.5C181,615.8,180.4,615.8,179.6,615.8z M179.2,606.1c-0.9,0-1.5,0.3-2.1,0.8c-0.5,0.6-0.8,1.3-0.9,2.3
				h5.6c0-1-0.2-1.8-0.7-2.3C180.7,606.4,180,606.1,179.2,606.1z"/>
			<path fill="#221F1F" d="M193.6,614.2L193.6,614.2c-0.8,1.1-2,1.6-3.4,1.6c-1.4,0-2.5-0.5-3.3-1.4s-1.2-2.3-1.2-4.1
				s0.4-3.1,1.2-4.1s1.9-1.5,3.3-1.5c1.4,0,2.6,0.5,3.3,1.6h0.1l-0.1-0.8l0-0.8v-4.4h1.6v15.2h-1.3L193.6,614.2z M190.4,614.5
				c1.1,0,1.9-0.3,2.4-0.9s0.7-1.6,0.7-2.9v-0.3c0-1.5-0.3-2.6-0.8-3.2c-0.5-0.6-1.3-1-2.4-1c-0.9,0-1.7,0.4-2.2,1.1
				s-0.8,1.8-0.8,3.1c0,1.4,0.2,2.4,0.8,3.1S189.4,614.5,190.4,614.5z"/>
			<path fill="#221F1F" d="M208.7,604.8c1.4,0,2.5,0.5,3.3,1.4c0.8,1,1.2,2.3,1.2,4.1s-0.4,3.1-1.2,4.1c-0.8,1-1.9,1.5-3.3,1.5
				c-0.7,0-1.3-0.1-1.9-0.4c-0.6-0.3-1.1-0.7-1.4-1.2h-0.1l-0.3,1.4h-1.2v-15.2h1.6v3.7c0,0.8,0,1.6-0.1,2.2h0.1
				C206.1,605.3,207.2,604.8,208.7,604.8z M208.5,606.1c-1.1,0-1.9,0.3-2.4,1s-0.7,1.7-0.7,3.2s0.2,2.6,0.8,3.2s1.3,1,2.4,1
				c1,0,1.7-0.4,2.2-1.1s0.7-1.8,0.7-3.1c0-1.4-0.2-2.4-0.7-3.1S209.5,606.1,208.5,606.1z"/>
			<path fill="#221F1F" d="M214.3,604.9h1.7l2.3,6.1c0.5,1.4,0.8,2.4,1,3h0.1c0.1-0.3,0.3-0.9,0.5-1.7s1.2-3.3,2.6-7.4h1.7
				l-4.6,12.2c-0.5,1.2-1,2.1-1.6,2.6s-1.4,0.8-2.2,0.8c-0.5,0-1-0.1-1.5-0.2V619c0.4,0.1,0.8,0.1,1.2,0.1c1.1,0,1.9-0.6,2.4-1.9
				l0.6-1.5L214.3,604.9z"/>
			<path fill="#221F1F" d="M237.8,615.6l-4.8-12.7h-0.1c0.1,1,0.1,2.2,0.1,3.6v9.1h-1.5v-14.3h2.5l4.5,11.8h0.1l4.6-11.8h2.5v14.3
				h-1.7v-9.2c0-1.1,0-2.2,0.1-3.4H244l-4.9,12.6H237.8z"/>
			<path fill="#221F1F" d="M250.8,604.9v6.9c0,0.9,0.2,1.5,0.6,2s1,0.6,1.9,0.6c1.1,0,1.9-0.3,2.5-0.9s0.8-1.6,0.8-3v-5.6h1.6v10.7
				h-1.3l-0.2-1.4h-0.1c-0.3,0.5-0.8,0.9-1.4,1.2c-0.6,0.3-1.3,0.4-2,0.4c-1.3,0-2.3-0.3-2.9-0.9s-1-1.6-1-3v-7H250.8z"/>
			<path fill="#221F1F" d="M268.4,612.7c0,1-0.4,1.8-1.1,2.3s-1.8,0.8-3.1,0.8c-1.4,0-2.5-0.2-3.3-0.7v-1.5c0.5,0.3,1.1,0.5,1.7,0.6
				c0.6,0.1,1.2,0.2,1.7,0.2c0.8,0,1.5-0.1,1.9-0.4c0.5-0.3,0.7-0.7,0.7-1.2c0-0.4-0.2-0.8-0.5-1.1c-0.4-0.3-1.1-0.6-2.1-1
				c-1-0.4-1.7-0.7-2.1-1c-0.4-0.3-0.7-0.6-0.9-0.9s-0.3-0.8-0.3-1.3c0-0.9,0.4-1.6,1.1-2.1c0.7-0.5,1.7-0.8,2.9-0.8
				c1.1,0,2.3,0.2,3.4,0.7l-0.6,1.3c-1.1-0.4-2-0.7-2.9-0.7c-0.8,0-1.3,0.1-1.7,0.4c-0.4,0.2-0.6,0.6-0.6,1c0,0.3,0.1,0.5,0.2,0.7
				c0.1,0.2,0.4,0.4,0.7,0.6c0.3,0.2,0.9,0.4,1.9,0.8c1.3,0.5,2.1,0.9,2.6,1.4C268.2,611.4,268.4,612,268.4,612.7z"/>
			<path fill="#221F1F" d="M275.5,615.8c-1.6,0-2.8-0.5-3.7-1.4s-1.4-2.3-1.4-4c0-1.7,0.4-3.1,1.3-4.1c0.8-1,2-1.5,3.4-1.5
				c1.3,0,2.4,0.4,3.2,1.3s1.2,2,1.2,3.5v1h-7.4c0,1.3,0.3,2.2,1,2.9s1.4,1,2.5,1c1.1,0,2.3-0.2,3.4-0.7v1.4
				c-0.6,0.2-1.1,0.4-1.6,0.5C276.9,615.8,276.2,615.8,275.5,615.8z M275.1,606.1c-0.9,0-1.5,0.3-2.1,0.8c-0.5,0.6-0.8,1.3-0.9,2.3
				h5.6c0-1-0.2-1.8-0.7-2.3C276.6,606.4,275.9,606.1,275.1,606.1z"/>
			<path fill="#221F1F" d="M283.7,604.9v6.9c0,0.9,0.2,1.5,0.6,2s1,0.6,1.9,0.6c1.1,0,1.9-0.3,2.5-0.9s0.8-1.6,0.8-3v-5.6h1.6v10.7
				h-1.3l-0.2-1.4h-0.1c-0.3,0.5-0.8,0.9-1.4,1.2c-0.6,0.3-1.3,0.4-2,0.4c-1.3,0-2.3-0.3-2.9-0.9s-1-1.6-1-3v-7H283.7z"/>
			<path fill="#221F1F" d="M308.1,615.6v-7c0-0.9-0.2-1.5-0.5-1.9c-0.4-0.4-0.9-0.6-1.7-0.6c-1,0-1.8,0.3-2.2,0.9s-0.7,1.5-0.7,2.7
				v6h-1.6v-7c0-0.9-0.2-1.5-0.5-1.9s-0.9-0.6-1.7-0.6c-1,0-1.8,0.3-2.2,0.9s-0.7,1.6-0.7,3v5.6h-1.6v-10.7h1.3l0.3,1.5h0.1
				c0.3-0.5,0.7-0.9,1.3-1.2s1.2-0.4,1.9-0.4c1.7,0,2.8,0.6,3.3,1.8h0.1c0.3-0.6,0.8-1,1.4-1.3c0.6-0.3,1.3-0.5,2.1-0.5
				c1.2,0,2.1,0.3,2.7,0.9s0.9,1.6,0.9,3v7H308.1z"/>
			<path fill="#221F1F" d="M319.9,612.7c0,1-0.4,1.8-1.1,2.3s-1.8,0.8-3.1,0.8c-1.4,0-2.5-0.2-3.3-0.7v-1.5c0.5,0.3,1.1,0.5,1.7,0.6
				c0.6,0.1,1.2,0.2,1.7,0.2c0.8,0,1.5-0.1,1.9-0.4c0.5-0.3,0.7-0.7,0.7-1.2c0-0.4-0.2-0.8-0.5-1.1c-0.4-0.3-1.1-0.6-2.1-1
				c-1-0.4-1.7-0.7-2.1-1c-0.4-0.3-0.7-0.6-0.9-0.9s-0.3-0.8-0.3-1.3c0-0.9,0.4-1.6,1.1-2.1c0.7-0.5,1.7-0.8,2.9-0.8
				c1.1,0,2.3,0.2,3.4,0.7l-0.6,1.3c-1.1-0.4-2-0.7-2.9-0.7c-0.8,0-1.3,0.1-1.7,0.4c-0.4,0.2-0.6,0.6-0.6,1c0,0.3,0.1,0.5,0.2,0.7
				c0.1,0.2,0.4,0.4,0.7,0.6c0.3,0.2,0.9,0.4,1.9,0.8c1.3,0.5,2.1,0.9,2.6,1.4C319.7,611.4,319.9,612,319.9,612.7z"/>
			<path fill="#221F1F" d="M331.2,614.5c0.3,0,0.6,0,0.8-0.1c0.3,0,0.5-0.1,0.6-0.1v1.2c-0.2,0.1-0.4,0.2-0.8,0.2
				c-0.3,0.1-0.6,0.1-0.9,0.1c-2.1,0-3.1-1.1-3.1-3.3v-6.4h-1.5v-0.8l1.5-0.7l0.7-2.3h0.9v2.5h3.1v1.3h-3.1v6.3
				c0,0.6,0.2,1.1,0.5,1.5C330.2,614.3,330.7,614.5,331.2,614.5z"/>
			<path fill="#221F1F" d="M342.1,615.6v-6.9c0-0.9-0.2-1.5-0.6-2s-1-0.6-1.9-0.6c-1.1,0-1.9,0.3-2.5,0.9s-0.8,1.6-0.8,3v5.6h-1.6
				v-15.2h1.6v4.6c0,0.6,0,1-0.1,1.4h0.1c0.3-0.5,0.8-0.9,1.4-1.2c0.6-0.3,1.3-0.4,2-0.4c1.3,0,2.3,0.3,2.9,0.9c0.7,0.6,1,1.6,1,3v7
				H342.1z"/>
			<path fill="#221F1F" d="M351.6,615.8c-1.6,0-2.8-0.5-3.7-1.4s-1.4-2.3-1.4-4c0-1.7,0.4-3.1,1.3-4.1c0.8-1,2-1.5,3.4-1.5
				c1.3,0,2.4,0.4,3.2,1.3s1.2,2,1.2,3.5v1h-7.4c0,1.3,0.3,2.2,1,2.9s1.4,1,2.5,1c1.1,0,2.3-0.2,3.4-0.7v1.4
				c-0.6,0.2-1.1,0.4-1.6,0.5C352.9,615.8,352.3,615.8,351.6,615.8z M351.1,606.1c-0.9,0-1.5,0.3-2.1,0.8c-0.5,0.6-0.8,1.3-0.9,2.3
				h5.6c0-1-0.2-1.8-0.7-2.3C352.6,606.4,352,606.1,351.1,606.1z"/>
			<path fill="#221F1F" d="M372.1,615.6l-2-6.3c-0.1-0.4-0.4-1.3-0.7-2.6h-0.1c-0.3,1.1-0.5,2-0.7,2.6l-2,6.3h-1.9l-2.9-10.7h1.7
				c0.7,2.7,1.2,4.7,1.6,6.1c0.4,1.4,0.6,2.4,0.6,2.8h0.1c0.1-0.4,0.2-0.9,0.3-1.4s0.3-1.1,0.4-1.4l2-6.1h1.8l1.9,6.1
				c0.4,1.1,0.6,2.1,0.7,2.8h0.1c0-0.2,0.1-0.6,0.2-1.1s0.8-3.1,2-7.9h1.7l-3,10.7H372.1z"/>
			<path fill="#221F1F" d="M388.2,610.3c0,1.7-0.4,3.1-1.3,4.1c-0.9,1-2.1,1.5-3.6,1.5c-1,0-1.8-0.2-2.5-0.7s-1.3-1.1-1.7-1.9
				s-0.6-1.8-0.6-2.9c0-1.7,0.4-3.1,1.3-4.1c0.9-1,2.1-1.5,3.6-1.5c1.5,0,2.7,0.5,3.6,1.5C387.7,607.2,388.2,608.6,388.2,610.3z
				 M380,610.3c0,1.4,0.3,2.4,0.8,3.1s1.3,1.1,2.4,1.1c1.1,0,1.9-0.4,2.4-1.1c0.5-0.7,0.8-1.8,0.8-3.1c0-1.4-0.3-2.4-0.8-3.1
				c-0.5-0.7-1.4-1.1-2.4-1.1c-1.1,0-1.9,0.3-2.4,1C380.3,607.9,380,608.9,380,610.3z"/>
			<path fill="#221F1F" d="M395.9,604.7c0.5,0,0.9,0,1.3,0.1l-0.2,1.5c-0.4-0.1-0.8-0.1-1.2-0.1c-0.9,0-1.6,0.4-2.2,1.1
				c-0.6,0.7-0.9,1.6-0.9,2.6v5.7H391v-10.7h1.3l0.2,2h0.1c0.4-0.7,0.9-1.2,1.4-1.6C394.6,604.9,395.2,604.7,395.9,604.7z"/>
			<path fill="#221F1F" d="M400.8,615.6h-1.6v-15.2h1.6V615.6z"/>
			<path fill="#221F1F" d="M411.5,614.2L411.5,614.2c-0.8,1.1-2,1.6-3.4,1.6c-1.4,0-2.5-0.5-3.3-1.4s-1.2-2.3-1.2-4.1
				s0.4-3.1,1.2-4.1s1.9-1.5,3.3-1.5c1.4,0,2.6,0.5,3.3,1.6h0.1l-0.1-0.8l0-0.8v-4.4h1.6v15.2h-1.3L411.5,614.2z M408.2,614.5
				c1.1,0,1.9-0.3,2.4-0.9s0.7-1.6,0.7-2.9v-0.3c0-1.5-0.3-2.6-0.8-3.2c-0.5-0.6-1.3-1-2.4-1c-0.9,0-1.7,0.4-2.2,1.1
				s-0.8,1.8-0.8,3.1c0,1.4,0.2,2.4,0.8,3.1S407.3,614.5,408.2,614.5z"/>
			<path fill="#221F1F" d="M430.8,610.3c0,1.7-0.4,3.1-1.3,4.1c-0.9,1-2.1,1.5-3.6,1.5c-1,0-1.8-0.2-2.5-0.7s-1.3-1.1-1.7-1.9
				s-0.6-1.8-0.6-2.9c0-1.7,0.4-3.1,1.3-4.1c0.9-1,2.1-1.5,3.6-1.5c1.5,0,2.7,0.5,3.6,1.5C430.4,607.2,430.8,608.6,430.8,610.3z
				 M422.7,610.3c0,1.4,0.3,2.4,0.8,3.1s1.3,1.1,2.4,1.1c1.1,0,1.9-0.4,2.4-1.1c0.5-0.7,0.8-1.8,0.8-3.1c0-1.4-0.3-2.4-0.8-3.1
				c-0.5-0.7-1.4-1.1-2.4-1.1c-1.1,0-1.9,0.3-2.4,1C423,607.9,422.7,608.9,422.7,610.3z"/>
			<path fill="#221F1F" d="M436,615.6l-4.1-10.7h1.7l2.3,6.3c0.5,1.5,0.8,2.4,0.9,2.9h0.1c0.1-0.3,0.3-1.1,0.7-2.1
				c0.4-1.1,1.2-3.4,2.6-7.1h1.7l-4.1,10.7H436z"/>
			<path fill="#221F1F" d="M448.2,615.8c-1.6,0-2.8-0.5-3.7-1.4s-1.4-2.3-1.4-4c0-1.7,0.4-3.1,1.3-4.1c0.8-1,2-1.5,3.4-1.5
				c1.3,0,2.4,0.4,3.2,1.3s1.2,2,1.2,3.5v1h-7.4c0,1.3,0.3,2.2,1,2.9s1.4,1,2.5,1c1.1,0,2.3-0.2,3.4-0.7v1.4
				c-0.6,0.2-1.1,0.4-1.6,0.5C449.5,615.8,448.9,615.8,448.2,615.8z M447.8,606.1c-0.9,0-1.5,0.3-2.1,0.8c-0.5,0.6-0.8,1.3-0.9,2.3
				h5.6c0-1-0.2-1.8-0.7-2.3C449.2,606.4,448.6,606.1,447.8,606.1z"/>
			<path fill="#221F1F" d="M459.8,604.7c0.5,0,0.9,0,1.3,0.1l-0.2,1.5c-0.4-0.1-0.8-0.1-1.2-0.1c-0.9,0-1.6,0.4-2.2,1.1
				c-0.6,0.7-0.9,1.6-0.9,2.6v5.7h-1.6v-10.7h1.3l0.2,2h0.1c0.4-0.7,0.9-1.2,1.4-1.6C458.5,604.9,459.1,604.7,459.8,604.7z"/>
			<path fill="#221F1F" d="M70.2,639.6l-0.3-1.5h-0.1c-0.5,0.7-1.1,1.1-1.6,1.4c-0.5,0.2-1.2,0.4-2,0.4c-1.1,0-1.9-0.3-2.5-0.8
				c-0.6-0.5-0.9-1.3-0.9-2.3c0-2.2,1.7-3.3,5.2-3.4l1.8-0.1v-0.7c0-0.8-0.2-1.5-0.5-1.9c-0.4-0.4-0.9-0.6-1.7-0.6
				c-0.9,0-1.9,0.3-3,0.8l-0.5-1.2c0.5-0.3,1.1-0.5,1.7-0.7s1.3-0.2,1.9-0.2c1.3,0,2.2,0.3,2.8,0.8c0.6,0.6,0.9,1.5,0.9,2.7v7.3
				H70.2z M66.5,638.5c1,0,1.8-0.3,2.4-0.8s0.9-1.3,0.9-2.3v-1l-1.6,0.1c-1.3,0-2.2,0.2-2.8,0.6c-0.6,0.4-0.9,0.9-0.9,1.7
				c0,0.6,0.2,1,0.5,1.3C65.4,638.3,65.9,638.5,66.5,638.5z"/>
			<path fill="#221F1F" d="M81.6,636.7c0,1-0.4,1.8-1.1,2.3s-1.8,0.8-3.1,0.8c-1.4,0-2.5-0.2-3.3-0.7v-1.5c0.5,0.3,1.1,0.5,1.7,0.6
				c0.6,0.1,1.2,0.2,1.7,0.2c0.8,0,1.5-0.1,1.9-0.4c0.5-0.3,0.7-0.7,0.7-1.2c0-0.4-0.2-0.8-0.5-1.1c-0.4-0.3-1.1-0.6-2.1-1
				c-1-0.4-1.7-0.7-2.1-1c-0.4-0.3-0.7-0.6-0.9-0.9s-0.3-0.8-0.3-1.3c0-0.9,0.4-1.6,1.1-2.1c0.7-0.5,1.7-0.8,2.9-0.8
				c1.1,0,2.3,0.2,3.4,0.7l-0.6,1.3c-1.1-0.4-2-0.7-2.9-0.7c-0.8,0-1.3,0.1-1.7,0.4c-0.4,0.2-0.6,0.6-0.6,1c0,0.3,0.1,0.5,0.2,0.7
				c0.1,0.2,0.4,0.4,0.7,0.6c0.3,0.2,0.9,0.4,1.9,0.8c1.3,0.5,2.1,0.9,2.6,1.4C81.4,635.4,81.6,636,81.6,636.7z"/>
			<path fill="#221F1F" d="M96,639.6l-0.3-1.5h-0.1c-0.5,0.7-1.1,1.1-1.6,1.4c-0.5,0.2-1.2,0.4-2,0.4c-1.1,0-1.9-0.3-2.5-0.8
				s-0.9-1.3-0.9-2.3c0-2.2,1.7-3.3,5.2-3.4l1.8-0.1v-0.7c0-0.8-0.2-1.5-0.5-1.9c-0.4-0.4-0.9-0.6-1.7-0.6c-0.9,0-1.9,0.3-3,0.8
				l-0.5-1.2c0.5-0.3,1.1-0.5,1.7-0.7s1.3-0.2,1.9-0.2c1.3,0,2.2,0.3,2.8,0.8c0.6,0.6,0.9,1.5,0.9,2.7v7.3H96z M92.3,638.5
				c1,0,1.8-0.3,2.4-0.8s0.9-1.3,0.9-2.3v-1l-1.6,0.1c-1.3,0-2.2,0.2-2.8,0.6c-0.6,0.4-0.9,0.9-0.9,1.7c0,0.6,0.2,1,0.5,1.3
				C91.2,638.3,91.7,638.5,92.3,638.5z"/>
			<path fill="#221F1F" d="M107.2,628.9v6.9c0,0.9,0.2,1.5,0.6,2s1,0.6,1.9,0.6c1.1,0,1.9-0.3,2.5-0.9s0.8-1.6,0.8-3v-5.6h1.6v10.7
				h-1.3l-0.2-1.4h-0.1c-0.3,0.5-0.8,0.9-1.4,1.2c-0.6,0.3-1.3,0.4-2,0.4c-1.3,0-2.3-0.3-2.9-0.9s-1-1.6-1-3v-7H107.2z"/>
			<path fill="#221F1F" d="M124.8,636.7c0,1-0.4,1.8-1.1,2.3s-1.8,0.8-3.1,0.8c-1.4,0-2.5-0.2-3.3-0.7v-1.5c0.5,0.3,1.1,0.5,1.7,0.6
				c0.6,0.1,1.2,0.2,1.7,0.2c0.8,0,1.5-0.1,1.9-0.4c0.5-0.3,0.7-0.7,0.7-1.2c0-0.4-0.2-0.8-0.5-1.1c-0.4-0.3-1.1-0.6-2.1-1
				c-1-0.4-1.7-0.7-2.1-1c-0.4-0.3-0.7-0.6-0.9-0.9s-0.3-0.8-0.3-1.3c0-0.9,0.4-1.6,1.1-2.1c0.7-0.5,1.7-0.8,2.9-0.8
				c1.1,0,2.3,0.2,3.4,0.7l-0.6,1.3c-1.1-0.4-2-0.7-2.9-0.7c-0.8,0-1.3,0.1-1.7,0.4c-0.4,0.2-0.6,0.6-0.6,1c0,0.3,0.1,0.5,0.2,0.7
				c0.1,0.2,0.4,0.4,0.7,0.6c0.3,0.2,0.9,0.4,1.9,0.8c1.3,0.5,2.1,0.9,2.6,1.4C124.6,635.4,124.8,636,124.8,636.7z"/>
			<path fill="#221F1F" d="M132,639.8c-1.6,0-2.8-0.5-3.7-1.4c-0.9-1-1.4-2.3-1.4-4c0-1.7,0.4-3.1,1.3-4.1c0.8-1,2-1.5,3.4-1.5
				c1.3,0,2.4,0.4,3.2,1.3s1.2,2,1.2,3.5v1h-7.4c0,1.3,0.3,2.2,1,2.9s1.4,1,2.5,1c1.1,0,2.3-0.2,3.4-0.7v1.4
				c-0.6,0.2-1.1,0.4-1.6,0.5C133.3,639.8,132.7,639.8,132,639.8z M131.5,630.1c-0.9,0-1.5,0.3-2.1,0.8c-0.5,0.6-0.8,1.3-0.9,2.3
				h5.6c0-1-0.2-1.8-0.7-2.3C133,630.4,132.4,630.1,131.5,630.1z"/>
			<path fill="#221F1F" d="M143.5,628.7c0.5,0,0.9,0,1.3,0.1l-0.2,1.5c-0.4-0.1-0.8-0.1-1.2-0.1c-0.9,0-1.6,0.4-2.2,1.1
				c-0.6,0.7-0.9,1.6-0.9,2.6v5.7h-1.6v-10.7h1.3l0.2,2h0.1c0.4-0.7,0.9-1.2,1.4-1.6C142.3,628.9,142.9,628.7,143.5,628.7z"/>
			<path fill="#221F1F" d="M156.5,639.8c-1.6,0-2.8-0.5-3.7-1.4s-1.4-2.3-1.4-4c0-1.7,0.4-3.1,1.3-4.1c0.8-1,2-1.5,3.4-1.5
				c1.3,0,2.4,0.4,3.2,1.3s1.2,2,1.2,3.5v1h-7.4c0,1.3,0.3,2.2,1,2.9s1.4,1,2.5,1c1.1,0,2.3-0.2,3.4-0.7v1.4
				c-0.6,0.2-1.1,0.4-1.6,0.5C157.8,639.8,157.2,639.8,156.5,639.8z M156.1,630.1c-0.9,0-1.5,0.3-2.1,0.8c-0.5,0.6-0.8,1.3-0.9,2.3
				h5.6c0-1-0.2-1.8-0.7-2.3C157.6,630.4,156.9,630.1,156.1,630.1z"/>
			<path fill="#221F1F" d="M165.8,634.2l-3.7-5.2h1.8l2.8,4.1l2.8-4.1h1.8l-3.7,5.2l3.9,5.5h-1.8l-3-4.3l-3,4.3h-1.8L165.8,634.2z"
				/>
			<path fill="#221F1F" d="M178.6,639.8c-0.7,0-1.3-0.1-1.9-0.4c-0.6-0.3-1.1-0.7-1.4-1.2h-0.1c0.1,0.6,0.1,1.2,0.1,1.8v4.4h-1.6
				v-15.5h1.3l0.2,1.5h0.1c0.4-0.6,0.9-1,1.5-1.3s1.2-0.4,1.9-0.4c1.4,0,2.5,0.5,3.3,1.5s1.2,2.3,1.2,4.1c0,1.8-0.4,3.1-1.2,4.1
				C181.1,639.4,180,639.8,178.6,639.8z M178.4,630.1c-1.1,0-1.9,0.3-2.4,0.9s-0.7,1.6-0.8,2.9v0.4c0,1.5,0.2,2.6,0.8,3.2
				s1.3,1,2.4,1c0.9,0,1.6-0.4,2.2-1.1c0.5-0.7,0.8-1.8,0.8-3.1c0-1.3-0.3-2.4-0.8-3.1C180.1,630.5,179.3,630.1,178.4,630.1z"/>
			<path fill="#221F1F" d="M190.4,639.8c-1.6,0-2.8-0.5-3.7-1.4s-1.4-2.3-1.4-4c0-1.7,0.4-3.1,1.3-4.1c0.8-1,2-1.5,3.4-1.5
				c1.3,0,2.4,0.4,3.2,1.3s1.2,2,1.2,3.5v1H187c0,1.3,0.3,2.2,1,2.9s1.4,1,2.5,1c1.1,0,2.3-0.2,3.4-0.7v1.4
				c-0.6,0.2-1.1,0.4-1.6,0.5C191.7,639.8,191.1,639.8,190.4,639.8z M190,630.1c-0.9,0-1.5,0.3-2.1,0.8c-0.5,0.6-0.8,1.3-0.9,2.3
				h5.6c0-1-0.2-1.8-0.7-2.3C191.5,630.4,190.8,630.1,190,630.1z"/>
			<path fill="#221F1F" d="M202,628.7c0.5,0,0.9,0,1.3,0.1l-0.2,1.5c-0.4-0.1-0.8-0.1-1.2-0.1c-0.9,0-1.6,0.4-2.2,1.1
				c-0.6,0.7-0.9,1.6-0.9,2.6v5.7h-1.6v-10.7h1.3l0.2,2h0.1c0.4-0.7,0.9-1.2,1.4-1.6C200.7,628.9,201.3,628.7,202,628.7z"/>
			<path fill="#221F1F" d="M205.1,626c0-0.4,0.1-0.6,0.3-0.8c0.2-0.2,0.4-0.3,0.7-0.3c0.3,0,0.5,0.1,0.7,0.3
				c0.2,0.2,0.3,0.4,0.3,0.8s-0.1,0.6-0.3,0.8c-0.2,0.2-0.4,0.3-0.7,0.3c-0.3,0-0.5-0.1-0.7-0.3C205.2,626.7,205.1,626.4,205.1,626z
				 M206.9,639.6h-1.6v-10.7h1.6V639.6z"/>
			<path fill="#221F1F" d="M214.8,639.8c-1.6,0-2.8-0.5-3.7-1.4s-1.4-2.3-1.4-4c0-1.7,0.4-3.1,1.3-4.1c0.8-1,2-1.5,3.4-1.5
				c1.3,0,2.4,0.4,3.2,1.3s1.2,2,1.2,3.5v1h-7.4c0,1.3,0.3,2.2,1,2.9s1.4,1,2.5,1c1.1,0,2.3-0.2,3.4-0.7v1.4
				c-0.6,0.2-1.1,0.4-1.6,0.5C216.1,639.8,215.5,639.8,214.8,639.8z M214.4,630.1c-0.9,0-1.5,0.3-2.1,0.8c-0.5,0.6-0.8,1.3-0.9,2.3
				h5.6c0-1-0.2-1.8-0.7-2.3C215.9,630.4,215.2,630.1,214.4,630.1z"/>
			<path fill="#221F1F" d="M225.8,639.8c-1.5,0-2.7-0.5-3.6-1.4c-0.8-1-1.3-2.3-1.3-4c0-1.8,0.4-3.2,1.3-4.2c0.9-1,2.1-1.5,3.7-1.5
				c0.5,0,1,0.1,1.5,0.2c0.5,0.1,0.9,0.2,1.2,0.4l-0.5,1.4c-0.4-0.1-0.7-0.3-1.2-0.4s-0.8-0.1-1.1-0.1c-2.2,0-3.3,1.4-3.3,4.2
				c0,1.3,0.3,2.3,0.8,3s1.3,1.1,2.4,1.1c0.9,0,1.8-0.2,2.7-0.6v1.4C227.7,639.7,226.8,639.8,225.8,639.8z"/>
			<path fill="#221F1F" d="M235.5,639.8c-1.6,0-2.8-0.5-3.7-1.4s-1.4-2.3-1.4-4c0-1.7,0.4-3.1,1.3-4.1c0.8-1,2-1.5,3.4-1.5
				c1.3,0,2.4,0.4,3.2,1.3s1.2,2,1.2,3.5v1h-7.4c0,1.3,0.3,2.2,1,2.9s1.4,1,2.5,1c1.1,0,2.3-0.2,3.4-0.7v1.4
				c-0.6,0.2-1.1,0.4-1.6,0.5C236.8,639.8,236.2,639.8,235.5,639.8z M235.1,630.1c-0.9,0-1.5,0.3-2.1,0.8c-0.5,0.6-0.8,1.3-0.9,2.3
				h5.6c0-1-0.2-1.8-0.7-2.3C236.6,630.4,235.9,630.1,235.1,630.1z"/>
			<path fill="#221F1F" d="M252.3,639.8c-0.7,0-1.3-0.1-1.9-0.4c-0.6-0.3-1.1-0.7-1.4-1.2h-0.1c0.1,0.6,0.1,1.2,0.1,1.8v4.4h-1.6
				v-15.5h1.3l0.2,1.5h0.1c0.4-0.6,0.9-1,1.5-1.3s1.2-0.4,1.9-0.4c1.4,0,2.5,0.5,3.3,1.5s1.2,2.3,1.2,4.1c0,1.8-0.4,3.1-1.2,4.1
				C254.8,639.4,253.7,639.8,252.3,639.8z M252.1,630.1c-1.1,0-1.9,0.3-2.4,0.9s-0.7,1.6-0.8,2.9v0.4c0,1.5,0.2,2.6,0.8,3.2
				s1.3,1,2.4,1c0.9,0,1.6-0.4,2.2-1.1c0.5-0.7,0.8-1.8,0.8-3.1c0-1.3-0.3-2.4-0.8-3.1C253.8,630.5,253.1,630.1,252.1,630.1z"/>
			<path fill="#221F1F" d="M261.2,639.6h-1.6v-15.2h1.6V639.6z"/>
			<path fill="#221F1F" d="M271.2,639.6l-0.3-1.5h-0.1c-0.5,0.7-1.1,1.1-1.6,1.4c-0.5,0.2-1.2,0.4-2,0.4c-1.1,0-1.9-0.3-2.5-0.8
				s-0.9-1.3-0.9-2.3c0-2.2,1.7-3.3,5.2-3.4l1.8-0.1v-0.7c0-0.8-0.2-1.5-0.5-1.9c-0.4-0.4-0.9-0.6-1.7-0.6c-0.9,0-1.9,0.3-3,0.8
				l-0.5-1.2c0.5-0.3,1.1-0.5,1.7-0.7s1.3-0.2,1.9-0.2c1.3,0,2.2,0.3,2.8,0.8c0.6,0.6,0.9,1.5,0.9,2.7v7.3H271.2z M267.6,638.5
				c1,0,1.8-0.3,2.4-0.8s0.9-1.3,0.9-2.3v-1l-1.6,0.1c-1.3,0-2.2,0.2-2.8,0.6c-0.6,0.4-0.9,0.9-0.9,1.7c0,0.6,0.2,1,0.5,1.3
				C266.4,638.3,266.9,638.5,267.6,638.5z"/>
			<path fill="#221F1F" d="M279.2,638.5c0.3,0,0.6,0,0.8-0.1c0.3,0,0.5-0.1,0.6-0.1v1.2c-0.2,0.1-0.4,0.2-0.8,0.2
				c-0.3,0.1-0.6,0.1-0.9,0.1c-2.1,0-3.1-1.1-3.1-3.3v-6.4h-1.5v-0.8l1.5-0.7l0.7-2.3h0.9v2.5h3.1v1.3h-3.1v6.3
				c0,0.6,0.2,1.1,0.5,1.5C278.3,638.3,278.7,638.5,279.2,638.5z"/>
			<path fill="#221F1F" d="M287.6,630.2h-2.7v9.4h-1.6v-9.4h-1.9v-0.7l1.9-0.6v-0.6c0-2.6,1.1-3.9,3.4-3.9c0.6,0,1.2,0.1,2,0.3
				l-0.4,1.3c-0.6-0.2-1.2-0.3-1.6-0.3c-0.6,0-1.1,0.2-1.4,0.6c-0.3,0.4-0.4,1.1-0.4,2v0.7h2.7V630.2z"/>
			<path fill="#221F1F" d="M298.8,634.3c0,1.7-0.4,3.1-1.3,4.1c-0.9,1-2.1,1.5-3.6,1.5c-1,0-1.8-0.2-2.5-0.7s-1.3-1.1-1.7-1.9
				s-0.6-1.8-0.6-2.9c0-1.7,0.4-3.1,1.3-4.1c0.9-1,2.1-1.5,3.6-1.5c1.5,0,2.7,0.5,3.6,1.5C298.3,631.2,298.8,632.6,298.8,634.3z
				 M290.7,634.3c0,1.4,0.3,2.4,0.8,3.1s1.3,1.1,2.4,1.1c1.1,0,1.9-0.4,2.4-1.1c0.5-0.7,0.8-1.8,0.8-3.1c0-1.4-0.3-2.4-0.8-3.1
				c-0.5-0.7-1.4-1.1-2.4-1.1c-1.1,0-1.9,0.3-2.4,1C290.9,631.9,290.7,632.9,290.7,634.3z"/>
			<path fill="#221F1F" d="M306.5,628.7c0.5,0,0.9,0,1.3,0.1l-0.2,1.5c-0.4-0.1-0.8-0.1-1.2-0.1c-0.9,0-1.6,0.4-2.2,1.1
				c-0.6,0.7-0.9,1.6-0.9,2.6v5.7h-1.6v-10.7h1.3l0.2,2h0.1c0.4-0.7,0.9-1.2,1.4-1.6C305.2,628.9,305.8,628.7,306.5,628.7z"/>
			<path fill="#221F1F" d="M323.4,639.6v-7c0-0.9-0.2-1.5-0.5-1.9c-0.4-0.4-0.9-0.6-1.7-0.6c-1,0-1.8,0.3-2.2,0.9s-0.7,1.5-0.7,2.7
				v6h-1.6v-7c0-0.9-0.2-1.5-0.5-1.9s-0.9-0.6-1.7-0.6c-1,0-1.8,0.3-2.2,0.9s-0.7,1.6-0.7,3v5.6h-1.6v-10.7h1.3l0.3,1.5h0.1
				c0.3-0.5,0.7-0.9,1.3-1.2s1.2-0.4,1.9-0.4c1.7,0,2.8,0.6,3.3,1.8h0.1c0.3-0.6,0.8-1,1.4-1.3c0.6-0.3,1.3-0.5,2.1-0.5
				c1.2,0,2.1,0.3,2.7,0.9s0.9,1.6,0.9,3v7H323.4z"/>
			<path fill="#221F1F" d="M328.1,638.6c0-0.4,0.1-0.8,0.3-1s0.5-0.3,0.9-0.3c0.4,0,0.7,0.1,0.9,0.3c0.2,0.2,0.3,0.6,0.3,1
				c0,0.4-0.1,0.7-0.3,1c-0.2,0.2-0.5,0.3-0.9,0.3c-0.3,0-0.6-0.1-0.8-0.3S328.1,639.1,328.1,638.6z"/>
		</g>
		<g>
			<path fill="#221F1F" d="M72.4,357.5c0.4,0,0.7,0.1,0.9,0.4c0.3,0.3,0.4,0.6,0.4,0.9c0,0.4-0.1,0.7-0.4,0.9
				c-0.3,0.3-0.6,0.4-0.9,0.4H59.6c-0.4,0-0.7-0.1-0.9-0.4c-0.3-0.3-0.4-0.6-0.4-0.9c0-0.4,0.1-0.7,0.4-0.9l10.9-12.1
				c1-1,1.5-2.2,1.5-3.6c0-1.4-0.5-2.6-1.5-3.6c-1-1-2.2-1.5-3.6-1.5s-2.6,0.5-3.6,1.5c-1,1-1.5,2.2-1.5,3.6c0,0.4-0.1,0.7-0.4,0.9
				c-0.3,0.3-0.6,0.4-0.9,0.4c-0.4,0-0.7-0.1-0.9-0.4c-0.3-0.3-0.4-0.6-0.4-0.9c0-2.1,0.7-3.9,2.2-5.4c1.5-1.5,3.3-2.3,5.4-2.3
				c2.1,0,3.9,0.8,5.4,2.3c1.5,1.5,2.2,3.3,2.2,5.4c0,2.1-0.8,3.9-2.3,5.5l-8.9,9.9H72.4z"/>
			<path fill="#221F1F" d="M76.3,347.2c0-5.1,1.1-8.8,3.2-11c1.2-1.3,2.8-1.9,4.5-1.9s3.3,0.6,4.5,1.9c2.1,2.2,3.2,5.8,3.2,11
				c0,5.1-1.1,8.8-3.2,11c-1.2,1.3-2.8,1.9-4.5,1.9s-3.3-0.6-4.5-1.9C77.3,356,76.3,352.3,76.3,347.2z M84,336.9
				c-1.1,0-2,0.4-2.7,1.1c-1.6,1.8-2.4,4.8-2.4,9.1s0.8,7.3,2.4,9.1c0.8,0.8,1.7,1.1,2.7,1.1s2-0.4,2.7-1.1c1.6-1.8,2.4-4.8,2.4-9.1
				s-0.8-7.3-2.4-9.1C85.9,337.3,85,336.9,84,336.9z"/>
			<path fill="#221F1F" d="M100.6,358.7c0,0.4-0.1,0.7-0.4,0.9c-0.3,0.3-0.6,0.4-0.9,0.4c-0.4,0-0.7-0.1-0.9-0.4
				c-0.3-0.3-0.4-0.6-0.4-0.9v-21.3l-2.1,0.7c-0.2,0.1-0.3,0.1-0.5,0.1c-0.4,0-0.7-0.1-0.9-0.4c-0.3-0.3-0.4-0.6-0.4-0.9
				s0.1-0.7,0.4-0.9c0.1-0.1,0.3-0.2,0.4-0.3l3.8-1.3c0.1-0.1,0.3-0.1,0.5-0.1c0.4,0,0.7,0.1,0.9,0.4c0.3,0.3,0.4,0.6,0.4,0.9V358.7
				z"/>
			<path fill="#221F1F" d="M103.2,347.2c0-5.1,1.1-8.8,3.2-11c1.2-1.3,2.8-1.9,4.5-1.9s3.3,0.6,4.5,1.9c2.1,2.2,3.2,5.8,3.2,11
				c0,5.1-1.1,8.8-3.2,11c-1.2,1.3-2.8,1.9-4.5,1.9s-3.3-0.6-4.5-1.9C104.2,356,103.2,352.3,103.2,347.2z M110.9,336.9
				c-1.1,0-2,0.4-2.7,1.1c-1.6,1.8-2.4,4.8-2.4,9.1s0.8,7.3,2.4,9.1c0.8,0.8,1.7,1.1,2.7,1.1s2-0.4,2.7-1.1c1.6-1.8,2.4-4.8,2.4-9.1
				s-0.8-7.3-2.4-9.1C112.8,337.3,111.9,336.9,110.9,336.9z"/>
		</g>
		<g>
			<path fill="#283B8C" d="M163.5,351.6l6.4-16.6c0.3-0.6,0.7-0.9,1.2-0.9c0.6,0,1,0.3,1.2,0.9l6.5,16.7c0.1,0.2,0.1,0.3,0.1,0.5
				c0,0.4-0.1,0.7-0.4,0.9c-0.2,0.2-0.6,0.4-0.9,0.4s-0.7-0.1-0.9-0.4c-0.1-0.1-0.2-0.3-0.3-0.4l-2.2-5.7h-6.2l-2.2,5.7
				c-0.1,0.1-0.2,0.3-0.3,0.4c-0.2,0.2-0.6,0.4-0.9,0.4s-0.7-0.1-0.9-0.4c-0.2-0.2-0.4-0.6-0.4-0.9
				C163.4,352,163.4,351.8,163.5,351.6z M173.3,344.4l-2.1-5.4l-2.1,5.4H173.3z"/>
			<path fill="#283B8C" d="M183.3,341.2v0.2c0.6-0.5,1.3-0.9,2-1.1c0.7-0.3,1.5-0.4,2.3-0.4c0.4,0,0.7,0,1.1,0.1
				c0.4,0,0.8,0.1,1.1,0.3s0.6,0.3,0.9,0.5c0.2,0.2,0.3,0.5,0.3,0.8c0,0.2,0,0.3-0.1,0.5c-0.1,0.2-0.2,0.3-0.3,0.4s-0.2,0.2-0.4,0.3
				s-0.3,0.1-0.5,0.1c-0.2,0-0.3,0-0.5-0.1c-0.5-0.2-1.1-0.3-1.7-0.3c-0.6,0-1.1,0.1-1.7,0.3c-0.5,0.2-1,0.5-1.3,0.9
				c-0.4,0.4-0.7,0.8-0.9,1.3c-0.2,0.5-0.3,1.1-0.3,1.7v5.5c0,0.3-0.1,0.6-0.4,0.9c-0.2,0.2-0.5,0.4-0.9,0.4c-0.4,0-0.7-0.1-0.9-0.4
				c-0.2-0.2-0.4-0.5-0.4-0.9v-11c0-0.3,0.1-0.6,0.4-0.9c0.2-0.2,0.5-0.4,0.9-0.4c0.3,0,0.6,0.1,0.9,0.4
				C183.1,340.5,183.3,340.8,183.3,341.2z"/>
			<path fill="#283B8C" d="M193.6,339.9h0.6v-4.5c0-0.3,0.1-0.6,0.4-0.9c0.2-0.2,0.5-0.4,0.9-0.4c0.3,0,0.6,0.1,0.9,0.4
				c0.2,0.2,0.4,0.5,0.4,0.9v4.5h1.5c0.3,0,0.6,0.1,0.9,0.4c0.2,0.2,0.4,0.5,0.4,0.9c0,0.4-0.1,0.7-0.4,0.9
				c-0.2,0.2-0.5,0.4-0.9,0.4h-1.5v6.1c0,1.6,0.8,2.4,2.4,2.4c0.3,0,0.6,0.1,0.9,0.4c0.2,0.2,0.4,0.5,0.4,0.9c0,0.4-0.1,0.7-0.4,0.9
				c-0.2,0.2-0.5,0.4-0.9,0.4c-3.3,0-4.9-1.6-4.9-4.9v-6.1h-0.6c-0.3,0-0.6-0.1-0.9-0.4c-0.2-0.2-0.4-0.5-0.4-0.9
				c0-0.3,0.1-0.6,0.4-0.9C192.9,340,193.2,339.9,193.6,339.9z"/>
			<path fill="#283B8C" d="M209.2,352.2v-16.8c0-0.2,0-0.3,0.1-0.5s0.2-0.3,0.3-0.4c0.1-0.1,0.3-0.2,0.4-0.3
				c0.2-0.1,0.3-0.1,0.5-0.1h3.7c0.6,0,1.1,0.1,1.7,0.2c0.5,0.2,1.1,0.4,1.5,0.7c0.5,0.3,0.9,0.6,1.3,1c0.4,0.4,0.7,0.8,1,1.3
				c0.3,0.5,0.5,1,0.7,1.5c0.2,0.5,0.2,1.1,0.2,1.7c0,1.8-0.6,3.3-1.9,4.5c-1.2,1.2-2.8,1.9-4.5,1.9h-2.4v5.2c0,0.4-0.1,0.7-0.4,0.9
				c-0.2,0.2-0.6,0.4-0.9,0.4s-0.7-0.1-0.9-0.4C209.3,352.8,209.2,352.5,209.2,352.2z M211.7,336.7v7.7h2.4c0.5,0,1-0.1,1.5-0.3
				c0.5-0.2,0.9-0.5,1.2-0.8c0.4-0.3,0.6-0.8,0.8-1.2c0.2-0.5,0.3-1,0.3-1.5c0-0.5-0.1-1-0.3-1.5c-0.2-0.5-0.5-0.9-0.8-1.2
				c-0.3-0.3-0.8-0.6-1.2-0.8c-0.5-0.2-1-0.3-1.5-0.3H211.7z"/>
			<path fill="#283B8C" d="M224.8,341.2v0.2c0.6-0.5,1.3-0.9,2-1.1c0.7-0.3,1.5-0.4,2.3-0.4c0.4,0,0.7,0,1.1,0.1
				c0.4,0,0.8,0.1,1.1,0.3s0.6,0.3,0.9,0.5c0.2,0.2,0.3,0.5,0.3,0.8c0,0.2,0,0.3-0.1,0.5c-0.1,0.2-0.2,0.3-0.3,0.4s-0.2,0.2-0.4,0.3
				s-0.3,0.1-0.5,0.1c-0.2,0-0.3,0-0.5-0.1c-0.5-0.2-1.1-0.3-1.7-0.3c-0.6,0-1.1,0.1-1.7,0.3c-0.5,0.2-1,0.5-1.3,0.9
				c-0.4,0.4-0.7,0.8-0.9,1.3c-0.2,0.5-0.3,1.1-0.3,1.7v5.5c0,0.3-0.1,0.6-0.4,0.9c-0.2,0.2-0.5,0.4-0.9,0.4c-0.4,0-0.7-0.1-0.9-0.4
				c-0.2-0.2-0.4-0.5-0.4-0.9v-11c0-0.3,0.1-0.6,0.4-0.9c0.2-0.2,0.5-0.4,0.9-0.4c0.3,0,0.6,0.1,0.9,0.4
				C224.6,340.5,224.8,340.8,224.8,341.2z"/>
			<path fill="#283B8C" d="M247.4,346.7c0,1.9-0.7,3.5-2,4.8c-1.3,1.3-2.9,2-4.8,2c-1.9,0-3.5-0.7-4.8-2c-1.3-1.3-2-2.9-2-4.8
				c0-1.9,0.7-3.5,2-4.8s2.9-2,4.8-2c1.9,0,3.4,0.7,4.8,2c0.7,0.7,1.2,1.4,1.5,2.2S247.4,345.8,247.4,346.7z M240.6,342.4
				c-0.6,0-1.2,0.1-1.7,0.3c-0.5,0.2-1,0.5-1.3,0.9c-0.4,0.4-0.7,0.8-0.9,1.3c-0.2,0.5-0.3,1.1-0.3,1.6c0,0.6,0.1,1.1,0.3,1.6
				c0.2,0.5,0.5,1,0.9,1.3c0.4,0.4,0.8,0.7,1.3,0.9c0.5,0.2,1.1,0.3,1.7,0.3c0.6,0,1.1-0.1,1.7-0.3c0.5-0.2,1-0.5,1.3-0.9
				c0.4-0.4,0.7-0.8,0.9-1.3c0.2-0.5,0.3-1.1,0.3-1.6c0-0.6-0.1-1.1-0.3-1.6c-0.2-0.5-0.5-1-0.9-1.3c-0.4-0.4-0.8-0.7-1.3-0.9
				C241.8,342.6,241.2,342.4,240.6,342.4z"/>
			<path fill="#283B8C" d="M259.6,349.6c0.4,0,0.7,0.1,0.9,0.4c0.2,0.2,0.4,0.5,0.4,0.9c0,0.4-0.1,0.7-0.4,0.9
				c-1.2,1.1-2.7,1.6-4.4,1.6c-1.9,0-3.5-0.7-4.8-2c-1.3-1.3-2-2.9-2-4.8c0-1.9,0.7-3.5,2-4.8c1.3-1.3,2.9-2,4.8-2
				c1.7,0,3.2,0.5,4.4,1.6c0.3,0.3,0.4,0.6,0.4,1c0,0.4-0.1,0.7-0.4,0.9c-0.2,0.2-0.5,0.4-0.9,0.4c-0.3,0-0.6-0.1-0.8-0.3
				c-0.4-0.3-0.8-0.6-1.3-0.8c-0.5-0.2-0.9-0.3-1.5-0.3c-0.6,0-1.1,0.1-1.7,0.3s-1,0.5-1.4,0.9c-0.4,0.4-0.7,0.8-0.9,1.3
				c-0.2,0.5-0.3,1.1-0.3,1.7c0,0.6,0.1,1.1,0.3,1.7c0.2,0.5,0.5,1,0.9,1.3c0.4,0.4,0.8,0.7,1.4,0.9s1.1,0.3,1.7,0.3
				c0.5,0,1-0.1,1.5-0.3c0.5-0.2,0.9-0.4,1.3-0.8C259,349.7,259.3,349.6,259.6,349.6z"/>
			<path fill="#283B8C" d="M273.1,349.6c0.4,0,0.7,0.1,0.9,0.4c0.2,0.2,0.4,0.5,0.4,0.9c0,0.4-0.1,0.7-0.4,0.9
				c-1.2,1.1-2.7,1.6-4.4,1.6c-1.9,0-3.5-0.7-4.8-2c-1.3-1.3-2-2.9-2-4.8c0-1.9,0.7-3.5,2-4.8s2.9-2,4.8-2c1.9,0,3.4,0.7,4.8,2
				c0.7,0.7,1.2,1.4,1.5,2.2c0.3,0.8,0.5,1.7,0.5,2.6c0,0.4-0.1,0.7-0.4,0.9c-0.2,0.2-0.5,0.4-0.9,0.4h-9.6c0.1,0.4,0.3,0.8,0.6,1.2
				c0.3,0.4,0.6,0.7,0.9,0.9c0.4,0.3,0.8,0.5,1.2,0.6c0.4,0.1,0.9,0.2,1.3,0.2c0.5,0,1-0.1,1.5-0.2c0.4-0.2,0.9-0.4,1.2-0.7
				C272.5,349.8,272.8,349.7,273.1,349.6z M273.7,345.4c-0.1-0.4-0.3-0.8-0.6-1.2c-0.3-0.4-0.6-0.7-0.9-0.9s-0.8-0.5-1.2-0.6
				c-0.4-0.1-0.9-0.2-1.3-0.2s-0.9,0.1-1.3,0.2c-0.4,0.1-0.8,0.3-1.2,0.6c-0.4,0.3-0.7,0.6-0.9,0.9s-0.5,0.8-0.6,1.2H273.7z"/>
			<path fill="#283B8C" d="M280.7,347c-0.8-0.3-1.3-0.6-1.6-0.9h0c-0.6-0.6-0.9-1.4-0.9-2.2c0-0.6,0.2-1.2,0.5-1.7s0.8-0.9,1.3-1.3
				c0.5-0.3,1.1-0.6,1.8-0.8s1.3-0.3,2-0.3c2,0,3.7,0.8,5.2,2.4c0.2,0.2,0.3,0.5,0.3,0.8c0,0.4-0.1,0.7-0.4,0.9
				c-0.2,0.2-0.5,0.4-0.9,0.4c-0.3,0-0.5-0.1-0.7-0.2s-0.4-0.3-0.5-0.5c-0.8-0.8-1.8-1.2-3-1.2c-1.2,0-2.1,0.4-2.8,1.1
				c-0.1,0.1-0.2,0.3-0.2,0.5s0.1,0.4,0.3,0.5l5.6,1.9c0.8,0.3,1.3,0.6,1.6,0.9h0c0.6,0.6,0.9,1.4,0.9,2.2c0,0.6-0.2,1.2-0.5,1.7
				c-0.3,0.5-0.8,0.9-1.3,1.3s-1.1,0.6-1.8,0.8c-0.7,0.2-1.3,0.3-2,0.3c-2,0-3.8-0.8-5.2-2.4c-0.2-0.2-0.3-0.5-0.3-0.8
				c0-0.4,0.1-0.7,0.4-0.9c0.2-0.2,0.5-0.4,0.9-0.4c0.3,0,0.5,0.1,0.7,0.2c0.2,0.2,0.4,0.3,0.5,0.5c0.8,0.8,1.8,1.2,3,1.2
				c1.2,0,2.1-0.4,2.8-1.1c0.1-0.1,0.2-0.3,0.2-0.5c0-0.2-0.1-0.4-0.3-0.5L280.7,347z"/>
			<path fill="#283B8C" d="M293.5,347c-0.8-0.3-1.3-0.6-1.6-0.9h0c-0.6-0.6-0.9-1.4-0.9-2.2c0-0.6,0.2-1.2,0.5-1.7s0.8-0.9,1.3-1.3
				c0.5-0.3,1.1-0.6,1.8-0.8s1.3-0.3,2-0.3c2,0,3.7,0.8,5.2,2.4c0.2,0.2,0.3,0.5,0.3,0.8c0,0.4-0.1,0.7-0.4,0.9
				c-0.2,0.2-0.5,0.4-0.9,0.4c-0.3,0-0.5-0.1-0.7-0.2s-0.4-0.3-0.5-0.5c-0.8-0.8-1.8-1.2-3-1.2c-1.2,0-2.1,0.4-2.8,1.1
				c-0.1,0.1-0.2,0.3-0.2,0.5s0.1,0.4,0.3,0.5l5.6,1.9c0.8,0.3,1.3,0.6,1.6,0.9h0c0.6,0.6,0.9,1.4,0.9,2.2c0,0.6-0.2,1.2-0.5,1.7
				c-0.3,0.5-0.8,0.9-1.3,1.3s-1.1,0.6-1.8,0.8c-0.7,0.2-1.3,0.3-2,0.3c-2,0-3.8-0.8-5.2-2.4c-0.2-0.2-0.3-0.5-0.3-0.8
				c0-0.4,0.1-0.7,0.4-0.9c0.2-0.2,0.5-0.4,0.9-0.4c0.3,0,0.5,0.1,0.7,0.2c0.2,0.2,0.4,0.3,0.5,0.5c0.8,0.8,1.8,1.2,3,1.2
				c1.2,0,2.1-0.4,2.8-1.1c0.1-0.1,0.2-0.3,0.2-0.5c0-0.2-0.1-0.4-0.3-0.5L293.5,347z"/>
			<path fill="#283B8C" d="M317.4,346.7c0,1.9-0.7,3.5-2,4.8c-1.3,1.3-2.9,2-4.8,2c-1.9,0-3.5-0.7-4.8-2c-1.3-1.3-2-2.9-2-4.8
				c0-1.9,0.7-3.5,2-4.8s2.9-2,4.8-2c1.9,0,3.4,0.7,4.8,2c0.7,0.7,1.2,1.4,1.5,2.2S317.4,345.8,317.4,346.7z M310.6,342.4
				c-0.6,0-1.2,0.1-1.7,0.3c-0.5,0.2-1,0.5-1.3,0.9c-0.4,0.4-0.7,0.8-0.9,1.3c-0.2,0.5-0.3,1.1-0.3,1.6c0,0.6,0.1,1.1,0.3,1.6
				c0.2,0.5,0.5,1,0.9,1.3c0.4,0.4,0.8,0.7,1.3,0.9c0.5,0.2,1.1,0.3,1.7,0.3c0.6,0,1.1-0.1,1.7-0.3c0.5-0.2,1-0.5,1.3-0.9
				c0.4-0.4,0.7-0.8,0.9-1.3c0.2-0.5,0.3-1.1,0.3-1.6c0-0.6-0.1-1.1-0.3-1.6c-0.2-0.5-0.5-1-0.9-1.3c-0.4-0.4-0.8-0.7-1.3-0.9
				C311.8,342.6,311.2,342.4,310.6,342.4z"/>
			<path fill="#283B8C" d="M321.8,341.2v0.2c0.6-0.5,1.3-0.9,2-1.1c0.7-0.3,1.5-0.4,2.3-0.4c0.4,0,0.7,0,1.1,0.1
				c0.4,0,0.8,0.1,1.1,0.3s0.6,0.3,0.9,0.5c0.2,0.2,0.3,0.5,0.3,0.8c0,0.2,0,0.3-0.1,0.5c-0.1,0.2-0.2,0.3-0.3,0.4s-0.2,0.2-0.4,0.3
				s-0.3,0.1-0.5,0.1c-0.2,0-0.3,0-0.5-0.1c-0.5-0.2-1.1-0.3-1.7-0.3c-0.6,0-1.1,0.1-1.7,0.3c-0.5,0.2-1,0.5-1.3,0.9
				c-0.4,0.4-0.7,0.8-0.9,1.3c-0.2,0.5-0.3,1.1-0.3,1.7v5.5c0,0.3-0.1,0.6-0.4,0.9c-0.2,0.2-0.5,0.4-0.9,0.4c-0.4,0-0.7-0.1-0.9-0.4
				c-0.2-0.2-0.4-0.5-0.4-0.9v-11c0-0.3,0.1-0.6,0.4-0.9c0.2-0.2,0.5-0.4,0.9-0.4c0.3,0,0.6,0.1,0.9,0.4
				C321.7,340.5,321.8,340.8,321.8,341.2z"/>
			<path fill="#283B8C" d="M333.4,347c-0.8-0.3-1.3-0.6-1.6-0.9h0c-0.6-0.6-0.9-1.4-0.9-2.2c0-0.6,0.2-1.2,0.5-1.7s0.8-0.9,1.3-1.3
				c0.5-0.3,1.1-0.6,1.8-0.8s1.3-0.3,2-0.3c2,0,3.7,0.8,5.2,2.4c0.2,0.2,0.3,0.5,0.3,0.8c0,0.4-0.1,0.7-0.4,0.9
				c-0.2,0.2-0.5,0.4-0.9,0.4c-0.3,0-0.5-0.1-0.7-0.2s-0.4-0.3-0.5-0.5c-0.8-0.8-1.8-1.2-3-1.2c-1.2,0-2.1,0.4-2.8,1.1
				c-0.1,0.1-0.2,0.3-0.2,0.5s0.1,0.4,0.3,0.5l5.6,1.9c0.8,0.3,1.3,0.6,1.6,0.9h0c0.6,0.6,0.9,1.4,0.9,2.2c0,0.6-0.2,1.2-0.5,1.7
				c-0.3,0.5-0.8,0.9-1.3,1.3s-1.1,0.6-1.8,0.8c-0.7,0.2-1.3,0.3-2,0.3c-2,0-3.8-0.8-5.2-2.4c-0.2-0.2-0.3-0.5-0.3-0.8
				c0-0.4,0.1-0.7,0.4-0.9c0.2-0.2,0.5-0.4,0.9-0.4c0.3,0,0.5,0.1,0.7,0.2c0.2,0.2,0.4,0.3,0.5,0.5c0.8,0.8,1.8,1.2,3,1.2
				c1.2,0,2.1-0.4,2.8-1.1c0.1-0.1,0.2-0.3,0.2-0.5c0-0.2-0.1-0.4-0.3-0.5L333.4,347z"/>
			<path fill="#221F1F" d="M172.9,387.5c0.3,0,0.5,0.1,0.7,0.3c0.2,0.2,0.3,0.4,0.3,0.7s-0.1,0.5-0.3,0.7s-0.4,0.3-0.7,0.3h-8.7
				c-0.1,0-0.3,0-0.4-0.1s-0.2-0.1-0.3-0.2c-0.1-0.1-0.2-0.2-0.2-0.3c-0.1-0.1-0.1-0.3-0.1-0.4v-13.1c0-0.1,0-0.3,0.1-0.4
				c0-0.1,0.1-0.2,0.2-0.3c0.1-0.1,0.2-0.2,0.3-0.2s0.3-0.1,0.4-0.1h8.7c0.3,0,0.5,0.1,0.7,0.3s0.3,0.4,0.3,0.7s-0.1,0.5-0.3,0.7
				s-0.4,0.3-0.7,0.3h-7.7v4.5h5.5c0.3,0,0.5,0.1,0.7,0.3c0.2,0.2,0.3,0.4,0.3,0.7s-0.1,0.5-0.3,0.7c-0.2,0.2-0.4,0.3-0.7,0.3h-5.5
				v4.5H172.9z"/>
			<path fill="#221F1F" d="M177.2,379.9c0.8-0.6,1.8-1,2.9-1c0.7,0,1.3,0.1,1.9,0.4c0.6,0.3,1.1,0.6,1.6,1.1c0.5,0.4,0.8,1,1.1,1.6
				s0.4,1.2,0.4,1.9v4.6c0,0.3-0.1,0.5-0.3,0.7c-0.2,0.2-0.4,0.3-0.7,0.3c-0.3,0-0.5-0.1-0.7-0.3c-0.2-0.2-0.3-0.4-0.3-0.7v-4.6
				c0-0.4-0.1-0.8-0.2-1.1c-0.2-0.4-0.4-0.7-0.6-0.9c-0.3-0.3-0.6-0.5-0.9-0.6c-0.4-0.2-0.7-0.2-1.1-0.2c-0.4,0-0.8,0.1-1.1,0.2
				s-0.7,0.4-0.9,0.6s-0.5,0.6-0.6,0.9c-0.2,0.4-0.2,0.7-0.2,1.1v4.6c0,0.3-0.1,0.5-0.3,0.7c-0.2,0.2-0.4,0.3-0.7,0.3
				c-0.3,0-0.5-0.1-0.7-0.3c-0.2-0.2-0.3-0.4-0.3-0.7v-8.6c0-0.3,0.1-0.5,0.3-0.7c0.2-0.2,0.4-0.3,0.7-0.3c0.3,0,0.5,0.1,0.7,0.3
				C177.1,379.4,177.2,379.6,177.2,379.9z"/>
			<path fill="#221F1F" d="M188.4,384.4c-0.6-0.2-1-0.5-1.2-0.7h0c-0.5-0.5-0.7-1.1-0.7-1.7c0-0.5,0.1-0.9,0.4-1.3s0.6-0.7,1-1
				c0.4-0.3,0.9-0.5,1.4-0.6s1-0.2,1.5-0.2c1.6,0,2.9,0.6,4,1.9c0.1,0.2,0.2,0.4,0.2,0.6c0,0.3-0.1,0.5-0.3,0.7
				c-0.2,0.2-0.4,0.3-0.7,0.3c-0.2,0-0.4-0.1-0.5-0.2c-0.1-0.1-0.3-0.2-0.4-0.4c-0.6-0.6-1.4-1-2.3-1c-0.9,0-1.6,0.3-2.2,0.8
				c-0.1,0.1-0.2,0.2-0.2,0.4s0.1,0.3,0.2,0.4l4.4,1.5c0.6,0.2,1,0.5,1.2,0.7h0c0.5,0.5,0.7,1.1,0.7,1.7c0,0.5-0.1,0.9-0.4,1.3
				c-0.3,0.4-0.6,0.7-1,1c-0.4,0.3-0.9,0.5-1.4,0.6c-0.5,0.1-1,0.2-1.5,0.2c-1.6,0-2.9-0.6-4-1.9c-0.1-0.2-0.2-0.4-0.2-0.6
				c0-0.3,0.1-0.5,0.3-0.7c0.2-0.2,0.4-0.3,0.7-0.3c0.2,0,0.4,0.1,0.5,0.2c0.1,0.1,0.3,0.2,0.4,0.4c0.6,0.6,1.4,1,2.3,1
				c0.9,0,1.6-0.3,2.2-0.8c0.1-0.1,0.1-0.2,0.1-0.4c0-0.2-0.1-0.3-0.3-0.4L188.4,384.4z"/>
			<path fill="#221F1F" d="M207,384.2c0,1.5-0.5,2.7-1.5,3.7c-1,1-2.3,1.5-3.7,1.5c-1.5,0-2.7-0.5-3.7-1.5c-1-1-1.5-2.3-1.5-3.7
				s0.5-2.7,1.5-3.7c1-1,2.3-1.5,3.7-1.5c1.4,0,2.7,0.5,3.7,1.5c0.5,0.5,0.9,1.1,1.2,1.7C206.9,382.8,207,383.5,207,384.2z
				 M201.7,380.9c-0.5,0-0.9,0.1-1.3,0.3c-0.4,0.2-0.7,0.4-1,0.7s-0.5,0.6-0.7,1.1c-0.2,0.4-0.3,0.8-0.3,1.3s0.1,0.9,0.3,1.3
				c0.2,0.4,0.4,0.8,0.7,1.1s0.6,0.5,1,0.7c0.4,0.2,0.8,0.3,1.3,0.3c0.5,0,0.9-0.1,1.3-0.3c0.4-0.2,0.8-0.4,1-0.7
				c0.3-0.3,0.5-0.7,0.7-1.1c0.2-0.4,0.3-0.8,0.3-1.3s-0.1-0.9-0.3-1.3s-0.4-0.7-0.7-1.1c-0.3-0.3-0.6-0.5-1-0.7
				C202.6,381,202.2,380.9,201.7,380.9z"/>
			<path fill="#221F1F" d="M218,374.4c0.5,0,1,0.1,1.5,0.3c0.5,0.2,0.9,0.5,1.2,0.8c0.4,0.4,0.6,0.8,0.8,1.2c0.2,0.5,0.3,1,0.3,1.5
				c0,1-0.3,1.8-0.9,2.5c0.4,0.2,0.7,0.5,1,0.8c0.3,0.3,0.5,0.6,0.7,1s0.3,0.7,0.4,1.1c0.1,0.4,0.2,0.8,0.2,1.2
				c0,0.6-0.1,1.2-0.4,1.8c-0.2,0.6-0.6,1.1-1,1.5c-0.4,0.4-0.9,0.8-1.5,1c-0.6,0.2-1.2,0.4-1.8,0.4h-3.6c-0.1,0-0.3,0-0.4-0.1
				c-0.1-0.1-0.2-0.1-0.3-0.2c-0.1-0.1-0.2-0.2-0.2-0.3c-0.1-0.1-0.1-0.3-0.1-0.4v-13.1c0-0.1,0-0.3,0.1-0.4
				c0.1-0.1,0.1-0.2,0.2-0.3c0.1-0.1,0.2-0.2,0.3-0.2c0.1-0.1,0.2-0.1,0.4-0.1H218z M216.1,376.4v3.8h1.9c0.3,0,0.5,0,0.7-0.2
				c0.2-0.1,0.4-0.2,0.6-0.4s0.3-0.4,0.4-0.6c0.1-0.2,0.2-0.5,0.2-0.7c0-0.3-0.1-0.5-0.2-0.7c-0.1-0.2-0.2-0.4-0.4-0.6
				c-0.2-0.2-0.4-0.3-0.6-0.4c-0.2-0.1-0.5-0.2-0.7-0.2H216.1z M216.1,382.2v5.3h2.6c0.4,0,0.7-0.1,1-0.2s0.6-0.3,0.8-0.6
				s0.4-0.5,0.6-0.8c0.1-0.3,0.2-0.7,0.2-1c0-0.4-0.1-0.7-0.2-1c-0.1-0.3-0.3-0.6-0.6-0.8c-0.2-0.2-0.5-0.4-0.8-0.6
				c-0.3-0.1-0.7-0.2-1-0.2H216.1z"/>
			<path fill="#221F1F" d="M232.7,386.5c0.3,0,0.5,0.1,0.7,0.3c0.2,0.2,0.3,0.4,0.3,0.7c0,0.3-0.1,0.5-0.3,0.7
				c-1,0.9-2.1,1.3-3.4,1.3c-1.5,0-2.7-0.5-3.7-1.5c-1-1-1.5-2.3-1.5-3.7s0.5-2.7,1.5-3.7c1-1,2.3-1.5,3.7-1.5
				c1.4,0,2.7,0.5,3.7,1.5c0.5,0.5,0.9,1.1,1.2,1.7c0.3,0.6,0.4,1.3,0.4,2c0,0.3-0.1,0.5-0.3,0.7c-0.2,0.2-0.4,0.3-0.7,0.3h-7.4
				c0.1,0.3,0.3,0.7,0.5,0.9c0.2,0.3,0.4,0.5,0.7,0.7c0.3,0.2,0.6,0.4,0.9,0.5c0.3,0.1,0.7,0.2,1,0.2c0.4,0,0.8-0.1,1.1-0.2
				s0.7-0.3,1-0.6C232.2,386.6,232.5,386.5,232.7,386.5z M233.1,383.2c-0.1-0.3-0.3-0.7-0.5-0.9s-0.5-0.5-0.7-0.7s-0.6-0.4-0.9-0.5
				c-0.3-0.1-0.7-0.2-1-0.2s-0.7,0.1-1,0.2c-0.3,0.1-0.6,0.3-0.9,0.5s-0.5,0.4-0.7,0.7c-0.2,0.3-0.4,0.6-0.5,0.9H233.1z"/>
			<path fill="#221F1F" d="M245.3,388.5v-0.2c-0.5,0.4-1,0.7-1.5,0.9c-0.6,0.2-1.1,0.3-1.8,0.3c-1.5,0-2.7-0.5-3.7-1.5
				c-1-1-1.5-2.3-1.5-3.7s0.5-2.7,1.5-3.7c1-1,2.3-1.5,3.7-1.5c1.4,0,2.7,0.5,3.7,1.5c1,1,1.5,2.3,1.5,3.7v4.3
				c0,0.3-0.1,0.5-0.3,0.7c-0.2,0.2-0.4,0.3-0.7,0.3c-0.3,0-0.5-0.1-0.7-0.3C245.4,389,245.3,388.7,245.3,388.5z M242,380.9
				c-0.5,0-0.9,0.1-1.3,0.3c-0.4,0.2-0.7,0.4-1,0.7s-0.5,0.6-0.7,1.1c-0.2,0.4-0.3,0.8-0.3,1.3s0.1,0.9,0.3,1.3
				c0.2,0.4,0.4,0.8,0.7,1.1s0.6,0.5,1,0.7c0.4,0.2,0.8,0.3,1.3,0.3c0.5,0,0.9-0.1,1.3-0.3c0.4-0.2,0.8-0.4,1-0.7
				c0.3-0.3,0.5-0.7,0.7-1.1c0.2-0.4,0.3-0.8,0.3-1.3s-0.1-0.9-0.3-1.3s-0.4-0.7-0.7-1.1c-0.3-0.3-0.6-0.5-1-0.7
				C242.9,381,242.4,380.9,242,380.9z"/>
			<path fill="#221F1F" d="M256.8,386.5c0.3,0,0.5,0.1,0.7,0.3c0.2,0.2,0.3,0.4,0.3,0.7c0,0.3-0.1,0.5-0.3,0.7
				c-1,0.9-2.1,1.3-3.4,1.3c-1.5,0-2.7-0.5-3.7-1.5c-1-1-1.5-2.3-1.5-3.7s0.5-2.7,1.5-3.7c1-1,2.3-1.5,3.7-1.5
				c1.3,0,2.5,0.4,3.4,1.3c0.2,0.2,0.3,0.4,0.3,0.7c0,0.3-0.1,0.5-0.3,0.7s-0.4,0.3-0.7,0.3c-0.2,0-0.5-0.1-0.6-0.2
				c-0.3-0.3-0.7-0.5-1-0.6c-0.4-0.1-0.7-0.2-1.1-0.2c-0.5,0-0.9,0.1-1.3,0.3c-0.4,0.2-0.8,0.4-1.1,0.7c-0.3,0.3-0.5,0.6-0.7,1.1
				s-0.3,0.8-0.3,1.3s0.1,0.9,0.3,1.3s0.4,0.8,0.7,1.1c0.3,0.3,0.7,0.5,1.1,0.7c0.4,0.2,0.8,0.3,1.3,0.3c0.4,0,0.8-0.1,1.1-0.2
				c0.4-0.1,0.7-0.3,1-0.6C256.3,386.5,256.5,386.5,256.8,386.5z"/>
			<path fill="#221F1F" d="M269.8,384.2c0,1.5-0.5,2.7-1.5,3.7c-1,1-2.3,1.5-3.7,1.5c-1.5,0-2.7-0.5-3.7-1.5c-1-1-1.5-2.3-1.5-3.7
				s0.5-2.7,1.5-3.7c1-1,2.3-1.5,3.7-1.5c1.4,0,2.7,0.5,3.7,1.5c0.5,0.5,0.9,1.1,1.2,1.7C269.7,382.8,269.8,383.5,269.8,384.2z
				 M264.6,380.9c-0.5,0-0.9,0.1-1.3,0.3c-0.4,0.2-0.7,0.4-1,0.7s-0.5,0.6-0.7,1.1c-0.2,0.4-0.3,0.8-0.3,1.3s0.1,0.9,0.3,1.3
				c0.2,0.4,0.4,0.8,0.7,1.1s0.6,0.5,1,0.7c0.4,0.2,0.8,0.3,1.3,0.3c0.5,0,0.9-0.1,1.3-0.3c0.4-0.2,0.8-0.4,1-0.7
				c0.3-0.3,0.5-0.7,0.7-1.1c0.2-0.4,0.3-0.8,0.3-1.3s-0.1-0.9-0.3-1.3s-0.4-0.7-0.7-1.1c-0.3-0.3-0.6-0.5-1-0.7
				C265.4,381,265,380.9,264.6,380.9z"/>
			<path fill="#221F1F" d="M273.3,379.9c0.8-0.6,1.8-1,2.9-1c0.7,0,1.3,0.1,1.9,0.4c0.6,0.3,1.1,0.6,1.6,1.1c0.5,0.4,0.8,1,1.1,1.6
				s0.4,1.2,0.4,1.9v4.6c0,0.3-0.1,0.5-0.3,0.7c-0.2,0.2-0.4,0.3-0.7,0.3c-0.3,0-0.5-0.1-0.7-0.3c-0.2-0.2-0.3-0.4-0.3-0.7v-4.6
				c0-0.4-0.1-0.8-0.2-1.1c-0.2-0.4-0.4-0.7-0.6-0.9c-0.3-0.3-0.6-0.5-0.9-0.6c-0.4-0.2-0.7-0.2-1.1-0.2c-0.4,0-0.8,0.1-1.1,0.2
				s-0.7,0.4-0.9,0.6s-0.5,0.6-0.6,0.9c-0.2,0.4-0.2,0.7-0.2,1.1v4.6c0,0.3-0.1,0.5-0.3,0.7c-0.2,0.2-0.4,0.3-0.7,0.3
				c-0.3,0-0.5-0.1-0.7-0.3c-0.2-0.2-0.3-0.4-0.3-0.7v-8.6c0-0.3,0.1-0.5,0.3-0.7c0.2-0.2,0.4-0.3,0.7-0.3c0.3,0,0.5,0.1,0.7,0.3
				C273.2,379.4,273.3,379.6,273.3,379.9z"/>
			<path fill="#221F1F" d="M284.5,384.4c-0.6-0.2-1-0.5-1.2-0.7h0c-0.5-0.5-0.7-1.1-0.7-1.7c0-0.5,0.1-0.9,0.4-1.3s0.6-0.7,1-1
				c0.4-0.3,0.9-0.5,1.4-0.6s1-0.2,1.5-0.2c1.6,0,2.9,0.6,4,1.9c0.1,0.2,0.2,0.4,0.2,0.6c0,0.3-0.1,0.5-0.3,0.7
				c-0.2,0.2-0.4,0.3-0.7,0.3c-0.2,0-0.4-0.1-0.5-0.2c-0.1-0.1-0.3-0.2-0.4-0.4c-0.6-0.6-1.4-1-2.3-1c-0.9,0-1.6,0.3-2.2,0.8
				c-0.1,0.1-0.2,0.2-0.2,0.4s0.1,0.3,0.2,0.4l4.4,1.5c0.6,0.2,1,0.5,1.2,0.7h0c0.5,0.5,0.7,1.1,0.7,1.7c0,0.5-0.1,0.9-0.4,1.3
				c-0.3,0.4-0.6,0.7-1,1c-0.4,0.3-0.9,0.5-1.4,0.6c-0.5,0.1-1,0.2-1.5,0.2c-1.6,0-2.9-0.6-4-1.9c-0.1-0.2-0.2-0.4-0.2-0.6
				c0-0.3,0.1-0.5,0.3-0.7c0.2-0.2,0.4-0.3,0.7-0.3c0.2,0,0.4,0.1,0.5,0.2c0.1,0.1,0.3,0.2,0.4,0.4c0.6,0.6,1.4,1,2.3,1
				c0.9,0,1.6-0.3,2.2-0.8c0.1-0.1,0.1-0.2,0.1-0.4c0-0.2-0.1-0.3-0.3-0.4L284.5,384.4z"/>
			<path fill="#221F1F" d="M163.2,400c0-0.6,0.1-1.2,0.4-1.8s0.6-1,1-1.5c0.4-0.4,0.9-0.7,1.4-1c0.6-0.2,1.1-0.4,1.8-0.4
				s1.2,0.1,1.8,0.4c0.6,0.2,1,0.6,1.4,1c0.4,0.4,0.7,0.9,1,1.5c0.2,0.6,0.4,1.1,0.4,1.8c0,0.6-0.1,1.2-0.3,1.8s-0.6,1-1,1.5
				l-4.6,5.3h4.9c0.3,0,0.5,0.1,0.7,0.3c0.2,0.2,0.3,0.4,0.3,0.7s-0.1,0.5-0.3,0.7c-0.2,0.2-0.4,0.3-0.7,0.3h-7.1
				c-0.1,0-0.3,0-0.4-0.1s-0.2-0.1-0.3-0.2c-0.1-0.1-0.2-0.2-0.2-0.3c-0.1-0.1-0.1-0.2-0.1-0.4c0-0.3,0.1-0.5,0.3-0.7l6.1-7
				c0.5-0.5,0.8-1.1,0.8-1.9c0-0.4-0.1-0.7-0.2-1c-0.1-0.3-0.3-0.6-0.6-0.8c-0.2-0.2-0.5-0.4-0.8-0.6s-0.6-0.2-1-0.2
				c-0.4,0-0.7,0.1-1,0.2c-0.3,0.1-0.6,0.3-0.8,0.6c-0.2,0.2-0.4,0.5-0.6,0.8c-0.1,0.3-0.2,0.7-0.2,1c0,0.3-0.1,0.5-0.3,0.7
				s-0.4,0.3-0.7,0.3c-0.3,0-0.5-0.1-0.7-0.3C163.3,400.5,163.2,400.2,163.2,400z"/>
			<path fill="#221F1F" d="M173.7,402.9c0-1.2,0.1-2.2,0.3-3.2c0.2-0.9,0.5-1.7,0.9-2.4c0.4-0.6,0.9-1.1,1.4-1.5s1.2-0.5,2-0.5
				s1.4,0.2,2,0.5c0.6,0.3,1.1,0.8,1.4,1.5c0.4,0.7,0.7,1.4,0.9,2.4c0.2,0.9,0.3,2,0.3,3.2c0,1.2-0.1,2.2-0.3,3.2
				c-0.2,0.9-0.5,1.7-0.9,2.4c-0.4,0.6-0.9,1.1-1.4,1.5c-0.6,0.3-1.2,0.5-2,0.5s-1.4-0.2-2-0.5s-1-0.8-1.4-1.5
				c-0.4-0.6-0.7-1.4-0.9-2.4C173.8,405.2,173.7,404.1,173.7,402.9z M178.3,397.4c-0.4,0-0.8,0.1-1.2,0.4c-0.3,0.3-0.6,0.7-0.8,1.2
				c-0.2,0.5-0.4,1.1-0.5,1.8c-0.1,0.7-0.2,1.4-0.2,2.2c0,0.8,0.1,1.5,0.2,2.2c0.1,0.7,0.3,1.3,0.5,1.8c0.2,0.5,0.5,0.9,0.8,1.1
				c0.3,0.3,0.7,0.4,1.1,0.4c0.4,0,0.8-0.1,1.2-0.4s0.6-0.7,0.8-1.2c0.2-0.5,0.4-1.1,0.5-1.8s0.2-1.4,0.2-2.2c0-0.8-0.1-1.5-0.2-2.2
				c-0.1-0.7-0.3-1.3-0.5-1.8c-0.2-0.5-0.5-0.9-0.8-1.2C179.1,397.5,178.7,397.4,178.3,397.4z"/>
			<path fill="#221F1F" d="M186.2,409.5v-11.7c-0.2,0.1-0.4,0.1-0.6,0.2c-0.2,0.1-0.4,0.1-0.6,0.1c-0.3,0-0.5-0.1-0.7-0.3
				c-0.2-0.2-0.3-0.4-0.3-0.7c0-0.2,0.1-0.4,0.2-0.5c0.1-0.2,0.3-0.3,0.5-0.4l2.2-0.7c0.1,0,0.2-0.1,0.3-0.1c0.3,0,0.5,0.1,0.7,0.3
				c0.2,0.2,0.3,0.4,0.3,0.7v13.1c0,0.3-0.1,0.5-0.3,0.7c-0.2,0.2-0.4,0.3-0.7,0.3c-0.3,0-0.5-0.1-0.7-0.3
				C186.3,410,186.2,409.7,186.2,409.5z"/>
			<path fill="#221F1F" d="M190.2,399.3c0-0.5,0.1-1.1,0.3-1.5s0.5-0.9,0.8-1.2c0.3-0.4,0.8-0.6,1.2-0.8s1-0.3,1.5-0.3
				s1,0.1,1.5,0.3c0.5,0.2,0.9,0.5,1.2,0.8c0.3,0.4,0.6,0.8,0.8,1.2c0.2,0.5,0.3,1,0.3,1.5c0,1-0.4,2-1.2,2.8c1.2,1,1.9,2.3,1.9,3.8
				c0,0.6-0.1,1.2-0.4,1.8s-0.6,1.1-1,1.5c-0.4,0.4-0.9,0.8-1.4,1c-0.6,0.2-1.1,0.4-1.8,0.4s-1.2-0.1-1.8-0.4c-0.6-0.2-1-0.6-1.4-1
				c-0.4-0.4-0.7-0.9-1-1.5c-0.2-0.6-0.4-1.2-0.4-1.8c0-0.3,0.1-0.5,0.3-0.7s0.4-0.3,0.7-0.3c0.3,0,0.5,0.1,0.7,0.3s0.3,0.4,0.3,0.7
				c0,0.4,0.1,0.7,0.2,1c0.1,0.3,0.3,0.6,0.5,0.8c0.2,0.2,0.5,0.4,0.8,0.6s0.7,0.2,1,0.2c0.4,0,0.7-0.1,1-0.2
				c0.3-0.1,0.6-0.3,0.8-0.6s0.4-0.5,0.5-0.8s0.2-0.7,0.2-1s-0.1-0.7-0.2-1s-0.3-0.6-0.5-0.8c-0.2-0.2-0.5-0.4-0.8-0.6
				c-0.3-0.1-0.7-0.2-1-0.2c-0.3,0-0.5-0.1-0.7-0.3c-0.2-0.2-0.3-0.4-0.3-0.7c0-0.3,0.1-0.5,0.3-0.7s0.4-0.3,0.7-0.3
				c0.3,0,0.5-0.1,0.7-0.2c0.2-0.1,0.4-0.2,0.6-0.4c0.2-0.2,0.3-0.4,0.4-0.6c0.1-0.2,0.2-0.5,0.2-0.7c0-0.3-0.1-0.5-0.2-0.7
				c-0.1-0.2-0.2-0.4-0.4-0.6c-0.2-0.2-0.4-0.3-0.6-0.4c-0.2-0.1-0.5-0.2-0.7-0.2c-0.3,0-0.5,0.1-0.7,0.2c-0.2,0.1-0.4,0.2-0.6,0.4
				c-0.2,0.2-0.3,0.4-0.4,0.6c-0.1,0.2-0.1,0.5-0.1,0.7c0,0.3-0.1,0.5-0.3,0.7c-0.2,0.2-0.4,0.3-0.7,0.3c-0.3,0-0.5-0.1-0.7-0.3
				C190.3,399.8,190.2,399.6,190.2,399.3z"/>
		</g>
		<line fill="none" stroke="#221F1F" stroke-width="1.1313" stroke-miterlimit="10" x1="139.7" y1="331.2" x2="139.7" y2="430.9"/>
	</g>
</g>
</svg>
