<!-- Generator: Adobe Illustrator 18.0.0, SVG Export Plug-In  -->
<svg version="1.1"
	 xmlns="http://www.w3.org/2000/svg" xmlns:xlink="http://www.w3.org/1999/xlink" xmlns:a="http://ns.adobe.com/AdobeSVGViewerExtensions/3.0/"
	 x="0px" y="0px" width="1115px" height="700px" viewBox="0 0 1115 700" enable-background="new 0 0 1115 700" xml:space="preserve"
	>
<defs>
</defs>
<g>
	<g id="details_1_">
		<rect x="0" y="0" fill="#FFFFFF" width="1115" height="700"/>
		<g>
			<path fill="#221F1F" d="M70.1,580.6h-1.9l-5.2-6.9l-1.5,1.3v5.6h-1.7v-14.3h1.7v7.1l6.5-7.1h2l-5.7,6.2L70.1,580.6z"/>
			<path fill="#221F1F" d="M79.2,580.6v-6.9c0-0.9-0.2-1.5-0.6-2s-1-0.6-1.9-0.6c-1.1,0-1.9,0.3-2.5,0.9s-0.8,1.6-0.8,3v5.6h-1.6
				v-10.7h1.3l0.3,1.5h0.1c0.3-0.5,0.8-0.9,1.4-1.2c0.6-0.3,1.3-0.4,2-0.4c1.3,0,2.3,0.3,2.9,0.9c0.6,0.6,1,1.6,1,3v7H79.2z"/>
			<path fill="#221F1F" d="M93.3,575.3c0,1.7-0.4,3.1-1.3,4.1c-0.9,1-2.1,1.5-3.6,1.5c-1,0-1.8-0.2-2.5-0.7s-1.3-1.1-1.7-1.9
				s-0.6-1.8-0.6-2.9c0-1.7,0.4-3.1,1.3-4.1c0.9-1,2.1-1.5,3.6-1.5c1.5,0,2.7,0.5,3.6,1.5C92.9,572.2,93.3,573.6,93.3,575.3z
				 M85.2,575.3c0,1.4,0.3,2.4,0.8,3.1c0.5,0.7,1.3,1.1,2.4,1.1s1.9-0.4,2.4-1.1c0.5-0.7,0.8-1.8,0.8-3.1c0-1.4-0.3-2.4-0.8-3.1
				c-0.5-0.7-1.4-1.1-2.4-1.1c-1.1,0-1.9,0.3-2.4,1C85.4,572.9,85.2,573.9,85.2,575.3z"/>
			<path fill="#221F1F" d="M104.9,569.9v1l-2,0.2c0.2,0.2,0.3,0.5,0.5,0.9c0.1,0.4,0.2,0.8,0.2,1.2c0,1-0.4,1.9-1.1,2.5
				c-0.7,0.6-1.7,0.9-2.9,0.9c-0.3,0-0.6,0-0.9-0.1c-0.7,0.4-1,0.8-1,1.4c0,0.3,0.1,0.5,0.4,0.6c0.2,0.1,0.7,0.2,1.2,0.2h1.9
				c1.2,0,2,0.2,2.7,0.7c0.6,0.5,0.9,1.2,0.9,2.1c0,1.2-0.5,2.1-1.4,2.7c-0.9,0.6-2.3,0.9-4.2,0.9c-1.4,0-2.5-0.3-3.2-0.8
				c-0.8-0.5-1.1-1.3-1.1-2.2c0-0.7,0.2-1.2,0.6-1.7c0.4-0.5,1-0.8,1.8-1c-0.3-0.1-0.5-0.3-0.7-0.6c-0.2-0.3-0.3-0.6-0.3-0.9
				c0-0.4,0.1-0.7,0.3-1s0.5-0.6,1-0.8c-0.6-0.2-1-0.6-1.4-1.2s-0.5-1.2-0.5-1.9c0-1.2,0.4-2.1,1.1-2.7c0.7-0.6,1.7-1,3-1
				c0.6,0,1.1,0.1,1.5,0.2H104.9z M96.4,582.4c0,0.6,0.2,1,0.7,1.3c0.5,0.3,1.2,0.4,2.1,0.4c1.4,0,2.4-0.2,3-0.6c0.7-0.4,1-1,1-1.7
				c0-0.6-0.2-1-0.5-1.2s-1-0.3-2-0.3h-1.9c-0.7,0-1.3,0.2-1.7,0.5C96.6,581.3,96.4,581.8,96.4,582.4z M97.3,573.4
				c0,0.7,0.2,1.3,0.6,1.7c0.4,0.4,1,0.6,1.8,0.6c1.6,0,2.4-0.8,2.4-2.3c0-1.6-0.8-2.4-2.4-2.4c-0.8,0-1.3,0.2-1.8,0.6
				C97.5,572,97.3,572.6,97.3,573.4z"/>
			<path fill="#221F1F" d="M119.5,579.2L119.5,579.2c-0.8,1.1-2,1.6-3.4,1.6c-1.4,0-2.5-0.5-3.3-1.4c-0.8-1-1.2-2.3-1.2-4.1
				c0-1.8,0.4-3.1,1.2-4.1c0.8-1,1.9-1.5,3.3-1.5c1.4,0,2.6,0.5,3.3,1.6h0.1l-0.1-0.8l0-0.8v-4.4h1.6v15.2h-1.3L119.5,579.2z
				 M116.3,579.5c1.1,0,1.9-0.3,2.4-0.9c0.5-0.6,0.7-1.6,0.7-2.9v-0.3c0-1.5-0.3-2.6-0.8-3.2c-0.5-0.6-1.3-1-2.4-1
				c-0.9,0-1.7,0.4-2.2,1.1c-0.5,0.7-0.8,1.8-0.8,3.1c0,1.4,0.2,2.4,0.8,3.1C114.6,579.1,115.3,579.5,116.3,579.5z"/>
			<path fill="#221F1F" d="M129,580.8c-1.6,0-2.8-0.5-3.7-1.4c-0.9-1-1.4-2.3-1.4-4c0-1.7,0.4-3.1,1.3-4.1s2-1.5,3.4-1.5
				c1.3,0,2.4,0.4,3.2,1.3c0.8,0.9,1.2,2,1.2,3.5v1h-7.4c0,1.3,0.3,2.2,1,2.9c0.6,0.7,1.4,1,2.5,1c1.2,0,2.3-0.2,3.4-0.7v1.4
				c-0.6,0.2-1.1,0.4-1.6,0.5C130.4,580.8,129.7,580.8,129,580.8z M128.6,571.1c-0.9,0-1.5,0.3-2.1,0.8c-0.5,0.6-0.8,1.3-0.9,2.3
				h5.6c0-1-0.2-1.8-0.7-2.3C130.1,571.4,129.4,571.1,128.6,571.1z"/>
			<path fill="#221F1F" d="M142.6,577.7c0,1-0.4,1.8-1.1,2.3c-0.7,0.5-1.8,0.8-3.1,0.8c-1.4,0-2.5-0.2-3.3-0.7v-1.5
				c0.5,0.3,1.1,0.5,1.7,0.6c0.6,0.1,1.2,0.2,1.7,0.2c0.8,0,1.5-0.1,1.9-0.4c0.5-0.3,0.7-0.7,0.7-1.2c0-0.4-0.2-0.8-0.5-1.1
				c-0.4-0.3-1.1-0.6-2.1-1c-1-0.4-1.7-0.7-2.1-1c-0.4-0.3-0.7-0.6-0.9-0.9s-0.3-0.8-0.3-1.3c0-0.9,0.4-1.6,1.1-2.1
				c0.7-0.5,1.7-0.8,2.9-0.8c1.1,0,2.3,0.2,3.4,0.7l-0.6,1.3c-1.1-0.4-2-0.7-2.9-0.7c-0.8,0-1.3,0.1-1.7,0.4c-0.4,0.2-0.6,0.6-0.6,1
				c0,0.3,0.1,0.5,0.2,0.7c0.1,0.2,0.4,0.4,0.7,0.6c0.3,0.2,0.9,0.4,1.9,0.8c1.3,0.5,2.1,0.9,2.6,1.4S142.6,577,142.6,577.7z"/>
			<path fill="#221F1F" d="M145.1,567c0-0.4,0.1-0.6,0.3-0.8c0.2-0.2,0.4-0.3,0.7-0.3c0.3,0,0.5,0.1,0.7,0.3
				c0.2,0.2,0.3,0.4,0.3,0.8c0,0.4-0.1,0.6-0.3,0.8c-0.2,0.2-0.4,0.3-0.7,0.3c-0.3,0-0.5-0.1-0.7-0.3
				C145.2,567.7,145.1,567.4,145.1,567z M146.8,580.6h-1.6v-10.7h1.6V580.6z"/>
			<path fill="#221F1F" d="M159,569.9v1l-2,0.2c0.2,0.2,0.3,0.5,0.5,0.9c0.1,0.4,0.2,0.8,0.2,1.2c0,1-0.4,1.9-1.1,2.5
				s-1.7,0.9-2.9,0.9c-0.3,0-0.6,0-0.9-0.1c-0.7,0.4-1,0.8-1,1.4c0,0.3,0.1,0.5,0.4,0.6c0.2,0.1,0.7,0.2,1.2,0.2h1.9
				c1.2,0,2,0.2,2.7,0.7s0.9,1.2,0.9,2.1c0,1.2-0.5,2.1-1.4,2.7c-0.9,0.6-2.3,0.9-4.2,0.9c-1.4,0-2.5-0.3-3.2-0.8
				c-0.8-0.5-1.1-1.3-1.1-2.2c0-0.7,0.2-1.2,0.6-1.7c0.4-0.5,1-0.8,1.8-1c-0.3-0.1-0.5-0.3-0.7-0.6c-0.2-0.3-0.3-0.6-0.3-0.9
				c0-0.4,0.1-0.7,0.3-1s0.5-0.6,1-0.8c-0.6-0.2-1-0.6-1.3-1.2s-0.5-1.2-0.5-1.9c0-1.2,0.4-2.1,1.1-2.7c0.7-0.6,1.7-1,3-1
				c0.6,0,1.1,0.1,1.5,0.2H159z M150.5,582.4c0,0.6,0.2,1,0.7,1.3c0.5,0.3,1.2,0.4,2.1,0.4c1.4,0,2.4-0.2,3-0.6c0.7-0.4,1-1,1-1.7
				c0-0.6-0.2-1-0.5-1.2s-1-0.3-2-0.3h-1.9c-0.7,0-1.3,0.2-1.7,0.5S150.5,581.8,150.5,582.4z M151.4,573.4c0,0.7,0.2,1.3,0.6,1.7
				c0.4,0.4,1,0.6,1.8,0.6c1.6,0,2.4-0.8,2.4-2.3c0-1.6-0.8-2.4-2.4-2.4c-0.8,0-1.3,0.2-1.8,0.6C151.6,572,151.4,572.6,151.4,573.4z
				"/>
			<path fill="#221F1F" d="M168.5,580.6v-6.9c0-0.9-0.2-1.5-0.6-2s-1-0.6-1.9-0.6c-1.1,0-1.9,0.3-2.5,0.9s-0.8,1.6-0.8,3v5.6h-1.6
				v-10.7h1.3l0.3,1.5h0.1c0.3-0.5,0.8-0.9,1.4-1.2c0.6-0.3,1.3-0.4,2-0.4c1.3,0,2.3,0.3,2.9,0.9c0.7,0.6,1,1.6,1,3v7H168.5z"/>
			<path fill="#221F1F" d="M185.2,580.6l-0.3-1.5h-0.1c-0.5,0.7-1.1,1.1-1.6,1.4c-0.5,0.2-1.2,0.4-2,0.4c-1.1,0-1.9-0.3-2.5-0.8
				c-0.6-0.5-0.9-1.3-0.9-2.3c0-2.2,1.7-3.3,5.2-3.4l1.8-0.1v-0.7c0-0.8-0.2-1.5-0.5-1.9c-0.4-0.4-0.9-0.6-1.7-0.6
				c-0.9,0-1.9,0.3-3,0.8l-0.5-1.2c0.5-0.3,1.1-0.5,1.7-0.7c0.6-0.2,1.3-0.2,1.9-0.2c1.3,0,2.2,0.3,2.8,0.8c0.6,0.6,0.9,1.5,0.9,2.7
				v7.3H185.2z M181.6,579.5c1,0,1.8-0.3,2.4-0.8c0.6-0.6,0.9-1.3,0.9-2.3v-1l-1.6,0.1c-1.3,0-2.2,0.2-2.8,0.6
				c-0.6,0.4-0.9,0.9-0.9,1.7c0,0.6,0.2,1,0.5,1.3C180.4,579.3,180.9,579.5,181.6,579.5z"/>
			<path fill="#221F1F" d="M197.1,580.6v-6.9c0-0.9-0.2-1.5-0.6-2s-1-0.6-1.9-0.6c-1.1,0-1.9,0.3-2.5,0.9c-0.5,0.6-0.8,1.6-0.8,3
				v5.6h-1.6v-10.7h1.3l0.3,1.5h0.1c0.3-0.5,0.8-0.9,1.4-1.2c0.6-0.3,1.3-0.4,2-0.4c1.3,0,2.3,0.3,2.9,0.9c0.6,0.6,1,1.6,1,3v7
				H197.1z"/>
			<path fill="#221F1F" d="M209.3,579.2L209.3,579.2c-0.8,1.1-2,1.6-3.4,1.6c-1.4,0-2.5-0.5-3.3-1.4c-0.8-1-1.2-2.3-1.2-4.1
				c0-1.8,0.4-3.1,1.2-4.1c0.8-1,1.9-1.5,3.3-1.5c1.4,0,2.6,0.5,3.3,1.6h0.1l-0.1-0.8l0-0.8v-4.4h1.6v15.2h-1.3L209.3,579.2z
				 M206,579.5c1.1,0,1.9-0.3,2.4-0.9c0.5-0.6,0.7-1.6,0.7-2.9v-0.3c0-1.5-0.3-2.6-0.8-3.2c-0.5-0.6-1.3-1-2.4-1
				c-0.9,0-1.7,0.4-2.2,1.1c-0.5,0.7-0.8,1.8-0.8,3.1c0,1.4,0.2,2.4,0.8,3.1C204.3,579.1,205.1,579.5,206,579.5z"/>
			<path fill="#221F1F" d="M233,580.6v-7c0-0.9-0.2-1.5-0.5-1.9c-0.4-0.4-0.9-0.6-1.7-0.6c-1,0-1.8,0.3-2.2,0.9
				c-0.5,0.6-0.7,1.5-0.7,2.7v6h-1.6v-7c0-0.9-0.2-1.5-0.5-1.9c-0.4-0.4-0.9-0.6-1.7-0.6c-1,0-1.8,0.3-2.2,0.9
				c-0.5,0.6-0.7,1.6-0.7,3v5.6h-1.6v-10.7h1.3l0.3,1.5h0.1c0.3-0.5,0.7-0.9,1.3-1.2s1.2-0.4,1.9-0.4c1.7,0,2.8,0.6,3.3,1.8h0.1
				c0.3-0.6,0.8-1,1.4-1.3c0.6-0.3,1.3-0.5,2.1-0.5c1.2,0,2.1,0.3,2.7,0.9c0.6,0.6,0.9,1.6,0.9,3v7H233z"/>
			<path fill="#221F1F" d="M244.6,580.6l-0.3-1.5h-0.1c-0.5,0.7-1.1,1.1-1.6,1.4c-0.5,0.2-1.2,0.4-2,0.4c-1.1,0-1.9-0.3-2.5-0.8
				c-0.6-0.5-0.9-1.3-0.9-2.3c0-2.2,1.7-3.3,5.2-3.4l1.8-0.1v-0.7c0-0.8-0.2-1.5-0.5-1.9c-0.4-0.4-0.9-0.6-1.7-0.6
				c-0.9,0-1.9,0.3-3,0.8l-0.5-1.2c0.5-0.3,1.1-0.5,1.7-0.7c0.6-0.2,1.3-0.2,1.9-0.2c1.3,0,2.2,0.3,2.8,0.8c0.6,0.6,0.9,1.5,0.9,2.7
				v7.3H244.6z M240.9,579.5c1,0,1.8-0.3,2.4-0.8c0.6-0.6,0.9-1.3,0.9-2.3v-1l-1.6,0.1c-1.3,0-2.2,0.2-2.8,0.6
				c-0.6,0.4-0.9,0.9-0.9,1.7c0,0.6,0.2,1,0.5,1.3C239.8,579.3,240.3,579.5,240.9,579.5z"/>
			<path fill="#221F1F" d="M256.4,580.6v-6.9c0-0.9-0.2-1.5-0.6-2s-1-0.6-1.9-0.6c-1.1,0-1.9,0.3-2.5,0.9c-0.5,0.6-0.8,1.6-0.8,3
				v5.6h-1.6v-10.7h1.3l0.3,1.5h0.1c0.3-0.5,0.8-0.9,1.4-1.2c0.6-0.3,1.3-0.4,2-0.4c1.3,0,2.3,0.3,2.9,0.9c0.6,0.6,1,1.6,1,3v7
				H256.4z"/>
			<path fill="#221F1F" d="M262.9,569.9v6.9c0,0.9,0.2,1.5,0.6,2s1,0.6,1.9,0.6c1.1,0,1.9-0.3,2.5-0.9c0.5-0.6,0.8-1.6,0.8-3v-5.6
				h1.6v10.7h-1.3l-0.2-1.4h-0.1c-0.3,0.5-0.8,0.9-1.4,1.2c-0.6,0.3-1.3,0.4-2,0.4c-1.3,0-2.3-0.3-2.9-0.9c-0.6-0.6-1-1.6-1-3v-7
				H262.9z"/>
			<path fill="#221F1F" d="M278.4,571.2h-2.7v9.4h-1.6v-9.4h-1.9v-0.7l1.9-0.6v-0.6c0-2.6,1.1-3.9,3.4-3.9c0.6,0,1.2,0.1,2,0.3
				l-0.4,1.3c-0.6-0.2-1.2-0.3-1.6-0.3c-0.6,0-1.1,0.2-1.4,0.6c-0.3,0.4-0.4,1.1-0.4,2v0.7h2.7V571.2z"/>
			<path fill="#221F1F" d="M286.9,580.6l-0.3-1.5h-0.1c-0.5,0.7-1.1,1.1-1.6,1.4c-0.5,0.2-1.2,0.4-2,0.4c-1.1,0-1.9-0.3-2.5-0.8
				c-0.6-0.5-0.9-1.3-0.9-2.3c0-2.2,1.7-3.3,5.2-3.4l1.8-0.1v-0.7c0-0.8-0.2-1.5-0.5-1.9c-0.4-0.4-0.9-0.6-1.7-0.6
				c-0.9,0-1.9,0.3-3,0.8l-0.5-1.2c0.5-0.3,1.1-0.5,1.7-0.7c0.6-0.2,1.3-0.2,1.9-0.2c1.3,0,2.2,0.3,2.8,0.8c0.6,0.6,0.9,1.5,0.9,2.7
				v7.3H286.9z M283.3,579.5c1,0,1.8-0.3,2.4-0.8c0.6-0.6,0.9-1.3,0.9-2.3v-1l-1.6,0.1c-1.3,0-2.2,0.2-2.8,0.6
				c-0.6,0.4-0.9,0.9-0.9,1.7c0,0.6,0.2,1,0.5,1.3C282.1,579.3,282.6,579.5,283.3,579.5z"/>
			<path fill="#221F1F" d="M295.7,580.8c-1.5,0-2.7-0.5-3.6-1.4c-0.8-1-1.3-2.3-1.3-4c0-1.8,0.4-3.2,1.3-4.2c0.9-1,2.1-1.5,3.7-1.5
				c0.5,0,1,0.1,1.5,0.2c0.5,0.1,0.9,0.2,1.2,0.4l-0.5,1.4c-0.4-0.1-0.7-0.3-1.2-0.4c-0.4-0.1-0.8-0.1-1.1-0.1
				c-2.2,0-3.3,1.4-3.3,4.2c0,1.3,0.3,2.3,0.8,3c0.5,0.7,1.3,1.1,2.4,1.1c0.9,0,1.8-0.2,2.7-0.6v1.4
				C297.7,580.7,296.8,580.8,295.7,580.8z"/>
			<path fill="#221F1F" d="M304.4,579.5c0.3,0,0.6,0,0.8-0.1c0.3,0,0.5-0.1,0.6-0.1v1.2c-0.2,0.1-0.4,0.2-0.8,0.2
				c-0.3,0.1-0.6,0.1-0.9,0.1c-2.1,0-3.1-1.1-3.1-3.3v-6.4h-1.5v-0.8l1.5-0.7l0.7-2.3h0.9v2.5h3.1v1.3h-3.1v6.3
				c0,0.6,0.2,1.1,0.5,1.5C303.5,579.3,303.9,579.5,304.4,579.5z"/>
			<path fill="#221F1F" d="M309.5,569.9v6.9c0,0.9,0.2,1.5,0.6,2s1,0.6,1.9,0.6c1.1,0,1.9-0.3,2.5-0.9c0.5-0.6,0.8-1.6,0.8-3v-5.6
				h1.6v10.7h-1.3l-0.2-1.4h-0.1c-0.3,0.5-0.8,0.9-1.4,1.2c-0.6,0.3-1.3,0.4-2,0.4c-1.3,0-2.3-0.3-2.9-0.9c-0.6-0.6-1-1.6-1-3v-7
				H309.5z"/>
			<path fill="#221F1F" d="M325.1,569.7c0.5,0,0.9,0,1.3,0.1l-0.2,1.5c-0.4-0.1-0.8-0.1-1.2-0.1c-0.9,0-1.6,0.4-2.2,1.1
				c-0.6,0.7-0.9,1.6-0.9,2.6v5.7h-1.6v-10.7h1.3l0.2,2h0.1c0.4-0.7,0.9-1.2,1.4-1.6C323.9,569.9,324.5,569.7,325.1,569.7z"/>
			<path fill="#221F1F" d="M332.9,580.8c-1.6,0-2.8-0.5-3.7-1.4c-0.9-1-1.4-2.3-1.4-4c0-1.7,0.4-3.1,1.3-4.1c0.8-1,2-1.5,3.4-1.5
				c1.3,0,2.4,0.4,3.2,1.3c0.8,0.9,1.2,2,1.2,3.5v1h-7.4c0,1.3,0.3,2.2,1,2.9c0.6,0.7,1.4,1,2.5,1c1.2,0,2.3-0.2,3.4-0.7v1.4
				c-0.6,0.2-1.1,0.4-1.6,0.5S333.7,580.8,332.9,580.8z M332.5,571.1c-0.9,0-1.5,0.3-2.1,0.8c-0.5,0.6-0.8,1.3-0.9,2.3h5.6
				c0-1-0.2-1.8-0.7-2.3C334,571.4,333.3,571.1,332.5,571.1z"/>
			<path fill="#221F1F" d="M351.4,580.6l-0.3-1.5H351c-0.5,0.7-1.1,1.1-1.6,1.4c-0.5,0.2-1.2,0.4-2,0.4c-1.1,0-1.9-0.3-2.5-0.8
				c-0.6-0.5-0.9-1.3-0.9-2.3c0-2.2,1.7-3.3,5.2-3.4l1.8-0.1v-0.7c0-0.8-0.2-1.5-0.5-1.9c-0.4-0.4-0.9-0.6-1.7-0.6
				c-0.9,0-1.9,0.3-3,0.8l-0.5-1.2c0.5-0.3,1.1-0.5,1.7-0.7c0.6-0.2,1.3-0.2,1.9-0.2c1.3,0,2.2,0.3,2.8,0.8c0.6,0.6,0.9,1.5,0.9,2.7
				v7.3H351.4z M347.7,579.5c1,0,1.8-0.3,2.4-0.8c0.6-0.6,0.9-1.3,0.9-2.3v-1l-1.6,0.1c-1.3,0-2.2,0.2-2.8,0.6
				c-0.6,0.4-0.9,0.9-0.9,1.7c0,0.6,0.2,1,0.5,1.3C346.6,579.3,347.1,579.5,347.7,579.5z"/>
			<path fill="#221F1F" d="M63.9,604.8c-1.5,0-2.7-0.5-3.6-1.4c-0.8-1-1.3-2.3-1.3-4c0-1.8,0.4-3.2,1.3-4.2s2.1-1.5,3.7-1.5
				c0.5,0,1,0.1,1.5,0.2c0.5,0.1,0.9,0.2,1.2,0.4l-0.5,1.4c-0.4-0.1-0.7-0.3-1.2-0.4c-0.4-0.1-0.8-0.1-1.1-0.1
				c-2.2,0-3.3,1.4-3.3,4.2c0,1.3,0.3,2.3,0.8,3s1.3,1.1,2.4,1.1c0.9,0,1.8-0.2,2.7-0.6v1.4C65.8,604.7,64.9,604.8,63.9,604.8z"/>
			<path fill="#221F1F" d="M78.3,599.3c0,1.7-0.4,3.1-1.3,4.1c-0.9,1-2.1,1.5-3.6,1.5c-1,0-1.8-0.2-2.5-0.7s-1.3-1.1-1.7-1.9
				s-0.6-1.8-0.6-2.9c0-1.7,0.4-3.1,1.3-4.1c0.9-1,2.1-1.5,3.6-1.5c1.5,0,2.7,0.5,3.6,1.5S78.3,597.6,78.3,599.3z M70.2,599.3
				c0,1.4,0.3,2.4,0.8,3.1c0.5,0.7,1.3,1.1,2.4,1.1c1.1,0,1.9-0.4,2.4-1.1s0.8-1.8,0.8-3.1c0-1.4-0.3-2.4-0.8-3.1
				c-0.5-0.7-1.4-1.1-2.4-1.1c-1.1,0-1.9,0.3-2.4,1C70.4,596.9,70.2,597.9,70.2,599.3z"/>
			<path fill="#221F1F" d="M94.8,604.6v-7c0-0.9-0.2-1.5-0.5-1.9c-0.4-0.4-0.9-0.6-1.7-0.6c-1,0-1.8,0.3-2.2,0.9
				c-0.5,0.6-0.7,1.5-0.7,2.7v6H88v-7c0-0.9-0.2-1.5-0.5-1.9c-0.4-0.4-0.9-0.6-1.7-0.6c-1,0-1.8,0.3-2.2,0.9c-0.5,0.6-0.7,1.6-0.7,3
				v5.6h-1.6v-10.7h1.3l0.3,1.5h0.1c0.3-0.5,0.7-0.9,1.3-1.2s1.2-0.4,1.9-0.4c1.7,0,2.8,0.6,3.3,1.8h0.1c0.3-0.6,0.8-1,1.4-1.3
				c0.6-0.3,1.3-0.5,2.1-0.5c1.2,0,2.1,0.3,2.7,0.9c0.6,0.6,0.9,1.6,0.9,3v7H94.8z"/>
			<path fill="#221F1F" d="M104.7,604.8c-0.7,0-1.3-0.1-1.9-0.4c-0.6-0.3-1.1-0.7-1.4-1.2h-0.1c0.1,0.6,0.1,1.2,0.1,1.8v4.4h-1.6
				v-15.5h1.3l0.2,1.5h0.1c0.4-0.6,0.9-1,1.5-1.3c0.6-0.3,1.2-0.4,1.9-0.4c1.4,0,2.5,0.5,3.3,1.5c0.8,1,1.2,2.3,1.2,4.1
				c0,1.8-0.4,3.1-1.2,4.1C107.2,604.4,106.1,604.8,104.7,604.8z M104.5,595.1c-1.1,0-1.9,0.3-2.4,0.9s-0.7,1.6-0.8,2.9v0.4
				c0,1.5,0.2,2.6,0.8,3.2c0.5,0.6,1.3,1,2.4,1c0.9,0,1.6-0.4,2.2-1.1c0.5-0.8,0.8-1.8,0.8-3.1c0-1.3-0.3-2.4-0.8-3.1
				S105.4,595.1,104.5,595.1z"/>
			<path fill="#221F1F" d="M116.8,593.7c0.5,0,0.9,0,1.3,0.1l-0.2,1.5c-0.4-0.1-0.8-0.1-1.2-0.1c-0.9,0-1.6,0.4-2.2,1.1
				c-0.6,0.7-0.9,1.6-0.9,2.6v5.7H112v-10.7h1.3l0.2,2h0.1c0.4-0.7,0.9-1.2,1.4-1.6C115.5,593.9,116.2,593.7,116.8,593.7z"/>
			<path fill="#221F1F" d="M124.6,604.8c-1.6,0-2.8-0.5-3.7-1.4c-0.9-1-1.4-2.3-1.4-4c0-1.7,0.4-3.1,1.3-4.1c0.8-1,2-1.5,3.4-1.5
				c1.3,0,2.4,0.4,3.2,1.3c0.8,0.9,1.2,2,1.2,3.5v1h-7.4c0,1.3,0.3,2.2,1,2.9c0.6,0.7,1.4,1,2.5,1c1.2,0,2.3-0.2,3.4-0.7v1.4
				c-0.6,0.2-1.1,0.4-1.6,0.5S125.3,604.8,124.6,604.8z M124.2,595.1c-0.9,0-1.5,0.3-2.1,0.8c-0.5,0.6-0.8,1.3-0.9,2.3h5.6
				c0-1-0.2-1.8-0.7-2.3C125.7,595.4,125,595.1,124.2,595.1z"/>
			<path fill="#221F1F" d="M138.6,604.6v-6.9c0-0.9-0.2-1.5-0.6-2s-1-0.6-1.9-0.6c-1.1,0-1.9,0.3-2.5,0.9c-0.5,0.6-0.8,1.6-0.8,3
				v5.6h-1.6v-15.2h1.6v4.6c0,0.6,0,1-0.1,1.4h0.1c0.3-0.5,0.8-0.9,1.4-1.2c0.6-0.3,1.3-0.4,2-0.4c1.3,0,2.3,0.3,2.9,0.9
				c0.7,0.6,1,1.6,1,3v7H138.6z"/>
			<path fill="#221F1F" d="M148.1,604.8c-1.6,0-2.8-0.5-3.7-1.4c-0.9-1-1.4-2.3-1.4-4c0-1.7,0.4-3.1,1.3-4.1c0.8-1,2-1.5,3.4-1.5
				c1.3,0,2.4,0.4,3.2,1.3c0.8,0.9,1.2,2,1.2,3.5v1h-7.4c0,1.3,0.3,2.2,0.9,2.9c0.6,0.7,1.4,1,2.5,1c1.1,0,2.3-0.2,3.4-0.7v1.4
				c-0.6,0.2-1.1,0.4-1.6,0.5S148.8,604.8,148.1,604.8z M147.6,595.1c-0.9,0-1.5,0.3-2.1,0.8c-0.5,0.6-0.8,1.3-0.9,2.3h5.6
				c0-1-0.2-1.8-0.7-2.3C149.1,595.4,148.5,595.1,147.6,595.1z"/>
			<path fill="#221F1F" d="M162.1,604.6v-6.9c0-0.9-0.2-1.5-0.6-2s-1-0.6-1.9-0.6c-1.1,0-1.9,0.3-2.5,0.9c-0.5,0.6-0.8,1.6-0.8,3
				v5.6h-1.6v-10.7h1.3l0.3,1.5h0.1c0.3-0.5,0.8-0.9,1.4-1.2c0.6-0.3,1.3-0.4,2-0.4c1.3,0,2.3,0.3,2.9,0.9c0.6,0.6,1,1.6,1,3v7
				H162.1z"/>
			<path fill="#221F1F" d="M173.9,601.7c0,1-0.4,1.8-1.1,2.3c-0.7,0.5-1.8,0.8-3.1,0.8c-1.4,0-2.5-0.2-3.3-0.7v-1.5
				c0.5,0.3,1.1,0.5,1.7,0.6c0.6,0.1,1.2,0.2,1.7,0.2c0.8,0,1.5-0.1,1.9-0.4c0.5-0.3,0.7-0.7,0.7-1.2c0-0.4-0.2-0.8-0.5-1.1
				c-0.4-0.3-1.1-0.6-2.1-1c-1-0.4-1.7-0.7-2.1-1c-0.4-0.3-0.7-0.6-0.9-0.9s-0.3-0.8-0.3-1.3c0-0.9,0.4-1.6,1.1-2.1
				c0.7-0.5,1.7-0.8,2.9-0.8c1.2,0,2.3,0.2,3.4,0.7l-0.6,1.3c-1.1-0.4-2-0.7-2.9-0.7c-0.8,0-1.3,0.1-1.7,0.4c-0.4,0.2-0.6,0.6-0.6,1
				c0,0.3,0.1,0.5,0.2,0.7c0.1,0.2,0.4,0.4,0.7,0.6c0.3,0.2,0.9,0.4,1.9,0.8c1.3,0.5,2.1,0.9,2.6,1.4
				C173.7,600.4,173.9,601,173.9,601.7z"/>
			<path fill="#221F1F" d="M176.4,591c0-0.4,0.1-0.6,0.3-0.8c0.2-0.2,0.4-0.3,0.7-0.3c0.3,0,0.5,0.1,0.7,0.3s0.3,0.4,0.3,0.8
				c0,0.4-0.1,0.6-0.3,0.8c-0.2,0.2-0.4,0.3-0.7,0.3c-0.3,0-0.5-0.1-0.7-0.3C176.5,591.7,176.4,591.4,176.4,591z M178.1,604.6h-1.6
				v-10.7h1.6V604.6z"/>
			<path fill="#221F1F" d="M183.9,604.6l-4.1-10.7h1.7l2.3,6.3c0.5,1.5,0.8,2.4,0.9,2.9h0.1c0.1-0.3,0.3-1.1,0.7-2.1
				c0.4-1.1,1.2-3.4,2.6-7.1h1.7l-4.1,10.7H183.9z"/>
			<path fill="#221F1F" d="M196.1,604.8c-1.6,0-2.8-0.5-3.7-1.4c-0.9-1-1.4-2.3-1.4-4c0-1.7,0.4-3.1,1.3-4.1s2-1.5,3.4-1.5
				c1.3,0,2.4,0.4,3.2,1.3c0.8,0.9,1.2,2,1.2,3.5v1h-7.4c0,1.3,0.3,2.2,1,2.9c0.6,0.7,1.4,1,2.5,1c1.2,0,2.3-0.2,3.4-0.7v1.4
				c-0.6,0.2-1.1,0.4-1.6,0.5C197.4,604.8,196.8,604.8,196.1,604.8z M195.7,595.1c-0.9,0-1.5,0.3-2.1,0.8c-0.5,0.6-0.8,1.3-0.9,2.3
				h5.6c0-1-0.2-1.8-0.7-2.3C197.1,595.4,196.5,595.1,195.7,595.1z"/>
			<path fill="#221F1F" d="M212.8,593.7c0.5,0,0.9,0,1.3,0.1l-0.2,1.5c-0.4-0.1-0.8-0.1-1.2-0.1c-0.9,0-1.6,0.4-2.2,1.1
				s-0.9,1.6-0.9,2.6v5.7H208v-10.7h1.3l0.2,2h0.1c0.4-0.7,0.9-1.2,1.4-1.6C211.6,593.9,212.2,593.7,212.8,593.7z"/>
			<path fill="#221F1F" d="M222.7,604.6l-0.3-1.5h-0.1c-0.5,0.7-1.1,1.1-1.6,1.4c-0.5,0.2-1.2,0.4-2,0.4c-1.1,0-1.9-0.3-2.5-0.8
				s-0.9-1.3-0.9-2.3c0-2.2,1.7-3.3,5.2-3.4l1.8-0.1v-0.7c0-0.8-0.2-1.5-0.5-1.9s-0.9-0.6-1.7-0.6c-0.9,0-1.9,0.3-3,0.8l-0.5-1.2
				c0.5-0.3,1.1-0.5,1.7-0.7c0.6-0.2,1.3-0.2,1.9-0.2c1.3,0,2.2,0.3,2.8,0.8s0.9,1.5,0.9,2.7v7.3H222.7z M219,603.5
				c1,0,1.8-0.3,2.4-0.8c0.6-0.6,0.9-1.3,0.9-2.3v-1l-1.6,0.1c-1.3,0-2.2,0.2-2.8,0.6c-0.6,0.4-0.9,0.9-0.9,1.7c0,0.6,0.2,1,0.5,1.3
				C217.9,603.3,218.4,603.5,219,603.5z"/>
			<path fill="#221F1F" d="M234.5,604.6v-6.9c0-0.9-0.2-1.5-0.6-2s-1-0.6-1.9-0.6c-1.1,0-1.9,0.3-2.5,0.9s-0.8,1.6-0.8,3v5.6h-1.6
				v-10.7h1.3l0.3,1.5h0.1c0.3-0.5,0.8-0.9,1.4-1.2c0.6-0.3,1.3-0.4,2-0.4c1.3,0,2.3,0.3,2.9,0.9c0.7,0.6,1,1.6,1,3v7H234.5z"/>
			<path fill="#221F1F" d="M248.2,593.9v1l-2,0.2c0.2,0.2,0.3,0.5,0.5,0.9c0.1,0.4,0.2,0.8,0.2,1.2c0,1-0.4,1.9-1.1,2.5
				c-0.7,0.6-1.7,0.9-2.9,0.9c-0.3,0-0.6,0-0.9-0.1c-0.7,0.4-1,0.8-1,1.4c0,0.3,0.1,0.5,0.4,0.6c0.2,0.1,0.7,0.2,1.2,0.2h1.9
				c1.2,0,2,0.2,2.7,0.7c0.6,0.5,0.9,1.2,0.9,2.1c0,1.2-0.5,2.1-1.4,2.7c-0.9,0.6-2.3,0.9-4.2,0.9c-1.4,0-2.5-0.3-3.2-0.8
				c-0.8-0.5-1.1-1.3-1.1-2.2c0-0.7,0.2-1.2,0.6-1.7c0.4-0.5,1-0.8,1.8-1c-0.3-0.1-0.5-0.3-0.7-0.6c-0.2-0.3-0.3-0.6-0.3-0.9
				c0-0.4,0.1-0.7,0.3-1s0.5-0.6,1-0.8c-0.6-0.2-1-0.6-1.4-1.2s-0.5-1.2-0.5-1.9c0-1.2,0.4-2.1,1.1-2.7c0.7-0.6,1.7-1,3-1
				c0.6,0,1.1,0.1,1.5,0.2H248.2z M239.7,606.4c0,0.6,0.2,1,0.7,1.3c0.5,0.3,1.2,0.4,2.1,0.4c1.4,0,2.4-0.2,3-0.6c0.7-0.4,1-1,1-1.7
				c0-0.6-0.2-1-0.5-1.2s-1-0.3-2-0.3H242c-0.7,0-1.3,0.2-1.7,0.5C239.9,605.3,239.7,605.8,239.7,606.4z M240.6,597.4
				c0,0.7,0.2,1.3,0.6,1.7c0.4,0.4,1,0.6,1.8,0.6c1.6,0,2.4-0.8,2.4-2.3c0-1.6-0.8-2.4-2.4-2.4c-0.8,0-1.3,0.2-1.8,0.6
				C240.8,596,240.6,596.6,240.6,597.4z"/>
			<path fill="#221F1F" d="M254.9,604.8c-1.6,0-2.8-0.5-3.7-1.4c-0.9-1-1.4-2.3-1.4-4c0-1.7,0.4-3.1,1.3-4.1s2-1.5,3.4-1.5
				c1.3,0,2.4,0.4,3.2,1.3c0.8,0.9,1.2,2,1.2,3.5v1h-7.4c0,1.3,0.3,2.2,1,2.9c0.6,0.7,1.4,1,2.5,1c1.2,0,2.3-0.2,3.4-0.7v1.4
				c-0.6,0.2-1.1,0.4-1.6,0.5C256.3,604.8,255.6,604.8,254.9,604.8z M254.5,595.1c-0.9,0-1.5,0.3-2.1,0.8c-0.5,0.6-0.8,1.3-0.9,2.3
				h5.6c0-1-0.2-1.8-0.7-2.3C256,595.4,255.3,595.1,254.5,595.1z"/>
			<path fill="#221F1F" d="M276,599.3c0,1.7-0.4,3.1-1.3,4.1c-0.9,1-2.1,1.5-3.6,1.5c-1,0-1.8-0.2-2.5-0.7c-0.7-0.4-1.3-1.1-1.7-1.9
				c-0.4-0.8-0.6-1.8-0.6-2.9c0-1.7,0.4-3.1,1.3-4.1c0.9-1,2.1-1.5,3.6-1.5c1.5,0,2.7,0.5,3.6,1.5S276,597.6,276,599.3z
				 M267.9,599.3c0,1.4,0.3,2.4,0.8,3.1c0.5,0.7,1.3,1.1,2.4,1.1c1.1,0,1.9-0.4,2.4-1.1c0.5-0.7,0.8-1.8,0.8-3.1
				c0-1.4-0.3-2.4-0.8-3.1c-0.5-0.7-1.4-1.1-2.4-1.1c-1.1,0-1.9,0.3-2.4,1C268.1,596.9,267.9,597.9,267.9,599.3z"/>
			<path fill="#221F1F" d="M283.7,595.2h-2.7v9.4h-1.6v-9.4h-1.9v-0.7l1.9-0.6v-0.6c0-2.6,1.1-3.9,3.4-3.9c0.6,0,1.2,0.1,2,0.3
				l-0.4,1.3c-0.6-0.2-1.2-0.3-1.6-0.3c-0.6,0-1.1,0.2-1.4,0.6c-0.3,0.4-0.4,1.1-0.4,2v0.7h2.7V595.2z"/>
			<path fill="#221F1F" d="M292.4,604.6h-1.6v-15.2h1.6V604.6z"/>
			<path fill="#221F1F" d="M305.1,599.3c0,1.7-0.4,3.1-1.3,4.1c-0.9,1-2.1,1.5-3.6,1.5c-1,0-1.8-0.2-2.5-0.7
				c-0.7-0.4-1.3-1.1-1.7-1.9c-0.4-0.8-0.6-1.8-0.6-2.9c0-1.7,0.4-3.1,1.3-4.1c0.9-1,2.1-1.5,3.6-1.5c1.5,0,2.7,0.5,3.6,1.5
				S305.1,597.6,305.1,599.3z M296.9,599.3c0,1.4,0.3,2.4,0.8,3.1c0.5,0.7,1.3,1.1,2.4,1.1c1.1,0,1.9-0.4,2.4-1.1
				c0.5-0.7,0.8-1.8,0.8-3.1c0-1.4-0.3-2.4-0.8-3.1c-0.5-0.7-1.4-1.1-2.4-1.1c-1.1,0-1.9,0.3-2.4,1
				C297.2,596.9,296.9,597.9,296.9,599.3z"/>
			<path fill="#221F1F" d="M312.2,604.8c-1.5,0-2.7-0.5-3.6-1.4c-0.8-1-1.3-2.3-1.3-4c0-1.8,0.4-3.2,1.3-4.2c0.9-1,2.1-1.5,3.7-1.5
				c0.5,0,1,0.1,1.5,0.2c0.5,0.1,0.9,0.2,1.2,0.4l-0.5,1.4c-0.4-0.1-0.7-0.3-1.2-0.4c-0.4-0.1-0.8-0.1-1.1-0.1
				c-2.2,0-3.3,1.4-3.3,4.2c0,1.3,0.3,2.3,0.8,3c0.5,0.7,1.3,1.1,2.4,1.1c0.9,0,1.8-0.2,2.7-0.6v1.4
				C314.2,604.7,313.3,604.8,312.2,604.8z"/>
			<path fill="#221F1F" d="M319,599.2c0.3-0.4,0.7-0.9,1.3-1.6l3.5-3.7h1.9l-4.3,4.6l4.6,6.1h-2l-3.8-5.1l-1.2,1.1v4h-1.6v-15.2h1.6
				v8.1C319,597.9,319,598.4,319,599.2L319,599.2z"/>
			<path fill="#221F1F" d="M334.8,601.7c0,1-0.4,1.8-1.1,2.3c-0.7,0.5-1.8,0.8-3.1,0.8c-1.4,0-2.5-0.2-3.3-0.7v-1.5
				c0.5,0.3,1.1,0.5,1.7,0.6c0.6,0.1,1.2,0.2,1.7,0.2c0.8,0,1.5-0.1,1.9-0.4c0.5-0.3,0.7-0.7,0.7-1.2c0-0.4-0.2-0.8-0.5-1.1
				c-0.4-0.3-1.1-0.6-2.1-1c-1-0.4-1.7-0.7-2.1-1c-0.4-0.3-0.7-0.6-0.9-0.9s-0.3-0.8-0.3-1.3c0-0.9,0.4-1.6,1.1-2.1
				c0.7-0.5,1.7-0.8,2.9-0.8c1.2,0,2.3,0.2,3.4,0.7l-0.6,1.3c-1.1-0.4-2-0.7-2.9-0.7c-0.8,0-1.3,0.1-1.7,0.4c-0.4,0.2-0.6,0.6-0.6,1
				c0,0.3,0.1,0.5,0.2,0.7c0.1,0.2,0.4,0.4,0.7,0.6c0.3,0.2,0.9,0.4,1.9,0.8c1.3,0.5,2.1,0.9,2.6,1.4
				C334.5,600.4,334.8,601,334.8,601.7z"/>
			<path fill="#221F1F" d="M339.1,602.3l0.1,0.2c-0.2,0.7-0.4,1.4-0.7,2.3c-0.3,0.9-0.7,1.7-1,2.4h-1.2c0.2-0.7,0.4-1.5,0.6-2.5
				s0.4-1.8,0.4-2.4H339.1z"/>
			<path fill="#221F1F" d="M349.1,604.6h-1.6v-15.2h1.6V604.6z"/>
			<path fill="#221F1F" d="M352.4,591c0-0.4,0.1-0.6,0.3-0.8c0.2-0.2,0.4-0.3,0.7-0.3c0.3,0,0.5,0.1,0.7,0.3
				c0.2,0.2,0.3,0.4,0.3,0.8c0,0.4-0.1,0.6-0.3,0.8c-0.2,0.2-0.4,0.3-0.7,0.3c-0.3,0-0.5-0.1-0.7-0.3
				C352.5,591.7,352.4,591.4,352.4,591z M354.2,604.6h-1.6v-10.7h1.6V604.6z"/>
			<path fill="#221F1F" d="M366.3,593.9v1l-2,0.2c0.2,0.2,0.3,0.5,0.5,0.9c0.1,0.4,0.2,0.8,0.2,1.2c0,1-0.4,1.9-1.1,2.5
				s-1.7,0.9-2.9,0.9c-0.3,0-0.6,0-0.9-0.1c-0.7,0.4-1,0.8-1,1.4c0,0.3,0.1,0.5,0.4,0.6c0.2,0.1,0.7,0.2,1.2,0.2h1.9
				c1.2,0,2,0.2,2.7,0.7s0.9,1.2,0.9,2.1c0,1.2-0.5,2.1-1.4,2.7c-0.9,0.6-2.3,0.9-4.2,0.9c-1.4,0-2.5-0.3-3.2-0.8
				c-0.8-0.5-1.1-1.3-1.1-2.2c0-0.7,0.2-1.2,0.6-1.7c0.4-0.5,1-0.8,1.8-1c-0.3-0.1-0.5-0.3-0.7-0.6c-0.2-0.3-0.3-0.6-0.3-0.9
				c0-0.4,0.1-0.7,0.3-1s0.5-0.6,1-0.8c-0.6-0.2-1-0.6-1.3-1.2s-0.5-1.2-0.5-1.9c0-1.2,0.4-2.1,1.1-2.7c0.7-0.6,1.7-1,3-1
				c0.6,0,1.1,0.1,1.5,0.2H366.3z M357.8,606.4c0,0.6,0.2,1,0.7,1.3c0.5,0.3,1.2,0.4,2.1,0.4c1.4,0,2.4-0.2,3-0.6c0.7-0.4,1-1,1-1.7
				c0-0.6-0.2-1-0.5-1.2s-1-0.3-2-0.3h-1.9c-0.7,0-1.3,0.2-1.7,0.5S357.8,605.8,357.8,606.4z M358.7,597.4c0,0.7,0.2,1.3,0.6,1.7
				c0.4,0.4,1,0.6,1.8,0.6c1.6,0,2.4-0.8,2.4-2.3c0-1.6-0.8-2.4-2.4-2.4c-0.8,0-1.3,0.2-1.8,0.6C358.9,596,358.7,596.6,358.7,597.4z
				"/>
			<path fill="#221F1F" d="M375.8,604.6v-6.9c0-0.9-0.2-1.5-0.6-2s-1-0.6-1.9-0.6c-1.1,0-1.9,0.3-2.5,0.9c-0.5,0.6-0.8,1.6-0.8,3
				v5.6h-1.6v-15.2h1.6v4.6c0,0.6,0,1-0.1,1.4h0.1c0.3-0.5,0.8-0.9,1.4-1.2c0.6-0.3,1.3-0.4,2-0.4c1.3,0,2.3,0.3,2.9,0.9
				c0.7,0.6,1,1.6,1,3v7H375.8z"/>
			<path fill="#221F1F" d="M384.2,603.5c0.3,0,0.6,0,0.8-0.1c0.3,0,0.5-0.1,0.6-0.1v1.2c-0.2,0.1-0.4,0.2-0.8,0.2
				c-0.3,0.1-0.6,0.1-0.9,0.1c-2.1,0-3.1-1.1-3.1-3.3v-6.4h-1.5v-0.8l1.5-0.7l0.7-2.3h0.9v2.5h3.1v1.3h-3.1v6.3
				c0,0.6,0.2,1.1,0.5,1.5C383.3,603.3,383.7,603.5,384.2,603.5z"/>
			<path fill="#221F1F" d="M394.7,601.7c0,1-0.4,1.8-1.1,2.3c-0.7,0.5-1.8,0.8-3.1,0.8c-1.4,0-2.5-0.2-3.3-0.7v-1.5
				c0.5,0.3,1.1,0.5,1.7,0.6c0.6,0.1,1.2,0.2,1.7,0.2c0.8,0,1.5-0.1,1.9-0.4c0.5-0.3,0.7-0.7,0.7-1.2c0-0.4-0.2-0.8-0.5-1.1
				c-0.4-0.3-1.1-0.6-2.1-1c-1-0.4-1.7-0.7-2.1-1c-0.4-0.3-0.7-0.6-0.9-0.9s-0.3-0.8-0.3-1.3c0-0.9,0.4-1.6,1.1-2.1
				c0.7-0.5,1.7-0.8,2.9-0.8c1.2,0,2.3,0.2,3.4,0.7l-0.6,1.3c-1.1-0.4-2-0.7-2.9-0.7c-0.8,0-1.3,0.1-1.7,0.4c-0.4,0.2-0.6,0.6-0.6,1
				c0,0.3,0.1,0.5,0.2,0.7c0.1,0.2,0.4,0.4,0.7,0.6c0.3,0.2,0.9,0.4,1.9,0.8c1.3,0.5,2.1,0.9,2.6,1.4
				C394.5,600.4,394.7,601,394.7,601.7z"/>
			<path fill="#221F1F" d="M409.1,604.6l-0.3-1.5h-0.1c-0.5,0.7-1.1,1.1-1.6,1.4c-0.5,0.2-1.2,0.4-2,0.4c-1.1,0-1.9-0.3-2.5-0.8
				c-0.6-0.5-0.9-1.3-0.9-2.3c0-2.2,1.7-3.3,5.2-3.4l1.8-0.1v-0.7c0-0.8-0.2-1.5-0.5-1.9c-0.4-0.4-0.9-0.6-1.7-0.6
				c-0.9,0-1.9,0.3-3,0.8l-0.5-1.2c0.5-0.3,1.1-0.5,1.7-0.7c0.6-0.2,1.3-0.2,1.9-0.2c1.3,0,2.2,0.3,2.8,0.8c0.6,0.6,0.9,1.5,0.9,2.7
				v7.3H409.1z M405.4,603.5c1,0,1.8-0.3,2.4-0.8c0.6-0.6,0.9-1.3,0.9-2.3v-1l-1.6,0.1c-1.3,0-2.2,0.2-2.8,0.6
				c-0.6,0.4-0.9,0.9-0.9,1.7c0,0.6,0.2,1,0.5,1.3C404.3,603.3,404.8,603.5,405.4,603.5z"/>
			<path fill="#221F1F" d="M420.9,604.6v-6.9c0-0.9-0.2-1.5-0.6-2s-1-0.6-1.9-0.6c-1.1,0-1.9,0.3-2.5,0.9c-0.5,0.6-0.8,1.6-0.8,3
				v5.6h-1.6v-10.7h1.3l0.3,1.5h0.1c0.3-0.5,0.8-0.9,1.4-1.2c0.6-0.3,1.3-0.4,2-0.4c1.3,0,2.3,0.3,2.9,0.9c0.6,0.6,1,1.6,1,3v7
				H420.9z"/>
			<path fill="#221F1F" d="M433.2,603.2L433.2,603.2c-0.8,1.1-2,1.6-3.4,1.6c-1.4,0-2.5-0.5-3.3-1.4s-1.2-2.3-1.2-4.1
				c0-1.8,0.4-3.1,1.2-4.1s1.9-1.5,3.3-1.5c1.4,0,2.6,0.5,3.3,1.6h0.1l-0.1-0.8l0-0.8v-4.4h1.6v15.2h-1.3L433.2,603.2z M429.9,603.5
				c1.1,0,1.9-0.3,2.4-0.9c0.5-0.6,0.7-1.6,0.7-2.9v-0.3c0-1.5-0.3-2.6-0.8-3.2c-0.5-0.6-1.3-1-2.4-1c-0.9,0-1.7,0.4-2.2,1.1
				c-0.5,0.7-0.8,1.8-0.8,3.1c0,1.4,0.2,2.4,0.8,3.1C428.2,603.1,428.9,603.5,429.9,603.5z"/>
			<path fill="#221F1F" d="M66.2,628.6l-0.3-1.5h-0.1c-0.5,0.7-1.1,1.1-1.6,1.4c-0.5,0.2-1.2,0.4-2,0.4c-1.1,0-1.9-0.3-2.5-0.8
				c-0.6-0.5-0.9-1.3-0.9-2.3c0-2.2,1.7-3.3,5.2-3.4l1.8-0.1v-0.7c0-0.8-0.2-1.5-0.5-1.9c-0.4-0.4-0.9-0.6-1.7-0.6
				c-0.9,0-1.9,0.3-3,0.8l-0.5-1.2c0.5-0.3,1.1-0.5,1.7-0.7c0.6-0.2,1.3-0.2,1.9-0.2c1.3,0,2.2,0.3,2.8,0.8c0.6,0.6,0.9,1.5,0.9,2.7
				v7.3H66.2z M62.5,627.5c1,0,1.8-0.3,2.4-0.8c0.6-0.6,0.9-1.3,0.9-2.3v-1l-1.6,0.1c-1.3,0-2.2,0.2-2.8,0.6
				c-0.6,0.4-0.9,0.9-0.9,1.7c0,0.6,0.2,1,0.5,1.3C61.4,627.3,61.9,627.5,62.5,627.5z"/>
			<path fill="#221F1F" d="M75,628.8c-1.5,0-2.7-0.5-3.6-1.4c-0.8-1-1.3-2.3-1.3-4c0-1.8,0.4-3.2,1.3-4.2c0.9-1,2.1-1.5,3.7-1.5
				c0.5,0,1,0.1,1.5,0.2c0.5,0.1,0.9,0.2,1.2,0.4l-0.5,1.4c-0.4-0.1-0.7-0.3-1.2-0.4c-0.4-0.1-0.8-0.1-1.1-0.1
				c-2.2,0-3.3,1.4-3.3,4.2c0,1.3,0.3,2.3,0.8,3c0.5,0.7,1.3,1.1,2.4,1.1c0.9,0,1.8-0.2,2.7-0.6v1.4C76.9,628.7,76,628.8,75,628.8z"
				/>
			<path fill="#221F1F" d="M84.5,628.8c-1.5,0-2.7-0.5-3.6-1.4c-0.8-1-1.3-2.3-1.3-4c0-1.8,0.4-3.2,1.3-4.2s2.1-1.5,3.7-1.5
				c0.5,0,1,0.1,1.5,0.2c0.5,0.1,0.9,0.2,1.2,0.4l-0.5,1.4c-0.4-0.1-0.7-0.3-1.2-0.4c-0.4-0.1-0.8-0.1-1.1-0.1
				c-2.2,0-3.3,1.4-3.3,4.2c0,1.3,0.3,2.3,0.8,3s1.3,1.1,2.4,1.1c0.9,0,1.8-0.2,2.7-0.6v1.4C86.5,628.7,85.6,628.8,84.5,628.8z"/>
			<path fill="#221F1F" d="M94.2,628.8c-1.6,0-2.8-0.5-3.7-1.4c-0.9-1-1.4-2.3-1.4-4c0-1.7,0.4-3.1,1.3-4.1s2-1.5,3.4-1.5
				c1.3,0,2.4,0.4,3.2,1.3c0.8,0.9,1.2,2,1.2,3.5v1h-7.4c0,1.3,0.3,2.2,1,2.9c0.6,0.7,1.4,1,2.5,1c1.1,0,2.3-0.2,3.4-0.7v1.4
				c-0.6,0.2-1.1,0.4-1.6,0.5C95.5,628.8,94.9,628.8,94.2,628.8z M93.8,619.1c-0.9,0-1.5,0.3-2.1,0.8c-0.5,0.6-0.8,1.3-0.9,2.3h5.6
				c0-1-0.2-1.8-0.7-2.3C95.3,619.4,94.6,619.1,93.8,619.1z"/>
			<path fill="#221F1F" d="M107.8,625.7c0,1-0.4,1.8-1.1,2.3c-0.7,0.5-1.8,0.8-3.1,0.8c-1.4,0-2.5-0.2-3.3-0.7v-1.5
				c0.5,0.3,1.1,0.5,1.7,0.6c0.6,0.1,1.2,0.2,1.7,0.2c0.8,0,1.5-0.1,1.9-0.4c0.5-0.3,0.7-0.7,0.7-1.2c0-0.4-0.2-0.8-0.5-1.1
				c-0.4-0.3-1.1-0.6-2.1-1c-1-0.4-1.7-0.7-2.1-1c-0.4-0.3-0.7-0.6-0.9-0.9c-0.2-0.4-0.3-0.8-0.3-1.3c0-0.9,0.4-1.6,1.1-2.1
				c0.7-0.5,1.7-0.8,2.9-0.8c1.2,0,2.3,0.2,3.4,0.7l-0.6,1.3c-1.1-0.4-2-0.7-2.9-0.7c-0.8,0-1.3,0.1-1.7,0.4c-0.4,0.2-0.6,0.6-0.6,1
				c0,0.3,0.1,0.5,0.2,0.7c0.1,0.2,0.4,0.4,0.7,0.6c0.3,0.2,0.9,0.4,1.9,0.8c1.3,0.5,2.1,0.9,2.6,1.4S107.8,625,107.8,625.7z"/>
			<path fill="#221F1F" d="M117.3,625.7c0,1-0.4,1.8-1.1,2.3c-0.7,0.5-1.8,0.8-3.1,0.8c-1.4,0-2.5-0.2-3.3-0.7v-1.5
				c0.5,0.3,1.1,0.5,1.7,0.6c0.6,0.1,1.2,0.2,1.7,0.2c0.8,0,1.5-0.1,1.9-0.4c0.5-0.3,0.7-0.7,0.7-1.2c0-0.4-0.2-0.8-0.5-1.1
				c-0.4-0.3-1.1-0.6-2.1-1c-1-0.4-1.7-0.7-2.1-1c-0.4-0.3-0.7-0.6-0.9-0.9s-0.3-0.8-0.3-1.3c0-0.9,0.4-1.6,1.1-2.1
				c0.7-0.5,1.7-0.8,2.9-0.8c1.2,0,2.3,0.2,3.4,0.7l-0.6,1.3c-1.1-0.4-2-0.7-2.9-0.7c-0.8,0-1.3,0.1-1.7,0.4c-0.4,0.2-0.6,0.6-0.6,1
				c0,0.3,0.1,0.5,0.2,0.7c0.1,0.2,0.4,0.4,0.7,0.6c0.3,0.2,0.9,0.4,1.9,0.8c1.3,0.5,2.1,0.9,2.6,1.4
				C117.1,624.4,117.3,625,117.3,625.7z"/>
			<path fill="#221F1F" d="M129.2,623.3c0,1.7-0.4,3.1-1.3,4.1c-0.9,1-2.1,1.5-3.6,1.5c-1,0-1.8-0.2-2.5-0.7
				c-0.7-0.4-1.3-1.1-1.7-1.9c-0.4-0.8-0.6-1.8-0.6-2.9c0-1.7,0.4-3.1,1.3-4.1c0.9-1,2.1-1.5,3.6-1.5c1.5,0,2.7,0.5,3.6,1.5
				C128.7,620.2,129.2,621.6,129.2,623.3z M121,623.3c0,1.4,0.3,2.4,0.8,3.1c0.5,0.7,1.3,1.1,2.4,1.1c1.1,0,1.9-0.4,2.4-1.1
				s0.8-1.8,0.8-3.1c0-1.4-0.3-2.4-0.8-3.1c-0.5-0.7-1.4-1.1-2.4-1.1c-1.1,0-1.9,0.3-2.4,1C121.3,620.9,121,621.9,121,623.3z"/>
			<path fill="#221F1F" d="M136.9,617.7c0.5,0,0.9,0,1.3,0.1l-0.2,1.5c-0.4-0.1-0.8-0.1-1.2-0.1c-0.9,0-1.6,0.4-2.2,1.1
				c-0.6,0.7-0.9,1.6-0.9,2.6v5.7H132v-10.7h1.3l0.2,2h0.1c0.4-0.7,0.9-1.2,1.4-1.6C135.6,617.9,136.2,617.7,136.9,617.7z"/>
			<path fill="#221F1F" d="M140,615c0-0.4,0.1-0.6,0.3-0.8c0.2-0.2,0.4-0.3,0.7-0.3c0.3,0,0.5,0.1,0.7,0.3c0.2,0.2,0.3,0.4,0.3,0.8
				c0,0.4-0.1,0.6-0.3,0.8c-0.2,0.2-0.4,0.3-0.7,0.3c-0.3,0-0.5-0.1-0.7-0.3C140.1,615.7,140,615.4,140,615z M141.8,628.6h-1.6
				v-10.7h1.6V628.6z"/>
			<path fill="#221F1F" d="M149.7,628.8c-1.6,0-2.8-0.5-3.7-1.4c-0.9-1-1.4-2.3-1.4-4c0-1.7,0.4-3.1,1.3-4.1s2-1.5,3.4-1.5
				c1.3,0,2.4,0.4,3.2,1.3c0.8,0.9,1.2,2,1.2,3.5v1h-7.4c0,1.3,0.3,2.2,1,2.9c0.6,0.7,1.4,1,2.5,1c1.2,0,2.3-0.2,3.4-0.7v1.4
				c-0.6,0.2-1.1,0.4-1.6,0.5C151,628.8,150.4,628.8,149.7,628.8z M149.3,619.1c-0.9,0-1.5,0.3-2.1,0.8c-0.5,0.6-0.8,1.3-0.9,2.3
				h5.6c0-1-0.2-1.8-0.7-2.3C150.8,619.4,150.1,619.1,149.3,619.1z"/>
			<path fill="#221F1F" d="M163.3,625.7c0,1-0.4,1.8-1.1,2.3c-0.7,0.5-1.8,0.8-3.1,0.8c-1.4,0-2.5-0.2-3.3-0.7v-1.5
				c0.5,0.3,1.1,0.5,1.7,0.6c0.6,0.1,1.2,0.2,1.7,0.2c0.8,0,1.5-0.1,1.9-0.4c0.5-0.3,0.7-0.7,0.7-1.2c0-0.4-0.2-0.8-0.5-1.1
				c-0.4-0.3-1.1-0.6-2.1-1c-1-0.4-1.7-0.7-2.1-1c-0.4-0.3-0.7-0.6-0.9-0.9c-0.2-0.4-0.3-0.8-0.3-1.3c0-0.9,0.4-1.6,1.1-2.1
				c0.7-0.5,1.7-0.8,2.9-0.8c1.2,0,2.3,0.2,3.4,0.7l-0.6,1.3c-1.1-0.4-2-0.7-2.9-0.7c-0.8,0-1.3,0.1-1.7,0.4c-0.4,0.2-0.6,0.6-0.6,1
				c0,0.3,0.1,0.5,0.2,0.7c0.1,0.2,0.4,0.4,0.7,0.6c0.3,0.2,0.9,0.4,1.9,0.8c1.3,0.5,2.1,0.9,2.6,1.4S163.3,625,163.3,625.7z"/>
			<path fill="#221F1F" d="M175.9,619.2h-2.7v9.4h-1.6v-9.4h-1.9v-0.7l1.9-0.6v-0.6c0-2.6,1.1-3.9,3.4-3.9c0.6,0,1.2,0.1,2,0.3
				l-0.4,1.3c-0.6-0.2-1.2-0.3-1.6-0.3c-0.6,0-1.1,0.2-1.4,0.6c-0.3,0.4-0.4,1.1-0.4,2v0.7h2.7V619.2z"/>
			<path fill="#221F1F" d="M187.1,623.3c0,1.7-0.4,3.1-1.3,4.1c-0.9,1-2.1,1.5-3.6,1.5c-1,0-1.8-0.2-2.5-0.7s-1.3-1.1-1.7-1.9
				s-0.6-1.8-0.6-2.9c0-1.7,0.4-3.1,1.3-4.1c0.9-1,2.1-1.5,3.6-1.5c1.5,0,2.7,0.5,3.6,1.5C186.7,620.2,187.1,621.6,187.1,623.3z
				 M179,623.3c0,1.4,0.3,2.4,0.8,3.1c0.5,0.7,1.3,1.1,2.4,1.1s1.9-0.4,2.4-1.1c0.5-0.7,0.8-1.8,0.8-3.1c0-1.4-0.3-2.4-0.8-3.1
				c-0.5-0.7-1.4-1.1-2.4-1.1c-1.1,0-1.9,0.3-2.4,1C179.2,620.9,179,621.9,179,623.3z"/>
			<path fill="#221F1F" d="M194.8,617.7c0.5,0,0.9,0,1.3,0.1l-0.2,1.5c-0.4-0.1-0.8-0.1-1.2-0.1c-0.9,0-1.6,0.4-2.2,1.1
				c-0.6,0.7-0.9,1.6-0.9,2.6v5.7h-1.6v-10.7h1.3l0.2,2h0.1c0.4-0.7,0.9-1.2,1.4-1.6C193.5,617.9,194.1,617.7,194.8,617.7z"/>
			<path fill="#221F1F" d="M206.7,627.5c0.3,0,0.6,0,0.8-0.1c0.3,0,0.5-0.1,0.6-0.1v1.2c-0.2,0.1-0.4,0.2-0.8,0.2
				c-0.3,0.1-0.6,0.1-0.9,0.1c-2.1,0-3.1-1.1-3.1-3.3v-6.4h-1.5v-0.8l1.5-0.7l0.7-2.3h0.9v2.5h3.1v1.3H205v6.3
				c0,0.6,0.2,1.1,0.5,1.5C205.8,627.3,206.2,627.5,206.7,627.5z"/>
			<path fill="#221F1F" d="M217.6,628.6v-6.9c0-0.9-0.2-1.5-0.6-2s-1-0.6-1.9-0.6c-1.1,0-1.9,0.3-2.5,0.9c-0.5,0.6-0.8,1.6-0.8,3
				v5.6h-1.6v-15.2h1.6v4.6c0,0.6,0,1-0.1,1.4h0.1c0.3-0.5,0.8-0.9,1.4-1.2c0.6-0.3,1.3-0.4,2-0.4c1.3,0,2.3,0.3,2.9,0.9
				c0.7,0.6,1,1.6,1,3v7H217.6z"/>
			<path fill="#221F1F" d="M227.1,628.8c-1.6,0-2.8-0.5-3.7-1.4c-0.9-1-1.4-2.3-1.4-4c0-1.7,0.4-3.1,1.3-4.1s2-1.5,3.4-1.5
				c1.3,0,2.4,0.4,3.2,1.3c0.8,0.9,1.2,2,1.2,3.5v1h-7.4c0,1.3,0.3,2.2,1,2.9c0.6,0.7,1.4,1,2.5,1c1.2,0,2.3-0.2,3.4-0.7v1.4
				c-0.6,0.2-1.1,0.4-1.6,0.5C228.4,628.8,227.8,628.8,227.1,628.8z M226.6,619.1c-0.9,0-1.5,0.3-2.1,0.8c-0.5,0.6-0.8,1.3-0.9,2.3
				h5.6c0-1-0.2-1.8-0.7-2.3C228.1,619.4,227.5,619.1,226.6,619.1z"/>
			<path fill="#221F1F" d="M243.2,628.8c-1.5,0-2.7-0.5-3.6-1.4c-0.8-1-1.3-2.3-1.3-4c0-1.8,0.4-3.2,1.3-4.2s2.1-1.5,3.7-1.5
				c0.5,0,1,0.1,1.5,0.2c0.5,0.1,0.9,0.2,1.2,0.4l-0.5,1.4c-0.4-0.1-0.7-0.3-1.2-0.4c-0.4-0.1-0.8-0.1-1.1-0.1
				c-2.2,0-3.3,1.4-3.3,4.2c0,1.3,0.3,2.3,0.8,3s1.3,1.1,2.4,1.1c0.9,0,1.8-0.2,2.7-0.6v1.4C245.2,628.7,244.3,628.8,243.2,628.8z"
				/>
			<path fill="#221F1F" d="M246.8,617.9h1.7l2.3,6.1c0.5,1.4,0.8,2.4,1,3h0.1c0.1-0.3,0.3-0.9,0.5-1.7c0.3-0.8,1.2-3.3,2.6-7.4h1.7
				l-4.6,12.2c-0.5,1.2-1,2.1-1.6,2.6c-0.6,0.5-1.4,0.8-2.2,0.8c-0.5,0-1-0.1-1.5-0.2V632c0.4,0.1,0.8,0.1,1.2,0.1
				c1.1,0,1.9-0.6,2.4-1.9l0.6-1.5L246.8,617.9z"/>
			<path fill="#221F1F" d="M262.8,628.8c-1.5,0-2.7-0.5-3.6-1.4c-0.8-1-1.3-2.3-1.3-4c0-1.8,0.4-3.2,1.3-4.2s2.1-1.5,3.7-1.5
				c0.5,0,1,0.1,1.5,0.2c0.5,0.1,0.9,0.2,1.2,0.4l-0.5,1.4c-0.4-0.1-0.7-0.3-1.2-0.4c-0.4-0.1-0.8-0.1-1.1-0.1
				c-2.2,0-3.3,1.4-3.3,4.2c0,1.3,0.3,2.3,0.8,3s1.3,1.1,2.4,1.1c0.9,0,1.8-0.2,2.7-0.6v1.4C264.8,628.7,263.9,628.8,262.8,628.8z"
				/>
			<path fill="#221F1F" d="M269.6,628.6H268v-15.2h1.6V628.6z"/>
			<path fill="#221F1F" d="M272.9,615c0-0.4,0.1-0.6,0.3-0.8c0.2-0.2,0.4-0.3,0.7-0.3c0.3,0,0.5,0.1,0.7,0.3
				c0.2,0.2,0.3,0.4,0.3,0.8c0,0.4-0.1,0.6-0.3,0.8c-0.2,0.2-0.4,0.3-0.7,0.3c-0.3,0-0.5-0.1-0.7-0.3
				C273,615.7,272.9,615.4,272.9,615z M274.7,628.6h-1.6v-10.7h1.6V628.6z"/>
			<path fill="#221F1F" d="M285.4,628.6v-6.9c0-0.9-0.2-1.5-0.6-2s-1-0.6-1.9-0.6c-1.1,0-1.9,0.3-2.5,0.9s-0.8,1.6-0.8,3v5.6h-1.6
				v-10.7h1.3l0.3,1.5h0.1c0.3-0.5,0.8-0.9,1.4-1.2c0.6-0.3,1.3-0.4,2-0.4c1.3,0,2.3,0.3,2.9,0.9c0.6,0.6,1,1.6,1,3v7H285.4z"/>
			<path fill="#221F1F" d="M299.1,617.9v1l-2,0.2c0.2,0.2,0.3,0.5,0.5,0.9c0.1,0.4,0.2,0.8,0.2,1.2c0,1-0.4,1.9-1.1,2.5
				c-0.7,0.6-1.7,0.9-2.9,0.9c-0.3,0-0.6,0-0.9-0.1c-0.7,0.4-1,0.8-1,1.4c0,0.3,0.1,0.5,0.4,0.6c0.2,0.1,0.7,0.2,1.2,0.2h1.9
				c1.2,0,2,0.2,2.7,0.7c0.6,0.5,0.9,1.2,0.9,2.1c0,1.2-0.5,2.1-1.4,2.7c-0.9,0.6-2.3,0.9-4.2,0.9c-1.4,0-2.5-0.3-3.2-0.8
				c-0.8-0.5-1.1-1.3-1.1-2.2c0-0.7,0.2-1.2,0.6-1.7c0.4-0.5,1-0.8,1.8-1c-0.3-0.1-0.5-0.3-0.7-0.6c-0.2-0.3-0.3-0.6-0.3-0.9
				c0-0.4,0.1-0.7,0.3-1c0.2-0.3,0.5-0.6,1-0.8c-0.6-0.2-1-0.6-1.3-1.2s-0.5-1.2-0.5-1.9c0-1.2,0.4-2.1,1.1-2.7s1.7-1,3-1
				c0.6,0,1.1,0.1,1.5,0.2H299.1z M290.6,630.4c0,0.6,0.2,1,0.7,1.3c0.5,0.3,1.2,0.4,2.1,0.4c1.4,0,2.4-0.2,3-0.6c0.7-0.4,1-1,1-1.7
				c0-0.6-0.2-1-0.5-1.2s-1-0.3-2-0.3h-1.9c-0.7,0-1.3,0.2-1.7,0.5C290.8,629.3,290.6,629.8,290.6,630.4z M291.5,621.4
				c0,0.7,0.2,1.3,0.6,1.7c0.4,0.4,1,0.6,1.8,0.6c1.6,0,2.4-0.8,2.4-2.3c0-1.6-0.8-2.4-2.4-2.4c-0.8,0-1.3,0.2-1.8,0.6
				C291.7,620,291.5,620.6,291.5,621.4z"/>
			<path fill="#221F1F" d="M310.8,628.8c-1.5,0-2.7-0.5-3.6-1.4c-0.8-1-1.3-2.3-1.3-4c0-1.8,0.4-3.2,1.3-4.2c0.9-1,2.1-1.5,3.7-1.5
				c0.5,0,1,0.1,1.5,0.2c0.5,0.1,0.9,0.2,1.2,0.4l-0.5,1.4c-0.4-0.1-0.7-0.3-1.2-0.4c-0.4-0.1-0.8-0.1-1.1-0.1
				c-2.2,0-3.3,1.4-3.3,4.2c0,1.3,0.3,2.3,0.8,3s1.3,1.1,2.4,1.1c0.9,0,1.8-0.2,2.7-0.6v1.4C312.7,628.7,311.8,628.8,310.8,628.8z"
				/>
			<path fill="#221F1F" d="M325.2,623.3c0,1.7-0.4,3.1-1.3,4.1c-0.9,1-2.1,1.5-3.6,1.5c-1,0-1.8-0.2-2.5-0.7s-1.3-1.1-1.7-1.9
				s-0.6-1.8-0.6-2.9c0-1.7,0.4-3.1,1.3-4.1c0.9-1,2.1-1.5,3.6-1.5c1.5,0,2.7,0.5,3.6,1.5C324.8,620.2,325.2,621.6,325.2,623.3z
				 M317.1,623.3c0,1.4,0.3,2.4,0.8,3.1c0.5,0.7,1.3,1.1,2.4,1.1s1.9-0.4,2.4-1.1c0.5-0.7,0.8-1.8,0.8-3.1c0-1.4-0.3-2.4-0.8-3.1
				c-0.5-0.7-1.4-1.1-2.4-1.1c-1.1,0-1.9,0.3-2.4,1C317.3,620.9,317.1,621.9,317.1,623.3z"/>
			<path fill="#221F1F" d="M341.7,628.6v-7c0-0.9-0.2-1.5-0.5-1.9c-0.4-0.4-0.9-0.6-1.7-0.6c-1,0-1.8,0.3-2.2,0.9
				c-0.5,0.6-0.7,1.5-0.7,2.7v6h-1.6v-7c0-0.9-0.2-1.5-0.5-1.9c-0.4-0.4-0.9-0.6-1.7-0.6c-1,0-1.8,0.3-2.2,0.9
				c-0.5,0.6-0.7,1.6-0.7,3v5.6H328v-10.7h1.3l0.3,1.5h0.1c0.3-0.5,0.7-0.9,1.3-1.2s1.2-0.4,1.9-0.4c1.7,0,2.8,0.6,3.3,1.8h0.1
				c0.3-0.6,0.8-1,1.4-1.3c0.6-0.3,1.3-0.5,2.1-0.5c1.2,0,2.1,0.3,2.7,0.9c0.6,0.6,0.9,1.6,0.9,3v7H341.7z"/>
			<path fill="#221F1F" d="M360.2,628.6v-7c0-0.9-0.2-1.5-0.5-1.9c-0.4-0.4-0.9-0.6-1.7-0.6c-1,0-1.8,0.3-2.2,0.9
				c-0.5,0.6-0.7,1.5-0.7,2.7v6h-1.6v-7c0-0.9-0.2-1.5-0.5-1.9c-0.4-0.4-0.9-0.6-1.7-0.6c-1,0-1.8,0.3-2.2,0.9
				c-0.5,0.6-0.7,1.6-0.7,3v5.6h-1.6v-10.7h1.3l0.3,1.5h0.1c0.3-0.5,0.7-0.9,1.3-1.2s1.2-0.4,1.9-0.4c1.7,0,2.8,0.6,3.3,1.8h0.1
				c0.3-0.6,0.8-1,1.4-1.3c0.6-0.3,1.3-0.5,2.1-0.5c1.2,0,2.1,0.3,2.7,0.9c0.6,0.6,0.9,1.6,0.9,3v7H360.2z"/>
			<path fill="#221F1F" d="M366.7,617.9v6.9c0,0.9,0.2,1.5,0.6,2s1,0.6,1.9,0.6c1.1,0,1.9-0.3,2.5-0.9c0.5-0.6,0.8-1.6,0.8-3v-5.6
				h1.6v10.7h-1.3l-0.2-1.4h-0.1c-0.3,0.5-0.8,0.9-1.4,1.2c-0.6,0.3-1.3,0.4-2,0.4c-1.3,0-2.3-0.3-2.9-0.9c-0.6-0.6-1-1.6-1-3v-7
				H366.7z"/>
			<path fill="#221F1F" d="M384.7,628.6v-6.9c0-0.9-0.2-1.5-0.6-2s-1-0.6-1.9-0.6c-1.1,0-1.9,0.3-2.5,0.9c-0.5,0.6-0.8,1.6-0.8,3
				v5.6h-1.6v-10.7h1.3l0.3,1.5h0.1c0.3-0.5,0.8-0.9,1.4-1.2c0.6-0.3,1.3-0.4,2-0.4c1.3,0,2.3,0.3,2.9,0.9c0.6,0.6,1,1.6,1,3v7
				H384.7z"/>
			<path fill="#221F1F" d="M389.6,615c0-0.4,0.1-0.6,0.3-0.8c0.2-0.2,0.4-0.3,0.7-0.3c0.3,0,0.5,0.1,0.7,0.3
				c0.2,0.2,0.3,0.4,0.3,0.8c0,0.4-0.1,0.6-0.3,0.8c-0.2,0.2-0.4,0.3-0.7,0.3c-0.3,0-0.5-0.1-0.7-0.3
				C389.6,615.7,389.6,615.4,389.6,615z M391.3,628.6h-1.6v-10.7h1.6V628.6z"/>
			<path fill="#221F1F" d="M398.2,627.5c0.3,0,0.6,0,0.8-0.1c0.3,0,0.5-0.1,0.6-0.1v1.2c-0.2,0.1-0.4,0.2-0.8,0.2
				c-0.3,0.1-0.6,0.1-0.9,0.1c-2.1,0-3.1-1.1-3.1-3.3v-6.4h-1.5v-0.8l1.5-0.7l0.7-2.3h0.9v2.5h3.1v1.3h-3.1v6.3
				c0,0.6,0.2,1.1,0.5,1.5C397.2,627.3,397.7,627.5,398.2,627.5z"/>
			<path fill="#221F1F" d="M400.1,617.9h1.7l2.3,6.1c0.5,1.4,0.8,2.4,1,3h0.1c0.1-0.3,0.3-0.9,0.5-1.7c0.3-0.8,1.2-3.3,2.6-7.4h1.7
				l-4.6,12.2c-0.5,1.2-1,2.1-1.6,2.6c-0.6,0.5-1.4,0.8-2.2,0.8c-0.5,0-1-0.1-1.5-0.2V632c0.4,0.1,0.8,0.1,1.2,0.1
				c1.1,0,1.9-0.6,2.4-1.9l0.6-1.5L400.1,617.9z"/>
			<path fill="#221F1F" d="M411.6,627.6c0-0.4,0.1-0.8,0.3-1c0.2-0.2,0.5-0.3,0.9-0.3c0.4,0,0.7,0.1,0.9,0.3c0.2,0.2,0.3,0.6,0.3,1
				c0,0.4-0.1,0.7-0.3,1c-0.2,0.2-0.5,0.3-0.9,0.3c-0.3,0-0.6-0.1-0.8-0.3C411.7,628.4,411.6,628.1,411.6,627.6z"/>
		</g>
		<g>
			<path fill="#221F1F" d="M71.4,337.5c0.4,0,0.7,0.1,0.9,0.4c0.3,0.3,0.4,0.6,0.4,0.9c0,0.4-0.1,0.7-0.4,0.9
				c-0.3,0.3-0.6,0.4-0.9,0.4H58.6c-0.4,0-0.7-0.1-0.9-0.4c-0.2-0.3-0.4-0.6-0.4-0.9c0-0.4,0.1-0.7,0.4-0.9l10.9-12.1
				c1-1,1.5-2.2,1.5-3.6c0-1.4-0.5-2.6-1.5-3.6c-1-1-2.2-1.5-3.6-1.5c-1.4,0-2.6,0.5-3.6,1.5c-1,1-1.5,2.2-1.5,3.6
				c0,0.4-0.1,0.7-0.4,0.9c-0.2,0.3-0.6,0.4-0.9,0.4c-0.4,0-0.7-0.1-0.9-0.4c-0.2-0.3-0.4-0.6-0.4-0.9c0-2.1,0.7-3.9,2.2-5.4
				c1.5-1.5,3.3-2.3,5.4-2.3c2.1,0,3.9,0.8,5.4,2.3c1.5,1.5,2.2,3.3,2.2,5.4c0,2.1-0.8,3.9-2.3,5.5l-8.9,9.9H71.4z"/>
			<path fill="#221F1F" d="M75.3,327.2c0-5.1,1.1-8.8,3.2-11c1.2-1.3,2.8-1.9,4.5-1.9s3.3,0.6,4.5,1.9c2.1,2.2,3.2,5.8,3.2,11
				s-1.1,8.8-3.2,11c-1.2,1.3-2.8,1.9-4.5,1.9s-3.3-0.6-4.5-1.9C76.3,336,75.3,332.3,75.3,327.2z M83,316.9c-1.1,0-2,0.4-2.7,1.1
				c-1.6,1.8-2.4,4.8-2.4,9.1c0,4.3,0.8,7.3,2.4,9.1c0.8,0.8,1.7,1.1,2.7,1.1s2-0.4,2.7-1.1c1.6-1.8,2.4-4.8,2.4-9.1
				c0-4.3-0.8-7.3-2.4-9.1C84.9,317.3,84,316.9,83,316.9z"/>
			<path fill="#221F1F" d="M93.2,327.2c0-5.1,1.1-8.8,3.2-11c1.2-1.3,2.8-1.9,4.5-1.9s3.3,0.6,4.5,1.9c2.1,2.2,3.2,5.8,3.2,11
				s-1.1,8.8-3.2,11c-1.2,1.3-2.8,1.9-4.5,1.9s-3.3-0.6-4.5-1.9C94.3,336,93.2,332.3,93.2,327.2z M100.9,316.9c-1.1,0-2,0.4-2.7,1.1
				c-1.6,1.8-2.4,4.8-2.4,9.1c0,4.3,0.8,7.3,2.4,9.1c0.8,0.8,1.7,1.1,2.7,1.1s2-0.4,2.7-1.1c1.6-1.8,2.4-4.8,2.4-9.1
				c0-4.3-0.8-7.3-2.4-9.1C102.9,317.3,102,316.9,100.9,316.9z"/>
			<path fill="#221F1F" d="M118.8,327.2c-0.4,0-0.7-0.1-0.9-0.4c-0.3-0.3-0.4-0.6-0.4-0.9c0-0.4,0.1-0.7,0.4-0.9
				c0.2-0.3,0.6-0.4,0.9-0.4c1.1,0,2-0.4,2.7-1.1s1.1-1.7,1.1-2.7s-0.4-2-1.1-2.7s-1.7-1.1-2.7-1.1s-2,0.4-2.7,1.1s-1.1,1.7-1.1,2.7
				c0,0.4-0.1,0.7-0.4,0.9c-0.3,0.3-0.6,0.4-0.9,0.4c-0.4,0-0.7-0.1-0.9-0.4c-0.3-0.3-0.4-0.6-0.4-0.9c0-1.8,0.6-3.3,1.9-4.5
				c1.2-1.3,2.8-1.9,4.5-1.9s3.3,0.6,4.5,1.9c1.2,1.3,1.9,2.8,1.9,4.5c0,1.9-0.8,3.5-2.4,5c0.5,0.3,1,0.7,1.4,1.1
				c1.5,1.5,2.2,3.3,2.2,5.5s-0.8,3.9-2.2,5.4c-1.5,1.5-3.3,2.3-5.4,2.3c-2.1,0-3.9-0.8-5.4-2.3c-1.5-1.5-2.2-3.3-2.2-5.4
				c0-0.4,0.1-0.7,0.4-0.9c0.3-0.3,0.6-0.4,0.9-0.4c0.4,0,0.7,0.1,0.9,0.4c0.3,0.3,0.4,0.6,0.4,0.9c0,1.4,0.5,2.6,1.5,3.6
				s2.2,1.5,3.6,1.5c1.4,0,2.6-0.5,3.6-1.5s1.5-2.2,1.5-3.6s-0.5-2.6-1.5-3.6S120.2,327.2,118.8,327.2z"/>
		</g>
		<g>
			<path fill="#C34E2A" d="M168.3,312.1c0.7,0,1.3,0.1,1.9,0.4c0.6,0.3,1.1,0.6,1.6,1.1s0.8,1,1.1,1.6s0.4,1.3,0.4,1.9
				c0,1.2-0.4,2.3-1.1,3.2c0.5,0.3,0.9,0.6,1.3,1c0.4,0.4,0.7,0.8,0.9,1.2c0.3,0.4,0.4,0.9,0.6,1.4c0.1,0.5,0.2,1,0.2,1.5
				c0,0.8-0.2,1.6-0.5,2.3c-0.3,0.7-0.7,1.4-1.3,1.9c-0.5,0.5-1.2,1-1.9,1.3s-1.5,0.5-2.3,0.5h-4.7c-0.2,0-0.3,0-0.5-0.1
				c-0.2-0.1-0.3-0.2-0.4-0.3s-0.2-0.2-0.3-0.4s-0.1-0.3-0.1-0.5v-16.8c0-0.2,0-0.3,0.1-0.5s0.2-0.3,0.3-0.4
				c0.1-0.1,0.3-0.2,0.4-0.3s0.3-0.1,0.5-0.1H168.3z M165.9,314.7v4.9h2.4c0.3,0,0.7-0.1,0.9-0.2c0.3-0.1,0.6-0.3,0.8-0.5
				c0.2-0.2,0.4-0.5,0.5-0.8s0.2-0.6,0.2-0.9c0-0.3-0.1-0.6-0.2-0.9s-0.3-0.6-0.5-0.8c-0.2-0.2-0.5-0.4-0.8-0.5
				c-0.3-0.1-0.6-0.2-0.9-0.2H165.9z M165.9,322.1v6.8h3.4c0.5,0,0.9-0.1,1.3-0.3c0.4-0.2,0.8-0.4,1.1-0.7c0.3-0.3,0.5-0.7,0.7-1.1
				s0.3-0.8,0.3-1.3c0-0.5-0.1-0.9-0.3-1.3s-0.4-0.8-0.7-1.1c-0.3-0.3-0.7-0.5-1.1-0.7c-0.4-0.2-0.8-0.3-1.3-0.3H165.9z"/>
			<path fill="#C34E2A" d="M176.8,330.2v-16.8c0-0.4,0.1-0.7,0.4-0.9c0.2-0.2,0.5-0.4,0.9-0.4s0.7,0.1,0.9,0.4
				c0.2,0.2,0.4,0.5,0.4,0.9v15.5h0.6c0.3,0,0.6,0.1,0.9,0.4c0.2,0.2,0.4,0.5,0.4,0.9c0,0.3-0.1,0.6-0.4,0.9
				c-0.2,0.2-0.5,0.4-0.9,0.4H178c-0.3,0-0.6-0.1-0.9-0.4C176.9,330.8,176.8,330.5,176.8,330.2z"/>
			<path fill="#C34E2A" d="M186.1,315.5c0,0.4-0.1,0.8-0.4,1.1c-0.3,0.3-0.6,0.4-1,0.4s-0.8-0.1-1.1-0.4c-0.3-0.3-0.4-0.6-0.4-1.1
				s0.1-0.8,0.4-1.1c0.3-0.3,0.6-0.4,1.1-0.4s0.8,0.1,1,0.4C186,314.7,186.1,315.1,186.1,315.5z M183.4,330.2v-11
				c0-0.4,0.1-0.7,0.4-0.9c0.2-0.2,0.5-0.4,0.9-0.4s0.6,0.1,0.9,0.4c0.2,0.2,0.4,0.5,0.4,0.9v11c0,0.4-0.1,0.7-0.4,0.9
				c-0.2,0.2-0.5,0.4-0.9,0.4s-0.6-0.1-0.9-0.4C183.5,330.8,183.4,330.5,183.4,330.2z"/>
			<path fill="#C34E2A" d="M191,319.2c1.1-0.8,2.3-1.2,3.8-1.2c0.8,0,1.6,0.2,2.4,0.5c0.8,0.3,1.4,0.8,2,1.3c0.6,0.6,1,1.2,1.4,2
				s0.5,1.6,0.5,2.5v6c0,0.4-0.1,0.7-0.4,0.9c-0.2,0.2-0.5,0.4-0.9,0.4c-0.4,0-0.7-0.1-0.9-0.4c-0.2-0.2-0.4-0.5-0.4-0.9v-6
				c0-0.5-0.1-1-0.3-1.5c-0.2-0.5-0.5-0.9-0.8-1.2s-0.7-0.6-1.2-0.8c-0.5-0.2-0.9-0.3-1.5-0.3c-0.5,0-1,0.1-1.5,0.3
				s-0.9,0.5-1.2,0.8s-0.6,0.7-0.8,1.2c-0.2,0.5-0.3,0.9-0.3,1.5v6c0,0.4-0.1,0.7-0.4,0.9c-0.2,0.2-0.5,0.4-0.9,0.4
				c-0.4,0-0.7-0.1-0.9-0.4c-0.2-0.2-0.4-0.5-0.4-0.9v-11c0-0.3,0.1-0.6,0.4-0.9c0.2-0.2,0.5-0.4,0.9-0.4c0.3,0,0.6,0.1,0.9,0.4
				S191,318.8,191,319.2z"/>
			<path fill="#C34E2A" d="M209.7,317.9c1.6,0,3,0.5,4.2,1.5v-6c0-0.4,0.1-0.7,0.4-0.9c0.2-0.2,0.5-0.4,0.9-0.4
				c0.4,0,0.7,0.1,0.9,0.4c0.2,0.2,0.4,0.5,0.4,0.9v11.3c0,1.9-0.7,3.5-2,4.8c-1.3,1.3-2.9,2-4.8,2c-1.9,0-3.5-0.7-4.8-2
				c-1.3-1.3-2-2.9-2-4.8s0.7-3.5,2-4.8C206.3,318.6,207.9,317.9,209.7,317.9z M214,324.7c0-0.6-0.1-1.1-0.3-1.6
				c-0.2-0.5-0.5-1-0.9-1.3c-0.4-0.4-0.8-0.7-1.3-0.9c-0.5-0.2-1.1-0.3-1.7-0.3c-0.6,0-1.2,0.1-1.7,0.3c-0.5,0.2-1,0.5-1.3,0.9
				c-0.4,0.4-0.7,0.8-0.9,1.3c-0.2,0.5-0.3,1.1-0.3,1.6s0.1,1.1,0.3,1.6c0.2,0.5,0.5,1,0.9,1.3c0.4,0.4,0.8,0.7,1.3,0.9
				c0.5,0.2,1.1,0.3,1.7,0.3c0.6,0,1.1-0.1,1.7-0.3c0.5-0.2,1-0.5,1.3-0.9c0.4-0.4,0.7-0.8,0.9-1.3C213.9,325.8,214,325.3,214,324.7
				z"/>
			<path fill="#C34E2A" d="M228.7,327.6c0.4,0,0.7,0.1,0.9,0.4c0.2,0.2,0.4,0.5,0.4,0.9c0,0.4-0.1,0.7-0.4,0.9
				c-1.2,1.1-2.7,1.6-4.4,1.6c-1.9,0-3.5-0.7-4.8-2c-1.3-1.3-2-2.9-2-4.8s0.7-3.5,2-4.8c1.3-1.3,2.9-2,4.8-2c1.9,0,3.4,0.7,4.8,2
				c0.7,0.7,1.2,1.4,1.5,2.2s0.5,1.7,0.5,2.6c0,0.4-0.1,0.7-0.4,0.9c-0.2,0.2-0.5,0.4-0.9,0.4h-9.6c0.1,0.4,0.3,0.8,0.6,1.2
				c0.3,0.4,0.6,0.7,0.9,0.9c0.4,0.3,0.8,0.5,1.2,0.6c0.4,0.1,0.9,0.2,1.3,0.2c0.5,0,1-0.1,1.5-0.2c0.4-0.2,0.9-0.4,1.2-0.7
				C228.1,327.8,228.4,327.7,228.7,327.6z M229.3,323.4c-0.1-0.4-0.3-0.8-0.6-1.2c-0.3-0.4-0.6-0.7-0.9-0.9
				c-0.4-0.3-0.8-0.5-1.2-0.6c-0.4-0.1-0.9-0.2-1.3-0.2s-0.9,0.1-1.3,0.2c-0.4,0.1-0.8,0.3-1.2,0.6c-0.4,0.3-0.7,0.6-0.9,0.9
				c-0.3,0.4-0.5,0.8-0.6,1.2H229.3z"/>
			<path fill="#C34E2A" d="M236.4,319.2v0.2c0.6-0.5,1.3-0.9,2-1.1c0.7-0.3,1.5-0.4,2.3-0.4c0.4,0,0.7,0,1.1,0.1
				c0.4,0,0.8,0.1,1.1,0.3s0.6,0.3,0.9,0.5c0.2,0.2,0.3,0.5,0.3,0.8c0,0.2,0,0.3-0.1,0.5s-0.2,0.3-0.3,0.4c-0.1,0.1-0.2,0.2-0.4,0.3
				c-0.2,0.1-0.3,0.1-0.5,0.1c-0.2,0-0.3,0-0.5-0.1c-0.5-0.2-1.1-0.3-1.7-0.3c-0.6,0-1.1,0.1-1.7,0.3c-0.5,0.2-1,0.5-1.3,0.9
				c-0.4,0.4-0.7,0.8-0.9,1.3s-0.3,1.1-0.3,1.7v5.5c0,0.3-0.1,0.6-0.4,0.9c-0.2,0.2-0.5,0.4-0.9,0.4c-0.4,0-0.7-0.1-0.9-0.4
				c-0.2-0.2-0.4-0.5-0.4-0.9v-11c0-0.3,0.1-0.6,0.4-0.9c0.2-0.2,0.5-0.4,0.9-0.4c0.3,0,0.6,0.1,0.9,0.4
				C236.2,318.5,236.4,318.8,236.4,319.2z"/>
			<path fill="#C34E2A" d="M257.6,312.1c0.7,0,1.3,0.1,1.9,0.4c0.6,0.3,1.1,0.6,1.6,1.1s0.8,1,1.1,1.6s0.4,1.3,0.4,1.9
				c0,1.2-0.4,2.3-1.1,3.2c0.5,0.3,0.9,0.6,1.3,1c0.4,0.4,0.7,0.8,0.9,1.2c0.3,0.4,0.4,0.9,0.6,1.4c0.1,0.5,0.2,1,0.2,1.5
				c0,0.8-0.2,1.6-0.5,2.3c-0.3,0.7-0.7,1.4-1.3,1.9c-0.5,0.5-1.2,1-1.9,1.3s-1.5,0.5-2.3,0.5h-4.7c-0.2,0-0.3,0-0.5-0.1
				c-0.2-0.1-0.3-0.2-0.4-0.3s-0.2-0.2-0.3-0.4s-0.1-0.3-0.1-0.5v-16.8c0-0.2,0-0.3,0.1-0.5s0.2-0.3,0.3-0.4
				c0.1-0.1,0.3-0.2,0.4-0.3s0.3-0.1,0.5-0.1H257.6z M255.2,314.7v4.9h2.4c0.3,0,0.7-0.1,0.9-0.2c0.3-0.1,0.6-0.3,0.8-0.5
				c0.2-0.2,0.4-0.5,0.5-0.8s0.2-0.6,0.2-0.9c0-0.3-0.1-0.6-0.2-0.9s-0.3-0.6-0.5-0.8c-0.2-0.2-0.5-0.4-0.8-0.5
				c-0.3-0.1-0.6-0.2-0.9-0.2H255.2z M255.2,322.1v6.8h3.4c0.5,0,0.9-0.1,1.3-0.3c0.4-0.2,0.8-0.4,1.1-0.7c0.3-0.3,0.5-0.7,0.7-1.1
				s0.3-0.8,0.3-1.3c0-0.5-0.1-0.9-0.3-1.3s-0.4-0.8-0.7-1.1c-0.3-0.3-0.7-0.5-1.1-0.7c-0.4-0.2-0.8-0.3-1.3-0.3H255.2z"/>
			<path fill="#C34E2A" d="M269.6,315.5c0,0.4-0.1,0.8-0.4,1.1c-0.3,0.3-0.6,0.4-1.1,0.4s-0.8-0.1-1-0.4c-0.3-0.3-0.4-0.6-0.4-1.1
				s0.1-0.8,0.4-1.1c0.3-0.3,0.6-0.4,1-0.4s0.8,0.1,1.1,0.4C269.5,314.7,269.6,315.1,269.6,315.5z M266.9,330.2v-11
				c0-0.4,0.1-0.7,0.4-0.9c0.2-0.2,0.5-0.4,0.9-0.4s0.6,0.1,0.9,0.4s0.4,0.5,0.4,0.9v11c0,0.4-0.1,0.7-0.4,0.9
				c-0.2,0.2-0.5,0.4-0.9,0.4s-0.6-0.1-0.9-0.4C267,330.8,266.9,330.5,266.9,330.2z"/>
			<path fill="#C34E2A" d="M282.3,327.6c0.4,0,0.7,0.1,0.9,0.4c0.2,0.2,0.4,0.5,0.4,0.9c0,0.4-0.1,0.7-0.4,0.9
				c-1.2,1.1-2.7,1.6-4.4,1.6c-1.9,0-3.5-0.7-4.8-2c-1.3-1.3-2-2.9-2-4.8s0.7-3.5,2-4.8c1.3-1.3,2.9-2,4.8-2c1.7,0,3.2,0.5,4.4,1.6
				c0.3,0.3,0.4,0.6,0.4,1c0,0.4-0.1,0.7-0.4,0.9c-0.2,0.2-0.5,0.4-0.9,0.4c-0.3,0-0.6-0.1-0.8-0.3c-0.4-0.3-0.8-0.6-1.3-0.8
				c-0.5-0.2-0.9-0.3-1.5-0.3c-0.6,0-1.1,0.1-1.7,0.3c-0.5,0.2-1,0.5-1.4,0.9c-0.4,0.4-0.7,0.8-0.9,1.3c-0.2,0.5-0.3,1.1-0.3,1.7
				c0,0.6,0.1,1.1,0.3,1.7c0.2,0.5,0.5,1,0.9,1.3c0.4,0.4,0.8,0.7,1.4,0.9c0.5,0.2,1.1,0.3,1.7,0.3c0.5,0,1-0.1,1.5-0.3
				c0.5-0.2,0.9-0.4,1.3-0.8C281.7,327.7,282,327.6,282.3,327.6z"/>
			<path fill="#C34E2A" d="M290,330.2l-4.3-10.5c-0.1-0.2-0.1-0.4-0.1-0.6c0-0.2,0-0.3,0.1-0.5c0.1-0.2,0.2-0.3,0.3-0.4
				s0.2-0.2,0.4-0.3c0.2-0.1,0.3-0.1,0.5-0.1c0.2,0,0.5,0.1,0.7,0.2s0.4,0.3,0.5,0.6l3.4,8.1l3.4-8.1c0.1-0.2,0.2-0.4,0.4-0.6
				c0.2-0.1,0.4-0.2,0.8-0.2c0.2,0,0.3,0,0.5,0.1c0.2,0.1,0.3,0.2,0.4,0.3c0.1,0.1,0.2,0.3,0.3,0.4c0.1,0.2,0.1,0.3,0.1,0.5
				c0,0.2,0,0.4-0.1,0.6l-6.9,16.7c-0.1,0.2-0.3,0.5-0.5,0.6c-0.2,0.2-0.5,0.2-0.7,0.2c-0.4,0-0.7-0.1-0.9-0.4
				c-0.2-0.2-0.4-0.5-0.4-0.9c0-0.2,0-0.4,0.1-0.6L290,330.2z"/>
			<path fill="#C34E2A" d="M309.3,327.6c0.4,0,0.7,0.1,0.9,0.4c0.2,0.2,0.4,0.5,0.4,0.9c0,0.4-0.1,0.7-0.4,0.9
				c-1.2,1.1-2.7,1.6-4.4,1.6c-1.9,0-3.5-0.7-4.8-2c-1.3-1.3-2-2.9-2-4.8s0.7-3.5,2-4.8c1.3-1.3,2.9-2,4.8-2c1.7,0,3.2,0.5,4.4,1.6
				c0.3,0.3,0.4,0.6,0.4,1c0,0.4-0.1,0.7-0.4,0.9c-0.2,0.2-0.5,0.4-0.9,0.4c-0.3,0-0.6-0.1-0.8-0.3c-0.4-0.3-0.8-0.6-1.3-0.8
				c-0.5-0.2-0.9-0.3-1.5-0.3c-0.6,0-1.1,0.1-1.7,0.3s-1,0.5-1.4,0.9s-0.7,0.8-0.9,1.3s-0.3,1.1-0.3,1.7c0,0.6,0.1,1.1,0.3,1.7
				s0.5,1,0.9,1.3c0.4,0.4,0.8,0.7,1.4,0.9s1.1,0.3,1.7,0.3c0.5,0,1-0.1,1.5-0.3c0.4-0.2,0.9-0.4,1.3-0.8
				C308.8,327.7,309,327.6,309.3,327.6z"/>
			<path fill="#C34E2A" d="M312.4,330.2v-16.8c0-0.4,0.1-0.7,0.4-0.9c0.2-0.2,0.5-0.4,0.9-0.4s0.7,0.1,0.9,0.4
				c0.2,0.2,0.4,0.5,0.4,0.9v15.5h0.6c0.3,0,0.6,0.1,0.9,0.4c0.2,0.2,0.4,0.5,0.4,0.9c0,0.3-0.1,0.6-0.4,0.9
				c-0.2,0.2-0.5,0.4-0.9,0.4h-1.8c-0.3,0-0.6-0.1-0.9-0.4C312.6,330.8,312.4,330.5,312.4,330.2z"/>
			<path fill="#C34E2A" d="M328.6,327.6c0.4,0,0.7,0.1,0.9,0.4c0.2,0.2,0.4,0.5,0.4,0.9c0,0.4-0.1,0.7-0.4,0.9
				c-1.2,1.1-2.7,1.6-4.4,1.6c-1.9,0-3.5-0.7-4.8-2c-1.3-1.3-2-2.9-2-4.8s0.7-3.5,2-4.8c1.3-1.3,2.9-2,4.8-2c1.9,0,3.4,0.7,4.8,2
				c0.7,0.7,1.2,1.4,1.5,2.2s0.5,1.7,0.5,2.6c0,0.4-0.1,0.7-0.4,0.9c-0.2,0.2-0.5,0.4-0.9,0.4H321c0.1,0.4,0.3,0.8,0.6,1.2
				c0.3,0.4,0.6,0.7,0.9,0.9c0.4,0.3,0.8,0.5,1.2,0.6c0.4,0.1,0.9,0.2,1.3,0.2c0.5,0,1-0.1,1.5-0.2c0.4-0.2,0.9-0.4,1.2-0.7
				C328,327.8,328.3,327.7,328.6,327.6z M329.2,323.4c-0.1-0.4-0.3-0.8-0.6-1.2c-0.3-0.4-0.6-0.7-0.9-0.9c-0.4-0.3-0.8-0.5-1.2-0.6
				c-0.4-0.1-0.9-0.2-1.3-0.2s-0.9,0.1-1.3,0.2c-0.4,0.1-0.8,0.3-1.2,0.6c-0.4,0.3-0.7,0.6-0.9,0.9c-0.3,0.4-0.5,0.8-0.6,1.2H329.2z
				"/>
			<path fill="#C34E2A" d="M341,313.4c0-0.4,0.1-0.7,0.4-0.9c0.2-0.2,0.6-0.4,0.9-0.4s0.7,0.1,0.9,0.4s0.4,0.6,0.4,0.9v15.5h9
				c0.4,0,0.7,0.1,0.9,0.4s0.4,0.6,0.4,0.9c0,0.4-0.1,0.7-0.4,0.9s-0.6,0.4-0.9,0.4h-10.2c-0.2,0-0.4,0-0.5-0.1s-0.3-0.2-0.4-0.3
				c-0.1-0.1-0.2-0.3-0.3-0.4c-0.1-0.2-0.1-0.3-0.1-0.5V313.4z"/>
			<path fill="#C34E2A" d="M358.9,315.5c0,0.4-0.1,0.8-0.4,1.1c-0.3,0.3-0.6,0.4-1.1,0.4s-0.8-0.1-1-0.4c-0.3-0.3-0.4-0.6-0.4-1.1
				s0.1-0.8,0.4-1.1c0.3-0.3,0.6-0.4,1-0.4s0.8,0.1,1.1,0.4C358.8,314.7,358.9,315.1,358.9,315.5z M356.2,330.2v-11
				c0-0.4,0.1-0.7,0.4-0.9c0.2-0.2,0.5-0.4,0.9-0.4s0.6,0.1,0.9,0.4s0.4,0.5,0.4,0.9v11c0,0.4-0.1,0.7-0.4,0.9
				c-0.2,0.2-0.5,0.4-0.9,0.4s-0.6-0.1-0.9-0.4C356.3,330.8,356.2,330.5,356.2,330.2z"/>
			<path fill="#C34E2A" d="M372.3,330c-1.2,1-2.6,1.5-4.2,1.5c-1.9,0-3.5-0.7-4.8-2c-1.3-1.3-2-2.9-2-4.8s0.7-3.5,2-4.8
				c1.3-1.3,2.9-2,4.8-2c1.9,0,3.4,0.7,4.8,2c1.3,1.3,2,2.9,2,4.8v6.7c0,0.6-0.1,1.1-0.3,1.6c-0.2,0.5-0.4,1-0.7,1.4
				c-0.3,0.4-0.7,0.8-1.1,1.2c-0.4,0.3-0.9,0.6-1.4,0.9c-0.5,0.2-1,0.4-1.5,0.5c-0.5,0.1-1.1,0.2-1.6,0.2c-0.6,0-1.3-0.1-1.9-0.2
				c-0.6-0.2-1.2-0.4-1.8-0.7c-0.6-0.3-1.1-0.7-1.5-1.2s-0.9-1-1.2-1.6c-0.1-0.2-0.2-0.4-0.2-0.7c0-0.4,0.1-0.7,0.4-0.9
				c0.2-0.2,0.5-0.4,0.9-0.4c0.2,0,0.4,0.1,0.6,0.2s0.4,0.4,0.6,0.8s0.5,0.7,0.7,0.9c0.9,0.9,2,1.4,3.3,1.4c1.3,0,2.4-0.5,3.3-1.4
				c0.6-0.7,0.8-1.3,0.8-2V330z M368.1,320.4c-0.6,0-1.2,0.1-1.7,0.3c-0.5,0.2-1,0.5-1.3,0.9c-0.4,0.4-0.7,0.8-0.9,1.3
				c-0.2,0.5-0.3,1.1-0.3,1.6s0.1,1.1,0.3,1.6c0.2,0.5,0.5,1,0.9,1.3c0.4,0.4,0.8,0.7,1.3,0.9c0.5,0.2,1.1,0.3,1.7,0.3
				c0.6,0,1.1-0.1,1.7-0.3c0.5-0.2,1-0.5,1.3-0.9c0.4-0.4,0.7-0.8,0.9-1.3c0.2-0.5,0.3-1.1,0.3-1.6s-0.1-1.1-0.3-1.6
				c-0.2-0.5-0.5-1-0.9-1.3c-0.4-0.4-0.8-0.7-1.3-0.9C369.2,320.6,368.7,320.4,368.1,320.4z"/>
			<path fill="#C34E2A" d="M379.3,330.2c0,0.4-0.1,0.7-0.4,0.9c-0.2,0.2-0.5,0.4-0.9,0.4c-0.3,0-0.6-0.1-0.9-0.4
				c-0.2-0.2-0.4-0.5-0.4-0.9v-16.8c0-0.4,0.1-0.7,0.4-0.9c0.2-0.2,0.5-0.4,0.9-0.4s0.6,0.1,0.9,0.4c0.2,0.2,0.4,0.5,0.4,0.9v5.8
				c1.1-0.8,2.3-1.2,3.8-1.2c0.8,0,1.6,0.2,2.4,0.5c0.8,0.3,1.4,0.8,2,1.3c0.6,0.6,1,1.2,1.4,2s0.5,1.6,0.5,2.5v5.9
				c0,0.4-0.1,0.7-0.4,0.9c-0.2,0.2-0.5,0.4-0.9,0.4c-0.3,0-0.6-0.1-0.9-0.4c-0.2-0.2-0.4-0.5-0.4-0.9v-5.9c0-0.5-0.1-1-0.3-1.5
				c-0.2-0.5-0.5-0.9-0.8-1.2c-0.3-0.3-0.7-0.6-1.2-0.8s-0.9-0.3-1.5-0.3c-0.5,0-1,0.1-1.5,0.3c-0.5,0.2-0.9,0.5-1.2,0.8
				c-0.3,0.3-0.6,0.8-0.8,1.2c-0.2,0.5-0.3,0.9-0.3,1.5V330.2z"/>
			<path fill="#C34E2A" d="M392.4,317.9h0.6v-4.5c0-0.3,0.1-0.6,0.4-0.9c0.2-0.2,0.5-0.4,0.9-0.4c0.3,0,0.6,0.1,0.9,0.4
				c0.2,0.2,0.4,0.5,0.4,0.9v4.5h1.5c0.3,0,0.6,0.1,0.9,0.4c0.2,0.2,0.4,0.5,0.4,0.9c0,0.4-0.1,0.7-0.4,0.9
				c-0.2,0.2-0.5,0.4-0.9,0.4h-1.5v6.1c0,1.6,0.8,2.4,2.4,2.4c0.3,0,0.6,0.1,0.9,0.4c0.2,0.2,0.4,0.5,0.4,0.9c0,0.4-0.1,0.7-0.4,0.9
				c-0.2,0.2-0.5,0.4-0.9,0.4c-3.3,0-4.9-1.6-4.9-4.9v-6.1h-0.6c-0.3,0-0.6-0.1-0.9-0.4s-0.4-0.5-0.4-0.9c0-0.3,0.1-0.6,0.4-0.9
				S392.1,317.9,392.4,317.9z"/>
			<path fill="#C34E2A" d="M163.3,339.1c0-0.4,0.1-0.7,0.4-0.9c0.2-0.2,0.6-0.4,0.9-0.4s0.7,0.1,0.9,0.4s0.4,0.6,0.4,0.9v7.2l8-8
				c0.3-0.3,0.6-0.4,0.9-0.4c0.2,0,0.3,0,0.5,0.1c0.2,0.1,0.3,0.2,0.4,0.3c0.1,0.1,0.2,0.3,0.3,0.4c0.1,0.2,0.1,0.3,0.1,0.5
				c0,0.4-0.1,0.7-0.4,0.9l-6.3,6.3l6.5,8.8c0.2,0.2,0.2,0.5,0.2,0.7c0,0.2,0,0.3-0.1,0.5c-0.1,0.2-0.2,0.3-0.3,0.4
				c-0.1,0.1-0.2,0.2-0.4,0.3c-0.2,0.1-0.3,0.1-0.5,0.1c-0.5,0-0.8-0.2-1.1-0.5l-6.2-8.4l-1.7,1.7v6c0,0.4-0.1,0.7-0.4,0.9
				c-0.2,0.2-0.6,0.4-0.9,0.4s-0.7-0.1-0.9-0.4c-0.2-0.2-0.4-0.6-0.4-0.9V339.1z"/>
			<path fill="#C34E2A" d="M180.4,344.9c1.1-0.8,2.3-1.2,3.8-1.2c0.8,0,1.6,0.2,2.4,0.5c0.8,0.3,1.4,0.8,2,1.3c0.6,0.6,1,1.2,1.4,2
				s0.5,1.6,0.5,2.5v6c0,0.4-0.1,0.7-0.4,0.9s-0.5,0.4-0.9,0.4c-0.4,0-0.7-0.1-0.9-0.4c-0.2-0.2-0.4-0.5-0.4-0.9v-6
				c0-0.5-0.1-1-0.3-1.5c-0.2-0.5-0.5-0.9-0.8-1.2c-0.3-0.3-0.7-0.6-1.2-0.8c-0.5-0.2-0.9-0.3-1.5-0.3c-0.5,0-1,0.1-1.5,0.3
				c-0.5,0.2-0.9,0.5-1.2,0.8c-0.3,0.3-0.6,0.8-0.8,1.2c-0.2,0.5-0.3,0.9-0.3,1.5v6c0,0.4-0.1,0.7-0.4,0.9c-0.2,0.2-0.5,0.4-0.9,0.4
				c-0.4,0-0.7-0.1-0.9-0.4c-0.2-0.2-0.4-0.5-0.4-0.9v-11c0-0.3,0.1-0.6,0.4-0.9c0.2-0.2,0.5-0.4,0.9-0.4c0.3,0,0.6,0.1,0.9,0.4
				C180.3,344.3,180.4,344.6,180.4,344.9z"/>
			<path fill="#C34E2A" d="M205.9,350.4c0,1.9-0.7,3.5-2,4.8c-1.3,1.3-2.9,2-4.8,2c-1.9,0-3.5-0.7-4.8-2s-2-2.9-2-4.8
				c0-1.9,0.7-3.5,2-4.8c1.3-1.3,2.9-2,4.8-2c1.9,0,3.4,0.7,4.8,2c0.7,0.7,1.2,1.4,1.5,2.2S205.9,349.5,205.9,350.4z M199.1,346.2
				c-0.6,0-1.2,0.1-1.7,0.3c-0.5,0.2-1,0.5-1.3,0.9c-0.4,0.4-0.7,0.8-0.9,1.3c-0.2,0.5-0.3,1.1-0.3,1.6c0,0.6,0.1,1.1,0.3,1.6
				c0.2,0.5,0.5,1,0.9,1.3c0.4,0.4,0.8,0.7,1.3,0.9c0.5,0.2,1.1,0.3,1.7,0.3c0.6,0,1.1-0.1,1.7-0.3c0.5-0.2,1-0.5,1.3-0.9
				c0.4-0.4,0.7-0.8,0.9-1.3c0.2-0.5,0.3-1.1,0.3-1.6c0-0.6-0.1-1.1-0.3-1.6c-0.2-0.5-0.5-1-0.9-1.3c-0.4-0.4-0.8-0.7-1.3-0.9
				C200.3,346.3,199.7,346.2,199.1,346.2z"/>
			<path fill="#C34E2A" d="M218.8,355.7c-1.2,1-2.6,1.5-4.2,1.5c-1.9,0-3.5-0.7-4.8-2c-1.3-1.3-2-2.9-2-4.8c0-1.9,0.7-3.5,2-4.8
				c1.3-1.3,2.9-2,4.8-2c1.8,0,3.4,0.7,4.8,2c1.3,1.3,2,2.9,2,4.8v6.7c0,0.6-0.1,1.1-0.3,1.6c-0.2,0.5-0.4,1-0.7,1.4
				c-0.3,0.4-0.7,0.8-1.1,1.2c-0.4,0.3-0.9,0.6-1.4,0.9c-0.5,0.2-1,0.4-1.6,0.6c-0.5,0.1-1.1,0.2-1.6,0.2c-0.6,0-1.3-0.1-1.9-0.2
				c-0.6-0.2-1.2-0.4-1.8-0.7c-0.6-0.3-1.1-0.7-1.5-1.2c-0.5-0.5-0.9-1-1.2-1.6c-0.1-0.2-0.2-0.4-0.2-0.7c0-0.4,0.1-0.7,0.4-0.9
				c0.2-0.2,0.5-0.4,0.9-0.4c0.2,0,0.4,0.1,0.6,0.2c0.2,0.1,0.4,0.4,0.6,0.7s0.5,0.7,0.7,0.9c0.9,0.9,2,1.4,3.3,1.4
				c1.3,0,2.4-0.5,3.3-1.4c0.6-0.7,0.8-1.3,0.8-2V355.7z M214.6,346.2c-0.6,0-1.2,0.1-1.7,0.3c-0.5,0.2-1,0.5-1.3,0.9
				c-0.4,0.4-0.7,0.8-0.9,1.3c-0.2,0.5-0.3,1.1-0.3,1.6c0,0.6,0.1,1.1,0.3,1.6c0.2,0.5,0.5,1,0.9,1.3s0.8,0.7,1.3,0.9
				c0.5,0.2,1.1,0.3,1.7,0.3c0.6,0,1.1-0.1,1.7-0.3c0.5-0.2,1-0.5,1.3-0.9c0.4-0.4,0.7-0.8,0.9-1.3s0.3-1.1,0.3-1.6
				c0-0.6-0.1-1.1-0.3-1.6s-0.5-1-0.9-1.3c-0.4-0.4-0.8-0.7-1.3-0.9C215.7,346.3,215.2,346.2,214.6,346.2z"/>
			<path fill="#221F1F" d="M174.7,392.8c0.1,0,0.3,0,0.4,0.1c0.1,0.1,0.2,0.1,0.3,0.2c0.1,0.1,0.2,0.2,0.2,0.3
				c0.1,0.1,0.1,0.3,0.1,0.4c0,0.3-0.1,0.5-0.3,0.7c-1.4,1.1-3,1.7-4.7,1.7c-2.1,0-3.9-0.7-5.3-2.2s-2.2-3.2-2.2-5.3
				c0-2.1,0.7-3.9,2.2-5.3c1.5-1.5,3.2-2.2,5.3-2.2c1.8,0,3.4,0.6,4.8,1.8c0.2,0.2,0.3,0.4,0.3,0.7c0,0.1,0,0.3-0.1,0.4
				c0,0.1-0.1,0.2-0.2,0.3c-0.1,0.1-0.2,0.2-0.3,0.2c-0.1,0-0.3,0.1-0.4,0.1c-0.2,0-0.5-0.1-0.7-0.3c-0.5-0.4-1-0.7-1.6-0.9
				c-0.6-0.2-1.2-0.3-1.8-0.3c-1.5,0-2.8,0.5-3.9,1.6c-1.1,1.1-1.6,2.4-1.6,3.9c0,1.5,0.5,2.8,1.6,3.9c1.1,1.1,2.4,1.6,3.9,1.6
				c1.3,0,2.5-0.4,3.5-1.2C174.3,392.9,174.5,392.8,174.7,392.8z"/>
			<path fill="#221F1F" d="M185.7,395.2V395c-0.5,0.4-1,0.7-1.5,0.9c-0.6,0.2-1.1,0.3-1.8,0.3c-1.5,0-2.7-0.5-3.7-1.5
				c-1-1-1.5-2.3-1.5-3.7s0.5-2.7,1.5-3.7c1-1,2.3-1.5,3.7-1.5c1.4,0,2.7,0.5,3.7,1.5c1,1,1.5,2.3,1.5,3.7v4.3
				c0,0.3-0.1,0.5-0.3,0.7s-0.4,0.3-0.7,0.3c-0.3,0-0.5-0.1-0.7-0.3S185.7,395.5,185.7,395.2z M182.4,387.6c-0.5,0-0.9,0.1-1.3,0.3
				c-0.4,0.2-0.7,0.4-1,0.7c-0.3,0.3-0.5,0.6-0.7,1c-0.2,0.4-0.3,0.8-0.3,1.3s0.1,0.9,0.3,1.3c0.2,0.4,0.4,0.8,0.7,1.1
				c0.3,0.3,0.6,0.5,1,0.7c0.4,0.2,0.8,0.3,1.3,0.3c0.5,0,0.9-0.1,1.3-0.3c0.4-0.2,0.8-0.4,1-0.7c0.3-0.3,0.5-0.7,0.7-1.1
				c0.2-0.4,0.3-0.8,0.3-1.3s-0.1-0.9-0.3-1.3c-0.2-0.4-0.4-0.7-0.7-1c-0.3-0.3-0.6-0.5-1-0.7C183.3,387.7,182.8,387.6,182.4,387.6z
				"/>
			<path fill="#221F1F" d="M190.1,385.6h0.4v-3.5c0-0.3,0.1-0.5,0.3-0.7c0.2-0.2,0.4-0.3,0.7-0.3c0.3,0,0.5,0.1,0.7,0.3
				c0.2,0.2,0.3,0.4,0.3,0.7v3.5h1.2c0.3,0,0.5,0.1,0.7,0.3c0.2,0.2,0.3,0.4,0.3,0.7c0,0.3-0.1,0.5-0.3,0.7s-0.4,0.3-0.7,0.3h-1.2
				v4.7c0,1.2,0.6,1.9,1.9,1.9c0.3,0,0.5,0.1,0.7,0.3c0.2,0.2,0.3,0.4,0.3,0.7c0,0.3-0.1,0.5-0.3,0.7s-0.4,0.3-0.7,0.3
				c-2.6,0-3.8-1.3-3.8-3.8v-4.7h-0.4c-0.3,0-0.5-0.1-0.7-0.3c-0.2-0.2-0.3-0.4-0.3-0.7c0-0.3,0.1-0.5,0.3-0.7
				C189.6,385.7,189.8,385.6,190.1,385.6z"/>
			<path fill="#221F1F" d="M204.7,395.2V395c-0.5,0.4-1,0.7-1.5,0.9c-0.6,0.2-1.1,0.3-1.8,0.3c-1.5,0-2.7-0.5-3.7-1.5
				c-1-1-1.5-2.3-1.5-3.7s0.5-2.7,1.5-3.7c1-1,2.3-1.5,3.7-1.5c1.4,0,2.7,0.5,3.7,1.5c1,1,1.5,2.3,1.5,3.7v4.3
				c0,0.3-0.1,0.5-0.3,0.7s-0.4,0.3-0.7,0.3c-0.3,0-0.5-0.1-0.7-0.3S204.7,395.5,204.7,395.2z M201.4,387.6c-0.5,0-0.9,0.1-1.3,0.3
				s-0.7,0.4-1,0.7c-0.3,0.3-0.5,0.6-0.7,1c-0.2,0.4-0.3,0.8-0.3,1.3s0.1,0.9,0.3,1.3c0.2,0.4,0.4,0.8,0.7,1.1
				c0.3,0.3,0.6,0.5,1,0.7s0.8,0.3,1.3,0.3c0.5,0,0.9-0.1,1.3-0.3c0.4-0.2,0.8-0.4,1-0.7s0.5-0.7,0.7-1.1c0.2-0.4,0.3-0.8,0.3-1.3
				s-0.1-0.9-0.3-1.3c-0.2-0.4-0.4-0.7-0.7-1c-0.3-0.3-0.6-0.5-1-0.7C202.3,387.7,201.8,387.6,201.4,387.6z"/>
			<path fill="#221F1F" d="M208.1,395.2v-13.1c0-0.3,0.1-0.5,0.3-0.7c0.2-0.2,0.4-0.3,0.7-0.3s0.5,0.1,0.7,0.3
				c0.2,0.2,0.3,0.4,0.3,0.7v12.1h0.5c0.3,0,0.5,0.1,0.7,0.3c0.2,0.2,0.3,0.4,0.3,0.7c0,0.3-0.1,0.5-0.3,0.7s-0.4,0.3-0.7,0.3H209
				c-0.3,0-0.5-0.1-0.7-0.3C208.1,395.7,208.1,395.5,208.1,395.2z"/>
			<path fill="#221F1F" d="M216.1,395.2l-3.4-8.1c-0.1-0.1-0.1-0.3-0.1-0.4c0-0.1,0-0.3,0.1-0.4s0.1-0.2,0.2-0.3
				c0.1-0.1,0.2-0.2,0.3-0.2c0.1-0.1,0.2-0.1,0.4-0.1c0.2,0,0.4,0.1,0.5,0.2c0.2,0.1,0.3,0.3,0.4,0.5l2.6,6.3l2.6-6.3
				c0.1-0.2,0.2-0.3,0.3-0.5c0.1-0.1,0.3-0.2,0.6-0.2c0.1,0,0.3,0,0.4,0.1c0.1,0,0.2,0.1,0.3,0.2c0.1,0.1,0.2,0.2,0.2,0.3
				s0.1,0.2,0.1,0.4c0,0.1,0,0.3-0.1,0.4l-5.4,13c-0.1,0.2-0.2,0.4-0.4,0.5c-0.2,0.1-0.4,0.2-0.6,0.2c-0.3,0-0.5-0.1-0.7-0.3
				c-0.2-0.2-0.3-0.4-0.3-0.7c0-0.2,0-0.3,0.1-0.4L216.1,395.2z"/>
			<path fill="#221F1F" d="M225.1,391.2c-0.6-0.2-1-0.5-1.2-0.7h0c-0.5-0.5-0.7-1.1-0.7-1.7c0-0.5,0.1-0.9,0.4-1.3
				c0.3-0.4,0.6-0.7,1-1c0.4-0.3,0.9-0.5,1.4-0.6s1-0.2,1.5-0.2c1.6,0,2.9,0.6,4,1.9c0.1,0.2,0.2,0.4,0.2,0.6c0,0.3-0.1,0.5-0.3,0.7
				c-0.2,0.2-0.4,0.3-0.7,0.3c-0.2,0-0.4-0.1-0.5-0.2c-0.1-0.1-0.3-0.2-0.4-0.4c-0.6-0.6-1.4-1-2.3-1c-0.9,0-1.6,0.3-2.2,0.8
				c-0.1,0.1-0.2,0.2-0.2,0.4s0.1,0.3,0.2,0.4l4.4,1.5c0.6,0.2,1,0.5,1.2,0.7h0c0.5,0.5,0.7,1.1,0.7,1.7c0,0.5-0.1,0.9-0.4,1.3
				s-0.6,0.7-1,1c-0.4,0.3-0.9,0.5-1.4,0.6c-0.5,0.1-1,0.2-1.5,0.2c-1.6,0-2.9-0.6-4-1.9c-0.1-0.2-0.2-0.4-0.2-0.6
				c0-0.3,0.1-0.5,0.3-0.7s0.4-0.3,0.7-0.3c0.2,0,0.4,0.1,0.5,0.2c0.1,0.1,0.3,0.2,0.4,0.4c0.6,0.6,1.4,1,2.3,1
				c0.9,0,1.6-0.3,2.2-0.8c0.1-0.1,0.1-0.2,0.1-0.4c0-0.2-0.1-0.3-0.3-0.4L225.1,391.2z"/>
			<path fill="#221F1F" d="M234.1,385.6h0.4v-3.5c0-0.3,0.1-0.5,0.3-0.7c0.2-0.2,0.4-0.3,0.7-0.3c0.3,0,0.5,0.1,0.7,0.3
				c0.2,0.2,0.3,0.4,0.3,0.7v3.5h1.2c0.3,0,0.5,0.1,0.7,0.3c0.2,0.2,0.3,0.4,0.3,0.7c0,0.3-0.1,0.5-0.3,0.7s-0.4,0.3-0.7,0.3h-1.2
				v4.7c0,1.2,0.6,1.9,1.9,1.9c0.3,0,0.5,0.1,0.7,0.3c0.2,0.2,0.3,0.4,0.3,0.7c0,0.3-0.1,0.5-0.3,0.7s-0.4,0.3-0.7,0.3
				c-2.6,0-3.8-1.3-3.8-3.8v-4.7h-0.4c-0.3,0-0.5-0.1-0.7-0.3s-0.3-0.4-0.3-0.7c0-0.3,0.1-0.5,0.3-0.7
				C233.6,385.7,233.8,385.6,234.1,385.6z"/>
			<path fill="#221F1F" d="M163.2,406.7c0-0.6,0.1-1.2,0.4-1.8s0.6-1,1-1.5c0.4-0.4,0.9-0.7,1.4-1c0.6-0.2,1.1-0.4,1.8-0.4
				c0.6,0,1.2,0.1,1.8,0.4s1,0.6,1.4,1c0.4,0.4,0.7,0.9,1,1.5c0.2,0.6,0.4,1.1,0.4,1.8c0,0.6-0.1,1.2-0.3,1.8s-0.6,1-1,1.5l-4.6,5.3
				h4.9c0.3,0,0.5,0.1,0.7,0.3c0.2,0.2,0.3,0.4,0.3,0.7c0,0.3-0.1,0.5-0.3,0.7c-0.2,0.2-0.4,0.3-0.7,0.3h-7.1c-0.1,0-0.3,0-0.4-0.1
				c-0.1,0-0.2-0.1-0.3-0.2c-0.1-0.1-0.2-0.2-0.2-0.3c-0.1-0.1-0.1-0.2-0.1-0.4c0-0.3,0.1-0.5,0.3-0.7l6.1-7
				c0.5-0.5,0.8-1.1,0.8-1.9c0-0.4-0.1-0.7-0.2-1c-0.1-0.3-0.3-0.6-0.6-0.8c-0.2-0.2-0.5-0.4-0.8-0.6c-0.3-0.1-0.6-0.2-1-0.2
				c-0.4,0-0.7,0.1-1,0.2c-0.3,0.1-0.6,0.3-0.8,0.6c-0.2,0.2-0.4,0.5-0.6,0.8c-0.1,0.3-0.2,0.7-0.2,1c0,0.3-0.1,0.5-0.3,0.7
				s-0.4,0.3-0.7,0.3c-0.3,0-0.5-0.1-0.7-0.3S163.2,407,163.2,406.7z"/>
			<path fill="#221F1F" d="M173.7,409.6c0-1.2,0.1-2.2,0.3-3.2s0.5-1.7,0.9-2.4s0.9-1.1,1.4-1.5c0.6-0.3,1.2-0.5,2-0.5
				s1.4,0.2,2,0.5c0.6,0.3,1.1,0.8,1.4,1.5c0.4,0.7,0.7,1.4,0.9,2.4c0.2,0.9,0.3,2,0.3,3.2c0,1.2-0.1,2.2-0.3,3.2
				c-0.2,0.9-0.5,1.7-0.9,2.4c-0.4,0.7-0.9,1.1-1.4,1.5c-0.6,0.3-1.2,0.5-2,0.5s-1.4-0.2-2-0.5c-0.6-0.3-1.1-0.8-1.4-1.5
				s-0.7-1.4-0.9-2.4S173.7,410.8,173.7,409.6z M178.3,404.1c-0.4,0-0.8,0.1-1.2,0.4c-0.3,0.3-0.6,0.7-0.8,1.2
				c-0.2,0.5-0.4,1.1-0.5,1.8c-0.1,0.7-0.2,1.4-0.2,2.2c0,0.8,0.1,1.5,0.2,2.2s0.3,1.3,0.5,1.8c0.2,0.5,0.5,0.9,0.8,1.1
				c0.3,0.3,0.7,0.4,1.1,0.4c0.4,0,0.8-0.1,1.2-0.4c0.3-0.3,0.6-0.7,0.8-1.2s0.4-1.1,0.5-1.8c0.1-0.7,0.2-1.4,0.2-2.2
				c0-0.8-0.1-1.5-0.2-2.2c-0.1-0.7-0.3-1.3-0.5-1.8s-0.5-0.9-0.8-1.2C179.1,404.2,178.7,404.1,178.3,404.1z"/>
			<path fill="#221F1F" d="M186.2,416.2v-11.7c-0.2,0.1-0.4,0.1-0.6,0.2c-0.2,0.1-0.4,0.1-0.6,0.1c-0.3,0-0.5-0.1-0.7-0.3
				c-0.2-0.2-0.3-0.4-0.3-0.7c0-0.2,0.1-0.4,0.2-0.5c0.1-0.2,0.3-0.3,0.5-0.4l2.2-0.7c0.1,0,0.2-0.1,0.3-0.1c0.3,0,0.5,0.1,0.7,0.3
				c0.2,0.2,0.3,0.4,0.3,0.7v13.1c0,0.3-0.1,0.5-0.3,0.7s-0.4,0.3-0.7,0.3c-0.3,0-0.5-0.1-0.7-0.3S186.2,416.5,186.2,416.2z"/>
			<path fill="#221F1F" d="M191.5,416.2v-11.7c-0.2,0.1-0.4,0.1-0.6,0.2c-0.2,0.1-0.4,0.1-0.6,0.1c-0.3,0-0.5-0.1-0.7-0.3
				c-0.2-0.2-0.3-0.4-0.3-0.7c0-0.2,0.1-0.4,0.2-0.5s0.3-0.3,0.5-0.4l2.2-0.7c0.1,0,0.2-0.1,0.3-0.1c0.3,0,0.5,0.1,0.7,0.3
				s0.3,0.4,0.3,0.7v13.1c0,0.3-0.1,0.5-0.3,0.7c-0.2,0.2-0.4,0.3-0.7,0.3c-0.3,0-0.5-0.1-0.7-0.3S191.5,416.5,191.5,416.2z"/>
		</g>
		<line fill="none" stroke="#221F1F" stroke-width="0.9905" stroke-miterlimit="10" x1="142.7" y1="313.2" x2="142.7" y2="415.5"/>
	</g>
	<g>
		<path fill="#221F1F" d="M585.4,649.7v8.1h-1v-8.1H585.4z"/>
		<path fill="#221F1F" d="M587.3,653.6c0-0.6,0-1.1,0-1.6h0.9l0,0.9h0c0.3-0.6,0.9-1.1,1.8-1.1c0.8,0,1.4,0.5,1.6,1.2h0
			c0.2-0.3,0.4-0.6,0.6-0.8c0.3-0.3,0.7-0.4,1.3-0.4c0.8,0,1.9,0.5,1.9,2.5v3.4h-1v-3.3c0-1.1-0.4-1.8-1.3-1.8c-0.6,0-1.1,0.4-1.2,1
			c0,0.1-0.1,0.3-0.1,0.5v3.6h-1v-3.5c0-0.9-0.4-1.6-1.2-1.6c-0.7,0-1.1,0.5-1.3,1.1c-0.1,0.2-0.1,0.3-0.1,0.5v3.5h-1V653.6z"/>
		<path fill="#221F1F" d="M600.5,657.8l-0.1-0.7h0c-0.3,0.5-0.9,0.9-1.8,0.9c-1.2,0-1.8-0.8-1.8-1.7c0-1.4,1.2-2.2,3.5-2.2V654
			c0-0.5-0.1-1.3-1.3-1.3c-0.5,0-1.1,0.2-1.5,0.4l-0.2-0.7c0.5-0.3,1.2-0.5,1.9-0.5c1.8,0,2.2,1.2,2.2,2.4v2.2c0,0.5,0,1,0.1,1.4
			H600.5z M600.4,654.8c-1.2,0-2.5,0.2-2.5,1.3c0,0.7,0.5,1,1,1c0.8,0,1.2-0.5,1.4-1c0-0.1,0.1-0.2,0.1-0.3V654.8z"/>
		<path fill="#221F1F" d="M608.1,652c0,0.4,0,0.9,0,1.6v3.4c0,1.3-0.3,2.1-0.8,2.7c-0.6,0.5-1.4,0.7-2.1,0.7c-0.7,0-1.5-0.2-1.9-0.5
			l0.3-0.8c0.4,0.2,1,0.5,1.7,0.5c1.1,0,1.9-0.6,1.9-2v-0.6h0c-0.3,0.5-0.9,1-1.8,1c-1.4,0-2.5-1.2-2.5-2.8c0-2,1.3-3.1,2.6-3.1
			c1,0,1.6,0.5,1.8,1h0l0-0.9H608.1z M607,654.3c0-0.2,0-0.3-0.1-0.5c-0.2-0.6-0.7-1.1-1.5-1.1c-1,0-1.7,0.9-1.7,2.2
			c0,1.1,0.6,2.1,1.7,2.1c0.6,0,1.2-0.4,1.5-1.1c0.1-0.2,0.1-0.4,0.1-0.6V654.3z"/>
		<path fill="#221F1F" d="M610.4,655.1c0,1.4,0.9,2,2,2c0.8,0,1.2-0.1,1.6-0.3l0.2,0.8c-0.4,0.2-1,0.4-1.9,0.4
			c-1.8,0-2.9-1.2-2.9-2.9s1-3.1,2.7-3.1c1.9,0,2.4,1.7,2.4,2.7c0,0.2,0,0.4,0,0.5H610.4z M613.5,654.3c0-0.7-0.3-1.7-1.5-1.7
			c-1.1,0-1.5,1-1.6,1.7H613.5z"/>
		<path fill="#221F1F" d="M618.2,656.7c0.3,0.2,0.9,0.4,1.4,0.4c0.8,0,1.1-0.4,1.1-0.9c0-0.5-0.3-0.8-1.1-1.1
			c-1-0.4-1.5-0.9-1.5-1.6c0-0.9,0.8-1.7,2-1.7c0.6,0,1.1,0.2,1.4,0.4l-0.3,0.8c-0.2-0.1-0.6-0.3-1.2-0.3c-0.6,0-1,0.4-1,0.8
			c0,0.5,0.3,0.7,1.1,1c1,0.4,1.5,0.9,1.5,1.8c0,1-0.8,1.7-2.2,1.7c-0.6,0-1.2-0.2-1.6-0.4L618.2,656.7z"/>
		<path fill="#221F1F" d="M628.4,654.9c0,2.1-1.5,3.1-2.9,3.1c-1.6,0-2.8-1.2-2.8-3c0-1.9,1.3-3.1,2.9-3.1
			C627.2,651.9,628.4,653.1,628.4,654.9z M623.8,654.9c0,1.3,0.7,2.2,1.8,2.2c1,0,1.8-0.9,1.8-2.3c0-1-0.5-2.2-1.7-2.2
			C624.3,652.7,623.8,653.8,623.8,654.9z"/>
		<path fill="#221F1F" d="M634.6,656.2c0,0.6,0,1.1,0,1.6h-0.9l-0.1-0.9h0c-0.3,0.5-0.9,1.1-1.9,1.1c-0.9,0-2-0.5-2-2.5V652h1.1v3.2
			c0,1.1,0.3,1.8,1.3,1.8c0.7,0,1.2-0.5,1.4-1c0.1-0.2,0.1-0.3,0.1-0.5V652h1.1V656.2z"/>
		<path fill="#221F1F" d="M636.3,653.8c0-0.7,0-1.3,0-1.8h0.9l0,1.1h0c0.3-0.8,0.9-1.3,1.6-1.3c0.1,0,0.2,0,0.3,0v1
			c-0.1,0-0.2,0-0.4,0c-0.7,0-1.3,0.6-1.4,1.4c0,0.1,0,0.3,0,0.5v3.1h-1V653.8z"/>
		<path fill="#221F1F" d="M644.3,657.6c-0.3,0.1-0.9,0.3-1.7,0.3c-1.8,0-2.9-1.2-2.9-3c0-1.8,1.2-3.1,3.1-3.1c0.6,0,1.2,0.2,1.5,0.3
			L644,653c-0.3-0.1-0.6-0.3-1.2-0.3c-1.3,0-2.1,1-2.1,2.2c0,1.3,0.9,2.2,2,2.2c0.6,0,1-0.2,1.3-0.3L644.3,657.6z"/>
		<path fill="#221F1F" d="M646,655.1c0,1.4,0.9,2,2,2c0.8,0,1.2-0.1,1.6-0.3l0.2,0.8c-0.4,0.2-1,0.4-1.9,0.4c-1.8,0-2.9-1.2-2.9-2.9
			s1-3.1,2.7-3.1c1.9,0,2.4,1.7,2.4,2.7c0,0.2,0,0.4,0,0.5H646z M649.1,654.3c0-0.7-0.3-1.7-1.5-1.7c-1.1,0-1.5,1-1.6,1.7H649.1z"/>
		<path fill="#221F1F" d="M651.2,653c0-0.4,0.3-0.8,0.7-0.8c0.4,0,0.7,0.3,0.7,0.8c0,0.4-0.3,0.7-0.7,0.7
			C651.5,653.7,651.2,653.4,651.2,653z M651.2,657.2c0-0.4,0.3-0.8,0.7-0.8c0.4,0,0.7,0.3,0.7,0.8c0,0.4-0.3,0.7-0.7,0.7
			C651.5,657.9,651.2,657.6,651.2,657.2z"/>
		<path fill="#221F1F" d="M656.5,649.3h1.1v3.6h0c0.2-0.3,0.4-0.6,0.8-0.7c0.3-0.2,0.7-0.3,1.1-0.3c0.8,0,2,0.5,2,2.5v3.5h-1.1v-3.3
			c0-0.9-0.3-1.7-1.3-1.7c-0.7,0-1.2,0.5-1.4,1.1c-0.1,0.1-0.1,0.3-0.1,0.5v3.5h-1.1V649.3z"/>
		<path fill="#221F1F" d="M664.3,650.3v1.7h1.5v0.8h-1.5v3.1c0,0.7,0.2,1.1,0.8,1.1c0.3,0,0.5,0,0.6-0.1l0,0.8
			c-0.2,0.1-0.5,0.1-0.9,0.1c-0.5,0-0.9-0.2-1.1-0.4c-0.3-0.3-0.4-0.8-0.4-1.5v-3.2h-0.9V652h0.9v-1.4L664.3,650.3z"/>
		<path fill="#221F1F" d="M668.3,650.3v1.7h1.5v0.8h-1.5v3.1c0,0.7,0.2,1.1,0.8,1.1c0.3,0,0.5,0,0.6-0.1l0,0.8
			c-0.2,0.1-0.5,0.1-0.9,0.1c-0.5,0-0.9-0.2-1.1-0.4c-0.3-0.3-0.4-0.8-0.4-1.5v-3.2h-0.9V652h0.9v-1.4L668.3,650.3z"/>
		<path fill="#221F1F" d="M671,653.9c0-0.7,0-1.3,0-1.9h0.9l0,1h0c0.4-0.7,1.1-1.1,2.1-1.1c1.4,0,2.5,1.2,2.5,3
			c0,2.1-1.3,3.1-2.6,3.1c-0.8,0-1.4-0.3-1.8-0.9h0v3.2h-1V653.9z M672.1,655.4c0,0.2,0,0.3,0,0.4c0.2,0.7,0.8,1.2,1.6,1.2
			c1.1,0,1.8-0.9,1.8-2.2c0-1.2-0.6-2.2-1.7-2.2c-0.7,0-1.4,0.5-1.6,1.3c0,0.1-0.1,0.3-0.1,0.4V655.4z"/>
		<path fill="#221F1F" d="M677.6,653c0-0.4,0.3-0.8,0.7-0.8c0.4,0,0.7,0.3,0.7,0.8c0,0.4-0.3,0.7-0.7,0.7
			C677.9,653.7,677.6,653.4,677.6,653z M677.6,657.2c0-0.4,0.3-0.8,0.7-0.8c0.4,0,0.7,0.3,0.7,0.8c0,0.4-0.3,0.7-0.7,0.7
			C677.9,657.9,677.6,657.6,677.6,657.2z"/>
		<path fill="#221F1F" d="M679.4,658.3l3.3-8.7h0.8l-3.4,8.7H679.4z"/>
		<path fill="#221F1F" d="M683.6,658.3l3.3-8.7h0.8l-3.4,8.7H683.6z"/>
		<path fill="#221F1F" d="M689,652l0.8,3c0.2,0.6,0.3,1.2,0.4,1.8h0c0.1-0.6,0.3-1.2,0.5-1.8l0.9-3h0.9l0.9,2.9
			c0.2,0.7,0.4,1.3,0.5,1.9h0c0.1-0.6,0.3-1.2,0.4-1.9l0.8-2.9h1l-1.9,5.8h-1l-0.9-2.8c-0.2-0.6-0.4-1.2-0.5-1.9h0
			c-0.1,0.7-0.3,1.3-0.5,1.9l-0.9,2.8h-1l-1.8-5.8H689z"/>
		<path fill="#221F1F" d="M698,652l0.8,3c0.2,0.6,0.3,1.2,0.4,1.8h0c0.1-0.6,0.3-1.2,0.5-1.8l0.9-3h0.9l0.9,2.9
			c0.2,0.7,0.4,1.3,0.5,1.9h0c0.1-0.6,0.3-1.2,0.4-1.9l0.8-2.9h1l-1.9,5.8h-1l-0.9-2.8c-0.2-0.6-0.4-1.2-0.5-1.9h0
			c-0.1,0.7-0.3,1.3-0.5,1.9l-0.9,2.8h-1l-1.8-5.8H698z"/>
		<path fill="#221F1F" d="M706.9,652l0.8,3c0.2,0.6,0.3,1.2,0.4,1.8h0c0.1-0.6,0.3-1.2,0.5-1.8l0.9-3h0.9l0.9,2.9
			c0.2,0.7,0.4,1.3,0.5,1.9h0c0.1-0.6,0.3-1.2,0.4-1.9l0.8-2.9h1l-1.9,5.8h-1l-0.9-2.8c-0.2-0.6-0.4-1.2-0.5-1.9h0
			c-0.1,0.7-0.3,1.3-0.5,1.9l-0.9,2.8h-1l-1.8-5.8H706.9z"/>
		<path fill="#221F1F" d="M714.6,657.2c0-0.4,0.3-0.8,0.7-0.8c0.4,0,0.7,0.3,0.7,0.8c0,0.4-0.3,0.8-0.7,0.8
			C714.9,657.9,714.6,657.6,714.6,657.2z"/>
		<path fill="#221F1F" d="M717.8,652l0.8,3c0.2,0.6,0.3,1.2,0.4,1.8h0c0.1-0.6,0.3-1.2,0.5-1.8l0.9-3h0.9l0.9,2.9
			c0.2,0.7,0.4,1.3,0.5,1.9h0c0.1-0.6,0.3-1.2,0.4-1.9l0.8-2.9h1l-1.9,5.8h-1l-0.9-2.8c-0.2-0.6-0.4-1.2-0.5-1.9h0
			c-0.1,0.7-0.3,1.3-0.5,1.9l-0.9,2.8h-1l-1.8-5.8H717.8z"/>
		<path fill="#221F1F" d="M727.4,650.4c0,0.4-0.3,0.6-0.7,0.6c-0.4,0-0.6-0.3-0.6-0.6c0-0.4,0.3-0.7,0.7-0.7
			C727.1,649.7,727.4,650,727.4,650.4z M726.2,657.8V652h1.1v5.8H726.2z"/>
		<path fill="#221F1F" d="M734,652c0,0.4,0,0.9,0,1.6v3.4c0,1.3-0.3,2.1-0.8,2.7c-0.6,0.5-1.4,0.7-2.1,0.7c-0.7,0-1.5-0.2-1.9-0.5
			l0.3-0.8c0.4,0.2,1,0.5,1.7,0.5c1.1,0,1.9-0.6,1.9-2v-0.6h0c-0.3,0.5-0.9,1-1.8,1c-1.4,0-2.5-1.2-2.5-2.8c0-2,1.3-3.1,2.6-3.1
			c1,0,1.6,0.5,1.8,1h0l0-0.9H734z M732.9,654.3c0-0.2,0-0.3-0.1-0.5c-0.2-0.6-0.7-1.1-1.5-1.1c-1,0-1.7,0.9-1.7,2.2
			c0,1.1,0.6,2.1,1.7,2.1c0.6,0,1.2-0.4,1.5-1.1c0.1-0.2,0.1-0.4,0.1-0.6V654.3z"/>
		<path fill="#221F1F" d="M740.7,652c0,0.4,0,0.9,0,1.6v3.4c0,1.3-0.3,2.1-0.8,2.7c-0.6,0.5-1.4,0.7-2.1,0.7c-0.7,0-1.5-0.2-1.9-0.5
			l0.3-0.8c0.4,0.2,1,0.5,1.7,0.5c1.1,0,1.9-0.6,1.9-2v-0.6h0c-0.3,0.5-0.9,1-1.8,1c-1.4,0-2.5-1.2-2.5-2.8c0-2,1.3-3.1,2.6-3.1
			c1,0,1.6,0.5,1.8,1h0l0-0.9H740.7z M739.6,654.3c0-0.2,0-0.3-0.1-0.5c-0.2-0.6-0.7-1.1-1.5-1.1c-1,0-1.7,0.9-1.7,2.2
			c0,1.1,0.6,2.1,1.7,2.1c0.6,0,1.2-0.4,1.5-1.1c0.1-0.2,0.1-0.4,0.1-0.6V654.3z"/>
		<path fill="#221F1F" d="M742.4,649.3h1.1v8.5h-1.1V649.3z"/>
		<path fill="#221F1F" d="M745.8,655.1c0,1.4,0.9,2,2,2c0.8,0,1.2-0.1,1.6-0.3l0.2,0.8c-0.4,0.2-1,0.4-1.9,0.4
			c-1.8,0-2.9-1.2-2.9-2.9s1-3.1,2.7-3.1c1.9,0,2.4,1.7,2.4,2.7c0,0.2,0,0.4,0,0.5H745.8z M748.9,654.3c0-0.7-0.3-1.7-1.5-1.7
			c-1.1,0-1.5,1-1.6,1.7H748.9z"/>
		<path fill="#221F1F" d="M750.9,657.2c0-0.4,0.3-0.8,0.7-0.8c0.4,0,0.7,0.3,0.7,0.8c0,0.4-0.3,0.8-0.7,0.8
			C751.1,657.9,750.9,657.6,750.9,657.2z"/>
		<path fill="#221F1F" d="M757.7,657.6c-0.3,0.1-0.9,0.3-1.7,0.3c-1.8,0-2.9-1.2-2.9-3c0-1.8,1.2-3.1,3.1-3.1c0.6,0,1.2,0.2,1.5,0.3
			l-0.2,0.8c-0.3-0.1-0.6-0.3-1.2-0.3c-1.3,0-2.1,1-2.1,2.2c0,1.3,0.9,2.2,2,2.2c0.6,0,1-0.2,1.3-0.3L757.7,657.6z"/>
		<path fill="#221F1F" d="M764.2,654.9c0,2.1-1.5,3.1-2.9,3.1c-1.6,0-2.8-1.2-2.8-3c0-1.9,1.3-3.1,2.9-3.1
			C763,651.9,764.2,653.1,764.2,654.9z M759.5,654.9c0,1.3,0.7,2.2,1.8,2.2c1,0,1.8-0.9,1.8-2.3c0-1-0.5-2.2-1.7-2.2
			C760.1,652.7,759.5,653.8,759.5,654.9z"/>
		<path fill="#221F1F" d="M764.9,657.2c0-0.4,0.3-0.8,0.7-0.8c0.4,0,0.7,0.3,0.7,0.8c0,0.4-0.3,0.8-0.7,0.8
			C765.2,657.9,764.9,657.6,764.9,657.2z"/>
		<path fill="#221F1F" d="M772.5,656.2c0,0.6,0,1.1,0,1.6h-0.9l-0.1-0.9h0c-0.3,0.5-0.9,1.1-1.9,1.1c-0.9,0-2-0.5-2-2.5V652h1.1v3.2
			c0,1.1,0.3,1.8,1.3,1.8c0.7,0,1.2-0.5,1.4-1c0.1-0.2,0.1-0.3,0.1-0.5V652h1.1V656.2z"/>
		<path fill="#221F1F" d="M775.3,654.7L775.3,654.7c0.2-0.2,0.4-0.5,0.5-0.7l1.7-2h1.3l-2.2,2.4l2.6,3.4h-1.3l-2-2.8l-0.5,0.6v2.2
			h-1v-8.5h1V654.7z"/>
		<path fill="#221F1F" d="M779,658.3l3.3-8.7h0.8l-3.4,8.7H779z"/>
		<path fill="#221F1F" d="M785.1,654.7L785.1,654.7c0.2-0.2,0.4-0.5,0.5-0.7l1.7-2h1.3l-2.2,2.4l2.6,3.4h-1.3l-2-2.8l-0.5,0.6v2.2
			h-1v-8.5h1V654.7z"/>
		<path fill="#221F1F" d="M789.9,653.6c0-0.6,0-1.1,0-1.6h0.9l0.1,1h0c0.3-0.6,1-1.1,1.9-1.1c0.8,0,2.1,0.5,2.1,2.5v3.5h-1.1v-3.3
			c0-0.9-0.3-1.7-1.3-1.7c-0.7,0-1.2,0.5-1.4,1.1c0,0.1-0.1,0.3-0.1,0.5v3.5h-1.1V653.6z"/>
		<path fill="#221F1F" d="M801.8,654.9c0,2.1-1.5,3.1-2.9,3.1c-1.6,0-2.8-1.2-2.8-3c0-1.9,1.3-3.1,2.9-3.1
			C800.7,651.9,801.8,653.1,801.8,654.9z M797.2,654.9c0,1.3,0.7,2.2,1.8,2.2c1,0,1.8-0.9,1.8-2.3c0-1-0.5-2.2-1.7-2.2
			C797.7,652.7,797.2,653.8,797.2,654.9z"/>
		<path fill="#221F1F" d="M808.1,652c0,0.4,0,0.9,0,1.6v3.4c0,1.3-0.3,2.1-0.8,2.7c-0.6,0.5-1.4,0.7-2.1,0.7c-0.7,0-1.5-0.2-1.9-0.5
			l0.3-0.8c0.4,0.2,1,0.5,1.7,0.5c1.1,0,1.9-0.6,1.9-2v-0.6h0c-0.3,0.5-0.9,1-1.8,1c-1.4,0-2.5-1.2-2.5-2.8c0-2,1.3-3.1,2.6-3.1
			c1,0,1.6,0.5,1.8,1h0l0-0.9H808.1z M807,654.3c0-0.2,0-0.3-0.1-0.5c-0.2-0.6-0.7-1.1-1.5-1.1c-1,0-1.7,0.9-1.7,2.2
			c0,1.1,0.6,2.1,1.7,2.1c0.6,0,1.2-0.4,1.5-1.1c0.1-0.2,0.1-0.4,0.1-0.6V654.3z"/>
		<path fill="#221F1F" d="M812.3,654.2v0.8h-3v-0.8H812.3z"/>
		<path fill="#221F1F" d="M813.5,657.8c0-0.4,0-1,0-1.5v-7h1v3.6h0c0.4-0.6,1-1.1,2-1.1c1.4,0,2.5,1.2,2.4,3c0,2.1-1.3,3.1-2.6,3.1
			c-0.8,0-1.5-0.3-1.9-1.1h0l0,1H813.5z M814.6,655.5c0,0.1,0,0.3,0,0.4c0.2,0.7,0.8,1.2,1.6,1.2c1.1,0,1.8-0.9,1.8-2.2
			c0-1.2-0.6-2.2-1.7-2.2c-0.7,0-1.4,0.5-1.6,1.3c0,0.1-0.1,0.3-0.1,0.4V655.5z"/>
		<path fill="#221F1F" d="M820.3,649.3h1.1v8.5h-1.1V649.3z"/>
		<path fill="#221F1F" d="M824.3,650.4c0,0.4-0.3,0.6-0.7,0.6c-0.4,0-0.6-0.3-0.6-0.6c0-0.4,0.3-0.7,0.7-0.7
			C824.1,649.7,824.3,650,824.3,650.4z M823.2,657.8V652h1.1v5.8H823.2z"/>
		<path fill="#221F1F" d="M826,653.6c0-0.6,0-1.1,0-1.6h0.9l0.1,1h0c0.3-0.6,1-1.1,1.9-1.1c0.8,0,2.1,0.5,2.1,2.5v3.5h-1.1v-3.3
			c0-0.9-0.3-1.7-1.3-1.7c-0.7,0-1.2,0.5-1.4,1.1c0,0.1-0.1,0.3-0.1,0.5v3.5H826V653.6z"/>
		<path fill="#221F1F" d="M837.7,649.3v7c0,0.5,0,1.1,0,1.5h-0.9l0-1h0c-0.3,0.6-1,1.1-2,1.1c-1.4,0-2.5-1.2-2.5-3
			c0-1.9,1.2-3.1,2.6-3.1c0.9,0,1.5,0.4,1.8,0.9h0v-3.5H837.7z M836.6,654.4c0-0.1,0-0.3,0-0.4c-0.2-0.7-0.7-1.2-1.5-1.2
			c-1.1,0-1.7,1-1.7,2.2c0,1.2,0.6,2.1,1.7,2.1c0.7,0,1.4-0.5,1.5-1.3c0-0.1,0-0.3,0-0.5V654.4z"/>
		<path fill="#221F1F" d="M840,655.1c0,1.4,0.9,2,2,2c0.8,0,1.2-0.1,1.6-0.3l0.2,0.8c-0.4,0.2-1,0.4-1.9,0.4c-1.8,0-2.9-1.2-2.9-2.9
			s1-3.1,2.7-3.1c1.9,0,2.4,1.7,2.4,2.7c0,0.2,0,0.4,0,0.5H840z M843.1,654.3c0-0.7-0.3-1.7-1.5-1.7c-1.1,0-1.5,1-1.6,1.7H843.1z"/>
		<path fill="#221F1F" d="M845.4,653.8c0-0.7,0-1.3,0-1.8h0.9l0,1.1h0c0.3-0.8,0.9-1.3,1.6-1.3c0.1,0,0.2,0,0.3,0v1
			c-0.1,0-0.2,0-0.4,0c-0.7,0-1.3,0.6-1.4,1.4c0,0.1,0,0.3,0,0.5v3.1h-1V653.8z"/>
		<path fill="#221F1F" d="M851.7,654.2v0.8h-3v-0.8H851.7z"/>
		<path fill="#221F1F" d="M853,653.8c0-0.7,0-1.3,0-1.8h0.9l0,1.1h0c0.3-0.8,0.9-1.3,1.6-1.3c0.1,0,0.2,0,0.3,0v1
			c-0.1,0-0.2,0-0.4,0c-0.7,0-1.3,0.6-1.4,1.4c0,0.1,0,0.3,0,0.5v3.1h-1V653.8z"/>
		<path fill="#221F1F" d="M862,654.9c0,2.1-1.5,3.1-2.9,3.1c-1.6,0-2.8-1.2-2.8-3c0-1.9,1.3-3.1,2.9-3.1
			C860.9,651.9,862,653.1,862,654.9z M857.4,654.9c0,1.3,0.7,2.2,1.8,2.2c1,0,1.8-0.9,1.8-2.3c0-1-0.5-2.2-1.7-2.2
			C858,652.7,857.4,653.8,857.4,654.9z"/>
		<path fill="#221F1F" d="M866.6,657.8l-0.1-0.7h0c-0.3,0.5-0.9,0.9-1.8,0.9c-1.2,0-1.8-0.8-1.8-1.7c0-1.4,1.2-2.2,3.5-2.2V654
			c0-0.5-0.1-1.3-1.3-1.3c-0.5,0-1.1,0.2-1.5,0.4l-0.2-0.7c0.5-0.3,1.2-0.5,1.9-0.5c1.8,0,2.2,1.2,2.2,2.4v2.2c0,0.5,0,1,0.1,1.4
			H866.6z M866.4,654.8c-1.2,0-2.5,0.2-2.5,1.3c0,0.7,0.5,1,1,1c0.8,0,1.2-0.5,1.4-1c0-0.1,0.1-0.2,0.1-0.3V654.8z"/>
		<path fill="#221F1F" d="M874.2,649.3v7c0,0.5,0,1.1,0,1.5h-0.9l0-1h0c-0.3,0.6-1,1.1-2,1.1c-1.4,0-2.5-1.2-2.5-3
			c0-1.9,1.2-3.1,2.6-3.1c0.9,0,1.5,0.4,1.8,0.9h0v-3.5H874.2z M873.1,654.4c0-0.1,0-0.3,0-0.4c-0.2-0.7-0.7-1.2-1.5-1.2
			c-1.1,0-1.7,1-1.7,2.2c0,1.2,0.6,2.1,1.7,2.1c0.7,0,1.4-0.5,1.5-1.3c0-0.1,0-0.3,0-0.5V654.4z"/>
		<path fill="#221F1F" d="M878.4,654.2v0.8h-3v-0.8H878.4z"/>
		<path fill="#221F1F" d="M882.5,657.8v-2.1h-3.6V655l3.5-5h1.1v4.8h1.1v0.8h-1.1v2.1H882.5z M882.5,654.9v-2.6c0-0.4,0-0.8,0-1.2h0
			c-0.2,0.5-0.4,0.8-0.6,1.2l-1.9,2.7v0H882.5z"/>
		<path fill="#221F1F" d="M888.2,654.2v0.8h-3v-0.8H888.2z"/>
		<path fill="#221F1F" d="M889.4,649.3h1.1v8.5h-1.1V649.3z"/>
		<path fill="#221F1F" d="M892.9,655.1c0,1.4,0.9,2,2,2c0.8,0,1.2-0.1,1.6-0.3l0.2,0.8c-0.4,0.2-1,0.4-1.9,0.4
			c-1.8,0-2.9-1.2-2.9-2.9s1-3.1,2.7-3.1c1.9,0,2.4,1.7,2.4,2.7c0,0.2,0,0.4,0,0.5H892.9z M895.9,654.3c0-0.7-0.3-1.7-1.5-1.7
			c-1.1,0-1.5,1-1.6,1.7H895.9z"/>
		<path fill="#221F1F" d="M903.3,649.3v7c0,0.5,0,1.1,0,1.5h-0.9l0-1h0c-0.3,0.6-1,1.1-2,1.1c-1.4,0-2.5-1.2-2.5-3
			c0-1.9,1.2-3.1,2.6-3.1c0.9,0,1.5,0.4,1.8,0.9h0v-3.5H903.3z M902.2,654.4c0-0.1,0-0.3,0-0.4c-0.2-0.7-0.7-1.2-1.5-1.2
			c-1.1,0-1.7,1-1.7,2.2c0,1.2,0.6,2.1,1.7,2.1c0.7,0,1.4-0.5,1.5-1.3c0-0.1,0-0.3,0-0.5V654.4z"/>
		<path fill="#221F1F" d="M907.5,654.2v0.8h-3v-0.8H907.5z"/>
		<path fill="#221F1F" d="M908.7,653.8c0-0.7,0-1.3,0-1.8h0.9l0,1.1h0c0.3-0.8,0.9-1.3,1.6-1.3c0.1,0,0.2,0,0.3,0v1
			c-0.1,0-0.2,0-0.4,0c-0.7,0-1.3,0.6-1.4,1.4c0,0.1,0,0.3,0,0.5v3.1h-1V653.8z"/>
		<path fill="#221F1F" d="M913.1,655.1c0,1.4,0.9,2,2,2c0.8,0,1.2-0.1,1.6-0.3l0.2,0.8c-0.4,0.2-1,0.4-1.9,0.4
			c-1.8,0-2.9-1.2-2.9-2.9s1-3.1,2.7-3.1c1.9,0,2.4,1.7,2.4,2.7c0,0.2,0,0.4,0,0.5H913.1z M916.2,654.3c0-0.7-0.3-1.7-1.5-1.7
			c-1.1,0-1.5,1-1.6,1.7H916.2z"/>
		<path fill="#221F1F" d="M921.8,657.8l-0.1-0.7h0c-0.3,0.5-0.9,0.9-1.8,0.9c-1.2,0-1.8-0.8-1.8-1.7c0-1.4,1.2-2.2,3.5-2.2V654
			c0-0.5-0.1-1.3-1.3-1.3c-0.5,0-1.1,0.2-1.5,0.4l-0.2-0.7c0.5-0.3,1.2-0.5,1.9-0.5c1.8,0,2.2,1.2,2.2,2.4v2.2c0,0.5,0,1,0.1,1.4
			H921.8z M921.6,654.8c-1.2,0-2.5,0.2-2.5,1.3c0,0.7,0.5,1,1,1c0.8,0,1.2-0.5,1.4-1c0-0.1,0.1-0.2,0.1-0.3V654.8z"/>
		<path fill="#221F1F" d="M924.3,653.8c0-0.7,0-1.3,0-1.8h0.9l0,1.1h0c0.3-0.8,0.9-1.3,1.6-1.3c0.1,0,0.2,0,0.3,0v1
			c-0.1,0-0.2,0-0.4,0c-0.7,0-1.3,0.6-1.4,1.4c0,0.1,0,0.3,0,0.5v3.1h-1V653.8z"/>
		<path fill="#221F1F" d="M930.6,654.2v0.8h-3v-0.8H930.6z"/>
		<path fill="#221F1F" d="M931.9,649.3h1.1v8.5h-1.1V649.3z"/>
		<path fill="#221F1F" d="M935.9,650.4c0,0.4-0.3,0.6-0.7,0.6c-0.4,0-0.6-0.3-0.6-0.6c0-0.4,0.3-0.7,0.7-0.7
			C935.6,649.7,935.9,650,935.9,650.4z M934.7,657.8V652h1.1v5.8H934.7z"/>
		<path fill="#221F1F" d="M942.5,652c0,0.4,0,0.9,0,1.6v3.4c0,1.3-0.3,2.1-0.8,2.7c-0.6,0.5-1.4,0.7-2.1,0.7c-0.7,0-1.5-0.2-1.9-0.5
			l0.3-0.8c0.4,0.2,1,0.5,1.7,0.5c1.1,0,1.9-0.6,1.9-2v-0.6h0c-0.3,0.5-0.9,1-1.8,1c-1.4,0-2.5-1.2-2.5-2.8c0-2,1.3-3.1,2.6-3.1
			c1,0,1.6,0.5,1.8,1h0l0-0.9H942.5z M941.4,654.3c0-0.2,0-0.3-0.1-0.5c-0.2-0.6-0.7-1.1-1.5-1.1c-1,0-1.7,0.9-1.7,2.2
			c0,1.1,0.6,2.1,1.7,2.1c0.6,0,1.2-0.4,1.5-1.1c0.1-0.2,0.1-0.4,0.1-0.6V654.3z"/>
		<path fill="#221F1F" d="M944.2,649.3h1.1v3.6h0c0.2-0.3,0.4-0.6,0.8-0.7c0.3-0.2,0.7-0.3,1.1-0.3c0.8,0,2,0.5,2,2.5v3.5h-1.1v-3.3
			c0-0.9-0.3-1.7-1.3-1.7c-0.7,0-1.2,0.5-1.4,1.1c-0.1,0.1-0.1,0.3-0.1,0.5v3.5h-1.1V649.3z"/>
		<path fill="#221F1F" d="M952.1,650.3v1.7h1.5v0.8h-1.5v3.1c0,0.7,0.2,1.1,0.8,1.1c0.3,0,0.5,0,0.6-0.1l0,0.8
			c-0.2,0.1-0.5,0.1-0.9,0.1c-0.5,0-0.9-0.2-1.1-0.4c-0.3-0.3-0.4-0.8-0.4-1.5v-3.2h-0.9V652h0.9v-1.4L952.1,650.3z"/>
		<path fill="#221F1F" d="M953.9,658.3l3.3-8.7h0.8l-3.4,8.7H953.9z"/>
		<path fill="#221F1F" d="M658.1,663.7h1.1v3.6h0c0.2-0.3,0.4-0.6,0.8-0.7c0.3-0.2,0.7-0.3,1.1-0.3c0.8,0,2,0.5,2,2.5v3.5H662v-3.3
			c0-0.9-0.3-1.7-1.3-1.7c-0.7,0-1.2,0.5-1.4,1.1c-0.1,0.1-0.1,0.3-0.1,0.5v3.5h-1.1V663.7z"/>
		<path fill="#221F1F" d="M666,664.7v1.7h1.5v0.8H666v3.1c0,0.7,0.2,1.1,0.8,1.1c0.3,0,0.5,0,0.6-0.1l0,0.8
			c-0.2,0.1-0.5,0.1-0.9,0.1c-0.5,0-0.9-0.2-1.1-0.4c-0.3-0.3-0.4-0.8-0.4-1.5v-3.2H664v-0.8h0.9V665L666,664.7z"/>
		<path fill="#221F1F" d="M669.9,664.7v1.7h1.5v0.8h-1.5v3.1c0,0.7,0.2,1.1,0.8,1.1c0.3,0,0.5,0,0.6-0.1l0,0.8
			c-0.2,0.1-0.5,0.1-0.9,0.1c-0.5,0-0.9-0.2-1.1-0.4c-0.3-0.3-0.4-0.8-0.4-1.5v-3.2H668v-0.8h0.9V665L669.9,664.7z"/>
		<path fill="#221F1F" d="M672.6,668.3c0-0.7,0-1.3,0-1.9h0.9l0,1h0c0.4-0.7,1.1-1.1,2.1-1.1c1.4,0,2.5,1.2,2.5,3
			c0,2.1-1.3,3.1-2.6,3.1c-0.8,0-1.4-0.3-1.8-0.9h0v3.2h-1V668.3z M673.7,669.8c0,0.2,0,0.3,0,0.4c0.2,0.7,0.8,1.2,1.6,1.2
			c1.1,0,1.8-0.9,1.8-2.2c0-1.2-0.6-2.2-1.7-2.2c-0.7,0-1.4,0.5-1.6,1.3c0,0.1-0.1,0.3-0.1,0.4V669.8z"/>
		<path fill="#221F1F" d="M679.2,667.4c0-0.4,0.3-0.8,0.7-0.8c0.4,0,0.7,0.3,0.7,0.8c0,0.4-0.3,0.7-0.7,0.7
			C679.5,668.1,679.2,667.8,679.2,667.4z M679.2,671.6c0-0.4,0.3-0.8,0.7-0.8c0.4,0,0.7,0.3,0.7,0.8c0,0.4-0.3,0.7-0.7,0.7
			C679.5,672.3,679.2,672,679.2,671.6z"/>
		<path fill="#221F1F" d="M681.1,672.7l3.3-8.7h0.8l-3.4,8.7H681.1z"/>
		<path fill="#221F1F" d="M685.2,672.7l3.3-8.7h0.8l-3.4,8.7H685.2z"/>
		<path fill="#221F1F" d="M690.6,666.4l0.8,3c0.2,0.6,0.3,1.2,0.4,1.8h0c0.1-0.6,0.3-1.2,0.5-1.8l0.9-3h0.9l0.9,2.9
			c0.2,0.7,0.4,1.3,0.5,1.9h0c0.1-0.6,0.3-1.2,0.4-1.9l0.8-2.9h1l-1.9,5.8h-1l-0.9-2.8c-0.2-0.6-0.4-1.2-0.5-1.9h0
			c-0.1,0.7-0.3,1.3-0.5,1.9l-0.9,2.8h-1l-1.8-5.8H690.6z"/>
		<path fill="#221F1F" d="M699.6,666.4l0.8,3c0.2,0.6,0.3,1.2,0.4,1.8h0c0.1-0.6,0.3-1.2,0.5-1.8l0.9-3h0.9l0.9,2.9
			c0.2,0.7,0.4,1.3,0.5,1.9h0c0.1-0.6,0.3-1.2,0.4-1.9l0.8-2.9h1l-1.9,5.8h-1l-0.9-2.8c-0.2-0.6-0.4-1.2-0.5-1.9h0
			c-0.1,0.7-0.3,1.3-0.5,1.9l-0.9,2.8h-1l-1.8-5.8H699.6z"/>
		<path fill="#221F1F" d="M708.6,666.4l0.8,3c0.2,0.6,0.3,1.2,0.4,1.8h0c0.1-0.6,0.3-1.2,0.5-1.8l0.9-3h0.9l0.9,2.9
			c0.2,0.7,0.4,1.3,0.5,1.9h0c0.1-0.6,0.3-1.2,0.4-1.9l0.8-2.9h1l-1.9,5.8h-1l-0.9-2.8c-0.2-0.6-0.4-1.2-0.5-1.9h0
			c-0.1,0.7-0.3,1.3-0.5,1.9l-0.9,2.8h-1l-1.8-5.8H708.6z"/>
		<path fill="#221F1F" d="M716.2,671.6c0-0.4,0.3-0.8,0.7-0.8c0.4,0,0.7,0.3,0.7,0.8c0,0.4-0.3,0.8-0.7,0.8
			C716.5,672.3,716.2,672,716.2,671.6z"/>
		<path fill="#221F1F" d="M719.4,666.4l1.1,3.3c0.2,0.5,0.3,1,0.5,1.5h0c0.1-0.5,0.3-1,0.5-1.5l1.1-3.3h1.1l-2.3,5.8h-1l-2.2-5.8
			H719.4z"/>
		<path fill="#221F1F" d="M725.2,669.5c0,1.4,0.9,2,2,2c0.8,0,1.2-0.1,1.6-0.3l0.2,0.8c-0.4,0.2-1,0.4-1.9,0.4
			c-1.8,0-2.9-1.2-2.9-2.9s1-3.1,2.7-3.1c1.9,0,2.4,1.7,2.4,2.7c0,0.2,0,0.4,0,0.5H725.2z M728.3,668.7c0-0.7-0.3-1.7-1.5-1.7
			c-1.1,0-1.5,1-1.6,1.7H728.3z"/>
		<path fill="#221F1F" d="M730.6,663.7h1.1v8.5h-1.1V663.7z"/>
		<path fill="#221F1F" d="M738.7,669.3c0,2.1-1.5,3.1-2.9,3.1c-1.6,0-2.8-1.2-2.8-3c0-1.9,1.3-3.1,2.9-3.1
			C737.6,666.3,738.7,667.5,738.7,669.3z M734.1,669.3c0,1.3,0.7,2.2,1.8,2.2c1,0,1.8-0.9,1.8-2.3c0-1-0.5-2.2-1.7-2.2
			C734.7,667.1,734.1,668.2,734.1,669.3z"/>
		<path fill="#221F1F" d="M740.4,666.4l1.1,3.3c0.2,0.5,0.3,1,0.5,1.5h0c0.1-0.5,0.3-1,0.5-1.5l1.1-3.3h1.1l-2.3,5.8h-1l-2.2-5.8
			H740.4z"/>
		<path fill="#221F1F" d="M746.9,664.8c0,0.4-0.3,0.6-0.7,0.6c-0.4,0-0.6-0.3-0.6-0.6c0-0.4,0.3-0.7,0.7-0.7
			C746.7,664.1,746.9,664.4,746.9,664.8z M745.8,672.2v-5.8h1.1v5.8H745.8z"/>
		<path fill="#221F1F" d="M749.1,666.4l0.8,1.2c0.2,0.3,0.4,0.6,0.6,0.9h0c0.2-0.3,0.4-0.6,0.6-1l0.8-1.2h1.1l-2,2.8l2,3h-1.2
			l-0.9-1.3c-0.2-0.3-0.4-0.7-0.6-1h0c-0.2,0.3-0.4,0.7-0.6,1l-0.8,1.3h-1.2l2.1-3l-2-2.8H749.1z"/>
		<path fill="#221F1F" d="M754.5,669.5c0,1.4,0.9,2,2,2c0.8,0,1.2-0.1,1.6-0.3l0.2,0.8c-0.4,0.2-1,0.4-1.9,0.4
			c-1.8,0-2.9-1.2-2.9-2.9s1-3.1,2.7-3.1c1.9,0,2.4,1.7,2.4,2.7c0,0.2,0,0.4,0,0.5H754.5z M757.6,668.7c0-0.7-0.3-1.7-1.5-1.7
			c-1.1,0-1.5,1-1.6,1.7H757.6z"/>
		<path fill="#221F1F" d="M760,668c0-0.6,0-1.1,0-1.6h0.9l0.1,1h0c0.3-0.6,1-1.1,1.9-1.1c0.8,0,2.1,0.5,2.1,2.5v3.5h-1.1v-3.3
			c0-0.9-0.3-1.7-1.3-1.7c-0.7,0-1.2,0.5-1.4,1.1c0,0.1-0.1,0.3-0.1,0.5v3.5H760V668z"/>
		<path fill="#221F1F" d="M766.4,671.6c0-0.4,0.3-0.8,0.7-0.8c0.4,0,0.7,0.3,0.7,0.8c0,0.4-0.3,0.8-0.7,0.8
			C766.6,672.3,766.4,672,766.4,671.6z"/>
		<path fill="#221F1F" d="M773.2,672c-0.3,0.1-0.9,0.3-1.7,0.3c-1.8,0-2.9-1.2-2.9-3c0-1.8,1.2-3.1,3.1-3.1c0.6,0,1.2,0.2,1.5,0.3
			l-0.2,0.8c-0.3-0.1-0.6-0.3-1.2-0.3c-1.3,0-2.1,1-2.1,2.2c0,1.3,0.9,2.2,2,2.2c0.6,0,1-0.2,1.3-0.3L773.2,672z"/>
		<path fill="#221F1F" d="M779.7,669.3c0,2.1-1.5,3.1-2.9,3.1c-1.6,0-2.8-1.2-2.8-3c0-1.9,1.3-3.1,2.9-3.1
			C778.5,666.3,779.7,667.5,779.7,669.3z M775,669.3c0,1.3,0.7,2.2,1.8,2.2c1,0,1.8-0.9,1.8-2.3c0-1-0.5-2.2-1.7-2.2
			C775.6,667.1,775,668.2,775,669.3z"/>
		<path fill="#221F1F" d="M781,668c0-0.6,0-1.1,0-1.6h0.9l0,0.9h0c0.3-0.6,0.9-1.1,1.8-1.1c0.8,0,1.4,0.5,1.6,1.2h0
			c0.2-0.3,0.4-0.6,0.6-0.8c0.3-0.3,0.7-0.4,1.3-0.4c0.8,0,1.9,0.5,1.9,2.5v3.4h-1v-3.3c0-1.1-0.4-1.8-1.3-1.8c-0.6,0-1.1,0.4-1.2,1
			c0,0.1-0.1,0.3-0.1,0.5v3.6h-1v-3.5c0-0.9-0.4-1.6-1.2-1.6c-0.7,0-1.1,0.5-1.3,1.1c-0.1,0.2-0.1,0.3-0.1,0.5v3.5h-1V668z"/>
		<path fill="#221F1F" d="M790.1,672.7l3.3-8.7h0.8l-3.4,8.7H790.1z"/>
		<path fill="#221F1F" d="M796.2,669.1L796.2,669.1c0.2-0.2,0.4-0.5,0.5-0.7l1.7-2h1.3l-2.2,2.4l2.6,3.4h-1.3l-2-2.8l-0.5,0.6v2.2
			h-1v-8.5h1V669.1z"/>
		<path fill="#221F1F" d="M800.9,668c0-0.6,0-1.1,0-1.6h0.9l0.1,1h0c0.3-0.6,1-1.1,1.9-1.1c0.8,0,2.1,0.5,2.1,2.5v3.5h-1.1v-3.3
			c0-0.9-0.3-1.7-1.3-1.7c-0.7,0-1.2,0.5-1.4,1.1c0,0.1-0.1,0.3-0.1,0.5v3.5h-1.1V668z"/>
		<path fill="#221F1F" d="M812.9,669.3c0,2.1-1.5,3.1-2.9,3.1c-1.6,0-2.8-1.2-2.8-3c0-1.9,1.3-3.1,2.9-3.1
			C811.7,666.3,812.9,667.5,812.9,669.3z M808.3,669.3c0,1.3,0.7,2.2,1.8,2.2c1,0,1.8-0.9,1.8-2.3c0-1-0.5-2.2-1.7-2.2
			C808.8,667.1,808.3,668.2,808.3,669.3z"/>
		<path fill="#221F1F" d="M819.2,666.4c0,0.4,0,0.9,0,1.6v3.4c0,1.3-0.3,2.1-0.8,2.7c-0.6,0.5-1.4,0.7-2.1,0.7
			c-0.7,0-1.5-0.2-1.9-0.5l0.3-0.8c0.4,0.2,1,0.5,1.7,0.5c1.1,0,1.9-0.6,1.9-2v-0.6h0c-0.3,0.5-0.9,1-1.8,1c-1.4,0-2.5-1.2-2.5-2.8
			c0-2,1.3-3.1,2.6-3.1c1,0,1.6,0.5,1.8,1h0l0-0.9H819.2z M818.1,668.7c0-0.2,0-0.3-0.1-0.5c-0.2-0.6-0.7-1.1-1.5-1.1
			c-1,0-1.7,0.9-1.7,2.2c0,1.1,0.6,2.1,1.7,2.1c0.6,0,1.2-0.4,1.5-1.1c0.1-0.2,0.1-0.4,0.1-0.6V668.7z"/>
		<path fill="#221F1F" d="M823.3,668.6v0.8h-3v-0.8H823.3z"/>
		<path fill="#221F1F" d="M824.6,668.2c0-0.7,0-1.3,0-1.8h0.9l0,1.1h0c0.3-0.8,0.9-1.3,1.6-1.3c0.1,0,0.2,0,0.3,0v1
			c-0.1,0-0.2,0-0.4,0c-0.7,0-1.3,0.6-1.4,1.4c0,0.1,0,0.3,0,0.5v3.1h-1V668.2z"/>
		<path fill="#221F1F" d="M829,669.5c0,1.4,0.9,2,2,2c0.8,0,1.2-0.1,1.6-0.3l0.2,0.8c-0.4,0.2-1,0.4-1.9,0.4c-1.8,0-2.9-1.2-2.9-2.9
			s1-3.1,2.7-3.1c1.9,0,2.4,1.7,2.4,2.7c0,0.2,0,0.4,0,0.5H829z M832.1,668.7c0-0.7-0.3-1.7-1.5-1.7c-1.1,0-1.5,1-1.6,1.7H832.1z"/>
		<path fill="#221F1F" d="M838.5,672c-0.3,0.1-0.9,0.3-1.7,0.3c-1.8,0-2.9-1.2-2.9-3c0-1.8,1.2-3.1,3.1-3.1c0.6,0,1.2,0.2,1.5,0.3
			l-0.2,0.8c-0.3-0.1-0.6-0.3-1.2-0.3c-1.3,0-2.1,1-2.1,2.2c0,1.3,0.9,2.2,2,2.2c0.6,0,1-0.2,1.3-0.3L838.5,672z"/>
		<path fill="#221F1F" d="M839.8,663.7h1.1v3.6h0c0.2-0.3,0.4-0.6,0.8-0.7c0.3-0.2,0.7-0.3,1.1-0.3c0.8,0,2,0.5,2,2.5v3.5h-1.1v-3.3
			c0-0.9-0.3-1.7-1.3-1.7c-0.7,0-1.2,0.5-1.4,1.1c-0.1,0.1-0.1,0.3-0.1,0.5v3.5h-1.1V663.7z"/>
		<path fill="#221F1F" d="M849.7,672.2l-0.1-0.7h0c-0.3,0.5-0.9,0.9-1.8,0.9c-1.2,0-1.8-0.8-1.8-1.7c0-1.4,1.2-2.2,3.5-2.2v-0.1
			c0-0.5-0.1-1.3-1.3-1.3c-0.5,0-1.1,0.2-1.5,0.4l-0.2-0.7c0.5-0.3,1.2-0.5,1.9-0.5c1.8,0,2.2,1.2,2.2,2.4v2.2c0,0.5,0,1,0.1,1.4
			H849.7z M849.5,669.2c-1.2,0-2.5,0.2-2.5,1.3c0,0.7,0.5,1,1,1c0.8,0,1.2-0.5,1.4-1c0-0.1,0.1-0.2,0.1-0.3V669.2z"/>
		<path fill="#221F1F" d="M852.2,668.2c0-0.7,0-1.3,0-1.8h0.9l0,1.1h0c0.3-0.8,0.9-1.3,1.6-1.3c0.1,0,0.2,0,0.3,0v1
			c-0.1,0-0.2,0-0.4,0c-0.7,0-1.3,0.6-1.4,1.4c0,0.1,0,0.3,0,0.5v3.1h-1V668.2z"/>
		<path fill="#221F1F" d="M861,666.4c0,0.4,0,0.9,0,1.6v3.4c0,1.3-0.3,2.1-0.8,2.7c-0.6,0.5-1.4,0.7-2.1,0.7c-0.7,0-1.5-0.2-1.9-0.5
			l0.3-0.8c0.4,0.2,1,0.5,1.7,0.5c1.1,0,1.9-0.6,1.9-2v-0.6h0c-0.3,0.5-0.9,1-1.8,1c-1.4,0-2.5-1.2-2.5-2.8c0-2,1.3-3.1,2.6-3.1
			c1,0,1.6,0.5,1.8,1h0l0-0.9H861z M860,668.7c0-0.2,0-0.3-0.1-0.5c-0.2-0.6-0.7-1.1-1.5-1.1c-1,0-1.7,0.9-1.7,2.2
			c0,1.1,0.6,2.1,1.7,2.1c0.6,0,1.2-0.4,1.5-1.1c0.1-0.2,0.1-0.4,0.1-0.6V668.7z"/>
		<path fill="#221F1F" d="M863.3,669.5c0,1.4,0.9,2,2,2c0.8,0,1.2-0.1,1.6-0.3l0.2,0.8c-0.4,0.2-1,0.4-1.9,0.4
			c-1.8,0-2.9-1.2-2.9-2.9s1-3.1,2.7-3.1c1.9,0,2.4,1.7,2.4,2.7c0,0.2,0,0.4,0,0.5H863.3z M866.4,668.7c0-0.7-0.3-1.7-1.5-1.7
			c-1.1,0-1.5,1-1.6,1.7H866.4z"/>
		<path fill="#221F1F" d="M872,672.2l-0.1-0.7h0c-0.3,0.5-0.9,0.9-1.8,0.9c-1.2,0-1.8-0.8-1.8-1.7c0-1.4,1.2-2.2,3.5-2.2v-0.1
			c0-0.5-0.1-1.3-1.3-1.3c-0.5,0-1.1,0.2-1.5,0.4l-0.2-0.7c0.5-0.3,1.2-0.5,1.9-0.5c1.8,0,2.2,1.2,2.2,2.4v2.2c0,0.5,0,1,0.1,1.4
			H872z M871.8,669.2c-1.2,0-2.5,0.2-2.5,1.3c0,0.7,0.5,1,1,1c0.8,0,1.2-0.5,1.4-1c0-0.1,0.1-0.2,0.1-0.3V669.2z"/>
		<path fill="#221F1F" d="M874.5,672.2c0-0.4,0-1,0-1.5v-7h1v3.6h0c0.4-0.6,1-1.1,2-1.1c1.4,0,2.5,1.2,2.4,3c0,2.1-1.3,3.1-2.6,3.1
			c-0.8,0-1.5-0.3-1.9-1.1h0l0,1H874.5z M875.6,669.9c0,0.1,0,0.3,0,0.4c0.2,0.7,0.8,1.2,1.6,1.2c1.1,0,1.8-0.9,1.8-2.2
			c0-1.2-0.6-2.2-1.7-2.2c-0.7,0-1.4,0.5-1.6,1.3c0,0.1-0.1,0.3-0.1,0.4V669.9z"/>
		<path fill="#221F1F" d="M881.4,663.7h1.1v8.5h-1.1V663.7z"/>
		<path fill="#221F1F" d="M884.8,669.5c0,1.4,0.9,2,2,2c0.8,0,1.2-0.1,1.6-0.3l0.2,0.8c-0.4,0.2-1,0.4-1.9,0.4
			c-1.8,0-2.9-1.2-2.9-2.9s1-3.1,2.7-3.1c1.9,0,2.4,1.7,2.4,2.7c0,0.2,0,0.4,0,0.5H884.8z M887.9,668.7c0-0.7-0.3-1.7-1.5-1.7
			c-1.1,0-1.5,1-1.6,1.7H887.9z"/>
		<path fill="#221F1F" d="M893,668.6v0.8h-3v-0.8H893z"/>
		<path fill="#221F1F" d="M894.2,672.2c0-0.4,0-1,0-1.5v-7h1v3.6h0c0.4-0.6,1-1.1,2-1.1c1.4,0,2.5,1.2,2.4,3c0,2.1-1.3,3.1-2.6,3.1
			c-0.8,0-1.5-0.3-1.9-1.1h0l0,1H894.2z M895.3,669.9c0,0.1,0,0.3,0,0.4c0.2,0.7,0.8,1.2,1.6,1.2c1.1,0,1.8-0.9,1.8-2.2
			c0-1.2-0.6-2.2-1.7-2.2c-0.7,0-1.4,0.5-1.6,1.3c0,0.1-0.1,0.3-0.1,0.4V669.9z"/>
		<path fill="#221F1F" d="M901.1,663.7h1.1v8.5h-1.1V663.7z"/>
		<path fill="#221F1F" d="M905.1,664.8c0,0.4-0.3,0.6-0.7,0.6c-0.4,0-0.6-0.3-0.6-0.6c0-0.4,0.3-0.7,0.7-0.7
			C904.8,664.1,905.1,664.4,905.1,664.8z M903.9,672.2v-5.8h1.1v5.8H903.9z"/>
		<path fill="#221F1F" d="M906.7,668c0-0.6,0-1.1,0-1.6h0.9l0.1,1h0c0.3-0.6,1-1.1,1.9-1.1c0.8,0,2.1,0.5,2.1,2.5v3.5h-1.1v-3.3
			c0-0.9-0.3-1.7-1.3-1.7c-0.7,0-1.2,0.5-1.4,1.1c0,0.1-0.1,0.3-0.1,0.5v3.5h-1.1V668z"/>
		<path fill="#221F1F" d="M918.4,663.7v7c0,0.5,0,1.1,0,1.5h-0.9l0-1h0c-0.3,0.6-1,1.1-2,1.1c-1.4,0-2.5-1.2-2.5-3
			c0-1.9,1.2-3.1,2.6-3.1c0.9,0,1.5,0.4,1.8,0.9h0v-3.5H918.4z M917.3,668.8c0-0.1,0-0.3,0-0.4c-0.2-0.7-0.7-1.2-1.5-1.2
			c-1.1,0-1.7,1-1.7,2.2c0,1.2,0.6,2.1,1.7,2.1c0.7,0,1.4-0.5,1.5-1.3c0-0.1,0-0.3,0-0.5V668.8z"/>
		<path fill="#221F1F" d="M920.7,669.5c0,1.4,0.9,2,2,2c0.8,0,1.2-0.1,1.6-0.3l0.2,0.8c-0.4,0.2-1,0.4-1.9,0.4
			c-1.8,0-2.9-1.2-2.9-2.9s1-3.1,2.7-3.1c1.9,0,2.4,1.7,2.4,2.7c0,0.2,0,0.4,0,0.5H920.7z M923.8,668.7c0-0.7-0.3-1.7-1.5-1.7
			c-1.1,0-1.5,1-1.6,1.7H923.8z"/>
		<path fill="#221F1F" d="M926.2,668.2c0-0.7,0-1.3,0-1.8h0.9l0,1.1h0c0.3-0.8,0.9-1.3,1.6-1.3c0.1,0,0.2,0,0.3,0v1
			c-0.1,0-0.2,0-0.4,0c-0.7,0-1.3,0.6-1.4,1.4c0,0.1,0,0.3,0,0.5v3.1h-1V668.2z"/>
		<path fill="#221F1F" d="M932.5,668.6v0.8h-3v-0.8H932.5z"/>
		<path fill="#221F1F" d="M936.6,672.2v-2.1H933v-0.7l3.5-5h1.1v4.8h1.1v0.8h-1.1v2.1H936.6z M936.6,669.3v-2.6c0-0.4,0-0.8,0-1.2h0
			c-0.2,0.5-0.4,0.8-0.6,1.2l-1.9,2.7v0H936.6z"/>
		<path fill="#221F1F" d="M940.3,666.4l1.1,3.3c0.2,0.5,0.3,1,0.5,1.5h0c0.1-0.5,0.3-1,0.5-1.5l1.1-3.3h1.1l-2.3,5.8h-1l-2.2-5.8
			H940.3z"/>
		<path fill="#221F1F" d="M948,668.6v0.8h-3v-0.8H948z"/>
		<path fill="#221F1F" d="M949.2,672.2c0-0.4,0-1,0-1.5v-7h1v3.6h0c0.4-0.6,1-1.1,2-1.1c1.4,0,2.5,1.2,2.4,3c0,2.1-1.3,3.1-2.6,3.1
			c-0.8,0-1.5-0.3-1.9-1.1h0l0,1H949.2z M950.3,669.9c0,0.1,0,0.3,0,0.4c0.2,0.7,0.8,1.2,1.6,1.2c1.1,0,1.8-0.9,1.8-2.2
			c0-1.2-0.6-2.2-1.7-2.2c-0.7,0-1.4,0.5-1.6,1.3c0,0.1-0.1,0.3-0.1,0.4V669.9z"/>
		<path fill="#221F1F" d="M957.3,664.8c0,0.4-0.3,0.6-0.7,0.6c-0.4,0-0.6-0.3-0.6-0.6c0-0.4,0.3-0.7,0.7-0.7
			C957,664.1,957.3,664.4,957.3,664.8z M956.1,672.2v-5.8h1.1v5.8H956.1z"/>
		<path fill="#221F1F" d="M959.9,669.1L959.9,669.1c0.2-0.2,0.4-0.5,0.5-0.7l1.7-2h1.3l-2.2,2.4l2.6,3.4h-1.3l-2-2.8l-0.5,0.6v2.2
			h-1v-8.5h1V669.1z"/>
		<path fill="#221F1F" d="M965.1,669.5c0,1.4,0.9,2,2,2c0.8,0,1.2-0.1,1.6-0.3l0.2,0.8c-0.4,0.2-1,0.4-1.9,0.4
			c-1.8,0-2.9-1.2-2.9-2.9s1-3.1,2.7-3.1c1.9,0,2.4,1.7,2.4,2.7c0,0.2,0,0.4,0,0.5H965.1z M968.2,668.7c0-0.7-0.3-1.7-1.5-1.7
			c-1.1,0-1.5,1-1.6,1.7H968.2z"/>
		<path fill="#221F1F" d="M973.3,668.6v0.8h-3v-0.8H973.3z"/>
		<path fill="#221F1F" d="M974.6,663.7h1.1v8.5h-1.1V663.7z"/>
		<path fill="#221F1F" d="M978.6,664.8c0,0.4-0.3,0.6-0.7,0.6c-0.4,0-0.6-0.3-0.6-0.6c0-0.4,0.3-0.7,0.7-0.7
			C978.3,664.1,978.6,664.4,978.6,664.8z M977.4,672.2v-5.8h1.1v5.8H977.4z"/>
		<path fill="#221F1F" d="M985.2,666.4c0,0.4,0,0.9,0,1.6v3.4c0,1.3-0.3,2.1-0.8,2.7c-0.6,0.5-1.4,0.7-2.1,0.7
			c-0.7,0-1.5-0.2-1.9-0.5l0.3-0.8c0.4,0.2,1,0.5,1.7,0.5c1.1,0,1.9-0.6,1.9-2v-0.6h0c-0.3,0.5-0.9,1-1.8,1c-1.4,0-2.5-1.2-2.5-2.8
			c0-2,1.3-3.1,2.6-3.1c1,0,1.6,0.5,1.8,1h0l0-0.9H985.2z M984.1,668.7c0-0.2,0-0.3-0.1-0.5c-0.2-0.6-0.7-1.1-1.5-1.1
			c-1,0-1.7,0.9-1.7,2.2c0,1.1,0.6,2.1,1.7,2.1c0.6,0,1.2-0.4,1.5-1.1c0.1-0.2,0.1-0.4,0.1-0.6V668.7z"/>
		<path fill="#221F1F" d="M986.9,663.7h1.1v3.6h0c0.2-0.3,0.4-0.6,0.8-0.7c0.3-0.2,0.7-0.3,1.1-0.3c0.8,0,2,0.5,2,2.5v3.5h-1.1v-3.3
			c0-0.9-0.3-1.7-1.3-1.7c-0.7,0-1.2,0.5-1.4,1.1c-0.1,0.1-0.1,0.3-0.1,0.5v3.5h-1.1V663.7z"/>
		<path fill="#221F1F" d="M994.8,664.7v1.7h1.5v0.8h-1.5v3.1c0,0.7,0.2,1.1,0.8,1.1c0.3,0,0.5,0,0.6-0.1l0,0.8
			c-0.2,0.1-0.5,0.1-0.9,0.1c-0.5,0-0.9-0.2-1.1-0.4c-0.3-0.3-0.4-0.8-0.4-1.5v-3.2h-0.9v-0.8h0.9V665L994.8,664.7z"/>
		<path fill="#221F1F" d="M999.9,668.6v0.8h-3v-0.8H999.9z"/>
		<path fill="#221F1F" d="M1001.1,668.2c0-0.7,0-1.3,0-1.8h0.9l0,1.1h0c0.3-0.8,0.9-1.3,1.6-1.3c0.1,0,0.2,0,0.3,0v1
			c-0.1,0-0.2,0-0.4,0c-0.7,0-1.3,0.6-1.4,1.4c0,0.1,0,0.3,0,0.5v3.1h-1V668.2z"/>
		<path fill="#221F1F" d="M1005.5,669.5c0,1.4,0.9,2,2,2c0.8,0,1.2-0.1,1.6-0.3l0.2,0.8c-0.4,0.2-1,0.4-1.9,0.4
			c-1.8,0-2.9-1.2-2.9-2.9s1-3.1,2.7-3.1c1.9,0,2.4,1.7,2.4,2.7c0,0.2,0,0.4,0,0.5H1005.5z M1008.6,668.7c0-0.7-0.3-1.7-1.5-1.7
			c-1.1,0-1.5,1-1.6,1.7H1008.6z"/>
		<path fill="#221F1F" d="M1014.1,672.2l-0.1-0.7h0c-0.3,0.5-0.9,0.9-1.8,0.9c-1.2,0-1.8-0.8-1.8-1.7c0-1.4,1.2-2.2,3.5-2.2v-0.1
			c0-0.5-0.1-1.3-1.3-1.3c-0.5,0-1.1,0.2-1.5,0.4l-0.2-0.7c0.5-0.3,1.2-0.5,1.9-0.5c1.8,0,2.2,1.2,2.2,2.4v2.2c0,0.5,0,1,0.1,1.4
			H1014.1z M1014,669.2c-1.2,0-2.5,0.2-2.5,1.3c0,0.7,0.5,1,1,1c0.8,0,1.2-0.5,1.4-1c0-0.1,0.1-0.2,0.1-0.3V669.2z"/>
		<path fill="#221F1F" d="M1016.7,668.2c0-0.7,0-1.3,0-1.8h0.9l0,1.1h0c0.3-0.8,0.9-1.3,1.6-1.3c0.1,0,0.2,0,0.3,0v1
			c-0.1,0-0.2,0-0.4,0c-0.7,0-1.3,0.6-1.4,1.4c0,0.1,0,0.3,0,0.5v3.1h-1V668.2z"/>
		<path fill="#221F1F" d="M1023,668.6v0.8h-3v-0.8H1023z"/>
		<path fill="#221F1F" d="M1029.4,666.4c0,0.4,0,0.9,0,1.6v3.4c0,1.3-0.3,2.1-0.8,2.7c-0.6,0.5-1.4,0.7-2.1,0.7
			c-0.7,0-1.5-0.2-1.9-0.5l0.3-0.8c0.4,0.2,1,0.5,1.7,0.5c1.1,0,1.9-0.6,1.9-2v-0.6h0c-0.3,0.5-0.9,1-1.8,1c-1.4,0-2.5-1.2-2.5-2.8
			c0-2,1.3-3.1,2.6-3.1c1,0,1.6,0.5,1.8,1h0l0-0.9H1029.4z M1028.3,668.7c0-0.2,0-0.3-0.1-0.5c-0.2-0.6-0.7-1.1-1.5-1.1
			c-1,0-1.7,0.9-1.7,2.2c0,1.1,0.6,2.1,1.7,2.1c0.6,0,1.2-0.4,1.5-1.1c0.1-0.2,0.1-0.4,0.1-0.6V668.7z"/>
		<path fill="#221F1F" d="M1036.4,669.3c0,2.1-1.5,3.1-2.9,3.1c-1.6,0-2.8-1.2-2.8-3c0-1.9,1.3-3.1,2.9-3.1
			C1035.3,666.3,1036.4,667.5,1036.4,669.3z M1031.8,669.3c0,1.3,0.7,2.2,1.8,2.2c1,0,1.8-0.9,1.8-2.3c0-1-0.5-2.2-1.7-2.2
			C1032.3,667.1,1031.8,668.2,1031.8,669.3z"/>
		<path fill="#221F1F" d="M1037.7,663.7h1.1v8.5h-1.1V663.7z"/>
		<path fill="#221F1F" d="M1045.6,663.7v7c0,0.5,0,1.1,0,1.5h-0.9l0-1h0c-0.3,0.6-1,1.1-2,1.1c-1.4,0-2.5-1.2-2.5-3
			c0-1.9,1.2-3.1,2.6-3.1c0.9,0,1.5,0.4,1.8,0.9h0v-3.5H1045.6z M1044.5,668.8c0-0.1,0-0.3,0-0.4c-0.2-0.7-0.7-1.2-1.5-1.2
			c-1.1,0-1.7,1-1.7,2.2c0,1.2,0.6,2.1,1.7,2.1c0.7,0,1.4-0.5,1.5-1.3c0-0.1,0-0.3,0-0.5V668.8z"/>
	</g>
</g>
</svg>
