<!-- Generator: Adobe Illustrator 18.0.0, SVG Export Plug-In  -->
<svg version="1.1"
	 xmlns="http://www.w3.org/2000/svg" xmlns:xlink="http://www.w3.org/1999/xlink" xmlns:a="http://ns.adobe.com/AdobeSVGViewerExtensions/3.0/"
	 x="0px" y="0px" width="171.8px" height="266.5px" viewBox="0 0 171.8 266.5" enable-background="new 0 0 171.8 266.5"
	 xml:space="preserve">
<defs>
</defs>
<g>
	<g>
		<g>
			<path fill="none" stroke="#D6684D" stroke-width="7.6937" stroke-miterlimit="10" d="M84.9,262.7c1.9-0.3,3.5-1.4,4.4-3.1
				c2,0,3.8-0.7,5.1-1.9"/>
			<path fill="none" stroke="#D6684D" stroke-width="7.6937" stroke-miterlimit="10" d="M94.6,257.5c1.2-1.3,2-3,2-5.1l0.8,0.2
				c1.7,0.4,3.3,0.2,4.6-0.5"/>
			<path fill="none" stroke="#D6684D" stroke-width="7.6937" stroke-miterlimit="10" stroke-dasharray="11.1869,6.0237" d="
				M105.7,247.5c0.1-0.6,0.2-1.3,0.2-1.9V131.5c1.7-4.8,2.6-6.3,13.2-10.5c16.6-6.5,12.3-3,26-8.8s22.3-23.8,22.7-36.1
				c0.4-12.3-0.7-23.8-5.5-31.1c-4.9-7.3-17.2-13.2-25.1-15c-8-1.7-31.3-5.8-31.3-5.8h-3.7c-1.3-1.2-3-2.2-4.7-2.5l-8-1.7
				c-0.6-0.3-1.2-0.5-1.9-0.6l-29.8-6.1L27.7,6.9c-0.6-0.1-1.2-0.2-1.8-0.2L12.9,4c-5-1-9,2.3-9,7.3v6.3v3.9V233v2.3v1.2
				c0,5,3.8,9.9,8.4,10.9l36.4,7.9l22.1,5.5c1,0.3,2,0.2,2.9,0l8.2,1.8"/>
		</g>
		<g>
			<path fill="none" stroke="#D6684D" stroke-width="7.6937" stroke-miterlimit="10" d="M113.6,56.8c-2,0.3-3.9,0.5-5.5,0.7
				c-0.6-0.9-1.1-2.9-1.4-5.4"/>
			<path fill="none" stroke="#D6684D" stroke-width="7.6937" stroke-miterlimit="10" stroke-dasharray="6.5905,3.5487" d="
				M106.2,48.7c-0.1-1.5-0.2-3-0.3-4.5v-3.8"/>
			<path fill="none" stroke="#D6684D" stroke-width="7.6937" stroke-miterlimit="10" d="M105.9,38.6V33c1.9,0.4,3.8,0.8,5.5,1.1"/>
			<path fill="none" stroke="#D6684D" stroke-width="7.6937" stroke-miterlimit="10" stroke-dasharray="11.7407,6.3219" d="
				M117.5,35.6c17.4,4.4,18.1,7.4,19.7,8.4c2,1.3,4,6.1-4,9c-4,1.5-10.6,2.6-16.5,3.5"/>
		</g>
	</g>
</g>
</svg>
