<!-- Generator: Adobe Illustrator 18.0.0, SVG Export Plug-In  -->
<svg version="1.1"
	 xmlns="http://www.w3.org/2000/svg" xmlns:xlink="http://www.w3.org/1999/xlink" xmlns:a="http://ns.adobe.com/AdobeSVGViewerExtensions/3.0/"
	 x="0px" y="0px" width="527.7px" height="739.6px" viewBox="0 0 527.7 739.6" enable-background="new 0 0 527.7 739.6"
	 xml:space="preserve">
<defs>
</defs>
<g>
	<rect x="6.1" y="28.7" fill="#FFFFFF" width="361" height="659.2"/>
	<g id="fridge_2_">
		<rect x="0" y="7" fill="#DCDBDB" width="186.2" height="469.7"/>
		<rect x="0" y="482.1" fill="#DCDBDB" width="372.4" height="222.2"/>
		<path fill="#F5F6F8" d="M339.8,517.5H42.3c-4.4,0-8-3.6-8-8v-0.3c0-4.4,3.6-8,8-8h297.5c4.4,0,8,3.6,8,8v0.3
			C347.8,513.8,344.2,517.5,339.8,517.5z"/>
		<polygon fill="#5E5F5F" points="6.1,711.5 367.1,711.5 367.1,739.6 347.6,739.6 347.6,726 24.7,726 24.7,739.6 6.1,739.6 		"/>
		<rect x="186.2" y="28.7" fill="#5E5F5F" width="180.6" height="447.9"/>
		<rect x="186.2" y="39.6" fill="#ECECEE" width="171.8" height="424.4"/>
		<rect x="191" y="129.7" fill="#FFFFFD" width="158.7" height="9.1"/>
		<rect x="191" y="219.7" fill="#FFFFFD" width="158.7" height="9.1"/>
		<rect x="191" y="321.9" fill="#FFFFFD" width="158.7" height="9.1"/>
		<rect x="191" y="377.7" fill="#FFFFFD" width="158.7" height="9.1"/>
		<polygon fill="#5E5F5F" points="363.5,476.8 512.7,501.1 512.7,0.6 363,10.4 		"/>
		<polygon fill="#A9A9AA" points="512,0 527.8,4.2 527.8,501.1 512,501.1 		"/>
		<polygon fill="#DCDBDB" points="375.7,20.2 500.8,14.3 500.8,481.9 375.4,461 		"/>
		<g>
			<rect x="364.5" y="158.4" fill="#FAFDFC" width="118.6" height="44.4"/>
			<polygon fill="#FAFDFC" points="384.1,149.6 364.5,159.6 385.3,159.6 403.6,149.6 			"/>
			<polygon fill="#FAFDFC" points="481.5,149.6 462,159.6 482.8,159.6 501.1,149.6 			"/>
			<polygon fill="#A9A9AA" points="501.7,150.2 501.7,188.3 482.7,202.8 482.7,158.4 			"/>
		</g>
		<g>
			<polygon fill="#FAFDFC" points="364.7,265.6 482.7,265.6 482.7,312.5 364.7,305.6 			"/>
			<polygon fill="#FAFDFC" points="384.1,257.6 364.5,265.6 385.3,265.6 403.6,257.6 			"/>
			<polygon fill="#FAFDFC" points="481.5,257.6 462,265.6 482.8,265.6 501.1,257.6 			"/>
			<polygon fill="#A9A9AA" points="501.7,257.2 501.7,297.5 482.7,312.8 482.7,265.4 			"/>
		</g>
		<g>
			<polygon fill="#FAFDFC" points="364.7,359.2 482.7,366 482.7,409.6 364.7,397.1 			"/>
			<polygon fill="#FAFDFC" points="384.3,352.4 364.4,359.5 385.2,360.7 403.9,353.5 			"/>
			<polygon fill="#FAFDFC" points="481.7,357.9 461.7,364.9 482.5,366.1 501.2,358.9 			"/>
			<polygon fill="#A9A9AA" points="501.7,358.8 501.7,391.6 482.7,409.6 482.7,366 			"/>
		</g>
	</g>
</g>
</svg>
