<!-- Generator: Adobe Illustrator 18.0.0, SVG Export Plug-In  -->
<svg version="1.1"
	 xmlns="http://www.w3.org/2000/svg" xmlns:xlink="http://www.w3.org/1999/xlink" xmlns:a="http://ns.adobe.com/AdobeSVGViewerExtensions/3.0/"
	 x="0px" y="0px" width="123.8px" height="214.4px" viewBox="0 0 123.8 214.4" enable-background="new 0 0 123.8 214.4"
	 xml:space="preserve">
<defs>
</defs>
<g id="item_1_">
	<polygon fill="#F69782" points="109.1,72 0,69.2 0.2,61.2 109.3,64 	"/>
	<polygon id="body_1_" fill="#F1592A" points="89,214.4 12.8,212.5 4.1,69.3 104.6,71.8 	"/>
	<polygon fill="#F1592A" points="6.2,62.2 17.2,13.3 24.5,13.5 18.4,47.2 91.8,49 90,15.2 97.3,15.4 103.1,64.7 	"/>
	<polygon fill="#FFFFFF" points="24.5,13.5 90,15.2 91.8,49 18.4,47.2 	"/>
	<polygon fill="#BF3E27" points="17.2,14.1 31.7,0 110.7,2 97.3,16.1 	"/>
	<polygon fill="#7F2518" points="110.7,2 118.9,45.9 103.1,63.4 97.3,16.1 	"/>
	<polygon fill="#E55E47" points="0.2,61.2 8.3,52.5 7.2,61 	"/>
	<polygon fill="#E55E47" points="103.1,63.4 118.9,45.9 123.8,46 109.6,63.6 	"/>
	<polygon fill="#B93026" points="123.8,46 123.6,53.7 109.4,71.6 109.6,63.6 	"/>
	<polygon fill="#CCCCCC" points="24.5,14.3 38.2,0.2 102.6,1.8 90,15.9 	"/>
	<polygon fill="#501714" points="121.3,56.6 107.2,187 89,214.4 104.6,71.8 109.4,71.6 	"/>
</g>
</svg>
