<!-- Generator: Adobe Illustrator 18.0.0, SVG Export Plug-In  -->
<svg version="1.1"
	 xmlns="http://www.w3.org/2000/svg" xmlns:xlink="http://www.w3.org/1999/xlink" xmlns:a="http://ns.adobe.com/AdobeSVGViewerExtensions/3.0/"
	 x="0px" y="0px" width="408.7px" height="415.1px" viewBox="0 0 408.7 415.1" enable-background="new 0 0 408.7 415.1"
	 xml:space="preserve">
<defs>
</defs>
<g>
	<polygon fill="#CD3628" points="24.3,84.9 265.3,0 407.4,21.8 175.4,117.4 	"/>
	<polygon fill="#CD3628" points="182.6,114.6 185.7,415.1 391.5,287.3 408.7,20.8 	"/>
	<polygon fill="#CD3628" points="23.7,83.9 28.8,378.7 186.1,415.1 189.3,113.6 	"/>
	<polygon fill="#FCF7FA" points="152.3,43.9 218.6,101.2 190.4,412.6 208.6,401.5 239,92.8 171.7,37.2 	"/>
	<polygon fill="#FCF7FA" points="243.7,378.6 262.5,366.8 287.9,72 217.5,20.7 196.5,28.4 264.5,81.8 	"/>
	<line fill="#CD3628" x1="215.7" y1="329.1" x2="396.3" y2="208.8"/>
	<line fill="#CD3628" x1="215.5" y1="100.8" x2="290.5" y2="71"/>
	<path fill="#070908" d="M45.3,128.8c0,0-17.5,28.4-7.5,35.3s22.5,13.2,30.2,9.1c7.7-4.1,4.3-43.9,4.3-43.9L45.3,128.8z"/>
	<path fill="#070908" d="M32.1,295.2c0,0-24.9,18.1-28.4,21.4s-6.2,11.7-0.4,16.9c5.8,5.2,137.7,42.7,137.7,42.7s10.9,1.9,17.9-5.5
		s25.1-25.1,25.1-25.1s12.1-12.1,3.7-15.7c-8.4-3.6-8.3-6.1-19.5,2.5c-11.2,8.6-18.1,16.1-24,16c-5.9-0.1-110.1-29.4-110.1-29.4
		s-2.5-1.1,3.6-8.1s11.3-15.3,5.4-15.4S32.1,295.2,32.1,295.2z"/>
	<polygon fill="#0F1614" points="49.4,261 48.7,289.8 132,309.3 132.7,277.2 	"/>
	<path fill="#0F1614" stroke="#D6D6D6" stroke-width="5.573" stroke-miterlimit="10" d="M38.8,178.1c-0.8,34.6-1.8,83.7-1.8,83.7
		s2.4,6.8,14.2,8.8c11.8,1.9,85,17.1,85,17.1s8.3,7.8,8.7-10c0.4-17.7,1.7-78.6,1.7-78.6s2.6-4.2-10-6.1
		C123.9,190.9,38.8,178.1,38.8,178.1z"/>
	<polygon fill="#413F3F" points="81.1,108 79.8,170.5 140.5,180.3 141.8,119.5 	"/>
	<polygon fill="#413F3F" points="157.5,138 154.9,261.2 183.5,264.1 186.2,141.8 	"/>
	<path fill="#D6D6D6" d="M56.2,236.4l75.1,10.4c0,0,11.9-4.5,4.6-10.3c-12.8-10.2-78.3-15.2-78.3-15.2s-9.4-2.6-11.7,3.5
		c-1.1,2.9-0.7,8.4,4.3,10.4L56.2,236.4z"/>
	<path fill="#D6D6D6" d="M67.8,209.6l51.8,7.2c0,0,8.2-3.1,3.2-7.1c-8.8-7-54-10.5-54-10.5s-6.5-1.8-8.1,2.4c-0.7,2-0.5,5.8,3,7.2
		L67.8,209.6z"/>
	<g>
		
			<ellipse transform="matrix(0.9998 2.164677e-02 -2.164677e-02 0.9998 3.4326 -3.6754)" fill="#B9AEA9" cx="171.5" cy="156.7" rx="9.3" ry="11.2"/>
		
			<ellipse transform="matrix(0.9998 2.164677e-02 -2.164677e-02 0.9998 3.4326 -3.6754)" fill="#0B0E0B" cx="171.5" cy="156.7" rx="6.8" ry="8.2"/>
	</g>
	<g>
		
			<ellipse transform="matrix(0.9998 2.164677e-02 -2.164677e-02 0.9998 5.4007 -3.6115)" fill="#B9AEA9" cx="169.5" cy="247.7" rx="9.3" ry="8.8"/>
		
			<ellipse transform="matrix(0.9998 2.164677e-02 -2.164677e-02 0.9998 5.4007 -3.6115)" fill="#73B25D" cx="169.5" cy="247.7" rx="6.7" ry="6.3"/>
	</g>
	<g>
		
			<ellipse transform="matrix(0.9998 2.164677e-02 -2.164677e-02 0.9998 4.0902 -3.6541)" fill="#B9AEA9" cx="170.8" cy="187.1" rx="9.3" ry="11.2"/>
		
			<ellipse transform="matrix(0.9998 2.164677e-02 -2.164677e-02 0.9998 4.0902 -3.6541)" fill="#0B0E0B" cx="170.8" cy="187.1" rx="6.8" ry="8.2"/>
	</g>
	<g>
		
			<ellipse transform="matrix(0.9998 2.164677e-02 -2.164677e-02 0.9998 4.7166 -3.6337)" fill="#B9AEA9" cx="170.2" cy="216" rx="9.3" ry="11.2"/>
		
			<ellipse transform="matrix(0.9998 2.164677e-02 -2.164677e-02 0.9998 4.7166 -3.6337)" fill="#0B0E0B" cx="170.2" cy="216" rx="6.8" ry="8.2"/>
	</g>
	
		<ellipse transform="matrix(0.9998 2.164677e-02 -2.164677e-02 0.9998 5.6125 -0.9067)" fill="#B0B8B1" cx="44.7" cy="258.8" rx="3.2" ry="3.8"/>
	
		<ellipse transform="matrix(0.9998 2.164677e-02 -2.164677e-02 0.9998 4.0564 -0.9572)" fill="#B0B8B1" cx="46.2" cy="186.9" rx="3.2" ry="3.8"/>
	
		<ellipse transform="matrix(0.9998 2.164677e-02 -2.164677e-02 0.9998 6.089 -2.9088)" fill="#B0B8B1" cx="137.4" cy="279.8" rx="3.2" ry="3.8"/>
	
		<ellipse transform="matrix(0.9998 2.164677e-02 -2.164677e-02 0.9998 4.3697 -2.9842)" fill="#B0B8B1" cx="140" cy="200.4" rx="3.2" ry="3.8"/>
	<path fill="#EDE3CB" d="M85.3,151.9l13.4,4.3c0,0,0.6-7.6,5.6-8.4c5-0.8,8.6-0.3,10.7,4.5c2.1,4.8,4.8,8.9,4.8,8.9l10.8,0.2
		c0,0,4.1-22,0.6-26.5c-3.5-4.6-8.3-12.8-15.9-14.3s-13.4-4.3-19.8-0.4c-6.4,3.9-9.8,16.4-9.8,16.4L85.3,151.9z"/>
	<polygon fill="#413F3F" points="102.6,151.4 93.9,136.4 105.8,151.5 	"/>
	<path fill="#E43F66" d="M92.4,136.9c0,0,5.1-5.7,9.2-7c4.1-1.3,12.6-0.6,14.8,3.9s7,8.3,7,8.3s2.7,0.5,2.3-2.2s-5.7-6.9-6.1-8.2
		c-0.4-1.4-4.4-3.7-7.1-5.1c-2.7-1.4-5.4-1.9-11.2-0.2c-5.9,1.7-8.7,4.8-8.7,4.8L92.4,136.9z"/>
</g>
</svg>
