<!-- Generator: Adobe Illustrator 18.0.0, SVG Export Plug-In  -->
<svg version="1.1"
	 xmlns="http://www.w3.org/2000/svg" xmlns:xlink="http://www.w3.org/1999/xlink" xmlns:a="http://ns.adobe.com/AdobeSVGViewerExtensions/3.0/"
	 x="0px" y="0px" width="293.7px" height="308.2px" viewBox="0 0 293.7 308.2" enable-background="new 0 0 293.7 308.2"
	 xml:space="preserve">
<defs>
</defs>
<g>
	
		<line fill="none" stroke="#D6684D" stroke-width="5" stroke-miterlimit="10" stroke-dasharray="13.9877,7.5318" x1="15.9" y1="67.1" x2="187.5" y2="2.5"/>
	
		<line fill="none" stroke="#D6684D" stroke-width="5" stroke-miterlimit="10" stroke-dasharray="13.9877,7.5318" x1="151.3" y1="77.6" x2="204.7" y2="55"/>
	<path fill="none" stroke="#D6684D" stroke-width="5" stroke-miterlimit="10" stroke-dasharray="13.9877,7.5318" d="M291.1,17.2
		l-156,70L15.7,68.4l6,154c-5.2,4-14.9,11.5-16.7,13.2c-2.4,2.4-4.2,8.5,0,12.1c1.1,0.9,8.1,3.2,17.9,6.2l1,25.9l113.2,23.7l0,0.1
		l0.1,0l0.2,0l0-0.2l145.4-94.7L291.1,17.2z"/>
	<path fill="none" stroke="#D6684D" stroke-width="5" stroke-miterlimit="10" stroke-dasharray="13.9877,7.5318" d="M32.8,137.8
		c0,24.9,0,60.1,0,60.1s1.8,4.9,10.3,6.1c8.5,1.2,61.3,10.9,61.3,10.9s6.1,5.5,6.1-7.3s0-56.4,0-56.4s1.8-3-7.3-4.2
		S32.8,137.8,32.8,137.8z"/>
	<polygon fill="none" stroke="#D6684D" stroke-width="5" stroke-miterlimit="10" stroke-dasharray="13.9877,7.5318" points="
		55.1,84.8 55.1,129.7 98.7,135.8 98.7,92.1 	"/>
	
		<line fill="none" stroke="#D6684D" stroke-width="5" stroke-miterlimit="10" stroke-dasharray="13.9877,7.5318" x1="132.8" y1="87.2" x2="134.9" y2="303.5"/>
	
		<line fill="none" stroke="#D6684D" stroke-width="5" stroke-miterlimit="10" stroke-dasharray="13.9877,7.5318" x1="187.5" y1="2.5" x2="291.1" y2="17.2"/>
</g>
</svg>
