<!-- Generator: Adobe Illustrator 18.0.0, SVG Export Plug-In  -->
<svg version="1.1"
	 xmlns="http://www.w3.org/2000/svg" xmlns:xlink="http://www.w3.org/1999/xlink" xmlns:a="http://ns.adobe.com/AdobeSVGViewerExtensions/3.0/"
	 x="0px" y="0px" width="294.8px" height="309.6px" viewBox="0 0 294.8 309.6" enable-background="new 0 0 294.8 309.6"
	 xml:space="preserve">
<defs>
</defs>
<g>
	
		<line fill="none" stroke="#D6684D" stroke-width="6" stroke-miterlimit="10" stroke-dasharray="13.9877,7.5318" x1="16.4" y1="67.6" x2="188" y2="3"/>
	
		<line fill="none" stroke="#D6684D" stroke-width="6" stroke-miterlimit="10" stroke-dasharray="13.9877,7.5318" x1="151.8" y1="78.1" x2="205.2" y2="55.5"/>
	<path fill="none" stroke="#D6684D" stroke-width="6" stroke-miterlimit="10" stroke-dasharray="13.9877,7.5318" d="M291.6,17.7
		l-156,70L16.2,68.9l6,154c-5.2,4-14.9,11.5-16.7,13.2c-2.4,2.4-4.2,8.5,0,12.1c1.1,0.9,8.1,3.2,17.9,6.2l1,25.9L137.6,304l0,0.1
		l0.1,0l0.2,0l0-0.2l145.4-94.7L291.6,17.7z"/>
	<path fill="none" stroke="#D6684D" stroke-width="6" stroke-miterlimit="10" stroke-dasharray="13.9877,7.5318" d="M33.3,138.3
		c0,24.9,0,60.1,0,60.1s1.8,4.9,10.3,6.1c8.5,1.2,61.3,10.9,61.3,10.9s6.1,5.5,6.1-7.3s0-56.4,0-56.4s1.8-3-7.3-4.2
		S33.3,138.3,33.3,138.3z"/>
	<polygon fill="none" stroke="#D6684D" stroke-width="6" stroke-miterlimit="10" stroke-dasharray="13.9877,7.5318" points="
		55.6,85.3 55.6,130.2 99.2,136.3 99.2,92.6 	"/>
	
		<line fill="none" stroke="#D6684D" stroke-width="6" stroke-miterlimit="10" stroke-dasharray="13.9877,7.5318" x1="133.3" y1="87.7" x2="135.4" y2="304"/>
	
		<line fill="none" stroke="#D6684D" stroke-width="6" stroke-miterlimit="10" stroke-dasharray="13.9877,7.5318" x1="188" y1="3" x2="291.6" y2="17.7"/>
</g>
</svg>
