<!-- Generator: Adobe Illustrator 18.0.0, SVG Export Plug-In  -->
<svg version="1.1"
	 xmlns="http://www.w3.org/2000/svg" xmlns:xlink="http://www.w3.org/1999/xlink" xmlns:a="http://ns.adobe.com/AdobeSVGViewerExtensions/3.0/"
	 x="0px" y="0px" width="1115px" height="700px" viewBox="0 0 1115 700" enable-background="new 0 0 1115 700" xml:space="preserve"
	>
<defs>
</defs>
<g>
	<g id="details_1_">
		<rect x="0" y="0" fill="#FFFFFF" width="1115" height="700"/>
		<g>
			<path fill="#221F1F" d="M72.8,591.6l-1.8-4.5h-5.7l-1.8,4.5h-1.7l5.6-14.3h1.4l5.6,14.3H72.8z M70.5,585.6l-1.7-4.4
				c-0.2-0.6-0.4-1.2-0.7-2.1c-0.1,0.6-0.3,1.3-0.6,2.1l-1.7,4.4H70.5z"/>
			<path fill="#221F1F" d="M85,580.9v1l-2,0.2c0.2,0.2,0.3,0.5,0.5,0.9s0.2,0.8,0.2,1.2c0,1-0.4,1.9-1.1,2.5
				c-0.7,0.6-1.7,0.9-2.9,0.9c-0.3,0-0.6,0-0.9-0.1c-0.7,0.4-1,0.8-1,1.4c0,0.3,0.1,0.5,0.4,0.6s0.7,0.2,1.2,0.2h1.9
				c1.2,0,2,0.2,2.7,0.7c0.6,0.5,0.9,1.2,0.9,2.1c0,1.2-0.5,2.1-1.4,2.7s-2.3,0.9-4.2,0.9c-1.4,0-2.5-0.3-3.2-0.8s-1.1-1.3-1.1-2.2
				c0-0.7,0.2-1.2,0.6-1.7s1-0.8,1.8-1c-0.3-0.1-0.5-0.3-0.7-0.6s-0.3-0.6-0.3-0.9c0-0.4,0.1-0.7,0.3-1s0.5-0.6,1-0.8
				c-0.6-0.2-1-0.6-1.4-1.2s-0.5-1.2-0.5-1.9c0-1.2,0.4-2.1,1.1-2.7s1.7-1,3-1c0.6,0,1.1,0.1,1.5,0.2H85z M76.4,593.4
				c0,0.6,0.2,1,0.7,1.3s1.2,0.4,2.1,0.4c1.4,0,2.4-0.2,3-0.6c0.7-0.4,1-1,1-1.7c0-0.6-0.2-1-0.5-1.2s-1-0.3-2-0.3h-1.9
				c-0.7,0-1.3,0.2-1.7,0.5C76.7,592.3,76.4,592.8,76.4,593.4z M77.3,584.4c0,0.7,0.2,1.3,0.6,1.7c0.4,0.4,1,0.6,1.8,0.6
				c1.6,0,2.4-0.8,2.4-2.3c0-1.6-0.8-2.4-2.4-2.4c-0.8,0-1.3,0.2-1.8,0.6C77.5,583,77.3,583.6,77.3,584.4z"/>
			<path fill="#221F1F" d="M87.4,591.6v-14.3h1.7v14.3H87.4z"/>
			<path fill="#221F1F" d="M100,590.2L100,590.2c-0.8,1.1-2,1.6-3.4,1.6c-1.4,0-2.5-0.5-3.3-1.4s-1.2-2.3-1.2-4.1s0.4-3.1,1.2-4.1
				s1.9-1.5,3.3-1.5c1.4,0,2.6,0.5,3.3,1.6h0.1l-0.1-0.8l0-0.8v-4.4h1.6v15.2h-1.3L100,590.2z M96.8,590.5c1.1,0,1.9-0.3,2.4-0.9
				s0.7-1.6,0.7-2.9v-0.3c0-1.5-0.3-2.6-0.8-3.2c-0.5-0.6-1.3-1-2.4-1c-0.9,0-1.7,0.4-2.2,1.1s-0.8,1.8-0.8,3.1
				c0,1.4,0.2,2.4,0.8,3.1S95.8,590.5,96.8,590.5z"/>
			<path fill="#221F1F" d="M109.5,591.8c-1.6,0-2.8-0.5-3.7-1.4s-1.4-2.3-1.4-4c0-1.7,0.4-3.1,1.3-4.1c0.8-1,2-1.5,3.4-1.5
				c1.3,0,2.4,0.4,3.2,1.3s1.2,2,1.2,3.5v1H106c0,1.3,0.3,2.2,1,2.9s1.4,1,2.5,1c1.1,0,2.3-0.2,3.4-0.7v1.4
				c-0.6,0.2-1.1,0.4-1.6,0.5C110.8,591.8,110.2,591.8,109.5,591.8z M109,582.1c-0.9,0-1.5,0.3-2.1,0.8c-0.5,0.6-0.8,1.3-0.9,2.3
				h5.6c0-1-0.2-1.8-0.7-2.3C110.5,582.4,109.9,582.1,109,582.1z"/>
			<path fill="#221F1F" d="M122.7,591.6l-0.3-1.5h-0.1c-0.5,0.7-1.1,1.1-1.6,1.4c-0.5,0.2-1.2,0.4-2,0.4c-1.1,0-1.9-0.3-2.5-0.8
				s-0.9-1.3-0.9-2.3c0-2.2,1.7-3.3,5.2-3.4l1.8-0.1v-0.7c0-0.8-0.2-1.5-0.5-1.9c-0.4-0.4-0.9-0.6-1.7-0.6c-0.9,0-1.9,0.3-3,0.8
				l-0.5-1.2c0.5-0.3,1.1-0.5,1.7-0.7s1.3-0.2,1.9-0.2c1.3,0,2.2,0.3,2.8,0.8c0.6,0.6,0.9,1.5,0.9,2.7v7.3H122.7z M119.1,590.5
				c1,0,1.8-0.3,2.4-0.8s0.9-1.3,0.9-2.3v-1l-1.6,0.1c-1.3,0-2.2,0.2-2.8,0.6c-0.6,0.4-0.9,0.9-0.9,1.7c0,0.6,0.2,1,0.5,1.3
				C117.9,590.3,118.4,590.5,119.1,590.5z"/>
			<path fill="#221F1F" d="M134.2,588.7c0,1-0.4,1.8-1.1,2.3s-1.8,0.8-3.1,0.8c-1.4,0-2.5-0.2-3.3-0.7v-1.5c0.5,0.3,1.1,0.5,1.7,0.6
				c0.6,0.1,1.2,0.2,1.7,0.2c0.8,0,1.5-0.1,1.9-0.4c0.5-0.3,0.7-0.7,0.7-1.2c0-0.4-0.2-0.8-0.5-1.1c-0.4-0.3-1.1-0.6-2.1-1
				c-1-0.4-1.7-0.7-2.1-1c-0.4-0.3-0.7-0.6-0.9-0.9s-0.3-0.8-0.3-1.3c0-0.9,0.4-1.6,1.1-2.1c0.7-0.5,1.7-0.8,2.9-0.8
				c1.1,0,2.3,0.2,3.4,0.7l-0.6,1.3c-1.1-0.4-2-0.7-2.9-0.7c-0.8,0-1.3,0.1-1.7,0.4c-0.4,0.2-0.6,0.6-0.6,1c0,0.3,0.1,0.5,0.2,0.7
				c0.1,0.2,0.4,0.4,0.7,0.6c0.3,0.2,0.9,0.4,1.9,0.8c1.3,0.5,2.1,0.9,2.6,1.4C133.9,587.4,134.2,588,134.2,588.7z"/>
			<path fill="#221F1F" d="M146.5,591.8c-1.6,0-2.8-0.5-3.7-1.4s-1.4-2.3-1.4-4c0-1.7,0.4-3.1,1.3-4.1c0.8-1,2-1.5,3.4-1.5
				c1.3,0,2.4,0.4,3.2,1.3s1.2,2,1.2,3.5v1H143c0,1.3,0.3,2.2,1,2.9s1.4,1,2.5,1c1.1,0,2.3-0.2,3.4-0.7v1.4
				c-0.6,0.2-1.1,0.4-1.6,0.5C147.8,591.8,147.2,591.8,146.5,591.8z M146,582.1c-0.9,0-1.5,0.3-2.1,0.8c-0.5,0.6-0.8,1.3-0.9,2.3
				h5.6c0-1-0.2-1.8-0.7-2.3C147.5,582.4,146.9,582.1,146,582.1z"/>
			<path fill="#221F1F" d="M160.1,588.7c0,1-0.4,1.8-1.1,2.3s-1.8,0.8-3.1,0.8c-1.4,0-2.5-0.2-3.3-0.7v-1.5c0.5,0.3,1.1,0.5,1.7,0.6
				c0.6,0.1,1.2,0.2,1.7,0.2c0.8,0,1.5-0.1,1.9-0.4c0.5-0.3,0.7-0.7,0.7-1.2c0-0.4-0.2-0.8-0.5-1.1c-0.4-0.3-1.1-0.6-2.1-1
				c-1-0.4-1.7-0.7-2.1-1c-0.4-0.3-0.7-0.6-0.9-0.9s-0.3-0.8-0.3-1.3c0-0.9,0.4-1.6,1.1-2.1c0.7-0.5,1.7-0.8,2.9-0.8
				c1.1,0,2.3,0.2,3.4,0.7l-0.6,1.3c-1.1-0.4-2-0.7-2.9-0.7c-0.8,0-1.3,0.1-1.7,0.4c-0.4,0.2-0.6,0.6-0.6,1c0,0.3,0.1,0.5,0.2,0.7
				c0.1,0.2,0.4,0.4,0.7,0.6c0.3,0.2,0.9,0.4,1.9,0.8c1.3,0.5,2.1,0.9,2.6,1.4C159.8,587.4,160.1,588,160.1,588.7z"/>
			<path fill="#221F1F" d="M166.1,590.5c0.3,0,0.6,0,0.8-0.1c0.3,0,0.5-0.1,0.6-0.1v1.2c-0.2,0.1-0.4,0.2-0.8,0.2
				c-0.3,0.1-0.6,0.1-0.9,0.1c-2.1,0-3.1-1.1-3.1-3.3v-6.4h-1.5v-0.8l1.5-0.7l0.7-2.3h0.9v2.5h3.1v1.3h-3.1v6.3
				c0,0.6,0.2,1.1,0.5,1.5C165.2,590.3,165.6,590.5,166.1,590.5z"/>
			<path fill="#221F1F" d="M176.3,591.6l-0.3-1.5h-0.1c-0.5,0.7-1.1,1.1-1.6,1.4c-0.5,0.2-1.2,0.4-2,0.4c-1.1,0-1.9-0.3-2.5-0.8
				s-0.9-1.3-0.9-2.3c0-2.2,1.7-3.3,5.2-3.4l1.8-0.1v-0.7c0-0.8-0.2-1.5-0.5-1.9c-0.4-0.4-0.9-0.6-1.7-0.6c-0.9,0-1.9,0.3-3,0.8
				l-0.5-1.2c0.5-0.3,1.1-0.5,1.7-0.7s1.3-0.2,1.9-0.2c1.3,0,2.2,0.3,2.8,0.8c0.6,0.6,0.9,1.5,0.9,2.7v7.3H176.3z M172.7,590.5
				c1,0,1.8-0.3,2.4-0.8s0.9-1.3,0.9-2.3v-1l-1.6,0.1c-1.3,0-2.2,0.2-2.8,0.6c-0.6,0.4-0.9,0.9-0.9,1.7c0,0.6,0.2,1,0.5,1.3
				C171.5,590.3,172,590.5,172.7,590.5z"/>
			<path fill="#221F1F" d="M185.8,580.8c1.4,0,2.5,0.5,3.3,1.4c0.8,1,1.2,2.3,1.2,4.1s-0.4,3.1-1.2,4.1c-0.8,1-1.9,1.5-3.3,1.5
				c-0.7,0-1.3-0.1-1.9-0.4c-0.6-0.3-1.1-0.7-1.4-1.2h-0.1l-0.3,1.4h-1.2v-15.2h1.6v3.7c0,0.8,0,1.6-0.1,2.2h0.1
				C183.2,581.3,184.3,580.8,185.8,580.8z M185.6,582.1c-1.1,0-1.9,0.3-2.4,1s-0.7,1.7-0.7,3.2s0.2,2.6,0.8,3.2s1.3,1,2.4,1
				c1,0,1.7-0.4,2.2-1.1s0.7-1.8,0.7-3.1c0-1.4-0.2-2.4-0.7-3.1S186.6,582.1,185.6,582.1z"/>
			<path fill="#221F1F" d="M194.7,591.6h-1.6v-15.2h1.6V591.6z"/>
			<path fill="#221F1F" d="M198,578c0-0.4,0.1-0.6,0.3-0.8c0.2-0.2,0.4-0.3,0.7-0.3c0.3,0,0.5,0.1,0.7,0.3c0.2,0.2,0.3,0.4,0.3,0.8
				s-0.1,0.6-0.3,0.8c-0.2,0.2-0.4,0.3-0.7,0.3c-0.3,0-0.5-0.1-0.7-0.3C198.1,578.7,198,578.4,198,578z M199.7,591.6h-1.6v-10.7h1.6
				V591.6z"/>
			<path fill="#221F1F" d="M210.1,588.7c0,1-0.4,1.8-1.1,2.3s-1.8,0.8-3.1,0.8c-1.4,0-2.5-0.2-3.3-0.7v-1.5c0.5,0.3,1.1,0.5,1.7,0.6
				c0.6,0.1,1.2,0.2,1.7,0.2c0.8,0,1.5-0.1,1.9-0.4c0.5-0.3,0.7-0.7,0.7-1.2c0-0.4-0.2-0.8-0.5-1.1c-0.4-0.3-1.1-0.6-2.1-1
				c-1-0.4-1.7-0.7-2.1-1c-0.4-0.3-0.7-0.6-0.9-0.9s-0.3-0.8-0.3-1.3c0-0.9,0.4-1.6,1.1-2.1c0.7-0.5,1.7-0.8,2.9-0.8
				c1.1,0,2.3,0.2,3.4,0.7l-0.6,1.3c-1.1-0.4-2-0.7-2.9-0.7c-0.8,0-1.3,0.1-1.7,0.4c-0.4,0.2-0.6,0.6-0.6,1c0,0.3,0.1,0.5,0.2,0.7
				c0.1,0.2,0.4,0.4,0.7,0.6c0.3,0.2,0.9,0.4,1.9,0.8c1.3,0.5,2.1,0.9,2.6,1.4C209.8,587.4,210.1,588,210.1,588.7z"/>
			<path fill="#221F1F" d="M220,591.6v-6.9c0-0.9-0.2-1.5-0.6-2s-1-0.6-1.9-0.6c-1.1,0-1.9,0.3-2.5,0.9s-0.8,1.6-0.8,3v5.6h-1.6
				v-15.2h1.6v4.6c0,0.6,0,1-0.1,1.4h0.1c0.3-0.5,0.8-0.9,1.4-1.2c0.6-0.3,1.3-0.4,2-0.4c1.3,0,2.3,0.3,2.9,0.9c0.7,0.6,1,1.6,1,3v7
				H220z"/>
			<path fill="#221F1F" d="M229.5,591.8c-1.6,0-2.8-0.5-3.7-1.4s-1.4-2.3-1.4-4c0-1.7,0.4-3.1,1.3-4.1c0.8-1,2-1.5,3.4-1.5
				c1.3,0,2.4,0.4,3.2,1.3s1.2,2,1.2,3.5v1H226c0,1.3,0.3,2.2,1,2.9s1.4,1,2.5,1c1.1,0,2.3-0.2,3.4-0.7v1.4
				c-0.6,0.2-1.1,0.4-1.6,0.5C230.8,591.8,230.2,591.8,229.5,591.8z M229,582.1c-0.9,0-1.5,0.3-2.1,0.8c-0.5,0.6-0.8,1.3-0.9,2.3
				h5.6c0-1-0.2-1.8-0.7-2.3C230.5,582.4,229.9,582.1,229,582.1z"/>
			<path fill="#221F1F" d="M243.4,590.2L243.4,590.2c-0.8,1.1-2,1.6-3.4,1.6c-1.4,0-2.5-0.5-3.3-1.4s-1.2-2.3-1.2-4.1
				s0.4-3.1,1.2-4.1s1.9-1.5,3.3-1.5c1.4,0,2.6,0.5,3.3,1.6h0.1l-0.1-0.8l0-0.8v-4.4h1.6v15.2h-1.3L243.4,590.2z M240.2,590.5
				c1.1,0,1.9-0.3,2.4-0.9s0.7-1.6,0.7-2.9v-0.3c0-1.5-0.3-2.6-0.8-3.2c-0.5-0.6-1.3-1-2.4-1c-0.9,0-1.7,0.4-2.2,1.1
				s-0.8,1.8-0.8,3.1c0,1.4,0.2,2.4,0.8,3.1S239.2,590.5,240.2,590.5z"/>
			<path fill="#221F1F" d="M253.4,578c0-0.4,0.1-0.6,0.3-0.8c0.2-0.2,0.4-0.3,0.7-0.3c0.3,0,0.5,0.1,0.7,0.3
				c0.2,0.2,0.3,0.4,0.3,0.8s-0.1,0.6-0.3,0.8c-0.2,0.2-0.4,0.3-0.7,0.3c-0.3,0-0.5-0.1-0.7-0.3C253.5,578.7,253.4,578.4,253.4,578z
				 M255.2,591.6h-1.6v-10.7h1.6V591.6z"/>
			<path fill="#221F1F" d="M265.9,591.6v-6.9c0-0.9-0.2-1.5-0.6-2s-1-0.6-1.9-0.6c-1.1,0-1.9,0.3-2.5,0.9s-0.8,1.6-0.8,3v5.6h-1.6
				v-10.7h1.3l0.3,1.5h0.1c0.3-0.5,0.8-0.9,1.4-1.2c0.6-0.3,1.3-0.4,2-0.4c1.3,0,2.3,0.3,2.9,0.9c0.6,0.6,1,1.6,1,3v7H265.9z"/>
			<path fill="#221F1F" d="M282.6,591.6l-4.8-12.7h-0.1c0.1,1,0.1,2.2,0.1,3.6v9.1h-1.5v-14.3h2.5l4.5,11.8h0.1l4.6-11.8h2.5v14.3
				h-1.7v-9.2c0-1.1,0-2.2,0.1-3.4h-0.1l-4.9,12.6H282.6z"/>
			<path fill="#221F1F" d="M298.6,591.8c-1.6,0-2.8-0.5-3.7-1.4s-1.4-2.3-1.4-4c0-1.7,0.4-3.1,1.3-4.1c0.8-1,2-1.5,3.4-1.5
				c1.3,0,2.4,0.4,3.2,1.3s1.2,2,1.2,3.5v1h-7.4c0,1.3,0.3,2.2,1,2.9s1.4,1,2.5,1c1.1,0,2.3-0.2,3.4-0.7v1.4
				c-0.6,0.2-1.1,0.4-1.6,0.5C299.9,591.8,299.3,591.8,298.6,591.8z M298.1,582.1c-0.9,0-1.5,0.3-2.1,0.8c-0.5,0.6-0.8,1.3-0.9,2.3
				h5.6c0-1-0.2-1.8-0.7-2.3C299.6,582.4,299,582.1,298.1,582.1z"/>
			<path fill="#221F1F" d="M306.9,591.6h-1.6v-15.2h1.6V591.6z"/>
			<path fill="#221F1F" d="M315.3,580.8c1.4,0,2.5,0.5,3.3,1.4c0.8,1,1.2,2.3,1.2,4.1s-0.4,3.1-1.2,4.1c-0.8,1-1.9,1.5-3.3,1.5
				c-0.7,0-1.3-0.1-1.9-0.4c-0.6-0.3-1.1-0.7-1.4-1.2h-0.1l-0.3,1.4h-1.2v-15.2h1.6v3.7c0,0.8,0,1.6-0.1,2.2h0.1
				C312.7,581.3,313.8,580.8,315.3,580.8z M315.1,582.1c-1.1,0-1.9,0.3-2.4,1s-0.7,1.7-0.7,3.2s0.2,2.6,0.8,3.2s1.3,1,2.4,1
				c1,0,1.7-0.4,2.2-1.1s0.7-1.8,0.7-3.1c0-1.4-0.2-2.4-0.7-3.1S316.1,582.1,315.1,582.1z"/>
			<path fill="#221F1F" d="M331.8,586.3c0,1.7-0.4,3.1-1.3,4.1c-0.9,1-2.1,1.5-3.6,1.5c-1,0-1.8-0.2-2.5-0.7s-1.3-1.1-1.7-1.9
				s-0.6-1.8-0.6-2.9c0-1.7,0.4-3.1,1.3-4.1c0.9-1,2.1-1.5,3.6-1.5c1.5,0,2.7,0.5,3.6,1.5C331.3,583.2,331.8,584.6,331.8,586.3z
				 M323.6,586.3c0,1.4,0.3,2.4,0.8,3.1s1.3,1.1,2.4,1.1c1.1,0,1.9-0.4,2.4-1.1c0.5-0.7,0.8-1.8,0.8-3.1c0-1.4-0.3-2.4-0.8-3.1
				c-0.5-0.7-1.4-1.1-2.4-1.1c-1.1,0-1.9,0.3-2.4,1C323.9,583.9,323.6,584.9,323.6,586.3z"/>
			<path fill="#221F1F" d="M336.1,580.9v6.9c0,0.9,0.2,1.5,0.6,2s1,0.6,1.9,0.6c1.1,0,1.9-0.3,2.5-0.9s0.8-1.6,0.8-3v-5.6h1.6v10.7
				h-1.3l-0.2-1.4h-0.1c-0.3,0.5-0.8,0.9-1.4,1.2c-0.6,0.3-1.3,0.4-2,0.4c-1.3,0-2.3-0.3-2.9-0.9s-1-1.6-1-3v-7H336.1z"/>
			<path fill="#221F1F" d="M351.7,580.7c0.5,0,0.9,0,1.3,0.1l-0.2,1.5c-0.4-0.1-0.8-0.1-1.2-0.1c-0.9,0-1.6,0.4-2.2,1.1
				c-0.6,0.7-0.9,1.6-0.9,2.6v5.7h-1.6v-10.7h1.3l0.2,2h0.1c0.4-0.7,0.9-1.2,1.4-1.6C350.5,580.9,351.1,580.7,351.7,580.7z"/>
			<path fill="#221F1F" d="M362.3,591.6v-6.9c0-0.9-0.2-1.5-0.6-2s-1-0.6-1.9-0.6c-1.1,0-1.9,0.3-2.5,0.9s-0.8,1.6-0.8,3v5.6H355
				v-10.7h1.3l0.3,1.5h0.1c0.3-0.5,0.8-0.9,1.4-1.2c0.6-0.3,1.3-0.4,2-0.4c1.3,0,2.3,0.3,2.9,0.9c0.6,0.6,1,1.6,1,3v7H362.3z"/>
			<path fill="#221F1F" d="M371.8,591.8c-1.6,0-2.8-0.5-3.7-1.4s-1.4-2.3-1.4-4c0-1.7,0.4-3.1,1.3-4.1c0.8-1,2-1.5,3.4-1.5
				c1.3,0,2.4,0.4,3.2,1.3s1.2,2,1.2,3.5v1h-7.4c0,1.3,0.3,2.2,1,2.9s1.4,1,2.5,1c1.1,0,2.3-0.2,3.4-0.7v1.4
				c-0.6,0.2-1.1,0.4-1.6,0.5C373.1,591.8,372.5,591.8,371.8,591.8z M371.3,582.1c-0.9,0-1.5,0.3-2.1,0.8c-0.5,0.6-0.8,1.3-0.9,2.3
				h5.6c0-1-0.2-1.8-0.7-2.3C372.8,582.4,372.2,582.1,371.3,582.1z"/>
			<path fill="#221F1F" d="M383.5,578c0-0.4,0.1-0.6,0.3-0.8c0.2-0.2,0.4-0.3,0.7-0.3c0.3,0,0.5,0.1,0.7,0.3
				c0.2,0.2,0.3,0.4,0.3,0.8s-0.1,0.6-0.3,0.8c-0.2,0.2-0.4,0.3-0.7,0.3c-0.3,0-0.5-0.1-0.7-0.3C383.6,578.7,383.5,578.4,383.5,578z
				 M385.3,591.6h-1.6v-10.7h1.6V591.6z"/>
			<path fill="#221F1F" d="M396,591.6v-6.9c0-0.9-0.2-1.5-0.6-2s-1-0.6-1.9-0.6c-1.1,0-1.9,0.3-2.5,0.9s-0.8,1.6-0.8,3v5.6h-1.6
				v-10.7h1.3l0.3,1.5h0.1c0.3-0.5,0.8-0.9,1.4-1.2c0.6-0.3,1.3-0.4,2-0.4c1.3,0,2.3,0.3,2.9,0.9c0.6,0.6,1,1.6,1,3v7H396z"/>
			<path fill="#221F1F" d="M68.8,615.6h-1.6v-10.2c0-0.8,0-1.6,0.1-2.4c-0.1,0.1-0.3,0.3-0.5,0.4c-0.2,0.1-0.9,0.8-2.3,1.9l-0.9-1.1
				l3.8-2.9h1.4V615.6z"/>
			<path fill="#221F1F" d="M83.6,607.5c0,5.6-2.2,8.4-6.5,8.4c-0.8,0-1.4-0.1-1.8-0.2v-1.4c0.5,0.2,1.1,0.3,1.8,0.3
				c1.6,0,2.7-0.5,3.5-1.5s1.2-2.4,1.3-4.4h-0.1c-0.4,0.5-0.8,1-1.4,1.2s-1.3,0.4-2,0.4c-1.3,0-2.3-0.4-3-1.1s-1.1-1.8-1.1-3.2
				c0-1.5,0.4-2.7,1.2-3.5s1.9-1.3,3.3-1.3c1,0,1.8,0.2,2.5,0.7c0.7,0.5,1.3,1.2,1.7,2.2C83.4,605,83.6,606.2,83.6,607.5z
				 M78.8,602.5c-0.9,0-1.6,0.3-2.2,0.9s-0.8,1.4-0.8,2.5c0,0.9,0.2,1.7,0.7,2.2s1.2,0.8,2.1,0.8c0.6,0,1.1-0.1,1.6-0.4
				c0.5-0.2,0.9-0.6,1.2-1c0.3-0.4,0.4-0.9,0.4-1.3c0-0.7-0.1-1.3-0.4-1.9c-0.3-0.6-0.6-1-1.1-1.4S79.5,602.5,78.8,602.5z"/>
			<path fill="#221F1F" d="M95,607.5c0,5.6-2.2,8.4-6.5,8.4c-0.8,0-1.4-0.1-1.8-0.2v-1.4c0.5,0.2,1.1,0.3,1.8,0.3
				c1.6,0,2.7-0.5,3.5-1.5s1.2-2.4,1.3-4.4h-0.1c-0.4,0.5-0.8,1-1.4,1.2s-1.3,0.4-2,0.4c-1.3,0-2.3-0.4-3-1.1s-1.1-1.8-1.1-3.2
				c0-1.5,0.4-2.7,1.2-3.5s1.9-1.3,3.3-1.3c1,0,1.8,0.2,2.5,0.7c0.7,0.5,1.3,1.2,1.7,2.2C94.8,605,95,606.2,95,607.5z M90.2,602.5
				c-0.9,0-1.6,0.3-2.2,0.9s-0.8,1.4-0.8,2.5c0,0.9,0.2,1.7,0.7,2.2s1.2,0.8,2.1,0.8c0.6,0,1.1-0.1,1.6-0.4c0.5-0.2,0.9-0.6,1.2-1
				c0.3-0.4,0.4-0.9,0.4-1.3c0-0.7-0.1-1.3-0.4-1.9c-0.3-0.6-0.6-1-1.1-1.4S90.9,602.5,90.2,602.5z"/>
			<path fill="#221F1F" d="M106.5,608.5c0,2.5-0.4,4.3-1.2,5.5s-2,1.8-3.6,1.8c-1.5,0-2.7-0.6-3.5-1.9c-0.8-1.2-1.2-3.1-1.2-5.5
				c0-2.5,0.4-4.3,1.2-5.5c0.8-1.2,2-1.8,3.5-1.8c1.5,0,2.7,0.6,3.5,1.9S106.5,606.1,106.5,608.5z M98.7,608.5
				c0,2.1,0.2,3.6,0.7,4.5s1.3,1.4,2.3,1.4c1.1,0,1.9-0.5,2.3-1.4c0.5-1,0.7-2.5,0.7-4.5s-0.2-3.6-0.7-4.5c-0.5-1-1.3-1.4-2.3-1.4
				c-1.1,0-1.8,0.5-2.3,1.4S98.7,606.4,98.7,608.5z"/>
			<path fill="#221F1F" d="M114.3,602c0-0.4,0.1-0.6,0.3-0.8c0.2-0.2,0.4-0.3,0.7-0.3c0.3,0,0.5,0.1,0.7,0.3
				c0.2,0.2,0.3,0.4,0.3,0.8s-0.1,0.6-0.3,0.8c-0.2,0.2-0.4,0.3-0.7,0.3c-0.3,0-0.5-0.1-0.7-0.3C114.4,602.7,114.3,602.4,114.3,602z
				 M116,615.6h-1.6v-10.7h1.6V615.6z"/>
			<path fill="#221F1F" d="M126.4,612.7c0,1-0.4,1.8-1.1,2.3s-1.8,0.8-3.1,0.8c-1.4,0-2.5-0.2-3.3-0.7v-1.5c0.5,0.3,1.1,0.5,1.7,0.6
				c0.6,0.1,1.2,0.2,1.7,0.2c0.8,0,1.5-0.1,1.9-0.4c0.5-0.3,0.7-0.7,0.7-1.2c0-0.4-0.2-0.8-0.5-1.1c-0.4-0.3-1.1-0.6-2.1-1
				c-1-0.4-1.7-0.7-2.1-1c-0.4-0.3-0.7-0.6-0.9-0.9s-0.3-0.8-0.3-1.3c0-0.9,0.4-1.6,1.1-2.1c0.7-0.5,1.7-0.8,2.9-0.8
				c1.1,0,2.3,0.2,3.4,0.7l-0.6,1.3c-1.1-0.4-2-0.7-2.9-0.7c-0.8,0-1.3,0.1-1.7,0.4c-0.4,0.2-0.6,0.6-0.6,1c0,0.3,0.1,0.5,0.2,0.7
				c0.1,0.2,0.4,0.4,0.7,0.6c0.3,0.2,0.9,0.4,1.9,0.8c1.3,0.5,2.1,0.9,2.6,1.4C126.1,611.4,126.4,612,126.4,612.7z"/>
			<path fill="#221F1F" d="M143.4,610.3c0,1.7-0.4,3.1-1.3,4.1c-0.9,1-2.1,1.5-3.6,1.5c-1,0-1.8-0.2-2.5-0.7s-1.3-1.1-1.7-1.9
				s-0.6-1.8-0.6-2.9c0-1.7,0.4-3.1,1.3-4.1c0.9-1,2.1-1.5,3.6-1.5c1.5,0,2.7,0.5,3.6,1.5C143,607.2,143.4,608.6,143.4,610.3z
				 M135.3,610.3c0,1.4,0.3,2.4,0.8,3.1s1.3,1.1,2.4,1.1c1.1,0,1.9-0.4,2.4-1.1c0.5-0.7,0.8-1.8,0.8-3.1c0-1.4-0.3-2.4-0.8-3.1
				c-0.5-0.7-1.4-1.1-2.4-1.1c-1.1,0-1.9,0.3-2.4,1C135.5,607.9,135.3,608.9,135.3,610.3z"/>
			<path fill="#221F1F" d="M153.6,615.6v-6.9c0-0.9-0.2-1.5-0.6-2s-1-0.6-1.9-0.6c-1.1,0-1.9,0.3-2.5,0.9s-0.8,1.6-0.8,3v5.6h-1.6
				v-10.7h1.3l0.3,1.5h0.1c0.3-0.5,0.8-0.9,1.4-1.2c0.6-0.3,1.3-0.4,2-0.4c1.3,0,2.3,0.3,2.9,0.9c0.6,0.6,1,1.6,1,3v7H153.6z"/>
			<path fill="#221F1F" d="M163,615.8c-1.6,0-2.8-0.5-3.7-1.4s-1.4-2.3-1.4-4c0-1.7,0.4-3.1,1.3-4.1c0.8-1,2-1.5,3.4-1.5
				c1.3,0,2.4,0.4,3.2,1.3s1.2,2,1.2,3.5v1h-7.4c0,1.3,0.3,2.2,1,2.9s1.4,1,2.5,1c1.1,0,2.3-0.2,3.4-0.7v1.4
				c-0.6,0.2-1.1,0.4-1.6,0.5C164.3,615.8,163.7,615.8,163,615.8z M162.6,606.1c-0.9,0-1.5,0.3-2.1,0.8c-0.5,0.6-0.8,1.3-0.9,2.3
				h5.6c0-1-0.2-1.8-0.7-2.3C164.1,606.4,163.4,606.1,162.6,606.1z"/>
			<path fill="#221F1F" d="M184.1,610.3c0,1.7-0.4,3.1-1.3,4.1c-0.9,1-2.1,1.5-3.6,1.5c-1,0-1.8-0.2-2.5-0.7s-1.3-1.1-1.7-1.9
				s-0.6-1.8-0.6-2.9c0-1.7,0.4-3.1,1.3-4.1c0.9-1,2.1-1.5,3.6-1.5c1.5,0,2.7,0.5,3.6,1.5C183.7,607.2,184.1,608.6,184.1,610.3z
				 M176,610.3c0,1.4,0.3,2.4,0.8,3.1s1.3,1.1,2.4,1.1c1.1,0,1.9-0.4,2.4-1.1c0.5-0.7,0.8-1.8,0.8-3.1c0-1.4-0.3-2.4-0.8-3.1
				c-0.5-0.7-1.4-1.1-2.4-1.1c-1.1,0-1.9,0.3-2.4,1C176.2,607.9,176,608.9,176,610.3z"/>
			<path fill="#221F1F" d="M191.8,606.2H189v9.4h-1.6v-9.4h-1.9v-0.7l1.9-0.6v-0.6c0-2.6,1.1-3.9,3.4-3.9c0.6,0,1.2,0.1,2,0.3
				l-0.4,1.3c-0.6-0.2-1.2-0.3-1.6-0.3c-0.6,0-1.1,0.2-1.4,0.6c-0.3,0.4-0.4,1.1-0.4,2v0.7h2.7V606.2z"/>
			<path fill="#221F1F" d="M202.3,614.5c0.3,0,0.6,0,0.8-0.1c0.3,0,0.5-0.1,0.6-0.1v1.2c-0.2,0.1-0.4,0.2-0.8,0.2
				c-0.3,0.1-0.6,0.1-0.9,0.1c-2.1,0-3.1-1.1-3.1-3.3v-6.4h-1.5v-0.8l1.5-0.7l0.7-2.3h0.9v2.5h3.1v1.3h-3.1v6.3
				c0,0.6,0.2,1.1,0.5,1.5C201.4,614.3,201.8,614.5,202.3,614.5z"/>
			<path fill="#221F1F" d="M213.2,615.6v-6.9c0-0.9-0.2-1.5-0.6-2s-1-0.6-1.9-0.6c-1.1,0-1.9,0.3-2.5,0.9s-0.8,1.6-0.8,3v5.6h-1.6
				v-15.2h1.6v4.6c0,0.6,0,1-0.1,1.4h0.1c0.3-0.5,0.8-0.9,1.4-1.2c0.6-0.3,1.3-0.4,2-0.4c1.3,0,2.3,0.3,2.9,0.9c0.7,0.6,1,1.6,1,3v7
				H213.2z"/>
			<path fill="#221F1F" d="M222.7,615.8c-1.6,0-2.8-0.5-3.7-1.4s-1.4-2.3-1.4-4c0-1.7,0.4-3.1,1.3-4.1c0.8-1,2-1.5,3.4-1.5
				c1.3,0,2.4,0.4,3.2,1.3s1.2,2,1.2,3.5v1h-7.4c0,1.3,0.3,2.2,1,2.9s1.4,1,2.5,1c1.1,0,2.3-0.2,3.4-0.7v1.4
				c-0.6,0.2-1.1,0.4-1.6,0.5C224,615.8,223.4,615.8,222.7,615.8z M222.3,606.1c-0.9,0-1.5,0.3-2.1,0.8c-0.5,0.6-0.8,1.3-0.9,2.3
				h5.6c0-1-0.2-1.8-0.7-2.3C223.8,606.4,223.1,606.1,222.3,606.1z"/>
			<path fill="#221F1F" d="M243.3,615.6l-2-6.3c-0.1-0.4-0.4-1.3-0.7-2.6h-0.1c-0.3,1.1-0.5,2-0.7,2.6l-2,6.3H236l-2.9-10.7h1.7
				c0.7,2.7,1.2,4.7,1.6,6.1c0.4,1.4,0.6,2.4,0.6,2.8h0.1c0.1-0.4,0.2-0.9,0.3-1.4s0.3-1.1,0.4-1.4l2-6.1h1.8l1.9,6.1
				c0.4,1.1,0.6,2.1,0.7,2.8h0.1c0-0.2,0.1-0.6,0.2-1.1s0.8-3.1,2-7.9h1.7l-3,10.7H243.3z"/>
			<path fill="#221F1F" d="M259.3,610.3c0,1.7-0.4,3.1-1.3,4.1c-0.9,1-2.1,1.5-3.6,1.5c-1,0-1.8-0.2-2.5-0.7s-1.3-1.1-1.7-1.9
				s-0.6-1.8-0.6-2.9c0-1.7,0.4-3.1,1.3-4.1c0.9-1,2.1-1.5,3.6-1.5c1.5,0,2.7,0.5,3.6,1.5C258.9,607.2,259.3,608.6,259.3,610.3z
				 M251.2,610.3c0,1.4,0.3,2.4,0.8,3.1s1.3,1.1,2.4,1.1c1.1,0,1.9-0.4,2.4-1.1c0.5-0.7,0.8-1.8,0.8-3.1c0-1.4-0.3-2.4-0.8-3.1
				c-0.5-0.7-1.4-1.1-2.4-1.1c-1.1,0-1.9,0.3-2.4,1C251.5,607.9,251.2,608.9,251.2,610.3z"/>
			<path fill="#221F1F" d="M267,604.7c0.5,0,0.9,0,1.3,0.1l-0.2,1.5c-0.4-0.1-0.8-0.1-1.2-0.1c-0.9,0-1.6,0.4-2.2,1.1
				c-0.6,0.7-0.9,1.6-0.9,2.6v5.7h-1.6v-10.7h1.3l0.2,2h0.1c0.4-0.7,0.9-1.2,1.4-1.6C265.8,604.9,266.4,604.7,267,604.7z"/>
			<path fill="#221F1F" d="M271.9,615.6h-1.6v-15.2h1.6V615.6z"/>
			<path fill="#221F1F" d="M282.6,614.2L282.6,614.2c-0.8,1.1-2,1.6-3.4,1.6c-1.4,0-2.5-0.5-3.3-1.4s-1.2-2.3-1.2-4.1
				s0.4-3.1,1.2-4.1s1.9-1.5,3.3-1.5c1.4,0,2.6,0.5,3.3,1.6h0.1l-0.1-0.8l0-0.8v-4.4h1.6v15.2h-1.3L282.6,614.2z M279.4,614.5
				c1.1,0,1.9-0.3,2.4-0.9s0.7-1.6,0.7-2.9v-0.3c0-1.5-0.3-2.6-0.8-3.2c-0.5-0.6-1.3-1-2.4-1c-0.9,0-1.7,0.4-2.2,1.1
				s-0.8,1.8-0.8,3.1c0,1.4,0.2,2.4,0.8,3.1S278.4,614.5,279.4,614.5z"/>
			<path fill="#221F1F" d="M288.9,601.4l0.1,0.2c-0.2,0.7-0.4,1.4-0.7,2.3c-0.3,0.9-0.6,1.7-1,2.4h-1.2c0.5-1.9,0.8-3.5,1-4.9H288.9
				z"/>
			<path fill="#221F1F" d="M297.9,612.7c0,1-0.4,1.8-1.1,2.3s-1.8,0.8-3.1,0.8c-1.4,0-2.5-0.2-3.3-0.7v-1.5c0.5,0.3,1.1,0.5,1.7,0.6
				c0.6,0.1,1.2,0.2,1.7,0.2c0.8,0,1.5-0.1,1.9-0.4c0.5-0.3,0.7-0.7,0.7-1.2c0-0.4-0.2-0.8-0.5-1.1c-0.4-0.3-1.1-0.6-2.1-1
				c-1-0.4-1.7-0.7-2.1-1c-0.4-0.3-0.7-0.6-0.9-0.9s-0.3-0.8-0.3-1.3c0-0.9,0.4-1.6,1.1-2.1c0.7-0.5,1.7-0.8,2.9-0.8
				c1.1,0,2.3,0.2,3.4,0.7l-0.6,1.3c-1.1-0.4-2-0.7-2.9-0.7c-0.8,0-1.3,0.1-1.7,0.4c-0.4,0.2-0.6,0.6-0.6,1c0,0.3,0.1,0.5,0.2,0.7
				c0.1,0.2,0.4,0.4,0.7,0.6c0.3,0.2,0.9,0.4,1.9,0.8c1.3,0.5,2.1,0.9,2.6,1.4C297.7,611.4,297.9,612,297.9,612.7z"/>
			<path fill="#221F1F" d="M307.3,615.6h-1.6v-15.2h1.6V615.6z"/>
			<path fill="#221F1F" d="M317.3,615.6l-0.3-1.5h-0.1c-0.5,0.7-1.1,1.1-1.6,1.4c-0.5,0.2-1.2,0.4-2,0.4c-1.1,0-1.9-0.3-2.5-0.8
				s-0.9-1.3-0.9-2.3c0-2.2,1.7-3.3,5.2-3.4l1.8-0.1v-0.7c0-0.8-0.2-1.5-0.5-1.9c-0.4-0.4-0.9-0.6-1.7-0.6c-0.9,0-1.9,0.3-3,0.8
				l-0.5-1.2c0.5-0.3,1.1-0.5,1.7-0.7s1.3-0.2,1.9-0.2c1.3,0,2.2,0.3,2.8,0.8c0.6,0.6,0.9,1.5,0.9,2.7v7.3H317.3z M313.7,614.5
				c1,0,1.8-0.3,2.4-0.8s0.9-1.3,0.9-2.3v-1l-1.6,0.1c-1.3,0-2.2,0.2-2.8,0.6c-0.6,0.4-0.9,0.9-0.9,1.7c0,0.6,0.2,1,0.5,1.3
				C312.5,614.3,313,614.5,313.7,614.5z"/>
			<path fill="#221F1F" d="M326.7,604.7c0.5,0,0.9,0,1.3,0.1l-0.2,1.5c-0.4-0.1-0.8-0.1-1.2-0.1c-0.9,0-1.6,0.4-2.2,1.1
				c-0.6,0.7-0.9,1.6-0.9,2.6v5.7h-1.6v-10.7h1.3l0.2,2h0.1c0.4-0.7,0.9-1.2,1.4-1.6C325.4,604.9,326,604.7,326.7,604.7z"/>
			<path fill="#221F1F" d="M338.7,604.9v1l-2,0.2c0.2,0.2,0.3,0.5,0.5,0.9s0.2,0.8,0.2,1.2c0,1-0.4,1.9-1.1,2.5
				c-0.7,0.6-1.7,0.9-2.9,0.9c-0.3,0-0.6,0-0.9-0.1c-0.7,0.4-1,0.8-1,1.4c0,0.3,0.1,0.5,0.4,0.6s0.7,0.2,1.2,0.2h1.9
				c1.2,0,2,0.2,2.7,0.7c0.6,0.5,0.9,1.2,0.9,2.1c0,1.2-0.5,2.1-1.4,2.7s-2.3,0.9-4.2,0.9c-1.4,0-2.5-0.3-3.2-0.8s-1.1-1.3-1.1-2.2
				c0-0.7,0.2-1.2,0.6-1.7s1-0.8,1.8-1c-0.3-0.1-0.5-0.3-0.7-0.6s-0.3-0.6-0.3-0.9c0-0.4,0.1-0.7,0.3-1s0.5-0.6,1-0.8
				c-0.6-0.2-1-0.6-1.4-1.2s-0.5-1.2-0.5-1.9c0-1.2,0.4-2.1,1.1-2.7s1.7-1,3-1c0.6,0,1.1,0.1,1.5,0.2H338.7z M330.2,617.4
				c0,0.6,0.2,1,0.7,1.3s1.2,0.4,2.1,0.4c1.4,0,2.4-0.2,3-0.6c0.7-0.4,1-1,1-1.7c0-0.6-0.2-1-0.5-1.2s-1-0.3-2-0.3h-1.9
				c-0.7,0-1.3,0.2-1.7,0.5C330.4,616.3,330.2,616.8,330.2,617.4z M331.1,608.4c0,0.7,0.2,1.3,0.6,1.7c0.4,0.4,1,0.6,1.8,0.6
				c1.6,0,2.4-0.8,2.4-2.3c0-1.6-0.8-2.4-2.4-2.4c-0.8,0-1.3,0.2-1.8,0.6C331.3,607,331.1,607.6,331.1,608.4z"/>
			<path fill="#221F1F" d="M345.4,615.8c-1.6,0-2.8-0.5-3.7-1.4s-1.4-2.3-1.4-4c0-1.7,0.4-3.1,1.3-4.1c0.8-1,2-1.5,3.4-1.5
				c1.3,0,2.4,0.4,3.2,1.3s1.2,2,1.2,3.5v1H342c0,1.3,0.3,2.2,1,2.9s1.4,1,2.5,1c1.1,0,2.3-0.2,3.4-0.7v1.4
				c-0.6,0.2-1.1,0.4-1.6,0.5C346.8,615.8,346.2,615.8,345.4,615.8z M345,606.1c-0.9,0-1.5,0.3-2.1,0.8c-0.5,0.6-0.8,1.3-0.9,2.3
				h5.6c0-1-0.2-1.8-0.7-2.3C346.5,606.4,345.8,606.1,345,606.1z"/>
			<path fill="#221F1F" d="M359,612.7c0,1-0.4,1.8-1.1,2.3s-1.8,0.8-3.1,0.8c-1.4,0-2.5-0.2-3.3-0.7v-1.5c0.5,0.3,1.1,0.5,1.7,0.6
				c0.6,0.1,1.2,0.2,1.7,0.2c0.8,0,1.5-0.1,1.9-0.4c0.5-0.3,0.7-0.7,0.7-1.2c0-0.4-0.2-0.8-0.5-1.1c-0.4-0.3-1.1-0.6-2.1-1
				c-1-0.4-1.7-0.7-2.1-1c-0.4-0.3-0.7-0.6-0.9-0.9s-0.3-0.8-0.3-1.3c0-0.9,0.4-1.6,1.1-2.1c0.7-0.5,1.7-0.8,2.9-0.8
				c1.1,0,2.3,0.2,3.4,0.7l-0.6,1.3c-1.1-0.4-2-0.7-2.9-0.7c-0.8,0-1.3,0.1-1.7,0.4c-0.4,0.2-0.6,0.6-0.6,1c0,0.3,0.1,0.5,0.2,0.7
				c0.1,0.2,0.4,0.4,0.7,0.6c0.3,0.2,0.9,0.4,1.9,0.8c1.3,0.5,2.1,0.9,2.6,1.4C358.8,611.4,359,612,359,612.7z"/>
			<path fill="#221F1F" d="M365.1,614.5c0.3,0,0.6,0,0.8-0.1c0.3,0,0.5-0.1,0.6-0.1v1.2c-0.2,0.1-0.4,0.2-0.8,0.2
				c-0.3,0.1-0.6,0.1-0.9,0.1c-2.1,0-3.1-1.1-3.1-3.3v-6.4h-1.5v-0.8l1.5-0.7l0.7-2.3h0.9v2.5h3.1v1.3h-3.1v6.3
				c0,0.6,0.2,1.1,0.5,1.5C364.1,614.3,364.6,614.5,365.1,614.5z"/>
			<path fill="#221F1F" d="M381.2,614.2L381.2,614.2c-0.8,1.1-2,1.6-3.4,1.6c-1.4,0-2.5-0.5-3.3-1.4s-1.2-2.3-1.2-4.1
				s0.4-3.1,1.2-4.1s1.9-1.5,3.3-1.5c1.4,0,2.6,0.5,3.3,1.6h0.1l-0.1-0.8l0-0.8v-4.4h1.6v15.2h-1.3L381.2,614.2z M377.9,614.5
				c1.1,0,1.9-0.3,2.4-0.9s0.7-1.6,0.7-2.9v-0.3c0-1.5-0.3-2.6-0.8-3.2c-0.5-0.6-1.3-1-2.4-1c-0.9,0-1.7,0.4-2.2,1.1
				s-0.8,1.8-0.8,3.1c0,1.4,0.2,2.4,0.8,3.1S376.9,614.5,377.9,614.5z"/>
			<path fill="#221F1F" d="M390.6,615.8c-1.6,0-2.8-0.5-3.7-1.4s-1.4-2.3-1.4-4c0-1.7,0.4-3.1,1.3-4.1c0.8-1,2-1.5,3.4-1.5
				c1.3,0,2.4,0.4,3.2,1.3s1.2,2,1.2,3.5v1h-7.4c0,1.3,0.3,2.2,1,2.9s1.4,1,2.5,1c1.1,0,2.3-0.2,3.4-0.7v1.4
				c-0.6,0.2-1.1,0.4-1.6,0.5C392,615.8,391.3,615.8,390.6,615.8z M390.2,606.1c-0.9,0-1.5,0.3-2.1,0.8c-0.5,0.6-0.8,1.3-0.9,2.3
				h5.6c0-1-0.2-1.8-0.7-2.3C391.7,606.4,391,606.1,390.2,606.1z"/>
			<path fill="#221F1F" d="M404.2,612.7c0,1-0.4,1.8-1.1,2.3s-1.8,0.8-3.1,0.8c-1.4,0-2.5-0.2-3.3-0.7v-1.5c0.5,0.3,1.1,0.5,1.7,0.6
				c0.6,0.1,1.2,0.2,1.7,0.2c0.8,0,1.5-0.1,1.9-0.4c0.5-0.3,0.7-0.7,0.7-1.2c0-0.4-0.2-0.8-0.5-1.1c-0.4-0.3-1.1-0.6-2.1-1
				c-1-0.4-1.7-0.7-2.1-1c-0.4-0.3-0.7-0.6-0.9-0.9s-0.3-0.8-0.3-1.3c0-0.9,0.4-1.6,1.1-2.1c0.7-0.5,1.7-0.8,2.9-0.8
				c1.1,0,2.3,0.2,3.4,0.7l-0.6,1.3c-1.1-0.4-2-0.7-2.9-0.7c-0.8,0-1.3,0.1-1.7,0.4c-0.4,0.2-0.6,0.6-0.6,1c0,0.3,0.1,0.5,0.2,0.7
				c0.1,0.2,0.4,0.4,0.7,0.6c0.3,0.2,0.9,0.4,1.9,0.8c1.3,0.5,2.1,0.9,2.6,1.4C404,611.4,404.2,612,404.2,612.7z"/>
			<path fill="#221F1F" d="M406.7,602c0-0.4,0.1-0.6,0.3-0.8c0.2-0.2,0.4-0.3,0.7-0.3c0.3,0,0.5,0.1,0.7,0.3
				c0.2,0.2,0.3,0.4,0.3,0.8s-0.1,0.6-0.3,0.8c-0.2,0.2-0.4,0.3-0.7,0.3c-0.3,0-0.5-0.1-0.7-0.3C406.8,602.7,406.7,602.4,406.7,602z
				 M408.5,615.6h-1.6v-10.7h1.6V615.6z"/>
			<path fill="#221F1F" d="M420.6,604.9v1l-2,0.2c0.2,0.2,0.3,0.5,0.5,0.9s0.2,0.8,0.2,1.2c0,1-0.4,1.9-1.1,2.5
				c-0.7,0.6-1.7,0.9-2.9,0.9c-0.3,0-0.6,0-0.9-0.1c-0.7,0.4-1,0.8-1,1.4c0,0.3,0.1,0.5,0.4,0.6s0.7,0.2,1.2,0.2h1.9
				c1.2,0,2,0.2,2.7,0.7c0.6,0.5,0.9,1.2,0.9,2.1c0,1.2-0.5,2.1-1.4,2.7s-2.3,0.9-4.2,0.9c-1.4,0-2.5-0.3-3.2-0.8s-1.1-1.3-1.1-2.2
				c0-0.7,0.2-1.2,0.6-1.7s1-0.8,1.8-1c-0.3-0.1-0.5-0.3-0.7-0.6s-0.3-0.6-0.3-0.9c0-0.4,0.1-0.7,0.3-1s0.5-0.6,1-0.8
				c-0.6-0.2-1-0.6-1.4-1.2s-0.5-1.2-0.5-1.9c0-1.2,0.4-2.1,1.1-2.7s1.7-1,3-1c0.6,0,1.1,0.1,1.5,0.2H420.6z M412.1,617.4
				c0,0.6,0.2,1,0.7,1.3s1.2,0.4,2.1,0.4c1.4,0,2.4-0.2,3-0.6c0.7-0.4,1-1,1-1.7c0-0.6-0.2-1-0.5-1.2s-1-0.3-2-0.3h-1.9
				c-0.7,0-1.3,0.2-1.7,0.5C412.3,616.3,412.1,616.8,412.1,617.4z M413,608.4c0,0.7,0.2,1.3,0.6,1.7c0.4,0.4,1,0.6,1.8,0.6
				c1.6,0,2.4-0.8,2.4-2.3c0-1.6-0.8-2.4-2.4-2.4c-0.8,0-1.3,0.2-1.8,0.6C413.2,607,413,607.6,413,608.4z"/>
			<path fill="#221F1F" d="M430.1,615.6v-6.9c0-0.9-0.2-1.5-0.6-2s-1-0.6-1.9-0.6c-1.1,0-1.9,0.3-2.5,0.9s-0.8,1.6-0.8,3v5.6h-1.6
				v-10.7h1.3l0.3,1.5h0.1c0.3-0.5,0.8-0.9,1.4-1.2c0.6-0.3,1.3-0.4,2-0.4c1.3,0,2.3,0.3,2.9,0.9c0.6,0.6,1,1.6,1,3v7H430.1z"/>
			<path fill="#221F1F" d="M67.9,639.8c-1.5,0-2.7-0.5-3.6-1.4c-0.8-1-1.3-2.3-1.3-4c0-1.8,0.4-3.2,1.3-4.2c0.9-1,2.1-1.5,3.7-1.5
				c0.5,0,1,0.1,1.5,0.2c0.5,0.1,0.9,0.2,1.2,0.4l-0.5,1.4c-0.4-0.1-0.7-0.3-1.2-0.4s-0.8-0.1-1.1-0.1c-2.2,0-3.3,1.4-3.3,4.2
				c0,1.3,0.3,2.3,0.8,3s1.3,1.1,2.4,1.1c0.9,0,1.8-0.2,2.7-0.6v1.4C69.8,639.7,68.9,639.8,67.9,639.8z"/>
			<path fill="#221F1F" d="M82.3,634.3c0,1.7-0.4,3.1-1.3,4.1c-0.9,1-2.1,1.5-3.6,1.5c-1,0-1.8-0.2-2.5-0.7s-1.3-1.1-1.7-1.9
				s-0.6-1.8-0.6-2.9c0-1.7,0.4-3.1,1.3-4.1c0.9-1,2.1-1.5,3.6-1.5c1.5,0,2.7,0.5,3.6,1.5C81.9,631.2,82.3,632.6,82.3,634.3z
				 M74.2,634.3c0,1.4,0.3,2.4,0.8,3.1s1.3,1.1,2.4,1.1c1.1,0,1.9-0.4,2.4-1.1c0.5-0.7,0.8-1.8,0.8-3.1c0-1.4-0.3-2.4-0.8-3.1
				c-0.5-0.7-1.4-1.1-2.4-1.1c-1.1,0-1.9,0.3-2.4,1C74.4,631.9,74.2,632.9,74.2,634.3z"/>
			<path fill="#221F1F" d="M92.5,639.6v-6.9c0-0.9-0.2-1.5-0.6-2s-1-0.6-1.9-0.6c-1.1,0-1.9,0.3-2.5,0.9s-0.8,1.6-0.8,3v5.6h-1.6
				v-10.7h1.3l0.3,1.5h0.1c0.3-0.5,0.8-0.9,1.4-1.2c0.6-0.3,1.3-0.4,2-0.4c1.3,0,2.3,0.3,2.9,0.9c0.6,0.6,1,1.6,1,3v7H92.5z"/>
			<path fill="#221F1F" d="M102.2,630.2h-2.7v9.4h-1.6v-9.4H96v-0.7l1.9-0.6v-0.6c0-2.6,1.1-3.9,3.4-3.9c0.6,0,1.2,0.1,2,0.3
				l-0.4,1.3c-0.6-0.2-1.2-0.3-1.6-0.3c-0.6,0-1.1,0.2-1.4,0.6c-0.3,0.4-0.4,1.1-0.4,2v0.7h2.7V630.2z"/>
			<path fill="#221F1F" d="M108.7,639.8c-1.6,0-2.8-0.5-3.7-1.4s-1.4-2.3-1.4-4c0-1.7,0.4-3.1,1.3-4.1c0.8-1,2-1.5,3.4-1.5
				c1.3,0,2.4,0.4,3.2,1.3s1.2,2,1.2,3.5v1h-7.4c0,1.3,0.3,2.2,1,2.9s1.4,1,2.5,1c1.1,0,2.3-0.2,3.4-0.7v1.4
				c-0.6,0.2-1.1,0.4-1.6,0.5C110,639.8,109.4,639.8,108.7,639.8z M108.2,630.1c-0.9,0-1.5,0.3-2.1,0.8c-0.5,0.6-0.8,1.3-0.9,2.3
				h5.6c0-1-0.2-1.8-0.7-2.3C109.7,630.4,109.1,630.1,108.2,630.1z"/>
			<path fill="#221F1F" d="M120.2,628.7c0.5,0,0.9,0,1.3,0.1l-0.2,1.5c-0.4-0.1-0.8-0.1-1.2-0.1c-0.9,0-1.6,0.4-2.2,1.1
				c-0.6,0.7-0.9,1.6-0.9,2.6v5.7h-1.6v-10.7h1.3l0.2,2h0.1c0.4-0.7,0.9-1.2,1.4-1.6C119,628.9,119.6,628.7,120.2,628.7z"/>
			<path fill="#221F1F" d="M128,639.8c-1.6,0-2.8-0.5-3.7-1.4s-1.4-2.3-1.4-4c0-1.7,0.4-3.1,1.3-4.1c0.8-1,2-1.5,3.4-1.5
				c1.3,0,2.4,0.4,3.2,1.3s1.2,2,1.2,3.5v1h-7.4c0,1.3,0.3,2.2,1,2.9s1.4,1,2.5,1c1.1,0,2.3-0.2,3.4-0.7v1.4
				c-0.6,0.2-1.1,0.4-1.6,0.5C129.4,639.8,128.8,639.8,128,639.8z M127.6,630.1c-0.9,0-1.5,0.3-2.1,0.8c-0.5,0.6-0.8,1.3-0.9,2.3
				h5.6c0-1-0.2-1.8-0.7-2.3C129.1,630.4,128.4,630.1,127.6,630.1z"/>
			<path fill="#221F1F" d="M142,639.6v-6.9c0-0.9-0.2-1.5-0.6-2s-1-0.6-1.9-0.6c-1.1,0-1.9,0.3-2.5,0.9s-0.8,1.6-0.8,3v5.6h-1.6
				v-10.7h1.3l0.3,1.5h0.1c0.3-0.5,0.8-0.9,1.4-1.2c0.6-0.3,1.3-0.4,2-0.4c1.3,0,2.3,0.3,2.9,0.9c0.6,0.6,1,1.6,1,3v7H142z"/>
			<path fill="#221F1F" d="M151.2,639.8c-1.5,0-2.7-0.5-3.6-1.4c-0.8-1-1.3-2.3-1.3-4c0-1.8,0.4-3.2,1.3-4.2c0.9-1,2.1-1.5,3.7-1.5
				c0.5,0,1,0.1,1.5,0.2c0.5,0.1,0.9,0.2,1.2,0.4l-0.5,1.4c-0.4-0.1-0.7-0.3-1.2-0.4s-0.8-0.1-1.1-0.1c-2.2,0-3.3,1.4-3.3,4.2
				c0,1.3,0.3,2.3,0.8,3s1.3,1.1,2.4,1.1c0.9,0,1.8-0.2,2.7-0.6v1.4C153.2,639.7,152.3,639.8,151.2,639.8z"/>
			<path fill="#221F1F" d="M161,639.8c-1.6,0-2.8-0.5-3.7-1.4s-1.4-2.3-1.4-4c0-1.7,0.4-3.1,1.3-4.1c0.8-1,2-1.5,3.4-1.5
				c1.3,0,2.4,0.4,3.2,1.3s1.2,2,1.2,3.5v1h-7.4c0,1.3,0.3,2.2,1,2.9s1.4,1,2.5,1c1.1,0,2.3-0.2,3.4-0.7v1.4
				c-0.6,0.2-1.1,0.4-1.6,0.5C162.3,639.8,161.7,639.8,161,639.8z M160.5,630.1c-0.9,0-1.5,0.3-2.1,0.8c-0.5,0.6-0.8,1.3-0.9,2.3
				h5.6c0-1-0.2-1.8-0.7-2.3C162,630.4,161.4,630.1,160.5,630.1z"/>
			<path fill="#221F1F" d="M174.6,636.7c0,1-0.4,1.8-1.1,2.3s-1.8,0.8-3.1,0.8c-1.4,0-2.5-0.2-3.3-0.7v-1.5c0.5,0.3,1.1,0.5,1.7,0.6
				c0.6,0.1,1.2,0.2,1.7,0.2c0.8,0,1.5-0.1,1.9-0.4c0.5-0.3,0.7-0.7,0.7-1.2c0-0.4-0.2-0.8-0.5-1.1c-0.4-0.3-1.1-0.6-2.1-1
				c-1-0.4-1.7-0.7-2.1-1c-0.4-0.3-0.7-0.6-0.9-0.9s-0.3-0.8-0.3-1.3c0-0.9,0.4-1.6,1.1-2.1c0.7-0.5,1.7-0.8,2.9-0.8
				c1.1,0,2.3,0.2,3.4,0.7l-0.6,1.3c-1.1-0.4-2-0.7-2.9-0.7c-0.8,0-1.3,0.1-1.7,0.4c-0.4,0.2-0.6,0.6-0.6,1c0,0.3,0.1,0.5,0.2,0.7
				c0.1,0.2,0.4,0.4,0.7,0.6c0.3,0.2,0.9,0.4,1.9,0.8c1.3,0.5,2.1,0.9,2.6,1.4C174.3,635.4,174.6,636,174.6,636.7z"/>
			<path fill="#221F1F" d="M177,638.6c0-0.4,0.1-0.8,0.3-1s0.5-0.3,0.9-0.3c0.4,0,0.7,0.1,0.9,0.3c0.2,0.2,0.3,0.6,0.3,1
				c0,0.4-0.1,0.7-0.3,1c-0.2,0.2-0.5,0.3-0.9,0.3c-0.3,0-0.6-0.1-0.8-0.3S177,639.1,177,638.6z"/>
		</g>
		<g>
			<path fill="#221F1F" d="M64.8,358.7c0,0.4-0.1,0.7-0.4,0.9c-0.3,0.3-0.6,0.4-0.9,0.4c-0.4,0-0.7-0.1-0.9-0.4
				c-0.3-0.3-0.4-0.6-0.4-0.9v-21.3l-2.1,0.7c-0.2,0.1-0.3,0.1-0.5,0.1c-0.4,0-0.7-0.1-0.9-0.4c-0.3-0.3-0.4-0.6-0.4-0.9
				s0.1-0.7,0.4-0.9c0.1-0.1,0.3-0.2,0.4-0.3l3.8-1.3c0.1-0.1,0.3-0.1,0.5-0.1c0.4,0,0.7,0.1,0.9,0.4c0.3,0.3,0.4,0.6,0.4,0.9V358.7
				z"/>
			<path fill="#221F1F" d="M76.4,349.6c-0.5,0.1-0.9,0.1-1.4,0.1c-2.1,0-3.9-0.8-5.4-2.3c-1.5-1.5-2.2-3.3-2.2-5.4
				c0-2.1,0.7-3.9,2.2-5.4c1.5-1.5,3.3-2.3,5.4-2.3c2.1,0,3.9,0.8,5.4,2.3c1.5,1.5,2.2,3.3,2.2,5.4c0,1.6-0.4,3-1.2,4.2l-7.9,13.1
				c-0.1,0.1-0.1,0.2-0.2,0.3c-0.3,0.3-0.6,0.4-0.9,0.4c-0.4,0-0.7-0.1-0.9-0.4c-0.3-0.3-0.4-0.6-0.4-0.9c0-0.2,0.1-0.5,0.2-0.7
				L76.4,349.6z M69.9,342.1c0,1.4,0.5,2.6,1.5,3.6c1,1,2.2,1.5,3.6,1.5s2.6-0.5,3.6-1.5c1-1,1.5-2.2,1.5-3.6c0-1.4-0.5-2.6-1.5-3.6
				c-1-1-2.2-1.5-3.6-1.5s-2.6,0.5-3.6,1.5C70.4,339.4,69.9,340.6,69.9,342.1z"/>
			<path fill="#221F1F" d="M94.4,349.6c-0.5,0.1-0.9,0.1-1.4,0.1c-2.1,0-3.9-0.8-5.4-2.3c-1.5-1.5-2.2-3.3-2.2-5.4
				c0-2.1,0.7-3.9,2.2-5.4c1.5-1.5,3.3-2.3,5.4-2.3c2.1,0,3.9,0.8,5.4,2.3c1.5,1.5,2.2,3.3,2.2,5.4c0,1.6-0.4,3-1.2,4.2l-7.9,13.1
				c-0.1,0.1-0.1,0.2-0.2,0.3c-0.3,0.3-0.6,0.4-0.9,0.4c-0.4,0-0.7-0.1-0.9-0.4c-0.3-0.3-0.4-0.6-0.4-0.9c0-0.2,0.1-0.5,0.2-0.7
				L94.4,349.6z M87.8,342.1c0,1.4,0.5,2.6,1.5,3.6c1,1,2.2,1.5,3.6,1.5s2.6-0.5,3.6-1.5c1-1,1.5-2.2,1.5-3.6c0-1.4-0.5-2.6-1.5-3.6
				c-1-1-2.2-1.5-3.6-1.5s-2.6,0.5-3.6,1.5C88.3,339.4,87.8,340.6,87.8,342.1z"/>
			<path fill="#221F1F" d="M103.2,347.2c0-5.1,1.1-8.8,3.2-11c1.2-1.3,2.8-1.9,4.5-1.9s3.3,0.6,4.5,1.9c2.1,2.2,3.2,5.8,3.2,11
				s-1.1,8.8-3.2,11c-1.2,1.3-2.8,1.9-4.5,1.9s-3.3-0.6-4.5-1.9C104.2,356,103.2,352.3,103.2,347.2z M110.9,336.9
				c-1.1,0-2,0.4-2.7,1.1c-1.6,1.8-2.4,4.8-2.4,9.1c0,4.3,0.8,7.3,2.4,9.1c0.8,0.8,1.7,1.1,2.7,1.1s2-0.4,2.7-1.1
				c1.6-1.8,2.4-4.8,2.4-9.1c0-4.3-0.8-7.3-2.4-9.1C112.8,337.3,111.9,336.9,110.9,336.9z"/>
		</g>
		<g>
			<path fill="#0D8450" d="M163.5,350.6l6.4-16.6c0.3-0.6,0.7-0.9,1.2-0.9c0.6,0,1,0.3,1.2,0.9l6.5,16.7c0.1,0.2,0.1,0.3,0.1,0.5
				c0,0.4-0.1,0.7-0.4,0.9c-0.2,0.2-0.6,0.4-0.9,0.4s-0.7-0.1-0.9-0.4c-0.1-0.1-0.2-0.3-0.3-0.4l-2.2-5.7h-6.2l-2.2,5.7
				c-0.1,0.1-0.2,0.3-0.3,0.4c-0.2,0.2-0.6,0.4-0.9,0.4s-0.7-0.1-0.9-0.4c-0.2-0.2-0.4-0.6-0.4-0.9
				C163.4,351,163.4,350.8,163.5,350.6z M173.3,343.4l-2.1-5.4l-2.1,5.4H173.3z"/>
			<path fill="#0D8450" d="M191.8,351c-1.2,1-2.6,1.5-4.2,1.5c-1.9,0-3.5-0.7-4.8-2c-1.3-1.3-2-2.9-2-4.8c0-1.9,0.7-3.5,2-4.8
				s2.9-2,4.8-2c1.9,0,3.4,0.7,4.8,2c1.3,1.3,2,2.9,2,4.8v6.7c0,0.6-0.1,1.1-0.3,1.6c-0.2,0.5-0.4,1-0.7,1.4
				c-0.3,0.4-0.7,0.8-1.1,1.2c-0.4,0.3-0.9,0.6-1.4,0.9s-1,0.4-1.6,0.6c-0.5,0.1-1.1,0.2-1.6,0.2c-0.6,0-1.3-0.1-1.9-0.2
				c-0.6-0.2-1.2-0.4-1.8-0.7s-1.1-0.7-1.5-1.2c-0.5-0.5-0.9-1-1.2-1.6c-0.1-0.2-0.2-0.4-0.2-0.7c0-0.4,0.1-0.7,0.4-0.9
				c0.2-0.2,0.5-0.4,0.9-0.4c0.2,0,0.4,0.1,0.6,0.2c0.2,0.1,0.4,0.4,0.6,0.7s0.5,0.7,0.7,0.9c0.9,0.9,2,1.4,3.3,1.4
				c1.3,0,2.4-0.5,3.3-1.4c0.6-0.7,0.8-1.3,0.8-2V351z M187.5,341.4c-0.6,0-1.2,0.1-1.7,0.3c-0.5,0.2-1,0.5-1.3,0.9
				c-0.4,0.4-0.7,0.8-0.9,1.3c-0.2,0.5-0.3,1.1-0.3,1.6s0.1,1.1,0.3,1.6c0.2,0.5,0.5,1,0.9,1.3c0.4,0.4,0.8,0.7,1.3,0.9
				c0.5,0.2,1.1,0.3,1.7,0.3c0.6,0,1.1-0.1,1.7-0.3c0.5-0.2,1-0.5,1.3-0.9c0.4-0.4,0.7-0.8,0.9-1.3s0.3-1.1,0.3-1.6
				s-0.1-1.1-0.3-1.6c-0.2-0.5-0.5-1-0.9-1.3c-0.4-0.4-0.8-0.7-1.3-0.9C188.7,341.6,188.1,341.4,187.5,341.4z"/>
			<path fill="#0D8450" d="M199.6,351.2c0,0.4-0.1,0.7-0.4,0.9c-0.2,0.2-0.6,0.4-0.9,0.4c-0.4,0-0.7-0.1-0.9-0.4
				c-0.2-0.2-0.4-0.6-0.4-0.9v-16.8c0-0.4,0.1-0.7,0.4-0.9s0.6-0.4,0.9-0.4c0.4,0,0.7,0.1,0.9,0.4s0.4,0.6,0.4,0.9V351.2z"/>
			<path fill="#0D8450" d="M207,333.1c2.7,0,4.9,0.9,6.8,2.8c0.9,1,1.7,2,2.1,3.1c0.5,1.1,0.7,2.4,0.7,3.7c0,2.7-0.9,4.9-2.8,6.8
				c-1.9,1.9-4.2,2.8-6.8,2.8h-3.7c-0.2,0-0.3,0-0.5-0.1s-0.3-0.2-0.4-0.3c-0.1-0.1-0.2-0.2-0.3-0.4c-0.1-0.2-0.1-0.3-0.1-0.5v-16.8
				c0-0.2,0-0.3,0.1-0.5c0.1-0.2,0.2-0.3,0.3-0.4c0.1-0.1,0.3-0.2,0.4-0.3s0.3-0.1,0.5-0.1H207z M207,349.9c2,0,3.6-0.7,5-2.1
				c0.7-0.7,1.2-1.5,1.6-2.3c0.3-0.8,0.5-1.7,0.5-2.7c0-2-0.7-3.6-2.1-5s-3.1-2.1-5-2.1h-2.4v14.2H207z"/>
			<path fill="#0D8450" d="M230.8,349.9c0.4,0,0.7,0.1,0.9,0.4c0.2,0.2,0.4,0.6,0.4,0.9c0,0.4-0.1,0.7-0.4,0.9
				c-0.2,0.2-0.6,0.4-0.9,0.4h-11.2c-0.2,0-0.4,0-0.5-0.1s-0.3-0.2-0.4-0.3c-0.1-0.1-0.2-0.3-0.3-0.4c-0.1-0.2-0.1-0.3-0.1-0.5
				v-16.8c0-0.2,0-0.3,0.1-0.5c0.1-0.2,0.2-0.3,0.3-0.4c0.1-0.1,0.3-0.2,0.4-0.3s0.3-0.1,0.5-0.1h11.2c0.4,0,0.7,0.1,0.9,0.4
				c0.2,0.2,0.4,0.6,0.4,0.9c0,0.4-0.1,0.7-0.4,0.9c-0.2,0.2-0.6,0.4-0.9,0.4h-9.9v5.8h7.1c0.4,0,0.7,0.1,0.9,0.4
				c0.2,0.2,0.4,0.6,0.4,0.9s-0.1,0.7-0.4,0.9s-0.6,0.4-0.9,0.4h-7.1v5.8H230.8z"/>
			<path fill="#0D8450" d="M234,350.6l6.4-16.6c0.3-0.6,0.7-0.9,1.2-0.9c0.6,0,1,0.3,1.2,0.9l6.5,16.7c0.1,0.2,0.1,0.3,0.1,0.5
				c0,0.4-0.1,0.7-0.4,0.9c-0.2,0.2-0.6,0.4-0.9,0.4s-0.7-0.1-0.9-0.4c-0.1-0.1-0.2-0.3-0.3-0.4l-2.2-5.7h-6.2l-2.2,5.7
				c-0.1,0.1-0.2,0.3-0.3,0.4c-0.2,0.2-0.6,0.4-0.9,0.4s-0.7-0.1-0.9-0.4c-0.2-0.2-0.4-0.6-0.4-0.9C233.8,351,233.9,350.8,234,350.6
				z M243.7,343.4l-2.1-5.4l-2.1,5.4H243.7z"/>
			<path fill="#0D8450" d="M253.7,341.7c-0.6-0.5-1-1.1-1.2-1.7s-0.4-1.2-0.4-1.8c0-0.8,0.1-1.5,0.4-2.1c0.3-0.6,0.7-1.2,1.3-1.7h0
				c0.9-0.8,2-1.2,3.3-1.2c0.4,0,0.8,0.1,1.2,0.2s0.8,0.3,1.2,0.5c0.4,0.2,0.7,0.5,1,0.8c0.3,0.3,0.6,0.7,0.9,1.1
				c0.1,0.2,0.2,0.4,0.2,0.7c0,0.2,0,0.4-0.1,0.5c-0.1,0.2-0.2,0.3-0.3,0.4c-0.1,0.1-0.3,0.2-0.4,0.3c-0.2,0.1-0.3,0.1-0.5,0.1
				c-0.2,0-0.3,0-0.4-0.1c-0.1,0-0.2-0.1-0.3-0.2c-0.1-0.1-0.2-0.2-0.3-0.3c-0.1-0.1-0.2-0.3-0.3-0.4c-0.2-0.3-0.5-0.5-0.8-0.6
				c-0.3-0.1-0.7-0.2-1.1-0.2c-0.3,0-0.6,0.1-0.9,0.2s-0.5,0.3-0.8,0.5c-0.2,0.2-0.4,0.5-0.5,0.8c-0.1,0.3-0.2,0.6-0.2,1
				c0,0.6,0.2,1.1,0.5,1.5c0.3,0.4,0.9,0.7,1.8,0.9c1.4,0.4,2.5,1,3.3,1.7c0.8,0.7,1.4,1.4,1.6,2.1s0.4,1.4,0.4,2.2
				c0,1.9-0.7,3.4-2.1,4.6h0c-1.1,1-2.4,1.4-3.8,1.4c-0.5,0-0.9-0.1-1.4-0.2c-0.5-0.1-0.9-0.3-1.4-0.5c-0.4-0.2-0.8-0.5-1.2-0.8
				c-0.4-0.3-0.7-0.7-1-1.1c-0.2-0.2-0.3-0.5-0.3-0.8c0-0.2,0-0.3,0.1-0.5c0.1-0.2,0.2-0.3,0.3-0.4c0.1-0.1,0.3-0.2,0.4-0.3
				c0.2-0.1,0.3-0.1,0.5-0.1c0.5,0,0.8,0.2,1.1,0.6c0.3,0.5,0.8,0.9,1.3,1.2s1.1,0.4,1.6,0.4c0.5,0,0.9-0.1,1.3-0.3s0.8-0.4,1.1-0.7
				s0.5-0.7,0.7-1.1c0.2-0.4,0.3-0.9,0.3-1.3c0-0.4-0.1-0.9-0.2-1.3c-0.2-0.4-0.5-0.8-1-1.2s-1.2-0.7-2.2-1
				C255.2,342.7,254.3,342.2,253.7,341.7z"/>
			<path fill="#221F1F" d="M174.7,388.1c0.1,0,0.3,0,0.4,0.1c0.1,0.1,0.2,0.1,0.3,0.2c0.1,0.1,0.2,0.2,0.2,0.3
				c0.1,0.1,0.1,0.3,0.1,0.4c0,0.3-0.1,0.5-0.3,0.7c-1.4,1.1-3,1.7-4.7,1.7c-2.1,0-3.9-0.7-5.3-2.2c-1.5-1.5-2.2-3.2-2.2-5.3
				c0-2.1,0.7-3.9,2.2-5.3c1.5-1.5,3.2-2.2,5.3-2.2c1.8,0,3.4,0.6,4.8,1.8c0.2,0.2,0.3,0.4,0.3,0.7c0,0.1,0,0.3-0.1,0.4
				c0,0.1-0.1,0.2-0.2,0.3s-0.2,0.2-0.3,0.2c-0.1,0.1-0.3,0.1-0.4,0.1c-0.2,0-0.5-0.1-0.7-0.3c-0.5-0.4-1-0.7-1.6-0.9
				c-0.6-0.2-1.2-0.3-1.8-0.3c-1.5,0-2.8,0.5-3.9,1.6c-1.1,1.1-1.6,2.4-1.6,3.9c0,1.5,0.5,2.8,1.6,3.9c1.1,1.1,2.4,1.6,3.9,1.6
				c1.3,0,2.5-0.4,3.5-1.2C174.3,388.1,174.5,388.1,174.7,388.1z"/>
			<path fill="#221F1F" d="M185.7,390.5v-0.2c-0.5,0.4-1,0.7-1.5,0.9s-1.1,0.3-1.8,0.3c-1.5,0-2.7-0.5-3.7-1.5c-1-1-1.5-2.3-1.5-3.7
				s0.5-2.7,1.5-3.7c1-1,2.3-1.5,3.7-1.5c1.4,0,2.7,0.5,3.7,1.5c1,1,1.5,2.3,1.5,3.7v4.3c0,0.3-0.1,0.5-0.3,0.7
				c-0.2,0.2-0.4,0.3-0.7,0.3c-0.3,0-0.5-0.1-0.7-0.3C185.8,391,185.7,390.7,185.7,390.5z M182.4,382.9c-0.5,0-0.9,0.1-1.3,0.3
				c-0.4,0.2-0.7,0.4-1,0.7c-0.3,0.3-0.5,0.6-0.7,1c-0.2,0.4-0.3,0.8-0.3,1.3s0.1,0.9,0.3,1.3c0.2,0.4,0.4,0.8,0.7,1
				c0.3,0.3,0.6,0.5,1,0.7c0.4,0.2,0.8,0.3,1.3,0.3c0.5,0,0.9-0.1,1.3-0.3c0.4-0.2,0.8-0.4,1-0.7c0.3-0.3,0.5-0.7,0.7-1.1
				s0.3-0.8,0.3-1.3s-0.1-0.9-0.3-1.3s-0.4-0.7-0.7-1.1c-0.3-0.3-0.6-0.5-1-0.7C183.3,383,182.8,382.9,182.4,382.9z"/>
			<path fill="#221F1F" d="M190.1,380.9h0.4v-3.5c0-0.3,0.1-0.5,0.3-0.7c0.2-0.2,0.4-0.3,0.7-0.3c0.3,0,0.5,0.1,0.7,0.3
				c0.2,0.2,0.3,0.4,0.3,0.7v3.5h1.2c0.3,0,0.5,0.1,0.7,0.3c0.2,0.2,0.3,0.4,0.3,0.7c0,0.3-0.1,0.5-0.3,0.7s-0.4,0.3-0.7,0.3h-1.2
				v4.7c0,1.2,0.6,1.9,1.9,1.9c0.3,0,0.5,0.1,0.7,0.3c0.2,0.2,0.3,0.4,0.3,0.7c0,0.3-0.1,0.5-0.3,0.7c-0.2,0.2-0.4,0.3-0.7,0.3
				c-2.6,0-3.8-1.3-3.8-3.8v-4.7h-0.4c-0.3,0-0.5-0.1-0.7-0.3c-0.2-0.2-0.3-0.4-0.3-0.7c0-0.3,0.1-0.5,0.3-0.7
				C189.6,381,189.8,380.9,190.1,380.9z"/>
			<path fill="#221F1F" d="M206.6,386.2c0,1.5-0.5,2.7-1.5,3.7c-1,1-2.3,1.5-3.7,1.5c-1.5,0-2.7-0.5-3.7-1.5c-1-1-1.5-2.3-1.5-3.7
				s0.5-2.7,1.5-3.7c1-1,2.3-1.5,3.7-1.5c1.4,0,2.7,0.5,3.7,1.5c0.5,0.5,0.9,1.1,1.2,1.7S206.6,385.5,206.6,386.2z M201.4,382.9
				c-0.5,0-0.9,0.1-1.3,0.3c-0.4,0.2-0.7,0.4-1,0.7c-0.3,0.3-0.5,0.6-0.7,1c-0.2,0.4-0.3,0.8-0.3,1.3s0.1,0.9,0.3,1.3
				c0.2,0.4,0.4,0.8,0.7,1c0.3,0.3,0.6,0.5,1,0.7c0.4,0.2,0.8,0.3,1.3,0.3c0.5,0,0.9-0.1,1.3-0.3c0.4-0.2,0.8-0.4,1-0.7
				c0.3-0.3,0.5-0.7,0.7-1.1s0.3-0.8,0.3-1.3s-0.1-0.9-0.3-1.3s-0.4-0.7-0.7-1.1c-0.3-0.3-0.6-0.5-1-0.7
				C202.3,383,201.8,382.9,201.4,382.9z"/>
			<path fill="#221F1F" d="M217.6,376.4c0.5,0,1,0.1,1.5,0.3c0.5,0.2,0.9,0.5,1.2,0.8c0.4,0.4,0.6,0.8,0.8,1.2
				c0.2,0.5,0.3,1,0.3,1.5c0,1-0.3,1.8-0.9,2.5c0.4,0.2,0.7,0.5,1,0.8c0.3,0.3,0.5,0.6,0.7,1s0.3,0.7,0.4,1.1
				c0.1,0.4,0.2,0.8,0.2,1.2c0,0.6-0.1,1.2-0.4,1.8c-0.2,0.6-0.6,1.1-1,1.5c-0.4,0.4-0.9,0.8-1.5,1s-1.2,0.4-1.8,0.4h-3.6
				c-0.1,0-0.3,0-0.4-0.1c-0.1-0.1-0.2-0.1-0.3-0.2c-0.1-0.1-0.2-0.2-0.2-0.3c-0.1-0.1-0.1-0.3-0.1-0.4v-13.1c0-0.1,0-0.3,0.1-0.4
				c0.1-0.1,0.1-0.2,0.2-0.3c0.1-0.1,0.2-0.2,0.3-0.2c0.1-0.1,0.2-0.1,0.4-0.1H217.6z M215.7,378.4v3.8h1.9c0.3,0,0.5,0,0.7-0.2
				c0.2-0.1,0.4-0.2,0.6-0.4s0.3-0.4,0.4-0.6c0.1-0.2,0.2-0.5,0.2-0.7c0-0.3-0.1-0.5-0.2-0.7c-0.1-0.2-0.2-0.4-0.4-0.6
				c-0.2-0.2-0.4-0.3-0.6-0.4c-0.2-0.1-0.5-0.2-0.7-0.2H215.7z M215.7,384.2v5.3h2.6c0.4,0,0.7-0.1,1-0.2s0.6-0.3,0.8-0.6
				s0.4-0.5,0.6-0.8c0.1-0.3,0.2-0.7,0.2-1c0-0.4-0.1-0.7-0.2-1c-0.1-0.3-0.3-0.6-0.6-0.8c-0.2-0.2-0.5-0.4-0.8-0.6
				c-0.3-0.1-0.7-0.2-1-0.2H215.7z"/>
			<path fill="#221F1F" d="M226.2,381.9v0.2c0.5-0.4,1-0.7,1.5-0.9c0.6-0.2,1.1-0.3,1.8-0.3c0.3,0,0.6,0,0.9,0.1
				c0.3,0,0.6,0.1,0.9,0.2c0.3,0.1,0.5,0.2,0.7,0.4c0.2,0.2,0.3,0.4,0.3,0.7c0,0.1,0,0.3-0.1,0.4c-0.1,0.1-0.1,0.2-0.2,0.3
				c-0.1,0.1-0.2,0.2-0.3,0.2c-0.1,0-0.2,0.1-0.4,0.1c-0.1,0-0.3,0-0.4-0.1c-0.4-0.2-0.8-0.2-1.3-0.2c-0.5,0-0.9,0.1-1.3,0.3
				c-0.4,0.2-0.8,0.4-1,0.7c-0.3,0.3-0.5,0.6-0.7,1.1c-0.2,0.4-0.3,0.8-0.3,1.3v4.3c0,0.3-0.1,0.5-0.3,0.7c-0.2,0.2-0.4,0.3-0.7,0.3
				c-0.3,0-0.5-0.1-0.7-0.3c-0.2-0.2-0.3-0.4-0.3-0.7v-8.6c0-0.3,0.1-0.5,0.3-0.7c0.2-0.2,0.4-0.3,0.7-0.3c0.3,0,0.5,0.1,0.7,0.3
				C226.2,381.4,226.2,381.6,226.2,381.9z"/>
			<path fill="#221F1F" d="M241.9,390.5v-0.2c-0.5,0.4-1,0.7-1.5,0.9s-1.1,0.3-1.8,0.3c-1.5,0-2.7-0.5-3.7-1.5c-1-1-1.5-2.3-1.5-3.7
				s0.5-2.7,1.5-3.7c1-1,2.3-1.5,3.7-1.5c1.4,0,2.7,0.5,3.7,1.5c1,1,1.5,2.3,1.5,3.7v4.3c0,0.3-0.1,0.5-0.3,0.7
				c-0.2,0.2-0.4,0.3-0.7,0.3c-0.3,0-0.5-0.1-0.7-0.3C242,391,241.9,390.7,241.9,390.5z M238.6,382.9c-0.5,0-0.9,0.1-1.3,0.3
				c-0.4,0.2-0.7,0.4-1,0.7c-0.3,0.3-0.5,0.6-0.7,1c-0.2,0.4-0.3,0.8-0.3,1.3s0.1,0.9,0.3,1.3c0.2,0.4,0.4,0.8,0.7,1
				c0.3,0.3,0.6,0.5,1,0.7c0.4,0.2,0.8,0.3,1.3,0.3c0.5,0,0.9-0.1,1.3-0.3c0.4-0.2,0.8-0.4,1-0.7c0.3-0.3,0.5-0.7,0.7-1.1
				s0.3-0.8,0.3-1.3s-0.1-0.9-0.3-1.3s-0.4-0.7-0.7-1.1c-0.3-0.3-0.6-0.5-1-0.7C239.5,383,239.1,382.9,238.6,382.9z"/>
			<path fill="#221F1F" d="M247.3,381.9c0.8-0.6,1.8-1,2.9-1c0.7,0,1.3,0.1,1.9,0.4c0.6,0.3,1.1,0.6,1.6,1.1c0.5,0.4,0.8,1,1.1,1.6
				s0.4,1.2,0.4,1.9v4.6c0,0.3-0.1,0.5-0.3,0.7c-0.2,0.2-0.4,0.3-0.7,0.3c-0.3,0-0.5-0.1-0.7-0.3c-0.2-0.2-0.3-0.4-0.3-0.7v-4.6
				c0-0.4-0.1-0.8-0.2-1.1c-0.2-0.4-0.4-0.7-0.6-0.9c-0.3-0.3-0.6-0.5-0.9-0.6c-0.4-0.2-0.7-0.2-1.1-0.2c-0.4,0-0.8,0.1-1.1,0.2
				c-0.4,0.2-0.7,0.4-0.9,0.6c-0.3,0.3-0.5,0.6-0.6,0.9c-0.2,0.4-0.2,0.7-0.2,1.1v4.6c0,0.3-0.1,0.5-0.3,0.7
				c-0.2,0.2-0.4,0.3-0.7,0.3c-0.3,0-0.5-0.1-0.7-0.3c-0.2-0.2-0.3-0.4-0.3-0.7v-8.6c0-0.3,0.1-0.5,0.3-0.7c0.2-0.2,0.4-0.3,0.7-0.3
				c0.3,0,0.5,0.1,0.7,0.3C247.2,381.4,247.3,381.6,247.3,381.9z"/>
			<path fill="#221F1F" d="M261.9,380.9c1.2,0,2.3,0.4,3.3,1.2v-4.7c0-0.3,0.1-0.5,0.3-0.7c0.2-0.2,0.4-0.3,0.7-0.3
				c0.3,0,0.5,0.1,0.7,0.3c0.2,0.2,0.3,0.4,0.3,0.7v8.8c0,1.5-0.5,2.7-1.5,3.7c-1,1-2.3,1.5-3.7,1.5c-1.5,0-2.7-0.5-3.7-1.5
				c-1-1-1.5-2.3-1.5-3.7s0.5-2.7,1.5-3.7C259.2,381.4,260.5,380.9,261.9,380.9z M265.2,386.2c0-0.5-0.1-0.9-0.3-1.3
				s-0.4-0.7-0.7-1.1c-0.3-0.3-0.6-0.5-1-0.7c-0.4-0.2-0.8-0.3-1.3-0.3c-0.5,0-0.9,0.1-1.3,0.3c-0.4,0.2-0.7,0.4-1,0.7
				c-0.3,0.3-0.5,0.6-0.7,1c-0.2,0.4-0.3,0.8-0.3,1.3s0.1,0.9,0.3,1.3c0.2,0.4,0.4,0.8,0.7,1c0.3,0.3,0.6,0.5,1,0.7
				c0.4,0.2,0.8,0.3,1.3,0.3c0.5,0,0.9-0.1,1.3-0.3c0.4-0.2,0.8-0.4,1-0.7c0.3-0.3,0.5-0.7,0.7-1.1S265.2,386.6,265.2,386.2z"/>
			<path fill="#221F1F" d="M274.3,390.5v-13.1c0-0.1,0-0.3,0.1-0.4s0.1-0.2,0.2-0.3s0.2-0.2,0.3-0.2s0.3-0.1,0.4-0.1h2.9
				c0.5,0,0.9,0.1,1.3,0.2c0.4,0.1,0.8,0.3,1.2,0.5s0.7,0.5,1,0.8s0.6,0.6,0.8,1c0.2,0.4,0.4,0.8,0.5,1.2c0.1,0.4,0.2,0.9,0.2,1.3
				c0,1.4-0.5,2.5-1.5,3.5c-1,1-2.1,1.5-3.5,1.5h-1.9v4.1c0,0.3-0.1,0.5-0.3,0.7s-0.4,0.3-0.7,0.3s-0.5-0.1-0.7-0.3
				S274.3,390.7,274.3,390.5z M276.3,378.4v6h1.9c0.4,0,0.8-0.1,1.2-0.2c0.4-0.2,0.7-0.4,0.9-0.6c0.3-0.3,0.5-0.6,0.6-1
				c0.2-0.4,0.2-0.8,0.2-1.2c0-0.4-0.1-0.8-0.2-1.2c-0.2-0.4-0.4-0.7-0.6-1c-0.3-0.3-0.6-0.5-1-0.6c-0.4-0.2-0.7-0.2-1.1-0.2H276.3z
				"/>
			<path fill="#221F1F" d="M293.1,390.5v-0.2c-0.5,0.4-1,0.7-1.5,0.9s-1.1,0.3-1.8,0.3c-1.5,0-2.7-0.5-3.7-1.5c-1-1-1.5-2.3-1.5-3.7
				s0.5-2.7,1.5-3.7c1-1,2.3-1.5,3.7-1.5c1.4,0,2.7,0.5,3.7,1.5c1,1,1.5,2.3,1.5,3.7v4.3c0,0.3-0.1,0.5-0.3,0.7
				c-0.2,0.2-0.4,0.3-0.7,0.3c-0.3,0-0.5-0.1-0.7-0.3C293.2,391,293.1,390.7,293.1,390.5z M289.8,382.9c-0.5,0-0.9,0.1-1.3,0.3
				c-0.4,0.2-0.7,0.4-1,0.7c-0.3,0.3-0.5,0.6-0.7,1c-0.2,0.4-0.3,0.8-0.3,1.3s0.1,0.9,0.3,1.3c0.2,0.4,0.4,0.8,0.7,1
				c0.3,0.3,0.6,0.5,1,0.7c0.4,0.2,0.8,0.3,1.3,0.3c0.5,0,0.9-0.1,1.3-0.3c0.4-0.2,0.8-0.4,1-0.7c0.3-0.3,0.5-0.7,0.7-1.1
				s0.3-0.8,0.3-1.3s-0.1-0.9-0.3-1.3s-0.4-0.7-0.7-1.1c-0.3-0.3-0.6-0.5-1-0.7C290.6,383,290.2,382.9,289.8,382.9z"/>
			<path fill="#221F1F" d="M298.5,381.9v0.2c0.5-0.4,1-0.7,1.5-0.9c0.6-0.2,1.1-0.3,1.8-0.3c0.3,0,0.6,0,0.9,0.1
				c0.3,0,0.6,0.1,0.9,0.2c0.3,0.1,0.5,0.2,0.7,0.4c0.2,0.2,0.3,0.4,0.3,0.7c0,0.1,0,0.3-0.1,0.4c-0.1,0.1-0.1,0.2-0.2,0.3
				c-0.1,0.1-0.2,0.2-0.3,0.2c-0.1,0-0.2,0.1-0.4,0.1c-0.1,0-0.3,0-0.4-0.1c-0.4-0.2-0.8-0.2-1.3-0.2c-0.5,0-0.9,0.1-1.3,0.3
				c-0.4,0.2-0.8,0.4-1,0.7c-0.3,0.3-0.5,0.6-0.7,1.1c-0.2,0.4-0.3,0.8-0.3,1.3v4.3c0,0.3-0.1,0.5-0.3,0.7c-0.2,0.2-0.4,0.3-0.7,0.3
				c-0.3,0-0.5-0.1-0.7-0.3c-0.2-0.2-0.3-0.4-0.3-0.7v-8.6c0-0.3,0.1-0.5,0.3-0.7c0.2-0.2,0.4-0.3,0.7-0.3c0.3,0,0.5,0.1,0.7,0.3
				C298.4,381.4,298.5,381.6,298.5,381.9z"/>
			<path fill="#221F1F" d="M306.5,380.9h0.4v-3.5c0-0.3,0.1-0.5,0.3-0.7c0.2-0.2,0.4-0.3,0.7-0.3c0.3,0,0.5,0.1,0.7,0.3
				c0.2,0.2,0.3,0.4,0.3,0.7v3.5h1.2c0.3,0,0.5,0.1,0.7,0.3c0.2,0.2,0.3,0.4,0.3,0.7c0,0.3-0.1,0.5-0.3,0.7s-0.4,0.3-0.7,0.3h-1.2
				v4.7c0,1.2,0.6,1.9,1.9,1.9c0.3,0,0.5,0.1,0.7,0.3c0.2,0.2,0.3,0.4,0.3,0.7c0,0.3-0.1,0.5-0.3,0.7c-0.2,0.2-0.4,0.3-0.7,0.3
				c-2.6,0-3.8-1.3-3.8-3.8v-4.7h-0.4c-0.3,0-0.5-0.1-0.7-0.3c-0.2-0.2-0.3-0.4-0.3-0.7c0-0.3,0.1-0.5,0.3-0.7
				C306,381,306.2,380.9,306.5,380.9z"/>
			<path fill="#221F1F" d="M315,381.9c0.8-0.6,1.8-1,2.9-1c0.7,0,1.3,0.1,1.9,0.4c0.6,0.3,1.1,0.6,1.6,1.1c0.5,0.4,0.8,1,1.1,1.6
				s0.4,1.2,0.4,1.9v4.6c0,0.3-0.1,0.5-0.3,0.7c-0.2,0.2-0.4,0.3-0.7,0.3c-0.3,0-0.5-0.1-0.7-0.3c-0.2-0.2-0.3-0.4-0.3-0.7v-4.6
				c0-0.4-0.1-0.8-0.2-1.1c-0.2-0.4-0.4-0.7-0.6-0.9c-0.3-0.3-0.6-0.5-0.9-0.6c-0.4-0.2-0.7-0.2-1.1-0.2c-0.4,0-0.8,0.1-1.1,0.2
				c-0.4,0.2-0.7,0.4-0.9,0.6c-0.3,0.3-0.5,0.6-0.6,0.9c-0.2,0.4-0.2,0.7-0.2,1.1v4.6c0,0.3-0.1,0.5-0.3,0.7
				c-0.2,0.2-0.4,0.3-0.7,0.3c-0.3,0-0.5-0.1-0.7-0.3c-0.2-0.2-0.3-0.4-0.3-0.7v-8.6c0-0.3,0.1-0.5,0.3-0.7c0.2-0.2,0.4-0.3,0.7-0.3
				c0.3,0,0.5,0.1,0.7,0.3C314.9,381.4,315,381.6,315,381.9z"/>
			<path fill="#221F1F" d="M332.4,388.5c0.3,0,0.5,0.1,0.7,0.3c0.2,0.2,0.3,0.4,0.3,0.7c0,0.3-0.1,0.5-0.3,0.7
				c-1,0.9-2.1,1.3-3.4,1.3c-1.5,0-2.7-0.5-3.7-1.5c-1-1-1.5-2.3-1.5-3.7s0.5-2.7,1.5-3.7c1-1,2.3-1.5,3.7-1.5
				c1.4,0,2.7,0.5,3.7,1.5c0.5,0.5,0.9,1.1,1.2,1.7c0.3,0.6,0.4,1.3,0.4,2c0,0.3-0.1,0.5-0.3,0.7s-0.4,0.3-0.7,0.3h-7.4
				c0.1,0.3,0.3,0.7,0.5,0.9c0.2,0.3,0.4,0.5,0.7,0.7c0.3,0.2,0.6,0.4,0.9,0.5c0.3,0.1,0.7,0.2,1,0.2c0.4,0,0.8-0.1,1.1-0.2
				s0.7-0.3,1-0.6C331.9,388.6,332.1,388.5,332.4,388.5z M332.8,385.2c-0.1-0.3-0.3-0.7-0.5-0.9c-0.2-0.3-0.5-0.5-0.7-0.7
				s-0.6-0.4-0.9-0.5c-0.3-0.1-0.7-0.2-1-0.2s-0.7,0.1-1,0.2c-0.3,0.1-0.6,0.3-0.9,0.5s-0.5,0.4-0.7,0.7c-0.2,0.3-0.4,0.6-0.5,0.9
				H332.8z"/>
			<path fill="#221F1F" d="M338.3,381.9v0.2c0.5-0.4,1-0.7,1.5-0.9c0.6-0.2,1.1-0.3,1.8-0.3c0.3,0,0.6,0,0.9,0.1
				c0.3,0,0.6,0.1,0.9,0.2c0.3,0.1,0.5,0.2,0.7,0.4c0.2,0.2,0.3,0.4,0.3,0.7c0,0.1,0,0.3-0.1,0.4c-0.1,0.1-0.1,0.2-0.2,0.3
				c-0.1,0.1-0.2,0.2-0.3,0.2c-0.1,0-0.2,0.1-0.4,0.1c-0.1,0-0.3,0-0.4-0.1c-0.4-0.2-0.8-0.2-1.3-0.2c-0.5,0-0.9,0.1-1.3,0.3
				c-0.4,0.2-0.8,0.4-1,0.7c-0.3,0.3-0.5,0.6-0.7,1.1c-0.2,0.4-0.3,0.8-0.3,1.3v4.3c0,0.3-0.1,0.5-0.3,0.7c-0.2,0.2-0.4,0.3-0.7,0.3
				c-0.3,0-0.5-0.1-0.7-0.3c-0.2-0.2-0.3-0.4-0.3-0.7v-8.6c0-0.3,0.1-0.5,0.3-0.7c0.2-0.2,0.4-0.3,0.7-0.3c0.3,0,0.5,0.1,0.7,0.3
				C338.2,381.4,338.3,381.6,338.3,381.9z"/>
			<path fill="#221F1F" d="M347.3,386.4c-0.6-0.2-1-0.5-1.2-0.7h0c-0.5-0.5-0.7-1.1-0.7-1.7c0-0.5,0.1-0.9,0.4-1.3
				c0.3-0.4,0.6-0.7,1-1c0.4-0.3,0.9-0.5,1.4-0.6s1-0.2,1.5-0.2c1.6,0,2.9,0.6,4,1.9c0.1,0.2,0.2,0.4,0.2,0.6c0,0.3-0.1,0.5-0.3,0.7
				c-0.2,0.2-0.4,0.3-0.7,0.3c-0.2,0-0.4-0.1-0.5-0.2c-0.1-0.1-0.3-0.2-0.4-0.4c-0.6-0.6-1.4-1-2.3-1c-0.9,0-1.6,0.3-2.2,0.8
				c-0.1,0.1-0.2,0.2-0.2,0.4s0.1,0.3,0.2,0.4l4.4,1.5c0.6,0.2,1,0.5,1.2,0.7h0c0.5,0.5,0.7,1.1,0.7,1.7c0,0.5-0.1,0.9-0.4,1.3
				s-0.6,0.7-1,1c-0.4,0.3-0.9,0.5-1.4,0.6c-0.5,0.1-1,0.2-1.5,0.2c-1.6,0-2.9-0.6-4-1.9c-0.1-0.2-0.2-0.4-0.2-0.6
				c0-0.3,0.1-0.5,0.3-0.7s0.4-0.3,0.7-0.3c0.2,0,0.4,0.1,0.5,0.2c0.1,0.1,0.3,0.2,0.4,0.4c0.6,0.6,1.4,1,2.3,1
				c0.9,0,1.6-0.3,2.2-0.8c0.1-0.1,0.1-0.2,0.1-0.4c0-0.2-0.1-0.3-0.3-0.4L347.3,386.4z"/>
			<path fill="#221F1F" d="M167.1,397.4c2.1,0,3.8,0.7,5.3,2.2c0.7,0.7,1.3,1.5,1.7,2.4c0.4,0.9,0.6,1.8,0.6,2.9
				c0,2.1-0.7,3.9-2.2,5.3c-1.5,1.5-3.2,2.2-5.3,2.2h-2.9c-0.1,0-0.3,0-0.4-0.1c-0.1-0.1-0.2-0.1-0.3-0.2s-0.2-0.2-0.2-0.3
				s-0.1-0.3-0.1-0.4v-13.1c0-0.1,0-0.3,0.1-0.4s0.1-0.2,0.2-0.3s0.2-0.2,0.3-0.2c0.1-0.1,0.3-0.1,0.4-0.1H167.1z M167.1,410.5
				c1.5,0,2.8-0.5,3.9-1.6c0.5-0.5,1-1.1,1.2-1.8s0.4-1.4,0.4-2.1c0-1.5-0.5-2.8-1.6-3.9c-1.1-1.1-2.4-1.6-3.9-1.6h-1.9v11.1H167.1z
				"/>
			<path fill="#221F1F" d="M184,409.5c0.3,0,0.5,0.1,0.7,0.3c0.2,0.2,0.3,0.4,0.3,0.7c0,0.3-0.1,0.5-0.3,0.7c-1,0.9-2.1,1.3-3.4,1.3
				c-1.5,0-2.7-0.5-3.7-1.5c-1-1-1.5-2.3-1.5-3.7s0.5-2.7,1.5-3.7c1-1,2.3-1.5,3.7-1.5c1.4,0,2.7,0.5,3.7,1.5
				c0.5,0.5,0.9,1.1,1.2,1.7c0.3,0.6,0.4,1.3,0.4,2c0,0.3-0.1,0.5-0.3,0.7s-0.4,0.3-0.7,0.3h-7.4c0.1,0.3,0.3,0.7,0.5,0.9
				c0.2,0.3,0.4,0.5,0.7,0.7c0.3,0.2,0.6,0.4,0.9,0.5c0.3,0.1,0.7,0.2,1,0.2c0.4,0,0.8-0.1,1.1-0.2s0.7-0.3,1-0.6
				C183.5,409.6,183.7,409.5,184,409.5z M184.4,406.2c-0.1-0.3-0.3-0.7-0.5-0.9c-0.2-0.3-0.5-0.5-0.7-0.7s-0.6-0.4-0.9-0.5
				c-0.3-0.1-0.7-0.2-1-0.2s-0.7,0.1-1,0.2c-0.3,0.1-0.6,0.3-0.9,0.5s-0.5,0.4-0.7,0.7c-0.2,0.3-0.4,0.6-0.5,0.9H184.4z"/>
			<path fill="#221F1F" d="M189.9,407.4c-0.6-0.2-1-0.5-1.2-0.7h0c-0.5-0.5-0.7-1.1-0.7-1.7c0-0.5,0.1-0.9,0.4-1.3
				c0.3-0.4,0.6-0.7,1-1c0.4-0.3,0.9-0.5,1.4-0.6s1-0.2,1.5-0.2c1.6,0,2.9,0.6,4,1.9c0.1,0.2,0.2,0.4,0.2,0.6c0,0.3-0.1,0.5-0.3,0.7
				c-0.2,0.2-0.4,0.3-0.7,0.3c-0.2,0-0.4-0.1-0.5-0.2c-0.1-0.1-0.3-0.2-0.4-0.4c-0.6-0.6-1.4-1-2.3-1c-0.9,0-1.6,0.3-2.2,0.8
				c-0.1,0.1-0.2,0.2-0.2,0.4s0.1,0.3,0.2,0.4l4.4,1.5c0.6,0.2,1,0.5,1.2,0.7h0c0.5,0.5,0.7,1.1,0.7,1.7c0,0.5-0.1,0.9-0.4,1.3
				s-0.6,0.7-1,1c-0.4,0.3-0.9,0.5-1.4,0.6c-0.5,0.1-1,0.2-1.5,0.2c-1.6,0-2.9-0.6-4-1.9c-0.1-0.2-0.2-0.4-0.2-0.6
				c0-0.3,0.1-0.5,0.3-0.7s0.4-0.3,0.7-0.3c0.2,0,0.4,0.1,0.5,0.2c0.1,0.1,0.3,0.2,0.4,0.4c0.6,0.6,1.4,1,2.3,1
				c0.9,0,1.6-0.3,2.2-0.8c0.1-0.1,0.1-0.2,0.1-0.4c0-0.2-0.1-0.3-0.3-0.4L189.9,407.4z"/>
			<path fill="#221F1F" d="M200.6,400c0,0.3-0.1,0.6-0.3,0.8c-0.2,0.2-0.5,0.3-0.8,0.3c-0.3,0-0.6-0.1-0.8-0.3
				c-0.2-0.2-0.3-0.5-0.3-0.8s0.1-0.6,0.3-0.8c0.2-0.2,0.5-0.3,0.8-0.3c0.3,0,0.6,0.1,0.8,0.3C200.5,399.4,200.6,399.7,200.6,400z
				 M198.5,411.5v-8.6c0-0.3,0.1-0.5,0.3-0.7c0.2-0.2,0.4-0.3,0.7-0.3s0.5,0.1,0.7,0.3c0.2,0.2,0.3,0.4,0.3,0.7v8.6
				c0,0.3-0.1,0.5-0.3,0.7c-0.2,0.2-0.4,0.3-0.7,0.3s-0.5-0.1-0.7-0.3C198.6,412,198.5,411.7,198.5,411.5z"/>
			<path fill="#221F1F" d="M211.1,411.3c-0.9,0.8-2,1.2-3.3,1.2c-1.5,0-2.7-0.5-3.7-1.5c-1-1-1.5-2.3-1.5-3.7s0.5-2.7,1.5-3.7
				c1-1,2.3-1.5,3.7-1.5c1.4,0,2.7,0.5,3.7,1.5c1,1,1.5,2.3,1.5,3.7v5.2c0,0.5-0.1,0.9-0.2,1.3c-0.1,0.4-0.3,0.8-0.6,1.1
				s-0.5,0.6-0.9,0.9c-0.3,0.3-0.7,0.5-1.1,0.7c-0.4,0.2-0.8,0.3-1.2,0.4s-0.8,0.2-1.3,0.2c-0.5,0-1-0.1-1.5-0.2
				c-0.5-0.1-0.9-0.3-1.4-0.6c-0.4-0.3-0.8-0.6-1.2-0.9c-0.4-0.4-0.7-0.8-0.9-1.2c-0.1-0.1-0.2-0.3-0.2-0.5c0-0.3,0.1-0.5,0.3-0.7
				c0.2-0.2,0.4-0.3,0.7-0.3c0.2,0,0.3,0,0.5,0.1s0.3,0.3,0.5,0.6c0.2,0.3,0.4,0.5,0.6,0.7c0.7,0.7,1.6,1.1,2.6,1.1
				c1,0,1.9-0.4,2.6-1.1c0.4-0.5,0.6-1,0.6-1.5V411.3z M207.8,403.9c-0.5,0-0.9,0.1-1.3,0.3c-0.4,0.2-0.7,0.4-1,0.7
				c-0.3,0.3-0.5,0.6-0.7,1c-0.2,0.4-0.3,0.8-0.3,1.3s0.1,0.9,0.3,1.3c0.2,0.4,0.4,0.8,0.7,1c0.3,0.3,0.6,0.5,1,0.7
				c0.4,0.2,0.8,0.3,1.3,0.3c0.5,0,0.9-0.1,1.3-0.3c0.4-0.2,0.8-0.4,1-0.7c0.3-0.3,0.5-0.7,0.7-1.1s0.3-0.8,0.3-1.3
				s-0.1-0.9-0.3-1.3s-0.4-0.7-0.7-1.1c-0.3-0.3-0.6-0.5-1-0.7C208.6,404,208.2,403.9,207.8,403.9z"/>
			<path fill="#221F1F" d="M216.5,402.9c0.8-0.6,1.8-1,2.9-1c0.7,0,1.3,0.1,1.9,0.4c0.6,0.3,1.1,0.6,1.6,1.1c0.5,0.4,0.8,1,1.1,1.6
				s0.4,1.2,0.4,1.9v4.6c0,0.3-0.1,0.5-0.3,0.7c-0.2,0.2-0.4,0.3-0.7,0.3c-0.3,0-0.5-0.1-0.7-0.3c-0.2-0.2-0.3-0.4-0.3-0.7v-4.6
				c0-0.4-0.1-0.8-0.2-1.1c-0.2-0.4-0.4-0.7-0.6-0.9c-0.3-0.3-0.6-0.5-0.9-0.6c-0.4-0.2-0.7-0.2-1.1-0.2c-0.4,0-0.8,0.1-1.1,0.2
				c-0.4,0.2-0.7,0.4-0.9,0.6c-0.3,0.3-0.5,0.6-0.6,0.9c-0.2,0.4-0.2,0.7-0.2,1.1v4.6c0,0.3-0.1,0.5-0.3,0.7
				c-0.2,0.2-0.4,0.3-0.7,0.3c-0.3,0-0.5-0.1-0.7-0.3c-0.2-0.2-0.3-0.4-0.3-0.7v-8.6c0-0.3,0.1-0.5,0.3-0.7c0.2-0.2,0.4-0.3,0.7-0.3
				c0.3,0,0.5,0.1,0.7,0.3C216.4,402.4,216.5,402.6,216.5,402.9z"/>
			<path fill="#221F1F" d="M231.4,411.5v-13.1c0-0.1,0-0.3,0.1-0.4c0-0.1,0.1-0.2,0.2-0.3s0.2-0.2,0.3-0.2s0.3-0.1,0.4-0.1h8.7
				c0.3,0,0.5,0.1,0.7,0.3s0.3,0.4,0.3,0.7c0,0.3-0.1,0.5-0.3,0.7s-0.4,0.3-0.7,0.3h-7.7v4.5h5.5c0.3,0,0.5,0.1,0.7,0.3
				c0.2,0.2,0.3,0.4,0.3,0.7s-0.1,0.5-0.3,0.7c-0.2,0.2-0.4,0.3-0.7,0.3h-5.5v5.5c0,0.3-0.1,0.5-0.3,0.7s-0.4,0.3-0.7,0.3
				c-0.3,0-0.5-0.1-0.7-0.3S231.4,411.7,231.4,411.5z"/>
			<path fill="#221F1F" d="M252.5,407.2c0,1.5-0.5,2.7-1.5,3.7c-1,1-2.3,1.5-3.7,1.5c-1.5,0-2.7-0.5-3.7-1.5c-1-1-1.5-2.3-1.5-3.7
				s0.5-2.7,1.5-3.7c1-1,2.3-1.5,3.7-1.5c1.4,0,2.7,0.5,3.7,1.5c0.5,0.5,0.9,1.1,1.2,1.7S252.5,406.5,252.5,407.2z M247.2,403.9
				c-0.5,0-0.9,0.1-1.3,0.3c-0.4,0.2-0.7,0.4-1,0.7c-0.3,0.3-0.5,0.6-0.7,1c-0.2,0.4-0.3,0.8-0.3,1.3s0.1,0.9,0.3,1.3
				c0.2,0.4,0.4,0.8,0.7,1c0.3,0.3,0.6,0.5,1,0.7c0.4,0.2,0.8,0.3,1.3,0.3c0.5,0,0.9-0.1,1.3-0.3c0.4-0.2,0.8-0.4,1-0.7
				c0.3-0.3,0.5-0.7,0.7-1.1s0.3-0.8,0.3-1.3s-0.1-0.9-0.3-1.3s-0.4-0.7-0.7-1.1c-0.3-0.3-0.6-0.5-1-0.7
				C248.1,404,247.7,403.9,247.2,403.9z"/>
			<path fill="#221F1F" d="M262.8,412.5c-0.3,0-0.5-0.1-0.7-0.3c-0.2-0.2-0.3-0.4-0.3-0.7c-0.4,0.3-0.9,0.6-1.4,0.7
				c-0.5,0.2-1,0.2-1.6,0.2c-0.7,0-1.3-0.1-1.9-0.4c-0.6-0.3-1.1-0.6-1.6-1.1c-0.4-0.4-0.8-1-1.1-1.6c-0.3-0.6-0.4-1.2-0.4-1.9v-4.7
				c0-0.3,0.1-0.5,0.3-0.7c0.2-0.2,0.4-0.3,0.7-0.3c0.3,0,0.5,0.1,0.7,0.3c0.2,0.2,0.3,0.4,0.3,0.7v4.7c0,0.4,0.1,0.8,0.2,1.1
				c0.2,0.4,0.4,0.7,0.6,0.9c0.3,0.3,0.6,0.5,0.9,0.6c0.4,0.2,0.7,0.2,1.1,0.2c0.4,0,0.8-0.1,1.1-0.2c0.4-0.2,0.7-0.4,0.9-0.6
				c0.3-0.3,0.5-0.6,0.6-0.9c0.2-0.4,0.2-0.7,0.2-1.1v-4.7c0-0.3,0.1-0.5,0.3-0.7c0.2-0.2,0.4-0.3,0.7-0.3c0.3,0,0.5,0.1,0.7,0.3
				c0.2,0.2,0.3,0.4,0.3,0.7v8.6c0,0.3-0.1,0.5-0.3,0.7C263.3,412.4,263.1,412.5,262.8,412.5z"/>
			<path fill="#221F1F" d="M267.3,402.9c0.8-0.6,1.8-1,2.9-1c0.7,0,1.3,0.1,1.9,0.4c0.6,0.3,1.1,0.6,1.6,1.1c0.5,0.4,0.8,1,1.1,1.6
				s0.4,1.2,0.4,1.9v4.6c0,0.3-0.1,0.5-0.3,0.7c-0.2,0.2-0.4,0.3-0.7,0.3c-0.3,0-0.5-0.1-0.7-0.3c-0.2-0.2-0.3-0.4-0.3-0.7v-4.6
				c0-0.4-0.1-0.8-0.2-1.1c-0.2-0.4-0.4-0.7-0.6-0.9c-0.3-0.3-0.6-0.5-0.9-0.6c-0.4-0.2-0.7-0.2-1.1-0.2c-0.4,0-0.8,0.1-1.1,0.2
				c-0.4,0.2-0.7,0.4-0.9,0.6c-0.3,0.3-0.5,0.6-0.6,0.9c-0.2,0.4-0.2,0.7-0.2,1.1v4.6c0,0.3-0.1,0.5-0.3,0.7
				c-0.2,0.2-0.4,0.3-0.7,0.3c-0.3,0-0.5-0.1-0.7-0.3c-0.2-0.2-0.3-0.4-0.3-0.7v-8.6c0-0.3,0.1-0.5,0.3-0.7c0.2-0.2,0.4-0.3,0.7-0.3
				c0.3,0,0.5,0.1,0.7,0.3C267.2,402.4,267.3,402.6,267.3,402.9z"/>
			<path fill="#221F1F" d="M281.8,401.9c1.2,0,2.3,0.4,3.3,1.2v-4.7c0-0.3,0.1-0.5,0.3-0.7c0.2-0.2,0.4-0.3,0.7-0.3
				c0.3,0,0.5,0.1,0.7,0.3c0.2,0.2,0.3,0.4,0.3,0.7v8.8c0,1.5-0.5,2.7-1.5,3.7c-1,1-2.3,1.5-3.7,1.5c-1.5,0-2.7-0.5-3.7-1.5
				c-1-1-1.5-2.3-1.5-3.7s0.5-2.7,1.5-3.7C279.1,402.4,280.4,401.9,281.8,401.9z M285.1,407.2c0-0.5-0.1-0.9-0.3-1.3
				s-0.4-0.7-0.7-1.1c-0.3-0.3-0.6-0.5-1-0.7c-0.4-0.2-0.8-0.3-1.3-0.3c-0.5,0-0.9,0.1-1.3,0.3c-0.4,0.2-0.7,0.4-1,0.7
				c-0.3,0.3-0.5,0.6-0.7,1c-0.2,0.4-0.3,0.8-0.3,1.3s0.1,0.9,0.3,1.3c0.2,0.4,0.4,0.8,0.7,1c0.3,0.3,0.6,0.5,1,0.7
				c0.4,0.2,0.8,0.3,1.3,0.3c0.5,0,0.9-0.1,1.3-0.3c0.4-0.2,0.8-0.4,1-0.7c0.3-0.3,0.5-0.7,0.7-1.1S285.1,407.6,285.1,407.2z"/>
			<path fill="#221F1F" d="M297.2,411.5v-0.2c-0.5,0.4-1,0.7-1.5,0.9s-1.1,0.3-1.8,0.3c-1.5,0-2.7-0.5-3.7-1.5c-1-1-1.5-2.3-1.5-3.7
				s0.5-2.7,1.5-3.7c1-1,2.3-1.5,3.7-1.5c1.4,0,2.7,0.5,3.7,1.5c1,1,1.5,2.3,1.5,3.7v4.3c0,0.3-0.1,0.5-0.3,0.7
				c-0.2,0.2-0.4,0.3-0.7,0.3c-0.3,0-0.5-0.1-0.7-0.3C297.3,412,297.2,411.7,297.2,411.5z M293.9,403.9c-0.5,0-0.9,0.1-1.3,0.3
				c-0.4,0.2-0.7,0.4-1,0.7c-0.3,0.3-0.5,0.6-0.7,1c-0.2,0.4-0.3,0.8-0.3,1.3s0.1,0.9,0.3,1.3c0.2,0.4,0.4,0.8,0.7,1
				c0.3,0.3,0.6,0.5,1,0.7c0.4,0.2,0.8,0.3,1.3,0.3c0.5,0,0.9-0.1,1.3-0.3c0.4-0.2,0.8-0.4,1-0.7c0.3-0.3,0.5-0.7,0.7-1.1
				s0.3-0.8,0.3-1.3s-0.1-0.9-0.3-1.3s-0.4-0.7-0.7-1.1c-0.3-0.3-0.6-0.5-1-0.7C294.8,404,294.3,403.9,293.9,403.9z"/>
			<path fill="#221F1F" d="M301.6,401.9h0.4v-3.5c0-0.3,0.1-0.5,0.3-0.7c0.2-0.2,0.4-0.3,0.7-0.3c0.3,0,0.5,0.1,0.7,0.3
				c0.2,0.2,0.3,0.4,0.3,0.7v3.5h1.2c0.3,0,0.5,0.1,0.7,0.3c0.2,0.2,0.3,0.4,0.3,0.7c0,0.3-0.1,0.5-0.3,0.7s-0.4,0.3-0.7,0.3H304
				v4.7c0,1.2,0.6,1.9,1.9,1.9c0.3,0,0.5,0.1,0.7,0.3c0.2,0.2,0.3,0.4,0.3,0.7c0,0.3-0.1,0.5-0.3,0.7c-0.2,0.2-0.4,0.3-0.7,0.3
				c-2.6,0-3.8-1.3-3.8-3.8v-4.7h-0.4c-0.3,0-0.5-0.1-0.7-0.3c-0.2-0.2-0.3-0.4-0.3-0.7c0-0.3,0.1-0.5,0.3-0.7
				C301.1,402,301.3,401.9,301.6,401.9z"/>
			<path fill="#221F1F" d="M310.8,400c0,0.3-0.1,0.6-0.3,0.8c-0.2,0.2-0.5,0.3-0.8,0.3c-0.3,0-0.6-0.1-0.8-0.3
				c-0.2-0.2-0.3-0.5-0.3-0.8s0.1-0.6,0.3-0.8c0.2-0.2,0.5-0.3,0.8-0.3c0.3,0,0.6,0.1,0.8,0.3C310.7,399.4,310.8,399.7,310.8,400z
				 M308.7,411.5v-8.6c0-0.3,0.1-0.5,0.3-0.7c0.2-0.2,0.4-0.3,0.7-0.3s0.5,0.1,0.7,0.3c0.2,0.2,0.3,0.4,0.3,0.7v8.6
				c0,0.3-0.1,0.5-0.3,0.7c-0.2,0.2-0.4,0.3-0.7,0.3s-0.5-0.1-0.7-0.3C308.8,412,308.7,411.7,308.7,411.5z"/>
			<path fill="#221F1F" d="M323.2,407.2c0,1.5-0.5,2.7-1.5,3.7c-1,1-2.3,1.5-3.7,1.5c-1.5,0-2.7-0.5-3.7-1.5c-1-1-1.5-2.3-1.5-3.7
				s0.5-2.7,1.5-3.7c1-1,2.3-1.5,3.7-1.5c1.4,0,2.7,0.5,3.7,1.5c0.5,0.5,0.9,1.1,1.2,1.7S323.2,406.5,323.2,407.2z M317.9,403.9
				c-0.5,0-0.9,0.1-1.3,0.3c-0.4,0.2-0.7,0.4-1,0.7c-0.3,0.3-0.5,0.6-0.7,1c-0.2,0.4-0.3,0.8-0.3,1.3s0.1,0.9,0.3,1.3
				c0.2,0.4,0.4,0.8,0.7,1c0.3,0.3,0.6,0.5,1,0.7c0.4,0.2,0.8,0.3,1.3,0.3c0.5,0,0.9-0.1,1.3-0.3c0.4-0.2,0.8-0.4,1-0.7
				c0.3-0.3,0.5-0.7,0.7-1.1s0.3-0.8,0.3-1.3s-0.1-0.9-0.3-1.3s-0.4-0.7-0.7-1.1c-0.3-0.3-0.6-0.5-1-0.7
				C318.8,404,318.4,403.9,317.9,403.9z"/>
			<path fill="#221F1F" d="M326.7,402.9c0.8-0.6,1.8-1,2.9-1c0.7,0,1.3,0.1,1.9,0.4c0.6,0.3,1.1,0.6,1.6,1.1c0.5,0.4,0.8,1,1.1,1.6
				s0.4,1.2,0.4,1.9v4.6c0,0.3-0.1,0.5-0.3,0.7c-0.2,0.2-0.4,0.3-0.7,0.3c-0.3,0-0.5-0.1-0.7-0.3c-0.2-0.2-0.3-0.4-0.3-0.7v-4.6
				c0-0.4-0.1-0.8-0.2-1.1c-0.2-0.4-0.4-0.7-0.6-0.9c-0.3-0.3-0.6-0.5-0.9-0.6c-0.4-0.2-0.7-0.2-1.1-0.2c-0.4,0-0.8,0.1-1.1,0.2
				c-0.4,0.2-0.7,0.4-0.9,0.6c-0.3,0.3-0.5,0.6-0.6,0.9c-0.2,0.4-0.2,0.7-0.2,1.1v4.6c0,0.3-0.1,0.5-0.3,0.7
				c-0.2,0.2-0.4,0.3-0.7,0.3c-0.3,0-0.5-0.1-0.7-0.3c-0.2-0.2-0.3-0.4-0.3-0.7v-8.6c0-0.3,0.1-0.5,0.3-0.7c0.2-0.2,0.4-0.3,0.7-0.3
				c0.3,0,0.5,0.1,0.7,0.3C326.6,402.4,326.7,402.6,326.7,402.9z"/>
		</g>
		<line fill="none" stroke="#221F1F" stroke-width="1.0217" stroke-miterlimit="10" x1="139.7" y1="331.2" x2="139.7" y2="412.6"/>
	</g>
	<g>
		<path fill="#221F1F" d="M756.7,661.4v5.4H756v-5.4H756.7z"/>
		<path fill="#221F1F" d="M758,664c0-0.4,0-0.7,0-1h0.6l0,0.6h0c0.2-0.4,0.6-0.7,1.2-0.7c0.5,0,0.9,0.3,1.1,0.8h0
			c0.1-0.2,0.3-0.4,0.4-0.5c0.2-0.2,0.5-0.3,0.9-0.3c0.5,0,1.3,0.3,1.3,1.7v2.3h-0.7v-2.2c0-0.7-0.3-1.2-0.8-1.2
			c-0.4,0-0.7,0.3-0.8,0.6c0,0.1-0.1,0.2-0.1,0.4v2.4h-0.7v-2.3c0-0.6-0.3-1.1-0.8-1.1c-0.4,0-0.8,0.4-0.9,0.7
			c0,0.1-0.1,0.2-0.1,0.3v2.3H758V664z"/>
		<path fill="#221F1F" d="M766.8,666.8l-0.1-0.5h0c-0.2,0.3-0.6,0.6-1.2,0.6c-0.8,0-1.2-0.6-1.2-1.1c0-0.9,0.8-1.4,2.3-1.4v-0.1
			c0-0.3-0.1-0.9-0.9-0.9c-0.4,0-0.7,0.1-1,0.3l-0.2-0.5c0.3-0.2,0.8-0.3,1.3-0.3c1.2,0,1.5,0.8,1.5,1.6v1.4c0,0.3,0,0.7,0.1,0.9
			H766.8z M766.7,664.8c-0.8,0-1.6,0.1-1.6,0.9c0,0.5,0.3,0.7,0.7,0.7c0.5,0,0.8-0.3,0.9-0.6c0-0.1,0-0.2,0-0.2V664.8z"/>
		<path fill="#221F1F" d="M771.9,662.9c0,0.3,0,0.6,0,1.1v2.2c0,0.9-0.2,1.4-0.6,1.8c-0.4,0.4-0.9,0.5-1.4,0.5c-0.5,0-1-0.1-1.3-0.3
			l0.2-0.5c0.3,0.2,0.7,0.3,1.1,0.3c0.7,0,1.2-0.4,1.2-1.4v-0.4h0c-0.2,0.4-0.6,0.6-1.2,0.6c-1,0-1.6-0.8-1.6-1.9
			c0-1.3,0.9-2.1,1.7-2.1c0.7,0,1,0.4,1.2,0.7h0l0-0.6H771.9z M771.1,664.5c0-0.1,0-0.2,0-0.3c-0.1-0.4-0.5-0.7-1-0.7
			c-0.7,0-1.2,0.6-1.2,1.5c0,0.8,0.4,1.4,1.1,1.4c0.4,0,0.8-0.3,1-0.7c0-0.1,0.1-0.3,0.1-0.4V664.5z"/>
		<path fill="#221F1F" d="M773.4,665c0,1,0.6,1.3,1.3,1.3c0.5,0,0.8-0.1,1.1-0.2l0.1,0.5c-0.2,0.1-0.7,0.2-1.3,0.2
			c-1.2,0-1.9-0.8-1.9-2c0-1.2,0.7-2.1,1.8-2.1c1.3,0,1.6,1.1,1.6,1.8c0,0.1,0,0.3,0,0.3H773.4z M775.5,664.5c0-0.4-0.2-1.1-1-1.1
			c-0.7,0-1,0.7-1.1,1.1H775.5z"/>
		<path fill="#221F1F" d="M778.6,666.1c0.2,0.1,0.6,0.3,0.9,0.3c0.5,0,0.8-0.3,0.8-0.6c0-0.3-0.2-0.5-0.7-0.7c-0.7-0.2-1-0.6-1-1.1
			c0-0.6,0.5-1.1,1.3-1.1c0.4,0,0.7,0.1,1,0.2l-0.2,0.5c-0.2-0.1-0.4-0.2-0.8-0.2c-0.4,0-0.6,0.2-0.6,0.5c0,0.3,0.2,0.5,0.7,0.7
			c0.7,0.3,1,0.6,1,1.2c0,0.7-0.5,1.2-1.4,1.2c-0.4,0-0.8-0.1-1.1-0.3L778.6,666.1z"/>
		<path fill="#221F1F" d="M785.4,664.8c0,1.4-1,2.1-1.9,2.1c-1,0-1.9-0.8-1.9-2c0-1.3,0.8-2.1,1.9-2.1
			C784.6,662.9,785.4,663.7,785.4,664.8z M782.3,664.9c0,0.8,0.5,1.5,1.2,1.5c0.7,0,1.2-0.6,1.2-1.5c0-0.7-0.3-1.5-1.2-1.5
			C782.7,663.4,782.3,664.1,782.3,664.9z"/>
		<path fill="#221F1F" d="M789.5,665.8c0,0.4,0,0.8,0,1.1h-0.6l0-0.6h0c-0.2,0.3-0.6,0.7-1.3,0.7c-0.6,0-1.3-0.3-1.3-1.7v-2.3h0.7
			v2.1c0,0.7,0.2,1.2,0.9,1.2c0.5,0,0.8-0.3,0.9-0.6c0-0.1,0.1-0.2,0.1-0.4v-2.4h0.7V665.8z"/>
		<path fill="#221F1F" d="M790.7,664.1c0-0.5,0-0.8,0-1.2h0.6l0,0.8h0c0.2-0.5,0.6-0.8,1.1-0.8c0.1,0,0.1,0,0.2,0v0.7
			c-0.1,0-0.1,0-0.2,0c-0.5,0-0.8,0.4-0.9,0.9c0,0.1,0,0.2,0,0.3v2.1h-0.7V664.1z"/>
		<path fill="#221F1F" d="M796,666.7c-0.2,0.1-0.6,0.2-1.1,0.2c-1.2,0-1.9-0.8-1.9-2c0-1.2,0.8-2.1,2.1-2.1c0.4,0,0.8,0.1,1,0.2
			l-0.2,0.5c-0.2-0.1-0.4-0.2-0.8-0.2c-0.9,0-1.4,0.7-1.4,1.5c0,0.9,0.6,1.4,1.3,1.4c0.4,0,0.7-0.1,0.9-0.2L796,666.7z"/>
		<path fill="#221F1F" d="M797.1,665c0,1,0.6,1.3,1.3,1.3c0.5,0,0.8-0.1,1.1-0.2l0.1,0.5c-0.2,0.1-0.7,0.2-1.3,0.2
			c-1.2,0-1.9-0.8-1.9-2c0-1.2,0.7-2.1,1.8-2.1c1.3,0,1.6,1.1,1.6,1.8c0,0.1,0,0.3,0,0.3H797.1z M799.2,664.5c0-0.4-0.2-1.1-1-1.1
			c-0.7,0-1,0.7-1.1,1.1H799.2z"/>
		<path fill="#221F1F" d="M800.6,663.6c0-0.3,0.2-0.5,0.5-0.5s0.5,0.2,0.5,0.5c0,0.3-0.2,0.5-0.5,0.5
			C800.8,664.1,800.6,663.9,800.6,663.6z M800.6,666.4c0-0.3,0.2-0.5,0.5-0.5s0.5,0.2,0.5,0.5c0,0.3-0.2,0.5-0.5,0.5
			C800.8,666.9,800.6,666.7,800.6,666.4z"/>
		<path fill="#221F1F" d="M804.1,661.1h0.7v2.4h0c0.1-0.2,0.3-0.4,0.5-0.5c0.2-0.1,0.5-0.2,0.7-0.2c0.5,0,1.4,0.3,1.4,1.7v2.3h-0.7
			v-2.2c0-0.6-0.2-1.2-0.9-1.2c-0.5,0-0.8,0.3-0.9,0.7c0,0.1,0,0.2,0,0.3v2.3h-0.7V661.1z"/>
		<path fill="#221F1F" d="M809.4,661.8v1.1h1v0.5h-1v2.1c0,0.5,0.1,0.8,0.5,0.8c0.2,0,0.3,0,0.4,0l0,0.5c-0.1,0.1-0.4,0.1-0.6,0.1
			c-0.3,0-0.6-0.1-0.8-0.3c-0.2-0.2-0.3-0.6-0.3-1v-2.1h-0.6v-0.5h0.6V662L809.4,661.8z"/>
		<path fill="#221F1F" d="M812,661.8v1.1h1v0.5h-1v2.1c0,0.5,0.1,0.8,0.5,0.8c0.2,0,0.3,0,0.4,0l0,0.5c-0.1,0.1-0.4,0.1-0.6,0.1
			c-0.3,0-0.6-0.1-0.8-0.3c-0.2-0.2-0.3-0.6-0.3-1v-2.1h-0.6v-0.5h0.6V662L812,661.8z"/>
		<path fill="#221F1F" d="M813.8,664.2c0-0.5,0-0.9,0-1.3h0.6l0,0.7h0c0.3-0.5,0.7-0.8,1.4-0.8c0.9,0,1.6,0.8,1.6,2
			c0,1.4-0.8,2.1-1.8,2.1c-0.5,0-1-0.2-1.2-0.6h0v2.1h-0.7V664.2z M814.5,665.2c0,0.1,0,0.2,0,0.3c0.1,0.5,0.6,0.8,1.1,0.8
			c0.7,0,1.2-0.6,1.2-1.5c0-0.8-0.4-1.4-1.2-1.4c-0.5,0-0.9,0.3-1.1,0.9c0,0.1,0,0.2,0,0.3V665.2z"/>
		<path fill="#221F1F" d="M818.2,663.6c0-0.3,0.2-0.5,0.5-0.5s0.5,0.2,0.5,0.5c0,0.3-0.2,0.5-0.5,0.5
			C818.4,664.1,818.2,663.9,818.2,663.6z M818.2,666.4c0-0.3,0.2-0.5,0.5-0.5s0.5,0.2,0.5,0.5c0,0.3-0.2,0.5-0.5,0.5
			C818.4,666.9,818.2,666.7,818.2,666.4z"/>
		<path fill="#221F1F" d="M819.4,667.1l2.2-5.8h0.5l-2.2,5.8H819.4z"/>
		<path fill="#221F1F" d="M822.2,667.1l2.2-5.8h0.5l-2.2,5.8H822.2z"/>
		<path fill="#221F1F" d="M825.8,662.9l0.5,2c0.1,0.4,0.2,0.8,0.3,1.2h0c0.1-0.4,0.2-0.8,0.3-1.2l0.6-2h0.6l0.6,1.9
			c0.1,0.5,0.3,0.9,0.3,1.3h0c0.1-0.4,0.2-0.8,0.3-1.3l0.6-1.9h0.7l-1.2,3.9h-0.6l-0.6-1.8c-0.1-0.4-0.2-0.8-0.3-1.3h0
			c-0.1,0.5-0.2,0.9-0.4,1.3l-0.6,1.8h-0.6l-1.2-3.9H825.8z"/>
		<path fill="#221F1F" d="M831.8,662.9l0.5,2c0.1,0.4,0.2,0.8,0.3,1.2h0c0.1-0.4,0.2-0.8,0.3-1.2l0.6-2h0.6l0.6,1.9
			c0.1,0.5,0.3,0.9,0.3,1.3h0c0.1-0.4,0.2-0.8,0.3-1.3l0.6-1.9h0.7l-1.2,3.9h-0.6l-0.6-1.8c-0.1-0.4-0.2-0.8-0.3-1.3h0
			c-0.1,0.5-0.2,0.9-0.4,1.3l-0.6,1.8h-0.6l-1.2-3.9H831.8z"/>
		<path fill="#221F1F" d="M837.8,662.9l0.5,2c0.1,0.4,0.2,0.8,0.3,1.2h0c0.1-0.4,0.2-0.8,0.3-1.2l0.6-2h0.6l0.6,1.9
			c0.1,0.5,0.3,0.9,0.3,1.3h0c0.1-0.4,0.2-0.8,0.3-1.3l0.6-1.9h0.7l-1.2,3.9h-0.6l-0.6-1.8c-0.1-0.4-0.2-0.8-0.3-1.3h0
			c-0.1,0.5-0.2,0.9-0.4,1.3l-0.6,1.8h-0.6l-1.2-3.9H837.8z"/>
		<path fill="#221F1F" d="M842.9,666.4c0-0.3,0.2-0.5,0.5-0.5s0.5,0.2,0.5,0.5c0,0.3-0.2,0.5-0.5,0.5
			C843.1,666.9,842.9,666.7,842.9,666.4z"/>
		<path fill="#221F1F" d="M844.7,664c0-0.4,0-0.7,0-1h0.6l0,0.6h0c0.2-0.4,0.6-0.7,1.3-0.7c0.5,0,1.4,0.3,1.4,1.6v2.3h-0.7v-2.2
			c0-0.6-0.2-1.1-0.9-1.1c-0.5,0-0.8,0.3-0.9,0.7c0,0.1,0,0.2,0,0.3v2.3h-0.7V664z"/>
		<path fill="#221F1F" d="M852.7,664.8c0,1.4-1,2.1-1.9,2.1c-1,0-1.9-0.8-1.9-2c0-1.3,0.8-2.1,1.9-2.1
			C851.9,662.9,852.7,663.7,852.7,664.8z M849.6,664.9c0,0.8,0.5,1.5,1.2,1.5c0.7,0,1.2-0.6,1.2-1.5c0-0.7-0.3-1.5-1.2-1.5
			C849.9,663.4,849.6,664.1,849.6,664.9z"/>
		<path fill="#221F1F" d="M856.9,662.9c0,0.3,0,0.6,0,1.1v2.2c0,0.9-0.2,1.4-0.6,1.8c-0.4,0.4-0.9,0.5-1.4,0.5c-0.5,0-1-0.1-1.3-0.3
			l0.2-0.5c0.3,0.2,0.7,0.3,1.1,0.3c0.7,0,1.2-0.4,1.2-1.4v-0.4h0c-0.2,0.4-0.6,0.6-1.2,0.6c-1,0-1.6-0.8-1.6-1.9
			c0-1.3,0.9-2.1,1.7-2.1c0.7,0,1,0.4,1.2,0.7h0l0-0.6H856.9z M856.2,664.5c0-0.1,0-0.2,0-0.3c-0.1-0.4-0.5-0.7-1-0.7
			c-0.7,0-1.2,0.6-1.2,1.5c0,0.8,0.4,1.4,1.1,1.4c0.4,0,0.8-0.3,1-0.7c0-0.1,0.1-0.3,0.1-0.4V664.5z"/>
		<path fill="#221F1F" d="M858,664.1c0-0.5,0-0.8,0-1.2h0.6l0,0.8h0c0.2-0.5,0.6-0.8,1.1-0.8c0.1,0,0.1,0,0.2,0v0.7
			c-0.1,0-0.1,0-0.2,0c-0.5,0-0.8,0.4-0.9,0.9c0,0.1,0,0.2,0,0.3v2.1H858V664.1z"/>
		<path fill="#221F1F" d="M860.9,665c0,1,0.6,1.3,1.3,1.3c0.5,0,0.8-0.1,1.1-0.2l0.1,0.5c-0.2,0.1-0.7,0.2-1.3,0.2
			c-1.2,0-1.9-0.8-1.9-2c0-1.2,0.7-2.1,1.8-2.1c1.3,0,1.6,1.1,1.6,1.8c0,0.1,0,0.3,0,0.3H860.9z M863,664.5c0-0.4-0.2-1.1-1-1.1
			c-0.7,0-1,0.7-1.1,1.1H863z"/>
		<path fill="#221F1F" d="M864.8,662.9l0.8,2.3c0.1,0.3,0.2,0.6,0.2,0.8h0c0.1-0.2,0.2-0.5,0.2-0.8l0.8-2.3h0.7l-1.1,2.8
			c-0.5,1.3-0.8,2-1.3,2.4c-0.3,0.3-0.7,0.4-0.9,0.5l-0.2-0.6c0.2-0.1,0.4-0.2,0.6-0.3c0.2-0.2,0.4-0.4,0.6-0.8
			c0-0.1,0.1-0.1,0.1-0.2s0-0.1,0-0.2l-1.4-3.6H864.8z"/>
		<path fill="#221F1F" d="M867.8,666.4c0-0.3,0.2-0.5,0.5-0.5s0.5,0.2,0.5,0.5c0,0.3-0.2,0.5-0.5,0.5
			C868,666.9,867.8,666.7,867.8,666.4z"/>
		<path fill="#221F1F" d="M872.4,666.7c-0.2,0.1-0.6,0.2-1.1,0.2c-1.2,0-1.9-0.8-1.9-2c0-1.2,0.8-2.1,2.1-2.1c0.4,0,0.8,0.1,1,0.2
			l-0.2,0.5c-0.2-0.1-0.4-0.2-0.8-0.2c-0.9,0-1.4,0.7-1.4,1.5c0,0.9,0.6,1.4,1.3,1.4c0.4,0,0.7-0.1,0.9-0.2L872.4,666.7z"/>
		<path fill="#221F1F" d="M876.7,664.8c0,1.4-1,2.1-1.9,2.1c-1,0-1.9-0.8-1.9-2c0-1.3,0.8-2.1,1.9-2.1
			C875.9,662.9,876.7,663.7,876.7,664.8z M873.6,664.9c0,0.8,0.5,1.5,1.2,1.5c0.7,0,1.2-0.6,1.2-1.5c0-0.7-0.3-1.5-1.2-1.5
			C874,663.4,873.6,664.1,873.6,664.9z"/>
		<path fill="#221F1F" d="M877.6,664c0-0.4,0-0.7,0-1h0.6l0,0.6h0c0.2-0.4,0.6-0.7,1.2-0.7c0.5,0,0.9,0.3,1.1,0.8h0
			c0.1-0.2,0.3-0.4,0.4-0.5c0.2-0.2,0.5-0.3,0.9-0.3c0.5,0,1.3,0.3,1.3,1.7v2.3h-0.7v-2.2c0-0.7-0.3-1.2-0.8-1.2
			c-0.4,0-0.7,0.3-0.8,0.6c0,0.1-0.1,0.2-0.1,0.4v2.4H880v-2.3c0-0.6-0.3-1.1-0.8-1.1c-0.4,0-0.8,0.4-0.9,0.7c0,0.1-0.1,0.2-0.1,0.3
			v2.3h-0.7V664z"/>
		<path fill="#221F1F" d="M884.1,666.4c0-0.3,0.2-0.5,0.5-0.5s0.5,0.2,0.5,0.5c0,0.3-0.2,0.5-0.5,0.5
			C884.3,666.9,884.1,666.7,884.1,666.4z"/>
		<path fill="#221F1F" d="M888,666.8l-0.1-0.5h0c-0.2,0.3-0.6,0.6-1.2,0.6c-0.8,0-1.2-0.6-1.2-1.1c0-0.9,0.8-1.4,2.3-1.4v-0.1
			c0-0.3-0.1-0.9-0.9-0.9c-0.4,0-0.7,0.1-1,0.3l-0.2-0.5c0.3-0.2,0.8-0.3,1.3-0.3c1.2,0,1.5,0.8,1.5,1.6v1.4c0,0.3,0,0.7,0.1,0.9
			H888z M887.9,664.8c-0.8,0-1.6,0.1-1.6,0.9c0,0.5,0.3,0.7,0.7,0.7c0.5,0,0.8-0.3,0.9-0.6c0-0.1,0-0.2,0-0.2V664.8z"/>
		<path fill="#221F1F" d="M893,665.8c0,0.4,0,0.8,0,1.1h-0.6l0-0.6h0c-0.2,0.3-0.6,0.7-1.3,0.7c-0.6,0-1.3-0.3-1.3-1.7v-2.3h0.7v2.1
			c0,0.7,0.2,1.2,0.9,1.2c0.5,0,0.8-0.3,0.9-0.6c0-0.1,0.1-0.2,0.1-0.4v-2.4h0.7V665.8z"/>
		<path fill="#221F1F" d="M893.6,667.1l2.2-5.8h0.5l-2.2,5.8H893.6z"/>
		<path fill="#221F1F" d="M896.9,666.8c0-0.3,0-0.7,0-1v-4.7h0.7v2.4h0c0.2-0.4,0.7-0.7,1.3-0.7c1,0,1.6,0.8,1.6,2
			c0,1.4-0.9,2.1-1.7,2.1c-0.6,0-1-0.2-1.3-0.7h0l0,0.6H896.9z M897.6,665.3c0,0.1,0,0.2,0,0.3c0.1,0.5,0.5,0.8,1.1,0.8
			c0.7,0,1.2-0.6,1.2-1.5c0-0.8-0.4-1.4-1.2-1.4c-0.5,0-0.9,0.3-1.1,0.9c0,0.1,0,0.2,0,0.3V665.3z"/>
		<path fill="#221F1F" d="M901.4,661.1h0.7v5.7h-0.7V661.1z"/>
		<path fill="#221F1F" d="M906.8,664.8c0,1.4-1,2.1-1.9,2.1c-1,0-1.9-0.8-1.9-2c0-1.3,0.8-2.1,1.9-2.1
			C906.1,662.9,906.8,663.7,906.8,664.8z M903.8,664.9c0,0.8,0.5,1.5,1.2,1.5c0.7,0,1.2-0.6,1.2-1.5c0-0.7-0.3-1.5-1.2-1.5
			C904.1,663.4,903.8,664.1,903.8,664.9z"/>
		<path fill="#221F1F" d="M911.1,662.9c0,0.3,0,0.6,0,1.1v2.2c0,0.9-0.2,1.4-0.6,1.8c-0.4,0.4-0.9,0.5-1.4,0.5c-0.5,0-1-0.1-1.3-0.3
			l0.2-0.5c0.3,0.2,0.7,0.3,1.1,0.3c0.7,0,1.2-0.4,1.2-1.4v-0.4h0c-0.2,0.4-0.6,0.6-1.2,0.6c-1,0-1.6-0.8-1.6-1.9
			c0-1.3,0.9-2.1,1.7-2.1c0.7,0,1,0.4,1.2,0.7h0l0-0.6H911.1z M910.3,664.5c0-0.1,0-0.2,0-0.3c-0.1-0.4-0.5-0.7-1-0.7
			c-0.7,0-1.2,0.6-1.2,1.5c0,0.8,0.4,1.4,1.1,1.4c0.4,0,0.8-0.3,1-0.7c0-0.1,0.1-0.3,0.1-0.4V664.5z"/>
		<path fill="#221F1F" d="M911.6,667.1l2.2-5.8h0.5l-2.2,5.8H911.6z"/>
		<path fill="#221F1F" d="M917.1,666.8l-0.1-0.5h0c-0.2,0.3-0.6,0.6-1.2,0.6c-0.8,0-1.2-0.6-1.2-1.1c0-0.9,0.8-1.4,2.3-1.4v-0.1
			c0-0.3-0.1-0.9-0.9-0.9c-0.4,0-0.7,0.1-1,0.3l-0.2-0.5c0.3-0.2,0.8-0.3,1.3-0.3c1.2,0,1.5,0.8,1.5,1.6v1.4c0,0.3,0,0.7,0.1,0.9
			H917.1z M917,664.8c-0.8,0-1.6,0.1-1.6,0.9c0,0.5,0.3,0.7,0.7,0.7c0.5,0,0.8-0.3,0.9-0.6c0-0.1,0-0.2,0-0.2V664.8z"/>
		<path fill="#221F1F" d="M922.1,662.9c0,0.3,0,0.6,0,1.1v2.2c0,0.9-0.2,1.4-0.6,1.8c-0.4,0.4-0.9,0.5-1.4,0.5c-0.5,0-1-0.1-1.3-0.3
			l0.2-0.5c0.3,0.2,0.7,0.3,1.1,0.3c0.7,0,1.2-0.4,1.2-1.4v-0.4h0c-0.2,0.4-0.6,0.6-1.2,0.6c-1,0-1.6-0.8-1.6-1.9
			c0-1.3,0.9-2.1,1.7-2.1c0.7,0,1,0.4,1.2,0.7h0l0-0.6H922.1z M921.4,664.5c0-0.1,0-0.2,0-0.3c-0.1-0.4-0.5-0.7-1-0.7
			c-0.7,0-1.2,0.6-1.2,1.5c0,0.8,0.4,1.4,1.1,1.4c0.4,0,0.8-0.3,1-0.7c0-0.1,0.1-0.3,0.1-0.4V664.5z"/>
		<path fill="#221F1F" d="M924,661.9c0,0.2-0.2,0.4-0.4,0.4c-0.2,0-0.4-0.2-0.4-0.4c0-0.2,0.2-0.4,0.4-0.4
			C923.8,661.4,924,661.6,924,661.9z M923.2,666.8v-3.9h0.7v3.9H923.2z"/>
		<path fill="#221F1F" d="M928.4,661.1v4.7c0,0.3,0,0.7,0,1h-0.6l0-0.7h0c-0.2,0.4-0.7,0.8-1.3,0.8c-0.9,0-1.7-0.8-1.7-2
			c0-1.3,0.8-2.1,1.7-2.1c0.6,0,1,0.3,1.2,0.6h0v-2.3H928.4z M927.7,664.5c0-0.1,0-0.2,0-0.3c-0.1-0.4-0.5-0.8-1-0.8
			c-0.7,0-1.2,0.6-1.2,1.5c0,0.8,0.4,1.4,1.1,1.4c0.5,0,0.9-0.3,1-0.8c0-0.1,0-0.2,0-0.3V664.5z"/>
		<path fill="#221F1F" d="M930,665c0,1,0.6,1.3,1.3,1.3c0.5,0,0.8-0.1,1.1-0.2l0.1,0.5c-0.2,0.1-0.7,0.2-1.3,0.2
			c-1.2,0-1.9-0.8-1.9-2c0-1.2,0.7-2.1,1.8-2.1c1.3,0,1.6,1.1,1.6,1.8c0,0.1,0,0.3,0,0.3H930z M932.1,664.5c0-0.4-0.2-1.1-1-1.1
			c-0.7,0-1,0.7-1.1,1.1H932.1z"/>
		<path fill="#221F1F" d="M935.8,666.8l-0.1-0.5h0c-0.2,0.3-0.6,0.6-1.2,0.6c-0.8,0-1.2-0.6-1.2-1.1c0-0.9,0.8-1.4,2.3-1.4v-0.1
			c0-0.3-0.1-0.9-0.9-0.9c-0.4,0-0.7,0.1-1,0.3l-0.2-0.5c0.3-0.2,0.8-0.3,1.3-0.3c1.2,0,1.5,0.8,1.5,1.6v1.4c0,0.3,0,0.7,0.1,0.9
			H935.8z M935.6,664.8c-0.8,0-1.6,0.1-1.6,0.9c0,0.5,0.3,0.7,0.7,0.7c0.5,0,0.8-0.3,0.9-0.6c0-0.1,0-0.2,0-0.2V664.8z"/>
		<path fill="#221F1F" d="M937.4,666.1c0.2,0.1,0.6,0.3,0.9,0.3c0.5,0,0.8-0.3,0.8-0.6c0-0.3-0.2-0.5-0.7-0.7c-0.7-0.2-1-0.6-1-1.1
			c0-0.6,0.5-1.1,1.3-1.1c0.4,0,0.7,0.1,1,0.2l-0.2,0.5c-0.2-0.1-0.4-0.2-0.8-0.2c-0.4,0-0.6,0.2-0.6,0.5c0,0.3,0.2,0.5,0.7,0.7
			c0.7,0.3,1,0.6,1,1.2c0,0.7-0.5,1.2-1.4,1.2c-0.4,0-0.8-0.1-1.1-0.3L937.4,666.1z"/>
		<path fill="#221F1F" d="M942.3,664.4v0.5h-2v-0.5H942.3z"/>
		<path fill="#221F1F" d="M943.9,661.9c0,0.2-0.2,0.4-0.4,0.4c-0.2,0-0.4-0.2-0.4-0.4c0-0.2,0.2-0.4,0.4-0.4
			C943.7,661.4,943.9,661.6,943.9,661.9z M943.1,666.8v-3.9h0.7v3.9H943.1z"/>
		<path fill="#221F1F" d="M945,664c0-0.4,0-0.7,0-1h0.6l0,0.6h0c0.2-0.4,0.6-0.7,1.3-0.7c0.5,0,1.4,0.3,1.4,1.6v2.3h-0.7v-2.2
			c0-0.6-0.2-1.1-0.9-1.1c-0.5,0-0.8,0.3-0.9,0.7c0,0.1,0,0.2,0,0.3v2.3H945V664z"/>
		<path fill="#221F1F" d="M950.2,661.8v1.1h1v0.5h-1v2.1c0,0.5,0.1,0.8,0.5,0.8c0.2,0,0.3,0,0.4,0l0,0.5c-0.1,0.1-0.4,0.1-0.6,0.1
			c-0.3,0-0.6-0.1-0.8-0.3c-0.2-0.2-0.3-0.6-0.3-1v-2.1h-0.6v-0.5h0.6V662L950.2,661.8z"/>
		<path fill="#221F1F" d="M952.4,665c0,1,0.6,1.3,1.3,1.3c0.5,0,0.8-0.1,1.1-0.2l0.1,0.5c-0.2,0.1-0.7,0.2-1.3,0.2
			c-1.2,0-1.9-0.8-1.9-2c0-1.2,0.7-2.1,1.8-2.1c1.3,0,1.6,1.1,1.6,1.8c0,0.1,0,0.3,0,0.3H952.4z M954.4,664.5c0-0.4-0.2-1.1-1-1.1
			c-0.7,0-1,0.7-1.1,1.1H954.4z"/>
		<path fill="#221F1F" d="M956,664.1c0-0.5,0-0.8,0-1.2h0.6l0,0.8h0c0.2-0.5,0.6-0.8,1.1-0.8c0.1,0,0.1,0,0.2,0v0.7
			c-0.1,0-0.1,0-0.2,0c-0.5,0-0.8,0.4-0.9,0.9c0,0.1,0,0.2,0,0.3v2.1H956V664.1z"/>
		<path fill="#221F1F" d="M958.6,664c0-0.4,0-0.7,0-1h0.6l0,0.6h0c0.2-0.4,0.6-0.7,1.3-0.7c0.5,0,1.4,0.3,1.4,1.6v2.3h-0.7v-2.2
			c0-0.6-0.2-1.1-0.9-1.1c-0.5,0-0.8,0.3-0.9,0.7c0,0.1,0,0.2,0,0.3v2.3h-0.7V664z"/>
		<path fill="#221F1F" d="M965.2,666.8l-0.1-0.5h0c-0.2,0.3-0.6,0.6-1.2,0.6c-0.8,0-1.2-0.6-1.2-1.1c0-0.9,0.8-1.4,2.3-1.4v-0.1
			c0-0.3-0.1-0.9-0.9-0.9c-0.4,0-0.7,0.1-1,0.3l-0.2-0.5c0.3-0.2,0.8-0.3,1.3-0.3c1.2,0,1.5,0.8,1.5,1.6v1.4c0,0.3,0,0.7,0.1,0.9
			H965.2z M965.1,664.8c-0.8,0-1.6,0.1-1.6,0.9c0,0.5,0.3,0.7,0.7,0.7c0.5,0,0.8-0.3,0.9-0.6c0-0.1,0-0.2,0-0.2V664.8z"/>
		<path fill="#221F1F" d="M967.7,661.8v1.1h1v0.5h-1v2.1c0,0.5,0.1,0.8,0.5,0.8c0.2,0,0.3,0,0.4,0l0,0.5c-0.1,0.1-0.4,0.1-0.6,0.1
			c-0.3,0-0.6-0.1-0.8-0.3c-0.2-0.2-0.3-0.6-0.3-1v-2.1h-0.6v-0.5h0.6V662L967.7,661.8z"/>
		<path fill="#221F1F" d="M970.3,661.9c0,0.2-0.2,0.4-0.4,0.4c-0.2,0-0.4-0.2-0.4-0.4c0-0.2,0.2-0.4,0.4-0.4
			C970.2,661.4,970.3,661.6,970.3,661.9z M969.5,666.8v-3.9h0.7v3.9H969.5z"/>
		<path fill="#221F1F" d="M974.9,664.8c0,1.4-1,2.1-1.9,2.1c-1,0-1.9-0.8-1.9-2c0-1.3,0.8-2.1,1.9-2.1
			C974.2,662.9,974.9,663.7,974.9,664.8z M971.8,664.9c0,0.8,0.5,1.5,1.2,1.5c0.7,0,1.2-0.6,1.2-1.5c0-0.7-0.3-1.5-1.2-1.5
			C972.2,663.4,971.8,664.1,971.8,664.9z"/>
		<path fill="#221F1F" d="M975.8,664c0-0.4,0-0.7,0-1h0.6l0,0.6h0c0.2-0.4,0.6-0.7,1.3-0.7c0.5,0,1.4,0.3,1.4,1.6v2.3h-0.7v-2.2
			c0-0.6-0.2-1.1-0.9-1.1c-0.5,0-0.8,0.3-0.9,0.7c0,0.1,0,0.2,0,0.3v2.3h-0.7V664z"/>
		<path fill="#221F1F" d="M982.4,666.8l-0.1-0.5h0c-0.2,0.3-0.6,0.6-1.2,0.6c-0.8,0-1.2-0.6-1.2-1.1c0-0.9,0.8-1.4,2.3-1.4v-0.1
			c0-0.3-0.1-0.9-0.9-0.9c-0.4,0-0.7,0.1-1,0.3l-0.2-0.5c0.3-0.2,0.8-0.3,1.3-0.3c1.2,0,1.5,0.8,1.5,1.6v1.4c0,0.3,0,0.7,0.1,0.9
			H982.4z M982.3,664.8c-0.8,0-1.6,0.1-1.6,0.9c0,0.5,0.3,0.7,0.7,0.7c0.5,0,0.8-0.3,0.9-0.6c0-0.1,0-0.2,0-0.2V664.8z"/>
		<path fill="#221F1F" d="M984.1,661.1h0.7v5.7h-0.7V661.1z"/>
		<path fill="#221F1F" d="M987.6,664.4v0.5h-2v-0.5H987.6z"/>
		<path fill="#221F1F" d="M991.9,661.1v4.7c0,0.3,0,0.7,0,1h-0.6l0-0.7h0c-0.2,0.4-0.7,0.8-1.3,0.8c-0.9,0-1.7-0.8-1.7-2
			c0-1.3,0.8-2.1,1.7-2.1c0.6,0,1,0.3,1.2,0.6h0v-2.3H991.9z M991.2,664.5c0-0.1,0-0.2,0-0.3c-0.1-0.4-0.5-0.8-1-0.8
			c-0.7,0-1.2,0.6-1.2,1.5c0,0.8,0.4,1.4,1.1,1.4c0.5,0,0.9-0.3,1-0.8c0-0.1,0-0.2,0-0.3V664.5z"/>
		<path fill="#221F1F" d="M993.5,665c0,1,0.6,1.3,1.3,1.3c0.5,0,0.8-0.1,1.1-0.2l0.1,0.5c-0.2,0.1-0.7,0.2-1.3,0.2
			c-1.2,0-1.9-0.8-1.9-2c0-1.2,0.7-2.1,1.8-2.1c1.3,0,1.6,1.1,1.6,1.8c0,0.1,0,0.3,0,0.3H993.5z M995.6,664.5c0-0.4-0.2-1.1-1-1.1
			c-0.7,0-1,0.7-1.1,1.1H995.6z"/>
		<path fill="#221F1F" d="M997,666.1c0.2,0.1,0.6,0.3,0.9,0.3c0.5,0,0.8-0.3,0.8-0.6c0-0.3-0.2-0.5-0.7-0.7c-0.7-0.2-1-0.6-1-1.1
			c0-0.6,0.5-1.1,1.3-1.1c0.4,0,0.7,0.1,1,0.2l-0.2,0.5c-0.2-0.1-0.4-0.2-0.8-0.2c-0.4,0-0.6,0.2-0.6,0.5c0,0.3,0.2,0.5,0.7,0.7
			c0.7,0.3,1,0.6,1,1.2c0,0.7-0.5,1.2-1.4,1.2c-0.4,0-0.8-0.1-1.1-0.3L997,666.1z"/>
		<path fill="#221F1F" d="M1001.1,661.9c0,0.2-0.2,0.4-0.4,0.4c-0.2,0-0.4-0.2-0.4-0.4c0-0.2,0.2-0.4,0.4-0.4
			C1000.9,661.4,1001.1,661.6,1001.1,661.9z M1000.3,666.8v-3.9h0.7v3.9H1000.3z"/>
		<path fill="#221F1F" d="M1005.5,662.9c0,0.3,0,0.6,0,1.1v2.2c0,0.9-0.2,1.4-0.6,1.8c-0.4,0.4-0.9,0.5-1.4,0.5
			c-0.5,0-1-0.1-1.3-0.3l0.2-0.5c0.3,0.2,0.7,0.3,1.1,0.3c0.7,0,1.2-0.4,1.2-1.4v-0.4h0c-0.2,0.4-0.6,0.6-1.2,0.6
			c-1,0-1.6-0.8-1.6-1.9c0-1.3,0.9-2.1,1.7-2.1c0.7,0,1,0.4,1.2,0.7h0l0-0.6H1005.5z M1004.8,664.5c0-0.1,0-0.2,0-0.3
			c-0.1-0.4-0.5-0.7-1-0.7c-0.7,0-1.2,0.6-1.2,1.5c0,0.8,0.4,1.4,1.1,1.4c0.4,0,0.8-0.3,1-0.7c0-0.1,0.1-0.3,0.1-0.4V664.5z"/>
		<path fill="#221F1F" d="M1006.6,664c0-0.4,0-0.7,0-1h0.6l0,0.6h0c0.2-0.4,0.6-0.7,1.3-0.7c0.5,0,1.4,0.3,1.4,1.6v2.3h-0.7v-2.2
			c0-0.6-0.2-1.1-0.9-1.1c-0.5,0-0.8,0.3-0.9,0.7c0,0.1,0,0.2,0,0.3v2.3h-0.7V664z"/>
		<path fill="#221F1F" d="M1012.6,664.4v0.5h-2v-0.5H1012.6z"/>
		<path fill="#221F1F" d="M1013.5,666.8v-3.3h-0.5v-0.5h0.5v-0.2c0-0.5,0.1-1,0.4-1.4c0.3-0.3,0.6-0.4,0.9-0.4
			c0.2,0,0.5,0.1,0.6,0.1l-0.1,0.5c-0.1,0-0.2-0.1-0.4-0.1c-0.6,0-0.8,0.5-0.8,1.1v0.2h0.9v0.5h-0.9v3.3H1013.5z"/>
		<path fill="#221F1F" d="M1019.2,664.8c0,1.4-1,2.1-1.9,2.1c-1,0-1.9-0.8-1.9-2c0-1.3,0.8-2.1,1.9-2.1
			C1018.4,662.9,1019.2,663.7,1019.2,664.8z M1016.1,664.9c0,0.8,0.5,1.5,1.2,1.5c0.7,0,1.2-0.6,1.2-1.5c0-0.7-0.3-1.5-1.2-1.5
			C1016.5,663.4,1016.1,664.1,1016.1,664.9z"/>
		<path fill="#221F1F" d="M1020.1,664.1c0-0.5,0-0.8,0-1.2h0.6l0,0.8h0c0.2-0.5,0.6-0.8,1.1-0.8c0.1,0,0.1,0,0.2,0v0.7
			c-0.1,0-0.1,0-0.2,0c-0.5,0-0.8,0.4-0.9,0.9c0,0.1,0,0.2,0,0.3v2.1h-0.7V664.1z"/>
		<path fill="#221F1F" d="M1025.9,665.8c0,0.4,0,0.8,0,1.1h-0.6l0-0.6h0c-0.2,0.3-0.6,0.7-1.3,0.7c-0.6,0-1.3-0.3-1.3-1.7v-2.3h0.7
			v2.1c0,0.7,0.2,1.2,0.9,1.2c0.5,0,0.8-0.3,0.9-0.6c0-0.1,0.1-0.2,0.1-0.4v-2.4h0.7V665.8z"/>
		<path fill="#221F1F" d="M1027.1,664c0-0.4,0-0.7,0-1h0.6l0,0.6h0c0.2-0.4,0.6-0.7,1.2-0.7c0.5,0,0.9,0.3,1.1,0.8h0
			c0.1-0.2,0.3-0.4,0.4-0.5c0.2-0.2,0.5-0.3,0.9-0.3c0.5,0,1.3,0.3,1.3,1.7v2.3h-0.7v-2.2c0-0.7-0.3-1.2-0.8-1.2
			c-0.4,0-0.7,0.3-0.8,0.6c0,0.1-0.1,0.2-0.1,0.4v2.4h-0.7v-2.3c0-0.6-0.3-1.1-0.8-1.1c-0.4,0-0.8,0.4-0.9,0.7
			c0,0.1-0.1,0.2-0.1,0.3v2.3h-0.7V664z"/>
		<path fill="#221F1F" d="M1035.4,664.4v0.5h-2v-0.5H1035.4z"/>
		<path fill="#221F1F" d="M1036,666.8v-0.4l0.6-0.5c1.3-1.3,1.9-1.9,1.9-2.7c0-0.5-0.3-1-1-1c-0.5,0-0.9,0.2-1.1,0.4l-0.2-0.5
			c0.4-0.3,0.9-0.5,1.5-0.5c1.1,0,1.6,0.8,1.6,1.5c0,1-0.7,1.7-1.8,2.8l-0.4,0.4v0h2.3v0.6H1036z"/>
		<path fill="#221F1F" d="M1043.6,664.2c0,1.8-0.7,2.7-1.8,2.7c-1,0-1.7-1-1.7-2.7c0-1.7,0.8-2.7,1.8-2.7
			C1043,661.5,1043.6,662.5,1043.6,664.2z M1040.8,664.2c0,1.4,0.4,2.1,1.1,2.1c0.7,0,1.1-0.8,1.1-2.2c0-1.3-0.3-2.1-1.1-2.1
			C1041.2,662.1,1040.8,662.8,1040.8,664.2z"/>
		<path fill="#221F1F" d="M1045.8,662.3L1045.8,662.3l-0.9,0.5l-0.1-0.5l1.1-0.6h0.6v5.2h-0.7V662.3z"/>
		<path fill="#221F1F" d="M1048.3,666.8v-0.4l0.6-0.5c1.3-1.3,1.9-1.9,1.9-2.7c0-0.5-0.3-1-1-1c-0.5,0-0.9,0.2-1.1,0.4l-0.2-0.5
			c0.4-0.3,0.9-0.5,1.5-0.5c1.1,0,1.6,0.8,1.6,1.5c0,1-0.7,1.7-1.8,2.8l-0.4,0.4v0h2.3v0.6H1048.3z"/>
		<path fill="#221F1F" d="M1052.1,667.1l2.2-5.8h0.5l-2.2,5.8H1052.1z"/>
	</g>
</g>
</svg>
