<!-- Generator: Adobe Illustrator 18.0.0, SVG Export Plug-In  -->
<svg version="1.1"
	 xmlns="http://www.w3.org/2000/svg" xmlns:xlink="http://www.w3.org/1999/xlink" xmlns:a="http://ns.adobe.com/AdobeSVGViewerExtensions/3.0/"
	 x="0px" y="0px" width="106.5px" height="138.2px" viewBox="0 0 106.5 138.2" enable-background="new 0 0 106.5 138.2"
	 xml:space="preserve">
<defs>
</defs>
<g>
	<g>
		<g>
			<polyline fill="none" stroke="#E4BE22" stroke-width="3" stroke-miterlimit="10" points="24.5,110.1 23.1,114.4 26.1,114.4 
				27.6,110.2 			"/>
			<path fill="none" stroke="#E4BE22" stroke-width="3" stroke-miterlimit="10" d="M28.4,108l1.6-4.2c0,0-1.8,0.1-3.4,0.2l-1.4,4.3"
				/>
		</g>
	</g>
	<g>
		<g>
			<path fill="none" stroke="#E4BE22" stroke-width="3" stroke-miterlimit="10" d="M81.5,108.3l-1.4-4.3c-1.6-0.1-3.4-0.2-3.4-0.2
				l1.6,4.2"/>
			<polyline fill="none" stroke="#E4BE22" stroke-width="3" stroke-miterlimit="10" points="79.1,110.2 80.6,114.4 83.6,114.4 
				82.2,110.1 			"/>
		</g>
	</g>
	<g>
		<g>
			<path fill="none" stroke="#E4BE22" stroke-width="3" stroke-miterlimit="10" d="M102.1,74.1c-1.4-1.3-3-2.1-3.8-2.4
				c0,0,1.1-1.5,2.5-3.8"/>
			<path fill="none" stroke="#E4BE22" stroke-width="3" stroke-miterlimit="10" stroke-dasharray="9.2368,3.0789" d="M102.3,65.2
				c2.3-4.6,4.2-10.6,1.2-14.5c-1.3-1.8-4-2.1-7.2-1.2"/>
			<path fill="none" stroke="#E4BE22" stroke-width="3" stroke-miterlimit="10" d="M94.8,50c-1.3,0.5-2.7,1.1-4.1,1.9
				c0-0.2,0-0.4,0-0.5c0.1-0.7,0.3-1.9,0.6-4"/>
			<path fill="none" stroke="#E4BE22" stroke-width="3" stroke-miterlimit="10" stroke-dasharray="9.0716,3.0239" d="M91.9,44.5
				c0.7-4.3,1.8-11.1,3.7-21.9C99.2,1.4,90.5,0,82.9,2.3c-35.8,10.8-47.6,3-61.2,0.3c-13.5-2.7-10.5,14.8-8.7,23
				c1.2,5.3,3.1,15.4,4.3,21.7"/>
			<path fill="none" stroke="#E4BE22" stroke-width="3" stroke-miterlimit="10" d="M17.6,48.8c0.5,2.6,0.8,4.3,0.8,4.3s0,0,0,0.1
				c-1.3-0.9-2.6-1.6-3.9-2.2"/>
			<path fill="none" stroke="#E4BE22" stroke-width="3" stroke-miterlimit="10" stroke-dasharray="10.2408,3.4136" d="M11.3,49.7
				c-3.7-1.2-6.8-1-8.3,1C-0.2,55,2.3,61.8,4.9,66.4"/>
			<path fill="none" stroke="#E4BE22" stroke-width="3" stroke-miterlimit="10" d="M5.7,67.9c1.3,2.3,2.5,3.8,2.5,3.8
				c-1.1,1.3-1.9,2.6-2.5,3.7"/>
			<path fill="none" stroke="#E4BE22" stroke-width="3" stroke-miterlimit="10" stroke-dasharray="7.4188,2.4729" d="M4.8,77.7
				c-0.3,1-0.4,1.9-0.4,2.5c-0.2,3.3,2.5,7.7,10.1,11.4"/>
			<path fill="none" stroke="#E4BE22" stroke-width="3" stroke-miterlimit="10" d="M15.6,92.1c1.3,0.6,2.7,1.1,4.2,1.6l-0.8,4.4"/>
			
				<line fill="none" stroke="#E4BE22" stroke-width="3" stroke-miterlimit="10" stroke-dasharray="8.0066,2.6689" x1="18.6" y1="100.8" x2="13.3" y2="131"/>
			<polyline fill="none" stroke="#E4BE22" stroke-width="3" stroke-miterlimit="10" points="13.1,132.3 12.3,136.7 15,136.7 
				16.1,132.4 			"/>
			
				<line fill="none" stroke="#E4BE22" stroke-width="3" stroke-miterlimit="10" stroke-dasharray="8.6169,2.8723" x1="16.9" y1="129.6" x2="22.2" y2="108.7"/>
			<path fill="none" stroke="#E4BE22" stroke-width="3" stroke-miterlimit="10" d="M22.6,107.3l1.1-4.4c0,0,1.7,0,4.5-0.1"/>
			<path fill="none" stroke="#E4BE22" stroke-width="3" stroke-miterlimit="10" stroke-dasharray="8.9353,2.9784" d="M31.2,102.8
				c6.1-0.3,14.9-0.9,22.5-2.5c2.1,0.9,13.9,2.6,23.2,3.3"/>
			<path fill="none" stroke="#E4BE22" stroke-width="3" stroke-miterlimit="10" d="M78.4,103.7c1.6,0.1,3.1,0.2,4.5,0.2
				c0.2,0.6,0.7,2.2,1.3,4.3"/>
			<path fill="none" stroke="#E4BE22" stroke-width="3" stroke-miterlimit="10" stroke-dasharray="8.2715,2.7572" d="M84.8,110.9
				c1.5,6,3.6,14.5,4.9,20.1"/>
			<path fill="none" stroke="#E4BE22" stroke-width="3" stroke-miterlimit="10" d="M90.1,132.4c0.6,2.7,1,4.4,1,4.4h3l-0.7-4.4"/>
			
				<line fill="none" stroke="#E4BE22" stroke-width="3" stroke-miterlimit="10" stroke-dasharray="8.0743,2.6914" x1="93" y1="129.6" x2="87.9" y2="99.1"/>
			<path fill="none" stroke="#E4BE22" stroke-width="3" stroke-miterlimit="10" d="M87.7,97.8L87,93.3c1.5-0.6,2.9-1.2,4.1-1.8"/>
			<path fill="none" stroke="#E4BE22" stroke-width="3" stroke-miterlimit="10" stroke-dasharray="8.2615,2.7538" d="M93.6,90.3
				c7.6-4.1,10.3-8.3,10.3-8.3c1.1-2.9,0.4-5.2-0.9-6.9"/>
		</g>
	</g>
</g>
</svg>
