<!-- Generator: Adobe Illustrator 18.0.0, SVG Export Plug-In  -->
<svg version="1.1"
	 xmlns="http://www.w3.org/2000/svg" xmlns:xlink="http://www.w3.org/1999/xlink" xmlns:a="http://ns.adobe.com/AdobeSVGViewerExtensions/3.0/"
	 x="0px" y="0px" width="107.5px" height="139.2px" viewBox="0 0 107.5 139.2" enable-background="new 0 0 107.5 139.2"
	 xml:space="preserve">
<defs>
</defs>
<g>
	<g>
		<g>
			<polyline fill="none" stroke="#E4BE22" stroke-width="4" stroke-miterlimit="10" points="25,110.6 23.6,114.9 26.6,114.9 
				28.1,110.7 			"/>
			<path fill="none" stroke="#E4BE22" stroke-width="4" stroke-miterlimit="10" d="M28.9,108.5l1.6-4.2c0,0-1.8,0.1-3.4,0.2
				l-1.4,4.3"/>
		</g>
	</g>
	<g>
		<g>
			<path fill="none" stroke="#E4BE22" stroke-width="4" stroke-miterlimit="10" d="M82,108.8l-1.4-4.3c-1.6-0.1-3.4-0.2-3.4-0.2
				l1.6,4.2"/>
			<polyline fill="none" stroke="#E4BE22" stroke-width="4" stroke-miterlimit="10" points="79.6,110.7 81.1,114.9 84.1,114.9 
				82.7,110.6 			"/>
		</g>
	</g>
	<g>
		<g>
			<path fill="none" stroke="#E4BE22" stroke-width="4" stroke-miterlimit="10" d="M102.6,74.6c-1.4-1.3-3-2.1-3.8-2.4
				c0,0,1.1-1.5,2.5-3.8"/>
			<path fill="none" stroke="#E4BE22" stroke-width="4" stroke-miterlimit="10" stroke-dasharray="9.2368,3.0789" d="M102.8,65.7
				c2.3-4.6,4.2-10.6,1.2-14.5c-1.3-1.8-4-2.1-7.2-1.2"/>
			<path fill="none" stroke="#E4BE22" stroke-width="4" stroke-miterlimit="10" d="M95.3,50.5c-1.3,0.5-2.7,1.1-4.1,1.9
				c0-0.2,0-0.4,0-0.5c0.1-0.7,0.3-1.9,0.6-4"/>
			<path fill="none" stroke="#E4BE22" stroke-width="4" stroke-miterlimit="10" stroke-dasharray="9.0716,3.0239" d="M92.4,45
				C93,40.7,94.2,33.9,96,23C99.7,1.9,91,0.5,83.4,2.8c-35.8,10.8-47.6,3-61.2,0.3c-13.5-2.7-10.5,14.8-8.7,23
				c1.2,5.3,3.1,15.4,4.3,21.7"/>
			<path fill="none" stroke="#E4BE22" stroke-width="4" stroke-miterlimit="10" d="M18.1,49.3c0.5,2.6,0.8,4.3,0.8,4.3s0,0,0,0.1
				c-1.3-0.9-2.6-1.6-3.9-2.2"/>
			<path fill="none" stroke="#E4BE22" stroke-width="4" stroke-miterlimit="10" stroke-dasharray="10.2408,3.4136" d="M11.8,50.2
				c-3.7-1.2-6.8-1-8.3,1c-3.2,4.3-0.7,11.1,1.9,15.8"/>
			<path fill="none" stroke="#E4BE22" stroke-width="4" stroke-miterlimit="10" d="M6.2,68.4c1.3,2.3,2.5,3.8,2.5,3.8
				c-1.1,1.3-1.9,2.6-2.5,3.7"/>
			<path fill="none" stroke="#E4BE22" stroke-width="4" stroke-miterlimit="10" stroke-dasharray="7.4188,2.4729" d="M5.3,78.2
				c-0.3,1-0.4,1.9-0.4,2.5C4.7,84,7.4,88.4,15,92.1"/>
			<path fill="none" stroke="#E4BE22" stroke-width="4" stroke-miterlimit="10" d="M16.1,92.6c1.3,0.6,2.7,1.1,4.2,1.6l-0.8,4.4"/>
			
				<line fill="none" stroke="#E4BE22" stroke-width="4" stroke-miterlimit="10" stroke-dasharray="8.0066,2.6689" x1="19.1" y1="101.3" x2="13.8" y2="131.5"/>
			<polyline fill="none" stroke="#E4BE22" stroke-width="4" stroke-miterlimit="10" points="13.6,132.8 12.8,137.2 15.5,137.2 
				16.6,132.9 			"/>
			
				<line fill="none" stroke="#E4BE22" stroke-width="4" stroke-miterlimit="10" stroke-dasharray="8.6169,2.8723" x1="17.4" y1="130.1" x2="22.7" y2="109.2"/>
			<path fill="none" stroke="#E4BE22" stroke-width="4" stroke-miterlimit="10" d="M23.1,107.8l1.1-4.4c0,0,1.7,0,4.5-0.1"/>
			<path fill="none" stroke="#E4BE22" stroke-width="4" stroke-miterlimit="10" stroke-dasharray="8.9353,2.9784" d="M31.7,103.3
				c6.1-0.3,14.9-0.9,22.5-2.5c2.1,0.9,13.9,2.6,23.2,3.3"/>
			<path fill="none" stroke="#E4BE22" stroke-width="4" stroke-miterlimit="10" d="M78.9,104.2c1.6,0.1,3.1,0.2,4.5,0.2
				c0.2,0.6,0.7,2.2,1.3,4.3"/>
			<path fill="none" stroke="#E4BE22" stroke-width="4" stroke-miterlimit="10" stroke-dasharray="8.2715,2.7572" d="M85.3,111.4
				c1.5,6,3.6,14.5,4.9,20.1"/>
			<path fill="none" stroke="#E4BE22" stroke-width="4" stroke-miterlimit="10" d="M90.6,132.9c0.6,2.7,1,4.4,1,4.4h3l-0.7-4.4"/>
			
				<line fill="none" stroke="#E4BE22" stroke-width="4" stroke-miterlimit="10" stroke-dasharray="8.0743,2.6914" x1="93.5" y1="130.1" x2="88.4" y2="99.6"/>
			<path fill="none" stroke="#E4BE22" stroke-width="4" stroke-miterlimit="10" d="M88.2,98.3l-0.7-4.4c1.5-0.6,2.9-1.2,4.1-1.8"/>
			<path fill="none" stroke="#E4BE22" stroke-width="4" stroke-miterlimit="10" stroke-dasharray="8.2615,2.7538" d="M94.1,90.8
				c7.6-4.1,10.3-8.3,10.3-8.3c1.1-2.9,0.4-5.2-0.9-6.9"/>
		</g>
	</g>
</g>
</svg>
