<!-- Generator: Adobe Illustrator 18.0.0, SVG Export Plug-In  -->
<svg version="1.1"
	 xmlns="http://www.w3.org/2000/svg" xmlns:xlink="http://www.w3.org/1999/xlink" xmlns:a="http://ns.adobe.com/AdobeSVGViewerExtensions/3.0/"
	 x="0px" y="0px" width="243.2px" height="158.9px" viewBox="0 0 243.2 158.9" enable-background="new 0 0 243.2 158.9"
	 xml:space="preserve">
<defs>
</defs>
<g>
	<g>
		<path fill="#736F60" stroke="#B9AF9A" stroke-width="3.803" stroke-miterlimit="10" d="M240.6,74.8
			c-0.3,40.3-53.9,72.9-119.8,72.9S1.6,115.1,1.9,74.8S55.8,1.9,121.7,1.9S240.8,34.5,240.6,74.8z"/>
		<polygon fill="none" points="239.5,83 126.2,83 126.6,18.8 240,18.8 		"/>
		
			<text transform="matrix(1.6367 0 -6.519992e-03 1 126.2166 76.3622)" fill="#ABA983" font-family="'NuevaStd-Cond'" font-size="69.3493">20</text>
		<g>
			<path fill="#ABA983" d="M40,38.6c0,0,0-0.1,0-0.3c0-0.2,0.1-0.5,0.2-0.9c0.3-0.8,1.1-1.8,2.3-2.7c2.5-1.9,6.5-3.6,11.5-5.2
				c2.5-0.8,5.2-1.5,8.1-2.2c2.9-0.7,6-1.3,9.2-1.8c3.2-0.5,6.5-1.1,9.9-1.5c3.4-0.4,6.8-0.8,10.2-1.1c3.4-0.3,6.9-0.5,10.3-0.8
				c3.4-0.2,6.7-0.3,10-0.4c3.2-0.1,6.4-0.1,9.3-0.2c3,0,5.8,0,8.3,0.1c5.2,0.1,9.5,0.3,12.5,0.5c1.5,0.1,2.7,0.2,3.5,0.3
				c0.8,0.1,1.2,0.1,1.2,0.1s-1.7,0.1-4.7,0.4c-3,0.2-7.3,0.5-12.4,0.9c-5.1,0.4-11.1,0.8-17.5,1.3c-3.2,0.2-6.5,0.5-9.9,0.8
				c-3.4,0.3-6.8,0.6-10.2,0.9c-3.4,0.3-6.8,0.6-10.2,1c-3.3,0.4-6.6,0.7-9.8,1.1c-3.2,0.4-6.2,0.8-9.1,1.3c-2.9,0.5-5.6,1-8.1,1.5
				c-5,1.1-9.1,2.3-11.7,3.7c-1.3,0.7-2.2,1.5-2.6,2.2c-0.2,0.3-0.3,0.6-0.3,0.8C40,38.5,40,38.6,40,38.6z"/>
		</g>
		<g>
			<path fill="#ABA983" d="M28.8,90.9c0,0,0-0.1,0-0.3c0-0.2,0.1-0.5,0.2-0.9c0.3-0.8,1.1-1.8,2.3-2.7c2.5-1.9,6.5-3.6,11.5-5.2
				c2.5-0.8,5.2-1.5,8.1-2.2c2.9-0.7,6-1.3,9.2-1.8c3.2-0.5,6.5-1.1,9.9-1.5c3.4-0.4,6.8-0.8,10.2-1.1c3.4-0.3,6.9-0.5,10.3-0.8
				c3.4-0.2,6.7-0.3,10-0.4c3.2-0.1,6.4-0.1,9.3-0.2c3,0,5.8,0,8.3,0.1c5.2,0.1,9.5,0.3,12.5,0.5c1.5,0.1,2.7,0.2,3.5,0.3
				c0.8,0.1,1.2,0.1,1.2,0.1s-1.7,0.1-4.7,0.4c-3,0.2-7.3,0.5-12.4,0.9c-5.1,0.4-11.1,0.8-17.5,1.3c-3.2,0.2-6.5,0.5-9.9,0.8
				c-3.4,0.3-6.8,0.6-10.2,0.9c-3.4,0.3-6.8,0.6-10.2,1c-3.3,0.4-6.6,0.7-9.8,1.1c-3.2,0.4-6.2,0.8-9.1,1.3c-2.9,0.5-5.6,1-8.1,1.5
				c-5,1.1-9.1,2.3-11.7,3.7c-1.3,0.7-2.2,1.5-2.6,2.2c-0.2,0.3-0.3,0.6-0.3,0.8C28.8,90.8,28.8,90.9,28.8,90.9z"/>
		</g>
		<g>
			<path fill="#ABA983" d="M81.9,104.3c0,0,0-0.1,0-0.3c0-0.2,0.1-0.5,0.2-0.9c0.3-0.8,1.1-1.8,2.3-2.7c2.5-1.9,6.5-3.6,11.5-5.2
				c2.5-0.8,5.2-1.5,8.1-2.2c2.9-0.7,6-1.3,9.2-1.8c3.2-0.5,6.5-1.1,9.9-1.5c3.4-0.4,6.8-0.8,10.2-1.1c3.4-0.3,6.9-0.5,10.3-0.8
				c3.4-0.2,6.7-0.3,10-0.4c3.2-0.1,6.4-0.1,9.3-0.2c3,0,5.8,0,8.3,0.1c5.2,0.1,9.5,0.3,12.5,0.5c1.5,0.1,2.7,0.2,3.5,0.3
				c0.8,0.1,1.2,0.1,1.2,0.1s-1.7,0.1-4.7,0.4c-3,0.2-7.3,0.5-12.4,0.9c-5.1,0.4-11.1,0.8-17.5,1.3c-3.2,0.2-6.5,0.5-9.9,0.8
				c-3.4,0.3-6.8,0.6-10.2,0.9c-3.4,0.3-6.8,0.6-10.2,1c-3.3,0.4-6.6,0.7-9.8,1.1c-3.2,0.4-6.2,0.8-9.1,1.3c-2.9,0.5-5.6,1-8.1,1.5
				c-5,1.1-9.1,2.3-11.7,3.7c-1.3,0.7-2.2,1.5-2.6,2.2c-0.2,0.3-0.3,0.6-0.3,0.8C81.9,104.2,81.9,104.3,81.9,104.3z"/>
		</g>
		<g>
			<path fill="#ABA983" d="M59.8,130.2c0,0,0-0.1,0-0.3c0-0.2,0.1-0.5,0.2-0.9c0.3-0.8,1.1-1.8,2.3-2.7c2.5-1.9,6.5-3.6,11.5-5.2
				c2.5-0.8,5.2-1.5,8.1-2.2c2.9-0.7,6-1.3,9.2-1.8c3.2-0.5,6.5-1.1,9.9-1.5c3.4-0.4,6.8-0.8,10.2-1.1c3.4-0.3,6.9-0.5,10.3-0.8
				c3.4-0.2,6.7-0.3,10-0.4c3.2-0.1,6.4-0.1,9.3-0.2c3,0,5.8,0,8.3,0.1c5.2,0.1,9.5,0.3,12.5,0.5c1.5,0.1,2.7,0.2,3.5,0.3
				c0.8,0.1,1.2,0.1,1.2,0.1s-1.7,0.1-4.7,0.4c-3,0.2-7.3,0.5-12.4,0.9c-5.1,0.4-11.1,0.8-17.5,1.3c-3.2,0.2-6.5,0.5-9.9,0.8
				c-3.4,0.3-6.8,0.6-10.2,0.9c-3.4,0.3-6.8,0.6-10.2,1c-3.3,0.4-6.6,0.7-9.8,1.1c-3.2,0.4-6.2,0.8-9.1,1.3c-2.9,0.5-5.6,1-8.1,1.5
				c-5,1.1-9.1,2.3-11.7,3.7c-1.3,0.7-2.2,1.5-2.6,2.2c-0.2,0.3-0.3,0.6-0.3,0.8C59.9,130.1,59.8,130.2,59.8,130.2z"/>
		</g>
		<g>
			<path fill="#ABA983" d="M15.1,65.7c0,0,0-0.1,0-0.3c0-0.2,0-0.6,0.1-1c0.2-0.9,0.8-2.1,2-3.2c2.3-2.4,6.5-4.7,11.7-6.7
				c2.6-1,5.5-1.9,8.5-2.8c3.1-0.9,6.3-1.7,9.7-2.4c3.4-0.7,6.9-1.4,10.5-1.9c3.6-0.5,7.2-1,10.9-1.5c3.7-0.4,7.3-0.7,10.9-1
				c3.6-0.3,7.2-0.5,10.6-0.6c3.4-0.2,6.8-0.2,9.9-0.3c3.2-0.1,6.1-0.1,8.9,0c5.5,0.1,10.1,0.3,13.3,0.5c1.6,0.1,2.9,0.2,3.7,0.3
				c0.9,0.1,1.3,0.1,1.3,0.1s-1.8,0.1-5,0.4c-3.2,0.2-7.8,0.6-13.2,1c-2.7,0.2-5.7,0.4-8.8,0.7c-3.1,0.3-6.4,0.5-9.8,0.8
				c-3.4,0.3-6.9,0.6-10.5,1c-3.6,0.3-7.2,0.7-10.8,1.2c-3.6,0.4-7.2,0.8-10.8,1.3c-3.5,0.5-7,1-10.4,1.6c-3.4,0.6-6.6,1.2-9.6,1.8
				c-3,0.7-5.9,1.3-8.5,2.1c-2.6,0.8-5,1.5-7,2.4c-2,0.9-3.7,1.8-4.9,2.7c-0.6,0.5-1.1,1-1.5,1.4c-0.4,0.5-0.7,0.9-0.8,1.3
				c-0.2,0.4-0.2,0.7-0.3,0.9C15.1,65.6,15.1,65.7,15.1,65.7z"/>
		</g>
		<g>
			<path fill="#ABA983" d="M15.1,61.1c0,0,0,0.1,0.1,0.3c0.1,0.2,0.3,0.4,0.6,0.6c0.6,0.4,1.7,0.8,3.1,1.1c2.8,0.7,7,1.2,12,1.7
				c2.5,0.2,5.2,0.4,8.1,0.7c2.9,0.2,5.9,0.4,9.1,0.6c3.1,0.2,6.4,0.4,9.7,0.5c3.3,0.2,6.7,0.4,10,0.5c6.7,0.3,13.4,0.7,19.8,1
				c3.2,0.2,6.2,0.3,9.1,0.5c2.9,0.1,5.6,0.3,8.2,0.5c5.1,0.3,9.3,0.6,12.2,0.8c1.5,0.1,2.6,0.2,3.4,0.3c0.8,0.1,1.2,0.1,1.2,0.1
				s-0.4,0-1.2,0.1c-0.8,0.1-2,0.2-3.4,0.3c-3,0.2-7.2,0.5-12.2,0.6c-2.5,0.1-5.3,0.2-8.2,0.2c-2.9,0-6,0.1-9.1,0
				c-3.2,0-6.4,0-9.8-0.2c-3.3-0.1-6.7-0.3-10.1-0.4c-3.4-0.2-6.7-0.4-10.1-0.6c-3.3-0.2-6.6-0.6-9.7-0.9c-3.2-0.3-6.2-0.7-9.1-1.1
				c-2.9-0.4-5.6-0.8-8.1-1.3c-5-0.9-9.1-2-11.9-3.1c-1.4-0.5-2.5-1.1-3-1.7c-0.3-0.3-0.5-0.6-0.5-0.8
				C15.1,61.2,15.1,61.1,15.1,61.1z"/>
		</g>
		<g>
			<path fill="#ABA983" d="M17.6,87c0,0,0,0.1,0.1,0.3c0.1,0.2,0.3,0.4,0.6,0.6c0.6,0.4,1.7,0.8,3.1,1.1c2.8,0.7,7,1.2,12,1.7
				c2.5,0.2,5.2,0.4,8.1,0.7c2.9,0.2,5.9,0.4,9.1,0.6c3.1,0.2,6.4,0.4,9.7,0.5c3.3,0.2,6.7,0.4,10,0.5c6.7,0.3,13.4,0.7,19.8,1
				c3.2,0.2,6.2,0.3,9.1,0.5c2.9,0.1,5.6,0.3,8.2,0.5c5.1,0.3,9.3,0.6,12.2,0.8c1.5,0.1,2.6,0.2,3.4,0.3c0.8,0.1,1.2,0.1,1.2,0.1
				s-0.4,0-1.2,0.1c-0.8,0.1-2,0.2-3.4,0.3c-3,0.2-7.2,0.5-12.2,0.6c-2.5,0.1-5.3,0.2-8.2,0.2c-2.9,0-6,0.1-9.1,0
				c-3.2,0-6.4,0-9.8-0.2c-3.3-0.1-6.7-0.3-10.1-0.4c-3.4-0.2-6.7-0.4-10.1-0.6c-3.3-0.2-6.6-0.6-9.7-0.9c-3.2-0.3-6.2-0.7-9.1-1.1
				c-2.9-0.4-5.6-0.8-8.1-1.3c-5-0.9-9.1-2-11.9-3.1c-1.4-0.5-2.4-1.1-3-1.7c-0.3-0.3-0.5-0.6-0.5-0.8C17.6,87.1,17.6,87,17.6,87z"
				/>
		</g>
		<g>
			<path fill="#ABA983" d="M59.8,130.2c0,0,0,0.1,0.1,0.2c0.1,0.1,0.2,0.3,0.4,0.4c0.4,0.3,1.2,0.6,2.2,0.8c2,0.5,4.9,0.8,8.5,1.1
				c1.8,0.1,3.7,0.3,5.7,0.4c2,0.1,4.2,0.2,6.4,0.4c4.4,0.2,9.2,0.5,13.9,0.7c2.4,0.1,4.7,0.3,7.1,0.4c2.3,0.1,4.6,0.3,6.8,0.4
				c2.2,0.1,4.4,0.3,6.4,0.4c2,0.1,4,0.3,5.7,0.4c3.6,0.3,6.5,0.6,8.6,0.8c2.1,0.2,3.3,0.4,3.3,0.4s-1.2,0.2-3.3,0.4
				c-2.1,0.2-5.1,0.5-8.6,0.6c-1.8,0.1-3.7,0.2-5.8,0.2c-2.1,0.1-4.2,0.1-6.5,0.1c-2.2,0-4.6,0-6.9-0.1c-2.3-0.1-4.7-0.2-7.1-0.3
				c-2.4-0.1-4.8-0.3-7.1-0.5c-2.3-0.2-4.6-0.5-6.9-0.7c-2.2-0.2-4.4-0.6-6.4-0.9c-2-0.3-4-0.7-5.7-1.1c-3.5-0.8-6.4-1.6-8.4-2.5
				c-1-0.4-1.7-0.9-2.1-1.3C59.8,130.5,59.9,130.2,59.8,130.2z"/>
		</g>
		<g>
			<path fill="#ABA983" d="M55.7,35.2c0,0,0,0.1,0.1,0.2c0.1,0.1,0.2,0.3,0.4,0.4c0.4,0.3,1.2,0.6,2.2,0.8c2,0.5,4.9,0.8,8.5,1.1
				c1.8,0.1,3.7,0.3,5.7,0.4c2,0.1,4.2,0.2,6.4,0.4c4.4,0.2,9.2,0.5,13.9,0.7c2.4,0.1,4.7,0.3,7.1,0.4c2.3,0.1,4.6,0.3,6.8,0.4
				c2.2,0.1,4.4,0.3,6.4,0.4c2,0.1,4,0.3,5.7,0.4c3.6,0.3,6.5,0.6,8.6,0.8c2.1,0.2,3.3,0.4,3.3,0.4s-1.2,0.2-3.3,0.4
				c-2.1,0.2-5.1,0.5-8.6,0.6c-1.8,0.1-3.7,0.2-5.8,0.2c-2.1,0.1-4.2,0.1-6.5,0.1c-2.2,0-4.6,0-6.9-0.1c-2.3-0.1-4.7-0.2-7.1-0.3
				c-2.4-0.1-4.8-0.3-7.1-0.5c-2.3-0.2-4.6-0.5-6.9-0.7c-2.2-0.2-4.4-0.6-6.4-0.9c-2-0.3-4-0.7-5.7-1.1c-3.5-0.8-6.4-1.6-8.4-2.5
				c-1-0.4-1.7-0.9-2.1-1.3C55.6,35.5,55.7,35.2,55.7,35.2z"/>
		</g>
		<g>
			<path fill="#ABA983" d="M127.9,45.8c0,0,0,0.1,0,0.3c0,0.2,0,0.6-0.1,1c-0.2,0.9-0.7,2.1-1.9,3.4c-1.1,1.2-2.7,2.5-4.7,3.7
				c-2,1.2-4.3,2.3-7,3.4c-2.6,1.1-5.5,2.1-8.6,3c-3.1,0.9-6.4,1.8-9.8,2.5c-3.4,0.7-7,1.5-10.6,2.1c-3.6,0.6-7.3,1.1-11.1,1.6
				c-3.7,0.4-7.4,0.8-11.1,1.1c-3.7,0.3-7.3,0.5-10.8,0.7c-3.5,0.2-6.9,0.3-10.1,0.3c-3.2,0.1-6.2,0.1-9,0c-5.6,0-10.3-0.3-13.5-0.4
				c-1.6-0.1-2.9-0.2-3.8-0.3c-0.9-0.1-1.3-0.1-1.3-0.1s1.9-0.1,5.1-0.4c3.3-0.2,7.9-0.6,13.5-1c2.8-0.2,5.8-0.4,9-0.7
				c3.2-0.3,6.5-0.6,10-0.8c3.5-0.3,7-0.7,10.7-1c3.6-0.4,7.3-0.8,11-1.2c3.7-0.4,7.4-0.9,11-1.5c3.6-0.6,7.1-1.1,10.6-1.7
				c3.4-0.6,6.7-1.3,9.8-2c3.1-0.7,6-1.5,8.6-2.3c2.6-0.8,5-1.7,7-2.6c2-0.9,3.7-1.9,4.9-3c1.2-1,1.9-2.1,2.2-2.9
				c0.1-0.4,0.2-0.7,0.3-0.9C127.9,45.9,127.9,45.8,127.9,45.8z"/>
		</g>
		<g>
			<path fill="#ABA983" d="M218.8,91.6c0,0,0,0.1,0,0.3c0,0.2,0,0.6-0.1,1c-0.2,0.9-0.7,2.1-1.9,3.4c-1.1,1.2-2.7,2.5-4.7,3.7
				c-2,1.2-4.3,2.3-7,3.4c-2.6,1.1-5.5,2.1-8.6,3c-3.1,0.9-6.4,1.8-9.8,2.5c-3.4,0.7-7,1.5-10.6,2.1c-3.6,0.6-7.3,1.1-11.1,1.6
				c-3.7,0.4-7.4,0.8-11.1,1.1c-3.7,0.3-7.3,0.5-10.8,0.7c-3.5,0.2-6.9,0.3-10.1,0.3c-3.2,0.1-6.2,0.1-9,0c-5.6,0-10.3-0.3-13.5-0.4
				c-1.6-0.1-2.9-0.2-3.8-0.3c-0.9-0.1-1.3-0.1-1.3-0.1s1.9-0.1,5.1-0.4c3.3-0.2,7.9-0.6,13.5-1c2.8-0.2,5.8-0.4,9-0.7
				c3.2-0.3,6.5-0.6,10-0.8c3.5-0.3,7-0.7,10.7-1c3.6-0.4,7.3-0.8,11-1.2c3.7-0.4,7.4-0.9,11-1.5c3.6-0.6,7.1-1.1,10.6-1.7
				c3.4-0.6,6.7-1.3,9.8-2c3.1-0.7,6-1.5,8.6-2.3c2.6-0.8,5-1.7,7-2.6c2-0.9,3.7-1.9,4.9-3c1.2-1,1.9-2.1,2.2-2.9
				c0.1-0.4,0.2-0.7,0.3-0.9C218.8,91.7,218.8,91.6,218.8,91.6z"/>
		</g>
		<g>
			<path fill="#ABA983" d="M42.4,47.1c0,0,0.1,0.7,0.2,2c0.1,0.6,0.1,1.4,0.2,2.4c0.2,0.9,0.3,2,0.5,3.1c0.5,2.3,1.2,5.2,2.3,8.3
				c0.3,0.8,0.6,1.6,1,2.4c0.4,0.8,0.7,1.7,1.1,2.5c0.9,1.6,1.7,3.4,2.8,5.1c1,1.8,2.3,3.5,3.5,5.2c1.4,1.7,2.7,3.5,4.3,5.2
				c1.5,1.8,3.3,3.4,5,5.1c1.8,1.6,3.7,3.3,5.7,4.9c1,0.8,2,1.6,3,2.3c1,0.8,2.1,1.5,3.2,2.3c2.2,1.4,4.4,2.9,6.7,4.3
				c4.6,2.8,9.4,5.3,14.4,7.5c2.4,1.2,5,2.2,7.5,3.3c1.3,0.5,2.5,1,3.8,1.5c1.3,0.5,2.5,1,3.8,1.4c1.3,0.4,2.5,0.9,3.8,1.3
				c1.3,0.4,2.5,0.8,3.8,1.2c2.5,0.8,5,1.5,7.5,2.2c2.5,0.7,4.9,1.2,7.3,1.8c2.4,0.5,4.8,1.1,7.1,1.5c2.3,0.4,4.6,0.9,6.7,1.2
				c2.2,0.3,4.3,0.7,6.3,1c2,0.3,4,0.5,5.9,0.8c1.9,0.2,3.6,0.4,5.3,0.6c1.7,0.2,3.2,0.3,4.7,0.4c1.4,0.1,2.8,0.2,4,0.3
				c4.8,0.3,7.6,0.5,7.6,0.5s-0.7,0-2,0.1c-1.3,0-3.2,0.1-5.6,0.2c-2.4,0-5.4,0.1-8.7-0.1c-1.7-0.1-3.5-0.1-5.4-0.2
				c-1.9-0.1-3.9-0.3-5.9-0.4c-2.1-0.2-4.2-0.4-6.4-0.7c-2.2-0.2-4.5-0.6-6.9-1c-2.4-0.4-4.8-0.8-7.2-1.3c-2.5-0.5-5-1-7.5-1.6
				c-2.5-0.6-5.1-1.2-7.7-2c-1.3-0.4-2.6-0.7-3.9-1.1c-1.3-0.4-2.6-0.9-3.9-1.3c-1.3-0.4-2.6-0.9-3.9-1.4c-1.3-0.5-2.6-1-3.9-1.5
				c-2.6-1.1-5.2-2.1-7.7-3.3c-5.1-2.3-10-5-14.7-7.8c-4.7-2.8-9.1-6.1-13.1-9.5c-2-1.7-3.9-3.5-5.7-5.2c-1.7-1.8-3.5-3.6-5-5.5
				c-1.6-1.8-2.9-3.8-4.3-5.6c-1.2-1.9-2.4-3.7-3.4-5.6c-1-1.8-1.8-3.7-2.6-5.4c-0.4-0.9-0.6-1.8-1-2.6c-0.3-0.9-0.6-1.7-0.8-2.5
				c-0.9-3.3-1.4-6.2-1.7-8.6c-0.1-1.2-0.2-2.3-0.2-3.2c0-0.9,0-1.7,0-2.4C42.4,47.8,42.4,47.1,42.4,47.1z"/>
		</g>
	</g>
	<g>
		<path fill="#ABA983" d="M0.3,85.5c0,0,8,74.6,121.7,72.7c113.6-1.9,121.2-72.7,121.2-72.7V73.9c0,0-7.6,70.8-121.2,72.7
			S0.3,73.9,0.3,73.9V85.5z"/>
	</g>
	<g>
		<line fill="#736F60" x1="4.5" y1="89" x2="4.5" y2="99"/>
		<path fill="#B9AF9A" d="M4.5,89c0,0,0.3,0.6,0.5,1.6c0.3,0.9,0.4,2.2,0.4,3.4c0,1.3-0.2,2.5-0.4,3.4C4.8,98.4,4.5,99,4.5,99
			S4.2,98.4,4,97.4c-0.3-0.9-0.4-2.2-0.4-3.4c0-1.3,0.2-2.5,0.4-3.4C4.2,89.6,4.5,89,4.5,89z"/>
	</g>
	<g>
		<line fill="#736F60" x1="8.5" y1="97.7" x2="8.5" y2="107.7"/>
		<path fill="#B9AF9A" d="M8.5,97.7c0,0,0.3,0.6,0.5,1.6c0.3,0.9,0.4,2.2,0.4,3.4c0,1.3-0.2,2.5-0.4,3.4c-0.2,0.9-0.5,1.6-0.5,1.6
			s-0.3-0.6-0.5-1.6c-0.3-0.9-0.4-2.2-0.4-3.4c0-1.3,0.2-2.5,0.4-3.4C8.2,98.3,8.5,97.7,8.5,97.7z"/>
	</g>
	<g>
		<line fill="#736F60" x1="14" y1="106" x2="14" y2="116"/>
		<path fill="#B9AF9A" d="M14,106c0,0,0.3,0.6,0.5,1.6c0.3,0.9,0.4,2.2,0.4,3.4c0,1.3-0.2,2.5-0.4,3.4c-0.2,0.9-0.5,1.6-0.5,1.6
			s-0.3-0.6-0.5-1.6c-0.3-0.9-0.4-2.2-0.4-3.4c0-1.3,0.2-2.5,0.4-3.4C13.7,106.6,14,106,14,106z"/>
	</g>
	<g>
		<line fill="#736F60" x1="19.1" y1="111.6" x2="19.1" y2="123.2"/>
		<path fill="#B9AF9A" d="M19.1,111.6c0,0,0.3,0.7,0.5,1.8c0.3,1.1,0.4,2.5,0.4,4c0,1.4-0.2,2.9-0.4,4c-0.2,1.1-0.5,1.8-0.5,1.8
			s-0.3-0.7-0.5-1.8c-0.3-1.1-0.4-2.5-0.4-4c0-1.4,0.2-2.9,0.4-4C18.8,112.3,19.1,111.6,19.1,111.6z"/>
	</g>
	<g>
		<line fill="#736F60" x1="26.7" y1="118.6" x2="26.7" y2="130.2"/>
		<path fill="#B9AF9A" d="M26.7,118.6c0,0,0.3,0.7,0.5,1.8c0.3,1.1,0.4,2.5,0.4,4c0,1.4-0.2,2.9-0.4,4c-0.2,1.1-0.5,1.8-0.5,1.8
			s-0.3-0.7-0.5-1.8c-0.3-1.1-0.4-2.5-0.4-4c0-1.4,0.2-2.9,0.4-4C26.4,119.3,26.7,118.6,26.7,118.6z"/>
	</g>
	<g>
		<line fill="#736F60" x1="35.4" y1="125.5" x2="35.4" y2="137"/>
		<path fill="#B9AF9A" d="M35.4,125.5c0,0,0.3,0.7,0.5,1.8c0.3,1.1,0.4,2.5,0.4,4c0,1.4-0.2,2.9-0.4,4c-0.2,1.1-0.5,1.8-0.5,1.8
			s-0.3-0.7-0.5-1.8c-0.3-1.1-0.4-2.5-0.4-4c0-1.4,0.2-2.9,0.4-4C35.1,126.2,35.4,125.5,35.4,125.5z"/>
	</g>
	<g>
		<line fill="#736F60" x1="44.6" y1="130.2" x2="44.6" y2="142.8"/>
		<path fill="#B9AF9A" d="M44.6,130.2c0,0,0.3,0.8,0.5,2c0.3,1.2,0.4,2.8,0.4,4.3c0,1.6-0.2,3.2-0.4,4.3c-0.2,1.2-0.5,2-0.5,2
			s-0.3-0.8-0.5-2c-0.3-1.2-0.4-2.8-0.4-4.3c0-1.6,0.2-3.2,0.4-4.3C44.3,131,44.6,130.2,44.6,130.2z"/>
	</g>
	<g>
		<line fill="#736F60" x1="57.3" y1="136.5" x2="57.3" y2="149.1"/>
		<path fill="#B9AF9A" d="M57.3,136.5c0,0,0.3,0.8,0.5,2c0.3,1.2,0.4,2.8,0.4,4.3c0,1.6-0.2,3.2-0.4,4.3c-0.2,1.2-0.5,2-0.5,2
			s-0.3-0.8-0.5-2c-0.3-1.2-0.4-2.8-0.4-4.3c0-1.6,0.2-3.2,0.4-4.3C57,137.3,57.3,136.5,57.3,136.5z"/>
	</g>
	<g>
		<line fill="#736F60" x1="69.6" y1="140" x2="69.6" y2="152.6"/>
		<path fill="#B9AF9A" d="M69.6,140c0,0,0.3,0.8,0.5,2c0.3,1.2,0.4,2.8,0.4,4.3c0,1.6-0.2,3.2-0.4,4.3c-0.2,1.2-0.5,2-0.5,2
			s-0.3-0.8-0.5-2c-0.3-1.2-0.4-2.8-0.4-4.3c0-1.6,0.2-3.2,0.4-4.3C69.3,140.8,69.6,140,69.6,140z"/>
	</g>
	<g>
		<line fill="#736F60" x1="81.9" y1="142.8" x2="81.9" y2="155.4"/>
		<path fill="#B9AF9A" d="M81.9,142.8c0,0,0.3,0.8,0.5,2c0.3,1.2,0.4,2.8,0.4,4.3c0,1.6-0.2,3.2-0.4,4.3c-0.2,1.2-0.5,2-0.5,2
			s-0.3-0.8-0.5-2c-0.3-1.2-0.4-2.8-0.4-4.3c0-1.6,0.2-3.2,0.4-4.3C81.6,143.6,81.9,142.8,81.9,142.8z"/>
	</g>
	<g>
		<line fill="#736F60" x1="99.1" y1="144.7" x2="99.1" y2="157.3"/>
		<path fill="#B9AF9A" d="M99.1,144.7c0,0,0.3,0.8,0.5,2c0.3,1.2,0.4,2.8,0.4,4.3c0,1.6-0.2,3.2-0.4,4.3c-0.2,1.2-0.5,2-0.5,2
			s-0.3-0.8-0.5-2c-0.3-1.2-0.4-2.8-0.4-4.3c0-1.6,0.2-3.2,0.4-4.3C98.8,145.5,99.1,144.7,99.1,144.7z"/>
	</g>
	<g>
		<line fill="#736F60" x1="115.4" y1="146.3" x2="115.4" y2="158.9"/>
		<path fill="#B9AF9A" d="M115.4,146.3c0,0,0.3,0.8,0.5,2c0.3,1.2,0.4,2.8,0.4,4.3c0,1.6-0.2,3.2-0.4,4.3c-0.2,1.2-0.5,2-0.5,2
			s-0.3-0.8-0.5-2c-0.3-1.2-0.4-2.8-0.4-4.3c0-1.6,0.2-3.2,0.4-4.3C115.1,147.1,115.4,146.3,115.4,146.3z"/>
	</g>
	<g>
		<line fill="#736F60" x1="141.3" y1="144.7" x2="141.3" y2="157.3"/>
		<path fill="#B9AF9A" d="M141.3,144.7c0,0,0.3,0.8,0.5,2c0.3,1.2,0.4,2.8,0.4,4.3c0,1.6-0.2,3.2-0.4,4.3c-0.2,1.2-0.5,2-0.5,2
			s-0.3-0.8-0.5-2c-0.3-1.2-0.4-2.8-0.4-4.3c0-1.6,0.2-3.2,0.4-4.3C140.9,145.5,141.3,144.7,141.3,144.7z"/>
	</g>
	<g>
		<line fill="#736F60" x1="158.4" y1="142.8" x2="158.4" y2="155.4"/>
		<path fill="#B9AF9A" d="M158.4,142.8c0,0,0.3,0.8,0.5,2c0.3,1.2,0.4,2.8,0.4,4.3c0,1.6-0.2,3.2-0.4,4.3c-0.2,1.2-0.5,2-0.5,2
			s-0.3-0.8-0.5-2c-0.3-1.2-0.4-2.8-0.4-4.3c0-1.6,0.2-3.2,0.4-4.3C158.1,143.6,158.4,142.8,158.4,142.8z"/>
	</g>
	<g>
		<line fill="#736F60" x1="174.3" y1="138.4" x2="174.3" y2="151"/>
		<path fill="#B9AF9A" d="M174.3,138.4c0,0,0.3,0.8,0.5,2c0.3,1.2,0.4,2.8,0.4,4.3c0,1.6-0.2,3.2-0.4,4.3c-0.2,1.2-0.5,2-0.5,2
			s-0.3-0.8-0.5-2c-0.3-1.2-0.4-2.8-0.4-4.3c0-1.6,0.2-3.2,0.4-4.3C174,139.2,174.3,138.4,174.3,138.4z"/>
	</g>
	<g>
		<line fill="#736F60" x1="188.5" y1="133.6" x2="188.5" y2="146.2"/>
		<path fill="#B9AF9A" d="M188.5,133.6c0,0,0.3,0.8,0.5,2c0.3,1.2,0.4,2.8,0.4,4.3c0,1.6-0.2,3.2-0.4,4.3c-0.2,1.2-0.5,2-0.5,2
			s-0.3-0.8-0.5-2c-0.3-1.2-0.4-2.8-0.4-4.3c0-1.6,0.2-3.2,0.4-4.3C188.2,134.4,188.5,133.6,188.5,133.6z"/>
	</g>
	<g>
		<line fill="#736F60" x1="202.6" y1="127.3" x2="202.6" y2="139.9"/>
		<path fill="#B9AF9A" d="M202.6,127.3c0,0,0.3,0.8,0.5,2c0.3,1.2,0.4,2.8,0.4,4.3c0,1.6-0.2,3.2-0.4,4.3c-0.2,1.2-0.5,2-0.5,2
			s-0.3-0.8-0.5-2c-0.3-1.2-0.4-2.8-0.4-4.3c0-1.6,0.2-3.2,0.4-4.3C202.3,128.1,202.6,127.3,202.6,127.3z"/>
	</g>
	<g>
		<line fill="#736F60" x1="218" y1="115.8" x2="218" y2="128.4"/>
		<path fill="#B9AF9A" d="M218,115.8c0,0,0.3,0.8,0.5,2c0.3,1.2,0.4,2.8,0.4,4.3c0,1.6-0.2,3.2-0.4,4.3c-0.2,1.2-0.5,2-0.5,2
			s-0.3-0.8-0.5-2c-0.3-1.2-0.4-2.8-0.4-4.3c0-1.6,0.2-3.2,0.4-4.3C217.6,116.6,218,115.8,218,115.8z"/>
	</g>
	<g>
		<line fill="#736F60" x1="225.2" y1="107.7" x2="225.2" y2="120.4"/>
		<path fill="#B9AF9A" d="M225.2,107.7c0,0,0.3,0.8,0.5,2c0.3,1.2,0.4,2.8,0.4,4.3c0,1.6-0.2,3.2-0.4,4.3c-0.2,1.2-0.5,2-0.5,2
			s-0.3-0.8-0.5-2c-0.3-1.2-0.4-2.8-0.4-4.3c0-1.6,0.2-3.2,0.4-4.3C224.8,108.5,225.2,107.7,225.2,107.7z"/>
	</g>
	<g>
		<line fill="#736F60" x1="210.2" y1="122.1" x2="210.2" y2="134.7"/>
		<path fill="#B9AF9A" d="M210.2,122.1c0,0,0.3,0.8,0.5,2c0.3,1.2,0.4,2.8,0.4,4.3c0,1.6-0.2,3.2-0.4,4.3c-0.2,1.2-0.5,2-0.5,2
			s-0.3-0.8-0.5-2c-0.3-1.2-0.4-2.8-0.4-4.3c0-1.6,0.2-3.2,0.4-4.3C209.9,122.9,210.2,122.1,210.2,122.1z"/>
	</g>
	<g>
		<line fill="#736F60" x1="232.1" y1="99.8" x2="232.1" y2="112.4"/>
		<path fill="#B9AF9A" d="M232.1,99.8c0,0,0.3,0.8,0.5,2c0.3,1.2,0.4,2.8,0.4,4.3c0,1.6-0.2,3.2-0.4,4.3c-0.2,1.2-0.5,2-0.5,2
			s-0.3-0.8-0.5-2c-0.3-1.2-0.4-2.8-0.4-4.3c0-1.6,0.2-3.2,0.4-4.3C231.7,100.6,232.1,99.8,232.1,99.8z"/>
	</g>
	<g>
		<line fill="#736F60" x1="236.8" y1="91.1" x2="236.8" y2="103.7"/>
		<path fill="#B9AF9A" d="M236.8,91.1c0,0,0.3,0.8,0.5,2c0.3,1.2,0.4,2.8,0.4,4.3c0,1.6-0.2,3.2-0.4,4.3c-0.2,1.2-0.5,2-0.5,2
			s-0.3-0.8-0.5-2c-0.3-1.2-0.4-2.8-0.4-4.3c0-1.6,0.2-3.2,0.4-4.3C236.5,91.8,236.8,91.1,236.8,91.1z"/>
	</g>
	<g>
		<line fill="#736F60" x1="240" y1="84.8" x2="240" y2="97.4"/>
		<path fill="#B9AF9A" d="M240,84.8c0,0,0.3,0.8,0.5,2c0.3,1.2,0.4,2.8,0.4,4.3c0,1.6-0.2,3.2-0.4,4.3c-0.2,1.2-0.5,2-0.5,2
			s-0.3-0.8-0.5-2c-0.3-1.2-0.4-2.8-0.4-4.3c0-1.6,0.2-3.2,0.4-4.3C239.6,85.5,240,84.8,240,84.8z"/>
	</g>
</g>
</svg>
