<!-- Generator: Adobe Illustrator 18.1.1, SVG Export Plug-In  -->
<svg version="1.1"
	 xmlns="http://www.w3.org/2000/svg" xmlns:xlink="http://www.w3.org/1999/xlink" xmlns:a="http://ns.adobe.com/AdobeSVGViewerExtensions/3.0/"
	 x="0px" y="0px" width="248.5px" height="461.7px" viewBox="0 0 248.5 461.7" enable-background="new 0 0 248.5 461.7"
	 xml:space="preserve">
<defs>
</defs>
<g>
	<polygon fill="#636266" points="212,95 248,85 212,85 	"/>
	<polygon fill="#B1AFB7" points="199.7,50 189.7,87 171,87 161,50 134.7,50 124.7,87 106,87 96,50 72.3,50 62.3,87 43.7,87 33.7,50 
		6,50 6,461 214.7,461 214.7,50 	"/>
	<g>
		<rect x="20" y="50" fill="#2B2B2B" width="4" height="411"/>
		<rect x="84" y="50" fill="#2B2B2B" width="4" height="411"/>
		<rect x="147.5" y="50" fill="#2B2B2B" width="4" height="411"/>
		<rect x="208" y="50" fill="#2B2B2B" width="4" height="411"/>
	</g>
	<polygon fill="#C0A585" stroke="#4C3332" stroke-miterlimit="10" points="248,85 214.7,94.3 214.7,461 248,451 	"/>
	<g>
		<line fill="none" stroke="#4C3332" stroke-miterlimit="10" x1="214.7" y1="127.8" x2="248" y2="117.8"/>
		<line fill="none" stroke="#4C3332" stroke-miterlimit="10" x1="214.7" y1="160.4" x2="248" y2="150.4"/>
		<line fill="none" stroke="#4C3332" stroke-miterlimit="10" x1="214.7" y1="193.1" x2="248" y2="183.1"/>
		<line fill="none" stroke="#4C3332" stroke-miterlimit="10" x1="214.7" y1="225.7" x2="248" y2="215.7"/>
		<line fill="none" stroke="#4C3332" stroke-miterlimit="10" x1="214.7" y1="258.4" x2="248" y2="248.4"/>
		<line fill="none" stroke="#4C3332" stroke-miterlimit="10" x1="214.7" y1="291" x2="248" y2="281"/>
		<line fill="none" stroke="#4C3332" stroke-miterlimit="10" x1="214.7" y1="323.7" x2="248" y2="313.7"/>
		<line fill="none" stroke="#4C3332" stroke-miterlimit="10" x1="214.7" y1="356.3" x2="248" y2="346.3"/>
		<line fill="none" stroke="#4C3332" stroke-miterlimit="10" x1="214.7" y1="389" x2="248" y2="379"/>
		<line fill="none" stroke="#4C3332" stroke-miterlimit="10" x1="215.7" y1="421.6" x2="248" y2="411.6"/>
		<line fill="none" stroke="#4C3332" stroke-miterlimit="10" x1="241.7" y1="86.9" x2="241.7" y2="452.9"/>
		<line fill="none" stroke="#4C3332" stroke-miterlimit="10" x1="235" y1="89" x2="235" y2="455"/>
		<line fill="none" stroke="#4C3332" stroke-miterlimit="10" x1="228.3" y1="90" x2="228.3" y2="456.9"/>
		<line fill="none" stroke="#4C3332" stroke-miterlimit="10" x1="221.5" y1="92.4" x2="221.5" y2="459.2"/>
	</g>
	<g>
		<rect x="6" y="33.6" fill="#866715" width="27.7" height="16.4"/>
		<rect x="72.3" y="33.6" fill="#866715" width="22.9" height="16.4"/>
		<rect x="134.5" y="31.7" fill="#866715" width="26.7" height="18.3"/>
		<rect x="199.5" y="31.7" fill="#866715" width="15.4" height="18.3"/>
	</g>
	<g>
		<polygon fill="#7B7A7F" points="65.7,461 39.7,461 39.7,113.3 52.7,95 65.7,113.3 		"/>
	</g>
	<g>
		<polygon fill="#7B7A7F" points="128.5,461 102.5,461 102.5,113.3 115.5,95 128.5,113.3 		"/>
	</g>
	<g>
		<polygon fill="#7B7A7F" points="193,461 167,461 167,113.3 180,95 193,113.3 		"/>
	</g>
	<g>
		<circle fill="#F9F37D" cx="20" cy="20" r="20"/>
		<circle fill="#F9F37D" cx="84" cy="20" r="20"/>
		<circle fill="#F9F37D" cx="147.9" cy="20" r="20"/>
		<circle fill="#F9F37D" cx="208" cy="20" r="20"/>
	</g>
</g>
</svg>
