<!-- Generator: Adobe Illustrator 18.0.0, SVG Export Plug-In  -->
<svg version="1.1"
	 xmlns="http://www.w3.org/2000/svg" xmlns:xlink="http://www.w3.org/1999/xlink" xmlns:a="http://ns.adobe.com/AdobeSVGViewerExtensions/3.0/"
	 x="0px" y="0px" width="243px" height="244.6px" viewBox="0 0 243 244.6" enable-background="new 0 0 243 244.6"
	 xml:space="preserve">
<defs>
</defs>
<g>
	<path fill="#BA4D28" d="M37.8,101.8c0,0,5.3-40.6,23.4-65.6C71.4,21.9,92.3,4,124.5,0.3c13.6-0.8,55.8-2,84,26.7
		c26.6,27.7,28.3,51.9,29.1,63.3c0.4,11.6-1.8,30-3,34.9c-0.4,3-0.7,4.6-0.4,5.4c-0.5,1.4,1.3,5.2-30.2,5.7
		c-22.4-1.1-44.2-2.9-52.2-4.3c-8.8-1.4-48.6-7.7-53.8-8.4c-5.5-0.9-41.7-7.2-59.2-15.9c-2.7-1.8-3.2-2.2-1.9-3.8
		C37.6,102.9,37.8,101.8,37.8,101.8z"/>
	<path fill="#BA4D28" d="M37.6,103.8c0,0-31.1,15.4-32.4,16.3c-1.4,1.3-13.2,8.2,4.3,17.5c8.2,2.9,24.5,9.7,75.1,9.3
		c25.8,0.5,51.5,2,56.2,2.5c5,0.5,17.3,1.4,18.4,1.6c2,0.4,66.9,4.3,82.1-6.3c2-1.6,3.4-3.4-2.3-7.2c-2.9-3-3.4-3.4-4.6-5.7
		c-0.8,1.7-1.1,8.4-55.4,4.2c-18-1.6-47.3-6-64.6-8.7c-15.4-2.4-47.8-6.2-73-17.2C36.7,107.4,34.2,107.6,37.6,103.8z"/>
	<path fill="#BA4D28" d="M96.8,148c0,0-11.7-1-12.3-0.3c-0.6,0.8-17.9,63.1-2.9,84.2c7.5,6.4,11.1,14,36.5,12.5
		c7.5-3.9,16.1-8.9,16.1-8.9s13.9-19.3,20-34.3c2.1,0.4,2.5,2.5,5.2-8.2c2.9-10,4.3-12.9,4.3-12.9s0.4-2.1,8.8-2.7
		c8.2-1.4,14.3-4.6,20.9-8.9c3.9-2.7,9.1-4.5,9.8-4.5c2-0.9,9.9-5,11.5-12.2c-1.4,0.1-4.5,0.4-4.5,0.4s1.4,4.1-7.9,8.1
		c-4.8,2.3-8.8,5.7-10.6,7.3c-2.3,1.3-15.4,8.4-25.2,2.5c-1.4-3.6-1.4-5.9-1.4-5.9l-6.1-0.4c0,0-5.4,0-5.2-4.1
		c0-3.8-0.5-8.3-0.5-8.3l-13.2-1.1l0.7,8c0,0,8.2,10,8.4,11.8c-0.2,2.1-7.5,26.1-8.6,27.2c0.9,1.6,2.1,2.1,2.1,2.1s-4,14.1-6.5,17.7
		c-2.5,3.6-11.8,15.2-14.3,17.9c-2.7,2.3-10.2,9.8-23.2,6.6c-5.9-2.1-14.3-4.6-13.4-17.2C85.5,211.3,91.5,155.8,96.8,148z"/>
</g>
</svg>
