<!-- Generator: Adobe Illustrator 18.0.0, SVG Export Plug-In  -->
<svg version="1.1"
	 xmlns="http://www.w3.org/2000/svg" xmlns:xlink="http://www.w3.org/1999/xlink" xmlns:a="http://ns.adobe.com/AdobeSVGViewerExtensions/3.0/"
	 x="0px" y="0px" width="185.2px" height="186.4px" viewBox="0 0 185.2 186.4" enable-background="new 0 0 185.2 186.4"
	 xml:space="preserve">
<defs>
</defs>
<g>
	<path fill="#F16A25" d="M28.8,77.6c0,0,4-30.9,17.8-50C54.4,16.7,70.3,3,94.9,0.2c10.4-0.6,42.5-1.6,64.1,20.4
		c20.3,21.1,21.5,39.5,22.2,48.2c0.3,8.9-1.4,22.9-2.3,26.6c-0.3,2.3-0.5,3.5-0.3,4.1c-0.4,1.1,1,4-23,4.4
		c-17-0.8-33.7-2.2-39.8-3.3c-6.7-1.1-37.1-5.9-41-6.4c-4.2-0.7-31.8-5.5-45.1-12.1c-2-1.4-2.5-1.7-1.4-2.9
		C28.6,78.4,28.8,77.6,28.8,77.6z"/>
	<path fill="#F16A25" d="M28.6,79.1c0,0-23.7,11.7-24.7,12.4c-1.1,1-10.1,6.3,3.3,13.4c6.3,2.2,18.7,7.4,57.2,7.1
		c19.6,0.4,39.2,1.5,42.8,1.9c3.8,0.4,13.2,1.1,14,1.2c1.5,0.3,51,3.3,62.6-4.8c1.5-1.2,2.6-2.6-1.8-5.5c-2.2-2.3-2.6-2.6-3.5-4.4
		c-0.6,1.3-0.8,6.4-42.2,3.2c-13.7-1.2-36-4.6-49.2-6.6c-11.7-1.8-36.4-4.8-55.6-13.1C28,81.8,26.1,82,28.6,79.1z"/>
	<path fill="#F16A25" d="M73.7,112.8c0,0-8.9-0.7-9.4-0.2c-0.5,0.6-13.6,48.1-2.2,64.2c5.7,4.9,8.4,10.6,27.8,9.5
		c5.7-3,12.3-6.8,12.3-6.8s10.6-14.7,15.3-26.2c1.6,0.3,1.9,1.9,4-6.3c2.2-7.6,3.3-9.8,3.3-9.8s0.3-1.6,6.7-2
		c6.3-1.1,10.9-3.5,15.9-6.8c3-2,7-3.4,7.5-3.4c1.5-0.7,7.5-3.8,8.7-9.3c-1.1,0.1-3.4,0.3-3.4,0.3s1.1,3.1-6,6.1
		c-3.7,1.8-6.7,4.4-8,5.6c-1.8,1-11.7,6.4-19.2,1.9c-1.1-2.7-1.1-4.5-1.1-4.5l-4.6-0.3c0,0-4.1,0-4-3.1c0-2.9-0.4-6.3-0.4-6.3
		l-10.1-0.9l0.5,6.1c0,0,6.3,7.6,6.4,9c-0.1,1.6-5.7,19.9-6.5,20.7c0.7,1.2,1.6,1.6,1.6,1.6s-3,10.8-4.9,13.5S94.9,177,93,179
		c-2,1.8-7.8,7.5-17.7,5c-4.5-1.6-10.9-3.5-10.2-13.1C65.2,161,69.7,118.7,73.7,112.8z"/>
</g>
</svg>
