<!-- Generator: Adobe Illustrator 18.0.0, SVG Export Plug-In  -->
<svg version="1.1"
	 xmlns="http://www.w3.org/2000/svg" xmlns:xlink="http://www.w3.org/1999/xlink" xmlns:a="http://ns.adobe.com/AdobeSVGViewerExtensions/3.0/"
	 x="0px" y="0px" width="1231.1px" height="773.4px" viewBox="0 0 1231.1 773.4" enable-background="new 0 0 1231.1 773.4"
	 xml:space="preserve">
<defs>
</defs>
<g>
	<polygon fill="#F99E37" points="665.4,24.7 1202.3,124.4 1202.3,429.9 665.4,301.3 	"/>
	<polygon fill="#F48131" points="113.1,456.6 657.2,683.9 657.2,713.7 90.5,470 90.5,128.6 113.1,151.2 	"/>
	<polygon fill="#F05D24" points="657.2,683.9 657.2,713.7 113.1,479.7 113.1,456.6 	"/>
	<polygon fill="#EC8323" points="1202.3,429.9 657.2,683.9 657.2,713.7 1231.1,448.4 1231.1,102.8 1202.3,124.4 	"/>
	<polygon fill="#ED5725" points="657.2,683.9 657.2,713.7 1202.3,461.7 1202.3,429.9 	"/>
	<polygon fill="#FEC55F" points="1231.1,102.8 665.4,0 665.4,24.7 1202.3,124.4 	"/>
	<polygon fill="#FDBA44" points="665.4,0 665.4,24.7 113.1,151.2 90.5,128.6 	"/>
	<polygon fill="#ED5725" points="230.4,738.4 230.4,773.4 520.6,655 520.6,626.9 	"/>
	<polygon fill="#F05D24" points="230.4,738.4 0,631.5 0,664.4 230.4,773.4 	"/>
	<polygon fill="#F36E28" points="0,631.8 301.6,535.3 520.6,626.5 230.5,738.5 	"/>
	<polygon fill="#F36E28" points="665.4,301.3 113.1,456.6 657.2,683.9 1202.3,429.9 	"/>
	<path fill="#F59123" d="M113.1,151.2v305.4l552.3-155.3V24.7L113.1,151.2z M329.5,373.5l-192.7,52.3V220.1l192.7-45.6V373.5z
		 M579,307.9l-199,53.6v-199l199-47.8V307.9z"/>
	<polygon opacity="0.4" fill="#DAD1DA" points="319.1,365 319.1,177.7 136.8,220.1 136.8,412.8 	"/>
	<polygon opacity="0.5" fill="#DAD1DA" points="380,162.5 380,350.7 570.7,300.1 570.7,116.7 	"/>
	<polygon fill="#51C4CA" points="319.1,176.9 319.1,365 329.5,373.5 329.5,174.4 	"/>
	<polygon fill="#5EC6C8" points="319.1,365 136.8,412.8 136.8,425.8 329.5,373.5 	"/>
	<polygon fill="#51C4CA" points="570.7,116.7 570.7,300.1 579,307.9 579,114.7 	"/>
	<polygon fill="#5EC6C8" points="570.7,300.1 380,350.7 380,361.5 579,307.9 	"/>
	<polygon fill="#4CC4CE" points="136.8,364.8 324.3,318.5 324.3,327.8 136.8,375.2 	"/>
	<polygon fill="#80CED0" points="324.3,318.5 318.9,315 136.8,359.4 136.8,364.8 	"/>
	<polygon fill="#4CC4CE" points="136.8,311 324.3,264.8 324.3,274 136.8,321.5 	"/>
	<polygon fill="#80CED0" points="324.3,264.8 318.9,261.3 136.8,305.6 136.8,311 	"/>
	<polygon fill="#4CC4CE" points="136.8,266.5 324.3,220.3 324.3,229.5 136.8,277 	"/>
	<polygon fill="#80CED0" points="324.3,220.3 318.9,216.8 136.8,261.1 136.8,266.5 	"/>
	<polygon fill="#4CC4CE" points="259.6,191 259.6,385.1 253.1,387 253.1,192.5 	"/>
	<polygon fill="#80CED0" points="253.1,387 248.7,383.4 248.7,193.6 253.1,192.5 	"/>
	<polygon fill="#4CC4CE" points="187.2,208.3 187.2,404.4 180.7,406.2 180.7,209.9 	"/>
	<polygon fill="#80CED0" points="180.7,406.2 176.2,402.7 176.2,210.9 180.7,209.9 	"/>
	<polygon fill="#4CC4CE" points="380,313.3 573.2,264.8 573.2,254.7 380,302.9 	"/>
	<polygon fill="#80CED0" points="573.2,254.7 570.7,253.1 380,300.7 380,302.9 	"/>
	<polygon fill="#4CC4CE" points="380,257.4 573.2,208.8 573.2,198.7 380,247 	"/>
	<polygon fill="#80CED0" points="573.2,198.7 570.7,197.2 380,244.8 380,247 	"/>
	<polygon fill="#4CC4CE" points="380,218.5 573.2,169.9 573.2,159.8 380,208 	"/>
	<polygon fill="#80CED0" points="573.2,159.8 570.7,158.3 380,205.9 380,208 	"/>
	<polygon fill="#4CC4CE" points="512.9,130.6 512.9,318.5 508.1,319.8 508.1,131.7 	"/>
	<polyline fill="#80CED0" points="508.1,319.8 505.3,317.5 505.3,132.4 508.1,131.7 	"/>
	<polygon fill="#4CC4CE" points="441.3,336.8 432.7,339.1 432.7,149.8 441.3,147.8 	"/>
	<polygon fill="#80CED0" points="432.7,339.1 430.3,337.3 430.3,150.4 432.7,149.8 	"/>
	<polygon fill="#DB5B26" points="958.3,419.1 1029,388.4 1075.9,399.6 1059.8,411.8 	"/>
	<polygon fill="#DB5B26" points="762.6,381.7 809,381.5 781.4,374.6 781.6,373.2 	"/>
	<polygon fill="#DB7E2A" points="1058.1,395.4 1054.7,128.6 1029,133.2 1029,388.4 	"/>
	<polygon fill="#DB7E2A" points="854.4,100.8 1022.5,114.7 1054.7,128.6 1029,133.2 	"/>
	<polygon fill="#DB7E2A" points="1144.1,352 1151.9,344.8 1155.7,265.5 1141.4,256.9 1129.7,254.8 1144.1,265.5 	"/>
	<polygon fill="#DB7E2A" points="1149.2,347.2 1146.3,416.5 1144.1,416 1144.1,352 	"/>
	<polygon fill="#DB5B26" points="1059.8,411.8 1070.4,411.8 1069.6,404.5 1067.8,405.7 1067.7,408.3 	"/>
	<polygon fill="#DB5B26" points="1129.7,427.3 1136.9,427.3 1138.7,419.1 1135.4,418.3 1135.1,424.7 	"/>
	<polygon fill="#DB5B26" points="1138.7,419.1 1146.3,416.5 1144.1,416 	"/>
	<polygon fill="#DB5B26" points="260.3,713.7 279.4,710.1 285.5,705.1 282.5,698.8 299.4,693.6 289.3,683.9 276.8,688.8 
		276.3,706.3 	"/>
	<path fill="#DB7E2A" d="M1202.3,236.2v4.4l-83.3-17.4c0,0-7.5,0.1-7.5,4c0,3.9,0,23.7,0,23.7l-1.3-0.3v-26.4c0,0-1.9-6.9,7.6-5.1
		S1202.3,236.2,1202.3,236.2z"/>
	<polygon fill="#DB5B26" points="561.5,575.9 567.4,578.8 580,575.9 580,568 	"/>
	<polygon fill="#DB5B26" points="586.5,579.8 605.8,575.9 608.3,570.2 603.7,570.9 	"/>
	<polyline fill="#DB5B26" points="85.4,631.5 97.7,631.5 103.5,625.3 93.9,621 93.9,628.3 84.9,631.5 	"/>
	<polygon fill="#DB5B26" points="303,675.5 308.1,664.9 548.1,569.7 559.4,575 	"/>
	<polygon fill="#DB5B26" points="749.7,636.8 762.6,634.8 944.1,550.2 937.4,525.9 908,523.5 908,562.3 	"/>
	<polygon fill="#DB7E2A" points="981.9,83.5 1012.8,89.2 1010.4,113.7 981.9,111.3 	"/>
	<polygon opacity="0.4" fill="#FFFFFF" points="331.7,395.2 136.8,450 431.8,456.6 567.1,389.8 	"/>
	<polygon opacity="0.4" fill="#FFFFFF" points="385.2,380.1 604.9,370.2 671.5,324.9 583.3,324.4 	"/>
	<polygon fill="#DB5B26" points="505.6,392.5 406.7,457 401.1,457.1 502,392.5 	"/>
	<polygon fill="#DB5B26" points="449.8,392.7 346.2,454.3 339.6,454.3 442.4,392.9 	"/>
	<polygon fill="#DB5B26" points="393.5,394.1 281.3,452.9 275.4,452.9 388,394.1 	"/>
	<polygon fill="#DB5B26" points="530.9,407.4 274.8,411 270.2,412.5 526.1,410.1 	"/>
	<polygon fill="#DB5B26" points="476.2,434.7 201.7,431.6 196.8,433.1 472.8,436.6 	"/>
	<polygon fill="#DB5B26" points="592,371 645,323.6 639.3,323.6 587,371 	"/>
	<polygon fill="#DB5B26" points="611.2,324.4 560,373.2 554.3,373.5 606.1,324.4 	"/>
	<polygon fill="#DB5B26" points="583.3,324.4 506.7,375.2 512.9,375.2 588.1,324.4 	"/>
	<polygon fill="#DB5B26" points="614.8,364.3 431.5,367.1 437.5,364.8 618.2,361.5 	"/>
	<path fill="#DB5B26" d="M663.9,355.8"/>
	<polygon fill="#DB5B26" points="508.1,345.6 512.9,344.2 682.1,343.4 680.5,344.5 	"/>
	<polygon fill="#80CED0" points="762.6,381.7 618.7,342.6 657.7,247.3 809,279 	"/>
	<polygon fill="#FEC55F" points="657.7,247.3 698.6,234.2 845.9,265.5 809,279 	"/>
	<polygon fill="#51C4CA" points="845.9,265.5 845.9,344.5 762.6,381.7 809,279 	"/>
	<polygon fill="#51C4CA" points="663.9,253.7 632.5,337.3 627.4,339.1 660.8,253.1 	"/>
	<polygon fill="#17BCBB" points="632.5,337.3 762.2,373.2 760.8,376.4 627.4,339.1 	"/>
	<polygon fill="#FDBA44" points="663.9,253.7 802.7,282.2 762.2,373.2 632.5,337.3 	"/>
	<polygon fill="#F99E37" points="683.4,275.8 661.3,336 744.9,359.6 773.9,296.1 	"/>
	<polygon fill="#DAD1DA" points="685.5,282.2 685.5,323.5 694.8,326 694.8,284.4 	"/>
	<polygon fill="#A29FAA" points="696.7,284.8 696.7,324.9 694.8,326 694.8,284.4 	"/>
	<polygon fill="#DAD1DA" points="696.7,284.8 696.7,326.6 708.5,329.7 708.5,287.6 	"/>
	<polygon fill="#A29FAA" points="710.2,288 710.2,328.7 708.5,329.7 708.5,287.6 	"/>
	<polygon fill="#DAD1DA" points="710.2,288 710.2,330.2 725.6,334.3 725.6,291.6 	"/>
	<polygon fill="#A29FAA" points="727.2,291.9 727.2,333.5 725.6,334.3 725.6,291.6 	"/>
	<polygon fill="#DAD1DA" points="727.2,291.9 727.2,334.7 744.6,339.4 744.6,296 	"/>
	<polygon fill="#A29FAA" points="746.1,296.3 746.1,338.5 744.6,339.4 744.6,296 	"/>
	<polygon fill="#DAD1DA" points="746.1,296.3 746.1,339.8 749.1,340.6 767.4,301.3 	"/>
	<path fill="#EDB14E" d="M787.3,267.4l13.1-2.8c0,0-9.5-5.3-14.5-6.6c-5-1.3-84.2-18-84.2-18l-12,7.3L787.3,267.4z"/>
	<polygon fill="#FEC55F" points="713.9,242.6 704.9,250.4 707.6,251 716.1,243.1 	"/>
	<polygon fill="#FEC55F" points="727.2,245.3 718.3,253.1 721,253.6 729.4,245.7 	"/>
	<polygon fill="#FEC55F" points="744.7,248.9 735.8,256.7 738.5,257.2 747,249.3 	"/>
	<polygon fill="#FEC55F" points="763.9,253.1 755,260.9 757.6,261.4 766.1,253.5 	"/>
	<polygon fill="#FEC55F" points="785.8,257.2 776.9,265.1 779.6,265.6 788,257.7 	"/>
	<path fill="#949299" d="M695,244.3l94.7,19c0,0,0.3,0.5-2.4,1.3c-2.7-0.5-95.1-19.3-95.1-19.3L695,244.3z"/>
	<path fill="#DAD1DA" d="M795.6,235.3c-9-2.3-99.6-20-99.6-20s-26.5,7.1-6.3,32l97.6,20.1C787.3,267.4,814.3,259.1,795.6,235.3z
		 M787.3,264.6c0,0-81.1-16.2-95.1-19.3c-16.1-19.5,4.6-26.6,4.6-26.6s83.2,16.5,98.4,19.6C805.8,256.6,787.3,264.6,787.3,264.6z"/>
	<path fill="#A29FAA" d="M696.7,218.7c0,0-21.4,7.8-4.6,26.6c2.8-1,2.8-1,2.8-1s-16.5-15.7,4.4-25.1L696.7,218.7z"/>
	<polygon fill="#CCC6CC" points="696,215.3 700,214.1 797.5,233.7 795.6,235.3 	"/>
	<path fill="#BCB8BC" d="M797.5,233.7l-2,1.6c0,0,19.1,21.5-8.3,32.1c3.2-0.6,7.3-1.9,7.3-1.9S813.5,257.6,797.5,233.7z"/>
	<polygon fill="#DAD1DA" points="704.9,220.3 704.9,247.9 706.7,248.3 706.7,220.6 	"/>
	<polygon fill="#BCB8BC" points="706.7,248.3 708.5,247 708.5,221 706.7,220.6 	"/>
	<polygon fill="#DAD1DA" points="720,223.3 720,251 721.6,251.4 721.6,223.6 	"/>
	<polygon fill="#BCB8BC" points="721.6,251.4 723.3,249.9 723.3,224 721.6,223.6 	"/>
	<polygon fill="#DAD1DA" points="737.5,226.8 737.5,254.6 739.7,255 739.7,227.3 	"/>
	<polygon fill="#BCB8BC" points="739.7,227.3 739.7,255 741.4,253.6 741.4,227.6 	"/>
	<polygon fill="#DAD1DA" points="757.7,230.8 757.7,258.6 759.9,259.1 759.9,231.2 	"/>
	<polygon fill="#BCB8BC" points="761.2,231.5 761.2,257.5 759.9,259.1 759.9,231.2 	"/>
	<polygon fill="#DAD1DA" points="778,234.8 778,262.7 781.4,263.4 781.4,235.5 	"/>
	<polygon fill="#BCB8BC" points="782.5,235.7 782.5,261.8 781.4,263.4 781.4,235.5 	"/>
	<polygon fill="#F59123" points="958.3,394.9 958.3,419.1 781.4,374.6 781.4,352 	"/>
	<polygon fill="#EC8323" points="958.3,394.9 1029,364.1 1029,388.4 958.3,419.1 	"/>
	<polygon fill="#F05D24" points="1029,364.1 1029,133.2 986.7,151.7 986.7,229.2 967,259.7 999.8,327.2 958.3,394.9 	"/>
	<polygon fill="#F06723" points="999.8,327.2 958.3,394.9 781.4,352 822.2,286.9 	"/>
	<polygon fill="#F36E28" points="967,259.7 797.5,224.4 822.2,286.9 999.8,327.2 	"/>
	<polygon fill="#F48131" points="967,259.7 986.7,229.2 813.5,193.3 797.5,224.4 	"/>
	<polygon fill="#F48131" points="976.9,344.2 955.7,381.7 801.7,343.9 823.5,307.9 	"/>
	<polygon fill="#F36E28" points="986.7,151.7 986.7,229.2 813.5,193.3 813.5,118.5 	"/>
	<polygon fill="#F48131" points="1029,133.2 986.7,151.7 813.5,118.5 854.4,100.8 	"/>
	<polygon fill="#F05D24" points="823.5,302.9 823.5,307.9 801.5,344.2 795.4,346.8 	"/>
	<polygon fill="#E64D25" points="801.5,344.2 795.4,346.8 953.5,385.5 955.7,381.7 	"/>
	<polygon fill="#ED5A2D" points="823.5,307.9 976.9,344.2 979.7,339.1 823.5,302.9 	"/>
	<polygon fill="#80CED0" points="823.5,305.2 887.6,320.4 864.9,359.6 799.4,343.4 	"/>
	<polygon fill="#4CC4CE" points="887.6,320.4 887.6,327.9 869.8,360.8 864.9,359.6 	"/>
	<polygon fill="#80CED0" points="813.5,238.3 960.1,268.2 961.8,271.3 815.2,241.7 	"/>
	<polygon fill="#80CED0" points="815.2,241.7 831.4,281.4 834.8,282.2 819.3,242.5 	"/>
	<polygon fill="#4CC4CE" points="821.5,243 836.7,280.3 834.8,282.2 819.3,242.5 	"/>
	<polygon fill="#80CED0" points="838.1,246.5 854.3,286.2 857.7,286.9 842.2,247.3 	"/>
	<polygon fill="#4CC4CE" points="844.4,247.7 859.6,285 857.7,286.9 842.2,247.3 	"/>
	<polygon fill="#80CED0" points="955.7,270.3 971.8,310 975.3,310.8 959.8,271.1 	"/>
	<polygon fill="#4CC4CE" points="962,271.6 977.2,308.9 975.3,310.8 959.8,271.1 	"/>
	<polygon fill="#80CED0" points="927.6,264.7 943.7,304.4 947.2,305.2 931.6,265.5 	"/>
	<polygon fill="#4CC4CE" points="933.9,266 949,303.3 947.2,305.2 931.6,265.5 	"/>
	<polygon fill="#80CED0" points="897.2,258.4 913.3,298.1 916.8,298.9 901.2,259.2 	"/>
	<polygon fill="#4CC4CE" points="903.5,259.7 918.6,297 916.8,298.9 901.2,259.2 	"/>
	<polygon fill="#80CED0" points="866.9,252.2 883.1,291.9 886.6,292.7 871,253.1 	"/>
	<polygon fill="#4CC4CE" points="873.3,253.5 888.4,290.8 886.6,292.7 871,253.1 	"/>
	<polygon fill="#F36E28" points="890.6,118.9 961.8,132.8 970.5,100.8 900.1,87.3 	"/>
	<polygon fill="#F05D24" points="970.5,100.8 961.8,133.6 981.9,124.4 981.9,83.5 	"/>
	<polygon fill="#F48131" points="981.9,83.5 970.5,100.8 900.1,87.3 910.7,70.3 	"/>
	<path fill="#F48131" d="M910.7,70.3l71.2,13.2c0,0-7.4-12.5-29.3-16.6C931.8,63.2,919.7,66.5,910.7,70.3z"/>
	<linearGradient id="SVGID_1_" gradientUnits="userSpaceOnUse" x1="792.8704" y1="140.2749" x2="830.28" y2="140.2749">
		<stop  offset="0" style="stop-color:#F0F0F0"/>
		<stop  offset="0.1755" style="stop-color:#DAD1DA"/>
	</linearGradient>
	<path fill="url(#SVGID_1_)" d="M815.2,72.2v100.7c0,0-1.3,3.1,4.1,11c5.4,7.9,11,16,11,16s-6.2,14.5-20.8,9.3l-11-17.5
		c0,0-5.6-6.7-5.6-22.9s0-98.4,0-98.4S799.5,77.6,815.2,72.2z"/>
	<linearGradient id="SVGID_2_" gradientUnits="userSpaceOnUse" x1="808.9606" y1="204.9679" x2="833.0216" y2="204.9679">
		<stop  offset="0" style="stop-color:#F0F0F0"/>
		<stop  offset="0.1755" style="stop-color:#DAD1DA"/>
	</linearGradient>
	<path fill="url(#SVGID_2_)" d="M830.3,199.9c0,0-6.1,13.9-20.8,9.3c-0.8,1.5-1.2,5.1,4,5.7c5.3-0.1,21-5.3,19.4-14.9
		c-0.6-4.1-5.8-4.5-5.9-4.8C828.9,197.9,830.3,199.9,830.3,199.9z"/>
	<linearGradient id="SVGID_3_" gradientUnits="userSpaceOnUse" x1="810.8967" y1="209.1924" x2="835.2818" y2="209.1924">
		<stop  offset="0" style="stop-color:#C2C2C2"/>
		<stop  offset="0.1755" style="stop-color:#A291A9"/>
	</linearGradient>
	<path fill="url(#SVGID_3_)" d="M810.9,214.1c0,0,0.7,4.9,7.7,6.1c5.4,0.5,14-1.1,16.2-9.9c0.6-3.2,1.1-10.6-2.6-12.2
		c0.7,1.8,2.3,10.3-9.1,14.2C815.9,214.5,813.3,215.5,810.9,214.1z"/>
	<linearGradient id="SVGID_4_" gradientUnits="userSpaceOnUse" x1="897.4423" y1="161.6757" x2="934.8519" y2="161.6757">
		<stop  offset="0" style="stop-color:#F0F0F0"/>
		<stop  offset="0.1755" style="stop-color:#DAD1DA"/>
	</linearGradient>
	<path fill="url(#SVGID_4_)" d="M919.8,93.6v100.7c0,0-1.3,3.1,4.1,11c5.4,7.9,11,16,11,16s-6.2,14.5-20.8,9.3L903,213
		c0,0-5.6-6.7-5.6-22.9s0-98.4,0-98.4S904.1,99,919.8,93.6z"/>
	<linearGradient id="SVGID_5_" gradientUnits="userSpaceOnUse" x1="913.5325" y1="226.3687" x2="937.5934" y2="226.3687">
		<stop  offset="0" style="stop-color:#F0F0F0"/>
		<stop  offset="0.1755" style="stop-color:#DAD1DA"/>
	</linearGradient>
	<path fill="url(#SVGID_5_)" d="M934.9,221.3c0,0-6.1,13.9-20.8,9.3c-0.8,1.5-1.2,5.1,4,5.7c5.3-0.1,21-5.3,19.4-14.9
		c-0.6-4.1-5.8-4.5-5.9-4.8C933.4,219.3,934.9,221.3,934.9,221.3z"/>
	<linearGradient id="SVGID_6_" gradientUnits="userSpaceOnUse" x1="915.4686" y1="230.5932" x2="939.8537" y2="230.5932">
		<stop  offset="0" style="stop-color:#C2C2C2"/>
		<stop  offset="0.1755" style="stop-color:#A291A9"/>
	</linearGradient>
	<path fill="url(#SVGID_6_)" d="M915.5,235.5c0,0,0.7,4.9,7.7,6.1c5.4,0.5,14-1.1,16.2-9.9c0.6-3.2,1.1-10.6-2.6-12.2
		c0.7,1.8,2.3,10.3-9.1,14.2C920.5,235.9,917.9,236.9,915.5,235.5z"/>
	<path fill="#4CC4CE" d="M792.9,70.3c0,0,8.1,7.6,22.3,2c1.4-2.1-4-4.9-9.4-4.9C801.4,67.4,794.9,66.7,792.9,70.3z"/>
	<path fill="#4CC4CE" d="M897.4,91.9c0,0,8.1,7.6,22.3,2c1.4-2.1-4-4.9-9.4-4.9C906,89,899.4,88.3,897.4,91.9z"/>
	<polygon fill="#4CC4CE" points="1103.5,285.4 1075.9,280.1 1075.9,370.8 1103.5,376.4 	"/>
	<polygon fill="#36BFC4" points="1103.5,285.4 1129.7,278.6 1129.7,366.5 1103.5,376.4 	"/>
	<polygon fill="#75C1C1" points="1075.9,280.1 1054.7,265.5 1054.7,354.3 1075.9,370.8 	"/>
	<polygon fill="#17BCBB" points="1129.7,366.5 1144.1,352 1144.1,265.5 1129.7,278.6 	"/>
	<polygon fill="#80CED0" points="1054.7,265.5 1075.9,280.1 1103.5,285.4 1129.7,278.6 1144.1,265.5 1129.7,254.8 1103.5,249.4 
		1078.3,249.4 	"/>
	<linearGradient id="SVGID_7_" gradientUnits="userSpaceOnUse" x1="1072.2262" y1="181.6145" x2="1156.7693" y2="252.0558">
		<stop  offset="0.2939" style="stop-color:#F0F0F0"/>
		<stop  offset="0.5057" style="stop-color:#DAD1DA"/>
	</linearGradient>
	<path fill="url(#SVGID_7_)" d="M1092.2,269.2c0,0,9.8,8.2,18,1.1c0-6.8,0-48.2,0-48.2s-1.3-4.5,9-2.7s83,16.7,83,16.7V219l-96.4-19
		c0,0-12.1-3.9-13.6,5.4C1092.2,214.7,1092.2,269.2,1092.2,269.2z"/>
	<polygon fill="#F36E28" points="1075.9,370.8 1088.1,394.9 1099.4,397.4 1103.5,376.4 	"/>
	<polygon fill="#F06723" points="1103.5,376.4 1099.4,397.4 1108.9,393.5 1129.7,366.5 	"/>
	<polygon fill="#F05D24" points="1108.9,393.5 1144.1,352 1129.7,366.5 	"/>
	<polygon fill="#F48131" points="1075.9,370.8 1054.7,354.3 1088.1,394.9 	"/>
	<polygon fill="#F59123" points="1054.7,354.3 1054.7,410.5 1059.8,411.8 1059.8,358.9 	"/>
	<polygon fill="#EC8323" points="1059.8,411.8 1068,408.3 1068,370.8 1060,360.8 	"/>
	<polygon fill="#F59123" points="1129.7,366.5 1129.7,427.3 1122.8,425.8 1122.8,369.1 	"/>
	<polyline fill="#F59123" points="1138.7,419.1 1133.6,417.8 1133.6,362.6 1138.7,357.4 	"/>
	<polygon fill="#EC8323" points="1129.7,427.3 1135.4,424.7 1135.4,360.8 1129.7,366.5 	"/>
	<polygon fill="#EC8323" points="1144.1,352 1144.1,416 1138.7,419.1 1138.7,357.4 	"/>
	<polygon fill="#F99E37" points="63.8,595.5 63.8,607.6 103.5,625.3 120.3,620.9 	"/>
	<polygon fill="#F59123" points="63.8,607.6 63.8,621.8 85.4,631.5 85.4,617.2 	"/>
	<polygon fill="#EC8323" points="85.4,631.5 93.9,628.3 93.9,621 85.4,617.2 	"/>
	<polygon fill="#F99E37" points="214.7,663.4 218.8,677.2 260.3,695.2 260.3,683.9 	"/>
	<polygon fill="#F59123" points="308.1,664.9 301.1,679.3 260.3,695.2 260.3,683.9 	"/>
	<polygon fill="#F59123" points="260.3,695.2 260.3,713.7 241.2,704.5 241.2,686.9 	"/>
	<polygon fill="#EC8323" points="276.8,688.8 276.8,706.5 260.3,713.7 260.3,695.2 	"/>
	<polygon fill="#F59123" points="603.7,547.6 603.7,557.9 561.5,575.9 548.1,569.7 	"/>
	<polygon fill="#EC8323" points="603.7,557.9 603.7,571.8 586.5,579.8 586.5,565.3 	"/>
	<polygon fill="#DC7127" points="586.5,565.3 586.5,579.8 580,575.9 580,568 	"/>
	<polygon fill="#80CED0" points="436.3,452 427.3,448.1 63.8,555.4 71.5,559.7 	"/>
	<polygon fill="#51C4CA" points="71.5,592.9 436.3,479.3 436.3,452 71.5,559.7 	"/>
	<polygon fill="#DAD1DA" points="71.5,583.3 253,662.3 603.7,530.7 436.3,471.5 	"/>
	<polygon fill="#C4BBC3" points="310.6,592.9 421.6,551.9 479.5,554.4 370.2,597.2 	"/>
	<polygon fill="#A29FAA" points="89.6,577.7 271.9,655.2 274.6,654.2 93,576.7 	"/>
	<polygon fill="#A29FAA" points="292.7,647.4 296.3,646.1 113.1,570.5 110.4,571.3 	"/>
	<polygon fill="#A29FAA" points="320.7,636.9 325.2,635.2 148.3,559.7 144.3,561 	"/>
	<polygon fill="#A29FAA" points="353.3,624.7 356.5,623.5 187.8,547.6 183.9,548.8 	"/>
	<polygon fill="#A29FAA" points="388.2,611.6 391.4,610.4 224.2,536.5 220.9,537.5 	"/>
	<polygon fill="#A29FAA" points="418.4,600.3 250.7,528.4 253.9,527.4 421.6,599 	"/>
	<polygon fill="#A29FAA" points="284.2,518.1 453.2,587.2 457.5,585.6 288.8,516.7 	"/>
	<polygon fill="#A29FAA" points="475.6,578.8 308.1,510.8 311.1,509.9 479,577.5 	"/>
	<polygon fill="#A29FAA" points="341.2,500.7 507.1,566.9 509,566.2 343.3,500 	"/>
	<polygon fill="#A29FAA" points="527.7,559.2 529.3,558.6 367.5,492.6 366.4,493 	"/>
	<polygon fill="#A29FAA" points="399.6,482.8 396.9,483.6 555.1,548.9 557.6,548 	"/>
	<polygon fill="#E5DFE5" points="71.5,583.3 253,662.3 253,673.4 71.5,592.9 	"/>
	<g>
		<polygon fill="#4CC4CE" points="253,642.8 253,673.4 71.5,592.9 71.5,559.7 63.8,555.4 63.8,595.5 260.3,683.9 260.3,647.4 		"/>
		<g>
			<polygon fill="#51C4CA" points="260.3,647.4 260.3,683.9 603.7,547.6 603.7,514.7 			"/>
			<polygon fill="#80CED0" points="260.3,647.4 253,642.8 593.9,510.1 603.7,514.7 			"/>
		</g>
	</g>
	<g>
		<polygon fill="#F99E37" points="827.2,600.4 908,562.5 908,465.6 827.2,502.4 		"/>
		<polygon fill="#FDBA44" points="827.2,502.4 710,462.2 710,549.4 827.2,600.4 		"/>
		<polygon fill="#F06723" points="904.4,467.2 827.2,597.3 827.2,600.4 837,595.8 908,478.5 908,465.6 		"/>
		<polygon fill="#ED5725" points="908,478.5 908,482.1 840.9,593.9 837,595.8 		"/>
		<polygon fill="#FEC55F" points="908,465.6 789.7,431.6 710,462.2 827.2,502.4 		"/>
		<polygon fill="#F99E37" points="876.1,456.5 806.4,487.1 778.4,476.1 849.2,448.7 		"/>
		<polygon fill="#EC8323" points="806.4,487.1 806.4,591.3 778.4,579.2 778.4,476.1 		"/>
		<polygon fill="#F99E37" points="809.2,437.2 738,466.7 710,462.2 789.7,431.6 		"/>
		<polygon fill="#EC8323" points="738,466.7 738,561.6 710,549.4 710,462.2 		"/>
		<polygon fill="#F06723" points="830.1,501.1 908,559.6 908,562.5 901.6,565.4 827.2,510.1 827.2,502.4 		"/>
		<polygon fill="#ED5725" points="827.2,510.1 827.2,512.7 899.3,566.5 901.6,565.4 		"/>
		<polygon fill="#4CC4CE" points="827.2,502.4 827.2,495.2 710,454.8 710,462.2 		"/>
		<polygon fill="#51C4CA" points="827.2,495.2 908,458.9 908,465.6 827.2,502.4 		"/>
		<polygon fill="#80CED0" points="710,454.8 715.7,452.8 827.2,490.2 827.2,495.2 		"/>
		<polygon fill="#80CED0" points="908,458.9 902.3,457 827.2,490.2 827.2,495.2 		"/>
	</g>
	<g>
		<polygon fill="#F99E37" points="749.7,636.8 830.5,598.9 830.5,502.1 749.7,538.8 		"/>
		<polygon fill="#FDBA44" points="749.7,538.8 632.4,493.1 632.4,585.9 749.7,636.8 		"/>
		<polygon fill="#F06723" points="826.9,503.7 749.7,633.7 749.7,636.8 759.5,632.2 830.5,514.9 830.5,502.1 		"/>
		<polygon fill="#ED5725" points="830.5,514.9 830.5,518.5 763.4,630.4 759.5,632.2 		"/>
		<polygon fill="#FEC55F" points="830.5,502.1 712.1,461.2 632.4,493.1 749.7,538.8 		"/>
		<polygon fill="#F99E37" points="800,491.5 728.9,523.5 700.9,512.5 773.4,482.3 		"/>
		<polygon fill="#EC8323" points="728.9,523.5 728.9,627.8 700.9,615.6 700.9,512.5 		"/>
		<polygon fill="#F99E37" points="738.7,470.3 660.5,503.2 632.4,493.1 712.1,461.2 		"/>
		<polygon fill="#EC8323" points="660.5,503.2 660.5,598 632.4,585.9 632.4,493.1 		"/>
		<polygon fill="#F06723" points="752.6,537.5 830.5,596 830.5,598.9 824.1,601.9 749.7,546.5 749.7,538.8 		"/>
		<polygon fill="#ED5725" points="749.7,546.5 749.7,549.1 821.8,603 824.1,601.9 		"/>
		<polygon fill="#4CC4CE" points="749.7,538.8 749.7,531.6 632.4,485.7 632.4,493.1 		"/>
		<polygon fill="#51C4CA" points="749.7,531.6 830.5,495.4 830.5,502.1 749.7,538.8 		"/>
		<polygon fill="#80CED0" points="632.4,485.7 638.2,483.7 749.7,526.6 749.7,531.6 		"/>
		<polygon fill="#80CED0" points="830.5,495.4 824.8,493.5 749.7,526.6 749.7,531.6 		"/>
	</g>
</g>
</svg>
