<!-- Generator: Adobe Illustrator 18.0.0, SVG Export Plug-In  -->
<svg version="1.1"
	 xmlns="http://www.w3.org/2000/svg" xmlns:xlink="http://www.w3.org/1999/xlink" xmlns:a="http://ns.adobe.com/AdobeSVGViewerExtensions/3.0/"
	 x="0px" y="0px" width="94.5px" height="194.9px" viewBox="0 0 94.5 194.9" enable-background="new 0 0 94.5 194.9"
	 xml:space="preserve">
<defs>
</defs>
<g>
	<g id="item_1_">
		
			<rect x="1.2" y="15.5" fill="none" stroke="#E4BE22" stroke-width="2.3451" stroke-miterlimit="10" stroke-dasharray="8.2079,3.5177" width="75.2" height="123.5"/>
		
			<rect x="1.2" y="140.7" fill="none" stroke="#E4BE22" stroke-width="2.3451" stroke-miterlimit="10" stroke-dasharray="8.2079,3.5177" width="75.2" height="53"/>
		<path fill="none" stroke="#E4BE22" stroke-width="2.3451" stroke-miterlimit="10" stroke-dasharray="8.2079,3.5177" d="
			M72.1,132.4c0,1.5-1.5,2.7-3.3,2.7l0,0c-1.8,0-3.3-1.2-3.3-2.7V65.1c0-1.5,1.5-2.7,3.3-2.7l0,0c1.8,0,3.3,1.2,3.3,2.7V132.4z"/>
		<path fill="none" stroke="#E4BE22" stroke-width="2.3451" stroke-miterlimit="10" stroke-dasharray="8.2079,3.5177" d="
			M72.1,188.7c0,0.9-1.5,1.6-3.3,1.6l0,0c-1.8,0-3.3-0.7-3.3-1.6v-40.2c0-0.9,1.5-1.6,3.3-1.6l0,0c1.8,0,3.3,0.7,3.3,1.6V188.7z"/>
		
			<line fill="none" stroke="#E4BE22" stroke-width="2.3451" stroke-miterlimit="10" stroke-dasharray="8.2079,3.5177" x1="29.2" y1="1.2" x2="93.4" y2="1.2"/>
		<path fill="none" stroke="#E4BE22" stroke-width="2.3451" stroke-miterlimit="10" stroke-dasharray="8.2079,3.5177" d="M93.4,1.2
			v167.5"/>
		
			<line fill="none" stroke="#E4BE22" stroke-width="2.3451" stroke-miterlimit="10" stroke-dasharray="8.2079,3.5177" x1="76.4" y1="15.5" x2="93.4" y2="1.2"/>
		
			<line fill="none" stroke="#E4BE22" stroke-width="2.3451" stroke-miterlimit="10" stroke-dasharray="8.2079,3.5177" x1="1.2" y1="15.5" x2="29.2" y2="1.2"/>
	</g>
	
		<line fill="none" stroke="#E4BE22" stroke-width="2.3451" stroke-miterlimit="10" stroke-dasharray="8.2079,3.5177" x1="76.4" y1="193.8" x2="93.4" y2="168.6"/>
</g>
</svg>
