<!-- Generator: Adobe Illustrator 18.0.0, SVG Export Plug-In  -->
<svg version="1.1"
	 xmlns="http://www.w3.org/2000/svg" xmlns:xlink="http://www.w3.org/1999/xlink" xmlns:a="http://ns.adobe.com/AdobeSVGViewerExtensions/3.0/"
	 x="0px" y="0px" width="242.5px" height="354.3px" viewBox="0 0 242.5 354.3" enable-background="new 0 0 242.5 354.3"
	 xml:space="preserve">
<defs>
</defs>
<g id="housewife_2_">
	<defs>
		<rect id="SVGID_1_" x="30" y="0" width="55.9" height="91.7"/>
	</defs>
	<clipPath id="SVGID_2_">
		<use xlink:href="#SVGID_1_"  overflow="visible"/>
	</clipPath>
	<g clip-path="url(#SVGID_2_)">
		<path fill="#E8C19F" d="M85.8,132.2l-3.2,0.1v-105c0,0-0.3-26.7-24.9-26.7c-26,0-24.1,26.7-24.1,26.7l0.2,81.8
			c15.3,7,13.4,26.9,13.4,44.7v41.5c80.1,18.6,40.6,106.6,46.7,88c17.5-53.1-16.2-82.9-46.7-88v-59.7c0,0,1.6-28.6-24.1-28.6
			C2.8,106.9,0,125.3,0,133.5c0,13.1,3,81.2,8.3,112.4c13.8,82.1,61,108.3,123,108.3c89.7,0,110.6-90.2,110.6-177.7
			c0-27.9,0.7-52.7,0.7-86.2"/>
	</g>
	<path clip-path="url(#SVGID_2_)" fill="#754D29" d="M82.6,28.8C64.9,29.9,52.5,18,52.5,18C43.5,29.5,38,28.5,33.7,28
		c0-18.5,7.2-28,24.5-28C70.4,0,76.5,7.9,79,13.2C81.5,18.3,82.7,22.4,82.6,28.8z"/>
	<g clip-path="url(#SVGID_2_)">
		<defs>
			
				<rect id="SVGID_3_" x="82.1" y="20.7" transform="matrix(0.9984 -5.674081e-02 5.674081e-02 0.9984 -1.6813 4.9235)" width="7.5" height="22.7"/>
		</defs>
		<clipPath id="SVGID_4_">
			<use xlink:href="#SVGID_3_"  overflow="visible"/>
		</clipPath>
		<circle clip-path="url(#SVGID_4_)" fill="#754D29" cx="80.5" cy="31.7" r="5.6"/>
	</g>
	<g clip-path="url(#SVGID_2_)">
		<defs>
			
				<rect id="SVGID_5_" x="26.2" y="20.7" transform="matrix(-0.9984 -5.674070e-02 5.674070e-02 -0.9984 58.0746 65.7888)" width="7.5" height="22.7"/>
		</defs>
		<clipPath id="SVGID_6_">
			<use xlink:href="#SVGID_5_"  overflow="visible"/>
		</clipPath>
		<circle clip-path="url(#SVGID_6_)" fill="#754D29" cx="35.4" cy="31.7" r="5.6"/>
	</g>
	<path clip-path="url(#SVGID_2_)" fill="#FFFFFF" d="M34.9,17.3c0,0,22.1-7.4,45.8,0c0,0-16.2-12-22.6-17.3L34.9,17.3z"/>
	<path clip-path="url(#SVGID_2_)" fill="#FFFFFF" d="M39.9,63.4c-0.6,1.8-1,3.8-1,5.9c0,10.3,8.6,18.7,19.3,18.7s19.3-8.4,19.3-18.7
		c0-2-0.3-4-1-5.8C60.9,67.5,46.8,65.1,39.9,63.4z"/>
	<path clip-path="url(#SVGID_2_)" fill="none" stroke="#FFFFFF" stroke-miterlimit="10" d="M34.6,61.6c0,0,22.8,8.9,47.3-0.7"/>
	<path display="none" clip-path="url(#SVGID_2_)" d="M67.8,47.7c-0.9,0.9-2,1.7-3.3,2.3c0.1,0.6,0.3,1.2,0.7,1.7
		c1,1.4,2.7,1.8,3.8,1c1.1-0.8,1.1-2.6,0.1-4C68.8,48.3,68.3,47.9,67.8,47.7z"/>
	<path clip-path="url(#SVGID_2_)" fill="none" stroke="#231F20" stroke-miterlimit="10" d="M42.9,42.3c0,0,3.6,9.8,14.8,9.8
		s14.7-9.8,14.7-9.8"/>
	<path clip-path="url(#SVGID_2_)" fill="none" stroke="#231F20" stroke-miterlimit="10" d="M42.9,42.3c0,0,3.6,9.8,14.8,9.8
		s14.7-9.8,14.7-9.8"/>
	<circle clip-path="url(#SVGID_2_)" fill="#231F20" cx="69" cy="29.5" r="2.2"/>
	<circle clip-path="url(#SVGID_2_)" fill="#FFFFFF" cx="68.3" cy="28.8" r="0.8"/>
	<circle clip-path="url(#SVGID_2_)" fill="#231F20" cx="48.2" cy="29.5" r="2.2"/>
	<circle clip-path="url(#SVGID_2_)" fill="#FFFFFF" cx="47.6" cy="28.8" r="0.8"/>
</g>
</svg>
