<!-- Generator: Adobe Illustrator 18.0.0, SVG Export Plug-In  -->
<svg version="1.1"
	 xmlns="http://www.w3.org/2000/svg" xmlns:xlink="http://www.w3.org/1999/xlink" xmlns:a="http://ns.adobe.com/AdobeSVGViewerExtensions/3.0/"
	 x="0px" y="0px" width="1207.4px" height="731.9px" viewBox="0 0 1207.4 731.9" enable-background="new 0 0 1207.4 731.9"
	 xml:space="preserve">
<defs>
</defs>
<g>
	<polygon fill="#B7B7B7" points="1019.1,484.2 1207.4,374.3 1207.4,291.8 1197.2,300.4 1197.2,360.3 1019.1,467.6 	"/>
	<polygon fill="#D4B790" points="1197.2,300.4 738.8,211.1 697.6,226.3 697.6,215.5 738.8,200.8 1207.4,291.8 	"/>
	<polygon fill="#CDAD88" points="738.8,211.1 738.8,265.3 697.6,282.6 697.6,226.3 	"/>
	<polygon fill="#C3A67D" points="738.8,211.1 738.8,265.3 1197.2,360.3 1197.2,300.4 	"/>
	<polygon fill="#CBCACB" points="1197.2,360.3 738.8,265.3 504.8,364.2 999,479.6 	"/>
	<polygon fill="#877047" points="1197.2,360.3 1197.2,380.3 1207.4,374.3 1207.4,291.8 1197.2,300.4 	"/>
	<path fill="#D1D1D2" d="M959,361.2V439l128.7-74.8v-63.8c0,0,0-8.3-1.4-8.7C1084,293,959,361.2,959,361.2z"/>
	<path fill="#D1D1D2" d="M944,398.1c0,0-5.1,1.2-9.1,0.8l-31.2-6.9v34.7L944,436V398.1z"/>
	<path fill="#E6E9E7" d="M903.7,392.1l13.3-8.8l27,6.3v8.6c0,0-3.4,1.9-9.1,0.8L903.7,392.1z"/>
	<path fill="#FFF200" d="M1068.8,292.7c0,0-8.6-9.6-16.2-7c-7,2.6-28.7,9.4-33.6,20.3c3,1.7,9.4,3.5,11.5,7.4
		C1035.1,310.9,1068.8,292.7,1068.8,292.7z"/>
	<path fill="#F6E400" d="M1019.1,306c0,0-3.5,9.1,0,13.6c4-2.2,11.5-6.2,11.5-6.2S1029.1,309.1,1019.1,306z"/>
	<path fill="#FFF200" d="M1027.1,315.2c0,0-6.4-8.3-15.6-6.1c-7.8,3-20.6,6.6-27.3,15.8c1.9,1.8,7.5,4.9,9.5,8.5
		C996.8,331.7,1027.1,315.2,1027.1,315.2z"/>
	<path fill="#F6E400" d="M984.1,324.9c0,0-4.3,11.1,0,13.6c4.3-2.3,9.5-5.1,9.5-5.1S987.9,326.3,984.1,324.9z"/>
	<path fill="#FFF200" d="M991.1,334.7c0,0-6.4-10.5-17.8-5.3c-4.1,2.2-19.2,6.2-27.3,18.7c3.2,1.6,9.4,6,11.6,4.8
		C960.1,351.5,991.1,334.7,991.1,334.7z"/>
	<path fill="#F6E400" d="M946,348.1c0,0-9.9,33.6-9.9,39.9c3.2,0.7,7.9,1.6,7.9,1.6l11.4,2.5l2.3-39.2
		C957.6,352.9,947.9,349.4,946,348.1z"/>
	<polygon fill="#FDBD15" points="936,388 922.5,384.6 938.6,375 	"/>
	<path fill="#D1D1D2" d="M959,361.2c0,0-9.1-8.2-15-0.9c0,8.1-0.8,75.5-0.8,75.5L959,439V361.2z"/>
	<path fill="#E6E9E7" d="M1086.3,291.8l-9.8-3.2L944,360.3c0,0,6.9-5.1,15,0.9L1086.3,291.8z"/>
	<path fill="none" stroke="#000000" stroke-width="1.624" stroke-miterlimit="10" d="M843.1,368.4"/>
	<g>
		<g>
			<path fill="#E6E9E7" d="M883.2,375.1c-0.6,2.4-2.9,3.8-5.3,3.3l-34.2-8.1c-2.4-0.6-3.8-2.9-3.3-5.3l0,0c0.6-2.4,2.9-3.8,5.3-3.3
				l34.2,8.1C882.3,370.4,883.7,372.8,883.2,375.1L883.2,375.1z"/>
			<path fill="#D8D8D8" d="M902.5,368.9L877,379.5c-1.8,0.7-3.9-0.5-4.8-2.8l0,0c-0.9-2.3-0.2-4.7,1.5-5.4L899,361
				C900.4,361.4,903.7,367.4,902.5,368.9z"/>
			<polygon fill="#D4B790" points="841.9,369.4 838.7,371.9 881.6,382 880.3,378.1 			"/>
			<polygon fill="#C3A67D" points="903,368.7 906.4,370.8 881.6,382 880.3,378.1 			"/>
			<path fill="#C3A67D" d="M838.7,371.9v18.6l5.7,1.7v-7.2c0,0,20.7,0.1,30.1,7.2c0,3.4,0,7.2,0,7.2l7.5,2l-0.4-19.3L838.7,371.9z"
				/>
			<path fill="#877047" d="M882,401.3l5.1-2.6v-5.1c0,0,3.5-10,13.9-7.8c0,2.3,0,7.8,0,7.8l5.3-3.3v-19.4L881.6,382L882,401.3z"/>
			<path fill="#E6E9E7" d="M844.4,361.5c0,0,25.3-8.7,33.7-9c6.4,0.3,16.9,3.1,20.9,8.4c-2.4,1-19.4,7.9-19.4,7.9L844.4,361.5z"/>
		</g>
		<path fill="#725D3C" d="M901,393.6l-3.6-1.5v-6.6c0,0,2.4,0,3.6,0.3V393.6z"/>
	</g>
	<polygon fill="#E6E9E7" points="697.6,62.4 697.6,282.6 504.8,364.2 504.8,29.2 	"/>
	<polygon fill="#FEE810" points="469.3,355.9 469.3,20.6 18.7,183.8 18.7,535.4 	"/>
	<polygon fill="#FEEC68" points="469.3,0 0,169.2 18.7,183.8 469.3,20.6 	"/>
	<polygon fill="#FEE100" points="0,169.2 18.7,183.8 18.7,535.4 596.8,714.8 596.8,731.9 0,543.5 	"/>
	<polygon fill="#FEE652" points="469.3,0 1019.1,95.3 999,117.6 469.3,20.6 	"/>
	<polygon fill="#877047" points="469.3,355.9 18.7,535.4 596.8,714.8 999,479.6 	"/>
	<polygon fill="#78613F" points="999,479.6 596.8,714.8 18.7,535.4 18.7,549.4 596.8,731.9 1019.1,484.2 	"/>
	<polygon fill="#7D6442" points="18.7,535.4 18.7,549.4 596.8,731.9 596.8,714.8 	"/>
	<polygon fill="#EDCB19" points="999,117.6 999,479.6 999,496 1019.1,484.2 1019.1,95.3 	"/>
	<path fill="#FEE000" d="M469.3,20.6v335.4L999,479.6v-362L469.3,20.6z M955.3,453.6l-430.9-97.7v-264l430.9,74.5V453.6z"/>
	<polygon fill="#8E744C" points="463.5,356.8 403,381 491.8,403.9 552.4,378.1 	"/>
	<polygon fill="#8E744C" points="396.3,383.9 304.9,420.7 397.7,445.4 487.2,406.7 	"/>
	<polygon fill="#8E744C" points="298.2,423.5 209.4,458.9 304,485.5 391.7,447.9 	"/>
	<polygon fill="#8E744C" points="202.4,461.2 121.4,493.7 219.2,522.7 298.2,488.5 	"/>
	<polygon fill="#8E744C" points="114.7,496.2 18.7,534.3 121.4,565.7 214.8,525.1 	"/>
	<polygon fill="#8E744C" points="558.5,379.7 499,405.8 608.5,433.7 670.3,405.4 	"/>
	<polygon fill="#8E744C" points="492.8,408.5 404.8,446.6 516,475.7 602,436.6 	"/>
	<polygon fill="#8E744C" points="398.7,449.5 311.7,487.9 421.8,518.9 510.2,478.6 	"/>
	<polygon fill="#8E744C" points="304.8,490.5 227,524.9 337.8,557.5 415.5,521.9 	"/>
	<polygon fill="#8E744C" points="220.5,527 128.3,567.5 239.6,602.4 332.2,559.8 	"/>
	<polygon fill="#8E744C" points="676.8,406.7 614.6,435.1 761.7,472.4 824,441.1 	"/>
	<polygon fill="#8E744C" points="609,438.3 522.4,477.9 674.1,517.7 756.1,475.7 	"/>
	<polygon fill="#8E744C" points="516.6,480.2 428.6,520.7 582.8,564.1 669.4,520.3 	"/>
	<polygon fill="#8E744C" points="422.6,524 345,559.8 501.7,606.1 577.6,567.5 	"/>
	<polygon fill="#8E744C" points="338.9,562.8 246.8,604.7 407,654.4 496.2,609 	"/>
	<polygon fill="#8E744C" points="840.9,441.6 774.1,475.8 933.3,516.4 999,478.6 	"/>
	<polygon fill="#8E744C" points="768.3,477.9 686,520 851.4,563.4 928.4,518.2 	"/>
	<polygon fill="#8E744C" points="680.9,522.7 594.8,566.8 764.1,614.9 846.2,566.5 	"/>
	<polygon fill="#8E744C" points="589.1,570.6 512.6,609.9 684.7,660.6 757.5,618.3 	"/>
	<polygon fill="#8E744C" points="510.1,610.5 419.2,657.2 596.8,712.3 683.7,661.9 	"/>
	<polygon fill="#846B49" points="18.7,534.3 121.4,565.7 121.4,567.3 18.7,535.4 	"/>
	<polygon fill="#846B49" points="128.3,567.5 239.6,602.4 239.6,603.9 128.3,569.4 	"/>
	<polygon fill="#846B49" points="246.8,604.7 407.2,654.4 407.2,656 246.8,606.2 	"/>
	<line fill="#D8BA98" x1="413.4" y1="656.7" x2="413.4" y2="657.9"/>
	<polygon fill="#846B49" points="419.2,657.2 596.8,712.3 596.8,714.8 419.2,659.7 	"/>
	<polygon fill="#7C6343" points="596.8,712.3 683.7,661.9 683.7,664 596.8,714.8 	"/>
	<polygon fill="#7C6343" points="684.7,660.6 757.5,618.3 757.5,620.9 684.7,663.5 	"/>
	<polygon fill="#7C6343" points="764.1,614.9 846.2,566.5 846.2,568.8 764.1,617.5 	"/>
	<polygon fill="#7C6343" points="851.4,563.4 928.4,518.2 928.4,520.9 851.4,566 	"/>
	<polygon fill="#7C6343" points="933.3,516.4 999,478.6 999,479.6 933.3,518.2 	"/>
	<polygon fill="#F3F4F5" points="469.3,346.8 469.3,358.2 26.5,536.7 26.5,524 	"/>
	<polygon fill="#E6E9E7" points="26.5,524 18.7,522.1 18.7,535.4 26.5,537.8 	"/>
	<polygon fill="#F6F8FA" points="18.7,522.1 469.3,343.5 469.3,346.8 26.5,524 	"/>
	<g>
		<polygon fill="#BA9D7C" points="363.6,479.3 382.3,507.8 330.6,494.5 		"/>
		<polygon fill="#AD916F" points="328.8,495.5 324.3,500.3 381.9,515.1 381.9,509.1 		"/>
		<polygon fill="#BFA380" points="323.7,500.7 322.3,501.4 381.9,516.8 381.9,515.8 		"/>
		<polygon opacity="0.3" fill="#FFFBF5" points="580.9,112.9 566.7,110.3 538.9,139.1 538.9,154.7 		"/>
		<polygon opacity="0.4" fill="#DCDCDD" points="844.4,392.1 839.3,395.7 835.6,393.1 838.7,390.4 		"/>
		<polygon opacity="0.4" fill="#C2C4C6" points="906.4,390.2 896.3,407.3 890.6,403.5 897.5,392.1 		"/>
		<polygon fill="#C2C4C6" points="887.1,398.7 881.6,407.3 881.6,400.4 		"/>
		<linearGradient id="SVGID_1_" gradientUnits="userSpaceOnUse" x1="662.0822" y1="476.5656" x2="1099.1484" y2="239.1046">
			<stop  offset="0" style="stop-color:#ABADB0"/>
			<stop  offset="0.5834" style="stop-color:#9FA1A4"/>
			<stop  offset="1" style="stop-color:#8A8C8E"/>
		</linearGradient>
		<polygon opacity="0.8" fill="url(#SVGID_1_)" points="1197.2,360.3 1122.2,355.9 699.2,282 738.8,265.3 		"/>
		<linearGradient id="SVGID_2_" gradientUnits="userSpaceOnUse" x1="1057.9027" y1="375.0321" x2="1027.3727" y2="436.4799">
			<stop  offset="0" style="stop-color:#ABADB0"/>
			<stop  offset="0.5834" style="stop-color:#9FA1A4"/>
			<stop  offset="1" style="stop-color:#8A8C8E"/>
		</linearGradient>
		<polygon opacity="0.8" fill="url(#SVGID_2_)" points="1087.7,364.2 1019.1,433.7 1019.1,404.1 		"/>
		<polygon fill="#806542" points="116.7,536.8 123.6,539.7 103.2,560.2 85.4,554.7 		"/>
		<polygon fill="#20201D" points="205.4,265.3 205.4,360.3 321.8,319.9 321.8,224.1 		"/>
		<polygon fill="#D1D1D2" points="205.4,265.3 199.5,262 199.5,357 205.4,360.3 		"/>
		<path fill="#E6E9E7" d="M205.4,265.3v95l116.4-40.3v-95.8L205.4,265.3z M318.3,318.3L209,356.1v-89.3l109.3-38.7V318.3z"/>
		<polygon fill="#E6E9E7" points="199.5,262 205.4,265.3 321.8,224.1 314.6,221 		"/>
		<polygon fill="#282825" points="578.8,202.1 578.8,270.7 673.2,233.4 673.2,166.4 		"/>
		<path fill="#EDEDED" d="M575.2,200.8v73.9l101.6-40.2v-72.1L575.2,200.8z M673.2,233.4l-94.3,37.3v-68.6l94.3-35.7V233.4z"/>
		<polygon fill="#DCDBDB" points="575.2,274.7 570.8,272.6 570.8,197.6 575.2,200.8 		"/>
		<polygon fill="#EBEDEC" points="570.8,197.6 575.2,200.8 676.8,162.4 671.7,159.2 		"/>
		<polygon opacity="0.3" fill="#FFFBF5" points="522.3,368.3 341.9,446.6 379.2,502.8 649,397.6 		"/>
		<polygon opacity="0.3" fill="#FFFBF5" points="962.3,470 853.7,444.6 617.1,586.6 670.7,612.4 		"/>
		<polygon fill="#7C6442" points="569,627.9 415.5,656 223.3,597.3 321.8,571.9 		"/>
		<polygon fill="#775F3E" points="633.8,615.1 563,631.7 368.3,556.4 404.8,539.2 		"/>
		<polygon fill="#775F3E" points="711.9,623.1 703.8,624.9 645,609.3 649.5,606.9 		"/>
		<polygon fill="#E59C24" points="894.8,511.3 711.9,615.1 711.9,623.1 894.8,520 		"/>
		<polygon fill="#F3AF1C" points="711.9,615.1 298.4,509.7 298.4,515.8 711.9,623.1 		"/>
		<polygon fill="#FDBD15" points="894.8,511.3 711.9,615.1 298.4,509.7 505.2,415.7 		"/>
		<polygon fill="#FFF200" points="873,505.9 691.8,610 691.8,617.7 669.5,612.1 669.5,604.3 852.1,500.8 		"/>
		<path fill="#D4B790" d="M524.4,91.9v264l103.8,24l0-270L524.4,91.9z M623.8,372.6l-90.8-20.3V104.2l90.8,16.4L623.8,372.6z"/>
		<polygon fill="#C3A67D" points="538.9,105.3 538.9,349.8 532.9,352.3 532.9,104.2 		"/>
		<polygon fill="#877047" points="538.9,349.8 623.8,368.7 623.8,372.6 532.9,352.3 		"/>
		<polygon fill="#C3A67D" points="638.6,376.2 628.2,379.9 853.7,430.7 853.7,423.1 		"/>
		<polygon fill="#D4B790" points="628.2,109.9 628.2,117.6 867.6,160.6 867.6,152.1 		"/>
		<polygon fill="#D4B790" points="532.9,104.2 532.9,352.3 535.9,351 535.9,104.7 		"/>
		<polygon opacity="0.4" fill="#EDEEEF" points="535.9,351 623.8,370.5 623.8,372.6 532.9,352.3 		"/>
		<path fill="#D4B790" d="M867.6,152.1l-239.4-42.2l0,270l239.6,56.1l87.5,20.4v-290L867.6,152.1z M853.7,423.1l-215-46.9V119.4
			l215,39V423.1z M947.2,440.8l-71.9-15V166.4l71.9,11.7V440.8z"/>
		<polygon fill="#C3A67D" points="881.6,167.5 881.6,421.8 874.5,428.6 875.3,166.4 		"/>
		<polygon fill="#877047" points="881.6,421.8 947.2,436.7 947.2,445.6 874.5,428.6 		"/>
		<polygon opacity="0.6" fill="#F6F8FA" points="638.6,119.4 638.6,376.2 853.7,423.1 853.7,158.1 		"/>
		<polygon fill="#C7A984" points="628.2,379.9 638.6,376.2 638.6,119.4 628.2,117.6 		"/>
		<polygon fill="#AA8D6F" points="635.9,377.2 853.7,424.9 853.7,427 632.8,378.3 		"/>
		<polygon opacity="0.4" fill="#F6F8FA" points="947.2,178.1 875.3,166.4 874.5,428.6 947.2,445.6 		"/>
		<path fill="#D1D1D2" d="M760.4,509.7l28,7.3v-28.4c0,0-25.8-3.3-28-5.1C760.4,487.3,760.4,509.7,760.4,509.7z"/>
		<path fill="#ECA920" d="M760.4,483.4c0,0,12.8,3,20.4,4.1c4.4-1.6,10.1-15.4,2.7-21.1c-7.3-2.4-166.5-47.4-219.2-53.2
			c-4.6,0.4-6.8,15.3-6.2,20.2C561.9,434.4,760.4,483.4,760.4,483.4z"/>
		<path fill="#D1D1D2" d="M850.4,436.9l3.3-19.8l-5.1,2.2l-2.4,14.6C846.1,433.9,848.7,434.8,850.4,436.9z"/>
		<polygon fill="#CBCACB" points="848.5,419.3 584.9,360.3 580.9,382 844.4,443.5 		"/>
		<polygon fill="#E6E9E7" points="848.5,419.3 853.7,417.1 588.6,357.8 584.9,360.3 		"/>
		<path fill="#E6E9E7" d="M538.9,452.8v-50.9c0,0,10.4-2.6,19.1,3.3c1.2,3.8-0.1,7.2,0,17.7c0.1,10.5,0,34.8,0,34.8L538.9,452.8z"/>
		<path fill="#FDBD15" d="M564.3,413.2l34.1-19.6l235.7,55.7l-47.1,25c0,0,0-4.6-3.5-7.8C779.2,465,596.3,416.3,564.3,413.2z"/>
		<path fill="#E6E9E7" d="M538.9,401.9c0,0,24.5-16,35.9-17.5c6.3,0.5,10.9,1.7,12.2,4.2c-2.4,1.1-27.8,17.3-29,16.6
			C556.3,404.1,548.1,399.9,538.9,401.9z"/>
		<path fill="#D1D1D2" d="M587.1,388.6c0,0,3.8,0,5.2,8.4c-4,2.3-28,16.1-28,16.1s-4.5,2.7-5.4,9.9c-0.9-0.2-0.9-0.2-0.9-0.2
			s0-13.8,0-17.7C561.1,404,580.5,392.3,587.1,388.6z"/>
		<path fill="#C4C4C3" d="M581,381.3l-1.5,3.8c0,0,3.3,0,7.6,3.5c2.5,0.2,3.3,5.5,5.2,8.4c2.5,0.6,241.8,52.1,241.8,52.1l10.2-6.5
			L581,381.3z"/>
		<g>
			<path fill="#FFF200" d="M598.4,354.6c0,0,21.9,12.2,56.3,12.5c6.5-1.1,16.8-7.3,16.2-11.1c-4.1-2.4-33.6-11.4-51.4-12.5
				C607.9,344,600.7,349.6,598.4,354.6z"/>
			<path fill="#F6EC3F" d="M654.7,367c0,0-4.3,26.5-5.7,41.4c-2.2,3-49-5.6-54.7-12.6c-1.6-3.4-3.8-33.7,4.1-41.3
				C598.4,354.6,620.6,366.8,654.7,367z"/>
			<path fill="#F6E400" d="M654.7,367c0,0-6.2,37.4-5.7,41.4c3,0,17.6-4.6,20.6-14.9c3-11.1,7-28.4,1.4-37.6
				C670.4,358,667.1,363,654.7,367z"/>
		</g>
		<g>
			<path fill="#F6EC3F" d="M736.2,382c0,0-7.6,32.1-8.4,44.2c-2.7,2.3-47.2-0.6-66.6-15.3c-3.5-7-2.7-37.1,1.6-42.5
				C667.2,368.6,702.7,371,736.2,382z"/>
			<path fill="#FFF200" d="M662.9,368.4c0,0,5.7-10.6,15.7-10.6s59.3,6.2,70.1,16.5c-0.8,2.5-7.1,9.4-12.5,7.7
				C731.7,380.6,687.2,369.3,662.9,368.4z"/>
			<path fill="#F6E400" d="M736.2,382c0,0-7.4,29.2-8.4,44.2c2.2,0.9,13.6,0.4,18.2-9.1c2.4-10,5.3-40.8,2.7-42.8
				C746.9,377.1,741.4,383.7,736.2,382z"/>
		</g>
		<g>
			<path fill="#F6EC3F" d="M819.3,405.2c0,0-4.4,26.8-4.3,41.2c-5.1,0.9-63.4-4.3-76.5-20.6c-0.4-6,0.2-36.4,9.1-41
				C755.2,384.9,812.7,399.5,819.3,405.2z"/>
			<path fill="#F6E400" d="M819.3,405.2c0,0,7.8-12.5,18.1-10.2c1.9,5.3,2.4,33.3,1.1,41.9c-1.9,3.2-11.2,14.2-23.5,9.5
				C814.6,440.6,815.8,416.9,819.3,405.2z"/>
			<path fill="#FFF200" d="M747.6,384.9c0,0,55.5,10.9,71.7,20.3c4.2-5,8.9-11.4,18.1-10.2c-0.5-2.9-31.7-21.5-79.6-20.7
				C753.5,376.2,751.6,377.3,747.6,384.9z"/>
		</g>
		<path fill="#E6E9E7" d="M788.5,517v-56.5c0,0,11.6-9,19.5,3.2c0.4,9.7,0,58.2,0,58.2L788.5,517z"/>
		<path fill="#D1D1D2" d="M807.9,463.7c0,0,43.3-23.1,44.1-24.7c2.2,0.8,7,35.6,2.7,55.8c-3.5,2.7-44.1,24.2-46.8,27.1
			C808,516.7,807.9,463.7,807.9,463.7z"/>
		<path fill="#E6E9E7" d="M788.5,460.5c0,0,36.4-26.3,43.8-28.2c6-0.5,14.9-0.7,19.8,6.8c-2.8,3.5-44.1,24.7-44.1,24.7
			S801.3,453.4,788.5,460.5z"/>
		<path fill="#DA9828" d="M783.6,466.4c0,0,8.6,10-2.7,21.1c2.2,0.3,6.7,1.3,7.6,1c0-1.6,0-25.4,0-25.4S787.1,465.4,783.6,466.4z"/>
		<path fill="#191917" d="M691.8,505.9v56.1l68.6-35.4V470L691.8,505.9z M753.5,520l-55.4,27.8v-38l55.4-28.8V520z"/>
		<polygon fill="#191917" points="738.5,488.8 738.5,512.2 753.5,520 753.5,481 		"/>
		<polygon fill="#0D0D0D" points="738.5,512.2 698.1,531.7 698.1,547.8 753.5,520 		"/>
		<polygon fill="#C3A67D" points="691.8,505.9 441.5,446.5 441.5,450.5 691.8,511.3 		"/>
		<polygon fill="#20201D" points="691.8,511.3 691.8,562.1 647.2,551.1 647.2,500.5 		"/>
		<polygon fill="#20201D" points="441.5,450.5 441.5,501.4 479.5,509.8 479.5,459.9 		"/>
		<polygon fill="#121212" points="479.5,509.8 496.5,501.4 496.5,463.9 479.5,459.9 		"/>
		<polygon fill="#D4B790" points="441.5,446.5 691.8,505.9 760.4,470 516.4,413.2 		"/>
		<polygon opacity="0.6" fill="#F6E400" points="715,473.3 675.6,494.8 473.8,446.5 520.7,426.2 		"/>
		<polygon fill="#877047" points="691.8,505.9 691.8,511.3 760.4,475.1 760.4,470 		"/>
		<polygon opacity="0.6" fill="#FFF200" points="520.7,426.2 520.7,429.5 478.6,447.6 473.8,446.5 		"/>
		<polygon opacity="0.6" fill="#F6EC3F" points="520.7,426.2 520.7,429.5 710.8,475.6 715,473.3 		"/>
		<g>
			<path fill="#F6EC3F" d="M479.5,471.3c0,0-3.9,7.2-5.7,8.9c-2.6,0.8-51.3-4.6-65.1-14.6c0.3-2.4,4.9-11.6,21.4-8.1
				C439,458.5,473.1,464.9,479.5,471.3z"/>
			<path fill="#F6E400" d="M473.8,480.2c0,0-2.8,19.2-1.2,21.2c2.6,0,8.4,0,8.7-6.6s2.4-18.6-1.8-23.5
				C478.4,473.3,473.8,480.2,473.8,480.2z"/>
			<path fill="#FFF200" d="M408.7,465.5c0,0-5.4,11.9-1.6,20.8c3,3.8,61.7,22.2,65.5,15c-0.4-6.3,0.5-15.6,1.2-21.2
				C472,480.2,426.2,476.2,408.7,465.5z"/>
		</g>
		<g>
			<path fill="#F6EC3F" d="M553.5,488.5c0,0-5,4.2-7.6,8.4c-3.5,0.3-62.8-14.2-68.5-16c-0.5-1.9,4.1-11.1,13.3-9.5
				c9.2,1.6,42,8.4,43.5,8.7C537,480.7,556.6,481.5,553.5,488.5z"/>
			<path fill="#F6E400" d="M545.9,496.9c0,0-2.7,18.4-1.6,24.6c3.2-0.8,7.1-2.2,9.5-4.6c0-4.1,2.4-25.2-0.3-28.4
				C552,489.8,546.2,495,545.9,496.9z"/>
			<path fill="#FFF200" d="M477.5,481c0,0-3.2,13-3.7,19.5c2.3,3.2,64.7,19.8,70.5,21.1c-0.3-4.1,1.1-19.5,1.6-24.6
				C542.3,496.4,477.5,481,477.5,481z"/>
		</g>
		<g>
			<path fill="#F6EC3F" d="M639.6,509.8c0,0-10-1-16.2,7.2c-3.8-1.6-22-10.8-73.1-18.7c-0.8-2.2,1.4-10.3,14.3-9.7
				C575.4,489.4,636.1,499.9,639.6,509.8z"/>
			<path fill="#F6E400" d="M639.6,509.8c0,0,10.8,12.7,7.6,36.4c-2.7,1.4-14.1,6.8-14.1,6.8s-9.7-19.6-9.7-36.1
				C624.6,513.5,632,508.9,639.6,509.8z"/>
			<path fill="#FFF200" d="M623.4,517c0,0-21.7-13-73.1-18.7c-2.2,1.1-2.5,18.9-0.2,24.6c5.8,1.1,52.6,6.2,77.5,17
				C626.4,533.4,623.4,517,623.4,517z"/>
		</g>
		<g>
			<path fill="#CBCACB" d="M607.2,608.2l26.6,6.4c0,0-3.3-28.5-6.1-39.6c-2.8-11.1-5.3-24.1-5.3-24.1l-15.2-3V608.2z"/>
			<path fill="#E6E9E7" d="M625.8,570.4c0,0,52.6-26.9,52.6-28.1c0.4-1.2-5.7-4.3-13.6-4.7c0,0-10.8,5-17.7,8.6
				c-6.9,3.6-23.8,11.3-23.8,11.3L625.8,570.4z"/>
			<path fill="#D1D1D2" d="M678.4,542.3c0,0,4.2,1.5,4.2,18.5s-0.7,18.9-0.7,20.4s0.4,9.6-6.1,12c-6.5,2.4-35.3,18.9-42.1,21.9
				c-0.5-3.8-6.8-42-8-44.7C625.8,570.4,676.8,544.2,678.4,542.3z"/>
			<path fill="#E6E9E7" d="M633.1,542.3c0,0-13.9-6.4-25.9-9.3c0,4.4,0,14.8,0,14.8l15.2,3C622.4,550.8,625.5,542.1,633.1,542.3z"/>
			<path fill="#D1D1D2" d="M622.4,550.8c0,0,3.2-9.2,10.7-8.5c2,1.1,5.4,7.6,2.6,16.2c-2.4,3.5-3.4,6.1-10.6,8.1
				C624.1,563.2,622.4,550.8,622.4,550.8z"/>
		</g>
		<polygon fill="#D4B790" points="328.8,494.8 545.9,550.8 611,520 387.1,468.8 		"/>
		<polygon fill="#C3A67D" points="328.8,494.8 323.6,500.5 547.7,558.5 545.9,550.8 		"/>
		<polygon fill="#877047" points="611,520 615.9,524.4 547.7,558.5 545.9,550.8 		"/>
		<polygon fill="#D4B790" points="323.6,500.5 321.8,501.4 547.7,560.1 547.7,558.5 		"/>
		<polygon fill="#C3A67D" points="547.7,558.5 547.7,560.1 617.1,525.1 615.9,524.4 		"/>
		<polygon fill="#877047" points="547.7,560.1 547.7,562.1 617.1,526.7 617.1,525.1 		"/>
		<polygon fill="#C3A67D" points="547.7,560.1 547.7,562.1 321.8,503.1 321.8,501.4 		"/>
		<polygon fill="#20201D" points="321.8,503.1 321.8,571.9 347.3,580 347.3,509.8 		"/>
		<polygon fill="#20201D" points="347.3,568.3 520.7,617 520.7,631.4 347.3,580 		"/>
		<polygon fill="#20201D" points="520.7,555 520.7,631.4 547.7,639.6 547.7,562.1 		"/>
		<polygon fill="#191917" points="547.7,562.1 573.1,549.1 573.1,626.2 547.7,640.1 		"/>
		<polygon fill="#191917" points="587.8,541.6 607.2,531.7 607.2,608.2 587.8,618.1 		"/>
		<polygon fill="#20201D" points="321.8,503.1 321.8,521.6 347.3,528.5 347.3,509.8 		"/>
		<polygon points="347.3,528.5 347.3,530.3 321.8,523.3 321.8,521.6 		"/>
		<polygon fill="#FFF200" points="347.3,509.8 347.3,528.5 389.4,539.9 389.4,520.7 		"/>
		<polygon fill="#FEE810" points="389.4,520.7 389.4,539.9 436.3,552.7 436.3,533 		"/>
		<polygon fill="#FDEC0C" points="436.3,533 436.3,552.7 480.2,564.6 480.2,544.4 		"/>
		<polygon fill="#FFF200" points="480.2,544.4 480.2,564.6 520.7,575.7 520.7,555 		"/>
		<polygon points="520.7,574.1 520.7,575.7 547.7,583 547.7,581.5 		"/>
		<polygon points="547.7,581.5 547.7,583 573.1,569.8 573.1,568.5 		"/>
		<polygon fill="#191917" points="573.1,568.5 587.8,560.8 587.8,541.6 573.1,549.1 		"/>
		<polygon fill="#191917" points="587.8,541.6 587.8,560.8 607.2,550.8 607.2,531.7 		"/>
		<polygon points="587.8,560.8 587.8,562.1 607.2,552.3 607.2,550.8 		"/>
		<polygon fill="#F6E400" points="520.7,575.7 522.3,574.9 522.3,555.4 520.7,555 		"/>
		<polygon fill="#191917" points="573.1,626.2 587.8,618.1 587.8,609.3 573.1,617.7 		"/>
		<polygon fill="#191917" points="582.4,612.4 582.4,563.6 587.8,560.8 587.8,609.3 		"/>
		<polygon fill="#121212" points="393.4,541.1 393.4,549.1 347.3,568.3 347.3,528.5 		"/>
		<polygon points="572.4,549.5 572.4,568.9 573.6,568.3 573.6,548.9 		"/>
		<polygon points="587.3,541.9 587.3,561.1 588.9,560.2 588.9,541.1 		"/>
		<polygon fill="#0D0D0D" points="347.3,568.3 520.7,617 520.7,584.3 393.4,549.1 		"/>
		<polygon fill="#0D0D0D" points="573,613.6 582.4,608.5 587.8,609.3 573.1,617.7 		"/>
		<polygon fill="#FDBD15" points="582.4,563.6 582.4,608.5 573,613.6 573,568.6 		"/>
		<polygon points="388.4,520.5 390.3,521 390.3,540.2 388.4,539.7 		"/>
		<polygon fill="#121212" points="435.6,532.8 437.2,533.2 437.2,553 435.6,552.5 		"/>
		<polygon fill="#121212" points="479.2,544.2 481,544.7 481,564.9 479.2,564.4 		"/>
		<polygon fill="#F6E400" points="388.4,520.5 389.2,520.7 389.2,539.9 388.4,539.7 		"/>
		<path fill="#20201D" d="M41.4,250.1V370l120.7-42V210.6L41.4,250.1z M148.1,319.9l-96.4,34.6v-97.4l96.4-33V319.9z"/>
		<polygon fill="#121212" points="129.7,230.4 129.7,311.7 148.1,319.9 148.1,224.1 		"/>
		<polygon fill="#0D0D0D" points="129.7,311.7 51.7,338.1 51.7,354.6 148.1,319.9 		"/>
		<path fill="#20201D" d="M224.1,133.4v77.1l75.9-26.8v-77.5L224.1,133.4z M290.7,175.3l-58.1,19.9v-54.8l58.1-19.9V175.3z"/>
		<polygon fill="#121212" points="275.5,125.7 275.5,169.2 290.7,175.3 290.7,120.4 		"/>
		<polygon fill="#0D0D0D" points="275.5,169.2 232.6,183.8 232.6,195.2 290.7,175.3 		"/>
		<path fill="#20201D" d="M406.4,113.1v57.2l50.3-17.1V94.1L406.4,113.1z M450.1,147.9l-34.6,10.6v-42l34.6-12.2V147.9z"/>
		<polygon fill="#121212" points="440.6,107.6 440.6,142.1 450.1,147.9 450.1,104.2 		"/>
		<polygon fill="#0D0D0D" points="440.6,142.1 415.5,149.4 415.5,158.4 450.1,147.9 		"/>
		<path fill="#20201D" d="M341.9,183.8v149.3l56.3-21.5V162.4L341.9,183.8z M390,305.9l-39.5,14.1V187.3l39.5-13.9V305.9z"/>
		<polygon fill="#121212" points="379.2,177.2 379.2,299.1 390,305.9 390,173.4 		"/>
		<polygon fill="#0D0D0D" points="379.2,299.1 350.5,308.3 350.5,319.9 390,305.9 		"/>
		<path fill="#20201D" d="M119.1,380v61.4l71.7-28.4v-58.5L119.1,380z M182.2,408.4l-54.4,21.1V383l54.4-19.5V408.4z"/>
		<polygon fill="#121212" points="170.3,367.7 170.3,403.4 182.2,408.4 182.2,363.5 		"/>
		<polygon fill="#0D0D0D" points="170.3,403.4 127.8,418.5 127.8,429.5 182.2,408.4 		"/>
		<polygon fill="#E6E9E7" points="51.7,257.1 129.7,230.4 129.7,311.7 51.7,338.1 		"/>
		<polygon fill="#E6E9E7" points="127.8,383 127.8,418.5 170.3,403.4 170.3,367.7 		"/>
		<polygon fill="#E6E9E7" points="350.5,187.3 350.5,308.3 379.2,299.1 379.2,177.2 		"/>
		<polygon fill="#E6E9E7" points="415.5,116.4 415.5,149.4 440.6,142.1 440.6,107.6 		"/>
		<polygon fill="#E6E9E7" points="232.6,140.3 232.6,183.8 275.5,169.2 275.5,125.7 		"/>
		<linearGradient id="SVGID_3_" gradientUnits="userSpaceOnUse" x1="116.6925" y1="452.9861" x2="127.1957" y2="452.9861">
			<stop  offset="0" style="stop-color:#E6E7E8"/>
			<stop  offset="0.3113" style="stop-color:#EBEBEC"/>
			<stop  offset="0.6513" style="stop-color:#E6E7E8"/>
			<stop  offset="1" style="stop-color:#BCBEC0"/>
		</linearGradient>
		<path fill="url(#SVGID_3_)" d="M116.7,366.2v170.7c0,2.5,2.5,2.9,5.4,2.9c2.9,0,5.1-0.5,5.1-2.9V366.2H116.7z"/>
		<path fill="none" stroke="#D8D8D8" stroke-width="1.624" stroke-miterlimit="10" d="M174.1,356.4"/>
		<polygon fill="#FFED94" points="123.6,389.1 78.1,376.1 80.6,382.4 123.6,396.4 155.3,382.4 155.3,376.3 		"/>
		<polygon fill="#FFF2A4" points="139.6,328.8 118.1,320.5 95,327.4 78.1,376.1 123.6,389.1 155.3,376.3 		"/>
		<polygon fill="#FEF7B9" points="95,327.4 120.4,335.3 139.6,328.8 118.1,320.5 		"/>
		<polygon fill="#FEEB8C" points="120.4,335.3 139.6,328.8 155.3,376.3 123.6,389.1 		"/>
		<path fill="#F3F4F5" d="M517.8,509.7c0,0-4.5,0.8-4.7,4.9s0,12.6,0,12.6s1.3,2.2,3.6,2.8c2.3,0.6,33,7.6,33,7.6s1.9,0.2,3-1.1
			l0-16.7c0,0,0.8-2.6-7-4.5C537.9,513.6,517.8,509.7,517.8,509.7z"/>
		<path fill="#E6E9E7" d="M517.8,509.7l13.2-6.9c0,0,0.2-1.4,6.1,0c5.9,1.4,28.3,6.9,28.3,6.9s1.1,1.4-1.5,2.7
			c-2.6,1.4-11.1,5.6-11.1,5.6s-5.5-2.4-7-2.6S517.8,509.7,517.8,509.7z"/>
		<path fill="#E6E9E7" d="M565.4,509.7c0,0,3.4,0.9,3.6,5.3c0.1,4.5,0,12.1,0,12.1l-16.1,9.3l0-16.7c0,0,0.2-0.9-0.6-1.6
			c1.5-0.7,12.5-6.3,12.5-6.3S566.3,510.8,565.4,509.7z"/>
		<polygon fill="#FEC249" points="569,488.5 569,523.2 501.6,507.6 501.6,474.2 		"/>
		<polygon fill="#FFC951" points="590.2,478.9 569,488.5 501.6,474.2 526.1,463.9 		"/>
		<polygon fill="#FEC043" points="590.2,478.9 590.2,514.3 569,523.2 569,488.5 		"/>
	</g>
</g>
</svg>
