<!-- Generator: Adobe Illustrator 18.0.0, SVG Export Plug-In  -->
<svg version="1.1"
	 xmlns="http://www.w3.org/2000/svg" xmlns:xlink="http://www.w3.org/1999/xlink" xmlns:a="http://ns.adobe.com/AdobeSVGViewerExtensions/3.0/"
	 x="0px" y="0px" width="543.2px" height="554.4px" viewBox="0 0 543.2 554.4" enable-background="new 0 0 543.2 554.4"
	 xml:space="preserve">
<defs>
</defs>
<g>
	<g>
		<path fill="#EAEAEA" d="M22.2,311.9l46.5,89.3c0,0,3-1.4,4-2c1.8-1,5.2-3.5,7-4.5c1.2-0.6,3.7-1.6,5-2.1c1.5-0.6,4.7-1.7,5.7-2.7
			s1.2-2.5,1.6-3.3c0.9-1.7,3.7-4.7,4.4-6.3c0.7-1.7,1.4-7,1.3-9.3c-0.1-3.3-1.2-9.9-1.7-13.2c-0.4-3.3-1.3-9.9-1.7-13.2
			c-0.2-1.5-0.2-4.6-0.7-6c-0.5-1.5-2-3.7-1.7-6c0.3-2.3,0-9,0-13s2-13.3,2-14.7c0-1.3,1.7-17.3,2.3-18.7c0.7-1.3,6.7-7.9,9.3-10.1
			c2.9-2.4,9.4-6.3,12.7-8.2c7.7-4.7,25.7-10.7,31.3-17.7c2-2.4,2.4-9.1,3.7-12c0.5-1,1.8-2.7,2.3-3.6c1.7-2.7,5.3-9.4,6.3-11.1
			s3.9-5.8,5.3-7.6c2.7-3.5,8.3-10.2,11-13.6c1-1.3,3-4,4-5s6-4,8-5.3c1.5-1,4.3-3.3,5.7-4.7c1.3-1.3,6.6-3,8.7-4.3
			c1.8-1.1,6.3-5.7,6.3-5.7l6.2-5.7l2.1-8.3c0,0-2.3-2.3-2.1-3.3c0.2-1-2.6-3.7-3.2-5c-0.7-1.3-2.8-5.1-3-7
			c-0.2-1.9,0.8-5.7,1.7-7.3c0.8-1.5,3.5-3.7,4.6-5c0.8-1,2.1-3,2.8-4c1.9-2.8,5.8-8.2,7.7-11c1.3-1.9,4.2-5.6,5.3-7.7
			c1.2-2.2,3.4-6.8,3.7-9.3c0.2-1.9-0.1-6-1-7.7c-1-1.9-5.3-4.7-6.3-5.7s-4.7-2.9-6.3-3.7c-1.4-0.7-5.1-1.2-5.8-2.7
			c-0.6-1.3,0.6-4.5,1.8-5.3c0.8-0.6,3,0,4,0c1.9,0,5.8-0.2,7.7,0c2.4,0.2,7.2,1.5,9.7,1.7c2.3,0.2,7-0.2,9.3,0
			c3.1,0.3,9.3,1.4,12.3,2c2.9,0.6,8.7,2.4,11.7,3c3.6,0.8,11.1,1.7,14.7,2.7c2.9,0.8,8.5,3.4,11.3,4.3c3.3,1.1,10,3.1,13.3,4
			c5.6,1.6,16.9,5.2,22.7,6c5,0.6,15-0.2,20,0c3.5,0.2,10.6,1.1,14,2c2.6,0.7,7.4,3.3,10,4c3.6,1,11,2,14.7,2.3c1.3,0.1,4,0,5.3,0
			c2.6,0,7.8-0.2,10.3,0c2.6,0.2,9,1.7,10.3,2.3c1.3,0.7,11.5,3.1,15.3,4c4.3,1.1,12.8,3.3,17.1,4.3c4,0.9,12.4,1.9,16.3,3.3
			c4.1,1.5,13.2,4.8,13.2,4.8c0.6,0.9,1.6,2.8,2.2,3.7c1.2,1.8,3.9,5.4,5.2,7.2c1.4,2,4.2,5.9,5.5,8c2,3.2,5.5,9.8,7.2,13.2
			c1.2,2.4,3.2,7.3,4.2,9.8c1.2,3,3.3,9.1,4.3,12.2c1.1,3.5,3.2,10.5,4.2,14c1.2,4.4,3.3,13.2,4.3,17.7c0.8,3.5,2.2,10.7,3.2,14.2
			c0.7,2.6,2.3,7.8,3.2,10.3c0.7,2.2,2.3,6.4,3.2,8.5c1.2,3,4.2,8.7,5.5,11.6c1.4,3,4.2,9.1,5.5,12.2c0.9,2.1,2.8,6.4,3.2,8.7
			c0.2,1.2,0.2,3.6,0,4.8c-0.3,2-1.6,5.9-2.2,7.8c-0.7,2.3-2.1,6.9-2.8,9.2c-1.1,3.2-3.4,9.6-4.5,12.8c-1.7,4.8-5.1,14.4-6.5,19.3
			c-1.1,3.9-3,11.8-3.7,15.8c-0.5,2.8-1,8.4-1.2,11.2c-0.1,2.5-0.1,7.5,0,10c0,1,0.2,2.9,0.3,3.8c0.2,1.8,0.8,5.3,1.2,7
			c0.9,3.8,4.3,15,4.3,15l4.2,11.7l2,8.5l1.2,8.3v12l-1.2,10.5l-3.7,27.7l-7.2,37.3l-9,38.5H101.7c0,0-0.2-6.4-0.3-8.5
			c-0.1-1.8-0.3-5.5-0.5-7.3c-0.2-1.8-0.6-5.4-0.8-7.2c-0.4-2.3-1.3-6.9-1.8-9.2c-0.4-1.8-1.3-5.5-1.8-7.3c-0.4-1.3-1.4-3.9-2-5.2
			c-0.7-1.5-3.2-5.8-3.2-5.8s-2.1,2.1-2.8,2.8c-1.3,1.2-3.7,3.7-5.2,4.7c-1.3,0.9-4,2.2-5.5,2.7c-1.6,0.5-5,0.9-6.7,0.8
			c-1.7-0.1-5.1-0.7-6.7-1.3c-1.5-0.6-4-2.6-5.2-3.7c-1.3-1.3-3.5-4.4-4.5-6c-2.3-3.9-5.7-12.5-7.7-16.7c-1.6-3.4-5.4-9.9-7-13.3
			c-1.4-3-4-9.2-5.2-12.3c-1.4-3.6-3.8-11-5.2-14.7c-1.2-3-3.7-8.9-5-11.8c-1.6-3.6-5-10.7-6.7-14.3c-1-2.1-2.7-6.4-3.7-8.5
			c-1.1-2.6-3.6-7.7-4.7-10.3c-1-2.5-2.8-7.6-3.7-10.2C5,386,3,379.4,2.2,376c-0.5-2.2-1-6.6-1.3-8.8c-0.2-1.6-0.7-4.9-0.8-6.5
			c-0.1-1.3-0.1-3.9,0-5.2c0.1-1.5,0.4-4.5,0.7-6c0.3-1.6,0.9-4.6,1.3-6.2c0.5-2.1,1.6-6.2,2.3-8.2c1.1-2.7,3.6-8,5.3-10.3
			C12.3,321.2,22.2,311.9,22.2,311.9z"/>
	</g>
	<g>
		<path fill="#DBDBDB" d="M22.3,311.9l46.5,89.3c0,0,3-1.4,4-2c1.8-1,5.2-3.5,7-4.5c1.2-0.6,3.7-1.6,5-2.1c1.5-0.6,4.7-1.7,5.7-2.7
			s1.2-2.5,1.6-3.3c0.9-1.7,3.7-4.7,4.4-6.3c0.7-1.7,1.4-7,1.3-9.3c-0.1-3.3-1.2-9.9-1.7-13.2c-0.4-3.3-1.3-9.9-1.7-13.2
			c-0.2-1.5-0.2-4.6-0.7-6c-0.5-1.5-2-3.7-1.7-6c0.3-2.3,0-9,0-13s2-13.3,2-14.7c0-1.3,1.7-17.3,2.3-18.7c0.7-1.3,6.7-7.9,9.3-10.1
			c2.9-2.4,9.4-6.3,12.7-8.2c7.7-4.7,25.7-10.7,31.3-17.7c2-2.4,2.4-9.1,3.7-12c0.5-1,1.8-2.7,2.3-3.6c1.7-2.7,5.3-9.4,6.3-11.1
			s3.9-5.8,5.3-7.6c2.7-3.5,8.3-10.2,11-13.6c1-1.3,3-4,4-5s6-4,8-5.3c1.5-1,4.3-3.3,5.7-4.7c1.3-1.3,6.6-3,8.7-4.3
			c1.8-1.1,6.3-5.7,6.3-5.7l6.2-5.7l2.1-8.3c0,0-2.3-2.3-2.1-3.3c0.2-1-2.6-3.7-3.2-5s-2.8-5.1-3-7c-0.2-1.9,0.8-5.7,1.7-7.3
			c0.8-1.5,3.5-3.7,4.6-5c0.8-1,2.1-3,2.8-4c1.9-2.8,5.8-8.2,7.7-11c1.3-1.9,4.2-5.6,5.3-7.7c1.2-2.2,3.4-6.8,3.7-9.3
			c0.2-1.9-0.1-6-1-7.7c-1-1.9-5.3-4.7-6.3-5.7s-4.7-2.9-6.3-3.7c-1.4-0.7-5.1-1.2-5.8-2.7c-0.6-1.3,0.6-4.5,1.8-5.3
			c0.8-0.6,3,0,4,0c1.9,0,5.8-0.2,7.7,0c2.4,0.2,7.2,1.5,9.7,1.7c2.3,0.2,7-0.2,9.3,0c3.1,0.3,9.3,1.4,12.3,2
			c2.9,0.6,8.7,2.4,11.7,3c3.6,0.8,11.1,1.7,14.7,2.7c2.9,0.8,8.5,3.4,11.3,4.3c3.3,1.1,10,3.1,13.3,4c5.6,1.6,16.9,5.2,22.7,6
			c5,0.6,15-0.2,20,0c3.5,0.2,10.6,1.1,14,2c2.6,0.7,7.4,3.3,10,4c3.6,1,11,2,14.7,2.3c1.3,0.1,4,0,5.3,0c2.6,0,7.8-0.2,10.3,0
			c2.6,0.2,9,1.7,10.3,2.3c1.3,0.7,11.5,3.1,15.3,4c4.3,1.1,12.8,3.3,17.1,4.3c4,0.9,12.4,1.9,16.3,3.3c4.1,1.5,15.4,8.5,15.4,8.5
			c-0.6-0.9-1.6-2.8-2.2-3.7c-4.5-6.7-14.8-19.2-19.2-26c-6.1-9.5-16.1-29.9-22.2-39.5c-3.6-5.7-11.2-17-15.8-22
			c-3.4-3.7-11-10.7-15.5-13c-3.9-2-13.1-1.9-17-4c-4.5-2.4-10.8-11.1-15-14c-3.8-2.6-12-7-16.5-8c-4.3-1-13.1,0-17.5,0
			c-3.8,0-11.3-0.6-15,0c-2.2,0.4-6.2,3-8.5,3c-4.5,0.1-12.6-4.8-17-5.5c-3.2-0.5-9.8,0-13,0c-5.5,0-16.6-0.9-22,0
			c-4,0.6-11.7,3.5-15.5,5c-4,1.6-11.7,5.5-15.5,7.5c-3.2,1.7-9.6,5.2-12.5,7.5c-2.1,1.6-5.1,6.2-7.4,7.5c-5.6,3.3-18.9,4.9-25.1,7
			c-6.7,2.3-19.6,8-26,11c-4.1,1.9-12.1,6.2-16,8.5c-6.3,3.6-18.7,11.2-24.5,15.5c-6.5,4.8-18.3,15.8-24.5,21
			c-5.8,4.9-18.3,13.9-23.5,19.5c-4.9,5.3-12.5,17.5-16.5,23.5c-3.7,5.5-12.2,16.1-14,22.5c-0.6,2,0.4,6.4,0,8.5
			c-0.8,4.5-5.7,12.5-6.5,17c-0.8,4.2,1,12.9,0,17c-1.8,7.8-12.2,21-14,28.8c-0.5,2,0.3,6.1,0,8.1c-0.6,4.3-3.9,12.6-4.5,16.9
			c-0.6,4.9,0.3,14.8,0,19.7c-0.4,6.2-3.2,18.3-3,24.5C19.4,300.7,22.3,311.9,22.3,311.9z"/>
	</g>
	<g>
		<path fill="#1A1A1A" d="M93.5,550.9c0,0-2.4-23-3.6-30.6c-1.4-8.8-7.1-34.6-7.1-34.6"/>
		<g>
			<path fill="#1A1A1A" d="M97.1,550.9c-1.1-11-2.1-22.1-4-33c-1.9-11.1-4.4-22.1-6.8-33.2c-1-4.6-8-2.6-7,1.9
				c2.4,10.8,4.7,21.5,6.7,32.4c1.9,10.5,2.7,21.2,3.8,31.8C90.4,555.5,97.6,555.5,97.1,550.9L97.1,550.9z"/>
		</g>
	</g>
	<g>
		<g>
			<path fill="#D6D6D6" d="M471.1,308.8c-7.8,15.1-15.3,32.8-12.4,50.1c1.7,10.7,5.2,21.1,8.3,31.5c3.1,10.3,7.1,20,11.7,29.8
				c4.8,10.1,10.4,19.5,16.6,28.8c5.7,8.6,13.3,16.1,18.5,25c6,10.3,7.7,21.9,2.9,33.1c-2.1,4.9-5,11-9.4,14.1
				c-4.6,3.3-10.4,5.3-15.6,7.4c-3.5,1.4-7.1,2.7-10.7,3.5c-3.1,0.7-10.2,4-9.5-1.4c0.7-5.6-14-5.4-16.9-5.5
				c-6.2-0.2-13.9,0-19.6,2.7c-1.8,0.9-2.8,2.6-2.3,4.6c0.4,1.5,5.7,6.2,3.9,6.9c-3.2,1.1-7.6-0.6-10.7-1.2c-4-0.8-7.9-1.4-11.8-2.6
				c-7-2.1-11-13.2-11.4-20c-0.3-4.4,1.9-9.5,3.2-13.7c1.3-4,2.4-8.1,3.8-12.1c2.3-6.8,7.5-11,12.8-15.4c1.5-1.2-0.6-3.4-2.1-2.1
				c-6.4,5.4-11.3,10.1-14.1,18.2c-1.7,4.8-3.1,9.8-4.6,14.7c-1.4,4.6-2.6,9.1-1.6,13.8c1.5,7.1,4.9,16.3,12,19.2
				c4.3,1.8,9.2,2.2,13.7,3.1c3.9,0.8,8.4,2.1,12.3,0.8c2.3-0.8,2.7-2.9,1.7-4.9c-0.7-1.5-2.2-2.7-3.3-3.9c-3-3.4,4.9-4.1,6.9-4.3
				c4.6-0.6,9.2-0.7,13.9-0.5c2.7,0.1,5.4,0.4,8,1c3.7,0.9,1.9,3.8,3.2,6c1.6,2.7,6.8,1.3,9.1,0.8c5.1-1.1,10-2.7,14.9-4.6
				c4.4-1.7,8.8-3.6,13-5.7c4.6-2.3,7.4-5.5,10.1-9.9c4.7-7.7,7.2-16.2,7.1-25.3c-0.1-8.2-5.4-17.5-10.2-23.9
				c-5.7-7.6-11.7-14.9-16.9-22.8c-5.6-8.5-10.5-17.3-14.9-26.5c-8.4-17.9-14.5-37.1-18.5-56.5c-3.6-17.4,3.8-35.2,11.6-50.5
				C474.6,308.6,472,307.1,471.1,308.8L471.1,308.8z"/>
		</g>
	</g>
	<path fill="none" stroke="#000000" stroke-miterlimit="10" d="M460.1,421.5"/>
	<g>
		<g>
			<path fill="#D6D6D6" d="M360.1,381.5c-2.8,3.2-7.9,6.6-11,8c-2.2,1-7,2.4-9.3,3c-2.4,0.6-6.9,1.4-9.3,1.7c-2.5,0.3-8.7,0.7-10,1
				c-1.3,0.3-8.3-0.1-11,0c-2.1,0.1-9.1-0.5-10.3-0.9c-1.9-0.5-7.6-1.7-11-2.5c-2.4-0.5-7-2.3-9.3-3c-1.6-0.5-4.9-1.2-6.5-1.7
				c-1.7-0.6-5.3-1.7-6.8-2.7c-0.8-0.5-2.7-1.5-2.7-2.3c0.2-2.8,7-4.6,9.5-5.7c3.5-1.5,9.9-3.8,13.5-5c3.2-1,10.4-3.7,13.7-4.7
				c3.8-1.1,11.8-3.3,15.7-4.3c3.2-0.8,9.4-1.5,12.7-2c2.1-0.3,7.3,0,8.7,0s7.9,0.9,10.3,2c1.3,0.6,3.7,2.3,4.7,3.3
				c2,2.1,4.6,4.4,6,7C358.1,374.3,360.1,380,360.1,381.5"/>
		</g>
		<g>
			<g>
				<path fill="#D6D6D6" d="M311.7,319.7c5.8,2.1,11.6,4.2,17.3,6.7c6.6,2.9,11.4,6,16.9,10.7c7,5.9,11.6,12.7,14.9,21.2
					c1.4,3.8,2.9,7.6,4.1,11.5c0.8,2.5,1.9,5.5,0,7.8c-1.9,2.2-3.9,2.6-6.5,3.2c-1.9,0.5-1.1,3.3,0.8,2.9c3.6-0.9,6.6-1.8,8.8-5.2
					c2.3-3.6,0.2-8.5-1-12.2c-3.4-9.6-6.6-18.6-13.5-26.2c-5.3-5.8-11.4-11-18.5-14.4c-7.3-3.4-14.8-6.2-22.4-9
					C310.6,316.1,309.9,319,311.7,319.7L311.7,319.7z"/>
			</g>
		</g>
	</g>
	<g>
		<path fill="#D6D6D6" d="M521.1,361.5c-0.7,1,0.8,10.3,0,13.7c-0.4,1.8-2.7,4.8-3.7,6.3c-0.8,1.2-2.8,2.3-4.1,3c-1.8,1-5.2,2-7.3,2
			c-1.9,0-5.8,0-7.7,0c-1.5,0-4.5,0-6,0c-2.2,0-6.5-0.6-8.7-1c-2.5-0.4-7-0.8-9.5-1.3c-1.9-0.4-7.9-1.7-7.9-1.7l-3.3-13
			c0,0,6.5-4.7,9-6c3.4-1.8,8-3.6,11.7-4.8c2.6-0.9,10.9-2.8,13.7-3.2c2.4-0.3,7.3-1.2,9.7-1c2.4,0.2,7.3,0.7,9.3,1.9
			C517.9,357.3,521.1,359.8,521.1,361.5"/>
		<g>
			<g>
				<path fill="#D6D6D6" d="M504.3,329.9c3.1,3.8,6.3,7.6,8.2,12.2c1.4,3.4,2.9,6.8,3.9,10.4c0.5,2.1,1.9,6.6,1.3,8.7
					c-0.6,1.9,2.3,2.6,2.9,0.8c0.7-2.2-0.3-4.9-0.8-7.1c-0.9-4.3-2.2-8.2-3.8-12.3c-2.2-5.6-5.6-10.1-9.4-14.7
					C505.2,326.3,503.1,328.5,504.3,329.9L504.3,329.9z"/>
			</g>
		</g>
	</g>
	<g>
		<path fill="#D5D5D5" d="M91.2,501.4c-0.7,0.7-2.1,2.1-2.8,2.8c-1.3,1.2-3.7,3.7-5.2,4.7c-1.3,0.9-4,2.2-5.5,2.7
			c-1.6,0.5-5,0.9-6.7,0.8c-1.7-0.1-5.1-0.7-6.7-1.3c-1.5-0.6-4-2.6-5.2-3.7c-1.3-1.3-3.5-4.4-4.5-6c-2.3-3.9-5.7-12.5-7.7-16.7
			c-1.6-3.4-5.4-9.9-7-13.3c-1.4-3-4-9.2-5.2-12.3c-1.4-3.6-3.8-11-5.2-14.7c-1.2-3-3.7-8.9-5-11.8c-1.6-3.6-5-10.7-6.7-14.3
			c-1-2.1-2.7-6.4-3.7-8.5c-1.1-2.6-3.6-7.7-4.7-10.3c-1-2.5-2.8-7.6-3.7-10.2C5,386,3,379.4,2.2,376c-0.5-2.2-1-6.6-1.3-8.8
			c-0.2-1.6-0.7-4.9-0.8-6.5c-0.1-1.3-0.1-3.9,0-5.2c0.1-1.5,0.4-4.5,0.7-6c0.3-1.6,0.9-4.6,1.3-6.2c0.5-2.1,1.6-6.2,2.3-8.2
			c1.1-2.7,3.6-8,5.3-10.3c2.6-3.7,8.7-10.6,12.5-13c2.5-1.6,8.2-4.2,11.2-4.5c3.1-0.3,9.5,1,12.2,2.5c2.4,1.3,5.9,5.5,7.8,7.5
			c1.8,1.9,5.3,5.9,7,8c1.7,2.2,5.2,6.5,6.5,9c16.6,32.7,34.4,105.9,34,142.5c0,2.5-1.8,7.1-2.5,9.5c-0.7,2.5-1.8,7.7-3,10
			C94.6,497.8,92.3,500.2,91.2,501.4z"/>
	</g>
</g>
</svg>
