<!-- Generator: Adobe Illustrator 18.0.0, SVG Export Plug-In  -->
<svg version="1.1"
	 xmlns="http://www.w3.org/2000/svg" xmlns:xlink="http://www.w3.org/1999/xlink" xmlns:a="http://ns.adobe.com/AdobeSVGViewerExtensions/3.0/"
	 x="0px" y="0px" width="679.3px" height="97.2px" viewBox="0 0 679.3 97.2" enable-background="new 0 0 679.3 97.2"
	 xml:space="preserve">
<defs>
</defs>
<g>
	<g>
		<g>
			<path fill="#DB3B26" d="M534.2,57.1c0,0.4-0.1,0.7-0.4,1s-0.6,0.4-1,0.4s-0.7-0.1-1-0.4s-0.4-0.6-0.4-1v-7.8H522v7.8
				c0,0.4-0.1,0.7-0.4,1c-0.3,0.3-0.6,0.4-1,0.4s-0.7-0.1-1-0.4s-0.4-0.6-0.4-1V38.8c0-0.4,0.1-0.7,0.4-1c0.3-0.3,0.6-0.4,1-0.4
				s0.7,0.1,1,0.4c0.3,0.3,0.4,0.6,0.4,1v7.8h9.4v-7.8c0-0.4,0.1-0.7,0.4-1c0.3-0.3,0.6-0.4,1-0.4s0.7,0.1,1,0.4
				c0.3,0.3,0.4,0.6,0.4,1V57.1z"/>
			<path fill="#DB3B26" d="M550.9,51.1c0,2.1-0.7,3.8-2.2,5.2c-1.5,1.4-3.2,2.2-5.2,2.2c-2,0-3.8-0.7-5.2-2.2s-2.2-3.2-2.2-5.2
				s0.7-3.8,2.2-5.2s3.2-2.2,5.2-2.2c2,0,3.8,0.7,5.2,2.2c0.7,0.7,1.3,1.5,1.6,2.4C550.7,49.1,550.9,50.1,550.9,51.1z M543.5,46.5
				c-0.7,0-1.3,0.1-1.8,0.4s-1.1,0.6-1.5,1c-0.4,0.4-0.7,0.9-1,1.5c-0.2,0.6-0.4,1.2-0.4,1.8s0.1,1.2,0.4,1.8c0.2,0.6,0.6,1.1,1,1.5
				c0.4,0.4,0.9,0.8,1.5,1c0.6,0.2,1.2,0.4,1.8,0.4c0.6,0,1.2-0.1,1.8-0.4c0.6-0.2,1.1-0.6,1.5-1c0.4-0.4,0.7-0.9,1-1.5
				c0.2-0.6,0.4-1.2,0.4-1.8s-0.1-1.2-0.4-1.8c-0.2-0.6-0.6-1-1-1.5c-0.4-0.4-0.9-0.8-1.5-1C544.8,46.6,544.2,46.5,543.5,46.5z"/>
			<path fill="#DB3B26" d="M555.8,45.1c1.2-0.9,2.5-1.4,4.1-1.4c0.9,0,1.8,0.2,2.6,0.5c0.8,0.4,1.6,0.8,2.2,1.5
				c0.6,0.6,1.1,1.3,1.5,2.2c0.4,0.8,0.6,1.7,0.6,2.7v6.5c0,0.4-0.1,0.7-0.4,1c-0.3,0.3-0.6,0.4-1,0.4c-0.4,0-0.7-0.1-1-0.4
				c-0.3-0.3-0.4-0.6-0.4-1v-6.5c0-0.6-0.1-1.1-0.3-1.6c-0.2-0.5-0.5-0.9-0.9-1.3c-0.4-0.4-0.8-0.7-1.3-0.9s-1-0.3-1.6-0.3
				c-0.6,0-1.1,0.1-1.6,0.3c-0.5,0.2-0.9,0.5-1.3,0.9s-0.7,0.8-0.9,1.3c-0.2,0.5-0.3,1-0.3,1.6v6.5c0,0.4-0.1,0.7-0.4,1
				c-0.3,0.3-0.6,0.4-1,0.4c-0.4,0-0.7-0.1-1-0.4c-0.3-0.3-0.4-0.6-0.4-1v-12c0-0.4,0.1-0.7,0.4-1c0.3-0.3,0.6-0.4,1-0.4
				c0.4,0,0.7,0.1,1,0.4C555.6,44.4,555.8,44.7,555.8,45.1z"/>
			<path fill="#DB3B26" d="M580.1,54.3c0.4,0,0.7,0.1,1,0.4c0.3,0.3,0.4,0.6,0.4,1c0,0.4-0.1,0.7-0.4,1c-1.4,1.2-3,1.8-4.8,1.8
				c-2,0-3.8-0.7-5.2-2.2s-2.2-3.2-2.2-5.2s0.7-3.8,2.2-5.2s3.2-2.2,5.2-2.2c2,0,3.8,0.7,5.2,2.2c0.7,0.7,1.3,1.5,1.6,2.4
				c0.4,0.9,0.5,1.8,0.5,2.8c0,0.4-0.1,0.7-0.4,1c-0.3,0.3-0.6,0.4-1,0.4h-10.4c0.1,0.5,0.4,0.9,0.7,1.3c0.3,0.4,0.6,0.7,1,1
				c0.4,0.3,0.8,0.5,1.3,0.7c0.5,0.2,1,0.2,1.5,0.2c0.6,0,1.1-0.1,1.6-0.3c0.5-0.2,0.9-0.4,1.3-0.8
				C579.4,54.4,579.7,54.3,580.1,54.3z M580.7,49.7c-0.2-0.5-0.4-0.9-0.7-1.3c-0.3-0.4-0.6-0.7-1-1c-0.4-0.3-0.8-0.5-1.3-0.7
				c-0.5-0.2-1-0.2-1.5-0.2s-1,0.1-1.5,0.2s-0.9,0.4-1.3,0.7c-0.4,0.3-0.7,0.6-1,1c-0.3,0.4-0.5,0.8-0.6,1.3H580.7z"/>
			<path fill="#DB3B26" d="M590.6,57.1l-4.7-11.4c-0.1-0.2-0.1-0.4-0.1-0.6c0-0.2,0-0.4,0.1-0.5s0.2-0.3,0.3-0.4
				c0.1-0.1,0.3-0.2,0.4-0.3c0.2-0.1,0.3-0.1,0.5-0.1c0.3,0,0.5,0.1,0.8,0.2c0.2,0.2,0.4,0.4,0.5,0.7l3.7,8.8l3.7-8.9
				c0.1-0.3,0.3-0.5,0.5-0.6c0.2-0.2,0.5-0.2,0.8-0.2c0.2,0,0.4,0,0.5,0.1s0.3,0.2,0.4,0.3c0.1,0.1,0.2,0.3,0.3,0.4
				c0.1,0.2,0.1,0.3,0.1,0.5c0,0.2,0,0.4-0.1,0.6l-7.6,18.2c-0.1,0.3-0.3,0.5-0.5,0.7c-0.2,0.2-0.5,0.3-0.8,0.3
				c-0.4,0-0.7-0.1-1-0.4c-0.3-0.3-0.4-0.6-0.4-1c0-0.2,0-0.4,0.1-0.6L590.6,57.1z"/>
			<path fill="#DB3B26" d="M519.3,89.5V71.2c0-0.2,0-0.4,0.1-0.5c0.1-0.2,0.2-0.3,0.3-0.4c0.1-0.1,0.3-0.2,0.4-0.3s0.4-0.1,0.6-0.1
				c0.5,0,1,0.2,1.2,0.8l7.9,15.8l7.9-15.8c0.3-0.5,0.7-0.8,1.2-0.8c0.2,0,0.4,0,0.5,0.1c0.2,0.1,0.3,0.2,0.4,0.3
				c0.1,0.1,0.2,0.3,0.3,0.4c0.1,0.2,0.1,0.4,0.1,0.5v18.3c0,0.4-0.1,0.7-0.4,1c-0.3,0.3-0.6,0.4-1,0.4s-0.7-0.1-1-0.4
				s-0.4-0.6-0.4-1V77.1L531,90.2c-0.3,0.5-0.7,0.7-1.2,0.7c-0.6,0-1-0.3-1.3-0.8l-6.5-12.9v12.4c0,0.4-0.1,0.7-0.4,1
				c-0.3,0.3-0.6,0.4-1,0.4s-0.7-0.1-1-0.4S519.3,89.9,519.3,89.5z"/>
			<path fill="#DB3B26" d="M554.5,89.5v-0.3c-0.7,0.5-1.4,0.9-2.1,1.2s-1.6,0.4-2.5,0.4c-2,0-3.8-0.7-5.2-2.2s-2.2-3.2-2.2-5.2
				s0.7-3.8,2.2-5.2s3.2-2.2,5.2-2.2c2,0,3.8,0.7,5.2,2.2c1.4,1.4,2.2,3.2,2.2,5.2v6c0,0.4-0.1,0.7-0.4,1c-0.3,0.3-0.6,0.4-1,0.4
				c-0.4,0-0.7-0.1-1-0.4C554.6,90.2,554.5,89.9,554.5,89.5z M549.9,78.9c-0.7,0-1.3,0.1-1.8,0.4s-1.1,0.6-1.5,1
				c-0.4,0.4-0.7,0.9-1,1.5c-0.2,0.6-0.4,1.2-0.4,1.8s0.1,1.2,0.4,1.8c0.2,0.6,0.6,1.1,1,1.5c0.4,0.4,0.9,0.8,1.5,1
				c0.6,0.2,1.2,0.4,1.8,0.4c0.6,0,1.2-0.1,1.8-0.4c0.6-0.2,1.1-0.6,1.5-1c0.4-0.4,0.7-0.9,1-1.5c0.2-0.6,0.4-1.2,0.4-1.8
				s-0.1-1.2-0.4-1.8c-0.2-0.6-0.6-1-1-1.5c-0.4-0.4-0.9-0.8-1.5-1C551.1,79,550.5,78.9,549.9,78.9z"/>
			<path fill="#DB3B26" d="M566.7,90.9c-1.8,0-3.3-0.5-4.6-1.6v6.6c0,0.4-0.1,0.7-0.4,1c-0.3,0.3-0.6,0.4-1,0.4
				c-0.4,0-0.7-0.1-1-0.4c-0.3-0.3-0.4-0.6-0.4-1V83.5c0-2,0.7-3.8,2.2-5.2s3.2-2.2,5.2-2.2c2,0,3.8,0.7,5.2,2.2
				c0.7,0.7,1.3,1.5,1.6,2.4c0.4,0.9,0.5,1.8,0.5,2.8c0,2.1-0.7,3.8-2.2,5.2c-0.7,0.7-1.5,1.3-2.4,1.6
				C568.7,90.7,567.7,90.9,566.7,90.9z M562.1,83.5c0,0.6,0.1,1.2,0.4,1.8c0.2,0.6,0.6,1.1,1,1.5c0.4,0.4,0.9,0.8,1.5,1
				c0.6,0.2,1.2,0.4,1.8,0.4c0.6,0,1.2-0.1,1.8-0.4c0.6-0.2,1.1-0.6,1.5-1c0.4-0.4,0.7-0.9,1-1.5c0.2-0.6,0.4-1.2,0.4-1.8
				s-0.1-1.2-0.4-1.8c-0.2-0.6-0.6-1-1-1.5c-0.4-0.4-0.9-0.8-1.5-1c-0.6-0.2-1.2-0.4-1.8-0.4c-0.7,0-1.3,0.1-1.8,0.4s-1.1,0.6-1.5,1
				c-0.4,0.4-0.7,0.9-1,1.5C562.2,82.3,562.1,82.9,562.1,83.5z"/>
			<path fill="#DB3B26" d="M576.1,89.5V71.2c0-0.4,0.1-0.7,0.4-1c0.3-0.3,0.6-0.4,1-0.4s0.7,0.1,1,0.4c0.3,0.3,0.4,0.6,0.4,1v17h0.6
				c0.4,0,0.7,0.1,1,0.4c0.3,0.3,0.4,0.6,0.4,1c0,0.4-0.1,0.7-0.4,1c-0.3,0.3-0.6,0.4-1,0.4h-2c-0.4,0-0.7-0.1-1-0.4
				C576.2,90.2,576.1,89.9,576.1,89.5z"/>
			<path fill="#DB3B26" d="M593.8,86.7c0.4,0,0.7,0.1,1,0.4c0.3,0.3,0.4,0.6,0.4,1c0,0.4-0.1,0.7-0.4,1c-1.4,1.2-3,1.8-4.8,1.8
				c-2,0-3.8-0.7-5.2-2.2s-2.2-3.2-2.2-5.2s0.7-3.8,2.2-5.2s3.2-2.2,5.2-2.2c2,0,3.8,0.7,5.2,2.2c0.7,0.7,1.3,1.5,1.6,2.4
				c0.4,0.9,0.5,1.8,0.5,2.8c0,0.4-0.1,0.7-0.4,1c-0.3,0.3-0.6,0.4-1,0.4h-10.4c0.1,0.5,0.4,0.9,0.7,1.3c0.3,0.4,0.6,0.7,1,1
				c0.4,0.3,0.8,0.5,1.3,0.7c0.5,0.2,1,0.2,1.5,0.2c0.6,0,1.1-0.1,1.6-0.3c0.5-0.2,0.9-0.4,1.3-0.8
				C593.1,86.8,593.4,86.7,593.8,86.7z M594.4,82.1c-0.2-0.5-0.4-0.9-0.7-1.3c-0.3-0.4-0.6-0.7-1-1c-0.4-0.3-0.8-0.5-1.3-0.7
				c-0.5-0.2-1-0.2-1.5-0.2s-1,0.1-1.5,0.2s-0.9,0.4-1.3,0.7c-0.4,0.3-0.7,0.6-1,1c-0.3,0.4-0.5,0.8-0.6,1.3H594.4z"/>
			<path fill="#DB3B26" d="M610,83.8c-0.8-0.3-1.4-0.6-1.7-1h0c-0.7-0.7-1-1.5-1-2.4c0-0.7,0.2-1.3,0.5-1.8c0.4-0.5,0.8-1,1.4-1.4
				s1.2-0.7,1.9-0.9c0.7-0.2,1.4-0.3,2.2-0.3c2.2,0,4.1,0.9,5.7,2.7c0.2,0.2,0.3,0.5,0.3,0.8c0,0.4-0.1,0.7-0.4,1
				c-0.3,0.3-0.6,0.4-1,0.4c-0.3,0-0.5-0.1-0.7-0.2c-0.2-0.2-0.4-0.3-0.6-0.5c-0.9-0.9-2-1.3-3.3-1.3c-1.3,0-2.3,0.4-3,1.2
				c-0.1,0.1-0.2,0.3-0.2,0.6s0.1,0.4,0.3,0.5l6.2,2c0.9,0.3,1.4,0.7,1.7,1h0c0.7,0.7,1,1.5,1,2.4c0,0.7-0.2,1.3-0.5,1.8
				c-0.4,0.5-0.8,1-1.4,1.4c-0.6,0.4-1.2,0.7-1.9,0.9s-1.4,0.3-2.1,0.3c-2.2,0-4.1-0.9-5.7-2.6c-0.2-0.3-0.3-0.5-0.3-0.9
				c0-0.4,0.1-0.7,0.4-1c0.3-0.3,0.6-0.4,1-0.4c0.3,0,0.5,0.1,0.7,0.3c0.2,0.2,0.4,0.3,0.6,0.5c0.9,0.9,2,1.3,3.3,1.3
				c1.3,0,2.3-0.4,3-1.2c0.1-0.1,0.2-0.3,0.2-0.5c0-0.2-0.1-0.4-0.4-0.5L610,83.8z"/>
			<path fill="#DB3B26" d="M626.2,89.5l-4.7-11.4c-0.1-0.2-0.1-0.4-0.1-0.6c0-0.2,0-0.4,0.1-0.5s0.2-0.3,0.3-0.4
				c0.1-0.1,0.3-0.2,0.4-0.3c0.2-0.1,0.3-0.1,0.5-0.1c0.3,0,0.5,0.1,0.8,0.2c0.2,0.2,0.4,0.4,0.5,0.7l3.7,8.8l3.7-8.9
				c0.1-0.3,0.3-0.5,0.5-0.6c0.2-0.2,0.5-0.2,0.8-0.2c0.2,0,0.4,0,0.5,0.1s0.3,0.2,0.4,0.3c0.1,0.1,0.2,0.3,0.3,0.4
				c0.1,0.2,0.1,0.3,0.1,0.5c0,0.2,0,0.4-0.1,0.6l-7.6,18.2c-0.1,0.3-0.3,0.5-0.5,0.7c-0.2,0.2-0.5,0.3-0.8,0.3
				c-0.4,0-0.7-0.1-1-0.4c-0.3-0.3-0.4-0.6-0.4-1c0-0.2,0-0.4,0.1-0.6L626.2,89.5z"/>
			<path fill="#DB3B26" d="M638.8,77.5v0.3c0.7-0.5,1.4-0.9,2.1-1.2s1.6-0.4,2.5-0.4c0.4,0,0.8,0,1.2,0.1c0.4,0.1,0.9,0.1,1.2,0.3
				c0.4,0.1,0.7,0.3,0.9,0.6s0.4,0.5,0.4,0.9c0,0.2,0,0.4-0.1,0.5c-0.1,0.2-0.2,0.3-0.3,0.4c-0.1,0.1-0.3,0.2-0.4,0.3
				s-0.3,0.1-0.5,0.1c-0.2,0-0.4,0-0.6-0.1c-0.6-0.2-1.2-0.3-1.8-0.3c-0.6,0-1.2,0.1-1.8,0.4c-0.6,0.2-1.1,0.6-1.5,1
				c-0.4,0.4-0.7,0.9-1,1.5c-0.2,0.6-0.4,1.2-0.4,1.8v6c0,0.4-0.1,0.7-0.4,1c-0.3,0.3-0.6,0.4-1,0.4c-0.4,0-0.7-0.1-1-0.4
				c-0.3-0.3-0.4-0.6-0.4-1v-12c0-0.4,0.1-0.7,0.4-1c0.3-0.3,0.6-0.4,1-0.4c0.4,0,0.7,0.1,1,0.4C638.6,76.8,638.8,77.1,638.8,77.5z"
				/>
			<path fill="#DB3B26" d="M661.1,90.9c-0.4,0-0.7-0.1-1-0.4s-0.4-0.6-0.4-1c-0.6,0.5-1.2,0.8-1.9,1c-0.7,0.2-1.4,0.3-2.2,0.3
				c-0.9,0-1.8-0.2-2.7-0.5c-0.8-0.4-1.6-0.9-2.2-1.5c-0.6-0.6-1.1-1.4-1.5-2.2c-0.4-0.8-0.5-1.7-0.5-2.7v-6.5c0-0.4,0.1-0.7,0.4-1
				c0.3-0.3,0.6-0.4,1-0.4c0.4,0,0.7,0.1,1,0.4c0.3,0.3,0.4,0.6,0.4,1V84c0,0.6,0.1,1.1,0.3,1.6c0.2,0.5,0.5,0.9,0.9,1.3
				c0.4,0.4,0.8,0.7,1.3,0.9c0.5,0.2,1,0.3,1.6,0.3c0.6,0,1.1-0.1,1.6-0.3c0.5-0.2,0.9-0.5,1.3-0.9c0.4-0.4,0.7-0.8,0.9-1.3
				c0.2-0.5,0.3-1,0.3-1.6v-6.5c0-0.4,0.1-0.7,0.4-1c0.3-0.3,0.6-0.4,1-0.4c0.4,0,0.7,0.1,1,0.4c0.3,0.3,0.4,0.6,0.4,1v12
				c0,0.4-0.1,0.7-0.4,1C661.8,90.7,661.5,90.9,661.1,90.9z"/>
			<path fill="#DB3B26" d="M671.9,90.9c-1.8,0-3.3-0.5-4.6-1.6v6.6c0,0.4-0.1,0.7-0.4,1c-0.3,0.3-0.6,0.4-1,0.4
				c-0.4,0-0.7-0.1-1-0.4c-0.3-0.3-0.4-0.6-0.4-1V83.5c0-2,0.7-3.8,2.2-5.2s3.2-2.2,5.2-2.2c2,0,3.8,0.7,5.2,2.2
				c0.7,0.7,1.3,1.5,1.6,2.4c0.4,0.9,0.5,1.8,0.5,2.8c0,2.1-0.7,3.8-2.2,5.2c-0.7,0.7-1.5,1.3-2.4,1.6
				C673.9,90.7,672.9,90.9,671.9,90.9z M667.3,83.5c0,0.6,0.1,1.2,0.4,1.8c0.2,0.6,0.6,1.1,1,1.5c0.4,0.4,0.9,0.8,1.5,1
				c0.6,0.2,1.2,0.4,1.8,0.4c0.6,0,1.2-0.1,1.8-0.4c0.6-0.2,1.1-0.6,1.5-1c0.4-0.4,0.7-0.9,1-1.5c0.2-0.6,0.4-1.2,0.4-1.8
				s-0.1-1.2-0.4-1.8c-0.2-0.6-0.6-1-1-1.5c-0.4-0.4-0.9-0.8-1.5-1c-0.6-0.2-1.2-0.4-1.8-0.4c-0.7,0-1.3,0.1-1.8,0.4s-1.1,0.6-1.5,1
				c-0.4,0.4-0.7,0.9-1,1.5C667.4,82.3,667.3,82.9,667.3,83.5z"/>
		</g>
		<line fill="none" stroke="#DB3B26" stroke-width="6" stroke-miterlimit="10" x1="0" y1="59.8" x2="481" y2="59.8"/>
	</g>
	<g>
		<g>
			<path fill="#DB3B26" d="M265.7,2.8c0-0.8,0.3-1.4,0.8-2c0.5-0.5,1.2-0.8,2-0.8c0.8,0,1.4,0.3,2,0.8c0.5,0.5,0.8,1.2,0.8,2v33.8
				h19.5c0.8,0,1.4,0.3,2,0.8c0.5,0.5,0.8,1.2,0.8,2s-0.3,1.4-0.8,2s-1.2,0.8-2,0.8h-22.3c-0.4,0-0.8-0.1-1.1-0.2
				c-0.3-0.1-0.6-0.3-0.9-0.6c-0.3-0.3-0.5-0.5-0.6-0.9c-0.1-0.3-0.2-0.7-0.2-1.1V2.8z"/>
			<path fill="#DB3B26" d="M304.9,7.4c0,0.9-0.3,1.7-0.9,2.3c-0.6,0.6-1.4,0.9-2.3,0.9s-1.7-0.3-2.3-0.9c-0.6-0.6-0.9-1.4-0.9-2.3
				s0.3-1.7,0.9-2.3c0.6-0.6,1.4-0.9,2.3-0.9s1.7,0.3,2.3,0.9C304.5,5.7,304.9,6.5,304.9,7.4z M298.9,39.4v-24c0-0.8,0.3-1.4,0.8-2
				c0.5-0.5,1.2-0.8,1.9-0.8s1.4,0.3,1.9,0.8c0.5,0.5,0.8,1.2,0.8,2v24c0,0.8-0.3,1.4-0.8,2c-0.5,0.5-1.2,0.8-1.9,0.8
				s-1.4-0.3-1.9-0.8C299.2,40.8,298.9,40.1,298.9,39.4z"/>
			<path fill="#DB3B26" d="M326.4,5.5c-4.8,0-7.3,2.4-7.3,7.2v1.4h5.3c0.8,0,1.4,0.3,1.9,0.8c0.5,0.5,0.8,1.2,0.8,1.9
				c0,0.8-0.3,1.4-0.8,2c-0.5,0.5-1.2,0.8-1.9,0.8h-5.3v19.8c0,0.4-0.1,0.7-0.2,1.1s-0.3,0.6-0.6,0.9c-0.2,0.3-0.5,0.5-0.9,0.6
				c-0.3,0.1-0.7,0.2-1.1,0.2c-0.4,0-0.7-0.1-1.1-0.2c-0.3-0.1-0.6-0.3-0.9-0.6c-0.2-0.3-0.4-0.5-0.6-0.9c-0.1-0.3-0.2-0.7-0.2-1.1
				V19.6h-1.3c-0.8,0-1.4-0.3-2-0.8c-0.5-0.5-0.8-1.2-0.8-2c0-0.8,0.3-1.4,0.8-2c0.5-0.5,1.2-0.8,2-0.8h1.3v-1.4
				c0-8.5,4.2-12.7,12.7-12.7c0.8,0,1.4,0.3,1.9,0.8c0.5,0.5,0.8,1.2,0.8,1.9c0,0.8-0.3,1.4-0.8,2C327.8,5.3,327.2,5.5,326.4,5.5z"
				/>
			<path fill="#DB3B26" d="M353.6,33.8c0.8,0,1.4,0.3,2,0.8c0.5,0.5,0.8,1.2,0.8,2c0,0.8-0.3,1.4-0.8,2c-2.7,2.4-5.9,3.6-9.6,3.6
				c-4.1,0-7.6-1.4-10.4-4.3s-4.3-6.4-4.3-10.4c0-4.1,1.4-7.5,4.3-10.4c2.9-2.9,6.4-4.3,10.4-4.3c4,0,7.5,1.4,10.4,4.3
				c1.4,1.4,2.5,3,3.2,4.8c0.7,1.7,1.1,3.6,1.1,5.7c0,0.8-0.3,1.4-0.8,2c-0.5,0.5-1.2,0.8-2,0.8H337c0.3,1,0.7,1.8,1.3,2.6
				c0.6,0.8,1.3,1.5,2,2.1c0.8,0.6,1.6,1,2.6,1.3c0.9,0.3,1.9,0.5,2.9,0.5c1.2,0,2.2-0.2,3.2-0.5c1-0.4,1.9-0.9,2.7-1.6
				C352.3,34.1,352.9,33.9,353.6,33.8z M354.8,24.7c-0.3-1-0.7-1.8-1.3-2.6c-0.6-0.8-1.3-1.5-2.1-2.1s-1.6-1-2.6-1.3
				c-0.9-0.3-1.9-0.5-2.9-0.5s-2,0.2-2.9,0.5c-0.9,0.3-1.8,0.8-2.6,1.3s-1.5,1.3-2.1,2.1c-0.6,0.8-1,1.7-1.3,2.6H354.8z"/>
			<path fill="#DB3B26" d="M367.4,12.6h1.2V2.7c0-0.8,0.3-1.4,0.8-1.9c0.5-0.5,1.2-0.8,2-0.8c0.8,0,1.4,0.3,1.9,0.8
				c0.5,0.5,0.8,1.2,0.8,1.9v9.9h3.3c0.8,0,1.4,0.3,1.9,0.8c0.5,0.5,0.8,1.2,0.8,1.9c0,0.8-0.3,1.4-0.8,2c-0.5,0.5-1.2,0.8-1.9,0.8
				h-3.3v13.2c0,3.5,1.8,5.2,5.3,5.2c0.8,0,1.4,0.3,1.9,0.8c0.5,0.5,0.8,1.2,0.8,1.9c0,0.8-0.3,1.4-0.8,2c-0.5,0.5-1.2,0.8-1.9,0.8
				c-7.2,0-10.8-3.6-10.8-10.7V18.1h-1.2c-0.7,0-1.4-0.3-1.9-0.8c-0.5-0.5-0.8-1.2-0.8-2c0-0.8,0.3-1.4,0.8-1.9
				C366,12.9,366.7,12.6,367.4,12.6z"/>
			<path fill="#DB3B26" d="M393.4,7.4c0,0.9-0.3,1.7-0.9,2.3c-0.6,0.6-1.4,0.9-2.3,0.9s-1.7-0.3-2.3-0.9c-0.6-0.6-0.9-1.4-0.9-2.3
				s0.3-1.7,0.9-2.3c0.6-0.6,1.4-0.9,2.3-0.9s1.7,0.3,2.3,0.9C393,5.7,393.4,6.5,393.4,7.4z M387.4,39.4v-24c0-0.8,0.3-1.4,0.8-2
				c0.5-0.5,1.2-0.8,1.9-0.8s1.4,0.3,1.9,0.8c0.5,0.5,0.8,1.2,0.8,2v24c0,0.8-0.3,1.4-0.8,2c-0.5,0.5-1.2,0.8-1.9,0.8
				s-1.4-0.3-1.9-0.8C387.7,40.8,387.4,40.1,387.4,39.4z"/>
			<path fill="#DB3B26" d="M440.2,39.4c0,0.8-0.3,1.4-0.8,2c-0.5,0.5-1.2,0.8-1.9,0.8c-0.8,0-1.4-0.3-1.9-0.8
				c-0.5-0.5-0.8-1.2-0.8-2v-15c0-0.8-0.2-1.6-0.5-2.4s-0.8-1.4-1.3-2s-1.2-1-2-1.4c-0.8-0.3-1.6-0.5-2.5-0.5
				c-0.9,0-1.7,0.2-2.4,0.5c-0.8,0.3-1.4,0.8-2,1.3c-0.6,0.6-1,1.2-1.3,2c-0.3,0.8-0.5,1.6-0.5,2.4v15c0,0.8-0.3,1.4-0.8,2
				c-0.5,0.5-1.2,0.8-1.9,0.8c-0.8,0-1.4-0.3-2-0.8c-0.5-0.5-0.8-1.2-0.8-2v-15c0-0.9-0.2-1.7-0.5-2.4c-0.3-0.8-0.8-1.4-1.3-2
				c-0.6-0.6-1.2-1-2-1.3c-0.8-0.3-1.6-0.5-2.4-0.5c-0.9,0-1.7,0.2-2.4,0.5c-0.8,0.3-1.4,0.8-2,1.3s-1,1.2-1.3,2
				c-0.3,0.8-0.5,1.6-0.5,2.4v15c0,0.8-0.3,1.4-0.8,2c-0.5,0.5-1.2,0.8-1.9,0.8c-0.8,0-1.4-0.3-2-0.8c-0.5-0.5-0.8-1.2-0.8-2v-24
				c0-0.8,0.3-1.4,0.8-1.9c0.5-0.5,1.2-0.8,1.9-0.8c0.6,0,1.2,0.2,1.6,0.5c0.5,0.3,0.8,0.8,1,1.4c1.9-1.2,4-1.9,6.4-1.9
				c1.8,0,3.4,0.3,5,1c1.5,0.7,2.9,1.7,4.1,3.1c2.4-2.8,5.4-4.2,9-4.2c1.6,0,3.1,0.3,4.5,0.9c1.4,0.6,2.7,1.5,3.7,2.5
				c1.1,1.1,1.9,2.3,2.5,3.7c0.6,1.4,0.9,2.9,0.9,4.5V39.4z"/>
			<path fill="#DB3B26" d="M467.4,33.8c0.8,0,1.4,0.3,2,0.8c0.5,0.5,0.8,1.2,0.8,2c0,0.8-0.3,1.4-0.8,2c-2.7,2.4-5.9,3.6-9.6,3.6
				c-4.1,0-7.6-1.4-10.4-4.3s-4.3-6.4-4.3-10.4c0-4.1,1.4-7.5,4.3-10.4c2.9-2.9,6.4-4.3,10.4-4.3c4,0,7.5,1.4,10.4,4.3
				c1.4,1.4,2.5,3,3.2,4.8c0.7,1.7,1.1,3.6,1.1,5.7c0,0.8-0.3,1.4-0.8,2c-0.5,0.5-1.2,0.8-2,0.8h-20.9c0.3,1,0.7,1.8,1.3,2.6
				c0.6,0.8,1.3,1.5,2,2.1c0.8,0.6,1.6,1,2.6,1.3c0.9,0.3,1.9,0.5,2.9,0.5c1.2,0,2.2-0.2,3.2-0.5c1-0.4,1.9-0.9,2.7-1.6
				C466.1,34.1,466.7,33.9,467.4,33.8z M468.5,24.7c-0.3-1-0.7-1.8-1.3-2.6c-0.6-0.8-1.3-1.5-2.1-2.1s-1.6-1-2.6-1.3
				c-0.9-0.3-1.9-0.5-2.9-0.5s-2,0.2-2.9,0.5c-0.9,0.3-1.8,0.8-2.6,1.3s-1.5,1.3-2.1,2.1c-0.6,0.8-1,1.7-1.3,2.6H468.5z"/>
		</g>
	</g>
</g>
</svg>
