<!-- Generator: Adobe Illustrator 18.0.0, SVG Export Plug-In  -->
<svg version="1.1"
	 xmlns="http://www.w3.org/2000/svg" xmlns:xlink="http://www.w3.org/1999/xlink" xmlns:a="http://ns.adobe.com/AdobeSVGViewerExtensions/3.0/"
	 x="0px" y="0px" width="83.5px" height="331.5px" viewBox="0 0 83.5 331.5" enable-background="new 0 0 83.5 331.5"
	 xml:space="preserve">
<defs>
</defs>
<g>
	
		<ellipse fill="none" stroke="#D6684D" stroke-width="6" stroke-miterlimit="10" stroke-dasharray="13.9877,7.5318" cx="41.8" cy="29.7" rx="36.6" ry="10.7"/>
	
		<ellipse fill="none" stroke="#D6684D" stroke-width="6" stroke-miterlimit="10" stroke-dasharray="13.9877,7.5318" cx="41.8" cy="127.9" rx="13.7" ry="4"/>
	<path fill="none" stroke="#D6684D" stroke-width="6" stroke-miterlimit="10" stroke-dasharray="13.9877,7.5318" d="M62.9,52.8
		l17-24L62.4,3H22L3.7,28.8l16.6,24.5l12.7,140.2l0.9,11.3h0.4c0,0.2-0.1,0.4-0.1,0.6v117.8c0,2.9,3.5,5.3,7.8,5.3
		c4.3,0,7.8-2.4,7.8-5.3V205.4c0-0.2,0-0.4-0.1-0.6h0.5l2.7-37.1L62.9,52.8z M23,55.7"/>
</g>
</svg>
