<!-- Generator: Adobe Illustrator 18.0.0, SVG Export Plug-In  -->
<svg version="1.1"
	 xmlns="http://www.w3.org/2000/svg" xmlns:xlink="http://www.w3.org/1999/xlink" xmlns:a="http://ns.adobe.com/AdobeSVGViewerExtensions/3.0/"
	 x="0px" y="0px" width="89.7px" height="379.1px" viewBox="0 0 89.7 379.1" enable-background="new 0 0 89.7 379.1"
	 xml:space="preserve">
<defs>
</defs>
<g>
	<polygon fill="#616464" points="45.1,92.1 25,97.7 24,94 44.1,88.4 	"/>
	<polygon fill="#616464" points="44,92.1 64.1,97.7 65.1,94 44.9,88.4 	"/>
	<polygon fill="#616464" points="38.3,41.1 35.7,41.1 38.9,11 41.5,11 	"/>
	<polygon fill="#616464" points="3,28.3 0.4,28.3 20,4.7 21.3,6.2 	"/>
	<polygon fill="#616464" points="15,20.2 12.4,20.2 23.1,3.1 24.9,2.4 	"/>
	<polygon fill="#616464" points="22.9,18.8 20.2,18.8 30.4,1.2 32.8,0.9 	"/>
	<polygon fill="#616464" points="31.6,17.6 29,17.6 37.4,0.5 39.8,0.2 	"/>
	<polygon fill="#616464" points="38.3,16.9 35.7,16.9 42.9,0 45.2,0.2 	"/>
	<polygon fill="#616464" points="74.6,20.6 77.2,20.6 66.5,3.4 64.7,2.7 	"/>
	<polygon fill="#616464" points="66.7,19.1 69.4,19.1 59.2,1.5 56.8,1.2 	"/>
	<polygon fill="#616464" points="58,17.9 60.6,17.9 52.2,0.9 49.8,0.6 	"/>
	<polygon fill="#616464" points="51.3,17.2 53.9,17.2 46.7,0.3 44.3,0.6 	"/>
	<polygon fill="#616464" points="8,35.3 5,35.3 23.5,7.9 25.8,8.9 	"/>
	<polygon fill="#616464" points="19.9,39.9 17.3,39.9 29.1,9.8 31.6,10.3 	"/>
	<polygon fill="#616464" points="29.1,40.6 26.5,40.6 34.8,10.8 37.4,10.8 	"/>
	<polygon fill="#616464" points="86.6,28.3 89.3,28.3 69.7,4.7 68.4,6.2 	"/>
	<polygon fill="#616464" points="81.6,35.3 84.7,35.3 66.2,7.9 63.8,8.9 	"/>
	<polygon fill="#616464" points="69.8,39.9 72.4,39.9 60.5,9.8 58.1,10.3 	"/>
	<polygon fill="#616464" points="60.5,40.6 63.1,40.6 54.8,10.8 52.2,10.8 	"/>
	<polygon fill="#616464" points="51.4,41.1 54,41.1 50.7,11 48.1,11 	"/>
	<polygon fill="#616464" points="45.8,41.8 43.2,41.8 43.3,1.8 46,1.8 	"/>
	<rect x="43.4" y="54.8" fill="#616464" width="3.3" height="177.7"/>
	<ellipse fill="none" stroke="#616464" stroke-width="3.5954" stroke-miterlimit="10" cx="44.6" cy="28.4" rx="42.8" ry="12.7"/>
	<ellipse opacity="0.5" fill="#55C4C6" cx="44.3" cy="28.4" rx="42.8" ry="12.7"/>
	<polygon fill="#616464" points="3.4,29.2 0.8,29.2 20.4,52.8 21.7,51.3 	"/>
	<polygon fill="#616464" points="15.4,37.3 12.8,37.3 23.5,54.4 25.4,55.1 	"/>
	<polygon fill="#616464" points="23.3,38.7 20.7,38.7 30.8,56.3 33.2,56.6 	"/>
	<polygon fill="#616464" points="32,39.9 29.4,39.9 37.8,57 40.2,57.3 	"/>
	<polygon fill="#616464" points="38.7,40.6 36.1,40.6 43.3,57.5 45.7,57.3 	"/>
	<polygon fill="#616464" points="75,36.9 77.6,36.9 66.9,54.1 65.1,54.8 	"/>
	<polygon fill="#616464" points="67.2,38.4 69.8,38.4 59.6,56 57.2,56.2 	"/>
	<polygon fill="#616464" points="58.4,39.6 61,39.6 52.6,56.6 50.2,56.9 	"/>
	<polygon fill="#616464" points="51.7,40.3 54.4,40.3 47.1,57.2 44.8,56.9 	"/>
	<polygon fill="#616464" points="8.4,22.2 5.4,22.2 23.9,49.6 26.3,48.6 	"/>
	<polygon fill="#616464" points="20.3,17.6 17.7,17.6 29.5,47.7 32,47.2 	"/>
	<polygon fill="#616464" points="29.6,16.9 26.9,16.9 35.3,46.7 37.9,46.7 	"/>
	<polygon fill="#616464" points="87.1,29.2 89.7,29.2 70.1,52.8 68.8,51.3 	"/>
	<polygon fill="#616464" points="82.1,22.2 85.1,22.2 66.6,49.6 64.2,48.6 	"/>
	<polygon fill="#616464" points="70.2,17.6 72.8,17.6 60.9,47.7 58.5,47.2 	"/>
	<polygon fill="#616464" points="60.9,16.9 63.6,16.9 55.2,46.7 52.6,46.7 	"/>
	<polygon fill="#616464" points="51.8,16.4 54.4,16.4 51.2,46.5 48.5,46.5 	"/>
	<polygon fill="#616464" points="46.2,15.7 43.6,15.7 43.8,55.7 46.4,55.7 	"/>
	<polygon fill="#616464" points="38.7,16.4 36.1,16.4 39.3,46.5 42,46.5 	"/>
	<path opacity="0.5" fill="#55C4C6" d="M20.7,51.9c0,0-3.2,6.8,23.6,6.7c26.8-0.1,25.5-7.2,25.5-7.2L57.3,176l-22.6,0.6L20.7,51.9z"
		/>
	
		<ellipse opacity="0.5" fill="#55C4C6" stroke="#000000" stroke-width="0.7191" stroke-miterlimit="10" cx="45" cy="52" rx="23.9" ry="6.6"/>
	<polygon fill="#616464" points="38.8,228.8 35.8,229.1 20,51.7 23,51.4 	"/>
	<polygon fill="#616464" points="51.7,228.8 54.6,229.1 70.4,51.7 67.4,51.4 	"/>
	<path fill="#616464" d="M28.9,141.8c0,0-0.9-8.5,16.2-8.5s16.6,7.9,16.6,7.9l-6.6,91H35.9L28.9,141.8z"/>
	<path fill="#616464" d="M54.5,372.8c0,3.5-4.1,6.3-9.1,6.3l0,0c-5,0-9.1-2.8-9.1-6.3v-140c0-3.5,4.1-6.3,9.1-6.3l0,0
		c5,0,9.1,2.8,9.1,6.3V372.8z"/>
	
		<rect x="25.9" y="96.8" transform="matrix(1 -9.400780e-03 9.400780e-03 1 -0.9283 0.4274)" fill="#616464" width="38.2" height="4.3"/>
</g>
</svg>
