<!-- Generator: Adobe Illustrator 18.0.0, SVG Export Plug-In  -->
<svg version="1.1"
	 xmlns="http://www.w3.org/2000/svg" xmlns:xlink="http://www.w3.org/1999/xlink" xmlns:a="http://ns.adobe.com/AdobeSVGViewerExtensions/3.0/"
	 x="0px" y="0px" width="1060.1px" height="191.8px" viewBox="0 0 1060.1 191.8" enable-background="new 0 0 1060.1 191.8"
	 xml:space="preserve">
<defs>
</defs>
<g>
	<g>
		<path fill="#F4F3F4" d="M211.8,0.6c92.4-2.4,182.4,3.5,274.8,1.3c14.1-0.5,40.6,9.5,49.3,0c0,0,12.5-3.1,30.6,0
			c113.8,3,228.1-2.5,341.9,0.5c17.1-0.8,32.2,9.8,46.8,19.3c40.9,27.3,73.5,73.2,86.9,127.5c-0.2,1.4-0.6,4.2-0.9,5.6
			c-43.5-0.2-87,0.1-130.5-0.2c-7.5-0.1-14.9,0.6-22.3,1.3c0.2-45.6,0.1-91.2,0-136.8c-33.2-0.2-66.3,0.1-99.5-0.2
			c-2.5,0-5.1,0-7.6,0.1c-33.5,0-66.9,0.1-100.4,0c-1.7,0-5,0-6.7,0c-33.2,0.2-66.5,0-99.7,0c-2,0-6.1,0.1-8,0.1
			c0,45.6,0,91.2,0,136.8c-26.5-1.9-53.2-1.8-79.6,0c-0.5-45.6,0-91.2-0.3-136.9c-3.2-0.1-6.4-0.2-9.6-0.2
			C444.3,19.1,411.6,19,379,19c-1.8,0-5.5,0-7.3,0c-33.5,0.1-67,0.1-100.5,0c-1.8,0-5.3,0.1-7.1,0.1c-33.2-0.4-66.4,0.6-99.5-0.5
			c-0.5,44.9-0.6,89.9-0.2,134.8c-8.6,1.7-17.3,1.7-26,1.4c-43.1-0.4-86.2,0.1-129.3-0.1c11.2-45.4,34.1-86.6,65.8-114.9
			c17.2-15,35.7-29,56.3-35.9C148.6,0.9,207.9,0.5,211.8,0.6z M96.8,41.2C77.6,55.3,59.5,72.3,45.3,93.5c31.6-0.1,63.2,0,94.8-0.1
			c0-24.9-0.1-49.9,0-74.8C124.4,21.7,110.5,31.9,96.8,41.2z M912.7,18.3c-0.3,25.1-0.4,50.2,0,75.3c31.6-0.3,63.1,0.1,94.7-0.2
			c-13.1-19-28.9-35.2-46.1-48.6C946.1,33.7,930.3,22.8,912.7,18.3z"/>
	</g>
	<g>
		<path fill="#D7D648" d="M164.4,153.3c-0.5-44.9-0.4-89.9,0.2-134.8c33.2,1.2,66.4,0.1,99.5,0.5c-0.2,45.7,0,91.4,0.1,137.2
			c-33.2,0-66.4,0.1-99.5,0C164.5,155.5,164.4,154.1,164.4,153.3z M173.7,26.5c-1.5,11.4-1.9,23-1.3,34.5c-0.1,9.4,4.9,17.2,7,25.9
			c23.1,1.9,46.5,1.4,69.7,0.4c2.6-9.6,8-18.5,7.5-28.9c0.1-10.4-0.3-20.7-0.7-31.1c-10.5-4.7-21.8-2.4-32.8-2.8
			C206.7,25.1,190,22.6,173.7,26.5z"/>
	</g>
	<g>
		<path fill="#D7D648" d="M271.2,18.9c33.5,0.1,67,0.1,100.5,0c0,45.8,0.2,91.5-0.2,137.3c-33.6,0.1-67.1,0.1-100.7,0
			C271.6,110.5,271.1,64.7,271.2,18.9z M279.4,32.7c1.1,11.3,0.1,22.6,0.8,34c1.4,7.6,4.9,14.2,7.7,21.1c22.5,0.4,44.9,0.1,67.4,0.2
			c3.5-9.5,9.1-18.7,8.4-29.6c-0.2-10.6,0.7-21.5-1.6-31.8c-5.1-1.2-10.2-2.4-15.4-2.2c-19.8,0.2-39.7-0.1-59.5,0.1
			C282.9,23.5,281.5,29.4,279.4,32.7z"/>
	</g>
	<g>
		<path fill="#D7D648" d="M379,19c32.7,0,65.4,0.1,98.1-0.1c3.1,11,1.7,22.6,1.8,34c0.1,34.5-0.2,68.9,0.1,103.4
			c-33.5,0-66.9,0.1-100.4-0.1C379.6,110.5,378.9,64.7,379,19z M387.5,30.3c-0.6,12.1-0.8,24.3,0,36.4c1.7,7.2,4.7,13.8,6.7,20.9
			c22.8,0.4,45.7,0.9,68.4-0.1c11.7-16.5,7.7-39.6,7.6-59.5c-3.5-1.9-7-4.1-11-3.6c-20.6,0.1-41.1-0.1-61.7,0.1
			C394,24.8,388.6,25.1,387.5,30.3z"/>
	</g>
	<g>
		<path fill="#D7D648" d="M574.5,19c33.2,0,66.5,0.2,99.7,0c0,45.8,0.2,91.6-0.1,137.4c-33.2-0.1-66.3,0-99.4-0.1
			C574.1,110.5,574.4,64.7,574.5,19z M582.2,32.1c-0.4,17-2.7,35.5,5.5,50.6c1.3,6.3,7.2,5.1,11.3,5.4c19.7-0.2,39.3,0.2,59-0.4
			c3.5-9.3,8.3-18.6,8.1-29.1c0.1-10.6,0.6-21.4-1.8-31.7c-4.1-1.4-8.3-2.6-12.5-2.3c-19.9,0-39.7-0.2-59.6,0
			C588.2,24.4,581.9,25.6,582.2,32.1z"/>
	</g>
	<g>
		<path fill="#D7D648" d="M680.9,18.9c33.5,0.2,66.9,0.1,100.4,0c0.1,45.8,0.1,91.6,0,137.3c-33.5,0-67,0-100.5,0
			C681.1,110.5,680.8,64.7,680.9,18.9z M690.1,27.2c-1.1,13.2-1.6,26.5-0.5,39.7c1.6,7.3,5.2,13.6,7.4,20.6
			c22.7,0.5,45.6,1.5,68.3-0.4c10.7-17.4,8.6-40.1,6.9-60.4c-14.6-3.9-29.7-1.7-44.6-2.3C715,25,702.2,22.6,690.1,27.2z"/>
	</g>
	<g>
		<path fill="#D7D648" d="M788.9,18.9c33.2,0.3,66.3-0.1,99.5,0.2c0.1,45.6,0.2,91.2,0,136.8c-33.3,1-66.7,0.1-100,0.4
			C789.2,110.5,788.3,64.7,788.9,18.9z M797.3,26.9c-0.9,11.4-0.8,22.8-0.7,34.3c-0.3,9.7,4.7,17.8,7.9,26.3
			c22.7,1,45.4,0.8,68.1,0.2c3-8.6,7.7-16.7,7.7-26.3c0.5-11.6-0.1-23.1-0.8-34.7c-13.8-4.1-28.1-1.4-42.1-2.2
			C824.1,25.1,810.4,22.6,797.3,26.9z"/>
	</g>
	<path fill="#181B1C" d="M96.8,41.2c13.7-9.2,27.6-19.4,43.4-22.5c-0.2,24.9,0,49.9,0,74.8c-31.6,0.1-63.2,0-94.8,0.1
		C59.5,72.3,77.6,55.3,96.8,41.2z"/>
	<path fill="#181B1C" d="M912.7,18.3c17.6,4.5,33.4,15.4,48.7,26.5c17.2,13.4,33,29.5,46.1,48.6c-31.6,0.3-63.1-0.1-94.7,0.2
		C912.3,68.5,912.4,43.4,912.7,18.3z"/>
	<path fill="#181B1C" d="M173.7,26.5c16.3-3.8,33-1.3,49.4-2c10.9,0.5,22.3-1.8,32.8,2.8c0.4,10.3,0.8,20.7,0.7,31.1
		c0.4,10.5-5,19.3-7.5,28.9c-23.2,1-46.5,1.5-69.7-0.4c-2.1-8.8-7-16.6-7-25.9C171.8,49.4,172.2,37.9,173.7,26.5z"/>
	<path fill="#181B1C" d="M279.4,32.7c2.1-3.3,3.5-9.2,7.9-8.2c19.8-0.2,39.7,0.1,59.5-0.1c5.2-0.2,10.3,1,15.4,2.2
		c2.3,10.4,1.4,21.2,1.6,31.8c0.7,10.9-4.9,20.1-8.4,29.6c-22.5-0.1-44.9,0.2-67.4-0.2c-2.9-6.9-6.4-13.5-7.7-21.1
		C279.5,55.4,280.5,44,279.4,32.7z"/>
	<path fill="#181B1C" d="M387.5,30.3c1.1-5.1,6.5-5.5,10.1-5.8c20.5-0.2,41.1,0.1,61.7-0.1c3.9-0.5,7.5,1.7,11,3.6
		c0.1,19.9,4.1,43-7.6,59.5c-22.8,1-45.6,0.5-68.4,0.1c-2.1-7.1-5-13.7-6.7-20.9C386.7,54.6,386.9,42.4,387.5,30.3z"/>
	<path fill="#181B1C" d="M582.2,32.1c-0.3-6.5,6-7.6,10-7.6c19.8-0.2,39.7,0,59.6,0c4.2-0.2,8.4,0.9,12.5,2.3
		c2.3,10.3,1.9,21.1,1.8,31.7c0.3,10.6-4.6,19.8-8.1,29.1c-19.6,0.7-39.3,0.2-59,0.4c-4.1-0.3-10.1,1-11.3-5.4
		C579.5,67.6,581.8,49.1,582.2,32.1z"/>
	<path fill="#181B1C" d="M690.1,27.2c12.1-4.6,25-2.2,37.5-2.8c14.9,0.6,30-1.7,44.6,2.3c1.7,20.3,3.9,43-6.9,60.4
		c-22.7,1.8-45.5,0.9-68.3,0.4c-2.3-7-5.9-13.3-7.4-20.6C688.5,53.7,689,40.3,690.1,27.2z"/>
	<path fill="#181B1C" d="M797.3,26.9c13.1-4.3,26.8-1.8,40.2-2.5c14,0.7,28.3-1.9,42.1,2.2c0.7,11.5,1.3,23.1,0.8,34.7
		c0,9.6-4.8,17.8-7.7,26.3c-22.7,0.6-45.4,0.8-68.1-0.2c-3.2-8.5-8.3-16.6-7.9-26.3C796.5,49.7,796.5,38.3,797.3,26.9z"/>
	<path fill="#595A77" d="M0,181.8c12.4-1.3,24.9-0.6,37.3-2c0.5,0.8,1.5,2.5,2,3.4c9.5-2,19.2-1.7,28.8-1.4
		c289.7,0.1,579.4,0.2,869.1,0c27.6-0.4,55.3,1,82.9-0.7c13.2-0.2,26.4,0.3,39.7-0.1c0.6,3.6,0.3,7.3-0.2,10.8
		c-93-0.9-186.1,0.3-279.2,0c-258.8-0.1-517.6,0.2-776.4-0.4C2.6,188.1,1.3,184.9,0,181.8z"/>
	<g>
		<path fill="#445476" d="M264.1,19c1.8,0,5.3-0.1,7.1-0.1c-0.1,45.8,0.5,91.6-0.4,137.3c-1.7,0-5,0-6.6,0
			C264,110.5,263.9,64.7,264.1,19z"/>
	</g>
	<g>
		<path fill="#4A5371" d="M371.6,18.9c1.8,0,5.5,0,7.3,0c-0.1,45.7,0.6,91.5-0.4,137.2c-1.8,0-5.4,0-7.2,0
			C371.8,110.5,371.7,64.7,371.6,18.9z"/>
	</g>
	<g>
		<path fill="#4E5876" d="M477,18.8c3.2,0,6.4,0.1,9.6,0.2c0.3,45.6-0.2,91.2,0.3,136.9c-2.6,0.2-5.3,0.3-7.9,0.4
			c-0.3-34.5,0-68.9-0.1-103.4C478.7,41.5,480.1,29.8,477,18.8z"/>
	</g>
	<g>
		<path fill="#475474" d="M566.5,19c2,0,6-0.1,8-0.1c-0.1,45.8-0.4,91.5,0.1,137.3c-2-0.1-6.1-0.3-8.1-0.4
			C566.4,110.2,566.5,64.6,566.5,19z"/>
	</g>
	<g>
		<path fill="#525479" d="M674.2,18.9c1.7,0,5,0,6.7,0c-0.1,45.8,0.2,91.6-0.1,137.3c-1.7,0-5,0-6.7,0
			C674.4,110.5,674.2,64.7,674.2,18.9z"/>
	</g>
	<g>
		<path fill="#4F597C" d="M781.3,19c2.5-0.1,5-0.1,7.6-0.1c-0.6,45.8,0.3,91.6-0.5,137.4c-2.4,0-4.7,0-7.1,0
			C781.3,110.5,781.4,64.7,781.3,19z"/>
	</g>
	<g>
		<path fill="#36373A" d="M1042.1,149.2c4.9,11.1,3.4,28.4-8.4,31.6c-86-1.1-172.1-0.3-258.1-0.5c-248.2-0.1-496.5,0-744.8,0.1
			c-4.6-0.1-9.1-0.4-13.7-0.6c-1.7-2.2-3.7-4-6-5.3c-3.6-5.8-2.8-13.2-2.1-19.9c43.1,0.2,86.2-0.3,129.3,0.1
			c8.7,0.3,17.4,0.3,26-1.4c0.1,0.7,0.2,2.2,0.2,2.9c33.2,0.1,66.4,0,99.5,0c1.6,0,5,0,6.6,0c33.6,0.1,67.1,0.1,100.7,0
			c1.8,0,5.4,0,7.2,0c33.5,0.1,66.9,0.1,100.4,0.1c2.6-0.1,5.3-0.2,7.9-0.4c26.5-1.8,53.2-1.9,79.6,0c2,0.1,6.1,0.3,8.1,0.4
			c33.1,0.1,66.3-0.1,99.4,0.1c1.7,0,5,0,6.7,0c33.5,0,67,0,100.5,0c2.3,0,4.7,0,7.1,0c33.3-0.3,66.7,0.6,100-0.4
			c7.4-0.7,14.9-1.3,22.3-1.3c43.5,0.3,87,0,130.5,0.2C1041.4,153.4,1041.8,150.6,1042.1,149.2z"/>
	</g>
	<g>
		<path fill="#96A1A3" d="M17.2,179.8c4.6,0.1,9.1,0.5,13.7,0.6c248.2-0.1,496.5-0.1,744.8-0.1c86,0.2,172.1-0.6,258.1,0.5l2,0.2
			c-28.6,1.8-57.3,0.4-85.9,0.7c-300.3,0.2-600.5,0.1-900.8,0c-9.9-0.2-20-0.5-29.8,1.4C18.7,182.4,17.7,180.7,17.2,179.8z"/>
	</g>
	<rect x="20.2" y="120.3" fill="#D7D648" width="144" height="10.2"/>
	<rect x="164.1" y="0" fill="#7DB95D" width="322.5" height="19"/>
	<rect x="566.5" y="1.9" fill="#7DB95D" width="322.5" height="17.1"/>
	<rect x="887.9" y="120.3" fill="#D7D648" width="144" height="10.2"/>
	<g>
		<path d="M1003.6,113.9V104h2.7c1,0,1.7,0,2,0.1c0.5,0.1,0.9,0.5,1.2,1s0.5,1.1,0.5,1.9c0,0.6-0.1,1.1-0.3,1.5
			c-0.2,0.4-0.4,0.7-0.7,1c-0.3,0.2-0.6,0.4-0.9,0.5c-0.4,0.1-1,0.1-1.7,0.1h-1.1v3.7H1003.6z M1005.2,105.7v2.8h0.9
			c0.7,0,1.1-0.1,1.3-0.2s0.4-0.3,0.5-0.5c0.1-0.2,0.2-0.5,0.2-0.8c0-0.4-0.1-0.7-0.3-0.9s-0.4-0.4-0.7-0.4c-0.2,0-0.6-0.1-1.2-0.1
			H1005.2z"/>
		<path d="M1013.1,113.9v-8.2h-2.4V104h6.5v1.7h-2.4v8.2H1013.1z"/>
	</g>
	<polyline fill="none" stroke="#E61D18" stroke-width="1.9659" stroke-miterlimit="10" points="1001.3,100.3 996.5,105.3 
		1001.3,109.5 	"/>
	<rect x="510.9" y="1.9" fill="#36373A" width="24.4" height="163.1"/>
	<g>
		<path d="M46.1,113.9V104h2.7c1,0,1.7,0,2,0.1c0.5,0.1,0.9,0.5,1.2,1s0.5,1.1,0.5,1.9c0,0.6-0.1,1.1-0.3,1.5
			c-0.2,0.4-0.4,0.7-0.7,1c-0.3,0.2-0.6,0.4-0.9,0.5c-0.4,0.1-1,0.1-1.7,0.1h-1.1v3.7H46.1z M47.8,105.7v2.8h0.9
			c0.7,0,1.1-0.1,1.3-0.2s0.4-0.3,0.5-0.5c0.1-0.2,0.2-0.5,0.2-0.8c0-0.4-0.1-0.7-0.3-0.9s-0.4-0.4-0.7-0.4c-0.2,0-0.6-0.1-1.2-0.1
			H47.8z"/>
		<path d="M55.6,113.9v-8.2h-2.4V104h6.5v1.7h-2.4v8.2H55.6z"/>
	</g>
	<polyline fill="none" stroke="#E61D18" stroke-width="1.9659" stroke-miterlimit="10" points="43.9,100.3 39,105.3 43.9,109.5 	"/>
</g>
</svg>
