<!-- Generator: Adobe Illustrator 18.0.0, SVG Export Plug-In  -->
<svg version="1.1"
	 xmlns="http://www.w3.org/2000/svg" xmlns:xlink="http://www.w3.org/1999/xlink" xmlns:a="http://ns.adobe.com/AdobeSVGViewerExtensions/3.0/"
	 x="0px" y="0px" width="292.4px" height="144.6px" viewBox="0 0 292.4 144.6" enable-background="new 0 0 292.4 144.6"
	 xml:space="preserve">
<defs>
</defs>
<g>
	<g>
		<g>
			<path fill="none" stroke="#D6684D" stroke-width="6" stroke-miterlimit="10" stroke-dasharray="12.9051,6.9489" d="M228.5,138.6
				c-1.4,3.1-10.7,4.1-16.9,1.7L109,100.8L6.3,61.3c-6.2-2.4-3.3-8,5.1-10.1l136.4-29.5L277.1,3.1c7.5-0.8,14.1,4,11.8,8.4
				l-33.7,68.9L228.5,138.6z"/>
		</g>
		<g>
			<path fill="none" stroke="#D6684D" stroke-width="6" stroke-miterlimit="10" stroke-dasharray="12.9489,6.9725" d="M209.7,110.3
				c-1,2.1-6.8,2.8-10.4,1.2l-61.1-26.4L77.1,58.7c-3.7-1.6-2-4.9,3-6l81.6-15.5l78.9-11.5c4.6-0.6,8.8,2.1,7.5,4.7l-20.5,41.9
				L209.7,110.3z"/>
		</g>
	</g>
</g>
</svg>
