<!-- Generator: Adobe Illustrator 18.0.0, SVG Export Plug-In  -->
<svg version="1.1"
	 xmlns="http://www.w3.org/2000/svg" xmlns:xlink="http://www.w3.org/1999/xlink" xmlns:a="http://ns.adobe.com/AdobeSVGViewerExtensions/3.0/"
	 x="0px" y="0px" width="277.4px" height="136.3px" viewBox="0 0 277.4 136.3" enable-background="new 0 0 277.4 136.3"
	 xml:space="preserve">
<defs>
</defs>
<g>
	<g>
		<path fill="#E0E0E0" d="M231.6,133.2c-1.1,3.2-10.4,4.1-16.8,1.8L109.3,95.5L3.7,56c-6.3-2.4-4.3-7.8,3.6-9.8l130.3-27.7
			L264.1,0.1c7.5-0.8,14.7,3.7,13.1,8l-24.7,67.2L231.6,133.2z"/>
		<g>
			<path fill="#3C7C65" d="M51.2,59.4L47.5,58l-2.1,0.8l-3.4-1.3l13.6-4.5l3.6,1.4L53.6,62l-3.4-1.3L51.2,59.4z M52.6,57.8l2.3-2.6
				l-4.6,1.7L52.6,57.8z"/>
			<path fill="#3C7C65" d="M71.1,59.2l3.3,1.3L68.7,64c-0.6,0.3-1.2,0.6-1.9,0.9c-0.7,0.2-1.4,0.4-2.2,0.4c-0.8,0.1-1.5,0.1-2.1,0
				c-0.9-0.1-1.7-0.4-2.6-0.7c-0.5-0.2-1-0.4-1.6-0.7c-0.5-0.3-0.9-0.6-1.1-0.8c-0.2-0.3-0.3-0.6-0.3-1c0-0.4,0.1-0.7,0.4-1
				c0.4-0.5,0.8-0.8,1.3-1.1l5.7-3.6l3.3,1.3l-5.8,3.6c-0.5,0.3-0.8,0.6-0.7,0.9c0,0.3,0.3,0.6,0.9,0.8c0.6,0.2,1.2,0.3,1.8,0.3
				c0.6-0.1,1.2-0.2,1.7-0.6L71.1,59.2z"/>
			<path fill="#3C7C65" d="M69.6,65.1l3.3,1.1c-0.4,0.3-0.6,0.6-0.6,0.8c0,0.4,0.2,0.7,0.9,0.9c0.5,0.2,0.9,0.3,1.4,0.2
				c0.4,0,0.8-0.1,1.1-0.3c0.2-0.1,0.3-0.3,0.3-0.5c0-0.2-0.4-0.5-1.1-1c-1.1-0.7-1.8-1.4-1.9-1.9c-0.1-0.5,0.2-1,0.9-1.5
				c0.5-0.3,1.1-0.5,1.9-0.7c0.7-0.1,1.6-0.2,2.4-0.1c0.9,0.1,1.9,0.4,3,0.8c1.4,0.5,2.2,1.1,2.4,1.7c0.3,0.6,0,1.2-0.9,1.8
				l-3.2-1.1c0.3-0.3,0.5-0.6,0.4-0.8c-0.1-0.2-0.3-0.4-0.8-0.6c-0.4-0.2-0.7-0.2-1.1-0.2c-0.3,0-0.6,0.1-0.8,0.2
				c-0.2,0.1-0.2,0.2-0.2,0.3c0,0.1,0.3,0.4,0.7,0.7c1.2,0.7,1.9,1.3,2.2,1.7c0.3,0.4,0.4,0.8,0.3,1.2c-0.1,0.4-0.5,0.7-1,1
				c-0.6,0.4-1.4,0.6-2.2,0.8c-0.9,0.2-1.8,0.2-2.7,0.1c-0.9-0.1-1.9-0.4-3-0.8c-1.8-0.7-2.8-1.4-2.8-2
				C68.4,66.3,68.8,65.7,69.6,65.1z"/>
			<path fill="#3C7C65" d="M86.5,65.4l9.9,4l-2.3,1.4l-3.3-1.3l-7.1,4.3l-3.3-1.3l7.1-4.3l-3.3-1.3L86.5,65.4z"/>
			<path fill="#3C7C65" d="M88.6,75.6L98,70l5.5,2.2c1,0.4,1.7,0.8,2.1,1.1c0.4,0.3,0.5,0.6,0.4,1c-0.1,0.4-0.4,0.7-1,1.1
				c-0.5,0.3-1.1,0.5-1.7,0.6c-0.6,0.1-1.3,0.2-2,0.1c-0.4,0-0.9-0.1-1.5-0.2c0.3,0.2,0.4,0.4,0.5,0.5c0,0.1,0.1,0.3,0,0.5
				c0,0.2-0.1,0.4-0.1,0.5L99,79.7l-3.7-1.5l1.1-2.4c0.1-0.3,0.2-0.5,0.1-0.7c-0.1-0.2-0.3-0.3-0.6-0.4l-0.3-0.1l-3.8,2.3L88.6,75.6
				z M97.4,73.6l1.4,0.6c0.1,0.1,0.5,0.1,1,0.3c0.3,0.1,0.5,0.1,0.8,0c0.3,0,0.5-0.1,0.7-0.2c0.3-0.2,0.4-0.4,0.4-0.5
				c-0.1-0.2-0.4-0.4-1-0.6l-1.4-0.6L97.4,73.6z"/>
			<path fill="#3C7C65" d="M108.1,81.8l-3.7-1.5l-2.1,0.7L99,79.7l13.3-3.9l3.6,1.4l-5.3,7l-3.4-1.3L108.1,81.8z M109.5,80.3
				l2.2-2.4l-4.5,1.5L109.5,80.3z"/>
			<path fill="#3C7C65" d="M120.9,79.3l3.3,1.3l-7,4l5.1,2l-2.3,1.3l-8.4-3.3L120.9,79.3z"/>
			<path fill="#3C7C65" d="M130.9,83.3l3.3,1.3l-9.2,5.2l-3.3-1.3L130.9,83.3z"/>
			<path fill="#3C7C65" d="M135.4,92.5l-3.7-1.5l-2,0.6l-3.4-1.3l13.2-3.6l3.6,1.4l-5.2,6.7l-3.4-1.3L135.4,92.5z M136.7,91.1
				l2.1-2.3l-4.5,1.4L136.7,91.1z"/>
			<path fill="#3C7C65" d="M148.1,90.2l3.1,1.2l-1.1,4.4l5.1-2.8l3.1,1.2l-9.1,4.9l-3.1-1.2l1.1-4.3l-5,2.8l-3.1-1.2L148.1,90.2z"/>
			<path fill="#3C7C65" d="M175.1,101.2l4.3,1.7l-3.8,3.5l7.1-2.2l4.3,1.7l-9,4.6l-2.7-1.1l6.9-3.6l-9,2.7l-2.4-1l4.8-4.4l-6.9,3.6
				l-2.7-1.1L175.1,101.2z"/>
			<path fill="#3C7C65" d="M188.2,113.2l-3.7-1.5l-2,0.6l-3.4-1.3l13-3l3.6,1.4l-5,6.1l-3.4-1.3L188.2,113.2z M189.4,112l2.1-2.1
				l-4.4,1.2L189.4,112z"/>
			<path fill="#3C7C65" d="M200.7,111.5l4.9,2c1,0.4,1.6,0.8,2,1.1c0.4,0.3,0.5,0.7,0.5,1.1c0,0.4-0.2,0.7-0.6,1
				c-0.4,0.3-0.9,0.7-1.5,1c-1,0.5-1.8,0.8-2.6,0.9c-0.8,0.2-1.6,0.2-2.4,0.2c-0.8,0-1.5-0.1-2.2-0.2c-0.9-0.2-1.6-0.4-2.2-0.6
				l-4.9-1.9L200.7,111.5z M201.9,113.8l-4.9,2.4l0.8,0.3c0.7,0.3,1.2,0.4,1.7,0.5c0.4,0.1,0.9,0,1.4-0.1c0.5-0.1,1.1-0.3,1.8-0.7
				c0.9-0.5,1.4-0.9,1.4-1.2c0-0.3-0.5-0.6-1.3-1L201.9,113.8z"/>
			<path fill="#3C7C65" d="M212.1,116.1l8.8,3.5l-1.9,0.9l-5.5-2.2l-1.4,0.7l5.1,2l-1.8,0.9l-5.1-2l-1.7,0.9l5.7,2.2l-2,1l-9-3.5
				L212.1,116.1z"/>
		</g>
		<path fill="#3C7C65" d="M218.3,105.5c-0.8,2.3-6.9,3-11,1.3l-68.1-28.3L71.1,50.3c-4.1-1.7-2.8-5.2,2.3-6.3l84.3-15.9l82.7-11.9
			c4.9-0.6,9.7,2.2,8.7,5l-16.2,44.1L218.3,105.5z"/>
		<g>
			<path fill="#E7A04B" d="M136.2,77.3l10.1,4.2l2.1-13.5c0,0,1.1-1.1,4.1-1.3c3-0.1,24.1-3.2,24.1-3.2s2.6-0.5,3.4-1.6
				c0.6-0.8,0.9-2.9-3.5-3.7c-1.2-0.2-1.9-0.1-7.5,0.3c-8,0.6-23.9,3.8-23.9,3.8s-6.9,1.2-7.9,7.2C136.3,75.5,136.2,77.3,136.2,77.3
				z"/>
			<path fill="#E7A04B" d="M215.2,69.1l5.4-5.7c0,0,3.1-1.3,5.2,0c2,1.3,1,2.8,0.6,3.9c-0.3,1.1-2.2,9.8-2.2,9.8s-1,2.5-4,2.2
				c-0.9-0.1-3.4-1.3-4.9-2.7c-1.5-1.4-1.9-2.1-3.5-3c-0.8-0.5-5.1-2.6-11.7-2.4c-6.2,0.2-22.9,1.4-22.9,1.4s-10.3,0.7-11.5-0.7
				c-1.2-1.3,1.6-2.2,6.7-3.1c7.8-1.3,16.6-2.6,16.6-2.6s9-0.6,14.9-0.2C210.3,66.5,212.7,67.9,215.2,69.1
				C217.4,70.2,215.2,69.1,215.2,69.1z"/>
			<path fill="#E7A04B" d="M128.4,33.6l-7.7,1.5c0,0,1.9,1.7,6.5,3.7c4.6,2,16,5.5,25.4,6.2c9.4,0.8,17.2,0.4,21.1,0.5
				c3.9,0.1,13.6,0.3,18.8,3.8c3.6,2.4,4.8,4.9,4.3,7.2c-0.5,2.2-0.7,3.7-0.1,4.8c0.7,1.3,2.5,1.3,3.9,1.5c1.5,0.2,4.2-0.8,5-1.6
				c0.8-0.8,2.1-3.2,1.6-4.8l-0.1-2.2l-0.9-2.4c0,0-1.9-2.9-2.7-3.6c-0.8-0.6-2.9-2.8-7.4-4.4c-4.5-1.6-5.8-2-8.1-2.6
				c-2.2-0.6-8-1.3-9.6-1.3c-1.6-0.1-4.7-0.4-7.8-0.1c-3.2,0.2-5.7,0.3-8.1,0.4c-2.4,0.1-5.5,0.3-7.4,0c-2-0.3-3.1-0.2-6.2-0.8
				c-3.1-0.6-5.5-0.7-9.1-1.9c-3.6-1.2-5.8-0.7-7-1.3C131.7,35.3,128.4,33.6,128.4,33.6z"/>
		</g>
	</g>
</g>
</svg>
