<!-- Generator: Adobe Illustrator 18.0.0, SVG Export Plug-In  -->
<svg version="1.1"
	 xmlns="http://www.w3.org/2000/svg" xmlns:xlink="http://www.w3.org/1999/xlink" xmlns:a="http://ns.adobe.com/AdobeSVGViewerExtensions/3.0/"
	 x="0px" y="0px" width="346.5px" height="385.7px" viewBox="0 0 346.5 385.7" enable-background="new 0 0 346.5 385.7"
	 xml:space="preserve">
<defs>
</defs>
<g>
	<g>
		<rect x="19.8" y="23.8" fill="#B5AFA5" width="231.5" height="91.1"/>
		<rect x="11.6" y="13.2" fill="#5D5E5E" width="246" height="26.5"/>
		<path fill="#51493F" d="M79.6,43.7c0-3.3,0-6.4,0-9.8c37.6,0,75.3,0,113.1,0c0,3.3,0,6.4,0,9.8C154.9,43.7,117.3,43.7,79.6,43.7z"
			/>
		<path fill="#51493F" d="M135.7,0c0.7,0.4,1.5,0.9,2.2,1.3c19.1,9,38.3,18.1,57.4,27.1c3.7,1.8,3.7,1.8,2.9,6.3
			c-42,0-84.1,0-126.1,0c-0.8-4.5-0.8-4.5,2.9-6.3c19.1-9,38.3-18.1,57.4-27.1c0.8-0.4,1.5-0.9,2.2-1.3C135.1,0,135.4,0,135.7,0z"/>
		<path fill="#9D9174" d="M135.5,8.2c0.4,0.2,0.8,0.5,1.3,0.7c11,5.2,22.1,10.4,33.1,15.6c2.1,1,2.1,1,1.7,3.6
			c-24.3,0-48.5,0-72.8,0c-0.5-2.6-0.5-2.6,1.7-3.6c11-5.2,22.1-10.4,33.1-15.6c0.4-0.2,0.9-0.5,1.3-0.7
			C135.1,8.2,135.3,8.2,135.5,8.2z"/>
		<path fill="#726957" d="M115.8,47.3c4,0,7.6,0,11.6,0c0.6,20.6,1.2,41.2,1.8,61.9c-5,0-9.7,0-14.9,0
			C114.8,88.7,115.3,68.1,115.8,47.3z"/>
		<path fill="#726957" d="M141.3,109.2c0.5-20.7,1-41.1,1.6-61.8c3.8,0,7.5,0,11.6,0c0.6,20.5,1.2,41.1,1.8,61.8
			C151.3,109.2,146.5,109.2,141.3,109.2z"/>
		<path fill="#726957" d="M88.8,47.3c4,0,7.6,0,11.6,0c0.6,20.6,1.2,41.1,1.8,61.9c-5,0-9.7,0-14.9,0C87.7,88.7,88.2,68.2,88.8,47.3
			z"/>
		<path fill="#726957" d="M183.3,109.3c-5.1,0-9.8,0-14.9,0c0.5-20.6,1-41.2,1.5-61.9c3.8,0,7.5,0,11.5,0
			C182.1,68,182.7,88.5,183.3,109.3z"/>
		<rect x="85.8" y="43.7" fill="#726957" width="17.2" height="7.2"/>
		<rect x="84.6" y="102" fill="#726957" width="19.7" height="7.2"/>
		<rect x="111.9" y="102" fill="#726957" width="19.7" height="7.2"/>
		<rect x="138.9" y="102" fill="#726957" width="19.7" height="7.2"/>
		<rect x="166" y="102.5" fill="#726957" width="19.7" height="7.2"/>
		<rect x="113.1" y="43.7" fill="#726957" width="17.2" height="7.2"/>
		<rect x="140.2" y="43.7" fill="#726957" width="17.2" height="7.2"/>
		<rect x="167.2" y="43.7" fill="#726957" width="17.2" height="7.2"/>
		<rect x="19.3" y="106.1" fill="#51493F" width="57.1" height="10.9"/>
		<rect x="26" y="43.6" fill="#6B6354" width="50.4" height="65.6"/>
		<rect x="193.8" y="106.1" fill="#51493F" width="57.4" height="10.9"/>
		<rect x="194.4" y="43.6" fill="#6B6354" width="50.4" height="65.6"/>
		<rect x="204" y="52.7" fill="#C9C6C1" width="10.4" height="17.4"/>
		<rect x="222.5" y="52.7" fill="#C9C6C1" width="10.4" height="17.4"/>
		<rect x="222.5" y="76.4" fill="#C9C6C1" width="10.4" height="17.4"/>
		<rect x="204" y="76.4" fill="#C9C6C1" width="10.4" height="17.4"/>
		<rect x="36.7" y="52.7" fill="#C9C6C1" width="10.4" height="17.4"/>
		<rect x="55.2" y="52.7" fill="#C9C6C1" width="10.4" height="17.4"/>
		<rect x="55.2" y="76.4" fill="#C9C6C1" width="10.4" height="17.4"/>
		<rect x="36.7" y="76.4" fill="#C9C6C1" width="10.4" height="17.4"/>
		<path fill="#554C45" d="M64.3,126.7c2.1,0,4.2,0,6.6,0c0-2.9,0-5.7,0-8.8c2.4,0,4.5,0,6.9,0c0-3.1,0-5.8,0-8.7
			c38.4,0,76.4,0,114.7,0c0,2.8,0,5.5,0,8.6c2.4,0,4.5,0,6.9,0c0,3.1,0,5.8,0,8.8c2.4,0,4.5,0,6.7,0c0,3,0,6,0,9
			c-47.3,0-94.6,0-141.8,0C64.3,132.7,64.3,129.7,64.3,126.7z"/>
	</g>
	<g>
		<polyline fill="#FFFFFF" points="292,385.3 292,337.4 346.5,337.4 346.5,171 0,171 0,385.7 		"/>
		<polygon fill="#048450" points="292,385.2 346.5,337.4 292,337.4 		"/>
		<polygon opacity="0.8" fill="#082B1A" points="292,385.2 255.9,385.2 292,357 		"/>
		<polygon opacity="0.8" fill="#033A22" points="0,171.3 45,137.6 33.1,171.3 		"/>
		<g>
			<path fill="#006838" d="M25.7,214.7l-3.4-9.9h-0.1c0.1,1.5,0.1,2.8,0.1,4.1v5.7h-1.8v-11.8h2.7l3.3,9.4h0l3.4-9.4h2.7v11.8h-1.9
				v-5.8c0-0.6,0-1.4,0-2.3c0-0.9,0.1-1.5,0.1-1.7h-0.1l-3.5,9.8H25.7z"/>
			<path fill="#006838" d="M40.7,214.8c-1.4,0-2.5-0.4-3.3-1.2c-0.8-0.8-1.2-1.9-1.2-3.3c0-1.5,0.4-2.6,1.1-3.4s1.7-1.3,3-1.3
				c1.2,0,2.1,0.4,2.8,1.1c0.7,0.7,1,1.7,1,3v1h-5.9c0,0.9,0.3,1.5,0.7,2c0.4,0.5,1.1,0.7,1.9,0.7c0.5,0,1,0,1.5-0.1
				c0.5-0.1,0.9-0.3,1.5-0.5v1.5c-0.5,0.2-0.9,0.4-1.4,0.5C41.9,214.8,41.4,214.8,40.7,214.8z M40.4,207c-0.6,0-1.1,0.2-1.4,0.6
				s-0.6,0.9-0.6,1.7h4c0-0.7-0.2-1.3-0.5-1.7C41.5,207.2,41,207,40.4,207z"/>
			<path fill="#006838" d="M49.5,214.7h-1.9v-12.6h1.9V214.7z"/>
			<path fill="#006838" d="M58,205.6c1.1,0,2,0.4,2.6,1.2s0.9,1.9,0.9,3.4c0,1.5-0.3,2.6-0.9,3.4c-0.6,0.8-1.5,1.2-2.6,1.2
				c-1.1,0-2-0.4-2.6-1.2h-0.1l-0.3,1.1h-1.4v-12.6h1.9v3c0,0.2,0,0.5,0,1s0,0.7,0,0.8h0.1C56,206,56.8,205.6,58,205.6z M57.5,207.1
				c-0.8,0-1.3,0.2-1.7,0.7c-0.3,0.4-0.5,1.2-0.5,2.3v0.1c0,1.1,0.2,1.9,0.5,2.4c0.3,0.5,0.9,0.7,1.7,0.7c0.7,0,1.2-0.3,1.5-0.8
				c0.3-0.5,0.5-1.3,0.5-2.3C59.6,208.1,58.9,207.1,57.5,207.1z"/>
			<path fill="#006838" d="M72.9,210.2c0,1.5-0.4,2.6-1.1,3.4c-0.7,0.8-1.8,1.2-3.1,1.2c-0.8,0-1.6-0.2-2.2-0.6
				c-0.6-0.4-1.1-0.9-1.5-1.6c-0.3-0.7-0.5-1.5-0.5-2.5c0-1.4,0.4-2.6,1.1-3.4s1.8-1.2,3.1-1.2c1.3,0,2.3,0.4,3.1,1.2
				S72.9,208.8,72.9,210.2z M66.4,210.2c0,2.1,0.8,3.1,2.3,3.1c1.5,0,2.3-1,2.3-3.1c0-2-0.8-3.1-2.3-3.1c-0.8,0-1.4,0.3-1.7,0.8
				C66.6,208.4,66.4,209.2,66.4,210.2z"/>
			<path fill="#006838" d="M82.6,214.7l-0.3-1.2h-0.1c-0.3,0.4-0.6,0.7-1.1,1c-0.5,0.2-1,0.4-1.7,0.4c-1.1,0-1.9-0.3-2.4-0.8
				s-0.8-1.4-0.8-2.4v-5.8h1.9v5.5c0,0.7,0.1,1.2,0.4,1.5c0.3,0.3,0.7,0.5,1.3,0.5c0.8,0,1.4-0.2,1.8-0.7c0.4-0.5,0.6-1.3,0.6-2.4
				v-4.4h1.9v8.9H82.6z"/>
			<path fill="#006838" d="M92.6,205.6c0.4,0,0.7,0,0.9,0.1l-0.2,1.8c-0.3-0.1-0.5-0.1-0.8-0.1c-0.8,0-1.4,0.2-1.8,0.7
				c-0.5,0.5-0.7,1.1-0.7,1.9v4.7h-1.9v-8.9h1.5l0.2,1.6h0.1c0.3-0.5,0.7-1,1.2-1.3C91.5,205.7,92,205.6,92.6,205.6z"/>
			<path fill="#006838" d="M104.3,214.7h-1.9v-5.5c0-0.7-0.1-1.2-0.4-1.5c-0.3-0.3-0.7-0.5-1.3-0.5c-0.8,0-1.4,0.2-1.8,0.7
				c-0.4,0.5-0.6,1.3-0.6,2.4v4.4h-1.9v-8.9h1.5l0.3,1.2h0.1c0.3-0.4,0.7-0.8,1.1-1s1-0.3,1.6-0.3c2.1,0,3.2,1.1,3.2,3.3V214.7z"/>
			<path fill="#006838" d="M112,214.8c-1.4,0-2.5-0.4-3.3-1.2c-0.8-0.8-1.2-1.9-1.2-3.3c0-1.5,0.4-2.6,1.1-3.4s1.7-1.3,3-1.3
				c1.2,0,2.1,0.4,2.8,1.1c0.7,0.7,1,1.7,1,3v1h-5.9c0,0.9,0.3,1.5,0.7,2c0.4,0.5,1.1,0.7,1.9,0.7c0.5,0,1,0,1.5-0.1
				c0.5-0.1,0.9-0.3,1.5-0.5v1.5c-0.5,0.2-0.9,0.4-1.4,0.5C113.2,214.8,112.6,214.8,112,214.8z M111.7,207c-0.6,0-1.1,0.2-1.4,0.6
				s-0.6,0.9-0.6,1.7h4c0-0.7-0.2-1.3-0.5-1.7C112.8,207.2,112.3,207,111.7,207z"/>
			<path fill="#006838" d="M120.5,202.9l-0.3,4.3H119l-0.3-4.3H120.5z"/>
			<path fill="#006838" d="M130.2,212.1c0,0.9-0.3,1.5-1,2c-0.6,0.5-1.5,0.7-2.7,0.7c-1.2,0-2.1-0.2-2.9-0.5v-1.6
				c1,0.5,2,0.7,2.9,0.7c1.2,0,1.8-0.4,1.8-1.1c0-0.2-0.1-0.4-0.2-0.6c-0.1-0.2-0.3-0.3-0.6-0.5c-0.3-0.2-0.7-0.3-1.2-0.5
				c-1-0.4-1.7-0.8-2.1-1.2c-0.4-0.4-0.5-0.9-0.5-1.5c0-0.8,0.3-1.4,0.9-1.8c0.6-0.4,1.5-0.6,2.5-0.6c1,0,2,0.2,3,0.6l-0.6,1.4
				c-1-0.4-1.8-0.6-2.4-0.6c-1,0-1.5,0.3-1.5,0.9c0,0.3,0.1,0.5,0.4,0.7s0.8,0.5,1.7,0.8c0.7,0.3,1.3,0.5,1.6,0.8
				c0.3,0.2,0.6,0.5,0.7,0.8C130.1,211.3,130.2,211.7,130.2,212.1z"/>
			<path fill="#006838" d="M140.9,214.7H139v-12.6h1.9V214.7z"/>
			<path fill="#006838" d="M144.7,203.4c0-0.3,0.1-0.6,0.3-0.8c0.2-0.2,0.5-0.3,0.8-0.3c0.3,0,0.6,0.1,0.8,0.3
				c0.2,0.2,0.3,0.4,0.3,0.8c0,0.3-0.1,0.6-0.3,0.8s-0.4,0.3-0.8,0.3c-0.3,0-0.6-0.1-0.8-0.3S144.7,203.7,144.7,203.4z M146.7,214.7
				h-1.9v-8.9h1.9V214.7z"/>
			<path fill="#006838" d="M155.2,205.6c1.1,0,2,0.4,2.6,1.2s0.9,1.9,0.9,3.4c0,1.5-0.3,2.6-0.9,3.4c-0.6,0.8-1.5,1.2-2.6,1.2
				c-1.1,0-2-0.4-2.6-1.2h-0.1l-0.3,1.1h-1.4v-12.6h1.9v3c0,0.2,0,0.5,0,1s0,0.7,0,0.8h0.1C153.2,206,154.1,205.6,155.2,205.6z
				 M154.7,207.1c-0.8,0-1.3,0.2-1.7,0.7c-0.3,0.4-0.5,1.2-0.5,2.3v0.1c0,1.1,0.2,1.9,0.5,2.4c0.3,0.5,0.9,0.7,1.7,0.7
				c0.7,0,1.2-0.3,1.5-0.8c0.3-0.5,0.5-1.3,0.5-2.3C156.8,208.1,156.1,207.1,154.7,207.1z"/>
			<path fill="#006838" d="M166.7,205.6c0.4,0,0.7,0,0.9,0.1l-0.2,1.8c-0.3-0.1-0.5-0.1-0.8-0.1c-0.8,0-1.4,0.2-1.8,0.7
				c-0.5,0.5-0.7,1.1-0.7,1.9v4.7h-1.9v-8.9h1.5l0.2,1.6h0.1c0.3-0.5,0.7-1,1.2-1.3C165.7,205.7,166.2,205.6,166.7,205.6z"/>
			<path fill="#006838" d="M176.1,214.7l-0.4-1.2h-0.1c-0.4,0.5-0.9,0.9-1.3,1.1c-0.4,0.2-1,0.3-1.7,0.3c-0.9,0-1.6-0.2-2.1-0.7
				c-0.5-0.5-0.7-1.1-0.7-2c0-0.9,0.3-1.6,1-2.1c0.7-0.5,1.7-0.7,3.1-0.8l1.5,0v-0.5c0-0.6-0.1-1-0.4-1.3s-0.7-0.4-1.2-0.4
				c-0.5,0-0.9,0.1-1.3,0.2c-0.4,0.1-0.8,0.3-1.2,0.5l-0.6-1.4c0.5-0.3,1-0.4,1.6-0.6c0.6-0.1,1.1-0.2,1.6-0.2c1.1,0,2,0.2,2.6,0.7
				c0.6,0.5,0.9,1.3,0.9,2.3v6H176.1z M173.3,213.4c0.7,0,1.2-0.2,1.7-0.6c0.4-0.4,0.6-0.9,0.6-1.6v-0.8l-1.1,0
				c-0.9,0-1.5,0.2-1.9,0.4s-0.6,0.7-0.6,1.2c0,0.4,0.1,0.7,0.4,0.9C172.5,213.3,172.9,213.4,173.3,213.4z"/>
			<path fill="#006838" d="M185.9,205.6c0.4,0,0.7,0,0.9,0.1l-0.2,1.8c-0.3-0.1-0.5-0.1-0.8-0.1c-0.8,0-1.4,0.2-1.8,0.7
				c-0.5,0.5-0.7,1.1-0.7,1.9v4.7h-1.9v-8.9h1.5l0.2,1.6h0.1c0.3-0.5,0.7-1,1.2-1.3C184.9,205.7,185.4,205.6,185.9,205.6z"/>
			<path fill="#006838" d="M189.6,203.4c0-0.3,0.1-0.6,0.3-0.8c0.2-0.2,0.5-0.3,0.8-0.3c0.3,0,0.6,0.1,0.8,0.3
				c0.2,0.2,0.3,0.4,0.3,0.8c0,0.3-0.1,0.6-0.3,0.8s-0.4,0.3-0.8,0.3c-0.3,0-0.6-0.1-0.8-0.3S189.6,203.7,189.6,203.4z M191.6,214.7
				h-1.9v-8.9h1.9V214.7z"/>
			<path fill="#006838" d="M199.5,214.8c-1.4,0-2.5-0.4-3.3-1.2c-0.8-0.8-1.2-1.9-1.2-3.3c0-1.5,0.4-2.6,1.1-3.4s1.7-1.3,3-1.3
				c1.2,0,2.1,0.4,2.8,1.1c0.7,0.7,1,1.7,1,3v1H197c0,0.9,0.3,1.5,0.7,2c0.4,0.5,1.1,0.7,1.9,0.7c0.5,0,1,0,1.5-0.1
				c0.5-0.1,0.9-0.3,1.5-0.5v1.5c-0.5,0.2-0.9,0.4-1.4,0.5C200.6,214.8,200.1,214.8,199.5,214.8z M199.1,207c-0.6,0-1.1,0.2-1.4,0.6
				s-0.6,0.9-0.6,1.7h4c0-0.7-0.2-1.3-0.5-1.7C200.2,207.2,199.7,207,199.1,207z"/>
			<path fill="#006838" d="M212.4,212.1c0,0.9-0.3,1.5-1,2c-0.6,0.5-1.5,0.7-2.7,0.7c-1.2,0-2.1-0.2-2.9-0.5v-1.6
				c1,0.5,2,0.7,2.9,0.7c1.2,0,1.8-0.4,1.8-1.1c0-0.2-0.1-0.4-0.2-0.6c-0.1-0.2-0.3-0.3-0.6-0.5c-0.3-0.2-0.7-0.3-1.2-0.5
				c-1-0.4-1.7-0.8-2.1-1.2c-0.4-0.4-0.5-0.9-0.5-1.5c0-0.8,0.3-1.4,0.9-1.8c0.6-0.4,1.5-0.6,2.5-0.6c1,0,2,0.2,3,0.6l-0.6,1.4
				c-1-0.4-1.8-0.6-2.4-0.6c-1,0-1.5,0.3-1.5,0.9c0,0.3,0.1,0.5,0.4,0.7s0.8,0.5,1.7,0.8c0.7,0.3,1.3,0.5,1.6,0.8
				c0.3,0.2,0.6,0.5,0.7,0.8C212.3,211.3,212.4,211.7,212.4,212.1z"/>
			<path fill="#006838" d="M226.8,214.7l-0.4-1.2h-0.1c-0.4,0.5-0.9,0.9-1.3,1.1c-0.4,0.2-1,0.3-1.7,0.3c-0.9,0-1.6-0.2-2.1-0.7
				c-0.5-0.5-0.7-1.1-0.7-2c0-0.9,0.3-1.6,1-2.1c0.7-0.5,1.7-0.7,3.1-0.8l1.5,0v-0.5c0-0.6-0.1-1-0.4-1.3s-0.7-0.4-1.2-0.4
				c-0.5,0-0.9,0.1-1.3,0.2c-0.4,0.1-0.8,0.3-1.2,0.5l-0.6-1.4c0.5-0.3,1-0.4,1.6-0.6c0.6-0.1,1.1-0.2,1.6-0.2c1.1,0,2,0.2,2.6,0.7
				c0.6,0.5,0.9,1.3,0.9,2.3v6H226.8z M223.9,213.4c0.7,0,1.2-0.2,1.7-0.6c0.4-0.4,0.6-0.9,0.6-1.6v-0.8l-1.1,0
				c-0.9,0-1.5,0.2-1.9,0.4s-0.6,0.7-0.6,1.2c0,0.4,0.1,0.7,0.4,0.9C223.1,213.3,223.5,213.4,223.9,213.4z"/>
			<path fill="#006838" d="M236.5,205.6c0.4,0,0.7,0,0.9,0.1l-0.2,1.8c-0.3-0.1-0.5-0.1-0.8-0.1c-0.8,0-1.4,0.2-1.8,0.7
				c-0.5,0.5-0.7,1.1-0.7,1.9v4.7H232v-8.9h1.5l0.2,1.6h0.1c0.3-0.5,0.7-1,1.2-1.3C235.5,205.7,236,205.6,236.5,205.6z"/>
			<path fill="#006838" d="M244.3,214.8c-1.4,0-2.5-0.4-3.3-1.2c-0.8-0.8-1.2-1.9-1.2-3.3c0-1.5,0.4-2.6,1.1-3.4s1.7-1.3,3-1.3
				c1.2,0,2.1,0.4,2.8,1.1c0.7,0.7,1,1.7,1,3v1h-5.9c0,0.9,0.3,1.5,0.7,2c0.4,0.5,1.1,0.7,1.9,0.7c0.5,0,1,0,1.5-0.1
				c0.5-0.1,0.9-0.3,1.5-0.5v1.5c-0.5,0.2-0.9,0.4-1.4,0.5C245.4,214.8,244.9,214.8,244.3,214.8z M243.9,207c-0.6,0-1.1,0.2-1.4,0.6
				s-0.6,0.9-0.6,1.7h4c0-0.7-0.2-1.3-0.5-1.7C245,207.2,244.5,207,243.9,207z"/>
			<path fill="#006838" d="M24,234.7c-1.4,0-2.4-0.4-3.1-1.2s-1.1-1.9-1.1-3.4c0-1.5,0.4-2.7,1.1-3.5c0.7-0.8,1.8-1.2,3.2-1.2
				c0.9,0,1.8,0.2,2.5,0.5l-0.6,1.5c-0.8-0.3-1.5-0.5-2-0.5c-1.5,0-2.3,1-2.3,3.1c0,1,0.2,1.8,0.6,2.3c0.4,0.5,0.9,0.8,1.7,0.8
				c0.8,0,1.6-0.2,2.4-0.6v1.7c-0.3,0.2-0.7,0.3-1.1,0.4S24.5,234.7,24,234.7z"/>
			<path fill="#006838" d="M37.7,230c0,1.5-0.4,2.6-1.1,3.4c-0.7,0.8-1.8,1.2-3.1,1.2c-0.8,0-1.6-0.2-2.2-0.6
				c-0.6-0.4-1.1-0.9-1.5-1.6c-0.3-0.7-0.5-1.5-0.5-2.5c0-1.4,0.4-2.6,1.1-3.4s1.8-1.2,3.1-1.2c1.3,0,2.3,0.4,3.1,1.2
				S37.7,228.6,37.7,230z M31.2,230c0,2.1,0.8,3.1,2.3,3.1c1.5,0,2.3-1,2.3-3.1c0-2-0.8-3.1-2.3-3.1c-0.8,0-1.4,0.3-1.7,0.8
				C31.4,228.3,31.2,229,31.2,230z"/>
			<path fill="#006838" d="M48.6,234.5h-1.9V229c0-0.7-0.1-1.2-0.4-1.5c-0.3-0.3-0.7-0.5-1.2-0.5c-0.7,0-1.3,0.2-1.6,0.7
				c-0.3,0.5-0.5,1.3-0.5,2.4v4.4h-1.9v-8.9h1.5l0.3,1.2H43c0.2-0.4,0.6-0.8,1.1-1s1-0.3,1.6-0.3c1.4,0,2.3,0.5,2.7,1.4h0.1
				c0.3-0.4,0.6-0.8,1.1-1c0.5-0.2,1-0.4,1.6-0.4c1.1,0,1.8,0.3,2.3,0.8c0.5,0.5,0.7,1.4,0.7,2.5v5.8h-1.9V229
				c0-0.7-0.1-1.2-0.4-1.5s-0.7-0.5-1.2-0.5c-0.7,0-1.3,0.2-1.6,0.7c-0.3,0.5-0.5,1.2-0.5,2.1V234.5z"/>
			<path fill="#006838" d="M65.7,234.5h-1.9V229c0-0.7-0.1-1.2-0.4-1.5c-0.3-0.3-0.7-0.5-1.2-0.5c-0.7,0-1.3,0.2-1.6,0.7
				c-0.3,0.5-0.5,1.3-0.5,2.4v4.4h-1.9v-8.9h1.5l0.3,1.2H60c0.2-0.4,0.6-0.8,1.1-1s1-0.3,1.6-0.3c1.4,0,2.3,0.5,2.7,1.4h0.1
				c0.3-0.4,0.6-0.8,1.1-1c0.5-0.2,1-0.4,1.6-0.4c1.1,0,1.8,0.3,2.3,0.8c0.5,0.5,0.7,1.4,0.7,2.5v5.8h-1.9V229
				c0-0.7-0.1-1.2-0.4-1.5s-0.7-0.5-1.2-0.5c-0.7,0-1.3,0.2-1.6,0.7c-0.3,0.5-0.5,1.2-0.5,2.1V234.5z"/>
			<path fill="#006838" d="M81.5,234.5l-0.3-1.2h-0.1c-0.3,0.4-0.6,0.7-1.1,1c-0.5,0.2-1,0.4-1.7,0.4c-1.1,0-1.9-0.3-2.4-0.8
				s-0.8-1.4-0.8-2.4v-5.8H77v5.5c0,0.7,0.1,1.2,0.4,1.5c0.3,0.3,0.7,0.5,1.3,0.5c0.8,0,1.4-0.2,1.8-0.7c0.4-0.5,0.6-1.3,0.6-2.4
				v-4.4H83v8.9H81.5z"/>
			<path fill="#006838" d="M94.8,234.5h-1.9V229c0-0.7-0.1-1.2-0.4-1.5c-0.3-0.3-0.7-0.5-1.3-0.5c-0.8,0-1.4,0.2-1.8,0.7
				c-0.4,0.5-0.6,1.3-0.6,2.4v4.4h-1.9v-8.9h1.5l0.3,1.2h0.1c0.3-0.4,0.7-0.8,1.1-1s1-0.3,1.6-0.3c2.1,0,3.2,1.1,3.2,3.3V234.5z"/>
			<path fill="#006838" d="M98.5,223.2c0-0.3,0.1-0.6,0.3-0.8c0.2-0.2,0.5-0.3,0.8-0.3c0.3,0,0.6,0.1,0.8,0.3
				c0.2,0.2,0.3,0.4,0.3,0.8c0,0.3-0.1,0.6-0.3,0.8s-0.4,0.3-0.8,0.3c-0.3,0-0.6-0.1-0.8-0.3S98.5,223.5,98.5,223.2z M100.5,234.5
				h-1.9v-8.9h1.9V234.5z"/>
			<path fill="#006838" d="M107.8,233.1c0.5,0,0.9-0.1,1.4-0.2v1.4c-0.2,0.1-0.5,0.2-0.8,0.2c-0.3,0.1-0.7,0.1-1,0.1
				c-1.8,0-2.7-0.9-2.7-2.8V227h-1.2v-0.8l1.3-0.7l0.6-1.9h1.2v2h2.5v1.4h-2.5v4.8c0,0.5,0.1,0.8,0.3,1
				C107.1,233,107.4,233.1,107.8,233.1z"/>
			<path fill="#006838" d="M110.9,225.6h2.1l1.8,5.1c0.3,0.7,0.5,1.4,0.5,2h0.1c0-0.3,0.1-0.7,0.3-1.1c0.1-0.4,0.8-2.4,2-6h2
				l-3.8,10.1c-0.7,1.9-1.8,2.8-3.5,2.8c-0.4,0-0.8,0-1.2-0.1v-1.5c0.3,0.1,0.6,0.1,1,0.1c0.9,0,1.6-0.5,1.9-1.6l0.3-0.8
				L110.9,225.6z"/>
			<path fill="#006838" d="M133.8,232c0,0.9-0.3,1.5-1,2c-0.6,0.5-1.5,0.7-2.7,0.7c-1.2,0-2.1-0.2-2.9-0.5v-1.6c1,0.5,2,0.7,2.9,0.7
				c1.2,0,1.8-0.4,1.8-1.1c0-0.2-0.1-0.4-0.2-0.6c-0.1-0.2-0.3-0.3-0.6-0.5c-0.3-0.2-0.7-0.3-1.2-0.5c-1-0.4-1.7-0.8-2.1-1.2
				c-0.4-0.4-0.5-0.9-0.5-1.5c0-0.8,0.3-1.4,0.9-1.8c0.6-0.4,1.5-0.6,2.5-0.6c1,0,2,0.2,3,0.6l-0.6,1.4c-1-0.4-1.8-0.6-2.4-0.6
				c-1,0-1.5,0.3-1.5,0.9c0,0.3,0.1,0.5,0.4,0.7s0.8,0.5,1.7,0.8c0.7,0.3,1.3,0.5,1.6,0.8c0.3,0.2,0.6,0.5,0.7,0.8
				C133.8,231.2,133.8,231.5,133.8,232z"/>
			<path fill="#006838" d="M141.7,234.7c-1.1,0-2-0.4-2.6-1.2h-0.1c0.1,0.8,0.1,1.2,0.1,1.4v3.7h-1.9v-12.9h1.5
				c0,0.2,0.1,0.6,0.3,1.2h0.1c0.6-0.9,1.5-1.4,2.7-1.4c1.1,0,2,0.4,2.6,1.2s0.9,1.9,0.9,3.4c0,1.5-0.3,2.6-0.9,3.4
				C143.7,234.2,142.8,234.7,141.7,234.7z M141.2,227c-0.8,0-1.3,0.2-1.7,0.7c-0.3,0.4-0.5,1.1-0.5,2.1v0.3c0,1.1,0.2,1.9,0.5,2.4
				c0.3,0.5,0.9,0.7,1.7,0.7c0.7,0,1.2-0.3,1.5-0.8c0.4-0.5,0.5-1.3,0.5-2.3c0-1-0.2-1.8-0.5-2.3S141.9,227,141.2,227z"/>
			<path fill="#006838" d="M154.3,234.5l-0.4-1.2h-0.1c-0.4,0.5-0.9,0.9-1.3,1.1c-0.4,0.2-1,0.3-1.7,0.3c-0.9,0-1.6-0.2-2.1-0.7
				c-0.5-0.5-0.7-1.1-0.7-2c0-0.9,0.3-1.6,1-2.1c0.7-0.5,1.7-0.7,3.1-0.8l1.5,0v-0.5c0-0.6-0.1-1-0.4-1.3s-0.7-0.4-1.2-0.4
				c-0.5,0-0.9,0.1-1.3,0.2c-0.4,0.1-0.8,0.3-1.2,0.5l-0.6-1.4c0.5-0.3,1-0.4,1.6-0.6c0.6-0.1,1.1-0.2,1.6-0.2c1.1,0,2,0.2,2.6,0.7
				c0.6,0.5,0.9,1.3,0.9,2.3v6H154.3z M151.4,233.2c0.7,0,1.2-0.2,1.7-0.6c0.4-0.4,0.6-0.9,0.6-1.6v-0.8l-1.1,0
				c-0.9,0-1.5,0.2-1.9,0.4s-0.6,0.7-0.6,1.2c0,0.4,0.1,0.7,0.4,0.9C150.6,233.1,151,233.2,151.4,233.2z"/>
			<path fill="#006838" d="M163.1,234.7c-1.4,0-2.4-0.4-3.1-1.2s-1.1-1.9-1.1-3.4c0-1.5,0.4-2.7,1.1-3.5c0.7-0.8,1.8-1.2,3.2-1.2
				c0.9,0,1.8,0.2,2.5,0.5l-0.6,1.5c-0.8-0.3-1.5-0.5-2-0.5c-1.5,0-2.3,1-2.3,3.1c0,1,0.2,1.8,0.6,2.3c0.4,0.5,0.9,0.8,1.7,0.8
				c0.8,0,1.6-0.2,2.4-0.6v1.7c-0.3,0.2-0.7,0.3-1.1,0.4S163.6,234.7,163.1,234.7z"/>
			<path fill="#006838" d="M172.8,234.7c-1.4,0-2.5-0.4-3.3-1.2c-0.8-0.8-1.2-1.9-1.2-3.3c0-1.5,0.4-2.6,1.1-3.4s1.7-1.3,3-1.3
				c1.2,0,2.1,0.4,2.8,1.1c0.7,0.7,1,1.7,1,3v1h-5.9c0,0.9,0.3,1.5,0.7,2c0.4,0.5,1.1,0.7,1.9,0.7c0.5,0,1,0,1.5-0.1
				c0.5-0.1,0.9-0.3,1.5-0.5v1.5c-0.5,0.2-0.9,0.4-1.4,0.5C174,234.6,173.4,234.7,172.8,234.7z M172.5,226.8c-0.6,0-1.1,0.2-1.4,0.6
				s-0.6,0.9-0.6,1.7h4c0-0.7-0.2-1.3-0.5-1.7C173.5,227,173.1,226.8,172.5,226.8z"/>
			<path fill="#006838" d="M185.7,232c0,0.9-0.3,1.5-1,2c-0.6,0.5-1.5,0.7-2.7,0.7c-1.2,0-2.1-0.2-2.9-0.5v-1.6c1,0.5,2,0.7,2.9,0.7
				c1.2,0,1.8-0.4,1.8-1.1c0-0.2-0.1-0.4-0.2-0.6c-0.1-0.2-0.3-0.3-0.6-0.5c-0.3-0.2-0.7-0.3-1.2-0.5c-1-0.4-1.7-0.8-2.1-1.2
				c-0.4-0.4-0.5-0.9-0.5-1.5c0-0.8,0.3-1.4,0.9-1.8c0.6-0.4,1.5-0.6,2.5-0.6c1,0,2,0.2,3,0.6l-0.6,1.4c-1-0.4-1.8-0.6-2.4-0.6
				c-1,0-1.5,0.3-1.5,0.9c0,0.3,0.1,0.5,0.4,0.7s0.8,0.5,1.7,0.8c0.7,0.3,1.3,0.5,1.6,0.8c0.3,0.2,0.6,0.5,0.7,0.8
				C185.6,231.2,185.7,231.5,185.7,232z"/>
			<path fill="#006838" d="M200.1,234.5l-0.4-1.2h-0.1c-0.4,0.5-0.9,0.9-1.3,1.1c-0.4,0.2-1,0.3-1.7,0.3c-0.9,0-1.6-0.2-2.1-0.7
				c-0.5-0.5-0.7-1.1-0.7-2c0-0.9,0.3-1.6,1-2.1c0.7-0.5,1.7-0.7,3.1-0.8l1.5,0v-0.5c0-0.6-0.1-1-0.4-1.3s-0.7-0.4-1.2-0.4
				c-0.5,0-0.9,0.1-1.3,0.2c-0.4,0.1-0.8,0.3-1.2,0.5l-0.6-1.4c0.5-0.3,1-0.4,1.6-0.6c0.6-0.1,1.1-0.2,1.6-0.2c1.1,0,2,0.2,2.6,0.7
				c0.6,0.5,0.9,1.3,0.9,2.3v6H200.1z M197.2,233.2c0.7,0,1.2-0.2,1.7-0.6c0.4-0.4,0.6-0.9,0.6-1.6v-0.8l-1.1,0
				c-0.9,0-1.5,0.2-1.9,0.4s-0.6,0.7-0.6,1.2c0,0.4,0.1,0.7,0.4,0.9C196.4,233.1,196.8,233.2,197.2,233.2z"/>
			<path fill="#006838" d="M213.2,234.5h-1.9V229c0-0.7-0.1-1.2-0.4-1.5c-0.3-0.3-0.7-0.5-1.3-0.5c-0.8,0-1.4,0.2-1.8,0.7
				c-0.4,0.5-0.6,1.3-0.6,2.4v4.4h-1.9v-8.9h1.5l0.3,1.2h0.1c0.3-0.4,0.7-0.8,1.1-1s1-0.3,1.6-0.3c2.1,0,3.2,1.1,3.2,3.3V234.5z"/>
			<path fill="#006838" d="M220.1,234.7c-1.1,0-2-0.4-2.6-1.2s-0.9-1.9-0.9-3.4c0-1.5,0.3-2.6,0.9-3.4c0.6-0.8,1.5-1.2,2.6-1.2
				c1.2,0,2.1,0.4,2.7,1.3h0.1c-0.1-0.6-0.1-1.1-0.1-1.5v-3.3h1.9v12.6h-1.5l-0.3-1.2h-0.1C222.1,234.2,221.2,234.7,220.1,234.7z
				 M220.6,233.1c0.8,0,1.3-0.2,1.7-0.7c0.4-0.4,0.5-1.1,0.5-2.1v-0.3c0-1.1-0.2-1.9-0.5-2.4c-0.4-0.5-0.9-0.7-1.7-0.7
				c-0.7,0-1.2,0.3-1.5,0.8c-0.4,0.5-0.5,1.3-0.5,2.3c0,1,0.2,1.7,0.5,2.3C219.3,232.9,219.9,233.1,220.6,233.1z"/>
			<path fill="#006838" d="M242,230c0,1.5-0.4,2.6-1.1,3.4c-0.7,0.8-1.8,1.2-3.1,1.2c-0.8,0-1.6-0.2-2.2-0.6
				c-0.6-0.4-1.1-0.9-1.5-1.6c-0.3-0.7-0.5-1.5-0.5-2.5c0-1.4,0.4-2.6,1.1-3.4s1.8-1.2,3.1-1.2c1.3,0,2.3,0.4,3.1,1.2
				S242,228.6,242,230z M235.5,230c0,2.1,0.8,3.1,2.3,3.1c1.5,0,2.3-1,2.3-3.1c0-2-0.8-3.1-2.3-3.1c-0.8,0-1.4,0.3-1.7,0.8
				C235.7,228.3,235.5,229,235.5,230z"/>
			<path fill="#006838" d="M249.9,227h-2.2v7.5h-1.9V227h-1.5v-0.9l1.5-0.6V225c0-1.1,0.2-1.8,0.7-2.3c0.5-0.5,1.2-0.8,2.3-0.8
				c0.7,0,1.3,0.1,2,0.3l-0.5,1.4c-0.5-0.2-0.9-0.2-1.3-0.2c-0.4,0-0.7,0.1-0.9,0.4s-0.3,0.7-0.3,1.2v0.6h2.2V227z M255.9,227h-2.2
				v7.5h-1.9V227h-1.5v-0.9l1.5-0.6V225c0-1.1,0.2-1.8,0.7-2.3c0.5-0.5,1.3-0.8,2.3-0.8c0.7,0,1.3,0.1,2,0.3l-0.5,1.4
				c-0.5-0.2-0.9-0.2-1.3-0.2c-0.4,0-0.7,0.1-0.9,0.4s-0.3,0.7-0.3,1.2v0.6h2.2V227z"/>
			<path fill="#006838" d="M262.6,234.7c-1.4,0-2.5-0.4-3.3-1.2c-0.8-0.8-1.2-1.9-1.2-3.3c0-1.5,0.4-2.6,1.1-3.4s1.7-1.3,3-1.3
				c1.2,0,2.1,0.4,2.8,1.1c0.7,0.7,1,1.7,1,3v1h-5.9c0,0.9,0.3,1.5,0.7,2c0.4,0.5,1.1,0.7,1.9,0.7c0.5,0,1,0,1.5-0.1
				c0.5-0.1,0.9-0.3,1.5-0.5v1.5c-0.5,0.2-0.9,0.4-1.4,0.5C263.7,234.6,263.2,234.7,262.6,234.7z M262.2,226.8
				c-0.6,0-1.1,0.2-1.4,0.6s-0.6,0.9-0.6,1.7h4c0-0.7-0.2-1.3-0.5-1.7C263.3,227,262.8,226.8,262.2,226.8z"/>
			<path fill="#006838" d="M274,225.4c0.4,0,0.7,0,0.9,0.1l-0.2,1.8c-0.3-0.1-0.5-0.1-0.8-0.1c-0.8,0-1.4,0.2-1.8,0.7
				c-0.5,0.5-0.7,1.1-0.7,1.9v4.7h-1.9v-8.9h1.5l0.2,1.6h0.1c0.3-0.5,0.7-1,1.2-1.3C272.9,225.6,273.4,225.4,274,225.4z"/>
			<path fill="#006838" d="M24.8,246.8h-2.2v7.5h-1.9v-7.5h-1.5v-0.9l1.5-0.6v-0.6c0-1.1,0.2-1.8,0.7-2.3c0.5-0.5,1.2-0.8,2.3-0.8
				c0.7,0,1.3,0.1,2,0.3l-0.5,1.4c-0.5-0.2-0.9-0.2-1.3-0.2c-0.4,0-0.7,0.1-0.9,0.4s-0.3,0.7-0.3,1.2v0.6h2.2V246.8z"/>
			<path fill="#006838" d="M33.2,254.3l-0.4-1.2h-0.1c-0.4,0.5-0.9,0.9-1.3,1.1c-0.4,0.2-1,0.3-1.7,0.3c-0.9,0-1.6-0.2-2.1-0.7
				c-0.5-0.5-0.7-1.1-0.7-2c0-0.9,0.3-1.6,1-2.1c0.7-0.5,1.7-0.7,3.1-0.8l1.5,0v-0.5c0-0.6-0.1-1-0.4-1.3s-0.7-0.4-1.2-0.4
				c-0.5,0-0.9,0.1-1.3,0.2c-0.4,0.1-0.8,0.3-1.2,0.5l-0.6-1.4c0.5-0.3,1-0.4,1.6-0.6c0.6-0.1,1.1-0.2,1.6-0.2c1.1,0,2,0.2,2.6,0.7
				c0.6,0.5,0.9,1.3,0.9,2.3v6H33.2z M30.4,253c0.7,0,1.2-0.2,1.7-0.6c0.4-0.4,0.6-0.9,0.6-1.6v-0.8l-1.1,0c-0.9,0-1.5,0.2-1.9,0.4
				s-0.6,0.7-0.6,1.2c0,0.4,0.1,0.7,0.4,0.9C29.5,252.9,29.9,253,30.4,253z"/>
			<path fill="#006838" d="M44.4,251.8c0,0.9-0.3,1.5-1,2c-0.6,0.5-1.5,0.7-2.7,0.7c-1.2,0-2.1-0.2-2.9-0.5v-1.6
				c1,0.5,2,0.7,2.9,0.7c1.2,0,1.8-0.4,1.8-1.1c0-0.2-0.1-0.4-0.2-0.6c-0.1-0.2-0.3-0.3-0.6-0.5c-0.3-0.2-0.7-0.3-1.2-0.5
				c-1-0.4-1.7-0.8-2.1-1.2c-0.4-0.4-0.5-0.9-0.5-1.5c0-0.8,0.3-1.4,0.9-1.8c0.6-0.4,1.5-0.6,2.5-0.6c1,0,2,0.2,3,0.6l-0.6,1.4
				c-1-0.4-1.8-0.6-2.4-0.6c-1,0-1.5,0.3-1.5,0.9c0,0.3,0.1,0.5,0.4,0.7s0.8,0.5,1.7,0.8c0.7,0.3,1.3,0.5,1.6,0.8
				c0.3,0.2,0.6,0.5,0.7,0.8C44.3,251,44.4,251.4,44.4,251.8z"/>
			<path fill="#006838" d="M51.3,254.5c-1.4,0-2.4-0.4-3.1-1.2s-1.1-1.9-1.1-3.4c0-1.5,0.4-2.7,1.1-3.5c0.7-0.8,1.8-1.2,3.2-1.2
				c0.9,0,1.8,0.2,2.5,0.5l-0.6,1.5c-0.8-0.3-1.5-0.5-2-0.5c-1.5,0-2.3,1-2.3,3.1c0,1,0.2,1.8,0.6,2.3c0.4,0.5,0.9,0.8,1.7,0.8
				c0.8,0,1.6-0.2,2.4-0.6v1.7c-0.3,0.2-0.7,0.3-1.1,0.4S51.9,254.5,51.3,254.5z"/>
			<path fill="#006838" d="M57,243c0-0.3,0.1-0.6,0.3-0.8c0.2-0.2,0.5-0.3,0.8-0.3c0.3,0,0.6,0.1,0.8,0.3c0.2,0.2,0.3,0.4,0.3,0.8
				c0,0.3-0.1,0.6-0.3,0.8s-0.4,0.3-0.8,0.3c-0.3,0-0.6-0.1-0.8-0.3S57,243.4,57,243z M59,254.3h-1.9v-8.9H59V254.3z"/>
			<path fill="#006838" d="M70.8,254.3h-1.9v-5.5c0-0.7-0.1-1.2-0.4-1.5c-0.3-0.3-0.7-0.5-1.3-0.5c-0.8,0-1.4,0.2-1.8,0.7
				c-0.4,0.5-0.6,1.3-0.6,2.4v4.4H63v-8.9h1.5l0.3,1.2h0.1c0.3-0.4,0.7-0.8,1.1-1s1-0.3,1.6-0.3c2.1,0,3.2,1.1,3.2,3.3V254.3z"/>
			<path fill="#006838" d="M80.3,254.3l-0.4-1.2h-0.1c-0.4,0.5-0.9,0.9-1.3,1.1c-0.4,0.2-1,0.3-1.7,0.3c-0.9,0-1.6-0.2-2.1-0.7
				c-0.5-0.5-0.7-1.1-0.7-2c0-0.9,0.3-1.6,1-2.1c0.7-0.5,1.7-0.7,3.1-0.8l1.5,0v-0.5c0-0.6-0.1-1-0.4-1.3s-0.7-0.4-1.2-0.4
				c-0.5,0-0.9,0.1-1.3,0.2c-0.4,0.1-0.8,0.3-1.2,0.5L75,246c0.5-0.3,1-0.4,1.6-0.6c0.6-0.1,1.1-0.2,1.6-0.2c1.1,0,2,0.2,2.6,0.7
				c0.6,0.5,0.9,1.3,0.9,2.3v6H80.3z M77.5,253c0.7,0,1.2-0.2,1.7-0.6c0.4-0.4,0.6-0.9,0.6-1.6v-0.8l-1.1,0c-0.9,0-1.5,0.2-1.9,0.4
				s-0.6,0.7-0.6,1.2c0,0.4,0.1,0.7,0.4,0.9C76.6,252.9,77,253,77.5,253z"/>
			<path fill="#006838" d="M88.8,253c0.5,0,0.9-0.1,1.4-0.2v1.4c-0.2,0.1-0.5,0.2-0.8,0.2c-0.3,0.1-0.7,0.1-1,0.1
				c-1.8,0-2.7-0.9-2.7-2.8v-4.8h-1.2V246l1.3-0.7l0.6-1.9h1.2v2h2.5v1.4h-2.5v4.8c0,0.5,0.1,0.8,0.3,1
				C88.2,252.8,88.5,253,88.8,253z"/>
			<path fill="#006838" d="M93.1,243c0-0.3,0.1-0.6,0.3-0.8c0.2-0.2,0.5-0.3,0.8-0.3c0.3,0,0.6,0.1,0.8,0.3c0.2,0.2,0.3,0.4,0.3,0.8
				c0,0.3-0.1,0.6-0.3,0.8s-0.4,0.3-0.8,0.3c-0.3,0-0.6-0.1-0.8-0.3S93.1,243.4,93.1,243z M95.2,254.3h-1.9v-8.9h1.9V254.3z"/>
			<path fill="#006838" d="M107,254.3h-1.9v-5.5c0-0.7-0.1-1.2-0.4-1.5c-0.3-0.3-0.7-0.5-1.3-0.5c-0.8,0-1.4,0.2-1.8,0.7
				c-0.4,0.5-0.6,1.3-0.6,2.4v4.4h-1.9v-8.9h1.5l0.3,1.2h0.1c0.3-0.4,0.7-0.8,1.1-1s1-0.3,1.6-0.3c2.1,0,3.2,1.1,3.2,3.3V254.3z"/>
			<path fill="#006838" d="M118.4,245.4v1l-1.5,0.3c0.1,0.2,0.3,0.4,0.3,0.7s0.1,0.6,0.1,0.9c0,0.9-0.3,1.6-1,2.2
				c-0.6,0.5-1.5,0.8-2.6,0.8c-0.3,0-0.5,0-0.8-0.1c-0.4,0.3-0.6,0.5-0.6,0.9c0,0.2,0.1,0.4,0.3,0.5c0.2,0.1,0.5,0.2,1.1,0.2h1.6
				c1,0,1.7,0.2,2.2,0.6c0.5,0.4,0.8,1,0.8,1.8c0,1-0.4,1.8-1.2,2.3c-0.8,0.5-2,0.8-3.6,0.8c-1.2,0-2.1-0.2-2.8-0.6
				c-0.6-0.4-1-1-1-1.8c0-0.5,0.2-1,0.5-1.4c0.3-0.4,0.8-0.6,1.5-0.8c-0.3-0.1-0.5-0.3-0.6-0.5s-0.2-0.5-0.2-0.8
				c0-0.3,0.1-0.6,0.3-0.8s0.5-0.5,0.8-0.7c-0.5-0.2-0.8-0.5-1.1-1c-0.3-0.4-0.4-1-0.4-1.6c0-1,0.3-1.7,0.9-2.3
				c0.6-0.5,1.5-0.8,2.6-0.8c0.3,0,0.5,0,0.8,0.1c0.3,0,0.5,0.1,0.6,0.1H118.4z M111.4,255.7c0,0.4,0.2,0.7,0.6,0.9
				c0.4,0.2,0.9,0.3,1.6,0.3c1,0,1.8-0.1,2.3-0.4s0.8-0.7,0.8-1.2c0-0.4-0.1-0.7-0.4-0.8s-0.8-0.2-1.5-0.2h-1.4
				c-0.5,0-1,0.1-1.3,0.4C111.5,254.9,111.4,255.3,111.4,255.7z M112.2,248.3c0,0.6,0.1,1,0.4,1.3c0.3,0.3,0.7,0.5,1.2,0.5
				c1.1,0,1.6-0.6,1.6-1.8c0-0.6-0.1-1-0.4-1.3c-0.3-0.3-0.7-0.5-1.2-0.5c-0.5,0-1,0.2-1.2,0.5C112.3,247.2,112.2,247.7,112.2,248.3
				z"/>
			<path fill="#006838" d="M130.4,254.5c-1.4,0-2.4-0.4-3.1-1.2c-0.7-0.8-1.1-1.9-1.1-3.4c0-1.5,0.4-2.7,1.1-3.5
				c0.7-0.8,1.8-1.2,3.2-1.2c0.9,0,1.8,0.2,2.5,0.5l-0.6,1.5c-0.8-0.3-1.5-0.5-2-0.5c-1.5,0-2.3,1-2.3,3.1c0,1,0.2,1.8,0.6,2.3
				c0.4,0.5,0.9,0.8,1.7,0.8c0.8,0,1.6-0.2,2.4-0.6v1.7c-0.3,0.2-0.7,0.3-1.1,0.4S130.9,254.5,130.4,254.5z"/>
			<path fill="#006838" d="M144.1,249.8c0,1.5-0.4,2.6-1.1,3.4c-0.7,0.8-1.8,1.2-3.1,1.2c-0.8,0-1.6-0.2-2.2-0.6
				c-0.6-0.4-1.1-0.9-1.5-1.6c-0.3-0.7-0.5-1.5-0.5-2.5c0-1.4,0.4-2.6,1.1-3.4s1.8-1.2,3.1-1.2c1.3,0,2.3,0.4,3.1,1.2
				S144.1,248.4,144.1,249.8z M137.6,249.8c0,2.1,0.8,3.1,2.3,3.1c1.5,0,2.3-1,2.3-3.1c0-2-0.8-3.1-2.3-3.1c-0.8,0-1.4,0.3-1.7,0.8
				C137.8,248.1,137.6,248.9,137.6,249.8z"/>
			<path fill="#006838" d="M149.4,254.3h-1.9v-12.6h1.9V254.3z"/>
			<path fill="#006838" d="M155.3,254.3h-1.9v-12.6h1.9V254.3z"/>
			<path fill="#006838" d="M163.1,254.5c-1.4,0-2.5-0.4-3.3-1.2c-0.8-0.8-1.2-1.9-1.2-3.3c0-1.5,0.4-2.6,1.1-3.4s1.7-1.3,3-1.3
				c1.2,0,2.1,0.4,2.8,1.1c0.7,0.7,1,1.7,1,3v1h-5.9c0,0.9,0.3,1.5,0.7,2c0.4,0.5,1.1,0.7,1.9,0.7c0.5,0,1,0,1.5-0.1
				c0.5-0.1,0.9-0.3,1.5-0.5v1.5c-0.5,0.2-0.9,0.4-1.4,0.5C164.3,254.4,163.7,254.5,163.1,254.5z M162.8,246.7
				c-0.6,0-1.1,0.2-1.4,0.6s-0.6,0.9-0.6,1.7h4c0-0.7-0.2-1.3-0.5-1.7C163.9,246.9,163.4,246.7,162.8,246.7z"/>
			<path fill="#006838" d="M173.6,254.5c-1.4,0-2.4-0.4-3.1-1.2s-1.1-1.9-1.1-3.4c0-1.5,0.4-2.7,1.1-3.5c0.7-0.8,1.8-1.2,3.2-1.2
				c0.9,0,1.8,0.2,2.5,0.5l-0.6,1.5c-0.8-0.3-1.5-0.5-2-0.5c-1.5,0-2.3,1-2.3,3.1c0,1,0.2,1.8,0.6,2.3c0.4,0.5,0.9,0.8,1.7,0.8
				c0.8,0,1.6-0.2,2.4-0.6v1.7c-0.3,0.2-0.7,0.3-1.1,0.4S174.1,254.5,173.6,254.5z"/>
			<path fill="#006838" d="M182.7,253c0.5,0,0.9-0.1,1.4-0.2v1.4c-0.2,0.1-0.5,0.2-0.8,0.2c-0.3,0.1-0.7,0.1-1,0.1
				c-1.8,0-2.7-0.9-2.7-2.8v-4.8h-1.2V246l1.3-0.7l0.6-1.9h1.2v2h2.5v1.4h-2.5v4.8c0,0.5,0.1,0.8,0.3,1
				C182.1,252.8,182.4,253,182.7,253z"/>
			<path fill="#006838" d="M187,243c0-0.3,0.1-0.6,0.3-0.8c0.2-0.2,0.5-0.3,0.8-0.3c0.3,0,0.6,0.1,0.8,0.3c0.2,0.2,0.3,0.4,0.3,0.8
				c0,0.3-0.1,0.6-0.3,0.8s-0.4,0.3-0.8,0.3c-0.3,0-0.6-0.1-0.8-0.3S187,243.4,187,243z M189,254.3h-1.9v-8.9h1.9V254.3z"/>
			<path fill="#006838" d="M200.9,249.8c0,1.5-0.4,2.6-1.1,3.4c-0.7,0.8-1.8,1.2-3.1,1.2c-0.8,0-1.6-0.2-2.2-0.6
				c-0.6-0.4-1.1-0.9-1.5-1.6c-0.3-0.7-0.5-1.5-0.5-2.5c0-1.4,0.4-2.6,1.1-3.4s1.8-1.2,3.1-1.2c1.3,0,2.3,0.4,3.1,1.2
				S200.9,248.4,200.9,249.8z M194.4,249.8c0,2.1,0.8,3.1,2.3,3.1c1.5,0,2.3-1,2.3-3.1c0-2-0.8-3.1-2.3-3.1c-0.8,0-1.4,0.3-1.7,0.8
				C194.6,248.1,194.4,248.9,194.4,249.8z"/>
			<path fill="#006838" d="M212.2,254.3h-1.9v-5.5c0-0.7-0.1-1.2-0.4-1.5c-0.3-0.3-0.7-0.5-1.3-0.5c-0.8,0-1.4,0.2-1.8,0.7
				c-0.4,0.5-0.6,1.3-0.6,2.4v4.4h-1.9v-8.9h1.5l0.3,1.2h0.1c0.3-0.4,0.7-0.8,1.1-1s1-0.3,1.6-0.3c2.1,0,3.2,1.1,3.2,3.3V254.3z"/>
			<path fill="#006838" d="M222,251.8c0,0.9-0.3,1.5-1,2c-0.6,0.5-1.5,0.7-2.7,0.7c-1.2,0-2.1-0.2-2.9-0.5v-1.6c1,0.5,2,0.7,2.9,0.7
				c1.2,0,1.8-0.4,1.8-1.1c0-0.2-0.1-0.4-0.2-0.6c-0.1-0.2-0.3-0.3-0.6-0.5c-0.3-0.2-0.7-0.3-1.2-0.5c-1-0.4-1.7-0.8-2.1-1.2
				c-0.4-0.4-0.5-0.9-0.5-1.5c0-0.8,0.3-1.4,0.9-1.8c0.6-0.4,1.5-0.6,2.5-0.6c1,0,2,0.2,3,0.6l-0.6,1.4c-1-0.4-1.8-0.6-2.4-0.6
				c-1,0-1.5,0.3-1.5,0.9c0,0.3,0.1,0.5,0.4,0.7s0.8,0.5,1.7,0.8c0.7,0.3,1.3,0.5,1.6,0.8c0.3,0.2,0.6,0.5,0.7,0.8
				C222,251,222,251.4,222,251.8z"/>
			<path fill="#006838" d="M238.8,249.8c0,1.5-0.4,2.6-1.1,3.4c-0.7,0.8-1.8,1.2-3.1,1.2c-0.8,0-1.6-0.2-2.2-0.6
				c-0.6-0.4-1.1-0.9-1.5-1.6c-0.3-0.7-0.5-1.5-0.5-2.5c0-1.4,0.4-2.6,1.1-3.4s1.8-1.2,3.1-1.2c1.3,0,2.3,0.4,3.1,1.2
				S238.8,248.4,238.8,249.8z M232.3,249.8c0,2.1,0.8,3.1,2.3,3.1c1.5,0,2.3-1,2.3-3.1c0-2-0.8-3.1-2.3-3.1c-0.8,0-1.4,0.3-1.7,0.8
				C232.5,248.1,232.3,248.9,232.3,249.8z"/>
			<path fill="#006838" d="M246.7,246.8h-2.2v7.5h-1.9v-7.5h-1.5v-0.9l1.5-0.6v-0.6c0-1.1,0.2-1.8,0.7-2.3c0.5-0.5,1.2-0.8,2.3-0.8
				c0.7,0,1.3,0.1,2,0.3l-0.5,1.4c-0.5-0.2-0.9-0.2-1.3-0.2c-0.4,0-0.7,0.1-0.9,0.4s-0.3,0.7-0.3,1.2v0.6h2.2V246.8z"/>
			<path fill="#006838" d="M24.9,265.1c1.1,0,2,0.4,2.6,1.2s0.9,1.9,0.9,3.4c0,1.5-0.3,2.6-0.9,3.4c-0.6,0.8-1.5,1.2-2.6,1.2
				c-1.1,0-2-0.4-2.6-1.2h-0.1l-0.3,1.1h-1.4v-12.6h1.9v3c0,0.2,0,0.5,0,1s0,0.7,0,0.8h0.1C22.9,265.5,23.8,265.1,24.9,265.1z
				 M24.4,266.6c-0.8,0-1.3,0.2-1.7,0.7c-0.3,0.4-0.5,1.2-0.5,2.3v0.1c0,1.1,0.2,1.9,0.5,2.4c0.3,0.5,0.9,0.7,1.7,0.7
				c0.7,0,1.2-0.3,1.5-0.8c0.3-0.5,0.5-1.3,0.5-2.3C26.5,267.6,25.8,266.6,24.4,266.6z"/>
			<path fill="#006838" d="M39.8,269.7c0,1.5-0.4,2.6-1.1,3.4c-0.7,0.8-1.8,1.2-3.1,1.2c-0.8,0-1.6-0.2-2.2-0.6
				c-0.6-0.4-1.1-0.9-1.5-1.6c-0.3-0.7-0.5-1.5-0.5-2.5c0-1.4,0.4-2.6,1.1-3.4s1.8-1.2,3.1-1.2c1.3,0,2.3,0.4,3.1,1.2
				S39.8,268.3,39.8,269.7z M33.3,269.7c0,2.1,0.8,3.1,2.3,3.1c1.5,0,2.3-1,2.3-3.1c0-2-0.8-3.1-2.3-3.1c-0.8,0-1.4,0.3-1.7,0.8
				C33.5,267.9,33.3,268.7,33.3,269.7z"/>
			<path fill="#006838" d="M51.1,269.7c0,1.5-0.4,2.6-1.1,3.4c-0.7,0.8-1.8,1.2-3.1,1.2c-0.8,0-1.6-0.2-2.2-0.6
				c-0.6-0.4-1.1-0.9-1.5-1.6c-0.3-0.7-0.5-1.5-0.5-2.5c0-1.4,0.4-2.6,1.1-3.4s1.8-1.2,3.1-1.2c1.3,0,2.3,0.4,3.1,1.2
				S51.1,268.3,51.1,269.7z M44.7,269.7c0,2.1,0.8,3.1,2.3,3.1c1.5,0,2.3-1,2.3-3.1c0-2-0.8-3.1-2.3-3.1c-0.8,0-1.4,0.3-1.7,0.8
				C44.8,267.9,44.7,268.7,44.7,269.7z"/>
			<path fill="#006838" d="M56.4,269.4l1.1-1.3l2.7-2.9h2.2l-3.6,3.8l3.8,5.1h-2.2l-2.9-3.9l-1,0.9v3.1h-1.9v-12.6h1.9v6.1
				L56.4,269.4L56.4,269.4z"/>
			<path fill="#006838" d="M71.2,271.6c0,0.9-0.3,1.5-1,2c-0.6,0.5-1.5,0.7-2.7,0.7c-1.2,0-2.1-0.2-2.9-0.5v-1.6
				c1,0.5,2,0.7,2.9,0.7c1.2,0,1.8-0.4,1.8-1.1c0-0.2-0.1-0.4-0.2-0.6c-0.1-0.2-0.3-0.3-0.6-0.5c-0.3-0.2-0.7-0.3-1.2-0.5
				c-1-0.4-1.7-0.8-2.1-1.2c-0.4-0.4-0.5-0.9-0.5-1.5c0-0.8,0.3-1.4,0.9-1.8c0.6-0.4,1.5-0.6,2.5-0.6c1,0,2,0.2,3,0.6l-0.6,1.4
				c-1-0.4-1.8-0.6-2.4-0.6c-1,0-1.5,0.3-1.5,0.9c0,0.3,0.1,0.5,0.4,0.7s0.8,0.5,1.7,0.8c0.7,0.3,1.3,0.5,1.6,0.8
				c0.3,0.2,0.6,0.5,0.7,0.8C71.2,270.8,71.2,271.2,71.2,271.6z"/>
			<path fill="#006838" d="M76.5,272.4c-0.3,1-0.7,2.3-1.4,3.9h-1.4c0.4-1.5,0.6-2.8,0.8-4h1.9L76.5,272.4z"/>
			<path fill="#006838" d="M93.2,274.2h-1.9v-5.5c0-0.7-0.1-1.2-0.4-1.5c-0.3-0.3-0.7-0.5-1.2-0.5c-0.7,0-1.3,0.2-1.6,0.7
				c-0.3,0.5-0.5,1.3-0.5,2.4v4.4h-1.9v-8.9h1.5l0.3,1.2h0.1c0.2-0.4,0.6-0.8,1.1-1s1-0.3,1.6-0.3c1.4,0,2.3,0.5,2.7,1.4h0.1
				c0.3-0.4,0.6-0.8,1.1-1c0.5-0.2,1-0.4,1.6-0.4c1.1,0,1.8,0.3,2.3,0.8c0.5,0.5,0.7,1.4,0.7,2.5v5.8H97v-5.5c0-0.7-0.1-1.2-0.4-1.5
				s-0.7-0.5-1.2-0.5c-0.7,0-1.3,0.2-1.6,0.7c-0.3,0.5-0.5,1.2-0.5,2.1V274.2z"/>
			<path fill="#006838" d="M108.3,274.2l-0.4-1.2h-0.1c-0.4,0.5-0.9,0.9-1.3,1.1c-0.4,0.2-1,0.3-1.7,0.3c-0.9,0-1.6-0.2-2.1-0.7
				c-0.5-0.5-0.7-1.1-0.7-2c0-0.9,0.3-1.6,1-2.1c0.7-0.5,1.7-0.7,3.1-0.8l1.5,0v-0.5c0-0.6-0.1-1-0.4-1.3s-0.7-0.4-1.2-0.4
				c-0.5,0-0.9,0.1-1.3,0.2c-0.4,0.1-0.8,0.3-1.2,0.5l-0.6-1.4c0.5-0.3,1-0.4,1.6-0.6c0.6-0.1,1.1-0.2,1.6-0.2c1.1,0,2,0.2,2.6,0.7
				c0.6,0.5,0.9,1.3,0.9,2.3v6H108.3z M105.5,272.9c0.7,0,1.2-0.2,1.7-0.6c0.4-0.4,0.6-0.9,0.6-1.6v-0.8l-1.1,0
				c-0.9,0-1.5,0.2-1.9,0.4s-0.6,0.7-0.6,1.2c0,0.4,0.1,0.7,0.4,0.9C104.7,272.8,105,272.9,105.5,272.9z"/>
			<path fill="#006838" d="M121.1,265.2v1l-1.5,0.3c0.1,0.2,0.3,0.4,0.3,0.7s0.1,0.6,0.1,0.9c0,0.9-0.3,1.6-1,2.2
				c-0.6,0.5-1.5,0.8-2.6,0.8c-0.3,0-0.5,0-0.8-0.1c-0.4,0.3-0.6,0.5-0.6,0.9c0,0.2,0.1,0.4,0.3,0.5c0.2,0.1,0.5,0.2,1.1,0.2h1.6
				c1,0,1.7,0.2,2.2,0.6c0.5,0.4,0.8,1,0.8,1.8c0,1-0.4,1.8-1.2,2.3c-0.8,0.5-2,0.8-3.6,0.8c-1.2,0-2.1-0.2-2.8-0.6
				c-0.6-0.4-1-1-1-1.8c0-0.5,0.2-1,0.5-1.4c0.3-0.4,0.8-0.6,1.5-0.8c-0.3-0.1-0.5-0.3-0.6-0.5s-0.2-0.5-0.2-0.8
				c0-0.3,0.1-0.6,0.3-0.8s0.5-0.5,0.8-0.7c-0.5-0.2-0.8-0.5-1.1-1c-0.3-0.4-0.4-1-0.4-1.6c0-1,0.3-1.7,0.9-2.3
				c0.6-0.5,1.5-0.8,2.6-0.8c0.3,0,0.5,0,0.8,0.1c0.3,0,0.5,0.1,0.6,0.1H121.1z M114.1,275.5c0,0.4,0.2,0.7,0.6,0.9
				c0.4,0.2,0.9,0.3,1.6,0.3c1,0,1.8-0.1,2.3-0.4s0.8-0.7,0.8-1.2c0-0.4-0.1-0.7-0.4-0.8s-0.8-0.2-1.5-0.2h-1.4
				c-0.5,0-1,0.1-1.3,0.4C114.3,274.8,114.1,275.1,114.1,275.5z M114.9,268.1c0,0.6,0.1,1,0.4,1.3c0.3,0.3,0.7,0.5,1.2,0.5
				c1.1,0,1.6-0.6,1.6-1.8c0-0.6-0.1-1-0.4-1.3c-0.3-0.3-0.7-0.5-1.2-0.5c-0.5,0-1,0.2-1.2,0.5C115.1,267.1,114.9,267.5,114.9,268.1
				z"/>
			<path fill="#006838" d="M129.6,274.2l-0.4-1.2h-0.1c-0.4,0.5-0.9,0.9-1.3,1.1c-0.4,0.2-1,0.3-1.7,0.3c-0.9,0-1.6-0.2-2.1-0.7
				c-0.5-0.5-0.7-1.1-0.7-2c0-0.9,0.3-1.6,1-2.1c0.7-0.5,1.7-0.7,3.1-0.8l1.5,0v-0.5c0-0.6-0.1-1-0.4-1.3s-0.7-0.4-1.2-0.4
				c-0.5,0-0.9,0.1-1.3,0.2c-0.4,0.1-0.8,0.3-1.2,0.5l-0.6-1.4c0.5-0.3,1-0.4,1.6-0.6c0.6-0.1,1.1-0.2,1.6-0.2c1.1,0,2,0.2,2.6,0.7
				c0.6,0.5,0.9,1.3,0.9,2.3v6H129.6z M126.8,272.9c0.7,0,1.2-0.2,1.7-0.6c0.4-0.4,0.6-0.9,0.6-1.6v-0.8l-1.1,0
				c-0.9,0-1.5,0.2-1.9,0.4s-0.6,0.7-0.6,1.2c0,0.4,0.1,0.7,0.4,0.9C125.9,272.8,126.3,272.9,126.8,272.9z"/>
			<path fill="#006838" d="M140.8,274.2H134V273l4.5-6.3h-4.2v-1.5h6.4v1.3l-4.4,6.1h4.5V274.2z"/>
			<path fill="#006838" d="M143.9,262.9c0-0.3,0.1-0.6,0.3-0.8c0.2-0.2,0.5-0.3,0.8-0.3c0.3,0,0.6,0.1,0.8,0.3
				c0.2,0.2,0.3,0.4,0.3,0.8c0,0.3-0.1,0.6-0.3,0.8s-0.4,0.3-0.8,0.3c-0.3,0-0.6-0.1-0.8-0.3S143.9,263.2,143.9,262.9z M145.9,274.2
				H144v-8.9h1.9V274.2z"/>
			<path fill="#006838" d="M157.7,274.2h-1.9v-5.5c0-0.7-0.1-1.2-0.4-1.5c-0.3-0.3-0.7-0.5-1.3-0.5c-0.8,0-1.4,0.2-1.8,0.7
				c-0.4,0.5-0.6,1.3-0.6,2.4v4.4h-1.9v-8.9h1.5l0.3,1.2h0.1c0.3-0.4,0.7-0.8,1.1-1s1-0.3,1.6-0.3c2.1,0,3.2,1.1,3.2,3.3V274.2z"/>
			<path fill="#006838" d="M165.4,274.3c-1.4,0-2.5-0.4-3.3-1.2c-0.8-0.8-1.2-1.9-1.2-3.3c0-1.5,0.4-2.6,1.1-3.4s1.7-1.3,3-1.3
				c1.2,0,2.1,0.4,2.8,1.1c0.7,0.7,1,1.7,1,3v1H163c0,0.9,0.3,1.5,0.7,2c0.4,0.5,1.1,0.7,1.9,0.7c0.5,0,1,0,1.5-0.1
				c0.5-0.1,0.9-0.3,1.5-0.5v1.5c-0.5,0.2-0.9,0.4-1.4,0.5C166.6,274.3,166,274.3,165.4,274.3z M165.1,266.5c-0.6,0-1.1,0.2-1.4,0.6
				s-0.6,0.9-0.6,1.7h4c0-0.7-0.2-1.3-0.5-1.7C166.2,266.7,165.7,266.5,165.1,266.5z"/>
			<path fill="#006838" d="M178.3,271.6c0,0.9-0.3,1.5-1,2c-0.6,0.5-1.5,0.7-2.7,0.7c-1.2,0-2.1-0.2-2.9-0.5v-1.6
				c1,0.5,2,0.7,2.9,0.7c1.2,0,1.8-0.4,1.8-1.1c0-0.2-0.1-0.4-0.2-0.6c-0.1-0.2-0.3-0.3-0.6-0.5c-0.3-0.2-0.7-0.3-1.2-0.5
				c-1-0.4-1.7-0.8-2.1-1.2c-0.4-0.4-0.5-0.9-0.5-1.5c0-0.8,0.3-1.4,0.9-1.8c0.6-0.4,1.5-0.6,2.5-0.6c1,0,2,0.2,3,0.6l-0.6,1.4
				c-1-0.4-1.8-0.6-2.4-0.6c-1,0-1.5,0.3-1.5,0.9c0,0.3,0.1,0.5,0.4,0.7s0.8,0.5,1.7,0.8c0.7,0.3,1.3,0.5,1.6,0.8
				c0.3,0.2,0.6,0.5,0.7,0.8C178.2,270.8,178.3,271.2,178.3,271.6z"/>
			<path fill="#006838" d="M192.7,274.2l-0.4-1.2h-0.1c-0.4,0.5-0.9,0.9-1.3,1.1c-0.4,0.2-1,0.3-1.7,0.3c-0.9,0-1.6-0.2-2.1-0.7
				c-0.5-0.5-0.7-1.1-0.7-2c0-0.9,0.3-1.6,1-2.1c0.7-0.5,1.7-0.7,3.1-0.8l1.5,0v-0.5c0-0.6-0.1-1-0.4-1.3s-0.7-0.4-1.2-0.4
				c-0.5,0-0.9,0.1-1.3,0.2c-0.4,0.1-0.8,0.3-1.2,0.5l-0.6-1.4c0.5-0.3,1-0.4,1.6-0.6c0.6-0.1,1.1-0.2,1.6-0.2c1.1,0,2,0.2,2.6,0.7
				c0.6,0.5,0.9,1.3,0.9,2.3v6H192.7z M189.9,272.9c0.7,0,1.2-0.2,1.7-0.6c0.4-0.4,0.6-0.9,0.6-1.6v-0.8l-1.1,0
				c-0.9,0-1.5,0.2-1.9,0.4s-0.6,0.7-0.6,1.2c0,0.4,0.1,0.7,0.4,0.9C189,272.8,189.4,272.9,189.9,272.9z"/>
			<path fill="#006838" d="M205.8,274.2h-1.9v-5.5c0-0.7-0.1-1.2-0.4-1.5c-0.3-0.3-0.7-0.5-1.3-0.5c-0.8,0-1.4,0.2-1.8,0.7
				c-0.4,0.5-0.6,1.3-0.6,2.4v4.4h-1.9v-8.9h1.5l0.3,1.2h0.1c0.3-0.4,0.7-0.8,1.1-1s1-0.3,1.6-0.3c2.1,0,3.2,1.1,3.2,3.3V274.2z"/>
			<path fill="#006838" d="M212.7,274.3c-1.1,0-2-0.4-2.6-1.2s-0.9-1.9-0.9-3.4c0-1.5,0.3-2.6,0.9-3.4c0.6-0.8,1.5-1.2,2.6-1.2
				c1.2,0,2.1,0.4,2.7,1.3h0.1c-0.1-0.6-0.1-1.1-0.1-1.5v-3.3h1.9v12.6h-1.5l-0.3-1.2h-0.1C214.7,273.9,213.8,274.3,212.7,274.3z
				 M213.2,272.8c0.8,0,1.3-0.2,1.7-0.7c0.4-0.4,0.5-1.1,0.5-2.1v-0.3c0-1.1-0.2-1.9-0.5-2.4c-0.4-0.5-0.9-0.7-1.7-0.7
				c-0.7,0-1.2,0.3-1.5,0.8c-0.4,0.5-0.5,1.3-0.5,2.3c0,1,0.2,1.7,0.5,2.3C212,272.5,212.5,272.8,213.2,272.8z"/>
			<path fill="#006838" d="M231.3,274.3c-1.1,0-2-0.4-2.6-1.2h-0.1c0.1,0.8,0.1,1.2,0.1,1.4v3.7h-1.9v-12.9h1.5
				c0,0.2,0.1,0.6,0.3,1.2h0.1c0.6-0.9,1.5-1.4,2.7-1.4c1.1,0,2,0.4,2.6,1.2s0.9,1.9,0.9,3.4c0,1.5-0.3,2.6-0.9,3.4
				C233.2,273.9,232.4,274.3,231.3,274.3z M230.8,266.6c-0.8,0-1.3,0.2-1.7,0.7c-0.3,0.4-0.5,1.1-0.5,2.1v0.3c0,1.1,0.2,1.9,0.5,2.4
				c0.3,0.5,0.9,0.7,1.7,0.7c0.7,0,1.2-0.3,1.5-0.8c0.4-0.5,0.5-1.3,0.5-2.3c0-1-0.2-1.8-0.5-2.3S231.5,266.6,230.8,266.6z"/>
			<path fill="#006838" d="M242.2,274.3c-1.4,0-2.5-0.4-3.3-1.2c-0.8-0.8-1.2-1.9-1.2-3.3c0-1.5,0.4-2.6,1.1-3.4s1.7-1.3,3-1.3
				c1.2,0,2.1,0.4,2.8,1.1c0.7,0.7,1,1.7,1,3v1h-5.9c0,0.9,0.3,1.5,0.7,2c0.4,0.5,1.1,0.7,1.9,0.7c0.5,0,1,0,1.5-0.1
				c0.5-0.1,0.9-0.3,1.5-0.5v1.5c-0.5,0.2-0.9,0.4-1.4,0.5C243.3,274.3,242.8,274.3,242.2,274.3z M241.8,266.5
				c-0.6,0-1.1,0.2-1.4,0.6s-0.6,0.9-0.6,1.7h4c0-0.7-0.2-1.3-0.5-1.7C242.9,266.7,242.4,266.5,241.8,266.5z"/>
			<path fill="#006838" d="M253.6,265.1c0.4,0,0.7,0,0.9,0.1l-0.2,1.8c-0.3-0.1-0.5-0.1-0.8-0.1c-0.8,0-1.4,0.2-1.8,0.7
				c-0.5,0.5-0.7,1.1-0.7,1.9v4.7H249v-8.9h1.5l0.2,1.6h0.1c0.3-0.5,0.7-1,1.2-1.3C252.5,265.2,253,265.1,253.6,265.1z"/>
			<path fill="#006838" d="M257.3,262.9c0-0.3,0.1-0.6,0.3-0.8c0.2-0.2,0.5-0.3,0.8-0.3c0.3,0,0.6,0.1,0.8,0.3
				c0.2,0.2,0.3,0.4,0.3,0.8c0,0.3-0.1,0.6-0.3,0.8s-0.4,0.3-0.8,0.3c-0.3,0-0.6-0.1-0.8-0.3S257.3,263.2,257.3,262.9z M259.3,274.2
				h-1.9v-8.9h1.9V274.2z"/>
			<path fill="#006838" d="M271.2,269.7c0,1.5-0.4,2.6-1.1,3.4c-0.7,0.8-1.8,1.2-3.1,1.2c-0.8,0-1.6-0.2-2.2-0.6
				c-0.6-0.4-1.1-0.9-1.5-1.6c-0.3-0.7-0.5-1.5-0.5-2.5c0-1.4,0.4-2.6,1.1-3.4s1.8-1.2,3.1-1.2c1.3,0,2.3,0.4,3.1,1.2
				S271.2,268.3,271.2,269.7z M264.7,269.7c0,2.1,0.8,3.1,2.3,3.1c1.5,0,2.3-1,2.3-3.1c0-2-0.8-3.1-2.3-3.1c-0.8,0-1.4,0.3-1.7,0.8
				C264.8,267.9,264.7,268.7,264.7,269.7z"/>
			<path fill="#006838" d="M277.6,274.3c-1.1,0-2-0.4-2.6-1.2s-0.9-1.9-0.9-3.4c0-1.5,0.3-2.6,0.9-3.4c0.6-0.8,1.5-1.2,2.6-1.2
				c1.2,0,2.1,0.4,2.7,1.3h0.1c-0.1-0.6-0.1-1.1-0.1-1.5v-3.3h1.9v12.6h-1.5l-0.3-1.2h-0.1C279.6,273.9,278.7,274.3,277.6,274.3z
				 M278.1,272.8c0.8,0,1.3-0.2,1.7-0.7c0.4-0.4,0.5-1.1,0.5-2.1v-0.3c0-1.1-0.2-1.9-0.5-2.4c-0.4-0.5-0.9-0.7-1.7-0.7
				c-0.7,0-1.2,0.3-1.5,0.8c-0.4,0.5-0.5,1.3-0.5,2.3c0,1,0.2,1.7,0.5,2.3C276.9,272.5,277.4,272.8,278.1,272.8z"/>
			<path fill="#006838" d="M286,262.9c0-0.3,0.1-0.6,0.3-0.8c0.2-0.2,0.5-0.3,0.8-0.3c0.3,0,0.6,0.1,0.8,0.3
				c0.2,0.2,0.3,0.4,0.3,0.8c0,0.3-0.1,0.6-0.3,0.8s-0.4,0.3-0.8,0.3c-0.3,0-0.6-0.1-0.8-0.3S286,263.2,286,262.9z M288,274.2h-1.9
				v-8.9h1.9V274.2z"/>
			<path fill="#006838" d="M295.5,274.3c-1.4,0-2.4-0.4-3.1-1.2s-1.1-1.9-1.1-3.4c0-1.5,0.4-2.7,1.1-3.5c0.7-0.8,1.8-1.2,3.2-1.2
				c0.9,0,1.8,0.2,2.5,0.5l-0.6,1.5c-0.8-0.3-1.5-0.5-2-0.5c-1.5,0-2.3,1-2.3,3.1c0,1,0.2,1.8,0.6,2.3c0.4,0.5,0.9,0.8,1.7,0.8
				c0.8,0,1.6-0.2,2.4-0.6v1.7c-0.3,0.2-0.7,0.3-1.1,0.4S296.1,274.3,295.5,274.3z"/>
			<path fill="#006838" d="M307,274.2l-0.4-1.2h-0.1c-0.4,0.5-0.9,0.9-1.3,1.1c-0.4,0.2-1,0.3-1.7,0.3c-0.9,0-1.6-0.2-2.1-0.7
				c-0.5-0.5-0.7-1.1-0.7-2c0-0.9,0.3-1.6,1-2.1c0.7-0.5,1.7-0.7,3.1-0.8l1.5,0v-0.5c0-0.6-0.1-1-0.4-1.3s-0.7-0.4-1.2-0.4
				c-0.5,0-0.9,0.1-1.3,0.2c-0.4,0.1-0.8,0.3-1.2,0.5l-0.6-1.4c0.5-0.3,1-0.4,1.6-0.6c0.6-0.1,1.1-0.2,1.6-0.2c1.1,0,2,0.2,2.6,0.7
				c0.6,0.5,0.9,1.3,0.9,2.3v6H307z M304.1,272.9c0.7,0,1.2-0.2,1.7-0.6c0.4-0.4,0.6-0.9,0.6-1.6v-0.8l-1.1,0
				c-0.9,0-1.5,0.2-1.9,0.4s-0.6,0.7-0.6,1.2c0,0.4,0.1,0.7,0.4,0.9C303.3,272.8,303.7,272.9,304.1,272.9z"/>
			<path fill="#006838" d="M314.1,274.2h-1.9v-12.6h1.9V274.2z"/>
			<path fill="#006838" d="M324,271.6c0,0.9-0.3,1.5-1,2c-0.6,0.5-1.5,0.7-2.7,0.7c-1.2,0-2.1-0.2-2.9-0.5v-1.6c1,0.5,2,0.7,2.9,0.7
				c1.2,0,1.8-0.4,1.8-1.1c0-0.2-0.1-0.4-0.2-0.6c-0.1-0.2-0.3-0.3-0.6-0.5c-0.3-0.2-0.7-0.3-1.2-0.5c-1-0.4-1.7-0.8-2.1-1.2
				c-0.4-0.4-0.5-0.9-0.5-1.5c0-0.8,0.3-1.4,0.9-1.8c0.6-0.4,1.5-0.6,2.5-0.6c1,0,2,0.2,3,0.6l-0.6,1.4c-1-0.4-1.8-0.6-2.4-0.6
				c-1,0-1.5,0.3-1.5,0.9c0,0.3,0.1,0.5,0.4,0.7s0.8,0.5,1.7,0.8c0.7,0.3,1.3,0.5,1.6,0.8c0.3,0.2,0.6,0.5,0.7,0.8
				C324,270.8,324,271.2,324,271.6z"/>
			<path fill="#006838" d="M25.9,294l-0.4-1.2h-0.1c-0.4,0.5-0.9,0.9-1.3,1.1c-0.4,0.2-1,0.3-1.7,0.3c-0.9,0-1.6-0.2-2.1-0.7
				c-0.5-0.5-0.7-1.1-0.7-2c0-0.9,0.3-1.6,1-2.1c0.7-0.5,1.7-0.7,3.1-0.8l1.5,0V288c0-0.6-0.1-1-0.4-1.3s-0.7-0.4-1.2-0.4
				c-0.5,0-0.9,0.1-1.3,0.2c-0.4,0.1-0.8,0.3-1.2,0.5l-0.6-1.4c0.5-0.3,1-0.4,1.6-0.6c0.6-0.1,1.1-0.2,1.6-0.2c1.1,0,2,0.2,2.6,0.7
				c0.6,0.5,0.9,1.3,0.9,2.3v6H25.9z M23.1,292.7c0.7,0,1.2-0.2,1.7-0.6c0.4-0.4,0.6-0.9,0.6-1.6v-0.8l-1.1,0
				c-0.9,0-1.5,0.2-1.9,0.4s-0.6,0.7-0.6,1.2c0,0.4,0.1,0.7,0.4,0.9C22.3,292.6,22.7,292.7,23.1,292.7z"/>
			<path fill="#006838" d="M39,294h-1.9v-5.5c0-0.7-0.1-1.2-0.4-1.5c-0.3-0.3-0.7-0.5-1.3-0.5c-0.8,0-1.4,0.2-1.8,0.7
				c-0.4,0.5-0.6,1.3-0.6,2.4v4.4h-1.9v-8.9h1.5l0.3,1.2H33c0.3-0.4,0.7-0.8,1.1-1s1-0.3,1.6-0.3c2.1,0,3.2,1.1,3.2,3.3V294z"/>
			<path fill="#006838" d="M45.9,294.1c-1.1,0-2-0.4-2.6-1.2s-0.9-1.9-0.9-3.4c0-1.5,0.3-2.6,0.9-3.4c0.6-0.8,1.5-1.2,2.6-1.2
				c1.2,0,2.1,0.4,2.7,1.3h0.1c-0.1-0.6-0.1-1.1-0.1-1.5v-3.3h1.9V294H49l-0.3-1.2h-0.1C48,293.7,47.1,294.1,45.9,294.1z
				 M46.4,292.6c0.8,0,1.3-0.2,1.7-0.7c0.4-0.4,0.5-1.1,0.5-2.1v-0.3c0-1.1-0.2-1.9-0.5-2.4c-0.4-0.5-0.9-0.7-1.7-0.7
				c-0.7,0-1.2,0.3-1.5,0.8c-0.4,0.5-0.5,1.3-0.5,2.3c0,1,0.2,1.7,0.5,2.3C45.2,292.3,45.7,292.6,46.4,292.6z"/>
			<path fill="#006838" d="M62.1,294h-1.9v-11.8h6.7v1.6h-4.7v3.7h4.4v1.6h-4.4V294z"/>
			<path fill="#006838" d="M72.1,289.3v4.7h-1.9v-11.8h3.3c1.5,0,2.6,0.3,3.4,0.9c0.7,0.6,1.1,1.4,1.1,2.6c0,1.5-0.8,2.5-2.3,3.1
				l3.3,5.2h-2.2l-2.8-4.7H72.1z M72.1,287.7h1.3c0.9,0,1.5-0.2,2-0.5c0.4-0.3,0.6-0.8,0.6-1.5c0-0.7-0.2-1.1-0.7-1.4
				c-0.4-0.3-1.1-0.4-2-0.4h-1.3V287.7z"/>
			<path fill="#006838" d="M88.7,294H82v-11.8h6.7v1.6h-4.7v3.2h4.4v1.6h-4.4v3.7h4.7V294z"/>
			<path fill="#006838" d="M99.2,294h-6.7v-11.8h6.7v1.6h-4.7v3.2h4.4v1.6h-4.4v3.7h4.7V294z"/>
			<path fill="#006838" d="M108.2,282.7c0-0.3,0.1-0.6,0.3-0.8c0.2-0.2,0.5-0.3,0.8-0.3c0.3,0,0.6,0.1,0.8,0.3
				c0.2,0.2,0.3,0.4,0.3,0.8c0,0.3-0.1,0.6-0.3,0.8s-0.4,0.3-0.8,0.3c-0.3,0-0.6-0.1-0.8-0.3S108.2,283,108.2,282.7z M110.2,294
				h-1.9v-8.9h1.9V294z"/>
			<path fill="#006838" d="M122,294h-1.9v-5.5c0-0.7-0.1-1.2-0.4-1.5c-0.3-0.3-0.7-0.5-1.3-0.5c-0.8,0-1.4,0.2-1.8,0.7
				c-0.4,0.5-0.6,1.3-0.6,2.4v4.4h-1.9v-8.9h1.5l0.3,1.2h0.1c0.3-0.4,0.7-0.8,1.1-1s1-0.3,1.6-0.3c2.1,0,3.2,1.1,3.2,3.3V294z"/>
			<path fill="#006838" d="M129.2,292.6c0.5,0,0.9-0.1,1.4-0.2v1.4c-0.2,0.1-0.5,0.2-0.8,0.2c-0.3,0.1-0.7,0.1-1,0.1
				c-1.8,0-2.7-0.9-2.7-2.8v-4.8h-1.2v-0.8l1.3-0.7l0.6-1.9h1.2v2h2.5v1.4h-2.5v4.8c0,0.5,0.1,0.8,0.3,1
				C128.5,292.5,128.8,292.6,129.2,292.6z"/>
			<path fill="#006838" d="M137.5,294.1c-1.4,0-2.5-0.4-3.3-1.2c-0.8-0.8-1.2-1.9-1.2-3.3c0-1.5,0.4-2.6,1.1-3.4s1.7-1.3,3-1.3
				c1.2,0,2.1,0.4,2.8,1.1c0.7,0.7,1,1.7,1,3v1H135c0,0.9,0.3,1.5,0.7,2c0.4,0.5,1.1,0.7,1.9,0.7c0.5,0,1,0,1.5-0.1
				c0.5-0.1,0.9-0.3,1.5-0.5v1.5c-0.5,0.2-0.9,0.4-1.4,0.5C138.6,294.1,138.1,294.1,137.5,294.1z M137.1,286.3
				c-0.6,0-1.1,0.2-1.4,0.6s-0.6,0.9-0.6,1.7h4c0-0.7-0.2-1.3-0.5-1.7C138.2,286.5,137.7,286.3,137.1,286.3z"/>
			<path fill="#006838" d="M148.9,284.9c0.4,0,0.7,0,0.9,0.1l-0.2,1.8c-0.3-0.1-0.5-0.1-0.8-0.1c-0.8,0-1.4,0.2-1.8,0.7
				c-0.5,0.5-0.7,1.1-0.7,1.9v4.7h-1.9v-8.9h1.5l0.2,1.6h0.1c0.3-0.5,0.7-1,1.2-1.3C147.8,285.1,148.3,284.9,148.9,284.9z"/>
			<path fill="#006838" d="M160.5,294h-1.9v-5.5c0-0.7-0.1-1.2-0.4-1.5c-0.3-0.3-0.7-0.5-1.3-0.5c-0.8,0-1.4,0.2-1.8,0.7
				c-0.4,0.5-0.6,1.3-0.6,2.4v4.4h-1.9v-8.9h1.5l0.3,1.2h0.1c0.3-0.4,0.7-0.8,1.1-1s1-0.3,1.6-0.3c2.1,0,3.2,1.1,3.2,3.3V294z"/>
			<path fill="#006838" d="M168.3,294.1c-1.4,0-2.5-0.4-3.3-1.2c-0.8-0.8-1.2-1.9-1.2-3.3c0-1.5,0.4-2.6,1.1-3.4s1.7-1.3,3-1.3
				c1.2,0,2.1,0.4,2.8,1.1c0.7,0.7,1,1.7,1,3v1h-5.9c0,0.9,0.3,1.5,0.7,2c0.4,0.5,1.1,0.7,1.9,0.7c0.5,0,1,0,1.5-0.1
				c0.5-0.1,0.9-0.3,1.5-0.5v1.5c-0.5,0.2-0.9,0.4-1.4,0.5C169.5,294.1,168.9,294.1,168.3,294.1z M168,286.3c-0.6,0-1.1,0.2-1.4,0.6
				s-0.6,0.9-0.6,1.7h4c0-0.7-0.2-1.3-0.5-1.7C169.1,286.5,168.6,286.3,168,286.3z"/>
			<path fill="#006838" d="M178.5,292.6c0.5,0,0.9-0.1,1.4-0.2v1.4c-0.2,0.1-0.5,0.2-0.8,0.2c-0.3,0.1-0.7,0.1-1,0.1
				c-1.8,0-2.7-0.9-2.7-2.8v-4.8h-1.2v-0.8l1.3-0.7l0.6-1.9h1.2v2h2.5v1.4h-2.5v4.8c0,0.5,0.1,0.8,0.3,1
				C177.8,292.5,178.1,292.6,178.5,292.6z"/>
			<path fill="#006838" d="M194.4,291.4c0,0.9-0.3,1.5-1,2c-0.6,0.5-1.5,0.7-2.7,0.7c-1.2,0-2.1-0.2-2.9-0.5V292
				c1,0.5,2,0.7,2.9,0.7c1.2,0,1.8-0.4,1.8-1.1c0-0.2-0.1-0.4-0.2-0.6c-0.1-0.2-0.3-0.3-0.6-0.5c-0.3-0.2-0.7-0.3-1.2-0.5
				c-1-0.4-1.7-0.8-2.1-1.2c-0.4-0.4-0.5-0.9-0.5-1.5c0-0.8,0.3-1.4,0.9-1.8c0.6-0.4,1.5-0.6,2.5-0.6c1,0,2,0.2,3,0.6l-0.6,1.4
				c-1-0.4-1.8-0.6-2.4-0.6c-1,0-1.5,0.3-1.5,0.9c0,0.3,0.1,0.5,0.4,0.7s0.8,0.5,1.7,0.8c0.7,0.3,1.3,0.5,1.6,0.8
				c0.3,0.2,0.6,0.5,0.7,0.8C194.4,290.6,194.4,291,194.4,291.4z"/>
			<path fill="#006838" d="M201.6,294.1c-1.4,0-2.5-0.4-3.3-1.2c-0.8-0.8-1.2-1.9-1.2-3.3c0-1.5,0.4-2.6,1.1-3.4s1.7-1.3,3-1.3
				c1.2,0,2.1,0.4,2.8,1.1c0.7,0.7,1,1.7,1,3v1h-5.9c0,0.9,0.3,1.5,0.7,2c0.4,0.5,1.1,0.7,1.9,0.7c0.5,0,1,0,1.5-0.1
				c0.5-0.1,0.9-0.3,1.5-0.5v1.5c-0.5,0.2-0.9,0.4-1.4,0.5C202.8,294.1,202.2,294.1,201.6,294.1z M201.3,286.3
				c-0.6,0-1.1,0.2-1.4,0.6s-0.6,0.9-0.6,1.7h4c0-0.7-0.2-1.3-0.5-1.7C202.4,286.5,201.9,286.3,201.3,286.3z"/>
			<path fill="#006838" d="M213,284.9c0.4,0,0.7,0,0.9,0.1l-0.2,1.8c-0.3-0.1-0.5-0.1-0.8-0.1c-0.8,0-1.4,0.2-1.8,0.7
				c-0.5,0.5-0.7,1.1-0.7,1.9v4.7h-1.9v-8.9h1.5l0.2,1.6h0.1c0.3-0.5,0.7-1,1.2-1.3C212,285.1,212.5,284.9,213,284.9z"/>
			<path fill="#006838" d="M218.9,294l-3.4-8.9h2l1.8,5.2c0.3,0.9,0.5,1.6,0.6,2.1h0.1c0-0.4,0.2-1.1,0.6-2.1l1.8-5.2h2l-3.4,8.9
				H218.9z"/>
			<path fill="#006838" d="M226.8,282.7c0-0.3,0.1-0.6,0.3-0.8c0.2-0.2,0.5-0.3,0.8-0.3c0.3,0,0.6,0.1,0.8,0.3
				c0.2,0.2,0.3,0.4,0.3,0.8c0,0.3-0.1,0.6-0.3,0.8s-0.4,0.3-0.8,0.3c-0.3,0-0.6-0.1-0.8-0.3S226.8,283,226.8,282.7z M228.8,294
				h-1.9v-8.9h1.9V294z"/>
			<path fill="#006838" d="M236.4,294.1c-1.4,0-2.4-0.4-3.1-1.2s-1.1-1.9-1.1-3.4c0-1.5,0.4-2.7,1.1-3.5c0.7-0.8,1.8-1.2,3.2-1.2
				c0.9,0,1.8,0.2,2.5,0.5l-0.6,1.5c-0.8-0.3-1.5-0.5-2-0.5c-1.5,0-2.3,1-2.3,3.1c0,1,0.2,1.8,0.6,2.3c0.4,0.5,0.9,0.8,1.7,0.8
				c0.8,0,1.6-0.2,2.4-0.6v1.7c-0.3,0.2-0.7,0.3-1.1,0.4S236.9,294.1,236.4,294.1z"/>
			<path fill="#006838" d="M246.1,294.1c-1.4,0-2.5-0.4-3.3-1.2c-0.8-0.8-1.2-1.9-1.2-3.3c0-1.5,0.4-2.6,1.1-3.4s1.7-1.3,3-1.3
				c1.2,0,2.1,0.4,2.8,1.1c0.7,0.7,1,1.7,1,3v1h-5.9c0,0.9,0.3,1.5,0.7,2c0.4,0.5,1.1,0.7,1.9,0.7c0.5,0,1,0,1.5-0.1
				c0.5-0.1,0.9-0.3,1.5-0.5v1.5c-0.5,0.2-0.9,0.4-1.4,0.5C247.3,294.1,246.7,294.1,246.1,294.1z M245.8,286.3
				c-0.6,0-1.1,0.2-1.4,0.6s-0.6,0.9-0.6,1.7h4c0-0.7-0.2-1.3-0.5-1.7C246.8,286.5,246.4,286.3,245.8,286.3z"/>
			<path fill="#006838" d="M259,291.4c0,0.9-0.3,1.5-1,2c-0.6,0.5-1.5,0.7-2.7,0.7c-1.2,0-2.1-0.2-2.9-0.5V292c1,0.5,2,0.7,2.9,0.7
				c1.2,0,1.8-0.4,1.8-1.1c0-0.2-0.1-0.4-0.2-0.6c-0.1-0.2-0.3-0.3-0.6-0.5c-0.3-0.2-0.7-0.3-1.2-0.5c-1-0.4-1.7-0.8-2.1-1.2
				c-0.4-0.4-0.5-0.9-0.5-1.5c0-0.8,0.3-1.4,0.9-1.8c0.6-0.4,1.5-0.6,2.5-0.6c1,0,2,0.2,3,0.6l-0.6,1.4c-1-0.4-1.8-0.6-2.4-0.6
				c-1,0-1.5,0.3-1.5,0.9c0,0.3,0.1,0.5,0.4,0.7s0.8,0.5,1.7,0.8c0.7,0.3,1.3,0.5,1.6,0.8c0.3,0.2,0.6,0.5,0.7,0.8
				C258.9,290.6,259,291,259,291.4z"/>
			<path fill="#006838" d="M262,293c0-0.4,0.1-0.7,0.3-0.9c0.2-0.2,0.5-0.3,0.9-0.3c0.4,0,0.7,0.1,0.9,0.3c0.2,0.2,0.3,0.5,0.3,0.9
				c0,0.4-0.1,0.7-0.3,0.9c-0.2,0.2-0.5,0.3-0.9,0.3c-0.4,0-0.7-0.1-0.9-0.3C262.1,293.7,262,293.4,262,293z"/>
			<path fill="#006838" d="M30.2,327.6c0,1.9-0.5,3.4-1.6,4.5s-2.6,1.5-4.7,1.5h-3.3v-11.8h3.6c1.9,0,3.3,0.5,4.4,1.5
				C29.6,324.4,30.2,325.8,30.2,327.6z M28.1,327.7c0-2.8-1.3-4.2-4-4.2h-1.7v8.6h1.4C26.7,332,28.1,330.6,28.1,327.7z"/>
			<path fill="#006838" d="M41.6,329.2c0,1.5-0.4,2.6-1.1,3.4c-0.7,0.8-1.8,1.2-3.1,1.2c-0.8,0-1.6-0.2-2.2-0.6
				c-0.6-0.4-1.1-0.9-1.5-1.6c-0.3-0.7-0.5-1.5-0.5-2.5c0-1.4,0.4-2.6,1.1-3.4s1.8-1.2,3.1-1.2c1.3,0,2.3,0.4,3.1,1.2
				S41.6,327.7,41.6,329.2z M35.2,329.2c0,2.1,0.8,3.1,2.3,3.1c1.5,0,2.3-1,2.3-3.1c0-2-0.8-3.1-2.3-3.1c-0.8,0-1.4,0.3-1.7,0.8
				C35.3,327.4,35.2,328.2,35.2,329.2z"/>
			<path fill="#006838" d="M52.9,333.6H51v-5.5c0-0.7-0.1-1.2-0.4-1.5c-0.3-0.3-0.7-0.5-1.3-0.5c-0.8,0-1.4,0.2-1.8,0.7
				c-0.4,0.5-0.6,1.3-0.6,2.4v4.4h-1.9v-8.9h1.5l0.3,1.2h0.1c0.3-0.4,0.7-0.8,1.1-1s1-0.3,1.6-0.3c2.1,0,3.2,1.1,3.2,3.3V333.6z"/>
			<path fill="#006838" d="M58.4,321.8l-0.3,4.3h-1.2l-0.3-4.3H58.4z"/>
			<path fill="#006838" d="M65.4,332.3c0.5,0,0.9-0.1,1.4-0.2v1.4c-0.2,0.1-0.5,0.2-0.8,0.2c-0.3,0.1-0.7,0.1-1,0.1
				c-1.8,0-2.7-0.9-2.7-2.8v-4.8H61v-0.8l1.3-0.7l0.6-1.9h1.2v2h2.5v1.4h-2.5v4.8c0,0.5,0.1,0.8,0.3,1
				C64.7,332.2,65,332.3,65.4,332.3z"/>
			<path fill="#006838" d="M82.8,333.6h-1.9v-5.5c0-0.7-0.1-1.2-0.4-1.5c-0.3-0.3-0.7-0.5-1.2-0.5c-0.7,0-1.3,0.2-1.6,0.7
				c-0.3,0.5-0.5,1.3-0.5,2.4v4.4h-1.9v-8.9h1.5l0.3,1.2h0.1c0.2-0.4,0.6-0.8,1.1-1s1-0.3,1.6-0.3c1.4,0,2.3,0.5,2.7,1.4h0.1
				c0.3-0.4,0.6-0.8,1.1-1c0.5-0.2,1-0.4,1.6-0.4c1.1,0,1.8,0.3,2.3,0.8c0.5,0.5,0.7,1.4,0.7,2.5v5.8h-1.9v-5.5
				c0-0.7-0.1-1.2-0.4-1.5s-0.7-0.5-1.2-0.5c-0.7,0-1.3,0.2-1.6,0.7c-0.3,0.5-0.5,1.2-0.5,2.1V333.6z"/>
			<path fill="#006838" d="M92.2,322.3c0-0.3,0.1-0.6,0.3-0.8c0.2-0.2,0.5-0.3,0.8-0.3c0.3,0,0.6,0.1,0.8,0.3
				c0.2,0.2,0.3,0.4,0.3,0.8c0,0.3-0.1,0.6-0.3,0.8s-0.4,0.3-0.8,0.3c-0.3,0-0.6-0.1-0.8-0.3S92.2,322.7,92.2,322.3z M94.2,333.6
				h-1.9v-8.9h1.9V333.6z"/>
			<path fill="#006838" d="M104.2,331.1c0,0.9-0.3,1.5-1,2c-0.6,0.5-1.5,0.7-2.7,0.7c-1.2,0-2.1-0.2-2.9-0.5v-1.6
				c1,0.5,2,0.7,2.9,0.7c1.2,0,1.8-0.4,1.8-1.1c0-0.2-0.1-0.4-0.2-0.6c-0.1-0.2-0.3-0.3-0.6-0.5c-0.3-0.2-0.7-0.3-1.2-0.5
				c-1-0.4-1.7-0.8-2.1-1.2c-0.4-0.4-0.5-0.9-0.5-1.5c0-0.8,0.3-1.4,0.9-1.8c0.6-0.4,1.5-0.6,2.5-0.6c1,0,2,0.2,3,0.6l-0.6,1.4
				c-1-0.4-1.8-0.6-2.4-0.6c-1,0-1.5,0.3-1.5,0.9c0,0.3,0.1,0.5,0.4,0.7s0.8,0.5,1.7,0.8c0.7,0.3,1.3,0.5,1.6,0.8
				c0.3,0.2,0.6,0.5,0.7,0.8C104.1,330.3,104.2,330.7,104.2,331.1z"/>
			<path fill="#006838" d="M113.5,331.1c0,0.9-0.3,1.5-1,2c-0.6,0.5-1.5,0.7-2.7,0.7c-1.2,0-2.1-0.2-2.9-0.5v-1.6
				c1,0.5,2,0.7,2.9,0.7c1.2,0,1.8-0.4,1.8-1.1c0-0.2-0.1-0.4-0.2-0.6c-0.1-0.2-0.3-0.3-0.6-0.5c-0.3-0.2-0.7-0.3-1.2-0.5
				c-1-0.4-1.7-0.8-2.1-1.2c-0.4-0.4-0.5-0.9-0.5-1.5c0-0.8,0.3-1.4,0.9-1.8c0.6-0.4,1.5-0.6,2.5-0.6c1,0,2,0.2,3,0.6l-0.6,1.4
				c-1-0.4-1.8-0.6-2.4-0.6c-1,0-1.5,0.3-1.5,0.9c0,0.3,0.1,0.5,0.4,0.7s0.8,0.5,1.7,0.8c0.7,0.3,1.3,0.5,1.6,0.8
				c0.3,0.2,0.6,0.5,0.7,0.8C113.4,330.3,113.5,330.7,113.5,331.1z"/>
			<path fill="#006838" d="M125.6,332.3c0.5,0,0.9-0.1,1.4-0.2v1.4c-0.2,0.1-0.5,0.2-0.8,0.2c-0.3,0.1-0.7,0.1-1,0.1
				c-1.8,0-2.7-0.9-2.7-2.8v-4.8h-1.2v-0.8l1.3-0.7l0.6-1.9h1.2v2h2.5v1.4h-2.5v4.8c0,0.5,0.1,0.8,0.3,1
				C124.9,332.2,125.2,332.3,125.6,332.3z"/>
			<path fill="#006838" d="M137.9,333.6H136v-5.5c0-0.7-0.1-1.2-0.4-1.5c-0.3-0.3-0.7-0.5-1.3-0.5c-0.8,0-1.4,0.2-1.8,0.7
				c-0.4,0.5-0.6,1.3-0.6,2.4v4.4H130v-12.6h1.9v3.2c0,0.5,0,1.1-0.1,1.6h0.1c0.3-0.4,0.6-0.8,1.1-1s1-0.4,1.6-0.4
				c2.2,0,3.2,1.1,3.2,3.3V333.6z"/>
			<path fill="#006838" d="M145.7,333.8c-1.4,0-2.5-0.4-3.3-1.2c-0.8-0.8-1.2-1.9-1.2-3.3c0-1.5,0.4-2.6,1.1-3.4s1.7-1.3,3-1.3
				c1.2,0,2.1,0.4,2.8,1.1c0.7,0.7,1,1.7,1,3v1h-5.9c0,0.9,0.3,1.5,0.7,2c0.4,0.5,1.1,0.7,1.9,0.7c0.5,0,1,0,1.5-0.1
				c0.5-0.1,0.9-0.3,1.5-0.5v1.5c-0.5,0.2-0.9,0.4-1.4,0.5C146.8,333.7,146.3,333.8,145.7,333.8z M145.3,326c-0.6,0-1.1,0.2-1.4,0.6
				s-0.6,0.9-0.6,1.7h4c0-0.7-0.2-1.3-0.5-1.7C146.4,326.2,145.9,326,145.3,326z"/>
			<path fill="#006838" d="M165,330.4c0,1-0.4,1.9-1.1,2.5c-0.8,0.6-1.8,0.9-3.1,0.9s-2.4-0.2-3.3-0.6v-1.8c0.5,0.3,1.1,0.5,1.7,0.6
				c0.6,0.1,1.2,0.2,1.7,0.2c0.8,0,1.3-0.1,1.7-0.4c0.4-0.3,0.5-0.7,0.5-1.2c0-0.4-0.2-0.8-0.5-1.1c-0.3-0.3-1-0.7-2.1-1.1
				c-1.1-0.4-1.8-0.9-2.3-1.5c-0.4-0.6-0.7-1.2-0.7-2c0-1,0.3-1.8,1-2.3c0.7-0.6,1.6-0.8,2.8-0.8c1.1,0,2.3,0.2,3.4,0.7l-0.6,1.6
				c-1-0.4-2-0.7-2.8-0.7c-0.6,0-1.1,0.1-1.4,0.4c-0.3,0.3-0.5,0.6-0.5,1.1c0,0.3,0.1,0.6,0.2,0.8s0.3,0.4,0.6,0.6
				c0.3,0.2,0.8,0.4,1.6,0.8c0.9,0.4,1.5,0.7,1.9,1s0.7,0.7,0.9,1.1S165,329.9,165,330.4z"/>
			<path fill="#006838" d="M171.7,332.3c0.5,0,0.9-0.1,1.4-0.2v1.4c-0.2,0.1-0.5,0.2-0.8,0.2c-0.3,0.1-0.7,0.1-1,0.1
				c-1.8,0-2.7-0.9-2.7-2.8v-4.8h-1.2v-0.8l1.3-0.7l0.6-1.9h1.2v2h2.5v1.4h-2.5v4.8c0,0.5,0.1,0.8,0.3,1
				C171,332.2,171.3,332.3,171.7,332.3z"/>
			<path fill="#006838" d="M181.7,333.6l-0.4-1.2h-0.1c-0.4,0.5-0.9,0.9-1.3,1.1c-0.4,0.2-1,0.3-1.7,0.3c-0.9,0-1.6-0.2-2.1-0.7
				c-0.5-0.5-0.7-1.1-0.7-2c0-0.9,0.3-1.6,1-2.1c0.7-0.5,1.7-0.7,3.1-0.8l1.5,0v-0.5c0-0.6-0.1-1-0.4-1.3s-0.7-0.4-1.2-0.4
				c-0.5,0-0.9,0.1-1.3,0.2c-0.4,0.1-0.8,0.3-1.2,0.5l-0.6-1.4c0.5-0.3,1-0.4,1.6-0.6c0.6-0.1,1.1-0.2,1.6-0.2c1.1,0,2,0.2,2.6,0.7
				c0.6,0.5,0.9,1.3,0.9,2.3v6H181.7z M178.9,332.3c0.7,0,1.2-0.2,1.7-0.6c0.4-0.4,0.6-0.9,0.6-1.6v-0.8l-1.1,0
				c-0.9,0-1.5,0.2-1.9,0.4s-0.6,0.7-0.6,1.2c0,0.4,0.1,0.7,0.4,0.9C178,332.2,178.4,332.3,178.9,332.3z"/>
			<path fill="#006838" d="M190.3,332.3c0.5,0,0.9-0.1,1.4-0.2v1.4c-0.2,0.1-0.5,0.2-0.8,0.2c-0.3,0.1-0.7,0.1-1,0.1
				c-1.8,0-2.7-0.9-2.7-2.8v-4.8h-1.2v-0.8l1.3-0.7l0.6-1.9h1.2v2h2.5v1.4H189v4.8c0,0.5,0.1,0.8,0.3,1
				C189.6,332.2,189.9,332.3,190.3,332.3z"/>
			<path fill="#006838" d="M198.6,333.8c-1.4,0-2.5-0.4-3.3-1.2c-0.8-0.8-1.2-1.9-1.2-3.3c0-1.5,0.4-2.6,1.1-3.4s1.7-1.3,3-1.3
				c1.2,0,2.1,0.4,2.8,1.1c0.7,0.7,1,1.7,1,3v1h-5.9c0,0.9,0.3,1.5,0.7,2c0.4,0.5,1.1,0.7,1.9,0.7c0.5,0,1,0,1.5-0.1
				c0.5-0.1,0.9-0.3,1.5-0.5v1.5c-0.5,0.2-0.9,0.4-1.4,0.5C199.7,333.7,199.2,333.8,198.6,333.8z M198.2,326c-0.6,0-1.1,0.2-1.4,0.6
				s-0.6,0.9-0.6,1.7h4c0-0.7-0.2-1.3-0.5-1.7C199.3,326.2,198.8,326,198.2,326z"/>
			<path fill="#006838" d="M211.2,333.6v-11.8h1.9V332h5v1.7H211.2z"/>
			<path fill="#006838" d="M221,322.3c0-0.3,0.1-0.6,0.3-0.8c0.2-0.2,0.5-0.3,0.8-0.3c0.3,0,0.6,0.1,0.8,0.3
				c0.2,0.2,0.3,0.4,0.3,0.8c0,0.3-0.1,0.6-0.3,0.8s-0.4,0.3-0.8,0.3c-0.3,0-0.6-0.1-0.8-0.3S221,322.7,221,322.3z M223,333.6h-1.9
				v-8.9h1.9V333.6z"/>
			<path fill="#006838" d="M231.6,324.5c1.1,0,2,0.4,2.6,1.2s0.9,1.9,0.9,3.4c0,1.5-0.3,2.6-0.9,3.4c-0.6,0.8-1.5,1.2-2.6,1.2
				c-1.1,0-2-0.4-2.6-1.2h-0.1l-0.3,1.1H227v-12.6h1.9v3c0,0.2,0,0.5,0,1s0,0.7,0,0.8h0.1C229.5,325,230.4,324.5,231.6,324.5z
				 M231.1,326.1c-0.8,0-1.3,0.2-1.7,0.7c-0.3,0.4-0.5,1.2-0.5,2.3v0.1c0,1.1,0.2,1.9,0.5,2.4c0.3,0.5,0.9,0.7,1.7,0.7
				c0.7,0,1.2-0.3,1.5-0.8c0.3-0.5,0.5-1.3,0.5-2.3C233.1,327.1,232.4,326.1,231.1,326.1z"/>
			<path fill="#006838" d="M243.1,324.5c0.4,0,0.7,0,0.9,0.1l-0.2,1.8c-0.3-0.1-0.5-0.1-0.8-0.1c-0.8,0-1.4,0.2-1.8,0.7
				c-0.5,0.5-0.7,1.1-0.7,1.9v4.7h-1.9v-8.9h1.5l0.2,1.6h0.1c0.3-0.5,0.7-1,1.2-1.3C242,324.7,242.5,324.5,243.1,324.5z"/>
			<path fill="#006838" d="M252.5,333.6l-0.4-1.2H252c-0.4,0.5-0.9,0.9-1.3,1.1c-0.4,0.2-1,0.3-1.7,0.3c-0.9,0-1.6-0.2-2.1-0.7
				c-0.5-0.5-0.7-1.1-0.7-2c0-0.9,0.3-1.6,1-2.1c0.7-0.5,1.7-0.7,3.1-0.8l1.5,0v-0.5c0-0.6-0.1-1-0.4-1.3s-0.7-0.4-1.2-0.4
				c-0.5,0-0.9,0.1-1.3,0.2c-0.4,0.1-0.8,0.3-1.2,0.5l-0.6-1.4c0.5-0.3,1-0.4,1.6-0.6c0.6-0.1,1.1-0.2,1.6-0.2c1.1,0,2,0.2,2.6,0.7
				c0.6,0.5,0.9,1.3,0.9,2.3v6H252.5z M249.6,332.3c0.7,0,1.2-0.2,1.7-0.6c0.4-0.4,0.6-0.9,0.6-1.6v-0.8l-1.1,0
				c-0.9,0-1.5,0.2-1.9,0.4s-0.6,0.7-0.6,1.2c0,0.4,0.1,0.7,0.4,0.9C248.8,332.2,249.2,332.3,249.6,332.3z"/>
			<path fill="#006838" d="M262.2,324.5c0.4,0,0.7,0,0.9,0.1l-0.2,1.8c-0.3-0.1-0.5-0.1-0.8-0.1c-0.8,0-1.4,0.2-1.8,0.7
				c-0.5,0.5-0.7,1.1-0.7,1.9v4.7h-1.9v-8.9h1.5l0.2,1.6h0.1c0.3-0.5,0.7-1,1.2-1.3C261.2,324.7,261.7,324.5,262.2,324.5z"/>
			<path fill="#006838" d="M264.7,324.7h2.1l1.8,5.1c0.3,0.7,0.5,1.4,0.5,2h0.1c0-0.3,0.1-0.7,0.3-1.1c0.1-0.4,0.8-2.4,2-6h2
				l-3.8,10.1c-0.7,1.9-1.8,2.8-3.5,2.8c-0.4,0-0.8,0-1.2-0.1V336c0.3,0.1,0.6,0.1,1,0.1c0.9,0,1.6-0.5,1.9-1.6l0.3-0.8L264.7,324.7
				z"/>
			<path fill="#006838" d="M28.3,349c0,1.5-0.4,2.6-1.1,3.4c-0.7,0.8-1.8,1.2-3.1,1.2c-0.8,0-1.6-0.2-2.2-0.6
				c-0.6-0.4-1.1-0.9-1.5-1.6c-0.3-0.7-0.5-1.5-0.5-2.5c0-1.4,0.4-2.6,1.1-3.4s1.8-1.2,3.1-1.2c1.3,0,2.3,0.4,3.1,1.2
				S28.3,347.6,28.3,349z M21.8,349c0,2.1,0.8,3.1,2.3,3.1c1.5,0,2.3-1,2.3-3.1c0-2-0.8-3.1-2.3-3.1c-0.8,0-1.4,0.3-1.7,0.8
				C22,347.2,21.8,348,21.8,349z"/>
			<path fill="#006838" d="M36.2,346H34v7.5h-1.9V346h-1.5v-0.9l1.5-0.6v-0.6c0-1.1,0.2-1.8,0.7-2.3c0.5-0.5,1.2-0.8,2.3-0.8
				c0.7,0,1.3,0.1,2,0.3l-0.5,1.4c-0.5-0.2-0.9-0.2-1.3-0.2c-0.4,0-0.7,0.1-0.9,0.4S34,343.4,34,344v0.6h2.2V346z"/>
			<path fill="#006838" d="M51.4,341.7h2l-4.1,11.8h-2l-4.1-11.8h2l2.5,7.3c0.1,0.3,0.3,0.8,0.4,1.4c0.1,0.6,0.2,1,0.3,1.2
				c0.1-0.4,0.2-0.9,0.3-1.4s0.3-0.9,0.4-1.2L51.4,341.7z"/>
			<path fill="#006838" d="M55.9,342.2c0-0.3,0.1-0.6,0.3-0.8c0.2-0.2,0.5-0.3,0.8-0.3c0.3,0,0.6,0.1,0.8,0.3
				c0.2,0.2,0.3,0.4,0.3,0.8c0,0.3-0.1,0.6-0.3,0.8s-0.4,0.3-0.8,0.3c-0.3,0-0.6-0.1-0.8-0.3S55.9,342.5,55.9,342.2z M57.9,353.5H56
				v-8.9h1.9V353.5z"/>
			<path fill="#006838" d="M65.4,353.6c-1.4,0-2.4-0.4-3.1-1.2s-1.1-1.9-1.1-3.4c0-1.5,0.4-2.7,1.1-3.5c0.7-0.8,1.8-1.2,3.2-1.2
				c0.9,0,1.8,0.2,2.5,0.5l-0.6,1.5c-0.8-0.3-1.5-0.5-2-0.5c-1.5,0-2.3,1-2.3,3.1c0,1,0.2,1.8,0.6,2.3c0.4,0.5,0.9,0.8,1.7,0.8
				c0.8,0,1.6-0.2,2.4-0.6v1.7c-0.3,0.2-0.7,0.3-1.1,0.4S66,353.6,65.4,353.6z"/>
			<path fill="#006838" d="M74.6,352.1c0.5,0,0.9-0.1,1.4-0.2v1.4c-0.2,0.1-0.5,0.2-0.8,0.2c-0.3,0.1-0.7,0.1-1,0.1
				c-1.8,0-2.7-0.9-2.7-2.8V346h-1.2v-0.8l1.3-0.7l0.6-1.9h1.2v2h2.5v1.4h-2.5v4.8c0,0.5,0.1,0.8,0.3,1
				C73.9,352,74.2,352.1,74.6,352.1z"/>
			<path fill="#006838" d="M86.9,349c0,1.5-0.4,2.6-1.1,3.4c-0.7,0.8-1.8,1.2-3.1,1.2c-0.8,0-1.6-0.2-2.2-0.6
				c-0.6-0.4-1.1-0.9-1.5-1.6c-0.3-0.7-0.5-1.5-0.5-2.5c0-1.4,0.4-2.6,1.1-3.4s1.8-1.2,3.1-1.2c1.3,0,2.3,0.4,3.1,1.2
				S86.9,347.6,86.9,349z M80.4,349c0,2.1,0.8,3.1,2.3,3.1c1.5,0,2.3-1,2.3-3.1c0-2-0.8-3.1-2.3-3.1c-0.8,0-1.4,0.3-1.7,0.8
				C80.6,347.2,80.4,348,80.4,349z"/>
			<path fill="#006838" d="M94.8,344.4c0.4,0,0.7,0,0.9,0.1l-0.2,1.8c-0.3-0.1-0.5-0.1-0.8-0.1c-0.8,0-1.4,0.2-1.8,0.7
				c-0.5,0.5-0.7,1.1-0.7,1.9v4.7h-1.9v-8.9h1.5l0.2,1.6h0.1c0.3-0.5,0.7-1,1.2-1.3C93.8,344.5,94.3,344.4,94.8,344.4z"/>
			<path fill="#006838" d="M98.6,342.2c0-0.3,0.1-0.6,0.3-0.8c0.2-0.2,0.5-0.3,0.8-0.3c0.3,0,0.6,0.1,0.8,0.3
				c0.2,0.2,0.3,0.4,0.3,0.8c0,0.3-0.1,0.6-0.3,0.8s-0.4,0.3-0.8,0.3c-0.3,0-0.6-0.1-0.8-0.3S98.6,342.5,98.6,342.2z M100.6,353.5
				h-1.9v-8.9h1.9V353.5z"/>
			<path fill="#006838" d="M110.1,353.5l-0.4-1.2h-0.1c-0.4,0.5-0.9,0.9-1.3,1.1c-0.4,0.2-1,0.3-1.7,0.3c-0.9,0-1.6-0.2-2.1-0.7
				c-0.5-0.5-0.7-1.1-0.7-2c0-0.9,0.3-1.6,1-2.1c0.7-0.5,1.7-0.7,3.1-0.8l1.5,0v-0.5c0-0.6-0.1-1-0.4-1.3s-0.7-0.4-1.2-0.4
				c-0.5,0-0.9,0.1-1.3,0.2c-0.4,0.1-0.8,0.3-1.2,0.5l-0.6-1.4c0.5-0.3,1-0.4,1.6-0.6c0.6-0.1,1.1-0.2,1.6-0.2c1.1,0,2,0.2,2.6,0.7
				c0.6,0.5,0.9,1.3,0.9,2.3v6H110.1z M107.3,352.2c0.7,0,1.2-0.2,1.7-0.6c0.4-0.4,0.6-0.9,0.6-1.6v-0.8l-1.1,0
				c-0.9,0-1.5,0.2-1.9,0.4s-0.6,0.7-0.6,1.2c0,0.4,0.1,0.7,0.4,0.9C106.5,352.1,106.8,352.2,107.3,352.2z"/>
			<path fill="#006838" d="M120.6,352.5c0-0.4,0.1-0.7,0.3-0.9s0.5-0.3,0.9-0.3c0.4,0,0.7,0.1,0.9,0.3c0.2,0.2,0.3,0.5,0.3,0.9
				s-0.1,0.7-0.3,0.9c-0.2,0.2-0.5,0.3-0.9,0.3c-0.4,0-0.7-0.1-0.9-0.3S120.6,352.9,120.6,352.5z M122.5,349.9h-1.4l-0.4-8.2h2.2
				L122.5,349.9z"/>
		</g>
	</g>
</g>
</svg>
