<!-- Generator: Adobe Illustrator 18.1.1, SVG Export Plug-In  -->
<svg version="1.1"
	 xmlns="http://www.w3.org/2000/svg" xmlns:xlink="http://www.w3.org/1999/xlink" xmlns:a="http://ns.adobe.com/AdobeSVGViewerExtensions/3.0/"
	 x="0px" y="0px" width="247px" height="368.9px" viewBox="0 0 247 368.9" enable-background="new 0 0 247 368.9"
	 xml:space="preserve">
<defs>
</defs>
<g id="_x32_d_copy_2">
	<g id="Layer_1_copy_3">
	</g>
	<g id="Layer_2_copy_3">
	</g>
	<g id="Layer_3_copy_3">
	</g>
	<g id="Layer_4_copy_3">
		<g>
			<path fill="none" stroke="#2B388E" stroke-width="8" stroke-miterlimit="10" stroke-dasharray="11,7" d="M98.7,232
				c5.3-5.2,12.9-9,23.8-9c0.4,0,0.7-0.1,1.1,0c1.6,0,3.1,0.2,4.6,0.4l1.2-38.7c0.2-9-2.6-31.8-5.1-40.5
				c-2.8-9.4-8.2-22.6-11.4-27.4c-5.5-8.2-16.9-22.1-26.8-23c-5.5-0.5-35.6,15.9-50.3,30.6c-1.7,1.7-12.2-1.2-18.8-5.3
				c-0.2,0.5-0.3,0.8-0.3,0.8l-0.5,0.9l-1.8,3.3l-1.2,2.7c0,0-3.3,7.8-3.9,13.5s-0.5,8.7,0.2,12.5c0.7,3.8,2.2,8.9,5.2,14.1
				c3,5.1,7.1,9.2,7.4,9.6c0.4,0.4,5.2,4.8,5.9,5.3c0.7,0.5,6.8,5.3,7.2,5.6c0.4,0.3,4,3.3,4.4,3.6c0.4,0.3,5.6,4.7,6,5
				c0.3,0.3,5,4.5,5.3,4.8s5.4,5.3,5.5,5.6c0.2,0.3,3.7,3.9,6.7,7.8c3,4,4.8,6.7,4.9,6.9c0.1,0.2,3.6,5.9,4.6,8.1
				c4.3-3.9,8.9-5.1,14.8-2.8C87.6,226.5,95.9,230.5,98.7,232z"/>
			<path fill="none" stroke="#2B388E" stroke-width="8" stroke-miterlimit="10" stroke-dasharray="11,7" d="M241.4,116.8
				c-1.7-10.8-6.8-32.2-11.5-42.1c-0.6-1.2-1.3-2.6-2.2-4.1c0.9-4,1.8-9.1,1.4-11.5c-0.5-2.8-4.5-7.5-6.5-9.6
				c-2.5-2.6-8.1-7.8-11.6-8.5c-1-0.2-2.8-0.1-4.7,0.2c-0.1-0.1-0.1-0.1-0.2-0.2c-7.9-8.3-27.5-22.8-37.5-28.3
				c-8-4.4-27.6-7.6-36.7-8.4C118.7,3,96.3,6.1,83.7,10.4C73,14.1,50.1,31.2,42.4,39.5C35.7,46.7,28.7,59.2,24,67.8
				c-6.2,11.3-14.3,36.5-12.2,45.9c0.1,0.5,0.4,1,0.7,1.5c-0.4,1.1-0.7,2.1-0.8,2.5c-0.2,0.8-0.8,2.3-0.9,2.6
				c-0.1,0.3-1.3,3-2.3,5.9c-1,2.9-1.6,4.9-2.6,8.5c-1,3.6-1.5,7.9-1.8,11.8c-0.3,3.9,0.5,8.9,1.3,12c0.8,3.1,2.2,6.5,4.8,10.9
				c2.6,4.4,5.6,7.3,7.3,9.4c1.6,2.1,10.1,9.6,12.7,11.6c2.5,2.1,8.5,7.5,10.8,9.3c2.3,1.8,7.7,7.3,8.9,8.2c1.1,1,4.1,4.4,6,6.3
				c1.9,2,2.9,3.6,4.4,5.3c1.5,1.7,3.5,4.8,5,7.1c1.6,2.3,4.2,7.3,4.2,7.3c-1.3,2.7-1.9,11.1-0.5,13.5c2.2,3.6,17.8,17.2,17.8,17.2
				s0-0.1,0-0.1c0.3,8.3,3.2,13.8,6.2,17.3c1.2,1.5,2.7,2.8,4.5,4c0.9,0.6,1.6,0.9,1.7,0.9c4.3,2.2,10.2,3.5,18.3,3.5
				c0.7,0,1.5,0,2.2,0c1.8,0.9,3.9,1.6,6.4,2.1l-1.7,51.7c1,4.1,4.8,11.5,8.4,13.8c4.4,2.8,20,6.4,25.3,6.9
				c5.5,0.5,21.3-3.6,26.8-4.6c14.1-2.6,39.8-17.6,42.9-20.7c4.2-4.2,8.9-69,10.7-92.6c1.8-23.5,4.1-70.6,4.6-94.2
				C243.1,143.8,242.8,125.7,241.4,116.8z M72.8,229.3c-1-2.3-4.5-7.9-4.6-8.1c-0.1-0.2-1.9-2.9-4.9-6.9c-3-4-6.6-7.5-6.7-7.8
				c-0.2-0.3-5.2-5.2-5.5-5.6s-5-4.5-5.3-4.8c-0.3-0.3-5.5-4.7-6-5c-0.4-0.3-4-3.3-4.4-3.6c-0.4-0.3-6.5-5.2-7.2-5.6
				c-0.7-0.5-5.5-4.9-5.9-5.3c-0.4-0.4-4.4-4.4-7.4-9.6c-3-5.1-4.4-10.3-5.2-14.1c-0.7-3.8-0.7-6.8-0.2-12.5s3.9-13.5,3.9-13.5
				l1.2-2.7l1.8-3.3l0.5-0.9c0,0,0.1-0.3,0.3-0.8c6.6,4,17.1,7,18.8,5.3C50.4,109.8,80.5,93.4,86,93.8c9.9,0.8,21.3,14.8,26.8,23
				c3.2,4.8,8.6,17.9,11.4,27.4c2.6,8.7,5.3,31.5,5.1,40.5l-1.2,38.7c-1.4-0.2-3-0.4-4.6-0.4c-0.3-0.1-0.7,0-1.1,0
				c-10.9,0-18.5,3.9-23.8,9c-2.8-1.4-11.1-5.4-11.1-5.4C81.7,224.3,77.1,225.4,72.8,229.3z"/>
		</g>
	</g>
</g>
</svg>
