<!-- Generator: Adobe Illustrator 18.1.1, SVG Export Plug-In  -->
<svg version="1.1"
	 xmlns="http://www.w3.org/2000/svg" xmlns:xlink="http://www.w3.org/1999/xlink" xmlns:a="http://ns.adobe.com/AdobeSVGViewerExtensions/3.0/"
	 x="0px" y="0px" width="245.6px" height="366.7px" viewBox="0 0 245.6 366.7" enable-background="new 0 0 245.6 366.7"
	 xml:space="preserve">
<defs>
</defs>
<g id="_x32_d_copy_3">
	<g>
		<path fill="none" stroke="#2B388E" stroke-width="8" stroke-miterlimit="10" stroke-dasharray="11,7" d="M125.2,290.8l-1.6,51.4
			c1,4.1,4.8,11.4,8.4,13.7c4.4,2.8,19.9,6.4,25.1,6.8c5.5,0.5,21.2-3.6,26.6-4.6c14-2.6,39.5-17.5,42.6-20.5
			c4.2-4.2,8.8-68.6,10.7-92.1c1.8-23.4,4.1-70.2,4.6-93.6c0.2-8.9-0.1-26.9-1.5-35.8c-1.7-10.7-6.8-32-11.4-41.9
			c-0.6-1.2-1.3-2.6-2.1-4.1c0.9-4,1.8-9,1.4-11.4c-0.5-2.8-4.5-7.4-6.5-9.5c-2.5-2.6-8-7.7-11.5-8.5c-1-0.2-2.8-0.1-4.6,0.2
			c-0.1-0.1-0.1-0.1-0.2-0.2c-7.8-8.3-27.3-22.7-37.3-28.2c-8-4.4-27.5-7.5-36.5-8.4C118.1,3,95.7,6.1,83.2,10.4
			C72.6,14,49.9,31,42.2,39.3c-4,4.3-8.1,10.5-11.7,16.6c-0.1,0.1-0.3,0.2-0.4,0.4c-8,8-21.6,45.4-18.3,56.8c0.1,0.5,0.4,1,0.7,1.5
			c-0.4,1.1-0.7,2.1-0.8,2.5c-0.2,0.8-0.8,2.3-0.9,2.6s-1.3,3-2.3,5.9c-1,2.9-1.5,4.9-2.6,8.4s-1.5,7.8-1.8,11.7
			c-0.3,3.9,0.5,8.8,1.3,11.9s2.2,6.4,4.8,10.8c2.6,4.4,5.6,7.3,7.2,9.3c1.6,2.1,10.1,9.5,12.6,11.6c2.5,2,8.4,7.5,10.7,9.3
			c2.3,1.8,7.7,7.2,8.8,8.2c1.1,1,4.1,4.3,6,6.3s2.9,3.6,4.4,5.3c1.5,1.7,3.4,4.8,5,7.1c1.6,2.3,4.1,7.3,4.1,7.3
			c-1.3,2.7-1.9,11-0.5,13.4c2.1,3.6,17.7,17.1,17.7,17.1"/>
		<path fill="none" stroke="#2B388E" stroke-width="8" stroke-miterlimit="10" stroke-dasharray="11,7" d="M98.1,230.6
			c-1.3-0.8-11-5.4-11-5.4c-5.8-2.3-10.4-1.1-14.7,2.8c-1-2.3-4.4-7.9-4.6-8.1c-0.1-0.2-1.9-2.9-4.9-6.9s-6.5-7.5-6.7-7.8
			c-0.2-0.3-5.2-5.2-5.5-5.5s-5-4.5-5.3-4.8s-5.5-4.7-5.9-5c-0.4-0.3-4-3.3-4.4-3.6c-0.4-0.3-6.5-5.1-7.2-5.6
			c-0.7-0.5-5.5-4.9-5.9-5.2c-0.4-0.4-4.4-4.4-7.4-9.5c-3-5.1-4.4-10.2-5.1-14c-0.7-3.8-0.7-6.7-0.2-12.4s3.9-13.5,3.9-13.5l1.2-2.6
			l1.8-3.3l0.5-0.9c0,0,0.1-0.3,0.3-0.8c1.2,0.8,2.6,1.5,4,2.1c6.2,3,13.3,4.8,14.7,3.1c0,0,13.5-13,30.1-21.2
			c10.4-5.2,16.3-8.4,17.8-8.9c0.2,0,0.3-0.1,0.5-0.1c1.1-0.2,2.7-0.1,4.2,0.3c9.2,2.7,19,14.9,24.1,22.3
			c3.2,4.8,8.6,17.8,11.4,27.2c2.6,8.6,5.3,31.3,5.1,40.3l-1.2,38l0,0.5"/>
		<path fill="none" stroke="#2B388E" stroke-width="8" stroke-miterlimit="10" stroke-dasharray="11,7" d="M164.2,255.2
			c-1.3-7.1-6.3-18.4-18.5-21.6c-4.4-6.3-11.7-11.6-22.8-11.9c-0.3-0.1-0.7,0-1.1,0c-23,0-31.3,17.2-34,27.8
			c-4.2,16.3,0.2,25.8,4.5,30.8c1.2,1.5,2.6,2.8,4.5,4c0.9,0.6,1.6,0.9,1.7,0.9l0,0c4.2,2.2,10.1,3.5,18.2,3.5c0.7,0,1.5,0,2.2,0
			c3.6,1.8,8.6,2.9,15.4,2.9C156.6,291.5,168,276.6,164.2,255.2z"/>
	</g>
</g>
</svg>
