<!-- Generator: Adobe Illustrator 18.0.0, SVG Export Plug-In  -->
<svg version="1.1"
	 xmlns="http://www.w3.org/2000/svg" xmlns:xlink="http://www.w3.org/1999/xlink" xmlns:a="http://ns.adobe.com/AdobeSVGViewerExtensions/3.0/"
	 x="0px" y="0px" width="573.6px" height="575px" viewBox="0 0 573.6 575" enable-background="new 0 0 573.6 575"
	 xml:space="preserve">
<defs>
</defs>
<g>
	<g>
		<path fill="#0D8450" d="M286.9,575C126.1,572.6-1.2,444.2,0,284.6C1.2,126.1,130.8-1.2,290.4,0C448.9,1.2,575.9,132,573.6,291.6
			C572.4,447.7,441.6,576.2,286.9,575z M286.9,531.8c133.1,1.2,243.7-108,244.9-241.1C533,153.8,425,44.6,289.5,43.4
			c-135.7-1.2-244.9,108-246.1,243.7C42,421.2,151.2,530.4,286.9,531.8z"/>
		<path fill="#0D8450" d="M282,538.8C143.7,535.1,32.6,420.3,36.4,282C40.2,142.5,153.8,32.6,293.3,36.4
			c139.5,3.8,248.2,118.6,245.6,258C535.1,431.3,418.9,541.2,282,538.8z M386.9,299.1c0,1.2-1.2,1.2-2.6,2.6
			c-6.1-7.5-12.4-14.8-18.5-22.3c-14.8-18.5-29.6-38.3-45.8-56.8c-6.1-8.7-14.8-14.8-24.7-17.4c-14.8-3.8-29.6-8.7-44.4-12.4
			c-6.1-1.2-13.6-1.2-19.7,0c-13.6,3.8-25.8,8.7-39.4,13.6c-4.9,2.6-8.7,6.1-8.7,12.4c-1.2,19.7,18.5,35.7,37.1,29.6
			c4.9-1.2,9.9-3.8,14.8-4.9c2.6,0,3.8-1.2,6.1-1.2c20.9,6.1,43.2,8.7,53.1,33.3c1.2,3.8,4.9,7.5,6.1,11c1.2,1.2,1.2,3.8,1.2,6.1
			c-1.2,9.9-3.8,19.7-4.9,29.6c-1.2,4.9-2.6,7.5-8.7,7.5c-22.3,1.2-44.4,1.2-66.7,2.6c-11,1.2-19.7-1.2-23.5-12.4
			c-1.2-2.6-3.8-4.9-4.9-7.5c-2.6-6.1-7.5-12.4-7.5-19.7c0-12.4,2.6-25.8,3.8-38.3c1.2-7.5-1.2-12.4-7.5-17.4
			c-7.5-6.1-14.8-8.7-23.5-7.5c-11,0-18.5,7.5-19.7,18.5c-1.2,14.8-3.8,28.4-4.9,43.2c-1.2,12.4,0,23.5,4.9,34.5
			c20.9,45.8,40.9,91.3,60.6,137.1c7.5,16,14.8,32.2,12.4,51.9c0,1.2,2.6,4.9,3.8,6.1c43.2,13.6,86.4,14.8,130.8,3.8
			c3.8-1.2,4.9-3.8,4.9-7.5c0-7.5,1.2-14.8,2.6-22.3c12.4-40.9,24.7-80.3,37.1-120.9c4.9-16,7.5-32.2,4.9-48.1
			c-2.6-9.9-3.8-20.9-4.9-30.8c-9.9-49.3-18.5-100-28.4-149.3c-4.9-28.4-11-56.8-16-85.2c-1.2-7.5-6.1-11-12.4-11
			c-17.4,0-35.7,20.9-32.2,38.3c7.5,42,16,84.1,23.5,125.8c0,2.6,2.6,6.1,3.8,8.7c14.8,18.5,29.6,37.1,44.4,55.6
			C378.2,284.3,383.2,291.8,386.9,299.1z M386.9,230.1L386.9,230.1c3.8-16,7.5-33.3,9.9-49.3c4.9-28.4,11-56.8,14.8-85.2
			c1.2-4.9-1.2-11-3.8-13.6c-9.9-11-35.7-7.5-40.9,6.1c-2.6,7.5-4.9,17.4-3.8,25.8c3.8,25.8,9.9,51.9,14.8,77.7
			C380.6,202.9,384.3,216.5,386.9,230.1z M394.2,273.3c1.2,0,1.2,0,2.6,0c13.6-33.3,28.4-67.9,40.9-101.2c1.2-2.6,1.2-7.5-1.2-9.9
			c-4.9-6.1-12.4-6.1-19.7-4.9c-6.1,1.2-11,4.9-12.4,12.4c-3.8,23.5-7.5,47-12.4,70.4C389.3,251,393,262.3,394.2,273.3z"/>
		<g>
			<path fill="#E9C2A0" stroke="#FFFFFF" stroke-width="8" stroke-miterlimit="10" d="M372.6,283.2c-5.2-7.5,15.7,10.6,10.8,4.2
				c-15.3-19-40.6-48.4-55.9-67.4c-2.6-2.6-3.8-5.2-3.8-8.9c-8.9-43.2-17.8-86.4-26.8-129.4c-3.8-17.8,13.9-39.4,31.7-40.6
				c6.3,0,11.5,3.8,12.7,11.5c6.3,29.1,12.7,58.5,17.8,86.4c10.1,50.7,21.6,101.7,31.7,152.4c2.6,10.1,3.8,21.6,6.3,31.7
				c3.8,16.4,1.2,34.3-3.8,50.7c-12.7,41.8-24.2,82.4-35.5,124.4c-2.6,7.5-2.6,15.3-2.6,22.8c0,3.8-1.2,6.3-5.2,7.5
				c-44.4,11.5-90.2,11.5-134.5-1.2c-1.2,0-5.2-3.8-3.8-6.3c2.6-19-5.2-35.5-12.7-52.1c-21.6-47-43.2-93.9-64.8-139.7
				c-5.2-11.5-7.5-22.8-6.3-35.5c1.2-15.3,2.6-29.1,5.2-44.4c1.2-11.5,8.9-17.8,20.4-19c8.9,0,17.8,2.6,24.2,7.5
				c5.2,5.2,8.9,10.1,7.5,17.8c-1.2,12.7-3.8,26.8-2.6,39.4c0,6.3,5.2,12.7,8.9,20.4c1.2,2.6,3.8,5.2,5.2,7.5
				c5.2,11.5,12.7,13.9,24.2,12.7c22.8-2.6,45.8-2.6,68.6-3.8c5.2,0,7.5-2.6,8.9-7.5c1.2-10.1,3.8-20.4,5.2-30.5
				c0-1.2,0-3.8-1.2-6.3c-2.6-3.8-5.2-7.5-6.3-11.5c-10.1-25.4-33.1-27.9-54.5-33.1c-1.2,0-3.8,0-6.3,1.2
				c-5.2,1.2-10.1,3.8-15.3,5.2c-19,6.3-39.4-8.9-38-30.5c0-6.3,3.8-10.1,8.9-12.7c12.7-5.2,26.8-10.1,39.4-13.9
				c6.3-1.2,13.9-2.6,20.4,0c15.3,3.8,30.5,7.5,45.8,11.5c10.1,2.6,19,8.9,25.4,17.8c15.3,19,31.7,38,47,57.1
				c6.3,7.5,7.5,7.7,15.3,15.3C408.1,318.1,371.4,283.2,372.6,283.2z"/>
			<path fill="#E9C2A0" stroke="#FFFFFF" stroke-width="8" stroke-miterlimit="10" d="M384.8,226.6c-2.6-13.9-5.2-26.8-8.9-40.6
				c-5.2-26.8-11.5-52.1-16.4-78.7c-1.2-8.9,0-17.8,2.6-26.8c5.2-13.9,31.7-19,41.8-7.5c2.6,3.8,5.2,10.1,3.8,13.9
				c-3.8,29.1-10.1,58.5-13.9,88.7C391.2,193.5,388.6,209.9,384.8,226.6L384.8,226.6z"/>
			<path fill="#E9C2A0" stroke="#FFFFFF" stroke-width="8" stroke-miterlimit="10" d="M393.7,272.1c-1.2-11.5-6.3-22.8-3.8-36.9
				c5.2-24.2,7.5-48.1,11.5-72.3c1.2-7.5,6.3-11.5,12.7-12.7c7.5-1.2,15.3-2.6,20.4,5.2c1.2,2.6,2.6,7.5,1.2,10.1
				c-13.9,35.5-26.8,69.7-40.6,105.4C394.9,272.1,394.9,272.1,393.7,272.1z"/>
		</g>
	</g>
</g>
</svg>
