<!-- Generator: Adobe Illustrator 18.0.0, SVG Export Plug-In  -->
<svg version="1.1"
	 xmlns="http://www.w3.org/2000/svg" xmlns:xlink="http://www.w3.org/1999/xlink" xmlns:a="http://ns.adobe.com/AdobeSVGViewerExtensions/3.0/"
	 x="0px" y="0px" width="68.1px" height="47px" viewBox="0 0 68.1 47" enable-background="new 0 0 68.1 47" xml:space="preserve">
<defs>
</defs>
<g>
	<path fill="#0D8450" d="M34.1,29.8L61.2,18l6,8.4c0,0-24,1.7-33.1,20.6C24.9,28.1,1,26.4,1,26.4l6-8.4L34.1,29.8z"/>
	<path fill="#0D8450" d="M21.1,40.9h-0.8h-0.8c0,0-0.8,0.8-0.8,2s0,1.7,0,1.7h1.6h1.6c0,0,0-0.5,0-1.7S21.1,40.9,21.1,40.9z"/>
	<polygon fill="#0D8450" points="34.1,0 0,14.9 34.1,29.8 68.1,14.9 	"/>
	<polygon fill="#FFFFFF" points="34.1,14.9 19.5,23.5 19.5,40.9 21.1,40.9 21.1,24.2 34.1,16.5 	"/>
</g>
</svg>
