<!-- Generator: Adobe Illustrator 18.0.0, SVG Export Plug-In  -->
<svg version="1.1"
	 xmlns="http://www.w3.org/2000/svg" xmlns:xlink="http://www.w3.org/1999/xlink" xmlns:a="http://ns.adobe.com/AdobeSVGViewerExtensions/3.0/"
	 x="0px" y="0px" width="406.9px" height="238.8px" viewBox="0 0 406.9 238.8" enable-background="new 0 0 406.9 238.8"
	 xml:space="preserve">
<defs>
</defs>
<g>
	<path fill="#35383A" d="M352.3,137.2l-71.7,47.4c-4.5,3-5.5,9.2-2.1,13.9l22.4,40.2l98.2-60.5l-32.5-38
		C363.3,135.5,356.8,134.2,352.3,137.2z"/>
	<path fill="#555858" d="M96.3,43.5c0,0,2.5-36.2,7.9-40.7s6.7-4.2,28.6,5.3S327,85,327,85s27.4,12.2,38.3,32.3
		c10.8,20,30.4,57.4,33.7,59.1c3.2,1.7-46.7-8.8-50.7-19.5c-4-10.6-9-26-17.9-30.3c-8.9-4.3-195.9-84.8-195.9-84.8
		s-11.1-2.4-11.9,17.1C112.2,56.9,96.3,43.5,96.3,43.5z"/>
	<path fill="#282C2E" d="M342.2,107.5l-82.6,55.7c-2,5.2-16.5,5.2-22.9,2.7L18.9,76.7c-6.4-2.5-10-8.8-7.9-14.1L99,8.4
		c6.6-5.8,13.5-5.1,20-2.6l215.3,87.6C340.6,96,344.2,102.3,342.2,107.5z"/>
	<polygon points="254.2,179.8 260.4,188.3 357.2,125.2 351,116.7 	"/>
	<path fill="#35383A" d="M328.9,95.3L248,149.8c-5.1,3.4-7.2,9-4.8,12.3l14.4,29l99.4-67l-14.4-29C340.2,91.7,334,91.8,328.9,95.3z"
		/>
	<polygon points="332.8,93.3 330.1,94.7 103.3,5.7 105.6,4.4 	"/>
	<polygon points="164.1,31.6 80.8,82.1 21,60.3 104.3,9.8 	"/>
	<polygon fill="#2772BA" points="158.1,31.2 80.9,77.9 27.9,58.6 105.1,11.9 	"/>
	<polygon fill="#075789" points="114.5,15.6 37.8,62.6 28,59 104.7,12 	"/>
	<g>
		<path fill="#FFFFFF" d="M70.2,38.9c0.2,0.3,0.3,0.7,0.2,1c-0.1,0.4-0.4,0.7-0.8,1l0.5,0.7L69.6,42l-0.5-0.7
			c-0.6,0.3-1.1,0.5-1.6,0.6l-0.5-0.7c0.3,0,0.5-0.1,0.9-0.2c0.3-0.1,0.6-0.2,0.8-0.3l-0.8-1.3l-0.4,0.1c-0.5,0.1-0.9,0.1-1.2,0
			s-0.6-0.3-0.7-0.6c-0.2-0.3-0.3-0.7-0.1-1c0.1-0.3,0.4-0.7,0.8-1l-0.4-0.6l0.5-0.3l0.4,0.6c0.5-0.3,1-0.4,1.5-0.5l0.2,0.8
			c-0.5,0.1-0.9,0.2-1.2,0.4l0.8,1.3l0.3-0.1c0.5-0.1,1-0.1,1.3,0C69.8,38.5,70,38.7,70.2,38.9z M66.4,38.3c0.1,0.1,0.2,0.2,0.3,0.3
			c0.1,0,0.3,0,0.6,0l-0.7-1.1c-0.2,0.1-0.3,0.3-0.3,0.4S66.3,38.2,66.4,38.3z M69.4,39.5c-0.1-0.1-0.2-0.2-0.4-0.2
			c-0.1,0-0.4,0-0.6,0l0.7,1.1C69.5,40,69.6,39.8,69.4,39.5z"/>
		<path fill="#FFFFFF" d="M72.3,32.5l0.7,1.4l1.1-1.1l0.6,0.7l-1.2,0.8l1.5,0.6l-0.4,0.8l-1.3-0.8l0.2,1.5l-0.9,0l0.1-1.5l-1.3,0.6
			l-0.4-0.8l1.5-0.4l-1-1.2L72.3,32.5z"/>
		<path fill="#FFFFFF" d="M76.1,30.2l0.7,1.4l1.1-1.1l0.6,0.7L77.3,32l1.5,0.6l-0.4,0.8l-1.3-0.8l0.2,1.5l-0.9,0l0.1-1.5l-1.3,0.6
			l-0.4-0.8l1.5-0.4l-1-1.2L76.1,30.2z"/>
		<path fill="#FFFFFF" d="M80,28l0.7,1.4l1.1-1.1l0.6,0.7l-1.2,0.8l1.5,0.6l-0.4,0.8l-1.3-0.8l0.2,1.5l-0.9,0l0.1-1.5L79,30.9
			L78.7,30l1.5-0.4l-1-1.2L80,28z"/>
	</g>
	<g>
		<path fill="#FFFFFF" d="M73.3,50.7l-1.5-1.1l-1.9,1.2l0.5,1.7L69.6,53l-1.6-6.1l0.9-0.6l5.3,3.8L73.3,50.7z M71.1,49.1l-1.4-1
			c-0.1-0.1-0.2-0.2-0.4-0.3s-0.3-0.3-0.4-0.3c0.1,0.3,0.3,0.7,0.4,1.1l0.5,1.6L71.1,49.1z"/>
		<path fill="#FFFFFF" d="M76.6,48.6c-0.5,0.3-1,0.4-1.5,0.2l0,0c0.3,0.3,0.4,0.5,0.4,0.5l1.1,1.5l-0.8,0.5l-3.8-5.4l0.6-0.4
			c0.1,0.1,0.2,0.2,0.5,0.4l0,0c0-0.5,0.2-1,0.7-1.3c0.5-0.3,0.9-0.4,1.4-0.2s1,0.6,1.4,1.2c0.4,0.6,0.6,1.2,0.6,1.7
			C77.3,47.9,77.1,48.3,76.6,48.6z M74.2,45.6c-0.3,0.2-0.5,0.4-0.5,0.7c0,0.3,0.1,0.6,0.4,1l0.1,0.1c0.3,0.5,0.6,0.7,0.9,0.8
			c0.3,0.1,0.6,0.1,0.9-0.1c0.3-0.2,0.4-0.4,0.4-0.7c0-0.3-0.2-0.7-0.5-1.1c-0.3-0.4-0.6-0.7-0.9-0.8C74.8,45.3,74.5,45.4,74.2,45.6
			z"/>
		<path fill="#FFFFFF" d="M80.9,45.9c-0.5,0.3-1,0.4-1.5,0.2l0,0c0.3,0.3,0.4,0.5,0.4,0.5l1.1,1.5l-0.8,0.5l-3.8-5.4l0.6-0.4
			c0.1,0.1,0.2,0.2,0.5,0.4l0,0c0-0.5,0.2-1,0.7-1.3c0.5-0.3,0.9-0.4,1.4-0.2c0.5,0.2,1,0.6,1.4,1.2c0.4,0.6,0.6,1.2,0.6,1.7
			C81.6,45.2,81.4,45.6,80.9,45.9z M78.5,42.8C78.2,43,78,43.3,78,43.5c0,0.3,0.1,0.6,0.4,1l0.1,0.1c0.3,0.5,0.6,0.7,0.9,0.8
			c0.3,0.1,0.6,0.1,0.9-0.1c0.3-0.2,0.4-0.4,0.4-0.7c0-0.3-0.2-0.7-0.5-1.1c-0.3-0.4-0.6-0.7-0.9-0.8C79.1,42.6,78.8,42.6,78.5,42.8
			z"/>
		<path fill="#FFFFFF" d="M82.5,39.3c0.2-0.1,0.3-0.2,0.4-0.2l0.4,0.8c-0.1,0-0.3,0.1-0.4,0.2c-0.3,0.2-0.5,0.5-0.6,0.8
			c-0.1,0.3,0,0.7,0.3,1l1.4,1.9l-0.8,0.5l-2.6-3.7l0.6-0.4l0.6,0.6l0,0c0-0.3,0-0.6,0.1-0.8C82.1,39.7,82.3,39.5,82.5,39.3z"/>
		<path fill="#FFFFFF" d="M88.3,38.4c0.4,0.6,0.6,1.2,0.5,1.7c-0.1,0.5-0.4,1-0.9,1.3c-0.3,0.2-0.7,0.3-1.1,0.4
			c-0.4,0-0.7-0.1-1.1-0.3c-0.3-0.2-0.7-0.5-0.9-0.9c-0.4-0.6-0.6-1.2-0.5-1.7s0.4-1,1-1.3c0.5-0.3,1.1-0.4,1.6-0.3
			C87.4,37.5,87.8,37.8,88.3,38.4z M85.5,40.2c0.6,0.9,1.2,1.1,1.9,0.7c0.6-0.4,0.6-1,0-1.9c-0.6-0.8-1.2-1.1-1.8-0.7
			c-0.3,0.2-0.5,0.5-0.5,0.8C85.1,39.4,85.3,39.8,85.5,40.2z"/>
		<path fill="#FFFFFF" d="M91.3,39.2l-4-2.8l0.8-0.5l2.3,1.7c0.4,0.3,0.7,0.5,0.9,0.7l0,0c-0.1-0.2-0.2-0.5-0.4-1l-0.8-2.6L91,34
			l1.2,4.6L91.3,39.2z"/>
		<path fill="#FFFFFF" d="M95.8,36.4c-0.6,0.4-1.2,0.5-1.7,0.4s-1.1-0.5-1.5-1.1c-0.4-0.6-0.6-1.2-0.6-1.7c0.1-0.5,0.4-1,0.9-1.3
			c0.5-0.3,1-0.4,1.5-0.3c0.5,0.1,0.9,0.4,1.3,1l0.3,0.4l-2.5,1.6c0.3,0.4,0.6,0.6,0.9,0.6s0.6,0,1-0.2c0.2-0.1,0.4-0.3,0.6-0.5
			c0.2-0.2,0.3-0.4,0.5-0.6l0.5,0.6c-0.1,0.2-0.3,0.4-0.5,0.6C96.3,36.1,96.1,36.2,95.8,36.4z M93.4,33.2c-0.3,0.2-0.4,0.4-0.4,0.6
			c0,0.3,0,0.5,0.2,0.9l1.7-1.1c-0.2-0.3-0.5-0.5-0.7-0.6C93.9,33,93.7,33.1,93.4,33.2z"/>
		<path fill="#FFFFFF" d="M99.5,34.1c-0.5,0.3-0.9,0.4-1.4,0.2c-0.5-0.2-1-0.6-1.4-1.2C96.2,32.5,96,32,96,31.4
			c0-0.5,0.3-0.9,0.7-1.2c0.5-0.3,1-0.4,1.5-0.2l0,0c-0.2-0.2-0.4-0.4-0.5-0.6l-1-1.4l0.8-0.5l3.7,5.2l-0.6,0.4l-0.5-0.4l0,0
			C100.2,33.4,99.9,33.8,99.5,34.1z M99.2,33.3c0.3-0.2,0.5-0.5,0.5-0.7c0-0.3-0.1-0.6-0.4-1l-0.1-0.1c-0.3-0.5-0.6-0.8-0.9-0.9
			c-0.3-0.1-0.6,0-0.9,0.2c-0.3,0.2-0.4,0.4-0.4,0.7c0,0.3,0.2,0.7,0.5,1.1c0.3,0.4,0.6,0.7,0.9,0.8C98.6,33.5,98.9,33.5,99.2,33.3z
			"/>
	</g>
	<path fill="#FFFFFF" d="M115.6,47.7c1.2,5.1-5.4,10.7-14.9,12.5s-18.1-0.9-19.4-6.1c-1.2-5.1,5.4-10.7,14.9-12.5
		C105.7,39.9,114.3,42.6,115.6,47.7z"/>
	<path fill="#2772BA" d="M93.1,55.6c0.6,0.1,5.5,1.1,5.5,1.1s0.4,0.2,0.4-0.3c0-0.5,0.3-13.2,0.3-13.7c0-0.5,0.1-1,1.1-0.9
		s1.4,0.8,1.4,1.5c0,0.6-0.3,14.9-0.4,15.7c-0.1,0.9-0.9,0.6-1.6,0.5c-0.6-0.1-6.1-1.2-6.8-1.4s-0.8-0.9-0.7-1.4
		S92.5,55.4,93.1,55.6z"/>
	<path d="M162.5,54.5c-3,2.2-3,2.2-6.8,0.6c-3.8-1.5-6.7-2.5-8.7-3.6c-1.6-0.9-1.7-3.7,1.3-5.7c3-2.1,11.2-7.1,14-8.8
		c2.9-1.8,3.5-1.4,6.1-0.3c2.7,1.1,6.1,2.5,8.9,3.8c2.8,1.3,3.5,2.2-0.7,5.1C172.2,48.5,165.5,52.4,162.5,54.5z"/>
	<path d="M137.9,71.3c-3,2.2-3,2.2-6.8,0.6c-3.8-1.5-6.7-2.5-8.7-3.6c-1.6-0.9-1.7-3.7,1.3-5.7c3-2.1,11.2-7.1,14-8.8
		c2.9-1.8,3.5-1.4,6.1-0.3c2.7,1.1,6.1,2.5,8.9,3.8c2.8,1.3,3.5,2.2-0.7,5.1C147.7,65.3,141,69.2,137.9,71.3z"/>
	<path d="M112.9,87.7c-3,2.2-3,2.2-6.8,0.6c-3.8-1.5-6.7-2.5-8.7-3.6c-1.6-0.9-1.7-3.7,1.3-5.7c3-2.1,11.2-7.1,14-8.8
		c2.9-1.8,3.5-1.4,6.1-0.3c2.7,1.1,6.1,2.5,8.9,3.8c2.8,1.3,3.5,2.2-0.7,5.1C122.7,81.7,116,85.6,112.9,87.7z"/>
	<path stroke="#FFFFFF" stroke-width="0.8522" stroke-miterlimit="10" d="M135.7,98.8c-3,2.2-3,2.2-6.8,0.6
		c-3.8-1.5-6.7-2.5-8.7-3.6c-1.6-0.9-1.7-3.7,1.3-5.7c3-2.1,11.2-7.1,14-8.8c2.9-1.8,3.5-1.4,6.1-0.3c2.7,1.1,6.1,2.5,8.9,3.8
		c2.8,1.3,3.5,2.2-0.7,5.1C145.5,92.7,138.7,96.6,135.7,98.8z"/>
	<path stroke="#FFFFFF" stroke-width="0.8522" stroke-miterlimit="10" d="M161.4,82.1c-3,2.2-3,2.2-6.8,0.6
		c-3.8-1.5-6.7-2.5-8.7-3.6c-1.6-0.9-1.7-3.7,1.3-5.7c3-2.1,11.2-7.1,14-8.8c2.9-1.8,3.5-1.4,6.1-0.3c2.7,1.1,6.1,2.5,8.9,3.8
		c2.8,1.3,3.5,2.2-0.7,5.1C171.2,76.1,164.4,80,161.4,82.1z"/>
	<path stroke="#FFFFFF" stroke-width="0.8522" stroke-miterlimit="10" d="M185.5,66.2c-3,2.2-3,2.2-6.8,0.6
		c-3.8-1.5-6.7-2.5-8.7-3.6c-1.6-0.9-1.7-3.7,1.3-5.7c3-2.1,11.2-7.1,14-8.8c2.9-1.8,3.5-1.4,6.1-0.3c2.7,1.1,6.1,2.5,8.9,3.8
		c2.8,1.3,3.5,2.2-0.7,5.1C195.3,60.1,188.6,64,185.5,66.2z"/>
	<path stroke="#FFFFFF" stroke-width="0.8522" stroke-miterlimit="10" d="M159.9,108.6c-3,2.2-3,2.2-6.8,0.6
		c-3.8-1.5-6.7-2.5-8.7-3.6c-1.6-0.9-1.7-3.7,1.3-5.7c3-2.1,11.2-7.1,14-8.8c2.9-1.8,3.5-1.4,6.1-0.3c2.7,1.1,6.1,2.5,8.9,3.8
		c2.8,1.3,3.5,2.2-0.7,5.1C169.7,102.5,162.9,106.4,159.9,108.6z"/>
	<path stroke="#FFFFFF" stroke-width="0.8522" stroke-miterlimit="10" d="M185.6,91.9c-3,2.2-3,2.2-6.8,0.6
		c-3.8-1.5-6.7-2.5-8.7-3.6c-1.6-0.9-1.7-3.7,1.3-5.7c3-2.1,11.2-7.1,14-8.8c2.9-1.8,3.5-1.4,6.1-0.3s6.1,2.5,8.9,3.8
		c2.8,1.3,3.5,2.2-0.7,5.1C195.4,85.8,188.6,89.7,185.6,91.9z"/>
	<path stroke="#FFFFFF" stroke-width="0.8522" stroke-miterlimit="10" d="M209.7,75.9c-3,2.2-3,2.2-6.8,0.6
		c-3.8-1.5-6.7-2.5-8.7-3.6c-1.6-0.9-1.7-3.7,1.3-5.7c3-2.1,11.2-7.1,14-8.8c2.9-1.8,3.5-1.4,6.1-0.3c2.7,1.1,6.1,2.5,8.9,3.8
		c2.8,1.3,3.5,2.2-0.7,5.1C219.5,69.9,212.8,73.8,209.7,75.9z"/>
	<path stroke="#FFFFFF" stroke-width="0.8522" stroke-miterlimit="10" d="M184.1,118.4c-3,2.2-3,2.2-6.8,0.6
		c-3.8-1.5-6.7-2.5-8.7-3.6c-1.6-0.9-1.7-3.7,1.3-5.7c3-2.1,11.2-7.1,14-8.8c2.9-1.8,3.5-1.4,6.1-0.3c2.7,1.1,6.1,2.5,8.9,3.8
		c2.8,1.3,3.5,2.2-0.7,5.1C193.9,112.3,187.1,116.2,184.1,118.4z"/>
	<path stroke="#FFFFFF" stroke-width="0.8522" stroke-miterlimit="10" d="M209.8,101.7c-3,2.2-3,2.2-6.8,0.6
		c-3.8-1.5-6.7-2.5-8.7-3.6c-1.6-0.9-1.7-3.7,1.3-5.7c3-2.1,11.2-7.1,14-8.8c2.9-1.8,3.5-1.4,6.1-0.3s6.1,2.5,8.9,3.8
		c2.8,1.3,3.5,2.2-0.7,5.1C219.6,95.6,212.8,99.5,209.8,101.7z"/>
	<path stroke="#FFFFFF" stroke-width="0.8522" stroke-miterlimit="10" d="M233.9,85.7c-3,2.2-3,2.2-6.8,0.6
		c-3.8-1.5-6.7-2.5-8.7-3.6c-1.6-0.9-1.7-3.7,1.3-5.7c3-2.1,11.2-7.1,14-8.8c2.9-1.8,3.5-1.4,6.1-0.3c2.7,1.1,6.1,2.5,8.9,3.8
		c2.8,1.3,3.5,2.2-0.7,5.1C243.7,79.6,237,83.5,233.9,85.7z"/>
	<path stroke="#EE3047" stroke-width="0.8522" stroke-miterlimit="10" d="M208.3,128.1c-3,2.2-3,2.2-6.8,0.6
		c-3.8-1.5-6.7-2.5-8.7-3.6c-1.6-0.9-1.7-3.7,1.3-5.7c3-2.1,11.2-7.1,14-8.8c2.9-1.8,3.5-1.4,6.1-0.3c2.7,1.1,6.1,2.5,8.9,3.8
		c2.8,1.3,3.5,2.2-0.7,5.1C218.1,122.1,211.3,126,208.3,128.1z"/>
	<path stroke="#FFFFFF" stroke-width="0.8522" stroke-miterlimit="10" d="M234,111.4c-3,2.2-3,2.2-6.8,0.6c-3.8-1.5-6.7-2.5-8.7-3.6
		c-1.6-0.9-1.7-3.7,1.3-5.7c3-2.1,11.2-7.1,14-8.8c2.9-1.8,3.5-1.4,6.1-0.3c2.7,1.1,6.1,2.5,8.9,3.8c2.8,1.3,3.5,2.2-0.7,5.1
		C243.8,105.4,237,109.3,234,111.4z"/>
	<path stroke="#5EBB47" stroke-width="0.8522" stroke-miterlimit="10" d="M258.1,95.5c-3,2.2-3,2.2-6.8,0.6
		c-3.8-1.5-6.7-2.5-8.7-3.6c-1.6-0.9-1.7-3.7,1.3-5.7c3-2.1,11.2-7.1,14-8.8c2.9-1.8,3.5-1.4,6.1-0.3c2.7,1.1,6.1,2.5,8.9,3.8
		c2.8,1.3,3.5,2.2-0.7,5.1C267.9,89.4,261.2,93.3,258.1,95.5z"/>
	<g>
		<g>
			<line fill="none" stroke="#FFFFFF" stroke-width="0.8522" stroke-miterlimit="10" x1="123.2" y1="76.4" x2="122" y2="75.3"/>
			<g>
				<polygon fill="#FFFFFF" points="120.8,77 123.6,74 120.7,74.1 				"/>
			</g>
		</g>
	</g>
	<g>
		<path fill="#FFFFFF" d="M125.9,62.2l0.7-0.5l0.1,0.1l-0.6,0.4l0.3,0.5l0.5-0.4l0.1,0.1l-0.5,0.4l0.5,0.6l-0.2,0.1L125.9,62.2z"/>
		<path fill="#FFFFFF" d="M127.9,62.9l-0.1-0.1l0-0.2c0.1-0.6,0.1-0.8,0-1c-0.1-0.1-0.3-0.2-0.5-0.1c-0.1,0.1-0.2,0.2-0.2,0.3
			l-0.2-0.1c0-0.1,0.1-0.3,0.3-0.4c0.3-0.2,0.5-0.1,0.7,0.1c0.2,0.2,0.2,0.6,0.1,1l0,0.2l0,0l0.6-0.4l0.1,0.1L127.9,62.9z"/>
	</g>
	<g>
		<g>
			<line fill="none" stroke="#FFFFFF" stroke-width="0.8522" stroke-miterlimit="10" x1="146.3" y1="59.1" x2="147.9" y2="60.1"/>
			<g>
				<polygon fill="#FFFFFF" points="148.8,58.3 146.5,61.7 149.3,61.1 				"/>
			</g>
		</g>
	</g>
	<g>
		<path fill="#FFFFFF" d="M150.5,46.7l0.7-0.6l0.1,0.1l-0.5,0.4l0.4,0.4l0.5-0.4l0.1,0.1l-0.5,0.4l0.5,0.6l-0.2,0.1L150.5,46.7z"/>
		<path fill="#FFFFFF" d="M152.5,47.2l-0.1-0.1l0-0.2c0.1-0.6,0.1-0.8-0.1-1c-0.1-0.1-0.3-0.2-0.5,0c-0.1,0.1-0.2,0.2-0.2,0.3
			l-0.2-0.1c0-0.1,0.1-0.3,0.2-0.4c0.3-0.2,0.5-0.1,0.7,0c0.2,0.2,0.2,0.5,0.2,1l0,0.2l0,0l0.6-0.5l0.1,0.1L152.5,47.2z"/>
	</g>
	<polygon fill="#FFFFFF" points="177.5,43.2 171.9,47.2 166.7,44.6 172.4,40.6 	"/>
	<g>
		<path fill="#FFFFFF" d="M124.9,95.3l-0.6-0.3c0.3-0.2,0.5-0.3,0.6-0.4c0.2-0.1,0.2-0.3,0.3-0.4c0-0.1,0-0.2-0.1-0.3
			c0-0.1-0.1-0.1-0.1-0.1l0.8-0.5l4.2,2.3l-1,0.6l-2.9-1.6L124.9,95.3z"/>
	</g>
	<g>
		<path fill="#FFFFFF" d="M139.9,86.7c0.1,0,0.3,0,0.4,0l-0.3-0.2l0.4-0.3l3,1.7l-0.4,0.3l-1.1-0.6c0,0.1,0,0.2-0.1,0.3
			c-0.1,0.1-0.2,0.2-0.4,0.3c-0.3,0.2-0.6,0.3-1,0.3c-0.4,0-0.8,0-1.1-0.2c-0.3-0.2-0.5-0.4-0.6-0.7c0-0.2,0.1-0.5,0.4-0.7
			C139.5,86.8,139.7,86.7,139.9,86.7z M140.3,88.2c0.3,0.1,0.6,0,0.9-0.2c0.3-0.2,0.4-0.4,0.3-0.6c-0.1-0.1-0.2-0.2-0.4-0.3
			c-0.2-0.1-0.4-0.2-0.6-0.2c-0.3,0-0.6,0-0.9,0.2c-0.2,0.1-0.3,0.3-0.3,0.4c0,0.2,0.1,0.3,0.4,0.5C140,88.1,140.1,88.2,140.3,88.2z
			"/>
		<path fill="#FFFFFF" d="M142.8,87l0-1.8l-1.4,0.9l-0.3-0.2l2-1.3l0.3,0.2l0,1.8l1.5-1l0.3,0.2l-2.1,1.4L142.8,87z"/>
	</g>
	<g>
		<path fill="#FFFFFF" d="M154.7,79.5c-0.2-0.2-0.3-0.6-0.3-1c0.1-0.4,0.1-0.7,0-0.8c-0.1-0.2-0.2-0.4-0.5-0.5
			c-0.2-0.1-0.5-0.1-0.8-0.1c-0.3,0-0.5,0.1-0.7,0.2c-0.3,0.2-0.3,0.4-0.2,0.5c0.1,0.1,0.3,0.2,0.6,0.3l-0.9,0.6
			c-0.5-0.2-0.8-0.4-0.9-0.6c-0.3-0.4-0.2-0.8,0.5-1.2c0.5-0.3,1.1-0.5,1.7-0.6s1.2,0,1.8,0.2c0.4,0.2,0.7,0.4,0.8,0.6
			c0.1,0.2,0.1,0.4,0,0.7l-0.1,0.4c0,0.2-0.1,0.4,0,0.5c0,0.1,0,0.2,0.1,0.3l2.1-1.3l1,0.4l-3.2,2.1
			C155.2,79.9,154.9,79.7,154.7,79.5z"/>
	</g>
	<g>
		<path fill="#FFFFFF" d="M166.6,71.2c0.1-0.1,0.1-0.1,0-0.2c0,0-0.1-0.1-0.2-0.1c-0.2-0.1-0.3-0.1-0.5,0c-0.2,0-0.4,0.1-0.5,0.2
			c-0.2,0.1-0.3,0.3-0.2,0.4c0,0.1,0.1,0.1,0.2,0.2l-0.4,0.2c-0.4-0.1-0.5-0.3-0.5-0.5c0-0.2,0.2-0.3,0.4-0.5
			c0.3-0.2,0.6-0.3,0.9-0.4c0.3-0.1,0.6,0,0.9,0.1l1.7,0.6c0,0,0.1,0,0.1,0c0,0,0.1,0,0.2-0.1c0,0,0,0,0.1,0c0,0,0,0,0.1-0.1
			l0.4,0.1c0,0-0.1,0.1-0.1,0.1s-0.1,0.1-0.1,0.1c-0.1,0.1-0.3,0.1-0.5,0.1c-0.1,0-0.2,0-0.3-0.1c0,0.1,0,0.2,0,0.4
			c-0.1,0.1-0.2,0.3-0.4,0.4c-0.2,0.1-0.5,0.2-0.8,0.3s-0.6,0-0.8-0.1c-0.3-0.1-0.4-0.2-0.4-0.4c0-0.1,0.1-0.3,0.3-0.5L166.6,71.2z
			 M167,72.2c0.2,0,0.3-0.1,0.4-0.2c0.1-0.1,0.2-0.2,0.3-0.3c0.1-0.2,0-0.4-0.3-0.5l-0.4-0.1c0,0,0,0.1-0.1,0.2
			c-0.1,0.1-0.1,0.1-0.2,0.2l-0.2,0.2c-0.1,0.1-0.2,0.2-0.2,0.3c0,0.1,0,0.2,0.2,0.3C166.7,72.2,166.9,72.2,167,72.2z"/>
		<path fill="#FFFFFF" d="M165.6,69.5l0.4-0.3l1.5,0.5c-0.1-0.1-0.1-0.2,0-0.3c0-0.1,0.1-0.2,0.3-0.3c0.3-0.2,0.7-0.3,1.1-0.3
			c0.4,0,0.9,0,1.4,0.2c0.5,0.2,0.8,0.4,0.9,0.6c0.1,0.2,0,0.5-0.3,0.7c-0.2,0.1-0.4,0.2-0.6,0.2c-0.1,0-0.3,0-0.5,0l0.4,0.1
			l-0.4,0.2L165.6,69.5z M170.5,69.7c-0.1-0.1-0.3-0.3-0.7-0.4c-0.3-0.1-0.6-0.2-0.9-0.2c-0.3,0-0.6,0.1-0.8,0.2
			c-0.2,0.1-0.3,0.3-0.2,0.4c0,0.2,0.2,0.3,0.6,0.4c0.3,0.1,0.5,0.2,0.8,0.2c0.4,0,0.8,0,1.1-0.2C170.6,70,170.6,69.9,170.5,69.7z"
			/>
		<path fill="#FFFFFF" d="M171.1,67.2c0.3-0.1,0.7,0,1.1,0.1l-0.4,0.3c-0.2-0.1-0.4-0.1-0.6-0.1s-0.4,0.1-0.6,0.2
			c-0.3,0.2-0.3,0.3-0.1,0.5c0.1,0.1,0.3,0.2,0.6,0.3c0.3,0.1,0.6,0.2,0.9,0.2c0.3,0,0.6-0.1,0.8-0.2c0.2-0.1,0.2-0.2,0.2-0.3
			c0-0.1-0.1-0.2-0.3-0.3l0.4-0.3c0.3,0.2,0.5,0.3,0.5,0.5s-0.1,0.4-0.4,0.6c-0.3,0.2-0.7,0.3-1.2,0.3c-0.5,0-0.9,0-1.3-0.2
			c-0.5-0.2-0.8-0.4-0.9-0.6c-0.1-0.2,0-0.5,0.4-0.7C170.4,67.4,170.7,67.3,171.1,67.2z"/>
	</g>
	<g>
		<path fill="#FFFFFF" d="M178.2,62.9c0.2,0.1,0.4,0.1,0.6,0.1c0.4,0,0.7-0.1,1-0.2c0.2-0.1,0.2-0.2,0.2-0.4c0-0.1-0.2-0.3-0.5-0.4
			c-0.4-0.1-0.7-0.1-1.1,0c-0.2,0.1-0.5,0.2-0.7,0.4l-0.8-0.3c0.3-0.2,0.4-0.3,0.5-0.4c0.1-0.2,0-0.3-0.4-0.4
			c-0.2-0.1-0.4-0.1-0.7-0.1s-0.4,0.1-0.6,0.2c-0.2,0.1-0.3,0.3-0.2,0.4c0.1,0.1,0.2,0.2,0.5,0.3l-0.8,0.6c-0.3-0.1-0.5-0.2-0.7-0.4
			c-0.2-0.1-0.2-0.3-0.3-0.5c0-0.1,0-0.3,0.1-0.4c0.1-0.1,0.2-0.3,0.5-0.4c0.4-0.3,0.9-0.5,1.4-0.6c0.5-0.1,1,0,1.5,0.1
			c0.3,0.1,0.5,0.3,0.6,0.5c0,0.1,0,0.2,0,0.3c0.1-0.1,0.3-0.1,0.6-0.1c0.5-0.1,1,0,1.4,0.2c0.5,0.2,0.8,0.4,0.9,0.7
			c0.1,0.3-0.1,0.6-0.6,1c-0.6,0.4-1.3,0.6-2.1,0.6c-0.4,0-0.8-0.1-1.3-0.3L178.2,62.9z"/>
	</g>
	<g>
		<path fill="#FFFFFF" d="M188.3,54.8c0.1,0,0.3,0,0.5-0.1l-1.5-0.5l0.4-0.3l4,1.5l-0.3,0.2l-0.4-0.2c0.1,0.1,0.1,0.2,0.1,0.4
			c0,0.1-0.1,0.2-0.3,0.3c-0.3,0.2-0.6,0.3-1.1,0.3c-0.5,0-0.9,0-1.4-0.2c-0.4-0.2-0.7-0.4-0.8-0.6c-0.1-0.2-0.1-0.5,0.3-0.7
			C187.9,54.9,188.1,54.8,188.3,54.8z M189.6,56.2c0.3,0,0.6-0.1,0.8-0.2c0.2-0.1,0.2-0.3,0.1-0.4c-0.1-0.2-0.3-0.3-0.7-0.4
			c-0.4-0.1-0.7-0.2-1-0.2c-0.3,0-0.5,0.1-0.7,0.2c-0.2,0.1-0.3,0.3-0.2,0.4c0.1,0.2,0.3,0.3,0.7,0.4
			C189,56.1,189.3,56.2,189.6,56.2z"/>
		<path fill="#FFFFFF" d="M190.9,53c0.2-0.1,0.5-0.1,0.7-0.1c0.2,0,0.4,0,0.7,0.1c0.2,0,0.4,0.1,0.7,0.2l-1.7,1.2
			c0.3,0.1,0.6,0.2,0.9,0.2c0.3,0,0.5-0.1,0.7-0.2c0.2-0.1,0.3-0.3,0.2-0.4c0-0.1-0.1-0.2-0.2-0.2l0.4-0.3c0.1,0,0.2,0.1,0.3,0.2
			c0.1,0.1,0.1,0.2,0.1,0.3c0,0.1,0,0.3-0.1,0.4c-0.1,0.1-0.2,0.2-0.3,0.2c-0.3,0.2-0.7,0.3-1.1,0.4c-0.5,0-0.9,0-1.4-0.2
			c-0.5-0.2-0.8-0.4-0.8-0.6c-0.1-0.2,0-0.5,0.3-0.7C190.4,53.2,190.6,53.1,190.9,53z M192.1,53.3c-0.2-0.1-0.4-0.1-0.6-0.1
			c-0.3,0-0.6,0.1-0.9,0.2c-0.2,0.1-0.2,0.3-0.2,0.4c0,0.1,0.2,0.3,0.4,0.4L192.1,53.3z"/>
		<path fill="#FFFFFF" d="M191.1,51.8c-0.1-0.1,0-0.3,0.3-0.5c0,0,0.1,0,0.1-0.1c0,0,0.1,0,0.1-0.1l0.4,0.2c0,0-0.1,0-0.1,0.1
			c0,0,0,0-0.1,0c-0.1,0.1-0.2,0.1-0.1,0.2c0.1,0,0.2,0.1,0.6,0.2l0.4-0.3l0.4,0.1l-0.4,0.3l2.5,0.9l-0.4,0.3l-2.5-0.9l-0.3,0.2
			l-0.4-0.1l0.3-0.2l-0.5-0.2C191.3,52,191.1,51.9,191.1,51.8z"/>
	</g>
	<g>
		<path fill="#FFFFFF" d="M202,70.9c-0.1,0-0.2-0.1-0.4-0.1c-0.3,0-0.5,0.1-0.6,0.2c-0.2,0.2-0.2,0.4,0.1,0.6
			c0.2,0.1,0.5,0.3,0.9,0.5c-0.1-0.1-0.1-0.3,0-0.4c0-0.1,0.1-0.2,0.3-0.4c0.3-0.3,0.8-0.4,1.3-0.4c0.6,0,1.1,0,1.6,0.2
			c0.5,0.2,0.9,0.4,1.1,0.8c0.2,0.3,0.1,0.6-0.4,1c-0.5,0.4-1.1,0.5-1.9,0.5c-0.6,0-1.3-0.2-2.1-0.5c-0.4-0.2-0.8-0.3-1-0.4
			c-0.4-0.2-0.8-0.4-0.9-0.6c-0.2-0.2-0.2-0.4-0.2-0.6c0-0.2,0.1-0.4,0.4-0.6c0.4-0.3,0.8-0.4,1.2-0.5c0.5-0.1,0.9,0,1.4,0.1
			L202,70.9z M204.2,72.8c0.3,0,0.5-0.1,0.7-0.2c0.2-0.1,0.2-0.3,0.1-0.4s-0.3-0.3-0.6-0.4c-0.3-0.1-0.6-0.2-0.9-0.2
			c-0.3,0-0.5,0.1-0.7,0.2c-0.1,0.1-0.2,0.2-0.2,0.3c0,0.2,0.2,0.3,0.6,0.5C203.6,72.7,203.9,72.8,204.2,72.8z"/>
	</g>
	<g>
		<path fill="#FFFFFF" d="M210.1,66.1l0.3-0.2l0.4,0.2c-0.1-0.1-0.1-0.2-0.1-0.3c0-0.1,0.1-0.2,0.2-0.3c0.2-0.1,0.3-0.2,0.5-0.2
			c0.1,0,0.3,0,0.4,0c-0.1-0.1-0.1-0.2-0.1-0.3c0-0.1,0.1-0.2,0.2-0.3c0.3-0.2,0.6-0.3,1-0.3c0.2,0,0.4,0.1,0.7,0.2l1.9,0.7
			l-0.3,0.3l-2-0.8c-0.2-0.1-0.4-0.1-0.5-0.1c-0.1,0-0.3,0.1-0.3,0.1c-0.1,0.1-0.2,0.2-0.1,0.3c0,0.1,0.2,0.2,0.5,0.3l1.7,0.6
			l-0.3,0.3l-1.9-0.7c-0.2-0.1-0.4-0.1-0.5-0.1c-0.2,0-0.3,0-0.5,0.1c-0.1,0.1-0.2,0.2-0.1,0.3c0,0.1,0.3,0.3,0.6,0.4l1.5,0.6
			l-0.3,0.3L210.1,66.1z"/>
		<path fill="#FFFFFF" d="M213.2,63.8l0.3-0.2l0.4,0.2c-0.1-0.1-0.1-0.3-0.1-0.4s0.1-0.2,0.2-0.3c0.3-0.2,0.6-0.3,1-0.3
			c0.2,0,0.5,0.1,0.8,0.2l1.9,0.7l-0.3,0.3l-1.8-0.7c-0.2-0.1-0.3-0.1-0.5-0.1c-0.2,0-0.4,0-0.6,0.1c-0.1,0.1-0.1,0.1-0.2,0.2
			c0,0.1,0,0.2,0,0.3c0,0.1,0.1,0.1,0.2,0.2c0.1,0.1,0.2,0.1,0.4,0.2l1.5,0.6l-0.3,0.3L213.2,63.8z"/>
		<path fill="#FFFFFF" d="M217,61.2c0.4,0,0.9,0,1.4,0.2c0.5,0.2,0.8,0.4,0.9,0.6c0.2,0.2,0.1,0.5-0.2,0.7c-0.3,0.2-0.6,0.3-1,0.3
			c-0.4,0-0.9-0.1-1.3-0.2c-0.5-0.2-0.8-0.4-0.9-0.6c-0.1-0.2,0-0.5,0.2-0.7C216.2,61.3,216.5,61.2,217,61.2z M218.7,62
			c-0.2-0.2-0.4-0.3-0.7-0.4c-0.3-0.1-0.5-0.2-0.7-0.2c-0.4,0-0.7,0-0.9,0.2c-0.2,0.2-0.2,0.3-0.1,0.5s0.4,0.3,0.7,0.4
			c0.3,0.1,0.6,0.2,0.9,0.2c0.3,0,0.5-0.1,0.7-0.2C218.8,62.4,218.9,62.2,218.7,62z"/>
	</g>
	<g>
		<path fill="#FFFFFF" d="M178.3,88.8c0.3,0.1,0.5,0.1,0.8,0.1c0.2,0,0.5-0.1,0.7-0.3c0.3-0.2,0.4-0.3,0.3-0.5s-0.2-0.3-0.5-0.4
			c-0.3-0.1-0.6-0.2-0.9-0.2s-0.6,0.1-0.9,0.3c-0.1,0.1-0.2,0.2-0.3,0.2c-0.1,0.1-0.1,0.3,0,0.4l-1,0.6l-2.7-1.5l2.9-1.9l0.9,0.4
			l-2.1,1.4l1,0.6c0-0.2,0.1-0.3,0.2-0.3c0.1-0.1,0.2-0.3,0.5-0.4c0.4-0.3,1-0.5,1.6-0.6c0.6-0.1,1.2,0,1.8,0.2
			c0.5,0.2,0.8,0.5,0.9,0.9c0.1,0.4-0.2,0.8-0.8,1.2c-0.5,0.3-1,0.5-1.6,0.6c-0.6,0.1-1.2,0-1.7-0.1L178.3,88.8z"/>
	</g>
	<g>
		<path fill="#FFFFFF" d="M188.5,79.9l-0.5,0.3l-0.6-0.2l0.5-0.3L188.5,79.9z M191.7,82.2c0.2-0.1,0.3-0.2,0.3-0.3
			c0,0-0.1-0.1-0.2-0.2l-3.2-1.3l0.5-0.3l3.3,1.4c0.2,0.1,0.3,0.2,0.4,0.3c0.1,0.1,0,0.3-0.3,0.5c0,0,0,0-0.1,0c0,0-0.1,0-0.1,0.1
			L191.7,82.2z"/>
		<path fill="#FFFFFF" d="M188.6,79.2L189,79l2.3,0.9l-0.1-1.3l0.6-0.4l0,1.1l2.9,0l-0.6,0.4l-2.3,0l0,0.4l1.1,0.4l-0.4,0.3
			L188.6,79.2z"/>
		<path fill="#FFFFFF" d="M191.2,77.5l0.5-0.3l4,1.6l-0.5,0.3L191.2,77.5z"/>
	</g>
	<g>
		<path fill="#FFFFFF" d="M155,104.4l-0.5,0.4l1.4,0.5l-0.9,0.6l-1.4-0.5l-1.9,1.3l-1.1-0.4l-2.1-2.8l1-0.7l4,1.6l0.5-0.4L155,104.4
			z M152.6,105l-2.8-1.1l1.6,1.9L152.6,105z"/>
	</g>
	<g>
		<path fill="#FFFFFF" d="M162.8,97c0.1,0,0.3,0,0.6,0l-0.4-0.2l0.4-0.3l3,1.2c0.4,0.2,0.7,0.3,0.9,0.5c0.3,0.3,0.2,0.6-0.3,0.9
			c-0.3,0.2-0.6,0.3-0.9,0.4c-0.3,0.1-0.7,0-1-0.1l0.4-0.3c0.2,0,0.3,0.1,0.5,0.1c0.2,0,0.4-0.1,0.6-0.2c0.3-0.2,0.4-0.4,0.2-0.6
			c-0.1-0.1-0.4-0.3-0.9-0.4c0.1,0.1,0.1,0.2,0.1,0.4c0,0.1-0.1,0.2-0.3,0.4c-0.3,0.2-0.6,0.3-1.1,0.3c-0.5,0-1-0.1-1.6-0.3
			c-0.6-0.2-0.9-0.5-1-0.7c-0.1-0.3,0-0.5,0.3-0.7C162.3,97.1,162.5,97,162.8,97z M163.4,97.2c-0.3,0-0.6,0.1-0.8,0.2
			c-0.3,0.2-0.3,0.4,0,0.6c0.1,0.1,0.4,0.2,0.7,0.4c0.4,0.1,0.7,0.2,1,0.2c0.3,0,0.6-0.1,0.7-0.2c0.3-0.2,0.3-0.4,0.1-0.6
			c-0.1-0.1-0.3-0.2-0.6-0.4C164.1,97.3,163.7,97.2,163.4,97.2z"/>
		<path fill="#FFFFFF" d="M162.6,95.6l0.4-0.3l1.7,0.7c-0.1-0.1-0.1-0.2-0.1-0.3c0-0.1,0.1-0.3,0.3-0.4c0.4-0.2,0.8-0.4,1.2-0.3
			c0.3,0,0.5,0.1,0.9,0.2l2.1,0.8l-0.4,0.3l-2.1-0.8c-0.2-0.1-0.4-0.2-0.6-0.2c-0.3,0-0.5,0-0.7,0.2c-0.2,0.1-0.2,0.3-0.2,0.4
			c0,0.2,0.2,0.3,0.7,0.5l1.8,0.7l-0.4,0.3L162.6,95.6z"/>
		<path fill="#FFFFFF" d="M165.2,93.8l0.4-0.3l0.6,0.2l-0.4,0.3L165.2,93.8z M166.5,94.3l0.4-0.3l3.3,1.3l-0.4,0.3L166.5,94.3z"/>
	</g>
	<g>
		<path fill="#FFFFFF" d="M174.9,114.3c0,0.1,0.2,0.4,0.4,0.7c0.2,0.3,0.5,0.6,0.8,0.8c0.2,0.2,0.6,0.4,1,0.7
			c0.4,0.2,0.8,0.4,1.1,0.6l-0.8,0.6c-1-0.4-1.8-0.9-2.5-1.7c-0.4-0.4-0.6-0.8-0.7-1l-2,1.3l-1-0.4l2.8-1.9L174.9,114.3z"/>
	</g>
	<g>
		<path fill="#FFFFFF" d="M183.5,110.4l0.3-0.2l0.4,0.1c-0.1-0.1-0.1-0.2-0.1-0.3c0-0.1,0.1-0.2,0.2-0.3c0.2-0.2,0.6-0.2,1-0.3
			c0.4,0,0.9,0.1,1.3,0.2c0.6,0.2,1,0.5,1,0.7c0,0.2-0.1,0.3-0.3,0.5c-0.2,0.1-0.3,0.2-0.5,0.2c-0.1,0-0.3,0-0.5,0l1.5,0.6l-0.3,0.2
			L183.5,110.4z M187.1,110.3c-0.1-0.1-0.3-0.3-0.7-0.4c-0.2-0.1-0.5-0.1-0.7-0.2c-0.4-0.1-0.7,0-1,0.2c-0.2,0.2-0.2,0.3,0,0.5
			c0.1,0.1,0.3,0.2,0.6,0.3c0.2,0.1,0.4,0.1,0.6,0.2c0.4,0.1,0.7,0,0.9-0.2C187.1,110.6,187.1,110.5,187.1,110.3z"/>
		<path fill="#FFFFFF" d="M185.7,108.8l0.3-0.2l0.5,0.2c-0.1-0.1-0.1-0.1-0.2-0.3c0-0.1,0-0.2,0.2-0.3c0,0,0,0,0,0s0,0,0.1,0
			l0.5,0.2c0,0,0,0-0.1,0c0,0,0,0-0.1,0c-0.2,0.1-0.2,0.2-0.2,0.4c0.1,0.1,0.2,0.2,0.4,0.3l1.7,0.6l-0.3,0.2L185.7,108.8z"/>
		<path fill="#FFFFFF" d="M189.2,108.6c0.2,0.1,0.3,0.1,0.5,0.1c0.2,0,0.5-0.1,0.7-0.2c0.1-0.1,0.2-0.2,0.2-0.3s-0.1-0.2-0.2-0.2
			c-0.1,0-0.3-0.1-0.4,0c-0.1,0-0.2,0.1-0.4,0.2l-0.4,0.2c-0.2,0.1-0.4,0.2-0.6,0.2c-0.3,0.1-0.5,0-0.8-0.1
			c-0.3-0.1-0.4-0.2-0.5-0.4c0-0.2,0.1-0.3,0.3-0.5c0.3-0.2,0.7-0.3,1.1-0.3c0.2,0,0.5,0,0.7,0.1l-0.3,0.2c-0.1,0-0.2-0.1-0.4-0.1
			c-0.2,0-0.4,0.1-0.6,0.2c-0.1,0.1-0.2,0.2-0.2,0.2c0,0.1,0.1,0.1,0.2,0.2c0.1,0,0.3,0.1,0.4,0c0.1,0,0.2-0.1,0.3-0.1l0.3-0.1
			c0.3-0.1,0.6-0.2,0.8-0.3c0.3,0,0.5,0,0.8,0.1c0.3,0.1,0.4,0.2,0.5,0.4c0.1,0.2-0.1,0.3-0.3,0.5c-0.3,0.2-0.6,0.3-0.9,0.3
			c-0.3,0-0.6,0-0.9-0.1L189.2,108.6z"/>
	</g>
	<g>
		<path fill="#FFFFFF" d="M223.5,105.8c0.7,0,1.5,0.2,2.5,0.6c0.9,0.3,1.5,0.7,1.8,1s0.2,0.7-0.3,1c-0.5,0.3-1.1,0.5-1.8,0.4
			s-1.5-0.2-2.5-0.6c-0.9-0.3-1.6-0.7-1.9-1c-0.3-0.3-0.2-0.7,0.3-1C222.2,105.9,222.8,105.7,223.5,105.8z M225.6,108.2
			c0.4,0.1,0.7,0,1-0.1c0.2-0.2,0.2-0.3-0.1-0.5c-0.3-0.2-0.7-0.4-1.4-0.6c-0.7-0.3-1.2-0.4-1.6-0.5c-0.4-0.1-0.7,0-0.9,0.1
			c-0.2,0.2-0.2,0.3,0,0.5c0.3,0.2,0.7,0.4,1.4,0.6C224.7,107.9,225.2,108.1,225.6,108.2z"/>
	</g>
	<g>
		<path fill="#FFFFFF" d="M202.1,122.5c0.5,0,0.9,0,1.2,0.1l-0.4,0.3c-0.3-0.1-0.6-0.1-0.9-0.1c-0.3,0-0.5,0.1-0.7,0.3
			c-0.3,0.2-0.3,0.4-0.2,0.6c0.1,0.2,0.5,0.4,1,0.6c0.5,0.2,0.9,0.3,1.4,0.3c0.4,0,0.8-0.1,1.1-0.3c0.3-0.2,0.3-0.4,0.2-0.6
			c-0.1-0.1-0.2-0.2-0.5-0.4l0.4-0.3c0.4,0.2,0.6,0.4,0.7,0.6c0.1,0.3,0,0.5-0.4,0.8c-0.3,0.2-0.7,0.4-1.2,0.4
			c-0.7,0.1-1.4-0.1-2.2-0.3c-0.6-0.2-1-0.5-1.1-0.8c-0.2-0.3-0.1-0.6,0.3-0.9C201.2,122.7,201.6,122.6,202.1,122.5z"/>
		<path fill="#FFFFFF" d="M205.9,121.9c0.1-0.1,0.1-0.1,0-0.2c0,0-0.1-0.1-0.2-0.1c-0.2-0.1-0.3-0.1-0.5,0c-0.2,0-0.3,0.1-0.5,0.2
			c-0.2,0.1-0.2,0.2-0.2,0.3c0,0.1,0.1,0.1,0.3,0.2l-0.3,0.2c-0.4-0.1-0.5-0.3-0.5-0.4c0-0.2,0.1-0.3,0.3-0.5
			c0.2-0.2,0.5-0.3,0.8-0.3c0.3-0.1,0.6,0,0.8,0.1l1.7,0.6c0.1,0,0.1,0,0.1,0c0,0,0.1,0,0.1,0c0,0,0,0,0,0c0,0,0,0,0,0l0.4,0.1
			c0,0-0.1,0.1-0.1,0.1c0,0-0.1,0-0.1,0.1c-0.1,0.1-0.3,0.1-0.4,0.1c-0.1,0-0.2,0-0.3-0.1c0.1,0.1,0.1,0.2,0,0.3
			c0,0.1-0.1,0.2-0.3,0.3c-0.2,0.1-0.4,0.2-0.7,0.2c-0.3,0-0.5,0-0.8-0.1c-0.3-0.1-0.4-0.2-0.5-0.4s0-0.3,0.2-0.4L205.9,121.9z
			 M206.5,122.9c0.2,0,0.3-0.1,0.4-0.1c0.1-0.1,0.2-0.2,0.2-0.3c0.1-0.2-0.1-0.3-0.4-0.4l-0.4-0.1c0,0,0,0.1-0.1,0.1
			c0,0.1-0.1,0.1-0.1,0.2l-0.2,0.2c-0.1,0.1-0.2,0.2-0.2,0.2c0,0.1,0.1,0.2,0.2,0.3C206.2,122.9,206.4,123,206.5,122.9z"/>
		<path fill="#FFFFFF" d="M205.8,120.8l0.3-0.2l0.4,0.2c-0.1-0.1-0.1-0.2-0.1-0.3c0-0.1,0.1-0.2,0.2-0.3c0.3-0.2,0.6-0.3,1-0.2
			c0.2,0,0.5,0.1,0.8,0.2l1.9,0.7l-0.3,0.2l-1.8-0.7c-0.2-0.1-0.3-0.1-0.5-0.1c-0.2,0-0.4,0-0.6,0.1c-0.1,0.1-0.1,0.1-0.2,0.2
			c-0.1,0.1-0.1,0.2,0,0.3c0,0.1,0.1,0.1,0.2,0.2c0.1,0,0.2,0.1,0.4,0.2l1.5,0.6l-0.3,0.2L205.8,120.8z"/>
		<path fill="#FFFFFF" d="M209.5,118.4c0.3,0,0.7,0,1.1,0.1l-0.3,0.2c-0.2-0.1-0.4-0.1-0.6-0.1c-0.2,0-0.4,0.1-0.5,0.2
			c-0.2,0.1-0.2,0.3,0,0.5c0.1,0.1,0.3,0.2,0.6,0.3c0.3,0.1,0.6,0.2,0.9,0.2c0.3,0,0.5,0,0.7-0.2c0.1-0.1,0.2-0.2,0.2-0.3
			c0-0.1-0.2-0.2-0.3-0.3l0.3-0.2c0.3,0.2,0.5,0.3,0.6,0.5c0,0.2-0.1,0.3-0.3,0.5c-0.3,0.2-0.6,0.3-1.1,0.3c-0.4,0-0.9-0.1-1.3-0.2
			c-0.5-0.2-0.8-0.4-0.9-0.6c-0.1-0.2,0-0.4,0.2-0.6C208.9,118.6,209.2,118.5,209.5,118.4z"/>
		<path fill="#FFFFFF" d="M211.3,117.1c0.2-0.1,0.5-0.1,0.7-0.1c0.2,0,0.4,0,0.7,0.1c0.2,0,0.4,0.1,0.7,0.2l-1.5,1
			c0.3,0.1,0.6,0.2,0.9,0.2c0.3,0,0.5-0.1,0.7-0.2c0.2-0.1,0.2-0.3,0.2-0.4c0-0.1-0.1-0.1-0.2-0.2l0.3-0.2c0.1,0,0.2,0.1,0.3,0.2
			c0.1,0.1,0.1,0.2,0.2,0.2c0,0.1,0,0.2-0.1,0.4c-0.1,0.1-0.1,0.1-0.2,0.2c-0.3,0.2-0.6,0.3-1,0.3c-0.4,0-0.9-0.1-1.4-0.2
			c-0.5-0.2-0.8-0.4-0.9-0.6c-0.1-0.2,0-0.4,0.3-0.6C210.9,117.3,211.1,117.2,211.3,117.1z M212.6,117.5c-0.2-0.1-0.4-0.1-0.6-0.1
			c-0.3,0-0.6,0-0.8,0.2c-0.2,0.1-0.2,0.2-0.1,0.4c0.1,0.1,0.2,0.2,0.5,0.3L212.6,117.5z"/>
		<path fill="#FFFFFF" d="M211,116.1l0.3-0.2l4,1.5l-0.3,0.2L211,116.1z"/>
	</g>
	<g>
		<path fill="#FFFFFF" d="M249.5,89.3l2-1.4l0.5,0.2l-1.7,1.1l1.2,0.5l1.5-1.1l0.5,0.2l-1.5,1.1l1.4,0.5l1.7-1.2l0.5,0.2l-2.1,1.4
			L249.5,89.3z"/>
		<path fill="#FFFFFF" d="M253.1,88l0.3-0.2l0.4,0.2c-0.1-0.1-0.1-0.2-0.1-0.3c0-0.1,0.1-0.2,0.2-0.3c0.3-0.2,0.6-0.3,1-0.2
			c0.2,0,0.5,0.1,0.8,0.2l1.9,0.7l-0.3,0.2l-1.8-0.7c-0.2-0.1-0.3-0.1-0.5-0.1c-0.2,0-0.4,0-0.6,0.1c-0.1,0.1-0.1,0.1-0.2,0.2
			c-0.1,0.1-0.1,0.2,0,0.3c0,0.1,0.1,0.1,0.2,0.2c0.1,0.1,0.2,0.1,0.4,0.2l1.5,0.6l-0.3,0.2L253.1,88z"/>
		<path fill="#FFFFFF" d="M254.5,86.2l0.3-0.2l0.8,0.3L256,86l0.4,0.1l-0.3,0.2l1.9,0.7c0.1,0,0.2,0,0.3,0c0,0,0.1,0,0.2-0.1
			c0,0,0,0,0.1,0c0,0,0,0,0.1,0l0.4,0.1c0,0-0.1,0.1-0.1,0.1c0,0-0.1,0.1-0.1,0.1c-0.2,0.1-0.3,0.2-0.5,0.2s-0.4,0-0.5-0.1l-1.9-0.7
			l-0.3,0.2l-0.4-0.1l0.3-0.2L254.5,86.2z"/>
		<path fill="#FFFFFF" d="M257.6,84.9c0.2-0.1,0.5-0.1,0.7-0.1c0.2,0,0.4,0,0.7,0.1c0.2,0,0.4,0.1,0.7,0.2l-1.5,1
			c0.3,0.1,0.6,0.2,0.9,0.2c0.3,0,0.5-0.1,0.7-0.2c0.2-0.1,0.2-0.2,0.2-0.4c0-0.1-0.1-0.1-0.2-0.2l0.3-0.2c0.1,0,0.2,0.1,0.3,0.2
			c0.1,0.1,0.1,0.2,0.2,0.2c0,0.1,0,0.2-0.1,0.4c-0.1,0.1-0.1,0.1-0.2,0.2c-0.3,0.2-0.6,0.3-1,0.3c-0.4,0-0.9-0.1-1.4-0.2
			c-0.5-0.2-0.8-0.4-0.9-0.6c-0.1-0.2,0-0.4,0.3-0.6C257.2,85.1,257.4,85,257.6,84.9z M258.9,85.3c-0.2-0.1-0.4-0.1-0.6-0.1
			c-0.3,0-0.6,0-0.8,0.2c-0.2,0.1-0.2,0.2-0.2,0.4c0.1,0.1,0.2,0.2,0.5,0.3L258.9,85.3z"/>
		<path fill="#FFFFFF" d="M258.5,84.3l0.3-0.2l0.5,0.2c-0.1-0.1-0.1-0.1-0.2-0.3c0-0.1,0-0.2,0.1-0.3c0,0,0,0,0,0s0,0,0.1-0.1
			l0.5,0.2c0,0,0,0-0.1,0s0,0-0.1,0c-0.2,0.1-0.2,0.2-0.2,0.4c0.1,0.1,0.2,0.2,0.4,0.3l1.7,0.6l-0.3,0.2L258.5,84.3z"/>
		<path fill="#FFFFFF" d="M258.7,83l0.3-0.2l4,1.5l-0.3,0.2L258.7,83z"/>
	</g>
	<g>
		<path fill="#FFFFFF" d="M200.1,99.5c-0.2-0.2-0.2-0.3-0.1-0.5c-0.4,0.1-0.7,0.1-1,0c-0.3,0-0.5-0.1-0.7-0.2
			c-0.4-0.2-0.7-0.4-0.7-0.6c-0.1-0.3,0.1-0.5,0.5-0.8c0.4-0.3,0.8-0.4,1.3-0.5c0.5,0,1,0,1.4,0.2c0.2,0.1,0.4,0.2,0.5,0.3
			c0.2,0.1,0.2,0.3,0.2,0.5c0.3-0.1,0.7-0.1,1.1-0.1c0.4,0,0.7,0.1,1,0.2c0.5,0.2,0.8,0.4,0.8,0.7c0.1,0.3-0.1,0.6-0.5,0.9
			c-0.4,0.3-0.9,0.5-1.5,0.5c-0.6,0-1.1,0-1.6-0.2C200.4,99.8,200.2,99.6,200.1,99.5z M199.8,98.5c0.2,0,0.4-0.1,0.6-0.2
			c0.2-0.1,0.2-0.2,0.2-0.3c0-0.1-0.2-0.2-0.4-0.3c-0.2-0.1-0.4-0.1-0.7-0.1c-0.2,0-0.4,0.1-0.6,0.2c-0.2,0.1-0.2,0.2-0.2,0.3
			c0,0.1,0.2,0.2,0.4,0.3C199.3,98.5,199.6,98.5,199.8,98.5z M202.3,99.5c0.3,0,0.5-0.1,0.6-0.2c0.2-0.1,0.2-0.2,0.2-0.4
			c-0.1-0.1-0.2-0.2-0.5-0.3c-0.3-0.1-0.6-0.2-0.8-0.1c-0.3,0-0.5,0.1-0.6,0.2c-0.2,0.1-0.2,0.2-0.2,0.4c0,0.1,0.2,0.2,0.5,0.3
			C201.8,99.4,202,99.5,202.3,99.5z"/>
	</g>
	<g>
		<path fill="#FFFFFF" d="M208.2,92.5l0.3-0.2l0.8,0.3l0.3-0.2l0.4,0.1l-0.3,0.2l1.9,0.7c0.1,0,0.2,0,0.3,0c0,0,0.1,0,0.2-0.1
			c0,0,0,0,0.1,0c0,0,0,0,0.1,0l0.4,0.1c0,0-0.1,0.1-0.1,0.1c0,0-0.1,0.1-0.1,0.1c-0.2,0.1-0.3,0.2-0.5,0.2c-0.2,0-0.4,0-0.5-0.1
			l-1.9-0.7l-0.3,0.2l-0.4-0.1l0.3-0.2L208.2,92.5z"/>
		<path fill="#FFFFFF" d="M210.4,91.9l1.9,0.7c0.2,0.1,0.3,0.1,0.4,0.1c0.2,0,0.4,0,0.6-0.1c0.2-0.2,0.2-0.3,0-0.5
			c-0.1-0.1-0.3-0.2-0.6-0.3l-1.4-0.5l0.3-0.2l2.9,1.1l-0.3,0.2l-0.4-0.2c0.1,0.1,0.1,0.1,0.1,0.2c0,0.1-0.1,0.3-0.2,0.4
			c-0.3,0.2-0.6,0.3-1,0.2c-0.2,0-0.4-0.1-0.7-0.2l-2-0.7L210.4,91.9z"/>
		<path fill="#FFFFFF" d="M212.4,90.5l2.9,0.5l-1.8-1.3l0.4-0.3l2.2,1.6l-0.4,0.3l-3.7-0.6L212.4,90.5z"/>
	</g>
	<g>
		<path fill="#FFFFFF" d="M223.1,80.8c-0.1-0.3,0-0.6,0.4-0.9c0.6-0.4,1.4-0.6,2.4-0.4c0.6,0.1,1.2,0.2,1.9,0.5
			c0.7,0.3,1.2,0.5,1.5,0.8c0.6,0.5,0.6,0.9,0,1.4c-0.3,0.2-0.7,0.3-1.2,0.4c-0.5,0.1-1,0-1.5-0.1l0.8-0.5c0.2,0,0.4,0.1,0.6,0
			c0.2,0,0.3-0.1,0.5-0.2c0.3-0.2,0.2-0.4-0.1-0.6c-0.2-0.1-0.5-0.3-0.9-0.4c0.1,0.1,0.1,0.2,0.1,0.3c0,0.1-0.1,0.3-0.3,0.4
			c-0.3,0.2-0.7,0.3-1.3,0.4c-0.6,0.1-1.1,0-1.7-0.2C223.6,81.4,223.2,81.1,223.1,80.8z M226.6,80.8c0-0.2-0.2-0.3-0.6-0.5
			c-0.3-0.1-0.6-0.2-0.9-0.2c-0.3,0-0.5,0.1-0.7,0.2c-0.1,0.1-0.2,0.2-0.2,0.3c0,0.2,0.2,0.3,0.6,0.5c0.3,0.1,0.6,0.2,0.9,0.2
			c0.3,0,0.5-0.1,0.7-0.2C226.5,80.9,226.6,80.9,226.6,80.8z"/>
	</g>
	<g>
		<path fill="#FFFFFF" d="M234.6,75.2l2.7,0.6l-1.9-1.1l0.4-0.3l2.7,0.6l-1.9-1.1l0.3-0.2l2.3,1.5l-0.4,0.2l-2.7-0.6l1.9,1.1
			l-0.4,0.2l-3.5-0.7L234.6,75.2z"/>
		<path fill="#FFFFFF" d="M237.1,73.5l0.4-0.3l1.5,0.1l-0.6-0.7l0.4-0.3l0.7,1l2.2,0.1l-0.4,0.3l-1.6-0.1l0.6,0.7l-0.4,0.3l-0.8-1
			L237.1,73.5z"/>
		<path fill="#FFFFFF" d="M240.5,71.2l0.4-0.3c0.1,0.1,0.5,0.3,1,0.7c0.4,0.3,0.7,0.5,0.9,0.7c0.5,0.4,0.9,0.7,0.9,0.8
			c0.1,0.1,0,0.2-0.2,0.4c0,0-0.1,0.1-0.1,0.1c0,0-0.1,0-0.1,0.1l-0.4-0.2c0.1,0,0.1-0.1,0.2-0.1c0,0,0.1,0,0.1,0
			c0.1,0,0.1-0.1,0.1-0.1s0-0.1,0-0.1c0,0-0.1-0.1-0.2-0.1c-0.1-0.1-0.2-0.1-0.2-0.2l-3.8-0.6l0.4-0.3l2.9,0.5L240.5,71.2z"/>
	</g>
	<polygon points="252.5,194.1 259,209.7 364.4,140.7 357.9,125.1 	"/>
	<path fill="#0B659D" d="M313.1,215.5c6.6,3.3,17.2-4.5,21.7-7.5l67.4-41.8c4.5-3,7.1-10.5,1.3-12.6l-44.1-14.1l-89.7,58.5
		L313.1,215.5z"/>
	<polygon points="287.6,185.1 339.1,206.1 359.4,193.1 307.9,172.1 	"/>
	<path fill="#272A30" d="M0,105.3c0,0,2.5-36.2,7.9-40.7s6.7-4.2,28.6,5.3s194.2,76.9,194.2,76.9s27.4,12.2,38.3,32.3
		c10.8,20,30.4,57.4,33.7,59.1c3.2,1.7-50.7-19.5-50.7-19.5L27,121.2L0,105.3z"/>
	<path fill="#555858" d="M0,105.7c0,0,2.5-36.2,7.9-40.7s6.7-4.2,28.6,5.3s194.2,76.9,194.2,76.9s27.4,12.2,38.3,32.3
		c10.8,20,30.4,57.4,33.7,59.1s-46.7-8.8-50.7-19.5c-4-10.6-9-26-17.9-30.3c-8.9-4.3-195.9-84.8-195.9-84.8s-11.1-2.4-11.9,17.1
		C16,119.1,0,105.7,0,105.7z"/>
	<g>
		<path fill="#FFFFFF" d="M101.6,79.3l0.8-0.7l0.1,0.1l-0.6,0.6l0.3,0.3l0.5-0.5l0.1,0.1l-0.5,0.5l0.4,0.5l-0.2,0.2L101.6,79.3z"/>
		<path fill="#FFFFFF" d="M103.1,78.2L103.1,78.2l-0.2,0.3l-0.1-0.1L103,78l0.2-0.2l0.9,1l-0.2,0.2L103.1,78.2z"/>
	</g>
</g>
</svg>
