<!-- Generator: Adobe Illustrator 18.0.0, SVG Export Plug-In  -->
<svg version="1.1"
	 xmlns="http://www.w3.org/2000/svg" xmlns:xlink="http://www.w3.org/1999/xlink" xmlns:a="http://ns.adobe.com/AdobeSVGViewerExtensions/3.0/"
	 x="0px" y="0px" width="1115px" height="700px" viewBox="0 0 1115 700" enable-background="new 0 0 1115 700" xml:space="preserve"
	>
<defs>
</defs>
<g>
	<g id="details_1_">
		<rect x="0" y="0" fill="#FFFFFF" width="1115" height="700"/>
		<g>
			<path fill="#221F1F" d="M66.1,580.6L61.3,568h-0.1c0.1,1,0.1,2.2,0.1,3.6v9.1h-1.5v-14.3h2.5l4.5,11.8h0.1l4.6-11.8h2.5v14.3
				h-1.7v-9.2c0-1.1,0-2.2,0.1-3.4h-0.1l-4.9,12.6H66.1z"/>
			<path fill="#221F1F" d="M82.1,580.8c-1.6,0-2.8-0.5-3.7-1.4s-1.4-2.3-1.4-4c0-1.7,0.4-3.1,1.3-4.1c0.8-1,2-1.5,3.4-1.5
				c1.3,0,2.4,0.4,3.2,1.3c0.8,0.9,1.2,2,1.2,3.5v1h-7.4c0,1.3,0.3,2.2,0.9,2.9c0.6,0.7,1.4,1,2.5,1c1.1,0,2.3-0.2,3.4-0.7v1.4
				c-0.6,0.2-1.1,0.4-1.6,0.5S82.8,580.8,82.1,580.8z M81.7,571.1c-0.9,0-1.5,0.3-2.1,0.8c-0.5,0.6-0.8,1.3-0.9,2.3h5.6
				c0-1-0.2-1.8-0.7-2.3S82.5,571.1,81.7,571.1z"/>
			<path fill="#221F1F" d="M90.4,580.6h-1.6v-15.2h1.6V580.6z"/>
			<path fill="#221F1F" d="M98.8,569.8c1.4,0,2.5,0.5,3.3,1.4s1.2,2.3,1.2,4.1s-0.4,3.1-1.2,4.1c-0.8,1-1.9,1.5-3.3,1.5
				c-0.7,0-1.3-0.1-1.9-0.4s-1.1-0.7-1.4-1.2h-0.1l-0.3,1.4h-1.2v-15.2h1.6v3.7c0,0.8,0,1.6-0.1,2.2h0.1
				C96.2,570.3,97.4,569.8,98.8,569.8z M98.6,571.1c-1.1,0-1.9,0.3-2.4,1c-0.5,0.6-0.7,1.7-0.7,3.2s0.2,2.6,0.8,3.2
				c0.5,0.6,1.3,1,2.4,1c1,0,1.7-0.4,2.2-1.1c0.5-0.7,0.7-1.8,0.7-3.1c0-1.4-0.2-2.4-0.7-3.1C100.4,571.5,99.6,571.1,98.6,571.1z"/>
			<path fill="#221F1F" d="M115.3,575.3c0,1.7-0.4,3.1-1.3,4.1c-0.9,1-2.1,1.5-3.6,1.5c-1,0-1.8-0.2-2.5-0.7
				c-0.7-0.4-1.3-1.1-1.7-1.9c-0.4-0.8-0.6-1.8-0.6-2.9c0-1.7,0.4-3.1,1.3-4.1c0.9-1,2.1-1.5,3.6-1.5c1.5,0,2.7,0.5,3.6,1.5
				S115.3,573.6,115.3,575.3z M107.2,575.3c0,1.4,0.3,2.4,0.8,3.1s1.3,1.1,2.4,1.1c1.1,0,1.9-0.4,2.4-1.1c0.5-0.7,0.8-1.8,0.8-3.1
				c0-1.4-0.3-2.4-0.8-3.1c-0.5-0.7-1.4-1.1-2.4-1.1c-1.1,0-1.9,0.3-2.4,1C107.4,572.9,107.2,573.9,107.2,575.3z"/>
			<path fill="#221F1F" d="M119.7,569.9v6.9c0,0.9,0.2,1.5,0.6,2s1,0.6,1.9,0.6c1.1,0,1.9-0.3,2.5-0.9c0.5-0.6,0.8-1.6,0.8-3v-5.6
				h1.6v10.7h-1.3l-0.2-1.4h-0.1c-0.3,0.5-0.8,0.9-1.4,1.2c-0.6,0.3-1.3,0.4-2,0.4c-1.3,0-2.3-0.3-2.9-0.9s-1-1.6-1-3v-7H119.7z"/>
			<path fill="#221F1F" d="M135.3,569.7c0.5,0,0.9,0,1.3,0.1l-0.2,1.5c-0.4-0.1-0.8-0.1-1.2-0.1c-0.9,0-1.6,0.4-2.2,1.1
				c-0.6,0.7-0.9,1.6-0.9,2.6v5.7h-1.6v-10.7h1.3l0.2,2h0.1c0.4-0.7,0.9-1.2,1.4-1.6C134,569.9,134.6,569.7,135.3,569.7z"/>
			<path fill="#221F1F" d="M145.9,580.6v-6.9c0-0.9-0.2-1.5-0.6-2s-1-0.6-1.9-0.6c-1.1,0-1.9,0.3-2.5,0.9s-0.8,1.6-0.8,3v5.6h-1.6
				v-10.7h1.3l0.3,1.5h0.1c0.3-0.5,0.8-0.9,1.4-1.2s1.3-0.4,2-0.4c1.3,0,2.3,0.3,2.9,0.9c0.7,0.6,1,1.6,1,3v7H145.9z"/>
			<path fill="#221F1F" d="M155.3,580.8c-1.6,0-2.8-0.5-3.7-1.4s-1.4-2.3-1.4-4c0-1.7,0.4-3.1,1.3-4.1c0.8-1,2-1.5,3.4-1.5
				c1.3,0,2.4,0.4,3.2,1.3c0.8,0.9,1.2,2,1.2,3.5v1h-7.4c0,1.3,0.3,2.2,0.9,2.9c0.6,0.7,1.4,1,2.5,1c1.1,0,2.3-0.2,3.4-0.7v1.4
				c-0.6,0.2-1.1,0.4-1.6,0.5S156,580.8,155.3,580.8z M154.9,571.1c-0.9,0-1.5,0.3-2.1,0.8c-0.5,0.6-0.8,1.3-0.9,2.3h5.6
				c0-1-0.2-1.8-0.7-2.3S155.7,571.1,154.9,571.1z"/>
			<path fill="#221F1F" d="M172.2,569.8c1.4,0,2.5,0.5,3.3,1.4s1.2,2.3,1.2,4.1s-0.4,3.1-1.2,4.1c-0.8,1-1.9,1.5-3.3,1.5
				c-0.7,0-1.3-0.1-1.9-0.4s-1.1-0.7-1.4-1.2h-0.1l-0.3,1.4h-1.2v-15.2h1.6v3.7c0,0.8,0,1.6-0.1,2.2h0.1
				C169.6,570.3,170.7,569.8,172.2,569.8z M171.9,571.1c-1.1,0-1.9,0.3-2.4,1c-0.5,0.6-0.7,1.7-0.7,3.2s0.2,2.6,0.8,3.2
				c0.5,0.6,1.3,1,2.4,1c1,0,1.7-0.4,2.2-1.1c0.5-0.7,0.7-1.8,0.7-3.1c0-1.4-0.2-2.4-0.7-3.1C173.7,571.5,172.9,571.1,171.9,571.1z"
				/>
			<path fill="#221F1F" d="M186,580.6l-0.3-1.5h-0.1c-0.5,0.7-1.1,1.1-1.6,1.4s-1.2,0.4-2,0.4c-1.1,0-1.9-0.3-2.5-0.8
				s-0.9-1.3-0.9-2.3c0-2.2,1.7-3.3,5.2-3.4l1.8-0.1v-0.7c0-0.8-0.2-1.5-0.5-1.9c-0.4-0.4-0.9-0.6-1.7-0.6c-0.9,0-1.9,0.3-3,0.8
				l-0.5-1.2c0.5-0.3,1.1-0.5,1.7-0.7s1.3-0.2,1.9-0.2c1.3,0,2.2,0.3,2.8,0.8c0.6,0.6,0.9,1.5,0.9,2.7v7.3H186z M182.3,579.5
				c1,0,1.8-0.3,2.4-0.8s0.9-1.3,0.9-2.3v-1l-1.6,0.1c-1.3,0-2.2,0.2-2.8,0.6s-0.9,0.9-0.9,1.7c0,0.6,0.2,1,0.5,1.3
				C181.2,579.3,181.7,579.5,182.3,579.5z"/>
			<path fill="#221F1F" d="M197.4,577.7c0,1-0.4,1.8-1.1,2.3c-0.7,0.5-1.8,0.8-3.1,0.8c-1.4,0-2.5-0.2-3.3-0.7v-1.5
				c0.5,0.3,1.1,0.5,1.7,0.6s1.2,0.2,1.7,0.2c0.8,0,1.5-0.1,1.9-0.4s0.7-0.7,0.7-1.2c0-0.4-0.2-0.8-0.5-1.1c-0.4-0.3-1.1-0.6-2.1-1
				c-1-0.4-1.7-0.7-2.1-1c-0.4-0.3-0.7-0.6-0.9-0.9c-0.2-0.4-0.3-0.8-0.3-1.3c0-0.9,0.4-1.6,1.1-2.1c0.7-0.5,1.7-0.8,2.9-0.8
				c1.2,0,2.3,0.2,3.4,0.7l-0.6,1.3c-1.1-0.4-2-0.7-2.9-0.7c-0.8,0-1.3,0.1-1.7,0.4c-0.4,0.2-0.6,0.6-0.6,1c0,0.3,0.1,0.5,0.2,0.7
				s0.4,0.4,0.7,0.6s0.9,0.4,1.9,0.8c1.3,0.5,2.1,0.9,2.6,1.4S197.4,577,197.4,577.7z"/>
			<path fill="#221F1F" d="M204.6,580.8c-1.6,0-2.8-0.5-3.7-1.4c-0.9-1-1.4-2.3-1.4-4c0-1.7,0.4-3.1,1.3-4.1s2-1.5,3.4-1.5
				c1.3,0,2.4,0.4,3.2,1.3s1.2,2,1.2,3.5v1h-7.4c0,1.3,0.3,2.2,1,2.9s1.4,1,2.5,1c1.1,0,2.3-0.2,3.4-0.7v1.4
				c-0.6,0.2-1.1,0.4-1.6,0.5C205.9,580.8,205.3,580.8,204.6,580.8z M204.1,571.1c-0.9,0-1.5,0.3-2.1,0.8c-0.5,0.6-0.8,1.3-0.9,2.3
				h5.6c0-1-0.2-1.8-0.7-2.3S205,571.1,204.1,571.1z"/>
			<path fill="#221F1F" d="M218.5,579.2L218.5,579.2c-0.8,1.1-2,1.6-3.4,1.6c-1.4,0-2.5-0.5-3.3-1.4c-0.8-1-1.2-2.3-1.2-4.1
				s0.4-3.1,1.2-4.1c0.8-1,1.9-1.5,3.3-1.5c1.4,0,2.6,0.5,3.3,1.6h0.1l-0.1-0.8l0-0.8v-4.4h1.6v15.2h-1.3L218.5,579.2z M215.3,579.5
				c1.1,0,1.9-0.3,2.4-0.9s0.7-1.6,0.7-2.9v-0.3c0-1.5-0.3-2.6-0.8-3.2c-0.5-0.6-1.3-1-2.4-1c-0.9,0-1.7,0.4-2.2,1.1
				s-0.8,1.8-0.8,3.1c0,1.4,0.2,2.4,0.8,3.1S214.3,579.5,215.3,579.5z"/>
			<path fill="#221F1F" d="M241.3,573.5c0,1.8-0.4,3.3-1.1,4.6s-1.8,2-3.1,2.5l3.4,3.5h-2.4l-2.8-3.2l-0.5,0c-2.1,0-3.7-0.6-4.9-1.9
				c-1.1-1.3-1.7-3.1-1.7-5.4c0-2.3,0.6-4.1,1.7-5.4c1.1-1.3,2.8-1.9,4.9-1.9c2,0,3.6,0.7,4.8,2S241.3,571.2,241.3,573.5z
				 M229.9,573.5c0,1.9,0.4,3.4,1.2,4.4c0.8,1,2,1.5,3.6,1.5c1.6,0,2.8-0.5,3.6-1.5s1.2-2.5,1.2-4.4c0-1.9-0.4-3.4-1.2-4.4
				c-0.8-1-2-1.5-3.6-1.5c-1.6,0-2.8,0.5-3.6,1.5C230.3,570.1,229.9,571.6,229.9,573.5z"/>
			<path fill="#221F1F" d="M245.7,569.9v6.9c0,0.9,0.2,1.5,0.6,2s1,0.6,1.9,0.6c1.1,0,1.9-0.3,2.5-0.9s0.8-1.6,0.8-3v-5.6h1.6v10.7
				h-1.3l-0.2-1.4h-0.1c-0.3,0.5-0.8,0.9-1.4,1.2s-1.3,0.4-2,0.4c-1.3,0-2.3-0.3-2.9-0.9s-1-1.6-1-3v-7H245.7z"/>
			<path fill="#221F1F" d="M261,580.8c-1.6,0-2.8-0.5-3.7-1.4s-1.4-2.3-1.4-4c0-1.7,0.4-3.1,1.3-4.1s2-1.5,3.4-1.5
				c1.3,0,2.4,0.4,3.2,1.3c0.8,0.9,1.2,2,1.2,3.5v1h-7.4c0,1.3,0.3,2.2,1,2.9c0.6,0.7,1.4,1,2.5,1c1.2,0,2.3-0.2,3.4-0.7v1.4
				c-0.6,0.2-1.1,0.4-1.6,0.5C262.3,580.8,261.7,580.8,261,580.8z M260.5,571.1c-0.9,0-1.5,0.3-2.1,0.8s-0.8,1.3-0.9,2.3h5.6
				c0-1-0.2-1.8-0.7-2.3C262,571.4,261.4,571.1,260.5,571.1z"/>
			<path fill="#221F1F" d="M274.6,577.7c0,1-0.4,1.8-1.1,2.3s-1.8,0.8-3.1,0.8c-1.4,0-2.5-0.2-3.3-0.7v-1.5c0.5,0.3,1.1,0.5,1.7,0.6
				s1.2,0.2,1.7,0.2c0.8,0,1.5-0.1,1.9-0.4s0.7-0.7,0.7-1.2c0-0.4-0.2-0.8-0.5-1.1s-1.1-0.6-2.1-1c-1-0.4-1.7-0.7-2.1-1
				s-0.7-0.6-0.9-0.9s-0.3-0.8-0.3-1.3c0-0.9,0.4-1.6,1.1-2.1c0.7-0.5,1.7-0.8,2.9-0.8c1.1,0,2.3,0.2,3.4,0.7l-0.6,1.3
				c-1.1-0.4-2-0.7-2.9-0.7c-0.8,0-1.3,0.1-1.7,0.4c-0.4,0.2-0.6,0.6-0.6,1c0,0.3,0.1,0.5,0.2,0.7s0.4,0.4,0.7,0.6
				c0.3,0.2,0.9,0.4,1.9,0.8c1.3,0.5,2.1,0.9,2.6,1.4S274.6,577,274.6,577.7z"/>
			<path fill="#221F1F" d="M280.6,579.5c0.3,0,0.6,0,0.8-0.1c0.3,0,0.5-0.1,0.6-0.1v1.2c-0.2,0.1-0.4,0.2-0.8,0.2
				c-0.3,0.1-0.6,0.1-0.9,0.1c-2.1,0-3.1-1.1-3.1-3.3v-6.4h-1.5v-0.8l1.5-0.7l0.7-2.3h0.9v2.5h3.1v1.3h-3.1v6.3
				c0,0.6,0.2,1.1,0.5,1.5C279.7,579.3,280.1,579.5,280.6,579.5z"/>
			<path fill="#221F1F" d="M298.7,570.5c0,1.4-0.5,2.6-1.5,3.3s-2.4,1.2-4.2,1.2h-1.7v5.6h-1.7v-14.3h3.7
				C296.9,566.4,298.7,567.8,298.7,570.5z M291.3,573.6h1.5c1.5,0,2.5-0.2,3.2-0.7s1-1.2,1-2.3c0-0.9-0.3-1.6-0.9-2.1
				s-1.6-0.7-2.9-0.7h-1.9V573.6z"/>
			<path fill="#221F1F" d="M308,580.6l-0.3-1.5h-0.1c-0.5,0.7-1.1,1.1-1.6,1.4s-1.2,0.4-2,0.4c-1.1,0-1.9-0.3-2.5-0.8
				c-0.6-0.5-0.9-1.3-0.9-2.3c0-2.2,1.7-3.3,5.2-3.4l1.8-0.1v-0.7c0-0.8-0.2-1.5-0.5-1.9c-0.4-0.4-0.9-0.6-1.7-0.6
				c-0.9,0-1.9,0.3-3,0.8l-0.5-1.2c0.5-0.3,1.1-0.5,1.7-0.7s1.3-0.2,1.9-0.2c1.3,0,2.2,0.3,2.8,0.8c0.6,0.6,0.9,1.5,0.9,2.7v7.3H308
				z M304.4,579.5c1,0,1.8-0.3,2.4-0.8c0.6-0.6,0.9-1.3,0.9-2.3v-1l-1.6,0.1c-1.3,0-2.2,0.2-2.8,0.6c-0.6,0.4-0.9,0.9-0.9,1.7
				c0,0.6,0.2,1,0.5,1.3C303.2,579.3,303.7,579.5,304.4,579.5z"/>
			<path fill="#221F1F" d="M310.8,569.9h1.7l2.3,6.1c0.5,1.4,0.8,2.4,1,3h0.1c0.1-0.3,0.3-0.9,0.5-1.7s1.2-3.3,2.6-7.4h1.7
				l-4.6,12.2c-0.5,1.2-1,2.1-1.6,2.6s-1.4,0.8-2.2,0.8c-0.5,0-1-0.1-1.5-0.2V584c0.4,0.1,0.8,0.1,1.2,0.1c1.1,0,1.9-0.6,2.4-1.9
				l0.6-1.5L310.8,569.9z"/>
			<path fill="#221F1F" d="M336.2,580.6v-7c0-0.9-0.2-1.5-0.5-1.9c-0.4-0.4-0.9-0.6-1.7-0.6c-1,0-1.8,0.3-2.2,0.9s-0.7,1.5-0.7,2.7
				v6h-1.6v-7c0-0.9-0.2-1.5-0.5-1.9c-0.4-0.4-0.9-0.6-1.7-0.6c-1,0-1.8,0.3-2.2,0.9s-0.7,1.6-0.7,3v5.6h-1.6v-10.7h1.3l0.3,1.5h0.1
				c0.3-0.5,0.7-0.9,1.3-1.2s1.2-0.4,1.9-0.4c1.7,0,2.8,0.6,3.3,1.8h0.1c0.3-0.6,0.8-1,1.4-1.3c0.6-0.3,1.3-0.5,2.1-0.5
				c1.2,0,2.1,0.3,2.7,0.9s0.9,1.6,0.9,3v7H336.2z"/>
			<path fill="#221F1F" d="M345.7,580.8c-1.6,0-2.8-0.5-3.7-1.4s-1.4-2.3-1.4-4c0-1.7,0.4-3.1,1.3-4.1s2-1.5,3.4-1.5
				c1.3,0,2.4,0.4,3.2,1.3c0.8,0.9,1.2,2,1.2,3.5v1h-7.4c0,1.3,0.3,2.2,1,2.9c0.6,0.7,1.4,1,2.5,1c1.2,0,2.3-0.2,3.4-0.7v1.4
				c-0.6,0.2-1.1,0.4-1.6,0.5C347,580.8,346.4,580.8,345.7,580.8z M345.2,571.1c-0.9,0-1.5,0.3-2.1,0.8s-0.8,1.3-0.9,2.3h5.6
				c0-1-0.2-1.8-0.7-2.3C346.7,571.4,346.1,571.1,345.2,571.1z"/>
			<path fill="#221F1F" d="M359.7,580.6v-6.9c0-0.9-0.2-1.5-0.6-2s-1-0.6-1.9-0.6c-1.1,0-1.9,0.3-2.5,0.9s-0.8,1.6-0.8,3v5.6h-1.6
				v-10.7h1.3l0.3,1.5h0.1c0.3-0.5,0.8-0.9,1.4-1.2c0.6-0.3,1.3-0.4,2-0.4c1.3,0,2.3,0.3,2.9,0.9c0.6,0.6,1,1.6,1,3v7H359.7z"/>
			<path fill="#221F1F" d="M368.1,579.5c0.3,0,0.6,0,0.8-0.1s0.5-0.1,0.6-0.1v1.2c-0.2,0.1-0.4,0.2-0.8,0.2
				c-0.3,0.1-0.6,0.1-0.9,0.1c-2.1,0-3.1-1.1-3.1-3.3v-6.4h-1.5v-0.8l1.5-0.7l0.7-2.3h0.9v2.5h3.1v1.3h-3.1v6.3
				c0,0.6,0.2,1.1,0.5,1.5S367.5,579.5,368.1,579.5z"/>
			<path fill="#221F1F" d="M385.1,576.8c0,1.3-0.5,2.2-1.4,2.9s-2.1,1.1-3.7,1.1c-1.7,0-3-0.2-3.9-0.7v-1.6c0.6,0.2,1.2,0.4,1.9,0.6
				s1.4,0.2,2,0.2c1.1,0,1.9-0.2,2.5-0.6s0.8-1,0.8-1.8c0-0.5-0.1-0.9-0.3-1.2s-0.5-0.6-1-0.9s-1.2-0.6-2.1-0.9
				c-1.3-0.5-2.3-1-2.8-1.7c-0.6-0.7-0.9-1.5-0.9-2.5c0-1.1,0.4-2,1.2-2.6c0.8-0.7,1.9-1,3.3-1c1.4,0,2.7,0.3,3.9,0.8l-0.5,1.4
				c-1.2-0.5-2.3-0.7-3.4-0.7c-0.9,0-1.6,0.2-2.1,0.6c-0.5,0.4-0.7,0.9-0.7,1.6c0,0.5,0.1,0.9,0.3,1.2s0.5,0.6,0.9,0.9
				c0.4,0.3,1.1,0.6,2,0.9c1.5,0.5,2.5,1.1,3.1,1.7C384.9,575.1,385.1,575.9,385.1,576.8z"/>
			<path fill="#221F1F" d="M386.1,569.9h1.7l2.3,6.1c0.5,1.4,0.8,2.4,1,3h0.1c0.1-0.3,0.3-0.9,0.5-1.7s1.2-3.3,2.6-7.4h1.7
				l-4.6,12.2c-0.5,1.2-1,2.1-1.6,2.6s-1.4,0.8-2.2,0.8c-0.5,0-1-0.1-1.5-0.2V584c0.4,0.1,0.8,0.1,1.2,0.1c1.1,0,1.9-0.6,2.4-1.9
				l0.6-1.5L386.1,569.9z"/>
			<path fill="#221F1F" d="M404.8,577.7c0,1-0.4,1.8-1.1,2.3c-0.7,0.5-1.8,0.8-3.1,0.8c-1.4,0-2.5-0.2-3.3-0.7v-1.5
				c0.5,0.3,1.1,0.5,1.7,0.6s1.2,0.2,1.7,0.2c0.8,0,1.5-0.1,1.9-0.4s0.7-0.7,0.7-1.2c0-0.4-0.2-0.8-0.5-1.1c-0.4-0.3-1.1-0.6-2.1-1
				c-1-0.4-1.7-0.7-2.1-1c-0.4-0.3-0.7-0.6-0.9-0.9c-0.2-0.4-0.3-0.8-0.3-1.3c0-0.9,0.4-1.6,1.1-2.1c0.7-0.5,1.7-0.8,2.9-0.8
				c1.2,0,2.3,0.2,3.4,0.7l-0.6,1.3c-1.1-0.4-2-0.7-2.9-0.7c-0.8,0-1.3,0.1-1.7,0.4c-0.4,0.2-0.6,0.6-0.6,1c0,0.3,0.1,0.5,0.2,0.7
				s0.4,0.4,0.7,0.6s0.9,0.4,1.9,0.8c1.3,0.5,2.1,0.9,2.6,1.4S404.8,577,404.8,577.7z"/>
			<path fill="#221F1F" d="M410.8,579.5c0.3,0,0.6,0,0.8-0.1c0.3,0,0.5-0.1,0.6-0.1v1.2c-0.2,0.1-0.4,0.2-0.8,0.2s-0.6,0.1-0.9,0.1
				c-2.1,0-3.1-1.1-3.1-3.3v-6.4H406v-0.8l1.5-0.7l0.7-2.3h0.9v2.5h3.1v1.3h-3.1v6.3c0,0.6,0.2,1.1,0.5,1.5
				C409.9,579.3,410.3,579.5,410.8,579.5z"/>
			<path fill="#221F1F" d="M418.9,580.8c-1.6,0-2.8-0.5-3.7-1.4s-1.4-2.3-1.4-4c0-1.7,0.4-3.1,1.3-4.1s2-1.5,3.4-1.5
				c1.3,0,2.4,0.4,3.2,1.3c0.8,0.9,1.2,2,1.2,3.5v1h-7.4c0,1.3,0.3,2.2,1,2.9c0.6,0.7,1.4,1,2.5,1c1.2,0,2.3-0.2,3.4-0.7v1.4
				c-0.6,0.2-1.1,0.4-1.6,0.5C420.3,580.8,419.7,580.8,418.9,580.8z M418.5,571.1c-0.9,0-1.5,0.3-2.1,0.8s-0.8,1.3-0.9,2.3h5.6
				c0-1-0.2-1.8-0.7-2.3C420,571.4,419.4,571.1,418.5,571.1z"/>
			<path fill="#221F1F" d="M439.3,580.6v-7c0-0.9-0.2-1.5-0.5-1.9c-0.4-0.4-0.9-0.6-1.7-0.6c-1,0-1.8,0.3-2.2,0.9s-0.7,1.5-0.7,2.7
				v6h-1.6v-7c0-0.9-0.2-1.5-0.5-1.9c-0.4-0.4-0.9-0.6-1.7-0.6c-1,0-1.8,0.3-2.2,0.9s-0.7,1.6-0.7,3v5.6h-1.6v-10.7h1.3l0.3,1.5h0.1
				c0.3-0.5,0.7-0.9,1.3-1.2s1.2-0.4,1.9-0.4c1.7,0,2.8,0.6,3.3,1.8h0.1c0.3-0.6,0.8-1,1.4-1.3c0.6-0.3,1.3-0.5,2.1-0.5
				c1.2,0,2.1,0.3,2.7,0.9s0.9,1.6,0.9,3v7H439.3z"/>
			<path fill="#221F1F" d="M451.1,577.7c0,1-0.4,1.8-1.1,2.3c-0.7,0.5-1.8,0.8-3.1,0.8c-1.4,0-2.5-0.2-3.3-0.7v-1.5
				c0.5,0.3,1.1,0.5,1.7,0.6s1.2,0.2,1.7,0.2c0.8,0,1.5-0.1,1.9-0.4s0.7-0.7,0.7-1.2c0-0.4-0.2-0.8-0.5-1.1c-0.4-0.3-1.1-0.6-2.1-1
				c-1-0.4-1.7-0.7-2.1-1c-0.4-0.3-0.7-0.6-0.9-0.9c-0.2-0.4-0.3-0.8-0.3-1.3c0-0.9,0.4-1.6,1.1-2.1c0.7-0.5,1.7-0.8,2.9-0.8
				c1.2,0,2.3,0.2,3.4,0.7l-0.6,1.3c-1.1-0.4-2-0.7-2.9-0.7c-0.8,0-1.3,0.1-1.7,0.4c-0.4,0.2-0.6,0.6-0.6,1c0,0.3,0.1,0.5,0.2,0.7
				s0.4,0.4,0.7,0.6s0.9,0.4,1.9,0.8c1.3,0.5,2.1,0.9,2.6,1.4S451.1,577,451.1,577.7z"/>
			<path fill="#221F1F" d="M59.5,591c0-0.4,0.1-0.6,0.3-0.8s0.4-0.3,0.7-0.3c0.3,0,0.5,0.1,0.7,0.3c0.2,0.2,0.3,0.4,0.3,0.8
				s-0.1,0.6-0.3,0.8c-0.2,0.2-0.4,0.3-0.7,0.3c-0.3,0-0.5-0.1-0.7-0.3S59.5,591.4,59.5,591z M61.2,604.6h-1.6v-10.7h1.6V604.6z"/>
			<path fill="#221F1F" d="M71.5,601.7c0,1-0.4,1.8-1.1,2.3c-0.7,0.5-1.8,0.8-3.1,0.8c-1.4,0-2.5-0.2-3.3-0.7v-1.5
				c0.5,0.3,1.1,0.5,1.7,0.6s1.2,0.2,1.7,0.2c0.8,0,1.5-0.1,1.9-0.4s0.7-0.7,0.7-1.2c0-0.4-0.2-0.8-0.5-1.1c-0.4-0.3-1.1-0.6-2.1-1
				c-1-0.4-1.7-0.7-2.1-1c-0.4-0.3-0.7-0.6-0.9-0.9c-0.2-0.4-0.3-0.8-0.3-1.3c0-0.9,0.4-1.6,1.1-2.1c0.7-0.5,1.7-0.8,2.9-0.8
				c1.2,0,2.3,0.2,3.4,0.7l-0.6,1.3c-1.1-0.4-2-0.7-2.9-0.7c-0.8,0-1.3,0.1-1.7,0.4c-0.4,0.2-0.6,0.6-0.6,1c0,0.3,0.1,0.5,0.2,0.7
				s0.4,0.4,0.7,0.6s0.9,0.4,1.9,0.8c1.3,0.5,2.1,0.9,2.6,1.4S71.5,601,71.5,601.7z"/>
			<path fill="#221F1F" d="M85.9,604.6l-0.3-1.5h-0.1c-0.5,0.7-1.1,1.1-1.6,1.4s-1.2,0.4-2,0.4c-1.1,0-1.9-0.3-2.5-0.8
				s-0.9-1.3-0.9-2.3c0-2.2,1.7-3.3,5.2-3.4l1.8-0.1v-0.7c0-0.8-0.2-1.5-0.5-1.9c-0.4-0.4-0.9-0.6-1.7-0.6c-0.9,0-1.9,0.3-3,0.8
				l-0.5-1.2c0.5-0.3,1.1-0.5,1.7-0.7s1.3-0.2,1.9-0.2c1.3,0,2.2,0.3,2.8,0.8c0.6,0.6,0.9,1.5,0.9,2.7v7.3H85.9z M82.3,603.5
				c1,0,1.8-0.3,2.4-0.8s0.9-1.3,0.9-2.3v-1l-1.6,0.1c-1.3,0-2.2,0.2-2.8,0.6s-0.9,0.9-0.9,1.7c0,0.6,0.2,1,0.5,1.3
				C81.1,603.3,81.6,603.5,82.3,603.5z"/>
			<path fill="#221F1F" d="M104.4,604.6l-2-6.3c-0.1-0.4-0.4-1.3-0.7-2.6h-0.1c-0.3,1.1-0.5,2-0.7,2.6l-2,6.3h-1.9l-2.9-10.7h1.7
				c0.7,2.7,1.2,4.7,1.6,6.1c0.4,1.4,0.6,2.4,0.6,2.8h0.1c0.1-0.4,0.2-0.9,0.3-1.4s0.3-1.1,0.4-1.4l2-6.1h1.8l1.9,6.1
				c0.4,1.1,0.6,2.1,0.7,2.8h0.1c0-0.2,0.1-0.6,0.2-1.1c0.1-0.5,0.8-3.1,2-7.9h1.7l-3,10.7H104.4z"/>
			<path fill="#221F1F" d="M120.4,599.3c0,1.7-0.4,3.1-1.3,4.1c-0.9,1-2.1,1.5-3.6,1.5c-1,0-1.8-0.2-2.5-0.7
				c-0.7-0.4-1.3-1.1-1.7-1.9c-0.4-0.8-0.6-1.8-0.6-2.9c0-1.7,0.4-3.1,1.3-4.1c0.9-1,2.1-1.5,3.6-1.5c1.5,0,2.7,0.5,3.6,1.5
				S120.4,597.6,120.4,599.3z M112.2,599.3c0,1.4,0.3,2.4,0.8,3.1s1.3,1.1,2.4,1.1c1.1,0,1.9-0.4,2.4-1.1c0.5-0.7,0.8-1.8,0.8-3.1
				c0-1.4-0.3-2.4-0.8-3.1c-0.5-0.7-1.4-1.1-2.4-1.1c-1.1,0-1.9,0.3-2.4,1C112.5,596.9,112.2,597.9,112.2,599.3z"/>
			<path fill="#221F1F" d="M128.1,593.7c0.5,0,0.9,0,1.3,0.1l-0.2,1.5c-0.4-0.1-0.8-0.1-1.2-0.1c-0.9,0-1.6,0.4-2.2,1.1
				c-0.6,0.7-0.9,1.6-0.9,2.6v5.7h-1.6v-10.7h1.3l0.2,2h0.1c0.4-0.7,0.9-1.2,1.4-1.6C126.8,593.9,127.4,593.7,128.1,593.7z"/>
			<path fill="#221F1F" d="M133,604.6h-1.6v-15.2h1.6V604.6z"/>
			<path fill="#221F1F" d="M143.7,603.2L143.7,603.2c-0.8,1.1-2,1.6-3.4,1.6c-1.4,0-2.5-0.5-3.3-1.4c-0.8-1-1.2-2.3-1.2-4.1
				s0.4-3.1,1.2-4.1c0.8-1,1.9-1.5,3.3-1.5c1.4,0,2.6,0.5,3.3,1.6h0.1l-0.1-0.8l0-0.8v-4.4h1.6v15.2h-1.3L143.7,603.2z M140.5,603.5
				c1.1,0,1.9-0.3,2.4-0.9s0.7-1.6,0.7-2.9v-0.3c0-1.5-0.3-2.6-0.8-3.2s-1.3-1-2.4-1c-0.9,0-1.7,0.4-2.2,1.1s-0.8,1.8-0.8,3.1
				c0,1.4,0.2,2.4,0.8,3.1S139.5,603.5,140.5,603.5z"/>
			<path fill="#221F1F" d="M155.5,604.6h-1.6v-15.2h1.6V604.6z"/>
			<path fill="#221F1F" d="M163.4,604.8c-1.6,0-2.8-0.5-3.7-1.4c-0.9-1-1.4-2.3-1.4-4c0-1.7,0.4-3.1,1.3-4.1s2-1.5,3.4-1.5
				c1.3,0,2.4,0.4,3.2,1.3s1.2,2,1.2,3.5v1H160c0,1.3,0.3,2.2,1,2.9s1.4,1,2.5,1c1.1,0,2.3-0.2,3.4-0.7v1.4
				c-0.6,0.2-1.1,0.4-1.6,0.5C164.7,604.8,164.1,604.8,163.4,604.8z M163,595.1c-0.9,0-1.5,0.3-2.1,0.8c-0.5,0.6-0.8,1.3-0.9,2.3
				h5.6c0-1-0.2-1.8-0.7-2.3S163.8,595.1,163,595.1z"/>
			<path fill="#221F1F" d="M176.7,604.6l-0.3-1.5h-0.1c-0.5,0.7-1.1,1.1-1.6,1.4s-1.2,0.4-2,0.4c-1.1,0-1.9-0.3-2.5-0.8
				s-0.9-1.3-0.9-2.3c0-2.2,1.7-3.3,5.2-3.4l1.8-0.1v-0.7c0-0.8-0.2-1.5-0.5-1.9c-0.4-0.4-0.9-0.6-1.7-0.6c-0.9,0-1.9,0.3-3,0.8
				l-0.5-1.2c0.5-0.3,1.1-0.5,1.7-0.7s1.3-0.2,1.9-0.2c1.3,0,2.2,0.3,2.8,0.8c0.6,0.6,0.9,1.5,0.9,2.7v7.3H176.7z M173,603.5
				c1,0,1.8-0.3,2.4-0.8s0.9-1.3,0.9-2.3v-1l-1.6,0.1c-1.3,0-2.2,0.2-2.8,0.6s-0.9,0.9-0.9,1.7c0,0.6,0.2,1,0.5,1.3
				C171.9,603.3,172.4,603.5,173,603.5z"/>
			<path fill="#221F1F" d="M188.5,603.2L188.5,603.2c-0.8,1.1-2,1.6-3.4,1.6c-1.4,0-2.5-0.5-3.3-1.4c-0.8-1-1.2-2.3-1.2-4.1
				s0.4-3.1,1.2-4.1c0.8-1,1.9-1.5,3.3-1.5c1.4,0,2.6,0.5,3.3,1.6h0.1l-0.1-0.8l0-0.8v-4.4h1.6v15.2h-1.3L188.5,603.2z M185.2,603.5
				c1.1,0,1.9-0.3,2.4-0.9s0.7-1.6,0.7-2.9v-0.3c0-1.5-0.3-2.6-0.8-3.2c-0.5-0.6-1.3-1-2.4-1c-0.9,0-1.7,0.4-2.2,1.1
				s-0.8,1.8-0.8,3.1c0,1.4,0.2,2.4,0.8,3.1S184.3,603.5,185.2,603.5z"/>
			<path fill="#221F1F" d="M197.9,604.8c-1.6,0-2.8-0.5-3.7-1.4c-0.9-1-1.4-2.3-1.4-4c0-1.7,0.4-3.1,1.3-4.1c0.8-1,2-1.5,3.4-1.5
				c1.3,0,2.4,0.4,3.2,1.3s1.2,2,1.2,3.5v1h-7.4c0,1.3,0.3,2.2,1,2.9s1.4,1,2.5,1c1.2,0,2.3-0.2,3.4-0.7v1.4
				c-0.6,0.2-1.1,0.4-1.6,0.5S198.7,604.8,197.9,604.8z M197.5,595.1c-0.9,0-1.5,0.3-2.1,0.8s-0.8,1.3-0.9,2.3h5.6
				c0-1-0.2-1.8-0.7-2.3C199,595.4,198.3,595.1,197.5,595.1z"/>
			<path fill="#221F1F" d="M209.5,593.7c0.5,0,0.9,0,1.3,0.1l-0.2,1.5c-0.4-0.1-0.8-0.1-1.2-0.1c-0.9,0-1.6,0.4-2.2,1.1
				c-0.6,0.7-0.9,1.6-0.9,2.6v5.7h-1.6v-10.7h1.3l0.2,2h0.1c0.4-0.7,0.9-1.2,1.4-1.6C208.2,593.9,208.8,593.7,209.5,593.7z"/>
			<path fill="#221F1F" d="M217.8,591c0-0.4,0.1-0.6,0.3-0.8c0.2-0.2,0.4-0.3,0.7-0.3c0.3,0,0.5,0.1,0.7,0.3s0.3,0.4,0.3,0.8
				s-0.1,0.6-0.3,0.8s-0.4,0.3-0.7,0.3c-0.3,0-0.5-0.1-0.7-0.3C217.9,591.7,217.8,591.4,217.8,591z M219.6,604.6H218v-10.7h1.6
				V604.6z"/>
			<path fill="#221F1F" d="M230.3,604.6v-6.9c0-0.9-0.2-1.5-0.6-2s-1-0.6-1.9-0.6c-1.1,0-1.9,0.3-2.5,0.9s-0.8,1.6-0.8,3v5.6H223
				v-10.7h1.3l0.3,1.5h0.1c0.3-0.5,0.8-0.9,1.4-1.2s1.3-0.4,2-0.4c1.3,0,2.3,0.3,2.9,0.9c0.7,0.6,1,1.6,1,3v7H230.3z"/>
			<path fill="#221F1F" d="M243.9,603.5c0.3,0,0.6,0,0.8-0.1c0.3,0,0.5-0.1,0.6-0.1v1.2c-0.2,0.1-0.4,0.2-0.8,0.2
				c-0.3,0.1-0.6,0.1-0.9,0.1c-2.1,0-3.1-1.1-3.1-3.3v-6.4H239v-0.8l1.5-0.7l0.7-2.3h0.9v2.5h3.1v1.3h-3.1v6.3
				c0,0.6,0.2,1.1,0.5,1.5C242.9,603.3,243.4,603.5,243.9,603.5z"/>
			<path fill="#221F1F" d="M254.8,604.6v-6.9c0-0.9-0.2-1.5-0.6-2s-1-0.6-1.9-0.6c-1.1,0-1.9,0.3-2.5,0.9c-0.5,0.6-0.8,1.6-0.8,3
				v5.6h-1.6v-15.2h1.6v4.6c0,0.6,0,1-0.1,1.4h0.1c0.3-0.5,0.8-0.9,1.4-1.2c0.6-0.3,1.3-0.4,2-0.4c1.3,0,2.3,0.3,2.9,0.9
				c0.7,0.6,1,1.6,1,3v7H254.8z"/>
			<path fill="#221F1F" d="M264.3,604.8c-1.6,0-2.8-0.5-3.7-1.4s-1.4-2.3-1.4-4c0-1.7,0.4-3.1,1.3-4.1s2-1.5,3.4-1.5
				c1.3,0,2.4,0.4,3.2,1.3c0.8,0.9,1.2,2,1.2,3.5v1h-7.4c0,1.3,0.3,2.2,1,2.9c0.6,0.7,1.4,1,2.5,1c1.2,0,2.3-0.2,3.4-0.7v1.4
				c-0.6,0.2-1.1,0.4-1.6,0.5C265.6,604.8,265,604.8,264.3,604.8z M263.8,595.1c-0.9,0-1.5,0.3-2.1,0.8s-0.8,1.3-0.9,2.3h5.6
				c0-1-0.2-1.8-0.7-2.3C265.3,595.4,264.7,595.1,263.8,595.1z"/>
			<path fill="#221F1F" d="M283.4,603.2L283.4,603.2c-0.8,1.1-2,1.6-3.4,1.6c-1.4,0-2.5-0.5-3.3-1.4c-0.8-1-1.2-2.3-1.2-4.1
				s0.4-3.1,1.2-4.1c0.8-1,1.9-1.5,3.3-1.5c1.4,0,2.6,0.5,3.3,1.6h0.1l-0.1-0.8l0-0.8v-4.4h1.6v15.2h-1.3L283.4,603.2z M280.2,603.5
				c1.1,0,1.9-0.3,2.4-0.9s0.7-1.6,0.7-2.9v-0.3c0-1.5-0.3-2.6-0.8-3.2c-0.5-0.6-1.3-1-2.4-1c-0.9,0-1.7,0.4-2.2,1.1
				s-0.8,1.8-0.8,3.1c0,1.4,0.2,2.4,0.8,3.1S279.2,603.5,280.2,603.5z"/>
			<path fill="#221F1F" d="M292.9,604.8c-1.6,0-2.8-0.5-3.7-1.4c-0.9-1-1.4-2.3-1.4-4c0-1.7,0.4-3.1,1.3-4.1c0.8-1,2-1.5,3.4-1.5
				c1.3,0,2.4,0.4,3.2,1.3s1.2,2,1.2,3.5v1h-7.4c0,1.3,0.3,2.2,1,2.9s1.4,1,2.5,1c1.2,0,2.3-0.2,3.4-0.7v1.4
				c-0.6,0.2-1.1,0.4-1.6,0.5S293.6,604.8,292.9,604.8z M292.4,595.1c-0.9,0-1.5,0.3-2.1,0.8s-0.8,1.3-0.9,2.3h5.6
				c0-1-0.2-1.8-0.7-2.3C293.9,595.4,293.3,595.1,292.4,595.1z"/>
			<path fill="#221F1F" d="M301.9,604.6l-4.1-10.7h1.7l2.3,6.3c0.5,1.5,0.8,2.4,0.9,2.9h0.1c0.1-0.3,0.3-1.1,0.7-2.1
				c0.4-1.1,1.2-3.4,2.6-7.1h1.7l-4.1,10.7H301.9z"/>
			<path fill="#221F1F" d="M314.1,604.8c-1.6,0-2.8-0.5-3.7-1.4s-1.4-2.3-1.4-4c0-1.7,0.4-3.1,1.3-4.1c0.8-1,2-1.5,3.4-1.5
				c1.3,0,2.4,0.4,3.2,1.3c0.8,0.9,1.2,2,1.2,3.5v1h-7.4c0,1.3,0.3,2.2,0.9,2.9c0.6,0.7,1.4,1,2.5,1c1.1,0,2.3-0.2,3.4-0.7v1.4
				c-0.6,0.2-1.1,0.4-1.6,0.5S314.8,604.8,314.1,604.8z M313.6,595.1c-0.9,0-1.5,0.3-2.1,0.8c-0.5,0.6-0.8,1.3-0.9,2.3h5.6
				c0-1-0.2-1.8-0.7-2.3S314.5,595.1,313.6,595.1z"/>
			<path fill="#221F1F" d="M322.4,604.6h-1.6v-15.2h1.6V604.6z"/>
			<path fill="#221F1F" d="M335,599.3c0,1.7-0.4,3.1-1.3,4.1c-0.9,1-2.1,1.5-3.6,1.5c-1,0-1.8-0.2-2.5-0.7s-1.3-1.1-1.7-1.9
				s-0.6-1.8-0.6-2.9c0-1.7,0.4-3.1,1.3-4.1c0.9-1,2.1-1.5,3.6-1.5c1.5,0,2.7,0.5,3.6,1.5S335,597.6,335,599.3z M326.9,599.3
				c0,1.4,0.3,2.4,0.8,3.1c0.5,0.7,1.3,1.1,2.4,1.1c1.1,0,1.9-0.4,2.4-1.1s0.8-1.8,0.8-3.1c0-1.4-0.3-2.4-0.8-3.1s-1.4-1.1-2.4-1.1
				c-1.1,0-1.9,0.3-2.4,1S326.9,597.9,326.9,599.3z"/>
			<path fill="#221F1F" d="M342.8,604.8c-0.7,0-1.3-0.1-1.9-0.4c-0.6-0.3-1.1-0.7-1.4-1.2h-0.1c0.1,0.6,0.1,1.2,0.1,1.8v4.4h-1.6
				v-15.5h1.3l0.2,1.5h0.1c0.4-0.6,0.9-1,1.5-1.3c0.6-0.3,1.2-0.4,1.9-0.4c1.4,0,2.5,0.5,3.3,1.5c0.8,1,1.2,2.3,1.2,4.1
				c0,1.8-0.4,3.1-1.2,4.1S344.2,604.8,342.8,604.8z M342.6,595.1c-1.1,0-1.9,0.3-2.4,0.9s-0.7,1.6-0.8,2.9v0.4
				c0,1.5,0.2,2.6,0.8,3.2s1.3,1,2.4,1c0.9,0,1.6-0.4,2.2-1.1s0.8-1.8,0.8-3.1c0-1.3-0.3-2.4-0.8-3.1S343.5,595.1,342.6,595.1z"/>
			<path fill="#221F1F" d="M363.7,604.6v-7c0-0.9-0.2-1.5-0.5-1.9c-0.4-0.4-0.9-0.6-1.7-0.6c-1,0-1.8,0.3-2.2,0.9
				c-0.5,0.6-0.7,1.5-0.7,2.7v6h-1.6v-7c0-0.9-0.2-1.5-0.5-1.9s-0.9-0.6-1.7-0.6c-1,0-1.8,0.3-2.2,0.9c-0.5,0.6-0.7,1.6-0.7,3v5.6
				h-1.6v-10.7h1.3l0.3,1.5h0.1c0.3-0.5,0.7-0.9,1.3-1.2c0.6-0.3,1.2-0.4,1.9-0.4c1.7,0,2.8,0.6,3.3,1.8h0.1c0.3-0.6,0.8-1,1.4-1.3
				c0.6-0.3,1.3-0.5,2.1-0.5c1.2,0,2.1,0.3,2.7,0.9c0.6,0.6,0.9,1.6,0.9,3v7H363.7z"/>
			<path fill="#221F1F" d="M373.2,604.8c-1.6,0-2.8-0.5-3.7-1.4c-0.9-1-1.4-2.3-1.4-4c0-1.7,0.4-3.1,1.3-4.1c0.8-1,2-1.5,3.4-1.5
				c1.3,0,2.4,0.4,3.2,1.3s1.2,2,1.2,3.5v1h-7.4c0,1.3,0.3,2.2,1,2.9s1.4,1,2.5,1c1.2,0,2.3-0.2,3.4-0.7v1.4
				c-0.6,0.2-1.1,0.4-1.6,0.5S373.9,604.8,373.2,604.8z M372.7,595.1c-0.9,0-1.5,0.3-2.1,0.8s-0.8,1.3-0.9,2.3h5.6
				c0-1-0.2-1.8-0.7-2.3C374.2,595.4,373.6,595.1,372.7,595.1z"/>
			<path fill="#221F1F" d="M387.2,604.6v-6.9c0-0.9-0.2-1.5-0.6-2s-1-0.6-1.9-0.6c-1.1,0-1.9,0.3-2.5,0.9s-0.8,1.6-0.8,3v5.6h-1.6
				v-10.7h1.3l0.3,1.5h0.1c0.3-0.5,0.8-0.9,1.4-1.2s1.3-0.4,2-0.4c1.3,0,2.3,0.3,2.9,0.9c0.7,0.6,1,1.6,1,3v7H387.2z"/>
			<path fill="#221F1F" d="M395.6,603.5c0.3,0,0.6,0,0.8-0.1c0.3,0,0.5-0.1,0.6-0.1v1.2c-0.2,0.1-0.4,0.2-0.8,0.2
				c-0.3,0.1-0.6,0.1-0.9,0.1c-2.1,0-3.1-1.1-3.1-3.3v-6.4h-1.5v-0.8l1.5-0.7l0.7-2.3h0.9v2.5h3.1v1.3h-3.1v6.3
				c0,0.6,0.2,1.1,0.5,1.5C394.6,603.3,395,603.5,395.6,603.5z"/>
			<path fill="#221F1F" d="M413.6,599.3c0,1.7-0.4,3.1-1.3,4.1c-0.9,1-2.1,1.5-3.6,1.5c-1,0-1.8-0.2-2.5-0.7s-1.3-1.1-1.7-1.9
				s-0.6-1.8-0.6-2.9c0-1.7,0.4-3.1,1.3-4.1c0.9-1,2.1-1.5,3.6-1.5c1.5,0,2.7,0.5,3.6,1.5S413.6,597.6,413.6,599.3z M405.4,599.3
				c0,1.4,0.3,2.4,0.8,3.1c0.5,0.7,1.3,1.1,2.4,1.1c1.1,0,1.9-0.4,2.4-1.1s0.8-1.8,0.8-3.1c0-1.4-0.3-2.4-0.8-3.1s-1.4-1.1-2.4-1.1
				c-1.1,0-1.9,0.3-2.4,1S405.4,597.9,405.4,599.3z"/>
			<path fill="#221F1F" d="M421.2,595.2h-2.7v9.4h-1.6v-9.4H415v-0.7l1.9-0.6v-0.6c0-2.6,1.1-3.9,3.4-3.9c0.6,0,1.2,0.1,2,0.3
				l-0.4,1.3c-0.6-0.2-1.2-0.3-1.6-0.3c-0.6,0-1.1,0.2-1.4,0.6c-0.3,0.4-0.4,1.1-0.4,2v0.7h2.7V595.2z"/>
			<path fill="#221F1F" d="M64.1,628.8c-1.6,0-2.8-0.5-3.7-1.4s-1.4-2.3-1.4-4c0-1.7,0.4-3.1,1.3-4.1s2-1.5,3.4-1.5
				c1.3,0,2.4,0.4,3.2,1.3c0.8,0.9,1.2,2,1.2,3.5v1h-7.4c0,1.3,0.3,2.2,1,2.9c0.6,0.7,1.4,1,2.5,1c1.2,0,2.3-0.2,3.4-0.7v1.4
				c-0.6,0.2-1.1,0.4-1.6,0.5C65.4,628.8,64.8,628.8,64.1,628.8z M63.7,619.1c-0.9,0-1.5,0.3-2.1,0.8s-0.8,1.3-0.9,2.3h5.6
				c0-1-0.2-1.8-0.7-2.3C65.2,619.4,64.5,619.1,63.7,619.1z"/>
			<path fill="#221F1F" d="M72.4,628.6h-1.6v-15.2h1.6V628.6z"/>
			<path fill="#221F1F" d="M80.4,628.8c-1.6,0-2.8-0.5-3.7-1.4c-0.9-1-1.4-2.3-1.4-4c0-1.7,0.4-3.1,1.3-4.1c0.8-1,2-1.5,3.4-1.5
				c1.3,0,2.4,0.4,3.2,1.3s1.2,2,1.2,3.5v1h-7.4c0,1.3,0.3,2.2,1,2.9s1.4,1,2.5,1c1.2,0,2.3-0.2,3.4-0.7v1.4
				c-0.6,0.2-1.1,0.4-1.6,0.5S81.1,628.8,80.4,628.8z M79.9,619.1c-0.9,0-1.5,0.3-2.1,0.8s-0.8,1.3-0.9,2.3h5.6c0-1-0.2-1.8-0.7-2.3
				C81.4,619.4,80.8,619.1,79.9,619.1z"/>
			<path fill="#221F1F" d="M91.3,628.8c-1.5,0-2.7-0.5-3.6-1.4c-0.8-1-1.3-2.3-1.3-4c0-1.8,0.4-3.2,1.3-4.2c0.9-1,2.1-1.5,3.7-1.5
				c0.5,0,1,0.1,1.5,0.2s0.9,0.2,1.2,0.4l-0.5,1.4c-0.4-0.1-0.7-0.3-1.2-0.4s-0.8-0.1-1.1-0.1c-2.2,0-3.3,1.4-3.3,4.2
				c0,1.3,0.3,2.3,0.8,3s1.3,1.1,2.4,1.1c0.9,0,1.8-0.2,2.7-0.6v1.4C93.3,628.7,92.4,628.8,91.3,628.8z"/>
			<path fill="#221F1F" d="M100,627.5c0.3,0,0.6,0,0.8-0.1s0.5-0.1,0.6-0.1v1.2c-0.2,0.1-0.4,0.2-0.8,0.2c-0.3,0.1-0.6,0.1-0.9,0.1
				c-2.1,0-3.1-1.1-3.1-3.3v-6.4h-1.5v-0.8l1.5-0.7l0.7-2.3h0.9v2.5h3.1v1.3h-3.1v6.3c0,0.6,0.2,1.1,0.5,1.5S99.5,627.5,100,627.5z"
				/>
			<path fill="#221F1F" d="M108.5,617.7c0.5,0,0.9,0,1.3,0.1l-0.2,1.5c-0.4-0.1-0.8-0.1-1.2-0.1c-0.9,0-1.6,0.4-2.2,1.1
				c-0.6,0.7-0.9,1.6-0.9,2.6v5.7h-1.6v-10.7h1.3l0.2,2h0.1c0.4-0.7,0.9-1.2,1.4-1.6C107.2,617.9,107.8,617.7,108.5,617.7z"/>
			<path fill="#221F1F" d="M121,623.3c0,1.7-0.4,3.1-1.3,4.1s-2.1,1.5-3.6,1.5c-1,0-1.8-0.2-2.5-0.7c-0.7-0.4-1.3-1.1-1.7-1.9
				c-0.4-0.8-0.6-1.8-0.6-2.9c0-1.7,0.4-3.1,1.3-4.1s2.1-1.5,3.6-1.5c1.5,0,2.7,0.5,3.6,1.5C120.5,620.2,121,621.6,121,623.3z
				 M112.8,623.3c0,1.4,0.3,2.4,0.8,3.1s1.3,1.1,2.4,1.1c1.1,0,1.9-0.4,2.4-1.1s0.8-1.8,0.8-3.1c0-1.4-0.3-2.4-0.8-3.1
				s-1.4-1.1-2.4-1.1c-1.1,0-1.9,0.3-2.4,1S112.8,621.9,112.8,623.3z"/>
			<path fill="#221F1F" d="M131.1,628.6v-6.9c0-0.9-0.2-1.5-0.6-2s-1-0.6-1.9-0.6c-1.1,0-1.9,0.3-2.5,0.9c-0.5,0.6-0.8,1.6-0.8,3
				v5.6h-1.6v-10.7h1.3l0.3,1.5h0.1c0.3-0.5,0.8-0.9,1.4-1.2s1.3-0.4,2-0.4c1.3,0,2.3,0.3,2.9,0.9s1,1.6,1,3v7H131.1z"/>
			<path fill="#221F1F" d="M135.9,615c0-0.4,0.1-0.6,0.3-0.8s0.4-0.3,0.7-0.3c0.3,0,0.5,0.1,0.7,0.3c0.2,0.2,0.3,0.4,0.3,0.8
				s-0.1,0.6-0.3,0.8c-0.2,0.2-0.4,0.3-0.7,0.3c-0.3,0-0.5-0.1-0.7-0.3S135.9,615.4,135.9,615z M137.7,628.6H136v-10.7h1.6V628.6z"
				/>
			<path fill="#221F1F" d="M145.4,628.8c-1.5,0-2.7-0.5-3.6-1.4s-1.3-2.3-1.3-4c0-1.8,0.4-3.2,1.3-4.2s2.1-1.5,3.7-1.5
				c0.5,0,1,0.1,1.5,0.2c0.5,0.1,0.9,0.2,1.2,0.4l-0.5,1.4c-0.4-0.1-0.7-0.3-1.2-0.4s-0.8-0.1-1.1-0.1c-2.2,0-3.3,1.4-3.3,4.2
				c0,1.3,0.3,2.3,0.8,3s1.3,1.1,2.4,1.1c0.9,0,1.8-0.2,2.7-0.6v1.4C147.4,628.7,146.5,628.8,145.4,628.8z"/>
			<path fill="#221F1F" d="M160.8,628.8c-0.7,0-1.3-0.1-1.9-0.4s-1.1-0.7-1.4-1.2h-0.1c0.1,0.6,0.1,1.2,0.1,1.8v4.4h-1.6v-15.5h1.3
				l0.2,1.5h0.1c0.4-0.6,0.9-1,1.5-1.3s1.2-0.4,1.9-0.4c1.4,0,2.5,0.5,3.3,1.5s1.2,2.3,1.2,4.1c0,1.8-0.4,3.1-1.2,4.1
				C163.2,628.4,162.1,628.8,160.8,628.8z M160.5,619.1c-1.1,0-1.9,0.3-2.4,0.9c-0.5,0.6-0.7,1.6-0.8,2.9v0.4c0,1.5,0.2,2.6,0.8,3.2
				c0.5,0.6,1.3,1,2.4,1c0.9,0,1.6-0.4,2.2-1.1s0.8-1.8,0.8-3.1c0-1.3-0.3-2.4-0.8-3.1S161.5,619.1,160.5,619.1z"/>
			<path fill="#221F1F" d="M174.6,628.6l-0.3-1.5h-0.1c-0.5,0.7-1.1,1.1-1.6,1.4s-1.2,0.4-2,0.4c-1.1,0-1.9-0.3-2.5-0.8
				s-0.9-1.3-0.9-2.3c0-2.2,1.7-3.3,5.2-3.4l1.8-0.1v-0.7c0-0.8-0.2-1.5-0.5-1.9c-0.4-0.4-0.9-0.6-1.7-0.6c-0.9,0-1.9,0.3-3,0.8
				l-0.5-1.2c0.5-0.3,1.1-0.5,1.7-0.7s1.3-0.2,1.9-0.2c1.3,0,2.2,0.3,2.8,0.8c0.6,0.6,0.9,1.5,0.9,2.7v7.3H174.6z M170.9,627.5
				c1,0,1.8-0.3,2.4-0.8s0.9-1.3,0.9-2.3v-1l-1.6,0.1c-1.3,0-2.2,0.2-2.8,0.6s-0.9,0.9-0.9,1.7c0,0.6,0.2,1,0.5,1.3
				C169.8,627.3,170.3,627.5,170.9,627.5z"/>
			<path fill="#221F1F" d="M177.4,617.9h1.7l2.3,6.1c0.5,1.4,0.8,2.4,1,3h0.1c0.1-0.3,0.3-0.9,0.5-1.7s1.2-3.3,2.6-7.4h1.7
				l-4.6,12.2c-0.5,1.2-1,2.1-1.6,2.6s-1.4,0.8-2.2,0.8c-0.5,0-1-0.1-1.5-0.2V632c0.4,0.1,0.8,0.1,1.2,0.1c1.1,0,1.9-0.6,2.4-1.9
				l0.6-1.5L177.4,617.9z"/>
			<path fill="#221F1F" d="M202.8,628.6v-7c0-0.9-0.2-1.5-0.5-1.9c-0.4-0.4-0.9-0.6-1.7-0.6c-1,0-1.8,0.3-2.2,0.9
				c-0.5,0.6-0.7,1.5-0.7,2.7v6H196v-7c0-0.9-0.2-1.5-0.5-1.9s-0.9-0.6-1.7-0.6c-1,0-1.8,0.3-2.2,0.9c-0.5,0.6-0.7,1.6-0.7,3v5.6
				h-1.6v-10.7h1.3l0.3,1.5h0.1c0.3-0.5,0.7-0.9,1.3-1.2c0.6-0.3,1.2-0.4,1.9-0.4c1.7,0,2.8,0.6,3.3,1.8h0.1c0.3-0.6,0.8-1,1.4-1.3
				c0.6-0.3,1.3-0.5,2.1-0.5c1.2,0,2.1,0.3,2.7,0.9c0.6,0.6,0.9,1.6,0.9,3v7H202.8z"/>
			<path fill="#221F1F" d="M212.3,628.8c-1.6,0-2.8-0.5-3.7-1.4c-0.9-1-1.4-2.3-1.4-4c0-1.7,0.4-3.1,1.3-4.1c0.8-1,2-1.5,3.4-1.5
				c1.3,0,2.4,0.4,3.2,1.3s1.2,2,1.2,3.5v1h-7.4c0,1.3,0.3,2.2,1,2.9s1.4,1,2.5,1c1.2,0,2.3-0.2,3.4-0.7v1.4
				c-0.6,0.2-1.1,0.4-1.6,0.5S213,628.8,212.3,628.8z M211.8,619.1c-0.9,0-1.5,0.3-2.1,0.8s-0.8,1.3-0.9,2.3h5.6
				c0-1-0.2-1.8-0.7-2.3C213.3,619.4,212.7,619.1,211.8,619.1z"/>
			<path fill="#221F1F" d="M226.3,628.6v-6.9c0-0.9-0.2-1.5-0.6-2s-1-0.6-1.9-0.6c-1.1,0-1.9,0.3-2.5,0.9s-0.8,1.6-0.8,3v5.6h-1.6
				v-10.7h1.3l0.3,1.5h0.1c0.3-0.5,0.8-0.9,1.4-1.2s1.3-0.4,2-0.4c1.3,0,2.3,0.3,2.9,0.9c0.7,0.6,1,1.6,1,3v7H226.3z"/>
			<path fill="#221F1F" d="M234.6,627.5c0.3,0,0.6,0,0.8-0.1c0.3,0,0.5-0.1,0.6-0.1v1.2c-0.2,0.1-0.4,0.2-0.8,0.2
				c-0.3,0.1-0.6,0.1-0.9,0.1c-2.1,0-3.1-1.1-3.1-3.3v-6.4h-1.5v-0.8l1.5-0.7l0.7-2.3h0.9v2.5h3.1v1.3h-3.1v6.3
				c0,0.6,0.2,1.1,0.5,1.5C233.7,627.3,234.1,627.5,234.6,627.5z"/>
			<path fill="#221F1F" d="M250.3,625.7c0,1-0.4,1.8-1.1,2.3s-1.8,0.8-3.1,0.8c-1.4,0-2.5-0.2-3.3-0.7v-1.5c0.5,0.3,1.1,0.5,1.7,0.6
				c0.6,0.1,1.2,0.2,1.7,0.2c0.8,0,1.5-0.1,1.9-0.4c0.5-0.3,0.7-0.7,0.7-1.2c0-0.4-0.2-0.8-0.5-1.1c-0.4-0.3-1.1-0.6-2.1-1
				c-1-0.4-1.7-0.7-2.1-1c-0.4-0.3-0.7-0.6-0.9-0.9s-0.3-0.8-0.3-1.3c0-0.9,0.4-1.6,1.1-2.1c0.7-0.5,1.7-0.8,2.9-0.8
				c1.2,0,2.3,0.2,3.4,0.7l-0.6,1.3c-1.1-0.4-2-0.7-2.9-0.7c-0.8,0-1.3,0.1-1.7,0.4c-0.4,0.2-0.6,0.6-0.6,1c0,0.3,0.1,0.5,0.2,0.7
				c0.1,0.2,0.4,0.4,0.7,0.6c0.3,0.2,0.9,0.4,1.9,0.8c1.3,0.5,2.1,0.9,2.6,1.4C250.1,624.4,250.3,625,250.3,625.7z"/>
			<path fill="#221F1F" d="M251.3,617.9h1.7l2.3,6.1c0.5,1.4,0.8,2.4,1,3h0.1c0.1-0.3,0.3-0.9,0.5-1.7s1.2-3.3,2.6-7.4h1.7
				l-4.6,12.2c-0.5,1.2-1,2.1-1.6,2.6s-1.4,0.8-2.2,0.8c-0.5,0-1-0.1-1.5-0.2V632c0.4,0.1,0.8,0.1,1.2,0.1c1.1,0,1.9-0.6,2.4-1.9
				l0.6-1.5L251.3,617.9z"/>
			<path fill="#221F1F" d="M269.9,625.7c0,1-0.4,1.8-1.1,2.3s-1.8,0.8-3.1,0.8c-1.4,0-2.5-0.2-3.3-0.7v-1.5c0.5,0.3,1.1,0.5,1.7,0.6
				c0.6,0.1,1.2,0.2,1.7,0.2c0.8,0,1.5-0.1,1.9-0.4c0.5-0.3,0.7-0.7,0.7-1.2c0-0.4-0.2-0.8-0.5-1.1c-0.4-0.3-1.1-0.6-2.1-1
				c-1-0.4-1.7-0.7-2.1-1c-0.4-0.3-0.7-0.6-0.9-0.9s-0.3-0.8-0.3-1.3c0-0.9,0.4-1.6,1.1-2.1c0.7-0.5,1.7-0.8,2.9-0.8
				c1.2,0,2.3,0.2,3.4,0.7l-0.6,1.3c-1.1-0.4-2-0.7-2.9-0.7c-0.8,0-1.3,0.1-1.7,0.4c-0.4,0.2-0.6,0.6-0.6,1c0,0.3,0.1,0.5,0.2,0.7
				c0.1,0.2,0.4,0.4,0.7,0.6c0.3,0.2,0.9,0.4,1.9,0.8c1.3,0.5,2.1,0.9,2.6,1.4C269.7,624.4,269.9,625,269.9,625.7z"/>
			<path fill="#221F1F" d="M276,627.5c0.3,0,0.6,0,0.8-0.1c0.3,0,0.5-0.1,0.6-0.1v1.2c-0.2,0.1-0.4,0.2-0.8,0.2
				c-0.3,0.1-0.6,0.1-0.9,0.1c-2.1,0-3.1-1.1-3.1-3.3v-6.4h-1.5v-0.8l1.5-0.7l0.7-2.3h0.9v2.5h3.1v1.3h-3.1v6.3
				c0,0.6,0.2,1.1,0.5,1.5C275,627.3,275.5,627.5,276,627.5z"/>
			<path fill="#221F1F" d="M284.1,628.8c-1.6,0-2.8-0.5-3.7-1.4c-0.9-1-1.4-2.3-1.4-4c0-1.7,0.4-3.1,1.3-4.1s2-1.5,3.4-1.5
				c1.3,0,2.4,0.4,3.2,1.3s1.2,2,1.2,3.5v1h-7.4c0,1.3,0.3,2.2,1,2.9s1.4,1,2.5,1c1.1,0,2.3-0.2,3.4-0.7v1.4
				c-0.6,0.2-1.1,0.4-1.6,0.5C285.4,628.8,284.8,628.8,284.1,628.8z M283.7,619.1c-0.9,0-1.5,0.3-2.1,0.8c-0.5,0.6-0.8,1.3-0.9,2.3
				h5.6c0-1-0.2-1.8-0.7-2.3S284.5,619.1,283.7,619.1z"/>
			<path fill="#221F1F" d="M304.4,628.6v-7c0-0.9-0.2-1.5-0.5-1.9s-0.9-0.6-1.7-0.6c-1,0-1.8,0.3-2.2,0.9c-0.5,0.6-0.7,1.5-0.7,2.7
				v6h-1.6v-7c0-0.9-0.2-1.5-0.5-1.9s-0.9-0.6-1.7-0.6c-1,0-1.8,0.3-2.2,0.9c-0.5,0.6-0.7,1.6-0.7,3v5.6h-1.6v-10.7h1.3l0.3,1.5h0.1
				c0.3-0.5,0.7-0.9,1.3-1.2c0.6-0.3,1.2-0.4,1.9-0.4c1.7,0,2.8,0.6,3.3,1.8h0.1c0.3-0.6,0.8-1,1.4-1.3c0.6-0.3,1.3-0.5,2.1-0.5
				c1.2,0,2.1,0.3,2.7,0.9c0.6,0.6,0.9,1.6,0.9,3v7H304.4z"/>
			<path fill="#221F1F" d="M316.2,625.7c0,1-0.4,1.8-1.1,2.3s-1.8,0.8-3.1,0.8c-1.4,0-2.5-0.2-3.3-0.7v-1.5c0.5,0.3,1.1,0.5,1.7,0.6
				c0.6,0.1,1.2,0.2,1.7,0.2c0.8,0,1.5-0.1,1.9-0.4c0.5-0.3,0.7-0.7,0.7-1.2c0-0.4-0.2-0.8-0.5-1.1c-0.4-0.3-1.1-0.6-2.1-1
				c-1-0.4-1.7-0.7-2.1-1c-0.4-0.3-0.7-0.6-0.9-0.9s-0.3-0.8-0.3-1.3c0-0.9,0.4-1.6,1.1-2.1c0.7-0.5,1.7-0.8,2.9-0.8
				c1.2,0,2.3,0.2,3.4,0.7l-0.6,1.3c-1.1-0.4-2-0.7-2.9-0.7c-0.8,0-1.3,0.1-1.7,0.4c-0.4,0.2-0.6,0.6-0.6,1c0,0.3,0.1,0.5,0.2,0.7
				c0.1,0.2,0.4,0.4,0.7,0.6c0.3,0.2,0.9,0.4,1.9,0.8c1.3,0.5,2.1,0.9,2.6,1.4C316,624.4,316.2,625,316.2,625.7z"/>
			<path fill="#221F1F" d="M318.6,627.6c0-0.4,0.1-0.8,0.3-1c0.2-0.2,0.5-0.3,0.9-0.3c0.4,0,0.7,0.1,0.9,0.3c0.2,0.2,0.3,0.6,0.3,1
				c0,0.4-0.1,0.7-0.3,1s-0.5,0.3-0.9,0.3c-0.3,0-0.6-0.1-0.8-0.3C318.8,628.4,318.6,628.1,318.6,627.6z"/>
		</g>
		<g>
			<path fill="#221F1F" d="M63.8,338.7c0,0.4-0.1,0.7-0.4,0.9s-0.6,0.4-0.9,0.4c-0.4,0-0.7-0.1-0.9-0.4c-0.2-0.3-0.4-0.6-0.4-0.9
				v-21.3l-2.1,0.7c-0.2,0.1-0.3,0.1-0.5,0.1c-0.4,0-0.7-0.1-0.9-0.4c-0.2-0.3-0.4-0.6-0.4-0.9c0-0.4,0.1-0.7,0.4-0.9
				c0.1-0.1,0.3-0.2,0.4-0.3l3.8-1.3c0.1-0.1,0.3-0.1,0.5-0.1c0.4,0,0.7,0.1,0.9,0.4c0.3,0.3,0.4,0.6,0.4,0.9V338.7z"/>
			<path fill="#221F1F" d="M75.4,329.6c-0.5,0.1-0.9,0.1-1.4,0.1c-2.1,0-3.9-0.8-5.4-2.3s-2.2-3.3-2.2-5.4s0.7-3.9,2.2-5.4
				s3.3-2.3,5.4-2.3c2.1,0,3.9,0.8,5.4,2.3s2.2,3.3,2.2,5.4c0,1.6-0.4,3-1.2,4.2l-7.9,13.1c-0.1,0.1-0.1,0.2-0.2,0.3
				c-0.3,0.3-0.6,0.4-0.9,0.4c-0.4,0-0.7-0.1-0.9-0.4c-0.2-0.3-0.4-0.6-0.4-0.9c0-0.2,0.1-0.5,0.2-0.7L75.4,329.6z M68.9,322.1
				c0,1.4,0.5,2.6,1.5,3.6s2.2,1.5,3.6,1.5c1.4,0,2.6-0.5,3.6-1.5s1.5-2.2,1.5-3.6s-0.5-2.6-1.5-3.6s-2.2-1.5-3.6-1.5
				c-1.4,0-2.6,0.5-3.6,1.5S68.9,320.6,68.9,322.1z"/>
			<path fill="#221F1F" d="M93.4,329.6c-0.5,0.1-0.9,0.1-1.4,0.1c-2.1,0-3.9-0.8-5.4-2.3s-2.2-3.3-2.2-5.4s0.7-3.9,2.2-5.4
				s3.3-2.3,5.4-2.3c2.1,0,3.9,0.8,5.4,2.3s2.2,3.3,2.2,5.4c0,1.6-0.4,3-1.2,4.2l-7.9,13.1c-0.1,0.1-0.1,0.2-0.2,0.3
				c-0.3,0.3-0.6,0.4-0.9,0.4c-0.4,0-0.7-0.1-0.9-0.4c-0.2-0.3-0.4-0.6-0.4-0.9c0-0.2,0.1-0.5,0.2-0.7L93.4,329.6z M86.8,322.1
				c0,1.4,0.5,2.6,1.5,3.6s2.2,1.5,3.6,1.5c1.4,0,2.6-0.5,3.6-1.5s1.5-2.2,1.5-3.6s-0.5-2.6-1.5-3.6s-2.2-1.5-3.6-1.5
				c-1.4,0-2.6,0.5-3.6,1.5S86.8,320.6,86.8,322.1z"/>
			<path fill="#221F1F" d="M108.6,338.7c0,0.4-0.1,0.7-0.4,0.9s-0.6,0.4-0.9,0.4c-0.4,0-0.7-0.1-0.9-0.4c-0.2-0.3-0.4-0.6-0.4-0.9
				v-21.3l-2.1,0.7c-0.2,0.1-0.3,0.1-0.5,0.1c-0.4,0-0.7-0.1-0.9-0.4c-0.2-0.3-0.4-0.6-0.4-0.9c0-0.4,0.1-0.7,0.4-0.9
				c0.1-0.1,0.3-0.2,0.4-0.3l3.8-1.3c0.1-0.1,0.3-0.1,0.5-0.1c0.4,0,0.7,0.1,0.9,0.4c0.3,0.3,0.4,0.6,0.4,0.9V338.7z"/>
		</g>
		<g>
			<path fill="#C34E2A" d="M178.9,329.5c-0.9,0.7-1.8,1.2-2.7,1.5s-2,0.5-3.1,0.5c-2.7,0-4.9-0.9-6.8-2.8c-1.9-1.9-2.8-4.2-2.8-6.8
				c0-2.7,0.9-4.9,2.8-6.8c1.9-1.9,4.2-2.8,6.8-2.8c2.7,0,4.9,0.9,6.8,2.8c0.9,1,1.7,2,2.1,3.1c0.5,1.1,0.7,2.4,0.7,3.7
				c0,1.1-0.2,2.2-0.5,3.1s-0.8,1.9-1.5,2.7l1.6,1.6c0.2,0.3,0.4,0.6,0.4,0.9c0,0.2,0,0.4-0.1,0.5s-0.2,0.3-0.3,0.4
				c-0.1,0.1-0.3,0.2-0.4,0.3c-0.2,0.1-0.3,0.1-0.5,0.1c-0.4,0-0.7-0.1-0.9-0.4L178.9,329.5z M175.4,326c-0.2-0.3-0.4-0.6-0.4-0.9
				c0-0.2,0-0.3,0.1-0.5s0.2-0.3,0.3-0.4c0.1-0.1,0.3-0.2,0.4-0.3c0.2-0.1,0.3-0.1,0.5-0.1c0.4,0,0.7,0.1,0.9,0.4l1.7,1.7
				c0.8-1.2,1.2-2.5,1.2-4c0-2-0.7-3.6-2.1-5c-1.4-1.4-3.1-2.1-5-2.1c-1,0-1.9,0.2-2.7,0.5c-0.8,0.3-1.6,0.9-2.3,1.6
				s-1.2,1.5-1.6,2.3c-0.3,0.8-0.5,1.7-0.5,2.7c0,2,0.7,3.6,2.1,5c1.4,1.4,3.1,2.1,5,2.1c1.5,0,2.9-0.4,4-1.2L175.4,326z"/>
			<path fill="#C34E2A" d="M195.6,314.7h-4.8v15.5c0,0.4-0.1,0.7-0.4,0.9c-0.2,0.2-0.6,0.4-0.9,0.4c-0.4,0-0.7-0.1-0.9-0.4
				c-0.2-0.2-0.4-0.6-0.4-0.9v-15.5h-4.8c-0.4,0-0.7-0.1-0.9-0.4c-0.2-0.2-0.4-0.6-0.4-0.9s0.1-0.7,0.4-0.9c0.2-0.2,0.6-0.4,0.9-0.4
				h12.1c0.4,0,0.7,0.1,0.9,0.4c0.2,0.2,0.4,0.6,0.4,0.9s-0.1,0.7-0.4,0.9C196.2,314.6,195.9,314.7,195.6,314.7z"/>
			<path fill="#C34E2A" d="M201.2,330.2v-15.1c-0.2,0.1-0.5,0.2-0.8,0.3c-0.3,0.1-0.5,0.2-0.7,0.2c-0.4,0-0.7-0.1-0.9-0.4
				c-0.2-0.2-0.4-0.5-0.4-0.9c0-0.3,0.1-0.5,0.2-0.7s0.3-0.4,0.6-0.5l2.8-0.9c0.1-0.1,0.3-0.1,0.4-0.1c0.4,0,0.7,0.1,0.9,0.4
				c0.2,0.2,0.4,0.5,0.4,0.9v16.8c0,0.3-0.1,0.6-0.4,0.9s-0.5,0.4-0.9,0.4c-0.3,0-0.6-0.1-0.9-0.4
				C201.3,330.8,201.2,330.5,201.2,330.2z"/>
			<path fill="#C34E2A" d="M205.6,329.4l8.2-14.8h-7c-0.4,0-0.7-0.1-0.9-0.4c-0.2-0.2-0.4-0.5-0.4-0.9c0-0.4,0.1-0.7,0.4-0.9
				s0.5-0.4,0.9-0.4h9.2c0.2,0,0.3,0,0.5,0.1c0.2,0.1,0.3,0.2,0.4,0.3c0.1,0.1,0.2,0.2,0.3,0.4s0.1,0.3,0.1,0.5
				c0,0.2-0.1,0.4-0.2,0.7l-9.3,16.7c-0.1,0.1-0.1,0.2-0.2,0.3c-0.2,0.2-0.6,0.4-0.9,0.4c-0.3,0-0.6-0.1-0.9-0.4
				c-0.2-0.2-0.4-0.5-0.4-0.9C205.4,329.9,205.4,329.7,205.6,329.4z"/>
			<path fill="#C34E2A" d="M218.9,318c0-0.8,0.2-1.6,0.5-2.3c0.3-0.7,0.7-1.3,1.3-1.9c0.5-0.5,1.2-1,1.9-1.3
				c0.7-0.3,1.5-0.5,2.3-0.5s1.5,0.2,2.3,0.5c0.7,0.3,1.3,0.7,1.9,1.3c0.5,0.5,1,1.2,1.3,1.9c0.3,0.7,0.5,1.5,0.5,2.2
				c0,0.8-0.1,1.6-0.4,2.2c-0.3,0.7-0.7,1.3-1.3,1.9l-5.9,6.8h6.3c0.4,0,0.7,0.1,0.9,0.4c0.2,0.2,0.4,0.5,0.4,0.9s-0.1,0.6-0.4,0.9
				c-0.2,0.2-0.5,0.4-0.9,0.4h-9.2c-0.2,0-0.3,0-0.5-0.1c-0.2-0.1-0.3-0.2-0.4-0.3c-0.1-0.1-0.2-0.3-0.3-0.4s-0.1-0.3-0.1-0.5
				c0-0.4,0.1-0.7,0.3-0.9l7.8-8.9c0.7-0.7,1-1.5,1-2.4c0-0.5-0.1-0.9-0.3-1.3c-0.2-0.4-0.4-0.8-0.7-1.1c-0.3-0.3-0.7-0.5-1.1-0.7
				c-0.4-0.2-0.8-0.3-1.3-0.3c-0.5,0-0.9,0.1-1.3,0.3c-0.4,0.2-0.8,0.4-1.1,0.7c-0.3,0.3-0.5,0.6-0.7,1.1c-0.2,0.4-0.3,0.8-0.3,1.3
				c0,0.3-0.1,0.6-0.4,0.9c-0.2,0.2-0.5,0.4-0.9,0.4c-0.3,0-0.6-0.1-0.9-0.4C219,318.6,218.9,318.3,218.9,318z"/>
			<path fill="#C34E2A" d="M232.4,321.8c0-1.5,0.1-2.9,0.4-4.1c0.3-1.2,0.6-2.2,1.1-3c0.5-0.8,1.1-1.5,1.8-1.9
				c0.7-0.4,1.6-0.7,2.5-0.7c0.9,0,1.8,0.2,2.5,0.7c0.7,0.4,1.3,1.1,1.9,1.9s0.9,1.8,1.1,3c0.3,1.2,0.4,2.5,0.4,4s-0.1,2.8-0.4,4
				s-0.6,2.2-1.1,3s-1.1,1.5-1.9,1.9c-0.7,0.4-1.6,0.7-2.5,0.7c-0.9,0-1.8-0.2-2.5-0.7c-0.7-0.4-1.3-1.1-1.8-1.9
				c-0.5-0.8-0.9-1.8-1.1-3C232.5,324.7,232.4,323.3,232.4,321.8z M238.3,314.7c-0.6,0-1.1,0.2-1.5,0.5c-0.4,0.4-0.8,0.9-1.1,1.5
				s-0.5,1.4-0.6,2.3c-0.1,0.9-0.2,1.8-0.2,2.8c0,1,0.1,2,0.2,2.9c0.1,0.9,0.3,1.6,0.6,2.3c0.3,0.6,0.6,1.1,1.1,1.5
				c0.4,0.4,0.9,0.5,1.5,0.5c0.6,0,1.1-0.2,1.5-0.5c0.4-0.4,0.8-0.9,1-1.5s0.5-1.4,0.6-2.3c0.1-0.9,0.2-1.8,0.2-2.8
				c0-1-0.1-1.9-0.2-2.8c-0.1-0.9-0.3-1.6-0.6-2.3s-0.6-1.1-1-1.5C239.4,314.8,238.9,314.7,238.3,314.7z"/>
			<path fill="#C34E2A" d="M178.9,355.2c-0.9,0.7-1.8,1.2-2.7,1.5s-2,0.5-3.1,0.5c-2.7,0-4.9-0.9-6.8-2.8c-1.9-1.9-2.8-4.2-2.8-6.8
				c0-2.7,0.9-4.9,2.8-6.8c1.9-1.9,4.2-2.8,6.8-2.8c2.7,0,4.9,0.9,6.8,2.8c0.9,1,1.7,2,2.1,3.1s0.7,2.4,0.7,3.7
				c0,1.1-0.2,2.2-0.5,3.1c-0.3,1-0.8,1.9-1.5,2.7l1.6,1.6c0.2,0.3,0.4,0.6,0.4,0.9c0,0.2,0,0.4-0.1,0.5c-0.1,0.2-0.2,0.3-0.3,0.4
				c-0.1,0.1-0.3,0.2-0.4,0.3c-0.2,0.1-0.3,0.1-0.5,0.1c-0.4,0-0.7-0.1-0.9-0.4L178.9,355.2z M175.4,351.7c-0.2-0.3-0.4-0.6-0.4-0.9
				c0-0.2,0-0.3,0.1-0.5s0.2-0.3,0.3-0.4c0.1-0.1,0.3-0.2,0.4-0.3c0.2-0.1,0.3-0.1,0.5-0.1c0.4,0,0.7,0.1,0.9,0.4l1.7,1.7
				c0.8-1.2,1.2-2.5,1.2-4c0-2-0.7-3.6-2.1-5c-1.4-1.4-3.1-2.1-5-2.1c-1,0-1.9,0.2-2.7,0.5c-0.8,0.3-1.6,0.9-2.3,1.6
				s-1.2,1.5-1.6,2.3c-0.3,0.8-0.5,1.7-0.5,2.7c0,2,0.7,3.6,2.1,5c1.4,1.4,3.1,2.1,5,2.1c1.5,0,2.9-0.4,4-1.2L175.4,351.7z"/>
			<path fill="#C34E2A" d="M196,357.2c-0.4,0-0.7-0.1-0.9-0.4c-0.2-0.2-0.4-0.5-0.4-0.9c-0.6,0.4-1.1,0.8-1.8,0.9
				c-0.6,0.2-1.3,0.3-2,0.3c-0.9,0-1.7-0.2-2.4-0.5c-0.8-0.3-1.4-0.8-2-1.4s-1-1.2-1.4-2s-0.5-1.6-0.5-2.4v-6c0-0.3,0.1-0.6,0.4-0.9
				c0.2-0.2,0.5-0.4,0.9-0.4c0.3,0,0.6,0.1,0.9,0.4s0.4,0.5,0.4,0.9v6c0,0.5,0.1,1,0.3,1.5c0.2,0.5,0.5,0.9,0.8,1.2
				c0.3,0.3,0.7,0.6,1.2,0.8s0.9,0.3,1.5,0.3c0.5,0,1-0.1,1.5-0.3c0.5-0.2,0.9-0.5,1.2-0.8c0.3-0.3,0.6-0.7,0.8-1.2
				c0.2-0.5,0.3-0.9,0.3-1.5v-6c0-0.3,0.1-0.6,0.4-0.9c0.2-0.2,0.5-0.4,0.9-0.4c0.3,0,0.6,0.1,0.9,0.4c0.2,0.2,0.4,0.5,0.4,0.9v11
				c0,0.3-0.1,0.6-0.4,0.9C196.6,357.1,196.3,357.2,196,357.2z"/>
			<path fill="#C34E2A" d="M209.4,353.4c0.4,0,0.7,0.1,0.9,0.4c0.2,0.2,0.4,0.5,0.4,0.9c0,0.4-0.1,0.7-0.4,0.9
				c-1.2,1.1-2.7,1.6-4.4,1.6c-1.9,0-3.5-0.7-4.8-2c-1.3-1.3-2-2.9-2-4.8s0.7-3.5,2-4.8c1.3-1.3,2.9-2,4.8-2c1.9,0,3.4,0.7,4.8,2
				c0.7,0.7,1.2,1.4,1.5,2.2s0.5,1.7,0.5,2.6c0,0.4-0.1,0.7-0.4,0.9c-0.2,0.2-0.5,0.4-0.9,0.4h-9.6c0.1,0.4,0.3,0.8,0.6,1.2
				c0.3,0.4,0.6,0.7,0.9,0.9c0.4,0.3,0.8,0.5,1.2,0.6c0.4,0.1,0.9,0.2,1.3,0.2c0.5,0,1-0.1,1.5-0.2c0.4-0.2,0.9-0.4,1.2-0.7
				C208.8,353.5,209.1,353.4,209.4,353.4z M210,349.2c-0.1-0.4-0.3-0.8-0.6-1.2c-0.3-0.4-0.6-0.7-0.9-0.9c-0.4-0.3-0.8-0.5-1.2-0.6
				c-0.4-0.1-0.9-0.2-1.3-0.2s-0.9,0.1-1.3,0.2c-0.4,0.1-0.8,0.3-1.2,0.6c-0.4,0.3-0.7,0.6-0.9,0.9c-0.3,0.4-0.5,0.8-0.6,1.2H210z"
				/>
			<path fill="#C34E2A" d="M217,350.7c-0.8-0.3-1.3-0.6-1.6-0.9h0c-0.6-0.6-0.9-1.3-0.9-2.2c0-0.6,0.2-1.2,0.5-1.7
				c0.3-0.5,0.8-0.9,1.3-1.3c0.5-0.3,1.1-0.6,1.8-0.8c0.7-0.2,1.3-0.3,2-0.3c2,0,3.7,0.8,5.2,2.4c0.2,0.2,0.3,0.5,0.3,0.8
				c0,0.4-0.1,0.7-0.4,0.9s-0.5,0.4-0.9,0.4c-0.3,0-0.5-0.1-0.7-0.2c-0.2-0.1-0.4-0.3-0.5-0.5c-0.8-0.8-1.8-1.2-3-1.2
				c-1.2,0-2.1,0.4-2.8,1.1c-0.1,0.1-0.2,0.3-0.2,0.5s0.1,0.4,0.3,0.5l5.6,1.9c0.8,0.3,1.3,0.6,1.6,0.9h0c0.6,0.6,0.9,1.3,0.9,2.2
				c0,0.6-0.2,1.2-0.5,1.7c-0.3,0.5-0.8,0.9-1.3,1.3s-1.1,0.6-1.8,0.8s-1.3,0.3-2,0.3c-2,0-3.8-0.8-5.2-2.4
				c-0.2-0.2-0.3-0.5-0.3-0.8c0-0.4,0.1-0.7,0.4-0.9c0.2-0.2,0.5-0.4,0.9-0.4c0.3,0,0.5,0.1,0.7,0.2c0.2,0.2,0.4,0.3,0.5,0.5
				c0.8,0.8,1.8,1.2,3,1.2c1.2,0,2.1-0.4,2.8-1.1c0.1-0.1,0.2-0.3,0.2-0.5c0-0.2-0.1-0.4-0.3-0.5L217,350.7z"/>
			<path fill="#C34E2A" d="M228.5,343.6h0.6v-4.5c0-0.3,0.1-0.6,0.4-0.9c0.2-0.2,0.5-0.4,0.9-0.4c0.3,0,0.6,0.1,0.9,0.4
				c0.2,0.2,0.4,0.5,0.4,0.9v4.5h1.5c0.3,0,0.6,0.1,0.9,0.4c0.2,0.2,0.4,0.5,0.4,0.9c0,0.4-0.1,0.7-0.4,0.9
				c-0.2,0.2-0.5,0.4-0.9,0.4h-1.5v6.1c0,1.6,0.8,2.4,2.4,2.4c0.3,0,0.6,0.1,0.9,0.4s0.4,0.5,0.4,0.9c0,0.4-0.1,0.7-0.4,0.9
				c-0.2,0.2-0.5,0.4-0.9,0.4c-3.3,0-4.9-1.6-4.9-4.9v-6.1h-0.6c-0.3,0-0.6-0.1-0.9-0.4c-0.2-0.2-0.4-0.5-0.4-0.9
				c0-0.3,0.1-0.6,0.4-0.9C227.9,343.8,228.2,343.6,228.5,343.6z"/>
			<path fill="#C34E2A" d="M244.2,355.9v-16.8c0-0.2,0-0.3,0.1-0.5s0.2-0.3,0.3-0.4c0.1-0.1,0.2-0.2,0.4-0.3s0.3-0.1,0.5-0.1h3.7
				c0.6,0,1.1,0.1,1.7,0.2s1.1,0.4,1.5,0.7c0.5,0.3,0.9,0.6,1.3,1c0.4,0.4,0.7,0.8,1,1.3c0.3,0.5,0.5,1,0.7,1.5
				c0.2,0.5,0.2,1.1,0.2,1.7c0,1.8-0.6,3.3-1.9,4.5c-1.2,1.2-2.8,1.9-4.5,1.9h-2.4v5.2c0,0.4-0.1,0.7-0.4,0.9s-0.6,0.4-0.9,0.4
				s-0.7-0.1-0.9-0.4C244.3,356.6,244.2,356.3,244.2,355.9z M246.7,340.4v7.7h2.4c0.5,0,1-0.1,1.5-0.3c0.5-0.2,0.9-0.5,1.2-0.8
				s0.6-0.8,0.8-1.2c0.2-0.5,0.3-1,0.3-1.5c0-0.5-0.1-1-0.3-1.5s-0.5-0.9-0.8-1.2c-0.3-0.3-0.8-0.6-1.2-0.8c-0.5-0.2-1-0.3-1.5-0.3
				H246.7z"/>
			<path fill="#C34E2A" d="M268.3,355.9v-0.2c-0.6,0.5-1.3,0.9-2,1.1s-1.5,0.4-2.3,0.4c-1.9,0-3.5-0.7-4.8-2c-1.3-1.3-2-2.9-2-4.8
				s0.7-3.5,2-4.8c1.3-1.3,2.9-2,4.8-2c1.9,0,3.4,0.7,4.8,2c1.3,1.3,2,2.9,2,4.8v5.5c0,0.3-0.1,0.6-0.4,0.9
				c-0.2,0.2-0.5,0.4-0.9,0.4c-0.4,0-0.7-0.1-0.9-0.4C268.4,356.6,268.3,356.3,268.3,355.9z M264,346.2c-0.6,0-1.2,0.1-1.7,0.3
				c-0.5,0.2-1,0.5-1.3,0.9c-0.4,0.4-0.7,0.8-0.9,1.3c-0.2,0.5-0.3,1.1-0.3,1.6s0.1,1.1,0.3,1.6c0.2,0.5,0.5,1,0.9,1.3
				c0.4,0.4,0.8,0.7,1.3,0.9c0.5,0.2,1.1,0.3,1.7,0.3c0.6,0,1.1-0.1,1.7-0.3c0.5-0.2,1-0.5,1.3-0.9c0.4-0.4,0.7-0.8,0.9-1.3
				c0.2-0.5,0.3-1.1,0.3-1.6s-0.1-1.1-0.3-1.6c-0.2-0.5-0.5-1-0.9-1.3c-0.4-0.4-0.8-0.7-1.3-0.9C265.2,346.3,264.6,346.2,264,346.2z
				"/>
			<path fill="#C34E2A" d="M277.2,355.9l-4.3-10.5c-0.1-0.2-0.1-0.4-0.1-0.6c0-0.2,0-0.3,0.1-0.5c0.1-0.2,0.2-0.3,0.3-0.4
				s0.2-0.2,0.4-0.3c0.2-0.1,0.3-0.1,0.5-0.1c0.2,0,0.5,0.1,0.7,0.2s0.4,0.3,0.5,0.6l3.4,8.1l3.4-8.1c0.1-0.2,0.2-0.4,0.4-0.6
				c0.2-0.1,0.4-0.2,0.8-0.2c0.2,0,0.3,0,0.5,0.1c0.2,0.1,0.3,0.2,0.4,0.3c0.1,0.1,0.2,0.3,0.3,0.4c0.1,0.2,0.1,0.3,0.1,0.5
				c0,0.2,0,0.4-0.1,0.6l-6.9,16.7c-0.1,0.2-0.3,0.5-0.5,0.6c-0.2,0.2-0.5,0.2-0.7,0.2c-0.4,0-0.7-0.1-0.9-0.4
				c-0.2-0.2-0.4-0.5-0.4-0.9c0-0.2,0-0.4,0.1-0.6L277.2,355.9z"/>
			<path fill="#C34E2A" d="M305.3,355.9c0,0.4-0.1,0.7-0.4,0.9c-0.2,0.2-0.5,0.4-0.9,0.4c-0.4,0-0.7-0.1-0.9-0.4
				c-0.2-0.2-0.4-0.5-0.4-0.9V349c0-0.4-0.1-0.8-0.2-1.1c-0.1-0.3-0.4-0.7-0.6-0.9c-0.3-0.3-0.6-0.5-0.9-0.6
				c-0.4-0.2-0.7-0.2-1.1-0.2c-0.4,0-0.8,0.1-1.1,0.2c-0.3,0.2-0.7,0.4-0.9,0.6s-0.5,0.6-0.6,0.9s-0.2,0.7-0.2,1.1v6.9
				c0,0.4-0.1,0.7-0.4,0.9c-0.2,0.2-0.5,0.4-0.9,0.4c-0.4,0-0.7-0.1-0.9-0.4c-0.2-0.2-0.4-0.5-0.4-0.9V349c0-0.4-0.1-0.8-0.2-1.1
				c-0.2-0.3-0.4-0.6-0.6-0.9s-0.6-0.5-0.9-0.6c-0.3-0.2-0.7-0.2-1.1-0.2c-0.4,0-0.8,0.1-1.1,0.2c-0.3,0.1-0.7,0.4-0.9,0.6
				c-0.3,0.3-0.5,0.6-0.6,0.9c-0.1,0.3-0.2,0.7-0.2,1.1v6.9c0,0.4-0.1,0.7-0.4,0.9c-0.2,0.2-0.5,0.4-0.9,0.4c-0.4,0-0.7-0.1-0.9-0.4
				c-0.2-0.2-0.4-0.5-0.4-0.9v-11c0-0.3,0.1-0.6,0.4-0.9c0.2-0.2,0.5-0.4,0.9-0.4c0.3,0,0.5,0.1,0.7,0.2s0.4,0.4,0.4,0.6
				c0.9-0.6,1.8-0.9,2.9-0.9c0.8,0,1.6,0.2,2.3,0.5c0.7,0.3,1.3,0.8,1.9,1.4c1.1-1.3,2.5-1.9,4.1-1.9c0.7,0,1.4,0.1,2.1,0.4
				c0.7,0.3,1.2,0.7,1.7,1.2c0.5,0.5,0.9,1.1,1.2,1.7c0.3,0.7,0.4,1.4,0.4,2.1V355.9z"/>
			<path fill="#C34E2A" d="M317.8,353.4c0.4,0,0.7,0.1,0.9,0.4c0.2,0.2,0.4,0.5,0.4,0.9c0,0.4-0.1,0.7-0.4,0.9
				c-1.2,1.1-2.7,1.6-4.4,1.6c-1.9,0-3.5-0.7-4.8-2c-1.3-1.3-2-2.9-2-4.8s0.7-3.5,2-4.8c1.3-1.3,2.9-2,4.8-2c1.9,0,3.4,0.7,4.8,2
				c0.7,0.7,1.2,1.4,1.5,2.2s0.5,1.7,0.5,2.6c0,0.4-0.1,0.7-0.4,0.9c-0.2,0.2-0.5,0.4-0.9,0.4h-9.6c0.1,0.4,0.3,0.8,0.6,1.2
				c0.3,0.4,0.6,0.7,0.9,0.9c0.4,0.3,0.8,0.5,1.2,0.6c0.4,0.1,0.9,0.2,1.3,0.2c0.5,0,1-0.1,1.5-0.2c0.4-0.2,0.9-0.4,1.2-0.7
				C317.2,353.5,317.5,353.4,317.8,353.4z M318.3,349.2c-0.1-0.4-0.3-0.8-0.6-1.2c-0.3-0.4-0.6-0.7-0.9-0.9s-0.8-0.5-1.2-0.6
				c-0.4-0.1-0.9-0.2-1.3-0.2c-0.5,0-0.9,0.1-1.3,0.2c-0.4,0.1-0.8,0.3-1.2,0.6c-0.4,0.3-0.7,0.6-0.9,0.9c-0.3,0.4-0.5,0.8-0.6,1.2
				H318.3z"/>
			<path fill="#C34E2A" d="M325.4,344.9c1.1-0.8,2.3-1.2,3.8-1.2c0.8,0,1.6,0.2,2.4,0.5c0.8,0.3,1.4,0.8,2,1.3c0.6,0.6,1,1.2,1.4,2
				s0.5,1.6,0.5,2.5v6c0,0.4-0.1,0.7-0.4,0.9c-0.2,0.2-0.5,0.4-0.9,0.4c-0.4,0-0.7-0.1-0.9-0.4c-0.2-0.2-0.4-0.5-0.4-0.9v-6
				c0-0.5-0.1-1-0.3-1.5c-0.2-0.5-0.5-0.9-0.8-1.2c-0.3-0.3-0.7-0.6-1.2-0.8c-0.5-0.2-0.9-0.3-1.5-0.3c-0.5,0-1,0.1-1.5,0.3
				c-0.5,0.2-0.9,0.5-1.2,0.8s-0.6,0.7-0.8,1.2c-0.2,0.5-0.3,0.9-0.3,1.5v6c0,0.4-0.1,0.7-0.4,0.9c-0.2,0.2-0.5,0.4-0.9,0.4
				c-0.4,0-0.7-0.1-0.9-0.4c-0.2-0.2-0.4-0.5-0.4-0.9v-11c0-0.3,0.1-0.6,0.4-0.9c0.2-0.2,0.5-0.4,0.9-0.4c0.3,0,0.6,0.1,0.9,0.4
				C325.3,344.3,325.4,344.6,325.4,344.9z"/>
			<path fill="#C34E2A" d="M338.6,343.6h0.6v-4.5c0-0.3,0.1-0.6,0.4-0.9c0.2-0.2,0.5-0.4,0.9-0.4c0.3,0,0.6,0.1,0.9,0.4
				c0.2,0.2,0.4,0.5,0.4,0.9v4.5h1.5c0.3,0,0.6,0.1,0.9,0.4c0.2,0.2,0.4,0.5,0.4,0.9c0,0.4-0.1,0.7-0.4,0.9
				c-0.2,0.2-0.5,0.4-0.9,0.4h-1.5v6.1c0,1.6,0.8,2.4,2.4,2.4c0.3,0,0.6,0.1,0.9,0.4c0.2,0.2,0.4,0.5,0.4,0.9c0,0.4-0.1,0.7-0.4,0.9
				c-0.2,0.2-0.5,0.4-0.9,0.4c-3.3,0-4.9-1.6-4.9-4.9v-6.1h-0.6c-0.3,0-0.6-0.1-0.9-0.4s-0.4-0.5-0.4-0.9c0-0.3,0.1-0.6,0.4-0.9
				S338.3,343.6,338.6,343.6z"/>
			<path fill="#C34E2A" d="M356.8,346.4c-0.6-0.5-1-1.1-1.2-1.7c-0.2-0.6-0.4-1.2-0.4-1.8c0-0.8,0.1-1.5,0.4-2.1
				c0.3-0.6,0.7-1.2,1.3-1.7h0c0.9-0.8,2-1.2,3.3-1.2c0.4,0,0.8,0.1,1.2,0.2s0.8,0.3,1.2,0.5c0.4,0.2,0.7,0.5,1,0.8
				c0.3,0.3,0.6,0.7,0.9,1.1c0.1,0.2,0.2,0.4,0.2,0.7c0,0.2,0,0.4-0.1,0.5c-0.1,0.2-0.2,0.3-0.3,0.4c-0.1,0.1-0.3,0.2-0.4,0.3
				c-0.2,0.1-0.3,0.1-0.5,0.1c-0.2,0-0.3,0-0.4-0.1c-0.1,0-0.2-0.1-0.3-0.2s-0.2-0.2-0.3-0.3c-0.1-0.1-0.2-0.3-0.3-0.4
				c-0.2-0.3-0.5-0.5-0.8-0.6s-0.7-0.2-1.1-0.2c-0.3,0-0.6,0.1-0.9,0.2s-0.5,0.3-0.8,0.5s-0.4,0.5-0.5,0.8c-0.1,0.3-0.2,0.6-0.2,1
				c0,0.6,0.2,1.1,0.5,1.5s0.9,0.7,1.8,0.9c1.4,0.4,2.5,1,3.3,1.7s1.4,1.4,1.6,2.1c0.3,0.7,0.4,1.4,0.4,2.2c0,1.9-0.7,3.4-2.1,4.6h0
				c-1.1,1-2.4,1.4-3.8,1.4c-0.5,0-0.9-0.1-1.4-0.2c-0.5-0.1-0.9-0.3-1.4-0.5s-0.8-0.5-1.2-0.8c-0.4-0.3-0.7-0.7-1-1.1
				c-0.2-0.2-0.3-0.5-0.3-0.8c0-0.2,0-0.3,0.1-0.5s0.2-0.3,0.3-0.4c0.1-0.1,0.3-0.2,0.4-0.3c0.2-0.1,0.3-0.1,0.5-0.1
				c0.5,0,0.8,0.2,1.1,0.6c0.3,0.5,0.8,0.9,1.3,1.2c0.5,0.3,1.1,0.4,1.6,0.4c0.5,0,0.9-0.1,1.3-0.3c0.4-0.2,0.8-0.4,1.1-0.7
				c0.3-0.3,0.5-0.7,0.7-1.1c0.2-0.4,0.3-0.9,0.3-1.3c0-0.4-0.1-0.9-0.2-1.3s-0.5-0.8-1-1.2s-1.2-0.7-2.2-1
				C358.2,347.4,357.4,347,356.8,346.4z"/>
			<path fill="#C34E2A" d="M371.5,355.9l-4.3-10.5c-0.1-0.2-0.1-0.4-0.1-0.6c0-0.2,0-0.3,0.1-0.5c0.1-0.2,0.2-0.3,0.3-0.4
				s0.2-0.2,0.4-0.3c0.2-0.1,0.3-0.1,0.5-0.1c0.2,0,0.5,0.1,0.7,0.2s0.4,0.3,0.5,0.6l3.4,8.1l3.4-8.1c0.1-0.2,0.2-0.4,0.4-0.6
				c0.2-0.1,0.4-0.2,0.8-0.2c0.2,0,0.3,0,0.5,0.1c0.2,0.1,0.3,0.2,0.4,0.3c0.1,0.1,0.2,0.3,0.3,0.4c0.1,0.2,0.1,0.3,0.1,0.5
				c0,0.2,0,0.4-0.1,0.6l-6.9,16.7c-0.1,0.2-0.3,0.5-0.5,0.6c-0.2,0.2-0.5,0.2-0.7,0.2c-0.4,0-0.7-0.1-0.9-0.4
				c-0.2-0.2-0.4-0.5-0.4-0.9c0-0.2,0-0.4,0.1-0.6L371.5,355.9z"/>
			<path fill="#C34E2A" d="M383.1,350.7c-0.8-0.3-1.3-0.6-1.6-0.9h0c-0.6-0.6-0.9-1.3-0.9-2.2c0-0.6,0.2-1.2,0.5-1.7
				c0.3-0.5,0.8-0.9,1.3-1.3c0.5-0.3,1.1-0.6,1.8-0.8c0.7-0.2,1.3-0.3,2-0.3c2,0,3.7,0.8,5.2,2.4c0.2,0.2,0.3,0.5,0.3,0.8
				c0,0.4-0.1,0.7-0.4,0.9s-0.5,0.4-0.9,0.4c-0.3,0-0.5-0.1-0.7-0.2c-0.2-0.1-0.4-0.3-0.5-0.5c-0.8-0.8-1.8-1.2-3-1.2
				c-1.2,0-2.1,0.4-2.8,1.1c-0.1,0.1-0.2,0.3-0.2,0.5s0.1,0.4,0.3,0.5l5.6,1.9c0.8,0.3,1.3,0.6,1.6,0.9h0c0.6,0.6,0.9,1.3,0.9,2.2
				c0,0.6-0.2,1.2-0.5,1.7c-0.3,0.5-0.8,0.9-1.3,1.3s-1.1,0.6-1.8,0.8s-1.3,0.3-2,0.3c-2,0-3.8-0.8-5.2-2.4
				c-0.2-0.2-0.3-0.5-0.3-0.8c0-0.4,0.1-0.7,0.4-0.9c0.2-0.2,0.5-0.4,0.9-0.4c0.3,0,0.5,0.1,0.7,0.2c0.2,0.2,0.4,0.3,0.5,0.5
				c0.8,0.8,1.8,1.2,3,1.2c1.2,0,2.1-0.4,2.8-1.1c0.1-0.1,0.2-0.3,0.2-0.5c0-0.2-0.1-0.4-0.3-0.5L383.1,350.7z"/>
			<path fill="#C34E2A" d="M394.6,343.6h0.6v-4.5c0-0.3,0.1-0.6,0.4-0.9c0.2-0.2,0.5-0.4,0.9-0.4c0.3,0,0.6,0.1,0.9,0.4
				c0.2,0.2,0.4,0.5,0.4,0.9v4.5h1.5c0.3,0,0.6,0.1,0.9,0.4c0.2,0.2,0.4,0.5,0.4,0.9c0,0.4-0.1,0.7-0.4,0.9
				c-0.2,0.2-0.5,0.4-0.9,0.4h-1.5v6.1c0,1.6,0.8,2.4,2.4,2.4c0.3,0,0.6,0.1,0.9,0.4c0.2,0.2,0.4,0.5,0.4,0.9c0,0.4-0.1,0.7-0.4,0.9
				c-0.2,0.2-0.5,0.4-0.9,0.4c-3.3,0-4.9-1.6-4.9-4.9v-6.1h-0.6c-0.3,0-0.6-0.1-0.9-0.4s-0.4-0.5-0.4-0.9c0-0.3,0.1-0.6,0.4-0.9
				S394.2,343.6,394.6,343.6z"/>
			<path fill="#C34E2A" d="M412.6,353.4c0.4,0,0.7,0.1,0.9,0.4c0.2,0.2,0.4,0.5,0.4,0.9c0,0.4-0.1,0.7-0.4,0.9
				c-1.2,1.1-2.7,1.6-4.4,1.6c-1.9,0-3.5-0.7-4.8-2c-1.3-1.3-2-2.9-2-4.8s0.7-3.5,2-4.8c1.3-1.3,2.9-2,4.8-2c1.9,0,3.4,0.7,4.8,2
				c0.7,0.7,1.2,1.4,1.5,2.2s0.5,1.7,0.5,2.6c0,0.4-0.1,0.7-0.4,0.9c-0.2,0.2-0.5,0.4-0.9,0.4H405c0.1,0.4,0.3,0.8,0.6,1.2
				c0.3,0.4,0.6,0.7,0.9,0.9c0.4,0.3,0.8,0.5,1.2,0.6c0.4,0.1,0.9,0.2,1.3,0.2c0.5,0,1-0.1,1.5-0.2c0.4-0.2,0.9-0.4,1.2-0.7
				C412,353.5,412.3,353.4,412.6,353.4z M413.2,349.2c-0.1-0.4-0.3-0.8-0.6-1.2c-0.3-0.4-0.6-0.7-0.9-0.9c-0.4-0.3-0.8-0.5-1.2-0.6
				c-0.4-0.1-0.9-0.2-1.3-0.2s-0.9,0.1-1.3,0.2c-0.4,0.1-0.8,0.3-1.2,0.6c-0.4,0.3-0.7,0.6-0.9,0.9c-0.3,0.4-0.5,0.8-0.6,1.2H413.2z
				"/>
			<path fill="#C34E2A" d="M436.9,355.9c0,0.4-0.1,0.7-0.4,0.9c-0.2,0.2-0.5,0.4-0.9,0.4c-0.4,0-0.7-0.1-0.9-0.4
				c-0.2-0.2-0.4-0.5-0.4-0.9V349c0-0.4-0.1-0.8-0.2-1.1c-0.1-0.3-0.4-0.7-0.6-0.9c-0.3-0.3-0.6-0.5-0.9-0.6
				c-0.4-0.2-0.7-0.2-1.1-0.2c-0.4,0-0.8,0.1-1.1,0.2c-0.3,0.2-0.7,0.4-0.9,0.6s-0.5,0.6-0.6,0.9s-0.2,0.7-0.2,1.1v6.9
				c0,0.4-0.1,0.7-0.4,0.9c-0.2,0.2-0.5,0.4-0.9,0.4c-0.4,0-0.7-0.1-0.9-0.4c-0.2-0.2-0.4-0.5-0.4-0.9V349c0-0.4-0.1-0.8-0.2-1.1
				c-0.2-0.3-0.4-0.6-0.6-0.9s-0.6-0.5-0.9-0.6c-0.3-0.2-0.7-0.2-1.1-0.2c-0.4,0-0.8,0.1-1.1,0.2c-0.3,0.1-0.7,0.4-0.9,0.6
				c-0.3,0.3-0.5,0.6-0.6,0.9c-0.1,0.3-0.2,0.7-0.2,1.1v6.9c0,0.4-0.1,0.7-0.4,0.9c-0.2,0.2-0.5,0.4-0.9,0.4c-0.4,0-0.7-0.1-0.9-0.4
				c-0.2-0.2-0.4-0.5-0.4-0.9v-11c0-0.3,0.1-0.6,0.4-0.9c0.2-0.2,0.5-0.4,0.9-0.4c0.3,0,0.5,0.1,0.7,0.2s0.4,0.4,0.4,0.6
				c0.9-0.6,1.8-0.9,2.9-0.9c0.8,0,1.6,0.2,2.3,0.5c0.7,0.3,1.3,0.8,1.9,1.4c1.1-1.3,2.5-1.9,4.1-1.9c0.7,0,1.4,0.1,2.1,0.4
				c0.7,0.3,1.2,0.7,1.7,1.2c0.5,0.5,0.9,1.1,1.2,1.7c0.3,0.7,0.4,1.4,0.4,2.1V355.9z"/>
			<path fill="#C34E2A" d="M441.5,350.7c-0.8-0.3-1.3-0.6-1.6-0.9h0c-0.6-0.6-0.9-1.3-0.9-2.2c0-0.6,0.2-1.2,0.5-1.7
				c0.3-0.5,0.8-0.9,1.3-1.3c0.5-0.3,1.1-0.6,1.8-0.8s1.3-0.3,2-0.3c2,0,3.7,0.8,5.2,2.4c0.2,0.2,0.3,0.5,0.3,0.8
				c0,0.4-0.1,0.7-0.4,0.9c-0.2,0.2-0.5,0.4-0.9,0.4c-0.3,0-0.5-0.1-0.7-0.2c-0.2-0.1-0.4-0.3-0.5-0.5c-0.8-0.8-1.8-1.2-3-1.2
				c-1.2,0-2.1,0.4-2.8,1.1c-0.1,0.1-0.2,0.3-0.2,0.5s0.1,0.4,0.3,0.5l5.6,1.9c0.8,0.3,1.3,0.6,1.6,0.9h0c0.6,0.6,0.9,1.3,0.9,2.2
				c0,0.6-0.2,1.2-0.5,1.7c-0.3,0.5-0.8,0.9-1.3,1.3c-0.5,0.4-1.1,0.6-1.8,0.8c-0.7,0.2-1.3,0.3-2,0.3c-2,0-3.8-0.8-5.2-2.4
				c-0.2-0.2-0.3-0.5-0.3-0.8c0-0.4,0.1-0.7,0.4-0.9c0.2-0.2,0.5-0.4,0.9-0.4c0.3,0,0.5,0.1,0.7,0.2c0.2,0.2,0.4,0.3,0.5,0.5
				c0.8,0.8,1.8,1.2,3,1.2c1.2,0,2.1-0.4,2.8-1.1c0.1-0.1,0.2-0.3,0.2-0.5c0-0.2-0.1-0.4-0.3-0.5L441.5,350.7z"/>
			<path fill="#221F1F" d="M165.1,387.8c-0.5-0.4-0.8-0.9-1-1.3c-0.2-0.4-0.3-0.9-0.3-1.4c0-0.6,0.1-1.2,0.3-1.7s0.6-0.9,1-1.3h0
				c0.7-0.6,1.6-0.9,2.5-0.9c0.3,0,0.6,0,0.9,0.1c0.3,0.1,0.6,0.2,0.9,0.4c0.3,0.2,0.6,0.4,0.8,0.6c0.3,0.2,0.5,0.5,0.7,0.8
				c0.1,0.2,0.1,0.3,0.1,0.5c0,0.1,0,0.3-0.1,0.4c0,0.1-0.1,0.2-0.2,0.3c-0.1,0.1-0.2,0.2-0.3,0.2c-0.1,0.1-0.3,0.1-0.4,0.1
				c-0.1,0-0.2,0-0.3-0.1c-0.1,0-0.2-0.1-0.3-0.2c-0.1-0.1-0.2-0.1-0.2-0.2c-0.1-0.1-0.1-0.2-0.2-0.3c-0.2-0.2-0.4-0.4-0.6-0.5
				c-0.3-0.1-0.5-0.2-0.8-0.2c-0.2,0-0.5,0-0.7,0.1c-0.2,0.1-0.4,0.2-0.6,0.4c-0.2,0.2-0.3,0.4-0.4,0.6c-0.1,0.2-0.2,0.5-0.2,0.8
				c0,0.5,0.1,0.9,0.4,1.1c0.3,0.3,0.7,0.5,1.4,0.7c1.1,0.3,2,0.7,2.6,1.3c0.6,0.6,1.1,1.1,1.3,1.6c0.2,0.5,0.3,1.1,0.3,1.7
				c0,1.5-0.5,2.7-1.6,3.6h0c-0.9,0.7-1.9,1.1-3,1.1c-0.4,0-0.7,0-1.1-0.1c-0.4-0.1-0.7-0.2-1.1-0.4s-0.7-0.4-1-0.7
				c-0.3-0.3-0.6-0.6-0.8-0.9c-0.1-0.2-0.2-0.4-0.2-0.6c0-0.1,0-0.3,0.1-0.4c0-0.1,0.1-0.2,0.2-0.3c0.1-0.1,0.2-0.2,0.3-0.2
				c0.1-0.1,0.3-0.1,0.4-0.1c0.4,0,0.6,0.2,0.8,0.5c0.3,0.4,0.6,0.7,1,0.9c0.4,0.2,0.8,0.3,1.3,0.3c0.4,0,0.7-0.1,1-0.2
				c0.3-0.1,0.6-0.3,0.8-0.6c0.2-0.2,0.4-0.5,0.6-0.8s0.2-0.7,0.2-1c0-0.3-0.1-0.7-0.2-1c-0.1-0.3-0.4-0.6-0.7-0.9
				c-0.4-0.3-0.9-0.6-1.7-0.8C166.3,388.6,165.6,388.2,165.1,387.8z"/>
			<path fill="#221F1F" d="M175.8,383.8c0,0.3-0.1,0.6-0.3,0.8c-0.2,0.2-0.5,0.3-0.8,0.3c-0.3,0-0.6-0.1-0.8-0.3
				c-0.2-0.2-0.3-0.5-0.3-0.8s0.1-0.6,0.3-0.8c0.2-0.2,0.5-0.3,0.8-0.3c0.3,0,0.6,0.1,0.8,0.3C175.7,383.2,175.8,383.4,175.8,383.8z
				 M173.7,395.2v-8.6c0-0.3,0.1-0.5,0.3-0.7s0.4-0.3,0.7-0.3s0.5,0.1,0.7,0.3s0.3,0.4,0.3,0.7v8.6c0,0.3-0.1,0.5-0.3,0.7
				c-0.2,0.2-0.4,0.3-0.7,0.3s-0.5-0.1-0.7-0.3C173.8,395.7,173.7,395.5,173.7,395.2z"/>
			<path fill="#221F1F" d="M192.5,395.2c0,0.3-0.1,0.5-0.3,0.7c-0.2,0.2-0.4,0.3-0.7,0.3c-0.3,0-0.5-0.1-0.7-0.3
				c-0.2-0.2-0.3-0.4-0.3-0.7v-5.4c0-0.3-0.1-0.6-0.2-0.9c-0.1-0.3-0.3-0.5-0.5-0.7c-0.2-0.2-0.4-0.4-0.7-0.5s-0.6-0.2-0.9-0.2
				c-0.3,0-0.6,0.1-0.9,0.2c-0.3,0.1-0.5,0.3-0.7,0.5s-0.4,0.4-0.5,0.7c-0.1,0.3-0.2,0.6-0.2,0.9v5.4c0,0.3-0.1,0.5-0.3,0.7
				c-0.2,0.2-0.4,0.3-0.7,0.3c-0.3,0-0.5-0.1-0.7-0.3c-0.2-0.2-0.3-0.4-0.3-0.7v-5.4c0-0.3-0.1-0.6-0.2-0.9
				c-0.1-0.3-0.3-0.5-0.5-0.7c-0.2-0.2-0.4-0.4-0.7-0.5s-0.6-0.2-0.9-0.2c-0.3,0-0.6,0.1-0.9,0.2s-0.5,0.3-0.7,0.5s-0.4,0.4-0.5,0.7
				c-0.1,0.3-0.2,0.6-0.2,0.9v5.4c0,0.3-0.1,0.5-0.3,0.7c-0.2,0.2-0.4,0.3-0.7,0.3c-0.3,0-0.5-0.1-0.7-0.3c-0.2-0.2-0.3-0.4-0.3-0.7
				v-8.6c0-0.3,0.1-0.5,0.3-0.7s0.4-0.3,0.7-0.3c0.2,0,0.4,0.1,0.6,0.2s0.3,0.3,0.3,0.5c0.7-0.4,1.4-0.7,2.3-0.7
				c0.6,0,1.2,0.1,1.8,0.4c0.6,0.2,1,0.6,1.4,1.1c0.9-1,1.9-1.5,3.2-1.5c0.6,0,1.1,0.1,1.6,0.3c0.5,0.2,1,0.5,1.3,0.9
				c0.4,0.4,0.7,0.8,0.9,1.3c0.2,0.5,0.3,1.1,0.3,1.6V395.2z"/>
			<path fill="#221F1F" d="M204.8,390.9c0,1.5-0.5,2.7-1.5,3.7c-1,1-2.3,1.5-3.7,1.5c-1.5,0-2.7-0.5-3.7-1.5c-1-1-1.5-2.3-1.5-3.7
				s0.5-2.7,1.5-3.7c1-1,2.3-1.5,3.7-1.5c1.4,0,2.7,0.5,3.7,1.5c0.5,0.5,0.9,1.1,1.2,1.7S204.7,390.2,204.8,390.9z M199.5,387.6
				c-0.5,0-0.9,0.1-1.3,0.3c-0.4,0.2-0.8,0.4-1,0.7c-0.3,0.3-0.5,0.6-0.7,1.1c-0.2,0.4-0.3,0.8-0.3,1.3s0.1,0.9,0.3,1.3
				c0.2,0.4,0.4,0.8,0.7,1c0.3,0.3,0.6,0.5,1,0.7c0.4,0.2,0.8,0.3,1.3,0.3c0.5,0,0.9-0.1,1.3-0.3s0.8-0.4,1-0.7
				c0.3-0.3,0.5-0.7,0.7-1c0.2-0.4,0.3-0.8,0.3-1.3s-0.1-0.9-0.3-1.3c-0.2-0.4-0.4-0.7-0.7-1.1c-0.3-0.3-0.6-0.5-1-0.7
				S199.9,387.6,199.5,387.6z"/>
			<path fill="#221F1F" d="M208.2,386.6c0.8-0.6,1.8-1,2.9-1c0.7,0,1.3,0.1,1.9,0.4c0.6,0.3,1.1,0.6,1.6,1.1s0.8,1,1.1,1.6
				s0.4,1.2,0.4,1.9v4.6c0,0.3-0.1,0.5-0.3,0.7c-0.2,0.2-0.4,0.3-0.7,0.3c-0.3,0-0.5-0.1-0.7-0.3c-0.2-0.2-0.3-0.4-0.3-0.7v-4.6
				c0-0.4-0.1-0.8-0.2-1.1c-0.2-0.4-0.4-0.7-0.6-0.9c-0.3-0.3-0.6-0.5-0.9-0.6s-0.7-0.2-1.1-0.2c-0.4,0-0.8,0.1-1.1,0.2
				c-0.4,0.2-0.7,0.4-0.9,0.6c-0.3,0.3-0.5,0.6-0.6,0.9s-0.2,0.7-0.2,1.1v4.6c0,0.3-0.1,0.5-0.3,0.7c-0.2,0.2-0.4,0.3-0.7,0.3
				c-0.3,0-0.5-0.1-0.7-0.3c-0.2-0.2-0.3-0.4-0.3-0.7v-8.6c0-0.3,0.1-0.5,0.3-0.7s0.4-0.3,0.7-0.3c0.3,0,0.5,0.1,0.7,0.3
				C208.1,386.1,208.2,386.3,208.2,386.6z"/>
			<path fill="#221F1F" d="M223.1,382.1c0-0.3,0.1-0.5,0.3-0.7c0.2-0.2,0.4-0.3,0.7-0.3s0.5,0.1,0.7,0.3c0.2,0.2,0.3,0.4,0.3,0.7
				v5.6l6.3-6.3c0.2-0.2,0.4-0.3,0.7-0.3c0.1,0,0.3,0,0.4,0.1c0.1,0,0.2,0.1,0.3,0.2c0.1,0.1,0.2,0.2,0.2,0.3c0,0.1,0.1,0.3,0.1,0.4
				c0,0.3-0.1,0.5-0.3,0.7l-4.9,4.9l5,6.8c0.1,0.2,0.2,0.4,0.2,0.6c0,0.1,0,0.3-0.1,0.4c-0.1,0.1-0.1,0.2-0.2,0.3
				c-0.1,0.1-0.2,0.2-0.3,0.2s-0.2,0.1-0.4,0.1c-0.4,0-0.6-0.1-0.8-0.4l-4.8-6.6l-1.3,1.3v4.7c0,0.3-0.1,0.5-0.3,0.7
				c-0.2,0.2-0.4,0.3-0.7,0.3s-0.5-0.1-0.7-0.3c-0.2-0.2-0.3-0.4-0.3-0.7V382.1z"/>
			<path fill="#221F1F" d="M244.5,390.9c0,1.5-0.5,2.7-1.5,3.7c-1,1-2.3,1.5-3.7,1.5c-1.5,0-2.7-0.5-3.7-1.5c-1-1-1.5-2.3-1.5-3.7
				s0.5-2.7,1.5-3.7c1-1,2.3-1.5,3.7-1.5c1.4,0,2.7,0.5,3.7,1.5c0.5,0.5,0.9,1.1,1.2,1.7S244.5,390.2,244.5,390.9z M239.3,387.6
				c-0.5,0-0.9,0.1-1.3,0.3c-0.4,0.2-0.8,0.4-1,0.7c-0.3,0.3-0.5,0.6-0.7,1.1c-0.2,0.4-0.3,0.8-0.3,1.3s0.1,0.9,0.3,1.3
				c0.2,0.4,0.4,0.8,0.7,1c0.3,0.3,0.6,0.5,1,0.7c0.4,0.2,0.8,0.3,1.3,0.3c0.5,0,0.9-0.1,1.3-0.3c0.4-0.2,0.8-0.4,1-0.7
				c0.3-0.3,0.5-0.7,0.7-1s0.3-0.8,0.3-1.3s-0.1-0.9-0.3-1.3c-0.2-0.4-0.4-0.7-0.7-1.1s-0.6-0.5-1-0.7
				C240.2,387.7,239.7,387.6,239.3,387.6z"/>
			<path fill="#221F1F" d="M256.6,390.9c0,1.5-0.5,2.7-1.5,3.7c-1,1-2.3,1.5-3.7,1.5c-1.5,0-2.7-0.5-3.7-1.5c-1-1-1.5-2.3-1.5-3.7
				s0.5-2.7,1.5-3.7c1-1,2.3-1.5,3.7-1.5c1.4,0,2.7,0.5,3.7,1.5c0.5,0.5,0.9,1.1,1.2,1.7S256.6,390.2,256.6,390.9z M251.3,387.6
				c-0.5,0-0.9,0.1-1.3,0.3c-0.4,0.2-0.8,0.4-1,0.7c-0.3,0.3-0.5,0.6-0.7,1.1c-0.2,0.4-0.3,0.8-0.3,1.3s0.1,0.9,0.3,1.3
				c0.2,0.4,0.4,0.8,0.7,1c0.3,0.3,0.6,0.5,1,0.7c0.4,0.2,0.8,0.3,1.3,0.3c0.5,0,0.9-0.1,1.3-0.3c0.4-0.2,0.8-0.4,1-0.7
				c0.3-0.3,0.5-0.7,0.7-1s0.3-0.8,0.3-1.3s-0.1-0.9-0.3-1.3c-0.2-0.4-0.4-0.7-0.7-1.1s-0.6-0.5-1-0.7
				C252.2,387.7,251.8,387.6,251.3,387.6z"/>
			<path fill="#221F1F" d="M261.5,395.2l-3.4-8.1c-0.1-0.1-0.1-0.3-0.1-0.4c0-0.1,0-0.3,0.1-0.4c0.1-0.1,0.1-0.2,0.2-0.3
				s0.2-0.2,0.3-0.2c0.1,0,0.2-0.1,0.4-0.1c0.2,0,0.4,0.1,0.5,0.2c0.2,0.1,0.3,0.3,0.4,0.5l2.6,6.3l2.6-6.3c0.1-0.2,0.2-0.3,0.3-0.5
				s0.3-0.2,0.6-0.2c0.1,0,0.3,0,0.4,0.1c0.1,0.1,0.2,0.1,0.3,0.2s0.2,0.2,0.2,0.3c0.1,0.1,0.1,0.2,0.1,0.4c0,0.1,0,0.3-0.1,0.4
				l-5.4,13c-0.1,0.2-0.2,0.4-0.4,0.5c-0.2,0.1-0.4,0.2-0.6,0.2c-0.3,0-0.5-0.1-0.7-0.3s-0.3-0.4-0.3-0.7c0-0.2,0-0.3,0.1-0.4
				L261.5,395.2z"/>
			<path fill="#221F1F" d="M283.5,395.2c0,0.3-0.1,0.5-0.3,0.7c-0.2,0.2-0.4,0.3-0.7,0.3c-0.3,0-0.5-0.1-0.7-0.3
				c-0.2-0.2-0.3-0.4-0.3-0.7v-5.4c0-0.3-0.1-0.6-0.2-0.9c-0.1-0.3-0.3-0.5-0.5-0.7c-0.2-0.2-0.4-0.4-0.7-0.5
				c-0.3-0.1-0.6-0.2-0.9-0.2c-0.3,0-0.6,0.1-0.9,0.2s-0.5,0.3-0.7,0.5c-0.2,0.2-0.4,0.4-0.5,0.7c-0.1,0.3-0.2,0.6-0.2,0.9v5.4
				c0,0.3-0.1,0.5-0.3,0.7c-0.2,0.2-0.4,0.3-0.7,0.3c-0.3,0-0.5-0.1-0.7-0.3c-0.2-0.2-0.3-0.4-0.3-0.7v-5.4c0-0.3-0.1-0.6-0.2-0.9
				c-0.1-0.3-0.3-0.5-0.5-0.7s-0.4-0.4-0.7-0.5s-0.6-0.2-0.9-0.2s-0.6,0.1-0.9,0.2s-0.5,0.3-0.7,0.5c-0.2,0.2-0.4,0.4-0.5,0.7
				c-0.1,0.3-0.2,0.6-0.2,0.9v5.4c0,0.3-0.1,0.5-0.3,0.7c-0.2,0.2-0.4,0.3-0.7,0.3c-0.3,0-0.5-0.1-0.7-0.3c-0.2-0.2-0.3-0.4-0.3-0.7
				v-8.6c0-0.3,0.1-0.5,0.3-0.7s0.4-0.3,0.7-0.3c0.2,0,0.4,0.1,0.6,0.2c0.2,0.1,0.3,0.3,0.3,0.5c0.7-0.4,1.4-0.7,2.3-0.7
				c0.6,0,1.2,0.1,1.8,0.4c0.6,0.2,1,0.6,1.4,1.1c0.9-1,1.9-1.5,3.2-1.5c0.6,0,1.1,0.1,1.6,0.3c0.5,0.2,1,0.5,1.3,0.9
				c0.4,0.4,0.7,0.8,0.9,1.3s0.3,1.1,0.3,1.6V395.2z"/>
			<path fill="#221F1F" d="M293.7,395.2V395c-0.5,0.4-1,0.7-1.5,0.9c-0.6,0.2-1.1,0.3-1.8,0.3c-1.5,0-2.7-0.5-3.7-1.5
				s-1.5-2.3-1.5-3.7s0.5-2.7,1.5-3.7s2.3-1.5,3.7-1.5c1.4,0,2.7,0.5,3.7,1.5c1,1,1.5,2.3,1.5,3.7v4.3c0,0.3-0.1,0.5-0.3,0.7
				c-0.2,0.2-0.4,0.3-0.7,0.3c-0.3,0-0.5-0.1-0.7-0.3C293.8,395.7,293.7,395.5,293.7,395.2z M290.4,387.6c-0.5,0-0.9,0.1-1.3,0.3
				s-0.7,0.4-1,0.7c-0.3,0.3-0.5,0.6-0.7,1.1s-0.3,0.8-0.3,1.3s0.1,0.9,0.3,1.3c0.2,0.4,0.4,0.8,0.7,1c0.3,0.3,0.6,0.5,1,0.7
				s0.8,0.3,1.3,0.3c0.5,0,0.9-0.1,1.3-0.3c0.4-0.2,0.8-0.4,1-0.7c0.3-0.3,0.5-0.7,0.7-1s0.3-0.8,0.3-1.3s-0.1-0.9-0.3-1.3
				c-0.2-0.4-0.4-0.7-0.7-1.1s-0.6-0.5-1-0.7C291.3,387.7,290.9,387.6,290.4,387.6z"/>
			<path fill="#221F1F" d="M299.1,386.6c0.8-0.6,1.8-1,2.9-1c0.7,0,1.3,0.1,1.9,0.4c0.6,0.3,1.1,0.6,1.6,1.1s0.8,1,1.1,1.6
				c0.3,0.6,0.4,1.2,0.4,1.9v4.6c0,0.3-0.1,0.5-0.3,0.7c-0.2,0.2-0.4,0.3-0.7,0.3c-0.3,0-0.5-0.1-0.7-0.3c-0.2-0.2-0.3-0.4-0.3-0.7
				v-4.6c0-0.4-0.1-0.8-0.2-1.1c-0.2-0.4-0.4-0.7-0.6-0.9c-0.3-0.3-0.6-0.5-0.9-0.6s-0.7-0.2-1.1-0.2c-0.4,0-0.8,0.1-1.1,0.2
				c-0.4,0.2-0.7,0.4-0.9,0.6c-0.3,0.3-0.5,0.6-0.6,0.9c-0.2,0.4-0.2,0.7-0.2,1.1v4.6c0,0.3-0.1,0.5-0.3,0.7
				c-0.2,0.2-0.4,0.3-0.7,0.3c-0.3,0-0.5-0.1-0.7-0.3c-0.2-0.2-0.3-0.4-0.3-0.7v-8.6c0-0.3,0.1-0.5,0.3-0.7s0.4-0.3,0.7-0.3
				c0.3,0,0.5,0.1,0.7,0.3C299,386.1,299.1,386.3,299.1,386.6z"/>
			<path fill="#221F1F" d="M310.4,391.2c-0.6-0.2-1-0.5-1.2-0.7h0c-0.5-0.5-0.7-1.1-0.7-1.7c0-0.5,0.1-0.9,0.4-1.3
				c0.3-0.4,0.6-0.7,1-1c0.4-0.3,0.9-0.5,1.4-0.6c0.5-0.1,1-0.2,1.5-0.2c1.6,0,2.9,0.6,4,1.9c0.1,0.2,0.2,0.4,0.2,0.6
				c0,0.3-0.1,0.5-0.3,0.7c-0.2,0.2-0.4,0.3-0.7,0.3c-0.2,0-0.4-0.1-0.5-0.2c-0.1-0.1-0.3-0.2-0.4-0.4c-0.6-0.6-1.4-1-2.3-1
				c-0.9,0-1.6,0.3-2.2,0.8c-0.1,0.1-0.2,0.2-0.2,0.4s0.1,0.3,0.2,0.4l4.4,1.5c0.6,0.2,1,0.5,1.2,0.7h0c0.5,0.5,0.7,1.1,0.7,1.7
				c0,0.5-0.1,0.9-0.4,1.3c-0.3,0.4-0.6,0.7-1,1c-0.4,0.3-0.9,0.5-1.4,0.6s-1,0.2-1.5,0.2c-1.6,0-2.9-0.6-4-1.9
				c-0.1-0.2-0.2-0.4-0.2-0.6c0-0.3,0.1-0.5,0.3-0.7c0.2-0.2,0.4-0.3,0.7-0.3c0.2,0,0.4,0.1,0.5,0.2s0.3,0.2,0.4,0.4
				c0.6,0.6,1.4,1,2.3,1c0.9,0,1.6-0.3,2.2-0.8c0.1-0.1,0.1-0.2,0.1-0.4c0-0.2-0.1-0.3-0.3-0.4L310.4,391.2z"/>
			<path fill="#221F1F" d="M163.2,406.7c0-0.6,0.1-1.2,0.4-1.8s0.6-1,1-1.5c0.4-0.4,0.9-0.7,1.4-1s1.1-0.4,1.8-0.4
				c0.6,0,1.2,0.1,1.8,0.4c0.6,0.2,1,0.6,1.4,1c0.4,0.4,0.7,0.9,1,1.5c0.2,0.6,0.4,1.1,0.4,1.8c0,0.6-0.1,1.2-0.3,1.8s-0.6,1-1,1.5
				l-4.6,5.3h4.9c0.3,0,0.5,0.1,0.7,0.3c0.2,0.2,0.3,0.4,0.3,0.7c0,0.3-0.1,0.5-0.3,0.7c-0.2,0.2-0.4,0.3-0.7,0.3h-7.1
				c-0.1,0-0.3,0-0.4-0.1c-0.1-0.1-0.2-0.1-0.3-0.2c-0.1-0.1-0.2-0.2-0.2-0.3c-0.1-0.1-0.1-0.2-0.1-0.4c0-0.3,0.1-0.5,0.3-0.7l6.1-7
				c0.5-0.5,0.8-1.1,0.8-1.9c0-0.4-0.1-0.7-0.2-1c-0.1-0.3-0.3-0.6-0.6-0.8c-0.2-0.2-0.5-0.4-0.8-0.6c-0.3-0.1-0.6-0.2-1-0.2
				c-0.4,0-0.7,0.1-1,0.2s-0.6,0.3-0.8,0.6c-0.2,0.2-0.4,0.5-0.6,0.8c-0.1,0.3-0.2,0.7-0.2,1c0,0.3-0.1,0.5-0.3,0.7
				s-0.4,0.3-0.7,0.3c-0.3,0-0.5-0.1-0.7-0.3S163.2,407,163.2,406.7z"/>
			<path fill="#221F1F" d="M173.7,409.6c0-1.2,0.1-2.2,0.3-3.2s0.5-1.7,0.9-2.4c0.4-0.6,0.9-1.1,1.4-1.5c0.6-0.3,1.2-0.5,2-0.5
				s1.4,0.2,2,0.5c0.6,0.3,1.1,0.8,1.4,1.5c0.4,0.7,0.7,1.4,0.9,2.4c0.2,0.9,0.3,2,0.3,3.2s-0.1,2.2-0.3,3.2
				c-0.2,0.9-0.5,1.7-0.9,2.4c-0.4,0.6-0.9,1.1-1.4,1.5c-0.6,0.3-1.2,0.5-2,0.5s-1.4-0.2-2-0.5c-0.6-0.3-1.1-0.8-1.4-1.5
				c-0.4-0.6-0.7-1.4-0.9-2.4C173.8,411.9,173.7,410.8,173.7,409.6z M178.3,404.1c-0.4,0-0.8,0.1-1.2,0.4c-0.3,0.3-0.6,0.7-0.8,1.2
				s-0.4,1.1-0.5,1.8s-0.2,1.4-0.2,2.2c0,0.8,0.1,1.5,0.2,2.2c0.1,0.7,0.3,1.3,0.5,1.8c0.2,0.5,0.5,0.9,0.8,1.1
				c0.3,0.3,0.7,0.4,1.1,0.4c0.4,0,0.8-0.1,1.2-0.4c0.3-0.3,0.6-0.7,0.8-1.2c0.2-0.5,0.4-1.1,0.5-1.8c0.1-0.7,0.2-1.4,0.2-2.2
				c0-0.8-0.1-1.5-0.2-2.2c-0.1-0.7-0.3-1.3-0.5-1.8s-0.5-0.9-0.8-1.2C179.1,404.2,178.7,404.1,178.3,404.1z"/>
			<path fill="#221F1F" d="M186.2,416.2v-11.7c-0.2,0.1-0.4,0.1-0.6,0.2c-0.2,0.1-0.4,0.1-0.6,0.1c-0.3,0-0.5-0.1-0.7-0.3
				c-0.2-0.2-0.3-0.4-0.3-0.7c0-0.2,0.1-0.4,0.2-0.5c0.1-0.2,0.3-0.3,0.5-0.4l2.2-0.7c0.1,0,0.2-0.1,0.3-0.1c0.3,0,0.5,0.1,0.7,0.3
				c0.2,0.2,0.3,0.4,0.3,0.7v13.1c0,0.3-0.1,0.5-0.3,0.7c-0.2,0.2-0.4,0.3-0.7,0.3c-0.3,0-0.5-0.1-0.7-0.3
				C186.3,416.7,186.2,416.5,186.2,416.2z"/>
			<path fill="#221F1F" d="M195.9,416.2v-2.8h-5.4c-0.3,0-0.5-0.1-0.7-0.3c-0.2-0.2-0.3-0.4-0.3-0.7c0-0.2,0.1-0.4,0.2-0.6l6.4-9.3
				c0.1-0.1,0.2-0.2,0.3-0.3c0.1-0.1,0.3-0.1,0.5-0.1c0.1,0,0.3,0,0.4,0.1c0.1,0.1,0.2,0.1,0.3,0.2s0.2,0.2,0.2,0.3
				c0,0.1,0.1,0.2,0.1,0.4v8.3h1.2c0.3,0,0.5,0.1,0.7,0.3c0.2,0.2,0.3,0.4,0.3,0.7s-0.1,0.5-0.3,0.7c-0.2,0.2-0.4,0.3-0.7,0.3h-1.2
				v2.8c0,0.3-0.1,0.5-0.3,0.7c-0.2,0.2-0.4,0.3-0.7,0.3c-0.3,0-0.5-0.1-0.7-0.3C196,416.7,195.9,416.5,195.9,416.2z M195.9,411.4
				v-5.2l-3.6,5.2H195.9z"/>
		</g>
		<line fill="none" stroke="#221F1F" stroke-width="0.9905" stroke-miterlimit="10" x1="142.7" y1="313.2" x2="142.7" y2="415.5"/>
	</g>
	<g>
		<path fill="#221F1F" d="M585.4,649.7v8.1h-1v-8.1H585.4z"/>
		<path fill="#221F1F" d="M587.3,653.6c0-0.6,0-1.1,0-1.6h0.9l0,0.9h0c0.3-0.6,0.9-1.1,1.8-1.1c0.8,0,1.4,0.5,1.6,1.2h0
			c0.2-0.3,0.4-0.6,0.6-0.8c0.3-0.3,0.7-0.4,1.3-0.4c0.8,0,1.9,0.5,1.9,2.5v3.4h-1v-3.3c0-1.1-0.4-1.8-1.3-1.8c-0.6,0-1.1,0.4-1.2,1
			c0,0.1-0.1,0.3-0.1,0.5v3.6h-1v-3.5c0-0.9-0.4-1.6-1.2-1.6c-0.7,0-1.1,0.5-1.3,1.1c-0.1,0.2-0.1,0.3-0.1,0.5v3.5h-1V653.6z"/>
		<path fill="#221F1F" d="M600.5,657.8l-0.1-0.7h0c-0.3,0.5-0.9,0.9-1.8,0.9c-1.2,0-1.8-0.8-1.8-1.7c0-1.4,1.2-2.2,3.5-2.2V654
			c0-0.5-0.1-1.3-1.3-1.3c-0.5,0-1.1,0.2-1.5,0.4l-0.2-0.7c0.5-0.3,1.2-0.5,1.9-0.5c1.8,0,2.2,1.2,2.2,2.4v2.2c0,0.5,0,1,0.1,1.4
			H600.5z M600.4,654.8c-1.2,0-2.5,0.2-2.5,1.3c0,0.7,0.5,1,1,1c0.8,0,1.2-0.5,1.4-1c0-0.1,0.1-0.2,0.1-0.3V654.8z"/>
		<path fill="#221F1F" d="M608.1,652c0,0.4,0,0.9,0,1.6v3.4c0,1.3-0.3,2.1-0.8,2.7c-0.6,0.5-1.4,0.7-2.1,0.7c-0.7,0-1.5-0.2-1.9-0.5
			l0.3-0.8c0.4,0.2,1,0.5,1.7,0.5c1.1,0,1.9-0.6,1.9-2v-0.6h0c-0.3,0.5-0.9,1-1.8,1c-1.4,0-2.5-1.2-2.5-2.8c0-2,1.3-3.1,2.6-3.1
			c1,0,1.6,0.5,1.8,1h0l0-0.9H608.1z M607,654.3c0-0.2,0-0.3-0.1-0.5c-0.2-0.6-0.7-1.1-1.5-1.1c-1,0-1.7,0.9-1.7,2.2
			c0,1.1,0.6,2.1,1.7,2.1c0.6,0,1.2-0.4,1.5-1.1c0.1-0.2,0.1-0.4,0.1-0.6V654.3z"/>
		<path fill="#221F1F" d="M610.4,655.1c0,1.4,0.9,2,2,2c0.8,0,1.2-0.1,1.6-0.3l0.2,0.8c-0.4,0.2-1,0.4-1.9,0.4
			c-1.8,0-2.9-1.2-2.9-2.9c0-1.8,1-3.1,2.7-3.1c1.9,0,2.4,1.7,2.4,2.7c0,0.2,0,0.4,0,0.5H610.4z M613.5,654.3c0-0.7-0.3-1.7-1.5-1.7
			c-1.1,0-1.5,1-1.6,1.7H613.5z"/>
		<path fill="#221F1F" d="M618.2,656.7c0.3,0.2,0.9,0.4,1.4,0.4c0.8,0,1.1-0.4,1.1-0.9c0-0.5-0.3-0.8-1.1-1.1
			c-1-0.4-1.5-0.9-1.5-1.6c0-0.9,0.8-1.7,2-1.7c0.6,0,1.1,0.2,1.4,0.4l-0.3,0.8c-0.2-0.1-0.6-0.3-1.2-0.3c-0.6,0-1,0.4-1,0.8
			c0,0.5,0.3,0.7,1.1,1c1,0.4,1.5,0.9,1.5,1.8c0,1-0.8,1.7-2.2,1.7c-0.6,0-1.2-0.2-1.6-0.4L618.2,656.7z"/>
		<path fill="#221F1F" d="M628.4,654.9c0,2.1-1.5,3.1-2.9,3.1c-1.6,0-2.8-1.2-2.8-3c0-1.9,1.3-3.1,2.9-3.1
			C627.2,651.9,628.4,653.1,628.4,654.9z M623.8,654.9c0,1.3,0.7,2.2,1.8,2.2c1,0,1.8-0.9,1.8-2.3c0-1-0.5-2.2-1.7-2.2
			C624.3,652.7,623.8,653.8,623.8,654.9z"/>
		<path fill="#221F1F" d="M634.6,656.2c0,0.6,0,1.1,0,1.6h-0.9l-0.1-0.9h0c-0.3,0.5-0.9,1.1-1.9,1.1c-0.9,0-2-0.5-2-2.5V652h1.1v3.2
			c0,1.1,0.3,1.8,1.3,1.8c0.7,0,1.2-0.5,1.4-1c0.1-0.2,0.1-0.3,0.1-0.5V652h1.1V656.2z"/>
		<path fill="#221F1F" d="M636.3,653.8c0-0.7,0-1.3,0-1.8h0.9l0,1.1h0c0.3-0.8,0.9-1.3,1.6-1.3c0.1,0,0.2,0,0.3,0v1
			c-0.1,0-0.2,0-0.4,0c-0.7,0-1.3,0.6-1.4,1.4c0,0.1,0,0.3,0,0.5v3.1h-1V653.8z"/>
		<path fill="#221F1F" d="M644.3,657.6c-0.3,0.1-0.9,0.3-1.7,0.3c-1.8,0-2.9-1.2-2.9-3c0-1.8,1.2-3.1,3.1-3.1c0.6,0,1.2,0.2,1.5,0.3
			L644,653c-0.3-0.1-0.6-0.3-1.2-0.3c-1.3,0-2.1,1-2.1,2.2c0,1.3,0.9,2.2,2,2.2c0.6,0,1-0.2,1.3-0.3L644.3,657.6z"/>
		<path fill="#221F1F" d="M646,655.1c0,1.4,0.9,2,2,2c0.8,0,1.2-0.1,1.6-0.3l0.2,0.8c-0.4,0.2-1,0.4-1.9,0.4c-1.8,0-2.9-1.2-2.9-2.9
			c0-1.8,1-3.1,2.7-3.1c1.9,0,2.4,1.7,2.4,2.7c0,0.2,0,0.4,0,0.5H646z M649.1,654.3c0-0.7-0.3-1.7-1.5-1.7c-1.1,0-1.5,1-1.6,1.7
			H649.1z"/>
		<path fill="#221F1F" d="M651.2,653c0-0.4,0.3-0.8,0.7-0.8c0.4,0,0.7,0.3,0.7,0.8c0,0.4-0.3,0.7-0.7,0.7
			C651.5,653.7,651.2,653.4,651.2,653z M651.2,657.2c0-0.4,0.3-0.8,0.7-0.8c0.4,0,0.7,0.3,0.7,0.8c0,0.4-0.3,0.7-0.7,0.7
			C651.5,657.9,651.2,657.6,651.2,657.2z"/>
		<path fill="#221F1F" d="M656.5,649.3h1.1v3.6h0c0.2-0.3,0.4-0.6,0.8-0.7c0.3-0.2,0.7-0.3,1.1-0.3c0.8,0,2,0.5,2,2.5v3.5h-1.1v-3.3
			c0-0.9-0.3-1.7-1.3-1.7c-0.7,0-1.2,0.5-1.4,1.1c-0.1,0.1-0.1,0.3-0.1,0.5v3.5h-1.1V649.3z"/>
		<path fill="#221F1F" d="M664.3,650.3v1.7h1.5v0.8h-1.5v3.1c0,0.7,0.2,1.1,0.8,1.1c0.3,0,0.5,0,0.6-0.1l0,0.8
			c-0.2,0.1-0.5,0.1-0.9,0.1c-0.5,0-0.9-0.2-1.1-0.4c-0.3-0.3-0.4-0.8-0.4-1.5v-3.2h-0.9V652h0.9v-1.4L664.3,650.3z"/>
		<path fill="#221F1F" d="M668.3,650.3v1.7h1.5v0.8h-1.5v3.1c0,0.7,0.2,1.1,0.8,1.1c0.3,0,0.5,0,0.6-0.1l0,0.8
			c-0.2,0.1-0.5,0.1-0.9,0.1c-0.5,0-0.9-0.2-1.1-0.4c-0.3-0.3-0.4-0.8-0.4-1.5v-3.2h-0.9V652h0.9v-1.4L668.3,650.3z"/>
		<path fill="#221F1F" d="M671,653.9c0-0.7,0-1.3,0-1.9h0.9l0,1h0c0.4-0.7,1.1-1.1,2.1-1.1c1.4,0,2.5,1.2,2.5,3
			c0,2.1-1.3,3.1-2.6,3.1c-0.8,0-1.4-0.3-1.8-0.9h0v3.2h-1V653.9z M672.1,655.4c0,0.2,0,0.3,0,0.4c0.2,0.7,0.8,1.2,1.6,1.2
			c1.1,0,1.8-0.9,1.8-2.2c0-1.2-0.6-2.2-1.7-2.2c-0.7,0-1.4,0.5-1.6,1.3c0,0.1-0.1,0.3-0.1,0.4V655.4z"/>
		<path fill="#221F1F" d="M677.6,653c0-0.4,0.3-0.8,0.7-0.8c0.4,0,0.7,0.3,0.7,0.8c0,0.4-0.3,0.7-0.7,0.7
			C677.9,653.7,677.6,653.4,677.6,653z M677.6,657.2c0-0.4,0.3-0.8,0.7-0.8c0.4,0,0.7,0.3,0.7,0.8c0,0.4-0.3,0.7-0.7,0.7
			C677.9,657.9,677.6,657.6,677.6,657.2z"/>
		<path fill="#221F1F" d="M679.4,658.3l3.3-8.7h0.8l-3.4,8.7H679.4z"/>
		<path fill="#221F1F" d="M683.6,658.3l3.3-8.7h0.8l-3.4,8.7H683.6z"/>
		<path fill="#221F1F" d="M689,652l0.8,2.9c0.2,0.6,0.3,1.2,0.4,1.8h0c0.1-0.6,0.3-1.2,0.5-1.8l0.9-3h0.9l0.9,2.9
			c0.2,0.7,0.4,1.3,0.5,1.9h0c0.1-0.6,0.3-1.2,0.4-1.9l0.8-2.9h1l-1.9,5.8h-1l-0.9-2.8c-0.2-0.6-0.4-1.2-0.5-1.9h0
			c-0.1,0.7-0.3,1.3-0.5,1.9l-0.9,2.8h-1l-1.8-5.8H689z"/>
		<path fill="#221F1F" d="M698,652l0.8,2.9c0.2,0.6,0.3,1.2,0.4,1.8h0c0.1-0.6,0.3-1.2,0.5-1.8l0.9-3h0.9l0.9,2.9
			c0.2,0.7,0.4,1.3,0.5,1.9h0c0.1-0.6,0.3-1.2,0.4-1.9l0.8-2.9h1l-1.9,5.8h-1l-0.9-2.8c-0.2-0.6-0.4-1.2-0.5-1.9h0
			c-0.1,0.7-0.3,1.3-0.5,1.9l-0.9,2.8h-1l-1.8-5.8H698z"/>
		<path fill="#221F1F" d="M706.9,652l0.8,2.9c0.2,0.6,0.3,1.2,0.4,1.8h0c0.1-0.6,0.3-1.2,0.5-1.8l0.9-3h0.9l0.9,2.9
			c0.2,0.7,0.4,1.3,0.5,1.9h0c0.1-0.6,0.3-1.2,0.4-1.9l0.8-2.9h1l-1.9,5.8h-1l-0.9-2.8c-0.2-0.6-0.4-1.2-0.5-1.9h0
			c-0.1,0.7-0.3,1.3-0.5,1.9l-0.9,2.8h-1l-1.8-5.8H706.9z"/>
		<path fill="#221F1F" d="M714.6,657.2c0-0.4,0.3-0.8,0.7-0.8c0.4,0,0.7,0.3,0.7,0.8c0,0.4-0.3,0.8-0.7,0.8
			C714.9,657.9,714.6,657.6,714.6,657.2z"/>
		<path fill="#221F1F" d="M721.3,656.9L721.3,656.9c-0.3,0.6-1,1-1.9,1c-1.4,0-2.5-1.2-2.5-2.9c0-2.2,1.4-3.1,2.6-3.1
			c0.9,0,1.5,0.4,1.8,1h0l0-0.9h1c0,0.5,0,1,0,1.6v6.6h-1.1V656.9z M721.3,654.4c0-0.1,0-0.3,0-0.4c-0.2-0.6-0.7-1.2-1.5-1.2
			c-1.1,0-1.8,0.9-1.8,2.2c0,1.2,0.6,2.2,1.7,2.2c0.7,0,1.3-0.4,1.5-1.2c0-0.1,0.1-0.3,0.1-0.5V654.4z"/>
		<path fill="#221F1F" d="M729,656.2c0,0.6,0,1.1,0,1.6h-0.9l-0.1-0.9h0c-0.3,0.5-0.9,1.1-1.9,1.1c-0.9,0-2-0.5-2-2.5V652h1.1v3.2
			c0,1.1,0.3,1.8,1.3,1.8c0.7,0,1.2-0.5,1.4-1c0.1-0.2,0.1-0.3,0.1-0.5V652h1.1V656.2z"/>
		<path fill="#221F1F" d="M731.3,655.1c0,1.4,0.9,2,2,2c0.8,0,1.2-0.1,1.6-0.3l0.2,0.8c-0.4,0.2-1,0.4-1.9,0.4
			c-1.8,0-2.9-1.2-2.9-2.9c0-1.8,1-3.1,2.7-3.1c1.9,0,2.4,1.7,2.4,2.7c0,0.2,0,0.4,0,0.5H731.3z M734.4,654.3c0-0.7-0.3-1.7-1.5-1.7
			c-1.1,0-1.5,1-1.6,1.7H734.4z"/>
		<path fill="#221F1F" d="M736.6,656.7c0.3,0.2,0.9,0.4,1.4,0.4c0.8,0,1.1-0.4,1.1-0.9c0-0.5-0.3-0.8-1.1-1.1
			c-1-0.4-1.5-0.9-1.5-1.6c0-0.9,0.8-1.7,2-1.7c0.6,0,1.1,0.2,1.4,0.4l-0.3,0.8c-0.2-0.1-0.6-0.3-1.2-0.3c-0.6,0-1,0.4-1,0.8
			c0,0.5,0.3,0.7,1.1,1c1,0.4,1.5,0.9,1.5,1.8c0,1-0.8,1.7-2.2,1.7c-0.6,0-1.2-0.2-1.6-0.4L736.6,656.7z"/>
		<path fill="#221F1F" d="M742.8,650.3v1.7h1.5v0.8h-1.5v3.1c0,0.7,0.2,1.1,0.8,1.1c0.3,0,0.5,0,0.6-0.1l0,0.8
			c-0.2,0.1-0.5,0.1-0.9,0.1c-0.5,0-0.9-0.2-1.1-0.4c-0.3-0.3-0.4-0.8-0.4-1.5v-3.2h-0.9V652h0.9v-1.4L742.8,650.3z"/>
		<path fill="#221F1F" d="M745.5,653.9c0-0.7,0-1.3,0-1.9h0.9l0,1h0c0.4-0.7,1.1-1.1,2.1-1.1c1.4,0,2.5,1.2,2.5,3
			c0,2.1-1.3,3.1-2.6,3.1c-0.8,0-1.4-0.3-1.8-0.9h0v3.2h-1V653.9z M746.5,655.4c0,0.2,0,0.3,0,0.4c0.2,0.7,0.8,1.2,1.6,1.2
			c1.1,0,1.8-0.9,1.8-2.2c0-1.2-0.6-2.2-1.7-2.2c-0.7,0-1.4,0.5-1.6,1.3c0,0.1-0.1,0.3-0.1,0.4V655.4z"/>
		<path fill="#221F1F" d="M755.5,657.8l-0.1-0.7h0c-0.3,0.5-0.9,0.9-1.8,0.9c-1.2,0-1.8-0.8-1.8-1.7c0-1.4,1.2-2.2,3.5-2.2V654
			c0-0.5-0.1-1.3-1.3-1.3c-0.5,0-1.1,0.2-1.5,0.4l-0.2-0.7c0.5-0.3,1.2-0.5,1.9-0.5c1.8,0,2.2,1.2,2.2,2.4v2.2c0,0.5,0,1,0.1,1.4
			H755.5z M755.3,654.8c-1.2,0-2.5,0.2-2.5,1.3c0,0.7,0.5,1,1,1c0.8,0,1.2-0.5,1.4-1c0-0.1,0.1-0.2,0.1-0.3V654.8z"/>
		<path fill="#221F1F" d="M758.4,652l1.3,3.4c0.1,0.4,0.3,0.8,0.4,1.2h0c0.1-0.3,0.2-0.8,0.4-1.2l1.2-3.4h1.1l-1.6,4.1
			c-0.8,2-1.3,3-2,3.6c-0.5,0.5-1,0.6-1.3,0.7l-0.3-0.9c0.3-0.1,0.6-0.3,0.9-0.5c0.3-0.2,0.6-0.6,0.9-1.2c0-0.1,0.1-0.2,0.1-0.3
			c0-0.1,0-0.1-0.1-0.3l-2.1-5.3H758.4z"/>
		<path fill="#221F1F" d="M763.6,653.6c0-0.6,0-1.1,0-1.6h0.9l0,0.9h0c0.3-0.6,0.9-1.1,1.8-1.1c0.8,0,1.4,0.5,1.6,1.2h0
			c0.2-0.3,0.4-0.6,0.6-0.8c0.3-0.3,0.7-0.4,1.3-0.4c0.8,0,1.9,0.5,1.9,2.5v3.4h-1v-3.3c0-1.1-0.4-1.8-1.3-1.8c-0.6,0-1.1,0.4-1.2,1
			c0,0.1-0.1,0.3-0.1,0.5v3.6h-1v-3.5c0-0.9-0.4-1.6-1.2-1.6c-0.7,0-1.1,0.5-1.3,1.1c-0.1,0.2-0.1,0.3-0.1,0.5v3.5h-1V653.6z"/>
		<path fill="#221F1F" d="M774.2,655.1c0,1.4,0.9,2,2,2c0.8,0,1.2-0.1,1.6-0.3l0.2,0.8c-0.4,0.2-1,0.4-1.9,0.4
			c-1.8,0-2.9-1.2-2.9-2.9c0-1.8,1-3.1,2.7-3.1c1.9,0,2.4,1.7,2.4,2.7c0,0.2,0,0.4,0,0.5H774.2z M777.3,654.3c0-0.7-0.3-1.7-1.5-1.7
			c-1.1,0-1.5,1-1.6,1.7H777.3z"/>
		<path fill="#221F1F" d="M779.6,653.6c0-0.6,0-1.1,0-1.6h0.9l0.1,1h0c0.3-0.6,1-1.1,1.9-1.1c0.8,0,2.1,0.5,2.1,2.5v3.5h-1.1v-3.3
			c0-0.9-0.3-1.7-1.3-1.7c-0.7,0-1.2,0.5-1.4,1.1c0,0.1-0.1,0.3-0.1,0.5v3.5h-1.1V653.6z"/>
		<path fill="#221F1F" d="M787.5,650.3v1.7h1.5v0.8h-1.5v3.1c0,0.7,0.2,1.1,0.8,1.1c0.3,0,0.5,0,0.6-0.1l0,0.8
			c-0.2,0.1-0.5,0.1-0.9,0.1c-0.5,0-0.9-0.2-1.1-0.4c-0.3-0.3-0.4-0.8-0.4-1.5v-3.2h-0.9V652h0.9v-1.4L787.5,650.3z"/>
		<path fill="#221F1F" d="M790.1,656.7c0.3,0.2,0.9,0.4,1.4,0.4c0.8,0,1.1-0.4,1.1-0.9c0-0.5-0.3-0.8-1.1-1.1
			c-1-0.4-1.5-0.9-1.5-1.6c0-0.9,0.8-1.7,2-1.7c0.6,0,1.1,0.2,1.4,0.4l-0.3,0.8c-0.2-0.1-0.6-0.3-1.2-0.3c-0.6,0-1,0.4-1,0.8
			c0,0.5,0.3,0.7,1.1,1c1,0.4,1.5,0.9,1.5,1.8c0,1-0.8,1.7-2.2,1.7c-0.6,0-1.2-0.2-1.6-0.4L790.1,656.7z"/>
		<path fill="#221F1F" d="M795.4,652l1.3,3.4c0.1,0.4,0.3,0.8,0.4,1.2h0c0.1-0.3,0.2-0.8,0.4-1.2l1.2-3.4h1.1l-1.6,4.1
			c-0.8,2-1.3,3-2,3.6c-0.5,0.5-1,0.6-1.3,0.7l-0.3-0.9c0.3-0.1,0.6-0.3,0.9-0.5c0.3-0.2,0.6-0.6,0.9-1.2c0-0.1,0.1-0.2,0.1-0.3
			c0-0.1,0-0.1-0.1-0.3l-2.1-5.3H795.4z"/>
		<path fill="#221F1F" d="M800.4,656.7c0.3,0.2,0.9,0.4,1.4,0.4c0.8,0,1.1-0.4,1.1-0.9c0-0.5-0.3-0.8-1.1-1.1
			c-1-0.4-1.5-0.9-1.5-1.6c0-0.9,0.8-1.7,2-1.7c0.6,0,1.1,0.2,1.4,0.4l-0.3,0.8c-0.2-0.1-0.6-0.3-1.2-0.3c-0.6,0-1,0.4-1,0.8
			c0,0.5,0.3,0.7,1.1,1c1,0.4,1.5,0.9,1.5,1.8c0,1-0.8,1.7-2.2,1.7c-0.6,0-1.2-0.2-1.6-0.4L800.4,656.7z"/>
		<path fill="#221F1F" d="M806.6,650.3v1.7h1.5v0.8h-1.5v3.1c0,0.7,0.2,1.1,0.8,1.1c0.3,0,0.5,0,0.6-0.1l0,0.8
			c-0.2,0.1-0.5,0.1-0.9,0.1c-0.5,0-0.9-0.2-1.1-0.4c-0.3-0.3-0.4-0.8-0.4-1.5v-3.2h-0.9V652h0.9v-1.4L806.6,650.3z"/>
		<path fill="#221F1F" d="M809.8,655.1c0,1.4,0.9,2,2,2c0.8,0,1.2-0.1,1.6-0.3l0.2,0.8c-0.4,0.2-1,0.4-1.9,0.4
			c-1.8,0-2.9-1.2-2.9-2.9c0-1.8,1-3.1,2.7-3.1c1.9,0,2.4,1.7,2.4,2.7c0,0.2,0,0.4,0,0.5H809.8z M812.9,654.3c0-0.7-0.3-1.7-1.5-1.7
			c-1.1,0-1.5,1-1.6,1.7H812.9z"/>
		<path fill="#221F1F" d="M815.2,653.6c0-0.6,0-1.1,0-1.6h0.9l0,0.9h0c0.3-0.6,0.9-1.1,1.8-1.1c0.8,0,1.4,0.5,1.6,1.2h0
			c0.2-0.3,0.4-0.6,0.6-0.8c0.3-0.3,0.7-0.4,1.3-0.4c0.8,0,1.9,0.5,1.9,2.5v3.4h-1v-3.3c0-1.1-0.4-1.8-1.3-1.8c-0.6,0-1.1,0.4-1.2,1
			c0,0.1-0.1,0.3-0.1,0.5v3.6h-1v-3.5c0-0.9-0.4-1.6-1.2-1.6c-0.7,0-1.1,0.5-1.3,1.1c-0.1,0.2-0.1,0.3-0.1,0.5v3.5h-1V653.6z"/>
		<path fill="#221F1F" d="M825.1,656.7c0.3,0.2,0.9,0.4,1.4,0.4c0.8,0,1.1-0.4,1.1-0.9c0-0.5-0.3-0.8-1.1-1.1
			c-1-0.4-1.5-0.9-1.5-1.6c0-0.9,0.8-1.7,2-1.7c0.6,0,1.1,0.2,1.4,0.4l-0.3,0.8c-0.2-0.1-0.6-0.3-1.2-0.3c-0.6,0-1,0.4-1,0.8
			c0,0.5,0.3,0.7,1.1,1c1,0.4,1.5,0.9,1.5,1.8c0,1-0.8,1.7-2.2,1.7c-0.6,0-1.2-0.2-1.6-0.4L825.1,656.7z"/>
		<path fill="#221F1F" d="M829.6,657.2c0-0.4,0.3-0.8,0.7-0.8c0.4,0,0.7,0.3,0.7,0.8c0,0.4-0.3,0.8-0.7,0.8
			C829.9,657.9,829.6,657.6,829.6,657.2z"/>
		<path fill="#221F1F" d="M836.5,657.6c-0.3,0.1-0.9,0.3-1.7,0.3c-1.8,0-2.9-1.2-2.9-3c0-1.8,1.2-3.1,3.1-3.1c0.6,0,1.2,0.2,1.5,0.3
			l-0.2,0.8c-0.3-0.1-0.6-0.3-1.2-0.3c-1.3,0-2.1,1-2.1,2.2c0,1.3,0.9,2.2,2,2.2c0.6,0,1-0.2,1.3-0.3L836.5,657.6z"/>
		<path fill="#221F1F" d="M842.9,654.9c0,2.1-1.5,3.1-2.9,3.1c-1.6,0-2.8-1.2-2.8-3c0-1.9,1.3-3.1,2.9-3.1
			C841.8,651.9,842.9,653.1,842.9,654.9z M838.3,654.9c0,1.3,0.7,2.2,1.8,2.2c1,0,1.8-0.9,1.8-2.3c0-1-0.5-2.2-1.7-2.2
			C838.8,652.7,838.3,653.8,838.3,654.9z"/>
		<path fill="#221F1F" d="M844.2,653.6c0-0.6,0-1.1,0-1.6h0.9l0,0.9h0c0.3-0.6,0.9-1.1,1.8-1.1c0.8,0,1.4,0.5,1.6,1.2h0
			c0.2-0.3,0.4-0.6,0.6-0.8c0.3-0.3,0.7-0.4,1.3-0.4c0.8,0,1.9,0.5,1.9,2.5v3.4h-1v-3.3c0-1.1-0.4-1.8-1.3-1.8c-0.6,0-1.1,0.4-1.2,1
			c0,0.1-0.1,0.3-0.1,0.5v3.6h-1v-3.5c0-0.9-0.4-1.6-1.2-1.6c-0.7,0-1.1,0.5-1.3,1.1c-0.1,0.2-0.1,0.3-0.1,0.5v3.5h-1V653.6z"/>
		<path fill="#221F1F" d="M853.4,658.3l3.3-8.7h0.8l-3.4,8.7H853.4z"/>
		<path fill="#221F1F" d="M862.3,656.9L862.3,656.9c-0.3,0.6-1,1-1.9,1c-1.4,0-2.5-1.2-2.5-2.9c0-2.2,1.4-3.1,2.6-3.1
			c0.9,0,1.5,0.4,1.8,1h0l0-0.9h1c0,0.5,0,1,0,1.6v6.6h-1.1V656.9z M862.3,654.4c0-0.1,0-0.3,0-0.4c-0.2-0.6-0.7-1.2-1.5-1.2
			c-1.1,0-1.8,0.9-1.8,2.2c0,1.2,0.6,2.2,1.7,2.2c0.7,0,1.3-0.4,1.5-1.2c0-0.1,0.1-0.3,0.1-0.5V654.4z"/>
		<path fill="#221F1F" d="M866.4,650.3v1.7h1.5v0.8h-1.5v3.1c0,0.7,0.2,1.1,0.8,1.1c0.3,0,0.5,0,0.6-0.1l0,0.8
			c-0.2,0.1-0.5,0.1-0.9,0.1c-0.5,0-0.9-0.2-1.1-0.4c-0.3-0.3-0.4-0.8-0.4-1.5v-3.2h-0.9V652h0.9v-1.4L866.4,650.3z"/>
		<path fill="#221F1F" d="M873.8,650v0.7l-3.4,7.1h-1.1l3.4-6.9v0h-3.8V650H873.8z"/>
		<path fill="#221F1F" d="M874.9,657.8v-0.6l0.8-0.8c2-1.9,2.9-2.9,2.9-4.1c0-0.8-0.4-1.5-1.5-1.5c-0.7,0-1.3,0.4-1.7,0.7l-0.3-0.7
			c0.5-0.5,1.3-0.8,2.2-0.8c1.7,0,2.4,1.2,2.4,2.3c0,1.4-1,2.6-2.7,4.2l-0.6,0.6v0h3.5v0.9H874.9z"/>
		<path fill="#221F1F" d="M886.2,653.8c0,2.7-1,4.1-2.7,4.1c-1.5,0-2.6-1.4-2.6-4c0-2.6,1.1-4.1,2.7-4.1
			C885.3,649.9,886.2,651.3,886.2,653.8z M882,653.9c0,2,0.6,3.2,1.6,3.2c1.1,0,1.6-1.3,1.6-3.2c0-1.9-0.5-3.2-1.6-3.2
			C882.7,650.7,882,651.8,882,653.9z"/>
		<path fill="#221F1F" d="M890,654.2v0.8h-3v-0.8H890z"/>
		<path fill="#221F1F" d="M892.4,650.4c0,0.4-0.3,0.6-0.7,0.6c-0.4,0-0.6-0.3-0.6-0.6c0-0.4,0.3-0.7,0.7-0.7
			C892.2,649.7,892.4,650,892.4,650.4z M891.2,657.8V652h1.1v5.8H891.2z"/>
		<path fill="#221F1F" d="M894,653.6c0-0.6,0-1.1,0-1.6h0.9l0.1,1h0c0.3-0.6,1-1.1,1.9-1.1c0.8,0,2.1,0.5,2.1,2.5v3.5h-1.1v-3.3
			c0-0.9-0.3-1.7-1.3-1.7c-0.7,0-1.2,0.5-1.4,1.1c0,0.1-0.1,0.3-0.1,0.5v3.5H894V653.6z"/>
		<path fill="#221F1F" d="M901.9,650.3v1.7h1.5v0.8h-1.5v3.1c0,0.7,0.2,1.1,0.8,1.1c0.3,0,0.5,0,0.6-0.1l0,0.8
			c-0.2,0.1-0.5,0.1-0.9,0.1c-0.5,0-0.9-0.2-1.1-0.4c-0.3-0.3-0.4-0.8-0.4-1.5v-3.2H900V652h0.9v-1.4L901.9,650.3z"/>
		<path fill="#221F1F" d="M905.1,655.1c0,1.4,0.9,2,2,2c0.8,0,1.2-0.1,1.6-0.3l0.2,0.8c-0.4,0.2-1,0.4-1.9,0.4
			c-1.8,0-2.9-1.2-2.9-2.9c0-1.8,1-3.1,2.7-3.1c1.9,0,2.4,1.7,2.4,2.7c0,0.2,0,0.4,0,0.5H905.1z M908.2,654.3c0-0.7-0.3-1.7-1.5-1.7
			c-1.1,0-1.5,1-1.6,1.7H908.2z"/>
		<path fill="#221F1F" d="M915.6,652c0,0.4,0,0.9,0,1.6v3.4c0,1.3-0.3,2.1-0.8,2.7c-0.6,0.5-1.4,0.7-2.1,0.7c-0.7,0-1.5-0.2-1.9-0.5
			l0.3-0.8c0.4,0.2,1,0.5,1.7,0.5c1.1,0,1.9-0.6,1.9-2v-0.6h0c-0.3,0.5-0.9,1-1.8,1c-1.4,0-2.5-1.2-2.5-2.8c0-2,1.3-3.1,2.6-3.1
			c1,0,1.6,0.5,1.8,1h0l0-0.9H915.6z M914.5,654.3c0-0.2,0-0.3-0.1-0.5c-0.2-0.6-0.7-1.1-1.5-1.1c-1,0-1.7,0.9-1.7,2.2
			c0,1.1,0.6,2.1,1.7,2.1c0.6,0,1.2-0.4,1.5-1.1c0.1-0.2,0.1-0.4,0.1-0.6V654.3z"/>
		<path fill="#221F1F" d="M917.2,653.8c0-0.7,0-1.3,0-1.8h0.9l0,1.1h0c0.3-0.8,0.9-1.3,1.6-1.3c0.1,0,0.2,0,0.3,0v1
			c-0.1,0-0.2,0-0.4,0c-0.7,0-1.3,0.6-1.4,1.4c0,0.1,0,0.3,0,0.5v3.1h-1V653.8z"/>
		<path fill="#221F1F" d="M924.3,657.8l-0.1-0.7h0c-0.3,0.5-0.9,0.9-1.8,0.9c-1.2,0-1.8-0.8-1.8-1.7c0-1.4,1.2-2.2,3.5-2.2V654
			c0-0.5-0.1-1.3-1.3-1.3c-0.5,0-1.1,0.2-1.5,0.4l-0.2-0.7c0.5-0.3,1.2-0.5,1.9-0.5c1.8,0,2.2,1.2,2.2,2.4v2.2c0,0.5,0,1,0.1,1.4
			H924.3z M924.1,654.8c-1.2,0-2.5,0.2-2.5,1.3c0,0.7,0.5,1,1,1c0.8,0,1.2-0.5,1.4-1c0-0.1,0.1-0.2,0.1-0.3V654.8z"/>
		<path fill="#221F1F" d="M928.1,650.3v1.7h1.5v0.8h-1.5v3.1c0,0.7,0.2,1.1,0.8,1.1c0.3,0,0.5,0,0.6-0.1l0,0.8
			c-0.2,0.1-0.5,0.1-0.9,0.1c-0.5,0-0.9-0.2-1.1-0.4c-0.3-0.3-0.4-0.8-0.4-1.5v-3.2h-0.9V652h0.9v-1.4L928.1,650.3z"/>
		<path fill="#221F1F" d="M931.3,655.1c0,1.4,0.9,2,2,2c0.8,0,1.2-0.1,1.6-0.3l0.2,0.8c-0.4,0.2-1,0.4-1.9,0.4
			c-1.8,0-2.9-1.2-2.9-2.9c0-1.8,1-3.1,2.7-3.1c1.9,0,2.4,1.7,2.4,2.7c0,0.2,0,0.4,0,0.5H931.3z M934.4,654.3c0-0.7-0.3-1.7-1.5-1.7
			c-1.1,0-1.5,1-1.6,1.7H934.4z"/>
		<path fill="#221F1F" d="M941.7,649.3v7c0,0.5,0,1.1,0,1.5h-0.9l0-1h0c-0.3,0.6-1,1.1-2,1.1c-1.4,0-2.5-1.2-2.5-2.9
			c0-1.9,1.2-3.1,2.6-3.1c0.9,0,1.5,0.4,1.8,0.9h0v-3.5H941.7z M940.7,654.4c0-0.1,0-0.3,0-0.4c-0.2-0.7-0.7-1.2-1.5-1.2
			c-1.1,0-1.7,1-1.7,2.2c0,1.2,0.6,2.1,1.7,2.1c0.7,0,1.4-0.5,1.5-1.3c0-0.1,0-0.3,0-0.5V654.4z"/>
		<path fill="#221F1F" d="M945.9,654.2v0.8h-3v-0.8H945.9z"/>
		<path fill="#221F1F" d="M948,655.1c0,1.4,0.9,2,2,2c0.8,0,1.2-0.1,1.6-0.3l0.2,0.8c-0.4,0.2-1,0.4-1.9,0.4c-1.8,0-2.9-1.2-2.9-2.9
			c0-1.8,1-3.1,2.7-3.1c1.9,0,2.4,1.7,2.4,2.7c0,0.2,0,0.4,0,0.5H948z M951.1,654.3c0-0.7-0.3-1.7-1.5-1.7c-1.1,0-1.5,1-1.6,1.7
			H951.1z"/>
		<path fill="#221F1F" d="M953.5,657.8v-5h-0.8V652h0.8v-0.3c0-0.8,0.2-1.6,0.7-2c0.4-0.4,0.9-0.5,1.4-0.5c0.4,0,0.7,0.1,0.9,0.2
			l-0.1,0.8c-0.2-0.1-0.4-0.1-0.7-0.1c-0.9,0-1.1,0.8-1.1,1.7v0.3h1.4v0.8h-1.4v5H953.5z"/>
		<path fill="#221F1F" d="M958.3,650.3v1.7h1.5v0.8h-1.5v3.1c0,0.7,0.2,1.1,0.8,1.1c0.3,0,0.5,0,0.6-0.1l0,0.8
			c-0.2,0.1-0.5,0.1-0.9,0.1c-0.5,0-0.9-0.2-1.1-0.4c-0.3-0.3-0.4-0.8-0.4-1.5v-3.2h-0.9V652h0.9v-1.4L958.3,650.3z"/>
		<path fill="#221F1F" d="M961,653.9c0-0.7,0-1.3,0-1.9h0.9l0,1h0c0.4-0.7,1.1-1.1,2.1-1.1c1.4,0,2.5,1.2,2.5,3
			c0,2.1-1.3,3.1-2.6,3.1c-0.8,0-1.4-0.3-1.8-0.9h0v3.2h-1V653.9z M962,655.4c0,0.2,0,0.3,0,0.4c0.2,0.7,0.8,1.2,1.6,1.2
			c1.1,0,1.8-0.9,1.8-2.2c0-1.2-0.6-2.2-1.7-2.2c-0.7,0-1.4,0.5-1.6,1.3c0,0.1-0.1,0.3-0.1,0.4V655.4z"/>
		<path fill="#221F1F" d="M973.1,654.9c0,2.1-1.5,3.1-2.9,3.1c-1.6,0-2.8-1.2-2.8-3c0-1.9,1.3-3.1,2.9-3.1
			C972,651.9,973.1,653.1,973.1,654.9z M968.5,654.9c0,1.3,0.7,2.2,1.8,2.2c1,0,1.8-0.9,1.8-2.3c0-1-0.5-2.2-1.7-2.2
			C969,652.7,968.5,653.8,968.5,654.9z"/>
		<path fill="#221F1F" d="M974.3,656.7c0.3,0.2,0.9,0.4,1.4,0.4c0.8,0,1.1-0.4,1.1-0.9c0-0.5-0.3-0.8-1.1-1.1
			c-1-0.4-1.5-0.9-1.5-1.6c0-0.9,0.8-1.7,2-1.7c0.6,0,1.1,0.2,1.4,0.4l-0.3,0.8c-0.2-0.1-0.6-0.3-1.2-0.3c-0.6,0-1,0.4-1,0.8
			c0,0.5,0.3,0.7,1.1,1c1,0.4,1.5,0.9,1.5,1.8c0,1-0.8,1.7-2.2,1.7c-0.6,0-1.2-0.2-1.6-0.4L974.3,656.7z"/>
		<path fill="#221F1F" d="M981.6,654.2v0.8h-3v-0.8H981.6z"/>
		<path fill="#221F1F" d="M982.9,653.9c0-0.7,0-1.3,0-1.9h0.9l0,1h0c0.4-0.7,1.1-1.1,2.1-1.1c1.4,0,2.5,1.2,2.5,3
			c0,2.1-1.3,3.1-2.6,3.1c-0.8,0-1.4-0.3-1.8-0.9h0v3.2h-1V653.9z M983.9,655.4c0,0.2,0,0.3,0,0.4c0.2,0.7,0.8,1.2,1.6,1.2
			c1.1,0,1.8-0.9,1.8-2.2c0-1.2-0.6-2.2-1.7-2.2c-0.7,0-1.4,0.5-1.6,1.3c0,0.1-0.1,0.3-0.1,0.4V655.4z"/>
		<path fill="#221F1F" d="M990.9,650.4c0,0.4-0.3,0.6-0.7,0.6c-0.4,0-0.6-0.3-0.6-0.6c0-0.4,0.3-0.7,0.7-0.7
			C990.6,649.7,990.9,650,990.9,650.4z M989.7,657.8V652h1.1v5.8H989.7z"/>
		<path fill="#221F1F" d="M992.5,653.6c0-0.6,0-1.1,0-1.6h0.9l0.1,1h0c0.3-0.6,1-1.1,1.9-1.1c0.8,0,2.1,0.5,2.1,2.5v3.5h-1.1v-3.3
			c0-0.9-0.3-1.7-1.3-1.7c-0.7,0-1.2,0.5-1.4,1.1c0,0.1-0.1,0.3-0.1,0.5v3.5h-1.1V653.6z"/>
		<path fill="#221F1F" d="M999.1,653.9c0-0.7,0-1.3,0-1.9h0.9l0,1h0c0.4-0.7,1.1-1.1,2.1-1.1c1.4,0,2.5,1.2,2.5,3
			c0,2.1-1.3,3.1-2.6,3.1c-0.8,0-1.4-0.3-1.8-0.9h0v3.2h-1V653.9z M1000.2,655.4c0,0.2,0,0.3,0,0.4c0.2,0.7,0.8,1.2,1.6,1.2
			c1.1,0,1.8-0.9,1.8-2.2c0-1.2-0.6-2.2-1.7-2.2c-0.7,0-1.4,0.5-1.6,1.3c0,0.1-0.1,0.3-0.1,0.4V655.4z"/>
		<path fill="#221F1F" d="M1009.2,657.8l-0.1-0.7h0c-0.3,0.5-0.9,0.9-1.8,0.9c-1.2,0-1.8-0.8-1.8-1.7c0-1.4,1.2-2.2,3.5-2.2V654
			c0-0.5-0.1-1.3-1.3-1.3c-0.5,0-1.1,0.2-1.5,0.4l-0.2-0.7c0.5-0.3,1.2-0.5,1.9-0.5c1.8,0,2.2,1.2,2.2,2.4v2.2c0,0.5,0,1,0.1,1.4
			H1009.2z M1009,654.8c-1.2,0-2.5,0.2-2.5,1.3c0,0.7,0.5,1,1,1c0.8,0,1.2-0.5,1.4-1c0-0.1,0.1-0.2,0.1-0.3V654.8z"/>
		<path fill="#221F1F" d="M1016.8,649.3v7c0,0.5,0,1.1,0,1.5h-0.9l0-1h0c-0.3,0.6-1,1.1-2,1.1c-1.4,0-2.5-1.2-2.5-2.9
			c0-1.9,1.2-3.1,2.6-3.1c0.9,0,1.5,0.4,1.8,0.9h0v-3.5H1016.8z M1015.7,654.4c0-0.1,0-0.3,0-0.4c-0.2-0.7-0.7-1.2-1.5-1.2
			c-1.1,0-1.7,1-1.7,2.2c0,1.2,0.6,2.1,1.7,2.1c0.7,0,1.4-0.5,1.5-1.3c0-0.1,0-0.3,0-0.5V654.4z"/>
		<path fill="#221F1F" d="M1018.2,657.2c0-0.4,0.3-0.8,0.7-0.8c0.4,0,0.7,0.3,0.7,0.8c0,0.4-0.3,0.8-0.7,0.8
			C1018.4,657.9,1018.2,657.6,1018.2,657.2z"/>
		<path fill="#221F1F" d="M1020.9,649.3h1.1v3.6h0c0.2-0.3,0.4-0.6,0.8-0.7c0.3-0.2,0.7-0.3,1.1-0.3c0.8,0,2,0.5,2,2.5v3.5h-1.1
			v-3.3c0-0.9-0.3-1.7-1.3-1.7c-0.7,0-1.2,0.5-1.4,1.1c-0.1,0.1-0.1,0.3-0.1,0.5v3.5h-1.1V649.3z"/>
		<path fill="#221F1F" d="M1028.8,650.3v1.7h1.5v0.8h-1.5v3.1c0,0.7,0.2,1.1,0.8,1.1c0.3,0,0.5,0,0.6-0.1l0,0.8
			c-0.2,0.1-0.5,0.1-0.9,0.1c-0.5,0-0.9-0.2-1.1-0.4c-0.3-0.3-0.4-0.8-0.4-1.5v-3.2h-0.9V652h0.9v-1.4L1028.8,650.3z"/>
		<path fill="#221F1F" d="M1031.5,653.6c0-0.6,0-1.1,0-1.6h0.9l0,0.9h0c0.3-0.6,0.9-1.1,1.8-1.1c0.8,0,1.4,0.5,1.6,1.2h0
			c0.2-0.3,0.4-0.6,0.6-0.8c0.3-0.3,0.7-0.4,1.3-0.4c0.8,0,1.9,0.5,1.9,2.5v3.4h-1v-3.3c0-1.1-0.4-1.8-1.3-1.8c-0.6,0-1.1,0.4-1.2,1
			c0,0.1-0.1,0.3-0.1,0.5v3.6h-1v-3.5c0-0.9-0.4-1.6-1.2-1.6c-0.7,0-1.1,0.5-1.3,1.1c-0.1,0.2-0.1,0.3-0.1,0.5v3.5h-1V653.6z"/>
		<path fill="#221F1F" d="M1041.5,649.3h1.1v8.5h-1.1V649.3z"/>
	</g>
</g>
</svg>
