<!-- Generator: Adobe Illustrator 18.0.0, SVG Export Plug-In  -->
<svg version="1.1"
	 xmlns="http://www.w3.org/2000/svg" xmlns:xlink="http://www.w3.org/1999/xlink" xmlns:a="http://ns.adobe.com/AdobeSVGViewerExtensions/3.0/"
	 x="0px" y="0px" width="519.8px" height="346.8px" viewBox="0 0 519.8 346.8" enable-background="new 0 0 519.8 346.8"
	 xml:space="preserve">
<defs>
</defs>
<g>
	<path fill="none" stroke="#D6684D" stroke-width="9.6499" stroke-miterlimit="10" stroke-dasharray="13.9877,7.5318" d="
		M388.1,310.5c7.7,5.3,22.2-2.8,28.4-5.7l91.3-41c6.2-2.9,10.6-11.9,3.8-15.5l-52.8-25l-122.1,58.3L388.1,310.5z"/>
	<g>
		<g>
			<path fill="none" stroke="#D6684D" stroke-width="9.6499" stroke-miterlimit="10" d="M364.1,341.5c1.1,0.3,2,0.5,2.4,0.5
				c1.4,0,2.6-0.8,3-2.2c0.1-0.2,0.1-0.3,0.1-0.5l6.4-2.8"/>
			<path fill="none" stroke="#D6684D" stroke-width="9.6499" stroke-miterlimit="10" stroke-dasharray="14.3213,7.7115" d="
				M383.1,333.3l115.4-51.5c0.6-0.3,1.1-0.7,1.4-1.3"/>
			<path fill="none" stroke="#D6684D" stroke-width="9.6499" stroke-miterlimit="10" d="M500.5,276.8c-0.1-0.8-0.4-1.6-1.3-2.3
				c-0.5-0.6-1.2-1.9-2.1-3.8l6.4-2.9"/>
			<path fill="none" stroke="#D6684D" stroke-width="9.6499" stroke-miterlimit="10" stroke-dasharray="14.1036,7.5943" d="
				M509.6,263.6c2.3-2.6,3.7-5.8,3.8-8.8c0.1-3.6-1.8-6.5-5.1-8.2c0,0-13-6.1-26-12.3c-3.2-8.3-6.3-16.6-8.9-23.4
				c-2-5.3-3.8-10.2-5.5-14.6c-10.5-27.6-42.4-47.5-43.8-48.3c0,0-0.1,0-0.1-0.1c-2-1.1-204.6-113.2-230.1-128.5
				C176.1,8.5,169.7,4.8,164.2,4.8c-3.3,0-5.8,1.4-8.4,3.1c-1.2,0.7-2.3,2.1-3.5,4c-1.3,0.6-2.5,1.2-3.7,2L30.6,66.5
				c-2,0.5-3.8,1.5-5.7,2.7c-8,5-15.8,40.8-18.1,51.6c-0.1,0.3-0.1,0.6,0,0.9c0,0.8,0.2,1.6,0.8,2.2c0.7,0.8,18.4,20,31.4,24.5
				c0.2,0.1,0.5,0.1,0.7,0.1c9.1,5.5,244.1,146.9,263.7,158.7c0.9,3,4.6,10.3,31.6,22.8c8.4,3.9,18.8,8,25.4,10.2"/>
		</g>
	</g>
	<path fill="none" stroke="#D6684D" stroke-width="9.6499" stroke-miterlimit="10" stroke-dasharray="13.9877,7.5318" d="M5.2,118.8
		c0,0,9.1-44.9,16.7-49.6s9.1-4.2,35,11.4S287,209.2,287,209.2s32.3,19.9,42.5,46.8s28.5,76.9,32.3,79.6c3.8,2.7-57-18.8-60.3-32.8
		c-3.2-14-6.9-34.1-17.4-40.9c-10.5-6.8-231.1-138.8-231.1-138.8s-13.4-4.8-17.8,19.4C23,138.1,5.2,118.8,5.2,118.8z"/>
</g>
</svg>
