<!-- Generator: Adobe Illustrator 18.0.0, SVG Export Plug-In  -->
<svg version="1.1"
	 xmlns="http://www.w3.org/2000/svg" xmlns:xlink="http://www.w3.org/1999/xlink" xmlns:a="http://ns.adobe.com/AdobeSVGViewerExtensions/3.0/"
	 x="0px" y="0px" width="225.6px" height="112.1px" viewBox="0 0 225.6 112.1" enable-background="new 0 0 225.6 112.1"
	 xml:space="preserve">
<defs>
</defs>
<g id="item_1_">
	<g>
		<path fill="none" stroke="#E4BE22" stroke-width="3" stroke-miterlimit="10" stroke-dasharray="8,4.7696" d="M215.7,2.7L15.3,71.5
			c-0.1,0-0.2,0.2-0.3,0.3c-0.5,2.1-4.5,22.1,8.9,38.7c0.1,0.1,0.2,0.1,0.4,0.1l198.4-71.4c0.1,0,0.2-0.1,0.3-0.2
			c0.6-1.7,4.9-16.6-6.8-36.2C216,2.7,215.8,2.7,215.7,2.7z"/>
		<g>
			
				<line fill="none" stroke="#E4BE22" stroke-width="3" stroke-miterlimit="10" stroke-dasharray="11.129,4.7696" x1="194.1" y1="26.4" x2="199.2" y2="30.1"/>
			
				<line fill="none" stroke="#E4BE22" stroke-width="3" stroke-miterlimit="10" stroke-dasharray="11.129,4.7696" x1="183.7" y1="29.9" x2="180.6" y2="36.5"/>
			
				<line fill="none" stroke="#E4BE22" stroke-width="3" stroke-miterlimit="10" stroke-dasharray="11.129,4.7696" x1="191.7" y1="38.8" x2="192.9" y2="44.9"/>
		</g>
		<g>
			
				<line fill="none" stroke="#E4BE22" stroke-width="3" stroke-miterlimit="10" stroke-dasharray="11.129,4.7696" x1="144.3" y1="43.5" x2="149.5" y2="47.3"/>
			
				<line fill="none" stroke="#E4BE22" stroke-width="3" stroke-miterlimit="10" stroke-dasharray="11.129,4.7696" x1="133.9" y1="47.1" x2="130.9" y2="53.8"/>
			
				<line fill="none" stroke="#E4BE22" stroke-width="3" stroke-miterlimit="10" stroke-dasharray="11.129,4.7696" x1="140.6" y1="56.7" x2="141.9" y2="62.9"/>
		</g>
		<g>
			
				<line fill="none" stroke="#E4BE22" stroke-width="3" stroke-miterlimit="10" stroke-dasharray="11.129,4.7696" x1="96.7" y1="60.2" x2="102" y2="64"/>
			
				<line fill="none" stroke="#E4BE22" stroke-width="3" stroke-miterlimit="10" stroke-dasharray="11.129,4.7696" x1="86.4" y1="63.8" x2="83.4" y2="70.6"/>
			
				<line fill="none" stroke="#E4BE22" stroke-width="3" stroke-miterlimit="10" stroke-dasharray="11.129,4.7696" x1="94.1" y1="73.3" x2="95.5" y2="79.5"/>
		</g>
		<g>
			<path fill="none" stroke="#E4BE22" stroke-width="3" stroke-miterlimit="10" stroke-dasharray="5.9634,4.7405" d="M2,69.9
				c-0.4,2.8-2.4,21,7.1,37.4c0,0,0.1,0.1,0.1,0.1l13.9,3c0.3,0.1,0.6-0.3,0.5-0.5c-2.6-3.2-13.1-17.3-8.4-38.1c0-0.1,0-0.2-0.2-0.2
				c-3.2-0.6-10.7-1.7-12.6-2C2.2,69.5,2,69.7,2,69.9z"/>
		</g>
		<path fill="none" stroke="#E4BE22" stroke-width="2" stroke-miterlimit="10" stroke-dasharray="7,4.7696" d="M215.2,1L198,1
			c0,0-0.1,0-0.2,0L3.1,67.6c-0.3,0.1-0.4,0.5-0.1,0.5l12.5,1.8c0.1,0,0.1,0,0.2,0L215.2,1.5C215.5,1.4,215.6,1,215.2,1z"/>
	</g>
</g>
</svg>
