<!-- Generator: Adobe Illustrator 18.0.0, SVG Export Plug-In  -->
<svg version="1.1"
	 xmlns="http://www.w3.org/2000/svg" xmlns:xlink="http://www.w3.org/1999/xlink" xmlns:a="http://ns.adobe.com/AdobeSVGViewerExtensions/3.0/"
	 x="0px" y="0px" width="609.2px" height="435.7px" viewBox="0 0 609.2 435.7" enable-background="new 0 0 609.2 435.7"
	 xml:space="preserve">
<defs>
</defs>
<g>
	<g>
		<g>
			<path fill="#E9C2A0" d="M212.6,373.1l346.2-106.7c0,0,36.6-22.1,21.6-57.5c-14.8-35.9-56.8-27.5-56.8-27.5l-380.7,99.2
				L212.6,373.1z"/>
			<g>
				<path fill="#FFFFFF" d="M213.8,377.5c35.3-10.9,70.6-21.8,106-32.7c60.1-18.5,120.2-37.1,180.3-55.6c17.8-5.5,35.7-11,53.5-16.5
					c2.5-0.8,5.7-1.3,8-2.7c11-7.1,20-17.7,24.6-30c7.2-19.4-1.9-42-17.8-54.1c-11.4-8.6-27-11-40.9-9.7c-8.7,0.9-17.4,3.9-25.8,6.1
					c-52.8,13.8-105.6,27.5-158.4,41.3c-56.2,14.6-112.4,29.3-168.6,43.9c-11,2.9-21.9,5.7-32.9,8.6c-2.6,0.7-4.5,4.3-2.7,6.7
					c23.2,30.9,46.5,61.7,69.7,92.6c3.5,4.6,11.4,0.1,7.9-4.6c-23.2-30.9-46.5-61.7-69.7-92.6c-0.9,2.2-1.8,4.5-2.7,6.7
					c33.8-8.8,67.5-17.6,101.3-26.4c61.9-16.1,123.9-32.3,185.8-48.4c23.1-6,46.2-12,69.3-18.1c8.4-2.2,17.1-5.3,25.7-6.6
					c-1.3,0.2,1.2-0.1,1.6-0.2c1.1-0.1,2.3-0.2,3.4-0.2c3.2-0.2,6.4,0,9.7,0.3c7.8,0.7,15.4,3.4,21.9,7.8
					c17.1,11.6,21,35.6,10.4,52.6c-3.4,5.4-8.2,10.4-13.2,14.2c-1.1,0.8-2.2,1.6-3.4,2.4c-0.5,0.3,1.7-0.6,0.5-0.2
					c-3.9,1.2-7.8,2.4-11.7,3.6c-50.2,15.5-100.3,30.9-150.5,46.4C341,328.7,287,345.3,233.1,362c-7.2,2.2-14.5,4.5-21.7,6.7
					C205.8,370.4,208.2,379.2,213.8,377.5z"/>
			</g>
		</g>
	</g>
	<g id="worker_1_">
		<defs>
			
				<rect id="SVGID_1_" x="483.4" y="152.4" transform="matrix(0.2662 0.9639 -0.9639 0.2662 605.5085 -337.7711)" width="82.5" height="152.8"/>
		</defs>
		<clipPath id="SVGID_2_">
			<use xlink:href="#SVGID_1_"  overflow="visible"/>
		</clipPath>
		<g clip-path="url(#SVGID_2_)">
			<path fill="#E8C19F" d="M106.7,220c92,5,124.1-62.6,118.6-114.1l94.7-26.2c0,0,46.1-10,34.7-51.5c-9.1-33-39.5-29.5-52.6-25.9
				C281.5,8,174.8,42.7,127.7,64.8C3.6,123.1-16.8,211,10.9,311.4C51,456.5,203.3,450.8,342.1,412.4c44.2-12.2,93.8-24.7,147-39.4
				c67.4-18.6,101.7-34.5,92.5-68.4c-10.2-37.2-47.2-31.3-118.7-11.6c-40.7,11.2-76.2,20.6-76.2,20.6l-0.5-1.7L555,261.4
				c0,0,48.4-15.5,37.7-54.5c-10-36.2-58.8-22-58.8-22l-167.8,46.3l-1.2-4.6l192.3-55.9c0,0,50.4-16.4,39.3-56.3
				c-11.1-40.2-65.8-25.9-65.8-25.9l-188.2,52l-1.5-5.2l166.5-46c0,0,42.3-12.2,31.3-51.9c-11.6-42-53.2-27.2-53.2-27.2L356.2,46.4
				c-4.2,27.9-36.7,33.5-64.9,41.3l-65.9,18.2C231.7,243.6,74.5,218.2,106.7,220z"/>
		</g>
		<path clip-path="url(#SVGID_2_)" fill="#F4A12C" d="M569,210.3l24.1-6.7c-1.3-2.9-2.9-5.7-4.9-8.1l-21.7,6L569,210.3z"/>
		<path clip-path="url(#SVGID_2_)" fill="#F06B25" d="M591.5,238.8l-13.2,3.7l1.3,4.7l-9.4,2.6l-17.3-62.8l9.4-2.6l1.6,5.9l14.7-4.1
			c-8.5-4.8-18.8-6.3-29-3.5c-0.4,0.1-0.7,0.2-1.1,0.4l19.9,72.2c0.4-0.1,0.8-0.1,1.1-0.3C579,252.3,586.6,246.4,591.5,238.8z"/>
		<path clip-path="url(#SVGID_2_)" fill="#F39E2C" d="M574.8,231.3l21-5.8c0.6-3.4,0.8-7,0.4-10.6l-24.1,6.7L574.8,231.3z"/>
		<g clip-path="url(#SVGID_2_)">
			
				<rect x="516.6" y="215.5" transform="matrix(0.2662 0.9639 -0.9639 0.2662 620.5668 -376.4156)" fill="#F06B25" width="81.8" height="7.8"/>
			<polygon fill="#F06B25" points="572.1,221.6 592.7,215.9 599.7,213.9 596.6,202.6 589.6,204.6 569,210.3 			"/>
			<polygon fill="#F06B25" points="572.8,221.1 569.7,210 567.3,201.3 564.2,190.1 562.6,184.2 552.6,187 570,249.7 579.9,247 
				578.6,242.3 575.6,231.2 			"/>
			<path fill="#F06B25" d="M566.6,201.5l26.3-7.3c-1.6-3.8-3.6-7.4-5.8-10.7l-23.7,6.5L566.6,201.5z"/>
			<path fill="#F06B25" d="M578,242.8l23.2-6.4c0.6-4.1,0.7-8.3,0.2-12.6l-26.6,7.3L578,242.8z"/>
		</g>
		
			<ellipse transform="matrix(0.2662 0.9639 -0.9639 0.2662 633.9882 -349.4112)" clip-path="url(#SVGID_2_)" fill="#231F20" cx="546.5" cy="241.7" rx="3.9" ry="3.6"/>
		
			<ellipse transform="matrix(0.2662 0.9639 -0.9639 0.2662 633.1585 -351.1729)" clip-path="url(#SVGID_2_)" fill="#FFFFFF" cx="547.2" cy="240.3" rx="1.5" ry="1.4"/>
		
			<ellipse transform="matrix(0.2662 0.9639 -0.9639 0.2662 594.7551 -365.135)" clip-path="url(#SVGID_2_)" fill="#231F20" cx="537.2" cy="208.1" rx="3.9" ry="3.6"/>
		
			<ellipse transform="matrix(0.2662 0.9639 -0.9639 0.2662 593.9253 -366.8968)" clip-path="url(#SVGID_2_)" fill="#FFFFFF" cx="537.9" cy="206.7" rx="1.5" ry="1.4"/>
		<path clip-path="url(#SVGID_2_)" fill="#C3996B" d="M484.8,239.6c-7-25.2,10.8-40.3,25.3-45.7c3.2-1.2,2.5-0.9,3.3,1.7
			c6.3,22.7,12.5,45.4,18.8,68.1c0.1,0.5,0.3,1,0.4,1.5C516.5,270.3,491.1,262.4,484.8,239.6z"/>
		<path clip-path="url(#SVGID_2_)" fill="#FFFFFF" d="M496,236.2c-3.6-12.9,5-24.3,12.6-27.2c1.9-0.7,1.5-0.5,1.9,1.1
			c3.8,13.9,7.7,27.8,11.5,41.7c0.1,0.3,0.2,0.6,0.3,0.9C514,254.7,499.5,248.8,496,236.2z"/>
	</g>
</g>
</svg>
