<!-- Generator: Adobe Illustrator 18.0.0, SVG Export Plug-In  -->
<svg version="1.1"
	 xmlns="http://www.w3.org/2000/svg" xmlns:xlink="http://www.w3.org/1999/xlink" xmlns:a="http://ns.adobe.com/AdobeSVGViewerExtensions/3.0/"
	 x="0px" y="0px" width="945.2px" height="349px" viewBox="0 0 945.2 349" enable-background="new 0 0 945.2 349"
	 xml:space="preserve">
<defs>
</defs>
<g>
	<g>
		<path fill="#E9C2A0" d="M10,197c0,0,100.9-65.8,53.4-187.2l801.8,158.5c19.4,3.8,37.8,13.5,50.2,28.6
			c12.4,14.6,23.2,36.2,19.4,63.7c-8.1,58.8-55.1,90.7-154.9,73.9C655.3,314.5,10,197,10,197z"/>
		<g>
			<path fill="#FFFFFF" d="M15,205.7c14.6-9.6,27.1-22.9,37.7-36.6C75,140.1,87.1,104.4,86,67.8C85.3,47,80.5,26.5,73,7.2
				c-4.1,4.1-8.2,8.2-12.3,12.3c19,3.8,38,7.5,57.1,11.3c47.8,9.4,95.5,18.9,143.3,28.3c62.6,12.4,125.2,24.7,187.8,37.1
				c63.5,12.6,127,25.1,190.5,37.7c50.5,10,101,20,151.5,29.9c23.5,4.7,47.1,9.3,70.6,14c12.8,2.5,24.5,7.2,35.1,14.8
				c19.1,13.7,29.8,37.9,28.9,61c-0.7,16.8-6,31.2-15.2,44.1c-0.1,0.2-1.9,2.5-0.6,0.8c-0.6,0.7-1.1,1.4-1.7,2.1
				c-1.2,1.4-2.4,2.7-3.7,4c-1.3,1.3-2.6,2.5-4,3.7c-0.7,0.6-1.4,1.2-2.1,1.8c-0.9,0.7-1,0.8-0.2,0.1c-0.5,0.4-1,0.7-1.5,1.1
				c-6.7,4.9-13.9,8.3-20.5,10.6c-33.7,12-70.9,6.7-105.8,0.9c-20.3-3.4-40.6-6.9-60.9-10.4c-61-10.6-121.9-21.4-182.8-32.3
				c-71.8-12.8-143.5-25.7-215.2-38.7c-63-11.4-126-22.8-188.9-34.2c-34.6-6.3-69.2-12.6-103.9-18.9c-1.9-0.4-3.9-0.7-5.8-1.1
				c-5.4-1-10.8,1.4-12.3,7c-1.3,4.9,1.6,11.3,7,12.3c23.4,4.3,46.8,8.5,70.2,12.8c57.1,10.4,114.3,20.7,171.4,31
				c71.3,12.9,142.6,25.7,213.9,38.5c65.8,11.8,131.7,23.6,197.6,35.1c24.8,4.4,49.5,8.7,74.3,12.9c23.2,4,46.5,8.5,69.9,10.7
				c38.9,3.8,83.7,0.1,113.2-28.5c29.5-28.6,35.8-77.9,16.1-113.4c-14.7-26.4-40.4-42.2-69.5-47.9c-9.5-1.9-18.9-3.7-28.4-5.6
				c-41.5-8.2-83-16.4-124.5-24.6c-60-11.9-120-23.7-180.1-35.6c-64.6-12.8-129.2-25.5-193.9-38.3C282.3,42.9,227,32,171.7,21.1
				c-32-6.3-64.1-12.7-96.1-19c-3.2-0.6-6.4-1.3-9.6-1.9c-6.7-1.3-15.3,4.6-12.3,12.3C62.1,34.3,67,57,65.9,80.4
				C65.1,97.3,60,116.2,53,130.7c-10.8,22.5-24.9,39.8-44.9,55.4c3.2-2.5-0.9,0.6-1.9,1.3c-0.4,0.3-0.9,0.6-1.3,0.9
				C-5.8,195.4,4.2,212.7,15,205.7z"/>
		</g>
	</g>
</g>
</svg>
