<!-- Generator: Adobe Illustrator 18.0.0, SVG Export Plug-In  -->
<svg version="1.1"
	 xmlns="http://www.w3.org/2000/svg" xmlns:xlink="http://www.w3.org/1999/xlink" xmlns:a="http://ns.adobe.com/AdobeSVGViewerExtensions/3.0/"
	 x="0px" y="0px" width="630.6px" height="715.2px" viewBox="0 0 630.6 715.2" enable-background="new 0 0 630.6 715.2"
	 xml:space="preserve">
<defs>
</defs>
<g>
	<g>
		<g>
			<path fill="#E9C2A0" d="M219.7,710.6l346.2-106.7c0,0,36.6-22.1,21.6-57.5c-14.8-35.9-56.8-27.5-56.8-27.5L150,618L219.7,710.6z"
				/>
			<g>
				<path fill="#FFFFFF" d="M220.9,714.9c35.3-10.9,70.6-21.8,106-32.7c60.1-18.5,120.2-37.1,180.3-55.6c17.8-5.5,35.7-11,53.5-16.5
					c2.5-0.8,5.7-1.3,8-2.7c11-7.1,20-17.7,24.6-30c7.2-19.4-1.9-42-17.8-54.1c-11.4-8.6-27-11-40.9-9.7c-8.7,0.9-17.4,3.9-25.8,6.1
					c-52.8,13.8-105.6,27.5-158.4,41.3c-56.2,14.6-112.4,29.3-168.6,43.9c-11,2.9-21.9,5.7-32.9,8.6c-2.6,0.7-4.5,4.3-2.7,6.7
					c23.2,30.9,46.5,61.7,69.7,92.6c3.5,4.6,11.4,0.1,7.9-4.6c-23.2-30.9-46.5-61.7-69.7-92.6c-0.9,2.2-1.8,4.5-2.7,6.7
					c33.8-8.8,67.5-17.6,101.3-26.4c61.9-16.1,123.9-32.3,185.8-48.4c23.1-6,46.2-12,69.3-18.1c8.4-2.2,17.1-5.3,25.7-6.6
					c-1.3,0.2,1.2-0.1,1.6-0.2c1.1-0.1,2.3-0.2,3.4-0.2c3.2-0.2,6.4,0,9.7,0.3c7.8,0.7,15.4,3.4,21.9,7.8
					c17.1,11.6,21,35.6,10.4,52.6c-3.4,5.4-8.2,10.4-13.2,14.2c-1.1,0.8-2.2,1.6-3.4,2.4c-0.5,0.3,1.7-0.6,0.5-0.2
					c-3.9,1.2-7.8,2.4-11.7,3.6c-50.2,15.5-100.3,30.9-150.5,46.4c-54,16.6-107.9,33.3-161.9,49.9c-7.2,2.2-14.5,4.5-21.7,6.7
					C212.9,707.9,215.3,716.7,220.9,714.9z"/>
			</g>
		</g>
	</g>
	<g>
		<path fill="#E8C19F" d="M458.7,544.5l22.6,79.4c0,0,32.3-8.4,66-20.4c29.4-10.5,65.2-23.7,55.9-56.4c-10.9-38.1-58.2-25.7-77.8-21
			"/>
		<g id="student_1_">
			<defs>
				
					<rect id="SVGID_1_" x="490.8" y="484.7" transform="matrix(0.2742 0.9617 -0.9617 0.2742 933.6738 -114.3364)" width="103.6" height="153.4"/>
			</defs>
			<clipPath id="SVGID_2_">
				<use xlink:href="#SVGID_1_"  overflow="visible"/>
			</clipPath>
			<g clip-path="url(#SVGID_2_)">
				<path fill="#E8C19F" d="M102.6,216.5c88.7,4.7,118.7-61.7,112.7-112.3l90.9-25.9c0,0,44.3-9.9,32.7-50.7
					c-9.2-32.4-38.5-28.9-51-25.3c-19.9,5.7-122.2,40-167.2,61.9C1.9,121.6-16.6,207.9,11.5,306.5
					c40.6,142.4,187.2,136.5,320.4,98.5c42.4-12.1,90-24.5,141.1-39c64.6-18.4,97.5-34.1,88.1-67.3c-10.3-36.5-45.9-30.7-114.5-11.1
					c-39,11.1-73.1,20.4-73.1,20.4l-0.5-1.7l140.6-125.1l-161,45.8l-1.2-4.5l184.4-55.3c0,0,48.3-16.2,37.1-55.3
					c-11.3-39.5-63.8-25.3-63.8-25.3L328.7,138l-1.6-5.1l159.8-45.6c0,0,40.5-12.1,29.4-51.1C504.5-5,464.7,9.6,464.7,9.6
					L340.4,45.4c-3.7,27.4-34.9,33-62,40.7l-63.2,18C223.2,239.4,71.5,214.9,102.6,216.5z"/>
			</g>
			
				<ellipse transform="matrix(0.2742 0.9617 -0.9617 0.2742 963.7104 -128.3772)" clip-path="url(#SVGID_2_)" fill="#231F20" cx="566.9" cy="574.3" rx="3.6" ry="3.5"/>
			
				<ellipse transform="matrix(0.2742 0.9617 -0.9617 0.2742 962.957 -130.0285)" clip-path="url(#SVGID_2_)" fill="#FFFFFF" cx="567.6" cy="572.9" rx="1.4" ry="1.4"/>
			
				<ellipse transform="matrix(0.2742 0.9617 -0.9617 0.2742 929.3779 -141.6451)" clip-path="url(#SVGID_2_)" fill="#231F20" cx="558.5" cy="544.9" rx="3.6" ry="3.5"/>
			
				<ellipse transform="matrix(0.2742 0.9617 -0.9617 0.2742 928.6246 -143.2963)" clip-path="url(#SVGID_2_)" fill="#FFFFFF" cx="559.2" cy="543.6" rx="1.4" ry="1.4"/>
			
				<line clip-path="url(#SVGID_2_)" fill="none" stroke="#231F20" stroke-width="1.4479" stroke-miterlimit="10" x1="554.5" y1="559.5" x2="555.3" y2="562.6"/>
			<path clip-path="url(#SVGID_2_)" d="M617.2,593.9l6.9-2l-27.7-97.1l-7,2l4.3,15.2c-0.4,0.1-0.8,0.3-1.1,0.4
				c-8.5,2.4-17.7,5.1-26.2,7.5c5.2,18.3,15.1,55,18.1,65.5c0.1,0.4,0.2,0.7,0.4,1.2l27.8-7.9l1.6,5.5c-0.4,0.1-0.7,0.3-1,0.4
				c-10.1,2.9-20.3,5.8-30.4,8.6c-0.5,0.1-1.1,0.1-1.6-0.1c-2.9-1-5.7-2-8.6-3.1c-2.7,3.4-5.4,6.8-8.2,10.3c4,1.4,7.9,2.9,11.8,4.2
				c0.3,0.1,0.9-0.1,1.1-0.4c1.7-2.1,3.4-4.3,5.1-6.4c0.4-0.5,1-0.9,1.6-1.1c10-2.9,20-5.7,29.9-8.6c0.4-0.1,0.8-0.2,1.4-0.3
				L617.2,593.9z"/>
			
				<rect x="527.9" y="564.8" transform="matrix(0.2742 0.9617 -0.9617 0.2742 929.3073 -98.1574)" clip-path="url(#SVGID_2_)" fill="#FFFFFF" width="3.6" height="3.5"/>
			
				<rect x="529.7" y="571" transform="matrix(0.2742 0.9617 -0.9617 0.2742 936.5743 -95.3489)" clip-path="url(#SVGID_2_)" fill="#FFFFFF" width="3.6" height="3.5"/>
			
				<ellipse transform="matrix(0.2742 0.9617 -0.9617 0.2742 922.5453 -134.0461)" clip-path="url(#SVGID_2_)" fill="none" stroke="#231F20" stroke-width="1.4479" stroke-miterlimit="10" cx="550.1" cy="544.2" rx="16" ry="15.6"/>
			
				<ellipse transform="matrix(0.2742 0.9617 -0.9617 0.2742 962.0799 -118.7677)" clip-path="url(#SVGID_2_)" fill="none" stroke="#231F20" stroke-width="1.4479" stroke-miterlimit="10" cx="559.7" cy="578" rx="16" ry="15.6"/>
			<path clip-path="url(#SVGID_2_)" fill="#231F20" d="M510.8,575.3c2.9,10.2,15.5,7.6,25.9,6.5l-7.3-25.6
				C519.9,560.6,507.9,565,510.8,575.3z"/>
		</g>
	</g>
</g>
</svg>
