<!-- Generator: Adobe Illustrator 18.0.0, SVG Export Plug-In  -->
<svg version="1.1"
	 xmlns="http://www.w3.org/2000/svg" xmlns:xlink="http://www.w3.org/1999/xlink" xmlns:a="http://ns.adobe.com/AdobeSVGViewerExtensions/3.0/"
	 x="0px" y="0px" width="361.8px" height="157.3px" viewBox="0 0 361.8 157.3" enable-background="new 0 0 361.8 157.3"
	 xml:space="preserve">
<defs>
</defs>
<g>
	<g>
		<path fill="none" stroke="#D6684D" stroke-width="7" stroke-miterlimit="10" stroke-dasharray="11.1521,6.005" d="M69.2,25.1
			c-3.9-0.8-7.9,2.6-8.8,7.4l-0.4,2c-0.6,1-1,2.1-1.2,3.3L47.3,96.3c-1,4.9,1.5,9.4,5.4,10.2c3.9,0.8,7.9-2.6,8.8-7.4l0.4-2
			c0.6-1,1-2.1,1.2-3.3l11.4-58.4C75.6,30.4,73.1,25.9,69.2,25.1z"/>
		<path fill="none" stroke="#D6684D" stroke-width="7" stroke-miterlimit="10" stroke-dasharray="11.1521,6.005" d="M182.4,25
			c-0.6-0.1-1.2-0.1-1.8,0.2l-11-2.2c-0.2-0.2-0.5-0.3-0.8-0.3c-0.4-0.1-0.7-0.1-1.1,0l-0.3-0.1c0,0-3.5-1.5-6.5,8.4l-0.3-0.1
			l-0.2,0.8l0.2,0c-0.3,0.9-0.5,1.8-0.7,2.9c-0.3,1.1-0.5,2.1-0.6,3.2c-0.1,0.4-0.1,0.7-0.2,1.1l-0.2,0l-0.2,0.8l0.2,0
			c-0.1,0.7-0.1,1.4-0.1,2.1l-0.1,0.5l0.1,0c0,0.7,0,1.3,0.1,1.8l-0.2,0l-0.2,0.8l0.5,0.1c0.1,0.6,0.3,1,0.4,1.4
			c0.1,0.4,0.3,0.7,0.4,1l0,0.2l0.1,0c0.5,0.9,1.2,1.6,2,1.8c0.6,0.2,1.3,0.1,1.9-0.2l10.8,2.1c0.3,0.2,0.6,0.4,0.9,0.4
			c3.1,0.8,7.1-4.6,8.9-12C186.5,32.4,185.5,25.8,182.4,25z"/>
	</g>
	<path fill="none" stroke="#D6684D" stroke-width="7" stroke-miterlimit="10" stroke-dasharray="11.1521,6.005" d="M358.3,93.7
		l-0.1,0.3c-0.8-4.8-10.2-10.1-22.2-12.5L185.9,36.9c1.3-6.7,0.2-12.4-2.6-13.1c-0.6-0.1-1.2-0.1-1.8,0.2l-11-2.2
		c-0.2-0.2-0.5-0.3-0.8-0.3c-0.4-0.1-0.7-0.1-1.1,0l-0.3-0.1c0,0-3.5-1.5-6.5,8.4l-0.3-0.1l-0.2,0.8l0.2,0c-0.2,0.8-0.5,1.7-0.7,2.6
		l-74-0.6c-1.8-0.3-3.5-0.4-5.1-0.2l0-0.1L80.1,32l-1.6-0.3l-1.3-0.3c-0.4-3.5-2.5-6.4-5.5-7c-2.4-0.5-4.8,0.6-6.6,2.6
		c-0.1-0.1-0.3-0.2-0.4-0.3l0.1-0.5l-3-2.2l-0.1,0.7L35.2,3.9c-0.1,0-0.2,0-0.3,0.1c-0.4-0.2-0.9-0.3-1.3-0.4
		C23.5,1.8,11.2,24.4,5.9,54c-5.3,29.4-1.5,54.7,8.3,56.8c0,0.1,0.1,0.1,0.2,0.2l0.3-0.1c1.9,0.2,3.8-0.4,5.8-1.7l25.6-7.6l0,0
		l3.5-0.8c0,0,0,0,0,0l0,0l0,0c0.1,0,0.2-0.1,0.4-0.1c0.8,2.7,2.7,4.7,5.2,5.2c3,0.6,6.1-1.3,7.8-4.4l1.3,0.3l1.6,0.3l1.6,0.3
		l0.1-0.3c1.4,0.8,3,1.4,4.8,1.7l79.1,31.4c0.5,0.1,1.1,0.2,1.6,0.2c1.5,0.4,3,0.8,4.5,1.1l164,16.1c13.3,2.6,24.8,0.6,25.8-4.5
		l0.2-1.2l0.6-1.6l0.2-1.2c0.3-0.4,0.4-0.8,0.5-1.3l9.3-47.4c0.1-0.5,0.1-0.9,0-1.4L358.3,93.7z"/>
</g>
</svg>
