<!-- Generator: Adobe Illustrator 18.0.0, SVG Export Plug-In  -->
<svg version="1.1"
	 xmlns="http://www.w3.org/2000/svg" xmlns:xlink="http://www.w3.org/1999/xlink" xmlns:a="http://ns.adobe.com/AdobeSVGViewerExtensions/3.0/"
	 x="0px" y="0px" width="397.3px" height="217px" viewBox="0 0 397.3 217" enable-background="new 0 0 397.3 217"
	 xml:space="preserve">
<defs>
</defs>
<g>
	<path fill="#65696C" d="M77.3,30.8c2.8,1,3.4,6.5,1.4,12.4L59.7,98c-2,5.9-6,9.9-8.7,8.9l-38.9,7.7c-2.8-1,17.1-14.3,32.1-53.4
		c9.8-25.7,4.5-43.3,2.8-52.4C46.1,4,47.7,0.7,48.7,1L77.3,30.8z"/>
	<path fill="#65696C" d="M102.1,41.4c-7.4-2.6-14.9-0.1-16.9,5.4L67.3,98.6c-1.9,5.6,2.5,12.1,9.9,14.7l83.8,47.9
		c7.4,2.6,14.9,0.1,16.9-5.4l29.6-85.3c1.9-5.6-2.5-12.1-9.9-14.7L102.1,41.4z"/>
	<path fill="#65696C" d="M374.2,135.9c14.5,5,24.7,13.6,22.7,19.2L379,206.8c-1.9,5.6-15.2,6-29.7,1l-181.6-44.2
		c-14.5-5-24.7-13.6-22.7-19.2l29.6-85.3c1.9-5.6,15.2-6,29.7-1L374.2,135.9z"/>
	<path fill="#1F2325" d="M86.4,29.8c4.3,1.5,6.3,7,4.4,12.3l-22.1,63.8c-1.8,5.3-6.8,8.4-11.1,6.9l0,0c-4.3-1.5-6.3-7-4.4-12.3
		l22.1-63.8C77.1,31.5,82.1,28.4,86.4,29.8L86.4,29.8z"/>
	<polygon fill="#686C6B" points="78.4,30.7 52.2,106.3 48.1,106.6 75.4,27.8 	"/>
	
		<rect x="42.4" y="73.1" transform="matrix(0.3277 -0.9448 0.9448 0.3277 -16.3296 125.1595)" fill="#555859" width="74.7" height="1.9"/>
	
		<rect x="44.2" y="73.7" transform="matrix(0.3277 -0.9448 0.9448 0.3277 -15.7174 127.2517)" fill="#9EA1A1" width="74.7" height="1.9"/>
	
		<rect x="46" y="74.3" transform="matrix(0.3277 -0.9448 0.9448 0.3277 -15.1055 129.344)" fill="#555859" width="74.7" height="1.9"/>
	<path d="M74.8,35.7c2.8,1,3.4,6.5,1.4,12.4l-19,54.8c-2,5.9-6,9.9-8.7,8.9l-40,6c-2.8-1,18.3-12.7,33.2-51.8s2.7-60.8,5.5-59.8
		L74.8,35.7z"/>
	<path d="M99.4,47.1C92,44.6,84.5,47,82.6,52.6l-17.9,51.7c-1.9,5.6,2.5,12.1,9.9,14.7l83.8,47.9c7.4,2.6,14.9,0.1,16.9-5.4
		l29.6-85.3c1.9-5.6-2.5-12.1-9.9-14.7L99.4,47.1z"/>
	<path d="M371.5,141.6c14.5,5,24.7,13.6,22.7,19.2l-17.9,51.7c-1.9,5.6-15.2,6-29.7,1L165,169.3c-14.5-5-24.7-13.6-22.7-19.2
		l29.6-85.3c1.9-5.6,15.2-6,29.7-1L371.5,141.6z"/>
	<path d="M83.7,35.6c4.3,1.5,6.3,7,4.4,12.3L66,111.7c-1.8,5.3-6.8,8.4-11.1,6.9l0,0c-4.3-1.5-6.3-7-4.4-12.3l22.1-63.8
		C74.5,37.2,79.4,34.1,83.7,35.6L83.7,35.6z"/>
	<polygon fill="#25282A" points="75.7,36.4 49.5,112 45.4,112.3 72.7,33.6 	"/>
	
		<rect x="39.7" y="78.8" transform="matrix(0.3277 -0.9448 0.9448 0.3277 -23.519 126.4726)" fill="#25282A" width="74.7" height="1.9"/>
	
		<rect x="41.5" y="79.4" transform="matrix(0.3277 -0.9448 0.9448 0.3277 -22.9071 128.5649)" fill="#686C6B" width="74.7" height="1.9"/>
	
		<rect x="43.3" y="80.1" transform="matrix(0.3277 -0.9448 0.9448 0.3277 -22.295 130.657)" fill="#25282A" width="74.7" height="1.9"/>
	<path fill="#25282A" d="M295.7,162.4c3.7,1.3,7.7-0.7,9-4.4l0,0c1.3-3.7-0.7-7.7-4.4-9l-24.9-8.6c-3.7-1.3-7.7,0.7-9,4.4l0,0
		c-1.3,3.7,0.7,7.7,4.4,9L295.7,162.4z"/>
	<circle fill="#686C6B" cx="294.7" cy="154.6" r="7.8"/>
	<circle fill="#1F2325" cx="127.7" cy="97.3" r="7.5"/>
	<path stroke="#1F2325" stroke-width="0.94" stroke-miterlimit="10" d="M241.2,112c4.8,1.7,7.3,6.9,5.7,11.7l-9.1,26.1
		c-1.7,4.8-6.9,7.3-11.7,5.7l-78.3-27.2c-4.8-1.7-7.3-6.9-5.7-11.7l9.1-26.1c1.7-4.8,6.9-7.3,11.7-5.7L241.2,112z"/>
	<g>
		<path fill="#FFFFFF" d="M226.6,139.8l-7.1-2.4l0.4-1.2l5.7,2l1.1-3.1l-5-1.7l0.4-1.2l5,1.7l1.6-4.6l1.4,0.5L226.6,139.8z"/>
		<path fill="#FFFFFF" d="M218.2,136.9l-1.3-0.4l0.5-1.4l1.3,0.4L218.2,136.9z M219.2,134.1l-1.3-0.4l2.6-7.4l1.3,0.4L219.2,134.1z"
			/>
		<path fill="#FFFFFF" d="M215.2,135.9l-1.2-0.4l1.3-3.7c-0.4,0.3-0.8,0.4-1.3,0.5c-0.4,0.1-0.9,0-1.3-0.1c-0.9-0.3-1.6-0.9-1.9-1.7
			c-0.4-0.8-0.3-1.9,0.1-3.1c0.4-1.2,1-2.1,1.9-2.6s1.8-0.7,2.8-0.3c0.6,0.2,1,0.5,1.3,0.9c0.2,0.2,0.3,0.6,0.5,1l0.3-1l1.2,0.4
			L215.2,135.9z M213.3,125.7c-0.5,0.4-0.9,1.1-1.2,2c-0.3,0.8-0.3,1.5-0.2,2.1c0.2,0.6,0.6,1.1,1.2,1.3c0.6,0.2,1.1,0.2,1.7-0.1
			c0.6-0.3,1-0.9,1.4-1.9c0.2-0.7,0.3-1.3,0.3-1.8c0-0.9-0.5-1.6-1.4-1.9C214.5,125.2,213.9,125.3,213.3,125.7z"/>
		<path fill="#FFFFFF" d="M203.6,128.6c-0.4-0.4-0.7-0.9-0.8-1.3c-0.1-0.5-0.1-1,0-1.5c0-0.4,0.2-0.9,0.5-1.7l5.4,1.9
			c0.2-0.8,0.3-1.4,0.1-2c-0.2-0.6-0.6-1-1.3-1.2c-0.6-0.2-1.2-0.2-1.8,0.1c-0.3,0.2-0.6,0.4-0.8,0.7l-1.2-0.4
			c0.1-0.3,0.3-0.5,0.6-0.8c0.3-0.3,0.6-0.5,0.9-0.6c0.5-0.2,1.1-0.3,1.7-0.3c0.3,0,0.7,0.1,1.1,0.2c0.9,0.3,1.6,0.9,2,1.8
			c0.4,0.9,0.4,1.9,0,3.2c-0.4,1.2-1.1,2.1-2,2.6c-0.9,0.5-1.9,0.6-2.9,0.2C204.5,129.3,204,129,203.6,128.6z M204.2,125.5
			c-0.1,0.6-0.2,1-0.1,1.4c0.1,0.7,0.6,1.2,1.4,1.5c0.6,0.2,1.1,0.2,1.6-0.1s0.9-0.7,1.2-1.4L204.2,125.5z"/>
		<path fill="#FFFFFF" d="M200.2,127.6l-1.2-0.4l0.4-1.3c-0.2,0.2-0.5,0.4-1,0.7c-0.5,0.2-1,0.3-1.5,0.1c0,0-0.1,0-0.1,0
			c-0.1,0-0.1-0.1-0.3-0.1l0.5-1.3c0.1,0,0.1,0.1,0.2,0.1c0.1,0,0.1,0.1,0.2,0.1c0.6,0.2,1.2,0.2,1.7-0.1c0.5-0.3,0.8-0.7,1-1.2
			l1.5-4.3l1.2,0.4L200.2,127.6z"/>
		<path fill="#FFFFFF" d="M191.9,120.1c0.2-0.6,0.2-1.1,0.1-1.5c-0.2-0.8-0.9-1.4-2-1.8c-0.5-0.2-1-0.3-1.4-0.2
			c-0.9,0-1.5,0.4-1.7,1.1c-0.2,0.6-0.2,1,0.1,1.4c0.3,0.3,0.7,0.7,1.4,1.2l1.2,0.8c0.8,0.5,1.3,0.9,1.6,1.3
			c0.5,0.6,0.6,1.4,0.3,2.2c-0.3,0.9-0.9,1.6-1.7,1.9c-0.8,0.4-1.8,0.4-2.9,0c-1-0.4-1.8-0.9-2.4-1.7s-0.6-1.7-0.2-2.9l1.3,0.4
			c-0.1,0.6-0.1,1,0,1.4c0.2,0.7,0.8,1.2,1.8,1.5c0.8,0.3,1.4,0.3,1.9,0.1c0.5-0.2,0.8-0.6,0.9-1c0.2-0.5,0.1-0.9-0.2-1.3
			c-0.2-0.2-0.7-0.6-1.6-1.2L187,121c-0.6-0.4-1.1-0.8-1.3-1.2c-0.5-0.7-0.5-1.5-0.2-2.4c0.4-1.1,1.1-1.8,2-2c1-0.2,2-0.1,3,0.2
			c1.2,0.4,2.1,1.1,2.6,2c0.5,0.9,0.5,1.9,0.1,3L191.9,120.1z"/>
		<path fill="#FFFFFF" d="M177.3,119.3c-0.4-0.6-0.5-1.4-0.2-2.4l1.2,0.4c-0.1,0.5,0,0.9,0.1,1.3c0.2,0.4,0.5,0.7,1.1,0.9
			c0.8,0.3,1.5,0.1,2.1-0.6c0.4-0.4,0.7-1,1-1.8c0.3-0.7,0.3-1.4,0.2-2c-0.1-0.6-0.5-1-1.2-1.3c-0.5-0.2-1-0.2-1.4,0
			c-0.4,0.2-0.8,0.6-1.1,1.1l-1.2-0.4c0.5-0.9,1.1-1.5,1.8-1.8c0.7-0.3,1.5-0.2,2.4,0.1c1,0.3,1.6,1,2,1.9c0.3,0.9,0.3,1.9-0.1,3
			c-0.5,1.3-1.1,2.2-2,2.7c-0.9,0.5-1.8,0.6-2.8,0.3C178.3,120.3,177.7,119.8,177.3,119.3z"/>
		<path fill="#FFFFFF" d="M169.8,116.3c-0.4-0.9-0.4-1.9,0-3.2c0.4-1.2,1-2.1,1.9-2.7s1.9-0.7,3.1-0.2c1,0.4,1.7,1,2.1,1.9
			c0.4,0.9,0.3,1.9-0.1,3.1c-0.4,1.2-1.1,2.1-2,2.7c-0.9,0.5-1.9,0.6-2.9,0.2C170.9,117.7,170.3,117.1,169.8,116.3z M172.3,111.6
			c-0.5,0.5-0.9,1.2-1.2,1.9c-0.2,0.7-0.3,1.3-0.3,1.8c0.1,0.8,0.6,1.4,1.4,1.6c0.8,0.3,1.4,0.2,2-0.3c0.5-0.5,1-1.1,1.2-1.9
			c0.3-0.8,0.3-1.5,0.2-2.2c-0.2-0.6-0.6-1.1-1.4-1.4C173.5,111,172.8,111.1,172.3,111.6z"/>
		<path fill="#FFFFFF" d="M167.2,116.2l-1.2-0.4l0.3-1c-0.4,0.3-0.7,0.4-1.1,0.5c-0.5,0.1-1.1,0.1-1.6-0.1c-0.8-0.3-1.4-0.9-1.8-1.7
			c-0.4-0.8-0.3-1.9,0.1-3.1c0.6-1.6,1.4-2.6,2.5-3c0.7-0.3,1.4-0.3,2.1,0c0.6,0.2,1,0.5,1.3,0.9c0.2,0.2,0.3,0.5,0.5,1l1.3-3.8
			l1.2,0.4L167.2,116.2z M164.5,108.7c-0.6,0.4-1,1-1.3,2c-0.2,0.6-0.3,1.1-0.3,1.6c0,0.9,0.5,1.5,1.4,1.8c0.9,0.3,1.6,0.1,2.2-0.7
			c0.3-0.4,0.6-1,0.9-1.7c0.2-0.6,0.3-1.1,0.2-1.6c-0.1-0.9-0.5-1.5-1.4-1.8C165.6,108.3,165,108.4,164.5,108.7z"/>
		<path fill="#FFFFFF" d="M154.6,111.6c-0.4-0.4-0.7-0.9-0.8-1.3c-0.1-0.5-0.1-1,0-1.5c0-0.4,0.2-0.9,0.5-1.7l5.4,1.9
			c0.2-0.8,0.3-1.4,0.1-2c-0.2-0.6-0.6-1-1.3-1.2c-0.6-0.2-1.2-0.2-1.8,0.1c-0.3,0.2-0.6,0.4-0.8,0.7l-1.2-0.4
			c0.1-0.3,0.3-0.5,0.6-0.8s0.6-0.5,0.9-0.6c0.5-0.2,1.1-0.3,1.7-0.3c0.3,0,0.7,0.1,1.1,0.2c0.9,0.3,1.6,0.9,2,1.8
			c0.4,0.9,0.4,1.9,0,3.2c-0.4,1.2-1.1,2.1-2,2.6c-0.9,0.5-1.9,0.6-2.9,0.2C155.5,112.4,155,112.1,154.6,111.6z M155.2,108.6
			c-0.1,0.6-0.2,1-0.1,1.4c0.1,0.7,0.6,1.2,1.4,1.5c0.6,0.2,1.1,0.2,1.6-0.1s0.9-0.7,1.2-1.4L155.2,108.6z"/>
	</g>
	<g>
		
			<ellipse transform="matrix(0.9273 0.3744 -0.3744 0.9273 35.0834 -67.3859)" fill="#1F2325" cx="191" cy="56.6" rx="6.5" ry="15.6"/>
		<g>
			<path fill="#000001" stroke="#65696C" stroke-width="0.94" stroke-miterlimit="10" d="M185.3,70.4c0,0-6.2-1.2-0.4-16.3
				s10.3-12.4,10.3-12.4l14.9,5.2l-9.9,28.6L185.3,70.4z"/>
			
				<rect x="199.2" y="37.4" transform="matrix(-0.3277 0.9448 -0.9448 -0.3277 308.4886 -127.5832)" fill="#65696C" width="0.9" height="17.1"/>
			
				<rect x="197.1" y="39.7" transform="matrix(-0.3277 0.9448 -0.9448 -0.3277 307.8944 -122.4992)" fill="#65696C" width="0.9" height="17.2"/>
			
				<rect x="195.3" y="42.2" transform="matrix(-0.3277 0.9448 -0.9448 -0.3277 307.5907 -117.8593)" fill="#65696C" width="0.9" height="16.6"/>
			
				<rect x="193.7" y="44.9" transform="matrix(-0.3277 0.9448 -0.9448 -0.3277 308.0588 -112.6513)" fill="#65696C" width="0.9" height="16.8"/>
			
				<rect x="192.7" y="47.8" transform="matrix(-0.3277 0.9448 -0.9448 -0.3277 309.4518 -107.9936)" fill="#65696C" width="0.9" height="16.7"/>
			
				<rect x="191.4" y="51" transform="matrix(-0.3277 0.9448 -0.9448 -0.3277 310.4752 -102.9104)" fill="#65696C" width="0.9" height="16.1"/>
			
				<rect x="190.6" y="53.5" transform="matrix(-0.3277 0.9448 -0.9448 -0.3277 312.1456 -98.2367)" fill="#65696C" width="0.9" height="16.9"/>
			
				<rect x="190.3" y="56.3" transform="matrix(-0.3277 0.9448 -0.9448 -0.3277 314.6435 -94.0615)" fill="#65696C" width="0.9" height="17.2"/>
			
				<rect x="189.6" y="59.3" transform="matrix(-0.3277 0.9448 -0.9448 -0.3277 316.3445 -89.5918)" fill="#65696C" width="0.9" height="16.9"/>
			
				<rect x="190.8" y="62.5" transform="matrix(-0.3277 0.9448 -0.9448 -0.3277 321.1619 -86.2761)" fill="#65696C" width="0.9" height="17.2"/>
		</g>
		
			<ellipse transform="matrix(0.9273 0.3744 -0.3744 0.9273 37.9511 -72.6299)" fill="#65696C" cx="205.9" cy="61.4" rx="6.5" ry="15.6"/>
	</g>
	<rect x="198.6" y="72.1" transform="matrix(0.9233 0.3842 -0.3842 0.9233 48.6951 -76.7523)" width="35.7" height="22.8"/>
	<ellipse transform="matrix(0.9501 0.312 -0.312 0.9501 19.7939 -5.6616)" cx="27.6" cy="59" rx="20.8" ry="61.8"/>
	<polygon fill="#1F2325" points="397.3,153.2 394.2,160.8 374.9,214.5 377.7,209.5 	"/>
</g>
</svg>
