<!-- Generator: Adobe Illustrator 18.0.0, SVG Export Plug-In  -->
<svg version="1.1"
	 xmlns="http://www.w3.org/2000/svg" xmlns:xlink="http://www.w3.org/1999/xlink" xmlns:a="http://ns.adobe.com/AdobeSVGViewerExtensions/3.0/"
	 x="0px" y="0px" width="385.1px" height="418.8px" viewBox="0 0 385.1 418.8" enable-background="new 0 0 385.1 418.8"
	 xml:space="preserve">
<defs>
</defs>
<g>
	<g>
		<g>
			<path fill="none" stroke="#006838" stroke-width="8" stroke-miterlimit="10" d="M223.5,170c1.1-3.6,2.1-6.2,2.1-6.2
				s1.4,2.1,3.6,5.4"/>
			<path fill="none" stroke="#006838" stroke-width="8" stroke-miterlimit="10" stroke-dasharray="14.979,8.0656" d="M233.6,175.9
				c7.7,11.3,18.5,26.5,21.2,27.7c2,0.9-1.3,1.4-5.5,1.7"/>
			<path fill="none" stroke="#006838" stroke-width="8" stroke-miterlimit="10" d="M245.3,205.5c-3.5,0.2-6.5,0.2-6.5,0.2
				s-1.8-2.1-4.4-4.8"/>
			<path fill="none" stroke="#006838" stroke-width="8" stroke-miterlimit="10" stroke-dasharray="10.458,5.6312" d="M230.5,196.9
				c-3.2-3.1-6.6-6.1-8.8-6.9c-3-1.1-1.1-10.2,1-17.3"/>
		</g>
	</g>
	<g>
		<g>
			<path fill="none" stroke="#006838" stroke-width="8" stroke-miterlimit="10" d="M86.4,328.8l-6.2,1.8c-0.6,2.1-1.7,4-3.3,5.5"/>
			<path fill="none" stroke="#006838" stroke-width="8" stroke-miterlimit="10" d="M74,338.3c-0.8,0.5-1.7,0.9-2.6,1.2
				c-1,0.4-2.1,1-3.2,1.7c0.7,2,1,4.2,0.7,6.4"/>
			<path fill="none" stroke="#006838" stroke-width="8" stroke-miterlimit="10" stroke-dasharray="10.3746,5.5863" d="M67.2,353
				c-1.9,3.2-5.3,5.5-10.2,5.5c-0.4,0-0.7,0-1,0"/>
			<path fill="none" stroke="#006838" stroke-width="8" stroke-miterlimit="10" d="M53.3,357.9c-2.2-0.7-4-1.9-5.3-3.5
				c-2.1,0.6-4.3,0.8-6.4,0.8"/>
			<path fill="none" stroke="#006838" stroke-width="8" stroke-miterlimit="10" d="M29.2,351.6c-0.2-0.1-0.4-0.2-0.5-0.4
				c-1.8-1.2-3.1-2.6-4-4.2L14,350.2c0,0,1.1,2.2,2.8,5.9"/>
			<path fill="none" stroke="#006838" stroke-width="8" stroke-miterlimit="10" stroke-dasharray="15.3617,8.2717" d="M20.3,363.5
				c5.5,11.8,13.3,28.6,17.9,39.2"/>
			<path fill="none" stroke="#006838" stroke-width="8" stroke-miterlimit="10" d="M39.8,406.6c1.4,3.4,2.2,5.7,2.1,6.1l6.1-2.2"/>
			
				<line fill="none" stroke="#006838" stroke-width="8" stroke-miterlimit="10" stroke-dasharray="12.9626,6.9799" x1="54.7" y1="408.2" x2="239.2" y2="342.4"/>
			<path fill="none" stroke="#006838" stroke-width="8" stroke-miterlimit="10" d="M242.5,341.3l6.1-2.2c0,0,0.5-2.4,0.3-6.5"/>
			<path fill="none" stroke="#006838" stroke-width="8" stroke-miterlimit="10" stroke-dasharray="13.2555,7.1376" d="M248.1,325.5
				c-1.3-6.1-4.1-13.7-10.3-21.6c-14.4-18.4-45.8-6.3-45.8-6.3L89.8,327.8"/>
		</g>
	</g>
	<g>
		<path fill="#FFFFFF" d="M209.1,209.4c6.2-2.3,10.7-7.7,11.8-14.2c3.6-22.4,11.5-75.4,10.5-108.7C230.2,43.4,171,4,107,4
			S-8.8,26.9,9.7,97.3s30.8,132.9,27.1,155.3C33.6,271.9,170.5,223.4,209.1,209.4z"/>
		<path fill="none" stroke="#006838" stroke-width="8" stroke-miterlimit="10" stroke-dasharray="12.9182,6.9559" d="M209.1,209.4
			c6.2-2.3,10.7-7.7,11.8-14.2c3.6-22.4,11.5-75.4,10.5-108.7C230.2,43.4,171,4,107,4S-8.8,26.9,9.7,97.3s30.8,132.9,27.1,155.3
			C33.6,271.9,170.5,223.4,209.1,209.4z"/>
	</g>
	<g>
		<g>
			<path fill="none" stroke="#006838" stroke-width="8" stroke-miterlimit="10" d="M277.4,208.8c-3.6,0.4-6.5,0.5-6.5,0.5l-1.6-6.3"
				/>
			<path fill="none" stroke="#006838" stroke-width="8" stroke-miterlimit="10" stroke-dasharray="12.9136,6.9535" d="M271.9,196.8
				c7.2-12.9,25.2-47.4,24.2-65.1c-1.2-22.2-48-13.6-54.8-12.3c-6.8,1.2-5.5-3.7-5.5-3.7s16.6-12.9,47.4-14.2s38.2,16.6,33.3,30.8
				c-4.9,14.2-27.1,60.4-24,68.4c1.7,4.5-5.2,6.6-11.6,7.7"/>
		</g>
	</g>
	<g>
		<path fill="#FFFFFF" d="M238.8,205.8c0,0-165.1,33.4-189.7,51.3s51.7,37.7,69.6,40.1c17.9,2.5,52.4-6.2,75.8-9.9
			c23.4-3.7,172.5-30.3,186-70.2C392.4,182.1,238.8,205.8,238.8,205.8z"/>
		<path fill="none" stroke="#006838" stroke-width="8" stroke-miterlimit="10" stroke-dasharray="13.0528,7.0285" d="M238.8,205.8
			c0,0-165.1,33.4-189.7,51.3s51.7,37.7,69.6,40.1c17.9,2.5,52.4-6.2,75.8-9.9s172.5-30.3,186-70.2
			C392.4,182.1,238.8,205.8,238.8,205.8z"/>
	</g>
	<g>
		<g>
			<path fill="none" stroke="#006838" stroke-width="8" stroke-miterlimit="10" d="M83.1,328c0,0,2,0.7,6.4-0.4"/>
			<path fill="none" stroke="#006838" stroke-width="8" stroke-miterlimit="10" stroke-dasharray="13.0909,7.0489" d="M96.2,325.2
				c6.9-3.1,16.6-9.1,30-21.1"/>
			<path fill="none" stroke="#006838" stroke-width="8" stroke-miterlimit="10" d="M128.8,301.8c0.7-0.7,1.5-1.4,2.2-2.1
				c0.9-0.8,1.7-1.6,2.5-2.4c-2.3,0.2-4.4,0.3-6.5,0.3"/>
			<path fill="none" stroke="#006838" stroke-width="8" stroke-miterlimit="10" d="M125.2,297.6c-2.3,0-4.5-0.2-6.5-0.4"/>
		</g>
	</g>
	<g>
		<path fill="#FFFFFF" d="M36.4,261.6c-1.7-4.7-9.9-34.3-8.4-39.9c4.6-16.5-11.9-14.3,3.4-31.4c2.8,10.6,3.7,14.5,5,18.8L44,240
			c0.2,0.8,0.5,1.5,1,2.1c9.4,13.4,15.9,39.2,25.5-6.1c3.8-17.6,13.5-41.8,10.6-68.2c-3.1-28.3-44.3-17.2-56.9-10.6
			c-9.4,5-4.2-7.1-2.8-10.1c0.2-0.5,0.5-1,0.9-1.4c2.7-3.2,16.1-16.6,46.5-15.2c34.5,1.6,51,19.7,37,44.7S78.6,293.1,81.1,297.6
			c2.5,4.5,7.4,14.3,4.9,23c-2.5,8.6-13.6,27.1-13.6,34.5c0,7.4,8.6,18.5,12.3,24.6c3.7,6.2-5.1,14.8-18.5,17.2
			c-13.5,2.5-41-49.3-44.5-51.7s-7.9-0.5-4.1-9.2c1.8-4.2,4.3-5.5,6.8,3.1S26.6,291,36.4,261.6"/>
		<g>
			<path fill="none" stroke="#006838" stroke-width="8" stroke-miterlimit="10" d="M36.4,261.6c-0.4-1-1.1-3.3-1.9-6.2"/>
			<path fill="none" stroke="#006838" stroke-width="8" stroke-miterlimit="10" stroke-dasharray="12.0577,6.4926" d="M32.8,249.1
				c-2.7-10.4-5.8-23.8-4.8-27.4c3.7-13.4-6.4-14.5-2.2-23.5"/>
			<path fill="none" stroke="#006838" stroke-width="8" stroke-miterlimit="10" d="M27.4,195.4c1-1.5,2.3-3.2,4-5.1
				c0.6,2.4,1.2,4.5,1.6,6.3"/>
			<path fill="none" stroke="#006838" stroke-width="8" stroke-miterlimit="10" stroke-dasharray="13.0929,7.05" d="M34.8,203.4
				c0.6,2.2,1,3.9,1.6,5.7L44,240c0.2,0.8,0.5,1.5,1,2.1c9.4,13.4,15.9,39.2,25.5-6.1c3.8-17.6,13.5-41.8,10.6-68.2
				c-3.1-28.3-44.3-17.2-56.9-10.6c-9.4,5-4.2-7.1-2.8-10.1c0.2-0.5,0.5-1,0.9-1.4c2.7-3.2,16.1-16.6,46.5-15.2
				c34.5,1.6,51,19.7,37,44.7S78.6,293.1,81.1,297.6s7.4,14.3,4.9,23c-2.5,8.6-13.6,27.1-13.6,34.5c0,7.4,8.6,18.5,12.3,24.6
				c3.7,6.2-5.1,14.8-18.5,17.2c-13.5,2.5-41-49.3-44.5-51.7c-3.5-2.5-7.9-0.5-4.1-9.2c1.8-4.2,4.3-5.5,6.8,3.1
				c2.2,7.8,2.2-37.3,9.3-67.8"/>
			<path fill="none" stroke="#006838" stroke-width="8" stroke-miterlimit="10" d="M34.6,267.8c0.6-2.2,1.2-4.3,1.8-6.2"/>
		</g>
	</g>
	<g>
		<g>
			<path fill="none" stroke="#006838" stroke-width="8" stroke-miterlimit="10" d="M65.2,254.7c0.7-1.7,1.4-3.7,2.1-6.1
				c-2.2,0.8-4.2,1.6-6.1,2.3"/>
			<path fill="none" stroke="#006838" stroke-width="8" stroke-miterlimit="10" d="M58.4,252.1c-2.2,1-4.2,1.9-5.9,2.8
				c1.3,2.2,2.6,4,3.9,5.2"/>
		</g>
	</g>
	<g>
		
			<ellipse fill="none" stroke="#006838" stroke-width="8" stroke-miterlimit="10" stroke-dasharray="12.2815,6.6131" cx="54.3" cy="312.9" rx="21.8" ry="26.2"/>
	</g>
	<g>
		<path fill="#FFFFFF" d="M192,297.6c0,0,2.6-1.1,10.6-2.8c7.7-1.7,28.4,29.7,24.1,33.4c-4.3,3.7-22.9,9.2-13.9,7.7
			c7.5-1.2,28,3.2,37.8-4.8c9.9-8,4.3-10.7,3.1-20.4c-1.2-9.7,1.2-16.5,5.5-23.3c4.3-6.8,14.3-16.7,14.3-16.7
			c-35.7,9.3-68.9,15.1-79,16.7C194.4,287.3,191.4,291.9,192,297.6z"/>
		<g>
			<path fill="none" stroke="#006838" stroke-width="8" stroke-miterlimit="10" d="M200.9,286.3c-2.7,0.5-4.8,0.8-6.4,1.1
				c0,0-3.1,4.6-2.5,10.3c0,0,1.6-0.7,6.2-1.8"/>
			<path fill="none" stroke="#006838" stroke-width="8" stroke-miterlimit="10" stroke-dasharray="13.2735,7.1472" d="M205.2,295.2
				c8.9,3.8,25.3,29.7,21.5,33c-4.3,3.7-22.9,9.2-13.9,7.7c7.5-1.2,28,3.2,37.8-4.8c9.9-8,4.3-10.7,3.1-20.4
				c-1.2-9.7,1.2-16.5,5.5-23.3c1.8-2.9,4.7-6.3,7.4-9.3"/>
			<path fill="none" stroke="#006838" stroke-width="8" stroke-miterlimit="10" d="M268.9,275.4c2.5-2.7,4.5-4.7,4.5-4.7
				c-2.1,0.5-4.2,1.1-6.3,1.6"/>
			<path fill="none" stroke="#006838" stroke-width="8" stroke-miterlimit="10" stroke-dasharray="13.1464,7.0788" d="M260.3,274
				c-22.7,5.5-43.3,9.5-55.9,11.7"/>
		</g>
	</g>
	<g>
		<g>
			<path fill="none" stroke="#006838" stroke-width="8" stroke-miterlimit="10" d="M255.2,282.7c1.7-2.2,3.2-3.8,4.6-4.6
				c0,0-2.4,0.9-6.1,2.1"/>
			<path fill="none" stroke="#006838" stroke-width="8" stroke-miterlimit="10" stroke-dasharray="12.9104,6.9518" d="M247,282.4
				c-12.3,4-29.8,9.2-34.3,8c-7.1-1.8,20.6,25.2,20,30.5c-0.5,4.1,11.3-21.8,20.5-35.4"/>
		</g>
	</g>
	<g>
		<g>
			<path fill="none" stroke="#006838" stroke-width="8" stroke-miterlimit="10" d="M58.9,382.9c-1.4-1.6-2.6-3.5-3.2-5.6
				c0,0,2.8-0.6,6.3-1.5"/>
			<path fill="none" stroke="#006838" stroke-width="8" stroke-miterlimit="10" stroke-dasharray="14.5208,7.8189" d="M69.6,373.7
				c1.3-0.4,2.5-0.9,3.5-1.3c5.4-2.4,8,12.9,6.2,13.6c-1.8,0.6-8.2,5.5-11.5,3.7c-1.5-0.8-3.8-2.2-6-4"/>
		</g>
	</g>
	<g>
		
			<ellipse fill="none" stroke="#006838" stroke-width="8" stroke-miterlimit="10" stroke-dasharray="17.9845,9.684" cx="243.3" cy="323.1" rx="3.8" ry="4.9"/>
	</g>
	<g>
		<path fill="#FFFFFF" d="M14,350.2c-7.2,0-13.1,56.1-8.1,59.1c5,3.1,22.3,7.4,35.2,3.7S24.4,350.2,14,350.2z"/>
		<path fill="none" stroke="#006838" stroke-width="8" stroke-miterlimit="10" stroke-dasharray="12.3819,6.6672" d="M14,350.2
			c-7.2,0-13.1,56.1-8.1,59.1s22.3,7.4,35.2,3.7C54,409.3,24.4,350.2,14,350.2z"/>
	</g>
</g>
</svg>
