<!-- Generator: Adobe Illustrator 18.0.0, SVG Export Plug-In  -->
<svg version="1.1"
	 xmlns="http://www.w3.org/2000/svg" xmlns:xlink="http://www.w3.org/1999/xlink" xmlns:a="http://ns.adobe.com/AdobeSVGViewerExtensions/3.0/"
	 x="0px" y="0px" width="158.5px" height="94.8px" viewBox="0 0 158.5 94.8" enable-background="new 0 0 158.5 94.8"
	 xml:space="preserve">
<defs>
</defs>
<g>
	<g>
		<path fill-rule="evenodd" clip-rule="evenodd" fill="#28803F" d="M93.9,67.8c0.1,0,0.2,0,0.4,0l-0.4,0.1l-0.4,0.1
			C93.8,67.7,93.2,67.7,93.9,67.8z"/>
		<path fill-rule="evenodd" clip-rule="evenodd" fill="#28803F" d="M15,44.1c0,23.7-6.7,31.1-7.2,34.2L0,77.9
			c0.6-1.6,6.5-7.3,6.5-33.1c0-2.2-0.2-4.8-0.2-6.9C6,28.6,2.6,19.1,2.8,13.5c0.1-4.5,2-7.8,4.7-9.6C10,2.2,14.8,0.8,18.6,1
			c2.9,0.3,4.2,0.4,6.3,1.8c1.6,1,2.7,2.3,3.7,4c1.1,4.5,2,5.4,1.6,11.6c-0.7,11.7-7.8,29.3-5.4,34.8c0.8,1.8,1.7,2.4,4.3,2.1
			c0.9-0.1,1.8-0.5,2.3-0.9c1.1-0.7,0.9-1.2,1.6-1.8c2.3-9.2-0.6-14.6-1.4-23.9c-0.4-4.2-0.4-9.1,0.5-12.9c0.7-2.6,1.8-5.2,3.4-6.9
			c0.2-0.2,0.6-0.5,0.9-0.8c0.6-0.5,0.7-0.6,1-1c0.8-0.6,1.1-0.4,1.5-1.1c0.9,0.3,2.5-0.6,3.6-0.8c1.4-0.2,2.9-0.3,4.4-0.5
			c0,0,9.4,0.1,12.3,7.7c0.4,1.1,1.9,4.1,0.1,13.4c-0.6,3.1-1.4,5.8-2.3,8.7c-1.4,4.7-4.7,13-3.2,18.3c0.8,1.5,0.8,1.5,2.8,1.7
			c5.3,0.4,6.6-4.3,7.1-5.8c2.9-9.6-4.7-17.6-2.2-32.9c0.3-1.3,1.9-7.9,10.1-8.9c1.5-0.2,2.9-0.4,4.5-0.6
			c4.7,1.9,12.7,3.7,13.1,12.1c0.3,6.2-1.2,13-2.9,18.8c-0.9,3.2-4.9,14.7-2.8,18.1c0.8,2.2,2.6,2.5,5.5,2.2
			c2.6-0.3,4.3-1.1,4.9-3.1c0.1,0,0.1-0.1,0.2-0.2c1.2-1.5,1.5-7.7,0.5-9.5c0-0.6-0.1-1.2-0.2-1.9c-0.6-3.3-2.1-7.8-2.8-10.4
			c-1.2-4.3-1.5-8.8-1.3-13.7c0.8-6.3,5.6-10,9.6-10.4c1.3-0.1,4.4-0.3,5.8-0.1c1.2,0.2,3.3,0.7,4.3,1.2c4.9,2.2,8.6,7.1,8,13.4
			c-0.6,3.5-0.1,4.9-1.5,9.5c-1.8,5.7-4.3,11.2-5.1,17.2c-0.4,2.5-0.8,7.9,1.1,9.4c0.7,3.1,8.3,4.5,10.1-1.4c1.6-1.4,1.2-7.8,1-10.2
			c-0.1-1.2-0.2-2.5-0.7-3.4c0.1-2.3-1.8-7.8-2.4-10.3c-1.1-4.4-1.1-6.4-1.5-11.2c-0.3-2,0.7-5.8,1.3-7.3c0.3-0.8,1.3-3.4,3.7-4.9
			c2.8-1.6,6.5-2.1,7.5-2.1c3.8,0.2,7.3,0.7,9.9,2.4c2.3,1.5,4.2,3.8,4.5,7.4c0.3,3.1,0.1,6.5-0.3,9.6c-0.3,2.4-0.8,6.4-1.6,8.5
			c-0.7,2.7-3.2,12-3.3,14.5c-0.3,4.6-0.6,6.6-0.2,12.3c0.4,5.8,0.5,6.1,1.5,11.6c1.3,7.6,4.1,17.4,5.5,20.5l-7.6-0.5
			c-0.5-2-1.2-3.9-1.9-6c-1.3-3.8-3.3-13.6-4-18.2c0,0-0.1-0.7-0.1-0.8l-0.4-0.8c0.2-0.6-0.8-10.4-0.8-12.8c0-2.4,0-4.8,0.1-7.1
			c0.1-2.8,1.3-9.8,2.1-12.4c0.5-1.8,1-4,1.6-5.5c1.1-2.7,3.1-8.3,1.7-11.6c-1.3-5.1-9-5.7-9.2,0.5c-0.4,13.6,6.1,30.4,1.2,42.4
			c-0.9,2.3-0.8,2-2,3.7c-0.3,0.5-3.8,3.6-6,4.2l0.3,0.1c-0.7,0.2-3.7,0.4-4.6,0.4c-3,0-6.2-0.6-8.5-2.3c-2.2-1.6-1.7-2.3-2.7-2.6
			c-0.5-1.9-2.5-3.6-2.4-10.5c0-10.5,2.8-17.9,5.8-27.4c0.7-2.3,0.7-2.3,0.9-4.9c-0.4-2.9-0.4-3.6-2.3-5c-1.1-0.8-2.6-1.4-4.4-1.3
			c-3.3,0.2-5.1,2.9-5.1,6.1c0.1,1.9,2.1,9.5,2.7,12.2c1.7,7.7,2.9,19.4-0.8,26.4c-1.7,3.3-3.5,4.9-7.1,6.3
			c-0.4,0.2-0.9,0.3-1.4,0.5c-2.4,0.8-7.5,0.3-9.6-0.5c-2.5-0.9-4-2-5.6-3.9c-0.7-0.9,0.3-0.3-0.8-0.7c-0.2-0.7-0.9-1.7-1.4-2.4
			C74,57,73,54.7,73,50.3c0-3.7,0.6-7.6,1.4-10.8c0.8-3.3,1.7-6.2,2.9-9.4c1-2.8,2.7-5.9,3.4-8.7c0.6-2.1,0.7-2.9,0-4.9
			c0,0-1.2-1.5-2.9-1.6c-3.3-0.1-7.5-0.6-8.2,3.6c-0.3,2.1,1.7,10.6,2.1,13.8c0.6,6.4,1,15.2-0.1,21.7c-1.7,10.2-10,12.8-10,12.8
			c-1.7,0.6-7.4,0.3-9.2-0.2C50.8,66,50,65.7,48.9,65c-1.1-0.7-4.4-1.6-5.7-8.2c-1.3-6.2,1.1-16.3,2.7-21.9
			c1.1-3.7,2.4-7.2,3.5-10.9c0.7-2.2,2.2-8.4-0.6-9.9c-0.5-0.3-0.8-0.3-1.3-0.3c-5.5-0.2-6.3,3.4-5.9,8c0.5,4.4,0.9,8.6,1,13
			c0.2,6.4,0.1,13.5-1.6,19.8c-0.5,1.9-1.4,3.5-1.9,5.1c-0.7,1.8-3.3,4.5-5.5,5.2l0.3,0c-2,1.1-9.1-0.1-10.7-1.1
			c-13.4-5.3-6.6-26.3-2.2-36.9c0.6-1.4,1.9-4.1,2.1-5.5c0.5-0.8,0.9-3,0.7-4.5c-0.1-0.8-0.3-1.5-0.6-2.2c-0.4-0.9-0.5-1-1.3-1.4
			c-0.9-1.9-6.7-3.5-9.1-1.7c-2.4,1.8-1.5,7.5-0.6,10.4C14.3,29.4,15,35.6,15,44.1z"/>
	</g>
	<path fill-rule="evenodd" clip-rule="evenodd" fill="#172C18" d="M21.9,13.2c-0.3,2.4,0.3,6.3,1.1,8.1c-0.1,1.4-1.5,4.1-2.1,5.5
		c-4.3,10.6-11.2,31.6,2.2,36.9c-0.5,1.9-0.2,2-2.2,7.1L7.9,78.3c0.5-3.1,7.2-10.5,7.2-34.2c0-8.5-0.7-14.6-2.9-22.1
		c-0.8-2.9-1.7-8.6,0.6-10.4C15.2,9.8,21,11.4,21.9,13.2z"/>
	<path fill-rule="evenodd" clip-rule="evenodd" fill="#1D3F1D" d="M141.6,74.5c-0.9-5.5-2.2-18.9-1.3-24.7
		c0.4-2.5,4.9-20.1,5.2-22.5c0.4-3.1,0.6-6.5,0.3-9.6l0,0c-0.3-3.6-2.2-5.9-4.5-7.4c-2.6-1.7-6.1-2.1-9.9-2.4
		c5.8-0.2,10-1.9,16.1-0.4c4.7,1.1,7.2,6.6,7.7,9.3c1,3.4-0.3,12.6-0.7,17.5c-2,16.7-2.5,33.4,0,43.7c0.4,1.7,2,6.8,3.9,10.3
		l-11,6.3C146.3,91.7,142.9,82.1,141.6,74.5z"/>
	<path fill-rule="evenodd" clip-rule="evenodd" fill="#1D3F1D" d="M111.3,49.2c0.8-6,3.3-11.5,5.1-17.2c1.5-4.6,1-6,1.5-9.5
		c0.6-6.3-3.1-11.1-8-13.4c-1-0.4-5.3-1.3-5.9-1.3c7.5-0.6,14.9-2.3,19.9,2.2c-0.7,0.8-1.4,1.3-2.1,2.2c-0.5,0.7-1.3,1.9-1.6,2.7
		c-0.7,1.5-1.6,5.3-1.3,7.3c0.3,4.8,0.4,6.8,1.5,11.2c0.6,2.5,2.5,8,2.4,10.3c-0.5,2.3-0.9,4.2-1.2,6.9c-0.3,3,0.2,4.3,0.9,6.6
		c-1.6,0-3.3,0.5-5.1,0.7c-0.9,0.1-4.5,0.4-5,0.7C110.6,57,111,51.7,111.3,49.2z"/>
	<path fill-rule="evenodd" clip-rule="evenodd" fill="#1D3F1D" d="M30.2,18.3c0.4-6.1-0.5-7.1-1.6-11.6c-1-1.8-2.1-3-3.7-4
		c-2.1-1.3-3.4-1.4-6.3-1.8c1.6-0.6,10.2-1.2,12.5-0.9C33,0.2,34.7,0.9,36,1.9c1.4,1,2.5,2.2,3,3.9c-0.5,0.8-0.7,0.5-1.5,1.1
		c-0.3,0.5-0.4,0.5-1,1c-0.3,0.3-0.7,0.5-0.9,0.8c-1.6,1.7-2.7,4.2-3.4,6.9c-1,3.8-0.9,8.7-0.5,12.9c0.8,9.3,3.7,14.7,1.4,23.9
		c-2.3,0-6.4,1-8.3,0.7C22.4,47.7,29.5,30.1,30.2,18.3z"/>
	<path fill-rule="evenodd" clip-rule="evenodd" fill="#172C18" d="M62.3,66.1c2.6-0.7,5.4-3.6,6.3-5.6c0.4-1.3,1.2-2.2,2.3-5.8
		c1.9-6.3,1.3-16.1,0.7-22.5c-0.3-3.1-2.4-11.7-2.1-13.8c0.7-4.2,5.1-4.6,8.3-3.8c0.6,0.2,2.8,1,2.8,1.7c-0.2,1.5-0.4,3.8,0.1,5
		c-0.7,2.8-2.4,5.9-3.4,8.7c-1.1,3.1-2,6-2.9,9.4c-0.8,3.2-1.4,7.1-1.4,10.8c0,4.4,1,6.7,2,10.2c0.5,0.7,1.1,1.7,1.4,2.4l-0.2,0.2
		l-0.3,0.2l-0.3,0.2l-0.2,0.2L75.2,64c-1.9,1.2-3.7,1.7-6.3,2c-2.4,0.3-5,0.6-7.4,0.7L62.3,66.1z"/>
	<path fill-rule="evenodd" clip-rule="evenodd" fill="#172C18" d="M101,61.1c3.8-7,2.5-18.8,0.8-26.4c-0.6-2.6-2.7-10.3-2.7-12.2
		c0-3.1,1.8-5.9,5.1-6.1c1.8-0.1,3.2,0.5,4.4,1.3c1.9,1.4,1.8,1.9,2.3,4.8c0,2.4-0.2,2.7-0.9,5c-3,9.4-5.8,16.8-5.8,27.4
		c0,6.9,1.9,8.6,2.4,10.5l-0.2,0.2c-1,0.3-1.7,0.8-2.6,1c-0.8,0.2-2.2,0.5-2.9,0.6c-1.9,0.2-4.7,0.6-6.5,0.6c-1.3,0-0.4-0.1-0.8,0.2
		l-1,0C97,66.4,99,64.8,101,61.1z"/>
	<path fill-rule="evenodd" clip-rule="evenodd" fill="#172C18" d="M39.1,59.6c0.5-1.7,1.4-3.2,1.9-5.1c1.7-6.3,1.8-13.3,1.6-19.8
		c-0.2-4.5-0.6-8.6-1-13c-0.5-4.6,0.4-8.1,5.9-8c0.5,0,0.8,0.1,1.3,0.3c2.9,1.6,1.3,7.7,0.6,9.9c-1.1,3.6-2.4,7.2-3.5,10.9
		c-1.6,5.6-3.9,15.8-2.4,21.9c0.3,1.1,0.5,2.1,0.8,2.9c0.3,0.4,0.6,1.2,0.8,1.6c0.3,0.6,0.7,0.9,1,1.5c-1.8,1.2-3.2,1.3-5.6,1.5
		c-1.8,0.2-5,0.7-6.5,0.5l-0.3,0C35.8,64.1,38.4,61.4,39.1,59.6z"/>
	<path fill-rule="evenodd" clip-rule="evenodd" fill="#1D3F1D" d="M86.4,36.9c1.7-5.8,3-12.6,2.9-18.8C89.2,8.8,77.4,6.9,76.2,6
		c3.9-0.2,7.5-1,11.4-0.8c2,0.1,3.7,0.4,5.4,1c1.7,0.6,3,1.8,4.1,2.7c-0.3,0.4-5.9,3-6.7,9.5c-0.3,4.9,0.1,9.4,1.3,13.7
		c0.9,3.2,2.9,9.1,3.1,12.3c-1,2.5-1.3,6.9-0.6,9.7c-1.5,0-3.6,0.3-5.2,0.5c-1.6,0.2-3.6,0.6-5.3,0.5C81.5,51.6,85.4,40.1,86.4,36.9
		z"/>
	<path fill-rule="evenodd" clip-rule="evenodd" fill="#172C18" d="M128.1,65.6c1.2-1.7,1.1-1.4,2-3.7c5-12-1.5-28.8-1.2-42.4
		c0,0,0,0,0,0c0.3-6,7.9-5.5,9.2-0.5c0,0,0,0,0,0c1.4,3.3-0.5,8.9-1.7,11.6c-0.7,1.6-1.1,3.8-1.6,5.5c-0.8,2.7-2,9.6-2.1,12.4
		c-0.1,2.3,0,4.7-0.1,7.1c0,2.4,1,12.1,0.8,12.8c-1,0.2-9.4,1.5-11.1,1.5l-0.3-0.1C124.3,69.2,126.7,67.3,128.1,65.6z"/>
	<path fill-rule="evenodd" clip-rule="evenodd" fill="#172C18" d="M112.4,58.6c0.5-0.3,4.1-0.6,5-0.7c1.8-0.2,3.5-0.7,5.1-0.7
		C120.7,63.1,113.2,61.7,112.4,58.6z"/>
	<path fill-rule="evenodd" clip-rule="evenodd" fill="#1D3F1D" d="M57.1,34.3c0.9-2.9,1.7-5.7,2.3-8.7c0.8-3.8,1.5-9-0.3-13.2
		C57.9,9.5,56.1,6,48,4.8l-1-0.2c3.8-0.4,7.8-1.1,11.7-0.8c3.2,0.3,7.8,2,9,3.9c-0.7,0.6-4.7,3-6.1,7.9c-2.5,15.3,5.1,23.3,2.2,32.9
		c-0.4,1.5-1,2.5-1.8,3.7c-0.9-0.5-3-0.2-3.8,0c-1.4,0.3-2.6,0.4-4.3,0.4C52.4,47.2,55.7,38.9,57.1,34.3z"/>
	<path fill-rule="evenodd" clip-rule="evenodd" fill="#172C18" d="M83.5,55c1.7,0.2,3.7-0.3,5.3-0.5c1.6-0.2,3.7-0.5,5.2-0.5l0,0
		c-0.6,2-2.4,2.8-4.9,3.1C86.1,57.5,84.3,57.2,83.5,55z"/>
	<path fill-rule="evenodd" clip-rule="evenodd" fill="#FFFFFF" d="M122.6,57.2c-0.7-2.4-1.2-3.6-0.9-6.6c0.2-2.7,0.7-4.6,1.2-6.9
		c0.5,0.8,0.6,2.2,0.7,3.4C123.8,49.4,124.2,55.8,122.6,57.2z"/>
	<path fill-rule="evenodd" clip-rule="evenodd" fill="#172C18" d="M24.8,53.1c1.9,0.3,6-0.7,8.3-0.7c-0.7,0.6-0.5,1.1-1.6,1.8
		c-0.6,0.4-1.5,0.8-2.3,0.9C26.6,55.6,25.6,55,24.8,53.1z"/>
	<path fill-rule="evenodd" clip-rule="evenodd" fill="#172C18" d="M62,52.2c0,0-1.4,2.3-5.5,2.3c-2-0.3-1.7-0.8-2.6-1.9
		c1.7,0,2.9-0.1,4.3-0.4C58.9,52,61.1,51.7,62,52.2L62,52.2z"/>
	<path fill-rule="evenodd" clip-rule="evenodd" fill="#FFFFFF" d="M94,54.1L94,54.1c-0.7-2.8-0.3-7.2,0.7-9.7
		C95.7,46.3,95.3,53,94,54.1z"/>
	<path fill-rule="evenodd" clip-rule="evenodd" fill="#FFFFFF" d="M23,21.4c-0.8-1.9-1.4-5.7-1.1-8.1c0.8,0.4,0.9,0.5,1.3,1.4
		c0.3,0.6,0.5,1.4,0.6,2.2C23.9,18.3,23.5,20.5,23,21.4z"/>
	<path fill-rule="evenodd" clip-rule="evenodd" fill="#FFFFFF" d="M80.7,21.4c-0.6-1.3,0-4.9,0-4.9C81.4,18.4,81.3,19.2,80.7,21.4z"
		/>
</g>
</svg>
