<?xml version="1.0" encoding="utf-8"?>
<!-- Generator: Adobe Illustrator 18.0.0, SVG Export Plug-In . SVG Version: 6.00 Build 0)  -->
<!DOCTYPE svg PUBLIC "-//W3C//DTD SVG 1.1//EN" "http://www.w3.org/Graphics/SVG/1.1/DTD/svg11.dtd">
<svg version="1.1" id="Layer_1" xmlns="http://www.w3.org/2000/svg" xmlns:xlink="http://www.w3.org/1999/xlink" x="0px" y="0px"
	 viewBox="0 0 1920 1080" enable-background="new 0 0 1920 1080" xml:space="preserve">
<g id="BG">
</g>
<g id="map" opacity="0.4">
</g>
<g id="bottom_line">
</g>
<g id="Layer_4">
</g>
<g id="white_loop" display="none">
</g>
<g id="new_logo_1_">
</g>
<g id="Layer_44">
</g>
<g id="icons" display="none">
</g>
<g id="HOSPITAL_SCENE">
	<g id="HOME">
	</g>
	<g id="HOSPITAL">
	</g>
	<g id="Layer_26">
	</g>
	<g id="PRODUCTS">
	</g>
</g>
<g id="house_scene">
</g>
<g id="house_products">
</g>
<g id="house_instruction">
</g>
<g id="industry_instruction">
</g>
<g id="industry_infor">
</g>
<g id="industry">
</g>
<g id="expaination">
	<g id="hospital2">
	</g>
</g>
<g id="edu_explain">
	<g>
		
			<image overflow="visible" opacity="0.25" enable-background="new    " width="3217" height="2196" xlink:href="41D0D68F78EA3B1E.png"  transform="matrix(0.474 0 0 0.4745 220.7565 25.9153)">
		</image>
		<g>
			<path fill="#FFFFFF" d="M1649.7,41.1c-186.1-16.8-278.9,45.9-316.5,82.7c-1.4,1.4-3.2,2-5.1,1.8c-5.3-0.4-10.7-0.6-16-0.6H484.3
				C345,125,231.1,234.4,231.1,368.3V737c0,133.7,113.9,243.3,253.2,243.3h821.3c139.3,0,253.2-109.4,253.2-243.3V362.2
				c0-57.8-21.8-110.8-57.8-151.9c-1.4-1.6-2-4-1.2-5.9c10.9-31.8,50.6-123.6,151.3-150.9C1658,51.4,1656.9,41.7,1649.7,41.1z"/>
			<path fill="none" stroke="#D66440" stroke-width="8.4743" stroke-miterlimit="10" d="M1649.7,41.1
				c-186.1-16.8-278.9,45.9-316.5,82.7c-1.4,1.4-3.2,2-5.1,1.8c-5.3-0.4-10.7-0.6-16-0.6H484.3C345,125,231.1,234.4,231.1,368.3V737
				c0,133.7,113.9,243.3,253.2,243.3h821.3c139.3,0,253.2-109.4,253.2-243.3V362.2c0-57.8-21.8-110.8-57.8-151.9
				c-1.4-1.6-2-4-1.2-5.9c10.9-31.8,50.6-123.6,151.3-150.9C1658,51.4,1656.9,41.7,1649.7,41.1z"/>
		</g>
	</g>
</g>
<g id="entertainm_explain">
</g>
<g id="edu_school">
</g>
<g id="entertainmetn">
</g>
<g id="product_details">
</g>
<g id="edu_products_details">
</g>
<g id="enter_products">
</g>
<g id="congratulations">
	<g id="hospital4">
	</g>
</g>
<g id="free_wifi_spot">
	<g id="wifi_spotting">
	</g>
</g>
<g id="HAND">
</g>
<g id="PLAYER">
</g>
<g id="HOUSEKEEPER">
</g>
<g id="DOCTOR">
</g>
<g id="STUDENT">
</g>
<g id="worker">
</g>
<g id="ZOOM_IN_HAND">
</g>
<g id="ZOOM_IN_WORKER">
</g>
<g id="ZOOM_IN_DOCTOR" display="none">
</g>
<g id="ZOOM_IN_HOUSEKEEPER">
</g>
<g id="ZOOM_IN_PLAYER">
</g>
<g id="ZOOM_IN_STUDENT">
</g>
</svg>
