<!-- Generator: Adobe Illustrator 18.0.0, SVG Export Plug-In  -->
<svg version="1.1"
	 xmlns="http://www.w3.org/2000/svg" xmlns:xlink="http://www.w3.org/1999/xlink" xmlns:a="http://ns.adobe.com/AdobeSVGViewerExtensions/3.0/"
	 x="0px" y="0px" width="564.4px" height="226.4px" viewBox="0 0 564.4 226.4" enable-background="new 0 0 564.4 226.4"
	 xml:space="preserve">
<defs>
</defs>
<g>
	<path fill="#F2F2F2" d="M130.6,185c0,0,24.3,2,24.4,23.4c0.1,7.3-2.8,12.5-6.6,16.4c5.9-1.1,12-2.5,18.6-4.2
		c6.3-1.7,145-48.9,145-48.9c11.8-4.2,23.7-8.5,35.6-12.8c0.9-13,2.2-39.6,1-68.4c-0.5-12.4-1.4-25.2-3-37.4
		c-1.2-8.8-2.7-16.7-4.4-23.7c-2.9-11.8-6.3-21.1-9-27.6l-89.4,0.9c0,0-91.4,3.3-91.5,3.5l-9.3,0.4l-12.2,12.7
		C96.1,27.2,85,44,48.4,90.4c-35.4,44.9-44,67-45.5,84.5L130.6,185z"/>
	<polygon fill="#EDEDEE" points="478.7,0.2 483.4,15.5 487.9,42.6 489,72.7 490.4,104.9 517.4,88.9 544,71.7 559.6,59.3 564.4,48.4 
		563.7,37.3 560.7,24.5 556.1,14 549.4,5.8 541,1.5 531,0.6 504.3,0 	"/>
	<path fill="#EFEFEF" d="M162.1,205.3c-0.2-23.2-25-25.3-25-25.3L6.7,169.1h0c0,0,0,0,0,0c1.9,0.4-3.2,0-5.7,12
		c-1.7,8.1-2.5,22.2,11.5,25.3c0,0,0.1,0.1,0.1,0.1c4.3,4.1,12,7.2,25.9,10.1c6.6,1.4,14.6,2.8,24.4,4.2c39.9,6,62.3,7.1,84.6,3.6
		c2.6-0.4,5.3-0.9,7.9-1.4C159.2,218.9,162.2,213.2,162.1,205.3z"/>
	<path fill="#F1A451" d="M465.8,96.5l16.3-7c0.1-5.1,0.4-18.9-0.6-31.3c-0.2-2.2-0.4-4.4-0.6-6.6c-5.1,1.6-10.5,3.2-16.2,4.9
		C465.9,72.3,465.9,88.6,465.8,96.5z"/>
	<path fill="#F1A451" d="M361.3,133.7l22.5-7.1c0.3-5.4,1-20.4,0-38.2c-0.1-2.7-0.3-5.4-0.5-8c-7.4,2.1-14.9,4.3-22.6,6.5
		C362.1,109.4,361.6,126.1,361.3,133.7z"/>
	<path fill="#2CA9B2" d="M376.2,26.9L353.6,30c1.6,7.3,5,25.7,6.9,53.8c0.1,1.1,0.1,2.1,0.2,3.2c7.7-2.2,15.2-4.4,22.6-6.5
		C381.4,55,377.6,34.2,376.2,26.9z"/>
	<path fill="#EDEDEE" d="M345.5,52.4c1.7,12,2.7,24.6,3.3,36.8c1.2,27.9,0,54.1-0.9,67.9c14-4.8,27.9-9.6,41.4-14.3l79.5-29.2
		c8.6-3.3,16.4-6.5,23.3-9.4c0.4-7.9,1.1-30.5-0.8-54.2c-0.6-7.4-1.5-14.9-2.7-22.2c-1.1-6.2-2.4-11.8-3.8-16.7
		c-1.2-4.1-2.4-7.7-3.7-10.9c-0.3,0-0.7,0-1,0L331.7,1.6c2.9,6.7,6.3,15.7,9.2,27C342.7,35.7,344.3,43.6,345.5,52.4z"/>
	<path fill="#171616" d="M526,37.6l-5-23.6c-0.4-1.4-0.8-2.6-1.1-3.6c-3.1,0.3-6.6,0.6-10.3,1c-0.1,0-0.2,0-0.3,0
		c-1.1,0.1-2.3,0.2-3.4,0.4c-0.1,0-0.1,0-0.2,0c0.8,2.7,2.2,8.2,3.6,17.5c1,6.7,1.8,12,2.3,15.8c5.7-1.8,10.6-3.4,14.8-4.8
		C526.3,39.4,526.1,38.5,526,37.6z"/>
	<path fill="#171616" d="M526.5,31.8c0.5,3.1,1,5.7,1.4,8.1c2.8-0.9,5.1-1.7,7.2-2.4c0,0,0.1,0,0.1,0c0.5-0.2,0.9-0.3,1.3-0.5
		c0,0,0.1,0,0.2-0.1c0.4-0.1,0.8-0.3,1.1-0.4c0,0,0.1,0,0.2-0.1c0.3-0.1,0.6-0.2,0.9-0.3c0.1,0,0.1,0,0.2-0.1c0.4-0.1,0.7-0.3,1-0.4
		c0.7-0.3,1.4-0.6,2.1-0.8l-4.3-19.3c-0.7-2.6-1.3-4.8-1.8-6.4c0,0,0,0,0,0c-3.2,0.1-8.1,0.5-14.6,1
		C522.7,14.2,524.8,21.5,526.5,31.8z"/>
	<path fill="#171616" d="M543.3,31.7c0.2,0.8,0.3,1.6,0.5,2.4c0.2-0.1,0.4-0.2,0.6-0.3c0,0,0,0,0,0c1.3-0.6,2.4-1.1,3.4-1.7
		c0,0,0,0,0,0c3.5-1.9,5.4-3.7,6.3-5.4c0,0,0,0,0-0.1c0.1-0.2,0.2-0.3,0.2-0.5c0,0,0,0,0,0c0.3-0.7,0.4-1.3,0.4-1.9c0,0,0,0,0,0
		c0-0.1,0-0.2,0-0.3c0-0.1,0-0.2,0-0.3c0-0.1,0-0.3,0-0.4c0-0.1,0-0.3-0.1-0.4c0-0.1,0-0.2-0.1-0.3c-0.1-0.2-0.1-0.4-0.2-0.7
		c-1.3-3.7,0.6-10.7-14.9-12.7c-0.4-0.1-1-0.1-1.8-0.1C539,13.8,541.3,22.1,543.3,31.7z"/>
	<path fill="#F1A451" d="M222.2,123.6c-0.5,0.1-1.1,0.3-1.6,0.4C221.1,123.8,221.7,123.7,222.2,123.6z"/>
	<path fill="#F1A451" d="M226.3,48.7c0.3-0.1,0.5-0.1,0.8-0.2C226.8,48.6,226.6,48.6,226.3,48.7z"/>
	<path fill="#161817" d="M48.6,128.7C27.5,120.6,58.7,81,87.9,43.4c0.9-1.2,1.8-2.3,2.7-3.4c0.2-0.3,0.5-0.6,0.7-0.9
		c0.8-0.9,1.6-1.9,2.4-2.8c0.1-0.1,0.2-0.3,0.4-0.4c0.9-1,1.8-2,2.7-2.9c0.2-0.2,0.5-0.5,0.7-0.7c0.7-0.8,1.5-1.5,2.2-2.3
		c0.2-0.2,0.4-0.4,0.5-0.5c0.9-0.9,1.8-1.7,2.6-2.5c0.2-0.2,0.4-0.4,0.6-0.5c0.7-0.7,1.4-1.3,2.2-1.9c0.2-0.2,0.4-0.4,0.6-0.5
		c0.9-0.7,1.7-1.5,2.6-2.1c0.1-0.1,0.3-0.2,0.4-0.3c0.7-0.6,1.5-1.1,2.2-1.7c0.2-0.2,0.4-0.3,0.6-0.5c0.8-0.6,1.7-1.2,2.5-1.8
		c0,0,0.1-0.1,0.1-0.1c0.8-0.6,1.6-1.1,2.4-1.6c0.2-0.1,0.4-0.2,0.6-0.4c0.8-0.5,1.6-1,2.4-1.5c0,0,0,0,0,0c0.8-0.5,1.6-0.9,2.4-1.4
		c0.1-0.1,0.3-0.2,0.4-0.2c0.7-0.4,1.4-0.8,2.1-1.2c0,0,0.1-0.1,0.1-0.1c0.8-0.4,1.5-0.8,2.3-1.1c0.1,0,0.2-0.1,0.3-0.1
		c0.7-0.3,1.4-0.6,2-0.9c0.1,0,0.1,0,0.2-0.1c0.7-0.3,1.4-0.6,2.1-0.9c0,0,0,0,0,0l0,0l21-1c7.6-1.3,17.4,0.2,34.7-1.7l43.2-2.1l0,0
		c-2.3,1-4.7,2.2-7.2,3.5c-0.1,0.1-0.2,0.1-0.4,0.2c-0.7,0.4-1.3,0.7-2,1.1c-0.2,0.1-0.5,0.3-0.7,0.4c-0.6,0.3-1.1,0.6-1.7,1
		c-0.3,0.2-0.6,0.3-0.9,0.5c-0.5,0.3-1.1,0.7-1.6,1c-0.3,0.2-0.6,0.4-0.9,0.6c-0.6,0.4-1.1,0.7-1.7,1.1c-0.3,0.2-0.5,0.4-0.8,0.5
		c-0.8,0.6-1.7,1.1-2.5,1.8c-25.1,17.8-43.5,92-55.4,108.3C143.2,139.5,69.8,136.9,48.6,128.7z"/>
	<polygon fill="#C3CF45" points="481.3,14.2 502.2,11.1 508.6,42.5 510.6,80.1 488.5,87.6 487.5,46.6 	"/>
	<polygon fill="#171616" points="484.8,20.4 499.7,17.8 504.2,44.3 505.6,76 489.9,82.4 489.2,47.7 	"/>
	<polygon fill="#1E3925" points="229.1,3.3 226.3,30.2 255.3,30.2 242.9,3.3 	"/>
	<polygon fill="#3E784C" points="255.6,30.2 225.2,62.6 251.2,68 	"/>
	<polygon fill="#284A30" points="225.9,30.2 225.9,61.6 255.3,30.2 	"/>
	<polygon fill="#3E784C" points="255.1,30.7 251.2,70.5 299.4,72.4 	"/>
	<polygon fill="#68B17A" points="255.3,30.9 302.1,76.7 296.5,13.4 	"/>
	<polygon fill="#407A4E" points="242.9,3.3 255.3,30.9 260.1,2.4 	"/>
	<polygon fill="#43A168" points="259.7,2.4 277.5,2.4 254.8,31.7 	"/>
	<path fill="#43A168" d="M255.3,30.9"/>
	<polygon fill="#79B887" points="251.5,37.1 275.3,1.7 302.1,2 297.2,22 	"/>
	<polygon fill="#3E784C" points="202.7,168.2 167,220.5 226.7,200.6 	"/>
	<polygon fill="#43A168" points="201.1,129.2 203.1,169.1 243.3,105 	"/>
	<polygon fill="#79B887" points="246.1,99.8 202.7,168.2 278.9,136.2 266.8,96.5 	"/>
	<polygon fill="#68B17A" points="262.6,141.6 202.7,168.2 226.7,200.6 299.4,175.9 278.9,136.2 	"/>
	<polygon fill="#284A30" points="167,220.5 179.6,159.2 202.7,168.2 	"/>
	<polygon fill="#1E3925" points="191.5,113.2 179.6,159.2 202.7,169.1 202.7,113.2 	"/>
	<polygon fill="#1E3925" points="269.1,104.1 278.9,136.2 315.8,127 306.1,91.9 	"/>
	<polygon fill="#284A30" points="299.4,175.9 315.8,127 278.9,136.2 	"/>
	<polygon fill="#3E784C" points="342.6,160.6 299.4,175.9 315.8,127 	"/>
	<polygon fill="#68B17A" points="353.3,113.2 315.8,127 342.6,160.6 377.4,146.9 	"/>
	<polygon fill="#43A168" points="323.8,87 306.1,91.9 315.8,127 	"/>
	<polygon fill="#1E3925" points="302.1,2 336.6,2 351.8,19.4 297.2,22 	"/>
	<polygon fill="#284A30" points="336.6,57 351.8,19.4 297.2,22 299.4,61.6 	"/>
	<polygon fill="#3E784C" points="366.6,54.3 336.6,57 351.8,19.4 	"/>
	<polygon fill="#68B17A" points="386.8,45.1 366.6,54.3 351.8,19.4 	"/>
	<polygon fill="#79B887" points="394.5,16.8 351.8,19.4 386.8,45.1 	"/>
	<polygon fill="#43A168" points="366.6,2 351.8,19.4 394.5,16.8 408.7,0.9 	"/>
	<polygon fill="#407A4E" points="336.6,2 368.4,1.7 351.8,19.4 	"/>
	<polygon fill="#79B887" points="320.8,55.6 278.1,59.5 313.1,98.1 	"/>
	<polygon fill="#C3CF45" points="308.1,35.3 347.7,31 353.2,65.1 356.1,107.6 355.3,142.8 311.6,152.8 311.6,100.8 	"/>
	<polygon fill="#171616" points="315.8,44 343.6,40.5 347.4,68.2 349.5,102.7 348.9,131.3 318.2,139.5 318.2,97.2 	"/>
	<g>
		<path fill="#171616" d="M220.6,50.5c0.1-0.1,0.3-0.1,0.4-0.2c0.1,0,0.2-0.1,0.3-0.1c0.2-0.1,0.4-0.2,0.7-0.2c0,0,0.1,0,0.1,0
			c1-0.4,2.3-0.7,3.8-1.1c-1.1,0.3-2.1,0.6-3,0.9c-0.9,19.9-2.4,57.1-2.7,74.4c-0.2,0-0.3,0.1-0.5,0.1c-0.9,0.2-1.8,0.4-2.6,0.6
			c-0.2,0-0.4,0.1-0.5,0.1c-0.9,0.2-1.8,0.4-2.7,0.6c0,0-0.1,0-0.1,0c-3.9,0.9-7.4,1.6-10.5,2.3c-0.1,0-0.1,0-0.2,0
			c-0.6,0.1-1.2,0.2-1.7,0.4c-0.2,0-0.4,0.1-0.6,0.1c-0.5,0.1-0.9,0.2-1.4,0.3c-0.3,0.1-0.5,0.1-0.8,0.2c-0.4,0.1-0.8,0.2-1.2,0.2
			c-0.3,0.1-0.5,0.1-0.8,0.2c-0.3,0.1-0.7,0.1-1,0.2c-0.3,0-0.5,0.1-0.8,0.1c-0.3,0.1-0.6,0.1-0.8,0.1c-0.2,0-0.5,0.1-0.7,0.1
			c-0.2,0-0.5,0.1-0.7,0.1c-0.2,0-0.4,0.1-0.7,0.1c-0.2,0-0.4,0.1-0.6,0.1c-0.2,0-0.4,0.1-0.6,0.1c-0.1,0-0.3,0-0.4,0.1
			c-0.2,0-0.4,0-0.5,0.1c-0.1,0-0.2,0-0.3,0c-0.2,0-0.4,0-0.6,0c-9.4,0-9.4-6-9.4-6c-1.6-4,19.6-63.3,40.3-73.5
			C220.1,50.7,220.4,50.6,220.6,50.5z"/>
		<polygon fill="#171616" points="221,49 218.1,123.5 307.1,102.8 300.8,35.8 		"/>
	</g>
	<polygon fill="#68B17A" points="228.2,5 217.3,52.4 227.8,48 	"/>
	<polygon fill="#1E3925" points="377.4,45.9 383,76.8 408.7,90 393,40.5 	"/>
	<polygon fill="#284A30" points="383.3,117.2 408.7,90 383,76.8 380.2,102.6 	"/>
	<polygon fill="#3E784C" points="423.3,130.3 408.7,90 383.3,117.2 384.3,144.5 	"/>
	<polygon fill="#68B17A" points="461.3,116.3 423.3,130.3 408.7,90 458.4,76.8 	"/>
	<polygon fill="#79B887" points="437.7,45.1 408.7,90 458.4,76.8 455.4,40.5 	"/>
	<polygon fill="#43A168" points="446.9,33.7 409,89.5 395.8,52 	"/>
	<polygon fill="#1E3925" points="364.3,130.3 377.4,146.9 384.3,144.5 384.3,123.5 	"/>
	<polygon fill="#C3CF45" points="376.3,26.9 346.5,31 353.3,90.2 353.2,143.4 386.8,130.7 384.5,69.9 379,26.9 	"/>
	<polygon fill="#171616" points="371.7,38 348.8,41.3 354.1,88.6 354,131.2 379.7,121.1 377.9,72.4 373.7,38 	"/>
	<polygon fill="#1E3925" points="408.7,0.9 431.5,0.7 415.5,22.2 393,30.2 390.9,30.2 394.5,16.8 	"/>
	<polygon fill="#407A4E" points="454.3,0.7 431.5,0.7 415.5,22.2 	"/>
	<polygon fill="#43A168" points="451.3,26.9 415.5,22.2 454.3,0.7 	"/>
	<polygon fill="#1E3925" points="478.7,30.7 451.6,24.5 454.3,0.7 484.8,0 	"/>
	<polygon fill="#284A30" points="451.6,45.1 451.6,24.5 478.7,30.7 	"/>
	<polygon fill="#79B887" points="482.2,49.3 451.6,45.1 478.7,30.7 	"/>
	<polygon fill="#43A168" points="451.6,45.1 486.1,51.6 477.5,82.4 458.4,84.6 	"/>
	<polygon fill="#171616" points="391.7,81.2 458.4,62.8 452.4,17.4 384.3,26.2 	"/>
	<polygon fill="#3E784C" points="481.3,108.6 461.3,116.3 458.4,84.6 477.5,76.7 	"/>
	<polygon fill="#C3CF45" points="461.3,17.4 485.3,14.6 488.7,36.9 490.4,64.6 490,87.6 463.4,94.1 463.4,60.2 	"/>
	<polygon fill="#171616" points="466.5,22.6 482.7,20.2 485,39.3 486.1,63.1 485.8,82.9 467.9,88.5 467.9,59.4 	"/>
	<text transform="matrix(0.949 0 0 1 58.2613 160.6308)" font-family="'Arial-Black'" font-size="19.7522">PT</text>
	<polyline fill="none" stroke="#EE2C28" stroke-width="1.1681" stroke-miterlimit="10" points="55.9,141.2 48,148.4 55.9,154.3 	"/>
</g>
</svg>
