<!-- Generator: Adobe Illustrator 18.0.0, SVG Export Plug-In  -->
<svg version="1.1"
	 xmlns="http://www.w3.org/2000/svg" xmlns:xlink="http://www.w3.org/1999/xlink" xmlns:a="http://ns.adobe.com/AdobeSVGViewerExtensions/3.0/"
	 x="0px" y="0px" width="95.6px" height="230.5px" viewBox="0 0 95.6 230.5" enable-background="new 0 0 95.6 230.5"
	 xml:space="preserve">
<defs>
</defs>
<g>
	<g id="tram_1_">
		<path fill="#DDB85A" d="M86.2,177.2H10.3c-2.1,0-3.8-1.7-3.8-3.8V4.4c0-2.1,1.7-3.8,3.8-3.8h75.9c2.1,0,3.8,1.7,3.8,3.8v169
			C90,175.5,88.2,177.2,86.2,177.2z"/>
		<line fill="none" stroke="#828233" stroke-width="2.3986" stroke-miterlimit="10" x1="34.2" y1="0" x2="35.1" y2="134.9"/>
		<line fill="none" stroke="#828233" stroke-width="2.3986" stroke-miterlimit="10" x1="61.4" y1="0" x2="62.2" y2="134.9"/>
		<path fill="#F0D68B" d="M7.1,131c9.8-3.4,41.6-12.2,82,0.1c2,0.6,3.3,2.4,3.3,4.5v81.9c0,2.6-2.1,4.7-4.7,4.7H8.7
			c-2.6,0-4.7-2.1-4.7-4.7v-82.1C4,133.4,5.2,131.6,7.1,131z"/>
		<path fill="none" stroke="#CCB069" stroke-width="2.9673" stroke-miterlimit="10" d="M5.9,133.9c0,0,0.3-5.8,23.1-8.1"/>
		<path fill="none" stroke="#CCB069" stroke-width="2.9673" stroke-miterlimit="10" d="M90.6,133.9c0,0-0.3-5.8-23.1-8.1"/>
		<path fill="#148141" d="M90.2,136.2h-84c-1.3,0-2.3-1-2.3-2.3l0,0c0-1.3,1-2.3,2.3-2.3h84c1.3,0,2.3,1,2.3,2.3l0,0
			C92.5,135.2,91.5,136.2,90.2,136.2z"/>
		<rect x="27.6" y="117.9" fill="#148141" width="41.3" height="18"/>
		<rect x="31" y="121.5" fill="#383838" width="34.6" height="8.7"/>
		<rect x="8.2" y="143" fill="#383838" width="22.8" height="34.1"/>
		<rect x="36.9" y="143" fill="#383838" width="22.8" height="34.1"/>
		<rect x="65.5" y="143" fill="#383838" width="22.8" height="34.1"/>
		<rect x="11.8" y="183.6" fill="#148141" width="72.1" height="43.5"/>
		<g>
			<g>
				<path fill="#373837" d="M93,220.2c-29.2-6.5-61.1-5.4-90.4,0C-2,221,0,228,4.5,227.1c28-5.2,58.7-6.2,86.6,0
					C95.6,228.1,97.5,221.2,93,220.2L93,220.2z"/>
			</g>
		</g>
		<rect x="11.3" y="224" fill="#383838" width="73.4" height="6.5"/>
		<rect x="72.8" y="221.6" fill="#383838" width="11.9" height="8.8"/>
		<rect x="11.3" y="221.6" fill="#383838" width="11.9" height="8.8"/>
		<ellipse fill="#F6F5F7" cx="48.2" cy="199.1" rx="5.7" ry="5.1"/>
		<ellipse fill="#A84924" cx="19.6" cy="201.9" rx="3.2" ry="2.8"/>
		<ellipse fill="#A91E22" cx="19.6" cy="210.7" rx="3.2" ry="2.8"/>
		<ellipse fill="#A91E22" cx="76.9" cy="210.7" rx="3.2" ry="2.8"/>
		<ellipse fill="#A84924" cx="76.9" cy="201.9" rx="3.2" ry="2.8"/>
		<rect x="29.3" y="43.3" fill="#7F7D3F" width="37" height="4.7"/>
		<rect x="41.5" y="48" fill="#7F7D3F" width="13.5" height="25.5"/>
		<rect x="28.5" y="38.3" fill="#7F7D3F" width="9.6" height="2.4"/>
		<rect x="57.4" y="38.3" fill="#7F7D3F" width="9.6" height="2.4"/>
		<rect x="31" y="36.4" fill="#7F7D3F" width="4.1" height="6.9"/>
		<rect x="61.4" y="37.2" fill="#7F7D3F" width="4.1" height="6.9"/>
	</g>
	<g>
		<path fill="#F1F2F2" d="M35.2,127.7V125c0,0,0-0.1,0-0.1s0,0,0-0.1s0,0,0.1,0s0.1,0,0.1,0c0.1,0,0.1,0,0.2,0.1l1.2,2.3l1.2-2.3
			c0-0.1,0.1-0.1,0.2-0.1c0,0,0.1,0,0.1,0s0,0,0.1,0s0,0,0,0.1s0,0.1,0,0.1v2.7c0,0.1,0,0.1-0.1,0.1s-0.1,0.1-0.1,0.1
			s-0.1,0-0.1-0.1s-0.1-0.1-0.1-0.1v-1.8l-1,1.9c0,0.1-0.1,0.1-0.2,0.1c-0.1,0-0.1,0-0.2-0.1l-1-1.9v1.8c0,0.1,0,0.1-0.1,0.1
			s-0.1,0.1-0.1,0.1s-0.1,0-0.1-0.1S35.2,127.8,35.2,127.7z"/>
		<path fill="#F1F2F2" d="M40.8,127.5c0.1,0,0.1,0,0.1,0.1s0.1,0.1,0.1,0.1s0,0.1-0.1,0.1s-0.1,0.1-0.1,0.1H39c0,0-0.1,0-0.1,0
			s0,0-0.1,0s0,0,0-0.1s0-0.1,0-0.1V125c0,0,0-0.1,0-0.1s0,0,0-0.1s0,0,0.1,0s0.1,0,0.1,0h1.8c0.1,0,0.1,0,0.1,0.1S41,125,41,125
			s0,0.1-0.1,0.1s-0.1,0.1-0.1,0.1h-1.6v0.9h1.1c0.1,0,0.1,0,0.1,0.1s0.1,0.1,0.1,0.1s0,0.1-0.1,0.1s-0.1,0.1-0.1,0.1h-1.1v0.9H40.8
			z"/>
		<path fill="#F1F2F2" d="M41.5,125c0-0.1,0-0.1,0.1-0.1s0.1-0.1,0.1-0.1s0.1,0,0.1,0.1s0.1,0.1,0.1,0.1v2.5h1.4
			c0.1,0,0.1,0,0.1,0.1s0.1,0.1,0.1,0.1s0,0.1-0.1,0.1s-0.1,0.1-0.1,0.1h-1.7c0,0-0.1,0-0.1,0s0,0-0.1,0s0,0,0-0.1s0-0.1,0-0.1V125z
			"/>
		<path fill="#F1F2F2" d="M44.8,124.8c0.1,0,0.2,0,0.3,0.1s0.2,0.1,0.3,0.2s0.1,0.2,0.2,0.3s0.1,0.2,0.1,0.3c0,0.2-0.1,0.4-0.2,0.5
			c0.1,0,0.1,0.1,0.2,0.2s0.1,0.1,0.2,0.2s0.1,0.1,0.1,0.2s0,0.2,0,0.2c0,0.1,0,0.3-0.1,0.4s-0.1,0.2-0.2,0.3s-0.2,0.2-0.3,0.2
			s-0.2,0.1-0.4,0.1h-0.8c0,0-0.1,0-0.1,0s0,0-0.1,0s0,0,0-0.1s0-0.1,0-0.1V125c0,0,0-0.1,0-0.1s0,0,0-0.1s0,0,0.1,0s0.1,0,0.1,0
			H44.8z M44.5,125.2v0.8h0.4c0.1,0,0.1,0,0.2,0s0.1,0,0.1-0.1s0.1-0.1,0.1-0.1s0-0.1,0-0.2c0-0.1,0-0.1,0-0.2s0-0.1-0.1-0.1
			s-0.1-0.1-0.1-0.1s-0.1,0-0.2,0H44.5z M44.5,126.4v1.1H45c0.1,0,0.1,0,0.2,0s0.1-0.1,0.2-0.1s0.1-0.1,0.1-0.2s0-0.1,0-0.2
			c0-0.1,0-0.1,0-0.2s-0.1-0.1-0.1-0.2s-0.1-0.1-0.2-0.1s-0.1,0-0.2,0H44.5z"/>
		<path fill="#F1F2F2" d="M49.6,126.4c0,0.4-0.2,0.8-0.5,1.1c-0.3,0.3-0.7,0.5-1.1,0.5c-0.4,0-0.8-0.2-1.1-0.5s-0.5-0.7-0.5-1.1
			c0-0.4,0.2-0.8,0.5-1.1c0.3-0.3,0.7-0.5,1.1-0.5c0.4,0,0.8,0.2,1.1,0.5c0.2,0.2,0.3,0.3,0.3,0.5S49.6,126.2,49.6,126.4z M48,125.2
			c-0.2,0-0.3,0-0.4,0.1s-0.3,0.1-0.4,0.3s-0.2,0.2-0.3,0.4s-0.1,0.3-0.1,0.4c0,0.3,0.1,0.6,0.3,0.8s0.5,0.3,0.8,0.3
			s0.6-0.1,0.8-0.3s0.3-0.5,0.3-0.8c0-0.3-0.1-0.6-0.3-0.8C48.6,125.3,48.3,125.2,48,125.2z"/>
		<path fill="#F1F2F2" d="M50.5,125v1.8c0,0.1,0,0.2,0.1,0.3s0.1,0.2,0.1,0.2s0.1,0.1,0.2,0.2s0.2,0.1,0.3,0.1s0.2,0,0.3-0.1
			s0.2-0.1,0.2-0.2s0.1-0.1,0.1-0.2s0.1-0.2,0.1-0.3V125c0-0.1,0-0.1,0.1-0.1s0.1-0.1,0.1-0.1s0.1,0,0.1,0.1s0.1,0.1,0.1,0.1v1.8
			c0,0.1,0,0.2,0,0.3s-0.1,0.2-0.1,0.3s-0.1,0.2-0.2,0.2s-0.1,0.1-0.2,0.2s-0.2,0.1-0.3,0.1s-0.2,0-0.3,0c-0.3,0-0.6-0.1-0.8-0.3
			c-0.2-0.2-0.3-0.5-0.3-0.8V125c0-0.1,0-0.1,0.1-0.1s0.1-0.1,0.1-0.1s0.1,0,0.1,0.1S50.5,125,50.5,125z"/>
		<path fill="#F1F2F2" d="M52.8,127.7V125c0,0,0-0.1,0-0.1s0,0,0-0.1s0,0,0.1,0s0.1,0,0.1,0h0.8c0.1,0,0.3,0,0.4,0.1
			s0.2,0.1,0.3,0.2s0.2,0.2,0.2,0.3s0.1,0.2,0.1,0.4c0,0.1,0,0.2,0,0.3s-0.1,0.2-0.1,0.2s-0.1,0.1-0.2,0.2s-0.1,0.1-0.2,0.2l0.6,1
			c0,0,0,0.1,0,0.1c0,0,0,0.1,0,0.1s0,0,0,0.1s0,0-0.1,0s-0.1,0-0.1,0c-0.1,0-0.1,0-0.2-0.1l-0.7-1.1h-0.6v1c0,0.1,0,0.1-0.1,0.1
			s-0.1,0.1-0.1,0.1s-0.1,0-0.1-0.1S52.8,127.8,52.8,127.7z M53.2,125.2v1.1h0.5c0.1,0,0.1,0,0.2,0s0.1-0.1,0.2-0.1s0.1-0.1,0.1-0.2
			s0-0.1,0-0.2c0-0.1,0-0.1,0-0.2s-0.1-0.1-0.1-0.2s-0.1-0.1-0.2-0.1s-0.1,0-0.2,0H53.2z"/>
		<path fill="#F1F2F2" d="M55.3,127.7V125c0,0,0-0.1,0-0.1s0,0,0-0.1s0,0,0.1,0s0.1,0,0.1,0c0.1,0,0.1,0,0.2,0.1l1.7,2.2V125
			c0-0.1,0-0.1,0.1-0.1s0.1-0.1,0.1-0.1s0.1,0,0.1,0.1s0.1,0.1,0.1,0.1v2.7c0,0,0,0.1,0,0.1s0,0,0,0.1s0,0-0.1,0s-0.1,0-0.1,0
			c-0.1,0-0.1,0-0.2-0.1l-1.7-2.2v2.1c0,0.1,0,0.1-0.1,0.1s-0.1,0.1-0.1,0.1s-0.1,0-0.1-0.1S55.3,127.8,55.3,127.7z"/>
		<path fill="#F1F2F2" d="M60.3,127.5c0.1,0,0.1,0,0.1,0.1s0.1,0.1,0.1,0.1s0,0.1-0.1,0.1s-0.1,0.1-0.1,0.1h-1.8c0,0-0.1,0-0.1,0
			s0,0-0.1,0s0,0,0-0.1s0-0.1,0-0.1V125c0,0,0-0.1,0-0.1s0,0,0-0.1s0,0,0.1,0s0.1,0,0.1,0h1.8c0.1,0,0.1,0,0.1,0.1s0.1,0.1,0.1,0.1
			s0,0.1-0.1,0.1s-0.1,0.1-0.1,0.1h-1.6v0.9h1.1c0.1,0,0.1,0,0.1,0.1s0.1,0.1,0.1,0.1s0,0.1-0.1,0.1s-0.1,0.1-0.1,0.1h-1.1v0.9H60.3
			z"/>
	</g>
</g>
</svg>
