<!-- Generator: Adobe Illustrator 18.0.0, SVG Export Plug-In  -->
<svg version="1.1"
	 xmlns="http://www.w3.org/2000/svg" xmlns:xlink="http://www.w3.org/1999/xlink" xmlns:a="http://ns.adobe.com/AdobeSVGViewerExtensions/3.0/"
	 x="0px" y="0px" width="81.8px" height="35.6px" viewBox="0 0 81.8 35.6" enable-background="new 0 0 81.8 35.6"
	 xml:space="preserve">
<defs>
</defs>
<path fill="#2A3A8D" stroke="#2A3A8D" stroke-width="9.2976" stroke-miterlimit="10" d="M40,4.6c5.9,0,10.7,0.8,15.4,2.6
	c7.7,2.8,14.4,7.7,20.2,14.4c2.1,2.4,1.9,5.6,0.4,7.6c-1.7,2.2-4.5,2.3-6.3,0.2c-3.5-4.1-7.3-7.4-11.8-9.8c-4-2.2-8.1-3.5-12.5-4.1
	c-5.4-0.7-10.7-0.2-16,1.6c-5.5,1.9-10.4,5.1-14.8,9.5c-0.9,0.9-1.8,1.9-2.7,2.9c-1.7,1.9-4.5,2-6.1,0c-1.7-2.1-1.8-5.3-0.1-7.4
	C11.1,15.9,17.1,11.3,24,8.2c3.7-1.6,7.4-2.7,11.3-3.2C37.1,4.8,39,4.7,40,4.6z"/>
</svg>
