<!-- Generator: Adobe Illustrator 18.0.0, SVG Export Plug-In  -->
<svg version="1.1"
	 xmlns="http://www.w3.org/2000/svg" xmlns:xlink="http://www.w3.org/1999/xlink" xmlns:a="http://ns.adobe.com/AdobeSVGViewerExtensions/3.0/"
	 x="0px" y="0px" width="473.3px" height="511.2px" viewBox="0 0 473.3 511.2" enable-background="new 0 0 473.3 511.2"
	 xml:space="preserve">
<defs>
</defs>
<g>
	<g enable-background="new    ">
		<g enable-background="new    ">
			<defs>
				<path id="SVGID_1_" enable-background="new    " d="M344.7,6.9c9.5-1.3,18.3,0.4,25.8,4.4l74.1,40.3c-7.4-4-16.3-5.8-25.8-4.4"
					/>
			</defs>
			<clipPath id="SVGID_2_">
				<use xlink:href="#SVGID_1_"  overflow="visible"/>
			</clipPath>
			<g clip-path="url(#SVGID_2_)" enable-background="new    ">
				<g>
					<path fill="none" d="M418.8,47.3"/>
				</g>
				<g>
					<g>
						<path fill="none" stroke="#0D8450" stroke-width="13" stroke-miterlimit="10" d="M361.4,7.8c2.3,0.6,4.5,1.4,6.6,2.3"/>
						
							<line fill="none" stroke="#0D8450" stroke-width="13" stroke-miterlimit="10" stroke-dasharray="12.776,10.0383" x1="376.8" y1="14.9" x2="432.5" y2="45.2"/>
						<path fill="none" stroke="#0D8450" stroke-width="13" stroke-miterlimit="10" d="M437,47.6l6.1,3.3c-2.4-1.2-5-2.1-7.6-2.8"/>
					</g>
				</g>
				<g>
					<path fill="none" d="M435.5,48.1"/>
				</g>
				<g>
					<g>
						<line fill="none" stroke="#0D8450" stroke-width="13" stroke-miterlimit="10" x1="443.1" y1="50.9" x2="437" y2="47.6"/>
						
							<line fill="none" stroke="#0D8450" stroke-width="13" stroke-miterlimit="10" stroke-dasharray="16.1452,12.6855" x1="425.8" y1="41.5" x2="380.7" y2="17"/>
						<path fill="none" stroke="#0D8450" stroke-width="13" stroke-miterlimit="10" d="M375.2,14l-6.1-3.3c0.5,0.2,1,0.5,1.5,0.8
							L375.2,14"/>
						
							<line fill="none" stroke="#0D8450" stroke-width="13" stroke-miterlimit="10" stroke-dasharray="16.5249,12.9839" x1="386.6" y1="20.1" x2="432.7" y2="45.2"/>
						<path fill="none" stroke="#0D8450" stroke-width="13" stroke-miterlimit="10" d="M438.4,48.3l6.1,3.3c-0.5-0.3-1-0.5-1.5-0.8"
							/>
					</g>
				</g>
			</g>
			
				<use xlink:href="#SVGID_1_"  overflow="visible" fill="none" stroke="#0D8450" stroke-width="13" stroke-miterlimit="10" stroke-dasharray="14,11"/>
		</g>
		<g>
			<g>
				<g>
					<path fill="none" stroke="#0D8450" stroke-width="13" stroke-miterlimit="10" stroke-dasharray="13.9998,10.9999" d="
						M418.7,47.3c26.6-3.7,48.2,16.5,48.1,45.3l-0.6,312.3c-0.1,28.7-21.7,55.1-48.3,58.8l-289.3,40.7
						c-26.6,3.7-48.2-16.5-48.1-45.3L81,146.7c0.1-28.8,21.7-55.1,48.3-58.8L418.7,47.3z"/>
					<g>
						<line fill="none" stroke="#0D8450" stroke-width="13" stroke-miterlimit="10" x1="187.8" y1="367.9" x2="194.8" y2="366.9"/>
						
							<line fill="none" stroke="#0D8450" stroke-width="13" stroke-miterlimit="10" stroke-dasharray="13.8234,10.8613" x1="205.5" y1="365.4" x2="346.8" y2="345.5"/>
						<polyline fill="none" stroke="#0D8450" stroke-width="13" stroke-miterlimit="10" points="352.2,344.8 359.1,343.8 
							355.6,337.7 						"/>
						
							<line fill="none" stroke="#0D8450" stroke-width="13" stroke-miterlimit="10" stroke-dasharray="13.6437,10.7201" x1="350.3" y1="328.4" x2="279.9" y2="206.4"/>
						<polyline fill="none" stroke="#0D8450" stroke-width="13" stroke-miterlimit="10" points="277.3,201.8 273.8,195.7 270.6,202 
													"/>
						
							<line fill="none" stroke="#0D8450" stroke-width="13" stroke-miterlimit="10" stroke-dasharray="13.428,10.5506" x1="265.9" y1="211.4" x2="193.3" y2="356.9"/>
						<line fill="none" stroke="#0D8450" stroke-width="13" stroke-miterlimit="10" x1="191" y1="361.6" x2="187.8" y2="367.9"/>
					</g>
					<g>
						<line fill="none" stroke="#0D8450" stroke-width="13" stroke-miterlimit="10" x1="331.9" y1="273" x2="335" y2="266.7"/>
						
							<line fill="none" stroke="#0D8450" stroke-width="13" stroke-miterlimit="10" stroke-dasharray="12.4439,9.7773" x1="339.4" y1="257.9" x2="376.9" y2="182.8"/>
						<polyline fill="none" stroke="#0D8450" stroke-width="13" stroke-miterlimit="10" points="379.1,178.4 382.2,172.2 
							375.3,173.1 						"/>
						
							<line fill="none" stroke="#0D8450" stroke-width="13" stroke-miterlimit="10" stroke-dasharray="14.2098,11.1649" x1="364.2" y1="174.7" x2="294.3" y2="184.5"/>
						<polyline fill="none" stroke="#0D8450" stroke-width="13" stroke-miterlimit="10" points="288.8,185.3 281.9,186.3 
							285.4,192.3 						"/>
						
							<line fill="none" stroke="#0D8450" stroke-width="13" stroke-miterlimit="10" stroke-dasharray="14.012,11.0094" x1="290.9" y1="201.9" x2="325.6" y2="262.1"/>
						<line fill="none" stroke="#0D8450" stroke-width="13" stroke-miterlimit="10" x1="328.4" y1="266.9" x2="331.9" y2="273"/>
					</g>
				</g>
			</g>
		</g>
		<g>
			<g>
				<g>
					<polyline fill="none" stroke="#0D8450" stroke-width="13" stroke-miterlimit="10" points="375.4,173.1 382.3,172.2 
						379.2,178.4 					"/>
					
						<line fill="none" stroke="#0D8450" stroke-width="13" stroke-miterlimit="10" stroke-dasharray="12.4439,9.7773" x1="374.8" y1="187.2" x2="337.3" y2="262.3"/>
					<polyline fill="none" stroke="#0D8450" stroke-width="13" stroke-miterlimit="10" points="335.1,266.7 332,273 328.5,266.9 
											"/>
					
						<line fill="none" stroke="#0D8450" stroke-width="13" stroke-miterlimit="10" stroke-dasharray="14.012,11.0094" x1="323" y1="257.4" x2="288.3" y2="197.1"/>
					<polyline fill="none" stroke="#0D8450" stroke-width="13" stroke-miterlimit="10" points="285.5,192.3 282,186.3 289,185.3 
											"/>
					
						<line fill="none" stroke="#0D8450" stroke-width="13" stroke-miterlimit="10" stroke-dasharray="14.2098,11.1649" x1="300" y1="183.7" x2="369.9" y2="173.9"/>
				</g>
			</g>
		</g>
		<g>
			<g>
				<g>
					<polyline fill="none" stroke="#0D8450" stroke-width="13" stroke-miterlimit="10" points="270.8,202 273.9,195.7 277.4,201.8 
											"/>
					
						<line fill="none" stroke="#0D8450" stroke-width="13" stroke-miterlimit="10" stroke-dasharray="13.6438,10.7201" x1="282.8" y1="211.1" x2="353.1" y2="333.1"/>
					<polyline fill="none" stroke="#0D8450" stroke-width="13" stroke-miterlimit="10" points="355.8,337.7 359.3,343.8 
						352.3,344.8 					"/>
					
						<line fill="none" stroke="#0D8450" stroke-width="13" stroke-miterlimit="10" stroke-dasharray="13.8234,10.8613" x1="341.6" y1="346.3" x2="200.3" y2="366.1"/>
					<polyline fill="none" stroke="#0D8450" stroke-width="13" stroke-miterlimit="10" points="194.9,366.9 188,367.9 191.1,361.6 
											"/>
					
						<line fill="none" stroke="#0D8450" stroke-width="13" stroke-miterlimit="10" stroke-dasharray="13.428,10.5506" x1="195.8" y1="352.2" x2="268.4" y2="206.7"/>
				</g>
			</g>
		</g>
		<g enable-background="new    ">
			<defs>
				<path id="SVGID_3_" enable-background="new    " d="M80.6,459c0,18.5,8.9,33.5,22.4,40.8l-74.1-40.3
					c-13.5-7.3-22.4-22.3-22.4-40.8"/>
			</defs>
			<clipPath id="SVGID_4_">
				<use xlink:href="#SVGID_3_"  overflow="visible"/>
			</clipPath>
			<g clip-path="url(#SVGID_4_)" enable-background="new    ">
				<g>
					<g>
						<path fill="none" stroke="#0D8450" stroke-width="13" stroke-miterlimit="10" d="M80.6,459c0,2.4,0.1,4.7,0.4,7"/>
						<path fill="none" stroke="#0D8450" stroke-width="13" stroke-miterlimit="10" stroke-dasharray="13.5729,10.6644" d="
							M83.4,476.4c2.2,6.2,5.5,11.6,9.8,16"/>
						<path fill="none" stroke="#0D8450" stroke-width="13" stroke-miterlimit="10" d="M97.1,496c1.8,1.5,3.8,2.8,5.8,3.9"/>
					</g>
				</g>
				<g>
					<g>
						<line fill="none" stroke="#0D8450" stroke-width="13" stroke-miterlimit="10" x1="103" y1="499.9" x2="96.8" y2="496.5"/>
						<path fill="none" stroke="#0D8450" stroke-width="13" stroke-miterlimit="10" stroke-dasharray="15.0404,11.8174" d="
							M86.4,490.9l-57.6-31.3C18.7,454,11.1,444,8,431.5"/>
						<path fill="none" stroke="#0D8450" stroke-width="13" stroke-miterlimit="10" d="M6.9,425.7c-0.3-2.3-0.4-4.6-0.4-7"/>
					</g>
				</g>
			</g>
			
				<use xlink:href="#SVGID_3_"  overflow="visible" fill="none" stroke="#0D8450" stroke-width="13" stroke-miterlimit="10" stroke-dasharray="14,11"/>
		</g>
		<g>
			<g>
				<g>
					<line fill="none" stroke="#0D8450" stroke-width="13" stroke-miterlimit="10" x1="418.8" y1="47.3" x2="411.9" y2="48.2"/>
					
						<line fill="none" stroke="#0D8450" stroke-width="13" stroke-miterlimit="10" stroke-dasharray="13.6169,10.699" x1="401.3" y1="49.7" x2="141.7" y2="86.2"/>
					<line fill="none" stroke="#0D8450" stroke-width="13" stroke-miterlimit="10" x1="136.4" y1="86.9" x2="129.5" y2="87.9"/>
				</g>
			</g>
			<g>
				<g>
					<line fill="none" stroke="#0D8450" stroke-width="13" stroke-miterlimit="10" x1="55.4" y1="47.6" x2="62.3" y2="46.6"/>
					
						<line fill="none" stroke="#0D8450" stroke-width="13" stroke-miterlimit="10" stroke-dasharray="13.6169,10.699" x1="72.9" y1="45.1" x2="332.5" y2="8.7"/>
					<line fill="none" stroke="#0D8450" stroke-width="13" stroke-miterlimit="10" x1="337.8" y1="7.9" x2="344.7" y2="6.9"/>
				</g>
			</g>
		</g>
		<g>
			<g>
				<g>
					<line fill="none" stroke="#0D8450" stroke-width="13" stroke-miterlimit="10" x1="6.5" y1="418.7" x2="6.5" y2="411.7"/>
					
						<line fill="none" stroke="#0D8450" stroke-width="13" stroke-miterlimit="10" stroke-dasharray="13.4271,10.5499" x1="6.5" y1="401.2" x2="7.1" y2="118.7"/>
					<line fill="none" stroke="#0D8450" stroke-width="13" stroke-miterlimit="10" x1="7.1" y1="113.4" x2="7.1" y2="106.4"/>
				</g>
			</g>
			<g>
				<g>
					<line fill="none" stroke="#0D8450" stroke-width="13" stroke-miterlimit="10" x1="81.2" y1="146.7" x2="81.2" y2="153.7"/>
					
						<line fill="none" stroke="#0D8450" stroke-width="13" stroke-miterlimit="10" stroke-dasharray="13.4271,10.5499" x1="81.1" y1="164.3" x2="80.6" y2="446.7"/>
					<line fill="none" stroke="#0D8450" stroke-width="13" stroke-miterlimit="10" x1="80.6" y1="452" x2="80.6" y2="459"/>
				</g>
			</g>
		</g>
		<g enable-background="new    ">
			<defs>
				<path id="SVGID_5_" enable-background="new    " d="M129.5,87.9c-26.6,3.7-48.3,30.1-48.3,58.8"/>
			</defs>
			<defs>
				<path id="SVGID_6_" enable-background="new    " d="M7.1,106.4c0.1-28.8,21.7-55.1,48.3-58.8"/>
			</defs>
			<clipPath id="SVGID_7_">
				<use xlink:href="#SVGID_5_"  overflow="visible"/>
			</clipPath>
			<clipPath id="SVGID_8_" clip-path="url(#SVGID_7_)">
				<use xlink:href="#SVGID_6_"  overflow="visible"/>
			</clipPath>
			
				<use xlink:href="#SVGID_5_"  overflow="visible" fill="none" stroke="#0D8450" stroke-width="13" stroke-miterlimit="10" stroke-dasharray="14,11"/>
			
				<use xlink:href="#SVGID_6_"  overflow="visible" fill="none" stroke="#0D8450" stroke-width="13" stroke-miterlimit="10" stroke-dasharray="14,11"/>
		</g>
	</g>
</g>
</svg>
