<!-- Generator: Adobe Illustrator 18.0.0, SVG Export Plug-In  -->
<svg version="1.1"
	 xmlns="http://www.w3.org/2000/svg" xmlns:xlink="http://www.w3.org/1999/xlink" xmlns:a="http://ns.adobe.com/AdobeSVGViewerExtensions/3.0/"
	 x="0px" y="0px" width="468.3px" height="506.2px" viewBox="0 0 468.3 506.2" enable-background="new 0 0 468.3 506.2"
	 xml:space="preserve">
<defs>
</defs>
<g>
	<g enable-background="new    ">
		<g enable-background="new    ">
			<defs>
				<path id="SVGID_1_" enable-background="new    " d="M342.2,4.4c9.5-1.3,18.3,0.4,25.8,4.4l74.1,40.3c-7.4-4-16.3-5.8-25.8-4.4"
					/>
			</defs>
			<clipPath id="SVGID_2_">
				<use xlink:href="#SVGID_1_"  overflow="visible"/>
			</clipPath>
			<g clip-path="url(#SVGID_2_)" enable-background="new    ">
				<g>
					<path fill="none" d="M416.3,44.8"/>
				</g>
				<g>
					<g>
						<path fill="none" stroke="#0D8450" stroke-width="8" stroke-miterlimit="10" d="M358.9,5.3c2.3,0.6,4.5,1.4,6.6,2.3"/>
						
							<line fill="none" stroke="#0D8450" stroke-width="8" stroke-miterlimit="10" stroke-dasharray="12.776,10.0383" x1="374.3" y1="12.4" x2="430" y2="42.7"/>
						<path fill="none" stroke="#0D8450" stroke-width="8" stroke-miterlimit="10" d="M434.5,45.1l6.1,3.3c-2.4-1.2-5-2.1-7.6-2.8"
							/>
					</g>
				</g>
				<g>
					<path fill="none" d="M433,45.6"/>
				</g>
				<g>
					<g>
						<line fill="none" stroke="#0D8450" stroke-width="8" stroke-miterlimit="10" x1="440.6" y1="48.4" x2="434.5" y2="45.1"/>
						
							<line fill="none" stroke="#0D8450" stroke-width="8" stroke-miterlimit="10" stroke-dasharray="16.1452,12.6855" x1="423.3" y1="39" x2="378.2" y2="14.5"/>
						<path fill="none" stroke="#0D8450" stroke-width="8" stroke-miterlimit="10" d="M372.7,11.5l-6.1-3.3c0.5,0.2,1,0.5,1.5,0.8
							L372.7,11.5"/>
						
							<line fill="none" stroke="#0D8450" stroke-width="8" stroke-miterlimit="10" stroke-dasharray="16.5249,12.9839" x1="384.1" y1="17.6" x2="430.2" y2="42.7"/>
						<path fill="none" stroke="#0D8450" stroke-width="8" stroke-miterlimit="10" d="M435.9,45.8l6.1,3.3c-0.5-0.3-1-0.5-1.5-0.8"
							/>
					</g>
				</g>
			</g>
			
				<use xlink:href="#SVGID_1_"  overflow="visible" fill="none" stroke="#0D8450" stroke-width="8" stroke-miterlimit="10" stroke-dasharray="14,11"/>
		</g>
		<g>
			<g>
				<g>
					<path fill="none" stroke="#0D8450" stroke-width="8" stroke-miterlimit="10" stroke-dasharray="13.9998,10.9999" d="
						M416.2,44.8c26.6-3.7,48.2,16.5,48.1,45.3l-0.6,312.3c-0.1,28.7-21.7,55.1-48.3,58.8l-289.3,40.7
						c-26.6,3.7-48.2-16.5-48.1-45.3l0.6-312.3c0.1-28.8,21.7-55.1,48.3-58.8L416.2,44.8z"/>
					<g>
						<line fill="none" stroke="#0D8450" stroke-width="8" stroke-miterlimit="10" x1="185.3" y1="365.4" x2="192.3" y2="364.4"/>
						
							<line fill="none" stroke="#0D8450" stroke-width="8" stroke-miterlimit="10" stroke-dasharray="13.8234,10.8613" x1="203" y1="362.9" x2="344.3" y2="343"/>
						<polyline fill="none" stroke="#0D8450" stroke-width="8" stroke-miterlimit="10" points="349.7,342.3 356.6,341.3 
							353.1,335.2 						"/>
						
							<line fill="none" stroke="#0D8450" stroke-width="8" stroke-miterlimit="10" stroke-dasharray="13.6437,10.7201" x1="347.8" y1="325.9" x2="277.4" y2="203.9"/>
						<polyline fill="none" stroke="#0D8450" stroke-width="8" stroke-miterlimit="10" points="274.8,199.3 271.3,193.2 
							268.1,199.5 						"/>
						
							<line fill="none" stroke="#0D8450" stroke-width="8" stroke-miterlimit="10" stroke-dasharray="13.428,10.5506" x1="263.4" y1="208.9" x2="190.8" y2="354.4"/>
						<line fill="none" stroke="#0D8450" stroke-width="8" stroke-miterlimit="10" x1="188.5" y1="359.1" x2="185.3" y2="365.4"/>
					</g>
					<g>
						<line fill="none" stroke="#0D8450" stroke-width="8" stroke-miterlimit="10" x1="329.4" y1="270.5" x2="332.5" y2="264.2"/>
						
							<line fill="none" stroke="#0D8450" stroke-width="8" stroke-miterlimit="10" stroke-dasharray="12.4439,9.7773" x1="336.9" y1="255.4" x2="374.4" y2="180.3"/>
						<polyline fill="none" stroke="#0D8450" stroke-width="8" stroke-miterlimit="10" points="376.6,175.9 379.7,169.7 
							372.8,170.6 						"/>
						
							<line fill="none" stroke="#0D8450" stroke-width="8" stroke-miterlimit="10" stroke-dasharray="14.2098,11.1649" x1="361.7" y1="172.2" x2="291.8" y2="182"/>
						<polyline fill="none" stroke="#0D8450" stroke-width="8" stroke-miterlimit="10" points="286.3,182.8 279.4,183.8 
							282.9,189.8 						"/>
						
							<line fill="none" stroke="#0D8450" stroke-width="8" stroke-miterlimit="10" stroke-dasharray="14.012,11.0094" x1="288.4" y1="199.4" x2="323.1" y2="259.6"/>
						<line fill="none" stroke="#0D8450" stroke-width="8" stroke-miterlimit="10" x1="325.9" y1="264.4" x2="329.4" y2="270.5"/>
					</g>
				</g>
			</g>
		</g>
		<g>
			<g>
				<g>
					<polyline fill="none" stroke="#0D8450" stroke-width="8" stroke-miterlimit="10" points="372.9,170.6 379.8,169.7 376.7,175.9 
											"/>
					
						<line fill="none" stroke="#0D8450" stroke-width="8" stroke-miterlimit="10" stroke-dasharray="12.4439,9.7773" x1="372.3" y1="184.7" x2="334.8" y2="259.8"/>
					<polyline fill="none" stroke="#0D8450" stroke-width="8" stroke-miterlimit="10" points="332.6,264.2 329.5,270.5 326,264.4 
											"/>
					
						<line fill="none" stroke="#0D8450" stroke-width="8" stroke-miterlimit="10" stroke-dasharray="14.012,11.0094" x1="320.5" y1="254.9" x2="285.8" y2="194.6"/>
					<polyline fill="none" stroke="#0D8450" stroke-width="8" stroke-miterlimit="10" points="283,189.8 279.5,183.8 286.5,182.8 
											"/>
					
						<line fill="none" stroke="#0D8450" stroke-width="8" stroke-miterlimit="10" stroke-dasharray="14.2098,11.1649" x1="297.5" y1="181.2" x2="367.4" y2="171.4"/>
				</g>
			</g>
		</g>
		<g>
			<g>
				<g>
					<polyline fill="none" stroke="#0D8450" stroke-width="8" stroke-miterlimit="10" points="268.3,199.5 271.4,193.2 274.9,199.3 
											"/>
					
						<line fill="none" stroke="#0D8450" stroke-width="8" stroke-miterlimit="10" stroke-dasharray="13.6438,10.7201" x1="280.3" y1="208.6" x2="350.6" y2="330.6"/>
					<polyline fill="none" stroke="#0D8450" stroke-width="8" stroke-miterlimit="10" points="353.3,335.2 356.8,341.3 349.8,342.3 
											"/>
					
						<line fill="none" stroke="#0D8450" stroke-width="8" stroke-miterlimit="10" stroke-dasharray="13.8234,10.8613" x1="339.1" y1="343.8" x2="197.8" y2="363.6"/>
					<polyline fill="none" stroke="#0D8450" stroke-width="8" stroke-miterlimit="10" points="192.4,364.4 185.5,365.4 188.6,359.1 
											"/>
					
						<line fill="none" stroke="#0D8450" stroke-width="8" stroke-miterlimit="10" stroke-dasharray="13.428,10.5506" x1="193.3" y1="349.7" x2="265.9" y2="204.2"/>
				</g>
			</g>
		</g>
		<g enable-background="new    ">
			<defs>
				<path id="SVGID_3_" enable-background="new    " d="M78.1,456.5c0,18.5,8.9,33.5,22.4,40.8L26.4,457C12.9,449.7,4,434.7,4,416.2
					"/>
			</defs>
			<clipPath id="SVGID_4_">
				<use xlink:href="#SVGID_3_"  overflow="visible"/>
			</clipPath>
			<g clip-path="url(#SVGID_4_)" enable-background="new    ">
				<g>
					<g>
						<path fill="none" stroke="#0D8450" stroke-width="8" stroke-miterlimit="10" d="M78.1,456.5c0,2.4,0.1,4.7,0.4,7"/>
						<path fill="none" stroke="#0D8450" stroke-width="8" stroke-miterlimit="10" stroke-dasharray="13.5729,10.6644" d="
							M80.9,473.9c2.2,6.2,5.5,11.6,9.8,16"/>
						<path fill="none" stroke="#0D8450" stroke-width="8" stroke-miterlimit="10" d="M94.6,493.5c1.8,1.5,3.8,2.8,5.8,3.9"/>
					</g>
				</g>
				<g>
					<g>
						<line fill="none" stroke="#0D8450" stroke-width="8" stroke-miterlimit="10" x1="100.5" y1="497.4" x2="94.3" y2="494"/>
						<path fill="none" stroke="#0D8450" stroke-width="8" stroke-miterlimit="10" stroke-dasharray="15.0404,11.8174" d="
							M83.9,488.4L26.4,457c-10.2-5.6-17.8-15.5-20.9-28"/>
						<path fill="none" stroke="#0D8450" stroke-width="8" stroke-miterlimit="10" d="M4.4,423.2c-0.3-2.3-0.4-4.6-0.4-7"/>
					</g>
				</g>
			</g>
			
				<use xlink:href="#SVGID_3_"  overflow="visible" fill="none" stroke="#0D8450" stroke-width="8" stroke-miterlimit="10" stroke-dasharray="14,11"/>
		</g>
		<g>
			<g>
				<g>
					<line fill="none" stroke="#0D8450" stroke-width="8" stroke-miterlimit="10" x1="416.3" y1="44.8" x2="409.4" y2="45.7"/>
					
						<line fill="none" stroke="#0D8450" stroke-width="8" stroke-miterlimit="10" stroke-dasharray="13.6169,10.699" x1="398.8" y1="47.2" x2="139.2" y2="83.7"/>
					<line fill="none" stroke="#0D8450" stroke-width="8" stroke-miterlimit="10" x1="133.9" y1="84.4" x2="127" y2="85.4"/>
				</g>
			</g>
			<g>
				<g>
					<line fill="none" stroke="#0D8450" stroke-width="8" stroke-miterlimit="10" x1="52.9" y1="45.1" x2="59.8" y2="44.1"/>
					
						<line fill="none" stroke="#0D8450" stroke-width="8" stroke-miterlimit="10" stroke-dasharray="13.6169,10.699" x1="70.4" y1="42.6" x2="330" y2="6.2"/>
					<line fill="none" stroke="#0D8450" stroke-width="8" stroke-miterlimit="10" x1="335.3" y1="5.4" x2="342.2" y2="4.4"/>
				</g>
			</g>
		</g>
		<g>
			<g>
				<g>
					<line fill="none" stroke="#0D8450" stroke-width="8" stroke-miterlimit="10" x1="4" y1="416.2" x2="4" y2="409.2"/>
					
						<line fill="none" stroke="#0D8450" stroke-width="8" stroke-miterlimit="10" stroke-dasharray="13.4271,10.5499" x1="4" y1="398.7" x2="4.6" y2="116.2"/>
					<line fill="none" stroke="#0D8450" stroke-width="8" stroke-miterlimit="10" x1="4.6" y1="110.9" x2="4.6" y2="103.9"/>
				</g>
			</g>
			<g>
				<g>
					<line fill="none" stroke="#0D8450" stroke-width="8" stroke-miterlimit="10" x1="78.7" y1="144.2" x2="78.7" y2="151.2"/>
					
						<line fill="none" stroke="#0D8450" stroke-width="8" stroke-miterlimit="10" stroke-dasharray="13.4271,10.5499" x1="78.6" y1="161.8" x2="78.1" y2="444.2"/>
					<line fill="none" stroke="#0D8450" stroke-width="8" stroke-miterlimit="10" x1="78.1" y1="449.5" x2="78.1" y2="456.5"/>
				</g>
			</g>
		</g>
		<g enable-background="new    ">
			<defs>
				<path id="SVGID_5_" enable-background="new    " d="M127,85.4c-26.6,3.7-48.3,30.1-48.3,58.8"/>
			</defs>
			<defs>
				<path id="SVGID_6_" enable-background="new    " d="M4.6,103.9c0.1-28.8,21.7-55.1,48.3-58.8"/>
			</defs>
			<clipPath id="SVGID_7_">
				<use xlink:href="#SVGID_5_"  overflow="visible"/>
			</clipPath>
			<clipPath id="SVGID_8_" clip-path="url(#SVGID_7_)">
				<use xlink:href="#SVGID_6_"  overflow="visible"/>
			</clipPath>
			
				<use xlink:href="#SVGID_5_"  overflow="visible" fill="none" stroke="#0D8450" stroke-width="8" stroke-miterlimit="10" stroke-dasharray="14,11"/>
			
				<use xlink:href="#SVGID_6_"  overflow="visible" fill="none" stroke="#0D8450" stroke-width="8" stroke-miterlimit="10" stroke-dasharray="14,11"/>
		</g>
	</g>
</g>
</svg>
