<!-- Generator: Adobe Illustrator 18.0.0, SVG Export Plug-In  -->
<svg version="1.1"
	 xmlns="http://www.w3.org/2000/svg" xmlns:xlink="http://www.w3.org/1999/xlink" xmlns:a="http://ns.adobe.com/AdobeSVGViewerExtensions/3.0/"
	 x="0px" y="0px" width="1019.3px" height="736.3px" viewBox="0 0 1019.3 736.3" enable-background="new 0 0 1019.3 736.3"
	 xml:space="preserve">
<defs>
</defs>
<g>
	<polygon fill="#65A042" points="30.4,511.7 490.8,307.4 491,19.4 26.7,223.6 	"/>
	<polygon fill="#6DAF44" points="490.8,307.4 979.6,455.9 984.9,176.5 491,19.4 	"/>
	<polygon fill="#A7D164" points="490.8,307.4 1007.2,464.3 503.7,698.2 30.4,511.7 	"/>
	<polygon fill="#84C552" points="602.4,354.8 435.4,438.9 784.1,558.2 971.3,468.6 	"/>
	<polygon fill="#158141" points="784.1,558.2 435.4,438.9 435.6,446.7 785,567.6 	"/>
	<polygon fill="#F5F6F7" points="979.6,455.9 606.4,342.5 602.1,344.9 972.3,458.8 	"/>
	<polygon fill="#DAD9D9" points="602.1,344.9 602.4,354.8 971.3,468.6 972.3,458.8 	"/>
	<polygon fill="#DAD9D9" points="344.3,379.4 497.4,311.2 496.8,300.9 343.7,368.3 	"/>
	<polygon fill="#F5F6F7" points="496.8,300.9 490.8,299 343.5,363.5 343.7,368.3 	"/>
	
		<linearGradient id="SVGID_1_" gradientUnits="userSpaceOnUse" x1="468.639" y1="331.2352" x2="642.3086" y2="531.442" gradientTransform="matrix(1.0763 -3.616528e-02 3.427911e-02 1.0201 -216.0222 86.6809)">
		<stop  offset="0.4586" style="stop-color:#98B75A"/>
		<stop  offset="1" style="stop-color:#98B75A"/>
	</linearGradient>
	<polygon fill="url(#SVGID_1_)" points="497.1,309.3 574.5,332.8 398.8,422.6 438.5,484.8 378.8,464.1 308.2,497.6 308.4,503 
		310.3,503.7 313.1,586 274.7,608 68.1,526.5 221.4,458 344.8,402.2 344.3,379.4 497.4,311.2 	"/>
	
		<linearGradient id="SVGID_2_" gradientUnits="userSpaceOnUse" x1="889.8282" y1="403.7249" x2="1089.5994" y2="493.2494" gradientTransform="matrix(1.0763 -3.616528e-02 3.427911e-02 1.0201 -216.0222 86.6809)">
		<stop  offset="0.4586" style="stop-color:#73A544"/>
		<stop  offset="1" style="stop-color:#6F9B40"/>
	</linearGradient>
	<polygon fill="url(#SVGID_2_)" points="741.3,518.1 784.1,558.2 970,468.2 933.8,457 845.7,445.5 	"/>
	
		<linearGradient id="SVGID_3_" gradientUnits="userSpaceOnUse" x1="1084.6528" y1="238.9433" x2="1118.2661" y2="249.4734" gradientTransform="matrix(1.0763 -3.616528e-02 3.427911e-02 1.0201 -216.0222 86.6809)">
		<stop  offset="0" style="stop-color:#65A042"/>
		<stop  offset="1" style="stop-color:#61AC44"/>
	</linearGradient>
	<polygon fill="url(#SVGID_3_)" points="938.3,204.9 978.1,213.5 976.7,367.6 949.1,370.4 939.6,368.5 968.8,356.1 967.2,213.9 	"/>
	
		<linearGradient id="SVGID_4_" gradientUnits="userSpaceOnUse" x1="763.2756" y1="204.7016" x2="776.3975" y2="204.7016" gradientTransform="matrix(1.0763 -3.616528e-02 3.427911e-02 1.0201 -216.0222 86.6809)">
		<stop  offset="0" style="stop-color:#639E42"/>
		<stop  offset="1" style="stop-color:#61AC44"/>
	</linearGradient>
	<polygon fill="url(#SVGID_4_)" points="614,188.3 615.1,344.5 621.6,347.1 616.6,198.9 	"/>
	
		<linearGradient id="SVGID_5_" gradientUnits="userSpaceOnUse" x1="370.9945" y1="200.6088" x2="317.2477" y2="194.7373" gradientTransform="matrix(1.0763 -3.616528e-02 3.427911e-02 1.0201 -216.0222 86.6809)">
		<stop  offset="0.4586" style="stop-color:#609340"/>
		<stop  offset="1" style="stop-color:#5D9C41"/>
	</linearGradient>
	<path fill="url(#SVGID_5_)" d="M180.8,219.9c0,0-34.4,99.5-58.3,110.6l61.3-28.4L180.8,219.9z"/>
	<polygon fill="#98B75A" points="320,526.5 312,586.2 274.7,608 503.7,698.2 540.8,681 426.3,488.7 	"/>
	<polygon fill="#95AF55" points="312,586.2 316.1,588.4 322.7,585.9 321.9,583.5 	"/>
	<polygon fill="#95AF55" points="340,593.8 339.2,595.1 343.4,596.4 349.3,593.4 347.7,591.3 	"/>
	<polygon fill="#95AF55" points="388.7,608.4 387.8,609.1 393.2,610.9 399.6,606.9 398.7,606.6 393.2,610.1 	"/>
	<polygon fill="#95AF55" points="421.6,615.1 420.9,615.7 426.9,618.6 433.3,615.4 432.6,615.1 427.2,617.8 	"/>
	<polygon fill="#95AF55" points="466.4,647.1 465.9,647.6 469.3,649 475.8,646.2 475.4,645.9 469.2,648.3 	"/>
	<polygon fill="#95AF55" points="493,655.4 492.5,655.8 496.5,657.3 502.2,654.3 501.8,654 496.4,656.5 	"/>
	<polygon fill="#9CBC5B" points="542,669.5 541.5,670 546.5,671.6 552.5,668 552,667.7 546.5,671.1 	"/>
	<polygon fill="#709B42" points="593,467.2 594.4,469.7 615.3,476.9 645,461.6 641.3,461.1 615.3,474.5 	"/>
	<g>
		<polygon fill="#807E7C" points="308.2,497.6 426.2,539.2 494.7,504.3 378.8,464.1 		"/>
		<polygon fill="#40403F" points="308.2,497.6 308.4,503 426.1,544.8 426.2,539.2 		"/>
		<polygon fill="#403F40" points="494.7,504.3 494.9,509.6 426.1,544.8 426.2,539.2 		"/>
		<path fill="#898888" d="M313.3,508.2l0.4,11.4c0,0,0.2,2.9,10.9,6.7c10.7,3.8,85,31.3,85,31.3s9.7,4.1,17-0.6
			c0.2-4.6-0.4-12.2-0.4-12.2l-112.9-40.2L313.3,508.2"/>
		<path fill="#6B6A69" d="M313.2,504.7l-2.8-1l0.5,16.3c0,0,2.4,3.8,7.3,5.8l93.8,35.1c0,0,5.9,2.7,14.6-3.9
			c0.1-6.3-0.4-12.2-0.4-12.2l0,0l0.4,12.2c0,0-6.6,4.4-17,0.6c-10.3-3.8-85-31.3-85-31.3s-7.9-2.7-10.9-6.7L313.2,504.7z"/>
		<polygon fill="#BFBBB9" points="313.2,504.7 313.7,519.6 332.4,511.5 		"/>
		<path fill="#BFBBB9" d="M332.4,511.5l-18.7,8.1c0,0,3.6,4.2,8.2,5.6l22.2-9.6L332.4,511.5z"/>
		<path fill="#807E7C" d="M426.5,557l-0.4-12.2l68.8-35.2l0.5,15.1c0,0-1.6,3.2-11.9,7.8c-10.3,4.6-50,24.2-50,24.2
			S429.7,558.4,426.5,557z"/>
		<polygon fill="#8D8E8D" points="426.1,544.8 426.9,617.9 432.6,615 431.7,541.9 		"/>
		<polygon fill="#DAD9D9" points="484.3,514.9 488.7,512.6 491.8,594.5 487.2,592.8 		"/>
		<path fill="#8D8E8D" d="M431.8,550c0,0,37.8-26.1,57.6-28l-0.3-9.4l-57.3,29.3L431.8,550z"/>
		<polygon fill="#DAD9D9" points="421.5,543.2 421.6,615.1 426.9,617.9 426.1,544.8 		"/>
		<polygon fill="#8D8E8D" points="313.3,505.6 315.9,587.3 321.9,584.9 319.4,507.8 		"/>
		<polygon fill="#DAD9D9" points="313.1,586 315.9,587.3 313.3,504.7 310.3,503.7 		"/>
		<polygon fill="#8D8E8D" points="494.9,509.6 489.1,512.6 491.8,594.5 497.6,591.6 		"/>
	</g>
	<g>
		<polygon fill="#EAF5EE" points="699.4,337.5 590.4,391.3 771.1,448.8 877.4,394.4 		"/>
		<polygon fill="#9E7240" points="771.1,448.8 773.7,526.9 879.9,470 877.4,394.4 		"/>
		<polygon fill="#AB7B47" points="590.4,391.3 593,467.2 615.3,474.6 612.7,398.4 		"/>
		<polygon fill="#AB7B47" points="771.1,448.8 773.7,526.9 741.2,516.2 741,439.2 		"/>
		<polygon fill="#ECAB60" points="612.7,398.4 741,439.2 741.1,474.6 613.9,432.9 		"/>
		<polygon fill="#9E7240" points="615.3,474.6 641.3,461.1 640.6,441.8 613.9,432.9 		"/>
		<polygon fill="#DAE4DB" points="590.4,391.3 590.6,398.3 771.4,456.7 771.1,448.8 		"/>
		<polygon fill="#CBDCC8" points="771.1,448.8 771.4,456.7 877.6,402.1 877.4,394.4 		"/>
		<polygon fill="#9E7240" points="772.5,492.2 794.2,499.2 795.3,533.5 773.7,526.9 		"/>
		<polygon fill="#5F4628" points="772.5,492.2 878.8,437.5 898.9,443.7 794.2,499.2 		"/>
		<polygon fill="#5F4628" points="794.2,499.2 795.3,533.5 900.1,478.3 898.9,443.7 		"/>
		<polygon fill="#9E7240" points="772.5,492.2 794.2,499.2 797.6,497.4 775.8,490.6 		"/>
		<polygon fill="#AB7B47" points="790.4,498 794.2,499.2 898.9,443.7 895.4,442.6 		"/>
		<polygon fill="#AB7B47" points="898.9,443.7 878.8,437.5 875.7,439.1 895.9,445.3 		"/>
		<polygon fill="#866138" points="875.7,439.1 892.3,444.2 889.9,445.5 873.4,440.3 		"/>
		<polygon fill="#9E7240" points="873.4,440.3 873.9,454 889.9,445.5 		"/>
	</g>
	<polygon fill="#EAF5EE" points="28.6,374.1 63.6,387 222.6,314.7 183.7,302.1 	"/>
	<polygon fill="#8D8E8D" points="63.6,387 65.1,529 31.1,515.8 28.6,374.1 	"/>
	<polygon fill="#DAD9D9" points="63.6,387 73.4,390.9 75.8,523.1 65,527.9 	"/>
	<polygon fill="#DAD9D9" points="63.6,387 73.4,391.2 223,323.2 222.6,314.7 	"/>
	<polygon fill="#E2E2E2" points="73.4,391.2 215.7,326.5 221.1,450 75.5,515.7 	"/>
	<polygon fill="#DAD9D9" points="223,323.2 228.3,454.9 221.4,458 215.7,326.5 	"/>
	<polyline fill="#F5F6F7" points="221.1,450 221.4,458 65,527.9 65,520.3 221.1,450 	"/>
	<polygon fill="#8D8E8D" points="184.8,340.4 215.7,326.5 218.6,392.6 186.3,383.9 	"/>
	<polygon fill="#CCCCCC" points="186.3,383.9 74,431.1 74.5,454.9 218.6,392.6 	"/>
	<polygon fill="#F5F6F7" points="218.6,392.6 218.9,397.4 74.9,460.5 74.9,454.9 	"/>
	<polygon fill="#8D8E8D" points="218.9,397.4 221.1,450 191,440.4 189.9,410 	"/>
	<polygon fill="#CCCCCC" points="191,440.4 75.2,489.9 75.5,515.7 221.1,450 	"/>
	<polygon fill="#8D8E8D" points="180.8,219.9 219.1,229.6 222.6,314.7 183.7,302.1 	"/>
	<polygon fill="#EAF5EE" points="180.8,219.9 296.7,166.5 336.2,177.4 219.1,229.6 	"/>
	<polygon fill="#DAD9D9" points="336.2,177.4 344.8,402.2 228.3,454.9 219.1,229.2 	"/>
	<polygon fill="#E2E2E2" points="233.2,238.6 327.3,196.2 335.3,402.5 240.2,445 	"/>
	<polygon fill="#F5F6F7" points="235.1,295.6 329.5,253.7 329.8,261.9 235.4,304.3 	"/>
	<polygon fill="#CCCCCC" points="335.3,402.5 301.9,391.2 239.3,419 240.2,445 	"/>
	<polygon fill="#F5F6F7" points="238,381.2 332.8,337.6 332.6,332.3 237.8,375.1 	"/>
	<polygon fill="#CCCCCC" points="332.6,332.3 297.4,323.7 237,349.9 237.8,375.1 	"/>
	<polygon fill="#CCCCCC" points="329.5,253.7 291.9,246.3 234.3,271.6 235.1,295.6 	"/>
	<polygon fill="#8D8E8D" points="327.3,196.2 329.5,253.7 291.9,246.3 290.8,212.5 	"/>
	<polygon fill="#8D8E8D" points="297.4,323.7 332.6,332.3 329.8,261.9 295.9,277.2 	"/>
	<polygon fill="#8D8E8D" points="332.8,337.6 335.3,402.5 301.9,391.2 300.6,352.4 	"/>
	<polygon fill="#158141" points="952.2,222.5 719.6,149.6 714.9,264.5 950.9,338.2 	"/>
	<polygon fill="#9E7240" points="714.9,264.5 708.9,267.3 713,147.7 719.6,149.6 	"/>
	<polygon fill="#ECAB60" points="705.9,139.9 713.5,135.7 967.6,213.9 958.4,218.1 	"/>
	<polygon fill="#9E7240" points="958.4,218.1 958.7,351.6 933.5,362.9 933.8,371 968.8,356.1 967.6,213.9 	"/>
	<polygon fill="#AB7B47" points="933.8,371 677.8,288.2 678,280.7 933.5,362.9 	"/>
	<polygon fill="#ECAB60" points="702,270.6 678,280.7 933.5,362.9 958.7,351.6 	"/>
	<polygon fill="#ECAB60" points="714.9,264.5 708.9,267.3 951.1,344.8 950.9,338.2 	"/>
	<polygon fill="#AB7B47" points="702.2,265.1 702,270.6 958.7,351.6 958.7,345.6 	"/>
	<polygon fill="#AB7B47" points="702.2,265.1 705.9,139.9 713.2,142.1 708.9,267.2 	"/>
	<polygon fill="#AB7B47" points="713.2,142.1 958.4,218.1 958.7,351.6 951.3,349.2 952.2,222.5 713,147.7 	"/>
	<polygon fill="#ABC8E1" points="346.2,168 367.2,173.9 367.7,189 351.9,184.4 355.4,290 366.8,291.9 366.7,297.3 349.3,293.6 	"/>
	<polygon fill="#E2E7F5" points="346.2,168 464.5,114.6 482.8,121.5 367.2,173.9 	"/>
	<polygon fill="#C4D9ED" points="367.2,173.9 367.7,189 483.2,137.4 482.8,121.5 	"/>
	<polygon fill="#ABC8E1" points="366.6,293 485.1,239.9 485.2,244.4 366.7,297.3 	"/>
	<polygon fill="#C4D9ED" points="355.4,290 474.2,236 485.1,239.9 366.6,293 	"/>
	<polygon fill="#E5E5E5" points="351.9,184.4 355.4,288.6 474.2,236 474.2,141.4 367.7,189 	"/>
	<polygon fill="#DAD9D9" points="472.3,142.2 468.5,143.9 468.6,232.9 359.8,280.8 359.9,284.8 472.8,234.3 	"/>
	<polygon fill="#CFCECE" points="471.3,142.7 471.5,233.9 359.9,283.2 359.9,282 469.7,233.3 470,143.3 	"/>
	<polygon opacity="0.2" fill="#F5F6F7" points="416.9,167 418.8,255.9 359.9,282 356.6,185.8 367.7,189 	"/>
	<polygon fill="#E6EEE9" points="468.5,180.5 364.4,229.3 358,227.9 468.5,176.3 	"/>
	<polygon id="_x31__1_" opacity="0.6" fill="#F5F6F7" points="364.4,229.3 468.5,180.5 468.5,143.9 367.7,189 363,187.6 	"/>
	<polygon opacity="0.6" fill="#F5F6F7" points="468.5,143.9 463.5,146.1 463.9,230.9 359.6,275.7 359.8,279.3 468.6,232.9 	"/>
	<polygon fill="#E2E2E2" points="356.6,185.8 358,227.9 364.4,229.3 363,187.6 	"/>
	<polygon fill="#BFD5E5" points="474.2,141.4 474.2,236 360,286.3 360.1,287.9 476.5,236.7 476.9,140.2 	"/>
	<g>
		<polygon fill="#CCCCCC" points="359.5,272.6 363.7,273.7 364.2,285.9 359.9,284.8 		"/>
		<polygon fill="#E2E2E2" points="363.7,273.7 418.6,249.6 418.9,261.4 364.2,285.9 		"/>
		<polygon fill="#EAF5EE" points="359.5,272.6 414.3,248.5 418.6,249.6 363.7,273.7 		"/>
	</g>
	<polygon fill="#DAD9D9" points="414.3,248.5 413.2,168.6 416.9,167 418.6,249.6 	"/>
	<polygon fill="#BFD5E5" points="356.6,185.8 351.9,184.4 355.4,290 360.1,287.9 	"/>
	<polygon fill="#E5E5E5" points="359.4,228.2 358,227.9 359.5,272.6 360.9,272 	"/>
	<polygon fill="#CFCECE" points="414.2,168.2 415.2,248.7 417,249.2 415.9,167.4 	"/>
	<polygon fill="#E6EEE9" points="415.2,248.7 360.9,272.9 362.7,273.4 417,249.2 	"/>
	<g>
		<polygon fill="#9E7240" points="337.5,493.7 393.9,513 393.9,560.3 339.1,538.7 		"/>
		<polygon fill="#9E7240" points="393.9,560.3 393.9,569.8 339.4,548.4 339.1,538.7 		"/>
		<polygon fill="#DAD9D9" points="339.4,548.4 339.7,594.3 343.1,595.5 342.7,549.7 		"/>
		<polygon fill="#8D8E8D" points="342.7,549.7 343.1,595.5 348.4,593 348.2,551.6 		"/>
		<polygon fill="#8D8E8D" points="393.9,569.8 393.2,610.1 398.7,606.7 400.1,566.7 		"/>
		<polygon fill="#DAD9D9" points="393.9,569.8 389.1,568.2 388.7,608.5 393.2,610.1 		"/>
		<polygon fill="#8D8E8D" points="399.3,588 421.6,577.5 421.7,580.2 399.4,590.8 		"/>
		<polygon fill="#DAD9D9" points="421.6,577.5 421.6,574.3 399.5,584.3 399.3,588 		"/>
		<polygon fill="#DAD9D9" points="348.4,573.1 374.3,562.1 376.3,562.9 348.4,574.7 		"/>
		<polygon fill="#8D8E8D" points="376.3,562.9 378.8,563.9 348.4,577.2 348.4,574.7 		"/>
		<polygon fill="#AB7B47" points="340.8,491.5 337.5,493.7 393.9,513 393.9,569.8 411.9,560.9 400.5,556.7 397,558.4 397.6,511.2 		
			"/>
		<polygon fill="#9E7240" points="397.1,555.4 400.5,556.7 397,558.4 		"/>
	</g>
	<g>
		<polygon fill="#807E7C" points="461.5,558.6 579.5,600.2 648,565.3 532.1,525.1 		"/>
		<polygon fill="#40403F" points="461.5,558.6 461.7,564 579.4,605.8 579.5,600.2 		"/>
		<polygon fill="#403F40" points="648,565.3 648.2,570.6 579.4,605.8 579.5,600.2 		"/>
		<path fill="#898888" d="M466.6,569.2l0.4,11.4c0,0,0.2,2.9,10.9,6.7c10.7,3.8,85,31.3,85,31.3s9.7,4.1,17-0.6
			c0.2-4.6-0.4-12.2-0.4-12.2l-112.9-40.2L466.6,569.2"/>
		<path fill="#6B6A69" d="M466.5,565.7l-2.8-1l0.5,16.3c0,0,2.4,3.8,7.3,5.8l93.8,35.1c0,0,5.9,2.7,14.6-3.9
			c0.1-6.3-0.4-12.2-0.4-12.2l0,0l0.4,12.2c0,0-6.6,4.4-17,0.6c-10.3-3.8-85-31.3-85-31.3s-7.9-2.7-10.9-6.7L466.5,565.7z"/>
		<polygon fill="#BFBBB9" points="466.5,565.7 467,580.6 485.7,572.5 		"/>
		<path fill="#BFBBB9" d="M485.7,572.5l-18.7,8.1c0,0,3.6,4.2,8.2,5.6l22.2-9.6L485.7,572.5z"/>
		<path fill="#807E7C" d="M579.8,618l-0.4-12.2l68.8-35.2l0.5,15.1c0,0-1.6,3.2-11.9,7.8c-10.3,4.6-50,24.2-50,24.2
			S583,619.3,579.8,618z"/>
		<polygon fill="#8D8E8D" points="579.4,605.8 580.2,678.9 585.9,676 585,602.9 		"/>
		<polygon fill="#DAD9D9" points="637.6,575.9 642.1,573.6 645.1,655.5 640.5,653.8 		"/>
		<path fill="#8D8E8D" d="M585.1,611c0,0,37.8-26.1,57.6-28l-0.3-9.4L585,602.9L585.1,611z"/>
		<polygon fill="#DAD9D9" points="574.9,604.2 574.9,676.1 580.2,678.9 579.4,605.8 		"/>
		<polygon fill="#8D8E8D" points="466.7,566.6 469.2,648.3 475.3,645.9 472.7,568.8 		"/>
		<polygon fill="#DAD9D9" points="466.4,647 469.2,648.3 466.6,565.7 463.6,564.7 		"/>
		<polygon fill="#8D8E8D" points="648.2,570.6 642.4,573.6 645.1,655.5 650.9,652.6 		"/>
	</g>
	<polygon fill="#AB7B47" points="507.9,162.6 508.3,312.7 606.4,342.5 605.8,191.7 	"/>
	<polygon fill="#ECAB60" points="507.9,162.6 516.3,159.1 614,188.3 605.8,191.7 	"/>
	<polygon fill="#9E7240" points="605.8,191.7 614,188.3 615.1,344.5 606.4,342.5 	"/>
	<polygon fill="#CCCCCC" points="511.3,167 512.9,309.9 601.8,337.4 601.4,193.7 	"/>
	<polygon fill="#ECAB60" points="512.9,309.9 522.7,306.3 601.8,330.4 601.8,337.4 	"/>
	<polygon fill="#9E7240" points="522.7,306.3 521.7,170.1 511.3,167 512.9,309.9 	"/>
	<polygon fill="#8E8C8B" points="443,486.4 494.7,504.3 452.7,525.7 	"/>
	<polygon fill="#8E8C8B" points="469.2,555.5 472.5,562.5 579.5,600.2 648,565.3 532.1,525.1 	"/>
	<g>
		<polygon fill="#9E7240" points="490.9,554.7 547.2,574 547.2,621.3 492.4,599.7 		"/>
		<polygon fill="#9E7240" points="547.2,621.3 547.2,630.8 492.7,609.4 492.4,599.7 		"/>
		<polygon fill="#DAD9D9" points="492.7,609.4 493,655.3 496.4,656.5 496.1,610.7 		"/>
		<polygon fill="#8D8E8D" points="496.1,610.7 496.4,656.5 501.7,654 501.6,612.6 		"/>
		<polygon fill="#8D8E8D" points="547.2,630.8 546.5,671.1 552,667.7 553.4,627.7 		"/>
		<polygon fill="#DAD9D9" points="547.2,630.8 542.5,629.2 542,669.5 546.5,671.1 		"/>
		<polygon fill="#8D8E8D" points="552.7,649 574.9,638.5 575,641.2 552.8,651.8 		"/>
		<polygon fill="#DAD9D9" points="574.9,638.5 574.9,635.3 552.8,645.3 552.7,649 		"/>
		<polygon fill="#DAD9D9" points="501.7,634 527.6,623.1 529.6,623.9 501.7,635.7 		"/>
		<polygon fill="#8D8E8D" points="529.6,623.9 532.2,624.9 501.7,638.2 501.7,635.7 		"/>
		<polygon fill="#AB7B47" points="494.1,552.5 490.9,554.7 547.2,574 547.2,630.8 565.2,621.9 553.8,617.7 550.4,619.3 550.9,572.2 
					"/>
		<polygon fill="#9E7240" points="550.4,616.4 553.8,617.7 550.4,619.3 		"/>
	</g>
	<polygon fill="#BB8853" points="494.1,552.5 490.9,554.7 547.2,574 547.2,596.9 550.6,602 550.9,572.2 	"/>
	<polygon fill="#AF7A46" points="490.9,554.7 491.3,569.1 547.2,596.9 547.2,574 	"/>
	<polygon fill="#515251" points="452.7,525.7 494.7,504.3 494.9,509.6 450.7,532.2 	"/>
	<path fill="#9B9A9A" d="M452,531.6l-4.2,8.2c0,0,28.2-16.7,41.6-17.8l6,2.7l-0.5-15.1L452,531.6z"/>
	<path fill="#8C8B8B" d="M450.3,538.4c0,0,2.3,5.9-1.9,11c0,0,32.1-16.5,36.5-17.6l-0.3-9C484.6,522.9,465.8,528.8,450.3,538.4z"/>
	<path fill="#E0E0E0" d="M484.6,522.9c0,0,3.3-0.8,4.7-0.9l0.3,16.4l-4.7-2.9L484.6,522.9z"/>
	<polygon fill="#E8E8E8" points="74.5,451.1 88.5,445.3 87.3,408.8 73.8,414.4 	"/>
	<polygon fill="#EAF5EE" points="87.3,408.8 73.7,400.3 73.8,414.4 	"/>
	<polygon fill="#8D8E8D" points="73.7,400.3 87.3,408.8 88.5,445.3 90.8,444.3 89.1,408.4 73.6,399 	"/>
	<polygon fill="#8D8E8D" points="73.6,399 89.1,408.4 139.7,388 119.5,376.9 73.4,394.8 	"/>
	<polygon fill="#8D8E8D" points="90.8,444.3 140.9,423.4 139.7,388 89.1,408.4 	"/>
	<polygon fill="#EAF5EE" points="73.4,394.8 73.6,399 89.1,408.4 104.5,402.2 84.6,390.5 	"/>
	<polygon fill="#E8E8E8" points="90.8,444.3 105.7,438 104.5,402.2 89.1,408.4 	"/>
	<polygon fill="#EAF5EE" points="86.6,389.7 107.1,401.1 121.5,395.3 101.7,383.8 	"/>
	<polygon fill="#E8E8E8" points="107.1,401.1 108.3,436.9 122.7,430.9 121.5,395.3 	"/>
	<polygon fill="#EAF5EE" points="103.8,383 123.9,394.4 139.7,388 119.5,376.9 	"/>
	<polygon fill="#E8E8E8" points="123.9,394.4 125.1,429.9 140.9,423.4 139.7,388 	"/>
	<polygon fill="#CCCCCC" points="616.5,392.3 616.6,390.1 653.9,402.8 654,405.2 	"/>
	<polygon fill="#8D8E8D" points="653.9,402.8 695.8,380.5 695.9,382.4 654,405.2 	"/>
	<polygon fill="#E3EEE7" points="695.8,380.5 659.8,367.9 616.6,390.1 653.9,402.8 	"/>
	<polygon fill="#E3EEE7" points="676.7,371.6 622.9,386.5 639.4,404.1 692.9,389.5 	"/>
	<polygon fill="#CCCCCC" points="622.9,386.5 623,389 639.4,405.7 639.4,404.1 	"/>
	<polygon fill="#8D8E8D" points="639.4,404.1 639.4,405.7 692.9,391.3 692.9,389.5 	"/>
	<g>
		<g>
			<line fill="none" stroke="#FFFFFF" stroke-width="1.652" stroke-miterlimit="10" x1="846.7" y1="226.2" x2="846.8" y2="228.5"/>
			
				<line fill="none" stroke="#FFFFFF" stroke-width="1.652" stroke-miterlimit="10" stroke-dasharray="5.1093,5.1093" x1="846.9" y1="233.6" x2="848.2" y2="271.9"/>
			<polyline fill="none" stroke="#FFFFFF" stroke-width="1.652" stroke-miterlimit="10" points="848.3,274.5 848.4,276.8 
				850.6,277.5 			"/>
			
				<line fill="none" stroke="#FFFFFF" stroke-width="1.652" stroke-miterlimit="10" stroke-dasharray="4.9358,4.9358" x1="855.4" y1="278.9" x2="909.8" y2="294.9"/>
			<line fill="none" stroke="#FFFFFF" stroke-width="1.652" stroke-miterlimit="10" x1="912.2" y1="295.6" x2="914.4" y2="296.3"/>
			<g>
				<path fill="#FFFFFF" d="M846.4,216.2c-1.6,4.7-4.4,10.7-7.4,14.4l7.8-3.1l7.9,2.6C851.4,226.6,848.2,220.8,846.4,216.2z"/>
			</g>
			<g>
				<path fill="#FFFFFF" d="M924,299.1c-5,0.3-11.4,1.5-15.8,3.5l4.9-6.7l-0.5-8.3C915.2,291.6,920,296.1,924,299.1z"/>
			</g>
		</g>
	</g>
	<g>
		<polygon fill="#DAE4DB" points="822.4,496.3 826.8,497.8 827,503.4 822.6,501.6 		"/>
		<polygon fill="#CBDCC8" points="826.8,497.8 860.5,481.1 860.7,486.7 827,503.4 		"/>
		<polygon fill="#EAF5EE" points="856.8,479.5 854.8,480.4 856.4,481.1 826.7,495.9 824.5,495 822.4,496.3 826.8,497.8 860.5,481.1 
					"/>
		<polygon fill="#CBDCC8" points="854.8,480.4 854.9,481.9 856.4,481.1 		"/>
	</g>
	<g>
		<polygon fill="#DAE4DB" points="820.8,447.8 825.2,449.3 825.3,454.9 821,453.2 		"/>
		<polygon fill="#CBDCC8" points="825.2,449.3 858.8,432.7 859,438.2 825.3,454.9 		"/>
		<polygon fill="#EAF5EE" points="855.2,431.1 853.2,432 854.8,432.7 825.1,447.5 822.9,446.6 820.8,447.8 825.2,449.3 858.8,432.7 
					"/>
		<polygon fill="#CBDCC8" points="853.2,432 853.2,433.4 854.8,432.7 		"/>
	</g>
	<polygon fill="#F5F6F7" points="578.7,252.6 591.2,256.8 594.3,255.6 581.5,251.4 	"/>
	<polygon fill="#8D8E8D" points="591.2,256.8 591.4,261.3 594.5,260 594.3,255.6 	"/>
	<polygon fill="#DAD9D9" points="578.7,252.6 578.7,253.8 590.6,257.8 590.8,261.1 591.4,261.3 591.2,256.8 	"/>
	<polygon id="right_1_" fill="#D4DCCF" points="503.9,704.8 501.7,736.3 1010.2,500 1019.3,162 1000.4,169.9 995.2,449.8 
		972.3,458.8 971.3,468.6 784.1,558.2 785.3,576.7 	"/>
	<polygon id="left_1_" fill="#D4DCCF" points="503.9,704.8 501.7,736.3 5.4,540.3 0,212.1 14.7,218.3 17.6,504.4 30.4,511.7 
		31.2,519.2 	"/>
	<polygon id="left_x5F_top_1_" fill="#EAF5EE" points="0,212.1 490.8,0 490.6,9 14.7,218.3 	"/>
	<polygon id="right_x5F_top_1_" fill="#EAF5EE" points="490.8,0 1019.3,162 1000.4,169.9 490.6,9 	"/>
	<polygon fill="#52B848" points="490.6,9 491,19.4 26.7,223.6 14.7,218.3 	"/>
	<polygon fill="#0D9B49" points="14.7,218.3 26.7,223.6 30.4,511.7 17.6,504.4 	"/>
	<polygon fill="#6FBE45" points="490.6,9 491,19.4 984.9,176.5 1000.4,169.9 	"/>
	<polygon fill="#37B44A" points="984.9,176.5 1000.4,169.9 995.2,449.8 979.6,455.9 	"/>
	<polygon fill="#158141" points="503.7,698.2 503.9,704.8 31.2,519.2 30.4,511.7 	"/>
	<polygon fill="#158141" points="503.7,698.2 784.7,568.2 785.3,576.7 503.9,704.8 	"/>
</g>
</svg>
