<!-- Generator: Adobe Illustrator 18.0.0, SVG Export Plug-In  -->
<svg version="1.1"
	 xmlns="http://www.w3.org/2000/svg" xmlns:xlink="http://www.w3.org/1999/xlink" xmlns:a="http://ns.adobe.com/AdobeSVGViewerExtensions/3.0/"
	 x="0px" y="0px" width="403.9px" height="383.8px" viewBox="0 0 403.9 383.8" enable-background="new 0 0 403.9 383.8"
	 xml:space="preserve">
<defs>
</defs>
<g>
	<g>
		<polygon opacity="0.8" fill="#033A22" points="0.3,167.5 80.4,129.4 53.4,167.5 		"/>
		<g>
			<polyline fill="#048450" points="321.2,383.4 321.2,335.1 381.1,335.1 381.1,167.1 0,167.1 0,383.8 			"/>
			<polygon fill="#D6D6D6" points="321.2,383.3 381.1,335.1 321.2,335.1 			"/>
			<polygon opacity="0.8" fill="#033A22" points="321.2,383.3 281.4,383.3 321.2,354.8 			"/>
			<g>
				<path fill="#FFFFFF" d="M23.6,207.1h-1.8v-11.4h6.4v1.6h-4.6v3.6h4.3v1.6h-4.3V207.1z"/>
				<path fill="#FFFFFF" d="M35,207.2c-1.3,0-2.4-0.4-3.1-1.2c-0.8-0.8-1.1-1.9-1.1-3.2c0-1.4,0.4-2.5,1.1-3.3
					c0.7-0.8,1.7-1.2,2.9-1.2c1.1,0,2,0.3,2.7,1c0.7,0.7,1,1.6,1,2.9v1h-5.7c0,0.8,0.3,1.5,0.7,1.9c0.4,0.4,1,0.7,1.8,0.7
					c0.5,0,1,0,1.4-0.1s0.9-0.3,1.4-0.5v1.5c-0.4,0.2-0.9,0.4-1.4,0.5S35.6,207.2,35,207.2z M34.7,199.7c-0.6,0-1,0.2-1.4,0.6
					s-0.6,0.9-0.6,1.6h3.9c0-0.7-0.2-1.3-0.5-1.6C35.7,199.8,35.3,199.7,34.7,199.7z"/>
				<path fill="#FFFFFF" d="M44.5,207.2c-1.1,0-1.9-0.4-2.5-1.2s-0.9-1.9-0.9-3.3c0-1.4,0.3-2.5,0.9-3.3c0.6-0.8,1.5-1.2,2.5-1.2
					c1.1,0,2,0.4,2.6,1.3h0.1c-0.1-0.6-0.1-1.1-0.1-1.5v-3.1H49v12.1h-1.4l-0.3-1.1h-0.1C46.5,206.8,45.7,207.2,44.5,207.2z
					 M45,205.7c0.8,0,1.3-0.2,1.6-0.6c0.3-0.4,0.5-1.1,0.5-2.1v-0.3c0-1.1-0.2-1.9-0.5-2.3c-0.4-0.5-0.9-0.7-1.7-0.7
					c-0.6,0-1.1,0.3-1.5,0.8c-0.3,0.5-0.5,1.3-0.5,2.2c0,1,0.2,1.7,0.5,2.2S44.4,205.7,45,205.7z"/>
				<path fill="#FFFFFF" d="M64.9,204c0,1-0.4,1.8-1.1,2.4c-0.7,0.6-1.7,0.9-3,0.9c-1.3,0-2.3-0.2-3.2-0.6v-1.8
					c0.5,0.2,1.1,0.4,1.7,0.6c0.6,0.1,1.1,0.2,1.6,0.2c0.7,0,1.3-0.1,1.6-0.4s0.5-0.7,0.5-1.1c0-0.4-0.2-0.8-0.5-1.1
					c-0.3-0.3-1-0.6-2-1.1c-1-0.4-1.8-0.9-2.2-1.4c-0.4-0.5-0.6-1.2-0.6-1.9c0-1,0.3-1.7,1-2.2c0.7-0.5,1.6-0.8,2.7-0.8
					c1.1,0,2.2,0.2,3.3,0.7l-0.6,1.5c-1-0.4-1.9-0.6-2.7-0.6c-0.6,0-1.1,0.1-1.4,0.4c-0.3,0.3-0.5,0.6-0.5,1c0,0.3,0.1,0.5,0.2,0.8
					s0.3,0.4,0.6,0.6c0.3,0.2,0.8,0.4,1.5,0.7c0.8,0.3,1.4,0.7,1.8,1c0.4,0.3,0.7,0.6,0.9,1C64.8,203,64.9,203.4,64.9,204z"/>
				<path fill="#FFFFFF" d="M71,207.2c-1.1,0-1.9-0.4-2.5-1.2s-0.9-1.9-0.9-3.3c0-1.4,0.3-2.5,0.9-3.3c0.6-0.8,1.5-1.2,2.5-1.2
					c0.5,0,1,0.1,1.5,0.3s0.8,0.5,1.2,1h0.1l0.2-1.1h1.5v12.5h-1.8v-3.7c0-0.2,0-0.5,0-0.7c0-0.3,0-0.4,0.1-0.6h-0.1
					C73,206.8,72.2,207.2,71,207.2z M71.5,205.7c0.8,0,1.3-0.2,1.7-0.7c0.3-0.4,0.5-1.1,0.5-2v-0.3c0-1.1-0.2-1.8-0.5-2.3
					c-0.3-0.5-0.9-0.7-1.7-0.7c-0.7,0-1.2,0.3-1.5,0.8c-0.3,0.5-0.5,1.3-0.5,2.2C69.5,204.8,70.2,205.7,71.5,205.7z"/>
				<path fill="#FFFFFF" d="M85.3,207.1l-0.3-1.1H85c-0.3,0.4-0.6,0.7-1.1,0.9c-0.5,0.2-1,0.3-1.6,0.3c-1,0-1.8-0.3-2.3-0.8
					s-0.8-1.3-0.8-2.4v-5.6H81v5.3c0,0.7,0.1,1.2,0.4,1.5c0.3,0.3,0.7,0.5,1.3,0.5c0.8,0,1.3-0.2,1.7-0.7c0.4-0.5,0.5-1.2,0.5-2.3
					v-4.3h1.8v8.6H85.3z"/>
				<path fill="#FFFFFF" d="M96,207.1l-0.4-1.2h-0.1c-0.4,0.5-0.8,0.9-1.3,1.1c-0.4,0.2-1,0.3-1.6,0.3c-0.8,0-1.5-0.2-2-0.7
					c-0.5-0.5-0.7-1.1-0.7-1.9c0-0.9,0.3-1.6,1-2c0.7-0.5,1.7-0.7,3-0.7l1.5,0v-0.5c0-0.6-0.1-1-0.4-1.2c-0.3-0.3-0.7-0.4-1.2-0.4
					c-0.4,0-0.9,0.1-1.3,0.2s-0.8,0.3-1.2,0.5l-0.6-1.3c0.5-0.2,1-0.4,1.5-0.6c0.6-0.1,1.1-0.2,1.6-0.2c1.1,0,1.9,0.2,2.5,0.7
					s0.8,1.2,0.8,2.3v5.8H96z M93.2,205.8c0.7,0,1.2-0.2,1.6-0.6c0.4-0.4,0.6-0.9,0.6-1.6v-0.7l-1.1,0c-0.9,0-1.5,0.2-1.9,0.4
					c-0.4,0.3-0.6,0.7-0.6,1.2c0,0.4,0.1,0.7,0.3,0.9S92.8,205.8,93.2,205.8z"/>
				<path fill="#FFFFFF" d="M105.4,198.3c0.4,0,0.7,0,0.9,0.1l-0.2,1.7c-0.3-0.1-0.5-0.1-0.8-0.1c-0.7,0-1.3,0.2-1.8,0.7
					c-0.5,0.5-0.7,1.1-0.7,1.9v4.5H101v-8.6h1.4l0.2,1.5h0.1c0.3-0.5,0.7-0.9,1.1-1.2S104.9,198.3,105.4,198.3z"/>
				<path fill="#FFFFFF" d="M112.9,207.2c-1.3,0-2.4-0.4-3.1-1.2c-0.8-0.8-1.1-1.9-1.1-3.2c0-1.4,0.4-2.5,1.1-3.3
					c0.7-0.8,1.7-1.2,2.9-1.2c1.1,0,2,0.3,2.7,1c0.7,0.7,1,1.6,1,2.9v1h-5.7c0,0.8,0.3,1.5,0.7,1.9c0.4,0.4,1,0.7,1.8,0.7
					c0.5,0,1,0,1.4-0.1s0.9-0.3,1.4-0.5v1.5c-0.4,0.2-0.9,0.4-1.4,0.5S113.5,207.2,112.9,207.2z M112.5,199.7c-0.6,0-1,0.2-1.4,0.6
					s-0.6,0.9-0.6,1.6h3.9c0-0.7-0.2-1.3-0.5-1.6C113.6,199.8,113.1,199.7,112.5,199.7z"/>
				<path fill="#FFFFFF" d="M124.7,196.1c0-0.3,0.1-0.6,0.3-0.8c0.2-0.2,0.4-0.3,0.8-0.3c0.3,0,0.6,0.1,0.8,0.3
					c0.2,0.2,0.3,0.4,0.3,0.8c0,0.3-0.1,0.6-0.3,0.7c-0.2,0.2-0.4,0.3-0.8,0.3c-0.3,0-0.6-0.1-0.8-0.3
					C124.8,196.7,124.7,196.5,124.7,196.1z M126.7,207.1h-1.8v-8.6h1.8V207.1z"/>
				<path fill="#FFFFFF" d="M136.3,204.6c0,0.8-0.3,1.5-0.9,1.9c-0.6,0.4-1.5,0.7-2.6,0.7c-1.1,0-2.1-0.2-2.8-0.5v-1.6
					c1,0.5,2,0.7,2.8,0.7c1.1,0,1.7-0.3,1.7-1c0-0.2-0.1-0.4-0.2-0.5c-0.1-0.1-0.3-0.3-0.6-0.5c-0.3-0.2-0.7-0.3-1.2-0.5
					c-1-0.4-1.7-0.8-2-1.2c-0.4-0.4-0.5-0.9-0.5-1.5c0-0.7,0.3-1.3,0.9-1.7c0.6-0.4,1.4-0.6,2.4-0.6c1,0,2,0.2,2.9,0.6l-0.6,1.4
					c-0.9-0.4-1.7-0.6-2.3-0.6c-1,0-1.4,0.3-1.4,0.8c0,0.3,0.1,0.5,0.4,0.7s0.8,0.4,1.6,0.8c0.7,0.3,1.2,0.5,1.6,0.8
					s0.6,0.5,0.7,0.8C136.2,203.8,136.3,204.2,136.3,204.6z"/>
				<path fill="#FFFFFF" d="M152.4,207.1h-1.8v-5.3c0-0.7-0.1-1.2-0.4-1.5c-0.3-0.3-0.7-0.5-1.3-0.5c-0.8,0-1.3,0.2-1.7,0.7
					s-0.5,1.2-0.5,2.3v4.3h-1.8v-12.1h1.8v3.1c0,0.5,0,1-0.1,1.6h0.1c0.2-0.4,0.6-0.7,1-1c0.4-0.2,1-0.3,1.6-0.3
					c2.1,0,3.1,1.1,3.1,3.2V207.1z"/>
				<path fill="#FFFFFF" d="M163.8,202.7c0,1.4-0.4,2.5-1.1,3.3c-0.7,0.8-1.7,1.2-3,1.2c-0.8,0-1.5-0.2-2.1-0.5
					c-0.6-0.4-1.1-0.9-1.4-1.6c-0.3-0.7-0.5-1.5-0.5-2.4c0-1.4,0.4-2.5,1.1-3.3c0.7-0.8,1.7-1.2,3-1.2c1.2,0,2.2,0.4,3,1.2
					C163.4,200.3,163.8,201.4,163.8,202.7z M157.5,202.7c0,2,0.7,3,2.2,3c1.5,0,2.2-1,2.2-3c0-2-0.7-3-2.2-3c-0.8,0-1.3,0.3-1.7,0.8
					C157.7,201,157.5,201.8,157.5,202.7z"/>
				<path fill="#FFFFFF" d="M172.9,204.6c0,0.8-0.3,1.5-0.9,1.9c-0.6,0.4-1.5,0.7-2.6,0.7c-1.1,0-2.1-0.2-2.8-0.5v-1.6
					c1,0.5,2,0.7,2.8,0.7c1.1,0,1.7-0.3,1.7-1c0-0.2-0.1-0.4-0.2-0.5c-0.1-0.1-0.3-0.3-0.6-0.5c-0.3-0.2-0.7-0.3-1.2-0.5
					c-1-0.4-1.7-0.8-2-1.2c-0.4-0.4-0.5-0.9-0.5-1.5c0-0.7,0.3-1.3,0.9-1.7c0.6-0.4,1.4-0.6,2.4-0.6c1,0,2,0.2,2.9,0.6l-0.6,1.4
					c-0.9-0.4-1.7-0.6-2.3-0.6c-1,0-1.4,0.3-1.4,0.8c0,0.3,0.1,0.5,0.4,0.7s0.8,0.4,1.6,0.8c0.7,0.3,1.2,0.5,1.6,0.8
					s0.6,0.5,0.7,0.8C172.8,203.8,172.9,204.2,172.9,204.6z"/>
				<path fill="#FFFFFF" d="M179.3,205.7c0.4,0,0.9-0.1,1.3-0.2v1.4c-0.2,0.1-0.5,0.2-0.8,0.2c-0.3,0.1-0.7,0.1-1,0.1
					c-1.7,0-2.6-0.9-2.6-2.7v-4.6H175V199l1.3-0.7l0.6-1.8h1.1v1.9h2.5v1.4h-2.5v4.6c0,0.4,0.1,0.8,0.3,1S178.9,205.7,179.3,205.7z"
					/>
				<path fill="#FFFFFF" d="M192.1,205.7c0.4,0,0.9-0.1,1.3-0.2v1.4c-0.2,0.1-0.5,0.2-0.8,0.2c-0.3,0.1-0.7,0.1-1,0.1
					c-1.7,0-2.6-0.9-2.6-2.7v-4.6h-1.2V199l1.3-0.7l0.6-1.8h1.1v1.9h2.5v1.4h-2.5v4.6c0,0.4,0.1,0.8,0.3,1S191.7,205.7,192.1,205.7z
					"/>
				<path fill="#FFFFFF" d="M204,202.7c0,1.4-0.4,2.5-1.1,3.3c-0.7,0.8-1.7,1.2-3,1.2c-0.8,0-1.5-0.2-2.1-0.5
					c-0.6-0.4-1.1-0.9-1.4-1.6c-0.3-0.7-0.5-1.5-0.5-2.4c0-1.4,0.4-2.5,1.1-3.3c0.7-0.8,1.7-1.2,3-1.2c1.2,0,2.2,0.4,3,1.2
					C203.6,200.3,204,201.4,204,202.7z M197.7,202.7c0,2,0.7,3,2.2,3c1.5,0,2.2-1,2.2-3c0-2-0.7-3-2.2-3c-0.8,0-1.3,0.3-1.7,0.8
					C197.9,201,197.7,201.8,197.7,202.7z"/>
				<path fill="#FFFFFF" d="M218,207.1l-0.4-1.2h-0.1c-0.4,0.5-0.8,0.9-1.3,1.1c-0.4,0.2-1,0.3-1.6,0.3c-0.8,0-1.5-0.2-2-0.7
					c-0.5-0.5-0.7-1.1-0.7-1.9c0-0.9,0.3-1.6,1-2c0.7-0.5,1.7-0.7,3-0.7l1.5,0v-0.5c0-0.6-0.1-1-0.4-1.2c-0.3-0.3-0.7-0.4-1.2-0.4
					c-0.4,0-0.9,0.1-1.3,0.2s-0.8,0.3-1.2,0.5l-0.6-1.3c0.5-0.2,1-0.4,1.5-0.6c0.6-0.1,1.1-0.2,1.6-0.2c1.1,0,1.9,0.2,2.5,0.7
					s0.8,1.2,0.8,2.3v5.8H218z M215.3,205.8c0.7,0,1.2-0.2,1.6-0.6c0.4-0.4,0.6-0.9,0.6-1.6v-0.7l-1.1,0c-0.9,0-1.5,0.2-1.9,0.4
					c-0.4,0.3-0.6,0.7-0.6,1.2c0,0.4,0.1,0.7,0.3,0.9S214.8,205.8,215.3,205.8z"/>
				<path fill="#FFFFFF" d="M235.5,207.1l-1.1-4c-0.1-0.4-0.4-1.4-0.7-3h-0.1c-0.3,1.4-0.5,2.4-0.7,3l-1.1,4h-2l-2.4-8.6h1.9
					l1.1,4.2c0.2,1,0.4,1.9,0.5,2.7h0c0.1-0.4,0.1-0.8,0.2-1.3c0.1-0.5,0.2-0.9,0.3-1.1l1.3-4.5h2l1.3,4.5c0.1,0.3,0.2,0.6,0.3,1.2
					s0.2,0.9,0.2,1.2h0.1c0.1-0.6,0.3-1.5,0.5-2.7l1.1-4.2h1.8l-2.4,8.6H235.5z"/>
				<path fill="#FFFFFF" d="M242.6,196.1c0-0.3,0.1-0.6,0.3-0.8c0.2-0.2,0.4-0.3,0.8-0.3c0.3,0,0.6,0.1,0.8,0.3
					c0.2,0.2,0.3,0.4,0.3,0.8c0,0.3-0.1,0.6-0.3,0.7c-0.2,0.2-0.4,0.3-0.8,0.3c-0.3,0-0.6-0.1-0.8-0.3
					C242.6,196.7,242.6,196.5,242.6,196.1z M244.5,207.1h-1.8v-8.6h1.8V207.1z"/>
				<path fill="#FFFFFF" d="M251.2,207.2c-1.1,0-1.9-0.4-2.5-1.2s-0.9-1.9-0.9-3.3c0-1.4,0.3-2.5,0.9-3.3c0.6-0.8,1.5-1.2,2.5-1.2
					c1.1,0,2,0.4,2.6,1.3h0.1c-0.1-0.6-0.1-1.1-0.1-1.5v-3.1h1.8v12.1h-1.4l-0.3-1.1h-0.1C253.2,206.8,252.4,207.2,251.2,207.2z
					 M251.7,205.7c0.8,0,1.3-0.2,1.6-0.6c0.3-0.4,0.5-1.1,0.5-2.1v-0.3c0-1.1-0.2-1.9-0.5-2.3c-0.4-0.5-0.9-0.7-1.7-0.7
					c-0.6,0-1.1,0.3-1.5,0.8c-0.3,0.5-0.5,1.3-0.5,2.2c0,1,0.2,1.7,0.5,2.2S251,205.7,251.7,205.7z"/>
				<path fill="#FFFFFF" d="M263.2,207.2c-1.3,0-2.4-0.4-3.1-1.2c-0.8-0.8-1.1-1.9-1.1-3.2c0-1.4,0.4-2.5,1.1-3.3
					c0.7-0.8,1.7-1.2,2.9-1.2c1.1,0,2,0.3,2.7,1c0.7,0.7,1,1.6,1,2.9v1h-5.7c0,0.8,0.3,1.5,0.7,1.9c0.4,0.4,1,0.7,1.8,0.7
					c0.5,0,1,0,1.4-0.1s0.9-0.3,1.4-0.5v1.5c-0.4,0.2-0.9,0.4-1.4,0.5S263.8,207.2,263.2,207.2z M262.9,199.7c-0.6,0-1,0.2-1.4,0.6
					s-0.6,0.9-0.6,1.6h3.9c0-0.7-0.2-1.3-0.5-1.6C263.9,199.8,263.5,199.7,262.9,199.7z"/>
				<path fill="#FFFFFF" d="M280.6,207.1l-0.4-1.2h-0.1c-0.4,0.5-0.8,0.9-1.3,1.1c-0.4,0.2-1,0.3-1.6,0.3c-0.8,0-1.5-0.2-2-0.7
					c-0.5-0.5-0.7-1.1-0.7-1.9c0-0.9,0.3-1.6,1-2c0.7-0.5,1.7-0.7,3-0.7l1.5,0v-0.5c0-0.6-0.1-1-0.4-1.2c-0.3-0.3-0.7-0.4-1.2-0.4
					c-0.4,0-0.9,0.1-1.3,0.2s-0.8,0.3-1.2,0.5l-0.6-1.3c0.5-0.2,1-0.4,1.5-0.6c0.6-0.1,1.1-0.2,1.6-0.2c1.1,0,1.9,0.2,2.5,0.7
					s0.8,1.2,0.8,2.3v5.8H280.6z M277.9,205.8c0.7,0,1.2-0.2,1.6-0.6c0.4-0.4,0.6-0.9,0.6-1.6v-0.7l-1.1,0c-0.9,0-1.5,0.2-1.9,0.4
					c-0.4,0.3-0.6,0.7-0.6,1.2c0,0.4,0.1,0.7,0.3,0.9S277.4,205.8,277.9,205.8z"/>
				<path fill="#FFFFFF" d="M290,198.3c0.4,0,0.7,0,0.9,0.1l-0.2,1.7c-0.3-0.1-0.5-0.1-0.8-0.1c-0.7,0-1.3,0.2-1.8,0.7
					c-0.5,0.5-0.7,1.1-0.7,1.9v4.5h-1.8v-8.6h1.4l0.2,1.5h0.1c0.3-0.5,0.7-0.9,1.1-1.2S289.5,198.3,290,198.3z"/>
				<path fill="#FFFFFF" d="M298.1,198.3c0.4,0,0.7,0,0.9,0.1l-0.2,1.7c-0.3-0.1-0.5-0.1-0.8-0.1c-0.7,0-1.3,0.2-1.8,0.7
					c-0.5,0.5-0.7,1.1-0.7,1.9v4.5h-1.8v-8.6h1.4l0.2,1.5h0.1c0.3-0.5,0.7-0.9,1.1-1.2S297.6,198.3,298.1,198.3z"/>
				<path fill="#FFFFFF" d="M307.2,207.1l-0.4-1.2h-0.1c-0.4,0.5-0.8,0.9-1.3,1.1c-0.4,0.2-1,0.3-1.6,0.3c-0.8,0-1.5-0.2-2-0.7
					c-0.5-0.5-0.7-1.1-0.7-1.9c0-0.9,0.3-1.6,1-2c0.7-0.5,1.7-0.7,3-0.7l1.5,0v-0.5c0-0.6-0.1-1-0.4-1.2c-0.3-0.3-0.7-0.4-1.2-0.4
					c-0.4,0-0.9,0.1-1.3,0.2s-0.8,0.3-1.2,0.5l-0.6-1.3c0.5-0.2,1-0.4,1.5-0.6c0.6-0.1,1.1-0.2,1.6-0.2c1.1,0,1.9,0.2,2.5,0.7
					s0.8,1.2,0.8,2.3v5.8H307.2z M304.5,205.8c0.7,0,1.2-0.2,1.6-0.6c0.4-0.4,0.6-0.9,0.6-1.6v-0.7l-1.1,0c-0.9,0-1.5,0.2-1.9,0.4
					c-0.4,0.3-0.6,0.7-0.6,1.2c0,0.4,0.1,0.7,0.3,0.9S304,205.8,304.5,205.8z"/>
				<path fill="#FFFFFF" d="M311,198.4h2l1.8,4.9c0.3,0.7,0.4,1.4,0.5,2h0.1c0-0.3,0.1-0.6,0.3-1c0.1-0.4,0.8-2.3,2-5.8h2l-3.7,9.8
					c-0.7,1.8-1.8,2.7-3.4,2.7c-0.4,0-0.8,0-1.2-0.1v-1.4c0.3,0.1,0.6,0.1,0.9,0.1c0.9,0,1.5-0.5,1.9-1.5l0.3-0.8L311,198.4z"/>
				<path fill="#FFFFFF" d="M335,202.7c0,1.4-0.4,2.5-1.1,3.3c-0.7,0.8-1.7,1.2-3,1.2c-0.8,0-1.5-0.2-2.1-0.5
					c-0.6-0.4-1.1-0.9-1.4-1.6c-0.3-0.7-0.5-1.5-0.5-2.4c0-1.4,0.4-2.5,1.1-3.3c0.7-0.8,1.7-1.2,3-1.2c1.2,0,2.2,0.4,3,1.2
					C334.6,200.3,335,201.4,335,202.7z M328.7,202.7c0,2,0.7,3,2.2,3c1.5,0,2.2-1,2.2-3c0-2-0.7-3-2.2-3c-0.8,0-1.3,0.3-1.7,0.8
					C328.9,201,328.7,201.8,328.7,202.7z"/>
				<path fill="#FFFFFF" d="M342.6,199.8h-2.1v7.2h-1.8v-7.2h-1.4V199l1.4-0.6v-0.6c0-1,0.2-1.8,0.7-2.3c0.5-0.5,1.2-0.7,2.2-0.7
					c0.6,0,1.3,0.1,1.9,0.3l-0.5,1.4c-0.5-0.1-0.9-0.2-1.3-0.2c-0.4,0-0.7,0.1-0.9,0.4s-0.3,0.6-0.3,1.2v0.6h2.1V199.8z"/>
				<path fill="#FFFFFF" d="M25,226.4c-1.3,0-2.3-0.4-3-1.1c-0.7-0.8-1-1.9-1-3.3c0-1.5,0.4-2.6,1.1-3.3c0.7-0.8,1.7-1.2,3.1-1.2
					c0.9,0,1.7,0.2,2.5,0.5l-0.6,1.5c-0.8-0.3-1.4-0.5-1.9-0.5c-1.5,0-2.2,1-2.2,3c0,1,0.2,1.7,0.6,2.2c0.4,0.5,0.9,0.7,1.6,0.7
					c0.8,0,1.6-0.2,2.3-0.6v1.6c-0.3,0.2-0.7,0.3-1,0.4C26,226.3,25.6,226.4,25,226.4z"/>
				<path fill="#FFFFFF" d="M36.7,226.2l-0.3-1.1h-0.1c-0.3,0.4-0.6,0.7-1.1,0.9c-0.5,0.2-1,0.3-1.6,0.3c-1,0-1.8-0.3-2.3-0.8
					s-0.8-1.3-0.8-2.4v-5.6h1.8v5.3c0,0.7,0.1,1.2,0.4,1.5c0.3,0.3,0.7,0.5,1.3,0.5c0.8,0,1.3-0.2,1.7-0.7c0.4-0.5,0.5-1.2,0.5-2.3
					v-4.3h1.8v8.6H36.7z"/>
				<path fill="#FFFFFF" d="M43.8,226.2H42v-12.1h1.8V226.2z"/>
				<path fill="#FFFFFF" d="M50.8,224.9c0.4,0,0.9-0.1,1.3-0.2v1.4c-0.2,0.1-0.5,0.2-0.8,0.2c-0.3,0.1-0.7,0.1-1,0.1
					c-1.7,0-2.6-0.9-2.6-2.7V219h-1.2v-0.8l1.3-0.7l0.6-1.8h1.1v1.9h2.5v1.4h-2.5v4.6c0,0.4,0.1,0.8,0.3,1S50.5,224.9,50.8,224.9z"
					/>
				<path fill="#FFFFFF" d="M61.2,226.2l-0.3-1.1h-0.1c-0.3,0.4-0.6,0.7-1.1,0.9c-0.5,0.2-1,0.3-1.6,0.3c-1,0-1.8-0.3-2.3-0.8
					s-0.8-1.3-0.8-2.4v-5.6h1.8v5.3c0,0.7,0.1,1.2,0.4,1.5c0.3,0.3,0.7,0.5,1.3,0.5c0.8,0,1.3-0.2,1.7-0.7c0.4-0.5,0.5-1.2,0.5-2.3
					v-4.3h1.8v8.6H61.2z"/>
				<path fill="#FFFFFF" d="M70.8,217.4c0.4,0,0.7,0,0.9,0.1l-0.2,1.7c-0.3-0.1-0.5-0.1-0.8-0.1c-0.7,0-1.3,0.2-1.8,0.7
					c-0.5,0.5-0.7,1.1-0.7,1.9v4.5h-1.8v-8.6h1.4l0.2,1.5h0.1c0.3-0.5,0.7-0.9,1.1-1.2S70.3,217.4,70.8,217.4z"/>
				<path fill="#FFFFFF" d="M79.9,226.2l-0.4-1.2h-0.1c-0.4,0.5-0.8,0.9-1.3,1.1c-0.4,0.2-1,0.3-1.6,0.3c-0.8,0-1.5-0.2-2-0.7
					c-0.5-0.5-0.7-1.1-0.7-1.9c0-0.9,0.3-1.6,1-2c0.7-0.5,1.7-0.7,3-0.7l1.5,0v-0.5c0-0.6-0.1-1-0.4-1.2c-0.3-0.3-0.7-0.4-1.2-0.4
					c-0.4,0-0.9,0.1-1.3,0.2s-0.8,0.3-1.2,0.5l-0.6-1.3c0.5-0.2,1-0.4,1.5-0.6c0.6-0.1,1.1-0.2,1.6-0.2c1.1,0,1.9,0.2,2.5,0.7
					s0.8,1.2,0.8,2.3v5.8H79.9z M77.2,225c0.7,0,1.2-0.2,1.6-0.6c0.4-0.4,0.6-0.9,0.6-1.6v-0.7l-1.1,0c-0.9,0-1.5,0.2-1.9,0.4
					c-0.4,0.3-0.6,0.7-0.6,1.2c0,0.4,0.1,0.7,0.3,0.9S76.7,225,77.2,225z"/>
				<path fill="#FFFFFF" d="M86.8,226.2H85v-12.1h1.8V226.2z"/>
				<path fill="#FFFFFF" d="M99.7,226.4c-1.3,0-2.4-0.4-3.1-1.2c-0.8-0.8-1.1-1.9-1.1-3.2c0-1.4,0.4-2.5,1.1-3.3
					c0.7-0.8,1.7-1.2,2.9-1.2c1.1,0,2,0.3,2.7,1c0.7,0.7,1,1.6,1,2.9v1h-5.7c0,0.8,0.3,1.5,0.7,1.9c0.4,0.4,1,0.7,1.8,0.7
					c0.5,0,1,0,1.4-0.1s0.9-0.3,1.4-0.5v1.5c-0.4,0.2-0.9,0.4-1.4,0.5S100.3,226.4,99.7,226.4z M99.4,218.8c-0.6,0-1,0.2-1.4,0.6
					s-0.6,0.9-0.6,1.6h3.9c0-0.7-0.2-1.3-0.5-1.6C100.4,219,100,218.8,99.4,218.8z"/>
				<path fill="#FFFFFF" d="M108.3,226.2l-3.3-8.6h1.9l1.8,5c0.3,0.8,0.5,1.5,0.5,2h0.1c0-0.4,0.2-1.1,0.5-2l1.8-5h1.9l-3.3,8.6
					H108.3z"/>
				<path fill="#FFFFFF" d="M119.9,226.4c-1.3,0-2.4-0.4-3.1-1.2c-0.8-0.8-1.1-1.9-1.1-3.2c0-1.4,0.4-2.5,1.1-3.3
					c0.7-0.8,1.7-1.2,2.9-1.2c1.1,0,2,0.3,2.7,1c0.7,0.7,1,1.6,1,2.9v1h-5.7c0,0.8,0.3,1.5,0.7,1.9c0.4,0.4,1,0.7,1.8,0.7
					c0.5,0,1,0,1.4-0.1s0.9-0.3,1.4-0.5v1.5c-0.4,0.2-0.9,0.4-1.4,0.5S120.4,226.4,119.9,226.4z M119.5,218.8c-0.6,0-1,0.2-1.4,0.6
					s-0.6,0.9-0.6,1.6h3.9c0-0.7-0.2-1.3-0.5-1.6C120.6,219,120.1,218.8,119.5,218.8z"/>
				<path fill="#FFFFFF" d="M134.1,226.2h-1.8v-5.3c0-0.7-0.1-1.2-0.4-1.5c-0.3-0.3-0.7-0.5-1.3-0.5c-0.8,0-1.3,0.2-1.7,0.7
					c-0.4,0.5-0.5,1.2-0.5,2.3v4.3h-1.8v-8.6h1.4l0.3,1.1h0.1c0.3-0.4,0.6-0.7,1.1-1c0.5-0.2,1-0.3,1.6-0.3c2.1,0,3.1,1.1,3.1,3.2
					V226.2z"/>
				<path fill="#FFFFFF" d="M141,224.9c0.4,0,0.9-0.1,1.3-0.2v1.4c-0.2,0.1-0.5,0.2-0.8,0.2c-0.3,0.1-0.7,0.1-1,0.1
					c-1.7,0-2.6-0.9-2.6-2.7V219h-1.2v-0.8l1.3-0.7l0.6-1.8h1.1v1.9h2.5v1.4h-2.5v4.6c0,0.4,0.1,0.8,0.3,1S140.7,224.9,141,224.9z"
					/>
				<path fill="#FFFFFF" d="M151.1,223.8c0,0.8-0.3,1.5-0.9,1.9c-0.6,0.4-1.5,0.7-2.6,0.7c-1.1,0-2.1-0.2-2.8-0.5v-1.6
					c1,0.5,2,0.7,2.8,0.7c1.1,0,1.7-0.3,1.7-1c0-0.2-0.1-0.4-0.2-0.5c-0.1-0.1-0.3-0.3-0.6-0.5c-0.3-0.2-0.7-0.3-1.2-0.5
					c-1-0.4-1.7-0.8-2-1.2c-0.4-0.4-0.5-0.9-0.5-1.5c0-0.7,0.3-1.3,0.9-1.7c0.6-0.4,1.4-0.6,2.4-0.6c1,0,2,0.2,2.9,0.6l-0.6,1.4
					c-0.9-0.4-1.7-0.6-2.3-0.6c-1,0-1.4,0.3-1.4,0.8c0,0.3,0.1,0.5,0.4,0.7s0.8,0.4,1.6,0.8c0.7,0.3,1.2,0.5,1.6,0.8
					s0.6,0.5,0.7,0.8C151,223,151.1,223.3,151.1,223.8z"/>
				<path fill="#FFFFFF" d="M156.2,224.5c-0.2,1-0.7,2.2-1.4,3.7h-1.3c0.4-1.4,0.6-2.7,0.8-3.9h1.8L156.2,224.5z"/>
				<path fill="#FFFFFF" d="M168.8,226.4c-1.3,0-2.4-0.4-3.1-1.2c-0.8-0.8-1.1-1.9-1.1-3.2c0-1.4,0.4-2.5,1.1-3.3
					c0.7-0.8,1.7-1.2,2.9-1.2c1.1,0,2,0.3,2.7,1c0.7,0.7,1,1.6,1,2.9v1h-5.7c0,0.8,0.3,1.5,0.7,1.9c0.4,0.4,1,0.7,1.8,0.7
					c0.5,0,1,0,1.4-0.1s0.9-0.3,1.4-0.5v1.5c-0.4,0.2-0.9,0.4-1.4,0.5S169.4,226.4,168.8,226.4z M168.5,218.8c-0.6,0-1,0.2-1.4,0.6
					s-0.6,0.9-0.6,1.6h3.9c0-0.7-0.2-1.3-0.5-1.6C169.5,219,169.1,218.8,168.5,218.8z"/>
				<path fill="#FFFFFF" d="M177.4,221.8l-2.9-4.2h2.1l2,3l2-3h2.1l-2.9,4.2l3,4.4h-2.1l-2.1-3.2l-2.1,3.2h-2.1L177.4,221.8z"/>
				<path fill="#FFFFFF" d="M193,226.2h-1.8v-5.3c0-0.7-0.1-1.2-0.4-1.5c-0.3-0.3-0.7-0.5-1.3-0.5c-0.8,0-1.3,0.2-1.7,0.7
					s-0.5,1.2-0.5,2.3v4.3h-1.8v-12.1h1.8v3.1c0,0.5,0,1-0.1,1.6h0.1c0.2-0.4,0.6-0.7,1-1c0.4-0.2,1-0.3,1.6-0.3
					c2.1,0,3.1,1.1,3.1,3.2V226.2z"/>
				<path fill="#FFFFFF" d="M196.7,215.3c0-0.3,0.1-0.6,0.3-0.8c0.2-0.2,0.4-0.3,0.8-0.3c0.3,0,0.6,0.1,0.8,0.3
					c0.2,0.2,0.3,0.4,0.3,0.8c0,0.3-0.1,0.6-0.3,0.7c-0.2,0.2-0.4,0.3-0.8,0.3c-0.3,0-0.6-0.1-0.8-0.3
					C196.8,215.9,196.7,215.6,196.7,215.3z M198.6,226.2h-1.8v-8.6h1.8V226.2z"/>
				<path fill="#FFFFFF" d="M206.8,217.4c1.1,0,1.9,0.4,2.5,1.2c0.6,0.8,0.9,1.9,0.9,3.3c0,1.4-0.3,2.5-0.9,3.3
					c-0.6,0.8-1.5,1.2-2.5,1.2c-1.1,0-1.9-0.4-2.5-1.2h-0.1l-0.3,1h-1.4v-12.1h1.8v2.9c0,0.2,0,0.5,0,1c0,0.4,0,0.7,0,0.8h0.1
					C204.8,217.9,205.7,217.4,206.8,217.4z M206.3,218.9c-0.7,0-1.3,0.2-1.6,0.7c-0.3,0.4-0.5,1.2-0.5,2.2v0.1c0,1,0.2,1.8,0.5,2.3
					c0.3,0.5,0.9,0.7,1.6,0.7c0.6,0,1.1-0.3,1.5-0.8c0.3-0.5,0.5-1.3,0.5-2.2C208.4,219.9,207.7,218.9,206.3,218.9z"/>
				<path fill="#FFFFFF" d="M213.5,215.3c0-0.3,0.1-0.6,0.3-0.8c0.2-0.2,0.4-0.3,0.8-0.3c0.3,0,0.6,0.1,0.8,0.3
					c0.2,0.2,0.3,0.4,0.3,0.8c0,0.3-0.1,0.6-0.3,0.7c-0.2,0.2-0.4,0.3-0.8,0.3c-0.3,0-0.6-0.1-0.8-0.3
					C213.5,215.9,213.5,215.6,213.5,215.3z M215.4,226.2h-1.8v-8.6h1.8V226.2z"/>
				<path fill="#FFFFFF" d="M222.4,224.9c0.4,0,0.9-0.1,1.3-0.2v1.4c-0.2,0.1-0.5,0.2-0.8,0.2c-0.3,0.1-0.7,0.1-1,0.1
					c-1.7,0-2.6-0.9-2.6-2.7V219h-1.2v-0.8l1.3-0.7l0.6-1.8h1.1v1.9h2.5v1.4h-2.5v4.6c0,0.4,0.1,0.8,0.3,1S222.1,224.9,222.4,224.9z
					"/>
				<path fill="#FFFFFF" d="M226.6,215.3c0-0.3,0.1-0.6,0.3-0.8c0.2-0.2,0.4-0.3,0.8-0.3c0.3,0,0.6,0.1,0.8,0.3
					c0.2,0.2,0.3,0.4,0.3,0.8c0,0.3-0.1,0.6-0.3,0.7c-0.2,0.2-0.4,0.3-0.8,0.3c-0.3,0-0.6-0.1-0.8-0.3
					C226.7,215.9,226.6,215.6,226.6,215.3z M228.5,226.2h-1.8v-8.6h1.8V226.2z"/>
				<path fill="#FFFFFF" d="M240,221.9c0,1.4-0.4,2.5-1.1,3.3c-0.7,0.8-1.7,1.2-3,1.2c-0.8,0-1.5-0.2-2.1-0.5
					c-0.6-0.4-1.1-0.9-1.4-1.6c-0.3-0.7-0.5-1.5-0.5-2.4c0-1.4,0.4-2.5,1.1-3.3c0.7-0.8,1.7-1.2,3-1.2c1.2,0,2.2,0.4,3,1.2
					C239.6,219.4,240,220.5,240,221.9z M233.7,221.9c0,2,0.7,3,2.2,3c1.5,0,2.2-1,2.2-3c0-2-0.7-3-2.2-3c-0.8,0-1.3,0.3-1.7,0.8
					C233.9,220.2,233.7,220.9,233.7,221.9z"/>
				<path fill="#FFFFFF" d="M250.9,226.2H249v-5.3c0-0.7-0.1-1.2-0.4-1.5c-0.3-0.3-0.7-0.5-1.3-0.5c-0.8,0-1.3,0.2-1.7,0.7
					c-0.4,0.5-0.5,1.2-0.5,2.3v4.3h-1.8v-8.6h1.4l0.3,1.1h0.1c0.3-0.4,0.6-0.7,1.1-1c0.5-0.2,1-0.3,1.6-0.3c2.1,0,3.1,1.1,3.1,3.2
					V226.2z"/>
				<path fill="#FFFFFF" d="M260.4,223.8c0,0.8-0.3,1.5-0.9,1.9c-0.6,0.4-1.5,0.7-2.6,0.7c-1.1,0-2.1-0.2-2.8-0.5v-1.6
					c1,0.5,2,0.7,2.8,0.7c1.1,0,1.7-0.3,1.7-1c0-0.2-0.1-0.4-0.2-0.5c-0.1-0.1-0.3-0.3-0.6-0.5c-0.3-0.2-0.7-0.3-1.2-0.5
					c-1-0.4-1.7-0.8-2-1.2c-0.4-0.4-0.5-0.9-0.5-1.5c0-0.7,0.3-1.3,0.9-1.7c0.6-0.4,1.4-0.6,2.4-0.6c1,0,2,0.2,2.9,0.6l-0.6,1.4
					c-0.9-0.4-1.7-0.6-2.3-0.6c-1,0-1.4,0.3-1.4,0.8c0,0.3,0.1,0.5,0.4,0.7c0.3,0.2,0.8,0.4,1.6,0.8c0.7,0.3,1.2,0.5,1.6,0.8
					s0.6,0.5,0.7,0.8C260.3,223,260.4,223.3,260.4,223.8z"/>
				<path fill="#FFFFFF" d="M265.5,224.5c-0.2,1-0.7,2.2-1.4,3.7h-1.3c0.4-1.4,0.6-2.7,0.8-3.9h1.8L265.5,224.5z"/>
				<path fill="#FFFFFF" d="M281.7,217.6v1l-1.5,0.3c0.1,0.2,0.2,0.4,0.3,0.7s0.1,0.5,0.1,0.8c0,0.9-0.3,1.6-0.9,2.1
					s-1.5,0.8-2.5,0.8c-0.3,0-0.5,0-0.7-0.1c-0.4,0.2-0.6,0.5-0.6,0.9c0,0.2,0.1,0.3,0.3,0.4c0.2,0.1,0.5,0.1,1,0.1h1.5
					c1,0,1.7,0.2,2.2,0.6c0.5,0.4,0.7,1,0.7,1.8c0,1-0.4,1.7-1.2,2.3c-0.8,0.5-2,0.8-3.5,0.8c-1.2,0-2.1-0.2-2.7-0.6
					c-0.6-0.4-0.9-1-0.9-1.8c0-0.5,0.2-1,0.5-1.3c0.3-0.4,0.8-0.6,1.4-0.8c-0.2-0.1-0.4-0.3-0.6-0.5c-0.2-0.2-0.2-0.5-0.2-0.7
					c0-0.3,0.1-0.6,0.3-0.8c0.2-0.2,0.5-0.4,0.8-0.7c-0.4-0.2-0.8-0.5-1.1-0.9c-0.3-0.4-0.4-0.9-0.4-1.5c0-0.9,0.3-1.7,0.9-2.2
					c0.6-0.5,1.4-0.8,2.5-0.8c0.2,0,0.5,0,0.8,0.1s0.5,0.1,0.6,0.1H281.7z M274.9,227.5c0,0.4,0.2,0.7,0.5,0.9
					c0.4,0.2,0.9,0.3,1.5,0.3c1,0,1.7-0.1,2.2-0.4c0.5-0.3,0.7-0.7,0.7-1.1c0-0.4-0.1-0.6-0.4-0.8c-0.3-0.2-0.8-0.2-1.5-0.2h-1.4
					c-0.5,0-0.9,0.1-1.3,0.4C275,226.8,274.9,227.1,274.9,227.5z M275.7,220.4c0,0.5,0.1,1,0.4,1.2c0.3,0.3,0.7,0.4,1.2,0.4
					c1.1,0,1.6-0.6,1.6-1.7c0-0.6-0.1-1-0.4-1.3c-0.3-0.3-0.7-0.5-1.2-0.5c-0.5,0-0.9,0.2-1.2,0.5
					C275.8,219.4,275.7,219.8,275.7,220.4z"/>
				<path fill="#FFFFFF" d="M289.8,226.2l-0.4-1.2h-0.1c-0.4,0.5-0.8,0.9-1.3,1.1c-0.4,0.2-1,0.3-1.6,0.3c-0.8,0-1.5-0.2-2-0.7
					c-0.5-0.5-0.7-1.1-0.7-1.9c0-0.9,0.3-1.6,1-2c0.7-0.5,1.7-0.7,3-0.7l1.5,0v-0.5c0-0.6-0.1-1-0.4-1.2c-0.3-0.3-0.7-0.4-1.2-0.4
					c-0.4,0-0.9,0.1-1.3,0.2s-0.8,0.3-1.2,0.5l-0.6-1.3c0.5-0.2,1-0.4,1.5-0.6c0.6-0.1,1.1-0.2,1.6-0.2c1.1,0,1.9,0.2,2.5,0.7
					s0.8,1.2,0.8,2.3v5.8H289.8z M287.1,225c0.7,0,1.2-0.2,1.6-0.6c0.4-0.4,0.6-0.9,0.6-1.6v-0.7l-1.1,0c-0.9,0-1.5,0.2-1.9,0.4
					c-0.4,0.3-0.6,0.7-0.6,1.2c0,0.4,0.1,0.7,0.3,0.9S286.7,225,287.1,225z"/>
				<path fill="#FFFFFF" d="M296.7,226.2h-1.8v-12.1h1.8V226.2z"/>
				<path fill="#FFFFFF" d="M302.4,226.2h-1.8v-12.1h1.8V226.2z"/>
				<path fill="#FFFFFF" d="M310,226.4c-1.3,0-2.4-0.4-3.1-1.2c-0.8-0.8-1.1-1.9-1.1-3.2c0-1.4,0.4-2.5,1.1-3.3
					c0.7-0.8,1.7-1.2,2.9-1.2c1.1,0,2,0.3,2.7,1c0.7,0.7,1,1.6,1,2.9v1h-5.7c0,0.8,0.3,1.5,0.7,1.9c0.4,0.4,1,0.7,1.8,0.7
					c0.5,0,1,0,1.4-0.1s0.9-0.3,1.4-0.5v1.5c-0.4,0.2-0.9,0.4-1.4,0.5S310.6,226.4,310,226.4z M309.6,218.8c-0.6,0-1,0.2-1.4,0.6
					s-0.6,0.9-0.6,1.6h3.9c0-0.7-0.2-1.3-0.5-1.6C310.7,219,310.2,218.8,309.6,218.8z"/>
				<path fill="#FFFFFF" d="M321,217.4c0.4,0,0.7,0,0.9,0.1l-0.2,1.7c-0.3-0.1-0.5-0.1-0.8-0.1c-0.7,0-1.3,0.2-1.8,0.7
					c-0.5,0.5-0.7,1.1-0.7,1.9v4.5h-1.8v-8.6h1.4l0.2,1.5h0.1c0.3-0.5,0.7-0.9,1.1-1.2S320.4,217.4,321,217.4z"/>
				<path fill="#FFFFFF" d="M324.6,215.3c0-0.3,0.1-0.6,0.3-0.8c0.2-0.2,0.4-0.3,0.8-0.3c0.3,0,0.6,0.1,0.8,0.3
					c0.2,0.2,0.3,0.4,0.3,0.8c0,0.3-0.1,0.6-0.3,0.7c-0.2,0.2-0.4,0.3-0.8,0.3c-0.3,0-0.6-0.1-0.8-0.3
					C324.7,215.9,324.6,215.6,324.6,215.3z M326.5,226.2h-1.8v-8.6h1.8V226.2z"/>
				<path fill="#FFFFFF" d="M334.1,226.4c-1.3,0-2.4-0.4-3.1-1.2c-0.8-0.8-1.1-1.9-1.1-3.2c0-1.4,0.4-2.5,1.1-3.3
					c0.7-0.8,1.7-1.2,2.9-1.2c1.1,0,2,0.3,2.7,1c0.7,0.7,1,1.6,1,2.9v1h-5.7c0,0.8,0.3,1.5,0.7,1.9c0.4,0.4,1,0.7,1.8,0.7
					c0.5,0,1,0,1.4-0.1s0.9-0.3,1.4-0.5v1.5c-0.4,0.2-0.9,0.4-1.4,0.5S334.7,226.4,334.1,226.4z M333.8,218.8c-0.6,0-1,0.2-1.4,0.6
					s-0.6,0.9-0.6,1.6h3.9c0-0.7-0.2-1.3-0.5-1.6C334.8,219,334.3,218.8,333.8,218.8z"/>
				<path fill="#FFFFFF" d="M346.5,223.8c0,0.8-0.3,1.5-0.9,1.9c-0.6,0.4-1.5,0.7-2.6,0.7c-1.1,0-2.1-0.2-2.8-0.5v-1.6
					c1,0.5,2,0.7,2.8,0.7c1.1,0,1.7-0.3,1.7-1c0-0.2-0.1-0.4-0.2-0.5c-0.1-0.1-0.3-0.3-0.6-0.5c-0.3-0.2-0.7-0.3-1.2-0.5
					c-1-0.4-1.7-0.8-2-1.2c-0.4-0.4-0.5-0.9-0.5-1.5c0-0.7,0.3-1.3,0.9-1.7c0.6-0.4,1.4-0.6,2.4-0.6c1,0,2,0.2,2.9,0.6l-0.6,1.4
					c-0.9-0.4-1.7-0.6-2.3-0.6c-1,0-1.4,0.3-1.4,0.8c0,0.3,0.1,0.5,0.4,0.7s0.8,0.4,1.6,0.8c0.7,0.3,1.2,0.5,1.6,0.8
					s0.6,0.5,0.7,0.8C346.4,223,346.5,223.3,346.5,223.8z"/>
				<path fill="#FFFFFF" d="M351.6,224.5c-0.2,1-0.7,2.2-1.4,3.7h-1.3c0.4-1.4,0.6-2.7,0.8-3.9h1.8L351.6,224.5z"/>
				<path fill="#FFFFFF" d="M26.9,245.4l-0.4-1.2h-0.1c-0.4,0.5-0.8,0.9-1.3,1.1c-0.4,0.2-1,0.3-1.6,0.3c-0.8,0-1.5-0.2-2-0.7
					c-0.5-0.5-0.7-1.1-0.7-1.9c0-0.9,0.3-1.6,1-2c0.7-0.5,1.7-0.7,3-0.7l1.5,0v-0.5c0-0.6-0.1-1-0.4-1.2c-0.3-0.3-0.7-0.4-1.2-0.4
					c-0.4,0-0.9,0.1-1.3,0.2s-0.8,0.3-1.2,0.5l-0.6-1.3c0.5-0.2,1-0.4,1.5-0.6c0.6-0.1,1.1-0.2,1.6-0.2c1.1,0,1.9,0.2,2.5,0.7
					s0.8,1.2,0.8,2.3v5.8H26.9z M24.2,244.1c0.7,0,1.2-0.2,1.6-0.6c0.4-0.4,0.6-0.9,0.6-1.6v-0.7l-1.1,0c-0.9,0-1.5,0.2-1.9,0.4
					c-0.4,0.3-0.6,0.7-0.6,1.2c0,0.4,0.1,0.7,0.3,0.9S23.8,244.1,24.2,244.1z"/>
				<path fill="#FFFFFF" d="M39.6,245.4h-1.8v-5.3c0-0.7-0.1-1.2-0.4-1.5c-0.3-0.3-0.7-0.5-1.3-0.5c-0.8,0-1.3,0.2-1.7,0.7
					c-0.4,0.5-0.5,1.2-0.5,2.3v4.3H32v-8.6h1.4l0.3,1.1h0.1c0.3-0.4,0.6-0.7,1.1-1c0.5-0.2,1-0.3,1.6-0.3c2.1,0,3.1,1.1,3.1,3.2
					V245.4z"/>
				<path fill="#FFFFFF" d="M46.2,245.5c-1.1,0-1.9-0.4-2.5-1.2s-0.9-1.9-0.9-3.3c0-1.4,0.3-2.5,0.9-3.3c0.6-0.8,1.5-1.2,2.5-1.2
					c1.1,0,2,0.4,2.6,1.3H49c-0.1-0.6-0.1-1.1-0.1-1.5v-3.1h1.8v12.1h-1.4l-0.3-1.1h-0.1C48.2,245.1,47.4,245.5,46.2,245.5z
					 M46.7,244c0.8,0,1.3-0.2,1.6-0.6c0.3-0.4,0.5-1.1,0.5-2.1v-0.3c0-1.1-0.2-1.9-0.5-2.3c-0.4-0.5-0.9-0.7-1.7-0.7
					c-0.6,0-1.1,0.3-1.5,0.8c-0.3,0.5-0.5,1.3-0.5,2.2c0,1,0.2,1.7,0.5,2.2S46.1,244,46.7,244z"/>
				<path fill="#FFFFFF" d="M59.7,234.5c0-0.3,0.1-0.6,0.3-0.8c0.2-0.2,0.4-0.3,0.8-0.3c0.3,0,0.6,0.1,0.8,0.3
					c0.2,0.2,0.3,0.4,0.3,0.8c0,0.3-0.1,0.6-0.3,0.7c-0.2,0.2-0.4,0.3-0.8,0.3c-0.3,0-0.6-0.1-0.8-0.3
					C59.8,235,59.7,234.8,59.7,234.5z M61.7,245.4h-1.8v-8.6h1.8V245.4z"/>
				<path fill="#FFFFFF" d="M71.3,242.9c0,0.8-0.3,1.5-0.9,1.9c-0.6,0.4-1.5,0.7-2.6,0.7c-1.1,0-2.1-0.2-2.8-0.5v-1.6
					c1,0.5,2,0.7,2.8,0.7c1.1,0,1.7-0.3,1.7-1c0-0.2-0.1-0.4-0.2-0.5c-0.1-0.1-0.3-0.3-0.6-0.5c-0.3-0.2-0.7-0.3-1.2-0.5
					c-1-0.4-1.7-0.8-2-1.2c-0.4-0.4-0.5-0.9-0.5-1.5c0-0.7,0.3-1.3,0.9-1.7c0.6-0.4,1.4-0.6,2.4-0.6c1,0,2,0.2,2.9,0.6l-0.6,1.4
					c-0.9-0.4-1.7-0.6-2.3-0.6c-1,0-1.4,0.3-1.4,0.8c0,0.3,0.1,0.5,0.4,0.7s0.8,0.4,1.6,0.8c0.7,0.3,1.2,0.5,1.6,0.8
					s0.6,0.5,0.7,0.8C71.2,242.1,71.3,242.5,71.3,242.9z"/>
				<path fill="#FFFFFF" d="M85.2,245.4l-0.4-1.2h-0.1c-0.4,0.5-0.8,0.9-1.3,1.1c-0.4,0.2-1,0.3-1.6,0.3c-0.8,0-1.5-0.2-2-0.7
					c-0.5-0.5-0.7-1.1-0.7-1.9c0-0.9,0.3-1.6,1-2c0.7-0.5,1.7-0.7,3-0.7l1.5,0v-0.5c0-0.6-0.1-1-0.4-1.2c-0.3-0.3-0.7-0.4-1.2-0.4
					c-0.4,0-0.9,0.1-1.3,0.2s-0.8,0.3-1.2,0.5l-0.6-1.3c0.5-0.2,1-0.4,1.5-0.6c0.6-0.1,1.1-0.2,1.6-0.2c1.1,0,1.9,0.2,2.5,0.7
					s0.8,1.2,0.8,2.3v5.8H85.2z M82.5,244.1c0.7,0,1.2-0.2,1.6-0.6c0.4-0.4,0.6-0.9,0.6-1.6v-0.7l-1.1,0c-0.9,0-1.5,0.2-1.9,0.4
					c-0.4,0.3-0.6,0.7-0.6,1.2c0,0.4,0.1,0.7,0.3,0.9S82,244.1,82.5,244.1z"/>
				<path fill="#FFFFFF" d="M103.2,245.4h-1.8v-5.3c0-0.7-0.1-1.2-0.4-1.5c-0.3-0.3-0.7-0.5-1.3-0.5c-0.8,0-1.3,0.2-1.7,0.7
					s-0.5,1.2-0.5,2.3v4.3h-1.8v-12.1h1.8v3.1c0,0.5,0,1-0.1,1.6h0.1c0.2-0.4,0.6-0.7,1-1c0.4-0.2,1-0.3,1.6-0.3
					c2.1,0,3.1,1.1,3.1,3.2V245.4z"/>
				<path fill="#FFFFFF" d="M113,245.4l-0.3-1.1h-0.1c-0.3,0.4-0.6,0.7-1.1,0.9c-0.5,0.2-1,0.3-1.6,0.3c-1,0-1.8-0.3-2.3-0.8
					s-0.8-1.3-0.8-2.4v-5.6h1.8v5.3c0,0.7,0.1,1.2,0.4,1.5c0.3,0.3,0.7,0.5,1.3,0.5c0.8,0,1.3-0.2,1.7-0.7c0.4-0.5,0.5-1.2,0.5-2.3
					v-4.3h1.8v8.6H113z"/>
				<path fill="#FFFFFF" d="M122.6,236.6c1.1,0,1.9,0.4,2.5,1.2c0.6,0.8,0.9,1.9,0.9,3.3c0,1.4-0.3,2.5-0.9,3.3
					c-0.6,0.8-1.5,1.2-2.5,1.2c-1.1,0-1.9-0.4-2.5-1.2H120l-0.3,1h-1.4v-12.1h1.8v2.9c0,0.2,0,0.5,0,1c0,0.4,0,0.7,0,0.8h0.1
					C120.7,237,121.5,236.6,122.6,236.6z M122.2,238.1c-0.7,0-1.3,0.2-1.6,0.7c-0.3,0.4-0.5,1.2-0.5,2.2v0.1c0,1,0.2,1.8,0.5,2.3
					c0.3,0.5,0.9,0.7,1.6,0.7c0.6,0,1.1-0.3,1.5-0.8c0.3-0.5,0.5-1.3,0.5-2.2C124.2,239.1,123.5,238.1,122.2,238.1z"/>
				<path fill="#FFFFFF" d="M139.1,238.1H137v7.2h-1.8v-7.2h-1.4v-0.9l1.4-0.6v-0.6c0-1,0.2-1.8,0.7-2.3c0.5-0.5,1.2-0.7,2.2-0.7
					c0.6,0,1.3,0.1,1.9,0.3l-0.5,1.4c-0.5-0.1-0.9-0.2-1.3-0.2c-0.4,0-0.7,0.1-0.9,0.4s-0.3,0.6-0.3,1.2v0.6h2.1V238.1z"/>
				<path fill="#FFFFFF" d="M149.4,241c0,1.4-0.4,2.5-1.1,3.3c-0.7,0.8-1.7,1.2-3,1.2c-0.8,0-1.5-0.2-2.1-0.5
					c-0.6-0.4-1.1-0.9-1.4-1.6c-0.3-0.7-0.5-1.5-0.5-2.4c0-1.4,0.4-2.5,1.1-3.3c0.7-0.8,1.7-1.2,3-1.2c1.2,0,2.2,0.4,3,1.2
					C149,238.6,149.4,239.7,149.4,241z M143.1,241c0,2,0.7,3,2.2,3c1.5,0,2.2-1,2.2-3c0-2-0.7-3-2.2-3c-0.8,0-1.3,0.3-1.7,0.8
					C143.3,239.4,143.1,240.1,143.1,241z"/>
				<path fill="#FFFFFF" d="M157,236.6c0.4,0,0.7,0,0.9,0.1l-0.2,1.7c-0.3-0.1-0.5-0.1-0.8-0.1c-0.7,0-1.3,0.2-1.8,0.7
					c-0.5,0.5-0.7,1.1-0.7,1.9v4.5h-1.8v-8.6h1.4l0.2,1.5h0.1c0.3-0.5,0.7-0.9,1.1-1.2S156.5,236.6,157,236.6z"/>
				<path fill="#FFFFFF" d="M169.3,244c0.4,0,0.9-0.1,1.3-0.2v1.4c-0.2,0.1-0.5,0.2-0.8,0.2c-0.3,0.1-0.7,0.1-1,0.1
					c-1.7,0-2.6-0.9-2.6-2.7v-4.6h-1.2v-0.8l1.3-0.7l0.6-1.8h1.1v1.9h2.5v1.4h-2.5v4.6c0,0.4,0.1,0.8,0.3,1S168.9,244,169.3,244z"/>
				<path fill="#FFFFFF" d="M181.2,241c0,1.4-0.4,2.5-1.1,3.3c-0.7,0.8-1.7,1.2-3,1.2c-0.8,0-1.5-0.2-2.1-0.5
					c-0.6-0.4-1.1-0.9-1.4-1.6c-0.3-0.7-0.5-1.5-0.5-2.4c0-1.4,0.4-2.5,1.1-3.3c0.7-0.8,1.7-1.2,3-1.2c1.2,0,2.2,0.4,3,1.2
					C180.8,238.6,181.2,239.7,181.2,241z M174.9,241c0,2,0.7,3,2.2,3c1.5,0,2.2-1,2.2-3c0-2-0.7-3-2.2-3c-0.8,0-1.3,0.3-1.7,0.8
					C175.1,239.4,174.9,240.1,174.9,241z"/>
				<path fill="#FFFFFF" d="M190.6,245.4l-0.3-1.1h-0.1c-0.3,0.4-0.6,0.7-1.1,0.9c-0.5,0.2-1,0.3-1.6,0.3c-1,0-1.8-0.3-2.3-0.8
					s-0.8-1.3-0.8-2.4v-5.6h1.8v5.3c0,0.7,0.1,1.2,0.4,1.5c0.3,0.3,0.7,0.5,1.3,0.5c0.8,0,1.3-0.2,1.7-0.7c0.4-0.5,0.5-1.2,0.5-2.3
					v-4.3h1.8v8.6H190.6z"/>
				<path fill="#FFFFFF" d="M200.2,236.6c0.4,0,0.7,0,0.9,0.1l-0.2,1.7c-0.3-0.1-0.5-0.1-0.8-0.1c-0.7,0-1.3,0.2-1.8,0.7
					c-0.5,0.5-0.7,1.1-0.7,1.9v4.5h-1.8v-8.6h1.4l0.2,1.5h0.1c0.3-0.5,0.7-0.9,1.1-1.2S199.7,236.6,200.2,236.6z"/>
				<path fill="#FFFFFF" d="M203.8,234.5c0-0.3,0.1-0.6,0.3-0.8c0.2-0.2,0.4-0.3,0.8-0.3c0.3,0,0.6,0.1,0.8,0.3
					c0.2,0.2,0.3,0.4,0.3,0.8c0,0.3-0.1,0.6-0.3,0.7c-0.2,0.2-0.4,0.3-0.8,0.3c-0.3,0-0.6-0.1-0.8-0.3
					C203.9,235,203.8,234.8,203.8,234.5z M205.8,245.4h-1.8v-8.6h1.8V245.4z"/>
				<path fill="#FFFFFF" d="M215.4,242.9c0,0.8-0.3,1.5-0.9,1.9c-0.6,0.4-1.5,0.7-2.6,0.7c-1.1,0-2.1-0.2-2.8-0.5v-1.6
					c1,0.5,2,0.7,2.8,0.7c1.1,0,1.7-0.3,1.7-1c0-0.2-0.1-0.4-0.2-0.5c-0.1-0.1-0.3-0.3-0.6-0.5c-0.3-0.2-0.7-0.3-1.2-0.5
					c-1-0.4-1.7-0.8-2-1.2c-0.4-0.4-0.5-0.9-0.5-1.5c0-0.7,0.3-1.3,0.9-1.7c0.6-0.4,1.4-0.6,2.4-0.6c1,0,2,0.2,2.9,0.6l-0.6,1.4
					c-0.9-0.4-1.7-0.6-2.3-0.6c-1,0-1.4,0.3-1.4,0.8c0,0.3,0.1,0.5,0.4,0.7s0.8,0.4,1.6,0.8c0.7,0.3,1.2,0.5,1.6,0.8
					s0.6,0.5,0.7,0.8C215.3,242.1,215.4,242.5,215.4,242.9z"/>
				<path fill="#FFFFFF" d="M221.7,244c0.4,0,0.9-0.1,1.3-0.2v1.4c-0.2,0.1-0.5,0.2-0.8,0.2c-0.3,0.1-0.7,0.1-1,0.1
					c-1.7,0-2.6-0.9-2.6-2.7v-4.6h-1.2v-0.8l1.3-0.7l0.6-1.8h1.1v1.9h2.5v1.4h-2.5v4.6c0,0.4,0.1,0.8,0.3,1S221.4,244,221.7,244z"/>
				<path fill="#FFFFFF" d="M231.2,234.5c0-0.3,0.1-0.6,0.3-0.8c0.2-0.2,0.4-0.3,0.8-0.3c0.3,0,0.6,0.1,0.8,0.3
					c0.2,0.2,0.3,0.4,0.3,0.8c0,0.3-0.1,0.6-0.3,0.7c-0.2,0.2-0.4,0.3-0.8,0.3c-0.3,0-0.6-0.1-0.8-0.3
					C231.3,235,231.2,234.8,231.2,234.5z M233.2,245.4h-1.8v-8.6h1.8V245.4z"/>
				<path fill="#FFFFFF" d="M244.6,245.4h-1.8v-5.3c0-0.7-0.1-1.2-0.4-1.5c-0.3-0.3-0.7-0.5-1.3-0.5c-0.8,0-1.3,0.2-1.7,0.7
					c-0.4,0.5-0.5,1.2-0.5,2.3v4.3H237v-8.6h1.4l0.3,1.1h0.1c0.3-0.4,0.6-0.7,1.1-1c0.5-0.2,1-0.3,1.6-0.3c2.1,0,3.1,1.1,3.1,3.2
					V245.4z"/>
				<path fill="#FFFFFF" d="M252.7,238.1h-2.1v7.2h-1.8v-7.2h-1.4v-0.9l1.4-0.6v-0.6c0-1,0.2-1.8,0.7-2.3c0.5-0.5,1.2-0.7,2.2-0.7
					c0.6,0,1.3,0.1,1.9,0.3l-0.5,1.4c-0.5-0.1-0.9-0.2-1.3-0.2c-0.4,0-0.7,0.1-0.9,0.4s-0.3,0.6-0.3,1.2v0.6h2.1V238.1z"/>
				<path fill="#FFFFFF" d="M263,241c0,1.4-0.4,2.5-1.1,3.3c-0.7,0.8-1.7,1.2-3,1.2c-0.8,0-1.5-0.2-2.1-0.5
					c-0.6-0.4-1.1-0.9-1.4-1.6c-0.3-0.7-0.5-1.5-0.5-2.4c0-1.4,0.4-2.5,1.1-3.3c0.7-0.8,1.7-1.2,3-1.2c1.2,0,2.2,0.4,3,1.2
					C262.6,238.6,263,239.7,263,241z M256.7,241c0,2,0.7,3,2.2,3c1.5,0,2.2-1,2.2-3c0-2-0.7-3-2.2-3c-0.8,0-1.3,0.3-1.7,0.8
					C256.9,239.4,256.7,240.1,256.7,241z"/>
				<path fill="#FFFFFF" d="M270.6,236.6c0.4,0,0.7,0,0.9,0.1l-0.2,1.7c-0.3-0.1-0.5-0.1-0.8-0.1c-0.7,0-1.3,0.2-1.8,0.7
					c-0.5,0.5-0.7,1.1-0.7,1.9v4.5h-1.8v-8.6h1.4l0.2,1.5h0.1c0.3-0.5,0.7-0.9,1.1-1.2S270.1,236.6,270.6,236.6z"/>
				<path fill="#FFFFFF" d="M281.6,245.4h-1.8V240c0-0.7-0.1-1.2-0.4-1.5c-0.2-0.3-0.6-0.5-1.2-0.5c-0.7,0-1.2,0.2-1.6,0.7
					s-0.5,1.2-0.5,2.3v4.3h-1.8v-8.6h1.4l0.3,1.1h0.1c0.2-0.4,0.6-0.7,1-1c0.5-0.2,1-0.3,1.5-0.3c1.3,0,2.2,0.5,2.6,1.4h0.1
					c0.3-0.4,0.6-0.8,1.1-1c0.5-0.2,1-0.4,1.6-0.4c1,0,1.8,0.3,2.2,0.8c0.5,0.5,0.7,1.3,0.7,2.4v5.6h-1.8V240c0-0.7-0.1-1.2-0.4-1.5
					c-0.3-0.3-0.6-0.5-1.2-0.5c-0.7,0-1.2,0.2-1.6,0.7s-0.5,1.1-0.5,2V245.4z"/>
				<path fill="#FFFFFF" d="M296.2,245.4l-0.4-1.2h-0.1c-0.4,0.5-0.8,0.9-1.3,1.1c-0.4,0.2-1,0.3-1.6,0.3c-0.8,0-1.5-0.2-2-0.7
					c-0.5-0.5-0.7-1.1-0.7-1.9c0-0.9,0.3-1.6,1-2c0.7-0.5,1.7-0.7,3-0.7l1.5,0v-0.5c0-0.6-0.1-1-0.4-1.2c-0.3-0.3-0.7-0.4-1.2-0.4
					c-0.4,0-0.9,0.1-1.3,0.2s-0.8,0.3-1.2,0.5l-0.6-1.3c0.5-0.2,1-0.4,1.5-0.6c0.6-0.1,1.1-0.2,1.6-0.2c1.1,0,1.9,0.2,2.5,0.7
					s0.8,1.2,0.8,2.3v5.8H296.2z M293.5,244.1c0.7,0,1.2-0.2,1.6-0.6c0.4-0.4,0.6-0.9,0.6-1.6v-0.7l-1.1,0c-0.9,0-1.5,0.2-1.9,0.4
					c-0.4,0.3-0.6,0.7-0.6,1.2c0,0.4,0.1,0.7,0.3,0.9S293,244.1,293.5,244.1z"/>
				<path fill="#FFFFFF" d="M304.5,244c0.4,0,0.9-0.1,1.3-0.2v1.4c-0.2,0.1-0.5,0.2-0.8,0.2c-0.3,0.1-0.7,0.1-1,0.1
					c-1.7,0-2.6-0.9-2.6-2.7v-4.6h-1.2v-0.8l1.3-0.7l0.6-1.8h1.1v1.9h2.5v1.4h-2.5v4.6c0,0.4,0.1,0.8,0.3,1S304.1,244,304.5,244z"/>
				<path fill="#FFFFFF" d="M308.6,234.5c0-0.3,0.1-0.6,0.3-0.8c0.2-0.2,0.4-0.3,0.8-0.3c0.3,0,0.6,0.1,0.8,0.3
					c0.2,0.2,0.3,0.4,0.3,0.8c0,0.3-0.1,0.6-0.3,0.7c-0.2,0.2-0.4,0.3-0.8,0.3c-0.3,0-0.6-0.1-0.8-0.3
					C308.7,235,308.6,234.8,308.6,234.5z M310.6,245.4h-1.8v-8.6h1.8V245.4z"/>
				<path fill="#FFFFFF" d="M322,241c0,1.4-0.4,2.5-1.1,3.3c-0.7,0.8-1.7,1.2-3,1.2c-0.8,0-1.5-0.2-2.1-0.5
					c-0.6-0.4-1.1-0.9-1.4-1.6c-0.3-0.7-0.5-1.5-0.5-2.4c0-1.4,0.4-2.5,1.1-3.3c0.7-0.8,1.7-1.2,3-1.2c1.2,0,2.2,0.4,3,1.2
					C321.7,238.6,322,239.7,322,241z M315.7,241c0,2,0.7,3,2.2,3c1.5,0,2.2-1,2.2-3c0-2-0.7-3-2.2-3c-0.8,0-1.3,0.3-1.7,0.8
					C315.9,239.4,315.7,240.1,315.7,241z"/>
				<path fill="#FFFFFF" d="M332.9,245.4h-1.8v-5.3c0-0.7-0.1-1.2-0.4-1.5c-0.3-0.3-0.7-0.5-1.3-0.5c-0.8,0-1.3,0.2-1.7,0.7
					c-0.4,0.5-0.5,1.2-0.5,2.3v4.3h-1.8v-8.6h1.4l0.3,1.1h0.1c0.3-0.4,0.6-0.7,1.1-1c0.5-0.2,1-0.3,1.6-0.3c2.1,0,3.1,1.1,3.1,3.2
					V245.4z"/>
				<path fill="#FFFFFF" d="M336.4,244.4c0-0.4,0.1-0.7,0.3-0.9s0.5-0.3,0.9-0.3c0.4,0,0.7,0.1,0.9,0.3c0.2,0.2,0.3,0.5,0.3,0.9
					c0,0.4-0.1,0.7-0.3,0.9c-0.2,0.2-0.5,0.3-0.9,0.3s-0.7-0.1-0.9-0.3C336.5,245.1,336.4,244.8,336.4,244.4z"/>
				<path fill="#FFFFFF" d="M32.3,283.7h-2l-1.9-6.8c-0.1-0.3-0.2-0.7-0.3-1.3c-0.1-0.6-0.2-0.9-0.2-1.2c-0.1,0.3-0.1,0.8-0.3,1.3
					c-0.1,0.5-0.2,0.9-0.3,1.2l-1.9,6.8h-2l-1.5-5.7l-1.5-5.7h1.9l1.6,6.6c0.3,1.1,0.4,2,0.5,2.8c0.1-0.4,0.1-0.9,0.3-1.5
					c0.1-0.5,0.2-1,0.3-1.3l1.9-6.7h1.8l1.9,6.7c0.2,0.6,0.4,1.5,0.6,2.8c0.1-0.7,0.3-1.7,0.6-2.8l1.6-6.6h1.9L32.3,283.7z"/>
				<path fill="#FFFFFF" d="M45.4,283.7h-1.8v-5.3c0-0.7-0.1-1.2-0.4-1.5c-0.3-0.3-0.7-0.5-1.3-0.5c-0.8,0-1.3,0.2-1.7,0.7
					s-0.5,1.2-0.5,2.3v4.3h-1.8v-12.1h1.8v3.1c0,0.5,0,1-0.1,1.6h0.1c0.2-0.4,0.6-0.7,1-1c0.4-0.2,1-0.3,1.6-0.3
					c2.1,0,3.1,1.1,3.1,3.2V283.7z"/>
				<path fill="#FFFFFF" d="M52.9,283.8c-1.3,0-2.4-0.4-3.1-1.2c-0.8-0.8-1.1-1.9-1.1-3.2c0-1.4,0.4-2.5,1.1-3.3
					c0.7-0.8,1.7-1.2,2.9-1.2c1.1,0,2,0.3,2.7,1c0.7,0.7,1,1.6,1,2.9v1h-5.7c0,0.8,0.3,1.5,0.7,1.9c0.4,0.4,1,0.7,1.8,0.7
					c0.5,0,1,0,1.4-0.1s0.9-0.3,1.4-0.5v1.5c-0.4,0.2-0.9,0.4-1.4,0.5S53.5,283.8,52.9,283.8z M52.6,276.3c-0.6,0-1,0.2-1.4,0.6
					s-0.6,0.9-0.6,1.6h3.9c0-0.7-0.2-1.3-0.5-1.6C53.6,276.5,53.2,276.3,52.6,276.3z"/>
				<path fill="#FFFFFF" d="M67.2,283.7h-1.8v-5.3c0-0.7-0.1-1.2-0.4-1.5c-0.3-0.3-0.7-0.5-1.3-0.5c-0.8,0-1.3,0.2-1.7,0.7
					c-0.4,0.5-0.5,1.2-0.5,2.3v4.3h-1.8v-8.6H61l0.3,1.1h0.1c0.3-0.4,0.6-0.7,1.1-1c0.5-0.2,1-0.3,1.6-0.3c2.1,0,3.1,1.1,3.1,3.2
					V283.7z"/>
				<path fill="#FFFFFF" d="M78.2,283.7l-3.3-8.6h1.9l1.8,5c0.3,0.8,0.5,1.5,0.5,2h0.1c0-0.4,0.2-1.1,0.5-2l1.8-5h1.9l-3.3,8.6H78.2
					z"/>
				<path fill="#FFFFFF" d="M85.9,272.8c0-0.3,0.1-0.6,0.3-0.8c0.2-0.2,0.4-0.3,0.8-0.3c0.3,0,0.6,0.1,0.8,0.3
					c0.2,0.2,0.3,0.4,0.3,0.8c0,0.3-0.1,0.6-0.3,0.7c-0.2,0.2-0.4,0.3-0.8,0.3c-0.3,0-0.6-0.1-0.8-0.3
					C86,273.3,85.9,273.1,85.9,272.8z M87.8,283.7H86v-8.6h1.8V283.7z"/>
				<path fill="#FFFFFF" d="M97.4,281.2c0,0.8-0.3,1.5-0.9,1.9c-0.6,0.4-1.5,0.7-2.6,0.7c-1.1,0-2.1-0.2-2.8-0.5v-1.6
					c1,0.5,2,0.7,2.8,0.7c1.1,0,1.7-0.3,1.7-1c0-0.2-0.1-0.4-0.2-0.5c-0.1-0.1-0.3-0.3-0.6-0.5c-0.3-0.2-0.7-0.3-1.2-0.5
					c-1-0.4-1.7-0.8-2-1.2c-0.4-0.4-0.5-0.9-0.5-1.5c0-0.7,0.3-1.3,0.9-1.7c0.6-0.4,1.4-0.6,2.4-0.6c1,0,2,0.2,2.9,0.6l-0.6,1.4
					c-0.9-0.4-1.7-0.6-2.3-0.6c-1,0-1.4,0.3-1.4,0.8c0,0.3,0.1,0.5,0.4,0.7s0.8,0.4,1.6,0.8c0.7,0.3,1.2,0.5,1.6,0.8
					s0.6,0.5,0.7,0.8C97.3,280.4,97.4,280.8,97.4,281.2z"/>
				<path fill="#FFFFFF" d="M100.5,272.8c0-0.3,0.1-0.6,0.3-0.8c0.2-0.2,0.4-0.3,0.8-0.3c0.3,0,0.6,0.1,0.8,0.3
					c0.2,0.2,0.3,0.4,0.3,0.8c0,0.3-0.1,0.6-0.3,0.7c-0.2,0.2-0.4,0.3-0.8,0.3c-0.3,0-0.6-0.1-0.8-0.3
					C100.6,273.3,100.5,273.1,100.5,272.8z M102.4,283.7h-1.8v-8.6h1.8V283.7z"/>
				<path fill="#FFFFFF" d="M109.5,282.3c0.4,0,0.9-0.1,1.3-0.2v1.4c-0.2,0.1-0.5,0.2-0.8,0.2c-0.3,0.1-0.7,0.1-1,0.1
					c-1.7,0-2.6-0.9-2.6-2.7v-4.6h-1.2v-0.8l1.3-0.7l0.6-1.8h1.1v1.9h2.5v1.4h-2.5v4.6c0,0.4,0.1,0.8,0.3,1S109.1,282.3,109.5,282.3
					z"/>
				<path fill="#FFFFFF" d="M113.6,272.8c0-0.3,0.1-0.6,0.3-0.8c0.2-0.2,0.4-0.3,0.8-0.3c0.3,0,0.6,0.1,0.8,0.3
					c0.2,0.2,0.3,0.4,0.3,0.8c0,0.3-0.1,0.6-0.3,0.7c-0.2,0.2-0.4,0.3-0.8,0.3c-0.3,0-0.6-0.1-0.8-0.3
					C113.7,273.3,113.6,273.1,113.6,272.8z M115.6,283.7h-1.8v-8.6h1.8V283.7z"/>
				<path fill="#FFFFFF" d="M127,283.7h-1.8v-5.3c0-0.7-0.1-1.2-0.4-1.5c-0.3-0.3-0.7-0.5-1.3-0.5c-0.8,0-1.3,0.2-1.7,0.7
					c-0.4,0.5-0.5,1.2-0.5,2.3v4.3h-1.8v-8.6h1.4l0.3,1.1h0.1c0.3-0.4,0.6-0.7,1.1-1c0.5-0.2,1-0.3,1.6-0.3c2.1,0,3.1,1.1,3.1,3.2
					V283.7z"/>
				<path fill="#FFFFFF" d="M138,275.1v1l-1.5,0.3c0.1,0.2,0.2,0.4,0.3,0.7s0.1,0.5,0.1,0.8c0,0.9-0.3,1.6-0.9,2.1s-1.5,0.8-2.5,0.8
					c-0.3,0-0.5,0-0.7-0.1c-0.4,0.2-0.6,0.5-0.6,0.9c0,0.2,0.1,0.3,0.3,0.4c0.2,0.1,0.5,0.1,1,0.1h1.5c1,0,1.7,0.2,2.2,0.6
					c0.5,0.4,0.7,1,0.7,1.8c0,1-0.4,1.7-1.2,2.3c-0.8,0.5-2,0.8-3.5,0.8c-1.2,0-2.1-0.2-2.7-0.6c-0.6-0.4-0.9-1-0.9-1.8
					c0-0.5,0.2-1,0.5-1.3c0.3-0.4,0.8-0.6,1.4-0.8c-0.2-0.1-0.4-0.3-0.6-0.5c-0.2-0.2-0.2-0.5-0.2-0.7c0-0.3,0.1-0.6,0.3-0.8
					c0.2-0.2,0.5-0.4,0.8-0.7c-0.4-0.2-0.8-0.5-1.1-0.9c-0.3-0.4-0.4-0.9-0.4-1.5c0-0.9,0.3-1.7,0.9-2.2c0.6-0.5,1.4-0.8,2.5-0.8
					c0.2,0,0.5,0,0.8,0.1s0.5,0.1,0.6,0.1H138z M131.2,285c0,0.4,0.2,0.7,0.5,0.9c0.4,0.2,0.9,0.3,1.5,0.3c1,0,1.7-0.1,2.2-0.4
					c0.5-0.3,0.7-0.7,0.7-1.1c0-0.4-0.1-0.6-0.4-0.8c-0.3-0.2-0.8-0.2-1.5-0.2h-1.4c-0.5,0-0.9,0.1-1.3,0.4
					C131.4,284.3,131.2,284.6,131.2,285z M132,277.8c0,0.5,0.1,1,0.4,1.2c0.3,0.3,0.7,0.4,1.2,0.4c1.1,0,1.6-0.6,1.6-1.7
					c0-0.6-0.1-1-0.4-1.3c-0.3-0.3-0.7-0.5-1.2-0.5c-0.5,0-0.9,0.2-1.2,0.5C132.1,276.8,132,277.3,132,277.8z"/>
				<path fill="#FFFFFF" d="M142.7,282c-0.2,1-0.7,2.2-1.4,3.7H140c0.4-1.4,0.6-2.7,0.8-3.9h1.8L142.7,282z"/>
				<path fill="#FFFFFF" d="M157.4,281.2c0,0.8-0.3,1.5-0.9,1.9c-0.6,0.4-1.5,0.7-2.6,0.7c-1.1,0-2.1-0.2-2.8-0.5v-1.6
					c1,0.5,2,0.7,2.8,0.7c1.1,0,1.7-0.3,1.7-1c0-0.2-0.1-0.4-0.2-0.5c-0.1-0.1-0.3-0.3-0.6-0.5c-0.3-0.2-0.7-0.3-1.2-0.5
					c-1-0.4-1.7-0.8-2-1.2c-0.4-0.4-0.5-0.9-0.5-1.5c0-0.7,0.3-1.3,0.9-1.7c0.6-0.4,1.4-0.6,2.4-0.6c1,0,2,0.2,2.9,0.6l-0.6,1.4
					c-0.9-0.4-1.7-0.6-2.3-0.6c-1,0-1.4,0.3-1.4,0.8c0,0.3,0.1,0.5,0.4,0.7s0.8,0.4,1.6,0.8c0.7,0.3,1.2,0.5,1.6,0.8
					s0.6,0.5,0.7,0.8C157.3,280.4,157.4,280.8,157.4,281.2z"/>
				<path fill="#FFFFFF" d="M168.1,283.7h-1.8v-5.3c0-0.7-0.1-1.2-0.4-1.5c-0.3-0.3-0.7-0.5-1.3-0.5c-0.8,0-1.3,0.2-1.7,0.7
					s-0.5,1.2-0.5,2.3v4.3h-1.8v-12.1h1.8v3.1c0,0.5,0,1-0.1,1.6h0.1c0.2-0.4,0.6-0.7,1-1c0.4-0.2,1-0.3,1.6-0.3
					c2.1,0,3.1,1.1,3.1,3.2V283.7z"/>
				<path fill="#FFFFFF" d="M177.3,283.7l-0.4-1.2h-0.1c-0.4,0.5-0.8,0.9-1.3,1.1c-0.4,0.2-1,0.3-1.6,0.3c-0.8,0-1.5-0.2-2-0.7
					c-0.5-0.5-0.7-1.1-0.7-1.9c0-0.9,0.3-1.6,1-2c0.7-0.5,1.7-0.7,3-0.7l1.5,0v-0.5c0-0.6-0.1-1-0.4-1.2c-0.3-0.3-0.7-0.4-1.2-0.4
					c-0.4,0-0.9,0.1-1.3,0.2s-0.8,0.3-1.2,0.5l-0.6-1.3c0.5-0.2,1-0.4,1.5-0.6c0.6-0.1,1.1-0.2,1.6-0.2c1.1,0,1.9,0.2,2.5,0.7
					s0.8,1.2,0.8,2.3v5.8H177.3z M174.5,282.4c0.7,0,1.2-0.2,1.6-0.6c0.4-0.4,0.6-0.9,0.6-1.6v-0.7l-1.1,0c-0.9,0-1.5,0.2-1.9,0.4
					c-0.4,0.3-0.6,0.7-0.6,1.2c0,0.4,0.1,0.7,0.3,0.9S174.1,282.4,174.5,282.4z"/>
				<path fill="#FFFFFF" d="M186.7,274.9c0.4,0,0.7,0,0.9,0.1l-0.2,1.7c-0.3-0.1-0.5-0.1-0.8-0.1c-0.7,0-1.3,0.2-1.8,0.7
					c-0.5,0.5-0.7,1.1-0.7,1.9v4.5h-1.8v-8.6h1.4l0.2,1.5h0.1c0.3-0.5,0.7-0.9,1.1-1.2S186.2,274.9,186.7,274.9z"/>
				<path fill="#FFFFFF" d="M194.2,283.8c-1.3,0-2.4-0.4-3.1-1.2c-0.8-0.8-1.1-1.9-1.1-3.2c0-1.4,0.4-2.5,1.1-3.3
					c0.7-0.8,1.7-1.2,2.9-1.2c1.1,0,2,0.3,2.7,1c0.7,0.7,1,1.6,1,2.9v1h-5.7c0,0.8,0.3,1.5,0.7,1.9c0.4,0.4,1,0.7,1.8,0.7
					c0.5,0,1,0,1.4-0.1s0.9-0.3,1.4-0.5v1.5c-0.4,0.2-0.9,0.4-1.4,0.5S194.8,283.8,194.2,283.8z M193.8,276.3c-0.6,0-1,0.2-1.4,0.6
					s-0.6,0.9-0.6,1.6h3.9c0-0.7-0.2-1.3-0.5-1.6C194.9,276.5,194.4,276.3,193.8,276.3z"/>
				<path fill="#FFFFFF" d="M204.8,275.1h2l1.8,4.9c0.3,0.7,0.4,1.4,0.5,2h0.1c0-0.3,0.1-0.6,0.3-1c0.1-0.4,0.8-2.3,2-5.8h2
					l-3.7,9.8c-0.7,1.8-1.8,2.7-3.4,2.7c-0.4,0-0.8,0-1.2-0.1v-1.4c0.3,0.1,0.6,0.1,0.9,0.1c0.9,0,1.5-0.5,1.9-1.5l0.3-0.8
					L204.8,275.1z"/>
				<path fill="#FFFFFF" d="M223.5,279.3c0,1.4-0.4,2.5-1.1,3.3c-0.7,0.8-1.7,1.2-3,1.2c-0.8,0-1.5-0.2-2.1-0.5
					c-0.6-0.4-1.1-0.9-1.4-1.6c-0.3-0.7-0.5-1.5-0.5-2.4c0-1.4,0.4-2.5,1.1-3.3c0.7-0.8,1.7-1.2,3-1.2c1.2,0,2.2,0.4,3,1.2
					C223.2,276.9,223.5,278,223.5,279.3z M217.3,279.3c0,2,0.7,3,2.2,3c1.5,0,2.2-1,2.2-3c0-2-0.7-3-2.2-3c-0.8,0-1.3,0.3-1.7,0.8
					C217.4,277.7,217.3,278.4,217.3,279.3z"/>
				<path fill="#FFFFFF" d="M232.9,283.7l-0.3-1.1h-0.1c-0.3,0.4-0.6,0.7-1.1,0.9c-0.5,0.2-1,0.3-1.6,0.3c-1,0-1.8-0.3-2.3-0.8
					s-0.8-1.3-0.8-2.4v-5.6h1.8v5.3c0,0.7,0.1,1.2,0.4,1.5c0.3,0.3,0.7,0.5,1.3,0.5c0.8,0,1.3-0.2,1.7-0.7c0.4-0.5,0.5-1.2,0.5-2.3
					v-4.3h1.8v8.6H232.9z"/>
				<path fill="#FFFFFF" d="M242.6,274.9c0.4,0,0.7,0,0.9,0.1l-0.2,1.7c-0.3-0.1-0.5-0.1-0.8-0.1c-0.7,0-1.3,0.2-1.8,0.7
					c-0.5,0.5-0.7,1.1-0.7,1.9v4.5h-1.8v-8.6h1.4l0.2,1.5h0.1c0.3-0.5,0.7-0.9,1.1-1.2S242,274.9,242.6,274.9z"/>
				<path fill="#FFFFFF" d="M255.4,283.8c-1.3,0-2.4-0.4-3.1-1.2c-0.8-0.8-1.1-1.9-1.1-3.2c0-1.4,0.4-2.5,1.1-3.3
					c0.7-0.8,1.7-1.2,2.9-1.2c1.1,0,2,0.3,2.7,1c0.7,0.7,1,1.6,1,2.9v1H253c0,0.8,0.3,1.5,0.7,1.9c0.4,0.4,1,0.7,1.8,0.7
					c0.5,0,1,0,1.4-0.1s0.9-0.3,1.4-0.5v1.5c-0.4,0.2-0.9,0.4-1.4,0.5S256,283.8,255.4,283.8z M255,276.3c-0.6,0-1,0.2-1.4,0.6
					s-0.6,0.9-0.6,1.6h3.9c0-0.7-0.2-1.3-0.5-1.6C256.1,276.5,255.6,276.3,255,276.3z"/>
				<path fill="#FFFFFF" d="M263.9,279.3l-2.9-4.2h2.1l2,3l2-3h2.1l-2.9,4.2l3,4.4h-2.1l-2.1-3.2l-2.1,3.2h-2.1L263.9,279.3z"/>
				<path fill="#FFFFFF" d="M276.4,283.8c-1.1,0-1.9-0.4-2.5-1.2h-0.1c0.1,0.7,0.1,1.2,0.1,1.3v3.5H272v-12.5h1.5
					c0,0.2,0.1,0.5,0.3,1.2h0.1c0.6-0.9,1.4-1.3,2.6-1.3c1.1,0,1.9,0.4,2.5,1.2c0.6,0.8,0.9,1.9,0.9,3.3s-0.3,2.5-0.9,3.3
					C278.3,283.4,277.4,283.8,276.4,283.8z M275.9,276.4c-0.7,0-1.3,0.2-1.6,0.6c-0.3,0.4-0.5,1.1-0.5,2v0.3c0,1,0.2,1.8,0.5,2.3
					c0.3,0.5,0.9,0.7,1.6,0.7c0.6,0,1.1-0.3,1.5-0.8s0.5-1.3,0.5-2.2c0-1-0.2-1.7-0.5-2.2C277.1,276.6,276.6,276.4,275.9,276.4z"/>
				<path fill="#FFFFFF" d="M285,283.7h-1.8v-12.1h1.8V283.7z"/>
				<path fill="#FFFFFF" d="M296.4,279.3c0,1.4-0.4,2.5-1.1,3.3c-0.7,0.8-1.7,1.2-3,1.2c-0.8,0-1.5-0.2-2.1-0.5
					c-0.6-0.4-1.1-0.9-1.4-1.6c-0.3-0.7-0.5-1.5-0.5-2.4c0-1.4,0.4-2.5,1.1-3.3c0.7-0.8,1.7-1.2,3-1.2c1.2,0,2.2,0.4,3,1.2
					C296.1,276.9,296.4,278,296.4,279.3z M290.1,279.3c0,2,0.7,3,2.2,3c1.5,0,2.2-1,2.2-3c0-2-0.7-3-2.2-3c-0.8,0-1.3,0.3-1.7,0.8
					C290.3,277.7,290.1,278.4,290.1,279.3z"/>
				<path fill="#FFFFFF" d="M304.1,274.9c0.4,0,0.7,0,0.9,0.1l-0.2,1.7c-0.3-0.1-0.5-0.1-0.8-0.1c-0.7,0-1.3,0.2-1.8,0.7
					c-0.5,0.5-0.7,1.1-0.7,1.9v4.5h-1.8v-8.6h1.4l0.2,1.5h0.1c0.3-0.5,0.7-0.9,1.1-1.2S303.6,274.9,304.1,274.9z"/>
				<path fill="#FFFFFF" d="M313.2,283.7l-0.4-1.2h-0.1c-0.4,0.5-0.8,0.9-1.3,1.1c-0.4,0.2-1,0.3-1.6,0.3c-0.8,0-1.5-0.2-2-0.7
					c-0.5-0.5-0.7-1.1-0.7-1.9c0-0.9,0.3-1.6,1-2c0.7-0.5,1.7-0.7,3-0.7l1.5,0v-0.5c0-0.6-0.1-1-0.4-1.2c-0.3-0.3-0.7-0.4-1.2-0.4
					c-0.4,0-0.9,0.1-1.3,0.2s-0.8,0.3-1.2,0.5l-0.6-1.3c0.5-0.2,1-0.4,1.5-0.6c0.6-0.1,1.1-0.2,1.6-0.2c1.1,0,1.9,0.2,2.5,0.7
					s0.8,1.2,0.8,2.3v5.8H313.2z M310.5,282.4c0.7,0,1.2-0.2,1.6-0.6c0.4-0.4,0.6-0.9,0.6-1.6v-0.7l-1.1,0c-0.9,0-1.5,0.2-1.9,0.4
					c-0.4,0.3-0.6,0.7-0.6,1.2c0,0.4,0.1,0.7,0.3,0.9S310,282.4,310.5,282.4z"/>
				<path fill="#FFFFFF" d="M321.5,282.3c0.4,0,0.9-0.1,1.3-0.2v1.4c-0.2,0.1-0.5,0.2-0.8,0.2c-0.3,0.1-0.7,0.1-1,0.1
					c-1.7,0-2.6-0.9-2.6-2.7v-4.6h-1.2v-0.8l1.3-0.7l0.6-1.8h1.1v1.9h2.5v1.4h-2.5v4.6c0,0.4,0.1,0.8,0.3,1S321.1,282.3,321.5,282.3
					z"/>
				<path fill="#FFFFFF" d="M325.6,272.8c0-0.3,0.1-0.6,0.3-0.8c0.2-0.2,0.4-0.3,0.8-0.3c0.3,0,0.6,0.1,0.8,0.3
					c0.2,0.2,0.3,0.4,0.3,0.8c0,0.3-0.1,0.6-0.3,0.7c-0.2,0.2-0.4,0.3-0.8,0.3c-0.3,0-0.6-0.1-0.8-0.3
					C325.7,273.3,325.6,273.1,325.6,272.8z M327.6,283.7h-1.8v-8.6h1.8V283.7z"/>
				<path fill="#FFFFFF" d="M339,279.3c0,1.4-0.4,2.5-1.1,3.3c-0.7,0.8-1.7,1.2-3,1.2c-0.8,0-1.5-0.2-2.1-0.5
					c-0.6-0.4-1.1-0.9-1.4-1.6c-0.3-0.7-0.5-1.5-0.5-2.4c0-1.4,0.4-2.5,1.1-3.3c0.7-0.8,1.7-1.2,3-1.2c1.2,0,2.2,0.4,3,1.2
					C338.7,276.9,339,278,339,279.3z M332.8,279.3c0,2,0.7,3,2.2,3c1.5,0,2.2-1,2.2-3c0-2-0.7-3-2.2-3c-0.8,0-1.3,0.3-1.7,0.8
					C332.9,277.7,332.8,278.4,332.8,279.3z"/>
				<path fill="#FFFFFF" d="M349.9,283.7h-1.8v-5.3c0-0.7-0.1-1.2-0.4-1.5c-0.3-0.3-0.7-0.5-1.3-0.5c-0.8,0-1.3,0.2-1.7,0.7
					c-0.4,0.5-0.5,1.2-0.5,2.3v4.3h-1.8v-8.6h1.4l0.3,1.1h0.1c0.3-0.4,0.6-0.7,1.1-1c0.5-0.2,1-0.3,1.6-0.3c2.1,0,3.1,1.1,3.1,3.2
					V283.7z"/>
				<path fill="#FFFFFF" d="M28.6,302.8l-1.1-4c-0.1-0.4-0.4-1.4-0.7-3h-0.1c-0.3,1.4-0.5,2.4-0.7,3l-1.1,4h-2l-2.4-8.6h1.9l1.1,4.2
					c0.2,1,0.4,1.9,0.5,2.7h0c0.1-0.4,0.1-0.8,0.2-1.3c0.1-0.5,0.2-0.9,0.3-1.1l1.3-4.5h2l1.3,4.5c0.1,0.3,0.2,0.6,0.3,1.2
					s0.2,0.9,0.2,1.2h0.1c0.1-0.6,0.3-1.5,0.5-2.7l1.1-4.2h1.8l-2.4,8.6H28.6z"/>
				<path fill="#FFFFFF" d="M35.7,291.9c0-0.3,0.1-0.6,0.3-0.8c0.2-0.2,0.4-0.3,0.8-0.3c0.3,0,0.6,0.1,0.8,0.3
					c0.2,0.2,0.3,0.4,0.3,0.8c0,0.3-0.1,0.6-0.3,0.7c-0.2,0.2-0.4,0.3-0.8,0.3c-0.3,0-0.6-0.1-0.8-0.3
					C35.8,292.5,35.7,292.2,35.7,291.9z M37.6,302.8h-1.8v-8.6h1.8V302.8z"/>
				<path fill="#FFFFFF" d="M44.6,301.5c0.4,0,0.9-0.1,1.3-0.2v1.4c-0.2,0.1-0.5,0.2-0.8,0.2c-0.3,0.1-0.7,0.1-1,0.1
					c-1.7,0-2.6-0.9-2.6-2.7v-4.6h-1.2v-0.8l1.3-0.7l0.6-1.8h1.1v1.9h2.5v1.4h-2.5v4.6c0,0.4,0.1,0.8,0.3,1S44.3,301.5,44.6,301.5z"
					/>
				<path fill="#FFFFFF" d="M56.5,302.8h-1.8v-5.3c0-0.7-0.1-1.2-0.4-1.5c-0.3-0.3-0.7-0.5-1.3-0.5c-0.8,0-1.3,0.2-1.7,0.7
					s-0.5,1.2-0.5,2.3v4.3h-1.8v-12.1h1.8v3.1c0,0.5,0,1-0.1,1.6h0.1c0.2-0.4,0.6-0.7,1-1c0.4-0.2,1-0.3,1.6-0.3
					c2.1,0,3.1,1.1,3.1,3.2V302.8z"/>
				<path fill="#FFFFFF" d="M69.9,295.6h-2.1v7.2H66v-7.2h-1.4v-0.9l1.4-0.6v-0.6c0-1,0.2-1.8,0.7-2.3c0.5-0.5,1.2-0.7,2.2-0.7
					c0.6,0,1.3,0.1,1.9,0.3l-0.5,1.4c-0.5-0.1-0.9-0.2-1.3-0.2c-0.4,0-0.7,0.1-0.9,0.4s-0.3,0.6-0.3,1.2v0.6h2.1V295.6z"/>
				<path fill="#FFFFFF" d="M76.9,294.1c0.4,0,0.7,0,0.9,0.1l-0.2,1.7c-0.3-0.1-0.5-0.1-0.8-0.1c-0.7,0-1.3,0.2-1.8,0.7
					c-0.5,0.5-0.7,1.1-0.7,1.9v4.5h-1.8v-8.6H74l0.2,1.5h0.1c0.3-0.5,0.7-0.9,1.1-1.2S76.4,294.1,76.9,294.1z"/>
				<path fill="#FFFFFF" d="M80.5,291.9c0-0.3,0.1-0.6,0.3-0.8c0.2-0.2,0.4-0.3,0.8-0.3c0.3,0,0.6,0.1,0.8,0.3
					c0.2,0.2,0.3,0.4,0.3,0.8c0,0.3-0.1,0.6-0.3,0.7c-0.2,0.2-0.4,0.3-0.8,0.3c-0.3,0-0.6-0.1-0.8-0.3
					C80.6,292.5,80.5,292.2,80.5,291.9z M82.5,302.8h-1.8v-8.6h1.8V302.8z"/>
				<path fill="#FFFFFF" d="M90.1,303c-1.3,0-2.4-0.4-3.1-1.2c-0.8-0.8-1.1-1.9-1.1-3.2c0-1.4,0.4-2.5,1.1-3.3
					c0.7-0.8,1.7-1.2,2.9-1.2c1.1,0,2,0.3,2.7,1c0.7,0.7,1,1.6,1,2.9v1h-5.7c0,0.8,0.3,1.5,0.7,1.9c0.4,0.4,1,0.7,1.8,0.7
					c0.5,0,1,0,1.4-0.1s0.9-0.3,1.4-0.5v1.5c-0.4,0.2-0.9,0.4-1.4,0.5S90.7,303,90.1,303z M89.7,295.4c-0.6,0-1,0.2-1.4,0.6
					s-0.6,0.9-0.6,1.6h3.9c0-0.7-0.2-1.3-0.5-1.6C90.8,295.6,90.3,295.4,89.7,295.4z"/>
				<path fill="#FFFFFF" d="M104.3,302.8h-1.8v-5.3c0-0.7-0.1-1.2-0.4-1.5c-0.3-0.3-0.7-0.5-1.3-0.5c-0.8,0-1.3,0.2-1.7,0.7
					c-0.4,0.5-0.5,1.2-0.5,2.3v4.3h-1.8v-8.6h1.4l0.3,1.1h0.1c0.3-0.4,0.6-0.7,1.1-1c0.5-0.2,1-0.3,1.6-0.3c2.1,0,3.1,1.1,3.1,3.2
					V302.8z"/>
				<path fill="#FFFFFF" d="M110.9,303c-1.1,0-1.9-0.4-2.5-1.2s-0.9-1.9-0.9-3.3c0-1.4,0.3-2.5,0.9-3.3c0.6-0.8,1.5-1.2,2.5-1.2
					c1.1,0,2,0.4,2.6,1.3h0.1c-0.1-0.6-0.1-1.1-0.1-1.5v-3.1h1.8v12.1h-1.4l-0.3-1.1h-0.1C112.9,302.6,112.1,303,110.9,303z
					 M111.4,301.5c0.8,0,1.3-0.2,1.6-0.6c0.3-0.4,0.5-1.1,0.5-2.1v-0.3c0-1.1-0.2-1.9-0.5-2.3c-0.4-0.5-0.9-0.7-1.7-0.7
					c-0.6,0-1.1,0.3-1.5,0.8c-0.3,0.5-0.5,1.3-0.5,2.2c0,1,0.2,1.7,0.5,2.2S110.7,301.5,111.4,301.5z"/>
				<path fill="#FFFFFF" d="M125,300.4c0,0.8-0.3,1.5-0.9,1.9c-0.6,0.4-1.5,0.7-2.6,0.7c-1.1,0-2.1-0.2-2.8-0.5v-1.6
					c1,0.5,2,0.7,2.8,0.7c1.1,0,1.7-0.3,1.7-1c0-0.2-0.1-0.4-0.2-0.5c-0.1-0.1-0.3-0.3-0.6-0.5c-0.3-0.2-0.7-0.3-1.2-0.5
					c-1-0.4-1.7-0.8-2-1.2c-0.4-0.4-0.5-0.9-0.5-1.5c0-0.7,0.3-1.3,0.9-1.7c0.6-0.4,1.4-0.6,2.4-0.6c1,0,2,0.2,2.9,0.6l-0.6,1.4
					c-0.9-0.4-1.7-0.6-2.3-0.6c-1,0-1.4,0.3-1.4,0.8c0,0.3,0.1,0.5,0.4,0.7s0.8,0.4,1.6,0.8c0.7,0.3,1.2,0.5,1.6,0.8
					s0.6,0.5,0.7,0.8C124.9,299.6,125,300,125,300.4z"/>
				<path fill="#FFFFFF" d="M139.3,300.4c0,0.8-0.3,1.5-0.9,1.9c-0.6,0.4-1.5,0.7-2.6,0.7c-1.1,0-2.1-0.2-2.8-0.5v-1.6
					c1,0.5,2,0.7,2.8,0.7c1.1,0,1.7-0.3,1.7-1c0-0.2-0.1-0.4-0.2-0.5c-0.1-0.1-0.3-0.3-0.6-0.5c-0.3-0.2-0.7-0.3-1.2-0.5
					c-1-0.4-1.7-0.8-2-1.2c-0.4-0.4-0.5-0.9-0.5-1.5c0-0.7,0.3-1.3,0.9-1.7c0.6-0.4,1.4-0.6,2.4-0.6c1,0,2,0.2,2.9,0.6l-0.6,1.4
					c-0.9-0.4-1.7-0.6-2.3-0.6c-1,0-1.4,0.3-1.4,0.8c0,0.3,0.1,0.5,0.4,0.7s0.8,0.4,1.6,0.8c0.7,0.3,1.2,0.5,1.6,0.8
					s0.6,0.5,0.7,0.8C139.2,299.6,139.3,300,139.3,300.4z"/>
				<path fill="#FFFFFF" d="M145.7,301.5c0.4,0,0.9-0.1,1.3-0.2v1.4c-0.2,0.1-0.5,0.2-0.8,0.2c-0.3,0.1-0.7,0.1-1,0.1
					c-1.7,0-2.6-0.9-2.6-2.7v-4.6h-1.2v-0.8l1.3-0.7l0.6-1.8h1.1v1.9h2.5v1.4h-2.5v4.6c0,0.4,0.1,0.8,0.3,1S145.3,301.5,145.7,301.5
					z"/>
				<path fill="#FFFFFF" d="M154.3,294.1c0.4,0,0.7,0,0.9,0.1l-0.2,1.7c-0.3-0.1-0.5-0.1-0.8-0.1c-0.7,0-1.3,0.2-1.8,0.7
					c-0.5,0.5-0.7,1.1-0.7,1.9v4.5h-1.8v-8.6h1.4l0.2,1.5h0.1c0.3-0.5,0.7-0.9,1.1-1.2S153.8,294.1,154.3,294.1z"/>
				<path fill="#FFFFFF" d="M163.4,302.8l-0.4-1.2H163c-0.4,0.5-0.8,0.9-1.3,1.1c-0.4,0.2-1,0.3-1.6,0.3c-0.8,0-1.5-0.2-2-0.7
					c-0.5-0.5-0.7-1.1-0.7-1.9c0-0.9,0.3-1.6,1-2c0.7-0.5,1.7-0.7,3-0.7l1.5,0v-0.5c0-0.6-0.1-1-0.4-1.2c-0.3-0.3-0.7-0.4-1.2-0.4
					c-0.4,0-0.9,0.1-1.3,0.2s-0.8,0.3-1.2,0.5l-0.6-1.3c0.5-0.2,1-0.4,1.5-0.6c0.6-0.1,1.1-0.2,1.6-0.2c1.1,0,1.9,0.2,2.5,0.7
					s0.8,1.2,0.8,2.3v5.8H163.4z M160.7,301.6c0.7,0,1.2-0.2,1.6-0.6c0.4-0.4,0.6-0.9,0.6-1.6v-0.7l-1.1,0c-0.9,0-1.5,0.2-1.9,0.4
					c-0.4,0.3-0.6,0.7-0.6,1.2c0,0.4,0.1,0.7,0.3,0.9S160.2,301.6,160.7,301.6z"/>
				<path fill="#FFFFFF" d="M168.3,291.9c0-0.3,0.1-0.6,0.3-0.8c0.2-0.2,0.4-0.3,0.8-0.3c0.3,0,0.6,0.1,0.8,0.3
					c0.2,0.2,0.3,0.4,0.3,0.8c0,0.3-0.1,0.6-0.3,0.7c-0.2,0.2-0.4,0.3-0.8,0.3c-0.3,0-0.6-0.1-0.8-0.3
					C168.4,292.5,168.3,292.2,168.3,291.9z M170.3,302.8h-1.8v-8.6h1.8V302.8z"/>
				<path fill="#FFFFFF" d="M181.4,294.2v1l-1.5,0.3c0.1,0.2,0.2,0.4,0.3,0.7s0.1,0.5,0.1,0.8c0,0.9-0.3,1.6-0.9,2.1
					s-1.5,0.8-2.5,0.8c-0.3,0-0.5,0-0.7-0.1c-0.4,0.2-0.6,0.5-0.6,0.9c0,0.2,0.1,0.3,0.3,0.4c0.2,0.1,0.5,0.1,1,0.1h1.5
					c1,0,1.7,0.2,2.2,0.6c0.5,0.4,0.7,1,0.7,1.8c0,1-0.4,1.7-1.2,2.3c-0.8,0.5-2,0.8-3.5,0.8c-1.2,0-2.1-0.2-2.7-0.6
					c-0.6-0.4-0.9-1-0.9-1.8c0-0.5,0.2-1,0.5-1.3c0.3-0.4,0.8-0.6,1.4-0.8c-0.2-0.1-0.4-0.3-0.6-0.5c-0.2-0.2-0.2-0.5-0.2-0.7
					c0-0.3,0.1-0.6,0.3-0.8c0.2-0.2,0.5-0.4,0.8-0.7c-0.4-0.2-0.8-0.5-1.1-0.9c-0.3-0.4-0.4-0.9-0.4-1.5c0-0.9,0.3-1.7,0.9-2.2
					c0.6-0.5,1.4-0.8,2.5-0.8c0.2,0,0.5,0,0.8,0.1s0.5,0.1,0.6,0.1H181.4z M174.6,304.2c0,0.4,0.2,0.7,0.5,0.9
					c0.4,0.2,0.9,0.3,1.5,0.3c1,0,1.7-0.1,2.2-0.4c0.5-0.3,0.7-0.7,0.7-1.1c0-0.4-0.1-0.6-0.4-0.8c-0.3-0.2-0.8-0.2-1.5-0.2h-1.4
					c-0.5,0-0.9,0.1-1.3,0.4C174.8,303.4,174.6,303.7,174.6,304.2z M175.4,297c0,0.5,0.1,1,0.4,1.2c0.3,0.3,0.7,0.4,1.2,0.4
					c1.1,0,1.6-0.6,1.6-1.7c0-0.6-0.1-1-0.4-1.3c-0.3-0.3-0.7-0.5-1.2-0.5c-0.5,0-0.9,0.2-1.2,0.5C175.5,296,175.4,296.4,175.4,297z
					"/>
				<path fill="#FFFFFF" d="M191.8,302.8h-1.8v-5.3c0-0.7-0.1-1.2-0.4-1.5c-0.3-0.3-0.7-0.5-1.3-0.5c-0.8,0-1.3,0.2-1.7,0.7
					s-0.5,1.2-0.5,2.3v4.3h-1.8v-12.1h1.8v3.1c0,0.5,0,1-0.1,1.6h0.1c0.2-0.4,0.6-0.7,1-1c0.4-0.2,1-0.3,1.6-0.3
					c2.1,0,3.1,1.1,3.1,3.2V302.8z"/>
				<path fill="#FFFFFF" d="M198.7,301.5c0.4,0,0.9-0.1,1.3-0.2v1.4c-0.2,0.1-0.5,0.2-0.8,0.2c-0.3,0.1-0.7,0.1-1,0.1
					c-1.7,0-2.6-0.9-2.6-2.7v-4.6h-1.2v-0.8l1.3-0.7l0.6-1.8h1.1v1.9h2.5v1.4h-2.5v4.6c0,0.4,0.1,0.8,0.3,1S198.4,301.5,198.7,301.5
					z"/>
				<path fill="#FFFFFF" d="M213.7,302.8l-0.4-1.2h-0.1c-0.4,0.5-0.8,0.9-1.3,1.1c-0.4,0.2-1,0.3-1.6,0.3c-0.8,0-1.5-0.2-2-0.7
					c-0.5-0.5-0.7-1.1-0.7-1.9c0-0.9,0.3-1.6,1-2c0.7-0.5,1.7-0.7,3-0.7l1.5,0v-0.5c0-0.6-0.1-1-0.4-1.2c-0.3-0.3-0.7-0.4-1.2-0.4
					c-0.4,0-0.9,0.1-1.3,0.2s-0.8,0.3-1.2,0.5l-0.6-1.3c0.5-0.2,1-0.4,1.5-0.6c0.6-0.1,1.1-0.2,1.6-0.2c1.1,0,1.9,0.2,2.5,0.7
					s0.8,1.2,0.8,2.3v5.8H213.7z M211,301.6c0.7,0,1.2-0.2,1.6-0.6c0.4-0.4,0.6-0.9,0.6-1.6v-0.7l-1.1,0c-0.9,0-1.5,0.2-1.9,0.4
					c-0.4,0.3-0.6,0.7-0.6,1.2c0,0.4,0.1,0.7,0.3,0.9S210.5,301.6,211,301.6z"/>
				<path fill="#FFFFFF" d="M225.8,302.8l-1.1-4c-0.1-0.4-0.4-1.4-0.7-3h-0.1c-0.3,1.4-0.5,2.4-0.7,3l-1.1,4h-2l-2.4-8.6h1.9
					l1.1,4.2c0.2,1,0.4,1.9,0.5,2.7h0c0.1-0.4,0.1-0.8,0.2-1.3c0.1-0.5,0.2-0.9,0.3-1.1l1.3-4.5h2l1.3,4.5c0.1,0.3,0.2,0.6,0.3,1.2
					s0.2,0.9,0.2,1.2h0.1c0.1-0.6,0.3-1.5,0.5-2.7l1.1-4.2h1.8l-2.4,8.6H225.8z"/>
				<path fill="#FFFFFF" d="M238.4,302.8l-0.4-1.2H238c-0.4,0.5-0.8,0.9-1.3,1.1c-0.4,0.2-1,0.3-1.6,0.3c-0.8,0-1.5-0.2-2-0.7
					c-0.5-0.5-0.7-1.1-0.7-1.9c0-0.9,0.3-1.6,1-2c0.7-0.5,1.7-0.7,3-0.7l1.5,0v-0.5c0-0.6-0.1-1-0.4-1.2c-0.3-0.3-0.7-0.4-1.2-0.4
					c-0.4,0-0.9,0.1-1.3,0.2s-0.8,0.3-1.2,0.5l-0.6-1.3c0.5-0.2,1-0.4,1.5-0.6c0.6-0.1,1.1-0.2,1.6-0.2c1.1,0,1.9,0.2,2.5,0.7
					s0.8,1.2,0.8,2.3v5.8H238.4z M235.7,301.6c0.7,0,1.2-0.2,1.6-0.6c0.4-0.4,0.6-0.9,0.6-1.6v-0.7l-1.1,0c-0.9,0-1.5,0.2-1.9,0.4
					c-0.4,0.3-0.6,0.7-0.6,1.2c0,0.4,0.1,0.7,0.3,0.9S235.2,301.6,235.7,301.6z"/>
				<path fill="#FFFFFF" d="M242.2,294.2h2l1.8,4.9c0.3,0.7,0.4,1.4,0.5,2h0.1c0-0.3,0.1-0.6,0.3-1c0.1-0.4,0.8-2.3,2-5.8h2L247,304
					c-0.7,1.8-1.8,2.7-3.4,2.7c-0.4,0-0.8,0-1.2-0.1v-1.4c0.3,0.1,0.6,0.1,0.9,0.1c0.9,0,1.5-0.5,1.9-1.5l0.3-0.8L242.2,294.2z"/>
				<path fill="#FFFFFF" d="M265.6,302.8l-1.1-4c-0.1-0.4-0.4-1.4-0.7-3h-0.1c-0.3,1.4-0.5,2.4-0.7,3l-1.1,4h-2l-2.4-8.6h1.9
					l1.1,4.2c0.2,1,0.4,1.9,0.5,2.7h0c0.1-0.4,0.1-0.8,0.2-1.3c0.1-0.5,0.2-0.9,0.3-1.1l1.3-4.5h2l1.3,4.5c0.1,0.3,0.2,0.6,0.3,1.2
					s0.2,0.9,0.2,1.2h0.1c0.1-0.6,0.3-1.5,0.5-2.7l1.1-4.2h1.8l-2.4,8.6H265.6z"/>
				<path fill="#FFFFFF" d="M272.7,291.9c0-0.3,0.1-0.6,0.3-0.8c0.2-0.2,0.4-0.3,0.8-0.3c0.3,0,0.6,0.1,0.8,0.3
					c0.2,0.2,0.3,0.4,0.3,0.8c0,0.3-0.1,0.6-0.3,0.7c-0.2,0.2-0.4,0.3-0.8,0.3c-0.3,0-0.6-0.1-0.8-0.3
					C272.8,292.5,272.7,292.2,272.7,291.9z M274.6,302.8h-1.8v-8.6h1.8V302.8z"/>
				<path fill="#FFFFFF" d="M281.7,301.5c0.4,0,0.9-0.1,1.3-0.2v1.4c-0.2,0.1-0.5,0.2-0.8,0.2c-0.3,0.1-0.7,0.1-1,0.1
					c-1.7,0-2.6-0.9-2.6-2.7v-4.6h-1.2v-0.8l1.3-0.7l0.6-1.8h1.1v1.9h2.5v1.4h-2.5v4.6c0,0.4,0.1,0.8,0.3,1S281.3,301.5,281.7,301.5
					z"/>
				<path fill="#FFFFFF" d="M293.5,302.8h-1.8v-5.3c0-0.7-0.1-1.2-0.4-1.5c-0.3-0.3-0.7-0.5-1.3-0.5c-0.8,0-1.3,0.2-1.7,0.7
					s-0.5,1.2-0.5,2.3v4.3h-1.8v-12.1h1.8v3.1c0,0.5,0,1-0.1,1.6h0.1c0.2-0.4,0.6-0.7,1-1c0.4-0.2,1-0.3,1.6-0.3
					c2.1,0,3.1,1.1,3.1,3.2V302.8z"/>
				<path fill="#FFFFFF" d="M23.6,322h-1.8v-11.4h6.4v1.6h-4.6v3.6h4.3v1.6h-4.3V322z"/>
				<path fill="#FFFFFF" d="M35,322.1c-1.3,0-2.4-0.4-3.1-1.2c-0.8-0.8-1.1-1.9-1.1-3.2c0-1.4,0.4-2.5,1.1-3.3
					c0.7-0.8,1.7-1.2,2.9-1.2c1.1,0,2,0.3,2.7,1c0.7,0.7,1,1.6,1,2.9v1h-5.7c0,0.8,0.3,1.5,0.7,1.9c0.4,0.4,1,0.7,1.8,0.7
					c0.5,0,1,0,1.4-0.1s0.9-0.3,1.4-0.5v1.5c-0.4,0.2-0.9,0.4-1.4,0.5S35.6,322.1,35,322.1z M34.7,314.6c-0.6,0-1,0.2-1.4,0.6
					s-0.6,0.9-0.6,1.6h3.9c0-0.7-0.2-1.3-0.5-1.6C35.7,314.8,35.3,314.6,34.7,314.6z"/>
				<path fill="#FFFFFF" d="M44.5,322.1c-1.1,0-1.9-0.4-2.5-1.2s-0.9-1.9-0.9-3.3c0-1.4,0.3-2.5,0.9-3.3c0.6-0.8,1.5-1.2,2.5-1.2
					c1.1,0,2,0.4,2.6,1.3h0.1c-0.1-0.6-0.1-1.1-0.1-1.5v-3.1H49V322h-1.4l-0.3-1.1h-0.1C46.5,321.7,45.7,322.1,44.5,322.1z
					 M45,320.7c0.8,0,1.3-0.2,1.6-0.6c0.3-0.4,0.5-1.1,0.5-2.1v-0.3c0-1.1-0.2-1.9-0.5-2.3c-0.4-0.5-0.9-0.7-1.7-0.7
					c-0.6,0-1.1,0.3-1.5,0.8c-0.3,0.5-0.5,1.3-0.5,2.2c0,1,0.2,1.7,0.5,2.2S44.4,320.7,45,320.7z"/>
				<path fill="#FFFFFF" d="M64.9,318.9c0,1-0.4,1.8-1.1,2.4c-0.7,0.6-1.7,0.9-3,0.9c-1.3,0-2.3-0.2-3.2-0.6v-1.8
					c0.5,0.2,1.1,0.4,1.7,0.6c0.6,0.1,1.1,0.2,1.6,0.2c0.7,0,1.3-0.1,1.6-0.4s0.5-0.7,0.5-1.1c0-0.4-0.2-0.8-0.5-1.1
					c-0.3-0.3-1-0.6-2-1.1c-1-0.4-1.8-0.9-2.2-1.4c-0.4-0.5-0.6-1.2-0.6-1.9c0-1,0.3-1.7,1-2.2c0.7-0.5,1.6-0.8,2.7-0.8
					c1.1,0,2.2,0.2,3.3,0.7l-0.6,1.5c-1-0.4-1.9-0.6-2.7-0.6c-0.6,0-1.1,0.1-1.4,0.4c-0.3,0.3-0.5,0.6-0.5,1c0,0.3,0.1,0.5,0.2,0.8
					s0.3,0.4,0.6,0.6c0.3,0.2,0.8,0.4,1.5,0.7c0.8,0.3,1.4,0.7,1.8,1c0.4,0.3,0.7,0.6,0.9,1C64.8,317.9,64.9,318.4,64.9,318.9z"/>
				<path fill="#FFFFFF" d="M71,322.1c-1.1,0-1.9-0.4-2.5-1.2s-0.9-1.9-0.9-3.3c0-1.4,0.3-2.5,0.9-3.3c0.6-0.8,1.5-1.2,2.5-1.2
					c0.5,0,1,0.1,1.5,0.3s0.8,0.5,1.2,1h0.1l0.2-1.1h1.5v12.5h-1.8v-3.7c0-0.2,0-0.5,0-0.7c0-0.3,0-0.4,0.1-0.6h-0.1
					C73,321.7,72.2,322.1,71,322.1z M71.5,320.7c0.8,0,1.3-0.2,1.7-0.7c0.3-0.4,0.5-1.1,0.5-2v-0.3c0-1.1-0.2-1.8-0.5-2.3
					c-0.3-0.5-0.9-0.7-1.7-0.7c-0.7,0-1.2,0.3-1.5,0.8c-0.3,0.5-0.5,1.3-0.5,2.2C69.5,319.7,70.2,320.7,71.5,320.7z"/>
				<path fill="#FFFFFF" d="M85.3,322l-0.3-1.1H85c-0.3,0.4-0.6,0.7-1.1,0.9c-0.5,0.2-1,0.3-1.6,0.3c-1,0-1.8-0.3-2.3-0.8
					s-0.8-1.3-0.8-2.4v-5.6H81v5.3c0,0.7,0.1,1.2,0.4,1.5c0.3,0.3,0.7,0.5,1.3,0.5c0.8,0,1.3-0.2,1.7-0.7c0.4-0.5,0.5-1.2,0.5-2.3
					v-4.3h1.8v8.6H85.3z"/>
				<path fill="#FFFFFF" d="M96,322l-0.4-1.2h-0.1c-0.4,0.5-0.8,0.9-1.3,1.1c-0.4,0.2-1,0.3-1.6,0.3c-0.8,0-1.5-0.2-2-0.7
					c-0.5-0.5-0.7-1.1-0.7-1.9c0-0.9,0.3-1.6,1-2c0.7-0.5,1.7-0.7,3-0.7l1.5,0v-0.5c0-0.6-0.1-1-0.4-1.2c-0.3-0.3-0.7-0.4-1.2-0.4
					c-0.4,0-0.9,0.1-1.3,0.2s-0.8,0.3-1.2,0.5l-0.6-1.3c0.5-0.2,1-0.4,1.5-0.6c0.6-0.1,1.1-0.2,1.6-0.2c1.1,0,1.9,0.2,2.5,0.7
					s0.8,1.2,0.8,2.3v5.8H96z M93.2,320.7c0.7,0,1.2-0.2,1.6-0.6c0.4-0.4,0.6-0.9,0.6-1.6v-0.7l-1.1,0c-0.9,0-1.5,0.2-1.9,0.4
					c-0.4,0.3-0.6,0.7-0.6,1.2c0,0.4,0.1,0.7,0.3,0.9S92.8,320.7,93.2,320.7z"/>
				<path fill="#FFFFFF" d="M105.4,313.2c0.4,0,0.7,0,0.9,0.1l-0.2,1.7c-0.3-0.1-0.5-0.1-0.8-0.1c-0.7,0-1.3,0.2-1.8,0.7
					c-0.5,0.5-0.7,1.1-0.7,1.9v4.5H101v-8.6h1.4l0.2,1.5h0.1c0.3-0.5,0.7-0.9,1.1-1.2S104.9,313.2,105.4,313.2z"/>
				<path fill="#FFFFFF" d="M112.9,322.1c-1.3,0-2.4-0.4-3.1-1.2c-0.8-0.8-1.1-1.9-1.1-3.2c0-1.4,0.4-2.5,1.1-3.3
					c0.7-0.8,1.7-1.2,2.9-1.2c1.1,0,2,0.3,2.7,1c0.7,0.7,1,1.6,1,2.9v1h-5.7c0,0.8,0.3,1.5,0.7,1.9c0.4,0.4,1,0.7,1.8,0.7
					c0.5,0,1,0,1.4-0.1s0.9-0.3,1.4-0.5v1.5c-0.4,0.2-0.9,0.4-1.4,0.5S113.5,322.1,112.9,322.1z M112.5,314.6c-0.6,0-1,0.2-1.4,0.6
					s-0.6,0.9-0.6,1.6h3.9c0-0.7-0.2-1.3-0.5-1.6C113.6,314.8,113.1,314.6,112.5,314.6z"/>
				<path fill="#FFFFFF" d="M121,310.6l-0.3,4.1h-1.2l-0.3-4.1H121z"/>
				<path fill="#FFFFFF" d="M130.4,319.5c0,0.8-0.3,1.5-0.9,1.9c-0.6,0.4-1.5,0.7-2.6,0.7c-1.1,0-2.1-0.2-2.8-0.5V320
					c1,0.5,2,0.7,2.8,0.7c1.1,0,1.7-0.3,1.7-1c0-0.2-0.1-0.4-0.2-0.5c-0.1-0.1-0.3-0.3-0.6-0.5c-0.3-0.2-0.7-0.3-1.2-0.5
					c-1-0.4-1.7-0.8-2-1.2c-0.4-0.4-0.5-0.9-0.5-1.5c0-0.7,0.3-1.3,0.9-1.7c0.6-0.4,1.4-0.6,2.4-0.6c1,0,2,0.2,2.9,0.6l-0.6,1.4
					c-0.9-0.4-1.7-0.6-2.3-0.6c-1,0-1.4,0.3-1.4,0.8c0,0.3,0.1,0.5,0.4,0.7s0.8,0.4,1.6,0.8c0.7,0.3,1.2,0.5,1.6,0.8
					s0.6,0.5,0.7,0.8C130.3,318.8,130.4,319.1,130.4,319.5z"/>
				<path fill="#FFFFFF" d="M140.7,322h-1.8v-12.1h1.8V322z"/>
				<path fill="#FFFFFF" d="M144.4,311.1c0-0.3,0.1-0.6,0.3-0.8c0.2-0.2,0.4-0.3,0.8-0.3c0.3,0,0.6,0.1,0.8,0.3
					c0.2,0.2,0.3,0.4,0.3,0.8c0,0.3-0.1,0.6-0.3,0.7c-0.2,0.2-0.4,0.3-0.8,0.3c-0.3,0-0.6-0.1-0.8-0.3
					C144.5,311.6,144.4,311.4,144.4,311.1z M146.4,322h-1.8v-8.6h1.8V322z"/>
				<path fill="#FFFFFF" d="M157.5,322h-1.8v-5.3c0-0.7-0.1-1.2-0.4-1.5c-0.2-0.3-0.6-0.5-1.2-0.5c-0.7,0-1.2,0.2-1.6,0.7
					s-0.5,1.2-0.5,2.3v4.3h-1.8v-8.6h1.4l0.3,1.1h0.1c0.2-0.4,0.6-0.7,1-1c0.5-0.2,1-0.3,1.5-0.3c1.3,0,2.2,0.5,2.6,1.4h0.1
					c0.3-0.4,0.6-0.8,1.1-1c0.5-0.2,1-0.4,1.6-0.4c1,0,1.8,0.3,2.2,0.8c0.5,0.5,0.7,1.3,0.7,2.4v5.6h-1.8v-5.3
					c0-0.7-0.1-1.2-0.4-1.5c-0.3-0.3-0.6-0.5-1.2-0.5c-0.7,0-1.2,0.2-1.6,0.7s-0.5,1.1-0.5,2V322z"/>
				<path fill="#FFFFFF" d="M166.5,311.1c0-0.3,0.1-0.6,0.3-0.8c0.2-0.2,0.4-0.3,0.8-0.3c0.3,0,0.6,0.1,0.8,0.3
					c0.2,0.2,0.3,0.4,0.3,0.8c0,0.3-0.1,0.6-0.3,0.7c-0.2,0.2-0.4,0.3-0.8,0.3c-0.3,0-0.6-0.1-0.8-0.3
					C166.6,311.6,166.5,311.4,166.5,311.1z M168.5,322h-1.8v-8.6h1.8V322z"/>
				<path fill="#FFFFFF" d="M175.5,320.7c0.4,0,0.9-0.1,1.3-0.2v1.4c-0.2,0.1-0.5,0.2-0.8,0.2c-0.3,0.1-0.7,0.1-1,0.1
					c-1.7,0-2.6-0.9-2.6-2.7v-4.6h-1.2v-0.8l1.3-0.7l0.6-1.8h1.1v1.9h2.5v1.4h-2.5v4.6c0,0.4,0.1,0.8,0.3,1S175.1,320.7,175.5,320.7
					z"/>
				<path fill="#FFFFFF" d="M181.6,322h-1.8v-12.1h1.8V322z"/>
				<path fill="#FFFFFF" d="M189.2,322.1c-1.3,0-2.4-0.4-3.1-1.2c-0.8-0.8-1.1-1.9-1.1-3.2c0-1.4,0.4-2.5,1.1-3.3
					c0.7-0.8,1.7-1.2,2.9-1.2c1.1,0,2,0.3,2.7,1c0.7,0.7,1,1.6,1,2.9v1h-5.7c0,0.8,0.3,1.5,0.7,1.9c0.4,0.4,1,0.7,1.8,0.7
					c0.5,0,1,0,1.4-0.1s0.9-0.3,1.4-0.5v1.5c-0.4,0.2-0.9,0.4-1.4,0.5S189.8,322.1,189.2,322.1z M188.8,314.6c-0.6,0-1,0.2-1.4,0.6
					s-0.6,0.9-0.6,1.6h3.9c0-0.7-0.2-1.3-0.5-1.6C189.9,314.8,189.4,314.6,188.8,314.6z"/>
				<path fill="#FFFFFF" d="M201.6,319.5c0,0.8-0.3,1.5-0.9,1.9c-0.6,0.4-1.5,0.7-2.6,0.7c-1.1,0-2.1-0.2-2.8-0.5V320
					c1,0.5,2,0.7,2.8,0.7c1.1,0,1.7-0.3,1.7-1c0-0.2-0.1-0.4-0.2-0.5c-0.1-0.1-0.3-0.3-0.6-0.5c-0.3-0.2-0.7-0.3-1.2-0.5
					c-1-0.4-1.7-0.8-2-1.2c-0.4-0.4-0.5-0.9-0.5-1.5c0-0.7,0.3-1.3,0.9-1.7c0.6-0.4,1.4-0.6,2.4-0.6c1,0,2,0.2,2.9,0.6l-0.6,1.4
					c-0.9-0.4-1.7-0.6-2.3-0.6c-1,0-1.4,0.3-1.4,0.8c0,0.3,0.1,0.5,0.4,0.7s0.8,0.4,1.6,0.8c0.7,0.3,1.2,0.5,1.6,0.8
					s0.6,0.5,0.7,0.8C201.5,318.8,201.6,319.1,201.6,319.5z"/>
				<path fill="#FFFFFF" d="M210.6,319.5c0,0.8-0.3,1.5-0.9,1.9c-0.6,0.4-1.5,0.7-2.6,0.7c-1.1,0-2.1-0.2-2.8-0.5V320
					c1,0.5,2,0.7,2.8,0.7c1.1,0,1.7-0.3,1.7-1c0-0.2-0.1-0.4-0.2-0.5c-0.1-0.1-0.3-0.3-0.6-0.5c-0.3-0.2-0.7-0.3-1.2-0.5
					c-1-0.4-1.7-0.8-2-1.2c-0.4-0.4-0.5-0.9-0.5-1.5c0-0.7,0.3-1.3,0.9-1.7c0.6-0.4,1.4-0.6,2.4-0.6c1,0,2,0.2,2.9,0.6l-0.6,1.4
					c-0.9-0.4-1.7-0.6-2.3-0.6c-1,0-1.4,0.3-1.4,0.8c0,0.3,0.1,0.5,0.4,0.7s0.8,0.4,1.6,0.8c0.7,0.3,1.2,0.5,1.6,0.8
					s0.6,0.5,0.7,0.8C210.5,318.8,210.6,319.1,210.6,319.5z"/>
				<path fill="#FFFFFF" d="M223.5,322.1c-1.1,0-1.9-0.4-2.5-1.2h-0.1c0.1,0.7,0.1,1.2,0.1,1.3v3.5h-1.8v-12.5h1.5
					c0,0.2,0.1,0.5,0.3,1.2h0.1c0.6-0.9,1.4-1.3,2.6-1.3c1.1,0,1.9,0.4,2.5,1.2c0.6,0.8,0.9,1.9,0.9,3.3s-0.3,2.5-0.9,3.3
					C225.4,321.7,224.5,322.1,223.5,322.1z M223,314.7c-0.7,0-1.3,0.2-1.6,0.6c-0.3,0.4-0.5,1.1-0.5,2v0.3c0,1,0.2,1.8,0.5,2.3
					c0.3,0.5,0.9,0.7,1.6,0.7c0.6,0,1.1-0.3,1.5-0.8s0.5-1.3,0.5-2.2c0-1-0.2-1.7-0.5-2.2C224.2,315,223.7,314.7,223,314.7z"/>
				<path fill="#FFFFFF" d="M236.3,322l-0.3-1.1H236c-0.3,0.4-0.6,0.7-1.1,0.9c-0.5,0.2-1,0.3-1.6,0.3c-1,0-1.8-0.3-2.3-0.8
					s-0.8-1.3-0.8-2.4v-5.6h1.8v5.3c0,0.7,0.1,1.2,0.4,1.5c0.3,0.3,0.7,0.5,1.3,0.5c0.8,0,1.3-0.2,1.7-0.7c0.4-0.5,0.5-1.2,0.5-2.3
					v-4.3h1.8v8.6H236.3z"/>
				<path fill="#FFFFFF" d="M246,313.2c1.1,0,1.9,0.4,2.5,1.2c0.6,0.8,0.9,1.9,0.9,3.3c0,1.4-0.3,2.5-0.9,3.3
					c-0.6,0.8-1.5,1.2-2.5,1.2c-1.1,0-1.9-0.4-2.5-1.2h-0.1l-0.3,1h-1.4v-12.1h1.8v2.9c0,0.2,0,0.5,0,1c0,0.4,0,0.7,0,0.8h0.1
					C244,313.6,244.8,313.2,246,313.2z M245.5,314.7c-0.7,0-1.3,0.2-1.6,0.7c-0.3,0.4-0.5,1.2-0.5,2.2v0.1c0,1,0.2,1.8,0.5,2.3
					c0.3,0.5,0.9,0.7,1.6,0.7c0.6,0,1.1-0.3,1.5-0.8c0.3-0.5,0.5-1.3,0.5-2.2C247.5,315.7,246.8,314.7,245.5,314.7z"/>
				<path fill="#FFFFFF" d="M254.5,322h-1.8v-12.1h1.8V322z"/>
				<path fill="#FFFFFF" d="M258.2,311.1c0-0.3,0.1-0.6,0.3-0.8c0.2-0.2,0.4-0.3,0.8-0.3c0.3,0,0.6,0.1,0.8,0.3
					c0.2,0.2,0.3,0.4,0.3,0.8c0,0.3-0.1,0.6-0.3,0.7c-0.2,0.2-0.4,0.3-0.8,0.3c-0.3,0-0.6-0.1-0.8-0.3
					C258.3,311.6,258.2,311.4,258.2,311.1z M260.2,322h-1.8v-8.6h1.8V322z"/>
				<path fill="#FFFFFF" d="M267.5,322.1c-1.3,0-2.3-0.4-3-1.1c-0.7-0.8-1-1.9-1-3.3c0-1.5,0.4-2.6,1.1-3.3c0.7-0.8,1.7-1.2,3.1-1.2
					c0.9,0,1.7,0.2,2.5,0.5l-0.6,1.5c-0.8-0.3-1.4-0.5-1.9-0.5c-1.5,0-2.2,1-2.2,3c0,1,0.2,1.7,0.6,2.2c0.4,0.5,0.9,0.7,1.6,0.7
					c0.8,0,1.6-0.2,2.3-0.6v1.6c-0.3,0.2-0.7,0.3-1,0.4C268.5,322.1,268,322.1,267.5,322.1z"/>
				<path fill="#FFFFFF" d="M278.6,322v-11.4h1.9V322H278.6z"/>
				<path fill="#FFFFFF" d="M292.1,322h-1.8v-5.3c0-0.7-0.1-1.2-0.4-1.5c-0.3-0.3-0.7-0.5-1.3-0.5c-0.8,0-1.3,0.2-1.7,0.7
					c-0.4,0.5-0.5,1.2-0.5,2.3v4.3h-1.8v-8.6h1.4l0.3,1.1h0.1c0.3-0.4,0.6-0.7,1.1-1c0.5-0.2,1-0.3,1.6-0.3c2.1,0,3.1,1.1,3.1,3.2
					V322z"/>
				<path fill="#FFFFFF" d="M299.1,320.7c0.4,0,0.9-0.1,1.3-0.2v1.4c-0.2,0.1-0.5,0.2-0.8,0.2c-0.3,0.1-0.7,0.1-1,0.1
					c-1.7,0-2.6-0.9-2.6-2.7v-4.6h-1.2v-0.8l1.3-0.7l0.6-1.8h1.1v1.9h2.5v1.4h-2.5v4.6c0,0.4,0.1,0.8,0.3,1S298.7,320.7,299.1,320.7
					z"/>
				<path fill="#FFFFFF" d="M307.1,322.1c-1.3,0-2.4-0.4-3.1-1.2c-0.8-0.8-1.1-1.9-1.1-3.2c0-1.4,0.4-2.5,1.1-3.3
					c0.7-0.8,1.7-1.2,2.9-1.2c1.1,0,2,0.3,2.7,1c0.7,0.7,1,1.6,1,2.9v1h-5.7c0,0.8,0.3,1.5,0.7,1.9c0.4,0.4,1,0.7,1.8,0.7
					c0.5,0,1,0,1.4-0.1s0.9-0.3,1.4-0.5v1.5c-0.4,0.2-0.9,0.4-1.4,0.5S307.7,322.1,307.1,322.1z M306.7,314.6c-0.6,0-1,0.2-1.4,0.6
					s-0.6,0.9-0.6,1.6h3.9c0-0.7-0.2-1.3-0.5-1.6C307.8,314.8,307.3,314.6,306.7,314.6z"/>
				<path fill="#FFFFFF" d="M318.1,313.2c0.4,0,0.7,0,0.9,0.1l-0.2,1.7c-0.3-0.1-0.5-0.1-0.8-0.1c-0.7,0-1.3,0.2-1.8,0.7
					c-0.5,0.5-0.7,1.1-0.7,1.9v4.5h-1.8v-8.6h1.4l0.2,1.5h0.1c0.3-0.5,0.7-0.9,1.1-1.2S317.5,313.2,318.1,313.2z"/>
				<path fill="#FFFFFF" d="M329.4,322h-1.8v-5.3c0-0.7-0.1-1.2-0.4-1.5c-0.3-0.3-0.7-0.5-1.3-0.5c-0.8,0-1.3,0.2-1.7,0.7
					c-0.4,0.5-0.5,1.2-0.5,2.3v4.3h-1.8v-8.6h1.4l0.3,1.1h0.1c0.3-0.4,0.6-0.7,1.1-1c0.5-0.2,1-0.3,1.6-0.3c2.1,0,3.1,1.1,3.1,3.2
					V322z"/>
				<path fill="#FFFFFF" d="M336.9,322.1c-1.3,0-2.4-0.4-3.1-1.2c-0.8-0.8-1.1-1.9-1.1-3.2c0-1.4,0.4-2.5,1.1-3.3
					c0.7-0.8,1.7-1.2,2.9-1.2c1.1,0,2,0.3,2.7,1c0.7,0.7,1,1.6,1,2.9v1h-5.7c0,0.8,0.3,1.5,0.7,1.9c0.4,0.4,1,0.7,1.8,0.7
					c0.5,0,1,0,1.4-0.1s0.9-0.3,1.4-0.5v1.5c-0.4,0.2-0.9,0.4-1.4,0.5S337.5,322.1,336.9,322.1z M336.5,314.6c-0.6,0-1,0.2-1.4,0.6
					s-0.6,0.9-0.6,1.6h3.9c0-0.7-0.2-1.3-0.5-1.6C337.6,314.8,337.1,314.6,336.5,314.6z"/>
				<path fill="#FFFFFF" d="M346.7,320.7c0.4,0,0.9-0.1,1.3-0.2v1.4c-0.2,0.1-0.5,0.2-0.8,0.2c-0.3,0.1-0.7,0.1-1,0.1
					c-1.7,0-2.6-0.9-2.6-2.7v-4.6h-1.2v-0.8l1.3-0.7l0.6-1.8h1.1v1.9h2.5v1.4h-2.5v4.6c0,0.4,0.1,0.8,0.3,1S346.4,320.7,346.7,320.7
					z"/>
				<path fill="#FFFFFF" d="M356.1,321c0-0.4,0.1-0.7,0.3-0.9c0.2-0.2,0.5-0.3,0.9-0.3c0.4,0,0.7,0.1,0.8,0.3
					c0.2,0.2,0.3,0.5,0.3,0.9c0,0.4-0.1,0.7-0.3,0.9c-0.2,0.2-0.5,0.3-0.8,0.3c-0.4,0-0.7-0.1-0.9-0.3
					C356.2,321.7,356.1,321.4,356.1,321z M357.9,318.5h-1.4l-0.4-7.9h2.2L357.9,318.5z"/>
			</g>
		</g>
	</g>
	<g id="FEDERAL_SQUARE_2_">
		<polygon fill="#526F7A" points="403.9,135.1 398.2,109.5 374.5,89.5 362.2,92.4 356.5,83.8 266.3,35.4 266.3,23.1 226.4,0.3 
			226.4,18.3 236.9,29.7 231.2,38.2 248.3,53.5 235.9,74.3 248.3,81 231.2,93.3 228,115.1 222.6,113.3 260.6,127.5 260.1,98.8 
			308.1,119.9 315.6,134.1 318.5,141.7 325.5,142.7 325.5,137 337.5,129.4 347.6,145.9 357.7,147.5 357.7,147.5 347.6,137.7 
			347.6,124.2 354,115.2 367.9,137 367.9,149 382.1,151.2 		"/>
		<g>
			<rect x="118.1" y="98.1" fill="#373431" width="263.7" height="69.4"/>
			<polygon fill="#1F1109" points="163.3,143.6 185.6,143.6 201.9,149 260.4,152 308.1,151.2 332.7,152 381.8,162.9 381.8,115.2 
				230.4,74.3 159.4,66.7 			"/>
			<rect x="187.5" y="119.8" fill="#94A3A1" width="7.9" height="31.4"/>
			<rect x="226.4" y="120.6" fill="#94A3A1" width="7.9" height="31.4"/>
			<rect x="274.3" y="123.1" fill="#94A3A1" width="7.9" height="31.4"/>
			<polygon fill="#132429" points="140,137 159.4,136.3 167.8,129.4 218.8,129.4 260.1,137.7 308.1,142.6 332.7,143.6 322.3,82.5 
				206,45.8 138.8,93.3 			"/>
			<polygon fill="#605E5A" points="135.3,74.3 127.6,99 137.2,110.4 142.9,94.3 142.9,54.4 153.3,54.4 159.4,54.4 159.4,38.2 
				159.4,38.2 130.5,60.1 127.6,69.1 127.6,69.1 			"/>
			<polygon fill="#3F4F5B" points="142.9,94.3 137.2,110.4 127.6,99 135.3,74.3 127.6,69.1 105.9,135.1 127.6,136.3 161.9,93.3 
				142.9,73.1 			"/>
			<polygon fill="#25383F" points="167.8,71.5 178,49.7 162.8,49.7 187.5,29.7 174.9,26.4 159.4,38.2 159.4,54.4 153.3,54.4 
				142.9,54.4 142.9,73.1 161.9,93.3 149.5,79.1 			"/>
			<polygon fill="none" points="167.8,71.5 149.5,79.1 161.9,93.3 187.5,91.4 169.2,68.6 			"/>
			<polygon fill="none" points="201.9,115.1 218.8,113.3 201.9,115.1 			"/>
			<polygon fill="none" stroke="#343F21" stroke-width="1.8985" stroke-miterlimit="10" points="178,49.7 169.2,68.6 169.2,68.6 			
				"/>
			<polygon fill="#25383F" points="187.5,29.7 185.6,18.3 174.9,26.4 			"/>
			<polygon fill="none" points="199.8,69.6 187.5,69.6 187.5,56.3 199.8,42.1 187.5,29.7 162.8,49.7 178,49.7 169.2,68.6 
				187.5,91.4 205.5,98.1 			"/>
			<polygon fill="#7BA1AB" points="248.3,53.5 231.2,38.2 236.9,29.7 226.4,18.3 222.6,113.3 223.3,113.5 228,115.1 231.2,93.3 
				248.3,81 235.9,74.3 			"/>
			<polygon fill="#587B84" points="216.9,75.8 210.4,75.8 218.8,57.7 205.5,57.7 218.8,33.5 207.4,11.4 226.4,18.3 226.4,0.3 
				185.6,18.3 187.5,29.7 199.8,42.1 187.5,56.3 187.5,69.6 199.8,69.6 205.5,98.1 187.5,91.4 187.5,106.6 201.9,115.1 210.4,114.2 
				205.5,93.3 			"/>
			<polygon fill="none" points="210.4,114.2 219.5,113.5 218.8,113.3 			"/>
			<polygon fill="#628690" points="226.4,18.3 207.4,11.4 218.8,33.5 205.5,57.7 218.8,57.7 210.4,75.8 216.9,75.8 205.5,93.3 
				210.4,114.2 218.8,113.3 219.5,113.5 222.6,113.3 			"/>
			<polygon fill="#12252A" points="205.5,98.1 199.8,69.6 187.5,69.6 187.5,56.3 199.8,42.1 187.5,29.7 162.8,49.7 176.1,49.7 
				167.3,68.6 165.9,71.5 149.5,79.1 161.9,93.3 187.5,91.4 			"/>
			<polygon fill="#577B84" points="161.9,93.3 127.6,136.3 140,137 157.1,119.9 154.4,102.7 			"/>
			<polygon fill="#656461" points="187.5,106.6 187.5,91.4 161.9,93.3 154.4,102.7 157.1,119.9 201.9,115.1 			"/>
			<polygon fill="#799FAA" points="275.5,75.8 267.2,75.8 275.5,98.1 289.4,93.3 			"/>
			<polygon fill="#5D5D5D" points="303,83.5 310.2,91.4 310.2,75.8 297,51.9 285.6,45.8 302.7,75.8 			"/>
			<polygon fill="#5E5E5E" points="319.3,63.9 333.7,86.9 347.6,90 336.2,73 			"/>
			<polygon fill="#5E5E5E" points="356.5,83.8 354,100.3 361.5,115.2 362.2,92.4 			"/>
			<polygon fill="#474C45" points="226.4,156.4 226.4,167.4 379.2,167.4 			"/>
			<polygon fill="#474C45" points="100.5,168.6 189.7,168.6 189.7,160.2 161.9,149.7 127.6,149.7 100.5,158.8 			"/>
			<polygon fill="#5D5D5D" points="266.3,35.4 243.8,10.2 266.3,23.1 			"/>
			<line fill="none" stroke="#666766" stroke-width="0.9492" stroke-miterlimit="10" x1="187.5" y1="69.6" x2="161.9" y2="93.3"/>
			<line fill="none" stroke="#666766" stroke-width="0.9492" stroke-miterlimit="10" x1="161.9" y1="93.3" x2="165.9" y2="71.5"/>
			<line fill="none" stroke="#666766" stroke-width="0.9492" stroke-miterlimit="10" x1="187.5" y1="69.6" x2="187.5" y2="91.4"/>
			<line fill="none" stroke="#666766" stroke-width="0.9492" stroke-miterlimit="10" x1="187.5" y1="91.4" x2="203.3" y2="86.9"/>
			<line fill="none" stroke="#666766" stroke-width="0.9492" stroke-miterlimit="10" x1="203.3" y1="86.9" x2="187.5" y2="69.6"/>
			<line fill="none" stroke="#666766" stroke-width="0.9492" stroke-miterlimit="10" x1="176.1" y1="49.7" x2="191.5" y2="33.7"/>
			<line fill="none" stroke="#515251" stroke-width="0.9492" stroke-miterlimit="10" x1="173.6" y1="105.7" x2="161.9" y2="93.3"/>
			<line fill="none" stroke="#515251" stroke-width="0.9492" stroke-miterlimit="10" x1="173.6" y1="105.7" x2="187.5" y2="91.4"/>
			<line fill="none" stroke="#515251" stroke-width="0.9492" stroke-miterlimit="10" x1="173.6" y1="105.7" x2="157.1" y2="119.9"/>
			<line fill="none" stroke="#515251" stroke-width="0.9492" stroke-miterlimit="10" x1="173.6" y1="105.7" x2="173.6" y2="118.1"/>
			<line fill="none" stroke="#515251" stroke-width="0.9492" stroke-miterlimit="10" x1="173.6" y1="105.7" x2="187.5" y2="116.6"/>
			<line fill="none" stroke="#515251" stroke-width="0.9492" stroke-miterlimit="10" x1="173.6" y1="105.7" x2="187.5" y2="106.6"/>
			<line fill="none" stroke="#515251" stroke-width="0.9492" stroke-miterlimit="10" x1="187.5" y1="106.6" x2="187.5" y2="116.6"/>
			<polyline fill="none" stroke="#4C6B75" stroke-width="0.9492" stroke-miterlimit="10" points="222.6,17 214.9,22.8 226.4,29.7 
				222.6,38.2 228.8,42.5 214.9,45.8 218.8,57.7 224.8,57.7 235.9,74.3 242.7,62.8 235.8,49.7 248.3,49.9 			"/>
			<polyline fill="none" stroke="#4C6B75" stroke-width="0.9492" stroke-miterlimit="10" points="222.6,113.3 205.5,98.1 
				222.9,98.4 210.4,89.5 224.8,86.9 219.5,81 224.8,74.3 216,68.6 224.8,57.7 			"/>
			<polyline fill="none" stroke="#4C6B75" stroke-width="0.9492" stroke-miterlimit="10" points="222.9,98.4 231.2,93.3 224.8,86.9 
				233.8,78.5 248.3,81 			"/>
			<polyline fill="none" stroke="#4C6B75" stroke-width="0.9492" stroke-miterlimit="10" points="231.2,93.3 233.8,78.5 240,86.9 
							"/>
			<polyline fill="none" stroke="#4C6B75" stroke-width="0.9492" stroke-miterlimit="10" points="226.4,29.7 231.2,38.2 228.8,42.5 
				235.8,49.7 224.8,57.7 242.7,62.8 			"/>
			<polyline fill="none" stroke="#4C6B75" stroke-width="0.9492" stroke-miterlimit="10" points="235.9,74.3 224.8,74.3 233.8,78.5 
							"/>
			<polyline fill="none" stroke="#4C6B75" stroke-width="0.8822" stroke-miterlimit="10" points="214.9,22.8 228.3,26.4 233.1,24.6 
							"/>
			<line fill="none" stroke="#666766" stroke-width="0.9492" stroke-miterlimit="10" x1="187.5" y1="69.6" x2="165.9" y2="71.5"/>
			<line fill="none" stroke="#666766" stroke-width="0.9492" stroke-miterlimit="10" x1="176.1" y1="49.7" x2="187.5" y2="56.3"/>
			<line fill="none" stroke="#666766" stroke-width="0.9492" stroke-miterlimit="10" x1="191.5" y1="33.7" x2="187.5" y2="56.3"/>
			<polyline fill="none" stroke="#515251" stroke-width="0.9492" stroke-miterlimit="10" points="127.6,99 142.9,94.3 131.4,86.9 
				142.9,81 135.3,74.3 142.9,73.1 130.5,60.1 142.9,54.4 			"/>
			<line fill="none" stroke="#515251" stroke-width="0.9492" stroke-miterlimit="10" x1="131.4" y1="86.9" x2="133.9" y2="97.1"/>
			<line fill="none" stroke="#515251" stroke-width="1.1699" stroke-miterlimit="10" x1="133.9" y1="97.1" x2="137.2" y2="110.4"/>
			<line fill="none" stroke="#515251" stroke-width="1.1699" stroke-miterlimit="10" x1="142.9" y1="94.3" x2="132.6" y2="105"/>
			<line fill="none" stroke="#515251" stroke-width="1.1699" stroke-miterlimit="10" x1="142.9" y1="81" x2="137.2" y2="90.6"/>
			<line fill="none" stroke="#515251" stroke-width="1.2665" stroke-miterlimit="10" x1="135.3" y1="74.3" x2="135.4" y2="84.8"/>
			<line fill="none" stroke="#515251" stroke-width="1.1699" stroke-miterlimit="10" x1="130.5" y1="60.1" x2="135.3" y2="74.3"/>
			<line fill="none" stroke="#515251" stroke-width="1.1699" stroke-miterlimit="10" x1="130.5" y1="60.1" x2="142.9" y2="63.9"/>
			<line fill="none" stroke="#355159" stroke-width="0.9492" stroke-miterlimit="10" x1="243.8" y1="106.6" x2="240" y2="86.9"/>
			<line fill="none" stroke="#355159" stroke-width="0.9492" stroke-miterlimit="10" x1="243.8" y1="106.6" x2="229.8" y2="102.7"/>
			<line fill="none" stroke="#355159" stroke-width="0.9492" stroke-miterlimit="10" x1="243.8" y1="106.6" x2="228" y2="115.1"/>
			<line fill="none" stroke="#355159" stroke-width="0.9492" stroke-miterlimit="10" x1="243.8" y1="106.6" x2="243.8" y2="121.2"/>
			<line fill="none" stroke="#355159" stroke-width="0.9492" stroke-miterlimit="10" x1="243.8" y1="121.2" x2="260.4" y2="114.2"/>
			<line fill="none" stroke="#355159" stroke-width="0.9492" stroke-miterlimit="10" x1="260.1" y1="116.6" x2="243.8" y2="106.6"/>
			<line fill="none" stroke="#355159" stroke-width="0.9492" stroke-miterlimit="10" x1="243.8" y1="106.6" x2="260.1" y2="98.8"/>
			<line fill="none" stroke="#355159" stroke-width="0.9492" stroke-miterlimit="10" x1="260.1" y1="98.8" x2="240" y2="86.9"/>
			<line fill="none" stroke="#355159" stroke-width="0.9492" stroke-miterlimit="10" x1="240" y1="86.9" x2="255.1" y2="86.9"/>
			<line fill="none" stroke="#355159" stroke-width="0.9492" stroke-miterlimit="10" x1="255.1" y1="86.9" x2="248.3" y2="81"/>
			<line fill="none" stroke="#355159" stroke-width="0.9492" stroke-miterlimit="10" x1="255.1" y1="86.9" x2="267.2" y2="75.8"/>
			<line fill="none" stroke="#355159" stroke-width="0.9492" stroke-miterlimit="10" x1="255.1" y1="86.9" x2="267.2" y2="93.3"/>
			<line fill="none" stroke="#355159" stroke-width="0.9492" stroke-miterlimit="10" x1="267.2" y1="93.3" x2="278.3" y2="99.6"/>
			<line fill="none" stroke="#355159" stroke-width="0.9492" stroke-miterlimit="10" x1="267.2" y1="93.3" x2="271.9" y2="88.5"/>
			<line fill="none" stroke="#355159" stroke-width="0.9492" stroke-miterlimit="10" x1="267.2" y1="75.8" x2="250.1" y2="74.3"/>
			<line fill="none" stroke="#355159" stroke-width="0.9492" stroke-miterlimit="10" x1="250.1" y1="74.3" x2="235.9" y2="74.3"/>
			<line fill="none" stroke="#355159" stroke-width="0.9492" stroke-miterlimit="10" x1="250.1" y1="74.3" x2="242.7" y2="62.8"/>
			<line fill="none" stroke="#355159" stroke-width="0.9492" stroke-miterlimit="10" x1="267.2" y1="93.3" x2="269.6" y2="103.7"/>
			<line fill="none" stroke="#355159" stroke-width="0.9492" stroke-miterlimit="10" x1="267.2" y1="93.3" x2="260.1" y2="98.8"/>
			<line fill="none" stroke="#355159" stroke-width="0.9492" stroke-miterlimit="10" x1="255.1" y1="86.9" x2="260.1" y2="98.8"/>
			<line fill="none" stroke="#355159" stroke-width="0.9492" stroke-miterlimit="10" x1="250.1" y1="74.3" x2="252.1" y2="59.1"/>
			<line fill="none" stroke="#355159" stroke-width="0.9492" stroke-miterlimit="10" x1="252.1" y1="59.1" x2="242.7" y2="62.8"/>
			<line fill="none" stroke="#355159" stroke-width="0.9492" stroke-miterlimit="10" x1="252.1" y1="59.1" x2="249.9" y2="49.9"/>
			<line fill="none" stroke="#355159" stroke-width="0.9492" stroke-miterlimit="10" x1="252.1" y1="59.1" x2="267.2" y2="75.8"/>
			<line fill="none" stroke="#355159" stroke-width="0.9492" stroke-miterlimit="10" x1="252.1" y1="59.1" x2="267.2" y2="62"/>
			<line fill="none" stroke="#355159" stroke-width="0.9492" stroke-miterlimit="10" x1="267.2" y1="62" x2="267.2" y2="75.8"/>
			<line fill="none" stroke="#355159" stroke-width="0.9492" stroke-miterlimit="10" x1="267.2" y1="75.8" x2="267.2" y2="93.3"/>
			<line fill="none" stroke="#355159" stroke-width="0.9492" stroke-miterlimit="10" x1="267.2" y1="62" x2="279.9" y2="71.5"/>
			<line fill="none" stroke="#355159" stroke-width="0.9492" stroke-miterlimit="10" x1="267.2" y1="62" x2="269.6" y2="54.4"/>
			<line fill="none" stroke="#355159" stroke-width="0.9492" stroke-miterlimit="10" x1="269.6" y1="54.4" x2="252.1" y2="59.1"/>
			<line fill="none" stroke="#355159" stroke-width="0.9492" stroke-miterlimit="10" x1="269.6" y1="54.4" x2="249.9" y2="49.9"/>
			<line fill="none" stroke="#355159" stroke-width="0.9492" stroke-miterlimit="10" x1="249.9" y1="49.9" x2="263.7" y2="38.2"/>
			<line fill="none" stroke="#355159" stroke-width="0.9492" stroke-miterlimit="10" x1="248" y1="33.7" x2="249.9" y2="49.9"/>
			<line fill="none" stroke="#355159" stroke-width="1.2277" stroke-miterlimit="10" x1="248" y1="33.7" x2="237.7" y2="44"/>
			<line fill="none" stroke="#355159" stroke-width="0.9492" stroke-miterlimit="10" x1="248" y1="33.7" x2="258.7" y2="29.7"/>
			<line fill="none" stroke="#355159" stroke-width="0.9492" stroke-miterlimit="10" x1="248" y1="33.7" x2="265" y2="38.2"/>
			<line fill="none" stroke="#355159" stroke-width="0.9492" stroke-miterlimit="10" x1="248" y1="33.7" x2="236.9" y2="29.7"/>
			<line fill="none" stroke="#355159" stroke-width="0.9492" stroke-miterlimit="10" x1="236.9" y1="29.7" x2="251.7" y2="19"/>
			<line fill="none" stroke="#355159" stroke-width="0.9492" stroke-miterlimit="10" x1="251.7" y1="19" x2="240" y2="17"/>
			<line fill="none" stroke="#355159" stroke-width="0.9492" stroke-miterlimit="10" x1="240" y1="17" x2="226.4" y2="18.3"/>
			<line fill="none" stroke="#355159" stroke-width="0.9492" stroke-miterlimit="10" x1="240" y1="17" x2="236.9" y2="29.7"/>
			<line fill="none" stroke="#355159" stroke-width="0.9492" stroke-miterlimit="10" x1="240" y1="17" x2="245.8" y2="12.5"/>
			<line fill="none" stroke="#355159" stroke-width="0.9492" stroke-miterlimit="10" x1="240" y1="17" x2="226.4" y2="0.3"/>
			<line fill="none" stroke="#355159" stroke-width="0.9492" stroke-miterlimit="10" x1="250.1" y1="74.3" x2="248.3" y2="81"/>
			<line fill="none" stroke="#355159" stroke-width="0.9492" stroke-miterlimit="10" x1="250.1" y1="74.3" x2="255.1" y2="86.9"/>
			<line fill="none" stroke="#355159" stroke-width="0.9492" stroke-miterlimit="10" x1="278.3" y1="99.6" x2="279.9" y2="107.5"/>
			<line fill="none" stroke="#355159" stroke-width="0.9492" stroke-miterlimit="10" x1="279.9" y1="107.5" x2="289.4" y2="103.7"/>
			<line fill="none" stroke="#355159" stroke-width="0.9492" stroke-miterlimit="10" x1="289.4" y1="103.7" x2="278.3" y2="99.6"/>
			<line fill="none" stroke="#355159" stroke-width="0.9492" stroke-miterlimit="10" x1="289.4" y1="103.7" x2="295" y2="114.2"/>
			<line fill="none" stroke="#355159" stroke-width="0.9492" stroke-miterlimit="10" x1="295" y1="114.2" x2="304.6" y2="113.3"/>
			<line fill="none" stroke="#355159" stroke-width="0.9492" stroke-miterlimit="10" x1="289.4" y1="103.7" x2="304.6" y2="106.1"/>
			<line fill="none" stroke="#355159" stroke-width="0.9492" stroke-miterlimit="10" x1="289.4" y1="103.7" x2="302" y2="93.3"/>
			<line fill="none" stroke="#355159" stroke-width="0.9492" stroke-miterlimit="10" x1="289.4" y1="103.7" x2="289.4" y2="93.3"/>
			<line fill="none" stroke="#355159" stroke-width="0.9492" stroke-miterlimit="10" x1="289.4" y1="93.3" x2="302" y2="93.3"/>
			<line fill="none" stroke="#355159" stroke-width="0.9492" stroke-miterlimit="10" x1="304.6" y1="113.3" x2="309.7" y2="123.1"/>
			<line fill="none" stroke="#355159" stroke-width="0.9492" stroke-miterlimit="10" x1="309.7" y1="123.1" x2="332.7" y2="106.6"/>
			<line fill="none" stroke="#355159" stroke-width="0.9492" stroke-miterlimit="10" x1="332.7" y1="106.6" x2="321.2" y2="97.1"/>
			<line fill="none" stroke="#355159" stroke-width="0.9492" stroke-miterlimit="10" x1="321.2" y1="97.1" x2="318.5" y2="105.7"/>
			<line fill="none" stroke="#355159" stroke-width="0.9492" stroke-miterlimit="10" x1="321.2" y1="97.1" x2="314.1" y2="96.5"/>
			<line fill="none" stroke="#355159" stroke-width="0.9492" stroke-miterlimit="10" x1="321.2" y1="97.1" x2="320.3" y2="86.9"/>
			<line fill="none" stroke="#355159" stroke-width="0.9492" stroke-miterlimit="10" x1="320.3" y1="86.9" x2="310.2" y2="91.4"/>
			<line fill="none" stroke="#355159" stroke-width="0.9492" stroke-miterlimit="10" x1="320.3" y1="86.9" x2="310.2" y2="75.8"/>
			<line fill="none" stroke="#355159" stroke-width="0.9492" stroke-miterlimit="10" x1="310.2" y1="75.8" x2="319.3" y2="63.9"/>
			<line fill="none" stroke="#355159" stroke-width="0.9492" stroke-miterlimit="10" x1="310.2" y1="75.8" x2="327.3" y2="76.7"/>
			<line fill="none" stroke="#355159" stroke-width="0.9492" stroke-miterlimit="10" x1="327.3" y1="76.7" x2="320.3" y2="86.9"/>
			<line fill="none" stroke="#355159" stroke-width="0.9492" stroke-miterlimit="10" x1="327.3" y1="76.7" x2="332.7" y2="94.3"/>
			<line fill="none" stroke="#355159" stroke-width="0.9492" stroke-miterlimit="10" x1="332.7" y1="94.3" x2="320.3" y2="86.9"/>
			<line fill="none" stroke="#355159" stroke-width="0.9492" stroke-miterlimit="10" x1="332.7" y1="94.3" x2="321.2" y2="97.1"/>
			<line fill="none" stroke="#355159" stroke-width="0.9492" stroke-miterlimit="10" x1="332.7" y1="94.3" x2="332.7" y2="106.6"/>
			<line fill="none" stroke="#355159" stroke-width="0.9492" stroke-miterlimit="10" x1="332.7" y1="94.3" x2="347.6" y2="92.9"/>
			<line fill="none" stroke="#355159" stroke-width="0.9492" stroke-miterlimit="10" x1="347.6" y1="92.9" x2="347.6" y2="78.5"/>
			<line fill="none" stroke="#355159" stroke-width="0.9492" stroke-miterlimit="10" x1="347.6" y1="92.9" x2="355" y2="93.3"/>
			<line fill="none" stroke="#355159" stroke-width="0.9492" stroke-miterlimit="10" x1="347.6" y1="92.9" x2="352.7" y2="104.4"/>
			<line fill="none" stroke="#355159" stroke-width="0.9492" stroke-miterlimit="10" x1="352.7" y1="104.4" x2="332.7" y2="94.3"/>
			<line fill="none" stroke="#355159" stroke-width="0.9492" stroke-miterlimit="10" x1="352.7" y1="104.4" x2="332.7" y2="106.6"/>
			<line fill="none" stroke="#355159" stroke-width="0.9492" stroke-miterlimit="10" x1="352.7" y1="104.4" x2="354" y2="115.2"/>
			<line fill="none" stroke="#355159" stroke-width="0.9492" stroke-miterlimit="10" x1="352.7" y1="104.4" x2="342.7" y2="112.8"/>
			<line fill="none" stroke="#355159" stroke-width="0.9492" stroke-miterlimit="10" x1="342.7" y1="112.8" x2="332.7" y2="106.6"/>
			<line fill="none" stroke="#355159" stroke-width="0.9492" stroke-miterlimit="10" x1="342.7" y1="112.8" x2="350.1" y2="119.9"/>
			<line fill="none" stroke="#355159" stroke-width="0.9492" stroke-miterlimit="10" x1="333.5" y1="121.2" x2="342.7" y2="112.8"/>
			<line fill="none" stroke="#355159" stroke-width="0.9492" stroke-miterlimit="10" x1="333.5" y1="121.2" x2="332.7" y2="106.6"/>
			<line fill="none" stroke="#355159" stroke-width="0.9492" stroke-miterlimit="10" x1="333.5" y1="121.2" x2="347.6" y2="124.2"/>
			<line fill="none" stroke="#355159" stroke-width="0.9492" stroke-miterlimit="10" x1="333.5" y1="121.2" x2="333.5" y2="132.8"/>
			<line fill="none" stroke="#355159" stroke-width="0.9492" stroke-miterlimit="10" x1="333.5" y1="121.2" x2="318.5" y2="141.7"/>
			<line fill="none" stroke="#355159" stroke-width="0.9492" stroke-miterlimit="10" x1="333.5" y1="121.2" x2="320.8" y2="123.1"/>
			<line fill="none" stroke="#355159" stroke-width="0.9492" stroke-miterlimit="10" x1="320.8" y1="123.1" x2="309.7" y2="123.1"/>
			<line fill="none" stroke="#355159" stroke-width="0.9492" stroke-miterlimit="10" x1="320.8" y1="123.1" x2="318.5" y2="141.7"/>
			<line fill="none" stroke="#355159" stroke-width="0.9492" stroke-miterlimit="10" x1="352.7" y1="104.4" x2="362.2" y2="113.7"/>
			<line fill="none" stroke="#355159" stroke-width="0.9492" stroke-miterlimit="10" x1="362.2" y1="113.7" x2="362.2" y2="128"/>
			<line fill="none" stroke="#355159" stroke-width="0.9492" stroke-miterlimit="10" x1="362.2" y1="113.7" x2="355.9" y2="118.2"/>
			<line fill="none" stroke="#355159" stroke-width="0.9492" stroke-miterlimit="10" x1="362.2" y1="113.7" x2="370.9" y2="118.2"/>
			<line fill="none" stroke="#355159" stroke-width="0.9492" stroke-miterlimit="10" x1="370.9" y1="118.2" x2="362.2" y2="128"/>
			<line fill="none" stroke="#355159" stroke-width="0.9492" stroke-miterlimit="10" x1="362.2" y1="128" x2="374.2" y2="128"/>
			<line fill="none" stroke="#355159" stroke-width="0.9492" stroke-miterlimit="10" x1="374.2" y1="128" x2="368.2" y2="140.5"/>
			<line fill="none" stroke="#355159" stroke-width="0.9492" stroke-miterlimit="10" x1="368.2" y1="140.5" x2="382.1" y2="151.2"/>
			<line fill="none" stroke="#355159" stroke-width="0.9492" stroke-miterlimit="10" x1="269.6" y1="54.4" x2="285.6" y2="45.8"/>
			<line fill="none" stroke="#355159" stroke-width="0.9492" stroke-miterlimit="10" x1="269.6" y1="54.4" x2="263.7" y2="38.2"/>
			<line fill="none" stroke="#355159" stroke-width="0.9492" stroke-miterlimit="10" x1="263.7" y1="38.2" x2="275.5" y2="40.3"/>
			<line fill="none" stroke="#355159" stroke-width="0.9492" stroke-miterlimit="10" x1="275.5" y1="40.3" x2="269.6" y2="54.4"/>
			<line fill="none" stroke="#355159" stroke-width="0.9492" stroke-miterlimit="10" x1="269.6" y1="54.4" x2="279.9" y2="71.5"/>
			<line fill="none" stroke="#355159" stroke-width="0.9492" stroke-miterlimit="10" x1="289.4" y1="59.9" x2="285.6" y2="45.8"/>
			<line fill="none" stroke="#355159" stroke-width="0.9492" stroke-miterlimit="10" x1="289.4" y1="59.9" x2="269.6" y2="54.4"/>
			<line fill="none" stroke="#355159" stroke-width="0.9492" stroke-miterlimit="10" x1="289.4" y1="59.9" x2="279.9" y2="71.5"/>
			<line fill="none" stroke="#355159" stroke-width="0.9492" stroke-miterlimit="10" x1="289.4" y1="59.9" x2="298.9" y2="69.1"/>
			<line fill="none" stroke="#355159" stroke-width="0.9492" stroke-miterlimit="10" x1="318.5" y1="105.7" x2="309.7" y2="123.1"/>
			<line fill="none" stroke="#355159" stroke-width="0.9492" stroke-miterlimit="10" x1="318.5" y1="105.7" x2="332.7" y2="106.6"/>
			<polygon fill="#799FAA" points="337.5,129.4 325.5,137 325.5,142.7 332.7,143.6 347.6,145.9 347.6,145.9 			"/>
			<path fill="#132429" d="M275.5,75.8l9.5-9.1c0,0,32.9,27.9,33.5,39l-13.9,7.6L302,93.3l-12.7-8.9v8.9L275.5,75.8z"/>
			<polygon fill="#16282C" points="308.1,119.9 260.1,98.8 260.4,114.2 260.4,114.2 			"/>
			<polygon fill="#93A4A2" points="274.8,127.5 315.6,134.1 308.1,119.9 260.4,114.2 260.4,114.2 260.6,127.5 			"/>
			<polygon fill="#799FAC" points="354,115.2 347.6,124.2 347.6,129.4 347.6,129.4 354,129.4 357.7,136.3 352.7,142.6 352.7,142.6 
				357.7,147.5 357.7,147.5 367.9,149 367.9,137 			"/>
			<polygon fill="#5E5E5E" points="357.7,136.3 354,129.4 347.6,129.4 347.6,129.4 347.6,137.7 352.7,142.6 352.7,142.6 			"/>
			<polygon fill="#587B85" points="362.2,92.4 374.5,89.5 401.4,137 382.1,151.2 			"/>
		</g>
	</g>
</g>
</svg>
