<!-- Generator: Adobe Illustrator 18.0.0, SVG Export Plug-In  -->
<svg version="1.1"
	 xmlns="http://www.w3.org/2000/svg" xmlns:xlink="http://www.w3.org/1999/xlink" xmlns:a="http://ns.adobe.com/AdobeSVGViewerExtensions/3.0/"
	 x="0px" y="0px" width="1035px" height="729.4px" viewBox="0 0 1035 729.4" enable-background="new 0 0 1035 729.4"
	 xml:space="preserve">
<defs>
</defs>
<g>
	<polygon fill="#0F395C" points="1014,424.3 578,697.2 21.8,477.2 513.5,307.7 	"/>
	<polygon fill="#86BCE4" points="513.2,15.3 513.2,307.7 21.8,477.2 21.8,134.3 	"/>
	<polygon fill="none" stroke="#20201D" stroke-width="1.6691" stroke-miterlimit="10" points="21.8,477.2 21.8,134.3 34.5,139.1 
		34.5,482.2 	"/>
	<polygon fill="#62A1CE" points="34.5,139.1 34.5,482.2 430.8,345.8 430.8,42.1 	"/>
	<polygon fill="#89C7ED" points="21.8,134.3 34.5,139.1 430.8,42.1 418.6,38.2 	"/>
	<polygon fill="#89C7ED" points="513.2,15.3 513.2,0 0,125.2 21.8,134.3 	"/>
	<polygon fill="#0A3451" points="0,125.2 0,494 578,729.4 578,697.2 21.8,477.2 21.8,134.3 	"/>
	<polygon fill="#68B6DD" points="513.2,15.3 513.2,0 1035,75.2 1014,88.4 	"/>
	<polygon fill="#063047" points="1014,88.4 1035,75.2 1035,439.1 578,729.4 578,697.2 1014,424.3 	"/>
	<polygon fill="#FCF5EA" points="513.2,296 430.8,324.4 430.8,341.6 513.2,312.3 	"/>
	<polygon fill="#FFFFFF" points="513.2,291.1 430.8,318.8 430.8,324.4 513.2,296 	"/>
	<polygon fill="#86BCE4" points="430.8,128.8 381.8,142.4 381.8,184 430.8,169.6 	"/>
	<polygon fill="#66AAD3" points="430.8,169.6 419.3,165.6 381.8,176.3 381.8,184 	"/>
	<polygon fill="#D8D8D8" points="269.6,250.5 273.9,252.3 273.9,265.7 269.6,263.3 	"/>
	<polygon fill="#FFFFFF" points="273.9,252.3 422.8,204.6 418.7,202.9 269.6,250.5 	"/>
	<polygon fill="#EBECED" points="273.9,265.7 273.9,252.3 422.8,204.6 422.8,215.9 	"/>
	<polygon fill="#89C4EA" points="0,125.2 21.8,134.3 21.8,502.9 0,494 	"/>
	<polygon fill="#66AAD3" points="1014,88.4 1035,75.2 1035,439.1 1014,454.2 	"/>
	<polygon fill="#66AAD3" points="21.8,134.3 21.8,477.2 34.5,482.8 34.5,139.1 	"/>
	<polygon fill="#86BCE4" points="419.3,165.6 430.8,169.6 430.8,128.8 419.3,132 	"/>
	<path fill="#62A1CE" d="M513.2,15.3v292.4L1014,424.3V88.4L513.2,15.3z M671.4,241.2l-103.7-21.3V47.3l103.7,15.6V241.2z
		 M802.9,267.7l-120.8-25.1V63.4l120.8,18.3V267.7z M972,302.4l-156.2-32.1V84.2L972,107.5V302.4z"/>
	<polygon fill="#FCF5EA" points="1008.9,427.5 513.2,312.3 513.2,296 1008.9,409 	"/>
	<polygon fill="#FFFFFF" points="1014,405.6 1008.9,409 513.2,296 513.2,291.1 	"/>
	<polygon fill="#D8D1C8" points="1014,424.3 1008.9,427.5 1008.9,409 1014,405.6 	"/>
	<g>
		<polygon fill="#86BCE4" points="278.1,253.7 278.1,262.2 300.6,254.7 300.6,246.6 		"/>
		<polygon fill="#5BA9C1" points="278.1,262.2 277.6,261.9 277.6,253.5 278.1,253.7 		"/>
		<polygon fill="#66AECB" points="277.6,253.5 278.1,253.7 300.6,246.6 300.1,246.3 		"/>
	</g>
	<g>
		<polygon fill="#86BCE4" points="316.1,241.5 316.1,250 338.6,242.5 338.6,234.4 		"/>
		<polygon fill="#5BA9C1" points="316.1,250 315.6,249.8 315.6,241.3 316.1,241.5 		"/>
		<polygon fill="#66AECB" points="315.6,241.3 316.1,241.5 338.6,234.4 338.1,234.2 		"/>
	</g>
	<g>
		<path fill="#EBECED" d="M280.1,254.4l3.7-1.1c0,0,0.7,2.9,1.8,3.6c0.3,0.5-2.7,2.3-4.5,1.8C280.6,258.2,280.2,254.7,280.1,254.4z"
			/>
		<path fill="#DCDBDB" d="M285.5,256.8c0,0-1.1,1.7-4.5,1.8c0,0.4,0,0.9,0,0.9s3.1,0.3,4.5-1.5C285.6,257.4,285.5,256.8,285.5,256.8
			z"/>
		<path fill="#C4C4C3" d="M280.1,254.4v4.2c0,0,0.3,0.7,1,0.9c0-0.5,0-0.9,0-0.9S280.3,256.9,280.1,254.4z"/>
	</g>
	<g>
		<path fill="#EBECED" d="M291.7,250.8l3.7-1.1c0,0,0.7,2.9,1.8,3.6c0.3,0.5-2.7,2.3-4.5,1.8C292.2,254.7,291.8,251.1,291.7,250.8z"
			/>
		<path fill="#DCDBDB" d="M297.1,253.2c0,0-1.1,1.7-4.5,1.8c0,0.4,0,0.9,0,0.9s3.1,0.3,4.5-1.5C297.2,253.8,297.1,253.2,297.1,253.2
			z"/>
		<path fill="#C4C4C3" d="M291.7,250.8v4.2c0,0,0.3,0.7,1,0.9c0-0.5,0-0.9,0-0.9S291.9,253.3,291.7,250.8z"/>
	</g>
	<g>
		<polygon fill="#FFFFFF" points="316.8,241.9 325.1,239.2 325.1,246.2 316.8,249 		"/>
		<g>
			<polygon fill="#EBECED" points="320.4,241.8 321,241.5 321,242.9 320.4,243.1 			"/>
			<polygon fill="#DCDCDD" points="320.9,241.6 320.9,242.7 321,242.9 321,241.5 			"/>
			<polygon fill="#CCCCCC" points="320.9,242.7 320.4,242.9 320.4,243.1 321,242.9 			"/>
		</g>
		<g>
			<polygon fill="#EBECED" points="318.8,245 319.4,244.8 319.4,246.1 318.8,246.3 			"/>
			<polygon fill="#DCDCDD" points="319.2,244.9 319.2,246 319.4,246.1 319.4,244.8 			"/>
			<polygon fill="#CCCCCC" points="319.2,246 318.8,246.1 318.8,246.3 319.4,246.1 			"/>
		</g>
		<g>
			<polygon fill="#EBECED" points="322.8,244 323.5,243.8 323.5,245.1 322.8,245.3 			"/>
			<polygon fill="#DCDCDD" points="323.3,243.8 323.3,245 323.5,245.1 323.5,243.8 			"/>
			<polygon fill="#CCCCCC" points="323.3,245 322.8,245.1 322.8,245.3 323.5,245.1 			"/>
		</g>
	</g>
	<g>
		<polygon fill="#FFFFFF" points="329,238 337.3,235.4 337.3,242.3 329,245.1 		"/>
		<g>
			<polygon fill="#EBECED" points="332.6,237.9 333.2,237.6 333.2,239 332.6,239.2 			"/>
			<polygon fill="#DCDCDD" points="333.1,237.7 333.1,238.8 333.2,239 333.2,237.6 			"/>
			<polygon fill="#CCCCCC" points="333.1,238.8 332.6,239 332.6,239.2 333.2,239 			"/>
		</g>
		<g>
			<polygon fill="#EBECED" points="331,241.1 331.6,240.9 331.6,242.2 331,242.5 			"/>
			<polygon fill="#DCDCDD" points="331.4,241 331.4,242.1 331.6,242.2 331.6,240.9 			"/>
			<polygon fill="#CCCCCC" points="331.4,242.1 331,242.2 331,242.5 331.6,242.2 			"/>
		</g>
		<g>
			<polygon fill="#EBECED" points="335,240.1 335.7,239.9 335.7,241.2 335,241.4 			"/>
			<polygon fill="#DCDCDD" points="335.5,239.9 335.5,241.1 335.7,241.2 335.7,239.9 			"/>
			<polygon fill="#CCCCCC" points="335.5,241.1 335,241.2 335,241.4 335.7,241.2 			"/>
		</g>
	</g>
	<g>
		<polygon fill="#86BCE4" points="390.4,217.1 390.4,225.6 412.9,218.1 412.9,210 		"/>
		<polygon fill="#5BA9C1" points="390.4,225.6 390,225.3 390,216.9 390.4,217.1 		"/>
		<polygon fill="#66AECB" points="390,216.9 390.4,217.1 412.9,210 412.4,209.7 		"/>
	</g>
	<polygon fill="#FFFFFF" points="391.2,217.4 399.4,214.8 399.4,221.8 391.2,224.6 	"/>
	<g>
		<polygon fill="#EBECED" points="393.1,218.4 393.8,218.1 393.8,219.5 393.1,219.7 		"/>
		<polygon fill="#DCDCDD" points="393.6,218.2 393.6,219.3 393.8,219.5 393.8,218.1 		"/>
		<polygon fill="#CCCCCC" points="393.6,219.3 393.1,219.5 393.1,219.7 393.8,219.5 		"/>
	</g>
	<g>
		<polygon fill="#EBECED" points="397.2,217.3 397.8,217.1 397.8,218.4 397.2,218.7 		"/>
		<polygon fill="#DCDCDD" points="397.6,217.2 397.6,218.3 397.8,218.4 397.8,217.1 		"/>
		<polygon fill="#CCCCCC" points="397.6,218.3 397.2,218.4 397.2,218.7 397.8,218.4 		"/>
	</g>
	<polygon fill="#FFFFFF" points="403.4,213.6 411.6,210.9 411.6,217.9 403.4,220.7 	"/>
	<g>
		<polygon fill="#EBECED" points="405.3,214.8 406,214.6 406,215.9 405.3,216.1 		"/>
		<polygon fill="#DCDCDD" points="405.8,214.6 405.8,215.7 406,215.9 406,214.6 		"/>
		<polygon fill="#CCCCCC" points="405.8,215.7 405.3,215.9 405.3,216.1 406,215.9 		"/>
	</g>
	<g>
		<polygon fill="#EBECED" points="409.4,213.8 410,213.5 410,214.9 409.4,215.1 		"/>
		<polygon fill="#DCDCDD" points="409.8,213.6 409.8,214.7 410,214.9 410,213.5 		"/>
		<polygon fill="#CCCCCC" points="409.8,214.7 409.4,214.9 409.4,215.1 410,214.9 		"/>
	</g>
	<polygon opacity="0.3" fill="#FFFFFF" points="956,415.2 594.2,483.4 557.7,431.7 728.6,362.4 	"/>
	<polygon opacity="0.3" fill="#FFFFFF" points="715.3,359.3 513.2,438.7 426.2,394.7 626.4,338.6 	"/>
	<polygon fill="#09324F" points="490.7,606.3 406,629.2 578,697.2 671.8,606.3 601.9,649.8 	"/>
	<polygon fill="#09324F" points="903.5,464.4 786.4,561.9 731.9,568.8 812.6,518.4 811.4,510.3 825.8,513.8 	"/>
	<linearGradient id="SVGID_1_" gradientUnits="userSpaceOnUse" x1="246.4624" y1="264.95" x2="274.9656" y2="257.7418">
		<stop  offset="0" style="stop-color:#62A1CE"/>
		<stop  offset="0.8966" style="stop-color:#4F86B3"/>
	</linearGradient>
	<polygon fill="url(#SVGID_1_)" points="282,263 273.9,265.7 248.3,273.1 254,256.9 269.6,250.5 269.6,263.3 273.6,264.9 	"/>
	<linearGradient id="SVGID_2_" gradientUnits="userSpaceOnUse" x1="274.945" y1="171.286" x2="290.0236" y2="167.4727">
		<stop  offset="0" style="stop-color:#62A1CE"/>
		<stop  offset="0.8966" style="stop-color:#4F86B3"/>
	</linearGradient>
	<polyline fill="url(#SVGID_2_)" points="291.9,168.2 275.9,175.3 282.7,167.8 291.9,162.8 291.9,167.8 	"/>
	<linearGradient id="SVGID_3_" gradientUnits="userSpaceOnUse" x1="209.6528" y1="354.0398" x2="277.7426" y2="336.8205">
		<stop  offset="0" style="stop-color:#62A1CE"/>
		<stop  offset="0.8966" style="stop-color:#4F86B3"/>
	</linearGradient>
	<polygon fill="url(#SVGID_3_)" points="284.4,386 267.5,386 267.5,351.7 267.5,348.1 203.2,330.5 278.5,285.8 	"/>
	<polygon fill="#66AAD3" points="549.9,20.6 565.6,15.3 565.6,233.4 549.9,242.3 549.9,20.7 	"/>
	<polygon fill="#C8C0B7" points="549.9,231.1 975.3,321.3 975.3,333.7 549.9,242.3 	"/>
	<polygon fill="#D8D1C8" points="549.9,231.1 565.6,222.7 975.3,307.7 975.3,321.3 	"/>
	<polygon fill="#C8C0B7" points="557.7,18 557.7,42.1 975.3,105.1 975.3,82.8 982.3,79 	"/>
	<polygon fill="#D8D1C8" points="982.3,79 989.5,75.2 565.6,15.3 557.7,18 	"/>
	<polygon fill="#A19B94" points="677.2,247 686.9,242.1 686,61.5 677.2,60.1 	"/>
	<polygon opacity="0.5" fill="#FFFFFF" points="686,242.6 679.3,245.7 679.3,60.5 686,61.5 	"/>
	<path fill="#A19B94" d="M564.4,43.1v180.2L677.2,247V60.1L564.4,43.1z M672.1,241.1l-103.7-21.3V47.2l103.7,15.6V241.1z"/>
	<polygon fill="#817E7A" points="808.8,274.5 822.7,270.3 822.7,82.1 808.8,80 	"/>
	<polygon fill="#A19B94" points="811.4,273.7 820.9,270.9 820.9,81.8 811.4,80.4 	"/>
	<path fill="#A19B94" d="M677.2,60.1V247l131.6,27.5V80L677.2,60.1z M802.9,268.2l-120.8-25.1V63.9l120.8,18.3V268.2z"/>
	<path fill="#A19B94" d="M808.8,80v194.5l166.5,34.3V105.1L808.8,80z M972,302.5l-156.2-32.1V84.2L972,107.6V302.5z"/>
	<polygon fill="#B1A9A2" points="568.4,219.8 574.1,216.9 574.1,48 568.4,47.2 	"/>
	<polygon fill="#B1A9A2" points="574.1,216.9 672.1,237.2 672.1,241.1 568.4,219.8 	"/>
	<polygon opacity="0.5" fill="#FFFFFF" points="568.4,47.2 672.1,62.7 672.1,241.1 568.4,219.8 	"/>
	<polygon fill="#C8C0B7" points="682.1,243.1 686.9,241.1 802.9,264.4 802.9,268.2 	"/>
	<polygon opacity="0.5" fill="#FFFFFF" points="802.9,82.2 802.9,268.2 682.1,243.1 682.1,63.9 	"/>
	<polygon opacity="0.5" fill="#FFFFFF" points="972,107.7 972,300.6 822.8,270.4 822.8,85.7 	"/>
	<polygon fill="#D8D1C8" points="819.9,271.2 822.7,270.3 972,300.4 972,302.5 	"/>
	<g>
		<circle fill="#898784" cx="536.7" cy="457.5" r="8"/>
		<circle fill="#817E7A" cx="536" cy="458.1" r="7.6"/>
		<circle fill="#878582" cx="536" cy="458.1" r="6.6"/>
		<circle fill="#8E8C8B" cx="536" cy="458.1" r="4.6"/>
		<circle fill="#969493" cx="536" cy="458.1" r="4.2"/>
		<path fill="#817E7A" d="M526.4,445.4l5.3,13.7c0,0,5.2,2.9,8.6,1.1l-1.1-10.9L526.4,445.4z"/>
		<polygon fill="#A19B94" points="540.3,460.2 541.3,459.7 540.3,449.7 539.2,449.3 		"/>
		<circle fill="#96918C" cx="536" cy="458.1" r="2.1"/>
		<circle fill="#A19B94" cx="536" cy="458.1" r="1.8"/>
	</g>
	<g>
		<circle fill="#898784" cx="448.1" cy="469.7" r="8"/>
		<circle fill="#817E7A" cx="447.4" cy="470.3" r="7.6"/>
		<circle fill="#878582" cx="447.4" cy="470.3" r="6.6"/>
		<circle fill="#8E8C8B" cx="447.4" cy="470.3" r="4.6"/>
		<circle fill="#969493" cx="447.4" cy="470.3" r="4.2"/>
		<path fill="#817E7A" d="M437.8,457.5l5.3,13.7c0,0,5.2,2.9,8.6,1.1l-1.1-10.9L437.8,457.5z"/>
		<polygon fill="#A19B94" points="451.7,472.4 452.7,471.9 451.7,461.8 450.6,461.5 		"/>
		<circle fill="#96918C" cx="447.4" cy="470.3" r="2.1"/>
		<circle fill="#A19B94" cx="447.4" cy="470.3" r="1.8"/>
	</g>
	<g>
		<circle fill="#898784" cx="390.2" cy="451.3" r="8"/>
		<circle fill="#817E7A" cx="389.5" cy="451.9" r="7.6"/>
		<circle fill="#878582" cx="389.5" cy="451.9" r="6.6"/>
		<circle fill="#8E8C8B" cx="389.5" cy="451.9" r="4.6"/>
		<circle fill="#969493" cx="389.5" cy="451.9" r="4.2"/>
		<path fill="#817E7A" d="M379.9,439.1l5.3,13.7c0,0,5.2,2.9,8.6,1.1l-1.1-10.9L379.9,439.1z"/>
		<polygon fill="#A19B94" points="393.8,454 394.8,453.4 393.8,443.4 392.7,443.1 		"/>
		<circle fill="#96918C" cx="389.5" cy="451.9" r="2.1"/>
		<circle fill="#A19B94" cx="389.5" cy="451.9" r="1.8"/>
	</g>
	<g>
		<circle fill="#898784" cx="678.5" cy="390.6" r="8"/>
		<circle fill="#817E7A" cx="677.8" cy="391.2" r="7.6"/>
		<circle fill="#878582" cx="677.8" cy="391.2" r="6.6"/>
		<circle fill="#8E8C8B" cx="677.8" cy="391.2" r="4.6"/>
		<circle fill="#969493" cx="677.8" cy="391.2" r="4.2"/>
		<path fill="#817E7A" d="M668.2,378.5l5.3,13.7c0,0,5.2,2.9,8.6,1.1l-1.1-10.9L668.2,378.5z"/>
		<polygon fill="#A19B94" points="682.1,393.3 683.1,392.8 682.1,382.7 681,382.4 		"/>
		<circle fill="#96918C" cx="677.8" cy="391.2" r="2.1"/>
		<circle fill="#A19B94" cx="677.8" cy="391.2" r="1.8"/>
	</g>
	<g>
		<circle fill="#898784" cx="297.1" cy="397.6" r="8"/>
		<circle fill="#817E7A" cx="296.4" cy="398.2" r="7.6"/>
		<circle fill="#878582" cx="296.4" cy="398.2" r="6.6"/>
		<circle fill="#8E8C8B" cx="296.4" cy="398.2" r="4.6"/>
		<circle fill="#969493" cx="296.4" cy="398.2" r="4.2"/>
		<path fill="#817E7A" d="M286.8,385.4l5.3,13.7c0,0,5.2,2.9,8.6,1.1l-1.1-10.9L286.8,385.4z"/>
		<polygon fill="#A19B94" points="300.7,400.2 301.7,399.7 300.7,389.7 299.6,389.4 		"/>
		<circle fill="#96918C" cx="296.4" cy="398.2" r="2.1"/>
		<circle fill="#A19B94" cx="296.4" cy="398.2" r="1.8"/>
	</g>
	<path fill="#F2EFED" d="M555.2,403.8c0,0,2.3-0.5,3.6-1s125-59.8,125-59.8v24l-128.7,64.1V403.8z"/>
	<path fill="#878581" d="M555.2,425.9v28.4l37.2-19.2c0,0,1-12.4,1.3-16.8c0.3-2.7,4.9-4.8,9.3-7s33-17.6,33-17.6s4.9-3.8,7.1,0
		c0.9,3,3.2,7.4,3.2,7.4s2.7,2.9,9.6-1c6.9-3.9,25.4-14.4,25.4-14.4s2.9-2.3,2.5-5.7c0-3.4,0-18.8,0-18.8L555.2,425.9z"/>
	<polygon fill="#A8A19C" points="683.9,361.1 683.9,353.8 555.2,417.3 555.2,425.9 	"/>
	<path fill="#E5E2E1" d="M555.2,417.3v-13.5c0,0-3.8,0.1-6.5-0.8c-2.7-0.9-257.9-84.2-257.9-84.2s-2.5,0.3-2.5,3.1
		c0,2.8,0,21.5,0,21.5l266.9,87.7V417.3z"/>
	<polygon fill="#D8D1C8" points="341.3,259.5 341.3,300.8 387.7,284.2 387.7,245.6 	"/>
	<polygon fill="#878581" points="302.4,369.7 316,374.1 321,384.6 302.4,391.6 	"/>
	<polygon fill="#D8D1C8" points="330.4,262.7 330.4,304.7 339.1,301.6 339.1,260.1 	"/>
	<polygon fill="#D8D1C8" points="397.5,242.6 397.5,280.7 390.2,283.3 390.2,244.8 	"/>
	<path fill="#817E7A" d="M555.2,454.2v-28.4l-8.9-2.7c0,0-2-0.8-7.3,0.6c-5.2,1.4-11.2,3.1-11.2,3.1s-5,1.6-11.2-0.7
		c-6.2-2.2-217.2-72.9-217.2-72.9s-8.5-2.4-14.1-8.2s-6.8-7.1-6.8-7.1s-0.5,1.7-0.5,3.5s0,17.1,0,17.1s-0.2,3.8,6.4,5.4
		c6.6,1.7,228.8,74.6,228.8,74.6s9.5,4.1,11.5,6.1C527.4,445.7,555.2,454.2,555.2,454.2z"/>
	<polygon fill="#817E7A" points="422.7,429.2 454.5,415.2 473,420.8 441.7,435.9 	"/>
	<polygon fill="#8E8C8A" points="473,420.8 473,427.3 449.8,438.7 441.7,435.9 	"/>
	<polygon fill="#86BCE4" points="490.7,412.6 490.7,431.2 473.3,435.6 420.3,417.8 408.2,407.3 408.2,387.9 421.7,395 475.6,413.5 	
		"/>
	<polygon fill="#6EADCC" points="408.2,387.9 409.6,386.8 422,393.3 476.2,411.7 490.7,411 490.7,412.6 475.6,413.5 421.7,395 	"/>
	<path fill="#A19B94" d="M555.2,417.3c0,0-7.4-2.7-15.4-1.1s-13.7,3.3-23.1,0.3c-9.4-3-209-68.2-209-68.2s-11-4.9-15.5-9.5
		c-4.5-4.7-5.9-5.3-7.9-4.6c-1.9,0.8-5.9,3.8-5.9,3.8s8.6,10.4,17.8,14.2c9.2,3.1,216.9,72.8,216.9,72.8s8.7,4.4,17,1.1
		c7.6-2.5,13.4-3.8,16-3c2.6,0.8,8.9,2.7,8.9,2.7V417.3z"/>
	<polygon fill="#86BCE4" points="387,377.4 387,387.9 355.4,396.5 319.5,384.1 314,375 314,358.2 371.3,377.4 	"/>
	<polygon fill="#6EADCC" points="314,358.2 371.3,377.4 387,377.4 385.5,376.4 371.4,376.2 315.3,357.4 	"/>
	<g>
		<polygon fill="#CCC5BE" points="284,338.6 284,288.4 324.5,261.7 397.5,239.2 425.9,240.8 425.9,276.3 430.8,276.3 430.8,237.2 
			397,235.4 321,257.7 278.5,285.8 278.5,338 		"/>
		<polygon fill="#D8D1C8" points="284,338.6 288.3,337.4 288.3,289 326.4,263.9 397.5,242.6 423.4,243.7 423.4,276.3 425.9,276.3 
			425.9,240.8 397.5,239.2 324.5,261.7 284,288.4 		"/>
	</g>
	<path fill="#FFFFFF" d="M683.9,343c0,0-2.6-1.8-6.5-2.8c-3.9-1-238.5-65.7-238.5-65.7s-14.4-3.6-29.9,2.1
		c-15.6,5.6-118.2,42.2-118.2,42.2l259.1,84.6c0,0,4.1,0.7,5.3,0.5c0,0,1.5,0,7.2-2.8C568.2,398.4,683.9,343,683.9,343z"/>
	<g>
		<polygon fill="#BAB3AE" points="642.8,377.4 640.9,376.2 640.9,316.6 642.8,316.6 		"/>
		<polygon fill="#BAB3AE" points="601.9,397.7 598.6,396.1 598.6,335.1 601.9,335.8 		"/>
		<polygon fill="#CCC5BE" points="588.6,342.5 588.6,404.3 599.7,398.9 599.7,337.2 		"/>
		<g>
			<polygon fill="#D8D1C8" points="547.4,415.8 555.2,417.3 555.2,372.2 584.2,344.6 654.9,310.8 673.4,315.1 673.4,315.1 
				676.4,315.8 669.6,308.4 654.5,304.9 579.9,339.7 547.4,369.9 			"/>
			<polygon fill="#CCC5BE" points="601.9,336.1 601.9,397.7 640.9,378.5 640.9,317.5 			"/>
			<polygon fill="#CCC5BE" points="652.4,312 652.4,372.6 642.8,377.4 642.8,316.6 			"/>
			<polygon fill="#CCC5BE" points="555.2,417.3 559.5,415.2 559.5,374.1 586.1,348.5 656.1,315.3 673.4,318.8 673.4,363.7 
				676.4,362.2 676.4,315.8 654.9,310.8 584.2,344.6 555.2,372.2 			"/>
			<polygon fill="#BAB3AE" points="588.6,404.3 584.5,402.9 584.5,350 586.1,348.5 588.6,347.3 			"/>
		</g>
	</g>
	<polygon fill="#CCC5BE" points="330.4,304.7 328,305.5 328,263.4 330.4,262.7 	"/>
	<polygon fill="#CCC5BE" points="339.8,301.3 339.8,259.9 341.3,259.5 341.3,300.8 	"/>
	<polygon fill="#CCC5BE" points="388.7,245.3 388.7,283.8 390.2,283.3 390.2,244.8 	"/>
	<g>
		<path fill="#D8D1C8" d="M549.9,305.1l1.8,0.5V268c0,0-1.8-8.7-10.9-10.4c-9-1.7-34-5.3-34-5.3s-11.2-1.7-11.3,7.8h0.7
			c0,0,0.3-8.3,10.8-6.8c10.5,1.4,33.9,5.5,33.9,5.5s6.7,0.2,9,9.4C549.9,277.3,549.9,305.1,549.9,305.1z"/>
		<path fill="#BAB3AE" d="M540.3,258.7c0,0-26.2-4.9-35.4-5.6c-9.2-0.6-9.6,7.8-9.6,7.8V290l54.5,15c0,0,0-27.9,0-36.9
			C548.2,259.1,540.3,258.7,540.3,258.7z M546.3,301.6l-47.3-13v-25.3c0,0,0.3-7.3,8.3-6.7c8,0.6,30.7,4.8,30.7,4.8s6.8,0.3,8.3,8.2
			C546.3,277.5,546.3,301.6,546.3,301.6z"/>
	</g>
	<g>
		<path fill="#878581" d="M410.1,355.9c0,0,41.5,16.9,73.7,23.5c0.9-0.5,1.4-1.3,1.4-1.3s-61.6-17-73.2-23.8L410.1,355.9z"/>
		<g>
			<path fill="#A19B94" d="M410.1,376.5v-20.6c0,0,49.5,19.1,73.7,23.5v21C483.8,400.4,437.2,393.2,410.1,376.5z"/>
			<polygon fill="#817E7A" points="485.2,378.2 483.8,379.4 483.8,400.4 485.2,399.7 			"/>
		</g>
	</g>
	<g>
		<path fill="#878581" d="M314,325.2c0,0,41.5,16.9,73.7,23.5c0.9-0.5,1.4-1.3,1.4-1.3s-61.6-17-73.2-23.8L314,325.2z"/>
		<polygon fill="#817E7A" points="389.1,347.4 387.7,348.7 387.7,369.7 389.1,369 		"/>
		<path fill="#A19B94" d="M314,345.8v-20.6c0,0,49.2,18.7,73.7,23.5v21C387.7,369.7,341.1,362.5,314,345.8z"/>
	</g>
	<polygon fill="#817E7A" points="284.4,364 284.4,386 302.4,391.6 302.4,369.7 	"/>
	<g>
		<path fill="#6DACCC" d="M338.6,296.7l34.1,9.4c0,0,0.8,6.6,0,10.7c-3.1,1-24.3-2.9-34.4-7.8C335.8,306.3,337.1,299.1,338.6,296.7z
			"/>
		<path fill="#78B4D8" d="M372.7,306.1l53.8-21.8c0,0,0.4,5.7,0,9.4c-1.9,3.7-49.6,21.8-53.8,23.1
			C373,314.1,372.7,306.1,372.7,306.1z"/>
		<path fill="#86BCE4" d="M426.5,284.3c0,0-24.9-8.4-28.6-8.5c-3.6,0.4-56.9,19.5-59.4,20.9c3.9,1.1,34.1,9.4,34.1,9.4L426.5,284.3z
			"/>
	</g>
	<polygon fill="#B1A9A2" points="728.6,375 728.6,487.7 825,513.8 825,398.6 	"/>
	<polygon fill="#C8C0B7" points="825,398.6 919.5,344.6 919.5,454.2 825,513.8 	"/>
	<polygon fill="#D8D1C8" points="728.6,375 823.5,324.4 919.5,344.6 825,398.6 	"/>
	<polygon fill="#817E7A" points="728.6,375 728.6,384.3 825,407.7 825,398.6 	"/>
	<polygon fill="#A19B94" points="825,407.7 825,398.6 919.5,344.6 919.5,354.4 	"/>
	<polygon fill="#86BCE4" points="513.2,487.7 490.7,499.7 601.9,539.9 601.9,518.4 	"/>
	<g>
		<polygon fill="#81B9DD" points="786.4,407.1 758.6,423.9 735.8,437.6 735.8,437.6 601.9,518.4 601.9,539.9 812.8,413.5 		"/>
		<polygon fill="#81B9DD" points="765.2,419.9 786.4,407.1 711,387.9 687.9,400.2 687.9,425.9 735.8,437.6 758.6,423.9 		"/>
	</g>
	<polygon fill="#6FAECE" points="687.9,400.2 687.9,425.9 735.8,437.6 765.2,419.9 	"/>
	<polygon fill="#74B7D8" points="687.9,425.9 687.9,437.6 722.1,445.9 735.8,437.6 	"/>
	<polygon fill="#66AECB" points="687.9,425.9 687.9,437.6 722.1,445.9 735.8,437.6 	"/>
	<polygon fill="#89C1E5" points="687.9,437.6 564.6,505.5 601.9,518.4 722.1,445.9 	"/>
	<polygon fill="#5297C1" points="490.7,499.7 490.7,606.3 601.9,649.8 601.9,539.9 	"/>
	<polygon fill="#62A1CE" points="601.9,539.9 601.9,649.8 812.8,518.4 812.8,413.5 	"/>
	<polygon fill="#FCF5EA" points="34.5,266.1 34.5,482.9 108.5,511 108.5,283.8 	"/>
	<polygon fill="#62A1CE" points="108.5,283 108.5,510.3 187,482.7 187,261.7 	"/>
	<polygon fill="#C8C0B7" points="34.5,266.1 108.5,283.8 187,262.4 115.9,243.7 	"/>
	<polygon fill="#20201D" points="187,379.8 187,483.4 267.5,455.9 267.5,351.7 	"/>
	<polygon fill="#817E7A" points="34.5,266.1 34.5,276.2 108.5,293.9 108.5,283.8 	"/>
	<polygon fill="#B1A9A2" points="108.5,283.8 108.5,293.9 187,272.3 187,262.4 	"/>
	<polygon fill="#86BCE4" points="111.9,439.6 187,412.5 187,431.2 111.9,458 	"/>
	<polygon fill="#817E7A" points="267.5,351.7 203.2,333.7 203.2,330.5 267.5,348.1 	"/>
	<polygon fill="#B1A9A2" points="267.5,351.7 267.5,348.1 187,375.1 187,379.8 	"/>
	<polygon fill="#C8C0B7" points="267.5,348.1 203.2,330.5 187,335.3 187,375.1 	"/>
	<polygon fill="#817E7A" points="34.5,474.8 34.5,482.9 108.5,511 108.5,502.3 	"/>
	<polygon fill="#B1A9A2" points="108.5,502.3 187,474.8 187,483.4 108.5,511 	"/>
	<polygon fill="#B1A9A2" points="187,478 267.5,450.7 267.5,455.9 187,483.4 	"/>
	<polygon fill="#86BCE4" points="111.7,485.5 187,458.8 187,477.5 111.7,503.9 	"/>
	<polygon fill="#FCF5EA" points="144.9,480.3 163.9,473.9 163.9,476.3 144.9,482.5 	"/>
	<polygon fill="#EEE7DC" points="144.9,482.5 143.5,482 143.5,479.7 144.9,480.3 	"/>
	<polygon fill="#FFFCF8" points="163.9,473.9 144.9,480.3 143.5,479.7 162.6,473.4 	"/>
	<polygon fill="#86BCE4" points="111.9,461.9 187,435.3 187,453.9 111.9,480.3 	"/>
	<polygon fill="#FCF5EA" points="144.9,457.2 163.9,450.9 163.9,453.2 144.9,459.4 	"/>
	<polygon fill="#EEE7DC" points="144.9,459.4 143.5,458.9 143.5,456.6 144.9,457.2 	"/>
	<polygon fill="#FFFCF8" points="163.9,450.9 144.9,457.2 143.5,456.6 162.6,450.3 	"/>
	<polygon fill="#FCF5EA" points="144.9,435.2 163.9,428.8 163.9,431.2 144.9,437.4 	"/>
	<polygon fill="#EEE7DC" points="144.9,437.4 143.5,436.9 143.5,434.6 144.9,435.2 	"/>
	<polygon fill="#FFFCF8" points="163.9,428.8 144.9,435.2 143.5,434.6 162.6,428.3 	"/>
	<polygon fill="#86BCE4" points="111.6,416.9 187,390 187,408.7 111.6,435.3 	"/>
	<polygon fill="#FCF5EA" points="144.9,412.6 163.9,406.3 163.9,408.6 144.9,414.8 	"/>
	<polygon fill="#EEE7DC" points="144.9,414.8 143.5,414.3 143.5,412.1 144.9,412.6 	"/>
	<polygon fill="#FFFCF8" points="163.9,406.3 144.9,412.6 143.5,412.1 162.6,405.7 	"/>
	<polygon fill="#86BCE4" points="111.6,294.8 152.6,283.5 152.6,400.5 111.6,414.9 	"/>
	<polygon fill="#86BCE4" points="153.5,283.3 153.5,400 187,388.2 187,274 	"/>
	<polygon fill="#4F90B7" points="111.7,414.9 108.5,414 108.5,294 111.7,294.8 	"/>
	<polygon fill="#4F90B7" points="111.6,416.9 109.2,416.1 109.2,434.5 111.6,435.3 	"/>
	<polygon fill="#4F90B7" points="111.9,439.6 109.2,438.9 109.2,457.1 111.9,458 	"/>
	<polygon fill="#4F90B7" points="111.9,461.9 109.2,460.9 109.2,479.5 111.9,480.3 	"/>
	<polygon fill="#4F90B7" points="111.7,485.4 109.2,484.5 109.2,502.8 111.7,503.9 	"/>
	<polygon fill="#8DC8ED" points="228.2,365.4 228.2,465 187,478.9 187,379.8 	"/>
	<polygon fill="#8DC8ED" points="229.9,364.9 229.9,464.4 267.5,451.6 267.5,351.7 	"/>
	<g>
		<polygon fill="#E2DACF" points="136.9,356 135.1,354.4 137.7,353.6 139,355.2 		"/>
		<polygon fill="#FCF5EA" points="139,330.8 139,355.9 136.9,356.7 136.9,331.5 		"/>
		<polygon fill="#FFFCF8" points="136.9,331.5 139,330.8 137.9,329.5 135.4,330.2 		"/>
		<polygon fill="#EEE7DC" points="136.9,331.5 136.3,331 136.3,356.1 136.9,356.7 		"/>
		<polygon fill="#EEE7DC" points="135.4,330.2 135.4,331.2 136.3,331.8 136.3,331 		"/>
		<polygon fill="#EEE7DC" points="136.9,356.7 135.1,355.2 135.1,354.5 136.9,356 		"/>
	</g>
	<g>
		<polygon fill="#E2DACF" points="170.4,348.5 168.6,347 171.2,346.1 172.5,347.7 		"/>
		<polygon fill="#FCF5EA" points="172.5,323.3 172.5,348.4 170.4,349.2 170.4,324 		"/>
		<polygon fill="#FFFCF8" points="170.4,324 172.5,323.3 171.4,322 169,322.8 		"/>
		<polygon fill="#EEE7DC" points="170.4,324 169.8,323.5 169.8,348.6 170.4,349.2 		"/>
		<polygon fill="#EEE7DC" points="169,322.8 169,323.7 169.8,324.4 169.8,323.5 		"/>
		<polygon fill="#EEE7DC" points="170.4,349.2 168.6,347.7 168.6,347 170.4,348.5 		"/>
	</g>
	<g>
		<polygon fill="#E2DACF" points="215.4,430.5 213.6,428.9 216.2,428 217.5,429.6 		"/>
		<polygon fill="#FCF5EA" points="217.5,405.3 217.5,430.4 215.4,431.2 215.4,406 		"/>
		<polygon fill="#FFFCF8" points="215.4,406 217.5,405.3 216.4,404 214,404.7 		"/>
		<polygon fill="#EEE7DC" points="215.4,406 214.8,405.5 214.8,430.6 215.4,431.2 		"/>
		<polygon fill="#EEE7DC" points="214,404.7 214,405.6 214.8,406.3 214.8,405.5 		"/>
		<polygon fill="#EEE7DC" points="215.4,431.2 213.6,429.6 213.6,428.9 215.4,430.5 		"/>
	</g>
	<g>
		<polygon fill="#E2DACF" points="244.6,422.1 242.8,420.5 245.4,419.7 246.8,421.3 		"/>
		<polygon fill="#FCF5EA" points="246.8,396.9 246.8,422 244.6,422.8 244.6,397.6 		"/>
		<polygon fill="#FFFCF8" points="244.6,397.6 246.8,396.9 245.7,395.6 243.2,396.3 		"/>
		<polygon fill="#EEE7DC" points="244.6,397.6 244,397.1 244,422.2 244.6,422.8 		"/>
		<polygon fill="#EEE7DC" points="243.2,396.3 243.2,397.3 244,397.9 244,397.1 		"/>
		<polygon fill="#EEE7DC" points="244.6,422.8 242.8,421.3 242.8,420.6 244.6,422.1 		"/>
	</g>
	<polygon fill="#62A1CE" points="229.9,464.4 229.1,463.8 229.1,365.2 229.9,364.9 	"/>
	<polygon fill="#8CC5EA" points="108.5,294 149.3,282.7 152.6,283.5 111.7,294.8 	"/>
	<polygon fill="#8CC5EA" points="153.5,283.3 150.3,282.4 184.2,273.1 187,274 	"/>
	<polygon fill="#8CC5EA" points="109.2,416.1 111.6,416.9 187,390 185,389.3 	"/>
	<polygon fill="#8CC5EA" points="109.2,438.9 111.9,439.6 187,412.5 185.2,411.5 	"/>
	<polygon fill="#8CC5EA" points="109.2,461.1 111.9,461.9 187,435.3 184.7,433.9 	"/>
	<polygon fill="#8CC5EA" points="109.2,484.7 111.9,485.4 187,458.8 184.8,457.8 	"/>
	<polygon fill="#FCF5EA" points="187,388.2 187,390 185,389.3 185,388.9 	"/>
	<polygon fill="#FCF5EA" points="187,408.7 187,412.5 185.2,411.5 185.2,409.3 	"/>
	<polygon fill="#FCF5EA" points="187,431.2 187,435.3 184.7,433.9 184.7,432 	"/>
	<polygon fill="#FCF5EA" points="187,453.9 187,458.8 184.8,457.8 184.8,454.7 	"/>
	<g>
		<polygon fill="#8E8C8A" points="441.7,449.3 441.7,466.6 458,459 458,441.6 		"/>
		<polygon fill="#817E7A" points="441.7,449.3 378.3,427.3 378.3,443.4 441.7,466.6 		"/>
		<polygon fill="#848280" points="458,441.6 395.1,419.6 378.3,427.3 441.7,449.3 		"/>
	</g>
	<polygon fill="#817E7A" points="428.2,343 428.2,439.6 400.3,429.7 400.3,336.1 	"/>
	<polygon fill="#8E8C8A" points="428.2,439.6 435.1,436.6 435.1,340.1 428.2,343 	"/>
	<polygon fill="#848280" points="400.3,336.1 408.2,333.5 435.1,340.1 428.2,343 	"/>
	<polygon fill="#20201D" points="408.5,336.1 424.2,340.1 424.2,335.4 408.5,331.5 	"/>
	<polygon fill="#282825" points="424.2,340.1 426.2,339.5 426.2,334.8 424.2,335.4 	"/>
	<polygon fill="#4F95B7" points="390.9,327.4 447.7,341.6 447.7,336.1 390.9,322.4 	"/>
	<polygon fill="#599AC1" points="447.7,336.1 523.7,307.7 523.7,313.6 447.7,341.6 	"/>
	<polygon fill="#62A1CE" points="390.9,322.4 447.7,336.1 523.7,307.7 472,294.4 	"/>
	<polygon fill="#FFFFFF" points="312.2,175.3 321,172.5 321,131.7 312.2,134.3 	"/>
	<polygon fill="#EBECED" points="312.2,175.3 291.9,168.2 291.9,162.8 312.2,169.6 	"/>
	<polygon fill="#EBECED" points="312.2,169.6 306.8,167.8 306.8,132.7 312.2,134.3 	"/>
	<polygon fill="#DEDDDD" points="291.9,162.8 306.8,159.4 306.8,167.8 	"/>
	<polygon fill="#CCCDCE" points="306.8,102 283.3,134.3 318.8,146.7 318.8,105.1 	"/>
	<polygon fill="#DEDDDD" points="318.8,105.1 337.1,99.3 351.6,136.2 318.8,146.7 	"/>
	<polygon fill="#D6D6D6" points="306.8,102 318.8,105.1 337.1,99.3 324.6,96.6 	"/>
</g>
</svg>
