<!-- Generator: Adobe Illustrator 18.0.0, SVG Export Plug-In  -->
<svg version="1.1"
	 xmlns="http://www.w3.org/2000/svg" xmlns:xlink="http://www.w3.org/1999/xlink" xmlns:a="http://ns.adobe.com/AdobeSVGViewerExtensions/3.0/"
	 x="0px" y="0px" width="735.2px" height="551.1px" viewBox="0 0 735.2 551.1" enable-background="new 0 0 735.2 551.1"
	 xml:space="preserve">
<defs>
</defs>
<g>
	<g>
		<g enable-background="new    ">
			<g enable-background="new    ">
				<defs>
					<path id="SVGID_1_" enable-background="new    " d="M3,135.1L206.4,0.9c0.9-0.7,2.1-1,3.3-0.8L6.3,134.3
						C5,134.2,3.9,134.5,3,135.1z"/>
				</defs>
				<clipPath id="SVGID_2_">
					<use xlink:href="#SVGID_1_"  overflow="visible"/>
				</clipPath>
				<g clip-path="url(#SVGID_2_)" enable-background="new    ">
					<path fill="#7F7E7E" d="M3,135.1L206.4,0.9c0.1-0.1,0.2-0.1,0.3-0.2L3.3,134.9C3.2,135,3.1,135.1,3,135.1"/>
					<path fill="#838081" d="M3.3,134.9L206.7,0.7c0.1-0.1,0.3-0.2,0.4-0.2L3.7,134.7C3.5,134.8,3.4,134.9,3.3,134.9"/>
					<path fill="#878586" d="M3.7,134.7L207.1,0.4c0.1-0.1,0.3-0.1,0.4-0.2L4.1,134.5C4,134.6,3.8,134.6,3.7,134.7"/>
					<path fill="#8C8A8A" d="M4.1,134.5L207.6,0.3c0.1,0,0.3-0.1,0.4-0.1L4.5,134.4C4.4,134.4,4.2,134.5,4.1,134.5"/>
					<path fill="#918E8F" d="M4.5,134.4L208,0.2c0.1,0,0.3-0.1,0.4-0.1L4.9,134.3C4.8,134.3,4.6,134.4,4.5,134.4"/>
					<path fill="#959393" d="M4.9,134.3L208.4,0.1c0.1,0,0.3,0,0.4-0.1L5.3,134.3C5.2,134.3,5,134.3,4.9,134.3"/>
					<path fill="#999697" d="M5.3,134.3L208.8,0c0.1,0,0.3,0,0.4,0L5.7,134.3C5.6,134.3,5.5,134.3,5.3,134.3"/>
					<path fill="#9E9C9D" d="M5.7,134.3L209.2,0c0.1,0,0.3,0,0.4,0L6.2,134.3C6,134.3,5.9,134.3,5.7,134.3"/>
					<path fill="#A2A0A0" d="M6.2,134.3L209.6,0c0,0,0.1,0,0.1,0L6.3,134.3C6.3,134.3,6.2,134.3,6.2,134.3"/>
				</g>
			</g>
			<g enable-background="new    ">
				<defs>
					<path id="SVGID_3_" enable-background="new    " d="M732.5,403.5L528,550.2c1.2-0.9,2-2.3,2-4l204.6-146.7
						C734.5,401.2,733.8,402.6,732.5,403.5z"/>
				</defs>
				<clipPath id="SVGID_4_">
					<use xlink:href="#SVGID_3_"  overflow="visible"/>
				</clipPath>
				<g clip-path="url(#SVGID_4_)" enable-background="new    ">
					<path fill="#878586" d="M530,546.2l204.6-146.7c0,0.1,0,0.2,0,0.3L530,546.5C530,546.4,530,546.3,530,546.2"/>
					<path fill="#838081" d="M530,546.5l204.6-146.7c0,0.2,0,0.4-0.1,0.5L529.9,547C529.9,546.8,529.9,546.6,530,546.5"/>
					<path fill="#7F7E7E" d="M529.9,547l204.6-146.7c0,0.2-0.1,0.4-0.1,0.6L529.8,547.6C529.8,547.4,529.9,547.2,529.9,547"/>
					<path fill="#7B797A" d="M529.8,547.6l204.6-146.7c-0.3,1.1-0.9,2-1.8,2.6L528,550.2C528.8,549.6,529.5,548.7,529.8,547.6"/>
				</g>
			</g>
			<g>
				<polygon fill="#AFACAD" points="6.3,134.3 209.7,0 729.9,44.1 525.3,190.9 				"/>
			</g>
			<g>
				<polygon fill="#918F8F" points="530.6,196.9 735.2,50.1 734.5,399.5 530,546.2 				"/>
			</g>
			<g>
				<path fill="#BDB9BA" d="M525.3,190.9c2.9,0.3,5.3,3,5.3,6L530,546.2c0,3-2.4,5.2-5.3,4.9l-519-56.6c-2.9-0.3-5.3-3-5.3-6
					L1,139.2c0-3,2.4-5.2,5.3-4.9L525.3,190.9z"/>
			</g>
			<g enable-background="new    ">
				<defs>
					<path id="SVGID_5_" enable-background="new    " d="M525.3,190.9L729.9,44.1c2.9,0.3,5.3,3,5.3,6L530.6,196.9
						C530.6,193.9,528.2,191.2,525.3,190.9z"/>
				</defs>
				<clipPath id="SVGID_6_">
					<use xlink:href="#SVGID_5_"  overflow="visible"/>
				</clipPath>
				<g clip-path="url(#SVGID_6_)" enable-background="new    ">
					<path fill="#A2A0A0" d="M525.3,190.9L729.9,44.1c0.1,0,0.2,0,0.4,0.1L525.7,190.9C525.6,190.9,525.4,190.9,525.3,190.9"/>
					<path fill="#A8A5A6" d="M525.7,190.9L730.2,44.2c0.2,0,0.4,0.1,0.5,0.1L526.2,191C526,191,525.9,190.9,525.7,190.9"/>
					<path fill="#AEABAC" d="M526.2,191L730.8,44.3c0.2,0.1,0.5,0.1,0.7,0.2L526.9,191.3C526.7,191.2,526.4,191.1,526.2,191"/>
					<path fill="#B2AFAF" d="M526.9,191.3L731.5,44.5c0.9,0.4,1.6,1,2.2,1.7L529.1,193C528.5,192.2,527.8,191.6,526.9,191.3"/>
					<path fill="#AEABAC" d="M529.1,193L733.7,46.2c0.2,0.2,0.3,0.4,0.5,0.6L529.6,193.6C529.5,193.3,529.3,193.1,529.1,193"/>
					<path fill="#A8A5A6" d="M529.6,193.6L734.2,46.8c0.1,0.2,0.2,0.3,0.3,0.5L529.9,194.1C529.8,193.9,529.7,193.7,529.6,193.6"/>
					<path fill="#A2A0A0" d="M529.9,194.1L734.5,47.3c0.1,0.1,0.2,0.3,0.2,0.5L530.1,194.5C530,194.4,530,194.2,529.9,194.1"/>
					<path fill="#9E9C9D" d="M530.1,194.5L734.7,47.8c0.1,0.1,0.1,0.3,0.2,0.4L530.3,194.9C530.2,194.8,530.2,194.7,530.1,194.5"/>
					<path fill="#999697" d="M530.3,194.9L734.9,48.2c0,0.1,0.1,0.3,0.1,0.4L530.4,195.4C530.4,195.2,530.3,195.1,530.3,194.9"/>
					<path fill="#959393" d="M530.4,195.4L735,48.6c0,0.1,0.1,0.3,0.1,0.4L530.5,195.8C530.5,195.6,530.4,195.5,530.4,195.4"/>
					<path fill="#918E8F" d="M530.5,195.8L735.1,49c0,0.1,0,0.3,0.1,0.4L530.6,196.2C530.6,196.1,530.5,195.9,530.5,195.8"/>
					<path fill="#8C8A8A" d="M530.6,196.2L735.1,49.5c0,0.2,0,0.3,0,0.5L530.6,196.7C530.6,196.5,530.6,196.4,530.6,196.2"/>
					<path fill="#878586" d="M530.6,196.7L735.2,49.9c0,0.1,0,0.1,0,0.2L530.6,196.9C530.6,196.8,530.6,196.7,530.6,196.7"/>
				</g>
			</g>
		</g>
	</g>
	<g>
		<polygon fill="#E9E6E7" points="397.4,454.9 0,411.4 0,135.8 397.4,179.3 		"/>
		<g>
			<g>
				<polygon fill="#22418E" points="119.3,407.4 85.2,403.7 85.2,386.6 119.3,390.4 				"/>
				<polygon fill="#22418E" points="119.3,373.3 85.2,369.6 85.2,352.6 119.3,356.3 				"/>
				<polygon fill="#22418E" points="119.3,339.3 85.2,335.5 85.2,318.5 119.3,322.2 				"/>
				<polygon fill="#22418E" points="119.3,305.2 85.2,301.4 85.2,284.4 119.3,288.1 				"/>
				<polygon fill="#22418E" points="178.9,413.9 144.8,410.2 144.8,393.2 178.9,396.9 				"/>
				<polygon fill="#22418E" points="178.9,379.9 144.8,376.1 144.8,359.1 178.9,362.8 				"/>
				<polygon fill="#22418E" points="178.9,345.8 144.8,342.1 144.8,325 178.9,328.8 				"/>
				<polygon fill="#22418E" points="178.9,311.7 144.8,308 144.8,290.9 178.9,294.7 				"/>
				<polygon fill="#22418E" points="247,421.4 213,417.7 213,400.6 247,404.4 				"/>
				<polygon fill="#22418E" points="247,387.3 213,383.6 213,366.6 247,370.3 				"/>
				<polygon fill="#22418E" points="247,353.3 213,349.5 213,332.5 247,336.2 				"/>
				<polygon fill="#22418E" points="247,319.2 213,315.4 213,298.4 247,302.1 				"/>
				<polygon fill="#22418E" points="311.8,428.5 277.7,424.8 277.7,407.7 311.8,411.5 				"/>
				<polygon fill="#22418E" points="311.8,394.4 277.7,390.7 277.7,373.7 311.8,377.4 				"/>
				<polygon fill="#22418E" points="311.8,326.3 277.7,322.5 277.7,305.5 311.8,309.2 				"/>
				<polygon fill="#22418E" points="311.8,360.3 277.7,356.6 277.7,339.6 311.8,343.3 				"/>
				<polygon fill="#22418E" points="59.6,400.9 25.6,397.1 25.6,380.1 59.6,383.8 				"/>
				<polygon fill="#22418E" points="59.6,366.8 25.6,363.1 25.6,346 59.6,349.8 				"/>
				<polygon fill="#22418E" points="59.6,332.7 25.6,329 25.6,311.9 59.6,315.7 				"/>
				<polygon fill="#22418E" points="59.6,298.6 25.6,294.9 25.6,277.9 59.6,281.6 				"/>
				<polygon fill="#22418E" points="371.4,435 337.3,431.3 337.3,414.3 371.4,418 				"/>
				<polygon fill="#22418E" points="371.4,401 337.3,397.2 337.3,380.2 371.4,383.9 				"/>
				<polygon fill="#22418E" points="371.4,366.9 337.3,363.2 337.3,346.1 371.4,349.8 				"/>
				<polygon fill="#22418E" points="371.4,332.8 337.3,329.1 337.3,312 371.4,315.8 				"/>
				<polygon fill="#22418E" points="371.4,298.7 337.3,295 337.3,278 371.4,281.7 				"/>
				<polygon fill="#22418E" points="311.8,292.2 277.7,288.5 277.7,271.4 311.8,275.2 				"/>
				<path fill="#ACAFB0" d="M53.2,279.4c0,5.9-4.8,10.1-10.6,9.5s-10.6-5.9-10.6-11.8s4.8-10.1,10.6-9.5S53.2,273.5,53.2,279.4z"/>
				<path fill="#ACAFB0" d="M112.9,285.9c0,5.9-4.8,10.1-10.6,9.5s-10.6-5.9-10.6-11.8s4.8-10.1,10.6-9.5
					C108.1,274.8,112.9,280.1,112.9,285.9z"/>
				<path fill="#ACAFB0" d="M172.5,292.5c0,5.9-4.8,10.1-10.6,9.5c-5.9-0.6-10.6-5.9-10.6-11.8c0-5.9,4.8-10.1,10.6-9.5
					C167.7,281.3,172.5,286.6,172.5,292.5z"/>
				<path fill="#ACAFB0" d="M240.6,299.9c0,5.9-4.8,10.1-10.6,9.5c-5.9-0.6-10.6-5.9-10.6-11.8c0-5.9,4.8-10.1,10.6-9.5
					C235.9,288.8,240.6,294.1,240.6,299.9z"/>
				<path fill="#ACAFB0" d="M305.4,307c0,5.9-4.8,10.1-10.6,9.5c-5.9-0.6-10.6-5.9-10.6-11.8s4.8-10.1,10.6-9.5
					C300.6,295.9,305.4,301.1,305.4,307z"/>
				<path fill="#ACAFB0" d="M305.4,374.6c0,5.9-4.8,10.1-10.6,9.5c-5.9-0.6-10.6-5.9-10.6-11.8s4.8-10.1,10.6-9.5
					C300.6,363.4,305.4,368.7,305.4,374.6z"/>
				<path fill="#ACAFB0" d="M305.4,408.6c0,5.9-4.8,10.1-10.6,9.5c-5.9-0.6-10.6-5.9-10.6-11.8s4.8-10.1,10.6-9.5
					C300.6,397.5,305.4,402.7,305.4,408.6z"/>
				<path fill="#ACAFB0" d="M305.4,339.9c0,5.9-4.8,10.1-10.6,9.5s-10.6-5.9-10.6-11.8s4.8-10.1,10.6-9.5S305.4,334,305.4,339.9z"/>
				<path fill="#ACAFB0" d="M240.6,367.5c0,5.9-4.8,10.1-10.6,9.5c-5.9-0.6-10.6-5.9-10.6-11.8c0-5.9,4.8-10.1,10.6-9.5
					C235.9,356.3,240.6,361.6,240.6,367.5z"/>
				<path fill="#ACAFB0" d="M240.6,401.5c0,5.9-4.8,10.1-10.6,9.5c-5.9-0.6-10.6-5.9-10.6-11.8s4.8-10.1,10.6-9.5
					C235.9,390.4,240.6,395.7,240.6,401.5z"/>
				<path fill="#ACAFB0" d="M240.6,332.8c0,5.9-4.8,10.1-10.6,9.5c-5.9-0.6-10.6-5.9-10.6-11.8s4.8-10.1,10.6-9.5
					C235.9,321.6,240.6,326.9,240.6,332.8z"/>
				<path fill="#ACAFB0" d="M172.5,360c0,5.9-4.8,10.1-10.6,9.5c-5.9-0.6-10.6-5.9-10.6-11.8c0-5.9,4.8-10.1,10.6-9.5
					C167.7,348.8,172.5,354.1,172.5,360z"/>
				<path fill="#ACAFB0" d="M172.5,394.1c0,5.9-4.8,10.1-10.6,9.5c-5.9-0.6-10.6-5.9-10.6-11.8s4.8-10.1,10.6-9.5
					C167.7,382.9,172.5,388.2,172.5,394.1z"/>
				<path fill="#ACAFB0" d="M172.5,325.3c0,5.9-4.8,10.1-10.6,9.5s-10.6-5.9-10.6-11.8s4.8-10.1,10.6-9.5S172.5,319.4,172.5,325.3z"
					/>
				<path fill="#ACAFB0" d="M112.9,353.5c0,5.9-4.8,10.1-10.6,9.5c-5.9-0.6-10.6-5.9-10.6-11.8c0-5.9,4.8-10.1,10.6-9.5
					C108.1,342.3,112.9,347.6,112.9,353.5z"/>
				<path fill="#ACAFB0" d="M112.9,387.5c0,5.9-4.8,10.1-10.6,9.5c-5.9-0.6-10.6-5.9-10.6-11.8s4.8-10.1,10.6-9.5
					C108.1,376.4,112.9,381.7,112.9,387.5z"/>
				<path fill="#ACAFB0" d="M112.9,318.8c0,5.9-4.8,10.1-10.6,9.5c-5.9-0.6-10.6-5.9-10.6-11.8s4.8-10.1,10.6-9.5
					C108.1,307.6,112.9,312.9,112.9,318.8z"/>
				<path fill="#ACAFB0" d="M53.2,346.9c0,5.9-4.8,10.1-10.6,9.5s-10.6-5.9-10.6-11.8s4.8-10.1,10.6-9.5
					C48.5,335.8,53.2,341,53.2,346.9z"/>
				<path fill="#ACAFB0" d="M53.2,381c0,5.9-4.8,10.1-10.6,9.5c-5.9-0.6-10.6-5.9-10.6-11.8c0-5.9,4.8-10.1,10.6-9.5
					C48.5,369.8,53.2,375.1,53.2,381z"/>
				<path fill="#ACAFB0" d="M53.2,312.2c0,5.9-4.8,10.1-10.6,9.5c-5.9-0.6-10.6-5.9-10.6-11.8s4.8-10.1,10.6-9.5
					C48.5,301.1,53.2,306.4,53.2,312.2z"/>
				<path fill="#ACAFB0" d="M365,313.6c0,5.9-4.8,10.1-10.6,9.5c-5.9-0.6-10.6-5.9-10.6-11.8s4.8-10.1,10.6-9.5
					C360.2,302.4,365,307.7,365,313.6z"/>
				<path fill="#ACAFB0" d="M365,381.1c0,5.9-4.8,10.1-10.6,9.5c-5.9-0.6-10.6-5.9-10.6-11.8s4.8-10.1,10.6-9.5S365,375.2,365,381.1
					z"/>
				<path fill="#ACAFB0" d="M365,415.2c0,5.9-4.8,10.1-10.6,9.5s-10.6-5.9-10.6-11.8s4.8-10.1,10.6-9.5S365,409.3,365,415.2z"/>
				<path fill="#ACAFB0" d="M365,346.4c0,5.9-4.8,10.1-10.6,9.5c-5.9-0.6-10.6-5.9-10.6-11.8c0-5.9,4.8-10.1,10.6-9.5
					C360.2,335.2,365,340.5,365,346.4z"/>
				<path fill="#ACAFB0" d="M305.4,272.3c0,5.9-4.8,10.1-10.6,9.5s-10.6-5.9-10.6-11.8s4.8-10.1,10.6-9.5S305.4,266.5,305.4,272.3z"
					/>
				<path fill="#ACAFB0" d="M365,278.9c0,5.9-4.8,10.1-10.6,9.5c-5.9-0.6-10.6-5.9-10.6-11.8s4.8-10.1,10.6-9.5
					C360.2,267.7,365,273,365,278.9z"/>
			</g>
			<polygon fill="#828486" points="247,255.3 144.8,244.1 144.8,269.7 247,280.9 			"/>
			<polygon fill="#828486" points="119.3,241.3 25.6,231 25.6,256.6 119.3,266.9 			"/>
			<polygon fill="#797C80" points="247,188.4 25.6,164.1 25.6,215.2 247,239.5 			"/>
			<g>
				<g>
					<path fill="#ACAFB0" d="M335,244.5c0,5.9-4.8,10.1-10.6,9.5c-5.9-0.6-10.6-5.9-10.6-11.8s4.8-10.1,10.6-9.5
						C330.2,233.3,335,238.6,335,244.5z"/>
					<path fill="#E0E3E3" d="M328.6,247.6c0,2.4-1.9,4.1-4.3,3.8c-2.4-0.3-4.3-2.4-4.3-4.7s1.9-4.1,4.3-3.8
						C326.7,243.1,328.6,245.2,328.6,247.6z"/>
				</g>
				<g>
					<path fill="#ACAFB0" d="M360.6,221.7c0,5.9-4.8,10.1-10.6,9.5c-5.9-0.6-10.6-5.9-10.6-11.8c0-5.9,4.8-10.1,10.6-9.5
						C355.8,210.5,360.6,215.8,360.6,221.7z"/>
					<path fill="#E0E3E3" d="M358,221.4c0,2.4-1.9,4.1-4.3,3.8c-2.4-0.3-4.3-2.4-4.3-4.7s1.9-4.1,4.3-3.8
						C356.1,217,358,219.1,358,221.4z"/>
				</g>
				<g>
					<path fill="#ACAFB0" d="M309.4,216.1c0,5.9-4.8,10.1-10.6,9.5c-5.9-0.6-10.6-5.9-10.6-11.8s4.8-10.1,10.6-9.5
						C304.7,204.9,309.4,210.2,309.4,216.1z"/>
					<path fill="#E0E3E3" d="M299.2,215c0,2.4-1.9,4.1-4.3,3.8c-2.4-0.3-4.3-2.4-4.3-4.7s1.9-4.1,4.3-3.8
						C297.3,210.5,299.2,212.6,299.2,215z"/>
				</g>
				<g>
					<path fill="#ACAFB0" d="M335,193.3c0,5.9-4.8,10.1-10.6,9.5c-5.9-0.6-10.6-5.9-10.6-11.8s4.8-10.1,10.6-9.5
						S335,187.5,335,193.3z"/>
					<path fill="#E0E3E3" d="M328.6,188.8c0,2.4-1.9,4.1-4.3,3.8c-2.4-0.3-4.3-2.4-4.3-4.7c0-2.4,1.9-4.1,4.3-3.8
						C326.7,184.3,328.6,186.5,328.6,188.8z"/>
				</g>
			</g>
		</g>
	</g>
	<g>
		<polygon fill="#E4E0E0" points="397.4,537 0,493.2 0,411.1 397.4,454.9 		"/>
		<polygon fill="#BFBBBA" points="397.4,537 113.6,505.7 159,462.7 397.4,489 		"/>
	</g>
	<polygon fill="#AFAFAA" points="442.4,436.6 443.7,436.7 443.7,345.5 442.4,345.4 	"/>
	<polygon fill="#ADADAC" points="441.1,436.5 442.4,436.6 442.4,345.4 441.1,345.3 	"/>
	<polygon fill="#636462" points="443.7,436.7 445.1,436.8 445.1,345.6 443.7,345.5 	"/>
	<polygon fill="#636462" points="445.1,436.8 446.4,436.9 446.4,345.7 445.1,345.6 	"/>
	<path fill="#DFDFDF" d="M477.9,398.4c0,19.9-15.6,34.9-34.8,33.5s-34.8-18.7-34.8-38.7c0-19.9,15.6-34.9,34.8-33.5
		S477.9,378.4,477.9,398.4z"/>
	<g>
		<path fill="#807F7F" d="M431.1,406.8c0,4.1-3.4,7.3-7.5,6.9c-4.1-0.3-7.5-3.9-7.5-8.1c0-4.1,3.4-7.3,7.5-6.9
			C427.8,399,431.1,402.7,431.1,406.8z"/>
		<path fill="#F9FAF5" d="M429.3,406.7c0,3.1-2.5,5.4-5.6,5.2c-3.1-0.2-5.6-2.9-5.6-6.1c0-3.1,2.5-5.4,5.6-5.2
			C426.7,400.8,429.3,403.6,429.3,406.7z"/>
	</g>
	<g>
		<path fill="#807F7F" d="M468.3,384.9c0,4.1-3.4,7.3-7.5,6.9c-4.1-0.3-7.5-3.9-7.5-8.1c0-4.1,3.4-7.3,7.5-6.9
			C465,377.1,468.3,380.8,468.3,384.9z"/>
		<path fill="#F9FAF5" d="M466.5,384.8c0,3.1-2.5,5.4-5.6,5.2c-3.1-0.2-5.6-2.9-5.6-6.1s2.5-5.4,5.6-5.2
			C463.9,378.9,466.5,381.6,466.5,384.8z"/>
	</g>
	<polygon fill="#FAF7F4" points="447.5,446.4 437.3,445.6 437.3,436.2 447.5,437 	"/>
	<polygon fill="#ADABA9" points="447.5,446.4 456.6,447 456.6,437.7 447.5,437 	"/>
	<polygon fill="#C3C2C0" points="434.7,445.4 437.3,445.6 437.3,436.2 434.7,436 	"/>
	<polygon fill="#888787" points="439.8,349.3 450.1,350 450.1,358.9 439.8,358.1 	"/>
	<polygon fill="#8B8786" points="439.8,349.3 433.3,348.8 433.3,357.6 439.8,358.1 	"/>
	<polygon fill="#76726F" points="455.5,350.4 450.1,350 450.1,358.9 455.5,359.3 	"/>
	<polygon fill="#888787" points="441.1,337.7 448.4,338.2 448.4,345.8 441.1,345.3 	"/>
	<polygon fill="#8B8786" points="441.1,337.7 436.6,337.4 436.6,345 441.1,345.3 	"/>
	<polygon fill="#76726F" points="452.2,338.5 448.4,338.2 448.4,345.8 452.2,346.1 	"/>
	<path fill="#DFDFDF" d="M496.4,328.4l-37.8-2.8c-6.3-0.5-11.4-5.9-11.4-12.2V229c0-12.5,10.2-22,22.7-21l15,1.1
		c12.5,0.9,22.7,11.9,22.7,24.4v84.4C507.7,324.2,502.6,328.9,496.4,328.4z"/>
	<g>
		<path fill="#807F7F" d="M495.9,226.8c0,4.1-3.4,7.3-7.5,6.9c-4.1-0.3-7.5-3.9-7.5-8.1s3.4-7.3,7.5-6.9
			C492.6,219,495.9,222.6,495.9,226.8z"/>
		<path opacity="0.8" fill="#FFFFFF" d="M494,226.6c0,3.1-2.5,5.4-5.6,5.2s-5.6-2.9-5.6-6.1c0-3.1,2.5-5.4,5.6-5.2
			S494,223.5,494,226.6z"/>
	</g>
	<g>
		<path fill="#807F7F" d="M473.3,225.1c0,4.1-3.4,7.3-7.5,6.9c-4.1-0.3-7.5-3.9-7.5-8.1s3.4-7.3,7.5-6.9
			C469.9,217.3,473.3,220.9,473.3,225.1z"/>
		<path opacity="0.8" fill="#FFFFFF" d="M471.4,224.9c0,3.1-2.5,5.4-5.6,5.2s-5.6-2.9-5.6-6.1s2.5-5.4,5.6-5.2
			S471.4,221.8,471.4,224.9z"/>
	</g>
	<g>
		<path fill="#807F7F" d="M473.3,271.4c0,4.1-3.4,7.3-7.5,6.9c-4.1-0.3-7.5-3.9-7.5-8.1c0-4.1,3.4-7.3,7.5-6.9
			C469.9,263.6,473.3,267.3,473.3,271.4z"/>
		<path opacity="0.8" fill="#FFFFFF" d="M471.4,271.3c0,3.1-2.5,5.4-5.6,5.2s-5.6-2.9-5.6-6.1s2.5-5.4,5.6-5.2
			S471.4,268.2,471.4,271.3z"/>
	</g>
	<g>
		<path fill="#807F7F" d="M495.9,272.6c0,4.1-3.4,7.3-7.5,6.9c-4.1-0.3-7.5-3.9-7.5-8.1c0-4.1,3.4-7.3,7.5-6.9
			C492.6,264.8,495.9,268.4,495.9,272.6z"/>
		<path opacity="0.8" fill="#FFFFFF" d="M494,272.4c0,3.1-2.5,5.4-5.6,5.2s-5.6-2.9-5.6-6.1s2.5-5.4,5.6-5.2S494,269.3,494,272.4z"
			/>
	</g>
</g>
</svg>
