<!-- Generator: Adobe Illustrator 18.0.0, SVG Export Plug-In  -->
<svg version="1.1"
	 xmlns="http://www.w3.org/2000/svg" xmlns:xlink="http://www.w3.org/1999/xlink" xmlns:a="http://ns.adobe.com/AdobeSVGViewerExtensions/3.0/"
	 x="0px" y="0px" width="2033.7px" height="1340.7px" viewBox="0 0 2033.7 1340.7" enable-background="new 0 0 2033.7 1340.7"
	 xml:space="preserve">
<defs>
</defs>
<g>
	<rect x="17.7" y="109.5" fill="#89C16A" width="1925.8" height="1084.1"/>
	<g>
		<defs>
			<rect id="SVGID_1_" x="17.7" y="109.5" width="1925.8" height="1084.1"/>
		</defs>
		<clipPath id="SVGID_2_">
			<use xlink:href="#SVGID_1_"  overflow="visible"/>
		</clipPath>
		<g id="new_routes_1_" clip-path="url(#SVGID_2_)">
			<g>
				<g>
					<path fill="#D1D3D4" d="M610.9,1189.5c0-26.2,0-52.5,0-78.7c0-16.5,0-32.9,0-49.4c0-4.3,0-8.6,0-12.9c0-0.6,0.2-2.9-0.1-0.7
						c0.1-0.9,0.3-1.9,0.5-2.8c2.8-13.2,7.9-26.1,15.3-37.4c5.2-7.9,11.9-14.7,19.9-19.7c10-6.2,20.6-7.2,32.1-8
						c20.3-1.3,38.8-10.4,49.2-28.4c7.5-13.1,9.6-28.6,9.9-43.5c1.1-52.6,0.1-105.3,0.2-158c0.2-102.4,0.5-204.9,1-307.3
						c0.5-134.5,1.3-268.9,2.1-403.4c0-5-7.8-5-7.8,0c-0.9,138.8-1.6,277.5-2.2,416.3c-0.4,100.9-0.7,201.8-0.9,302.7
						c-0.1,32.1-0.1,64.2-0.2,96.3c0,19.5,0.7,39.1-0.2,58.5c-0.8,15.6-4.5,31.8-15.3,43.6c-7,7.6-16.4,11.8-26.3,14
						c-11.7,2.6-23.4,1.2-34.9,5.3c-28.2,10.1-44.9,41.1-49.8,69.3c-1.1,6.3-0.2,13.4-0.2,19.8c0,16.3,0,32.6,0,49
						c0,25.1,0,50.2,0,75.3C603.1,1194.5,610.9,1194.5,610.9,1189.5L610.9,1189.5z"/>
				</g>
			</g>
			<g>
				<g>
					<path fill="#D1D3D4" d="M646.3,1298.6c0-63.1,0-126.3,0-189.4c0-19.8-0.7-39.2,5.9-58.4c6.7-19.5,21.4-33.7,42.4-35.8
						c14.1-1.4,27.4-1.5,40.7-7.1c9.5-4,17.9-10.1,24.2-18.3c16.3-21.3,14-49.1,14-74.3c0-25.9,0.1-51.8,0.1-77.7
						c0.2-89.6,0.4-179.1,0.8-268.7c0.5-136.8,1.2-273.6,2-410.4c0.3-51.4,0.6-102.8,0.9-154.3c0-5.8-9-5.8-9,0
						c-1,150.7-1.8,301.4-2.5,452c-0.5,104.6-0.8,209.2-1.1,313.8c-0.1,54.8-0.3,109.6-0.3,164.5c0,14.9-0.8,29.9-8,43.3
						c-4.7,8.8-12.1,15.5-20.9,20.1c-12.8,6.7-26.9,7-41,8.1c-41.6,3.2-56.5,44.5-57.5,80.6c-0.5,18.6,0.2,37.5,0.2,56.1
						c0,40.3,0,80.6,0,120.8c0,11.7,0,23.3,0,35C637.3,1304.4,646.3,1304.4,646.3,1298.6L646.3,1298.6z"/>
				</g>
			</g>
			<g>
				<g>
					<path fill="#D1D3D4" d="M1947.7,379.7c-34.5,0-68.9,0-103.4,0c-86.2,0-172.3,0-258.5,0c-112,0-224,0-335.9,0
						c-111.9,0-223.8,0-335.7,0c-86,0-171.9,0-257.9,0c-25.2,0-50.3,0-75.5,0c-6.7,0-13.4,0-20.1,0c-2.9,0-6.4-0.5-9.2,0.3
						c-7.8,2.1-15.5,7.1-22.8,10.5c-18.1,8.4-36.1,16.7-54.2,25.1c-50.6,23.4-101.1,46.8-151.7,70.3
						c-41.2,19.1-82.3,38.1-123.5,57.2c-2.8,1.3-4.5,4.8-4.5,7.8c0,55.5,0,110.9,0,166.4c0,111.5,0,223,0,334.5
						c0,85.1,0,170.2,0,255.4c0,8.3,0,16.7,0,25c0,11.6,18,11.6,18,0c0-55.5,0-110.9,0-166.4c0-111.5,0-223,0-334.5
						c0-85.1,0-170.2,0-255.4c0-8.3,0-16.7,0-25c-1.5,2.6-3,5.2-4.5,7.8c76-35.2,152-70.4,228-105.6c37.6-17.4,75.2-34.9,112.9-52.3
						c2.9-1.3,5.8-2.7,8.7-4c2.3-1.1-6.7,1-3,1c4.1,0,8.2,0,12.3,0c55.2,0,110.5,0,165.7,0c98,0,196,0,294,0
						c114.9,0,229.8,0,344.6,0c105.9,0,211.8,0,317.7,0c71,0,142,0,213,0c15.2,0,30.4,0,45.6,0
						C1959.3,397.7,1959.3,379.7,1947.7,379.7L1947.7,379.7z"/>
				</g>
			</g>
			<g>
				<g>
					<path fill="#D1D3D4" d="M1704.8,1200.2c0-18.8,0-37.6,0-56.4c0-49.1,0-98.2-0.1-147.3c0-68.4,0-136.7-0.1-205.1
						c0-76.6-0.1-153.3-0.1-229.9c0-73.9-0.1-147.8-0.1-221.8c0-60.2,0-120.4-0.1-180.6c0-35.5,0-70.9,0-106.4c0-5,0-10.1,0-15.1
						c0-5.8-9-5.8-9,0c0,18.8,0,37.6,0,56.4c0,49.1,0,98.2,0.1,147.3c0,68.4,0,136.7,0.1,205.1c0,76.6,0.1,153.3,0.1,229.9
						c0,73.9,0.1,147.8,0.1,221.8c0,60.2,0,120.4,0.1,180.6c0,35.5,0,70.9,0,106.4c0,5,0,10.1,0,15.1
						C1695.7,1206,1704.8,1206,1704.8,1200.2L1704.8,1200.2z"/>
				</g>
			</g>
			<g>
				<g>
					<path fill="#D1D3D4" d="M1682.5,1269.9c0-20.3,0-40.5,0-60.8c0-52.9,0-105.7-0.1-158.6c0-73.6-0.1-147.3-0.1-220.9
						c0-82.5-0.1-165.1-0.1-247.6c0-79.6-0.1-159.2-0.1-238.8c0-64.8-0.1-129.7-0.1-194.5c0-38.2,0-76.4,0-114.6
						c0-5.4,0-10.8,0-16.2c0-6.7-10.4-6.7-10.4,0c0,20.3,0,40.5,0,60.8c0,52.9,0,105.7,0.1,158.6c0,73.6,0.1,147.3,0.1,220.9
						c0,82.5,0.1,165.1,0.1,247.6c0,79.6,0.1,159.2,0.1,238.8c0,64.8,0.1,129.7,0.1,194.5c0,38.2,0,76.4,0,114.6
						c0,5.4,0,10.8,0,16.2C1672.1,1276.6,1682.5,1276.6,1682.5,1269.9L1682.5,1269.9z"/>
				</g>
			</g>
			<g>
				<g>
					<path fill="#D1D3D4" d="M223.9,112c48.6,63.4,97.3,126.8,145.9,190.3c33.3,43.5,66.7,86.9,100,130.4
						c10.9,14.2,21.8,28.5,32.7,42.7c4.2,5.4,8,11.9,12.9,16.8c3.4,3.4,13.8,1.5,17.8,1.5c14.1,0,28.3,0,42.4,0
						c47.7,0,95.5,0,143.2,0c111.9,0,223.7,0,335.6,0c29.1,0,58.1,0,87.2,0c1.5,0,3,0,4.5,0c-3.6,0-2.1-0.4,0.7,1.3
						c3.2,2,6.4,4,9.6,6c22.8,14.3,45.6,28.6,68.4,43c17,10.7,33.9,21.3,50.9,32c-0.8-1.4-1.7-2.9-2.5-4.3c0,78.2,0,156.5,0,234.7
						c0,87.6,0,175.2,0,262.8c0,0.8,0,1.6,0,2.4c0,2.7,2.3,5,5,5c60.3,0.1,120.6,0.1,180.9,0.2c115.6,0.1,231.2,0.2,346.9,0.4
						c73,0.1,146.1,0.2,219.1,0.2c1.3,0,2.5,0,3.8,0c6.5,0,6.4-10,0-10c-60.3-0.1-120.6-0.1-180.9-0.2
						c-115.6-0.1-231.2-0.2-346.9-0.4c-73-0.1-146.1-0.2-219.1-0.2c-1.3,0-2.5,0-3.8,0c1.7,1.7,3.3,3.3,5,5c0-78.2,0-156.5,0-234.7
						c0-87.6,0-175.2,0-262.8c0-8.8-12.8-13.2-19.3-17.3c-23.4-14.7-46.8-29.4-70.2-44.1c-15-9.4-30-18.8-45-28.3
						c-3.9-2.4-12.7-0.7-16.8-0.7c-91.1,0-182.2,0-273.2,0c-101.2,0-202.5,0-303.7,0c-12,0-23.9,0-35.9,0c1.4,0.8,2.9,1.7,4.3,2.5
						c-48.6-63.4-97.3-126.8-145.9-190.3c-48.3-62.9-96.6-125.9-144.9-188.8C228.7,101.9,220,106.9,223.9,112L223.9,112z"/>
				</g>
			</g>
			<g>
				<g>
					<path fill="#D1D3D4" d="M1978.5,494.3c-66.3,37.2-132.6,74.4-198.8,111.6c-78.1,43.8-156.1,87.7-234.2,131.5
						c-1.6,0.9-3.1,1.8-4.7,2.6c2.3-1.3,2.7-0.6,0.3-0.6c-5,0-9.9,0-14.9,0c-23.1,0-46.1,0-69.2,0c-85.7,0-171.4,0-257.1,0
						c-113.8,0-227.5,0-341.3,0c-112.2,0-224.4,0-336.6,0c-81,0-162.1,0-243.1,0c-22.5,0-45,0-67.6,0c-5.8,0-5.8,9,0,9
						c36.9,0,73.7,0,110.6,0c90.8,0,181.6,0,272.5,0c115.2,0,230.4,0,345.5,0c109.9,0,219.9,0,329.8,0c75.1,0,150.1,0,225.2,0
						c15.2,0,30.4,0,45.6,0c2.9,0,4.8-0.6,7.4-2c9.4-5.3,18.8-10.6,28.2-15.8c90.8-51,181.6-102,272.4-153
						c44.8-25.2,89.7-50.4,134.5-75.5C1988.1,499.2,1983.6,491.5,1978.5,494.3L1978.5,494.3z"/>
				</g>
			</g>
			<g>
				<g>
					<path fill="#D1D3D4" d="M980.1,118.8c23.8,29.7,47.5,59.3,71.3,89c38.6,48.2,77.2,96.4,115.8,144.6c9.9,12.3,19.8,24.7,29.7,37
						c3.6,4.6,11.3,3.8,15.1,0c4.5-4.5,3.6-10.6,0-15.1c-23.8-29.7-47.5-59.3-71.3-89c-38.6-48.2-77.2-96.4-115.8-144.6
						c-9.9-12.3-19.8-24.7-29.7-37c-3.6-4.6-11.3-3.8-15.1,0C975.7,108.1,976.5,114.2,980.1,118.8L980.1,118.8z"/>
				</g>
			</g>
			<g>
				<g>
					<path fill="#D1D3D4" d="M1485.2,1214.2c0-22.6,0-45.2,0-67.7c0-56.3,0-112.7,0-169c0-73,0-146.1,0-219.1c0-72.7,0-145.3,0-218
						c0-55.2,0-110.4,0-165.6c0-20.7,0-41.4,0-62.1c-0.7,1.3-1.5,2.6-2.2,3.9c31.6-15.8,63.2-31.7,94.7-47.5
						c64.5-32.4,129.1-64.7,193.6-97.1c52.2-26.2,104.4-52.3,156.6-78.5c7.4-3.7,14.8-7.4,22.2-11.1c5.2-2.6,0.6-10.4-4.5-7.8
						c-31.6,15.8-63.2,31.7-94.7,47.5c-64.5,32.4-129.1,64.7-193.6,97.1c-52.2,26.2-104.4,52.3-156.6,78.5
						c-7.4,3.7-14.8,7.4-22.2,11.1c-1.4,0.7-2.2,2.4-2.2,3.9c0,22.6,0,45.2,0,67.7c0,56.3,0,112.7,0,169c0,73,0,146.1,0,219.1
						c0,72.7,0,145.3,0,218c0,55.2,0,110.4,0,165.6c0,20.7,0,41.4,0,62.1C1476.2,1220,1485.2,1220,1485.2,1214.2L1485.2,1214.2z"/>
				</g>
			</g>
			<g>
				<g>
					<path fill="#D1D3D4" d="M18.1,924.7c31.3,0,62.5,0,93.8,0c81.6,0,163.1,0,244.7,0c113.6,0,227.2,0,340.8,0
						c127.3,0,254.6,0,381.9,0c122.7,0,245.5,0,368.2,0c99.9,0,199.7,0,299.6,0c58.7,0,117.4,0,176.1,0c8.2,0,16.4,0,24.6,0
						c24.2,0,24.2-37.5,0-37.5c-31.3,0-62.5,0-93.8,0c-81.6,0-163.1,0-244.7,0c-113.6,0-227.2,0-340.8,0c-127.3,0-254.6,0-381.9,0
						c-122.7,0-245.5,0-368.2,0c-99.9,0-199.7,0-299.6,0c-58.7,0-117.4,0-176.1,0c-8.2,0-16.4,0-24.6,0C-6,887.2-6,924.7,18.1,924.7
						L18.1,924.7z"/>
				</g>
			</g>
			<g>
				<circle fill="#FFFFFF" cx="607" cy="485" r="17.6"/>
				<g>
					<path fill="#D1D3D4" d="M620.1,485c-0.6,16.8-25.5,16.8-26.1,0c-0.3-7.3,6.1-12.8,13-13C614.3,471.7,619.8,478.1,620.1,485
						c0.2,5.9,9.4,5.9,9.1,0c-0.5-12.4-9.8-21.7-22.2-22.2c-12.4-0.5-21.7,10.5-22.2,22.2c-0.5,12.4,10.5,21.7,22.2,22.2
						c12.4,0.5,21.7-10.5,22.2-22.2C629.4,479.2,620.3,479.2,620.1,485z"/>
				</g>
			</g>
			<g>
				<circle fill="#FFFFFF" cx="1035.8" cy="485" r="17.6"/>
				<g>
					<path fill="#D1D3D4" d="M1048.8,485c-0.6,16.8-25.5,16.8-26.1,0c-0.3-7.3,6.1-12.8,13-13C1043.1,471.7,1048.6,478.1,1048.8,485
						c0.2,5.9,9.4,5.9,9.1,0c-0.5-12.4-9.8-21.7-22.2-22.2c-12.4-0.5-21.7,10.5-22.2,22.2c-0.5,12.4,10.5,21.7,22.2,22.2
						c12.4,0.5,21.7-10.5,22.2-22.2C1058.2,479.2,1049.1,479.2,1048.8,485z"/>
				</g>
			</g>
			<g>
				<circle fill="#FFFFFF" cx="1205.5" cy="387.7" r="17.6"/>
				<g>
					<path fill="#D1D3D4" d="M1218.6,387.7c-0.6,16.8-25.5,16.8-26.1,0c-0.3-7.3,6.1-12.8,13-13
						C1212.8,374.4,1218.3,380.8,1218.6,387.7c0.2,5.9,9.4,5.9,9.1,0c-0.5-12.4-9.8-21.7-22.2-22.2c-12.4-0.5-21.7,10.5-22.2,22.2
						c-0.5,12.4,10.5,21.7,22.2,22.2c12.4,0.5,21.7-10.5,22.2-22.2C1227.9,381.8,1218.8,381.8,1218.6,387.7z"/>
				</g>
			</g>
			<g>
				<circle fill="#FFFFFF" cx="1544.6" cy="742" r="17.6"/>
				<g>
					<path fill="#D1D3D4" d="M1557.6,742c-0.6,16.8-25.5,16.8-26.1,0c-0.3-7.3,6.1-12.8,13-13C1551.9,728.6,1557.4,735,1557.6,742
						c0.2,5.9,9.4,5.9,9.1,0c-0.5-12.4-9.8-21.7-22.2-22.2c-12.4-0.5-21.7,10.5-22.2,22.2c-0.5,12.4,10.5,21.7,22.2,22.2
						c12.4,0.5,21.7-10.5,22.2-22.2C1567,736.1,1557.9,736.1,1557.6,742z"/>
				</g>
			</g>
			<g>
				<circle fill="#FFFFFF" cx="1279.4" cy="1066" r="17.6"/>
				<g>
					<path fill="#D1D3D4" d="M1292.4,1066c-0.6,16.8-25.5,16.8-26.1,0c-0.3-7.3,6.1-12.8,13-13
						C1286.7,1052.6,1292.2,1059.1,1292.4,1066c0.2,5.9,9.4,5.9,9.1,0c-0.5-12.4-9.8-21.7-22.2-22.2c-12.4-0.5-21.7,10.5-22.2,22.2
						c-0.5,12.4,10.5,21.7,22.2,22.2c12.4,0.5,21.7-10.5,22.2-22.2C1301.8,1060.1,1292.7,1060.1,1292.4,1066z"/>
				</g>
			</g>
			<g>
				<circle fill="#FFFFFF" cx="894.9" cy="742" r="17.6"/>
				<g>
					<path fill="#D1D3D4" d="M907.9,742c-0.6,16.8-25.5,16.8-26.1,0c-0.3-7.3,6.1-12.8,13-13C902.2,728.6,907.7,735,907.9,742
						c0.2,5.9,9.4,5.9,9.1,0c-0.5-12.4-9.8-21.7-22.2-22.2c-12.4-0.5-21.7,10.5-22.2,22.2c-0.5,12.4,10.5,21.7,22.2,22.2
						c12.4,0.5,21.7-10.5,22.2-22.2C917.3,736.1,908.2,736.1,907.9,742z"/>
				</g>
			</g>
			<g>
				<circle fill="#FFFFFF" cx="203.4" cy="743" r="17.6"/>
				<g>
					<path fill="#D1D3D4" d="M216.4,743c-0.6,16.8-25.5,16.8-26.1,0c-0.3-7.3,6.1-12.8,13-13C210.7,729.6,216.2,736,216.4,743
						c0.2,5.9,9.4,5.9,9.1,0c-0.5-12.4-9.8-21.7-22.2-22.2c-12.4-0.5-21.7,10.5-22.2,22.2c-0.5,12.4,10.5,21.7,22.2,22.2
						c12.4,0.5,21.7-10.5,22.2-22.2C225.8,737.1,216.7,737.1,216.4,743z"/>
				</g>
			</g>
			<g>
				<circle fill="#FFFFFF" cx="203.4" cy="905.9" r="17.6"/>
				<g>
					<path fill="#D1D3D4" d="M216.4,905.9c-0.6,16.8-25.5,16.8-26.1,0c-0.3-7.3,6.1-12.8,13-13C210.7,892.6,216.2,899,216.4,905.9
						c0.2,5.9,9.4,5.9,9.1,0c-0.5-12.4-9.8-21.7-22.2-22.2c-12.4-0.5-21.7,10.5-22.2,22.2c-0.5,12.4,10.5,21.7,22.2,22.2
						c12.4,0.5,21.7-10.5,22.2-22.2C225.8,900,216.7,900,216.4,905.9z"/>
				</g>
			</g>
			<g>
				<circle fill="#FFFFFF" cx="1544.6" cy="905.7" r="17.6"/>
				<g>
					<path fill="#D1D3D4" d="M1557.6,905.7c-0.6,16.8-25.5,16.8-26.1,0c-0.3-7.3,6.1-12.8,13-13
						C1551.9,892.3,1557.4,898.8,1557.6,905.7c0.2,5.9,9.4,5.9,9.1,0c-0.5-12.4-9.8-21.7-22.2-22.2c-12.4-0.5-21.7,10.5-22.2,22.2
						c-0.5,12.4,10.5,21.7,22.2,22.2c12.4,0.5,21.7-10.5,22.2-22.2C1567,899.8,1557.9,899.8,1557.6,905.7z"/>
				</g>
			</g>
			<g>
				<circle fill="#FFFFFF" cx="1689.9" cy="206.8" r="18.4"/>
				<g>
					<path fill="#D1D3D4" d="M1703.6,206.8c-0.6,17.6-26.7,17.6-27.3,0c-0.3-7.7,6.4-13.4,13.7-13.7
						C1697.6,192.8,1703.3,199.5,1703.6,206.8c0.2,6.1,9.8,6.2,9.6,0c-0.5-13-10.2-22.7-23.2-23.2c-13-0.5-22.8,11-23.2,23.2
						c-0.5,13,11,22.8,23.2,23.2c13,0.5,22.8-11,23.2-23.2C1713.4,200.6,1703.8,200.6,1703.6,206.8z"/>
				</g>
			</g>
			<line fill="none" stroke="#D1D3D4" stroke-width="5" stroke-miterlimit="10" x1="340.4" y1="257.1" x2="361.2" y2="240.2"/>
			<line fill="none" stroke="#D1D3D4" stroke-width="7" stroke-miterlimit="10" x1="438.5" y1="747.3" x2="438.3" y2="766.6"/>
			<line fill="none" stroke="#D1D3D4" stroke-width="9.1855" stroke-miterlimit="10" x1="1163" y1="910.8" x2="1162.7" y2="944"/>
			<line fill="none" stroke="#D1D3D4" stroke-width="7" stroke-miterlimit="10" x1="769.8" y1="837.8" x2="789.1" y2="837.9"/>
		</g>
	</g>
</g>
</svg>
