<!-- Generator: Adobe Illustrator 18.0.0, SVG Export Plug-In  -->
<svg version="1.1"
	 xmlns="http://www.w3.org/2000/svg" xmlns:xlink="http://www.w3.org/1999/xlink" xmlns:a="http://ns.adobe.com/AdobeSVGViewerExtensions/3.0/"
	 x="0px" y="0px" width="2033.7px" height="1329.2px" viewBox="0 0 2033.7 1329.2" enable-background="new 0 0 2033.7 1329.2"
	 xml:space="preserve">
<defs>
</defs>
<g>
	<rect x="17.7" y="97.9" fill="#89C16A" width="1925.8" height="1084.1"/>
	<g>
		<defs>
			<rect id="SVGID_1_" x="17.7" y="97.9" width="1925.8" height="1084.1"/>
		</defs>
		<clipPath id="SVGID_2_">
			<use xlink:href="#SVGID_1_"  overflow="visible"/>
		</clipPath>
		<g id="new_routes_1_" clip-path="url(#SVGID_2_)">
			<g>
				<g>
					<path fill="#D1D3D4" d="M1947.7,368.2c-34.5,0-68.9,0-103.4,0c-86.2,0-172.3,0-258.5,0c-112,0-224,0-335.9,0
						c-111.9,0-223.8,0-335.7,0c-86,0-171.9,0-257.9,0c-25.2,0-50.3,0-75.5,0c-6.7,0-13.4,0-20.1,0c-2.9,0-6.4-0.5-9.2,0.3
						c-7.8,2.1-15.5,7.1-22.8,10.5c-18.1,8.4-36.1,16.7-54.2,25.1c-50.6,23.4-101.1,46.8-151.7,70.3
						c-41.2,19.1-82.3,38.1-123.5,57.2c-2.8,1.3-4.5,4.8-4.5,7.8c0,55.5,0,110.9,0,166.4c0,111.5,0,223,0,334.5
						c0,85.1,0,170.2,0,255.4c0,8.3,0,16.7,0,25c0,11.6,18,11.6,18,0c0-55.5,0-110.9,0-166.4c0-111.5,0-223,0-334.5
						c0-85.1,0-170.2,0-255.4c0-8.3,0-16.7,0-25c-1.5,2.6-3,5.2-4.5,7.8c76-35.2,152-70.4,228-105.6c37.6-17.4,75.2-34.9,112.9-52.3
						c2.9-1.3,5.8-2.7,8.7-4c2.3-1.1-6.7,1-3,1c4.1,0,8.2,0,12.3,0c55.2,0,110.5,0,165.7,0c98,0,196,0,294,0
						c114.9,0,229.8,0,344.6,0c105.9,0,211.8,0,317.7,0c71,0,142,0,213,0c15.2,0,30.4,0,45.6,0
						C1959.3,386.1,1959.3,368.2,1947.7,368.2L1947.7,368.2z"/>
				</g>
			</g>
			<g>
				<g>
					<path fill="#D1D3D4" d="M1764.8,1188.7c0-18.8,0-37.6,0-56.4c0-49.1,0-98.2-0.1-147.3c0-68.4,0-136.7-0.1-205.1
						c0-76.6-0.1-153.3-0.1-229.9c0-73.9-0.1-147.8-0.1-221.8c0-60.2,0-120.4-0.1-180.6c0-35.5,0-70.9,0-106.4c0-5,0-10.1,0-15.1
						c0-5.8-9-5.8-9,0c0,18.8,0,37.6,0,56.4c0,49.1,0,98.2,0.1,147.3c0,68.4,0,136.7,0.1,205.1c0,76.6,0.1,153.3,0.1,229.9
						c0,73.9,0.1,147.8,0.1,221.8c0,60.2,0,120.4,0.1,180.6c0,35.5,0,70.9,0,106.4c0,5,0,10.1,0,15.1
						C1755.7,1194.5,1764.8,1194.5,1764.8,1188.7L1764.8,1188.7z"/>
				</g>
			</g>
			<g>
				<g>
					<path fill="#D1D3D4" d="M1742.5,1258.4c0-20.3,0-40.5,0-60.8c0-52.9,0-105.7-0.1-158.6c0-73.6-0.1-147.3-0.1-220.9
						c0-82.5-0.1-165.1-0.1-247.6c0-79.6-0.1-159.2-0.1-238.8c0-64.8-0.1-129.7-0.1-194.5c0-38.2,0-76.4,0-114.6
						c0-5.4,0-10.8,0-16.2c0-6.7-10.4-6.7-10.4,0c0,20.3,0,40.5,0,60.8c0,52.9,0,105.7,0.1,158.6c0,73.6,0.1,147.3,0.1,220.9
						c0,82.5,0.1,165.1,0.1,247.6c0,79.6,0.1,159.2,0.1,238.8c0,64.8,0.1,129.7,0.1,194.5c0,38.2,0,76.4,0,114.6
						c0,5.4,0,10.8,0,16.2C1732.1,1265.1,1742.5,1265.1,1742.5,1258.4L1742.5,1258.4z"/>
				</g>
			</g>
			<g>
				<g>
					<path fill="#D1D3D4" d="M223.9,100.5c48.6,63.4,97.3,126.8,145.9,190.3c33.3,43.5,66.7,86.9,100,130.4
						c10.9,14.2,21.8,28.5,32.7,42.7c4.2,5.4,8,11.9,12.9,16.8c3.4,3.4,13.8,1.5,17.8,1.5c14.1,0,28.3,0,42.4,0
						c47.7,0,95.5,0,143.2,0c111.9,0,223.7,0,335.6,0c29.1,0,58.1,0,87.2,0c1.5,0,3,0,4.5,0c-3.6,0-2.1-0.4,0.7,1.3
						c3.2,2,6.4,4,9.6,6c22.8,14.3,45.6,28.6,68.4,43c17,10.7,33.9,21.3,50.9,32c-0.8-1.4-1.7-2.9-2.5-4.3c0,78.2,0,156.5,0,234.7
						c0,87.6,0,175.2,0,262.8c0,0.8,0,1.6,0,2.4c0,2.7,2.3,5,5,5c60.3,0.1,120.6,0.1,180.9,0.2c115.6,0.1,231.2,0.2,346.9,0.4
						c73,0.1,146.1,0.2,219.1,0.2c1.3,0,2.5,0,3.8,0c6.5,0,6.4-10,0-10c-60.3-0.1-120.6-0.1-180.9-0.2
						c-115.6-0.1-231.2-0.2-346.9-0.4c-73-0.1-146.1-0.2-219.1-0.2c-1.3,0-2.5,0-3.8,0c1.7,1.7,3.3,3.3,5,5c0-78.2,0-156.5,0-234.7
						c0-87.6,0-175.2,0-262.8c0-8.8-12.8-13.2-19.3-17.3c-23.4-14.7-46.8-29.4-70.2-44.1c-15-9.4-30-18.8-45-28.3
						c-3.9-2.4-12.7-0.7-16.8-0.7c-91.1,0-182.2,0-273.2,0c-101.2,0-202.5,0-303.7,0c-12,0-23.9,0-35.9,0c1.4,0.8,2.9,1.7,4.3,2.5
						c-48.6-63.4-97.3-126.8-145.9-190.3c-48.3-62.9-96.6-125.9-144.9-188.8C228.7,90.4,220,95.3,223.9,100.5L223.9,100.5z"/>
				</g>
			</g>
			<g>
				<g>
					<path fill="#D1D3D4" d="M1978.5,482.8c-66.3,37.2-132.6,74.4-198.8,111.6c-78.1,43.8-156.1,87.7-234.2,131.5
						c-1.6,0.9-3.1,1.8-4.7,2.6c2.3-1.3,2.7-0.6,0.3-0.6c-5,0-9.9,0-14.9,0c-23.1,0-46.1,0-69.2,0c-85.7,0-171.4,0-257.1,0
						c-113.8,0-227.5,0-341.3,0c-112.2,0-224.4,0-336.6,0c-81,0-162.1,0-243.1,0c-22.5,0-45,0-67.6,0c-5.8,0-5.8,9,0,9
						c36.9,0,73.7,0,110.6,0c90.8,0,181.6,0,272.5,0c115.2,0,230.4,0,345.5,0c109.9,0,219.9,0,329.8,0c75.1,0,150.1,0,225.2,0
						c15.2,0,30.4,0,45.6,0c2.9,0,4.8-0.6,7.4-2c9.4-5.3,18.8-10.6,28.2-15.8c90.8-51,181.6-102,272.4-153
						c44.8-25.2,89.7-50.4,134.5-75.5C1988.1,487.7,1983.6,479.9,1978.5,482.8L1978.5,482.8z"/>
				</g>
			</g>
			<g>
				<g>
					<path fill="#D1D3D4" d="M980.1,107.2c23.8,29.7,47.5,59.3,71.3,89c38.6,48.2,77.2,96.4,115.8,144.6c9.9,12.3,19.8,24.7,29.7,37
						c3.6,4.6,11.3,3.8,15.1,0c4.5-4.5,3.6-10.6,0-15.1c-23.8-29.7-47.5-59.3-71.3-89c-38.6-48.2-77.2-96.4-115.8-144.6
						c-9.9-12.3-19.8-24.7-29.7-37c-3.6-4.6-11.3-3.8-15.1,0C975.7,96.6,976.5,102.7,980.1,107.2L980.1,107.2z"/>
				</g>
			</g>
			<g>
				<g>
					<path fill="#D1D3D4" d="M1485.2,1202.7c0-22.6,0-45.2,0-67.7c0-56.3,0-112.7,0-169c0-73,0-146.1,0-219.1c0-72.7,0-145.3,0-218
						c0-55.2,0-110.4,0-165.6c0-20.7,0-41.4,0-62.1c-0.7,1.3-1.5,2.6-2.2,3.9c31.6-15.8,63.2-31.7,94.7-47.5
						c64.5-32.4,129.1-64.7,193.6-97.1c52.2-26.2,104.4-52.3,156.6-78.5c7.4-3.7,14.8-7.4,22.2-11.1c5.2-2.6,0.6-10.4-4.5-7.8
						c-31.6,15.8-63.2,31.7-94.7,47.5c-64.5,32.4-129.1,64.7-193.6,97.1c-52.2,26.2-104.4,52.3-156.6,78.5
						c-7.4,3.7-14.8,7.4-22.2,11.1c-1.4,0.7-2.2,2.4-2.2,3.9c0,22.6,0,45.2,0,67.7c0,56.3,0,112.7,0,169c0,73,0,146.1,0,219.1
						c0,72.7,0,145.3,0,218c0,55.2,0,110.4,0,165.6c0,20.7,0,41.4,0,62.1C1476.2,1208.5,1485.2,1208.5,1485.2,1202.7L1485.2,1202.7z
						"/>
				</g>
			</g>
			<g>
				<g>
					<path fill="#D1D3D4" d="M18.1,913.1c31.3,0,62.5,0,93.8,0c81.6,0,163.1,0,244.7,0c113.6,0,227.2,0,340.8,0
						c127.3,0,254.6,0,381.9,0c122.7,0,245.5,0,368.2,0c99.9,0,199.7,0,299.6,0c58.7,0,117.4,0,176.1,0c8.2,0,16.4,0,24.6,0
						c24.2,0,24.2-37.5,0-37.5c-31.3,0-62.5,0-93.8,0c-81.6,0-163.1,0-244.7,0c-113.6,0-227.2,0-340.8,0c-127.3,0-254.6,0-381.9,0
						c-122.7,0-245.5,0-368.2,0c-99.9,0-199.7,0-299.6,0c-58.7,0-117.4,0-176.1,0c-8.2,0-16.4,0-24.6,0C-6,875.6-6,913.1,18.1,913.1
						L18.1,913.1z"/>
				</g>
			</g>
			<g>
				<circle fill="#FFFFFF" cx="1035.8" cy="473.5" r="17.6"/>
				<g>
					<path fill="#D1D3D4" d="M1048.8,473.5c-0.6,16.8-25.5,16.8-26.1,0c-0.3-7.3,6.1-12.8,13-13
						C1043.1,460.2,1048.6,466.6,1048.8,473.5c0.2,5.9,9.4,5.9,9.1,0c-0.5-12.4-9.8-21.7-22.2-22.2c-12.4-0.5-21.7,10.5-22.2,22.2
						c-0.5,12.4,10.5,21.7,22.2,22.2c12.4,0.5,21.7-10.5,22.2-22.2C1058.2,467.6,1049.1,467.6,1048.8,473.5z"/>
				</g>
			</g>
			<g>
				<circle fill="#FFFFFF" cx="1205.5" cy="376.1" r="17.6"/>
				<g>
					<path fill="#D1D3D4" d="M1218.6,376.1c-0.6,16.8-25.5,16.8-26.1,0c-0.3-7.3,6.1-12.8,13-13
						C1212.8,362.8,1218.3,369.2,1218.6,376.1c0.2,5.9,9.4,5.9,9.1,0c-0.5-12.4-9.8-21.7-22.2-22.2c-12.4-0.5-21.7,10.5-22.2,22.2
						c-0.5,12.4,10.5,21.7,22.2,22.2c12.4,0.5,21.7-10.5,22.2-22.2C1227.9,370.3,1218.8,370.3,1218.6,376.1z"/>
				</g>
			</g>
			<g>
				<circle fill="#FFFFFF" cx="1544.6" cy="730.4" r="17.6"/>
				<g>
					<path fill="#D1D3D4" d="M1557.6,730.4c-0.6,16.8-25.5,16.8-26.1,0c-0.3-7.3,6.1-12.8,13-13
						C1551.9,717.1,1557.4,723.5,1557.6,730.4c0.2,5.9,9.4,5.9,9.1,0c-0.5-12.4-9.8-21.7-22.2-22.2c-12.4-0.5-21.7,10.5-22.2,22.2
						c-0.5,12.4,10.5,21.7,22.2,22.2c12.4,0.5,21.7-10.5,22.2-22.2C1567,724.5,1557.9,724.5,1557.6,730.4z"/>
				</g>
			</g>
			<g>
				<circle fill="#FFFFFF" cx="1279.4" cy="1054.4" r="17.6"/>
				<g>
					<path fill="#D1D3D4" d="M1292.4,1054.4c-0.6,16.8-25.5,16.8-26.1,0c-0.3-7.3,6.1-12.8,13-13
						C1286.7,1041.1,1292.2,1047.5,1292.4,1054.4c0.2,5.9,9.4,5.9,9.1,0c-0.5-12.4-9.8-21.7-22.2-22.2
						c-12.4-0.5-21.7,10.5-22.2,22.2c-0.5,12.4,10.5,21.7,22.2,22.2c12.4,0.5,21.7-10.5,22.2-22.2
						C1301.8,1048.5,1292.7,1048.5,1292.4,1054.4z"/>
				</g>
			</g>
			<g>
				<circle fill="#FFFFFF" cx="203.4" cy="731.4" r="17.6"/>
				<g>
					<path fill="#D1D3D4" d="M216.4,731.4c-0.6,16.8-25.5,16.8-26.1,0c-0.3-7.3,6.1-12.8,13-13C210.7,718.1,216.2,724.5,216.4,731.4
						c0.2,5.9,9.4,5.9,9.1,0c-0.5-12.4-9.8-21.7-22.2-22.2c-12.4-0.5-21.7,10.5-22.2,22.2c-0.5,12.4,10.5,21.7,22.2,22.2
						c12.4,0.5,21.7-10.5,22.2-22.2C225.8,725.5,216.7,725.5,216.4,731.4z"/>
				</g>
			</g>
			<g>
				<circle fill="#FFFFFF" cx="203.4" cy="894.4" r="17.6"/>
				<g>
					<path fill="#D1D3D4" d="M216.4,894.4c-0.6,16.8-25.5,16.8-26.1,0c-0.3-7.3,6.1-12.8,13-13C210.7,881,216.2,887.5,216.4,894.4
						c0.2,5.9,9.4,5.9,9.1,0c-0.5-12.4-9.8-21.7-22.2-22.2c-12.4-0.5-21.7,10.5-22.2,22.2c-0.5,12.4,10.5,21.7,22.2,22.2
						c12.4,0.5,21.7-10.5,22.2-22.2C225.8,888.5,216.7,888.5,216.4,894.4z"/>
				</g>
			</g>
			<g>
				<circle fill="#FFFFFF" cx="1544.6" cy="894.1" r="17.6"/>
				<g>
					<path fill="#D1D3D4" d="M1557.6,894.1c-0.6,16.8-25.5,16.8-26.1,0c-0.3-7.3,6.1-12.8,13-13
						C1551.9,880.8,1557.4,887.2,1557.6,894.1c0.2,5.9,9.4,5.9,9.1,0c-0.5-12.4-9.8-21.7-22.2-22.2c-12.4-0.5-21.7,10.5-22.2,22.2
						c-0.5,12.4,10.5,21.7,22.2,22.2c12.4,0.5,21.7-10.5,22.2-22.2C1567,888.2,1557.9,888.2,1557.6,894.1z"/>
				</g>
			</g>
			<g>
				<circle fill="#FFFFFF" cx="1749.9" cy="168.2" r="18.4"/>
				<g>
					<path fill="#D1D3D4" d="M1763.6,168.2c-0.6,17.6-26.7,17.6-27.3,0c-0.3-7.7,6.4-13.4,13.7-13.7
						C1757.6,154.3,1763.3,161,1763.6,168.2c0.2,6.1,9.8,6.2,9.6,0c-0.5-13-10.2-22.7-23.2-23.2c-13-0.5-22.8,11-23.2,23.2
						c-0.5,13,11,22.8,23.2,23.2c13,0.5,22.8-11,23.2-23.2C1773.4,162.1,1763.8,162.1,1763.6,168.2z"/>
				</g>
			</g>
			<g>
				<g>
					<path fill="#D1D3D4" d="M630.2,74.7c0,18.8,0,37.6,0,56.4c0,49.1,0,98.2,0.1,147.3c0,68.4,0,136.7,0.1,205.1
						c0,76.6,0.1,153.3,0.1,229.9c0,73.9,0.1,147.8,0.1,221.8c0,60.2,0,120.4,0.1,180.6c0,35.5,0,70.9,0,106.4c0,5,0,10.1,0,15.1
						c0,5.8,9,5.8,9,0c0-18.8,0-37.6,0-56.4c0-49.1,0-98.2-0.1-147.3c0-68.4,0-136.7-0.1-205.1c0-76.6-0.1-153.3-0.1-229.9
						c0-73.9-0.1-147.8-0.1-221.8c0-60.2,0-120.4-0.1-180.6c0-35.5,0-70.9,0-106.4c0-5,0-10.1,0-15.1
						C639.3,68.9,630.2,68.9,630.2,74.7L630.2,74.7z"/>
				</g>
			</g>
			<g>
				<g>
					<path fill="#D1D3D4" d="M652.5,5c0,20.3,0,40.5,0,60.8c0,52.9,0,105.7,0.1,158.6c0,73.6,0.1,147.3,0.1,220.9
						c0,82.5,0.1,165.1,0.1,247.6c0,79.6,0.1,159.2,0.1,238.8c0,64.8,0.1,129.7,0.1,194.5c0,38.2,0,76.4,0,114.6
						c0,5.4,0,10.8,0,16.2c0,6.7,10.4,6.7,10.4,0c0-20.3,0-40.5,0-60.8c0-52.9,0-105.7-0.1-158.6c0-73.6-0.1-147.3-0.1-220.9
						c0-82.5-0.1-165.1-0.1-247.6c0-79.6-0.1-159.2-0.1-238.8c0-64.8-0.1-129.7-0.1-194.5c0-38.2,0-76.4,0-114.6
						c0-5.4,0-10.8,0-16.2C662.9-1.7,652.5-1.7,652.5,5L652.5,5z"/>
				</g>
			</g>
			<g>
				<circle fill="#FFFFFF" cx="645.1" cy="1095.2" r="18.4"/>
				<g>
					<path fill="#D1D3D4" d="M631.4,1095.2c0.6-17.6,26.7-17.6,27.3,0c0.3,7.7-6.4,13.4-13.7,13.7
						C637.4,1109.1,631.7,1102.4,631.4,1095.2c-0.2-6.1-9.8-6.2-9.6,0c0.5,13,10.2,22.7,23.2,23.2c13,0.5,22.8-11,23.2-23.2
						c0.5-13-11-22.8-23.2-23.2c-13-0.5-22.8,11-23.2,23.2C621.6,1101.3,631.2,1101.3,631.4,1095.2z"/>
				</g>
			</g>
			<line fill="none" stroke="#D1D3D4" stroke-width="5" stroke-miterlimit="10" x1="340.4" y1="245.6" x2="361.2" y2="228.6"/>
			<line fill="none" stroke="#D1D3D4" stroke-width="7" stroke-miterlimit="10" x1="438.5" y1="735.8" x2="438.3" y2="755.1"/>
			<line fill="none" stroke="#D1D3D4" stroke-width="9.1855" stroke-miterlimit="10" x1="1163" y1="899.2" x2="1162.7" y2="932.5"/>
		</g>
	</g>
</g>
</svg>
