<!-- Generator: Adobe Illustrator 18.0.0, SVG Export Plug-In  -->
<svg version="1.1"
	 xmlns="http://www.w3.org/2000/svg" xmlns:xlink="http://www.w3.org/1999/xlink" xmlns:a="http://ns.adobe.com/AdobeSVGViewerExtensions/3.0/"
	 x="0px" y="0px" width="392.4px" height="413.5px" viewBox="0 0 392.4 413.5" enable-background="new 0 0 392.4 413.5"
	 xml:space="preserve">
<defs>
</defs>
<g>
	
		<image overflow="visible" opacity="0.22" width="1635" height="1723" xlink:href="8EEC0330705D90A3.png"  transform="matrix(0.24 0 0 0.24 0 0)">
	</image>
	<g>
		<g>
			<path fill="#989895" d="M222.8,249L99.5,297.8l23.3,43l143-65.8c0,0,1.4-12.2-10-24.3C244.4,238.4,222.8,249,222.8,249z"/>
			<path opacity="0.75" fill="#595957" d="M222.8,249L99.5,297.8l23.5,31l143-65.8c0,0,1.2-0.2-10.2-12.4
				C244.4,238.4,222.8,249,222.8,249z"/>
			<path fill="#29201D" d="M229.4,185.2c4.3-2,7.1-6.2,7.5-10.9c1.2-16.2,3.4-54.4,0.6-78c-3.6-30.6-48.2-54.9-93.8-50.8
				s-80.9,23.7-63.3,72.6s30.4,92.6,29.2,108.7C108.5,240.8,202.8,197.6,229.4,185.2z"/>
			<path fill="#282F2C" d="M242.4,116.7c0,0,11-10.3,32.8-13.1s28.2,9.4,25.6,19.8s-15.4,44.7-12.7,50.2s-14.8,7.5-14.8,7.5
				l-1.8-5.1c0,0,17.1-36,14.8-51.7s-35-6.6-39.8-5.3C241.8,120.3,242.4,116.7,242.4,116.7z"/>
			<path fill="#1F1B1B" d="M238.1,151.7c0,0,20.2,25.3,23.4,26.4s-11.3,2.6-11.3,2.6s-9.5-9.1-13.2-10.1
				C233.4,169.6,238.1,151.7,238.1,151.7z"/>
			<path fill="#C7394A" d="M163.3,171.9c22.5-10,39.2,8.9,56.1,9.5s18.1-18,18.1-18l0,0c1.1-18.8,2.1-47.8-0.1-67.1
				c-3.6-30.6-48.2-54.9-93.8-50.8s-80.9,23.7-63.3,72.6c17.7,49,30.4,92.6,29.2,108.7C120.8,224.3,140.8,181.9,163.3,171.9z"/>
			<path fill="#232425" d="M147.3,277.6c0,0,9.6,2.3,32.2-23.2S166.1,237,166.1,237L144,256.1L147.3,277.6z"/>
			<path fill="#3A3A3C" d="M250.3,180.7c0,0-115.3,34.3-131.7,48.6s39.2,23.5,52.1,24.1c12.9,0.6,36.9-7.7,53.3-11.9
				c16.4-4.1,120.8-32.6,127.9-61.8C358,154,250.3,180.7,250.3,180.7z"/>
			<path fill="#CE3951" d="M351.8,179.7c6.2-25.7-101.5,1-101.5,1S135,215,118.6,229.3c-2.4,2.1-3.3,4.2-2.9,6.1
				c1.5-0.1,60.6-4.6,71.8-6.4c11.3-1.9,33.9,3.1,44.4,2.2c10.5-0.9,36.3-7.8,50.5-7.7c0,0,0,0,0,0
				C314.4,211.7,347.9,195.9,351.8,179.7z"/>
			<path fill="#2C2B37" d="M104.3,215.4c-1.5-3.2-3.7-5.8-3-9.9c2.2-12-9.4-9.4,0.4-22.6c2.7,7.4,3.5,10.1,4.8,13l7.3,21.5
				c0.2,0.5,0.5,1,0.8,1.5c7.5,8.9,13.8,26.9,17.8-6c1.5-12.8,6.9-30.6,3.2-49.2c-4-20-32.7-9.4-41.1-3.9c-6.4,4.1-3.5-4.7-2.6-7
				c0.1-0.4,0.3-0.7,0.5-1c1.7-2.4,10.4-12.8,32.1-13.8c24.6-1.1,37.5,10.8,29.1,29.4c-8.4,18.7-11.7,85.6-9.7,88.7
				c2,3,6.2,9.7,5,16c-1.2,6.3-7.9,20.1-7.4,25.4c0.5,5.3,7.3,12.6,10.3,16.7c3,4.1-2.7,10.8-12.1,13.5c-9.4,2.6-32.3-32.4-34.9-34
				s-5.7,0.2-3.5-6.3c1-3.1,2.7-4.2,5,1.8c2.3,6-7.3-32.3-2.2-53.8"/>
			
				<ellipse transform="matrix(0.996 -8.943861e-02 8.943861e-02 0.996 -23.5269 12.3322)" fill="#202229" cx="125.8" cy="268.7" rx="15.6" ry="18.7"/>
			
				<ellipse transform="matrix(-0.9997 -2.273212e-02 2.273212e-02 -0.9997 240.5229 527.6266)" fill="#1B1C23" cx="123.3" cy="262.4" rx="3" ry="4.8"/>
			
				<ellipse transform="matrix(0.9997 2.273206e-02 -2.273206e-02 0.9997 6.2615 -2.9036)" fill="#1B1C23" cx="130.8" cy="274" rx="3.3" ry="5.1"/>
			<path fill="#20242E" d="M222.8,249c0,0,1.8-1,7.3-2.7c5.4-1.7,22.1,19.3,19.3,22.2c-2.8,2.9-15.7,8-9.4,6.4
				c5.3-1.4,20.1,0.5,26.6-5.9c6.5-6.3,2.4-7.9,0.9-14.7c-1.5-6.9-0.2-11.8,2.5-16.9c2.6-5.1,9.1-12.8,9.1-12.8
				c-24.8,8.9-48.1,15.1-55.1,16.9C223.9,241.5,222,245,222.8,249z"/>
			<path fill="#141A19" d="M269.8,230.8c0,0-27.5,12.6-32.7,11.8c-5.2-0.9,16.3,16.6,16.2,20.4C253.1,266.7,264,234.9,269.8,230.8z"
				/>
			<path fill="#1B1C23" d="M131,314.4c0,0,8.3-2.6,12-4.6c3.7-2,6.5,8.7,5.2,9.2c-1.3,0.6-5.4,4.5-7.9,3.4S132.6,318.7,131,314.4z"
				/>
			<path fill="#1B1C23" d="M109.4,234.9c0,0-4.6,17.7-3.1,24.2c1.5,6.5,2.7-9.7,10.4-12.9C124.3,243,110.5,237.8,109.4,234.9z"/>
			
				<ellipse transform="matrix(0.996 -8.943861e-02 8.943861e-02 0.996 -25.7164 11.273)" fill="#1B1C23" cx="112.9" cy="292.6" rx="3.3" ry="4"/>
			
				<ellipse transform="matrix(0.996 -8.943861e-02 8.943861e-02 0.996 -22.5522 24.3954)" fill="#B1ADA7" cx="260.9" cy="263.8" rx="2.7" ry="3.5"/>
			<path fill="#2C2F39" d="M99.5,297.8c-5.1,0.5-5.8,40.7-2,42.6s16.3,3.8,25.3,0.4C131.8,337.3,107,297.1,99.5,297.8z"/>
		</g>
	</g>
</g>
</svg>
