<!-- Generator: Adobe Illustrator 18.0.0, SVG Export Plug-In  -->
<svg version="1.1"
	 xmlns="http://www.w3.org/2000/svg" xmlns:xlink="http://www.w3.org/1999/xlink" xmlns:a="http://ns.adobe.com/AdobeSVGViewerExtensions/3.0/"
	 x="0px" y="0px" width="474.8px" height="469px" viewBox="0 0 474.8 469" enable-background="new 0 0 474.8 469"
	 xml:space="preserve">
<defs>
</defs>
<g id="_x33_d_copy_2">
	<g>
		
			<line fill="none" stroke="#2B388E" stroke-width="9" stroke-miterlimit="10" stroke-dasharray="13,7" x1="50.3" y1="127.4" x2="434.9" y2="174.2"/>
		<g>
			
				<rect x="18.2" y="173.2" fill="none" stroke="#2B388E" stroke-width="9" stroke-miterlimit="10" stroke-dasharray="13,7" width="0" height="3.1"/>
			<path fill="none" stroke="#2B388E" stroke-width="9" stroke-miterlimit="10" stroke-dasharray="13,7" d="M4.5,185.4
				c0.1-0.8,0.3-1.6,0.6-2.3C4.8,183.8,4.6,184.6,4.5,185.4z"/>
			<polygon fill="none" stroke="#2B388E" stroke-width="9" stroke-miterlimit="10" stroke-dasharray="13,7" points="9.2,179.3 
				8.4,179.7 9.2,179.3 			"/>
			<path fill="none" stroke="#2B388E" stroke-width="9" stroke-miterlimit="10" stroke-dasharray="13,7" d="M465.2,184.8l0.1-0.1
				l-1.7-2.2c-0.4-0.5-0.8-1-1.2-1.4c0.4,0.4,0.8,0.9,1.2,1.4L465.2,184.8z"/>
			<path fill="none" stroke="#2B388E" stroke-width="9" stroke-miterlimit="10" stroke-dasharray="13,7" d="M441.4,195.8l-26,21.6
				l8.2,2.6l-14.8,9.6l2.8,1.7c0,0-16.1,6.4-21.9,7.9c-3.5,0.9-14.5,1.4-14.5,1.4H367c-7.3,0-14.5-0.5-21.7-1.4l-131.5-16.9
				L12.7,192.7l-7.9-4.4l-0.1-0.5L6.5,210l6.2,3.7l19,5.4L41,389c0.6,10.8,8.3,19.8,18.9,22c26.5,5.6,75.2,15.7,93.4,19.2
				c43.7,8.5,174.7,28.6,211.6,34.2c2.7,0.4,5.2-0.5,7-2.1c7.4-4.2,21.7-16.2,41.5-37.2c6.3-6.7,14.4-19.9,18.9-27.1
				c1.6-2.6,2.5-5.5,2.6-8.5l5.5-169.5l1.2-0.9l11.7,1.1l12.2-14.2v-21l-0.1-0.2l-11.5,12.1L441.4,195.8z"/>
			<path fill="none" stroke="#2B388E" stroke-width="9" stroke-miterlimit="10" stroke-dasharray="13,7" d="M466.3,138.8l0.5-10.5
				c0-0.5-0.1-1-0.5-1.3l-0.3-0.3c-0.4-0.4-0.6-1-0.5-1.5l2.2-11.6c0.6-3.3-1.1-6.7-4.1-8.2l-8.5-4.1l-1.4,1.9l-1.1,1.7l-1.3-5.2
				c-0.6-2.2-2.2-4-4.3-4.8l-4.3-1.6l-0.1,0.3c0,0-0.1-0.1-0.1-0.1l-5.2-3.1l0,0.1c-1.7-4.5-3.5-8.9-4.6-11.1
				c-3.5-7-16.6-26.6-16.6-26.6c-7.9-10.5-19.9-17.2-33-18.5L79.8,4.6C73.4,4,67,6,62.2,10.3l-9.6,8.2L48.3,18
				c-7.2-0.8-14,3.2-16.9,9.8L25,42.4c-1.8,4.1,0.4,8.9,4.8,10.1V52c0.1,0.1,0.2,0.3,0.3,0.4v0L41.8,68l-6.6,19.4
				c-0.6,1.8-0.3,3.8,0.9,5.3l10,12.7l-2.7,7.6c-1.5,4.2,1.6,8.6,6.1,8.6h1.5l-1.4,10l-27-3.5c-2.6-0.3-4.9,1.8-4.8,4.6l0.1,1.8
				c-0.1,0.3-0.1,0.7-0.1,1l1.7,38.6l0.4-0.2l-0.4,0.2l0,0l-2.7,1.4l0,0l-7.7,3.9l0,0l-0.8,0.4c-1.5,0.8-2.6,2-3.3,3.4
				c-0.3,0.7-0.5,1.5-0.6,2.3c-0.1,0.8,0,1.6,0.1,2.4l0.1,0.5l7.9,4.4l201.1,29.7l131.5,16.9c7.2,0.9,14.4,1.4,21.7,1.4h8.4
				c0,0,11-0.5,14.5-1.4c5.8-1.5,21.9-7.9,21.9-7.9l-2.8-1.7l14.8-9.6l-8.2-2.6l26-21.6l12.3,1.1l11.5-12.1l-1.6-2.3
				c-0.4-0.5-0.8-1-1.2-1.4c-2.9-3.1-6.8-5-11.1-5.2c4.2,0.3,8.2,2.1,11.1,5.2c-2.9-3.1-6.8-5-11.1-5.2l-6.2-0.4l-6.2,0
				c-1-0.7-1.9-1.3-1.9-1.3l-2.3,0c0.3-1.2,0.8-2.6,1.2-4.2l7.9,1.6c3.2,0.4,9.6,0.3,12.8,0c1.7-0.2,5.1-0.6,6.5-1.4
				c0.6-0.3,1.7-1.3,2-2c0.1-0.2,0.2-0.6,0.2-1.1l2.9-6.9C471.5,153.2,470.7,145.1,466.3,138.8z"/>
			<path fill="none" stroke="#2B388E" stroke-width="9" stroke-miterlimit="10" stroke-dasharray="13,7" d="M16.9,171.9
				c0,0-2.3-0.3-3.3,0c-1.2,0.3-2.9,1.4-2.9,1.4l-1.4,6l7.7-3.9V171.9z"/>
		</g>
	</g>
</g>
</svg>
