<!-- Generator: Adobe Illustrator 18.0.0, SVG Export Plug-In  -->
<svg version="1.1"
	 xmlns="http://www.w3.org/2000/svg" xmlns:xlink="http://www.w3.org/1999/xlink" xmlns:a="http://ns.adobe.com/AdobeSVGViewerExtensions/3.0/"
	 x="0px" y="0px" width="590.1px" height="428px" viewBox="0 0 590.1 428" enable-background="new 0 0 590.1 428"
	 xml:space="preserve">
<defs>
</defs>
<g>
	<path fill="none" stroke="#068450" stroke-width="12" stroke-miterlimit="10" stroke-dasharray="13,7" d="M315.5,6
		c4.9,0.6,9.7,1.3,14.6,1.8c73.9,6.8,141.1,32.3,201,76.6c17.5,12.9,33.6,27.7,50.1,41.4c-14.4,14.6-27.8,28.2-41.2,41.8
		C471.4,100.4,389.4,64.3,293.2,64.4c-96,0.1-177.8,36.1-247.4,104.3C32.6,155,19.3,141.2,6,127.5c0-0.3,0-0.6,0-1
		c1.3-1.1,2.7-2.2,4-3.3c15.3-13,29.8-27,45.9-38.9c59.9-44.3,127-69.8,200.9-76.6c4.9-0.4,9.7-1.2,14.6-1.8
		C286.1,6,300.8,6,315.5,6z"/>
	<path fill="none" stroke="#068450" stroke-width="12" stroke-miterlimit="10" stroke-dasharray="13,7" d="M459,249.3
		c-88.5-91.6-241.2-93.1-331.3,0.1c-13.3-13.5-26.6-26.9-39.9-40.4c102.6-110.9,294.9-121.3,411.3-0.2
		C485.9,222.3,472.5,235.7,459,249.3z"/>
	<path fill="none" stroke="#068450" stroke-width="12" stroke-miterlimit="10" stroke-dasharray="13,7" d="M208.3,332.1
		c-13.6-13.8-26.8-27.2-40-40.6c60.4-66.2,177.6-75.8,250.3-0.5c-13.3,13.5-26.5,27-40.2,40.9c-23.4-23-51.7-35.6-84.8-35.6
		C260.5,296.2,232.2,308.7,208.3,332.1z"/>
	<path fill="none" stroke="#068450" stroke-width="12" stroke-miterlimit="10" stroke-dasharray="13,7" d="M293.4,419.5
		c18.1-18.4,36.2-36.8,54.2-55c-14-13.7-33.1-22-54-21.7c-21.1,0.2-40.1,8.5-54,22.1C257.4,382.9,275.4,401.2,293.4,419.5z"/>
</g>
</svg>
