<!-- Generator: Adobe Illustrator 18.0.0, SVG Export Plug-In  -->
<svg version="1.1"
	 xmlns="http://www.w3.org/2000/svg" xmlns:xlink="http://www.w3.org/1999/xlink" xmlns:a="http://ns.adobe.com/AdobeSVGViewerExtensions/3.0/"
	 x="0px" y="0px" width="308.4px" height="443px" viewBox="0 0 308.4 443" enable-background="new 0 0 308.4 443"
	 xml:space="preserve">
<defs>
</defs>
<g>
	
		<image overflow="visible" opacity="0.23" width="1285" height="1846" xlink:href="A2EFD723AC66DAE3.png"  transform="matrix(0.24 0 0 0.24 0 0)">
	</image>
	<g>
		<path fill="#E9C2A0" d="M83.6,248.2c86.1,19.6,34.6,112.3,41.2,92.7C143.6,284.9,116.4,253.5,83.6,248.2l-4.6-41
			c0,0-2.7-52.2-30.4-52.2c-22,0-25,19.4-25,28c0,13.8,3.3,85.6,8.9,118.4C47.4,388,98.2,415.6,164.9,415.6
			c96.5,0,118.9-95,118.9-187.3c0-29.4,0.7-62.1,0.7-97.5c0-44.8-3.9-68.7-26.4-68.8c-24.7-0.1-27.4,23.8-27.4,71.3
			c0,27-0.3,50.6-0.3,50.6h-1.1l-2.4-112.9c0,0-1.3-32.6-27.2-32.6c-24,0-23.6,32.5-23.6,32.5l0,111.5l-3-0.1l-1.7-128.3
			c0,0-1.6-33.9-28-33.9c-26.7,0-27.2,36.2-27.2,36.2v125.1l-3.5,0.1V71.1c0,0-0.3-28.2-26.7-28.2c-27.9,0-25.9,28.2-25.9,28.2
			l0.2,86.2"/>
		<g>
			<path fill="#FFFFFF" d="M82.8,250.9c17.2,4,33.8,12.1,42.5,28.2c6.1,11.2,7,24.8,5.2,37.3c-1.2,8.2-3.3,16.9-7.3,24.2
				c-0.2,0.4-0.4,0.7-0.6,1.1c-0.3,0.5,0.4-0.5,0.1-0.1c0.6-0.6,3.4-1.6,4.3,1.3c0.1,0.4-0.1,1.4,0.1,0.4c0.3-1.1,0.7-2.2,1-3.2
				c3.9-11.9,6.1-24.5,5.6-37c-1.1-28.9-20.8-52.5-49.4-57.4c0.7,0.9,1.4,1.8,2.1,2.7c-1.4-12.3-2.7-24.6-4.1-37
				c-0.9-8.2-1.7-16.3-3.6-24.3c-3.2-13.4-9.6-29.7-24.1-33.9c-8.3-2.4-18,0.1-24.5,5.6c-5.7,4.8-8.1,12.5-9,19.6
				c-0.7,5.3-0.2,10.8,0,16.1c0.3,8.9,0.7,17.8,1.2,26.7c1.2,21.6,2.7,43.3,5.2,64.8c4.7,39.8,16.9,81.5,49.7,107.2
				c29.3,22.9,71.1,29.1,107.2,24c19-2.7,36.8-10.5,51.3-23c14.2-12.2,24.3-28.5,31.6-45.6c17.1-40.3,19.1-85.1,19.3-128.3
				c0.1-30.3,0.8-60.7,0.7-91c0-12.1-0.2-24.3-1.9-36.3c-1.1-8-2.8-16.3-7.3-23.2c-5.9-9.1-16.5-11.6-26.7-9.7
				c-11,2-16.9,11.5-19.7,21.6c-4.8,17.2-3.9,36.3-3.9,54c0,16.2-0.1,32.4-0.3,48.6c0.9-0.9,1.9-1.9,2.8-2.8c-0.4,0-0.8,0-1.1,0
				c0.9,0.9,1.9,1.9,2.8,2.8c-0.5-23.7-1-47.5-1.5-71.2c-0.3-12.4-0.5-24.9-0.8-37.3c-0.1-6.7-1-13.1-3.3-19.4
				c-5.7-15.3-21.4-25-37.4-18c-11.7,5.2-15.5,20.6-15.8,32.2c-0.7,22.1,0,44.4,0,66.5c0,15.3,0,30.6,0,45.8
				c0.9-0.9,1.9-1.9,2.8-2.8c-1,0-2,0-3-0.1c0.9,0.9,1.9,1.9,2.8,2.8c-0.3-22.5-0.6-45.1-0.9-67.6c-0.2-14.8-0.4-29.6-0.6-44.4
				c-0.1-5.7,0.2-11.6-0.3-17.4c-1.1-12.3-6-25.6-17.1-32.2c-15.1-9-32.6-0.4-39.1,14.5c-7.1,16.1-4.6,35.9-4.6,53
				c0,31.1,0,62.2,0,93.2c0.9-0.9,1.9-1.9,2.8-2.8c-1.2,0-2.3,0-3.5,0.1c0.9,0.9,1.9,1.9,2.8,2.8c0-23.8,0-47.7,0-71.5
				c0-12,0-24,0-35.9c0-7.1-1.2-13.8-4.6-20.2c-7.9-14.9-30.4-18.9-43.5-8.3C59.6,52,57.1,61.7,57.1,71.2c0.1,25.5,0.1,51,0.2,76.4
				c0,3.2,0,6.4,0,9.6c0,3.6,5.6,3.6,5.6,0c-0.1-24.8-0.1-49.7-0.2-74.5c0-6.1-0.6-12.8,0.5-18.8c1.3-7,5-12.9,11.4-16.1
				c8.6-4.3,20.8-2.6,27.6,4.2c5.5,5.5,7.4,13.8,7.4,21.3c0,11.4,0,22.7,0,34.1c0,24.8,0,49.5,0,74.3c0,0,0,0.1,0,0.1
				c0,1.5,1.3,2.8,2.8,2.8c1.2,0,2.3,0,3.5-0.1c1.5,0,2.8-1.3,2.8-2.8c0-22.8,0-45.7,0-68.5c0-14.4,0-28.9,0-43.3
				c0-5.4-0.3-10.9,0.2-16.2c1.3-14.1,8-30.1,24.2-30.4c16-0.3,23.5,15.6,25.1,29.3c0.6,5.5,0.3,11.2,0.4,16.7
				c0.2,14.6,0.4,29.2,0.6,43.7c0.3,23.2,0.6,46.4,0.9,69.6c0,1.6,1.3,2.8,2.8,2.8c1,0,2,0,3,0.1c1.5,0,2.8-1.3,2.8-2.8
				c0-23.8,0-47.7,0-71.5c0-12.1,0-24.3,0-36.4c0-7.3,0.6-14.4,3.5-21.2c3.6-8.4,10.6-12.5,19.6-12c8.7,0.5,14.8,6.9,18.3,14.4
				c2.9,6.2,3.6,12.8,3.8,19.6c0.6,28.3,1.2,56.7,1.8,85c0.2,7.9,0.3,15.7,0.5,23.6c0,1.5,1.3,2.8,2.8,2.8c0.4,0,0.8,0,1.1,0
				c1.5,0,2.8-1.3,2.8-2.8c0.2-21.8,0-43.7,0.4-65.5c0.2-10.9,0.6-21.9,2.8-32.6c1.4-6.6,3.8-13.8,9.6-17.8c5.4-3.7,13.2-4,19.2-2
				c6.7,2.2,10.1,9.1,12,15.3c3.2,10,3.7,20.9,4.1,31.4c0.6,15,0.3,30.1,0.2,45.1c-0.2,28-0.1,56.1-0.8,84.1
				c-0.5,22.3-2.6,44.7-7.1,66.6c-7.9,37.8-25.2,76.6-61.6,94.5c-19.1,9.4-40.7,10.7-61.6,9.4c-18.6-1.2-37.2-5.2-53.8-13.6
				c-38.3-19.4-55.4-60.5-61.8-100.8c-3.3-20.7-4.6-41.9-6-62.8c-1.1-16.7-2.1-33.5-2.3-50.3c-0.1-6.5,0.9-12.8,4.4-18.4
				c4.8-7.9,16.5-10.8,24.8-7.1c13.3,5.9,17.3,25.1,19.4,37.9c2.8,16.8,3.8,34.1,5.7,51C80.9,249.3,81.5,250.6,82.8,250.9
				c17.7,3.1,32.6,13.6,40.2,30c4.6,9.8,5.5,21,4.9,31.6c-0.4,6.5-1.7,12.9-3.3,19.2c-0.9,3.4-2.3,6.8-3.1,10.3
				c-0.6,3.1,2.4,6,5.1,3.4c1.7-1.7,2.7-4.5,3.6-6.6c3.9-9.3,6.1-19.4,6.7-29.5c0.8-13-1.9-26.4-9.2-37.3
				c-9.8-14.8-26.6-22.5-43.3-26.5C80.8,244.6,79.3,250,82.8,250.9L82.8,250.9z"/>
		</g>
	</g>
</g>
</svg>
