<!-- Generator: Adobe Illustrator 18.0.0, SVG Export Plug-In  -->
<svg version="1.1"
	 xmlns="http://www.w3.org/2000/svg" xmlns:xlink="http://www.w3.org/1999/xlink" xmlns:a="http://ns.adobe.com/AdobeSVGViewerExtensions/3.0/"
	 x="0px" y="0px" width="308.2px" height="443px" viewBox="0 0 308.2 443" enable-background="new 0 0 308.2 443"
	 xml:space="preserve">
<defs>
</defs>
<g>
	
		<image overflow="visible" opacity="0.23" width="1284" height="1846" xlink:href="F3D6D974CE67D463.png"  transform="matrix(0.24 0 0 0.24 0 0)">
	</image>
	<g>
		<path fill="#E9C2A0" d="M124.7,340.9c18.8-56-17.5-87.3-50.2-92.7v-63c0,0,1.7-30.2-25.9-30.2c-22,0-25,19.4-25,28
			c0,13.8,3.3,85.6,8.9,118.4C47.3,388,98.1,415.6,164.8,415.6c96.5,0,118.9-95,118.9-187.3c0-29.4,0.7-62.1,0.7-97.5
			c0-44.8-3.9-68.7-26.4-68.8c-24.7-0.1-27.4,23.8-27.4,71.3c0,27-0.3,50.6-0.3,50.6h-1.1l-2.4-112.9c0,0-1.3-32.6-27.2-32.6
			c-24,0-23.6,32.5-23.6,32.5l0,111.5l-3-0.1l-1.7-128.3c0,0-1.6-33.9-28-33.9c-26.7,0-27.2,36.2-27.2,36.2v125.1l-3.5,0.1V71.1
			c0,0-0.3-28.2-26.7-28.2c-27.9,0-25.9,28.2-25.9,28.2l0.2,86.2c16.5,7.4,14.4,28.4,14.4,47.1v43.8
			C160.6,267.8,118.1,360.5,124.7,340.9z"/>
		<g>
			<path fill="#FFFFFF" d="M127.5,341.6c7.3-22.3,7.7-46.9-5.7-67c-10.5-15.6-28.1-26-46.5-29.2c0.7,0.9,1.4,1.8,2.1,2.7
				c0-21.2-0.4-42.4,0-63.5c0.2-11.6-4.5-24-15.2-29.6c-8.2-4.2-19-3.8-27.2,0.1c-7.1,3.4-11.3,10.8-13.1,18.2
				c-1.3,5.3-1.1,10.8-1,16.2c0.2,8,0.6,16.1,1,24.1c1.1,21.6,2.5,43.3,4.8,64.9C30.9,318.7,41,361,72.3,388.9
				c27.9,24.8,68.6,32.1,104.9,29c19.4-1.7,38.2-8.1,53.7-20c14.7-11.2,25.6-26.5,33.5-43.1c18.3-38.4,22-83.2,22.1-125.2
				c0.1-29.7,0.6-59.4,0.7-89.1c0.1-13.6,0.1-27.2-1.1-40.7c-0.8-8.8-2.2-17.7-5.7-25.9c-4.7-10.7-14.6-15.6-25.9-14.6
				c-11.5,1-18.5,8.8-22,19.3c-5.6,16.6-4.6,35.8-4.7,53c0,17.4-0.1,34.9-0.3,52.3c0.9-0.9,1.9-1.9,2.8-2.8c-0.4,0-0.8,0-1.1,0
				c0.9,0.9,1.9,1.9,2.8,2.8c-0.5-23.7-1-47.5-1.5-71.2c-0.3-12.4-0.5-24.9-0.8-37.3c-0.1-6.7-1-13.1-3.3-19.4
				C220.7,40.7,205,31,189,38c-11.7,5.2-15.5,20.6-15.8,32.2c-0.7,22.1,0,44.4,0,66.5c0,15.3,0,30.6,0,45.8c0.9-0.9,1.9-1.9,2.8-2.8
				c-1,0-2,0-3-0.1c0.9,0.9,1.9,1.9,2.8,2.8c-0.3-22.5-0.6-45.1-0.9-67.6c-0.2-14.8-0.4-29.6-0.6-44.4c-0.1-5.7,0.2-11.6-0.3-17.4
				c-1.1-12.3-6-25.6-17.1-32.2c-15.1-9-32.6-0.4-39.1,14.5c-7.1,16.1-4.6,35.9-4.6,53c0,31.1,0,62.2,0,93.2
				c0.9-0.9,1.9-1.9,2.8-2.8c-1.2,0-2.3,0-3.5,0.1c0.9,0.9,1.9,1.9,2.8,2.8c0-23.8,0-47.7,0-71.5c0-12,0-24,0-35.9
				c0-7.1-1.2-13.8-4.6-20.2c-7.9-14.9-30.4-18.9-43.5-8.3C59.5,52,57,61.7,57,71.2c0.1,25.5,0.1,51,0.2,76.4c0,3.2,0,6.4,0,9.6
				c0,0.9,0.5,2,1.4,2.4c17.4,8.4,13,33.8,13,49.8c0,12.9,0,25.8,0,38.7c0,1.2,0.9,2.4,2.1,2.7c15.8,3.7,31.2,10.7,41.3,23.9
				c7.2,9.5,10.7,21.2,11.5,33c0.6,9.1-0.4,18.2-2.6,27c-0.6,2.3-1.2,4.7-2.1,7c-0.2,0.4,0.3-0.6-0.1,0.1c0.4-0.8,5.3,0,5,2.2
				C126.9,343.2,127.2,342.4,127.5,341.6c1.2-3.5-4.3-4.9-5.4-1.5c-0.7,2.2-1.8,6.3,2,6.3c2.6,0,3.3-3.1,3.9-5
				c2.8-8.4,4.1-17.6,4.3-26.4c0.4-12.9-2.2-26-8.6-37.3c-8.2-14.6-22.7-24-38.3-29.4c-3.3-1.2-6.8-2-10.2-2.9
				c0.7,0.9,1.4,1.8,2.1,2.7c0-13.5,0-27,0-40.5c0-17.7,3.5-43.5-15.8-52.8c0.5,0.8,0.9,1.6,1.4,2.4c-0.1-24.8-0.1-49.7-0.2-74.5
				c0-6.1-0.6-12.8,0.5-18.8c1.3-7,5-12.9,11.4-16.1c8.6-4.3,20.8-2.6,27.6,4.2c5.5,5.5,7.4,13.8,7.4,21.3c0,11.4,0,22.7,0,34.1
				c0,24.8,0,49.5,0,74.3c0,0,0,0.1,0,0.1c0,1.5,1.3,2.8,2.8,2.8c1.2,0,2.3,0,3.5-0.1c1.5,0,2.8-1.3,2.8-2.8c0-22.8,0-45.7,0-68.5
				c0-14.4,0-28.9,0-43.3c0-5.4-0.3-10.9,0.2-16.2c1.3-14.1,8-30.1,24.2-30.4c16-0.3,23.5,15.6,25.1,29.3c0.6,5.5,0.3,11.2,0.4,16.7
				c0.2,14.6,0.4,29.2,0.6,43.7c0.3,23.2,0.6,46.4,0.9,69.6c0,1.6,1.3,2.8,2.8,2.8c1,0,2,0,3,0.1c1.5,0,2.8-1.3,2.8-2.8
				c0-23.8,0-47.7,0-71.5c0-12.1,0-24.3,0-36.4c0-7.3,0.6-14.4,3.5-21.2c3.6-8.4,10.6-12.5,19.6-12c8.7,0.5,14.8,6.9,18.3,14.4
				c2.9,6.2,3.6,12.8,3.8,19.6c0.6,28.3,1.2,56.7,1.8,85c0.2,7.9,0.3,15.7,0.5,23.6c0,1.5,1.3,2.8,2.8,2.8c0.4,0,0.8,0,1.1,0
				c1.5,0,2.8-1.3,2.8-2.8c0.2-21.8,0-43.7,0.4-65.5c0.2-10.9,0.6-21.9,2.8-32.6c1.4-6.6,3.8-13.8,9.6-17.8c5.4-3.7,13.2-4,19.2-2
				c6.7,2.2,10.1,9.1,12,15.3c3.2,10,3.7,20.9,4.1,31.4c0.6,15,0.3,30.1,0.2,45.1c-0.2,28-0.1,56.1-0.8,84.1
				c-0.5,22.3-2.6,44.7-7.1,66.6c-7.9,37.8-25.2,76.6-61.6,94.5c-19.1,9.4-40.7,10.7-61.6,9.4c-18.6-1.2-37.2-5.2-53.8-13.6
				c-38.3-19.4-55.4-60.5-61.8-100.8c-3.3-20.7-4.6-41.9-6-62.8c-1.1-16.7-2.1-33.5-2.3-50.3c-0.1-6.5,0.9-12.8,4.4-18.4
				c5.6-9,18.1-10.2,27.3-6.9c10.5,3.7,13.6,15.9,13.6,25.8c0,21,0,41.9,0,62.9c0,1.2,0.9,2.5,2.1,2.7c16.8,2.9,32.4,11.8,42.5,25.6
				c13.6,18.7,12.7,42.5,5.8,63.6C120.9,343.6,126.3,345.1,127.5,341.6z"/>
		</g>
	</g>
</g>
</svg>
