<!-- Generator: Adobe Illustrator 18.0.0, SVG Export Plug-In  -->
<svg version="1.1"
	 xmlns="http://www.w3.org/2000/svg" xmlns:xlink="http://www.w3.org/1999/xlink" xmlns:a="http://ns.adobe.com/AdobeSVGViewerExtensions/3.0/"
	 x="0px" y="0px" width="4.7px" height="4.5px" viewBox="0 0 4.7 4.5" enable-background="new 0 0 4.7 4.5" xml:space="preserve">
<defs>
</defs>
<g>
	<g>
		<g>
			<path fill="#231F20" d="M0.9,2.9C2,2.3,3.1,1.7,4.2,1.1c0.7-0.4,0.1-1.4-0.6-1.1C2.5,0.7,1.4,1.3,0.3,1.9
				C-0.4,2.2,0.2,3.3,0.9,2.9L0.9,2.9z"/>
		</g>
	</g>
	<g>
		<g>
			<path fill="#231F20" d="M0.4,3c1.2,0.5,2.4,1,3.5,1.4c0.7,0.3,1-0.9,0.3-1.2c-1.2-0.5-2.4-1-3.5-1.4C0,1.5-0.3,2.7,0.4,3L0.4,3z"
				/>
		</g>
	</g>
</g>
</svg>
