<!-- Generator: Adobe Illustrator 18.0.0, SVG Export Plug-In  -->
<svg version="1.1"
	 xmlns="http://www.w3.org/2000/svg" xmlns:xlink="http://www.w3.org/1999/xlink" xmlns:a="http://ns.adobe.com/AdobeSVGViewerExtensions/3.0/"
	 x="0px" y="0px" width="1920px" height="89.9px" viewBox="0 0 1920 89.9" enable-background="new 0 0 1920 89.9"
	 xml:space="preserve">
<defs>
</defs>
<g id="bottom_line_2_">
	<rect y="0" opacity="0.8" fill="#010101" enable-background="new    " width="1920" height="89.9"/>
	<rect opacity="0.41" fill="#010101" enable-background="new    " width="300.8" height="89.2"/>
	<g>
		<g>
			<path fill="#FFFFFF" d="M1731.5,68.4c0-0.1,0-0.2,0.1-0.2c0.1-0.1,0.1-0.1,0.2-0.1s0.2,0,0.2,0.1c0.1,0.1,0.1,0.1,0.1,0.2V74
				c0,0.1,0,0.2-0.1,0.2c-0.1,0.1-0.1,0.1-0.2,0.1s-0.2,0-0.2-0.1c-0.1-0.1-0.1-0.1-0.1-0.2V68.4z"/>
			<path fill="#FFFFFF" d="M1733,70.3c0-0.1,0-0.2,0.1-0.2s0.1-0.1,0.2-0.1s0.2,0,0.2,0.1c0.1,0.1,0.1,0.1,0.1,0.2v0.3
				c0.4-0.4,0.9-0.6,1.4-0.6c0.6,0,1,0.2,1.4,0.6s0.6,0.9,0.6,1.4v2c0,0.1,0,0.2-0.1,0.2c-0.1,0.1-0.1,0.1-0.2,0.1s-0.2,0-0.2-0.1
				c-0.1-0.1-0.1-0.1-0.1-0.2v-2c0-0.4-0.1-0.7-0.4-1s-0.6-0.4-1-0.4s-0.7,0.1-1,0.4s-0.4,0.6-0.4,1v2c0,0.1,0,0.2-0.1,0.2
				c-0.1,0.1-0.1,0.1-0.2,0.1s-0.2,0-0.2-0.1s-0.1-0.1-0.1-0.2L1733,70.3L1733,70.3z"/>
			<path fill="#FFFFFF" d="M1737.7,70.3c0-0.1,0-0.2,0.1-0.2c0.1-0.1,0.1-0.1,0.2-0.1s0.2,0,0.2,0.1c0.1,0.1,0.1,0.1,0.1,0.2v0.3
				c0.4-0.4,0.9-0.6,1.4-0.6c0.6,0,1,0.2,1.4,0.6s0.6,0.9,0.6,1.4v2c0,0.1,0,0.2-0.1,0.2s-0.1,0.1-0.2,0.1s-0.2,0-0.2-0.1
				c-0.1-0.1-0.1-0.1-0.1-0.2v-2c0-0.4-0.1-0.7-0.4-1s-0.6-0.4-1-0.4s-0.7,0.1-1,0.4s-0.4,0.6-0.4,1v2c0,0.1,0,0.2-0.1,0.2
				c-0.1,0.1-0.1,0.1-0.2,0.1s-0.2,0-0.2-0.1c-0.1-0.1-0.1-0.1-0.1-0.2L1737.7,70.3L1737.7,70.3z"/>
			<path fill="#FFFFFF" d="M1746.7,72.2c0,0.6-0.2,1.1-0.6,1.5s-0.9,0.6-1.5,0.6s-1.1-0.2-1.5-0.6s-0.6-0.9-0.6-1.5s0.2-1.1,0.6-1.5
				s0.9-0.6,1.5-0.6s1.1,0.2,1.5,0.6C1746.5,71.1,1746.7,71.6,1746.7,72.2z M1744.5,70.6c-0.4,0-0.8,0.2-1.1,0.5
				c-0.3,0.3-0.5,0.7-0.5,1.1s0.2,0.8,0.5,1.1s0.7,0.5,1.1,0.5s0.8-0.2,1.1-0.5c0.3-0.3,0.5-0.7,0.5-1.1s-0.2-0.8-0.5-1.1
				C1745.3,70.8,1744.9,70.6,1744.5,70.6z"/>
			<path fill="#FFFFFF" d="M1749.5,74.3c-0.1,0.1-0.1,0.1-0.2,0.1s-0.2,0-0.2-0.1c0,0,0,0-0.1-0.1l-1.7-3.8v-0.1
				c0-0.1,0-0.2,0.1-0.2c0.1-0.1,0.1-0.1,0.2-0.1s0.2,0,0.2,0.1c0,0,0,0,0.1,0.1l1.4,3.1l1.4-3.1c0,0,0-0.1,0.1-0.1
				c0.1-0.1,0.1-0.1,0.2-0.1s0.2,0,0.2,0.1s0.1,0.1,0.1,0.2v0.1L1749.5,74.3C1749.6,74.2,1749.5,74.2,1749.5,74.3z"/>
			<path fill="#FFFFFF" d="M1755.7,73.7c-0.4,0.4-1,0.7-1.6,0.7s-1.1-0.2-1.5-0.6s-0.6-0.9-0.6-1.5s0.2-1.1,0.6-1.5s0.9-0.6,1.5-0.6
				s1.1,0.2,1.5,0.6s0.6,0.9,0.6,1.5v1.9c0,0.1,0,0.2-0.1,0.2c-0.1,0.1-0.1,0.1-0.2,0.1s-0.2,0-0.2-0.1c-0.1-0.1-0.1-0.1-0.1-0.2
				L1755.7,73.7L1755.7,73.7z M1754.1,70.6c-0.4,0-0.8,0.2-1.1,0.5s-0.5,0.7-0.5,1.1s0.2,0.8,0.5,1.1s0.7,0.5,1.1,0.5
				s0.8-0.2,1.1-0.5c0.3-0.3,0.5-0.7,0.5-1.1s-0.2-0.8-0.5-1.1C1754.9,70.8,1754.5,70.6,1754.1,70.6z"/>
			<path fill="#FFFFFF" d="M1759.1,73.7c0.1,0,0.2,0,0.2,0.1c0.1,0.1,0.1,0.1,0.1,0.2s0,0.2-0.1,0.2c-0.1,0.1-0.1,0.1-0.2,0.1
				c-1,0-1.6-0.5-1.6-1.6v-2.2h-0.3c-0.1,0-0.2,0-0.2-0.1c-0.1-0.1-0.1-0.1-0.1-0.2s0-0.2,0.1-0.2c0.1-0.1,0.1-0.1,0.2-0.1h0.3v-1.6
				c0-0.1,0-0.2,0.1-0.2s0.1-0.1,0.2-0.1s0.2,0,0.2,0.1c0.1,0.1,0.1,0.1,0.1,0.2v1.6h0.6c0.1,0,0.2,0,0.2,0.1
				c0.1,0.1,0.1,0.1,0.1,0.2s0,0.2-0.1,0.2c-0.1,0.1-0.1,0.1-0.2,0.1h-0.6v2.2C1758.2,73.4,1758.5,73.7,1759.1,73.7z"/>
			<path fill="#FFFFFF" d="M1761,69.1c0,0.1,0,0.2-0.1,0.3c-0.1,0.1-0.2,0.1-0.3,0.1c-0.1,0-0.2,0-0.3-0.1c-0.1-0.1-0.1-0.2-0.1-0.3
				s0-0.2,0.1-0.3s0.2-0.1,0.3-0.1c0.1,0,0.2,0,0.3,0.1C1761,68.9,1761,69,1761,69.1z M1760.3,70.3c0-0.1,0-0.2,0.1-0.2
				c0.1-0.1,0.1-0.1,0.2-0.1s0.2,0,0.2,0.1s0.1,0.1,0.1,0.2V74c0,0.1,0,0.2-0.1,0.2s-0.1,0.1-0.2,0.1s-0.2,0-0.2-0.1
				c-0.1-0.1-0.1-0.1-0.1-0.2V70.3z"/>
			<path fill="#FFFFFF" d="M1766.2,72.2c0,0.6-0.2,1.1-0.6,1.5s-0.9,0.6-1.5,0.6s-1.1-0.2-1.5-0.6s-0.6-0.9-0.6-1.5s0.2-1.1,0.6-1.5
				s0.9-0.6,1.5-0.6s1.1,0.2,1.5,0.6C1766,71.1,1766.2,71.6,1766.2,72.2z M1764.1,70.6c-0.4,0-0.8,0.2-1.1,0.5s-0.5,0.7-0.5,1.1
				s0.2,0.8,0.5,1.1s0.7,0.5,1.1,0.5s0.8-0.2,1.1-0.5c0.3-0.3,0.5-0.7,0.5-1.1s-0.2-0.8-0.5-1.1
				C1764.9,70.8,1764.5,70.6,1764.1,70.6z"/>
			<path fill="#FFFFFF" d="M1766.8,70.3c0-0.1,0-0.2,0.1-0.2c0.1-0.1,0.1-0.1,0.2-0.1s0.2,0,0.2,0.1c0.1,0.1,0.1,0.1,0.1,0.2v0.3
				c0.4-0.4,0.9-0.6,1.4-0.6c0.6,0,1,0.2,1.4,0.6s0.6,0.9,0.6,1.4v2c0,0.1,0,0.2-0.1,0.2c-0.1,0.1-0.1,0.1-0.2,0.1s-0.2,0-0.2-0.1
				c-0.1-0.1-0.1-0.1-0.1-0.2v-2c0-0.4-0.1-0.7-0.4-1s-0.6-0.4-1-0.4s-0.7,0.1-1,0.4s-0.4,0.6-0.4,1v2c0,0.1,0,0.2-0.1,0.2
				c-0.1,0.1-0.1,0.1-0.2,0.1s-0.2,0-0.2-0.1c-0.1-0.1-0.1-0.1-0.1-0.2L1766.8,70.3L1766.8,70.3z"/>
			<path fill="#FFFFFF" d="M1775.2,73.7c-0.4,0.4-1,0.7-1.6,0.7s-1.1-0.2-1.5-0.6s-0.6-0.9-0.6-1.5s0.2-1.1,0.6-1.5s0.9-0.6,1.5-0.6
				s1.1,0.2,1.5,0.6s0.6,0.9,0.6,1.5v1.9c0,0.1,0,0.2-0.1,0.2c-0.1,0.1-0.1,0.1-0.2,0.1s-0.2,0-0.2-0.1c-0.1-0.1-0.1-0.1-0.1-0.2
				L1775.2,73.7L1775.2,73.7z M1773.7,70.6c-0.4,0-0.8,0.2-1.1,0.5s-0.5,0.7-0.5,1.1s0.2,0.8,0.5,1.1s0.7,0.5,1.1,0.5
				s0.8-0.2,1.1-0.5c0.3-0.3,0.5-0.7,0.5-1.1s-0.2-0.8-0.5-1.1C1774.5,70.8,1774.1,70.6,1773.7,70.6z"/>
			<path fill="#FFFFFF" d="M1777.2,72.2c-0.2-0.1-0.4-0.2-0.5-0.3c-0.2-0.2-0.3-0.4-0.3-0.7c0-0.3,0.1-0.5,0.3-0.7
				c0.4-0.4,0.9-0.6,1.5-0.6s1.2,0.3,1.7,0.8c0,0,0.1,0.1,0.1,0.2s0,0.2-0.1,0.2c-0.1,0.1-0.1,0.1-0.2,0.1s-0.2,0-0.2-0.1
				c-0.1-0.1-0.1-0.1-0.1-0.1c-0.3-0.3-0.7-0.5-1.1-0.5s-0.8,0.1-1,0.4c-0.1,0.1-0.1,0.2-0.1,0.3s0.1,0.2,0.2,0.2l1.9,0.6
				c0.2,0.1,0.4,0.2,0.5,0.3c0.2,0.2,0.3,0.4,0.3,0.7c0,0.3-0.1,0.5-0.3,0.7c-0.4,0.4-0.9,0.6-1.5,0.6c-0.7,0-1.2-0.3-1.7-0.8
				c0-0.1-0.1-0.1-0.1-0.2s0-0.2,0.1-0.2c0.1-0.1,0.1-0.1,0.2-0.1s0.2,0,0.2,0.1c0.1,0.1,0.1,0.1,0.1,0.1c0.3,0.3,0.7,0.5,1.1,0.5
				s0.8-0.1,1-0.4c0.1-0.1,0.1-0.2,0.1-0.3c0-0.1-0.1-0.2-0.2-0.2L1777.2,72.2z"/>
			<path fill="#FFFFFF" d="M1786.6,73.7c-0.4,0.4-1,0.7-1.6,0.7s-1.1-0.2-1.5-0.6s-0.6-0.9-0.6-1.5s0.2-1.1,0.6-1.5s0.9-0.6,1.5-0.6
				s1.1,0.2,1.5,0.6s0.6,0.9,0.6,1.5v1.9c0,0.1,0,0.2-0.1,0.2c-0.1,0.1-0.1,0.1-0.2,0.1s-0.2,0-0.2-0.1c-0.1-0.1-0.1-0.1-0.1-0.2
				L1786.6,73.7L1786.6,73.7z M1785.1,70.6c-0.4,0-0.8,0.2-1.1,0.5s-0.5,0.7-0.5,1.1s0.2,0.8,0.5,1.1s0.7,0.5,1.1,0.5
				s0.8-0.2,1.1-0.5c0.3-0.3,0.5-0.7,0.5-1.1s-0.2-0.8-0.5-1.1C1785.9,70.8,1785.5,70.6,1785.1,70.6z"/>
			<path fill="#FFFFFF" d="M1787.9,70.3c0-0.1,0-0.2,0.1-0.2c0.1-0.1,0.1-0.1,0.2-0.1s0.2,0,0.2,0.1c0.1,0.1,0.1,0.1,0.1,0.2v0.3
				c0.4-0.4,0.9-0.6,1.4-0.6c0.6,0,1,0.2,1.4,0.6s0.6,0.9,0.6,1.4v2c0,0.1,0,0.2-0.1,0.2c-0.1,0.1-0.1,0.1-0.2,0.1s-0.2,0-0.2-0.1
				c-0.1-0.1-0.1-0.1-0.1-0.2v-2c0-0.4-0.1-0.7-0.4-1s-0.6-0.4-1-0.4s-0.7,0.1-1,0.4s-0.4,0.6-0.4,1v2c0,0.1,0,0.2-0.1,0.2
				c-0.1,0.1-0.1,0.1-0.2,0.1s-0.2,0-0.2-0.1c-0.1-0.1-0.1-0.1-0.1-0.2L1787.9,70.3L1787.9,70.3z"/>
			<path fill="#FFFFFF" d="M1796.3,68.4c0-0.1,0-0.2,0.1-0.2c0.1-0.1,0.1-0.1,0.2-0.1s0.2,0,0.2,0.1c0.1,0.1,0.1,0.1,0.1,0.2v3.7
				c0,0.6-0.2,1.1-0.6,1.5s-0.9,0.6-1.5,0.6s-1.1-0.2-1.5-0.6s-0.6-0.9-0.6-1.5s0.2-1.1,0.6-1.5s0.9-0.6,1.5-0.6s1.1,0.2,1.5,0.6
				l0,0L1796.3,68.4L1796.3,68.4z M1796.3,72.2c0-0.4-0.2-0.8-0.5-1.1c-0.3-0.3-0.7-0.5-1.1-0.5s-0.8,0.2-1.1,0.5s-0.5,0.7-0.5,1.1
				s0.2,0.8,0.5,1.1c0.3,0.3,0.7,0.5,1.1,0.5s0.8-0.2,1.1-0.5S1796.3,72.6,1796.3,72.2z"/>
			<path fill="#FFFFFF" d="M1803.6,68.4c0-0.1,0-0.2,0.1-0.2c0.1-0.1,0.1-0.1,0.2-0.1s0.2,0,0.2,0.1c0.1,0.1,0.1,0.1,0.1,0.2v3.7
				c0,0.6-0.2,1.1-0.6,1.5s-0.9,0.6-1.5,0.6s-1.1-0.2-1.5-0.6s-0.6-0.9-0.6-1.5s0.2-1.1,0.6-1.5s0.9-0.6,1.5-0.6s1.1,0.2,1.5,0.6
				l0,0L1803.6,68.4L1803.6,68.4z M1803.6,72.2c0-0.4-0.2-0.8-0.5-1.1c-0.3-0.3-0.7-0.5-1.1-0.5s-0.8,0.2-1.1,0.5
				c-0.3,0.3-0.5,0.7-0.5,1.1s0.2,0.8,0.5,1.1c0.3,0.3,0.7,0.5,1.1,0.5s0.8-0.2,1.1-0.5C1803.4,73,1803.6,72.6,1803.6,72.2z"/>
			<path fill="#FFFFFF" d="M1808.2,73.3c0.1,0,0.2,0,0.2,0.1c0.1,0.1,0.1,0.1,0.1,0.2s0,0.2-0.1,0.2c-0.4,0.3-0.9,0.5-1.4,0.5
				c-0.6,0-1.1-0.2-1.5-0.6s-0.6-0.9-0.6-1.5s0.2-1.1,0.6-1.5s0.9-0.6,1.5-0.6s1.1,0.2,1.5,0.6s0.6,0.9,0.6,1.5c0,0.1,0,0.2-0.1,0.2
				c-0.1,0.1-0.1,0.1-0.2,0.1h-3.4c0.1,0.3,0.2,0.6,0.4,0.8c0.3,0.3,0.7,0.5,1.1,0.5s0.7-0.1,1-0.4
				C1808,73.3,1808.1,73.3,1808.2,73.3z M1808.5,71.9c-0.1-0.3-0.2-0.6-0.4-0.8c-0.3-0.3-0.7-0.5-1.1-0.5s-0.8,0.2-1.1,0.5
				c-0.2,0.2-0.4,0.5-0.4,0.8H1808.5z"/>
			<path fill="#FFFFFF" d="M1810.5,72.2c-0.2-0.1-0.4-0.2-0.5-0.3c-0.2-0.2-0.3-0.4-0.3-0.7c0-0.3,0.1-0.5,0.3-0.7
				c0.4-0.4,0.9-0.6,1.5-0.6s1.2,0.3,1.7,0.8c0,0,0.1,0.1,0.1,0.2s0,0.2-0.1,0.2c-0.1,0.1-0.1,0.1-0.2,0.1s-0.2,0-0.2-0.1
				c-0.1-0.1-0.1-0.1-0.1-0.1c-0.3-0.3-0.7-0.5-1.1-0.5s-0.8,0.1-1,0.4c-0.1,0.1-0.1,0.2-0.1,0.3s0.1,0.2,0.2,0.2l1.9,0.6
				c0.2,0.1,0.4,0.2,0.5,0.3c0.2,0.2,0.3,0.4,0.3,0.7c0,0.3-0.1,0.5-0.3,0.7c-0.4,0.4-0.9,0.6-1.5,0.6c-0.7,0-1.2-0.3-1.7-0.8
				c0-0.1-0.1-0.1-0.1-0.2s0-0.2,0.1-0.2c0.1-0.1,0.1-0.1,0.2-0.1s0.2,0,0.2,0.1c0.1,0.1,0.1,0.1,0.1,0.1c0.3,0.3,0.7,0.5,1.1,0.5
				s0.8-0.1,1-0.4c0.1-0.1,0.1-0.2,0.1-0.3c0-0.1-0.1-0.2-0.2-0.2L1810.5,72.2z"/>
			<path fill="#FFFFFF" d="M1814.9,69.1c0,0.1,0,0.2-0.1,0.3c-0.1,0.1-0.2,0.1-0.3,0.1c-0.1,0-0.2,0-0.3-0.1
				c-0.1-0.1-0.1-0.2-0.1-0.3s0-0.2,0.1-0.3s0.2-0.1,0.3-0.1c0.1,0,0.2,0,0.3,0.1C1814.9,68.9,1814.9,69,1814.9,69.1z M1814.2,70.3
				c0-0.1,0-0.2,0.1-0.2c0.1-0.1,0.1-0.1,0.2-0.1s0.2,0,0.2,0.1c0.1,0.1,0.1,0.1,0.1,0.2V74c0,0.1,0,0.2-0.1,0.2
				c-0.1,0.1-0.1,0.1-0.2,0.1s-0.2,0-0.2-0.1c-0.1-0.1-0.1-0.1-0.1-0.2V70.3z"/>
			<path fill="#FFFFFF" d="M1819.5,73.7L1819.5,73.7c-0.4,0.4-1,0.7-1.6,0.7s-1.1-0.2-1.5-0.6s-0.6-0.9-0.6-1.5s0.2-1.1,0.6-1.5
				s0.9-0.6,1.5-0.6s1.1,0.2,1.5,0.6s0.6,0.9,0.6,1.5v2.2c0,0.5-0.2,0.8-0.5,1.2c-0.5,0.5-1,0.7-1.6,0.7s-1.2-0.2-1.6-0.7
				c-0.2-0.2-0.3-0.3-0.4-0.5c0,0,0-0.1,0-0.2s0-0.2,0.1-0.2c0.1-0.1,0.1-0.1,0.2-0.1s0.2,0,0.2,0.1c0,0,0,0.1,0.1,0.1
				c0.1,0.1,0.2,0.3,0.3,0.4c0.3,0.3,0.7,0.5,1.2,0.5s0.9-0.2,1.2-0.5c0.2-0.2,0.3-0.5,0.3-0.7L1819.5,73.7L1819.5,73.7z
				 M1817.9,70.6c-0.4,0-0.8,0.2-1.1,0.5s-0.5,0.7-0.5,1.1s0.2,0.8,0.5,1.1s0.7,0.5,1.1,0.5s0.8-0.2,1.1-0.5
				c0.3-0.3,0.5-0.7,0.5-1.1s-0.2-0.8-0.5-1.1S1818.3,70.6,1817.9,70.6z"/>
			<path fill="#FFFFFF" d="M1820.7,70.3c0-0.1,0-0.2,0.1-0.2c0.1-0.1,0.1-0.1,0.2-0.1s0.2,0,0.2,0.1c0.1,0.1,0.1,0.1,0.1,0.2v0.3
				c0.4-0.4,0.9-0.6,1.4-0.6c0.6,0,1,0.2,1.4,0.6s0.6,0.9,0.6,1.4v2c0,0.1,0,0.2-0.1,0.2c-0.1,0.1-0.1,0.1-0.2,0.1s-0.2,0-0.2-0.1
				c-0.1-0.1-0.1-0.1-0.1-0.2v-2c0-0.4-0.1-0.7-0.4-1s-0.6-0.4-1-0.4s-0.7,0.1-1,0.4s-0.4,0.6-0.4,1v2c0,0.1,0,0.2-0.1,0.2
				c-0.1,0.1-0.1,0.1-0.2,0.1s-0.2,0-0.2-0.1c-0.1-0.1-0.1-0.1-0.1-0.2L1820.7,70.3L1820.7,70.3z"/>
			<path fill="#FFFFFF" d="M1828.7,69.1c0,0.1,0,0.2-0.1,0.3c-0.1,0.1-0.2,0.1-0.3,0.1c-0.1,0-0.2,0-0.3-0.1
				c-0.1-0.1-0.1-0.2-0.1-0.3s0-0.2,0.1-0.3s0.2-0.1,0.3-0.1c0.1,0,0.2,0,0.3,0.1C1828.7,68.9,1828.7,69,1828.7,69.1z M1828,70.3
				c0-0.1,0-0.2,0.1-0.2c0.1-0.1,0.1-0.1,0.2-0.1s0.2,0,0.2,0.1c0.1,0.1,0.1,0.1,0.1,0.2V74c0,0.1,0,0.2-0.1,0.2
				c-0.1,0.1-0.1,0.1-0.2,0.1s-0.2,0-0.2-0.1c-0.1-0.1-0.1-0.1-0.1-0.2V70.3z"/>
			<path fill="#FFFFFF" d="M1829.6,70.3c0-0.1,0-0.2,0.1-0.2c0.1-0.1,0.1-0.1,0.2-0.1s0.2,0,0.2,0.1c0.1,0.1,0.1,0.1,0.1,0.2v0.3
				c0.4-0.4,0.9-0.6,1.4-0.6c0.6,0,1,0.2,1.4,0.6s0.6,0.9,0.6,1.4v2c0,0.1,0,0.2-0.1,0.2c-0.1,0.1-0.1,0.1-0.2,0.1s-0.2,0-0.2-0.1
				c-0.1-0.1-0.1-0.1-0.1-0.2v-2c0-0.4-0.1-0.7-0.4-1s-0.6-0.4-1-0.4s-0.7,0.1-1,0.4s-0.4,0.6-0.4,1v2c0,0.1,0,0.2-0.1,0.2
				c-0.1,0.1-0.1,0.1-0.2,0.1s-0.2,0-0.2-0.1c-0.1-0.1-0.1-0.1-0.1-0.2L1829.6,70.3L1829.6,70.3z"/>
			<path fill="#FFFFFF" d="M1839.4,74.1l-2.2-4.4V74c0,0.1,0,0.2-0.1,0.2c-0.1,0.1-0.1,0.1-0.2,0.1s-0.2,0-0.2-0.1
				c-0.1-0.1-0.1-0.1-0.1-0.2v-5.6c0-0.1,0-0.2,0.1-0.2c0.1-0.1,0.1-0.1,0.2-0.1s0.2,0.1,0.3,0.2l2.5,5l2.5-5
				c0.1-0.1,0.2-0.2,0.3-0.2c0.1,0,0.2,0,0.2,0.1c0.1,0.1,0.1,0.1,0.1,0.2V74c0,0.1,0,0.2-0.1,0.2c-0.1,0.1-0.1,0.1-0.2,0.1
				s-0.2,0-0.2-0.1c-0.1-0.1-0.1-0.1-0.1-0.2v-4.3l-2.2,4.4c-0.1,0.1-0.1,0.2-0.3,0.2C1839.5,74.3,1839.4,74.3,1839.4,74.1z"/>
			<path fill="#FFFFFF" d="M1846.7,73.3c0.1,0,0.2,0,0.2,0.1s0.1,0.1,0.1,0.2s0,0.2-0.1,0.2c-0.4,0.3-0.9,0.5-1.4,0.5
				c-0.6,0-1.1-0.2-1.5-0.6s-0.6-0.9-0.6-1.5s0.2-1.1,0.6-1.5s0.9-0.6,1.5-0.6s1.1,0.2,1.5,0.6s0.6,0.9,0.6,1.5c0,0.1,0,0.2-0.1,0.2
				s-0.1,0.1-0.2,0.1h-3.4c0.1,0.3,0.2,0.6,0.4,0.8c0.3,0.3,0.7,0.5,1.1,0.5s0.7-0.1,1-0.4C1846.6,73.3,1846.7,73.3,1846.7,73.3z
				 M1847.1,71.9c-0.1-0.3-0.2-0.6-0.4-0.8c-0.3-0.3-0.7-0.5-1.1-0.5s-0.8,0.2-1.1,0.5c-0.2,0.2-0.4,0.5-0.4,0.8H1847.1z"/>
			<path fill="#FFFFFF" d="M1848.3,68.4c0-0.1,0-0.2,0.1-0.2c0.1-0.1,0.1-0.1,0.2-0.1s0.2,0,0.2,0.1s0.1,0.1,0.1,0.2v5.3h0.3
				c0.1,0,0.2,0,0.2,0.1c0.1,0.1,0.1,0.1,0.1,0.2s0,0.2-0.1,0.2c-0.1,0.1-0.1,0.1-0.2,0.1h-0.6c-0.1,0-0.2,0-0.2-0.1
				c-0.1-0.1-0.1-0.1-0.1-0.2V68.4z"/>
			<path fill="#FFFFFF" d="M1850.8,70.6L1850.8,70.6c0.4-0.4,1-0.7,1.6-0.7s1.1,0.2,1.5,0.6s0.6,0.9,0.6,1.5s-0.2,1.1-0.6,1.5
				s-0.9,0.6-1.5,0.6s-1.1-0.2-1.5-0.6s-0.6-0.9-0.6-1.5v-3.7c0-0.1,0-0.2,0.1-0.2c0.1-0.1,0.1-0.1,0.2-0.1s0.2,0,0.2,0.1
				c0.1,0.1,0.1,0.1,0.1,0.2L1850.8,70.6L1850.8,70.6z M1852.4,73.7c0.4,0,0.8-0.2,1.1-0.5c0.3-0.3,0.5-0.7,0.5-1.1
				s-0.2-0.8-0.5-1.1c-0.3-0.3-0.7-0.5-1.1-0.5s-0.8,0.2-1.1,0.5c-0.3,0.3-0.5,0.7-0.5,1.1s0.2,0.8,0.5,1.1
				C1851.6,73.6,1851.9,73.7,1852.4,73.7z"/>
			<path fill="#FFFFFF" d="M1859.5,72.2c0,0.6-0.2,1.1-0.6,1.5s-0.9,0.6-1.5,0.6s-1.1-0.2-1.5-0.6s-0.6-0.9-0.6-1.5s0.2-1.1,0.6-1.5
				s0.9-0.6,1.5-0.6s1.1,0.2,1.5,0.6C1859.3,71.1,1859.5,71.6,1859.5,72.2z M1857.3,70.6c-0.4,0-0.8,0.2-1.1,0.5s-0.5,0.7-0.5,1.1
				s0.2,0.8,0.5,1.1s0.7,0.5,1.1,0.5s0.8-0.2,1.1-0.5c0.3-0.3,0.5-0.7,0.5-1.1s-0.2-0.8-0.5-1.1S1857.8,70.6,1857.3,70.6z"/>
			<path fill="#FFFFFF" d="M1864.2,74c0,0.1,0,0.2-0.1,0.2s-0.1,0.1-0.2,0.1s-0.2,0-0.2-0.1s-0.1-0.1-0.1-0.2v-0.3
				c-0.4,0.4-0.9,0.6-1.4,0.6c-0.6,0-1-0.2-1.4-0.6s-0.6-0.9-0.6-1.4v-2c0-0.1,0-0.2,0.1-0.2c0.1-0.1,0.1-0.1,0.2-0.1s0.2,0,0.2,0.1
				s0.1,0.1,0.1,0.2v2c0,0.4,0.1,0.7,0.4,1s0.6,0.4,1,0.4s0.7-0.1,1-0.4s0.4-0.6,0.4-1v-2c0-0.1,0-0.2,0.1-0.2s0.1-0.1,0.2-0.1
				s0.2,0,0.2,0.1s0.1,0.1,0.1,0.2L1864.2,74L1864.2,74z"/>
			<path fill="#FFFFFF" d="M1864.8,70.3c0-0.1,0-0.2,0.1-0.2s0.1-0.1,0.2-0.1s0.2,0,0.2,0.1s0.1,0.1,0.1,0.2v0.3
				c0.4-0.4,1-0.7,1.6-0.7c0.3,0,0.6,0.1,0.8,0.2c0,0,0.1,0,0.1,0.1c0.1,0.1,0.1,0.1,0.1,0.2s0,0.2-0.1,0.2
				c-0.1,0.1-0.1,0.1-0.2,0.1h-0.1c-0.2-0.1-0.4-0.1-0.6-0.1c-0.4,0-0.8,0.2-1.1,0.5s-0.5,0.7-0.5,1.1v1.9c0,0.1,0,0.2-0.1,0.2
				s-0.1,0.1-0.2,0.1s-0.2,0-0.2-0.1s-0.1-0.1-0.1-0.2L1864.8,70.3L1864.8,70.3z"/>
			<path fill="#FFFFFF" d="M1868.5,70.3c0-0.1,0-0.2,0.1-0.2c0.1-0.1,0.1-0.1,0.2-0.1s0.2,0,0.2,0.1s0.1,0.1,0.1,0.2v0.3
				c0.4-0.4,0.9-0.6,1.4-0.6c0.6,0,1,0.2,1.4,0.6s0.6,0.9,0.6,1.4v2c0,0.1,0,0.2-0.1,0.2s-0.1,0.1-0.2,0.1s-0.2,0-0.2-0.1
				c-0.1-0.1-0.1-0.1-0.1-0.2v-2c0-0.4-0.1-0.7-0.4-1s-0.6-0.4-1-0.4s-0.7,0.1-1,0.4s-0.4,0.6-0.4,1v2c0,0.1,0,0.2-0.1,0.2
				s-0.1,0.1-0.2,0.1s-0.2,0-0.2-0.1c-0.1-0.1-0.1-0.1-0.1-0.2L1868.5,70.3L1868.5,70.3z"/>
			<path fill="#FFFFFF" d="M1876.5,73.3c0.1,0,0.2,0,0.2,0.1c0.1,0.1,0.1,0.1,0.1,0.2s0,0.2-0.1,0.2c-0.4,0.3-0.9,0.5-1.4,0.5
				c-0.6,0-1.1-0.2-1.5-0.6s-0.6-0.9-0.6-1.5s0.2-1.1,0.6-1.5s0.9-0.6,1.5-0.6s1.1,0.2,1.5,0.6s0.6,0.9,0.6,1.5c0,0.1,0,0.2-0.1,0.2
				s-0.1,0.1-0.2,0.1h-3.4c0.1,0.3,0.2,0.6,0.4,0.8c0.3,0.3,0.7,0.5,1.1,0.5s0.7-0.1,1-0.4C1876.4,73.3,1876.5,73.3,1876.5,73.3z
				 M1876.9,71.9c-0.1-0.3-0.2-0.6-0.4-0.8c-0.3-0.3-0.7-0.5-1.1-0.5s-0.8,0.2-1.1,0.5c-0.2,0.2-0.4,0.5-0.4,0.8H1876.9z"/>
		</g>
		<path fill="#0E62AF" d="M1824.7,27.9c-0.5-0.5-1.1-0.8-1.8-0.8s-1.3,0.3-1.8,0.8s-0.8,1.1-0.8,1.8v19.4c0,2.5-0.9,4.6-2.7,6.4
			c-1.8,1.8-3.9,2.6-6.4,2.7c-2.5,0-4.6-0.9-6.4-2.7s-2.7-3.9-2.7-6.4V13.9c0-0.7-0.3-1.3-0.8-1.8s-1.1-0.8-1.8-0.8
			c-0.7,0-1.3,0.3-1.8,0.8s-0.8,1.1-0.8,1.8v35.2c0,3.9,1.4,7.3,4.2,10.1c2.8,2.8,6.1,4.2,10,4.2l0,0l0,0l0,0l0,0
			c3.9,0,7.2-1.4,10-4.2s4.2-6.1,4.2-10.1V29.7C1825.4,29,1825.2,28.4,1824.7,27.9z"/>
		<path fill="#F16B26" d="M1825.4,45.9V29.6c0-0.7-0.3-1.3-0.8-1.8s-1.1-0.8-1.8-0.8s-1.3,0.3-1.8,0.8s-0.8,1.1-0.8,1.8v16.3H1825.4
			z"/>
		<path fill="#0A8551" d="M1726.1,31.2c-2.8-2.8-6.1-4.2-10-4.2l0,0l0,0l0,0l0,0c-3.9,0-7.2,1.4-10,4.2s-4.2,6.1-4.2,10.1v4.1
			c0,0.7,0.3,1.3,0.8,1.8s1.1,0.8,1.8,0.8s1.3-0.3,1.8-0.8s0.8-1.1,0.8-1.8v-4.1c0-2.5,0.9-4.6,2.7-6.4c1.8-1.8,3.9-2.6,6.4-2.7
			c2.5,0,4.6,0.9,6.4,2.7s2.7,3.9,2.7,6.4V66c0,0.7,0.3,1.3,0.8,1.8s1.1,0.8,1.8,0.8s1.3-0.3,1.8-0.8s0.8-1.1,0.8-1.8V41.3
			C1730.3,37.3,1728.9,34,1726.1,31.2z"/>
		<path fill="#0A8551" d="M1729.6,31.2c2.8-2.8,6.1-4.2,10-4.2l0,0l0,0l0,0l0,0c3.9,0,7.2,1.4,10,4.2s4.2,6.1,4.2,10.1V46
			c0,0.7-0.3,1.3-0.8,1.8s-1.1,0.8-1.8,0.8s-1.3-0.3-1.8-0.8s-0.8-1.1-0.8-1.8v-4.7c0-2.5-0.9-4.6-2.7-6.4c-1.8-1.8-3.9-2.6-6.4-2.7
			c-2.5,0-4.6,0.9-6.4,2.7s-2.7,3.9-2.7,6.4V66c0,0.7-0.3,1.3-0.8,1.8s-1.1,0.8-1.8,0.8s-1.3-0.3-1.8-0.8s-0.8-1.1-0.8-1.8V41.3
			C1725.4,37.3,1726.8,34,1729.6,31.2z"/>
		<circle fill="#F16B26" cx="1823.1" cy="19.3" r="3.1"/>
		<g>
			<path fill="#B7417C" d="M1892.8,43.3c0.7,0,1.3,0.3,1.8,0.8s0.8,1.1,0.8,1.8s-0.3,1.3-0.8,1.8s-1.1,0.8-1.8,0.8h-41.7
				c-0.7,0-1.3-0.3-1.8-0.8s-0.8-1.1-0.8-1.8c0-0.7,0.3-1.3,0.8-1.8s1.1-0.8,1.8-0.8H1892.8z"/>
		</g>
		<path fill="#F16B26" d="M1877.5,62.1c-7.3,0.1-13.2-6-13.2-13.2v-3.3c0-7.3,6-13.4,13.2-13.2c7.1,0.1,12.7,5.9,12.7,13h5.2
			c0-10.1-8.3-18.3-18.5-18.1c-9.9,0.2-17.8,8.5-17.8,18.4v3.2c0,10,7.9,18.3,17.8,18.4c9.2,0.2,16.8-6.5,18.2-15.2
			c0.3-1.5-0.9-2.9-2.5-2.9l0,0c-1.3,0-2.4,0.9-2.6,2.2C1889,57.4,1883.8,62,1877.5,62.1z"/>
		<g>
			<path fill="#F16B26" d="M1892.8,43.3c0.7,0,1.3,0.3,1.8,0.8s0.8,1.1,0.8,1.8s-0.3,1.3-0.8,1.8s-1.1,0.8-1.8,0.8h-69.7
				c-0.7,0-1.3-0.3-1.8-0.8s-0.8-1.1-0.8-1.8c0-0.7,0.3-1.3,0.8-1.8s1.1-0.8,1.8-0.8H1892.8z"/>
		</g>
		<g>
			<path fill="#FECF09" d="M1793,43.3c0.7,0,1.3,0.3,1.8,0.8s0.8,1.1,0.8,1.8s-0.3,1.3-0.8,1.8s-1.1,0.8-1.8,0.8h-41.7
				c-0.7,0-1.3-0.3-1.8-0.8s-0.8-1.1-0.8-1.8c0-0.7,0.3-1.3,0.8-1.8s1.1-0.8,1.8-0.8H1793z"/>
		</g>
		<path fill="#B7417C" d="M1860.9,15.6c-2.8-2.8-6.1-4.1-9.9-4.2l0,0c0,0,0,0-0.1,0c0,0,0,0-0.1,0l0,0c-3.9,0-7.2,1.4-9.9,4.2
			c-2.8,2.8-4.2,6.1-4.2,10.1v39.1c0,0.7,0.3,1.3,0.8,1.8s1.1,0.8,1.8,0.8s1.3-0.3,1.8-0.8s0.8-1.1,0.8-1.8V25.7
			c0-2.5,0.9-4.6,2.7-6.4c1.8-1.8,3.9-2.6,6.3-2.7c2.5,0,4.6,0.9,6.3,2.7c1.7,1.7,2.6,3.8,2.6,6.2c0,0.1,0,0.2,0,0.4
			c0,1.4,1.2,2.6,2.6,2.6c1.3,0,2.4-1,2.6-2.3l0,0v-0.4C1865.1,21.8,1863.7,18.4,1860.9,15.6z"/>
		<path fill="#FECF09" d="M1776.6,62.1c-6.7-0.4-12.2-6.5-12.2-13.2v-3.3c0-6.7,5.5-12.8,12.2-13.2c7.5-0.5,13.8,5.5,13.8,13h5.2
			c0-10.3-8.7-18.7-19.1-18.1c-9.7,0.5-17.2,8.7-17.2,18.4v3.2c0,9.7,7.5,17.9,17.2,18.4c9.5,0.5,17.5-6.3,18.9-15.4
			c0.2-1.4-0.9-2.8-2.3-2.8l0,0c-1.4,0-2.5,1-2.8,2.4C1789,57.8,1783.3,62.5,1776.6,62.1z"/>
	</g>
</g>
</svg>
