<!-- Generator: Adobe Illustrator 18.0.0, SVG Export Plug-In  -->
<svg version="1.1"
	 xmlns="http://www.w3.org/2000/svg" xmlns:xlink="http://www.w3.org/1999/xlink" xmlns:a="http://ns.adobe.com/AdobeSVGViewerExtensions/3.0/"
	 x="0px" y="0px" width="246.2px" height="354.3px" viewBox="0 0 246.2 354.3" enable-background="new 0 0 246.2 354.3"
	 xml:space="preserve">
<defs>
</defs>
<g id="housewife_1_">
	<defs>
		<rect id="SVGID_1_" x="30.4" y="0" width="56.7" height="91.7"/>
	</defs>
	<clipPath id="SVGID_2_">
		<use xlink:href="#SVGID_1_"  overflow="visible"/>
	</clipPath>
	<g clip-path="url(#SVGID_2_)">
		<path fill="#E8C19F" d="M87.1,132.2l-3.3,0.1v-105c0,0-0.3-26.7-25.2-26.7c-26.4,0-24.4,26.7-24.4,26.7l0.2,81.8
			C50,116,48,136,48,153.8v41.5c81.3,18.6,41.2,106.6,47.4,88c17.7-53.1-16.5-82.9-47.4-88v-59.7c0,0,1.6-28.6-24.5-28.6
			C2.8,106.9,0,125.3,0,133.5c0,13.1,3.1,81.2,8.4,112.4c14,82.1,61.9,108.3,124.9,108.3c91,0,112.2-90.2,112.2-177.7
			c0-27.9,0.7-52.7,0.7-86.2"/>
	</g>
	<path clip-path="url(#SVGID_2_)" fill="#754D29" d="M83.8,28.8C65.9,29.9,53.3,18,53.3,18C44.2,29.5,38.6,28.5,34.2,28
		C34.2,9.5,41.5,0,59,0c12.4,0,18.6,7.9,21.2,13.2C82.7,18.3,83.9,22.4,83.8,28.8z"/>
	<g clip-path="url(#SVGID_2_)">
		<defs>
			<polygon id="SVGID_3_" points="91.6,43.2 84,43.6 82.7,20.9 90.3,20.5 			"/>
		</defs>
		<clipPath id="SVGID_4_">
			<use xlink:href="#SVGID_3_"  overflow="visible"/>
		</clipPath>
		<path clip-path="url(#SVGID_4_)" fill="#754D29" d="M87.4,31.3c0.2,3.1-2.2,5.8-5.4,6c-3.2,0.2-5.9-2.2-6-5.3s2.2-5.8,5.4-6
			S87.2,28.2,87.4,31.3z"/>
	</g>
	<g clip-path="url(#SVGID_2_)">
		<defs>
			<polygon id="SVGID_5_" points="26,43.2 33.6,43.6 34.9,20.9 27.3,20.5 			"/>
		</defs>
		<clipPath id="SVGID_6_">
			<use xlink:href="#SVGID_5_"  overflow="visible"/>
		</clipPath>
		<path clip-path="url(#SVGID_6_)" fill="#754D29" d="M30.2,31.3c-0.2,3.1,2.2,5.8,5.4,6s5.9-2.2,6-5.3s-2.2-5.8-5.4-6
			S30.3,28.2,30.2,31.3z"/>
	</g>
	<path clip-path="url(#SVGID_2_)" fill="#FFFFFF" d="M35.4,17.3c0,0,22.4-7.4,46.5,0c0,0-16.4-12-22.9-17.3L35.4,17.3z"/>
	<path clip-path="url(#SVGID_2_)" fill="#FFFFFF" d="M40.5,63.4c-0.6,1.8-1,3.8-1,5.9c0,10.3,8.8,18.7,19.6,18.7s19.6-8.4,19.6-18.7
		c0-2-0.4-4-1-5.8C61.8,67.5,47.5,65.1,40.5,63.4z"/>
	<path clip-path="url(#SVGID_2_)" fill="none" stroke="#FFFFFF" stroke-width="1.0074" stroke-miterlimit="10" d="M35.1,61.6
		c0,0,23.1,8.9,48-0.7"/>
	<path clip-path="url(#SVGID_2_)" d="M68.8,47.7c-0.9,0.9-2,1.7-3.4,2.3c0.1,0.6,0.3,1.2,0.7,1.7c1,1.4,2.8,1.8,3.9,1s1.2-2.6,0.1-4
		C69.8,48.3,69.3,47.9,68.8,47.7z"/>
	<path clip-path="url(#SVGID_2_)" fill="none" stroke="#231F20" stroke-width="1.0074" stroke-miterlimit="10" d="M43.6,42.3
		c0,0,3.6,9.8,15,9.8s14.9-9.8,14.9-9.8"/>
	<path clip-path="url(#SVGID_2_)" fill="none" stroke="#231F20" stroke-width="1.0074" stroke-miterlimit="10" d="M43.6,42.3
		c0,0,3.6,9.8,15,9.8s14.9-9.8,14.9-9.8"/>
	<ellipse clip-path="url(#SVGID_2_)" fill="#231F20" cx="70" cy="29.5" rx="2.2" ry="2.2"/>
	<ellipse clip-path="url(#SVGID_2_)" fill="#FFFFFF" cx="69.4" cy="28.8" rx="0.9" ry="0.8"/>
	<ellipse clip-path="url(#SVGID_2_)" fill="#231F20" cx="48.9" cy="29.5" rx="2.2" ry="2.2"/>
	<ellipse clip-path="url(#SVGID_2_)" fill="#FFFFFF" cx="48.3" cy="28.8" rx="0.9" ry="0.8"/>
</g>
</svg>
