<!-- Generator: Adobe Illustrator 18.0.0, SVG Export Plug-In  -->
<svg version="1.1"
	 xmlns="http://www.w3.org/2000/svg" xmlns:xlink="http://www.w3.org/1999/xlink" xmlns:a="http://ns.adobe.com/AdobeSVGViewerExtensions/3.0/"
	 x="0px" y="0px" width="405.3px" height="90.2px" viewBox="0 0 405.3 90.2" enable-background="new 0 0 405.3 90.2"
	 xml:space="preserve">
<defs>
</defs>
<g>
	<path fill="#E9C2A0" stroke="#FFFFFF" stroke-width="5.5405" stroke-miterlimit="10" d="M97.4,34.6H58.3c-1.7,0-2.9-1.6-2.4-3.2
		c0.4-1.3,0.9-2.8,1.6-4.5c1.3-3.3,2.3-6.2,3.2-8.5c0.8-2.3,1-4.9,0.5-7.7c-0.5-2.8-2.2-5-4.9-6.7c-2-1.1-3.8-1.4-5.4-1.1
		c-0.3,0.2-0.5,0.3-0.6,0.6C50.1,3.7,50,3.9,50,4.2c-0.6,3.5-1.1,6.1-1.5,7.9c-0.4,1.8-1.2,4-2.4,6.5s-2.8,4.6-4.8,6.2
		c-1.4,1.1-4,3.7-7.8,7.9c-3.6,4-6.8,6.6-9.6,7.9c-0.3,0.2-0.7,0.2-1.1,0.2H5.3c-1.4,0-2.5,1.1-2.5,2.5v35.3c0,1.4,1.1,2.5,2.5,2.5
		H23c1.8,0,5.1,0.6,9.8,1.7c4.7,1.1,9.1,2.1,13.4,2.9c4.2,0.8,8.5,1.3,12.7,1.5c4.2,0.2,7.4-0.9,9.6-3.1c1.9-1.9,2.7-4.8,2.4-8.8
		c-0.1-1,0.4-2,1.2-2.7c1.3-1.1,2.3-2.6,2.8-4.5c0.5-1.8,0.5-3.5,0-5c-0.4-1.2-0.2-2.4,0.6-3.3c2.2-2.7,2.8-5.2,2-7.6
		c-0.6-1.6,0.6-3.3,2.4-3.3h17.6c2.1-0.2,3.9-0.9,5.2-2.3c1.4-1.4,2.1-2.9,2.3-4.8c-0.2-2.3-0.9-4-2.3-5.3
		C101.3,35.5,99.5,34.8,97.4,34.6z"/>
	<g>
		<path fill="#FFFFFF" d="M139.3,25.5c0-0.6,0.2-1,0.6-1.4c0.4-0.4,0.8-0.6,1.4-0.6c0.5,0,1,0.2,1.4,0.6c0.4,0.4,0.6,0.9,0.6,1.4
			v34.3h1.9c0.5,0,1,0.2,1.4,0.6c0.4,0.4,0.6,0.9,0.6,1.4c0,0.6-0.2,1-0.6,1.4c-0.4,0.4-0.8,0.6-1.4,0.6h-3.9c-0.5,0-1-0.2-1.4-0.6
			c-0.4-0.4-0.6-0.9-0.6-1.4V25.5z"/>
		<path fill="#FFFFFF" d="M172.1,57c0.5,0,1,0.2,1.4,0.6c0.4,0.4,0.6,0.9,0.6,1.4c0,0.6-0.2,1-0.6,1.4c-2.5,2.3-5.5,3.4-8.9,3.4
			c-3.8,0-7-1.4-9.6-4.1s-4-6.1-4-10s1.3-7.2,4-10c2.7-2.8,5.9-4.1,9.6-4.1c3.8,0,7,1.4,9.6,4.1c2.7,2.8,4,6.1,4,10
			c0,0.6-0.2,1-0.6,1.4c-0.4,0.4-0.8,0.6-1.4,0.6h-21.3c0.4,1.9,1.3,3.6,2.7,5.1c1.9,2,4.2,3,6.9,3c2.4,0,4.5-0.8,6.3-2.4
			C171.3,57.2,171.7,57,172.1,57z M174.2,47.7c-0.4-1.9-1.3-3.6-2.7-5.1c-1.9-2-4.2-3-6.9-3c-2.7,0-5,1-6.9,3
			c-1.4,1.5-2.3,3.2-2.7,5.1H174.2z"/>
		<path fill="#FFFFFF" d="M205.6,59.6c-2.7,2.8-6,4.2-9.7,4.2c-3.8,0-7-1.4-9.6-4.1s-4-6.1-4-10s1.3-7.2,4-10
			c2.7-2.8,5.9-4.1,9.6-4.1c3.8,0,7,1.4,9.6,4.1c2.7,2.8,4,6.1,4,10v12.1c0,0.6-0.2,1-0.6,1.4c-0.4,0.4-0.8,0.6-1.4,0.6
			c-0.5,0-1-0.2-1.4-0.6c-0.4-0.4-0.6-0.9-0.6-1.4V59.6z M195.8,39.6c-2.7,0-5,1-6.9,3c-1.9,2-2.9,4.4-2.9,7.1
			c0,2.8,0.9,5.2,2.9,7.1c1.9,2,4.2,3,6.9,3c2.7,0,5-1,6.9-3c1.9-2,2.9-4.4,2.9-7.1c0-2.8-0.9-5.2-2.9-7.1
			C200.8,40.6,198.5,39.6,195.8,39.6z"/>
		<path fill="#FFFFFF" d="M213.3,37.6c0-0.6,0.2-1,0.6-1.4c0.4-0.4,0.8-0.6,1.4-0.6c0.5,0,1,0.2,1.4,0.6c0.4,0.4,0.6,0.9,0.6,1.4
			v2.2c2.7-2.8,6-4.2,9.7-4.2c1.9,0,3.6,0.3,5.2,1c0.3,0.1,0.6,0.3,0.8,0.5c0.4,0.4,0.6,0.9,0.6,1.4c0,0.6-0.2,1-0.6,1.4
			c-0.4,0.4-0.8,0.6-1.4,0.6c-0.3,0-0.6-0.1-0.9-0.2c-1.2-0.5-2.4-0.8-3.8-0.8c-2.7,0-5,1-6.9,3c-1.9,2-2.9,4.4-2.9,7.1v12.1
			c0,0.6-0.2,1-0.6,1.4c-0.4,0.4-0.8,0.6-1.4,0.6c-0.5,0-1-0.2-1.4-0.6c-0.4-0.4-0.6-0.9-0.6-1.4V37.6z"/>
		<path fill="#FFFFFF" d="M236.7,37.6c0-0.6,0.2-1,0.6-1.4c0.4-0.4,0.8-0.6,1.4-0.6c0.5,0,1,0.2,1.4,0.6c0.4,0.4,0.6,0.9,0.6,1.4
			v1.6c2.4-2.4,5.4-3.7,8.8-3.7c3.5,0,6.5,1.3,9,3.9c2.5,2.6,3.7,5.7,3.7,9.3v13.1c0,0.6-0.2,1-0.6,1.4c-0.4,0.4-0.8,0.6-1.4,0.6
			c-0.5,0-1-0.2-1.4-0.6c-0.4-0.4-0.6-0.9-0.6-1.4V48.7c0-2.5-0.9-4.7-2.6-6.4c-1.7-1.8-3.8-2.7-6.2-2.7c-2.4,0-4.5,0.9-6.2,2.7
			c-1.7,1.8-2.6,3.9-2.6,6.4v13.1c0,0.6-0.2,1-0.6,1.4c-0.4,0.4-0.8,0.6-1.4,0.6c-0.5,0-1-0.2-1.4-0.6c-0.4-0.4-0.6-0.9-0.6-1.4
			V37.6z"/>
		<path fill="#FFFFFF" d="M284.5,61.9c0,0.6-0.2,1-0.6,1.4c-0.4,0.4-0.8,0.6-1.4,0.6c-0.5,0-1-0.2-1.4-0.6c-0.4-0.4-0.6-0.9-0.6-1.4
			V37.6c0-0.6,0.2-1,0.6-1.4c0.4-0.4,0.8-0.6,1.4-0.6c0.5,0,1,0.2,1.4,0.6c0.4,0.4,0.6,0.9,0.6,1.4v0.5c1.9-1.7,4.2-2.6,6.8-2.6
			c3,0,5.5,1.1,7.6,3.3c0.4,0.5,0.8,0.9,1.2,1.4c0.4-0.5,0.8-1,1.2-1.4c2.1-2.2,4.6-3.3,7.6-3.3c3,0,5.5,1.1,7.6,3.3
			c2.1,2.2,3.1,4.8,3.1,7.9v15.2c0,0.6-0.2,1-0.6,1.4c-0.4,0.4-0.8,0.6-1.4,0.6c-0.5,0-1-0.2-1.4-0.6c-0.4-0.4-0.6-0.9-0.6-1.4V46.7
			c0-2-0.7-3.6-2-5c-1.3-1.4-2.9-2.1-4.8-2.1c-1.9,0-3.5,0.7-4.8,2.1c-1.3,1.4-2,3-2,5v15.2c0,0.6-0.2,1-0.6,1.4
			c-0.4,0.4-0.8,0.6-1.4,0.6c-0.5,0-1-0.2-1.4-0.6c-0.4-0.4-0.6-0.9-0.6-1.4V46.7c0-2-0.7-3.6-2-5c-1.3-1.4-2.9-2.1-4.8-2.1
			s-3.5,0.7-4.8,2.1c-1.3,1.4-2,3-2,5V61.9z"/>
		<path fill="#FFFFFF" d="M350.7,49.7c0,3.9-1.3,7.2-4,10c-2.7,2.8-5.9,4.1-9.6,4.1c-3.8,0-7-1.4-9.6-4.1s-4-6.1-4-10s1.3-7.2,4-10
			c2.7-2.8,5.9-4.1,9.6-4.1c3.8,0,7,1.4,9.6,4.1C349.4,42.5,350.7,45.8,350.7,49.7z M337.1,39.6c-2.7,0-5,1-6.9,3
			c-1.9,2-2.9,4.4-2.9,7.1c0,2.8,0.9,5.2,2.9,7.1c1.9,2,4.2,3,6.9,3c2.7,0,5-1,6.9-3c1.9-2,2.9-4.4,2.9-7.1c0-2.8-0.9-5.2-2.9-7.1
			C342.1,40.6,339.8,39.6,337.1,39.6z"/>
		<path fill="#FFFFFF" d="M354.6,37.6c0-0.6,0.2-1,0.6-1.4c0.4-0.4,0.8-0.6,1.4-0.6c0.5,0,1,0.2,1.4,0.6c0.4,0.4,0.6,0.9,0.6,1.4
			v2.2c2.7-2.8,6-4.2,9.7-4.2c1.9,0,3.6,0.3,5.2,1c0.3,0.1,0.6,0.3,0.8,0.5c0.4,0.4,0.6,0.9,0.6,1.4c0,0.6-0.2,1-0.6,1.4
			c-0.4,0.4-0.8,0.6-1.4,0.6c-0.3,0-0.6-0.1-0.9-0.2c-1.2-0.5-2.4-0.8-3.8-0.8c-2.7,0-5,1-6.9,3c-1.9,2-2.9,4.4-2.9,7.1v12.1
			c0,0.6-0.2,1-0.6,1.4c-0.4,0.4-0.8,0.6-1.4,0.6c-0.5,0-1-0.2-1.4-0.6c-0.4-0.4-0.6-0.9-0.6-1.4V37.6z"/>
		<path fill="#FFFFFF" d="M399.2,57c0.5,0,1,0.2,1.4,0.6c0.4,0.4,0.6,0.9,0.6,1.4c0,0.6-0.2,1-0.6,1.4c-2.5,2.3-5.5,3.4-8.9,3.4
			c-3.8,0-7-1.4-9.6-4.1c-2.7-2.8-4-6.1-4-10s1.3-7.2,4-10c2.7-2.8,5.9-4.1,9.6-4.1c3.8,0,7,1.4,9.6,4.1c2.7,2.8,4,6.1,4,10
			c0,0.6-0.2,1-0.6,1.4c-0.4,0.4-0.8,0.6-1.4,0.6h-21.3c0.4,1.9,1.3,3.6,2.7,5.1c1.9,2,4.2,3,6.9,3c2.4,0,4.5-0.8,6.3-2.4
			C398.3,57.2,398.7,57,399.2,57z M401.2,47.7c-0.4-1.9-1.3-3.6-2.7-5.1c-1.9-2-4.2-3-6.9-3c-2.7,0-5,1-6.9,3
			c-1.4,1.5-2.3,3.2-2.7,5.1H401.2z"/>
	</g>
</g>
</svg>
