<!-- Generator: Adobe Illustrator 18.0.0, SVG Export Plug-In  -->
<svg version="1.1"
	 xmlns="http://www.w3.org/2000/svg" xmlns:xlink="http://www.w3.org/1999/xlink" xmlns:a="http://ns.adobe.com/AdobeSVGViewerExtensions/3.0/"
	 x="0px" y="0px" width="59.7px" height="137.7px" viewBox="0 0 59.7 137.7" enable-background="new 0 0 59.7 137.7"
	 xml:space="preserve">
<defs>
</defs>
<g>
	<defs>
		<rect id="SVGID_1_" x="0" y="0" width="59.7" height="91.9"/>
	</defs>
	<clipPath id="SVGID_2_">
		<use xlink:href="#SVGID_1_"  overflow="visible"/>
	</clipPath>
	<g clip-path="url(#SVGID_2_)">
		<path fill="#E8C19F" d="M56.3,137.7h-1L53,33.3c0,0-1.2-30.1-25.2-30.1C5.6,3.1,6,33.2,6,33.2l0,103.2l-2.8-0.1"/>
	</g>
	<circle display="none" clip-path="url(#SVGID_2_)" fill="#231F20" cx="39.8" cy="30.3" r="2.1"/>
	<circle display="none" clip-path="url(#SVGID_2_)" fill="#FFFFFF" cx="39.1" cy="29.7" r="0.8"/>
	<circle clip-path="url(#SVGID_2_)" fill="#231F20" cx="21.3" cy="30.3" r="2.1"/>
	<circle clip-path="url(#SVGID_2_)" fill="#FFFFFF" cx="20.7" cy="29.7" r="0.8"/>
	<circle clip-path="url(#SVGID_2_)" fill="#603A17" cx="39.2" cy="39.4" r="0.7"/>
	<circle clip-path="url(#SVGID_2_)" fill="#603A17" cx="41.7" cy="39.4" r="0.7"/>
	<circle clip-path="url(#SVGID_2_)" fill="#603A17" cx="44.3" cy="39.4" r="0.7"/>
	<circle clip-path="url(#SVGID_2_)" fill="#603A17" cx="43.2" cy="41.8" r="0.7"/>
	<circle clip-path="url(#SVGID_2_)" fill="#603A17" cx="40.4" cy="41.8" r="0.7"/>
	<circle clip-path="url(#SVGID_2_)" fill="#603A17" cx="17.5" cy="39.4" r="0.7"/>
	<circle clip-path="url(#SVGID_2_)" fill="#603A17" cx="20" cy="39.4" r="0.7"/>
	<circle clip-path="url(#SVGID_2_)" fill="#603A17" cx="22.6" cy="39.4" r="0.7"/>
	<circle clip-path="url(#SVGID_2_)" fill="#603A17" cx="21.5" cy="41.8" r="0.7"/>
	<circle clip-path="url(#SVGID_2_)" fill="#603A17" cx="18.7" cy="41.8" r="0.7"/>
	<g clip-path="url(#SVGID_2_)">
		<path fill="none" stroke="#231F20" stroke-width="0.5451" stroke-miterlimit="10" d="M31,59.1c6.8,0,10-3.9,11.5-7h-23
			C21,55.2,24.2,59.1,31,59.1z"/>
		<path fill="#FFFFFF" stroke="#231F20" stroke-width="0.5451" stroke-miterlimit="10" d="M18.2,48.2c0,0,0.2,1.8,1.2,3.9h23
			c1-2.1,1.2-3.9,1.2-3.9H18.2z"/>
	</g>
	<path clip-path="url(#SVGID_2_)" fill="#BE202E" d="M0,34.8c-0.3,3.8,1.2,7.2,3.7,9.1l0.8-17.3C2.1,28.3,0.3,31.3,0,34.8z"/>
	<path clip-path="url(#SVGID_2_)" fill="#BE202E" d="M55.4,27l0.4,17.3c2.5-1.9,4.1-5.3,3.9-9C59.5,31.8,57.8,28.7,55.4,27z"/>
	<path clip-path="url(#SVGID_2_)" fill="#F69321" d="M7.9,29.5c18,1.1,26.9-9.5,26.9-9.5c9,10.2,14,8.9,18.2,8.3
		c-1.8-8.8-7.4-23.8-24.3-23.8C14.9,4.4,9.8,16.1,7.9,24.9V29.5z"/>
	<path clip-path="url(#SVGID_2_)" fill="#BE202E" d="M30,0L30,0c0,0-0.1,0-0.1,0c0,0-0.1,0-0.1,0l0,0C7.1,1.6,4.5,23.7,5.7,26
		l5.6,0.2c0,0,4.1-20.1,18.6-20.1c14.6,0.1,18.8,21,18.8,21l5.6-0.7C53.3,20.9,49.7,0.2,30,0z"/>
	<path clip-path="url(#SVGID_2_)" fill="#BE202E" d="M9.5,25.3c-1.4-0.1-2.7,0.2-3.9,0.7L4.6,44.5c1,0.6,2.2,1,3.5,1.1
		c0.7,0.1,1.4,0,2.1-0.1l1.1-19.9C10.7,25.4,10.1,25.3,9.5,25.3z"/>
	<path clip-path="url(#SVGID_2_)" fill="#BE202E" d="M48.7,25.8l0.7,19.9c0.7,0.2,1.4,0.2,2.1,0.2c1.3-0.1,2.4-0.4,3.5-1l-0.7-18.5
		c-1.2-0.6-2.5-0.9-3.8-0.8C49.8,25.6,49.2,25.7,48.7,25.8z"/>
</g>
</svg>
