<?xml version="1.0" encoding="utf-8"?>
<!-- Generator: Adobe Illustrator 18.0.0, SVG Export Plug-In . SVG Version: 6.00 Build 0)  -->
<!DOCTYPE svg PUBLIC "-//W3C//DTD SVG 1.1//EN" "http://www.w3.org/Graphics/SVG/1.1/DTD/svg11.dtd">
<svg version="1.1" id="Layer_1" xmlns="http://www.w3.org/2000/svg" xmlns:xlink="http://www.w3.org/1999/xlink" x="0px" y="0px"
	 viewBox="0 0 960 560" enable-background="new 0 0 960 560" xml:space="preserve">
<g id="bg">
</g>
<g id="maps" opacity="0.5">
	<g>
		<g>
			<defs>
				<rect id="SVGID_1_" y="10" width="960" height="540"/>
			</defs>
			<clipPath id="SVGID_2_">
				<use xlink:href="#SVGID_1_"  overflow="visible"/>
			</clipPath>
			<rect y="10" clip-path="url(#SVGID_2_)" fill="#F1F1F1" width="960" height="540"/>
		</g>
		<g>
			<defs>
				<rect id="SVGID_3_" y="10" width="960" height="540"/>
			</defs>
			<clipPath id="SVGID_4_">
				<use xlink:href="#SVGID_3_"  overflow="visible"/>
			</clipPath>
			<g clip-path="url(#SVGID_4_)">
				<g>
					<path fill="#D1D3D4" d="M-5,458.5c18.3,0,36.6,0,54.8,0c46.4,0,92.8,0,139.2,0c61.9,0,123.8,0,185.6,0c64.6,0,129.4,0,194,0
						c54.8,0,109.5,0,164.3,0c32.2,0,64.5,0,96.7,0c4.8,0,11,1,15.4-1.3c20.2-10.5,40.3-21,60.5-31.5c26.2-13.6,52.5-27.3,78.7-41
						c7.7-4,0.9-15.6-6.8-11.6c-43.2,22.5-86.3,45-129.5,67.4c-3,1.5-5.8,3-8.8,4.6c-3.2,1.6,0.5-0.1,1.7-0.1c-1.8,0-3.5,0-5.3,0
						c-10.3,0-20.5,0-30.8,0c-42,0-83.8,0-125.8,0c-59.8,0-119.7,0-179.6,0c-65.1,0-130.2,0-195.4,0c-57.7,0-115.4,0-173.1,0
						c-37.6,0-75.2,0-112.8,0c-7.7,0-15.4,0-23,0C-13.7,445-13.7,458.5-5,458.5L-5,458.5z"/>
				</g>
			</g>
		</g>
		<g>
			<defs>
				<rect id="SVGID_5_" y="10" width="960" height="540"/>
			</defs>
			<clipPath id="SVGID_6_">
				<use xlink:href="#SVGID_5_"  overflow="visible"/>
			</clipPath>
			<g clip-path="url(#SVGID_6_)">
				<g>
					<path fill="#D1D3D4" d="M721.2,574.9c0-11.7,0-23.5,0-35.2c0-28.5-0.1-57.1-0.2-85.6c0-35.5-0.2-70.9-0.2-106.4
						c0-32.5-0.1-65-0.2-97.4c0-19.6,0-39.1-0.1-58.6c0-2,0-3.9,0-5.9c-1.1,1.9-2.2,3.9-3.3,5.8c12-6.2,23.9-12.4,35.8-18.6
						c27.7-14.4,55.5-28.8,83.2-43.2c31.2-16.2,62.5-32.4,93.7-48.7c22.5-11.7,45-23.4,67.5-35.1c4.2-2.2,8.5-4.4,12.7-6.6
						c3.2-1.7,4.2-6.2,2.4-9.2c-1.9-3.3-6-4.1-9.2-2.4c-12,6.2-23.9,12.4-35.8,18.6c-27.7,14.4-55.5,28.8-83.2,43.2
						c-31.2,16.2-62.5,32.5-93.7,48.7c-22.5,11.7-45,23.4-67.5,35.1c-4.2,2.2-8.5,4.4-12.7,6.6c-2,1.1-3.3,3.6-3.3,5.8
						c0,11.7,0,23.4,0,35.2c0,28.6,0.1,57.1,0.2,85.6c0,35.5,0.2,71,0.2,106.4c0,32.5,0.1,64.9,0.2,97.4c0,19.5,0,39.1,0.1,58.7
						c0,2,0,4,0,6C707.7,583.6,721.2,583.6,721.2,574.9L721.2,574.9z"/>
				</g>
			</g>
		</g>
		<g>
			<defs>
				<rect id="SVGID_7_" y="10" width="960" height="540"/>
			</defs>
			<clipPath id="SVGID_8_">
				<use xlink:href="#SVGID_7_"  overflow="visible"/>
			</clipPath>
			<g clip-path="url(#SVGID_8_)">
				<g>
					<path fill="#D1D3D4" d="M971.2,78.6c-9.9,0-19.8,0-29.7,0c-24.8,0-49.5,0-74.2,0c-32.1,0-64.2,0-96.3,0c-32,0-64.2,0-96.2,0
						c-24.5,0-49.2,0-73.7,0c-9.6,0-19.2,0-28.8,0c-4.3,0-7.8,3.6-7.8,7.8c0,4.3,3.6,7.8,7.8,7.8c9.9,0,19.8,0,29.7,0
						c24.8,0,49.5,0,74.2,0c32.1,0,64.2,0,96.3,0c32,0,64.2,0,96.2,0c24.5,0,49.2,0,73.7,0c9.6,0,19.2,0,28.8,0
						c4.3,0,7.8-3.6,7.8-7.8C979.1,82.2,975.5,78.6,971.2,78.6L971.2,78.6z"/>
				</g>
			</g>
		</g>
		<g>
			<defs>
				<rect id="SVGID_9_" y="10" width="960" height="540"/>
			</defs>
			<clipPath id="SVGID_10_">
				<use xlink:href="#SVGID_9_"  overflow="visible"/>
			</clipPath>
			<g clip-path="url(#SVGID_10_)">
				<g>
					<path fill="#D1D3D4" d="M573.5,81c-12.2,0-24.3,0-36.5,0c-28.5,0-56.9,0-85.4,0c-32.7,0-65.4,0-98.1,0c-24.9,0-49.6,0-74.5,0
						c-5.7,0-11.4,0-17.1,0c-3.3,0-5.9,1.6-8.9,2.9c-22.8,10.6-45.6,21.1-68.4,31.7c-27.4,12.7-54.6,25.3-82,38
						c-6.6,3.1-13.2,6.1-19.8,9.1c-1.4,0.6-2.2,2.4-2.2,3.9c0,10.1,0,20.1,0,30.2c0,25.1,0,50.2,0,75.2c0,32.3,0,64.5,0,96.9
						c0,31.8,0,63.5,0,95.2c0,23.5,0,46.9,0,70.3c0,7.6,0,15.2,0,22.8c0,5.8,9,5.8,9,0c0-10.1,0-20.2,0-30.2c0-25,0-50.1,0-75.2
						c0-32.3,0-64.5,0-96.9c0-31.8,0-63.5,0-95.2c0-23.4,0-46.9,0-70.3c0-7.6,0-15.2,0-22.8c-0.8,1.3-1.5,2.6-2.2,3.9
						c16.1-7.4,32.2-14.9,48.2-22.4c29-13.4,57.9-26.8,86.9-40.2c13.3-6.2,26.6-12.3,39.9-18.4c-0.8,0.2-1.5,0.4-2.2,0.6
						c12.1,0,24.4,0,36.5,0c28.5,0,56.9,0,85.4,0c32.7,0,65.4,0,98,0c24.9,0,49.7,0,74.5,0c6.2,0,12.5,0,18.8,0
						C579.3,90,579.3,81,573.5,81L573.5,81z"/>
				</g>
			</g>
		</g>
		<g>
			<defs>
				<rect id="SVGID_11_" y="10" width="960" height="540"/>
			</defs>
			<clipPath id="SVGID_12_">
				<use xlink:href="#SVGID_11_"  overflow="visible"/>
			</clipPath>
			<g clip-path="url(#SVGID_12_)">
				<g>
					<path fill="#D1D3D4" d="M492,12.4c17.1,16.9,34.3,33.7,51.5,50.6c8.8,8.6,17.5,17.2,26.3,25.8c3.1,3.1,7.8-1.7,4.8-4.8
						c-17.2-16.8-34.3-33.7-51.5-50.6c-8.8-8.6-17.5-17.2-26.3-25.9C493.7,4.6,488.9,9.4,492,12.4L492,12.4z"/>
				</g>
			</g>
		</g>
		<g>
			<defs>
				<rect id="SVGID_13_" y="10" width="960" height="540"/>
			</defs>
			<clipPath id="SVGID_14_">
				<use xlink:href="#SVGID_13_"  overflow="visible"/>
			</clipPath>
			<g clip-path="url(#SVGID_14_)">
				<g>
					<path fill="#D1D3D4" d="M842.7,562.3c0-10.2,0-20.5,0-30.7c0-26,0-52,0-77.9c0-34.6,0-69.3,0-103.9c0-36.2,0-72.5,0-108.8
						c0-30.8,0-61.6,0-92.4c0-18.2,0-36.6,0-54.8c0-2.2,0-4.5,0-6.8c-0.2,0.6-0.5,1.1-0.7,1.6c9.7-9.4,19.4-18.9,29-28.3
						c3.5-3.4,7-6.8,10.5-10.2c1.2-1.2,0.7-4.2,0.7-5.6c0-3.9,0-7.8,0-11.7c0-7.6,0-15.2,0-22.9c0-2.9-4.5-2.9-4.5,0
						c0,12.9,0,25.7,0,38.6c0.2-0.5,0.5-1,0.7-1.6c-9.7,9.5-19.4,18.9-29,28.3c-3.5,3.4-7,6.8-10.5,10.2c-0.8,0.8-0.7,2.2-0.7,3.3
						c0,14.4,0,29,0,43.4c0,28.6,0,57.1,0,85.8c0,35.6,0,71.2,0,106.9c0,35.6,0,71.2,0,106.9c0,28.5,0,57,0,85.6
						c0,14.4,0,28.8,0,43.1c0,0.5,0,1.2,0,1.7C838.2,565.2,842.7,565.2,842.7,562.3L842.7,562.3z"/>
				</g>
			</g>
		</g>
		<g>
			<defs>
				<rect id="SVGID_15_" y="10" width="960" height="540"/>
			</defs>
			<clipPath id="SVGID_16_">
				<use xlink:href="#SVGID_15_"  overflow="visible"/>
			</clipPath>
			<g clip-path="url(#SVGID_16_)">
				<g>
					<path fill="#D1D3D4" d="M970.1,203.6c-33.2,18.6-66.3,37.2-99.4,55.8c-39,21.9-78,43.8-117.1,65.8c-0.8,0.5-1.5,0.9-2.3,1.3
						c1.2-0.6,1.3-0.3,0.2-0.3c-2.5,0-5,0-7.5,0c-11.5,0-23,0-34.6,0c-42.8,0-85.7,0-128.5,0c-56.9,0-113.8,0-170.6,0
						c-56.1,0-112.2,0-168.3,0c-40.5,0-81.1,0-121.6,0c-11.2,0-22.5,0-33.8,0c-2.9,0-2.9,4.5,0,4.5c18.4,0,36.8,0,55.3,0
						c45.4,0,90.8,0,136.2,0c57.6,0,115.2,0,172.8,0c55,0,110,0,164.9,0c37.5,0,75,0,112.6,0c7.6,0,15.2,0,22.8,0
						c1.5,0,2.4-0.3,3.7-1c4.7-2.6,9.4-5.3,14.1-7.9c45.4-25.5,90.8-51,136.2-76.5c22.4-12.6,44.8-25.2,67.2-37.8
						C974.9,206.1,972.6,202.2,970.1,203.6L970.1,203.6z"/>
				</g>
			</g>
		</g>
		<g>
			<defs>
				<rect id="SVGID_17_" y="10" width="960" height="540"/>
			</defs>
			<clipPath id="SVGID_18_">
				<use xlink:href="#SVGID_17_"  overflow="visible"/>
			</clipPath>
			<g clip-path="url(#SVGID_18_)">
				<g>
					<path fill="#D1D3D4" d="M171.6,10.4c21.1,18.9,42.3,37.7,63.4,56.5c13.6,12.1,27.1,24.1,40.6,36.2c3.8,3.3,7.5,6.7,11.2,10
						c1.2,1.2,2.4,2.4,4.1,2.4c22.6,0,45.1,0,67.8,0c40.1,0,80.1,0,120.2,0c28.9,0,57.8,0,86.7,0c2.2,0,4.4,0,6.6,0
						c-0.5-0.2-1-0.4-1.6-0.7c19.8,18.4,39.5,36.8,59.3,55.2c-0.2-0.6-0.5-1.1-0.7-1.6c0,22.1,0,44.2,0,66.4c0,39.6,0,79.4,0,119
						c0,13.9,0,27.8,0,41.6c0,3.2,0,6.5,0,9.8c0,1.5,0.3,2.5,1.5,3.6c19.7,18.5,39.3,37,59,55.5c27.7,26.1,55.4,52.1,83.1,78.3
						c6.8,6.5,13.7,12.8,20.5,19.3c2.1,2,5.3-1.2,3.2-3.2c-16.8-15.8-33.5-31.6-50.3-47.4c-28.4-26.8-56.8-53.5-85.2-80.3
						c-9.2-8.7-18.5-17.5-27.8-26.1c0.2,0.5,0.5,1,0.7,1.6c0-22.1,0-44.2,0-66.4c0-39.6,0-79.4,0-119c0-13.9,0-27.8,0-41.6
						c0-3.2,0-6.5,0-9.8c0-2.4-1-3.3-2.8-4.9c-12.8-11.9-25.5-23.8-38.2-35.7c-5.5-5.1-11-10.2-16.5-15.4c-1.6-1.4-2.8-2.9-5-2.9
						c-23.3,0-46.8,0-70.1,0c-40.1,0-80.3,0-120.4,0c-28.2,0-56.5,0-84.8,0c-1.9,0-3.8,0-5.6,0c0.5,0.2,1,0.4,1.6,0.7
						c-21.1-18.8-42.3-37.7-63.4-56.5c-17.9-16-35.8-31.9-53.8-47.8C172.6,5.3,169.4,8.5,171.6,10.4L171.6,10.4z"/>
				</g>
			</g>
		</g>
		<g>
			<defs>
				<rect id="SVGID_19_" y="10" width="960" height="540"/>
			</defs>
			<clipPath id="SVGID_20_">
				<use xlink:href="#SVGID_19_"  overflow="visible"/>
			</clipPath>
			<g clip-path="url(#SVGID_20_)">
				<g>
					<path fill="#D1D3D4" d="M285.5,560.2c0-24.4,0-48.8,0-73.2c0-12.6,0-25.2,0-37.9c0-1.2,0-2.4,0-3.5c0-0.1,0-0.4,0-0.5
						c0,1.2,0,0,0.1-0.4c1.4-5.2,4-10.2,7.6-14.4c2.8-3.2,6.2-5.7,10.1-7.5c5.3-2.4,10.9-2.4,16.5-2.6c10.1-0.5,20.6-4.2,25.9-13.4
						c3.3-5.8,3-12.1,3-18.5c0.1-20,0.2-40,0.3-60c0.1-32,0.3-63.9,0.5-95.9c0.1-33.1,0.3-66.2,0.5-99.3c0.1-23.4,0.2-46.8,0.4-70.2
						c0-4.9,0-9.8,0-14.7c0-1.2-1-2.2-2.2-2.2c-11.3,0-22.6,0-34,0c-27.4,0-54.8,0-82.1,0c-33.6,0-67.2,0-100.9,0
						c-30.1,0-60.1,0-90.1,0C24.6,46,8,46-8.6,46c-0.9,0-1.8,0-2.8,0c-2.9,0-2.9,4.5,0,4.5c11.3,0,22.6,0,34,0c27.4,0,54.7,0,82.2,0
						c33.7,0,67.2,0,100.9,0c30.1,0,60.1,0,90.1,0c16.6,0,33.2,0,49.9,0c0.9,0,1.8,0,2.8,0c-0.8-0.8-1.5-1.5-2.2-2.2
						c0,11.9-0.1,23.7-0.1,35.5c-0.1,28.3-0.2,56.7-0.4,85c-0.1,33.9-0.4,67.9-0.5,101.9c-0.1,28.8-0.2,57.5-0.4,86.2
						c0,12.8-0.1,25.5-0.1,38.2c0,9.4-6.1,16.2-14.8,19.1c-6.1,2-12.4,1.4-18.6,2.2c-4.9,0.6-9.5,2.2-13.7,4.9
						c-6.3,3.9-11,10.1-14,16.9c-1,2.4-2.4,5.1-2.4,7.7c0,26.4,0,52.6,0,79c0,11.8,0,23.7,0,35.5C281,563.1,285.5,563.1,285.5,560.2
						L285.5,560.2z"/>
				</g>
			</g>
		</g>
		<g>
			<defs>
				<rect id="SVGID_21_" y="10" width="960" height="540"/>
			</defs>
			<clipPath id="SVGID_22_">
				<use xlink:href="#SVGID_21_"  overflow="visible"/>
			</clipPath>
			<g clip-path="url(#SVGID_22_)">
				<circle fill="#FFFFFF" cx="484.4" cy="111.5" r="8.7"/>
				<g>
					<path fill="#D1D3D4" d="M490.8,111.6c-0.3,8.3-12.5,8.3-12.9,0c-0.1-3.6,3-6.3,6.5-6.4C488,105,490.6,108.2,490.8,111.6
						c0.1,2.9,4.6,2.9,4.5,0c-0.2-6.1-4.8-10.7-10.9-10.9c-6.1-0.2-10.7,5.2-10.9,10.9c-0.2,6.1,5.1,10.7,10.9,10.9
						c6.1,0.2,10.7-5.2,10.9-10.9C495.4,108.7,490.9,108.7,490.8,111.6z"/>
				</g>
			</g>
		</g>
		<g>
			<defs>
				<rect id="SVGID_23_" y="10" width="960" height="540"/>
			</defs>
			<clipPath id="SVGID_24_">
				<use xlink:href="#SVGID_23_"  overflow="visible"/>
			</clipPath>
			<g clip-path="url(#SVGID_24_)">
				<circle fill="#FFFFFF" cx="314.8" cy="111.5" r="8.7"/>
				<g>
					<path fill="#D1D3D4" d="M321.1,111.6c-0.3,8.3-12.5,8.3-12.9,0c-0.1-3.6,3-6.3,6.5-6.4C318.4,105,321,108.2,321.1,111.6
						c0.1,2.9,4.6,2.9,4.5,0c-0.2-6.1-4.8-10.7-10.9-10.9c-6.1-0.2-10.7,5.2-10.9,10.9c-0.2,6.1,5.1,10.7,10.9,10.9
						c6.1,0.2,10.7-5.2,10.9-10.9C325.8,108.7,321.2,108.7,321.1,111.6z"/>
				</g>
			</g>
		</g>
		<g>
			<defs>
				<rect id="SVGID_25_" y="10" width="960" height="540"/>
			</defs>
			<clipPath id="SVGID_26_">
				<use xlink:href="#SVGID_25_"  overflow="visible"/>
			</clipPath>
			<g clip-path="url(#SVGID_26_)">
				<circle fill="#FFFFFF" cx="86" cy="451.8" r="8.7"/>
				<g>
					<path fill="#D1D3D4" d="M92.4,451.8c-0.3,8.3-12.6,8.3-12.8,0c-0.2-3.6,3.1-6.3,6.4-6.5C89.6,445.2,92.3,448.4,92.4,451.8
						c0.1,2.9,4.6,2.9,4.5,0c-0.2-6.1-4.8-10.7-10.9-10.9c-6.1-0.2-10.7,5.1-10.9,10.9c-0.2,6.1,5.2,10.7,10.9,10.9
						c6.1,0.2,10.7-5.1,10.9-10.9C97.1,448.9,92.6,448.9,92.4,451.8z"/>
				</g>
			</g>
		</g>
		<g>
			<defs>
				<rect id="SVGID_27_" y="10" width="960" height="540"/>
			</defs>
			<clipPath id="SVGID_28_">
				<use xlink:href="#SVGID_27_"  overflow="visible"/>
			</clipPath>
			<g clip-path="url(#SVGID_28_)">
				<circle fill="#FFFFFF" cx="283.6" cy="451.8" r="8.7"/>
				<g>
					<path fill="#D1D3D4" d="M290,451.8c-0.3,8.3-12.5,8.3-12.9,0c-0.1-3.6,3-6.3,6.5-6.5C287.2,445.2,289.9,448.4,290,451.8
						c0.1,2.9,4.6,2.9,4.5,0c-0.2-6.1-4.8-10.7-10.9-10.9c-6.1-0.2-10.7,5.1-10.9,10.9c-0.2,6.1,5.1,10.7,10.9,10.9
						c6.1,0.2,10.7-5.1,10.9-10.9C294.6,448.9,290.1,448.9,290,451.8z"/>
				</g>
			</g>
		</g>
		<g>
			<defs>
				<rect id="SVGID_29_" y="10" width="960" height="540"/>
			</defs>
			<clipPath id="SVGID_30_">
				<use xlink:href="#SVGID_29_"  overflow="visible"/>
			</clipPath>
			<g clip-path="url(#SVGID_30_)">
				<circle fill="#FFFFFF" cx="314.8" cy="418.1" r="8.7"/>
				<g>
					<path fill="#D1D3D4" d="M321.2,418.1c-0.3,8.3-12.5,8.3-12.9,0c-0.1-3.6,3-6.3,6.5-6.5C318.4,411.5,321.1,414.7,321.2,418.1
						c0.1,2.9,4.6,2.9,4.5,0c-0.2-6.1-4.8-10.7-10.9-10.9c-6.1-0.2-10.7,5.1-10.9,10.9c-0.2,6.1,5.1,10.7,10.9,10.9
						c6.1,0.2,10.7-5.1,10.9-10.9C325.8,415.2,321.3,415.2,321.2,418.1z"/>
				</g>
			</g>
		</g>
		<g>
			<defs>
				<rect id="SVGID_31_" y="10" width="960" height="540"/>
			</defs>
			<clipPath id="SVGID_32_">
				<use xlink:href="#SVGID_31_"  overflow="visible"/>
			</clipPath>
			<g clip-path="url(#SVGID_32_)">
				<circle fill="#FFFFFF" cx="569.9" cy="84.6" r="8.7"/>
				<g>
					<path fill="#D1D3D4" d="M576.3,84.6c-0.3,8.3-12.5,8.3-12.8,0c-0.2-3.6,3-6.3,6.5-6.4C573.5,78.1,576.2,81.2,576.3,84.6
						c0.1,2.9,4.6,2.9,4.5,0c-0.2-6.1-4.8-10.7-10.9-10.9c-6.1-0.2-10.7,5.2-10.9,10.9c-0.2,6.1,5.2,10.7,10.9,10.9
						c6.1,0.2,10.7-5.2,10.9-10.9C581,81.7,576.5,81.8,576.3,84.6z"/>
				</g>
			</g>
		</g>
		<g>
			<defs>
				<rect id="SVGID_33_" y="10" width="960" height="540"/>
			</defs>
			<clipPath id="SVGID_34_">
				<use xlink:href="#SVGID_33_"  overflow="visible"/>
			</clipPath>
			<g clip-path="url(#SVGID_34_)">
				<circle fill="#FFFFFF" cx="840" cy="120.2" r="8.7"/>
				<g>
					<path fill="#D1D3D4" d="M846.3,120.2c-0.3,8.3-12.5,8.3-12.8,0c-0.2-3.6,3-6.3,6.5-6.4C843.5,113.7,846.2,116.8,846.3,120.2
						c0.1,2.9,4.6,2.9,4.5,0c-0.2-6.1-4.8-10.7-10.9-10.9c-6.1-0.2-10.7,5.2-10.9,10.9c-0.2,6.1,5.2,10.7,10.9,10.9
						c6.1,0.2,10.7-5.1,10.9-10.9C851,117.3,846.5,117.3,846.3,120.2z"/>
				</g>
			</g>
		</g>
		<g>
			<defs>
				<rect id="SVGID_35_" y="10" width="960" height="540"/>
			</defs>
			<clipPath id="SVGID_36_">
				<use xlink:href="#SVGID_35_"  overflow="visible"/>
			</clipPath>
			<g clip-path="url(#SVGID_36_)">
				<circle fill="#FFFFFF" cx="840.5" cy="277.4" r="8.7"/>
				<g>
					<path fill="#D1D3D4" d="M846.8,277.4c-0.3,8.3-12.5,8.3-12.8,0c-0.2-3.6,3-6.3,6.5-6.5C844,270.9,846.8,274,846.8,277.4
						c0.1,2.9,4.6,2.9,4.5,0c-0.2-6.1-4.8-10.7-10.9-10.9c-6.1-0.2-10.7,5.1-10.9,10.9c-0.2,6.1,5.2,10.7,10.9,10.9
						c6.1,0.2,10.7-5.1,10.9-10.9C851.5,274.5,847,274.5,846.8,277.4z"/>
				</g>
			</g>
		</g>
		<g>
			<defs>
				<rect id="SVGID_37_" y="10" width="960" height="540"/>
			</defs>
			<clipPath id="SVGID_38_">
				<use xlink:href="#SVGID_37_"  overflow="visible"/>
			</clipPath>
			<g clip-path="url(#SVGID_38_)">
				<circle fill="#FFFFFF" cx="840.5" cy="380.1" r="8.7"/>
				<g>
					<path fill="#D1D3D4" d="M846.8,380.1c-0.3,8.3-12.5,8.3-12.8,0c-0.2-3.6,3-6.3,6.5-6.5C844,373.5,846.8,376.7,846.8,380.1
						c0.1,2.9,4.6,2.9,4.5,0c-0.2-6.1-4.8-10.7-10.9-10.9c-6.1-0.2-10.7,5.1-10.9,10.9c-0.2,6.1,5.2,10.7,10.9,10.9
						c6.1,0.2,10.7-5.1,10.9-10.9C851.5,377.2,847,377.2,846.8,380.1z"/>
				</g>
			</g>
		</g>
		<g>
			<defs>
				<rect id="SVGID_39_" y="10" width="960" height="540"/>
			</defs>
			<clipPath id="SVGID_40_">
				<use xlink:href="#SVGID_39_"  overflow="visible"/>
			</clipPath>
			<g clip-path="url(#SVGID_40_)">
				<circle fill="#FFFFFF" cx="752.3" cy="327.5" r="8.7"/>
				<g>
					<path fill="#D1D3D4" d="M758.8,327.5c-0.3,8.3-12.5,8.3-12.8,0c-0.2-3.6,3-6.3,6.5-6.5C756,320.9,758.7,324,758.8,327.5
						c0.1,2.9,4.6,2.9,4.5,0c-0.2-6.1-4.8-10.7-10.9-10.9c-6.1-0.2-10.7,5.1-10.9,10.9c-0.2,6.1,5.2,10.7,10.9,10.9
						c6.1,0.2,10.7-5.1,10.9-10.9C763.4,324.5,758.9,324.5,758.8,327.5z"/>
				</g>
			</g>
		</g>
		<g>
			<defs>
				<rect id="SVGID_41_" y="10" width="960" height="540"/>
			</defs>
			<clipPath id="SVGID_42_">
				<use xlink:href="#SVGID_41_"  overflow="visible"/>
			</clipPath>
			<g clip-path="url(#SVGID_42_)">
				<circle fill="#FFFFFF" cx="759" cy="451.5" r="8.7"/>
				<g>
					<path fill="#D1D3D4" d="M765.3,451.5c-0.3,8.3-12.5,8.3-12.8,0c-0.2-3.6,3-6.3,6.5-6.5C762.5,444.9,765.2,448,765.3,451.5
						c0.1,2.9,4.6,2.9,4.5,0c-0.2-6.1-4.8-10.7-10.9-10.9c-6.1-0.2-10.7,5.1-10.9,10.9c-0.2,6.1,5.2,10.7,10.9,10.9
						c6.1,0.2,10.7-5.1,10.9-10.9C770,448.5,765.5,448.5,765.3,451.5z"/>
				</g>
			</g>
		</g>
		<g>
			<defs>
				<rect id="SVGID_43_" y="10" width="960" height="540"/>
			</defs>
			<clipPath id="SVGID_44_">
				<use xlink:href="#SVGID_43_"  overflow="visible"/>
			</clipPath>
			<g clip-path="url(#SVGID_44_)">
				<circle fill="#FFFFFF" cx="633.2" cy="402.8" r="8.7"/>
				<g>
					<path fill="#D1D3D4" d="M639.5,402.8c-0.3,8.3-12.5,8.3-12.8,0c-0.2-3.6,3-6.3,6.5-6.5C636.8,396.2,639.5,399.4,639.5,402.8
						c0.1,2.9,4.6,2.9,4.5,0c-0.2-6.1-4.8-10.7-10.9-10.9c-6.1-0.2-10.7,5.1-10.9,10.9c-0.2,6.1,5.2,10.7,10.9,10.9
						c6.1,0.2,10.7-5.1,10.9-10.9C644.2,399.9,639.7,399.9,639.5,402.8z"/>
				</g>
			</g>
		</g>
		<g>
			<defs>
				<rect id="SVGID_45_" y="10" width="960" height="540"/>
			</defs>
			<clipPath id="SVGID_46_">
				<use xlink:href="#SVGID_45_"  overflow="visible"/>
			</clipPath>
			<g clip-path="url(#SVGID_46_)">
				<circle fill="#FFFFFF" cx="880.6" cy="50" r="8.7"/>
				<g>
					<path fill="#D1D3D4" d="M887,50c-0.3,8.3-12.5,8.3-12.8,0c-0.2-3.6,3-6.3,6.5-6.5C884.2,43.4,886.9,46.5,887,50
						c0.1,2.9,4.6,2.9,4.5,0c-0.2-6.1-4.8-10.7-10.9-10.9c-6.1-0.2-10.7,5.2-10.9,10.9c-0.2,6.1,5.2,10.7,10.9,10.9
						c6.1,0.2,10.7-5.2,10.9-10.9C891.7,47.1,887.2,47.1,887,50z"/>
				</g>
			</g>
		</g>
		<g>
			<defs>
				<rect id="SVGID_47_" y="10" width="960" height="540"/>
			</defs>
			<clipPath id="SVGID_48_">
				<use xlink:href="#SVGID_47_"  overflow="visible"/>
			</clipPath>
			<g opacity="0.3" clip-path="url(#SVGID_48_)">
				<text transform="matrix(1 0 0 1 443.6924 132.667)" font-family="'MyriadPro-Semibold'" font-size="13.4849">Melbourne </text>
				<text transform="matrix(1 0 0 1 443.6924 148.8672)" font-family="'MyriadPro-Semibold'" font-size="13.4849">Central</text>
			</g>
		</g>
		<g>
			<defs>
				<rect id="SVGID_49_" y="10" width="960" height="540"/>
			</defs>
			<clipPath id="SVGID_50_">
				<use xlink:href="#SVGID_49_"  overflow="visible"/>
			</clipPath>
			<g opacity="0.3" clip-path="url(#SVGID_50_)">
				<text transform="matrix(1 0 0 1 733.7764 120.25)" font-family="'MyriadPro-Semibold'" font-size="13.4849">Flinders Street</text>
			</g>
		</g>
		<g>
			<defs>
				<rect id="SVGID_51_" y="10" width="960" height="540"/>
			</defs>
			<clipPath id="SVGID_52_">
				<use xlink:href="#SVGID_51_"  overflow="visible"/>
			</clipPath>
			<g opacity="0.3" clip-path="url(#SVGID_52_)">
				<text transform="matrix(1 0 0 1 851.2402 294.748)" font-family="'MyriadPro-Semibold'" font-size="13.4849">South Yarra</text>
			</g>
		</g>
		<g>
			<defs>
				<rect id="SVGID_53_" y="10" width="960" height="540"/>
			</defs>
			<clipPath id="SVGID_54_">
				<use xlink:href="#SVGID_53_"  overflow="visible"/>
			</clipPath>
			<g opacity="0.3" clip-path="url(#SVGID_54_)">
				<text transform="matrix(1 0 0 1 871.9199 170.1147)" font-family="'MyriadPro-Semibold'" font-size="12.5859">Victoria Park</text>
			</g>
		</g>
		<g>
			<defs>
				<rect id="SVGID_55_" y="10" width="960" height="540"/>
			</defs>
			<clipPath id="SVGID_56_">
				<use xlink:href="#SVGID_55_"  overflow="visible"/>
			</clipPath>
			<g opacity="0.3" clip-path="url(#SVGID_56_)">
				<text transform="matrix(1 0 0 1 355.3809 380.2539)" font-family="'MyriadPro-Semibold'" font-size="11.6869">Eureka</text>
				<text transform="matrix(1 0 0 1 355.3809 391.9541)" font-family="'MyriadPro-Semibold'" font-size="11.6869">Skydeck</text>
			</g>
		</g>
		<g>
			<defs>
				<rect id="SVGID_57_" y="10" width="960" height="540"/>
			</defs>
			<clipPath id="SVGID_58_">
				<use xlink:href="#SVGID_57_"  overflow="visible"/>
			</clipPath>
			<g opacity="0.3" clip-path="url(#SVGID_58_)">
				<text transform="matrix(1 0 0 1 172.0508 344.0879)" font-family="'MyriadPro-Semibold'" font-size="11.6869">Melbourne</text>
				<text transform="matrix(1 0 0 1 172.0508 354.8887)" font-family="'MyriadPro-Semibold'" font-size="11.6869">Aquarium</text>
			</g>
		</g>
		<g>
			<defs>
				<rect id="SVGID_59_" y="10" width="960" height="540"/>
			</defs>
			<clipPath id="SVGID_60_">
				<use xlink:href="#SVGID_59_"  overflow="visible"/>
			</clipPath>
			<g opacity="0.3" clip-path="url(#SVGID_60_)">
				<text transform="matrix(1 0 0 1 220.2646 404.5869)" font-family="'MyriadPro-Semibold'" font-size="12.5859">Crown Entertainment</text>
				<text transform="matrix(1 0 0 1 220.2646 419.6875)" font-family="'MyriadPro-Semibold'" font-size="12.5859">Complex</text>
			</g>
		</g>
		<g>
			<defs>
				<rect id="SVGID_61_" y="10" width="960" height="540"/>
			</defs>
			<clipPath id="SVGID_62_">
				<use xlink:href="#SVGID_61_"  overflow="visible"/>
			</clipPath>
			<g opacity="0.3" clip-path="url(#SVGID_62_)">
				<text transform="matrix(1 0 0 1 55.4736 425.5918)" font-family="'MyriadPro-Semibold'" font-size="12.5859">Port</text>
				<text transform="matrix(1 0 0 1 18.5742 440.6914)" font-family="'MyriadPro-Semibold'" font-size="12.5859">Melbourne</text>
			</g>
		</g>
		<g>
			<defs>
				<rect id="SVGID_63_" y="10" width="960" height="540"/>
			</defs>
			<clipPath id="SVGID_64_">
				<use xlink:href="#SVGID_63_"  overflow="visible"/>
			</clipPath>
			<g opacity="0.3" clip-path="url(#SVGID_64_)">
				<text transform="matrix(1 0 0 1 287.6963 472.043)" font-family="'MyriadPro-Semibold'" font-size="12.5859">South Melbourne</text>
			</g>
		</g>
		<g>
			<defs>
				<rect id="SVGID_65_" y="10" width="960" height="540"/>
			</defs>
			<clipPath id="SVGID_66_">
				<use xlink:href="#SVGID_65_"  overflow="visible"/>
			</clipPath>
			<g opacity="0.3" clip-path="url(#SVGID_66_)">
				<text transform="matrix(1 0 0 1 132.1958 493.918)" font-family="'MyriadPro-Semibold'" font-size="12.5859">St</text>
				<text transform="matrix(1 0 0 1 132.1958 509.0176)" font-family="'MyriadPro-Semibold'" font-size="12.5859">Kilda</text>
			</g>
		</g>
		<g>
			<defs>
				<rect id="SVGID_67_" y="10" width="960" height="540"/>
			</defs>
			<clipPath id="SVGID_68_">
				<use xlink:href="#SVGID_67_"  overflow="visible"/>
			</clipPath>
			<g opacity="0.3" clip-path="url(#SVGID_68_)">
				<text transform="matrix(1 0 0 1 260.4165 63.9409)" font-family="'MyriadPro-Semibold'" font-size="12.5859">Harbour</text>
				<text transform="matrix(1 0 0 1 260.4165 75.6411)" font-family="'MyriadPro-Semibold'" font-size="12.5859">Town</text>
			</g>
		</g>
		<g>
			<defs>
				<rect id="SVGID_69_" y="10" width="960" height="540"/>
			</defs>
			<clipPath id="SVGID_70_">
				<use xlink:href="#SVGID_69_"  overflow="visible"/>
			</clipPath>
			<g opacity="0.3" clip-path="url(#SVGID_70_)">
				<text transform="matrix(1 0 0 1 17.085 177.6152)" font-family="'MyriadPro-Semibold'" font-size="12.5859">Docklands</text>
				<text transform="matrix(1 0 0 1 49.8848 192.7158)" font-family="'MyriadPro-Semibold'" font-size="12.5859">Park</text>
			</g>
		</g>
		<g>
			<defs>
				<rect id="SVGID_71_" y="10" width="960" height="540"/>
			</defs>
			<clipPath id="SVGID_72_">
				<use xlink:href="#SVGID_71_"  overflow="visible"/>
			</clipPath>
			<g opacity="0.3" clip-path="url(#SVGID_72_)">
				<text transform="matrix(1 0 0 1 767.6143 337.1406)" font-family="'MyriadPro-Semibold'" font-size="13.4849">Toorak</text>
			</g>
		</g>
		<g>
			<defs>
				<rect id="SVGID_73_" y="10" width="960" height="540"/>
			</defs>
			<clipPath id="SVGID_74_">
				<use xlink:href="#SVGID_73_"  overflow="visible"/>
			</clipPath>
			<g opacity="0.3" clip-path="url(#SVGID_74_)">
				<text transform="matrix(1 0 0 1 852.5498 387.6055)" font-family="'MyriadPro-Semibold'" font-size="13.4849">Malvern</text>
			</g>
		</g>
		<g>
			<defs>
				<rect id="SVGID_75_" y="10" width="960" height="540"/>
			</defs>
			<clipPath id="SVGID_76_">
				<use xlink:href="#SVGID_75_"  overflow="visible"/>
			</clipPath>
			<g opacity="0.3" clip-path="url(#SVGID_76_)">
				<text transform="matrix(1 0 0 1 558.46 416.2852)" font-family="'MyriadPro-Semibold'" font-size="13.4849">Melbourne</text>
				<text transform="matrix(1 0 0 1 596.6094 432.4844)" font-family="'MyriadPro-Semibold'" font-size="13.4849">Park</text>
			</g>
		</g>
		<g>
			<defs>
				<rect id="SVGID_77_" y="10" width="960" height="540"/>
			</defs>
			<clipPath id="SVGID_78_">
				<use xlink:href="#SVGID_77_"  overflow="visible"/>
			</clipPath>
			<g opacity="0.3" clip-path="url(#SVGID_78_)">
				<text transform="matrix(1 0 0 1 767.6152 435.9902)" font-family="'MyriadPro-Semibold'" font-size="13.4849">Caulfield</text>
			</g>
		</g>
		<g>
			<defs>
				<rect id="SVGID_79_" y="10" width="960" height="540"/>
			</defs>
			<clipPath id="SVGID_80_">
				<use xlink:href="#SVGID_79_"  overflow="visible"/>
			</clipPath>
			<g opacity="0.3" clip-path="url(#SVGID_80_)">
				<text transform="matrix(1 0 0 1 566.2461 477.4961)" font-family="'MyriadPro-Semibold'" font-size="12.5859">Glenhuntly</text>
			</g>
		</g>
		<g>
			<defs>
				<rect id="SVGID_81_" y="10" width="960" height="540"/>
			</defs>
			<clipPath id="SVGID_82_">
				<use xlink:href="#SVGID_81_"  overflow="visible"/>
			</clipPath>
			<g opacity="0.3" clip-path="url(#SVGID_82_)">
				<text transform="matrix(1 0 0 1 849.1152 470.5439)" font-family="'MyriadPro-Semibold'" font-size="13.4849">Monash</text>
				<text transform="matrix(1 0 0 1 849.1152 486.7441)" font-family="'MyriadPro-Semibold'" font-size="13.4849">University</text>
			</g>
		</g>
		<g>
			<defs>
				<rect id="SVGID_83_" y="10" width="960" height="540"/>
			</defs>
			<clipPath id="SVGID_84_">
				<use xlink:href="#SVGID_83_"  overflow="visible"/>
			</clipPath>
			<g opacity="0.3" clip-path="url(#SVGID_84_)">
				<text transform="matrix(1 0 0 1 852.5498 222.1104)" font-family="'MyriadPro-Semibold'" font-size="13.4849">Parliament</text>
			</g>
		</g>
		<g>
			<defs>
				<rect id="SVGID_85_" y="10" width="960" height="540"/>
			</defs>
			<clipPath id="SVGID_86_">
				<use xlink:href="#SVGID_85_"  overflow="visible"/>
			</clipPath>
			<g opacity="0.3" clip-path="url(#SVGID_86_)">
				<text transform="matrix(1 0 0 1 573.5195 55.644)" font-family="'MyriadPro-Semibold'" font-size="13.4849">North </text>
				<text transform="matrix(1 0 0 1 573.5195 71.8442)" font-family="'MyriadPro-Semibold'" font-size="13.4849">Melbourne</text>
			</g>
		</g>
		<g>
			<defs>
				<rect id="SVGID_87_" y="10" width="960" height="540"/>
			</defs>
			<clipPath id="SVGID_88_">
				<use xlink:href="#SVGID_87_"  overflow="visible"/>
			</clipPath>
			<g opacity="0.3" clip-path="url(#SVGID_88_)">
				<text transform="matrix(1 0 0 1 799.4512 54.7451)" font-family="'MyriadPro-Semibold'" font-size="13.4849">Richmound</text>
			</g>
		</g>
		<g>
			<defs>
				<rect id="SVGID_89_" y="10" width="960" height="540"/>
			</defs>
			<clipPath id="SVGID_90_">
				<use xlink:href="#SVGID_89_"  overflow="visible"/>
			</clipPath>
			<g opacity="0.3" clip-path="url(#SVGID_90_)">
				<text transform="matrix(1 0 0 1 233.5264 133.9639)" font-family="'MyriadPro-Semibold'" font-size="13.4849">Southern Cross</text>
			</g>
		</g>
		<g>
			<defs>
				<rect id="SVGID_91_" y="10" width="960" height="540"/>
			</defs>
			<clipPath id="SVGID_92_">
				<use xlink:href="#SVGID_91_"  overflow="visible"/>
			</clipPath>
			<g opacity="0.3" clip-path="url(#SVGID_92_)">
				<text transform="matrix(0 1 -1 0 64.1807 268.9102)" font-family="'MyriadPro-Semibold'" font-size="13.4849">Harbour Esplanade</text>
			</g>
		</g>
		<g>
			<defs>
				<rect id="SVGID_93_" y="10" width="960" height="540"/>
			</defs>
			<clipPath id="SVGID_94_">
				<use xlink:href="#SVGID_93_"  overflow="visible"/>
			</clipPath>
			
				<line clip-path="url(#SVGID_94_)" fill="none" stroke="#D1D3D4" stroke-width="5.394" stroke-miterlimit="10" x1="840.5" y1="218.4" x2="849.1" y2="218.4"/>
		</g>
		<g>
			<defs>
				<rect id="SVGID_95_" y="10" width="960" height="540"/>
			</defs>
			<clipPath id="SVGID_96_">
				<use xlink:href="#SVGID_95_"  overflow="visible"/>
			</clipPath>
			
				<line clip-path="url(#SVGID_96_)" fill="none" stroke="#D1D3D4" stroke-width="5.394" stroke-miterlimit="10" x1="593.9" y1="464.8" x2="593.9" y2="456.1"/>
		</g>
		<g>
			<defs>
				<rect id="SVGID_97_" y="10" width="960" height="540"/>
			</defs>
			<clipPath id="SVGID_98_">
				<use xlink:href="#SVGID_97_"  overflow="visible"/>
			</clipPath>
			
				<line clip-path="url(#SVGID_98_)" fill="none" stroke="#D1D3D4" stroke-width="5.394" stroke-miterlimit="10" x1="248.9" y1="72.7" x2="255.1" y2="66.6"/>
		</g>
		<g>
			<defs>
				<rect id="SVGID_99_" y="10" width="960" height="540"/>
			</defs>
			<clipPath id="SVGID_100_">
				<use xlink:href="#SVGID_99_"  overflow="visible"/>
			</clipPath>
			
				<line clip-path="url(#SVGID_100_)" fill="none" stroke="#D1D3D4" stroke-width="5.394" stroke-miterlimit="10" x1="84.2" y1="181.6" x2="75.4" y2="181.6"/>
		</g>
		<g>
			<defs>
				<rect id="SVGID_101_" y="10" width="960" height="540"/>
			</defs>
			<clipPath id="SVGID_102_">
				<use xlink:href="#SVGID_101_"  overflow="visible"/>
			</clipPath>
			
				<line clip-path="url(#SVGID_102_)" fill="none" stroke="#D1D3D4" stroke-width="5.394" stroke-miterlimit="10" x1="354.5" y1="383.3" x2="345.8" y2="383.3"/>
		</g>
		<g>
			<defs>
				<rect id="SVGID_103_" y="10" width="960" height="540"/>
			</defs>
			<clipPath id="SVGID_104_">
				<use xlink:href="#SVGID_103_"  overflow="visible"/>
			</clipPath>
			
				<line clip-path="url(#SVGID_104_)" fill="none" stroke="#D1D3D4" stroke-width="5.394" stroke-miterlimit="10" x1="198.6" y1="328.5" x2="198.6" y2="334.9"/>
		</g>
		<g>
			<defs>
				<rect id="SVGID_105_" y="10" width="960" height="540"/>
			</defs>
			<clipPath id="SVGID_106_">
				<use xlink:href="#SVGID_105_"  overflow="visible"/>
			</clipPath>
			<rect y="10" clip-path="url(#SVGID_106_)" fill="none" width="960" height="540"/>
		</g>
	</g>
</g>
<g>
	<g>
		<g id="Layer_3">
			<g>
				<path fill="#FFFFFF" d="M156.3,251.6c-0.1-4.9-5.4-8.8-12.1-8.8c-0.6,0-1.2,0.1-1.9,0.1H9.2c-0.1,0-0.2,0-0.3,0
					c-6.6,0-11.9,3.9-11.9,8.9c0,4.9,5.3,8.8,11.8,8.8v0h114.8c5.2,0.4,9.2,3.7,9.2,7.6v68.2c0,4.8,5.2,8.7,11.7,8.7
					s11.7-3.9,11.7-8.7V251.6L156.3,251.6z"/>
				<g>
					<g>
						<defs>
							<rect id="SVGID_107_" x="132.9" y="332" width="178.1" height="89"/>
						</defs>
						<clipPath id="SVGID_108_">
							<use xlink:href="#SVGID_107_"  overflow="visible"/>
						</clipPath>
						<path clip-path="url(#SVGID_108_)" fill="#FFFFFF" d="M221.9,264.5c-49.2,0-89.1,18.3-89.1,67.5c0,49.1,39.9,89,89.1,89
							c49.2,0,89.1-39.9,89.1-89C311,282.9,271.1,264.5,221.9,264.5z M221.9,397.6c-36.2,0-65.6-29.4-65.6-65.6s29.4-44,65.6-44
							s65.6,7.8,65.6,44C287.5,368.3,258.2,397.6,221.9,397.6z"/>
					</g>
				</g>
				<path fill="#FFFFFF" d="M287.6,232.3v102.1h0.2c1,5.4,5.8,9.4,11.5,9.4c5.6,0,10.4-4,11.5-9.4h0.2V232.3H287.6z"/>
				<g>
					<g>
						<defs>
							<rect id="SVGID_109_" x="287.5" y="138.1" width="191.1" height="95.6"/>
						</defs>
						<clipPath id="SVGID_110_">
							<use xlink:href="#SVGID_109_"  overflow="visible"/>
						</clipPath>
						<path clip-path="url(#SVGID_110_)" fill="#FFFFFF" d="M383,138.1c-52.8,0-95.5,42.8-95.5,95.6s42.8,95.6,95.5,95.6
							s95.5-42.8,95.5-95.6S435.9,138.1,383,138.1z M383,305.7c-39.9,0-72.1-32.3-72.1-72.1s32.3-72.1,72.1-72.1
							s72.1,32.3,72.1,72.1S422.9,305.7,383,305.7z"/>
					</g>
				</g>
				<rect x="455.2" y="233.6" fill="#FFFFFF" width="23.5" height="164.5"/>
				<g>
					<g>
						<defs>
							<rect id="SVGID_111_" x="455.2" y="397.9" width="93.8" height="47"/>
						</defs>
						<clipPath id="SVGID_112_">
							<use xlink:href="#SVGID_111_"  overflow="visible"/>
						</clipPath>
						<path clip-path="url(#SVGID_112_)" fill="#FFFFFF" d="M502.2,351c-25.9,0-47,21-47,47c0,25.9,21,47,47,47c25.9,0,47-21,47-47
							C549.1,372,528.1,351,502.2,351z M502.2,421.4c-13,0-23.5-10.5-23.5-23.5c0-13,10.5-23.5,23.5-23.5c13,0,23.5,10.5,23.5,23.5
							S515.2,421.4,502.2,421.4z"/>
					</g>
				</g>
			</g>
			<g>
				<g>
					<defs>
						<rect id="SVGID_113_" x="693.3" y="321.2" width="178" height="89"/>
					</defs>
					<clipPath id="SVGID_114_">
						<use xlink:href="#SVGID_113_"  overflow="visible"/>
					</clipPath>
					<path clip-path="url(#SVGID_114_)" fill="#FFFFFF" d="M693.3,321.2c0,49.1,39.8,89,89,89c49.2,0,89-39.9,89-89
						c0-49.1-39.8-89.1-89-89.1C733.2,232.2,693.3,272,693.3,321.2z M716.8,321.2c0-36.2,29.3-65.6,65.6-65.6s65.6,29.4,65.6,65.6
						s-29.3,65.6-65.6,65.6C746.2,386.8,716.8,357.5,716.8,321.2z"/>
				</g>
			</g>
			<path fill="#FFFFFF" d="M716.7,232.1v90.6h-0.2c-1,5.4-5.8,9.4-11.5,9.4s-10.4-4-11.5-9.4h-0.2v-90.6H716.7z"/>
			<g>
				<g>
					<defs>
						<rect id="SVGID_115_" x="525.7" y="137.9" width="191.2" height="95.5"/>
					</defs>
					<clipPath id="SVGID_116_">
						<use xlink:href="#SVGID_115_"  overflow="visible"/>
					</clipPath>
					<path clip-path="url(#SVGID_116_)" fill="#FFFFFF" d="M525.7,233.4c0,52.8,42.8,95.6,95.5,95.6c52.8,0,95.5-42.8,95.5-95.6
						s-42.8-95.6-95.5-95.6S525.7,180.6,525.7,233.4z M549.2,233.4c0-39.9,32.3-72.1,72.1-72.1c39.8,0,72.1,32.3,72.1,72.1
						s-32.3,72.1-72.1,72.1C581.4,305.5,549.2,273.2,549.2,233.4z"/>
				</g>
			</g>
			<rect x="525.7" y="233.4" fill="#FFFFFF" width="23.5" height="164.5"/>
			<g id="new_logo_3_">
				<g>
					<defs>
						<rect id="SVGID_117_" x="847.8" y="223.8" width="94.1" height="97.6"/>
					</defs>
					<clipPath id="SVGID_118_">
						<use xlink:href="#SVGID_117_"  overflow="visible"/>
					</clipPath>
					<g clip-path="url(#SVGID_118_)">
						<g>
							<defs>
								<rect id="SVGID_119_" x="847.8" y="227.3" width="94.1" height="188.2"/>
							</defs>
							<clipPath id="SVGID_120_">
								<use xlink:href="#SVGID_119_"  overflow="visible"/>
							</clipPath>
							<path clip-path="url(#SVGID_120_)" fill="#FFFFFF" d="M942,227.3c-52,0-94.1,42.2-94.1,94.1s42.1,94.1,94.1,94.1
								s94.1-42.1,94.1-94.1S994,227.3,942,227.3z M942,392c-39,0-70.6-31.6-70.6-70.6s31.6-70.6,70.6-70.6s70.6,31.6,70.6,70.6
								S981,392,942,392z"/>
						</g>
					</g>
					<path clip-path="url(#SVGID_118_)" fill="#FFFFFF" d="M959,239.1c0-6.4-5.2-11.6-11.5-11.7v-0.1H942v23.4h5.5v-0.1
						C953.9,250.6,959,245.4,959,239.1z"/>
				</g>
				<path opacity="0.7" fill="#FFCF01" enable-background="new    " d="M862.9,238.2h-95.5v-13.1c0-11.3-2.2-21.9-6.6-31.9
					c-4.4-10-10.3-18.7-17.9-26.1c-7.5-7.4-16.2-13.2-26.2-17.5s-20.3-6.4-31.3-6.4c-11,0-21.5,2.1-31.3,6.4
					c-9.9,4.3-18.6,10.1-26.2,17.5c-7.5,7.4-13.5,16.1-17.9,26.1l30.2,12.9c2.6-5.9,6.2-11.1,10.6-15.6c4.5-4.4,9.7-8,15.6-10.6
					c6-2.6,12.3-3.9,19-3.9s13,1.3,19,3.9c6,2.6,11.2,6.1,15.6,10.6c4.5,4.4,8,9.6,10.6,15.6c2.6,5.9,4,12.3,4,19v23.6l0,0
					c0,0.1,0,0.1,0,0.1c0,9.1,7.3,16.4,16.4,16.4l111.9,0.1v-0.1c7.5,0,13.5-6.1,13.5-13.6C876.5,244.3,870.4,238.2,862.9,238.2z"/>
				<g>
					<path fill="#2B398E" d="M408.8,259V121.8c0-2.9,1-5.3,2.9-7.3c2-2,4.4-3,7.4-3s5.4,1,7.4,3s2.9,4.4,2.9,7.3v126.8h26.4
						c2.9,0,5.2,1,7.2,3s3,4.4,3,7.4c0,2.9-1,5.2-3,7.2s-4.4,3-7.2,3h-36.7c-2.9,0-5.2-1-7.2-3C409.8,264.2,408.8,261.8,408.8,259z"
						/>
				</g>
				<path opacity="0.5" fill="#2B398E" enable-background="new    " d="M613.6,347.5v-97.9h-18v97.9c0,10.3-5.2,20.5-13.7,27.1
					c-15.2,10.7-29.3,5.8-35,3.2C526.9,367,528,347.5,528,347.5v-53c0-0.4,0-0.8,0-1.1c0-5-4-9.1-9.1-9.1H363.2l0,0
					c-3.6,0.1-6.5,3-6.5,6.7c0,3.6,3,6.6,6.5,6.7v0.1H510v49.7c0,16.9,8.4,35.3,27.8,46c20.4,11,44.3,5.7,58.5-7.5
					C615.3,368.4,613.6,347.5,613.6,347.5z"/>
				<path opacity="0.4" fill="#B6407B" enable-background="new    " d="M422.1,92c-11.6,0-21.8,6.2-27.5,15.4
					c-18,0.1-63.6,0.2-66.2,0.2c-4.2,0.4-39.4-4.6-38.5,41.1v90.9h-171l0,0l0,0c-8.5,0-15.4,6.9-15.4,15.4s6.9,15.4,15.4,15.4l0,0
					l0,0h186.8v0c8.4-0.1,15.2-7,15.2-15.5V148.6c0,0-1.4-8.6,12.4-9.2c7.1,0,35,0,60.3,0c5.4,10.1,16.1,17.1,28.5,17.1
					c17.8,0,32.2-14.4,32.2-32.2S440,92,422.1,92z"/>
				<g>
					<path fill="#FFCF01" d="M380.9,265c2.9,0,5.2,1,7,2.8c1.9,1.9,2.8,4.2,2.8,7c0,2.8-1,5.1-2.9,7.1c-9.8,8.6-21.4,12.9-34.8,12.9
						c-14.7,0-27.2-5.2-37.5-15.5c-10.4-10.4-15.5-22.9-15.5-37.6c0-14.6,5.2-27.2,15.5-37.6c10.4-10.4,22.9-15.6,37.5-15.6
						c14.5,0,27,5.2,37.5,15.6c5.2,5.1,9.1,10.9,11.6,17.1c2.6,6.3,3.9,13.1,3.9,20.4c0,2.9-1,5.2-2.9,7.1c-2,1.9-4.3,2.8-7,2.8
						h-75.1c1,3.5,2.6,6.7,4.8,9.6s4.5,5.4,7.4,7.4c2.8,2,5.9,3.6,9.3,4.8s6.9,1.7,10.6,1.7c4.1,0,8-0.6,11.5-1.9s6.7-3.1,9.7-5.7
						C376.2,265.9,378.4,265,380.9,265z M385.1,231.9c-1.1-3.5-2.6-6.6-4.8-9.6s-4.6-5.4-7.4-7.4c-2.8-2.1-5.9-3.6-9.3-4.8
						c-3.4-1.1-6.9-1.7-10.5-1.7s-7.1,0.6-10.5,1.7c-3.4,1.1-6.5,2.8-9.4,4.8s-5.3,4.5-7.4,7.4s-3.6,6.1-4.6,9.6H385.1z"/>
				</g>
				<path fill="#0D8450" d="M296.5,154.9c-2.4-5.4-5.5-10.1-9.5-14.1s-8.7-7.2-14.1-9.6s-11.1-3.6-17.1-3.6
					c-13.4,0-24.7,5.2-33.9,15.8c-9.2-10.6-20.5-15.8-33.9-15.8c-6.1,0-11.8,1.2-17.1,3.6s-10.1,5.6-14.1,9.6s-7.2,8.7-9.6,14.1
					c-2.4,5.4-3.6,11.1-3.6,17.1v56.6c0,2.9,1,5.4,3.1,7.4c2,2,4.4,3.1,7.3,3.1c2.9,0,5.4-1,7.4-3.1c2-2,3-4.5,3-7.4v-56.6
					c0-3.2,0.6-6.2,1.9-9.1s2.9-5.4,5-7.5s4.6-3.9,7.5-5.1s6-1.9,9.3-1.9c3.2,0,6.3,0.6,9.1,1.9c2.9,1.2,5.4,2.9,7.5,5.1
					s3.9,4.6,5.1,7.4c0.1,0.4,0.3,0.8,0.4,1.1l0,0h23.5l0,0c0.1-0.4,0.3-0.8,0.4-1.1c1.2-2.9,2.9-5.4,5.1-7.4
					c2.1-2.1,4.6-3.8,7.5-5.1s5.9-1.9,9.1-1.9c3.3,0,6.4,0.6,9.3,1.9s5.4,2.9,7.5,5.1c2.1,2.1,3.8,4.6,5,7.5
					c1.2,2.9,1.9,5.9,1.9,9.1v56.6c0,2.9,1,5.4,3,7.4s4.5,3.1,7.4,3.1c2.9,0,5.3-1,7.3-3.1c2-2,3-4.5,3-7.4v-56.6
					C300,166.1,298.9,160.4,296.5,154.9z"/>
				<path opacity="0.8" fill="#0D8450" enable-background="new    " d="M210.1,162.9v130.6c0,0,0,0.1,0,0.1
					c0,6.5,5.2,11.8,11.8,11.8s11.8-5.2,11.8-11.8V162.9H210.1z"/>
				<path opacity="0.23" fill="#0D8450" enable-background="new    " d="M821.5,370.5V342c0-9.8-7.9-17.6-17.7-17.6
					c-0.2,0-0.5,0-0.7,0v0H350.5c-0.4,0-0.7,0-1,0c-9.5,0-17.2,7.7-17.2,17.2s7.7,17.2,17.2,17.2c1.3,0,2.5-0.1,3.8-0.5h433v11.2
					c-10.3,5.9-17.3,17-17.3,29.8c0,18.9,15.3,34.2,34.2,34.2s34.2-15.4,34.2-34.2C837.3,387.2,831,376.5,821.5,370.5z"/>
				<g opacity="0.7" enable-background="new    ">
					<g>
						<defs>
							<polygon id="SVGID_121_" points="560.9,144.8 560.9,317 530.8,317 530.8,77.6 665.1,77.6 665.1,144.8 							"/>
						</defs>
						<clipPath id="SVGID_122_">
							<use xlink:href="#SVGID_121_"  overflow="visible"/>
						</clipPath>
						<path opacity="0.9" clip-path="url(#SVGID_122_)" fill="#F16A25" enable-background="new    " d="M598,77.6
							c-37.1,0-67.2,30-67.2,67.2v157.1c0,8.3,6.8,15,15,15s15-6.8,15-15V200.8c10.6,7.1,23.3,11.1,37,11.1
							c37.1,0,67.2-30.1,67.2-67.1C665.1,107.7,635,77.6,598,77.6z M598,181.8c-20.5,0-37-16.6-37-37s16.6-37,37-37s37,16.6,37,37
							S618.4,181.8,598,181.8z"/>
					</g>
				</g>
				<circle opacity="0.7" fill="#F16A25" enable-background="new    " cx="650.2" cy="144.8" r="29"/>
				<path opacity="0.3" fill="#2DB24B" enable-background="new    " d="M419,98.1c-6.8,0-12.4,5.6-12.4,12.3v151
					c0,6.8,5.5,12.4,12.4,12.4c6.8,0,12.4-5.5,12.4-12.4v-151C431.4,103.6,425.8,98.1,419,98.1z"/>
				<g>
					<g>
						<defs>
							<rect id="SVGID_123_" x="300" y="188.3" width="53.1" height="111.4"/>
						</defs>
						<clipPath id="SVGID_124_">
							<use xlink:href="#SVGID_123_"  overflow="visible"/>
						</clipPath>
						<path opacity="0.3" clip-path="url(#SVGID_124_)" fill="#F16A25" enable-background="new    " d="M353.2,188.2
							c-29.5,0-53.5,23.9-53.5,53.5s24,53.5,53.5,53.5s53.5-24,53.5-53.5C406.6,212.2,382.7,188.2,353.2,188.2z M353.2,275.1
							c-18.4,0-33.4-14.9-33.4-33.4c0-18.4,15-33.4,33.4-33.4s33.4,14.9,33.4,33.4C386.5,260.1,371.6,275.1,353.2,275.1z"/>
					</g>
				</g>
				<path opacity="0.7" fill="#FFCF01" enable-background="new    " d="M221.8,253.6c-10.8,0-20.1,5.9-25.1,14.7h-47.2V186
					c0-0.3,0.1-0.6,0.1-0.9c0-7.1-5.8-12.9-12.9-12.9s-12.9,5.8-12.9,12.9v99.3c0,7.1,5.8,13,12.9,13h60.6
					c5.1,8.4,14.2,13.9,24.6,13.9c15.9,0,28.8-12.9,28.8-28.8C250.6,266.5,237.6,253.6,221.8,253.6z"/>
				<path opacity="0.3" fill="#F16A25" enable-background="new    " d="M388.6,332.7L388.6,332.7l-84.9,0V166.9
					c0-13.7-11.1-24.9-24.9-24.9c-13.7,0-24.9,11.1-24.9,24.9V348c0,13.7,11.1,24.9,24.9,24.9h106.8c0.8,0.1,1.6,0.1,2.5,0.1
					c11.1,0,20.1-9,20.1-20.1C408.4,341.9,399.5,333,388.6,332.7z"/>
				<g>
					<path fill="#F16A25" d="M712.3,250c2.7,0,5,0.9,6.8,2.6c1.8,1.8,2.7,4,2.7,6.8c0,2.6-0.9,4.9-2.7,6.8
						c-9.3,8.2-20.3,12.3-33.1,12.3c-14,0-25.9-5-35.8-14.8c-9.9-9.9-14.8-21.8-14.8-35.8s5-25.9,14.8-35.8
						c9.9-9.9,21.8-14.8,35.8-14.8c13.8,0,25.8,4.9,35.8,14.8c5,4.9,8.7,10.3,11.1,16.3c2.5,6,3.7,12.5,3.7,19.5
						c0,2.7-0.9,4.9-2.8,6.8s-4.1,2.6-6.8,2.6h-71.5c1,3.3,2.5,6.4,4.5,9.1c2,2.8,4.3,5.1,7,7.1s5.7,3.5,8.8,4.6s6.6,1.6,10.1,1.6
						c4,0,7.6-0.6,11-1.8c3.3-1.2,6.4-3,9.2-5.4C707.9,250.9,710,250.1,712.3,250z M716.4,218.4c-1-3.3-2.5-6.4-4.5-9.1
						s-4.3-5.1-7-7.1s-5.7-3.5-8.8-4.6c-3.2-1.1-6.5-1.6-10-1.6s-6.8,0.6-10,1.6s-6.2,2.6-9,4.6s-5,4.3-7,7.1s-3.5,5.8-4.5,9.1
						H716.4z"/>
				</g>
				<g opacity="0.6">
					<path opacity="0.9" fill="#FFF200" enable-background="new    " d="M636.1,237.1c-0.5-2.9-0.8-6.1-0.8-9.2
						c0-14,5-25.9,14.8-35.8c9.9-9.9,21.8-14.8,35.8-14.8c13.8,0,25.8,4.9,35.8,14.8c5,4.9,8.7,10.3,11.1,16.3
						c2.5,6,3.7,12.5,3.7,19.5c0,2.7-0.9,4.9-2.8,6.8s-4.1,2.6-6.8,2.6h-71.5L636.1,237.1z M716.4,218.4c-1-3.3-2.5-6.4-4.5-9.1
						s-4.3-5.1-7-7.1s-5.7-3.5-8.8-4.6c-3.2-1.1-6.5-1.6-10-1.6s-6.8,0.6-10,1.6s-6.2,2.6-9,4.6s-5,4.3-7,7.1s-3.5,5.8-4.5,9.1
						H716.4z"/>
				</g>
				<path fill="#B6407B" d="M598.8,152.6C598.7,152.6,598.7,152.6,598.8,152.6L598.8,152.6c-0.1-0.1-11.4-0.3-19.1-0.2
					c-0.1,0-0.2,0-0.3,0c-1.1,0-2.2,0.1-3.2,0.1c-1.1,0.1-2,0.1-2.6,0.1l0,0c-25.2,1.9-37.9,16.4-37.9,43.6v4.7h-4.3h-90.4
					c0,0-0.1,0-0.1,0c-5.2,0-9.5,4.2-9.5,9.4c0,5.2,4.2,9.4,9.5,9.4v0.1h90.5h4.3v67.8c0,1.2,0.2,2.5,0.7,3.6c0.5,1.1,1.2,2.1,2,3
					c0.8,0.9,1.8,1.5,3,2s2.4,0.7,3.7,0.7s2.5-0.2,3.7-0.7c1.2-0.5,2.2-1.1,3-2c0.8-0.9,1.5-1.9,2-3s0.7-2.4,0.7-3.6v-67.9h18.2
					c2.6,0,4.8-0.9,6.7-2.8c1.8-1.9,2.8-4.1,2.8-6.8c0-2.6-0.9-4.8-2.8-6.6c-1.8-1.9-4-2.8-6.7-2.8h-18.2v-4.7
					c0-14.5,6.3-22.6,19.1-24.4c0,0,20.7-1.4,24.5-0.3l0.7,0.1c0,0,0,0,0.1,0c5.2,0,9.4-4.2,9.4-9.4
					C608.1,156.8,603.9,152.6,598.8,152.6z"/>
				<g>
					<path fill="#F16A25" d="M506.4,195.6c0,3.1-1.1,5.7-3.2,7.9s-4.8,3.2-7.9,3.2c-3,0-5.7-1.1-7.9-3.2s-3.2-4.8-3.2-7.9
						s1.1-5.7,3.2-7.9c2.1-2.1,4.8-3.2,7.9-3.2c3,0,5.7,1.1,7.9,3.2S506.4,192.5,506.4,195.6z M485.9,305.3v-82.2
						c0-2.6,0.9-4.9,2.8-6.8s4-2.8,6.6-2.8s4.8,0.9,6.6,2.8s2.8,4.1,2.9,6.8v82.2c0,2.6-1,4.9-2.9,6.8s-4,2.8-6.6,2.8
						s-4.8-0.9-6.6-2.8C486.8,310.2,485.9,308,485.9,305.3z"/>
				</g>
				<path opacity="0.5" fill="#FFCF01" enable-background="new    " d="M525.8,194.3L525.8,194.3l-83.9-0.1v0.1
					c-7.9,0-14.2,6.4-14.2,14.2c0,7.9,6.4,14.2,14.2,14.2v0.1h83.9v-0.1c7.8,0,14.2-6.4,14.2-14.2
					C540,200.6,533.6,194.3,525.8,194.3z"/>
				<g opacity="0.8">
					<polyline fill="none" stroke="#FFFFFF" stroke-width="2.2854" stroke-miterlimit="10" points="412,332.7 419,342 412,351.4 
											"/>
					<polyline fill="none" stroke="#FFFFFF" stroke-width="2.2854" stroke-miterlimit="10" points="424.4,332.7 431.4,342 
						424.4,351.4 					"/>
					<polyline fill="none" stroke="#FFFFFF" stroke-width="2.2854" stroke-miterlimit="10" points="437.3,332.7 444.3,342 
						437.3,351.4 					"/>
				</g>
				<g opacity="0.8">
					<polyline fill="none" stroke="#FFFFFF" stroke-width="2.2854" stroke-miterlimit="10" points="426.5,286.9 429.8,291.4 
						426.5,295.8 					"/>
					<polyline fill="none" stroke="#FFFFFF" stroke-width="2.2854" stroke-miterlimit="10" points="432.4,286.9 435.6,291.4 
						432.4,295.8 					"/>
					<polyline fill="none" stroke="#FFFFFF" stroke-width="2.2854" stroke-miterlimit="10" points="438.5,286.9 441.9,291.4 
						438.5,295.8 					"/>
				</g>
				<g opacity="0.8">
					<polyline fill="none" stroke="#FFFFFF" stroke-width="2.2854" stroke-miterlimit="10" points="558.5,385.5 561.8,389.9 
						558.5,394.4 					"/>
					<polyline fill="none" stroke="#FFFFFF" stroke-width="2.2854" stroke-miterlimit="10" points="564.3,385.5 567.7,389.9 
						564.3,394.4 					"/>
					<polyline fill="none" stroke="#FFFFFF" stroke-width="2.2854" stroke-miterlimit="10" points="570.5,385.5 573.8,389.9 
						570.5,394.4 					"/>
				</g>
				<g opacity="0.8">
					<polyline fill="none" stroke="#FFFFFF" stroke-width="2.2854" stroke-miterlimit="10" points="605,321.9 609.5,318.5 
						613.9,321.9 					"/>
					<polyline fill="none" stroke="#FFFFFF" stroke-width="2.2854" stroke-miterlimit="10" points="605,316 609.5,312.6 613.9,316 
											"/>
					<polyline fill="none" stroke="#FFFFFF" stroke-width="2.2854" stroke-miterlimit="10" points="605,309.8 609.5,306.5 
						613.9,309.8 					"/>
				</g>
				<g opacity="0.8">
					<polyline fill="none" stroke="#FFFFFF" stroke-width="2.2854" stroke-miterlimit="10" points="159.3,245.3 166.3,254.6 
						159.3,264 					"/>
					<polyline fill="none" stroke="#FFFFFF" stroke-width="2.2854" stroke-miterlimit="10" points="171.6,245.3 178.6,254.6 
						171.6,264 					"/>
					<polyline fill="none" stroke="#FFFFFF" stroke-width="2.2854" stroke-miterlimit="10" points="184.6,245.3 191.6,254.6 
						184.6,264 					"/>
				</g>
				<g>
					<polyline fill="none" stroke="#FFFFFF" stroke-width="2.2854" stroke-miterlimit="10" points="146.4,227.8 137,234.8 
						127.7,227.8 					"/>
					<polyline fill="none" stroke="#FFFFFF" stroke-width="2.2854" stroke-miterlimit="10" points="146.4,240.1 137,247.1 
						127.7,240.1 					"/>
					<polyline fill="none" stroke="#FFFFFF" stroke-width="2.2854" stroke-miterlimit="10" points="146.4,253.1 137,260.1 
						127.7,253.1 					"/>
				</g>
				<g opacity="0.8">
					<polyline fill="none" stroke="#FFFFFF" stroke-width="2.2854" stroke-miterlimit="10" points="332.1,113.8 339.1,123.2 
						332.1,132.5 					"/>
					<polyline fill="none" stroke="#FFFFFF" stroke-width="2.2854" stroke-miterlimit="10" points="344.5,113.8 351.5,123.2 
						344.5,132.5 					"/>
					<polyline fill="none" stroke="#FFFFFF" stroke-width="2.2854" stroke-miterlimit="10" points="357.5,113.8 364.4,123.2 
						357.5,132.5 					"/>
				</g>
				<g opacity="0.8">
					<polyline fill="none" stroke="#FFFFFF" stroke-width="2.2854" stroke-miterlimit="10" points="300,197.3 309.4,190.3 
						318.7,197.3 					"/>
					<polyline fill="none" stroke="#FFFFFF" stroke-width="2.2854" stroke-miterlimit="10" points="300,184.9 309.4,177.9 
						318.7,184.9 					"/>
					<polyline fill="none" stroke="#FFFFFF" stroke-width="2.2854" stroke-miterlimit="10" points="300,172 309.4,165 318.7,172 
											"/>
				</g>
				<g opacity="0.8">
					<polyline fill="none" stroke="#FFFFFF" stroke-width="2.2854" stroke-miterlimit="10" points="696.1,332.7 703,342 
						696.1,351.4 					"/>
					<polyline fill="none" stroke="#FFFFFF" stroke-width="2.2854" stroke-miterlimit="10" points="708.4,332.7 715.4,342 
						708.4,351.4 					"/>
					<polyline fill="none" stroke="#FFFFFF" stroke-width="2.2854" stroke-miterlimit="10" points="721.4,332.7 728.3,342 
						721.4,351.4 					"/>
				</g>
				<g opacity="0.8">
					<polyline fill="none" stroke="#FFFFFF" stroke-width="2.2854" stroke-miterlimit="10" points="549,110.8 560.7,112.1 
						562.8,123.4 					"/>
					<polyline fill="none" stroke="#FFFFFF" stroke-width="2.2854" stroke-miterlimit="10" points="557.4,101.8 569,102.9 
						571.1,114.4 					"/>
					<polyline fill="none" stroke="#FFFFFF" stroke-width="2.2854" stroke-miterlimit="10" points="566.2,92.2 577.8,93.4 
						579.9,104.8 					"/>
				</g>
				<circle opacity="0.5" fill="#2B398E" enable-background="new    " cx="605.2" cy="220.6" r="31.8"/>
				<g id="entertainment_3_">
					<circle fill="#B6407B" cx="422.5" cy="124.5" r="27.2"/>
					<g>
						<path fill="#FFFFFF" d="M404.9,131.1c0,3.4,1.9,6.4,4.6,8l-0.5-15.7C406.5,125.1,404.9,127.9,404.9,131.1z"/>
						<path fill="#FFFFFF" d="M414.1,121.8c-1.5,0-2.8,0.3-4,0.9l0.3,16.9c1.1,0.5,2.4,0.8,3.8,0.8c0.8,0,1.5-0.1,2.2-0.2l-0.4-18.1
							C415.5,121.9,414.8,121.8,414.1,121.8z"/>
						<path fill="#FFFFFF" d="M438.8,123.4l-0.5,15.7c2.8-1.6,4.6-4.6,4.6-8C442.9,127.9,441.2,125.1,438.8,123.4z"/>
						<path fill="#FFFFFF" d="M431.7,122.1l-0.4,18.1c0.7,0.1,1.5,0.2,2.2,0.2c1.4,0,2.6-0.3,3.8-0.8l0.3-16.8
							c-1.2-0.6-2.6-0.9-4-0.9C432.9,121.8,432.3,121.9,431.7,122.1z"/>
						<path fill="#FFFFFF" d="M423.9,106.2L423.9,106.2c0,0,0,0-0.1,0c0,0,0,0-0.1,0l0,0c-12.3,0.1-15.5,13.2-16.1,16.3h2.4
							c0,0,4.8-12.8,13.9-12.9c9.1,0.1,13.9,12.9,13.9,12.9h2.4C439.5,119.5,436.2,106.3,423.9,106.2z"/>
					</g>
				</g>
				<g id="education_3_">
					<circle fill="#0D8450" cx="803.2" cy="399.4" r="30.3"/>
					<g>
						<polygon fill="#FFFFFF" points="803.2,385.7 779.5,396 803.2,406.4 826.8,396 						"/>
						<path fill="#FFFFFF" d="M803.2,406.4l18.8-8.2l4.2,5.9c0,0-16.6,1.1-23,14.3c-6.3-13.1-23-14.3-23-14.3l4.2-5.9L803.2,406.4z"
							/>
						<polygon fill="#2DB24B" points="803.2,396 793,402 793,414.1 794.2,414.1 794.2,402.5 803.2,397.1 						"/>
						<path fill="#FFFFFF" d="M794.2,414.1h-0.5h-0.5c0,0-0.5,0.5-0.5,1.4c0,0.9,0,1.2,0,1.2h1.1h1.1c0,0,0-0.4,0-1.2
							C794.7,414.6,794.2,414.1,794.2,414.1z"/>
					</g>
				</g>
				<g id="houseware_3_">
					<circle fill="#FFCF01" cx="221.8" cy="281.9" r="27.2"/>
					<g>
						<path fill="#FFFFFF" d="M240.1,270.5c0,1-0.9,2-1.9,2h-26.9c-1.1,0-1.9-0.9-1.9-2l0,0c0-1,0.9-2,1.9-2h26.9
							C239.2,268.5,240.1,269.4,240.1,270.5L240.1,270.5z"/>
						<polygon fill="#FFFFFF" points="236.7,272.4 239.7,280.1 235.2,280.1 232.6,272.4 						"/>
						<path fill="#FFFFFF" d="M211,280.1c0,0-7.9,4.2-7.5,12.5h36.6v-12.5H211z M215.1,289.9c-1.9,0-3.6-1.6-3.6-3.5
							c0-2,1.6-3.5,3.6-3.5s3.6,1.6,3.6,3.5C218.6,288.3,217.1,289.9,215.1,289.9z M226.8,289.9c-1.9,0-3.6-1.6-3.6-3.5
							c0-2,1.6-3.5,3.6-3.5s3.6,1.6,3.6,3.5S228.8,289.9,226.8,289.9z"/>
					</g>
				</g>
				<g id="industry_1_">
					<g>
						<circle fill="#F16A25" cx="650.2" cy="144.8" r="27.2"/>
					</g>
					<g>
						<path fill="#FFFFFF" d="M638.5,142.1c0,0,0.8-5.7,3.2-9.2c1.4-2,4.3-4.5,8.8-5c1.9-0.1,7.8-0.3,11.7,3.7c3.7,3.8,4,7.2,4,8.8
							c0,1.6-0.2,4.2-0.4,4.9c0,0.4-0.1,0.6,0,0.8c0,0.2,0.2,0.7-4.2,0.8c-3.1-0.1-6.2-0.4-7.2-0.6c-1.2-0.2-6.8-1.1-7.5-1.1
							c-0.8-0.1-5.8-1-8.2-2.2c-0.3-0.2-0.5-0.3-0.2-0.6C638.5,142.2,638.5,142.1,638.5,142.1z"/>
						<path fill="#FFFFFF" d="M638.5,142.3c0,0-4.3,2.1-4.5,2.2c-0.2,0.1-1.8,1.1,0.6,2.4c1.2,0.4,3.4,1.4,10.5,1.3
							c3.6,0.1,7.2,0.2,7.8,0.4c0.7,0.1,2.4,0.2,2.5,0.2c0.2,0.1,9.3,0.6,11.4-0.9c0.3-0.2,0.5-0.5-0.3-1c-0.4-0.4-0.5-0.4-0.7-0.8
							c-0.1,0.2-0.2,1.1-7.7,0.6c-2.5-0.2-6.5-0.9-9-1.2c-2.2-0.4-6.7-0.9-10.2-2.4C638.4,142.8,638,142.9,638.5,142.3z"/>
						<path fill="#FFFFFF" d="M646.8,148.4c0,0-1.7-0.1-1.7-0.1c-0.1,0.1-2.5,8.8-0.4,11.7c1,0.9,1.5,1.9,5,1.8
							c1-0.6,2.2-1.2,2.2-1.2s2-2.7,2.8-4.8c0.3,0.1,0.3,0.4,0.7-1.1c0.4-1.4,0.6-1.8,0.6-1.8s0-0.3,1.2-0.4c1.2-0.2,2-0.6,2.9-1.2
							c0.5-0.4,1.2-0.6,1.3-0.6c0.2-0.1,1.3-0.7,1.6-1.7c-0.2,0-0.6,0.1-0.6,0.1s0.2,0.6-1.1,1.1c-0.7,0.3-1.2,0.8-1.5,1
							c-0.3,0.1-2.2,1.1-3.5,0.4c-0.2-0.5-0.2-0.8-0.2-0.8l-0.8-0.1c0,0-0.8,0-0.7-0.6c0-0.5,0-1.1,0-1.1l-1.8-0.1l0.1,1.1
							c0,0,1.2,1.4,1.2,1.6c0,0.3-1,3.6-1.2,3.8c0.1,0.2,0.3,0.3,0.3,0.3s-0.5,1.9-0.9,2.4c-0.3,0.5-1.7,2.1-2,2.5
							c-0.3,0.3-1.4,1.4-3.2,0.9c-0.8-0.3-2-0.6-1.8-2.4C645.2,157.2,646,149.6,646.8,148.4z"/>
					</g>
				</g>
				<g id="hospital_1_">
					<g>
						<circle fill="#2B398E" cx="605.2" cy="220.6" r="30.3"/>
					</g>
					<path fill="none" stroke="#FFFFFF" stroke-width="2.2854" stroke-miterlimit="10" d="M605.2,203.1c-2.2,0-4,1.8-4,4.1v6.6h8.1
						v-6.6C609.3,204.9,607.5,203.1,605.2,203.1z"/>
					<g id="hospital_6_">
						<path fill="#FFFFFF" d="M615.5,213.8H595c-3.8,0-6.8,3.1-6.8,6.9v10.6c0,3.8,3,6.9,6.8,6.9h20.5c3.8,0,6.8-3.1,6.8-6.9v-10.6
							C622.4,216.9,619.3,213.8,615.5,213.8z M609.2,226.7h-2.9v2.9h-2.1v-2.9h-2.9v-2.1h2.9v-2.9h2.1v2.9h2.9V226.7z"/>
					</g>
				</g>
			</g>
		</g>
		<g id="bottom_line">
			<rect y="506.3" opacity="0.9" enable-background="new    " width="960" height="45"/>
			<rect y="506.3" opacity="0.41" enable-background="new    " width="150.4" height="44.6"/>
			<g>
				<g>
					<path fill="#FFFFFF" d="M865.8,540.5C865.8,540.5,865.8,540.4,865.8,540.5c0.1-0.1,0.1-0.1,0.1-0.1s0.1,0,0.1,0c0,0,0,0,0,0.1
						v2.8c0,0,0,0.1,0,0.1c0,0,0,0-0.1,0s-0.1,0-0.1,0c0,0,0,0,0-0.1V540.5z"/>
					<path fill="#FFFFFF" d="M866.5,541.5C866.5,541.4,866.5,541.4,866.5,541.5c0.1-0.1,0.1-0.1,0.1-0.1s0.1,0,0.1,0c0,0,0,0,0,0.1
						v0.2c0.2-0.2,0.5-0.3,0.7-0.3c0.3,0,0.5,0.1,0.7,0.3s0.3,0.5,0.3,0.7v1c0,0,0,0.1,0,0.1c0,0,0,0-0.1,0s-0.1,0-0.1,0
						c0,0,0,0,0-0.1v-1c0-0.2,0-0.3-0.2-0.5s-0.3-0.2-0.5-0.2s-0.3,0-0.5,0.2s-0.2,0.3-0.2,0.5v1c0,0,0,0.1,0,0.1c0,0,0,0-0.1,0
						s-0.1,0-0.1,0s0,0,0-0.1L866.5,541.5L866.5,541.5z"/>
					<path fill="#FFFFFF" d="M868.8,541.5C868.8,541.4,868.8,541.4,868.8,541.5c0.1-0.1,0.1-0.1,0.1-0.1s0.1,0,0.1,0c0,0,0,0,0,0.1
						v0.2c0.2-0.2,0.5-0.3,0.7-0.3c0.3,0,0.5,0.1,0.7,0.3s0.3,0.5,0.3,0.7v1c0,0,0,0.1,0,0.1s0,0-0.1,0s-0.1,0-0.1,0c0,0,0,0,0-0.1
						v-1c0-0.2,0-0.3-0.2-0.5s-0.3-0.2-0.5-0.2s-0.3,0-0.5,0.2s-0.2,0.3-0.2,0.5v1c0,0,0,0.1,0,0.1c0,0,0,0-0.1,0s-0.1,0-0.1,0
						c0,0,0,0,0-0.1L868.8,541.5L868.8,541.5z"/>
					<path fill="#FFFFFF" d="M873.3,542.4c0,0.3-0.1,0.5-0.3,0.8s-0.5,0.3-0.8,0.3s-0.5-0.1-0.8-0.3s-0.3-0.5-0.3-0.8
						s0.1-0.5,0.3-0.8s0.5-0.3,0.8-0.3s0.5,0.1,0.8,0.3C873.2,541.8,873.3,542.1,873.3,542.4z M872.2,541.6c-0.2,0-0.4,0.1-0.5,0.2
						c-0.2,0.2-0.2,0.3-0.2,0.5s0.1,0.4,0.2,0.5c0.2,0.2,0.3,0.2,0.5,0.2s0.4-0.1,0.5-0.2c0.2-0.2,0.2-0.3,0.2-0.5s-0.1-0.4-0.2-0.5
						C872.7,541.7,872.5,541.6,872.2,541.6z"/>
					<path fill="#FFFFFF" d="M874.8,543.5C874.7,543.5,874.7,543.5,874.8,543.5c-0.1,0-0.2,0-0.2,0c0,0,0,0,0,0l-0.8-1.9v0
						c0,0,0-0.1,0-0.1c0,0,0,0,0.1,0s0.1,0,0.1,0c0,0,0,0,0,0l0.7,1.5l0.7-1.5c0,0,0,0,0,0c0,0,0,0,0.1,0s0.1,0,0.1,0s0,0,0,0.1v0
						L874.8,543.5C874.8,543.4,874.8,543.4,874.8,543.5z"/>
					<path fill="#FFFFFF" d="M877.8,543.2c-0.2,0.2-0.5,0.3-0.8,0.3s-0.5-0.1-0.8-0.3s-0.3-0.5-0.3-0.8s0.1-0.5,0.3-0.8
						s0.5-0.3,0.8-0.3s0.5,0.1,0.8,0.3s0.3,0.5,0.3,0.8v1c0,0,0,0.1,0,0.1c0,0,0,0-0.1,0s-0.1,0-0.1,0c0,0,0,0,0-0.1L877.8,543.2
						L877.8,543.2z M877,541.6c-0.2,0-0.4,0.1-0.5,0.2s-0.2,0.3-0.2,0.5s0.1,0.4,0.2,0.5c0.2,0.2,0.3,0.2,0.5,0.2s0.4-0.1,0.5-0.2
						c0.2-0.2,0.2-0.3,0.2-0.5s-0.1-0.4-0.2-0.5C877.5,541.7,877.2,541.6,877,541.6z"/>
					<path fill="#FFFFFF" d="M879.5,543.2C879.6,543.2,879.6,543.2,879.5,543.2c0.1,0.1,0.1,0.1,0.1,0.1s0,0.1,0,0.1c0,0,0,0-0.1,0
						c-0.5,0-0.8-0.2-0.8-0.8v-1.1h-0.2c0,0-0.1,0-0.1,0c0,0,0,0,0-0.1s0-0.1,0-0.1c0,0,0,0,0.1,0h0.2v-0.8c0,0,0-0.1,0-0.1
						s0,0,0.1,0s0.1,0,0.1,0c0,0,0,0,0,0.1v0.8h0.3c0,0,0.1,0,0.1,0c0,0,0,0,0,0.1s0,0.1,0,0.1c0,0,0,0-0.1,0H879v1.1
						C879.1,543,879.2,543.2,879.5,543.2z"/>
					<path fill="#FFFFFF" d="M880.5,540.8c0,0,0,0.1,0,0.2c0,0-0.1,0-0.2,0c0,0-0.1,0-0.2,0c0,0,0-0.1,0-0.2s0-0.1,0-0.2
						c0,0,0.1,0,0.2,0c0,0,0.1,0,0.2,0C880.5,540.8,880.5,540.8,880.5,540.8z M880.2,541.5C880.2,541.4,880.2,541.4,880.2,541.5
						c0.1-0.1,0.1-0.1,0.1-0.1s0.1,0,0.1,0s0,0,0,0.1v1.8c0,0,0,0.1,0,0.1s0,0-0.1,0s-0.1,0-0.1,0c0,0,0,0,0-0.1V541.5z"/>
					<path fill="#FFFFFF" d="M883.1,542.4c0,0.3-0.1,0.5-0.3,0.8s-0.5,0.3-0.8,0.3s-0.5-0.1-0.8-0.3s-0.3-0.5-0.3-0.8
						s0.1-0.5,0.3-0.8s0.5-0.3,0.8-0.3s0.5,0.1,0.8,0.3C883,541.8,883.1,542.1,883.1,542.4z M882,541.6c-0.2,0-0.4,0.1-0.5,0.2
						s-0.2,0.3-0.2,0.5s0.1,0.4,0.2,0.5c0.2,0.2,0.3,0.2,0.5,0.2s0.4-0.1,0.5-0.2c0.2-0.2,0.2-0.3,0.2-0.5s-0.1-0.4-0.2-0.5
						S882.2,541.6,882,541.6z"/>
					<path fill="#FFFFFF" d="M883.4,541.5C883.4,541.4,883.4,541.4,883.4,541.5c0.1-0.1,0.1-0.1,0.1-0.1s0.1,0,0.1,0c0,0,0,0,0,0.1
						v0.2c0.2-0.2,0.5-0.3,0.7-0.3c0.3,0,0.5,0.1,0.7,0.3s0.3,0.5,0.3,0.7v1c0,0,0,0.1,0,0.1c0,0,0,0-0.1,0s-0.1,0-0.1,0
						c0,0,0,0,0-0.1v-1c0-0.2,0-0.3-0.2-0.5s-0.3-0.2-0.5-0.2s-0.3,0-0.5,0.2s-0.2,0.3-0.2,0.5v1c0,0,0,0.1,0,0.1c0,0,0,0-0.1,0
						s-0.1,0-0.1,0c0,0,0,0,0-0.1L883.4,541.5L883.4,541.5z"/>
					<path fill="#FFFFFF" d="M887.6,543.2c-0.2,0.2-0.5,0.3-0.8,0.3s-0.5-0.1-0.8-0.3s-0.3-0.5-0.3-0.8s0.1-0.5,0.3-0.8
						s0.5-0.3,0.8-0.3s0.5,0.1,0.8,0.3s0.3,0.5,0.3,0.8v1c0,0,0,0.1,0,0.1c0,0,0,0-0.1,0s-0.1,0-0.1,0c0,0,0,0,0-0.1L887.6,543.2
						L887.6,543.2z M886.8,541.6c-0.2,0-0.4,0.1-0.5,0.2s-0.2,0.3-0.2,0.5s0.1,0.4,0.2,0.5c0.2,0.2,0.3,0.2,0.5,0.2s0.4-0.1,0.5-0.2
						c0.2-0.2,0.2-0.3,0.2-0.5s-0.1-0.4-0.2-0.5S887,541.6,886.8,541.6z"/>
					<path fill="#FFFFFF" d="M888.6,542.4c-0.1,0-0.2-0.1-0.2-0.2c-0.1-0.1-0.2-0.2-0.2-0.3s0-0.2,0.2-0.3c0.2-0.2,0.5-0.3,0.8-0.3
						s0.6,0.2,0.8,0.4c0,0,0,0,0,0.1s0,0.1,0,0.1c0,0,0,0-0.1,0s-0.1,0-0.1,0c0,0,0,0,0,0c-0.2-0.2-0.3-0.2-0.5-0.2s-0.4,0-0.5,0.2
						c0,0,0,0.1,0,0.2c0,0,0,0.1,0.1,0.1l1,0.3c0.1,0,0.2,0.1,0.2,0.2c0.1,0.1,0.2,0.2,0.2,0.3s0,0.2-0.2,0.3
						c-0.2,0.2-0.5,0.3-0.8,0.3c-0.3,0-0.6-0.2-0.8-0.4c0,0,0,0,0-0.1s0-0.1,0-0.1c0,0,0,0,0.1,0s0.1,0,0.1,0c0,0,0,0,0,0
						c0.2,0.2,0.3,0.2,0.5,0.2s0.4,0,0.5-0.2c0,0,0-0.1,0-0.2c0,0,0-0.1-0.1-0.1L888.6,542.4z"/>
					<path fill="#FFFFFF" d="M893.3,543.2c-0.2,0.2-0.5,0.3-0.8,0.3s-0.5-0.1-0.8-0.3s-0.3-0.5-0.3-0.8s0.1-0.5,0.3-0.8
						s0.5-0.3,0.8-0.3s0.5,0.1,0.8,0.3s0.3,0.5,0.3,0.8v1c0,0,0,0.1,0,0.1c0,0,0,0-0.1,0s-0.1,0-0.1,0c0,0,0,0,0-0.1L893.3,543.2
						L893.3,543.2z M892.5,541.6c-0.2,0-0.4,0.1-0.5,0.2s-0.2,0.3-0.2,0.5s0.1,0.4,0.2,0.5c0.2,0.2,0.3,0.2,0.5,0.2s0.4-0.1,0.5-0.2
						c0.2-0.2,0.2-0.3,0.2-0.5s-0.1-0.4-0.2-0.5S892.8,541.6,892.5,541.6z"/>
					<path fill="#FFFFFF" d="M894,541.5C894,541.4,894,541.4,894,541.5c0.1-0.1,0.1-0.1,0.1-0.1s0.1,0,0.1,0c0,0,0,0,0,0.1v0.2
						c0.2-0.2,0.5-0.3,0.7-0.3c0.3,0,0.5,0.1,0.7,0.3s0.3,0.5,0.3,0.7v1c0,0,0,0.1,0,0.1c0,0,0,0-0.1,0s-0.1,0-0.1,0c0,0,0,0,0-0.1
						v-1c0-0.2,0-0.3-0.2-0.5s-0.3-0.2-0.5-0.2s-0.3,0-0.5,0.2s-0.2,0.3-0.2,0.5v1c0,0,0,0.1,0,0.1c0,0,0,0-0.1,0s-0.1,0-0.1,0
						c0,0,0,0,0-0.1L894,541.5L894,541.5z"/>
					<path fill="#FFFFFF" d="M898.2,540.5C898.2,540.5,898.2,540.4,898.2,540.5c0.1-0.1,0.1-0.1,0.1-0.1s0.1,0,0.1,0c0,0,0,0,0,0.1
						v1.8c0,0.3-0.1,0.5-0.3,0.8s-0.5,0.3-0.8,0.3s-0.5-0.1-0.8-0.3s-0.3-0.5-0.3-0.8s0.1-0.5,0.3-0.8s0.5-0.3,0.8-0.3
						s0.5,0.1,0.8,0.3l0,0L898.2,540.5L898.2,540.5z M898.2,542.4c0-0.2-0.1-0.4-0.2-0.5s-0.3-0.2-0.5-0.2s-0.4,0.1-0.5,0.2
						s-0.2,0.3-0.2,0.5s0.1,0.4,0.2,0.5c0.2,0.2,0.3,0.2,0.5,0.2s0.4-0.1,0.5-0.2S898.2,542.6,898.2,542.4z"/>
					<path fill="#FFFFFF" d="M901.8,540.5C901.8,540.5,901.8,540.4,901.8,540.5c0.1-0.1,0.1-0.1,0.1-0.1s0.1,0,0.1,0c0,0,0,0,0,0.1
						v1.8c0,0.3-0.1,0.5-0.3,0.8s-0.5,0.3-0.8,0.3s-0.5-0.1-0.8-0.3s-0.3-0.5-0.3-0.8s0.1-0.5,0.3-0.8s0.5-0.3,0.8-0.3
						s0.5,0.1,0.8,0.3l0,0L901.8,540.5L901.8,540.5z M901.8,542.4c0-0.2-0.1-0.4-0.2-0.5s-0.3-0.2-0.5-0.2s-0.4,0.1-0.5,0.2
						c-0.2,0.2-0.2,0.3-0.2,0.5s0.1,0.4,0.2,0.5c0.2,0.2,0.3,0.2,0.5,0.2s0.4-0.1,0.5-0.2C901.7,542.8,901.8,542.6,901.8,542.4z"/>
					<path fill="#FFFFFF" d="M904.1,543C904.1,543,904.2,543,904.1,543c0.1,0.1,0.1,0.1,0.1,0.1s0,0.1,0,0.1
						c-0.2,0.2-0.5,0.2-0.7,0.2c-0.3,0-0.5-0.1-0.8-0.3s-0.3-0.5-0.3-0.8s0.1-0.5,0.3-0.8s0.5-0.3,0.8-0.3s0.5,0.1,0.8,0.3
						s0.3,0.5,0.3,0.8c0,0,0,0.1,0,0.1c0,0,0,0-0.1,0h-1.7c0,0.2,0.1,0.3,0.2,0.4c0.2,0.2,0.3,0.2,0.5,0.2s0.3,0,0.5-0.2
						C904,543,904,543,904.1,543z M904.2,542.2c0-0.2-0.1-0.3-0.2-0.4c-0.2-0.2-0.3-0.2-0.5-0.2s-0.4,0.1-0.5,0.2
						c-0.1,0.1-0.2,0.2-0.2,0.4H904.2z"/>
					<path fill="#FFFFFF" d="M905.2,542.4c-0.1,0-0.2-0.1-0.2-0.2c-0.1-0.1-0.2-0.2-0.2-0.3s0-0.2,0.2-0.3c0.2-0.2,0.5-0.3,0.8-0.3
						s0.6,0.2,0.8,0.4c0,0,0,0,0,0.1s0,0.1,0,0.1c0,0,0,0-0.1,0s-0.1,0-0.1,0c0,0,0,0,0,0c-0.2-0.2-0.3-0.2-0.5-0.2s-0.4,0-0.5,0.2
						c0,0,0,0.1,0,0.2c0,0,0,0.1,0.1,0.1l1,0.3c0.1,0,0.2,0.1,0.2,0.2c0.1,0.1,0.2,0.2,0.2,0.3s0,0.2-0.2,0.3
						c-0.2,0.2-0.5,0.3-0.8,0.3c-0.3,0-0.6-0.2-0.8-0.4c0,0,0,0,0-0.1s0-0.1,0-0.1c0,0,0,0,0.1,0s0.1,0,0.1,0c0,0,0,0,0,0
						c0.2,0.2,0.3,0.2,0.5,0.2s0.4,0,0.5-0.2c0,0,0-0.1,0-0.2c0,0,0-0.1-0.1-0.1L905.2,542.4z"/>
					<path fill="#FFFFFF" d="M907.5,540.8c0,0,0,0.1,0,0.2c0,0-0.1,0-0.2,0c0,0-0.1,0-0.2,0c0,0,0-0.1,0-0.2s0-0.1,0-0.2
						c0,0,0.1,0,0.2,0c0,0,0.1,0,0.2,0C907.5,540.8,907.5,540.8,907.5,540.8z M907.1,541.5C907.1,541.4,907.1,541.4,907.1,541.5
						c0.1-0.1,0.1-0.1,0.1-0.1s0.1,0,0.1,0c0,0,0,0,0,0.1v1.8c0,0,0,0.1,0,0.1c0,0,0,0-0.1,0s-0.1,0-0.1,0c0,0,0,0,0-0.1V541.5z"/>
					<path fill="#FFFFFF" d="M909.8,543.2L909.8,543.2c-0.2,0.2-0.5,0.3-0.8,0.3s-0.5-0.1-0.8-0.3s-0.3-0.5-0.3-0.8s0.1-0.5,0.3-0.8
						s0.5-0.3,0.8-0.3s0.5,0.1,0.8,0.3s0.3,0.5,0.3,0.8v1.1c0,0.2-0.1,0.4-0.2,0.6c-0.2,0.2-0.5,0.3-0.8,0.3s-0.6-0.1-0.8-0.3
						c-0.1-0.1-0.2-0.2-0.2-0.2c0,0,0,0,0-0.1s0-0.1,0-0.1c0,0,0,0,0.1,0s0.1,0,0.1,0c0,0,0,0,0,0c0,0,0.1,0.2,0.2,0.2
						c0.2,0.2,0.3,0.2,0.6,0.2s0.5-0.1,0.6-0.2c0.1-0.1,0.2-0.2,0.2-0.3L909.8,543.2L909.8,543.2z M909,541.6
						c-0.2,0-0.4,0.1-0.5,0.2s-0.2,0.3-0.2,0.5s0.1,0.4,0.2,0.5c0.2,0.2,0.3,0.2,0.5,0.2s0.4-0.1,0.5-0.2c0.2-0.2,0.2-0.3,0.2-0.5
						s-0.1-0.4-0.2-0.5S909.2,541.6,909,541.6z"/>
					<path fill="#FFFFFF" d="M910.3,541.5C910.3,541.4,910.3,541.4,910.3,541.5c0.1-0.1,0.1-0.1,0.1-0.1s0.1,0,0.1,0c0,0,0,0,0,0.1
						v0.2c0.2-0.2,0.5-0.3,0.7-0.3c0.3,0,0.5,0.1,0.7,0.3s0.3,0.5,0.3,0.7v1c0,0,0,0.1,0,0.1c0,0,0,0-0.1,0s-0.1,0-0.1,0
						c0,0,0,0,0-0.1v-1c0-0.2,0-0.3-0.2-0.5s-0.3-0.2-0.5-0.2s-0.3,0-0.5,0.2s-0.2,0.3-0.2,0.5v1c0,0,0,0.1,0,0.1c0,0,0,0-0.1,0
						s-0.1,0-0.1,0c0,0,0,0,0-0.1L910.3,541.5L910.3,541.5z"/>
					<path fill="#FFFFFF" d="M914.3,540.8c0,0,0,0.1,0,0.2c0,0-0.1,0-0.2,0c0,0-0.1,0-0.2,0c0,0,0-0.1,0-0.2s0-0.1,0-0.2
						c0,0,0.1,0,0.2,0c0,0,0.1,0,0.2,0C914.3,540.8,914.3,540.8,914.3,540.8z M914,541.5C914,541.4,914,541.4,914,541.5
						c0.1-0.1,0.1-0.1,0.1-0.1s0.1,0,0.1,0c0,0,0,0,0,0.1v1.8c0,0,0,0.1,0,0.1c0,0,0,0-0.1,0s-0.1,0-0.1,0c0,0,0,0,0-0.1V541.5z"/>
					<path fill="#FFFFFF" d="M914.8,541.5C914.8,541.4,914.8,541.4,914.8,541.5c0.1-0.1,0.1-0.1,0.1-0.1s0.1,0,0.1,0c0,0,0,0,0,0.1
						v0.2c0.2-0.2,0.5-0.3,0.7-0.3c0.3,0,0.5,0.1,0.7,0.3s0.3,0.5,0.3,0.7v1c0,0,0,0.1,0,0.1c0,0,0,0-0.1,0s-0.1,0-0.1,0
						c0,0,0,0,0-0.1v-1c0-0.2,0-0.3-0.2-0.5s-0.3-0.2-0.5-0.2s-0.3,0-0.5,0.2s-0.2,0.3-0.2,0.5v1c0,0,0,0.1,0,0.1c0,0,0,0-0.1,0
						s-0.1,0-0.1,0c0,0,0,0,0-0.1L914.8,541.5L914.8,541.5z"/>
					<path fill="#FFFFFF" d="M919.7,543.3l-1.1-2.2v2.2c0,0,0,0.1,0,0.1c0,0,0,0-0.1,0s-0.1,0-0.1,0c0,0,0,0,0-0.1v-2.8
						c0,0,0-0.1,0-0.1c0,0,0,0,0.1,0s0.1,0,0.2,0.1l1.2,2.5l1.2-2.5c0,0,0.1-0.1,0.2-0.1c0,0,0.1,0,0.1,0c0,0,0,0,0,0.1v2.8
						c0,0,0,0.1,0,0.1c0,0,0,0-0.1,0s-0.1,0-0.1,0c0,0,0,0,0-0.1v-2.2l-1.1,2.2c0,0,0,0.1-0.2,0.1
						C919.8,543.5,919.7,543.5,919.7,543.3z"/>
					<path fill="#FFFFFF" d="M923.3,543C923.4,543,923.4,543,923.3,543c0.1,0.1,0.1,0.1,0.1,0.1s0,0.1,0,0.1
						c-0.2,0.2-0.5,0.2-0.7,0.2c-0.3,0-0.5-0.1-0.8-0.3s-0.3-0.5-0.3-0.8s0.1-0.5,0.3-0.8s0.5-0.3,0.8-0.3s0.5,0.1,0.8,0.3
						s0.3,0.5,0.3,0.8c0,0,0,0.1,0,0.1s0,0-0.1,0h-1.7c0,0.2,0.1,0.3,0.2,0.4c0.2,0.2,0.3,0.2,0.5,0.2s0.3,0,0.5-0.2
						C923.3,543,923.3,543,923.3,543z M923.5,542.2c0-0.2-0.1-0.3-0.2-0.4c-0.2-0.2-0.3-0.2-0.5-0.2s-0.4,0.1-0.5,0.2
						c-0.1,0.1-0.2,0.2-0.2,0.4H923.5z"/>
					<path fill="#FFFFFF" d="M924.2,540.5C924.2,540.5,924.2,540.4,924.2,540.5c0.1-0.1,0.1-0.1,0.1-0.1s0.1,0,0.1,0s0,0,0,0.1v2.7
						h0.2c0,0,0.1,0,0.1,0c0,0,0,0,0,0.1s0,0.1,0,0.1c0,0,0,0-0.1,0h-0.3c0,0-0.1,0-0.1,0c0,0,0,0,0-0.1V540.5z"/>
					<path fill="#FFFFFF" d="M925.4,541.6L925.4,541.6c0.2-0.2,0.5-0.3,0.8-0.3s0.5,0.1,0.8,0.3s0.3,0.5,0.3,0.8s-0.1,0.5-0.3,0.8
						s-0.5,0.3-0.8,0.3s-0.5-0.1-0.8-0.3s-0.3-0.5-0.3-0.8v-1.8c0,0,0-0.1,0-0.1c0,0,0,0,0.1,0s0.1,0,0.1,0c0,0,0,0,0,0.1
						L925.4,541.6L925.4,541.6z M926.2,543.2c0.2,0,0.4-0.1,0.5-0.2c0.2-0.2,0.2-0.3,0.2-0.5s-0.1-0.4-0.2-0.5s-0.3-0.2-0.5-0.2
						s-0.4,0.1-0.5,0.2c-0.2,0.2-0.2,0.3-0.2,0.5s0.1,0.4,0.2,0.5C925.8,543.1,926,543.2,926.2,543.2z"/>
					<path fill="#FFFFFF" d="M929.8,542.4c0,0.3-0.1,0.5-0.3,0.8s-0.5,0.3-0.8,0.3s-0.5-0.1-0.8-0.3s-0.3-0.5-0.3-0.8
						s0.1-0.5,0.3-0.8s0.5-0.3,0.8-0.3s0.5,0.1,0.8,0.3C929.7,541.8,929.8,542.1,929.8,542.4z M928.7,541.6c-0.2,0-0.4,0.1-0.5,0.2
						s-0.2,0.3-0.2,0.5s0.1,0.4,0.2,0.5c0.2,0.2,0.3,0.2,0.5,0.2s0.4-0.1,0.5-0.2c0.2-0.2,0.2-0.3,0.2-0.5s-0.1-0.4-0.2-0.5
						S928.9,541.6,928.7,541.6z"/>
					<path fill="#FFFFFF" d="M932.1,543.3C932.1,543.3,932.1,543.4,932.1,543.3c-0.1,0.1-0.1,0.1-0.1,0.1s-0.1,0-0.1,0s0,0,0-0.1
						v-0.2c-0.2,0.2-0.5,0.3-0.7,0.3c-0.3,0-0.5-0.1-0.7-0.3s-0.3-0.5-0.3-0.7v-1c0,0,0-0.1,0-0.1c0,0,0,0,0.1,0s0.1,0,0.1,0
						s0,0,0,0.1v1c0,0.2,0,0.3,0.2,0.5s0.3,0.2,0.5,0.2s0.3,0,0.5-0.2s0.2-0.3,0.2-0.5v-1c0,0,0-0.1,0-0.1s0,0,0.1,0s0.1,0,0.1,0
						s0,0,0,0.1L932.1,543.3L932.1,543.3z"/>
					<path fill="#FFFFFF" d="M932.4,541.5C932.4,541.4,932.4,541.4,932.4,541.5c0.1-0.1,0.1-0.1,0.1-0.1s0.1,0,0.1,0s0,0,0,0.1v0.2
						c0.2-0.2,0.5-0.3,0.8-0.3c0.2,0,0.3,0,0.4,0.1c0,0,0,0,0,0c0,0,0,0,0,0.1s0,0.1,0,0.1c0,0,0,0-0.1,0h0c-0.1,0-0.2,0-0.3,0
						c-0.2,0-0.4,0.1-0.5,0.2s-0.2,0.3-0.2,0.5v1c0,0,0,0.1,0,0.1s0,0-0.1,0s-0.1,0-0.1,0s0,0,0-0.1L932.4,541.5L932.4,541.5z"/>
					<path fill="#FFFFFF" d="M934.2,541.5C934.2,541.4,934.2,541.4,934.2,541.5c0.1-0.1,0.1-0.1,0.1-0.1s0.1,0,0.1,0s0,0,0,0.1v0.2
						c0.2-0.2,0.5-0.3,0.7-0.3c0.3,0,0.5,0.1,0.7,0.3s0.3,0.5,0.3,0.7v1c0,0,0,0.1,0,0.1s0,0-0.1,0s-0.1,0-0.1,0c0,0,0,0,0-0.1v-1
						c0-0.2,0-0.3-0.2-0.5s-0.3-0.2-0.5-0.2s-0.3,0-0.5,0.2s-0.2,0.3-0.2,0.5v1c0,0,0,0.1,0,0.1s0,0-0.1,0s-0.1,0-0.1,0
						c0,0,0,0,0-0.1L934.2,541.5L934.2,541.5z"/>
					<path fill="#FFFFFF" d="M938.2,543C938.3,543,938.3,543,938.2,543c0.1,0.1,0.1,0.1,0.1,0.1s0,0.1,0,0.1
						c-0.2,0.2-0.5,0.2-0.7,0.2c-0.3,0-0.5-0.1-0.8-0.3s-0.3-0.5-0.3-0.8s0.1-0.5,0.3-0.8s0.5-0.3,0.8-0.3s0.5,0.1,0.8,0.3
						s0.3,0.5,0.3,0.8c0,0,0,0.1,0,0.1s0,0-0.1,0h-1.7c0,0.2,0.1,0.3,0.2,0.4c0.2,0.2,0.3,0.2,0.5,0.2s0.3,0,0.5-0.2
						C938.2,543,938.2,543,938.2,543z M938.5,542.2c0-0.2-0.1-0.3-0.2-0.4c-0.2-0.2-0.3-0.2-0.5-0.2s-0.4,0.1-0.5,0.2
						c-0.1,0.1-0.2,0.2-0.2,0.4H938.5z"/>
				</g>
				<path fill="#0061AF" d="M912.3,520.2c-0.2-0.2-0.5-0.4-0.9-0.4s-0.7,0.2-0.9,0.4s-0.4,0.5-0.4,0.9v9.7c0,1.2-0.5,2.3-1.3,3.2
					c-0.9,0.9-2,1.3-3.2,1.3c-1.2,0-2.3-0.5-3.2-1.3c-0.9-0.9-1.3-2-1.3-3.2v-17.6c0-0.4-0.2-0.7-0.4-0.9s-0.5-0.4-0.9-0.4
					c-0.3,0-0.7,0.1-0.9,0.4s-0.4,0.5-0.4,0.9v17.6c0,2,0.7,3.7,2.1,5c1.4,1.4,3,2.1,5,2.1l0,0l0,0l0,0l0,0c2,0,3.6-0.7,5-2.1
					c1.4-1.4,2.1-3,2.1-5v-9.7C912.7,520.8,912.6,520.5,912.3,520.2z"/>
				<path fill="#F16A25" d="M912.7,529.2v-8.2c0-0.3-0.2-0.6-0.4-0.9s-0.5-0.4-0.9-0.4s-0.7,0.1-0.9,0.4s-0.4,0.5-0.4,0.9v8.2H912.7
					z"/>
				<path fill="#0D8450" d="M863,521.9c-1.4-1.4-3-2.1-5-2.1l0,0l0,0l0,0l0,0c-2,0-3.6,0.7-5,2.1c-1.4,1.4-2.1,3-2.1,5v2
					c0,0.3,0.2,0.7,0.4,0.9s0.5,0.4,0.9,0.4s0.7-0.2,0.9-0.4s0.4-0.5,0.4-0.9v-2c0-1.2,0.5-2.3,1.3-3.2c0.9-0.9,2-1.3,3.2-1.3
					c1.2,0,2.3,0.5,3.2,1.3c0.9,0.9,1.3,2,1.3,3.2v12.3c0,0.3,0.2,0.7,0.4,0.9s0.5,0.4,0.9,0.4s0.7-0.2,0.9-0.4s0.4-0.5,0.4-0.9V527
					C865.2,525,864.5,523.3,863,521.9z"/>
				<path fill="#0D8450" d="M864.8,521.9c1.4-1.4,3-2.1,5-2.1l0,0l0,0l0,0l0,0c2,0,3.6,0.7,5,2.1c1.4,1.4,2.1,3,2.1,5v2.3
					c0,0.3-0.2,0.7-0.4,0.9s-0.5,0.4-0.9,0.4s-0.7-0.2-0.9-0.4s-0.4-0.5-0.4-0.9V527c0-1.2-0.5-2.3-1.3-3.2c-0.9-0.9-2-1.3-3.2-1.3
					c-1.2,0-2.3,0.5-3.2,1.3c-0.9,0.9-1.3,2-1.3,3.2v12.3c0,0.3-0.2,0.7-0.4,0.9s-0.5,0.4-0.9,0.4s-0.7-0.2-0.9-0.4
					s-0.4-0.5-0.4-0.9V527C862.7,525,863.4,523.3,864.8,521.9z"/>
				<circle fill="#F16A25" cx="911.5" cy="516" r="1.5"/>
				<g>
					<path fill="#B6407B" d="M946.4,528c0.3,0,0.7,0.2,0.9,0.4s0.4,0.5,0.4,0.9c0,0.3-0.2,0.7-0.4,0.9s-0.5,0.4-0.9,0.4h-20.8
						c-0.3,0-0.7-0.2-0.9-0.4s-0.4-0.5-0.4-0.9c0-0.3,0.2-0.7,0.4-0.9s0.5-0.4,0.9-0.4H946.4z"/>
				</g>
				<path fill="#F16A25" d="M938.8,537.3c-3.7,0-6.6-3-6.6-6.6v-1.7c0-3.7,3-6.7,6.6-6.6c3.5,0,6.3,3,6.3,6.5h2.6c0-5-4.2-9.2-9.2-9
					c-5,0.1-8.9,4.2-8.9,9.2v1.6c0,5,4,9.2,8.9,9.2c4.6,0.1,8.4-3.2,9.1-7.6c0.2-0.8-0.5-1.5-1.2-1.5l0,0c-0.7,0-1.2,0.5-1.3,1.1
					C944.5,535,941.9,537.3,938.8,537.3z"/>
				<g>
					<path fill="#F16A25" d="M946.4,528c0.3,0,0.7,0.2,0.9,0.4s0.4,0.5,0.4,0.9c0,0.3-0.2,0.7-0.4,0.9s-0.5,0.4-0.9,0.4h-34.8
						c-0.3,0-0.7-0.2-0.9-0.4s-0.4-0.5-0.4-0.9c0-0.3,0.2-0.7,0.4-0.9s0.5-0.4,0.9-0.4H946.4z"/>
				</g>
				<g>
					<path fill="#FFCF01" d="M896.5,528c0.3,0,0.7,0.2,0.9,0.4s0.4,0.5,0.4,0.9c0,0.3-0.2,0.7-0.4,0.9s-0.5,0.4-0.9,0.4h-20.8
						c-0.3,0-0.7-0.2-0.9-0.4s-0.4-0.5-0.4-0.9c0-0.3,0.2-0.7,0.4-0.9s0.5-0.4,0.9-0.4H896.5z"/>
				</g>
				<path fill="#B6407B" d="M930.5,514.1c-1.4-1.4-3-2-5-2.1l0,0c0,0,0,0,0,0c0,0,0,0,0,0l0,0c-2,0-3.6,0.7-5,2.1
					c-1.4,1.4-2.1,3.1-2.1,5.1v19.5c0,0.3,0.2,0.7,0.4,0.9s0.5,0.4,0.9,0.4s0.7-0.2,0.9-0.4s0.4-0.5,0.4-0.9v-19.5
					c0-1.2,0.5-2.3,1.3-3.2c0.9-0.9,2-1.3,3.2-1.4c1.2,0,2.3,0.5,3.2,1.4c0.8,0.9,1.3,1.9,1.3,3.1c0,0,0,0.1,0,0.2
					c0,0.7,0.6,1.3,1.3,1.3c0.7,0,1.2-0.5,1.3-1.2l0,0v-0.2C932.5,517.2,931.8,515.5,930.5,514.1z"/>
				<path fill="#FFCF01" d="M888.3,537.3c-3.3-0.2-6.1-3.2-6.1-6.6v-1.7c0-3.3,2.8-6.4,6.1-6.6c3.8-0.2,6.9,2.8,6.9,6.5h2.6
					c0-5.2-4.3-9.3-9.5-9c-4.8,0.2-8.6,4.3-8.6,9.2v1.6c0,4.8,3.8,9,8.6,9.2c4.8,0.2,8.8-3.2,9.5-7.7c0.1-0.7-0.5-1.4-1.2-1.4l0,0
					c-0.7,0-1.2,0.5-1.4,1.2C894.5,535.2,891.7,537.5,888.3,537.3z"/>
			</g>
		</g>
		<g id="hand" display="none">
			<g display="inline">
				
					<image overflow="visible" opacity="0.23" enable-background="new    " width="1288" height="1850" xlink:href="A193BE1016A98B87.png"  transform="matrix(0.1196 0 0 0.1197 406.7896 299.2069)">
				</image>
				<g>
					<path fill="#E9C2A0" d="M469.1,469.6c9.4-28-8.8-43.6-25.1-46.4v-31.5c0,0,0.9-15.1-13-15.1c-11,0-12.5,9.7-12.5,14
						c0,6.9,1.6,42.8,4.5,59.2c7.4,43.3,32.8,57.1,66.2,57.1c48.2,0,59.5-47.5,59.5-93.6c0-14.7,0.3-31,0.3-48.8
						c0-22.4-2-34.4-13.2-34.4c-12.3,0-13.7,11.9-13.7,35.6c0,13.5-0.2,25.3-0.2,25.3h-0.5l-1.2-56.5c0,0-0.7-16.3-13.6-16.3
						c-12,0-11.8,16.2-11.8,16.2v55.8l-1.5,0l-0.9-64.1c0,0-0.8-17-14-17c-13.4,0-13.6,18.1-13.6,18.1v62.5l-1.8,0v-55.2
						c0,0-0.1-14.1-13.4-14.1c-14,0-13,14.1-13,14.1l0.1,43.1c8.2,3.7,7.2,14.2,7.2,23.5v21.9C487.1,433.1,465.9,479.5,469.1,469.6z
						"/>
					<g>
						<path fill="#FFFFFF" d="M470.5,470c3.6-11.1,3.9-23.5-2.9-33.5c-5.2-7.8-14-13-23.2-14.6c0.4,0.5,0.7,0.9,1,1.4
							c0-10.6-0.2-21.2,0-31.8c0.1-5.8-2.2-12-7.6-14.8c-4.1-2.1-9.5-1.9-13.6,0c-3.5,1.7-5.6,5.4-6.5,9.1c-0.6,2.6-0.5,5.4-0.5,8.1
							c0.1,4,0.3,8,0.5,12c0.5,10.8,1.2,21.6,2.4,32.5c2.1,20,7.1,41.2,22.8,55.1c14,12.4,34.3,16,52.5,14.5c9.7-0.9,19.1-4,26.8-10
							c7.3-5.6,12.8-13.2,16.8-21.5c9.2-19.2,11-41.6,11-62.6c0-14.9,0.3-29.7,0.3-44.5c0-6.8,0-13.6-0.5-20.4
							c-0.4-4.4-1.1-8.9-2.8-13c-2.3-5.4-7.3-7.8-13-7.3c-5.8,0.5-9.2,4.4-11,9.6c-2.8,8.3-2.3,17.9-2.3,26.5c0,8.7,0,17.5-0.2,26.1
							c0.5-0.5,1-1,1.4-1.4c-0.2,0-0.4,0-0.5,0c0.5,0.5,1,1,1.4,1.4c-0.2-11.9-0.5-23.8-0.8-35.6c-0.2-6.2-0.2-12.5-0.4-18.6
							c0-3.4-0.5-6.5-1.7-9.7c-2.8-7.6-10.7-12.5-18.7-9c-5.9,2.6-7.8,10.3-7.9,16.1c-0.4,11,0,22.2,0,33.2c0,7.6,0,15.3,0,22.9
							c0.5-0.5,1-1,1.4-1.4c-0.5,0-1,0-1.5,0c0.5,0.5,1,1,1.4,1.4c-0.1-11.2-0.3-22.5-0.5-33.8c-0.1-7.4-0.2-14.8-0.3-22.2
							c0-2.9,0.1-5.8-0.1-8.7c-0.5-6.1-3-12.8-8.5-16.1c-7.5-4.5-16.3-0.2-19.5,7.2c-3.5,8-2.3,18-2.3,26.5c0,15.5,0,31.1,0,46.6
							c0.5-0.5,1-1,1.4-1.4c-0.6,0-1.1,0-1.8,0c0.5,0.5,1,1,1.4,1.4c0-11.9,0-23.9,0-35.8c0-6,0-12,0-18c0-3.5-0.6-6.9-2.3-10.1
							c-4-7.5-15.2-9.5-21.8-4.1c-3.9,3.1-5.1,8-5,12.7c0,12.8,0,25.5,0.1,38.2c0,1.6,0,3.2,0,4.8c0,0.5,0.2,1,0.7,1.2
							c8.7,4.2,6.5,16.9,6.5,24.9c0,6.5,0,12.9,0,19.4c0,0.6,0.5,1.2,1,1.4c7.9,1.9,15.6,5.4,20.6,12c3.6,4.8,5.4,10.6,5.8,16.5
							c0.3,4.5-0.2,9.1-1.3,13.5c-0.3,1.1-0.6,2.4-1,3.5c-0.1,0.2,0.1-0.3,0,0c0.2-0.4,2.6,0,2.5,1.1
							C470.2,470.8,470.4,470.4,470.5,470c0.6-1.8-2.1-2.5-2.7-0.8c-0.4,1.1-0.9,3.1,1,3.1c1.3,0,1.6-1.5,2-2.5
							c1.4-4.2,2-8.8,2.1-13.2c0.2-6.5-1.1-13-4.3-18.6c-4.1-7.3-11.4-12-19.1-14.7c-1.6-0.6-3.4-1-5.1-1.5c0.4,0.5,0.7,0.9,1,1.4
							c0-6.8,0-13.5,0-20.2c0-8.9,1.8-21.8-7.9-26.4c0.2,0.4,0.5,0.8,0.7,1.2c0-12.4,0-24.9-0.1-37.2c0-3-0.3-6.4,0.2-9.4
							c0.6-3.5,2.5-6.5,5.7-8c4.3-2.1,10.4-1.3,13.8,2.1c2.8,2.8,3.7,6.9,3.7,10.6c0,5.7,0,11.4,0,17c0,12.4,0,24.8,0,37.1v0
							c0,0.8,0.6,1.4,1.4,1.4c0.6,0,1.1,0,1.8,0c0.8,0,1.4-0.6,1.4-1.4c0-11.4,0-22.9,0-34.2c0-7.2,0-14.5,0-21.6
							c0-2.7-0.1-5.5,0.1-8.1c0.6-7,4-15,12.1-15.2c8-0.1,11.8,7.8,12.5,14.6c0.3,2.8,0.1,5.6,0.2,8.4c0.1,7.3,0.2,14.6,0.3,21.9
							c0.1,11.6,0.3,23.2,0.5,34.8c0,0.8,0.6,1.4,1.4,1.4c0.5,0,1,0,1.5,0c0.8,0,1.4-0.6,1.4-1.4c0-11.9,0-23.9,0-35.8
							c0-6,0-12.1,0-18.2c0-3.6,0.3-7.2,1.8-10.6c1.8-4.2,5.3-6.2,9.8-6c4.4,0.2,7.4,3.5,9.1,7.2c1.5,3.1,1.8,6.4,1.9,9.8
							c0.3,14.1,0.6,28.4,0.9,42.5c0.1,4,0.2,7.9,0.2,11.8c0,0.8,0.7,1.4,1.4,1.4c0.2,0,0.4,0,0.5,0c0.8,0,1.4-0.6,1.4-1.4
							c0.1-10.9,0-21.9,0.2-32.8c0.1-5.5,0.3-11,1.4-16.3c0.7-3.3,1.9-6.9,4.8-8.9c2.7-1.9,6.6-2,9.6-1c3.3,1.1,5,4.5,6,7.6
							c1.6,5,1.8,10.5,2,15.7c0.3,7.5,0.2,15,0.1,22.5c-0.1,14,0,28-0.4,42c-0.2,11.1-1.3,22.4-3.5,33.3
							c-4,18.9-12.6,38.3-30.8,47.2c-9.5,4.7-20.4,5.4-30.8,4.7c-9.3-0.6-18.6-2.6-26.9-6.8c-19.1-9.7-27.7-30.2-30.9-50.4
							c-1.6-10.4-2.3-21-3-31.4c-0.5-8.4-1-16.8-1.1-25.1c0-3.2,0.5-6.4,2.2-9.2c2.8-4.5,9-5.1,13.6-3.5c5.2,1.9,6.8,8,6.8,12.9
							c0,10.5,0,21,0,31.5c0,0.6,0.5,1.2,1,1.4c8.4,1.5,16.2,5.9,21.2,12.8c6.8,9.4,6.4,21.2,2.9,31.8
							C467.2,471,470,471.8,470.5,470z"/>
					</g>
				</g>
			</g>
			<g display="inline">
				<g>
					<g>
						<defs>
							<path id="SVGID_125_" d="M1041.3,605.7h-2.3c-6.3,0-11.6-5.2-11.6-11.5V527c0-6.4,5.2-11.5,11.6-11.5h2.3
								c6.3,0,11.6,5.2,11.6,11.5v67.2C1052.8,600.5,1047.7,605.7,1041.3,605.7z"/>
						</defs>
						<clipPath id="SVGID_126_">
							<use xlink:href="#SVGID_125_"  overflow="visible"/>
						</clipPath>
						<g clip-path="url(#SVGID_126_)">
							<path fill="#E8C19F" d="M947.1,618.2c0,30.1-9.2,59.7,48.9,59.7c45.5,0,56.8-41.5,56.8-84.2c0-13.6,0.3-28.8,0.3-45.2
								c0-20.8-1.8-31.8-12.4-31.8c-11.7-0.1-12.9,11-12.9,33c0,12.5-0.2,23.4-0.2,23.4h-0.6l-1.2-52.2c0,0-0.7-15-12.8-15
								c-11.3,0-11.2,15-11.2,15v51.6l-1.4,0l-0.8-59.3c0,0-0.8-15.7-13.2-15.7c-12.6,0-12.8,16.7-12.8,16.7v57.9l-1.7,0v-51.2
								c0,0-0.2-13-12.6-13c-13.2,0-12.2,13-12.2,13L947.1,618.2"/>
						</g>
					</g>
				</g>
				<g>
					<g>
						<defs>
							<path id="SVGID_127_" d="M1043.3,606.2h-2.8c-7.5,0-13.6-6-13.6-13.5v-64.4c0-7.5,6.1-13.5,13.6-13.5h2.8
								c7.5,0,13.6,6,13.6,13.5v64.4C1056.9,600.1,1050.8,606.2,1043.3,606.2z"/>
						</defs>
						<clipPath id="SVGID_128_">
							<use xlink:href="#SVGID_127_"  overflow="visible"/>
						</clipPath>
						<g clip-path="url(#SVGID_128_)">
							<g>
								<path fill="#FFFFFF" d="M940.5,619c0,13.3-2.8,28,2.3,40.7c6.4,16.2,25.2,19.8,40.7,20.8c11.5,0.8,23.2,0.3,34-4
									c8.5-3.5,15.6-9.2,21.2-16.5c12.2-16,15.3-37.7,16.1-57.2c0.6-13.8,0.3-27.8,0.4-41.7c0.1-7.5,0.2-15-0.2-22.4
									c-0.2-4.9-0.7-10-2.2-14.7c-2.4-7.2-8.6-10.4-15.9-8.9c-7.8,1.6-9.7,10.1-10.4,16.8c-0.9,8-0.7,16.2-0.7,24.2
									c0,5.7-0.1,11.4-0.1,17.1c0.4-0.5,0.9-0.9,1.3-1.3c-0.2,0-0.4,0-0.6,0c0.4,0.5,0.9,0.9,1.3,1.3c-0.3-12.2-0.6-24.3-0.8-36.5
									c-0.1-5.3-0.2-10.7-0.3-16c-0.1-4.2-1.5-8.6-4-11.9c-4.9-6.4-15.6-7.2-20.5-0.5c-2.5,3.5-3.5,8-3.5,12.4
									c0,13.3,0,26.6,0,39.8c0,4,0,8,0,12c0.5-0.5,0.9-0.9,1.3-1.3c-0.5,0-1,0-1.5,0c0.5,0.5,0.9,0.9,1.3,1.3
									c-0.2-11.6-0.3-23.2-0.5-34.8c-0.1-6.9-0.2-13.8-0.3-20.7c0-2.8,0-5.5-0.6-8.2c-1.6-7.5-6.7-13.6-14.8-13.8
									c-8.2-0.1-13,6.8-14.5,14.1c-0.5,2.8-0.5,5.5-0.5,8.4c0,6.8,0,13.6,0,20.5c0,11.3,0,22.7,0,34c0.5-0.5,0.9-0.9,1.3-1.3
									c-0.6,0-1.2,0-1.8,0c0.5,0.5,0.9,0.9,1.3,1.3c0-12.2,0-24.5,0-36.7c0-5,0-10,0-15c0-4.4-2-9-5.5-11.9
									c-6.3-5.1-17.7-3.7-21.8,3.6c-1.5,2.8-1.8,5.8-1.8,8.9c0,11,0,21.9,0,32.9C940.5,575.8,940.5,597.3,940.5,619
									c0,1.7,2.7,1.7,2.7,0c0-24.7,0-49.3,0-74c0-8.2,0.5-16.6,0-24.8c-0.1-2.1,0.3-4.3,1.2-6.2c2-4.4,6.5-5.7,11-5.6
									c6.5,0.1,11.2,5.5,11.3,11.9c0.3,17.3,0,34.7,0,52c0,0.7,0.6,1.3,1.3,1.3c0.6,0,1.2,0,1.8,0c0.7,0,1.3-0.6,1.3-1.3
									c0-11.7,0-23.3,0-35c0-6.7,0-13.3,0-20c0-3,0-5.6,0.7-8.5c0.8-3.5,2.5-7.1,5.7-9.2c3.8-2.5,9.6-2,13.2,0.9
									c3.4,2.8,5.3,8,5.4,12.4c0.2,12.7,0.3,25.3,0.5,38c0.1,7.3,0.2,14.7,0.3,22c0,0.8,0.6,1.3,1.3,1.3c0.5,0,1,0,1.5,0
									c0.7,0,1.3-0.6,1.3-1.3c0-12.1,0-24.2,0-36.3c0-5.2,0-10.4,0-15.6c0-4.5,1.1-9.8,4.8-12.6c3.7-2.8,9.5-2.1,12.8,0.8
									c2.6,2.2,4,5.7,4.7,8.9c0.6,2.8,0.5,5.9,0.5,8.8c0.4,14.4,0.6,28.8,1,43.2c0.1,1.2,0.1,2.3,0.1,3.5c0,0.7,0.6,1.3,1.3,1.3
									c0.2,0,0.4,0,0.6,0c0.8,0,1.3-0.6,1.3-1.3c0.2-10.8-0.1-21.8,0.2-32.6c0.2-6.9-0.2-19.8,7.9-22.6c3.2-1.2,7.3-0.9,10.1,1
									c3.2,2.2,4.2,6.7,4.8,10.2c1.2,6,1.2,12.2,1.2,18.2c0.1,8-0.1,16-0.2,23.9c-0.3,23.2,0.9,47.2-6.8,69.5
									c-3.2,9-7.9,17.5-14.8,24c-7.2,7-16.7,10.8-26.5,12.5c-6.3,1-12.8,0.9-19.2,0.5c-5.8-0.3-11.7-1-17.3-2.3
									c-7.3-1.8-14.8-5-19.4-11.2c-8-10.8-5.8-26.2-5.3-38.8c0-2.2,0.1-4.5,0.1-6.7C943.1,617.2,940.5,617.2,940.5,619L940.5,619z
									"/>
							</g>
						</g>
					</g>
				</g>
			</g>
		</g>
	</g>
</g>
</svg>
