<!-- Generator: Adobe Illustrator 18.0.0, SVG Export Plug-In  -->
<svg version="1.1"
	 xmlns="http://www.w3.org/2000/svg" xmlns:xlink="http://www.w3.org/1999/xlink" xmlns:a="http://ns.adobe.com/AdobeSVGViewerExtensions/3.0/"
	 x="0px" y="0px" width="227px" height="323.9px" viewBox="0 0 227 323.9" enable-background="new 0 0 227 323.9"
	 xml:space="preserve">
<defs>
</defs>
<g id="worker_2_">
	<defs>
		
			<rect id="SVGID_1_" x="108.7" y="3.4" transform="matrix(0.9823 -0.1873 0.1873 0.9823 -5.957 25.2542)" width="44" height="81.5"/>
	</defs>
	<clipPath id="SVGID_2_">
		<use xlink:href="#SVGID_1_"  overflow="visible"/>
	</clipPath>
	<g clip-path="url(#SVGID_2_)">
		<path fill="#E8C19F" d="M107.9,265.9c6.7-48.7-27.9-68.7-55.6-68l-9.8-51.5c0,0-3.3-25-25.9-20.7c-18,3.4-17.4,19.7-16.1,26.8
			c2.2,11.3,16,69.5,25.7,95.5c25.6,68.5,71.5,83.2,126,72.8c78.9-15,82.4-96.3,68.1-171.7c-4.6-24-9.1-50.9-14.6-79.9
			c-7-36.6-13.9-55.6-32.3-52.1c-20.2,3.8-18.7,23.8-11.3,62.6c4.2,22.1,7.7,41.4,7.7,41.4l-0.9,0.2l-19.6-92
			c0,0-6.2-26.4-27.3-22.4c-19.7,3.7-14.2,30.3-14.2,30.3l17.4,91.2l-2.5,0.4L101.2,24.3c0,0-6.6-27.5-28.2-23.4
			C51.2,5.1,56.4,34.8,56.4,34.8l19.5,102.3l-2.8,0.6L55.8,47.2c0,0-4.7-23-26.3-18.9C6.7,32.6,12.8,55.4,12.8,55.4l13.6,70.5
			c14.6,3.4,16.2,21,19.2,36.3l6.8,35.8C125.9,200.6,105.6,283,107.9,265.9z"/>
	</g>
	<path clip-path="url(#SVGID_2_)" fill="#F4A12C" d="M122.8,19.8l-2.5-13.1c-1.6,0.6-3.1,1.3-4.5,2.2l2.2,11.8L122.8,19.8z"/>
	<path clip-path="url(#SVGID_2_)" fill="#F06B25" d="M138.8,9l1.4,7.2l2.5-0.5l1,5.1l-34.1,6.5l-1-5.1l3.2-0.6l-1.5-8
		c-2.9,4.3-4.2,9.7-3.1,15.3c0,0.2,0.1,0.4,0.1,0.6l39.2-7.5c0-0.2,0-0.4-0.1-0.6C145.5,16.3,142.7,12,138.8,9z"/>
	<path clip-path="url(#SVGID_2_)" fill="#F39E2C" d="M134.2,17.6L132,6.2c-1.8-0.5-3.7-0.7-5.6-0.7l2.5,13.1L134.2,17.6z"/>
	<g clip-path="url(#SVGID_2_)">
		
			<rect x="105.2" y="24.2" transform="matrix(0.9823 -0.1873 0.1873 0.9823 -2.6671 24.2644)" fill="#F06B25" width="43.7" height="4.2"/>
		<polygon fill="#F06B25" points="128.9,18.6 126.7,7.4 126,3.6 119.8,4.7 120.6,8.5 122.7,19.8 		"/>
		<polygon fill="#F06B25" points="128.7,18.2 122.6,19.4 117.9,20.3 111.8,21.4 108.6,22 109.6,27.5 143.8,20.9 142.7,15.5 
			140.2,16 134.1,17.2 		"/>
		<path fill="#F06B25" d="M118,20.7l-2.7-14.3c-2.1,0.7-4.1,1.6-5.9,2.6l2.5,12.9L118,20.7z"/>
		<path fill="#F06B25" d="M140.4,16.4L138,3.8c-2.1-0.5-4.4-0.7-6.7-0.6l2.8,14.4L140.4,16.4z"/>
	</g>
	
		<ellipse transform="matrix(0.9823 -0.1873 0.1873 0.9823 -3.7441 26.5183)" clip-path="url(#SVGID_2_)" fill="#231F20" cx="138.5" cy="33.1" rx="2.1" ry="1.9"/>
	
		<ellipse transform="matrix(0.9823 -0.1873 0.1873 0.9823 -3.6715 26.3743)" clip-path="url(#SVGID_2_)" fill="#FFFFFF" cx="137.7" cy="32.6" rx="0.8" ry="0.8"/>
	
		<ellipse transform="matrix(0.9823 -0.1873 0.1873 0.9823 -4.7204 23.156)" clip-path="url(#SVGID_2_)" fill="#231F20" cx="120.2" cy="36.6" rx="2.1" ry="1.9"/>
	
		<ellipse transform="matrix(0.9823 -0.1873 0.1873 0.9823 -4.6478 23.012)" clip-path="url(#SVGID_2_)" fill="#FFFFFF" cx="119.5" cy="36.1" rx="0.8" ry="0.8"/>
	<path clip-path="url(#SVGID_2_)" fill="#C3996B" d="M134.7,65.8c-13.7,2.6-20.9-7.5-23.2-15.4c-0.5-1.7-0.4-1.4,1-1.7
		c12.3-2.4,24.7-4.7,37-7c0.3-0.1,0.6-0.1,0.8-0.2C152.4,50.3,147.1,63.4,134.7,65.8z"/>
	<path clip-path="url(#SVGID_2_)" fill="#FFFFFF" d="M133.4,59.7c-7,1.3-12.7-3.7-13.9-7.9c-0.3-1-0.2-0.8,0.6-1
		c7.6-1.4,15.1-2.9,22.7-4.3c0.2,0,0.3-0.1,0.5-0.1C144,50.9,140.2,58.4,133.4,59.7z"/>
</g>
</svg>
