<!-- Generator: Adobe Illustrator 18.0.0, SVG Export Plug-In  -->
<svg version="1.1"
	 xmlns="http://www.w3.org/2000/svg" xmlns:xlink="http://www.w3.org/1999/xlink" xmlns:a="http://ns.adobe.com/AdobeSVGViewerExtensions/3.0/"
	 x="0px" y="0px" width="244.2px" height="370.1px" viewBox="0 0 244.2 370.1" enable-background="new 0 0 244.2 370.1"
	 xml:space="preserve">
<defs>
</defs>
<g id="worker_1_">
	<defs>
		
			<rect id="SVGID_1_" x="141.5" y="13.9" transform="matrix(1 -3.468439e-03 3.468439e-03 1 -0.2061 0.577)" width="49.5" height="91.7"/>
	</defs>
	<clipPath id="SVGID_2_">
		<use xlink:href="#SVGID_1_"  overflow="visible"/>
	</clipPath>
	<g clip-path="url(#SVGID_2_)">
		<path fill="#E8C19F" d="M95.2,300.2c17.4-52.5-16.6-81.7-47.4-86.7l-0.2-59c0,0,1.5-28.3-24.4-28.2C2.7,126.5,0,144.6,0,152.7
			c0,12.9,3.3,80.1,8.7,110.9c14.2,81,61.8,106.7,124.3,106.5c90.3-0.3,111.1-89.4,110.8-175.8c-0.1-27.5,0.5-58.2,0.4-91.3
			c-0.1-41.9-3.9-64.3-25-64.3c-23.1,0-25.6,22.4-25.4,66.9c0.1,25.3-0.1,47.4-0.1,47.4l-1.1,0l-2.7-105.7c0,0-1.3-30.5-25.6-30.4
			c-22.5,0.1-22,30.6-22,30.6l0.3,104.4l-2.8-0.1l-2-120.1c0,0-1.6-31.7-26.4-31.7c-25,0.1-25.4,34-25.4,34l0.4,117.1l-3.3,0.1
			L82.8,47.6c0,0-0.4-26.4-25.1-26.3c-26.2,0.1-24.1,26.5-24.1,26.5l0.5,80.7c15.5,6.8,13.6,26.5,13.7,44.1l0.1,41
			C128.6,231.7,89.1,318.6,95.2,300.2z"/>
	</g>
	<path clip-path="url(#SVGID_2_)" fill="#F4A12C" d="M162.6,31.1l-0.1-15c-1.9,0.3-3.7,0.8-5.5,1.5l0,13.5L162.6,31.1z"/>
	<path clip-path="url(#SVGID_2_)" fill="#F06B25" d="M182.6,22.6l0,8.2l2.9,0l0,5.8l-39.1,0.1l0-5.8l3.7,0l0-9.2
		c-4.1,4.1-6.6,9.9-6.6,16.2c0,0.2,0,0.5,0,0.7l44.9-0.2c0-0.2,0-0.5,0-0.7C188.4,31.9,186.2,26.6,182.6,22.6z"/>
	<path clip-path="url(#SVGID_2_)" fill="#F39E2C" d="M175.6,31.1l0-13.1c-1.9-0.9-3.9-1.6-6.1-1.9l0.1,15L175.6,31.1z"/>
	<g clip-path="url(#SVGID_2_)">
		
			<rect x="141.4" y="36.8" transform="matrix(1 -3.468439e-03 3.468439e-03 1 -0.1349 0.5759)" fill="#F06B25" width="49.1" height="4.7"/>
		<polygon fill="#F06B25" points="169.5,31.1 169.5,18.2 169.5,13.9 162.4,13.9 162.5,18.3 162.5,31.1 		"/>
		<polygon fill="#F06B25" points="169.4,30.6 162.5,30.6 157,30.7 150.1,30.7 146.4,30.7 146.4,36.9 185.5,36.8 185.5,30.6 
			182.6,30.6 175.7,30.6 		"/>
		<path fill="#F06B25" d="M157.1,31.1L157,14.7c-2.5,0.3-4.9,0.9-7.1,1.7l0.1,14.7L157.1,31.1z"/>
		<path fill="#F06B25" d="M182.8,31l-0.1-14.4c-2.3-1-4.7-1.7-7.3-2.1l0.1,16.5L182.8,31z"/>
	</g>
	
		<ellipse transform="matrix(1 -3.468439e-03 3.468439e-03 1 -0.1692 0.6148)" display="none" clip-path="url(#SVGID_2_)" fill="#231F20" cx="177.2" cy="49.1" rx="2.3" ry="2.2"/>
	<ellipse display="none" clip-path="url(#SVGID_2_)" fill="#FFFFFF" cx="176.5" cy="48.4" rx="0.9" ry="0.8"/>
	
		<ellipse transform="matrix(1 -3.468439e-03 3.468439e-03 1 -0.1696 0.5422)" display="none" clip-path="url(#SVGID_2_)" fill="#231F20" cx="156.2" cy="49.2" rx="2.3" ry="2.2"/>
	<ellipse display="none" clip-path="url(#SVGID_2_)" fill="#FFFFFF" cx="155.5" cy="48.5" rx="0.9" ry="0.8"/>
	<path clip-path="url(#SVGID_2_)" fill="#C3996B" d="M166.2,84.5c-15.7,0.1-21.6-12.6-22.5-21.9c-0.2-2-0.1-1.6,1.5-1.6
		c14.1-0.1,28.2-0.1,42.4-0.1c0.3,0,0.6,0,1,0C189,71,180.4,84.4,166.2,84.5z"/>
	<path clip-path="url(#SVGID_2_)" fill="#FFFFFF" d="M166,77.4c-8,0-13.3-6.7-13.8-11.6c-0.1-1.2-0.1-0.9,0.9-1
		c8.6,0,17.3-0.1,25.9-0.1c0.2,0,0.4,0,0.6,0C179.5,69.9,173.8,77.4,166,77.4z"/>
</g>
</svg>
