<!-- Generator: Adobe Illustrator 18.0.0, SVG Export Plug-In  -->
<svg version="1.1"
	 xmlns="http://www.w3.org/2000/svg" xmlns:xlink="http://www.w3.org/1999/xlink" xmlns:a="http://ns.adobe.com/AdobeSVGViewerExtensions/3.0/"
	 x="0px" y="0px" width="696.3px" height="69px" viewBox="0 0 696.3 69" enable-background="new 0 0 696.3 69" xml:space="preserve"
	>
<defs>
</defs>
<circle fill="#FFFFFF" cx="429.9" cy="15.6" r="7.7"/>
<line fill="none" stroke="#FFFFFF" stroke-width="1.8928" stroke-miterlimit="10" x1="0.1" y1="31.2" x2="420.1" y2="31.2"/>
<g>
	<path fill="#FFFFFF" d="M129.9,23l-2-6l-7.6,0l-2,6l-3.4,0l7.5-21.7l3.6,0l7.5,21.7L129.9,23z M127.1,13.9L125.2,8
		c-0.1-0.4-0.3-1-0.6-1.9c-0.2-0.8-0.4-1.5-0.5-1.9c-0.2,1.2-0.6,2.5-1.1,4l-1.8,5.6L127.1,13.9z"/>
	<path fill="#FFFFFF" d="M140.8,23.3c-1.9,0-3.4-0.7-4.4-2.2s-1.6-3.6-1.6-6.2c0-2.7,0.5-4.8,1.6-6.3c1.1-1.5,2.6-2.2,4.5-2.2
		c2,0,3.5,0.8,4.5,2.4h0.2c-0.2-1.2-0.2-2.1-0.2-2.8l0-6l3.2,0l0,23l-2.5,0l-0.6-2.1h-0.2C144.3,22.5,142.8,23.3,140.8,23.3z
		 M141.6,20.5c1.3,0,2.3-0.4,2.9-1.2c0.6-0.8,0.9-2.1,0.9-3.9l0-0.5c0-2.1-0.3-3.5-0.9-4.4c-0.6-0.9-1.6-1.3-2.9-1.3
		c-1.1,0-2,0.5-2.6,1.5c-0.6,1-0.9,2.4-0.9,4.2c0,1.8,0.3,3.2,0.9,4.1C139.6,20,140.4,20.5,141.6,20.5z"/>
	<path fill="#FFFFFF" d="M159.7,23.3c-2.4,0-4.2-0.7-5.5-2.2c-1.3-1.5-2-3.5-2-6.1c0-2.7,0.6-4.8,1.9-6.3c1.2-1.5,2.9-2.3,5.1-2.3
		c2,0,3.6,0.7,4.7,2c1.2,1.3,1.7,3.1,1.7,5.4l0,1.9l-10.1,0c0,1.6,0.4,2.8,1.2,3.7c0.7,0.9,1.8,1.3,3.2,1.3c0.9,0,1.7-0.1,2.5-0.3
		c0.8-0.2,1.6-0.5,2.5-0.9l0,2.8c-0.8,0.4-1.6,0.7-2.4,0.9C161.7,23.2,160.7,23.3,159.7,23.3z M159.2,9c-1,0-1.8,0.3-2.5,1
		c-0.6,0.7-1,1.7-1.1,3.1l6.9,0c0-1.4-0.3-2.4-0.9-3.1C161,9.4,160.2,9,159.2,9z"/>
	<path fill="#FFFFFF" d="M172.5,23l-3.2,0l0-23l3.2,0L172.5,23z"/>
	<path fill="#FFFFFF" d="M186.5,23.1l-0.6-2.3l-0.1,0c-0.7,1-1.5,1.7-2.2,2c-0.7,0.4-1.7,0.5-2.8,0.5c-1.5,0-2.6-0.4-3.5-1.3
		c-0.8-0.9-1.2-2.1-1.2-3.7c0-1.7,0.6-3,1.7-3.8c1.2-0.9,2.9-1.3,5.3-1.4l2.6-0.1l0-0.9c0-1-0.2-1.8-0.7-2.3
		c-0.5-0.5-1.2-0.8-2.1-0.8c-0.8,0-1.5,0.1-2.2,0.4c-0.7,0.2-1.4,0.5-2.1,0.9l-1-2.5c0.8-0.5,1.7-0.8,2.7-1.1c1-0.2,1.9-0.4,2.8-0.4
		c1.9,0,3.4,0.5,4.4,1.4s1.5,2.3,1.5,4.3l0,11L186.5,23.1z M181.7,20.7c1.2,0,2.1-0.4,2.8-1.1c0.7-0.7,1.1-1.7,1.1-3l0-1.4l-1.9,0.1
		c-1.5,0.1-2.6,0.3-3.3,0.8c-0.7,0.5-1,1.2-1,2.2c0,0.7,0.2,1.3,0.6,1.7S180.9,20.7,181.7,20.7z"/>
	<path fill="#FFFFFF" d="M193.1,2.4c0-0.6,0.2-1.1,0.5-1.4c0.3-0.3,0.8-0.5,1.3-0.5c0.6,0,1,0.2,1.3,0.5c0.3,0.3,0.5,0.8,0.5,1.4
		c0,0.6-0.2,1.1-0.5,1.4c-0.3,0.3-0.8,0.5-1.3,0.5c-0.6,0-1-0.2-1.3-0.5C193.3,3.4,193.1,3,193.1,2.4z M196.5,23.1l-3.2,0l0-16.4
		l3.2,0L196.5,23.1z"/>
	<path fill="#FFFFFF" d="M206.2,23.4c-1.9,0-3.4-0.7-4.4-2.2s-1.6-3.6-1.6-6.2c0-2.7,0.5-4.8,1.6-6.3c1.1-1.5,2.6-2.2,4.5-2.2
		c2,0,3.5,0.8,4.5,2.4h0.2c-0.2-1.2-0.2-2.1-0.2-2.8l0-6l3.2,0l0,23l-2.5,0l-0.6-2.1h-0.2C209.7,22.6,208.2,23.4,206.2,23.4z
		 M207.1,20.6c1.3,0,2.3-0.4,2.9-1.2c0.6-0.8,0.9-2.1,0.9-3.9l0-0.5c0-2.1-0.3-3.5-0.9-4.4c-0.6-0.9-1.6-1.3-2.9-1.3
		c-1.1,0-2,0.5-2.6,1.5c-0.6,1-0.9,2.4-0.9,4.2c0,1.8,0.3,3.2,0.9,4.1C205,20.1,205.9,20.6,207.1,20.6z"/>
	<path fill="#FFFFFF" d="M225.2,23.4c-2.4,0-4.2-0.7-5.5-2.2s-2-3.5-2-6.1c0-2.7,0.6-4.8,1.9-6.3c1.2-1.5,2.9-2.3,5.1-2.3
		c2,0,3.6,0.7,4.7,2c1.2,1.3,1.7,3.1,1.7,5.4l0,1.9l-10.1,0c0,1.6,0.4,2.8,1.2,3.7c0.7,0.9,1.8,1.3,3.2,1.3c0.9,0,1.7-0.1,2.5-0.3
		c0.8-0.2,1.6-0.5,2.5-0.9l0,2.8c-0.8,0.4-1.6,0.7-2.4,0.9C227.1,23.3,226.2,23.4,225.2,23.4z M224.6,9.1c-1,0-1.8,0.3-2.5,1
		c-0.6,0.7-1,1.7-1.1,3.1l6.9,0c0-1.4-0.3-2.4-0.9-3.1C226.4,9.4,225.6,9.1,224.6,9.1z"/>
	<path fill="#FFFFFF" d="M245.5,23.1l-3.2,0l0-21.6l11.3,0l0,3l-8,0l0,6.8l7.5,0l0,3l-7.5,0L245.5,23.1z"/>
	<path fill="#FFFFFF" d="M270.3,15c0,2.7-0.6,4.8-1.9,6.3c-1.3,1.5-3,2.2-5.3,2.2c-1.4,0-2.7-0.3-3.7-1s-1.9-1.7-2.5-3
		c-0.6-1.3-0.9-2.8-0.9-4.5c0-2.7,0.6-4.7,1.9-6.2c1.3-1.5,3-2.2,5.3-2.2c2.2,0,3.9,0.8,5.2,2.3C269.7,10.3,270.3,12.4,270.3,15z
		 M259.3,14.9c0,3.8,1.3,5.7,3.9,5.7c2.6,0,3.8-1.9,3.8-5.7c0-3.7-1.3-5.6-3.8-5.6c-1.3,0-2.3,0.5-2.9,1.4
		C259.6,11.8,259.3,13.1,259.3,14.9z"/>
	<path fill="#FFFFFF" d="M287.4,15c0,2.7-0.6,4.8-1.9,6.3s-3,2.2-5.3,2.2c-1.4,0-2.7-0.3-3.7-1s-1.9-1.7-2.5-3
		c-0.6-1.3-0.9-2.8-0.9-4.5c0-2.7,0.6-4.7,1.9-6.2c1.3-1.5,3-2.2,5.3-2.2c2.2,0,3.9,0.8,5.2,2.3C286.8,10.3,287.4,12.4,287.4,15z
		 M276.4,15c0,3.8,1.3,5.7,3.9,5.7c2.6,0,3.8-1.9,3.8-5.7c0-3.7-1.3-5.6-3.8-5.6c-1.3,0-2.3,0.5-2.9,1.4
		C276.7,11.8,276.4,13.2,276.4,15z"/>
	<path fill="#FFFFFF" d="M296.7,20.7c0.8,0,1.6-0.1,2.4-0.4l0,2.6c-0.4,0.2-0.8,0.3-1.4,0.4c-0.6,0.1-1.1,0.2-1.7,0.2
		c-3,0-4.6-1.7-4.6-5.2l0-8.8l-2.1,0l0-1.5l2.2-1.3l1.1-3.5l2,0l0,3.6l4.3,0l0,2.6l-4.3,0l0,8.8c0,0.8,0.2,1.5,0.6,1.9
		C295.6,20.5,296.1,20.7,296.7,20.7z"/>
	<path fill="#FFFFFF" d="M309.8,6.6c1.9,0,3.4,0.7,4.4,2.2c1.1,1.5,1.6,3.6,1.6,6.2c0,2.7-0.5,4.8-1.6,6.3c-1.1,1.5-2.6,2.2-4.4,2.2
		c-1.9,0-3.4-0.7-4.5-2.2l-0.2,0l-0.6,1.9l-2.4,0l0-23l3.2,0l0,5.5c0,0.4,0,1-0.1,1.8c0,0.8-0.1,1.3-0.1,1.5l0.1,0
		C306.3,7.4,307.8,6.6,309.8,6.6z M309,9.4c-1.3,0-2.2,0.4-2.8,1.2c-0.6,0.8-0.9,2.2-0.9,4.1V15c0,2,0.3,3.4,0.9,4.3
		c0.6,0.9,1.5,1.3,2.9,1.3c1.1,0,2-0.5,2.6-1.5c0.6-1,0.9-2.4,0.9-4.2C312.5,11.3,311.3,9.4,309,9.4z"/>
	<path fill="#FFFFFF" d="M329,23.2l-0.6-2.3h-0.1c-0.7,1-1.5,1.7-2.2,2c-0.7,0.4-1.7,0.5-2.8,0.5c-1.5,0-2.6-0.4-3.5-1.3
		s-1.2-2.1-1.2-3.7c0-1.7,0.6-3,1.7-3.8c1.2-0.9,2.9-1.3,5.3-1.4l2.6-0.1l0-0.9c0-1-0.2-1.8-0.7-2.3c-0.5-0.5-1.2-0.8-2.1-0.8
		c-0.8,0-1.5,0.1-2.2,0.4c-0.7,0.2-1.4,0.5-2.1,0.9L320,8c0.8-0.5,1.7-0.8,2.7-1.1c1-0.2,1.9-0.4,2.8-0.4c1.9,0,3.4,0.5,4.4,1.4
		c1,0.9,1.5,2.3,1.5,4.3l0,11L329,23.2z M324.2,20.9c1.2,0,2.1-0.3,2.8-1.1c0.7-0.7,1.1-1.7,1.1-3l0-1.4l-1.9,0.1
		c-1.5,0.1-2.6,0.3-3.3,0.8c-0.7,0.5-1,1.2-1,2.2c0,0.7,0.2,1.3,0.6,1.7S323.4,20.9,324.2,20.9z"/>
	<path fill="#FFFFFF" d="M339,23.3l-3.2,0l0-23l3.2,0L339,23.3z"/>
	<path fill="#FFFFFF" d="M346.8,23.3l-3.2,0l0-23l3.2,0L346.8,23.3z"/>
	<path fill="#FFFFFF" d="M367.5,4.4c-1.9,0-3.4,0.7-4.4,2.2c-1.1,1.4-1.6,3.4-1.6,6c0,2.7,0.5,4.7,1.5,6c1,1.4,2.5,2,4.5,2
		c0.8,0,1.7-0.1,2.5-0.3c0.8-0.2,1.6-0.4,2.5-0.7l0,3c-1.6,0.6-3.3,1-5.3,1c-2.9,0-5.2-1-6.7-2.9c-1.6-1.9-2.3-4.7-2.3-8.2
		c0-2.2,0.4-4.2,1.1-5.9c0.8-1.7,1.9-3,3.3-3.9c1.4-0.9,3.1-1.3,5.1-1.3c2,0,3.9,0.5,5.7,1.4L372,5.7c-0.7-0.3-1.4-0.6-2.1-0.9
		C369.2,4.5,368.4,4.4,367.5,4.4z"/>
	<path fill="#FFFFFF" d="M379.6,23.3l-3.2,0l0-23l3.2,0L379.6,23.3z"/>
	<path fill="#FFFFFF" d="M394.9,23.3l-0.4-2.1h-0.2c-0.4,0.8-1.1,1.4-1.9,1.8c-0.8,0.4-1.8,0.6-2.8,0.6c-1.8,0-3.2-0.5-4.1-1.5
		c-0.9-1-1.3-2.5-1.3-4.5l0-10.7l3.2,0l0,10.1c0,1.3,0.2,2.2,0.7,2.8s1.2,0.9,2.2,0.9c1.3,0,2.3-0.4,3-1.3c0.6-0.9,1-2.3,1-4.4
		l0-8.1l3.2,0l0,16.4L394.9,23.3z"/>
	<path fill="#FFFFFF" d="M409.7,6.7c1.9,0,3.4,0.7,4.4,2.2c1.1,1.5,1.6,3.6,1.6,6.2c0,2.7-0.5,4.8-1.6,6.3c-1.1,1.5-2.6,2.2-4.4,2.2
		c-1.9,0-3.4-0.7-4.5-2.2l-0.2,0l-0.6,1.9l-2.4,0l0-23l3.2,0l0,5.5c0,0.4,0,1-0.1,1.8c0,0.8-0.1,1.3-0.1,1.5l0.1,0
		C406.2,7.5,407.8,6.7,409.7,6.7z M408.9,9.5c-1.3,0-2.2,0.4-2.8,1.2c-0.6,0.8-0.9,2.2-0.9,4.1v0.2c0,2,0.3,3.4,0.9,4.3
		c0.6,0.9,1.5,1.3,2.9,1.3c1.1,0,2-0.5,2.6-1.5c0.6-1,0.9-2.4,0.9-4.2C412.4,11.4,411.3,9.5,408.9,9.5z"/>
</g>
<g>
	<path fill="#FFFFFF" d="M15.6,62c0,2.2-0.8,3.9-2.3,5.1S9.5,69,6.8,69c-2.8,0-5-0.4-6.8-1.3v-3.8c1.1,0.5,2.3,0.9,3.5,1.2
		c1.2,0.3,2.4,0.4,3.5,0.4c1.6,0,2.7-0.3,3.5-0.9c0.7-0.6,1.1-1.4,1.1-2.4c0-0.9-0.3-1.7-1-2.3c-0.7-0.6-2.1-1.4-4.3-2.2
		c-2.2-0.9-3.8-1.9-4.7-3.1c-0.9-1.2-1.4-2.5-1.4-4.2c0-2,0.7-3.6,2.2-4.8C3.9,44.5,5.8,44,8.3,44c2.3,0,4.6,0.5,7,1.5l-1.3,3.2
		c-2.2-0.9-4.1-1.4-5.8-1.4c-1.3,0-2.3,0.3-2.9,0.8c-0.7,0.6-1,1.3-1,2.2c0,0.6,0.1,1.2,0.4,1.6c0.3,0.4,0.7,0.9,1.3,1.3
		c0.6,0.4,1.7,0.9,3.3,1.6c1.8,0.7,3.1,1.4,3.9,2.1c0.8,0.6,1.4,1.4,1.8,2.2C15.4,60,15.6,60.9,15.6,62z"/>
	<path fill="#FFFFFF" d="M19.6,45.3c0-0.7,0.2-1.2,0.6-1.6s0.9-0.6,1.6-0.6c0.7,0,1.2,0.2,1.6,0.6s0.6,0.9,0.6,1.6
		c0,0.7-0.2,1.2-0.6,1.6c-0.4,0.4-0.9,0.6-1.6,0.6c-0.7,0-1.3-0.2-1.6-0.6C19.8,46.5,19.6,46,19.6,45.3z M23.8,68.6h-3.9V50.2h3.9
		V68.6z"/>
	<path fill="#FFFFFF" d="M45.5,68.6h-3.9V57.3c0-1.4-0.3-2.5-0.9-3.2s-1.5-1-2.7-1c-1.7,0-2.9,0.5-3.6,1.5c-0.8,1-1.1,2.6-1.1,4.9
		v9.2h-3.9V50.2h3.1l0.5,2.4h0.2c0.6-0.9,1.3-1.6,2.4-2c1-0.5,2.2-0.7,3.4-0.7c4.4,0,6.6,2.2,6.6,6.7V68.6z"/>
	<path fill="#FFFFFF" d="M58.4,69c-2.8,0-4.9-0.8-6.3-2.4c-1.4-1.6-2.2-4-2.2-7c0-3.1,0.8-5.5,2.3-7.1s3.7-2.5,6.6-2.5
		c1.9,0,3.7,0.4,5.2,1.1l-1.2,3.1c-1.7-0.6-3-1-4.1-1c-3.2,0-4.8,2.1-4.8,6.3c0,2.1,0.4,3.6,1.2,4.6c0.8,1,2,1.6,3.5,1.6
		c1.7,0,3.4-0.4,4.9-1.3v3.4c-0.7,0.4-1.4,0.7-2.2,0.9S59.5,69,58.4,69z"/>
	<path fill="#FFFFFF" d="M75.9,69c-2.9,0-5.1-0.8-6.7-2.5c-1.6-1.7-2.4-4-2.4-6.9c0-3,0.7-5.4,2.2-7.1c1.5-1.7,3.6-2.6,6.2-2.6
		c2.4,0,4.3,0.7,5.8,2.2s2.1,3.5,2.1,6.1v2.1H70.8c0.1,1.8,0.5,3.2,1.4,4.1c0.9,1,2.2,1.4,3.8,1.4c1.1,0,2.1-0.1,3-0.3
		c0.9-0.2,1.9-0.5,3-1v3.2c-1,0.5-1.9,0.8-2.9,1C78.3,68.9,77.1,69,75.9,69z M75.2,52.9c-1.2,0-2.2,0.4-3,1.2
		c-0.7,0.8-1.2,1.9-1.3,3.4h8.4c0-1.5-0.4-2.7-1.1-3.5S76.4,52.9,75.2,52.9z"/>
	<path fill="#FFFFFF" d="M97.7,68.6h-3.9V52.9c0-1.9,0-3.4,0.1-4.5c-0.3,0.3-0.6,0.6-0.9,0.9c-0.4,0.3-1.6,1.3-3.7,3.1l-2-2.5
		l7.2-5.6h3.3V68.6z"/>
	<path fill="#FFFFFF" d="M122.1,54.7c0,4.8-1,8.4-2.9,10.7c-1.9,2.4-4.8,3.5-8.7,3.5c-1.5,0-2.5-0.1-3.2-0.3v-3.3c1,0.3,2,0.4,3,0.4
		c2.6,0,4.6-0.7,5.9-2.1c1.3-1.4,2-3.6,2.1-6.7h-0.2c-0.7,1-1.4,1.7-2.4,2.2c-0.9,0.4-2,0.7-3.3,0.7c-2.2,0-3.8-0.7-5.1-2
		c-1.2-1.3-1.8-3.2-1.8-5.5c0-2.5,0.7-4.6,2.1-6.1c1.4-1.5,3.4-2.3,5.8-2.3c1.7,0,3.2,0.4,4.5,1.3s2.3,2.1,3,3.7
		C121.7,50.5,122.1,52.4,122.1,54.7z M113.6,47.2c-1.4,0-2.4,0.4-3.1,1.3s-1.1,2.1-1.1,3.7c0,1.4,0.3,2.5,1,3.3
		c0.7,0.8,1.7,1.2,3.1,1.2c1.3,0,2.4-0.4,3.3-1.2c0.9-0.8,1.3-1.7,1.3-2.8c0-1-0.2-1.9-0.6-2.8c-0.4-0.9-0.9-1.5-1.6-2
		C115.3,47.5,114.5,47.2,113.6,47.2z"/>
	<path fill="#FFFFFF" d="M141.5,54.7c0,4.8-1,8.4-2.9,10.7c-1.9,2.4-4.8,3.5-8.7,3.5c-1.5,0-2.5-0.1-3.2-0.3v-3.3c1,0.3,2,0.4,3,0.4
		c2.6,0,4.6-0.7,5.9-2.1c1.3-1.4,2-3.6,2.1-6.7h-0.2c-0.7,1-1.4,1.7-2.4,2.2c-0.9,0.4-2,0.7-3.3,0.7c-2.2,0-3.8-0.7-5.1-2
		c-1.2-1.3-1.8-3.2-1.8-5.5c0-2.5,0.7-4.6,2.1-6.1c1.4-1.5,3.4-2.3,5.8-2.3c1.7,0,3.2,0.4,4.5,1.3s2.3,2.1,3,3.7
		C141.2,50.5,141.5,52.4,141.5,54.7z M133.1,47.2c-1.4,0-2.4,0.4-3.1,1.3s-1.1,2.1-1.1,3.7c0,1.4,0.3,2.5,1,3.3
		c0.7,0.8,1.7,1.2,3.1,1.2c1.3,0,2.4-0.4,3.3-1.2c0.9-0.8,1.3-1.7,1.3-2.8c0-1-0.2-1.9-0.6-2.8c-0.4-0.9-0.9-1.5-1.6-2
		C134.7,47.5,133.9,47.2,133.1,47.2z"/>
	<path fill="#FFFFFF" d="M161,56.5c0,4.2-0.7,7.4-2,9.4s-3.4,3.1-6.2,3.1c-2.7,0-4.8-1.1-6.2-3.2c-1.4-2.1-2.1-5.2-2.1-9.3
		c0-4.3,0.7-7.5,2-9.5c1.4-2,3.4-3.1,6.2-3.1c2.7,0,4.8,1.1,6.2,3.2S161,52.4,161,56.5z M148.5,56.5c0,3.3,0.3,5.7,1,7.1
		s1.8,2.1,3.3,2.1s2.6-0.7,3.3-2.2c0.7-1.4,1-3.8,1-7.1c0-3.3-0.3-5.6-1-7.1c-0.7-1.5-1.8-2.2-3.3-2.2s-2.6,0.7-3.3,2.1
		S148.5,53.1,148.5,56.5z"/>
</g>
<line fill="none" stroke="#FFFFFF" stroke-width="1.8928" stroke-miterlimit="10" x1="696.3" y1="15.6" x2="429.9" y2="15.6"/>
</svg>
