<!-- Generator: Adobe Illustrator 18.0.0, SVG Export Plug-In  -->
<svg version="1.1"
	 xmlns="http://www.w3.org/2000/svg" xmlns:xlink="http://www.w3.org/1999/xlink" xmlns:a="http://ns.adobe.com/AdobeSVGViewerExtensions/3.0/"
	 x="0px" y="0px" width="407.2px" height="285.6px" viewBox="0 0 407.2 285.6" enable-background="new 0 0 407.2 285.6"
	 xml:space="preserve">
<defs>
</defs>
<g>
	<path fill="none" stroke="#148141" stroke-width="8" stroke-miterlimit="10" stroke-dasharray="10,7" d="M37.7,235.4L37.7,235.4
		c0,0-1.1,30.1,5.9,36.1s7,10,15,9.5s16-5.5,21.5-5s23,4.1,38,5s132.5,0.5,155-2s33,2,40,2.5s10.5,0,16.5-7.5s16.5-23.5,17-27.5
		c0.2-1.9,3.7-8.1,2.7-11.1c-38.2,23.3-109.9,30.4-156.7,30.6C129,266.2,73.8,259.4,37.7,235.4z"/>
	<path fill="none" stroke="#148141" stroke-width="8" stroke-miterlimit="10" stroke-dasharray="10,7" d="M75.1,253.9
		c0,0-1,17.3,0,18.2c0.8,0.7,13.6,0.3,19.5,0.1c1.7-0.1,2.9-1.5,2.8-3.1l0,0l-0.1-9.7"/>
	<path fill="none" stroke="#148141" stroke-width="8" stroke-miterlimit="10" stroke-dasharray="10,7" d="M267.6,259.9
		c0,0-0.6,10.4,0.4,11.2c0.8,0.7,13.6,0.2,19.5,0c1.6-0.1,2.9-1.5,2.8-3.1l0,0c0,0,0,0,0,0l-0.5-10.7"/>
	<path fill="none" stroke="#FFFFFF" stroke-width="8" stroke-miterlimit="10" stroke-dasharray="10,7" d="M393.3,123
		c0,0-0.4,0.7-1.1,1.5C392.8,124,393.3,123,393.3,123z"/>
	<path fill="none" stroke="#148141" stroke-width="8" stroke-miterlimit="10" stroke-dasharray="10,7" d="M207.2,20.1
		c-7.7,3.7,23-13,34-15s22.5-0.5,29.5,0s31.5,7.5,45,25s36,58.5,36,65s3,23-7.5,29.5c-10.5,6.5-25.5,7-40-8.5s-21.5-40.6-40-63.8
		S241.2,3.6,207.2,20.1z"/>
	<path fill="none" stroke="#148141" stroke-width="8" stroke-miterlimit="10" stroke-dasharray="10,7" d="M401.2,226.5
		c-0.5-12-3.8-41.7-18.3-75.3c-14.5-33.6-40-77-40-77l0,0c5.2,10,8.8,18.1,8.8,20.8c0,3,0.6,8.1,0.3,13.4
		c10.3,18,22.5,42.8,27.7,65.9c9.7,43.3,12.7,90.8,15.2,92.7C404.7,267.5,401.7,238.5,401.2,226.5z"/>
	<path fill="none" stroke="#148141" stroke-width="8" stroke-miterlimit="10" stroke-dasharray="10,7" d="M379.7,174.3
		c-5.2-23.1-17.4-47.9-27.7-65.9c-0.4,6.2-2.1,12.6-7.8,16.1c-7,4.3-16,6-25.5,2c6.8,15.5,14,32.3,16,37.7
		c4,10.8,10.2,37.3,13.4,60.8s3.2,33.2,12.6,35.1s24.4,6.6,34.2,7C392.4,265.2,389.3,217.7,379.7,174.3z"/>
	<polygon fill="none" stroke="#363A38" stroke-width="8" stroke-miterlimit="10" stroke-dasharray="10,7" points="335.5,82 
		335.5,82 335.5,82 	"/>
	<path fill="none" stroke="#148141" stroke-width="8" stroke-miterlimit="10" stroke-dasharray="10,7" d="M378.1,95.2 M384.5,151.6
		c4.7-0.3,8.1-8.6,7.8-14.3c-0.3-5.7-2.6-4.9,0.7-8.9c3.3-4.1,1.3-2.7,0.3-10.4c-1-7.7-2.3-17-4-21.3c-1.7-4.3-0.7-7.7,1-11
		c1.7-3.3,1.3-4-1.7-2.3c-1,0.6-2.6,2.2-4.3,4.2l0.3-0.5c5-8,7-28.5,7-35s-1-22.5-12-22c-3.9,0.2-7.4,1.2-10.3,2.5
		c-1.3-9.2-2.9-14.7-4.7-14.5c-10,1-2,2-16,3c-3,0.2-18.2,0.5-40.5,0.8C289.7,22,50.6,22.8,41.3,20L32,18.4c-1-1-6.7-1.4-7.9,5.1
		c-14.4,79-35.7,165.6-2.4,198.9c34.5,34.6,97,43.8,171,43.6 M374.7,51.7c-0.7,1.1-1.9,1.8-3.2,2.4c-0.5-5.8-1-11.2-1.5-15.8
		C376.6,40.7,377.3,47.7,374.7,51.7z"/>
</g>
</svg>
