<!-- Generator: Adobe Illustrator 18.0.0, SVG Export Plug-In  -->
<svg version="1.1"
	 xmlns="http://www.w3.org/2000/svg" xmlns:xlink="http://www.w3.org/1999/xlink" xmlns:a="http://ns.adobe.com/AdobeSVGViewerExtensions/3.0/"
	 x="0px" y="0px" width="89.2px" height="269.2px" viewBox="0 0 89.2 269.2" enable-background="new 0 0 89.2 269.2"
	 xml:space="preserve">
<defs>
</defs>
<path fill="none" stroke="#B6407B" stroke-width="5" stroke-miterlimit="10" stroke-dasharray="12,5" d="M53,2.5
	c1.6,0.1,3.3,0.3,4.9,0.4c4.6,0.3,7.5,2,4.6,5.9c-0.4,0.5-0.1,1.4,0.1,2c0.8,2.6,2,5.2,2.3,7.9c0.1,1.2-1.4,2.6-2.1,3.9
	c-0.4,0.8-1.2,1.6-1.1,2.4c0.5,6.8,1.2,13.7,1.8,20.5c0.8,8.5,1.7,17,2.5,25.4c0.6,6,0.8,11.9,1.8,17.9c0.4,2.8,1.8,5.6,3.4,8
	c2.4,3.6,5.6,6.9,8.4,10.4c5,6.2,7.6,12.8,7.1,20.2c-0.3,5.6-0.2,11.3-0.2,16.9c-0.2,23.7-0.3,47.4-0.6,71.2
	c-0.1,12.5-0.3,25-0.5,37.5c0,1.5-0.3,3-0.7,4.5c-1.2,4.2-5.1,6-10,6.8c-12.5,2-25.2,2.6-37.9,2c-7.7-0.4-15.4-1.1-22.9-2.4
	c-9-1.6-9.9-3.1-10-10.2c-0.4-29.6-0.5-59.1-0.7-88.7c-0.1-12.8,0-25.6-0.6-38.4c-0.4-8.1,2.5-15.2,8.5-21.7c1.6-1.7,3-3.5,4.6-5.3
	c4.9-5.3,5.5-11.4,6-17.6c0.7-8.6,1.7-17.2,2.5-25.9c0.8-8.1,1.5-16.2,2.2-24.2c0.2-2.3,0.4-4.7,0.8-7c0.2-1,0.1-1.7-1.3-2.3
	c-2.4-1.2-3.2-3-2.4-5.2c0.8-2.1,1.9-4.2,3-6.3c0.6-1.1,0.7-1.9-0.6-2.9c-0.8-0.6-1.2-2-0.9-2.9c0.4-1.2,1.4-2.2,3.5-2.3
	c3.1-0.1,6.2-0.5,9.3-0.8C42.9,2.5,47.9,2.5,53,2.5z"/>
</svg>
