<!-- Generator: Adobe Illustrator 18.0.0, SVG Export Plug-In  -->
<svg version="1.1"
	 xmlns="http://www.w3.org/2000/svg" xmlns:xlink="http://www.w3.org/1999/xlink" xmlns:a="http://ns.adobe.com/AdobeSVGViewerExtensions/3.0/"
	 x="0px" y="0px" width="67.6px" height="183.9px" viewBox="0 0 67.6 183.9" enable-background="new 0 0 67.6 183.9"
	 xml:space="preserve">
<defs>
</defs>
<g>
	<path fill="#502813" d="M39.5,1.3c1.1,0.1,2.3,0.2,3.4,0.3c3.2,0.2,5.2,1.4,3.2,4.1c-0.3,0.3-0.1,1,0.1,1.4
		c0.5,1.8,1.4,3.6,1.6,5.5c0.1,0.9-0.9,1.8-1.4,2.7c-0.3,0.5-0.8,1.1-0.8,1.7c0.4,4.7,0.8,9.5,1.3,14.2c0.6,5.9,1.2,11.7,1.7,17.6
		c0.4,4.1,0.6,8.2,1.2,12.3c0.3,1.9,1.2,3.8,2.4,5.5c1.7,2.5,3.8,4.8,5.8,7.2c3.4,4.3,5.2,8.9,4.9,14c-0.2,3.9-0.1,7.8-0.1,11.7
		c-0.1,16.4-0.2,32.8-0.4,49.2c-0.1,8.6-0.2,17.3-0.3,25.9c0,1-0.2,2.1-0.5,3.1c-0.8,2.9-3.5,4.1-6.9,4.7
		c-8.7,1.4-17.4,1.8-26.2,1.4c-5.3-0.3-10.7-0.7-15.9-1.7c-6.2-1.1-6.8-2.1-6.9-7c-0.3-20.4-0.3-40.9-0.5-61.3
		C5,104.9,5,96.1,4.7,87.2c-0.2-5.6,1.7-10.5,5.9-15c1.1-1.2,2.1-2.5,3.2-3.6c3.4-3.6,3.8-7.9,4.2-12.1c0.5-6,1.2-11.9,1.7-17.9
		c0.5-5.6,1-11.2,1.5-16.7c0.1-1.6,0.3-3.2,0.5-4.8c0.1-0.7,0.1-1.2-0.9-1.6c-1.7-0.8-2.2-2.1-1.7-3.6c0.6-1.5,1.3-2.9,2.1-4.4
		c0.4-0.8,0.5-1.3-0.4-2c-0.5-0.4-0.8-1.4-0.6-2c0.3-0.8,1-1.5,2.4-1.6c2.2-0.1,4.3-0.3,6.4-0.5C32.5,1.3,36,1.3,39.5,1.3z"/>
	<g>
		<g>
			<defs>
				<polyline id="SVGID_1_" points="0,99.7 0,167.3 67.6,167.3 67.6,99.7 				"/>
			</defs>
			<clipPath id="SVGID_2_">
				<use xlink:href="#SVGID_1_"  overflow="visible"/>
			</clipPath>
			<path clip-path="url(#SVGID_2_)" fill="#D3BF86" d="M33.3,99.7c-9,0-16.1,2.3-21,6.8c-5,4.7-7.6,11.6-7.6,20.6v2.6
				c0,9,2.5,16,7.6,20.6c4.9,4.5,11.9,6.8,21,6.8h1c9,0,16.1-2.3,21-6.8c5-4.7,7.6-11.6,7.6-20.6v-2.6c0-9-2.5-16-7.6-20.6
				c-4.8-4.5-11.9-6.8-21-6.8H33.3"/>
		</g>
		<path fill="#231F20" d="M33.3,101.9c-8.5,0-15,2.1-19.5,6.2c-4.6,4.2-6.9,10.6-6.9,19v2.6c0,8.4,2.3,14.8,6.9,19
			c4.4,4.1,11,6.2,19.5,6.2h1c8.5,0,15-2.1,19.5-6.2c4.5-4.2,6.9-10.6,6.9-19v-2.6c0-8.4-2.3-14.8-6.9-19c-4.4-4.1-11-6.2-19.5-6.2
			H33.3"/>
		<path fill="#00995E" d="M33.3,102.9c-8.2,0-14.5,2-18.8,5.9c-4.4,4-6.6,10.2-6.6,18.3v2.6c0,8.1,2.2,14.3,6.5,18.3
			c4.2,3.9,10.6,5.9,18.8,5.9h1c8.2,0,14.5-2,18.8-5.9c4.3-4,6.5-10.2,6.5-18.3v-2.6c0-8.1-2.2-14.3-6.5-18.3
			c-4.2-3.9-10.6-5.9-18.8-5.9H33.3"/>
		<path fill="#231F20" d="M51,128.5c0,11.1-7.7,16.5-17.2,16.5c-9.5,0-17.2-5.4-17.2-16.5c0-11,7.7-16.5,17.2-16.5
			C43.3,112,51,117.4,51,128.5"/>
		<path fill="#D3BF86" d="M22,116.5c-3.2,2.8-4.9,6.9-4.9,12c0,11.8,8.6,16,16.7,16c8.1,0,16.7-4.2,16.7-16c0-11.7-8.6-16-16.7-16
			C29,112.5,24.9,113.9,22,116.5"/>
		<path fill="#DE3F4D" d="M46,119.8c-3.2-5.3-9.2-6.1-12.2-6.1c-3.2,0-9.1,0.9-12.2,6.1c3.7-0.6,7.8-1,12.2-1
			C38.2,118.8,42.3,119.2,46,119.8"/>
		<path fill="#DE3F4D" d="M21.6,137.1c3.2,5.3,9.2,6.2,12.2,6.2c3,0,9-0.8,12.2-6.2c-3.7,0.6-7.8,1-12.2,1
			C29.4,138.1,25.3,137.7,21.6,137.1"/>
		<path fill="#FFFFFF" d="M46,119.8c-3.7-0.6-7.8-1-12.2-1c-4.4,0-8.5,0.3-12.2,1c-1.2,2.1-2,4.9-2,8.7c0,3.8,0.8,6.6,2.1,8.7
			c3.7,0.6,7.8,1,12.2,1c4.4,0,8.5-0.3,12.2-1c1.2-2.1,2.1-4.9,2.1-8.7C48.1,124.7,47.2,121.9,46,119.8"/>
		<g>
			<defs>
				<polyline id="SVGID_3_" points="22.1,114.3 22.1,142.6 45.5,142.6 45.5,114.3 				"/>
			</defs>
			<defs>
				<path id="SVGID_4_" d="M27.2,114.9c0.4-0.1,0.7-0.3,1.1-0.4c1.8-0.1,3.6-0.2,5.5-0.2c1.8,0,3.6,0.1,5.3,0.2
					c0.4,0.1,0.7,0.2,1.1,0.4c-2.1-0.2-4.2-0.2-6.4-0.2C31.6,114.7,29.4,114.7,27.2,114.9 M33.8,115.5c2.9,0,5.7,0.1,8.4,0.4
					c-0.2-0.2-0.4-0.3-0.7-0.4c-2.5-0.2-5.1-0.3-7.8-0.3c-2.7,0-5.3,0.1-7.9,0.4c-0.2,0.1-0.4,0.2-0.7,0.4
					C28,115.7,30.9,115.5,33.8,115.5L33.8,115.5z M33.8,116.4c3.4,0,6.7,0.2,9.8,0.5c-0.2-0.1-0.3-0.3-0.5-0.4
					c-3-0.3-6.1-0.5-9.3-0.5c-3.3,0-6.4,0.2-9.4,0.5c-0.2,0.1-0.3,0.2-0.5,0.4C27,116.6,30.4,116.4,33.8,116.4L33.8,116.4z
					 M22.9,118c3.4-0.4,7.1-0.7,10.9-0.7c3.8,0,7.4,0.2,10.8,0.7c-0.1-0.1-0.2-0.3-0.4-0.4c-3.3-0.4-6.9-0.6-10.5-0.6
					c-3.7,0-7.2,0.2-10.6,0.6C23.1,117.7,23,117.9,22.9,118L22.9,118z M33.8,118.2c4.1,0,8,0.3,11.6,0.8c-0.1-0.1-0.2-0.3-0.3-0.4
					c-3.6-0.5-7.4-0.7-11.4-0.7c-4,0-7.9,0.3-11.4,0.8c-0.1,0.1-0.2,0.2-0.3,0.4C25.7,118.5,29.7,118.2,33.8,118.2L33.8,118.2z
					 M33.8,142.3c-2.2,0-4.3-0.1-6.4-0.2c0.4,0.1,0.7,0.3,1.1,0.4c1.7,0.1,3.5,0.2,5.3,0.2c1.8,0,3.6-0.1,5.3-0.2
					c0.4-0.1,0.7-0.2,1.1-0.4C38.1,142.2,36,142.3,33.8,142.3L33.8,142.3z M33.8,141.4c-2.9,0-5.7-0.1-8.4-0.4
					c0.2,0.1,0.4,0.3,0.7,0.4c2.5,0.2,5.1,0.3,7.8,0.3c2.6,0,5.3-0.1,7.8-0.3c0.2-0.1,0.4-0.2,0.7-0.4
					C39.5,141.2,36.7,141.4,33.8,141.4L33.8,141.4z M33.8,140.5c-3.4,0-6.7-0.2-9.8-0.5c0.2,0.1,0.3,0.3,0.5,0.4
					c3,0.3,6.1,0.5,9.4,0.5c3.2,0,6.4-0.2,9.4-0.5c0.2-0.1,0.3-0.2,0.5-0.4C40.5,140.3,37.2,140.5,33.8,140.5L33.8,140.5z M44.6,139
					c-3.4,0.4-7.1,0.7-10.9,0.7c-3.8,0-7.4-0.2-10.9-0.7c0.1,0.1,0.2,0.3,0.4,0.4c3.3,0.4,6.9,0.6,10.5,0.6c3.6,0,7.2-0.2,10.5-0.6
					C44.4,139.2,44.5,139.1,44.6,139L44.6,139z M33.8,138.8c-4.1,0-8-0.3-11.7-0.8c0.1,0.1,0.2,0.2,0.3,0.4
					c3.5,0.5,7.4,0.8,11.4,0.8c4,0,7.8-0.3,11.4-0.8c0.1-0.1,0.2-0.2,0.3-0.4C41.8,138.5,37.9,138.8,33.8,138.8"/>
			</defs>
			<clipPath id="SVGID_5_">
				<use xlink:href="#SVGID_3_"  overflow="visible"/>
			</clipPath>
			<clipPath id="SVGID_6_" clip-path="url(#SVGID_5_)">
				<use xlink:href="#SVGID_4_"  overflow="visible"/>
			</clipPath>
			<g clip-path="url(#SVGID_6_)">
				
					<image overflow="visible" width="48" height="58" xlink:href="6075C42867D06325.jpg"  transform="matrix(0.4889 0 0 0.4885 22.021 114.2741)">
				</image>
			</g>
		</g>
		<path fill="#231F20" d="M28.5,120.7l-0.5,0l0.6,2c0.9-0.2,0.8,0.3,0.8,0.7c-0.2,1-1,3.6-1.8,6.3c0,0-1.3-4.3-1.6-6
			c-0.1-0.8,0.4-0.8,0.7-0.8l-0.4-2.1l-0.6,0c-0.2,0-6.7,0.9-6.7,0.9l0.2,1.9l0.6,0.1c0.5,0.1,0.5,0.1,0.5,0.3
			c0.2,0.7,3.7,12.1,3.7,12.1c2,0.3,3.9,0.4,4.8,0.5l0.6-0.1l3.5-11.5c0.3-0.9,0.4-1.4,0.6-1.6c0.1-0.1,0.2-0.2,0.3-0.2
			c0.1,0,0.3,0.1,0.3,0.3c0,0.1,0,0.3,0,0.6v9.5c0,1.1-0.4,1.1-0.7,1.1H32l0.8,2l0.4,0c2.2,0,4.1,0,7-0.2c4.5-0.3,7.4-1.7,7.4-4.6
			c0-2.2-2.2-3.2-3.7-3.7c1.2-0.6,3-1.5,3-3.3c0-3-3.1-3.6-5.5-3.8c-0.4,0-3.1-0.3-6.4-0.3C31.7,120.5,28.5,120.7,28.5,120.7
			 M39.8,122.9c0.9,0.1,2.1,0.4,2.1,2c0,1.5-1,2-1.9,2h-0.2L39.8,122.9L39.8,122.9z M39.8,129.1c0,0,0.3,0,0.4,0
			c0.3,0,2.1,0.2,2.1,2.5c0,1.5-0.8,2.4-2.2,2.5l-0.3,0V129.1"/>
		<path fill="#D3BF86" d="M27.3,120.6l0.6,2.2c0.9-0.2,1.1,0.3,1,0.6c-0.3,1-1,3.6-1.8,6.3c0,0-1.3-4.3-1.6-6
			c-0.1-0.8,0.4-0.8,0.7-0.8l-0.4-2.1c0,0-4.1,0.3-7.3,0.8l0.2,1.9l0.5,0.1c0.5,0.1,0.5,0.1,0.5,0.3c0.2,0.7,3.7,12.2,3.7,12.2
			c2,0.2,5.3,0.4,5.3,0.4l3.5-11.6c0.3-0.9,0.4-1.4,0.6-1.6c0.1-0.1,0.2-0.2,0.3-0.2c0.1,0,0.3,0.1,0.3,0.3c0,0.1,0.1,0.3,0.1,0.6
			v9.3c0,1.1-0.4,1.1-0.7,1.1l-1.4,0l0.8,2.2l0.4,0c2.2,0,4.1,0,7-0.2c4.5-0.3,7.4-1.8,7.4-4.7c0-2.2-2.2-3.2-3.7-3.7
			c1.2-0.6,3-1.5,3-3.3c0-2.2-2.2-3.6-4.9-3.8c-0.4,0-3.7-0.3-7-0.4C31.1,120.4,27.3,120.6,27.3,120.6 M39.3,122.9
			c0.9,0.1,2.1,0.4,2.1,2c0,1.5-1,2-1.9,2h-0.2V122.9L39.3,122.9z M39.3,129.1c0,0,0.3,0,0.4,0c0.3,0,2.1,0.2,2.1,2.5
			c0,1.5-0.8,2.4-2.2,2.5l-0.2,0V129.1"/>
		<path fill="#231F20" d="M41.4,128c0,0,3.9-0.5,3.9-3.4c0-1.9-1.3-3.1-3.8-3.3c-1.1-0.1-4.1-0.3-6.9-0.3c-3.4,0-6.6,0.2-6.6,0.2
			l0.3,1.1c0.3,0,1.2,0,1.2,0.7c0,0.9-2.7,9.4-2.7,9.4c-0.9-2.6-2-6.4-2.4-8.5c-0.3-1.2,0.3-1.5,1.2-1.5l-0.2-1.1
			c0,0-4.2,0.4-6.3,0.7l0.1,1c0.6,0.1,0.9,0.1,1.1,0.7c0.2,0.7,3.6,11.9,3.6,11.9c1.8,0.1,3.9,0.2,3.9,0.2l3.4-11.2
			c0.6-2.4,1.4-2.4,1.9-2.4c0.4,0,1,0.3,1,1.4c0,1.1,0,8.4,0,9.7c0,1.2-0.5,1.6-1.2,1.6c-0.2,0-0.2,0-0.6,0l0.4,1.1
			c2.4,0,4.3,0,7-0.2c3.6-0.3,6.3-1.4,6.3-4.2C46,128.3,41.4,128,41.4,128 M38.1,122.3c0,0,0.7,0,1.3,0.1c1.2,0.1,2.5,0.6,2.5,2.5
			c0,1.7-1.1,2.5-2.4,2.5c-1,0-1.4,0-1.4,0V122.3L38.1,122.3z M39.6,134.5c-1,0-1.5,0-1.5,0v-6c0,0,0.9,0,1.6,0c0.8,0,2.6,0.6,2.6,3
			C42.3,133.4,41.3,134.5,39.6,134.5"/>
		<path fill="#231F20" d="M50.7,117.8l2.8-4.4c-0.7-0.9-1.3-1.6-1.3-1.6l-4.9,1.9c-0.3,0.1-0.7,0-0.9-0.1l-0.2,0.2
			c0.4,0.3,0.5,0.4,1,0.7c0.3,0.2,0.8,0.7,0.9,0.9l0.2-0.2c0-0.2-0.1-0.7-0.1-0.8c0.1-0.1,0.9-0.4,0.9-0.4l1,1.1
			c0,0-0.4,0.7-0.5,0.8c-0.1,0.1-0.7-0.1-0.9-0.2l-0.2,0.2c0.7,0.8,1.3,1.8,1.8,2.8l0.3-0.2C50.4,118.5,50.4,118.2,50.7,117.8
			 M49.8,113.7l1.6-0.7l-0.9,1.5L49.8,113.7"/>
		<path fill="#231F20" d="M46.7,113.6c-0.1-0.3-0.2-0.4,0.1-0.8l1.5-2.6c0.2-0.4,0.4-0.4,0.7-0.4c0.2,0,0.4,0,0.5,0l0.1-0.3
			c0,0-0.8-0.5-1.4-0.9c-0.6-0.3-1.5-0.8-1.5-0.8l-0.2,0.3c0,0.1,0.1,0.3,0.2,0.5c0.1,0.3,0.2,0.4,0,0.7l-1.5,2.5
			c-0.2,0.4-0.3,0.4-0.7,0.4c-0.2,0-0.4,0-0.5,0l-0.2,0.3c1,0.5,2,1.1,2.8,1.7l0.2-0.3C46.9,114,46.8,113.8,46.7,113.6"/>
		<path fill="#231F20" d="M43.6,109.4c0.6-0.1,1-0.4,1.2-1.1c0.3-1.2-0.9-1.7-2.1-2c0,0-1.1-0.3-2.7-0.6l-0.1,0.3
			c0.1,0.1,0.2,0.2,0.3,0.4c0.2,0.2,0.3,0.3,0.2,0.8l-0.6,2.8c-0.1,0.4-0.2,0.5-0.5,0.6c-0.2,0.1-0.4,0.2-0.5,0.2l-0.1,0.3
			c0,0,1,0.2,1.5,0.3c0.8,0.2,1.6,0.4,1.6,0.4l0.1-0.3c0-0.1-0.1-0.2-0.3-0.3c-0.2-0.2-0.3-0.3-0.2-0.8c0,0,0.2-0.9,0.2-1
			c0.1,0.1,0.2,0.4,0.3,0.7l0.7,2c0.6,0.2,1.2,0.5,1.7,0.7l0.2-0.4L43.6,109.4L43.6,109.4z M42.9,108c-0.2,0.7-0.5,0.9-1.1,0.8
			c0,0,0,0-0.1,0c0-0.2,0.4-1.7,0.4-1.7c0-0.1,0-0.1,0.3-0.1C42.9,107.1,43.1,107.4,42.9,108"/>
		<path fill="#231F20" d="M15.1,112.3l0.3,0.2c0.2-0.1,0.7-0.3,0.8-0.2c0,0,0.1,0.2,0.2,0.2l1.7,2.5l-2.9-1.1c0,0-0.1,0-0.2-0.1
			c-0.1-0.1,0-0.7,0-0.9l-0.2-0.2c0,0-0.9,1.2-1.7,2.7l0.3,0.1c0.2-0.1,0.7-0.3,1-0.1l4.2,1.5c0.4-0.6,1.2-1.5,1.2-1.5l-2.6-3.8
			c-0.2-0.4-0.1-0.8-0.1-0.9l-0.2-0.2C16.8,110.5,15.7,111.5,15.1,112.3"/>
		<path fill="#231F20" d="M32.3,105.2c0,0-1.4,0-2.7,0.2c-1.3,0.2-2.6,0.4-2.6,0.4l0.1,1.7l0.5-0.1c0,0,0.3-0.7,0.4-0.8
			c0.1-0.2,0.3-0.3,0.5-0.3l0.3,0c0,0.2,0.4,3.5,0.4,3.5c0,0.5,0,0.6-0.3,0.7c-0.2,0.1-0.3,0.3-0.4,0.3l0,0.4c0,0,1-0.2,1.6-0.2
			c0.6-0.1,1.7-0.1,1.7-0.1l0-0.3c-0.1,0-0.3-0.1-0.5-0.2c-0.3-0.1-0.4-0.2-0.4-0.6c0,0-0.4-3.4-0.4-3.6c0,0,0.3,0,0.3,0
			c0.3,0,0.5,0,0.6,0.2c0.1,0.1,0.5,0.8,0.5,0.8l0.5,0L32.3,105.2"/>
		<path fill="#231F20" d="M17.3,110.1l0.2,0.2c0.1,0,0.3,0,0.5,0c0.3,0,0.4,0,0.7,0.4l1.7,2.4c0.3,0.4,0.2,0.5,0.1,0.8
			c-0.1,0.2-0.2,0.4-0.2,0.5l0.2,0.3c0,0,0.6-0.5,1.3-0.9c0.6-0.4,1.4-0.8,1.4-0.8l-0.2-0.3c0,0-0.2,0-0.4,0c-0.3,0-0.5,0-0.7-0.4
			l-1.8-2.4c-0.3-0.4-0.2-0.5-0.1-0.8c0.1-0.2,0.2-0.4,0.2-0.5l-0.2-0.3C20.1,108.2,18.5,109,17.3,110.1"/>
		<path fill="#231F20" d="M33.8,105.8c-0.7,0.5-1.1,1.2-1.1,2c0,0.8,0.2,1.5,0.8,2.1c0.5,0.5,1.3,0.8,2.1,0.9
			c0.8,0.1,1.6-0.2,2.2-0.6c0.7-0.5,1-1.2,1.1-2c0.1-0.9-0.2-1.5-0.8-2.1c-0.5-0.5-1.3-0.8-2.1-0.9
			C35.1,105.2,34.3,105.4,33.8,105.8 M34.6,108c0.1-1.5,0.5-2.2,1.3-2.1c0.8,0.1,1.1,0.8,1,2.3c-0.1,1.5-0.6,2.2-1.3,2.1
			C34.8,110.2,34.5,109.5,34.6,108"/>
		<path fill="#231F20" d="M26.1,106.3l-0.2-0.4l-0.6,0.2l-0.1,0.4c-0.5-0.1-0.9-0.1-1.4,0.1c-0.8,0.3-1.4,0.9-1.8,1.7
			c-0.2,0.6-0.2,1.3,0,1.9c0.6,1.6,2,2.3,3.6,1.7c0.6-0.2,1.1-0.6,1.4-1.1c0.4-0.7,0.1-1.8,0.1-1.8l-0.6,0.2l0,0.1
			c0.2,0.8-0.1,1.5-0.8,1.7c-0.8,0.3-1.5-0.2-2-1.5c-0.5-1.2-0.3-2.2,0.5-2.5c0.5-0.2,1.2,0,1.6,0.5l0.5-0.2
			C26.4,107.1,26.2,106.6,26.1,106.3"/>
		<path fill="#231F20" d="M52.4,145.3c-0.1,0-2.2-0.7-2.2-0.7c0.3-0.5,0.3-1-0.1-1.6c-0.7-1-1.9-0.5-2.8,0.3c0,0-0.9,0.8-2.3,1.5
			l0.2,0.3c0.1,0,0.3,0,0.5,0c0.3,0,0.4,0,0.7,0.4l1.7,2.3c0.3,0.4,0.2,0.5,0.1,0.8c-0.1,0.2-0.1,0.4-0.2,0.5l0.1,0.3
			c1.2-0.6,2.6-1.8,2.6-1.8l-0.2-0.2c-0.1,0-0.2,0-0.4,0c-0.3,0-0.4,0-0.7-0.4c0,0-0.5-0.7-0.6-0.8c0.1,0,0.4,0.1,0.7,0.2l1.8,0.7
			c0.7-0.6,1.5-1.5,1.5-1.5l-0.2-0.2C52.8,145.3,52.5,145.3,52.4,145.3 M48.6,145.5C48.6,145.5,48.6,145.6,48.6,145.5
			c-0.2-0.1-1.1-1.4-1.1-1.4c-0.1-0.1-0.1-0.1,0.1-0.2c0.4-0.3,0.7-0.2,1.1,0.3C49.2,144.8,49.1,145.2,48.6,145.5"/>
		<path fill="#231F20" d="M45.4,148.3l-0.5,0.2c0,0.5-0.1,0.9-0.1,1.3c0,0.2-0.2,0.4-0.5,0.5c-0.1,0.1-1.1,0.3-1.1,0.3l-0.5-1.7
			l0.4-0.1c0.2-0.1,0.2,0,0.7,0.7l0.5-0.2l-0.7-2.4l-0.5,0.1c0,0.7,0.1,0.9-0.2,1l-0.4,0.1l-0.4-1.4c0.4-0.1,1.3-0.4,1.3-0.4
			c0.2-0.1,0.3-0.1,0.4,0c0.2,0.3,0.4,0.5,0.7,0.9l0.5-0.2l-0.6-2c0,0-1,0.5-2.4,1c-1.2,0.3-2.6,0.6-2.6,0.6l0.1,0.3
			c0.2,0.1,0.8,0.2,0.8,0.5l1,3.2c0,0,0.1,0.2,0.1,0.2c0.1,0.2-0.3,0.7-0.5,0.8l0.1,0.3c2.6-0.4,5.2-1.6,5.2-1.6L45.4,148.3"/>
		<path fill="#231F20" d="M38.9,146.8c0,0-1.3,0.2-2.6,0.3c-1.3,0.1-2.6,0.1-2.6,0.1l0,1.6h0.5c0,0,0.3-0.7,0.4-0.8
			c0.1-0.2,0.3-0.1,0.6-0.2c0,0,0.3,0,0.3,0c0,0.2,0.2,3.5,0.2,3.5c0,0.5,0,0.5-0.3,0.7c-0.2,0.1-0.4,0.3-0.4,0.3l0,0.3
			c1,0,3.3-0.2,3.3-0.2l0-0.3c-0.1,0-0.3-0.1-0.5-0.3c-0.3-0.1-0.4-0.2-0.4-0.7c0,0-0.2-3.3-0.2-3.5c0,0,0.3,0,0.3,0
			c0.3,0,0.5-0.1,0.6,0.1c0.1,0.1,0.5,0.8,0.5,0.8l0.5-0.1L38.9,146.8"/>
		<path fill="#231F20" d="M33,147.1c0,0-1.4,0-2.6-0.2c-1.3-0.1-2.6-0.4-2.6-0.4l-0.3,1.6l0.5,0.1c0,0,0.4-0.6,0.5-0.7
			c0.1-0.2,0.4-0.1,0.6-0.1c0,0,0.3,0,0.3,0c0,0.2-0.4,3.5-0.4,3.5c-0.1,0.5-0.2,0.5-0.4,0.7c-0.2,0.1-0.4,0.2-0.5,0.2l0,0.3
			c1.4,0.2,3.3,0.3,3.3,0.3l0-0.3c-0.1-0.1-0.3-0.2-0.4-0.3c-0.2-0.2-0.3-0.3-0.3-0.7c0,0,0.4-3.3,0.4-3.5c0,0,0.3,0,0.3,0
			c0.3,0,0.5,0,0.6,0.2c0.1,0.1,0.3,0.9,0.3,0.9l0.5,0L33,147.1"/>
		<path fill="#231F20" d="M25.5,146.1c-0.8-0.3-1.5-0.6-1.5-0.6l-0.1,0.3c0.1,0.1,0.2,0.2,0.3,0.4c0.2,0.2,0.3,0.3,0.1,0.8l-0.9,2.8
			c-0.1,0.4-0.2,0.5-0.5,0.6c-0.2,0.1-0.4,0.1-0.5,0.1l-0.1,0.3c0,0,0.7,0.3,1.5,0.5c0.9,0.3,1.7,0.5,1.7,0.5l0.1-0.3
			c-0.1-0.1-0.2-0.3-0.4-0.4c-0.2-0.2-0.2-0.3-0.1-0.8l0.9-2.8c0.2-0.4,0.2-0.5,0.6-0.6c0.2-0.1,0.4-0.1,0.5-0.1l0.1-0.3
			C27.2,146.5,26.3,146.3,25.5,146.1"/>
		<path fill="#231F20" d="M21.2,147.2c0.7,0.3,1.3,0.1,1.7-0.3c0.5-0.7,0.2-1.4-0.9-2.3l-1-0.6c0,0-1.1-0.8-1.6-1.4l-0.2,0.3
			c0.3,0.7,0.3,0.7,0,1l-1.9,2.6c0,0-0.1,0.1-0.1,0.2c-0.1,0.2-0.2,0.3-0.9,0.1l-0.2,0.2c1,0.9,2.5,1.9,2.5,1.9
			c1.4,1,2.2,1.2,2.9,0.3C21.9,148.6,21.8,147.9,21.2,147.2 M20.9,144.7l0.3,0.2c0.5,0.3,0.5,0.6,0.2,1.1c-0.3,0.4-0.7,0.4-1.1,0.1
			l-0.2-0.2L20.9,144.7L20.9,144.7z M18.8,148.1l-0.3-0.2l1.1-1.4l0.3,0.2c0.5,0.4,0.6,0.8,0.2,1.3
			C19.7,148.5,19.3,148.5,18.8,148.1"/>
		<path fill="#FFFFFF" d="M14.5,112.3l0.3,0.2c0.2-0.1,0.7-0.3,0.8-0.2c0,0,0.2,0.2,0.2,0.2l1.8,2.5l-3-1.1c0,0-0.1-0.1-0.2-0.1
			c-0.1-0.1,0-0.7,0-0.9l-0.3-0.2c0,0-0.9,1.2-1.7,2.7l0.3,0.1c0.2-0.1,0.7-0.3,1.1-0.2l4.2,1.5c0.4-0.7,1.1-1.5,1.1-1.5l-2.6-3.8
			c-0.2-0.4-0.1-0.8-0.1-0.9l-0.2-0.2C16.2,110.5,15.1,111.5,14.5,112.3"/>
		<path fill="#FFFFFF" d="M21.1,146.6c0.7,0.3,1.3,0.1,1.7-0.3c0.6-0.7,0.2-1.4-0.9-2.3l-0.8-0.6c0,0-1.2-0.9-1.7-1.5l-0.2,0.3
			c0.3,0.7,0.3,0.7,0,1l-2,2.6c0,0-0.1,0.1-0.1,0.1c-0.1,0.2-0.2,0.3-0.9,0.1l-0.2,0.3c0.9,0.9,2.5,2,2.5,2c1.4,1,2.2,1.2,2.9,0.3
			C21.8,148,21.7,147.4,21.1,146.6 M20.8,144.2l0.3,0.2c0.5,0.3,0.5,0.6,0.2,1c-0.3,0.4-0.7,0.4-1.1,0.1l-0.2-0.2L20.8,144.2
			L20.8,144.2z M18.7,147.5l-0.3-0.2l1.1-1.4l0.3,0.2c0.5,0.4,0.6,0.8,0.2,1.2C19.6,147.9,19.2,147.9,18.7,147.5"/>
		<path fill="#FFFFFF" d="M44.9,148.1l-0.5,0.2c0,0.5,0,0.9-0.1,1.3c0,0.2-0.2,0.4-0.5,0.5c-0.1,0-1.1,0.3-1.1,0.3l-0.5-1.7l0.4-0.1
			c0.2-0.1,0.2,0,0.7,0.7l0.5-0.2l-0.7-2.4l-0.5,0.1c0,0.7,0.1,0.9-0.2,1l-0.4,0.1l-0.4-1.4c0.4-0.1,1.3-0.4,1.3-0.4
			c0.2-0.1,0.3-0.1,0.4,0c0.2,0.3,0.4,0.5,0.7,0.9l0.5-0.2l-0.6-2c0,0-0.9,0.4-2.4,0.8c-1.2,0.3-2.7,0.6-2.7,0.6l0.1,0.3
			c0.2,0,0.8,0.2,0.9,0.5l0.9,3.2c0,0,0.1,0.2,0.1,0.2c0.1,0.2-0.3,0.7-0.5,0.8l0.1,0.3c0,0,1-0.2,2.4-0.5c1.4-0.4,2.7-0.9,2.7-0.9
			L44.9,148.1"/>
		<path fill="#FFFFFF" d="M25.3,145.5c-0.8-0.3-1.6-0.6-1.6-0.6l-0.1,0.3c0.1,0.1,0.2,0.2,0.3,0.4c0.2,0.2,0.3,0.3,0.1,0.8l-0.9,2.8
			c-0.1,0.4-0.2,0.5-0.5,0.6c-0.2,0.1-0.4,0.1-0.5,0.1l-0.1,0.3c0,0,0.7,0.3,1.5,0.6c0.9,0.3,1.6,0.5,1.6,0.5l0.1-0.3
			c-0.1-0.1-0.2-0.3-0.3-0.4c-0.2-0.2-0.3-0.3-0.1-0.8l0.9-2.8c0.1-0.4,0.3-0.5,0.6-0.6c0.2,0,0.4-0.1,0.5-0.1l0.1-0.3
			C26.9,146,26.1,145.8,25.3,145.5"/>
		<path fill="#FFFFFF" d="M51.7,145.4c-0.1,0-1.3-0.4-2.2-0.7c0.5-0.5,0.5-1.2,0.1-1.8c-0.8-1-1.9-0.4-2.8,0.3c0,0-0.9,0.7-2.3,1.4
			l0.2,0.3c0.1,0,0.3,0,0.5,0c0.3,0,0.4,0,0.7,0.4l1.8,2.4c0.3,0.4,0.2,0.5,0.1,0.8c-0.1,0.2-0.1,0.4-0.2,0.5l0.1,0.3
			c0,0,0.8-0.4,1.4-0.8c0.6-0.4,1.3-0.9,1.3-0.9l-0.2-0.2c-0.1,0-0.2,0-0.4,0c-0.3,0-0.4,0-0.7-0.4c0,0-0.5-0.7-0.6-0.8
			c0.1,0,0.4,0.1,0.7,0.2l1.8,0.7c0.7-0.6,1.4-1.4,1.4-1.4l-0.2-0.2C52.1,145.4,51.8,145.4,51.7,145.4 M48,145.5
			C48,145.5,48,145.5,48,145.5c-0.2-0.1-1.1-1.4-1.1-1.4c-0.1-0.1-0.1-0.1,0.1-0.2c0.4-0.3,0.8-0.2,1.1,0.3
			C48.5,144.7,48.5,145.1,48,145.5"/>
		<path fill="#FFFFFF" d="M31.8,104.9c0,0-1.3,0-2.7,0.2c-1.3,0.2-2.6,0.4-2.6,0.4l0.1,1.7l0.5-0.1c0,0,0.3-0.7,0.4-0.8
			c0.1-0.2,0.3-0.3,0.5-0.3c0,0,0.3,0,0.3,0c0,0.2,0.4,3.5,0.4,3.5c0.1,0.5,0,0.6-0.3,0.7c-0.2,0.1-0.4,0.3-0.4,0.3l0,0.4
			c0,0,1.1-0.2,1.6-0.2c0.6-0.1,1.7-0.2,1.7-0.2l0-0.3c-0.1,0-0.3-0.1-0.5-0.2c-0.3-0.1-0.4-0.2-0.4-0.7c0,0-0.4-3.3-0.4-3.5
			c0,0,0.3,0,0.3,0c0.2,0,0.5,0,0.6,0.2c0.1,0.1,0.5,0.8,0.5,0.8l0.5,0L31.8,104.9"/>
		<path fill="#FFFFFF" d="M38.4,146.4c0,0-1.3,0.2-2.6,0.3c-1.3,0-2.6,0-2.6,0l0,1.6h0.5c0,0,0.3-0.7,0.4-0.8
			c0.1-0.2,0.3-0.1,0.6-0.2H35c0,0.2,0.2,3.5,0.2,3.5c0,0.5-0.1,0.5-0.3,0.7c-0.2,0.1-0.4,0.2-0.4,0.3l0,0.3c0,0,1.1,0,1.6-0.1
			c0.5,0,1.7-0.1,1.7-0.1l0-0.3c-0.1,0-0.3-0.2-0.5-0.3c-0.3-0.1-0.4-0.2-0.4-0.7c0,0-0.2-3.3-0.2-3.5c0,0,0.3,0,0.3,0
			c0.3,0,0.5-0.1,0.6,0.1c0.1,0.1,0.5,0.8,0.5,0.8l0.5-0.1L38.4,146.4"/>
		<path fill="#FFFFFF" d="M32.6,146.7c0,0-1.4,0-2.6-0.2c-1.3-0.2-2.6-0.4-2.6-0.4l-0.3,1.6l0.5,0.1c0,0,0.4-0.6,0.5-0.7
			c0.1-0.2,0.4-0.1,0.6-0.1c0,0,0.3,0.1,0.3,0.1c0,0.2-0.4,3.5-0.4,3.5c-0.1,0.4-0.1,0.5-0.4,0.7c-0.2,0.1-0.4,0.2-0.5,0.2l0,0.3
			c0,0,1.1,0.2,1.6,0.2c0.5,0.1,1.7,0.2,1.7,0.2l0-0.3c-0.1-0.1-0.3-0.2-0.4-0.3c-0.2-0.2-0.3-0.3-0.3-0.7c0,0,0.4-3.3,0.4-3.5
			c0,0,0.3,0,0.3,0c0.2,0,0.5,0,0.6,0.2c0.1,0.1,0.3,0.8,0.3,0.8l0.5,0L32.6,146.7"/>
		<path fill="#FFFFFF" d="M16.8,110l0.2,0.2c0.1,0,0.3,0,0.5,0c0.3,0,0.4,0,0.7,0.4l1.7,2.4c0.3,0.4,0.2,0.5,0.1,0.8
			c-0.1,0.2-0.2,0.4-0.2,0.4l0.2,0.3c0,0,0.6-0.5,1.3-1c0.7-0.5,1.4-0.8,1.4-0.8l-0.2-0.3c0,0-0.3,0-0.5,0c-0.3,0-0.4,0-0.7-0.4
			l-1.7-2.3c-0.3-0.4-0.2-0.5-0.1-0.8c0.1-0.2,0.2-0.4,0.2-0.5l-0.2-0.2C19.5,108.1,17.9,109,16.8,110"/>
		<path fill="#FFFFFF" d="M50.7,117l2.7-4.3c-0.7-0.9-1.3-1.5-1.3-1.5l-4.9,1.9c-0.3,0.1-0.7,0-0.9-0.1l-0.2,0.2
			c0.5,0.4,1,0.8,1.5,1.2c0.2,0.1,0.3,0.3,0.5,0.4l0.2-0.2c0-0.2-0.1-0.7-0.1-0.8c0.1-0.1,0.9-0.4,0.9-0.4l1,1.1
			c0,0-0.4,0.7-0.5,0.8c-0.1,0.1-0.7-0.1-0.8-0.2l-0.3,0.2c0.7,0.8,1.3,1.7,1.8,2.7l0.3-0.2C50.6,117.9,50.6,117.3,50.7,117
			 M49.9,113.2l1.6-0.7l-0.9,1.5L49.9,113.2"/>
		<path fill="#FFFFFF" d="M46.6,113c-0.1-0.3-0.2-0.4,0.1-0.8l1.5-2.5c0.2-0.4,0.3-0.4,0.6-0.4c0.2,0,0.4,0,0.5,0l0.2-0.3
			c0,0-0.8-0.5-1.4-0.9c-0.6-0.3-1.5-0.8-1.5-0.8l-0.2,0.3c0,0.1,0.1,0.3,0.2,0.5c0.1,0.3,0.2,0.4,0,0.8l-1.5,2.5
			c-0.2,0.4-0.3,0.4-0.7,0.4c-0.2,0-0.4,0-0.5,0l-0.2,0.3c1.1,0.5,2,1,2.9,1.6l0.2-0.3C46.8,113.3,46.7,113.2,46.6,113"/>
		<path fill="#FFFFFF" d="M44.1,111.7c-0.1-0.1-0.7-1.9-1.1-2.9c0.7,0,1.2-0.4,1.4-1.1c0.3-1.2-0.9-1.7-2-2c0,0-1.1-0.3-2.7-0.6
			l-0.1,0.3c0,0.1,0.2,0.2,0.3,0.4c0.2,0.2,0.3,0.3,0.2,0.8l-0.6,2.8c-0.1,0.5-0.2,0.5-0.5,0.6c-0.2,0.1-0.4,0.2-0.5,0.2l-0.1,0.3
			c0,0,0.1,0,0.3,0c0.4,0.1,0.8,0.1,1.2,0.2c0.1,0,0.2,0,0.3,0.1c0.4,0.1,0.7,0.2,1,0.3c0.1,0,0.1,0,0.1,0l0.1-0.3
			c0-0.1-0.1-0.2-0.3-0.3c-0.2-0.2-0.3-0.3-0.2-0.8c0,0,0.2-0.9,0.2-1c0.1,0.1,0.2,0.4,0.3,0.7l0.7,2c0.6,0.2,1.2,0.4,1.8,0.7
			l0.1-0.3C44.3,112,44.1,111.8,44.1,111.7 M42.6,107.4c-0.2,0.7-0.5,0.9-1.1,0.8c0,0,0,0-0.1,0c0-0.2,0.4-1.7,0.4-1.7
			c0-0.1,0-0.1,0.3-0.1C42.6,106.5,42.7,106.8,42.6,107.4"/>
		<path fill="#FFFFFF" d="M25.6,106l-0.2-0.4l-0.6,0.2l-0.1,0.4c-0.4-0.1-0.9-0.1-1.4,0.1c-0.8,0.3-1.4,0.9-1.7,1.7
			c-0.2,0.6-0.2,1.3,0,1.9c0.6,1.6,2.1,2.2,3.6,1.6c0.6-0.2,1.1-0.6,1.4-1.1c0.4-0.7,0.1-1.8,0.1-1.8l-0.6,0.2l0,0.1
			c0.2,0.8-0.1,1.5-0.8,1.7c-0.8,0.3-1.5-0.2-2-1.5c-0.5-1.2-0.3-2.2,0.5-2.5c0.5-0.2,1.2,0,1.6,0.5l0.5-0.2
			C25.8,106.8,25.6,106.3,25.6,106"/>
		<path fill="#FFFFFF" d="M33.5,105.4c-0.7,0.5-1.1,1.2-1.1,2c0,0.9,0.2,1.5,0.8,2.1v0c0.5,0.5,1.3,0.8,2.1,0.9
			c0.8,0.1,1.6-0.2,2.2-0.6c0.7-0.5,1-1.2,1.1-2c0.1-0.8-0.2-1.5-0.8-2.2c-0.5-0.5-1.2-0.8-2.1-0.9C34.9,104.7,34.1,105,33.5,105.4
			 M34.3,107.5c0.1-1.5,0.5-2.2,1.3-2.1c0.8,0.1,1.1,0.8,1,2.3c-0.1,1.5-0.6,2.2-1.3,2.1C34.5,109.7,34.2,109,34.3,107.5"/>
	</g>
	<g>
		<defs>
			<ellipse id="SVGID_7_" cx="34.1" cy="3.2" rx="18.9" ry="3.2"/>
		</defs>
		<clipPath id="SVGID_8_">
			<use xlink:href="#SVGID_7_"  overflow="visible"/>
		</clipPath>
		<path clip-path="url(#SVGID_8_)" fill="#FCBB5C" d="M39.5,1.3c1.1,0.1,2.3,0.2,3.4,0.3c3.2,0.2,5.2,1.4,3.2,4.1
			c-0.3,0.3-0.1,1,0.1,1.4c0.5,1.8,1.4,3.6,1.6,5.5c0.1,0.9-0.9,1.8-1.4,2.7c-0.3,0.5-0.8,1.1-0.8,1.7c0.4,4.7,0.8,9.5,1.3,14.2
			c0.6,5.9,1.2,11.7,1.7,17.6c0.4,4.1,0.6,8.2,1.2,12.3c0.3,1.9,1.2,3.8,2.4,5.5c1.7,2.5,3.8,4.8,5.8,7.2c3.4,4.3,5.2,8.9,4.9,14
			c-0.2,3.9-0.1,7.8-0.1,11.7c-0.1,16.4-0.2,32.8-0.4,49.2c-0.1,8.6-0.2,17.3-0.3,25.9c0,1-0.2,2.1-0.5,3.1
			c-0.8,2.9-3.5,4.1-6.9,4.7c-8.7,1.4-17.4,1.8-26.2,1.4c-5.3-0.3-10.7-0.7-15.9-1.7c-6.2-1.1-6.8-2.1-6.9-7
			c-0.3-20.4-0.3-40.9-0.5-61.3C5,104.9,5,96.1,4.7,87.2c-0.2-5.6,1.7-10.5,5.9-15c1.1-1.2,2.1-2.5,3.2-3.6
			c3.4-3.6,3.8-7.9,4.2-12.1c0.5-6,1.2-11.9,1.7-17.9c0.5-5.6,1-11.2,1.5-16.7c0.1-1.6,0.3-3.2,0.5-4.8c0.1-0.7,0.1-1.2-0.9-1.6
			c-1.7-0.8-2.2-2.1-1.7-3.6c0.6-1.5,1.3-2.9,2.1-4.4c0.4-0.8,0.5-1.3-0.4-2c-0.5-0.4-0.8-1.4-0.6-2c0.3-0.8,1-1.5,2.4-1.6
			c2.2-0.1,4.3-0.3,6.4-0.5C32.5,1.3,36,1.3,39.5,1.3z"/>
	</g>
</g>
</svg>
