<!-- Generator: Adobe Illustrator 18.0.0, SVG Export Plug-In  -->
<svg version="1.1"
	 xmlns="http://www.w3.org/2000/svg" xmlns:xlink="http://www.w3.org/1999/xlink" xmlns:a="http://ns.adobe.com/AdobeSVGViewerExtensions/3.0/"
	 x="0px" y="0px" width="544px" height="556.7px" viewBox="0 0 544 556.7" enable-background="new 0 0 544 556.7"
	 xml:space="preserve">
<defs>
</defs>
<g>
	<path fill="#E9C2A0" d="M235.6,66.3c0.2-14.1,3.1-28.5,7.4-42.1c4.4-14,16.4-20.9,33.5-20.5c23.4,0.6,37.6,13,38.3,38.7
		c1.4,49.9,1,99.8,1.3,149.8c0,5.7,0,11.5,0,17.2c15.4-35.4,25.9-71.2,37.2-106.7c5.8-18,10.8-36.8,20.5-53.1
		c4.9-8.3,19.1-15.8,29.9-16.9c26-2.7,41.4,16.8,36.1,44.8c-4,21.4-10.7,42.4-16.4,63.5c-8.4,30.7-17,61.4-25.5,92.1
		c23.9-26.4,43.7-54.3,64.8-81.3c10.3-13.3,24.3-26.3,40.8-30.7c7.4-2,15.5-1,22.1,2.7c22.9,13.2,15.6,42.4,2.2,62.2
		c-22.8,33.8-47.8,66.4-70.6,100.2c-5.7,8.5-8.4,20-8.4,30c0,107.7-6.1,236.6-158,236.6c-189.8,0-161-133.6-203.5-176.2
		c-29.9-30-62.2-63.8-73.9-72.4c-17.2-12.7-10.6-43,9.9-50.7c35.3-13.2,67,3.1,95.6,35.8c4.9,5.6,26,44.4,33.7,44.4
		c76.5,0,118.2,64.1,85.3,130.3c11.9-29.3,35.3-119.5-85.3-130.3c-1.9-30.3,4.6-63.5,2.4-74c-6.2-28.6-15.9-64.7-22.8-93.2
		c-7.2-29.6-13.9-59.3-18.7-89.3c-2.2-13.9,1.9-27.5,20.4-32.9c18.8-5.5,31.7,2.5,39.9,15.7c8.9,14.4,15.8,30,21.6,45.6
		c13.7,36.7,26.3,73.8,39.9,112.2C235.3,166,234.8,116.2,235.6,66.3z"/>
	<g>
		<path fill="#FFFFFF" d="M239.3,66.3c0.4-14,3.1-27.7,7.2-41.1c3.1-9.9,11.2-15.4,21-17.3c9.3-1.8,20.2-0.3,28.5,4.2
			c7.8,4.3,12.1,12.1,14,20.5c1.3,5.8,1.2,11.9,1.3,17.8c0.2,7.3,0.3,14.6,0.4,22c0.2,15.3,0.4,30.6,0.4,45.9
			c0.1,30.4,0.3,60.7,0.3,91.1c0,3.4,5.3,5.4,6.8,1.9c12.6-29.1,22.4-59.3,31.9-89.5c4.6-14.5,8.9-29.2,13.9-43.6
			c4.5-13,9.4-27.7,21.4-35.4c9.8-6.2,22-8.5,33.1-4.8c9.3,3.1,14.8,11.6,16.8,20.7c3,13.1-2,27.7-5.2,40.3
			c-4,15.7-8.6,31.1-12.9,46.7c-7.9,28.8-15.9,57.6-23.9,86.3c-1,3.4,3.6,6.4,6.1,3.6c20.6-22.8,38.8-47.5,57.5-71.9
			c8.9-11.6,17.7-23,29.9-31.4c11.8-8.1,27.1-12.7,39.5-3c19.6,15.3,4.7,43.8-6,59.5c-18,26.4-37.2,51.9-55.5,78.1
			c-8.3,11.8-16.8,22.9-19.6,37.4c-1.9,9.9-1.1,20.3-1.2,30.4c-0.2,18.5-0.8,36.9-2.4,55.4c-3,34.5-9.8,70.2-28.1,100.1
			c-19.3,31.6-51.2,49.7-87,56c-23.9,4.2-48.8,3.6-72.9,1.1c-19.8-2.1-39.6-6.4-57.9-14.4c-26.5-11.5-47.3-31.2-61.1-56.5
			c-11.4-20.9-17.5-43.9-25.5-66.1c-3.4-9.4-7.2-18.7-12.7-27.1c-3.2-4.9-7.2-9-11.3-13.2c-10.5-10.5-20.8-21.1-31.3-31.6
			c-8.7-8.8-17.4-17.5-26.3-26c-3-2.8-6-5.6-9.1-8.2c-3.2-2.7-6.5-4.9-8.8-8.5c-5.3-8.1-3.8-19,0.6-27.1
			c5.6-10.3,16.5-13.7,27.4-15.5c25.7-4.3,49.2,10.3,67,27.3c6.6,6.3,11.7,12.4,16.5,20.1c4.8,7.6,9.5,15.2,14.6,22.4
			c3.4,4.8,7.8,12,13.7,13.9c4.1,1.3,9.5,0.5,13.9,0.9c6.1,0.5,12.2,1.7,18.2,3.2c20,5.1,38.2,16.7,49.9,33.8
			c17.9,26.2,15.7,59.7,2.3,87.2c2.2,0.9,4.5,1.9,6.7,2.8c8-19.7,12.2-41.8,9.3-63c-1.8-13-6.6-25.4-14.7-35.8
			c-10.1-12.9-24.3-21.4-39.4-27.1c-14.1-5.2-29.1-7.7-44-9.1c1.2,1.2,2.4,2.4,3.7,3.7c-0.8-14.6,0.1-29.1,1.3-43.7
			c0.8-9.7,2.7-20.2,1.2-30c-1.9-13-5.9-25.9-9-38.6c-3.5-14-7.1-27.9-10.6-41.9c-7.6-30.4-14.8-60.9-20.2-91.8
			c-1.9-11-5.1-23.4,3.2-32.7c7.9-8.8,23.7-11.2,34.3-6.5c11.7,5.3,17.7,18.9,23.2,29.7c7.5,14.8,13,30.5,18.7,46.1
			c11.4,31.4,22.2,62.9,33.4,94.4c1.3,3.8,7.2,3.3,7.2-1C239,167.4,238.4,116.9,239.3,66.3c0.1-4.7-7.3-4.7-7.3,0
			c-0.9,50.5-0.3,101.1-0.3,151.6c2.4-0.3,4.8-0.7,7.2-1c-10.7-30.3-21.1-60.7-32.1-90.8c-5.2-14.5-10.4-28.9-16.7-43
			c-5.4-12-11.4-25.4-21-34.7c-15.3-14.9-45-11.9-56,6.8c-5.6,9.4-3.5,20.4-1.8,30.6c2.7,15.9,5.9,31.8,9.5,47.6
			c7.9,35.8,17.6,71.1,26.1,106.7c1.7,7.1,4.1,14.4,4.9,21.7c0.7,5.8-0.1,11.9-0.6,17.8c-1.4,18-3.2,36-2.1,54.2
			c0.1,2.1,1.6,3.5,3.7,3.7c34,3.2,73.5,14.6,86.9,49.7c8.2,21.5,5,45.9-2,67.3c-1,2.9-2,5.8-3.2,8.6c-1.6,3.9,4.9,6.5,6.7,2.8
			c9.4-19.3,13.9-40.4,10.7-61.8c-2.9-19-13-36.4-27.2-49.2c-15.9-14.2-36.4-21.5-57.2-24c-2.9-0.3-5.8-0.5-8.7-0.7
			c-1.3-0.1-5.6,0-5.6,0c-2.6-1.1-4.6-4-6.3-6c-5.6-6.8-10.3-14.6-15-22.1c-3.6-5.7-6.9-11.6-11.3-16.7c-8.9-10-18.9-19.2-30.1-26.5
			c-20-13.1-43.7-17.2-66.5-9.4c-18,6.2-28.5,27.3-21.8,45.3c3,8,9.6,12.3,15.7,17.7c8.2,7.4,16,15.2,23.8,23
			c10.2,10.2,20.3,20.5,30.5,30.8c5.9,6,12.6,11.6,17.6,18.5c5.7,7.8,9.5,16.8,12.8,25.7c8.3,22.2,14.3,45.1,25.2,66.3
			c12.8,25.1,32.3,45.6,57.4,58.6c16.5,8.6,34.5,13.7,52.8,16.9c23.6,4.1,48.2,5.2,72,3.4c37.5-2.8,74-16.2,99-45.2
			c22.4-26,32.7-60.1,37.9-93.4c2.9-18.1,4.3-36.4,5-54.7c0.4-9.2,0.6-18.4,0.7-27.7c0.1-10.5-0.7-21.3,1.6-31.6
			c3.2-14.5,14.3-26.8,22.6-38.7c9.2-13.1,18.6-26,27.9-39c9.2-12.8,18.4-25.6,27.1-38.7c5.9-8.9,10.2-19.2,11.8-29.7
			c2.1-14.3-2.6-27.6-14.9-35.7c-16.7-11-36.5-1.7-50.4,9.2c-16.1,12.6-27.6,31-39.9,47.1c-13.8,18.1-27.7,36-43,52.9
			c2,1.2,4.1,2.4,6.1,3.6c8.9-31.9,17.7-63.9,26.5-95.8c4.3-15.5,8.9-30.9,12.6-46.6c2.8-11.9,5.4-23.8,2.6-36
			c-4.5-20.1-23.9-29.2-43.1-26c-10.9,1.8-22.2,8.3-28.8,17.2c-8.2,11.2-12.5,26.5-16.7,39.6c-13,40.7-24.7,81.9-41.7,121.1
			c2.3,0.6,4.6,1.2,6.8,1.9c0-33-0.1-66.1-0.3-99.1c-0.1-16.6-0.3-33.3-0.6-49.9c-0.2-12.5,0.6-25.8-4.3-37.6
			c-7.8-18.5-28.9-25.1-47.7-22.2c-10,1.6-18.6,6.4-24.1,15c-3.2,4.9-4.5,11-6,16.6c-2,7.6-3.3,15.3-4.2,23
			c-0.4,3.7-0.6,7.4-0.7,11.1C231.8,71.1,239.2,71.1,239.3,66.3z"/>
	</g>
</g>
</svg>
