<!-- Generator: Adobe Illustrator 18.0.0, SVG Export Plug-In  -->
<svg version="1.1"
	 xmlns="http://www.w3.org/2000/svg" xmlns:xlink="http://www.w3.org/1999/xlink" xmlns:a="http://ns.adobe.com/AdobeSVGViewerExtensions/3.0/"
	 x="0px" y="0px" width="167.8px" height="139.5px" viewBox="0 0 167.8 139.5" enable-background="new 0 0 167.8 139.5"
	 xml:space="preserve">
<defs>
</defs>
<g>
	<path fill="#253E86" d="M137.9,0C128.5,0.8,21.1,12.5,0,138.8c-0.1,0.6,0.7,1,1.1,0.4c49.8-71.6,128.9-59,137.3-57.5
		c0.4,0.1,0.7-0.2,0.7-0.6l-0.5-80.6C138.6,0.3,138.3,0,137.9,0z"/>
	<path fill="#3B84CC" d="M138.2,81.1l-19-19.3c-0.1-0.1-0.3-0.2-0.5-0.2L92,66.4c-0.5,0.1-0.9-0.4-0.7-0.9l12.4-24
		c0.1-0.2,0.1-0.4,0-0.6L91.1,17c-0.2-0.4,0.1-1,0.6-0.9l26.7,4.4c0.2,0,0.4,0,0.5-0.2l18.8-19.5c0.4-0.4,1-0.2,1,0.3l4.1,26.8
		c0,0.2,0.2,0.4,0.3,0.5l24.3,11.8c0.5,0.2,0.5,0.9,0,1.1l-24.2,12.1c-0.2,0.1-0.3,0.3-0.3,0.5l-3.7,26.8
		C139.2,81.2,138.6,81.4,138.2,81.1z"/>
</g>
</svg>
