<!-- Generator: Adobe Illustrator 18.0.0, SVG Export Plug-In  -->
<svg version="1.1"
	 xmlns="http://www.w3.org/2000/svg" xmlns:xlink="http://www.w3.org/1999/xlink" xmlns:a="http://ns.adobe.com/AdobeSVGViewerExtensions/3.0/"
	 x="0px" y="0px" width="354.7px" height="285.3px" viewBox="0 0 354.7 285.3" enable-background="new 0 0 354.7 285.3"
	 xml:space="preserve">
<defs>
</defs>
<g>
	<path fill="none" stroke="#006838" stroke-width="5" stroke-miterlimit="10" stroke-dasharray="13,7" d="M3.5,170.8
		c-0.8-3.9,1.3-6.5,3.8-9.1c25.4-26.7,50.6-53.6,76.1-80.2c24.2-25.3,48.6-50.4,72.9-75.5c0.9-0.9,1.8-1.8,2.8-2.6
		c1.6-1.3,3.1-1.2,4.8,0c0.8,0.6,2,0.6,3,0.8c1,0.2,2,0.2,2.9,0.5c37.6,10.8,75.1,21.5,112.7,32.3c16.8,4.8,33.5,9.6,50.3,14.4
		c4.7,1.3,5.7,4,2.8,8c-1.2,1.6-2,3.1-1.6,5.2c1.2,6,2.2,12,3.2,18c0.2,1.4,1,2.3,2.4,2.8c2.7,1.1,5.4,2.2,8,3.7
		c5.3,3,6.1,6.5,2.5,11.4c-4.9,6.7-10,13.2-15.1,19.7c-40.7,51.8-81.4,103.6-122.1,155.4c-6.6,8.4-9,9-19,4.8
		c-55.8-23.4-112-46-168.6-67.4c-3.4-1.3-6.7-2.4-10.5-1.5c-2.2,0.5-3.7-1.2-4.3-3.1c-1.4-4.2-2.9-8.4-3.7-12.7
		c-1.5-8.2-2.6-16.5-3.8-24.7C3.1,170.8,3.3,170.8,3.5,170.8z M197.7,264.6c0.9-1.1,1.6-2,2.4-2.9c15.3-19.1,30.6-38.1,45.8-57.2
		c30.1-37.6,60.1-75.1,90.2-112.7c0.5-0.7,1.1-1.6,1-2.4c-0.4-2.4-1.1-4.7-1.7-7.4c-0.6,0.7-0.9,1.1-1.2,1.5
		c-45.5,57-90.9,114-136.4,170.9c-3.5,4.3-3.5,4.3-0.8,9.1C197,263.8,197.3,264,197.7,264.6z M205.4,274.6c2.4-3,4.7-5.8,6.9-8.6
		c42.8-54.1,85.5-108.2,128.4-162.3c2.3-2.9,3.4-5.3,1.3-8.5c-0.1-0.1-0.2-0.2-0.5-0.4c-0.5,0.6-1,1.1-1.4,1.7
		c-34.5,43.1-68.9,86.1-103.4,129.2c-11,13.8-22.1,27.6-33.1,41.4c-0.5,0.7-1.1,1.9-0.9,2.5C203.3,271.3,204.4,272.8,205.4,274.6z
		 M333.6,73.8c-0.8,0.9-1.4,1.6-2,2.4c-45.9,57.6-91.8,115.2-137.7,172.7c-2.9,3.6-2.8,4.8,0.2,8.2c0.5-0.6,1-1.1,1.4-1.7
		c45.2-56.7,90.4-113.3,135.7-169.9c2.8-3.5,4.7-6.7,2.8-11.1C333.9,74.3,333.8,74.2,333.6,73.8z M19.3,191.5c0.7,3.3,0,6.2,4.1,7.7
		c20.2,7.1,40.4,14.5,60.5,22.1c36.7,14,73.2,28.3,109.8,42.4c0.3,0.1,0.7,0.1,1.2,0.2c-1.1-3.7-3.1-6.3-6.9-7.5
		c-2.5-0.8-4.9-2.1-7.4-3.1c-41.6-16.1-83.2-32.2-124.8-48.2C43.9,200.5,31.8,196.1,19.3,191.5z M188.4,250c0-3.5-1.2-5.7-4.6-6.9
		c-4-1.4-7.8-3.4-11.8-4.9C121.7,219,71.3,199.7,21,180.4c-1.1-0.4-2.3-0.8-3.5-1.2c0.2,4.9,0.2,4.9,4.2,6.4
		c10.2,3.8,20.5,7.6,30.7,11.5c42,16.2,84.1,32.5,126.1,48.7C181.8,247.1,185.1,248.6,188.4,250z M20.8,204.3
		c-0.2,0.3-0.4,0.7-0.6,1c1,0.6,2,1.3,3.1,1.8c51.4,20.3,102.8,40.6,154.2,60.9c7.2,2.8,14.3,5.9,21.8,9.1c-1.5-3.5-2.9-6.2-6.5-7.5
		c-4.2-1.5-8.3-3.6-12.5-5.2c-48.8-18.5-97.6-36.9-146.5-55.3C29.6,207.4,25.2,205.9,20.8,204.3z M16,170.2
		c-0.1,0.4-0.2,0.7-0.3,1.1c56.8,21.4,114,41.9,170.1,65.4c0.4-2.1,0-3.5-2.3-4.4c-36.2-14-72.3-28.2-108.6-42
		c-17.9-6.8-36-12.7-54.1-19C19.2,170.7,17.6,170.5,16,170.2z M189,244.1c1-1.2,1.7-2.1,2.4-3c34.5-42.9,69-85.9,103.4-128.9
		c12.2-15.1,24.3-30.3,36.4-45.5c0.5-0.7,0.8-1.6,1.1-2.4c-0.2-0.1-0.5-0.2-0.7-0.3c-0.5,0.6-1,1.1-1.4,1.7
		c-24.1,29.8-48.1,59.7-72.2,89.5c-19.8,24.5-39.6,48.9-59.4,73.4c-2,2.5-4.3,4.2-7.4,5.3c-1.4,0.5-2.8,2.6-3.2,4.2
		C187.7,239.9,188.6,241.8,189,244.1z M14.8,178.1c-0.9,0.1-1.6,0.1-2.3,0.2c-0.1,4.6,0.2,5.1,3.1,4.3
		C15.3,181.2,15,179.8,14.8,178.1z M16.8,189.7c-1.1,0.2-1.9,0.3-2.9,0.5c0.2,1.1,0.4,2,0.7,3c0.9-0.2,1.6-0.3,2.5-0.5
		C17,191.7,16.9,190.8,16.8,189.7z M16.8,204.3c0.2,0,0.4,0,0.7,0c0.3-1,0.7-1.9,1.1-3.2c-1.2,0.1-1.9,0.1-3.1,0.2
		C16,202.5,16.4,203.4,16.8,204.3z"/>
</g>
</svg>
