<!-- Generator: Adobe Illustrator 18.0.0, SVG Export Plug-In  -->
<svg version="1.1"
	 xmlns="http://www.w3.org/2000/svg" xmlns:xlink="http://www.w3.org/1999/xlink" xmlns:a="http://ns.adobe.com/AdobeSVGViewerExtensions/3.0/"
	 x="0px" y="0px" width="697.9px" height="123.8px" viewBox="0 0 697.9 123.8" enable-background="new 0 0 697.9 123.8"
	 xml:space="preserve">
<defs>
</defs>
<g>
	<polyline fill="none" stroke="#FFFFFF" stroke-width="1.8928" stroke-miterlimit="10" points="0.4,122.9 264.5,14 332.8,14 	"/>
	<circle fill="#FFFFFF" cx="338.6" cy="15.3" r="7.7"/>
	<line fill="none" stroke="#FFFFFF" stroke-width="1.8928" stroke-miterlimit="10" x1="356.4" y1="28.1" x2="696.5" y2="28.1"/>
	<g>
		<path fill="#FFFFFF" d="M360,1.4h5.9c2.8,0,4.7,0.4,6,1.3c1.2,0.9,1.8,2.2,1.8,4.1c0,1.3-0.3,2.3-0.9,3.1s-1.5,1.4-2.6,1.6v0.1
			c1.4,0.3,2.4,0.9,3.1,1.7c0.7,0.8,1,2,1,3.4c0,1.9-0.6,3.5-1.9,4.6c-1.3,1.1-3,1.6-5.2,1.6H360V1.4z M363.3,10.3h3.1
			c1.4,0,2.4-0.2,3-0.7c0.6-0.5,0.9-1.3,0.9-2.4c0-1-0.3-1.8-1-2.2c-0.7-0.5-1.8-0.7-3.2-0.7h-2.8V10.3z M363.3,13.2V20h3.5
			c1.4,0,2.4-0.3,3.1-0.9c0.7-0.6,1-1.5,1-2.7c0-1.1-0.4-2-1.1-2.5s-1.8-0.8-3.2-0.8H363.3z"/>
		<path fill="#FFFFFF" d="M385.9,6.4c0.6,0,1.2,0,1.6,0.1l-0.3,3.2c-0.5-0.1-0.9-0.2-1.4-0.2c-1.3,0-2.3,0.5-3.1,1.4
			c-0.8,0.9-1.2,2.1-1.2,3.5V23h-3.2V6.7h2.5l0.4,2.9h0.2c0.5-1,1.2-1.8,2-2.3C384.1,6.6,384.9,6.4,385.9,6.4z"/>
		<path fill="#FFFFFF" d="M390.1,2.3c0-0.6,0.2-1.1,0.5-1.4s0.8-0.5,1.3-0.5c0.6,0,1,0.2,1.3,0.5c0.3,0.3,0.5,0.8,0.5,1.4
			c0,0.6-0.2,1.1-0.5,1.4c-0.3,0.3-0.8,0.5-1.3,0.5c-0.6,0-1-0.2-1.3-0.5C390.2,3.4,390.1,2.9,390.1,2.3z M393.5,23h-3.2V6.7h3.2V23
			z"/>
		<path fill="#FFFFFF" d="M408.2,18.4c0,1.6-0.5,2.8-1.6,3.7c-1.1,0.9-2.6,1.3-4.6,1.3c-2,0-3.6-0.3-4.9-1v-3c1.8,0.9,3.4,1.3,5,1.3
			c2,0,3-0.6,3-1.9c0-0.4-0.1-0.8-0.3-1s-0.6-0.6-1.1-0.9c-0.5-0.3-1.2-0.6-2.1-1c-1.7-0.7-2.9-1.5-3.5-2.2s-0.9-1.7-0.9-2.8
			c0-1.4,0.5-2.5,1.6-3.3c1-0.8,2.5-1.2,4.3-1.2c1.8,0,3.5,0.4,5,1.2l-1,2.6c-1.6-0.7-3-1.1-4.1-1.1c-1.7,0-2.5,0.5-2.5,1.6
			c0,0.5,0.2,0.9,0.7,1.3c0.4,0.4,1.4,0.8,2.9,1.5c1.2,0.5,2.2,1,2.7,1.4c0.6,0.4,1,0.9,1.3,1.5C408.1,16.9,408.2,17.6,408.2,18.4z"
			/>
		<path fill="#FFFFFF" d="M419.4,6.4c1.9,0,3.4,0.7,4.4,2.2c1.1,1.5,1.6,3.6,1.6,6.2c0,2.7-0.5,4.8-1.6,6.3s-2.5,2.2-4.4,2.2
			c-1.9,0-3.4-0.7-4.5-2.2h-0.2l-0.6,1.9h-2.4V0h3.2v5.5c0,0.4,0,1-0.1,1.8c0,0.8-0.1,1.3-0.1,1.5h0.1
			C415.9,7.2,417.4,6.4,419.4,6.4z M418.6,9.2c-1.3,0-2.2,0.4-2.8,1.2c-0.6,0.8-0.9,2.2-0.9,4.1v0.2c0,2,0.3,3.4,0.9,4.3
			c0.6,0.9,1.5,1.3,2.9,1.3c1.1,0,2-0.5,2.6-1.5c0.6-1,0.9-2.4,0.9-4.2C422.1,11.1,420.9,9.2,418.6,9.2z"/>
		<path fill="#FFFFFF" d="M438.6,23l-0.6-2.3h-0.1c-0.7,1-1.5,1.7-2.2,2c-0.7,0.4-1.7,0.5-2.8,0.5c-1.5,0-2.6-0.4-3.5-1.3
			c-0.8-0.9-1.3-2.1-1.3-3.7c0-1.7,0.6-3,1.7-3.8c1.2-0.9,2.9-1.3,5.3-1.4l2.6-0.1v-0.9c0-1-0.2-1.8-0.7-2.3S435.9,9,434.9,9
			c-0.8,0-1.5,0.1-2.2,0.4c-0.7,0.2-1.4,0.5-2.1,0.9l-1-2.5c0.8-0.5,1.7-0.8,2.7-1.1c1-0.2,1.9-0.4,2.8-0.4c1.9,0,3.4,0.5,4.4,1.4
			c1,0.9,1.5,2.3,1.5,4.3v11H438.6z M433.8,20.6c1.2,0,2.1-0.4,2.8-1.1c0.7-0.7,1.1-1.7,1.1-3v-1.4l-1.9,0.1
			c-1.5,0.1-2.6,0.3-3.3,0.8c-0.7,0.5-1,1.2-1,2.2c0,0.7,0.2,1.3,0.6,1.7C432.4,20.4,433,20.6,433.8,20.6z"/>
		<path fill="#FFFFFF" d="M458.7,23h-3.2V13c0-1.3-0.2-2.2-0.7-2.8c-0.5-0.6-1.2-0.9-2.2-0.9c-1.4,0-2.4,0.4-3,1.3s-0.9,2.3-0.9,4.4
			V23h-3.2V6.7h2.5l0.5,2.1h0.2c0.5-0.8,1.1-1.4,1.9-1.8c0.8-0.4,1.8-0.6,2.8-0.6c3.6,0,5.4,2,5.4,6V23z"/>
		<path fill="#FFFFFF" d="M469.8,23.3c-2.4,0-4.2-0.7-5.5-2.2c-1.3-1.5-2-3.5-2-6.1c0-2.7,0.6-4.8,1.8-6.3c1.2-1.5,2.9-2.3,5.1-2.3
			c2,0,3.6,0.7,4.7,2c1.2,1.3,1.7,3.1,1.7,5.4v1.9h-10.1c0,1.6,0.4,2.8,1.2,3.7c0.7,0.9,1.8,1.3,3.2,1.3c0.9,0,1.7-0.1,2.5-0.3
			c0.8-0.2,1.6-0.5,2.5-0.9v2.8c-0.8,0.4-1.6,0.7-2.4,0.9C471.7,23.2,470.8,23.3,469.8,23.3z M469.2,9c-1,0-1.8,0.3-2.5,1
			c-0.6,0.7-1,1.7-1.1,3.1h6.9c0-1.4-0.3-2.4-0.9-3.1S470.2,9,469.2,9z"/>
		<path fill="#FFFFFF" d="M486.9,23V1.4h3.3V20h8.5v3H486.9z"/>
		<path fill="#FFFFFF" d="M501.6,2.3c0-0.6,0.2-1.1,0.5-1.4s0.8-0.5,1.3-0.5c0.6,0,1,0.2,1.3,0.5c0.3,0.3,0.5,0.8,0.5,1.4
			c0,0.6-0.2,1.1-0.5,1.4c-0.3,0.3-0.8,0.5-1.3,0.5c-0.6,0-1-0.2-1.3-0.5C501.7,3.4,501.6,2.9,501.6,2.3z M505,23h-3.2V6.7h3.2V23z"
			/>
		<path fill="#FFFFFF" d="M523,14.8c0,2.7-0.6,4.8-1.9,6.3c-1.3,1.5-3,2.2-5.3,2.2c-1.4,0-2.7-0.3-3.7-1c-1.1-0.7-1.9-1.7-2.5-3
			c-0.6-1.3-0.9-2.8-0.9-4.5c0-2.7,0.6-4.7,1.9-6.2s3-2.2,5.3-2.2c2.2,0,3.9,0.8,5.2,2.3C522.3,10.2,523,12.2,523,14.8z M512,14.8
			c0,3.8,1.3,5.7,3.9,5.7c2.6,0,3.8-1.9,3.8-5.7c0-3.7-1.3-5.6-3.9-5.6c-1.3,0-2.3,0.5-2.9,1.4C512.3,11.6,512,13,512,14.8z"/>
		<path fill="#FFFFFF" d="M540,23h-3.2V13c0-1.3-0.2-2.2-0.7-2.8c-0.5-0.6-1.2-0.9-2.2-0.9c-1.4,0-2.4,0.4-3,1.3s-0.9,2.3-0.9,4.4
			V23h-3.2V6.7h2.5l0.5,2.1h0.2c0.5-0.8,1.1-1.4,1.9-1.8c0.8-0.4,1.8-0.6,2.8-0.6c3.6,0,5.4,2,5.4,6V23z"/>
		<path fill="#FFFFFF" d="M554.6,18.4c0,1.6-0.5,2.8-1.6,3.7c-1.1,0.9-2.6,1.3-4.6,1.3c-2,0-3.6-0.3-4.9-1v-3c1.8,0.9,3.4,1.3,5,1.3
			c2,0,3-0.6,3-1.9c0-0.4-0.1-0.8-0.3-1s-0.6-0.6-1.1-0.9c-0.5-0.3-1.2-0.6-2.1-1c-1.7-0.7-2.9-1.5-3.5-2.2s-0.9-1.7-0.9-2.8
			c0-1.4,0.5-2.5,1.6-3.3c1-0.8,2.5-1.2,4.3-1.2c1.8,0,3.5,0.4,5,1.2l-1,2.6c-1.6-0.7-3-1.1-4.1-1.1c-1.7,0-2.5,0.5-2.5,1.6
			c0,0.5,0.2,0.9,0.7,1.3c0.4,0.4,1.4,0.8,2.9,1.5c1.2,0.5,2.2,1,2.7,1.4c0.6,0.4,1,0.9,1.3,1.5C554.5,16.9,554.6,17.6,554.6,18.4z"
			/>
	</g>
	<g>
		<path fill="#FFFFFF" d="M552.4,58.9c0,2.2-0.8,3.9-2.3,5.1c-1.6,1.2-3.7,1.8-6.5,1.8c-2.8,0-5-0.4-6.8-1.3v-3.8
			c1.1,0.5,2.3,0.9,3.5,1.2c1.2,0.3,2.4,0.4,3.5,0.4c1.6,0,2.7-0.3,3.5-0.9s1.1-1.4,1.1-2.4c0-0.9-0.3-1.7-1-2.3
			c-0.7-0.6-2.1-1.4-4.3-2.2c-2.2-0.9-3.8-1.9-4.7-3.1s-1.4-2.5-1.4-4.2c0-2,0.7-3.6,2.2-4.8c1.4-1.2,3.4-1.7,5.8-1.7
			c2.3,0,4.6,0.5,7,1.5l-1.3,3.2c-2.2-0.9-4.1-1.4-5.8-1.4c-1.3,0-2.3,0.3-2.9,0.8c-0.7,0.6-1,1.3-1,2.2c0,0.6,0.1,1.2,0.4,1.6
			c0.3,0.4,0.7,0.9,1.3,1.3c0.6,0.4,1.7,0.9,3.3,1.6c1.8,0.7,3.1,1.4,3.9,2.1s1.4,1.4,1.8,2.2C552.2,56.9,552.4,57.8,552.4,58.9z"/>
		<path fill="#FFFFFF" d="M556.5,42.3c0-0.7,0.2-1.2,0.6-1.6s0.9-0.6,1.6-0.6c0.7,0,1.2,0.2,1.6,0.6s0.6,0.9,0.6,1.6
			c0,0.7-0.2,1.2-0.6,1.6c-0.4,0.4-0.9,0.6-1.6,0.6c-0.7,0-1.3-0.2-1.6-0.6C556.6,43.5,556.5,42.9,556.5,42.3z M560.6,65.6h-3.9
			V47.2h3.9V65.6z"/>
		<path fill="#FFFFFF" d="M582.4,65.6h-3.9V54.2c0-1.4-0.3-2.5-0.9-3.2c-0.6-0.7-1.5-1-2.7-1c-1.7,0-2.9,0.5-3.6,1.5
			c-0.8,1-1.1,2.6-1.1,4.9v9.2h-3.9V47.2h3.1l0.5,2.4h0.2c0.6-0.9,1.3-1.6,2.4-2c1-0.5,2.2-0.7,3.4-0.7c4.4,0,6.6,2.2,6.6,6.7V65.6z
			"/>
		<path fill="#FFFFFF" d="M595.2,65.9c-2.8,0-4.9-0.8-6.3-2.4c-1.4-1.6-2.2-4-2.2-7c0-3.1,0.8-5.5,2.3-7.1c1.5-1.7,3.7-2.5,6.6-2.5
			c1.9,0,3.7,0.4,5.2,1.1l-1.2,3.1c-1.7-0.6-3-1-4.1-1c-3.2,0-4.8,2.1-4.8,6.3c0,2.1,0.4,3.6,1.2,4.6c0.8,1,2,1.6,3.5,1.6
			c1.7,0,3.4-0.4,4.9-1.3v3.4c-0.7,0.4-1.4,0.7-2.2,0.9C597.3,65.8,596.4,65.9,595.2,65.9z"/>
		<path fill="#FFFFFF" d="M612.7,65.9c-2.9,0-5.1-0.8-6.7-2.5c-1.6-1.7-2.4-4-2.4-6.9c0-3,0.7-5.4,2.2-7.1c1.5-1.7,3.6-2.6,6.2-2.6
			c2.4,0,4.3,0.7,5.8,2.2c1.4,1.5,2.1,3.5,2.1,6.1v2.1h-12.3c0.1,1.8,0.5,3.2,1.4,4.1s2.2,1.4,3.8,1.4c1.1,0,2.1-0.1,3-0.3
			c0.9-0.2,1.9-0.5,3-1v3.2c-1,0.5-1.9,0.8-2.9,1C615.1,65.8,614,65.9,612.7,65.9z M612,49.8c-1.2,0-2.2,0.4-3,1.2
			c-0.7,0.8-1.2,1.9-1.3,3.4h8.4c0-1.5-0.4-2.7-1.1-3.5C614.2,50.2,613.2,49.8,612,49.8z"/>
		<path fill="#FFFFFF" d="M634.5,65.6h-3.9V49.8c0-1.9,0-3.4,0.1-4.5c-0.3,0.3-0.6,0.6-0.9,0.9c-0.4,0.3-1.6,1.3-3.7,3.1l-2-2.5
			l7.2-5.6h3.3V65.6z"/>
		<path fill="#FFFFFF" d="M658.9,51.6c0,4.8-1,8.4-2.9,10.7c-1.9,2.4-4.8,3.5-8.7,3.5c-1.5,0-2.5-0.1-3.2-0.3v-3.3
			c1,0.3,2,0.4,3,0.4c2.6,0,4.6-0.7,5.9-2.1c1.3-1.4,2-3.6,2.1-6.7h-0.2c-0.7,1-1.4,1.7-2.4,2.2c-0.9,0.4-2,0.7-3.3,0.7
			c-2.2,0-3.8-0.7-5.1-2c-1.2-1.3-1.8-3.2-1.8-5.5c0-2.5,0.7-4.6,2.1-6.1s3.4-2.3,5.8-2.3c1.7,0,3.2,0.4,4.5,1.3s2.3,2.1,3,3.7
			C658.6,47.4,658.9,49.4,658.9,51.6z M650.4,44.2c-1.4,0-2.4,0.4-3.1,1.3s-1.1,2.1-1.1,3.7c0,1.4,0.3,2.5,1,3.3
			c0.7,0.8,1.7,1.2,3.1,1.2c1.3,0,2.4-0.4,3.3-1.2c0.9-0.8,1.3-1.7,1.3-2.8c0-1-0.2-1.9-0.6-2.8c-0.4-0.9-0.9-1.5-1.6-2
			C652.1,44.4,651.3,44.2,650.4,44.2z"/>
		<path fill="#FFFFFF" d="M678.4,51.6c0,4.8-1,8.4-2.9,10.7c-1.9,2.4-4.8,3.5-8.7,3.5c-1.5,0-2.5-0.1-3.2-0.3v-3.3
			c1,0.3,2,0.4,3,0.4c2.6,0,4.6-0.7,5.9-2.1c1.3-1.4,2-3.6,2.1-6.7h-0.2c-0.7,1-1.4,1.7-2.4,2.2c-0.9,0.4-2,0.7-3.3,0.7
			c-2.2,0-3.8-0.7-5.1-2c-1.2-1.3-1.8-3.2-1.8-5.5c0-2.5,0.7-4.6,2.1-6.1s3.4-2.3,5.8-2.3c1.7,0,3.2,0.4,4.5,1.3s2.3,2.1,3,3.7
			C678,47.4,678.4,49.4,678.4,51.6z M669.9,44.2c-1.4,0-2.4,0.4-3.1,1.3s-1.1,2.1-1.1,3.7c0,1.4,0.3,2.5,1,3.3
			c0.7,0.8,1.7,1.2,3.1,1.2c1.3,0,2.4-0.4,3.3-1.2c0.9-0.8,1.3-1.7,1.3-2.8c0-1-0.2-1.9-0.6-2.8c-0.4-0.9-0.9-1.5-1.6-2
			C671.5,44.4,670.8,44.2,669.9,44.2z"/>
		<path fill="#FFFFFF" d="M681.4,55.2c0-9.5,3.9-14.3,11.6-14.3c1.2,0,2.3,0.1,3.1,0.3v3.3c-0.8-0.2-1.8-0.4-2.9-0.4
			c-2.6,0-4.6,0.7-5.9,2.1s-2,3.6-2.1,6.7h0.2c0.5-0.9,1.3-1.6,2.2-2.1s2.1-0.7,3.3-0.7c2.2,0,3.9,0.7,5.2,2
			c1.2,1.4,1.8,3.2,1.8,5.5c0,2.6-0.7,4.6-2.1,6c-1.4,1.5-3.4,2.2-5.8,2.2c-1.7,0-3.3-0.4-4.5-1.3c-1.3-0.8-2.3-2.1-3-3.7
			S681.4,57.4,681.4,55.2z M689.9,62.7c1.3,0,2.4-0.4,3.1-1.3c0.7-0.9,1.1-2.1,1.1-3.7c0-1.4-0.3-2.5-1-3.3
			c-0.7-0.8-1.7-1.2-3.1-1.2c-0.8,0-1.6,0.2-2.3,0.5s-1.3,0.9-1.7,1.5c-0.4,0.6-0.6,1.3-0.6,1.9c0,1.6,0.4,2.9,1.3,4
			C687.5,62.1,688.6,62.7,689.9,62.7z"/>
	</g>
</g>
</svg>
