<!-- Generator: Adobe Illustrator 18.0.0, SVG Export Plug-In  -->
<svg version="1.1"
	 xmlns="http://www.w3.org/2000/svg" xmlns:xlink="http://www.w3.org/1999/xlink" xmlns:a="http://ns.adobe.com/AdobeSVGViewerExtensions/3.0/"
	 x="0px" y="0px" width="191.8px" height="167.8px" viewBox="0 0 191.8 167.8" enable-background="new 0 0 191.8 167.8"
	 xml:space="preserve">
<defs>
</defs>
<g opacity="0.99">
	<path fill="none" stroke="#B6407B" stroke-width="5" stroke-miterlimit="10" stroke-dasharray="13,6" d="M95.1,49.1l82.7-14
		c10-1.7,14.2,7.4,9.4,20.2l-25.6,68.1c-4.8,12.8-17,24.7-27,26.4l-82.7,14c-10,1.7-14.2-7.4-9.4-20.2l25.6-68.1
		C73,62.7,85.1,50.8,95.1,49.1z"/>
	<path fill="none" stroke="#B6407B" stroke-width="5" stroke-miterlimit="10" stroke-dasharray="13,6" d="M37.6,30.1
		c0.2-0.3,0.6-0.6,1-0.9c1.3-0.9,2.6-1.3,4-1.1l4.7-1.1c0.8-0.6,1.8-0.8,2.8-0.6L154.8,2.7c2.6-0.6,5.6,0.1,6.8,1.6L188.6,39
		c0.8,1,0.5,2.1-0.7,2.9c1.3,3.6,1.1,8.8-1.2,14.7l-25.6,68.1c-4.8,12.8-17,24.7-27,26.4l-82.7,14c-3.6,0.6-6.4-0.2-8.3-2
		c-0.8-0.2-1.6-0.6-2.4-1.3l-26.6-22.6c-0.3-0.3-0.6-0.6-0.9-0.9c-0.3-0.2-0.6-0.3-0.9-0.6l-6-4.6c-3.7-2.9-5-9.8-2.9-15.6
		l31.3-83.1C35.5,32.6,36.5,31.1,37.6,30.1z"/>
</g>
</svg>
