<!-- Generator: Adobe Illustrator 18.0.0, SVG Export Plug-In  -->
<svg version="1.1"
	 xmlns="http://www.w3.org/2000/svg" xmlns:xlink="http://www.w3.org/1999/xlink" xmlns:a="http://ns.adobe.com/AdobeSVGViewerExtensions/3.0/"
	 x="0px" y="0px" width="144.4px" height="126.5px" viewBox="0 0 144.4 126.5" enable-background="new 0 0 144.4 126.5"
	 xml:space="preserve">
<defs>
</defs>
<g>
	<path fill="#1C1D1D" d="M46.9,51.5c0.9,1.1,3.3,1.5,5.4,0.9l89-23.3c2-0.5,2.9-1.8,2-2.9L120.7,1.2c-0.9-1.1-3.3-1.5-5.4-0.9
		l-89,23.3c-2,0.5-2.9,1.8-2,2.9L46.9,51.5z"/>
	<path fill="#1C1D1D" d="M7,99.9c-0.8,2.4,0.5,5.8,2.8,7.4l21.7,16.1c2.3,1.7,4.7,1.1,5.5-1.3l23.7-76.1c0.8-2.4-0.5-5.8-2.8-7.4
		L36.2,22.4c-2.3-1.7-4.7-1.1-5.5,1.3L7,99.9z"/>
	<g id="item_1_">
		<path fill="#1C1D1D" stroke="#D3D4D8" stroke-width="1.6216" stroke-miterlimit="10" d="M39.9,125.5l64.5-13.3
			c7.8-1.6,16.9-10.9,20.2-20.7l17.7-51.9c3.3-9.8-0.3-16.5-8.1-14.8L69.8,38C62,39.6,52.9,48.9,49.5,58.7l-17.7,51.9
			C28.5,120.4,32.1,127.1,39.9,125.5z"/>
		<path fill="#0B1616" d="M61.3,80.7c-6,17.7,0.5,29.6,14.6,26.7s30.4-19.6,36.4-37.2c6-17.7-0.5-29.6-14.6-26.7
			S67.3,63.1,61.3,80.7z"/>
		<path fill="#ECECEC" d="M65.9,80.3c-4.9,14.4,0.4,24.2,11.9,21.8c11.5-2.4,24.8-16,29.7-30.4c4.9-14.4-0.4-24.2-11.9-21.8
			S70.8,65.9,65.9,80.3z"/>
		<path fill="#141717" d="M70.3,79.2c-3.8,11.3,0.3,18.9,9.3,17c9-1.9,19.4-12.5,23.2-23.7s-0.3-18.9-9.3-17S74.2,67.9,70.3,79.2z"
			/>
		<path fill="#54353A" d="M79.9,77c-1.6,4.8,0.1,8,3.9,7.2c3.8-0.8,8.2-5.3,9.8-10c1.6-4.8-0.1-8-3.9-7.2
			C85.9,67.8,81.5,72.3,79.9,77z"/>
		<polygon fill="#AAA59A" points="80.7,80.9 90.3,78.9 93.7,68.9 84.1,70.9 		"/>
		<path id="REC_2_" fill="#EF5248" d="M124.8,47.5l2.5-0.5c1.3-0.3,2.8-1.8,3.4-3.4l1.1-3.1c0.6-1.6-0.1-2.7-1.4-2.5l-2.5,0.5
			c-1.3,0.3-2.8,1.8-3.4,3.4l-1.1,3.1C122.9,46.7,123.5,47.8,124.8,47.5z"/>
	</g>
	<path fill="#1C1D1D" d="M0.6,91.5c-1.5,4.4-0.2,9.6,2.8,11.6l4.9,3.2c3,2,6.7,0.1,8.2-4.3l21.6-63.4c1.5-4.4,0.2-9.6-2.8-11.6
		l-4.9-3.2c-3-2-6.7-0.1-8.2,4.3L0.6,91.5z"/>
</g>
</svg>
