<!-- Generator: Adobe Illustrator 18.0.0, SVG Export Plug-In  -->
<svg version="1.1"
	 xmlns="http://www.w3.org/2000/svg" xmlns:xlink="http://www.w3.org/1999/xlink" xmlns:a="http://ns.adobe.com/AdobeSVGViewerExtensions/3.0/"
	 x="0px" y="0px" width="594.9px" height="61.9px" viewBox="0 0 594.9 61.9" enable-background="new 0 0 594.9 61.9"
	 xml:space="preserve">
<defs>
</defs>
<polyline fill="none" stroke="#FFFFFF" stroke-width="1.8928" stroke-miterlimit="10" points="0,13.9 128,15 196.2,15 "/>
<circle fill="#FFFFFF" cx="202" cy="16.3" r="7.7"/>
<line fill="none" stroke="#FFFFFF" stroke-width="1.8928" stroke-miterlimit="10" x1="219.9" y1="29.1" x2="592.7" y2="28.8"/>
<g>
	<path fill="#FFFFFF" d="M448.6,54.9c0,2.2-0.8,3.9-2.3,5.1c-1.6,1.2-3.7,1.8-6.5,1.8c-2.8,0-5-0.4-6.8-1.3v-3.8
		c1.1,0.5,2.3,0.9,3.5,1.2c1.2,0.3,2.4,0.4,3.5,0.4c1.6,0,2.7-0.3,3.5-0.9c0.7-0.6,1.1-1.4,1.1-2.4c0-0.9-0.3-1.7-1-2.3
		c-0.7-0.6-2.1-1.4-4.3-2.2c-2.2-0.9-3.8-1.9-4.7-3.1c-0.9-1.2-1.4-2.5-1.4-4.2c0-2,0.7-3.6,2.2-4.8c1.4-1.2,3.4-1.7,5.8-1.7
		c2.3,0,4.6,0.5,7,1.5l-1.3,3.2c-2.2-0.9-4.1-1.4-5.8-1.4c-1.3,0-2.3,0.3-2.9,0.8c-0.7,0.6-1,1.3-1,2.2c0,0.6,0.1,1.2,0.4,1.6
		c0.3,0.4,0.7,0.9,1.3,1.3c0.6,0.4,1.7,0.9,3.3,1.6c1.8,0.7,3.1,1.4,3.9,2.1c0.8,0.6,1.4,1.4,1.8,2.2
		C448.4,52.9,448.6,53.8,448.6,54.9z"/>
	<path fill="#FFFFFF" d="M452.7,38.3c0-0.7,0.2-1.2,0.6-1.6s0.9-0.6,1.6-0.6c0.7,0,1.2,0.2,1.6,0.6s0.6,0.9,0.6,1.6
		c0,0.7-0.2,1.2-0.6,1.6s-0.9,0.6-1.6,0.6c-0.7,0-1.3-0.2-1.6-0.6S452.7,38.9,452.7,38.3z M456.8,61.5h-3.9V43.1h3.9V61.5z"/>
	<path fill="#FFFFFF" d="M478.6,61.5h-3.9V50.2c0-1.4-0.3-2.5-0.9-3.2c-0.6-0.7-1.5-1-2.7-1c-1.7,0-2.9,0.5-3.6,1.5
		c-0.8,1-1.1,2.6-1.1,4.9v9.2h-3.9V43.1h3.1l0.5,2.4h0.2c0.6-0.9,1.3-1.6,2.4-2c1-0.5,2.2-0.7,3.4-0.7c4.4,0,6.6,2.2,6.6,6.7V61.5z"
		/>
	<path fill="#FFFFFF" d="M491.4,61.9c-2.8,0-4.9-0.8-6.3-2.4s-2.2-4-2.2-7c0-3.1,0.8-5.5,2.3-7.1c1.5-1.7,3.7-2.5,6.6-2.5
		c1.9,0,3.7,0.4,5.2,1.1l-1.2,3.1c-1.7-0.6-3-1-4.1-1c-3.2,0-4.8,2.1-4.8,6.3c0,2.1,0.4,3.6,1.2,4.6s2,1.6,3.5,1.6
		c1.7,0,3.4-0.4,4.9-1.3v3.4c-0.7,0.4-1.4,0.7-2.2,0.9C493.5,61.8,492.6,61.9,491.4,61.9z"/>
	<path fill="#FFFFFF" d="M508.9,61.9c-2.9,0-5.1-0.8-6.7-2.5s-2.4-4-2.4-6.9c0-3,0.7-5.4,2.2-7.1s3.6-2.6,6.2-2.6
		c2.4,0,4.3,0.7,5.8,2.2c1.4,1.5,2.1,3.5,2.1,6.1v2.1h-12.3c0.1,1.8,0.5,3.2,1.4,4.1c0.9,1,2.2,1.4,3.8,1.4c1.1,0,2.1-0.1,3-0.3
		c0.9-0.2,1.9-0.5,3-1v3.2c-1,0.5-1.9,0.8-2.9,1C511.3,61.8,510.2,61.9,508.9,61.9z M508.2,45.8c-1.2,0-2.2,0.4-3,1.2
		c-0.7,0.8-1.2,1.9-1.3,3.4h8.4c0-1.5-0.4-2.7-1.1-3.5C510.4,46.2,509.4,45.8,508.2,45.8z"/>
	<path fill="#FFFFFF" d="M530.7,61.5h-3.9V45.8c0-1.9,0-3.4,0.1-4.5c-0.3,0.3-0.6,0.6-0.9,0.9c-0.4,0.3-1.6,1.3-3.7,3.1l-2-2.5
		l7.2-5.6h3.3V61.5z"/>
	<path fill="#FFFFFF" d="M546.9,36.9c2.3,0,4.1,0.5,5.5,1.6c1.3,1.1,2,2.5,2,4.2c0,2.5-1.5,4.5-4.5,6c1.9,1,3.3,2,4.1,3
		c0.8,1.1,1.2,2.2,1.2,3.5c0,2-0.7,3.6-2.2,4.8s-3.5,1.8-6,1.8c-2.6,0-4.7-0.6-6.1-1.7c-1.5-1.1-2.2-2.7-2.2-4.8
		c0-1.4,0.4-2.6,1.1-3.7c0.8-1.1,2-2,3.7-2.9C542,48,541,47,540.3,46c-0.6-1-0.9-2.1-0.9-3.3c0-1.8,0.7-3.2,2.1-4.2
		C542.8,37.4,544.7,36.9,546.9,36.9z M542.4,55.2c0,1.2,0.4,2,1.2,2.7s1.9,1,3.3,1c1.4,0,2.5-0.3,3.3-1c0.8-0.7,1.2-1.6,1.2-2.7
		c0-0.9-0.4-1.7-1.1-2.5c-0.7-0.7-1.8-1.4-3.3-2.1l-0.5-0.2c-1.5,0.6-2.5,1.3-3.2,2.1C542.7,53.4,542.4,54.2,542.4,55.2z
		 M546.8,39.9c-1.1,0-2,0.3-2.7,0.8c-0.7,0.5-1,1.3-1,2.2c0,0.6,0.1,1.1,0.4,1.5c0.2,0.5,0.6,0.9,1.1,1.2c0.5,0.4,1.3,0.8,2.4,1.3
		c1.3-0.6,2.3-1.2,2.8-1.9s0.8-1.4,0.8-2.3c0-0.9-0.3-1.7-1-2.2C548.9,40.2,548,39.9,546.8,39.9z"/>
	<path fill="#FFFFFF" d="M558.2,51.2c0-9.5,3.9-14.3,11.6-14.3c1.2,0,2.3,0.1,3.1,0.3v3.3c-0.8-0.2-1.8-0.4-2.9-0.4
		c-2.6,0-4.6,0.7-5.9,2.1s-2,3.6-2.1,6.7h0.2c0.5-0.9,1.3-1.6,2.2-2.1c0.9-0.5,2.1-0.7,3.3-0.7c2.2,0,3.9,0.7,5.2,2
		c1.2,1.4,1.8,3.2,1.8,5.5c0,2.6-0.7,4.6-2.1,6c-1.4,1.5-3.4,2.2-5.8,2.2c-1.7,0-3.3-0.4-4.5-1.3c-1.3-0.8-2.3-2.1-3-3.7
		S558.2,53.4,558.2,51.2z M566.7,58.7c1.3,0,2.4-0.4,3.1-1.3s1.1-2.1,1.1-3.7c0-1.4-0.3-2.5-1-3.3c-0.7-0.8-1.7-1.2-3.1-1.2
		c-0.8,0-1.6,0.2-2.3,0.5c-0.7,0.4-1.3,0.9-1.7,1.5c-0.4,0.6-0.6,1.3-0.6,1.9c0,1.6,0.4,2.9,1.3,4S565.3,58.7,566.7,58.7z"/>
	<path fill="#FFFFFF" d="M594.9,56.2h-3.3v5.3h-3.8v-5.3h-11.1v-3l11.1-16.1h3.8V53h3.3V56.2z M587.8,53v-6.1c0-2.2,0.1-4,0.2-5.3
		h-0.1c-0.3,0.7-0.8,1.6-1.5,2.7l-6,8.8H587.8z"/>
</g>
<g>
	<path fill="#FFFFFF" d="M230.7,3.9c-1.8,0-3.2,0.7-4.2,2c-1,1.4-1.5,3.2-1.5,5.6c0,2.5,0.5,4.4,1.5,5.7s2.4,1.9,4.2,1.9
		c0.8,0,1.6-0.1,2.3-0.3s1.5-0.4,2.3-0.7v2.9c-1.5,0.6-3.2,0.9-5,0.9c-2.8,0-4.9-0.9-6.4-2.7c-1.5-1.8-2.2-4.4-2.2-7.8
		c0-2.1,0.4-4,1.1-5.6c0.7-1.6,1.8-2.8,3.1-3.7c1.4-0.8,3-1.3,4.8-1.3c1.9,0,3.7,0.4,5.4,1.3l-1.1,2.8c-0.6-0.3-1.3-0.6-2-0.9
		C232.2,4,231.4,3.9,230.7,3.9z"/>
	<path fill="#FFFFFF" d="M248,21.8l-0.6-2.2h-0.1c-0.7,0.9-1.4,1.6-2.1,1.9c-0.7,0.3-1.6,0.5-2.7,0.5c-1.4,0-2.5-0.4-3.3-1.2
		c-0.8-0.8-1.2-2-1.2-3.5c0-1.6,0.5-2.8,1.6-3.6c1.1-0.8,2.8-1.3,5-1.3l2.5-0.1v-0.8c0-1-0.2-1.7-0.6-2.2c-0.4-0.5-1.1-0.7-2-0.7
		c-0.7,0-1.4,0.1-2.1,0.3c-0.7,0.2-1.3,0.5-1.9,0.8l-1-2.4c0.8-0.4,1.6-0.8,2.5-1s1.8-0.3,2.6-0.3c1.8,0,3.2,0.4,4.1,1.3
		c0.9,0.9,1.4,2.2,1.4,4v10.4H248z M243.5,19.5c1.1,0,2-0.3,2.7-1c0.7-0.7,1-1.6,1-2.8v-1.3l-1.8,0.1c-1.4,0.1-2.5,0.3-3.1,0.8
		c-0.7,0.5-1,1.2-1,2.1c0,0.7,0.2,1.2,0.6,1.6C242.2,19.3,242.7,19.5,243.5,19.5z"/>
	<path fill="#FFFFFF" d="M261.7,6c0.6,0,1.1,0,1.5,0.1l-0.3,3.1c-0.4-0.1-0.9-0.2-1.3-0.2c-1.2,0-2.2,0.4-3,1.3
		c-0.8,0.9-1.1,2-1.1,3.3v8.1h-3V6.3h2.4l0.4,2.7h0.2c0.5-0.9,1.1-1.7,1.9-2.2C260,6.3,260.8,6,261.7,6z"/>
	<path fill="#FFFFFF" d="M268.9,21.8h-3V0h3V21.8z"/>
	<path fill="#FFFFFF" d="M278.6,19.4c0.7,0,1.5-0.1,2.2-0.4v2.5c-0.3,0.2-0.8,0.3-1.3,0.4c-0.5,0.1-1.1,0.2-1.6,0.2
		c-2.9,0-4.3-1.6-4.3-4.9V8.8h-2V7.3l2.1-1.2l1-3.3h1.9v3.4h4.1v2.5h-4.1v8.3c0,0.8,0.2,1.4,0.5,1.8C277.5,19.2,278,19.4,278.6,19.4
		z"/>
	<path fill="#FFFFFF" d="M296.4,14c0,2.5-0.6,4.5-1.8,5.9c-1.2,1.4-2.9,2.1-5,2.1c-1.3,0-2.5-0.3-3.5-1c-1-0.7-1.8-1.6-2.4-2.8
		s-0.8-2.6-0.8-4.3c0-2.5,0.6-4.5,1.8-5.9c1.2-1.4,2.9-2.1,5-2.1c2.1,0,3.7,0.7,4.9,2.2C295.7,9.6,296.4,11.6,296.4,14z M285.9,14
		c0,3.6,1.2,5.4,3.7,5.4c2.4,0,3.6-1.8,3.6-5.4c0-3.5-1.2-5.3-3.6-5.3c-1.3,0-2.2,0.5-2.8,1.4C286.2,11,285.9,12.3,285.9,14z"/>
	<path fill="#FFFFFF" d="M312.4,21.8h-3.1v-9.5c0-1.2-0.2-2.1-0.7-2.7s-1.1-0.9-2.1-0.9c-1.3,0-2.2,0.4-2.8,1.2
		c-0.6,0.8-0.9,2.2-0.9,4.1v7.7h-3V6.3h2.4l0.4,2h0.2c0.4-0.7,1-1.3,1.8-1.7c0.8-0.4,1.7-0.6,2.6-0.6c3.4,0,5.1,1.9,5.1,5.7V21.8z"
		/>
	<path fill="#FFFFFF" d="M326.9,21.8h-3.1V1.3h10.7v2.8h-7.6v6.4h7.1v2.8h-7.1V21.8z"/>
	<path fill="#FFFFFF" d="M350.3,14c0,2.5-0.6,4.5-1.8,5.9c-1.2,1.4-2.9,2.1-5,2.1c-1.3,0-2.5-0.3-3.5-1c-1-0.7-1.8-1.6-2.4-2.8
		s-0.8-2.6-0.8-4.3c0-2.5,0.6-4.5,1.8-5.9c1.2-1.4,2.9-2.1,5-2.1c2.1,0,3.7,0.7,4.9,2.2C349.7,9.6,350.3,11.6,350.3,14z M339.9,14
		c0,3.6,1.2,5.4,3.7,5.4c2.4,0,3.6-1.8,3.6-5.4c0-3.5-1.2-5.3-3.6-5.3c-1.3,0-2.2,0.5-2.8,1.4C340.2,11,339.9,12.3,339.9,14z"/>
	<path fill="#FFFFFF" d="M366.5,14c0,2.5-0.6,4.5-1.8,5.9c-1.2,1.4-2.9,2.1-5,2.1c-1.3,0-2.5-0.3-3.5-1c-1-0.7-1.8-1.6-2.4-2.8
		S353,15.6,353,14c0-2.5,0.6-4.5,1.8-5.9c1.2-1.4,2.9-2.1,5-2.1c2.1,0,3.7,0.7,4.9,2.2C365.9,9.6,366.5,11.6,366.5,14z M356.1,14
		c0,3.6,1.2,5.4,3.7,5.4c2.4,0,3.6-1.8,3.6-5.4c0-3.5-1.2-5.3-3.6-5.3c-1.3,0-2.2,0.5-2.8,1.4C356.4,11,356.1,12.3,356.1,14z"/>
	<path fill="#FFFFFF" d="M375.3,19.4c0.7,0,1.5-0.1,2.2-0.4v2.5c-0.3,0.2-0.8,0.3-1.3,0.4c-0.5,0.1-1.1,0.2-1.6,0.2
		c-2.9,0-4.3-1.6-4.3-4.9V8.8h-2V7.3l2.1-1.2l1-3.3h1.9v3.4h4.1v2.5h-4.1v8.3c0,0.8,0.2,1.4,0.5,1.8
		C374.3,19.2,374.7,19.4,375.3,19.4z"/>
	<path fill="#FFFFFF" d="M387.7,6c1.8,0,3.2,0.7,4.2,2.1c1,1.4,1.5,3.4,1.5,5.9c0,2.5-0.5,4.5-1.5,5.9s-2.4,2.1-4.2,2.1
		c-1.8,0-3.2-0.7-4.2-2.1h-0.2l-0.6,1.8h-2.3V0h3v5.2c0,0.4,0,1-0.1,1.7c0,0.8-0.1,1.2-0.1,1.4h0.1C384.4,6.8,385.8,6,387.7,6z
		 M386.9,8.7c-1.2,0-2.1,0.4-2.6,1.2c-0.5,0.8-0.8,2.1-0.8,3.9V14c0,1.9,0.3,3.2,0.8,4.1c0.6,0.8,1.5,1.3,2.7,1.3
		c1.1,0,1.9-0.5,2.5-1.4c0.6-0.9,0.8-2.3,0.8-4C390.3,10.5,389.2,8.7,386.9,8.7z"/>
	<path fill="#FFFFFF" d="M405.9,21.8l-0.6-2.2h-0.1c-0.7,0.9-1.4,1.6-2.1,1.9c-0.7,0.3-1.6,0.5-2.7,0.5c-1.4,0-2.5-0.4-3.3-1.2
		c-0.8-0.8-1.2-2-1.2-3.5c0-1.6,0.5-2.8,1.6-3.6c1.1-0.8,2.8-1.3,5-1.3l2.5-0.1v-0.8c0-1-0.2-1.7-0.6-2.2c-0.4-0.5-1.1-0.7-2-0.7
		c-0.7,0-1.4,0.1-2.1,0.3c-0.7,0.2-1.3,0.5-1.9,0.8l-1-2.4c0.8-0.4,1.6-0.8,2.5-1s1.8-0.3,2.6-0.3c1.8,0,3.2,0.4,4.1,1.3
		c0.9,0.9,1.4,2.2,1.4,4v10.4H405.9z M401.3,19.5c1.1,0,2-0.3,2.7-1c0.7-0.7,1-1.6,1-2.8v-1.3l-1.8,0.1c-1.4,0.1-2.5,0.3-3.1,0.8
		c-0.7,0.5-1,1.2-1,2.1c0,0.7,0.2,1.2,0.6,1.6C400,19.3,400.6,19.5,401.3,19.5z"/>
	<path fill="#FFFFFF" d="M415.3,21.8h-3V0h3V21.8z"/>
	<path fill="#FFFFFF" d="M422.7,21.8h-3V0h3V21.8z"/>
	<path fill="#FFFFFF" d="M442.3,3.9c-1.8,0-3.2,0.7-4.2,2c-1,1.4-1.5,3.2-1.5,5.6c0,2.5,0.5,4.4,1.5,5.7s2.4,1.9,4.2,1.9
		c0.8,0,1.6-0.1,2.3-0.3s1.5-0.4,2.3-0.7v2.9c-1.5,0.6-3.2,0.9-5,0.9c-2.8,0-4.9-0.9-6.4-2.7c-1.5-1.8-2.2-4.4-2.2-7.8
		c0-2.1,0.4-4,1.1-5.6c0.7-1.6,1.8-2.8,3.1-3.7c1.4-0.8,3-1.3,4.8-1.3c1.9,0,3.7,0.4,5.4,1.3l-1.1,2.8c-0.6-0.3-1.3-0.6-2-0.9
		C443.8,4,443.1,3.9,442.3,3.9z"/>
	<path fill="#FFFFFF" d="M453.8,21.8h-3V0h3V21.8z"/>
	<path fill="#FFFFFF" d="M468.2,21.8l-0.4-2h-0.2c-0.4,0.7-1,1.3-1.8,1.7s-1.7,0.6-2.7,0.6c-1.7,0-3-0.5-3.9-1.4s-1.3-2.3-1.3-4.2
		V6.3h3.1v9.5c0,1.2,0.2,2.1,0.7,2.7c0.4,0.6,1.2,0.9,2.1,0.9c1.3,0,2.2-0.4,2.8-1.2c0.6-0.8,0.9-2.2,0.9-4.1V6.3h3.1v15.5H468.2z"
		/>
	<path fill="#FFFFFF" d="M482.2,6c1.8,0,3.2,0.7,4.2,2.1c1,1.4,1.5,3.4,1.5,5.9c0,2.5-0.5,4.5-1.5,5.9S484,22,482.2,22
		c-1.8,0-3.2-0.7-4.2-2.1h-0.2l-0.6,1.8h-2.3V0h3v5.2c0,0.4,0,1-0.1,1.7c0,0.8-0.1,1.2-0.1,1.4h0.1C478.9,6.8,480.4,6,482.2,6z
		 M481.5,8.7c-1.2,0-2.1,0.4-2.6,1.2c-0.5,0.8-0.8,2.1-0.8,3.9V14c0,1.9,0.3,3.2,0.8,4.1c0.6,0.8,1.5,1.3,2.7,1.3
		c1.1,0,1.9-0.5,2.5-1.4c0.6-0.9,0.8-2.3,0.8-4C484.8,10.5,483.7,8.7,481.5,8.7z"/>
</g>
</svg>
