<!-- Generator: Adobe Illustrator 18.0.0, SVG Export Plug-In  -->
<svg version="1.1"
	 xmlns="http://www.w3.org/2000/svg" xmlns:xlink="http://www.w3.org/1999/xlink" xmlns:a="http://ns.adobe.com/AdobeSVGViewerExtensions/3.0/"
	 x="0px" y="0px" width="186.9px" height="247.9px" viewBox="0 0 186.9 247.9" enable-background="new 0 0 186.9 247.9"
	 xml:space="preserve">
<defs>
</defs>
<g id="item_2_">
	<path fill="#26565F" d="M160.9,13.3c0,0-20.8-10.9-30.5-11.6c-4.7,1.9-35,15.1-81.7,1.6c0,0-29.9-13.3-34.3,13s3.8,57.5,4.5,62.3
		C11.3,81.3,2.5,87.6,0,93.4c0,4.6,6.6,28.2,18.2,39.6c-2.5-6.1-6.9-18.5-9.7-31.1c0.9-3.9,7.7-7.7,21.2-16.3c0,0-7.7-44.1-3.6-69.6
		c2.9-3.9,8.4-7,24.7-2.1C96,27.5,119.6,22,135,17.5S160.9,13.3,160.9,13.3z"/>
	<path fill="#364348" d="M142.4,187.8l6.4,20l-5.1,0l-7.5-20.2C136.2,187.6,139.6,187.7,142.4,187.8z"/>
	<path fill="#364348" d="M49.7,189l-6.1,18.4l5.1,0l6.9-18.7C55.7,188.7,52.5,188.9,49.7,189z"/>
	<path fill="#44575F" d="M154.3,170.1l13.2,77.8l-4.8,0l-14.9-59.4c0,0-29.1-0.2-52.2-5.2c-4.5,1.9-34.7,6.4-50.9,6.6
		c-2.1,5.4-14.5,57.5-14.5,57.5l-5.3,0L38.3,169C38.3,169,89.9,186.5,154.3,170.1z"/>
	<path id="top_1_" fill="#698793" d="M157.5,101.2c0,0,6.2-33.6,9.5-47.9s8.6-44.7-14.9-40s-44.3,18.2-106.5-0.9
		c-13.2-4.1-28.3-1.7-22.1,35.1s7.5,46.6,8,50.4S31.3,133,31.3,133s71,22.3,125.9-3.4C155.8,122.9,157.5,101.2,157.5,101.2z"/>
	<g id="arm_1_">
		<path fill="#698793" d="M175.1,133.5c0,0,18.4-24,9.1-36.5s-54.3,14.7-60.8,54.4C127,151,151.8,145.7,175.1,133.5z"/>
		<path fill="#698793" d="M18.2,133c0,0-18.2-24.2-8.9-36.6s54.1,16.4,60.3,56.2C49,149.5,31.8,142.1,18.2,133z"/>
	</g>
	
		<ellipse id="sit_1_" transform="matrix(-1 -3.769301e-03 3.769301e-03 -1 188.4253 289.9613)" fill="#627980" cx="94.5" cy="144.8" rx="69" ry="10.9"/>
	<path fill="#607C8A" d="M175.1,133.5c-0.5-0.6-80.6,47.7-156.9-0.6c-3,1-13.9,6.8-9.7,18c0,0,19,29.2,86.8,28.7
		c67.8-0.5,86.9-19.8,86.5-31.2C181.7,145.5,180.4,139.7,175.1,133.5z"/>
	<g id="dots_1_">
		<circle fill="#527783" cx="94.1" cy="46.6" r="3.2"/>
		<circle fill="#527783" cx="94" cy="84.8" r="3.2"/>
		<circle fill="#527783" cx="93.8" cy="127.2" r="3.2"/>
		<circle fill="#527783" cx="130.2" cy="42.5" r="3.2"/>
		<circle fill="#527783" cx="130" cy="80.7" r="3.2"/>
		<circle fill="#527783" cx="129.9" cy="123.1" r="3.2"/>
		<circle fill="#527783" cx="62.4" cy="42.3" r="3.2"/>
		<circle fill="#527783" cx="62.2" cy="80.4" r="3.2"/>
		<circle fill="#527783" cx="62.1" cy="122.8" r="3.2"/>
	</g>
	<path fill="#485F64" d="M178.7,94.1l-18.1-9c0,0-11.3,2.1-18.9,14.8c-1.5,3.6-5.8,12.4-7.1,36.2c1.7,0.2,11.5,1,18.2,3.1
		c0.5-3.1,2.2-26.1,5.4-29.9C160.6,106.3,164.7,98.1,178.7,94.1z"/>
	<path fill="#485F64" d="M14,93.4l15.6-8c0,0,11,3.8,18.4,16.6c1.4,3.7,5.3,9.8,6.5,33.7c-1.7,0.2-3.5,0-10.5,1.4
		c-0.5-3.1-2.2-26.6-5.3-30.5C36.1,103.8,28,97.6,14,93.4z"/>
	<polygon fill="#1E2628" points="143.7,207.8 138.2,203.7 131.7,187.4 136.2,187.6 	"/>
</g>
</svg>
