<!-- Generator: Adobe Illustrator 18.0.0, SVG Export Plug-In  -->
<svg version="1.1"
	 xmlns="http://www.w3.org/2000/svg" xmlns:xlink="http://www.w3.org/1999/xlink" xmlns:a="http://ns.adobe.com/AdobeSVGViewerExtensions/3.0/"
	 x="0px" y="0px" width="784.2px" height="465.7px" viewBox="0 0 784.2 465.7" enable-background="new 0 0 784.2 465.7"
	 xml:space="preserve">
<defs>
</defs>
<g>
	<polygon fill="#67A246" points="384.2,12.7 384.2,203.3 15.5,284 15.5,88 	"/>
	<polygon fill="#6EAE48" points="384.2,12.7 384.2,203.3 771.5,292 771.5,80 	"/>
	<polygon fill="#50B74C" points="384.2,12.7 384.2,0 0,78.2 15.5,88 	"/>
	<polygon fill="#009C4D" points="0,78.2 0,300.7 15.5,307.7 15.5,88 	"/>
	<polygon fill="#278547" points="15.5,284 15.5,307.7 379,465.7 379,442.2 	"/>
	<polygon fill="#72BF4C" points="384.2,12.7 384.2,0 784.2,70.7 771.5,80 	"/>
	<polygon fill="#5E9866" points="784.2,70.7 784.2,307.7 379,465.7 379,442.2 771.5,292 771.5,80 	"/>
	<polygon fill="#3CB34D" points="784.2,70.7 771.5,80 771.5,312.6 784.2,307.7 	"/>
	<polygon fill="#9BB85E" points="384.2,203.3 15.5,284 379,442.2 771.5,292 	"/>
	<polygon fill="#6FA349" points="609.5,341.2 391.8,277.8 391.8,288.5 609.5,354 	"/>
	<polygon fill="#64933F" points="609.5,341.2 771.5,279.7 771.5,292 609.5,354 	"/>
	<polygon fill="#85C25A" points="771.5,279.7 547.8,228.9 391.8,277.8 609.5,341.2 	"/>
	<polygon fill="#EEF7F3" points="677.2,236 526.8,203.3 462.8,224.3 601.8,257.3 	"/>
	<polygon fill="#DBE6DD" points="462.8,224.3 462.8,232.2 601.5,265.2 601.5,257.3 	"/>
	<polygon fill="#AC7B4C" points="462.8,232.2 462.8,273.7 481.5,279.7 481.5,236.6 	"/>
	<polygon fill="#EDAE66" points="481.5,236.6 481.5,253.2 577.8,279.7 577.8,259.5 	"/>
	<polygon fill="#AC7B4C" points="601.5,265.2 601.5,317.4 577.8,309.9 577.8,259.5 	"/>
	<polygon fill="#9D7245" points="499.6,258.1 499.6,273.7 481.5,279.7 481.5,253.2 	"/>
	<polygon fill="#BFBDA1" points="601.5,257.3 601.5,265.2 677.2,244.8 677.2,236 	"/>
	<polygon fill="#9D7245" points="677.2,244.8 677.2,270.4 601.5,294.2 601.5,265.2 	"/>
	<polygon fill="#9D7245" points="601.5,294.2 625.8,301.5 625.8,325.5 601.5,317.4 	"/>
	<polygon fill="#60462B" points="625.8,301.5 702.4,276.2 702.4,296.5 625.8,325.5 	"/>
	<polygon fill="#AC7B4C" points="673.2,271.7 694.8,276.9 626.1,299.2 605.7,292.9 601.5,294.2 625.8,301.5 702.4,276.2 
		677.2,270.4 	"/>
	<polygon fill="#9D7245" points="673.2,271.7 673.2,283.9 694.8,276.9 	"/>
	<polygon fill="#60462B" points="673.2,271.7 605.7,292.9 626.1,299.2 673.2,283.9 	"/>
	<polygon fill="#DBE6DD" points="620.4,272.5 620.4,276.2 628.2,278.7 628.2,274.8 	"/>
	<polygon fill="#CDDFCB" points="628.2,274.8 655.7,266.7 655.7,270.4 628.2,278.7 	"/>
	<polygon fill="#EEF7F3" points="620.4,272.5 625.1,270.9 628.2,271.7 646,266.3 643.8,265.5 647.1,264.5 655.7,266.7 628.2,274.8 	
		"/>
	<polygon fill="#D7E4D5" points="643.8,265.5 643.8,267 646,266.3 	"/>
	<polygon fill="#CDDFCB" points="656.2,300.8 656.2,303.7 678.6,295.9 678.6,293.4 	"/>
	<polygon fill="#DBE6DD" points="656.2,300.8 653.6,299.4 653.6,302.2 656.2,303.7 	"/>
	<polygon fill="#EEF7F3" points="653.6,299.4 655.7,298.5 657,299.4 676.1,293.2 673.9,292.2 675,291.8 678.6,293.4 656.2,300.8 	
		"/>
	<polygon fill="#D7E4D5" points="673.9,292.2 673.9,293.9 676.1,293.2 	"/>
	<polygon fill="#AC7B4C" points="532.2,178.7 532.2,189.2 731,232.2 731,220.4 	"/>
	<polygon fill="#9D7245" points="731,220.4 755.5,211.4 755.5,106.4 766.8,103.9 766.8,219.4 731,232.2 	"/>
	<polygon fill="#EDAE66" points="755.5,106.4 559,69.4 566.2,66.4 766.8,103.9 	"/>
	<polygon fill="#AC7B4C" points="559,69.4 559,170.9 755.5,211.4 755.5,106.4 	"/>
	<polygon fill="#168143" points="563,76.4 563,168 750.2,205 750.2,112.2 	"/>
	<polygon fill="#EDAE66" points="559,170.9 532.2,178.7 731,220.4 755.5,211.4 	"/>
	<polygon fill="#9D7245" points="566.9,77.2 566.9,166 563,168 563,76.4 	"/>
	<polygon fill="#EDAE66" points="566.9,166 563,168 750.2,205 750.2,201.9 	"/>
	<polygon fill="#ABC8E1" points="536,54.9 536,166.9 503,176.9 503,171.7 524,164.4 524,72.2 517.2,73.9 517.2,59.7 	"/>
	<polygon fill="#C5DDEF" points="411.8,141.8 391.8,148 503,171.7 524,164.4 	"/>
	<polygon fill="#ABC8E1" points="391.8,148 391.8,152.7 503,176.9 503,171.7 	"/>
	<polygon opacity="0.9" fill="#F4F5F6" points="404.5,54.9 404.5,94 520.8,115.9 520.8,73 517.2,73.9 	"/>
	<polygon fill="#E2E4E6" points="520.8,115.9 524,114.8 524,72.2 520.8,73 	"/>
	<polygon fill="#E7E9E9" points="411.8,141.8 411.8,95.4 413.6,95.7 413.6,139.7 522.4,161.2 522.4,115.4 524,114.8 524,164.4 	"/>
	<polygon fill="#E7E9E9" points="459.2,104.3 459.2,148.7 464.1,149.6 464.1,105.2 	"/>
	<polygon fill="#CFCECE" points="466.5,105.7 466.5,148.2 464.1,149.6 464.1,105.2 	"/>
	<polygon fill="#CFCECE" points="416.3,96.2 416.3,138.8 413.6,139.7 413.6,95.7 	"/>
	<polygon fill="#F4F5F6" points="416.3,138.8 459.2,147.2 459.2,148.7 413.6,139.7 	"/>
	<polygon fill="#F4F5F6" points="466.5,148.2 522.4,159.3 522.4,161.2 464.1,149.6 	"/>
	<polygon opacity="0.7" fill="#F4F5F6" points="414.9,96 414.9,139.2 459.2,148 459.2,104.3 	"/>
	<polygon opacity="0.7" fill="#F4F5F6" points="465.3,105.4 465.3,148.9 522.4,160.2 522.4,115.4 520.8,115.9 	"/>
	<polygon fill="#C5DDEF" points="517.2,73.9 401.9,54.4 401.9,40.8 517.2,59.7 	"/>
	<polygon fill="#E2EAF6" points="401.9,40.8 418.5,35.5 536,54.9 517.2,59.7 	"/>
	<polygon fill="#919190" points="144,146.1 190,166.4 190,275 144,256.2 	"/>
	<path fill="#DAD9D9" d="M189.7,111.7v164l102.5-25.9V90L189.7,111.7z M289.8,244.9L195,269.2V117.7l94.8-20V244.9z"/>
	<polygon fill="#919190" points="189.7,111.7 144,97.4 144,152.4 189.7,171.5 	"/>
	<polygon fill="#EEF7F3" points="144,97.4 248.2,75.5 292.2,90 189.7,111.7 	"/>
	<polygon fill="#CCCCCC" points="195,239.3 245,228.5 289.8,244.9 195,269.2 	"/>
	<polygon fill="#F9FCFD" points="195,228.5 289.8,207.4 289.8,201.3 195,222.3 	"/>
	<polygon fill="#F9FCFD" points="195,178.3 289.8,157.8 289.8,148.3 195,168.3 	"/>
	<polygon fill="#919190" points="245,228.5 245,217.4 289.8,207.4 289.8,244.9 	"/>
	<polygon fill="#E2E4E6" points="245,217.4 245,228.5 195,239.3 195,228.5 	"/>
	<polygon fill="#CCCCCC" points="245,188.3 289.8,201.3 195,222.3 195,199.3 	"/>
	<polygon fill="#919190" points="245,188.3 245,167.5 289.8,157.8 289.8,201.3 	"/>
	<polygon fill="#E2E4E6" points="245,167.5 245,188.3 195,199.3 195,178.3 	"/>
	<polygon fill="#CCCCCC" points="245,137 289.8,148.3 195,168.3 195,148 	"/>
	<polygon fill="#919190" points="245,137 245,107.1 289.8,97.7 289.8,148.3 	"/>
	<polygon fill="#E2E4E6" points="245,107.1 245,137 195,148 195,117.7 	"/>
	<polygon fill="#414243" points="430.8,350.7 430.8,356.3 500.7,332.7 500.7,327.7 	"/>
	<polygon fill="#565656" points="430.8,350.7 346.8,320.2 346.8,325.7 430.8,356.3 	"/>
	<polygon fill="#919190" points="429.8,356.3 429.8,422.8 435.1,420.7 435.1,354.9 430.8,356.3 	"/>
	<polygon fill="#DAD9D9" points="425.5,354.4 425.5,420.7 429.8,422.8 429.8,356.3 	"/>
	<polygon fill="#DAD9D9" points="352.2,327.7 352.2,388.8 356.2,390.9 356.2,329.1 	"/>
	<polygon fill="#6B6A69" points="356.2,349.4 425.5,374.8 425.5,378.9 356.2,352.7 	"/>
	<polygon fill="#919190" points="360.8,354.4 360.8,388.6 356.2,390.9 356.2,352.7 	"/>
	<polygon fill="#BFBBB9" points="356.2,349.4 388.8,341 356.2,329.1 	"/>
	<polygon fill="#919190" points="498,333.6 498,396.6 493.1,398.5 493.1,335.2 	"/>
	<polygon fill="#81807F" points="435.1,354.9 435.1,382.7 493.1,364.2 493.1,335.2 	"/>
	<path fill="#919190" d="M435.1,382.7c0,0,26.1-36.5,58-18.5v-28.9l-58,19.7V382.7z"/>
	<polygon fill="#DAD9D9" points="490.5,365 490.5,396.9 493.1,398.5 493.1,364.2 	"/>
	<polygon fill="#81807F" points="346.8,320.2 406.5,297.4 500.7,327.7 430.8,350.7 	"/>
	<polygon fill="#8B8B8B" points="356.2,349.4 388.8,341 425.5,354.4 425.5,374.8 	"/>
	<polygon fill="#565656" points="240.9,280.9 240.9,286.4 327.5,318.4 327.5,312.2 	"/>
	<polygon fill="#414243" points="327.5,312.2 388.8,292 388.8,297.4 327.5,318.4 	"/>
	<polygon fill="#DAD9D9" points="327.5,318.4 327.5,378.9 321.8,376.2 321.8,316.3 	"/>
	<polygon fill="#919190" points="332.1,316.9 332.1,376.2 327.5,378.9 327.5,318.4 	"/>
	<polygon fill="#DAD9D9" points="248,289 248,346.2 245,344.7 245,287.9 	"/>
	<polygon fill="#6B6A69" points="248,308.2 321.8,336.4 321.8,339.3 248,310.9 	"/>
	<polygon fill="#919190" points="253.6,313.1 253.6,344.2 248,346.2 248,310.9 	"/>
	<polygon fill="#919190" points="387.5,297.9 387.5,304.7 384.2,305.9 384.2,299 	"/>
	<polygon fill="#DAD9D9" points="381,300.1 381,307.1 384.2,305.9 384.2,299 	"/>
	<polygon fill="#81807F" points="332.1,341.2 352.2,333.6 352.2,327.7 346.8,325.7 346.8,320.2 381,307.1 381,300.1 332.1,316.9 	
		"/>
	<path fill="#919190" d="M332.1,341.2c0,0,4.6-13.6,14.7-15.5v-5.5l34.2-13v-7l-48.9,16.8V341.2z"/>
	<polygon fill="#BFBBB9" points="248,308.2 279.4,300.6 248,289 	"/>
	<polygon fill="#8B8B8B" points="279.4,300.6 321.8,316.3 321.8,336.4 248,308.2 	"/>
	<polygon fill="#81807F" points="240.9,280.9 309.8,264.5 388.8,292 327.5,312.2 	"/>
	<polygon fill="#9D7245" points="372.5,324 372.5,368.9 413.5,385.7 413.5,339.3 	"/>
	<polygon fill="#AC7B4C" points="413.5,339.3 418.3,337.3 418.3,378.9 421.9,377.6 425.5,378.9 425.5,381.3 413.5,385.7 	"/>
	<polygon fill="#BA8858" points="418.3,337.3 377.2,322.4 372.5,324 413.5,339.3 	"/>
	<polygon fill="#917551" points="418.3,376.2 418.3,378.9 421.9,377.6 	"/>
	<polygon fill="#919190" points="416.9,384.4 416.9,414.2 413.5,415.2 413.5,385.7 	"/>
	<polygon fill="#DAD9D9" points="410.5,384.4 410.5,413.8 413.5,415.2 413.5,385.7 	"/>
	<polygon fill="#DAD9D9" points="372.5,368.9 372.5,398.2 375.2,399.3 375.2,370 	"/>
	<polygon fill="#919190" points="377.3,370.9 377.3,397.8 375.2,399.3 375.2,370 	"/>
	<polygon fill="#9D7245" points="307,298.6 307,343.8 265.5,327.7 265.5,283.5 	"/>
	<polygon fill="#AC7B4C" points="307,343.8 320.4,338.7 316.7,337.3 311.8,339.3 311.8,297.2 307,298.6 	"/>
	<polygon fill="#BA8858" points="311.8,297.2 269.8,281.9 265.5,283.5 307,298.6 	"/>
	<polygon fill="#917551" points="311.8,339.3 316.7,337.3 311.8,335.5 	"/>
	<polygon fill="#919190" points="311.8,342 311.8,370 308.4,371.8 308.4,343.3 	"/>
	<polygon fill="#DAD9D9" points="308.4,343.3 307,343.8 304.3,342.8 304.3,370 308.4,371.8 	"/>
	<polygon fill="#919190" points="269.3,329.1 269.3,355.4 272.1,354 272.1,330.2 	"/>
	<polygon fill="#DAD9D9" points="266.1,327.9 266.1,353.8 269.3,355.4 269.3,329.1 	"/>
	<polygon fill="#CFCECE" points="296.8,57.4 296.8,212.7 292.2,213.5 292.2,216 299.6,214.6 299.6,59.7 	"/>
	<polygon fill="#F9FCFD" points="299.6,59.7 376.8,44 372.8,41.7 296.8,57.4 	"/>
	<path fill="#DEDDDD" d="M299.6,59.7v162.7l77.2-17.3V44L299.6,59.7z M373.1,205.7L303.2,221V62.2l69.9-14.6V205.7z"/>
	<polygon fill="#DEDDDD" points="303.2,216 373.1,201.3 373.1,205.7 303.2,221.5 	"/>
	<polygon fill="#DEDDDD" points="303.2,213.5 371.6,199.3 371.6,47.6 373.1,47.6 373.1,201.3 303.2,216 	"/>
	<polygon fill="#ABC8E1" points="371.6,47.6 371.6,199.3 303.2,213.5 303.2,62.2 	"/>
	<polygon fill="#CDDFCB" points="369.5,128.8 369.5,130.9 345.9,135.7 345.9,133.2 	"/>
	<polygon fill="#DBE6DD" points="345.9,133.2 335.8,130.4 335.8,132.8 345.9,135.7 	"/>
	<polygon fill="#EEF7F3" points="335.8,130.4 339,129.9 345.9,131.8 366.2,128 369.5,128.8 345.9,133.2 	"/>
	<polygon fill="#DAD9D9" points="299.6,214.6 299.6,222.3 292.2,224.3 292.2,216 	"/>
	<polygon fill="#E6F1EA" points="486.6,224.3 518.2,213.8 542.5,219.2 512,230.3 	"/>
	<polygon fill="#CCCCCC" points="512,230.3 512,232.6 486.6,226.4 486.6,224.3 	"/>
	<polygon fill="#919190" points="512,230.3 542.5,219.2 542.5,221.1 512,232.6 	"/>
	<polygon fill="#CCCCCC" points="508.8,228.8 508.8,226.8 486.6,219.8 486.6,221.5 	"/>
	<polygon fill="#919190" points="508.8,226.8 536.2,219.2 536.2,220.8 508.8,228.8 	"/>
	<polygon fill="#E6F1EA" points="536.2,219.2 508.8,226.8 486.6,219.8 512.4,212.6 	"/>
	<polygon opacity="0.4" fill="#F4F5F6" points="468.9,222.3 462.8,224.3 462.8,232.2 462.7,255.3 391.8,277.8 391.8,288.5 
		388.8,292 309.8,264.5 449.9,218.4 	"/>
	<polygon opacity="0.4" fill="#F4F5F6" points="435.1,214.6 384.2,203.3 376.8,205 373.1,205.7 303.2,221.5 299.6,222.3 
		292.2,224.3 292.2,249.8 	"/>
	<polygon fill="#908F8E" points="309.8,264.5 254.2,277.8 265.5,290.3 265.5,283.5 269.8,281.9 311.8,297.2 311.8,306.5 
		327.5,312.2 388.8,292 	"/>
	<polygon fill="#6DA043" points="462.8,273.7 478.7,303.1 609.5,341.2 720.6,299 702.4,296.5 625.8,325.5 601.5,317.4 577.8,309.9 
		577.8,279.7 524,269.7 499.6,273.7 481.5,279.7 	"/>
	<polygon fill="#5A8E3F" points="731,232.2 771.5,236.6 771.5,107.1 766.8,103.9 766.8,219.4 	"/>
	<polygon fill="#88A04D" points="292.2,249.8 79.8,312 65.5,305.8 	"/>
	<polygon fill="#88A04D" points="360.8,388.6 372.5,384.1 372.5,398.2 375.2,399.3 377.3,397.8 377.3,382.7 393.7,377.6 
		410.5,384.4 410.5,413.8 413.5,415.2 416.9,414.2 416.9,384.4 425.5,381.3 425.5,420.7 429.8,422.8 401.5,433.6 356.2,390.9 	"/>
	<polygon fill="#88A04D" points="435.1,420.7 493.1,398.5 490.5,396.9 490.5,384.7 439.2,381.3 435.1,382.7 	"/>
	<polygon fill="#88A04D" points="248,346.2 253.6,344.2 253.6,337.4 266.1,333.5 266.1,353.8 	"/>
	<polygon fill="#88A04D" points="269.3,355.4 272.1,354 272.1,333.5 279.4,333.1 304.3,342.8 304.3,370 	"/>
	<polygon fill="#88A04D" points="311.8,342 321.8,343.6 321.8,376.2 308.4,371.8 311.8,370 	"/>
	<polygon fill="#88A04D" points="327.5,378.9 352.2,378.9 352.2,347.6 332.1,344.9 332.1,376.2 	"/>
	<polygon fill="#88A04D" points="360.8,378.9 372.5,368.9 372.5,358.8 360.8,354.4 	"/>
	<polygon fill="#88A04D" points="248,346.2 327.5,388.6 352.2,388.8 352.2,378.9 327.5,378.9 321.8,376.2 308.4,371.8 304.3,370 
		269.3,355.4 266.1,353.8 	"/>
	<polygon opacity="0.49" fill="#58893D" points="144,97.4 144,256.2 127.3,259.5 110.9,168 	"/>
	<polygon fill="#58893D" points="296.8,57.4 294.2,59.7 294.2,212.6 296.8,212.7 	"/>
	<polygon fill="#5A8E3F" points="391.8,152.7 503,176.9 536,166.9 536,173.7 511.4,182.8 395,156.7 	"/>
	<polygon fill="#5A8E3F" points="532.2,189.2 540.5,195.7 771.5,250.6 771.5,236.6 731,232.2 	"/>
	<polygon fill="#91B1C9" points="369.5,130.9 345.9,137 335.8,134 335.8,132.8 345.9,135.7 	"/>
</g>
</svg>
