<!-- Generator: Adobe Illustrator 18.0.0, SVG Export Plug-In  -->
<svg version="1.1"
	 xmlns="http://www.w3.org/2000/svg" xmlns:xlink="http://www.w3.org/1999/xlink" xmlns:a="http://ns.adobe.com/AdobeSVGViewerExtensions/3.0/"
	 x="0px" y="0px" width="530px" height="306.4px" viewBox="0 0 530 306.4" enable-background="new 0 0 530 306.4"
	 xml:space="preserve">
<defs>
</defs>
<g id="_x32_d_copy_2">
	<g>
		<path fill="none" stroke="#2B388E" stroke-width="8" stroke-miterlimit="10" stroke-dasharray="13,7" d="M523.5,74.5
			c-25.9-13.9-63.8-22.7-106.1-22.7c-78.1,0-141.4,30-141.4,67s63.3,67,141.4,67c43.6,0,82.7-9.4,108.6-24.1"/>
		<g>
			<path fill="none" stroke="#2B388E" stroke-width="8" stroke-miterlimit="10" stroke-dasharray="13,7" d="M109.4,31l-32.9,1.2
				c-2.3,0.1-4,2-3.9,4.2c0,0,0.1,12.5,0.3,29.1C33.9,70.1,4,95.5,4,126.3c0,32,32.3,58.2,73.6,61.2c1.6,21,3.1,40.2,3.1,40.2
				c0.1,2.1,1.8,3.8,3.9,3.9l32,1.4c1.6,19.7,2.8,34.3,2.8,34.3c0.1,2.6,2.2,4.7,4.8,4.8l228.6,10.2l19.2,20c0,0,53.7-1,70.8-3.2
				c17.6-2.2,57.7-1.2,69.6-14.4c0,0,13.6-56,13.6-120c0-117.6-8.8-137.6-8.8-137.6c-9.7-8.4-40-23.2-96-23.2
				c-23.1,0-112.8,16-112.8,16l-194.2,7C111.5,27.1,109.3,28.2,109.4,31z"/>
		</g>
		
			<ellipse fill="none" stroke="#2B388E" stroke-width="8" stroke-miterlimit="10" stroke-dasharray="13,7" cx="420.7" cy="210.7" rx="23.5" ry="12.8"/>
		
			<ellipse transform="matrix(0.9659 -0.2588 0.2588 0.9659 -36.6971 130.6234)" fill="none" stroke="#2B388E" stroke-width="8" stroke-miterlimit="10" stroke-dasharray="13,7" cx="477.7" cy="204.7" rx="23.5" ry="12.8"/>
		
			<ellipse transform="matrix(-0.9659 -0.2588 0.2588 -0.9659 657.9254 497.9829)" fill="none" stroke="#2B388E" stroke-width="8" stroke-miterlimit="10" stroke-dasharray="13,7" cx="361.7" cy="205.7" rx="23.5" ry="12.8"/>
	</g>
</g>
</svg>
