<!-- Generator: Adobe Illustrator 18.0.0, SVG Export Plug-In  -->
<svg version="1.1"
	 xmlns="http://www.w3.org/2000/svg" xmlns:xlink="http://www.w3.org/1999/xlink" xmlns:a="http://ns.adobe.com/AdobeSVGViewerExtensions/3.0/"
	 x="0px" y="0px" width="213.2px" height="213.2px" viewBox="0 0 213.2 213.2" enable-background="new 0 0 213.2 213.2"
	 xml:space="preserve">
<defs>
</defs>
<g id="cricket_ball_2_">
	<circle fill="#D51F39" cx="106.6" cy="106.6" r="106.6"/>
	<path fill="#981F37" stroke="#981F37" stroke-width="5.9741" stroke-miterlimit="10" d="M143,142.5c-17.4,16.4-40.9,26.4-66.7,26.4
		c-20.7,0-39.8-6.4-55.6-17.4c16.7,28.5,47.6,47.6,83,47.6c31.9,0,60.2-15.6,77.7-39.5C166.4,155.9,153.7,149.9,143,142.5z"/>
	<path fill="#C01F3A" stroke="#BF203B" stroke-width="5.9741" stroke-miterlimit="10" d="M199.7,103.1c0-30.5-14.3-57.8-36.5-75.4
		c6.7,13.2,10.4,28.1,10.4,43.9c0,28-11.8,53.2-30.7,71c10.8,7.4,23.4,13.4,38.3,17.1C192.9,143.8,199.7,124.2,199.7,103.1z"/>
	<g>
		<g>
			<path fill="none" stroke="#F59DB2" stroke-width="6.6208" stroke-miterlimit="1" d="M67.1,10.2c0,0,0,0.3,0,0.9"/>
			<path fill="none" stroke="#F59DB2" stroke-width="6.6208" stroke-miterlimit="1" stroke-dasharray="0.94,0" d="M67.1,13
				c0,0.3,0,0.6,0,0.9"/>
			<path fill="none" stroke="#F59DB2" stroke-width="6.6208" stroke-miterlimit="1" stroke-dasharray="1.88,1.88,0.94,0" d="
				M67.1,14c0.6,22.6,9.4,140,124.3,152"/>
			<path fill="none" stroke="#F59DB2" stroke-width="6.6208" stroke-miterlimit="1" d="M191.4,165.9c0.3,0,0.6,0.1,0.9,0.1"/>
		</g>
	</g>
	<g>
		<g>
			<path fill="none" stroke="#F4E9EC" stroke-width="6.6208" stroke-miterlimit="10" d="M130.2,145c0.3,0.2,0.5,0.3,0.8,0.5"/>
			<path fill="none" stroke="#F4E9EC" stroke-width="6.6208" stroke-miterlimit="10" stroke-dasharray="0.9807,0" d="M132.6,146.6
				c0.3,0.2,0.6,0.3,0.8,0.5"/>
			<path fill="none" stroke="#F4E9EC" stroke-width="6.6208" stroke-miterlimit="10" stroke-dasharray="1.9614,1.9614,0.9807,0" d="
				M133.4,147.1c9.7,6,20.4,10.5,31.4,13.7"/>
			<path fill="none" stroke="#F4E9EC" stroke-width="6.6208" stroke-miterlimit="10" d="M164.8,160.8c0.3,0.1,0.6,0.2,0.9,0.3"/>
		</g>
	</g>
	<g>
		<g>
			<path fill="none" stroke="#F59DB2" stroke-width="6.6208" stroke-miterlimit="1" d="M37.7,28.3c0,0,0,0.3,0,0.9"/>
			<path fill="none" stroke="#F59DB2" stroke-width="6.6208" stroke-miterlimit="1" stroke-dasharray="0.9379,0" d="M37.7,31.1
				c0,0.3,0,0.6,0,0.9"/>
			<path fill="none" stroke="#F59DB2" stroke-width="6.6208" stroke-miterlimit="1" stroke-dasharray="1.8757,1.8757,0.9379,0" d="
				M37.8,32c0.5,23.5,8.6,150.1,128.5,156.3"/>
			<path fill="none" stroke="#F59DB2" stroke-width="6.6208" stroke-miterlimit="1" d="M166.3,188.4c0.3,0,0.6,0,0.9,0"/>
		</g>
	</g>
	<g>
		<g>
			<path fill="none" stroke="#F4E9EC" stroke-width="6.6208" stroke-miterlimit="10" d="M94.1,163.5c0.2,0.2,0.5,0.4,0.7,0.6"/>
			<path fill="none" stroke="#F4E9EC" stroke-width="6.6208" stroke-miterlimit="10" stroke-dasharray="0.9171,0" d="M96.3,165.2
				c0.2,0.2,0.5,0.4,0.7,0.6"/>
			<path fill="none" stroke="#F4E9EC" stroke-width="6.6208" stroke-miterlimit="10" stroke-dasharray="1.8341,1.8341,0.9171,0" d="
				M97,165.8c10.9,8.5,23.7,14.1,37,17.5"/>
			<path fill="none" stroke="#F4E9EC" stroke-width="6.6208" stroke-miterlimit="10" d="M134,183.3c0.3,0.1,0.6,0.2,0.9,0.2"/>
		</g>
	</g>
	<g>
		<g>
			<path fill="none" stroke="#F59DB2" stroke-width="6.6208" stroke-miterlimit="1" d="M27.3,38.9c0,0,0,0.3,0,0.9"/>
			<path fill="none" stroke="#F59DB2" stroke-width="6.6208" stroke-miterlimit="1" stroke-dasharray="0.9482,0" d="M27.3,41.7
				c0,0.3,0,0.6,0,0.9"/>
			<path fill="none" stroke="#F59DB2" stroke-width="6.6208" stroke-miterlimit="1" stroke-dasharray="1.8963,1.8963,0.9482,0" d="
				M27.3,42.6c0.1,22.8,6.5,141.5,130.6,152.5"/>
			<path fill="none" stroke="#F59DB2" stroke-width="6.6208" stroke-miterlimit="1" d="M157.9,195.1c0.3,0,0.6,0.1,0.9,0.1"/>
		</g>
	</g>
	<g>
		<g>
			<path fill="none" stroke="#F4E9EC" stroke-width="6.6208" stroke-miterlimit="10" d="M79.7,165.7c0.3,0.2,0.5,0.4,0.8,0.6"/>
			<path fill="none" stroke="#F4E9EC" stroke-width="6.6208" stroke-miterlimit="10" stroke-dasharray="0.9771,0" d="M82,167.4
				c0.3,0.2,0.5,0.4,0.8,0.6"/>
			<path fill="none" stroke="#F4E9EC" stroke-width="6.6208" stroke-miterlimit="10" stroke-dasharray="1.9542,1.9542,0.9771,0" d="
				M82.8,168c11.9,8.6,25.2,15.2,39,19.9"/>
			<path fill="none" stroke="#F4E9EC" stroke-width="6.6208" stroke-miterlimit="10" d="M121.8,187.9c0.3,0.1,0.6,0.2,0.9,0.3"/>
		</g>
	</g>
	<g>
		<g>
			<path fill="none" stroke="#F4EDEF" stroke-width="2.8375" stroke-linecap="round" stroke-miterlimit="10" d="M55.1,15.9
				c0,0-0.1,1.7-0.2,4.7"/>
			
				<path fill="none" stroke="#F4EDEF" stroke-width="2.8375" stroke-linecap="round" stroke-miterlimit="10" stroke-dasharray="9.4654,6.6258" d="
				M54.9,27.2c0.7,32.7,12.4,126,120.1,144.9"/>
			<path fill="none" stroke="#F4EDEF" stroke-width="2.8375" stroke-linecap="round" stroke-miterlimit="10" d="M178.3,172.7
				c1.5,0.2,3.1,0.5,4.7,0.7"/>
		</g>
	</g>
	
		<path fill="none" stroke="#F4EDEF" stroke-width="2.8375" stroke-linecap="round" stroke-miterlimit="10" stroke-dasharray="9.4583,6.6208" d="
		M47.6,20.6c0,0-9.3,148.5,131.7,159.8"/>
	<g>
		<g>
			<path fill="none" stroke="#F59DB2" stroke-width="6.6208" stroke-miterlimit="1" d="M76.4,6.8c0,0,0,0.3,0,0.9"/>
			<path fill="none" stroke="#F59DB2" stroke-width="6.6208" stroke-miterlimit="1" stroke-dasharray="0.94,0" d="M76.5,9.6
				c0,0.3,0,0.6,0,0.9"/>
			<path fill="none" stroke="#F59DB2" stroke-width="6.6208" stroke-miterlimit="1" stroke-dasharray="1.8801,1.8801,0.94,0" d="
				M76.5,10.5c1,22.1,11.6,135.1,118.5,146.7"/>
			<path fill="none" stroke="#F59DB2" stroke-width="6.6208" stroke-miterlimit="1" d="M195,157.2c0.3,0,0.6,0.1,0.9,0.1"/>
		</g>
	</g>
	<g>
		<g>
			<path fill="none" stroke="#F4E9EC" stroke-width="6.6208" stroke-miterlimit="10" d="M138.4,137.5c0.3,0.2,0.5,0.3,0.8,0.5"/>
			<path fill="none" stroke="#F4E9EC" stroke-width="6.6208" stroke-miterlimit="10" stroke-dasharray="0.9628,0" d="M140.8,139.1
				c0.3,0.2,0.5,0.3,0.8,0.5"/>
			<path fill="none" stroke="#F4E9EC" stroke-width="6.6208" stroke-miterlimit="10" stroke-dasharray="1.9256,1.9256,0.9628,0" d="
				M141.6,139.6c9.6,5.9,20,10.3,30.8,13.3"/>
			<path fill="none" stroke="#F4E9EC" stroke-width="6.6208" stroke-miterlimit="10" d="M172.4,152.9c0.3,0.1,0.6,0.2,0.9,0.3"/>
		</g>
	</g>
</g>
</svg>
