<!-- Generator: Adobe Illustrator 18.0.0, SVG Export Plug-In  -->
<svg version="1.1"
	 xmlns="http://www.w3.org/2000/svg" xmlns:xlink="http://www.w3.org/1999/xlink" xmlns:a="http://ns.adobe.com/AdobeSVGViewerExtensions/3.0/"
	 x="0px" y="0px" width="135.2px" height="196.2px" viewBox="0 0 135.2 196.2" enable-background="new 0 0 135.2 196.2"
	 xml:space="preserve">
<defs>
</defs>
<g>
	
		<path opacity="0.99" fill="none" stroke="#B6407B" stroke-width="7.038" stroke-miterlimit="10" stroke-dasharray="12.0651,5.0271" d="
		M124.8,35.5L124.8,35.5C121.1,17.4,96.6,3.5,67,3.5C34.7,3.5,8.6,19.9,8.6,40.2c0,0-6.3,24.1-4.9,31.6C4.1,74,6.2,78.1,10,82.7l0,0
		c0,0,0.7,5.9,1.8,14.7c0.3,8,0.9,21.5,1.9,24.9c0.3,0.9,1,2.6,2.2,4.7c3.2,21.5,7.1,43.6,10.1,47.7c6.2,8.3,18.2,18,42.4,18
		s37.6-13.8,40.4-19.1c1.6-3.1,7.1-23.8,10.9-45.7c1.3-2.1,2.5-4.2,3.5-6.1l2.1-33.3c0,0-0.5,1.2-1.6,3.1c0-2.1-0.1-4-0.2-5.8l0,0
		c3.1-3.9,5.2-8,6.6-11.6C135.6,59.8,124.8,35.5,124.8,35.5z M10.1,48.2L10.1,48.2c-0.5-1.4-0.9-2.8-1.1-4.3
		C9.2,45.4,9.6,46.8,10.1,48.2z M122.7,51.1c-1.7,3.4-4.2,6.7-7.3,9.6c-2.1,2-4.5,3.8-7.1,5.4c2.6-1.7,5-3.5,7.1-5.4
		C118.5,57.8,121,54.5,122.7,51.1c1.1-2.3,1.9-4.7,2.3-7.2C124.6,46.4,123.8,48.8,122.7,51.1z M125.1,37.3c0.1,0.9,0.2,1.9,0.2,2.9
		C125.3,39.2,125.2,38.3,125.1,37.3z"/>
	<path fill="none" stroke="#B6407B" stroke-width="7.038" stroke-miterlimit="10" stroke-dasharray="12.0651,5.0271" d="M10.1,48.2
		c0,0,55.4,31.5,112.6,2.9"/>
	<path fill="none" stroke="#B6407B" stroke-width="7.038" stroke-miterlimit="10" stroke-dasharray="12.0651,5.0271" d="M10.8,89.3
		c10.5,6.8,80.5,30.7,112.7-3.6"/>
</g>
</svg>
