<!-- Generator: Adobe Illustrator 18.0.0, SVG Export Plug-In  -->
<svg version="1.1"
	 xmlns="http://www.w3.org/2000/svg" xmlns:xlink="http://www.w3.org/1999/xlink" xmlns:a="http://ns.adobe.com/AdobeSVGViewerExtensions/3.0/"
	 x="0px" y="0px" width="173px" height="241px" viewBox="0 0 173 241" enable-background="new 0 0 173 241" xml:space="preserve">
<defs>
</defs>
<g>
	<image overflow="visible" opacity="9.000000e-02" width="173" height="241" xlink:href="6EE841E1A4F9CAEF.png" >
	</image>
	<g>
		<g>
			<path fill="#F4F4E8" d="M30.5,97.9c0,0,10.6,90.6,17.2,99.6s19.5,19.4,45.4,19.4s40.3-15,43.2-20.7c2.9-5.7,17.8-66.2,15.7-95.1
				L30.5,97.9z"/>
			<ellipse fill="#6E54A2" cx="91.5" cy="51.9" rx="62.5" ry="39.7"/>
			<path fill="#65489C" d="M153.4,46.7L153.4,46.7c0.3,1.7,0.5,3.4,0.5,5.1c0,21.9-28,39.7-62.5,39.7C57,91.6,29,73.8,29,51.9
				c0,0-6.7,26.1-5.3,34.3c1.5,8.2,23.7,39.2,67.7,39.2s61.7-21.2,67.6-36.7S153.4,46.7,153.4,46.7z"/>
			<path fill="#8E3E96" d="M32.2,114.5c0,0,0.7,28.1,2.2,33.4c1.5,5.3,15.9,32.2,57.1,32.2s53.3-19.6,60.3-32.8l2.2-36.1
				c0,0-14,33.8-60.9,33.8C44,145.1,32.2,114.5,32.2,114.5z"/>
			<path fill="#DAD5B4" d="M92.7,30.3c-18.4,0-34.1,10.3-33.3,23c0.1,1.9,1.5,2.6,0.3,2.9c-2.5-0.2-43.8-3.1-29.1,18.5
				c14.6,21.6,28,11.4,28.9,5.7c0.7-5,7.8-6.9,12.1-8.1c1-0.3,2.1-0.2,3.1,0.3c5.2,2.4,11.5,3.8,18.2,3.8c18.4,0,33.3-10.3,33.3-23
				S111.1,30.3,92.7,30.3z"/>
			<ellipse fill="#8E3E96" cx="91.8" cy="50.3" rx="18.4" ry="11.8"/>
			<g>
				<g>
					<g>
						<g>
							<path fill="#D0BED3" d="M80,150.4c1.7-1.2,2.3,0.5,2.3,1c0,1,0.1,2,0.1,2.9c0,0.8,0,1.7,0.1,2.5c0,0.3,0,0.7,0,1.1
								c0.3-0.3,0.6-0.5,0.9-0.8c0.4-0.4,0.7-0.8,1-1.2c0.1-0.2,0.2-0.3,0.2-0.5c0.2-0.7,1-1.1,1.8-0.9c0.5,0.2,0.8,0.5,0.9,1
								c0,0.3-0.1,0.7-0.3,1c-0.5,1.1-1.3,1.9-2.2,2.7c-0.4,0.3-0.8,0.7-1.2,1c-0.2,0.2-0.2,0.2,0,0.3c0.6,0.5,1.3,1,2.1,1.3
								c1.2,0.4,2.3,0.2,3.4-0.6c-0.2-0.3-0.5-0.6-0.7-0.9c-0.4-0.6-0.7-1.4-0.7-2.2c-0.1-0.9,0.1-1.7,0.5-2.5
								c0.3-0.6,0.8-1.2,1.4-1.7c0.6-0.5,1.4-0.9,2.2-1.2c1.1-0.3,2.2-0.2,3.2,0.2c0.7,0.2,1.3,0.5,1.7,1c0.4,0.4,0.6,0.9,0.4,1.5
								c-0.1,0.3-0.3,0.7-0.5,1c-0.8,1.2-1.8,2.3-2.8,3.4c-0.1,0.1-0.1,0.1-0.2,0.2c0.9,0.2,4.1-0.9,5.2-1.8c0,0-0.1-0.1-0.1-0.1
								c-0.7-0.7-1.1-1.5-1.3-2.4c-0.2-1.4,0.1-2.6,1.1-3.8c0.8-1,1.8-1.6,3.1-1.9c1.1-0.3,2.1-0.2,3.1,0.2c0.6,0.2,1.2,0.5,1.7,1
								c0.6,0.6,0.7,1.4,0.3,2.2c-0.3,0.8-0.9,1.5-1.4,2.2c-0.5,0.6-1.1,1.3-1.7,2c0.3-0.1,0.6-0.1,0.9-0.2c0.5-0.2,1-0.4,1.5-0.7
								c0.6-0.4,0.9-0.9,1.2-1.4c0.3-0.7,0.5-1.5,0.4-2.2c0-0.7,0-1.5-0.1-2.2c0-0.4,0-0.8,0-1.2c0-0.5,0.2-0.9,0.6-1.2
								c0.4-0.3,0.9-0.3,1.3-0.1c0.3,0.1,0.5,0.3,0.6,0.6c0.6-0.4,1.1-0.6,1.8-0.8c1.1-0.3,2.2-0.2,3.2,0.2c0.9,0.4,1.7,0.9,2.2,1.7
								c0.2,0.3,0.4,0.6,0.5,1c0,0.3,0.1,0.5,0.2,0.8c0.3,0.9,0.1,1.7-0.3,2.6c-0.5,1-1.2,1.9-2.2,2.5c-0.8,0.5-1.7,0.7-2.6,0.8
								c-0.8,0-1.5-0.1-2.1-0.4c-0.2-0.1-0.2-0.1-0.2,0.2c0,0.5,0,0.9,0,1.4c0,0.7,0,1.5,0.1,2.2c0,0.2,0,0.5,0,0.7
								c-0.1,0.8-1.1,1.2-1.7,1c-0.4-0.1-0.7-0.3-0.8-0.7c-0.1-0.2-0.1-0.4-0.1-0.6c0-0.7,0-1.5-0.1-2.2c0-0.2,0-0.5,0-0.7
								c-0.5,0.3-1,0.5-1.5,0.8c-1.6,0.7-3.2,1-4.9,0.5c-0.1,0-0.2,0-0.2,0c-0.9,0.7-1.8,1.2-2.9,1.7c-1.1,0.5-2.3,0.9-3.5,1
								c-1.1,0.2-2.1,0.2-3.2-0.1c-0.1,0-0.2,0-0.2,0.1c-0.6,0.6-1.3,1-2.1,1.4c-1.3,0.6-2.7,0.7-4,0.4c-0.9-0.2-1.6-0.6-2.4-1.1
								c-0.1,0-0.1-0.1-0.1-0.1c0,0,0,0-0.1,0.1c0,0.2,0,0.4,0,0.6c0,0.4,0,0.7,0,1.1c0,0.9-1,1.6-1.8,1.2c-0.6-0.2-0.8-0.6-0.8-1.2
								c0-1-0.1-2-0.1-3c0-0.9,0-1.9-0.1-2.8c0-0.7,0-1.4-0.1-2.1c0-1-0.1-1.9-0.1-2.9c0-0.9,0-1.8,0-2.7
								C79.6,150.9,79.7,150.6,80,150.4 M115.2,152c-0.1-0.2-0.2-0.4-0.3-0.6c-0.8-1.3-2.6-1.3-3.7-0.3c-0.9,0.8-1.2,1.8-0.8,2.8
								c0.2,0.5,0.5,0.9,1,1.1c0.9,0.4,1.8,0.3,2.6-0.3C114.9,154.1,115.4,153,115.2,152z M104.1,152.8c-1.4-0.8-2.8-0.3-3.7,0.8
								c-0.9,1.1-0.4,2.5,0.4,3.1C101.6,155.9,103.8,153.6,104.1,152.8z M90.9,159.4c1.2-1.3,2.4-2.5,3.4-3.9
								c-1.3-0.7-2.6-0.3-3.5,0.8C89.9,157.2,90.1,158.7,90.9,159.4z"/>
							<path fill="#D0BED3" d="M101.8,175c0,2.1-2,1.7-2.2,1.5c-0.3-0.3-0.4-0.9-0.4-1.3c0-0.5,0-1.1,0-1.6c0-0.5,0-1,0-1.5
								c0,0,0-0.1,0-0.1c-0.5,0.2-0.9,0.3-1.4,0.3c-0.5-0.1-0.9-0.3-1.2-0.6c-0.2,0.2-0.3,0.4-0.5,0.6c-0.3,0.4-0.7,0.6-1.1,0.9
								c-0.5,0.3-1.1,0.5-1.6,0.6c-1.2,0.2-2.2-0.1-3.1-0.8c-0.1-0.1-0.2-0.2-0.3-0.3c-0.3,0.6-0.7,1.2-1.2,1.7
								c-0.6,0.6-1.3,1.1-2,1.4c-0.8,0.3-1.6,0.5-2.5,0.5c-1.6,0-2.9-0.5-3.8-1.7c-0.1-0.1-0.2-0.2-0.3-0.4
								c-0.2-0.9-0.4-1.8-0.6-2.8c0-0.5,0.1-0.9,0.3-1.4c0.2-0.7,0.6-1.4,1.2-2c0.5-0.5,1-0.9,1.6-1.3c0.8-0.4,1.6-0.7,2.5-0.7
								c1.1,0,2,0.4,2.6,1.2c0.4,0.5,0.4,1.1,0.2,1.7c-0.3,0.5-1,0.9-1.7,0.6c-0.4-0.2-0.7-0.5-0.8-1c0-0.1-0.1-0.1-0.1-0.1
								c-0.2,0-0.5-0.1-0.7,0c-0.8,0.2-1.4,0.7-1.9,1.4c-0.4,0.6-0.6,1.2-0.5,1.8c0,0.7,0.3,1.3,0.9,1.8c0.4,0.2,0.8,0.3,1.3,0.3
								c0.5,0,1-0.1,1.4-0.3c0.5-0.2,0.9-0.5,1.3-0.9c0.6-0.7,1-1.5,1.2-2.3c0.2-0.6,0.3-1.2,0.4-1.8c0.1-0.4,0.1-0.9,0.2-1.3
								c0-0.3,0.1-0.6,0.1-1c0-0.1,0-0.3,0-0.4c0.1-0.7,1.1-1.3,1.8-1c0.5,0.2,0.8,0.5,0.8,1.1c0,0.2,0,0.4-0.1,0.6
								c0,0.4-0.1,0.9-0.1,1.3c0,0.5,0,0.9,0,1.4c0.1,0.7,0.2,1.4,0.7,1.9c0.3,0.3,0.6,0.3,1,0.2c0.2,0,0.4-0.1,0.6-0.2
								c0.3-0.2,0.6-0.4,0.7-0.7c0.2-0.4,0.4-0.8,0.4-1.2c0.1-0.6,0.1-1.1,0.2-1.7c0-0.3,0-0.7,0-1c0-0.5,0-0.9,0-1.4
								c0-0.3,0-0.6,0-0.9c0-0.5,0.4-1,1-1.2c0.4-0.1,0.7-0.1,1,0.1c0.4,0.2,0.6,0.6,0.6,1c0,0.6,0,1.1,0,1.7c0,0.6,0.1,1.2,0.2,1.9
								c0,0.4,0.1,0.8,0.2,1.1c0.1,0.3,0.2,0.6,0.3,0.9c0.2-0.1,0.4-0.2,0.5-0.4c0.3-0.6,0.3-1.1,0.3-1.7c0-0.4,0-0.9,0-1.3
								c0-0.7,0-1.3-0.1-2c0-0.4,0-0.9,0-1.3c0-0.5,0.4-1,1-1.1c0.6-0.1,1,0,1.4,0.4c0.1,0.1,0.1,0.2,0.2,0.3
								c0.4-0.2,0.7-0.4,1.1-0.5c0.6-0.2,1.2-0.4,1.9-0.4c1.6-0.1,2.9,0.5,3.9,1.6c0.4,0.4,0.7,0.9,0.8,1.5c0.1,0.5,0.2,1,0.2,1.5
								c-0.1,0.9-0.3,1.7-0.8,2.4c-0.3,0.5-0.7,0.9-1.1,1.2c-0.7,0.5-1.4,0.9-2.2,1.1c-1.1,0.3-2.2,0.2-3.3-0.2c0,0-0.1,0-0.2-0.1
								c0,0.4,0,0.7,0,1.1c0,0.4,0,0.9,0,1.3C101.7,173.8,101.8,174.4,101.8,175 M103.7,164.2c-1.4,0.4-2.2,1.8-2,3
								c0.3,1.4,1.6,2,2.9,1.6c1.6-0.4,2.3-1.8,2.1-3C106.3,164.4,105.1,163.7,103.7,164.2z"/>
						</g>
					</g>
					<defs>
						<filter id="Adobe_OpacityMaskFilter" filterUnits="userSpaceOnUse" x="79.3" y="148" width="38.5" height="28.7">
							
								<feColorMatrix  type="matrix" values="-1 0 0 0 1  0 -1 0 0 1  0 0 -1 0 1  0 0 0 1 0" color-interpolation-filters="sRGB" result="source"/>
						</filter>
					</defs>
					<mask maskUnits="userSpaceOnUse" x="79.3" y="148" width="38.5" height="28.7" id="SVGID_1_">
						<g filter="url(#Adobe_OpacityMaskFilter)">
							
								<image overflow="visible" width="43" height="34" xlink:href="6EE841E1A4F9CAED.jpg"  transform="matrix(1 0 0 1 77.2133 145.2133)">
							</image>
						</g>
					</mask>
					<g opacity="0.55" mask="url(#SVGID_1_)">
						<g>
							<path fill="#212429" d="M80,150.4c1.7-1.2,2.3,0.5,2.3,1c0,1,0.1,2,0.1,2.9c0,0.8,0,1.7,0.1,2.5c0,0.3,0,0.7,0,1.1
								c0.3-0.3,0.6-0.5,0.9-0.8c0.4-0.4,0.7-0.8,1-1.2c0.1-0.2,0.2-0.3,0.2-0.5c0.2-0.7,1-1.1,1.8-0.9c0.5,0.2,0.8,0.5,0.9,1
								c0,0.3-0.1,0.7-0.3,1c-0.5,1.1-1.3,1.9-2.2,2.7c-0.4,0.3-0.8,0.7-1.2,1c-0.2,0.2-0.2,0.2,0,0.3c0.6,0.5,1.3,1,2.1,1.3
								c1.2,0.4,2.3,0.2,3.4-0.6c-0.2-0.3-0.5-0.6-0.7-0.9c-0.4-0.6-0.7-1.4-0.7-2.2c-0.1-0.9,0.1-1.7,0.5-2.5
								c0.3-0.6,0.8-1.2,1.4-1.7c0.6-0.5,1.4-0.9,2.2-1.2c1.1-0.3,2.2-0.2,3.2,0.2c0.7,0.2,1.3,0.5,1.7,1c0.4,0.4,0.6,0.9,0.4,1.5
								c-0.1,0.3-0.3,0.7-0.5,1c-0.8,1.2-1.8,2.3-2.8,3.4c-0.1,0.1-0.1,0.1-0.2,0.2c0.9,0.2,4.1-0.9,5.2-1.8c0,0-0.1-0.1-0.1-0.1
								c-0.7-0.7-1.1-1.5-1.3-2.4c-0.2-1.4,0.1-2.6,1.1-3.8c0.8-1,1.8-1.6,3.1-1.9c1.1-0.3,2.1-0.2,3.1,0.2c0.6,0.2,1.2,0.5,1.7,1
								c0.6,0.6,0.7,1.4,0.3,2.2c-0.3,0.8-0.9,1.5-1.4,2.2c-0.5,0.6-1.1,1.3-1.7,2c0.3-0.1,0.6-0.1,0.9-0.2c0.5-0.2,1-0.4,1.5-0.7
								c0.6-0.4,0.9-0.9,1.2-1.4c0.3-0.7,0.5-1.5,0.4-2.2c0-0.7,0-1.5-0.1-2.2c0-0.4,0-0.8,0-1.2c0-0.5,0.2-0.9,0.6-1.2
								c0.4-0.3,0.9-0.3,1.3-0.1c0.3,0.1,0.5,0.3,0.6,0.6c0.6-0.4,1.1-0.6,1.8-0.8c1.1-0.3,2.2-0.2,3.2,0.2c0.9,0.4,1.7,0.9,2.2,1.7
								c0.2,0.3,0.4,0.6,0.5,1c0,0.3,0.1,0.5,0.2,0.8c0.3,0.9,0.1,1.7-0.3,2.6c-0.5,1-1.2,1.9-2.2,2.5c-0.8,0.5-1.7,0.7-2.6,0.8
								c-0.8,0-1.5-0.1-2.1-0.4c-0.2-0.1-0.2-0.1-0.2,0.2c0,0.5,0,0.9,0,1.4c0,0.7,0,1.5,0.1,2.2c0,0.2,0,0.5,0,0.7
								c-0.1,0.8-1.1,1.2-1.7,1c-0.4-0.1-0.7-0.3-0.8-0.7c-0.1-0.2-0.1-0.4-0.1-0.6c0-0.7,0-1.5-0.1-2.2c0-0.2,0-0.5,0-0.7
								c-0.5,0.3-1,0.5-1.5,0.8c-1.6,0.7-3.2,1-4.9,0.5c-0.1,0-0.2,0-0.2,0c-0.9,0.7-1.8,1.2-2.9,1.7c-1.1,0.5-2.3,0.9-3.5,1
								c-1.1,0.2-2.1,0.2-3.2-0.1c-0.1,0-0.2,0-0.2,0.1c-0.6,0.6-1.3,1-2.1,1.4c-1.3,0.6-2.7,0.7-4,0.4c-0.9-0.2-1.6-0.6-2.4-1.1
								c-0.1,0-0.1-0.1-0.1-0.1c0,0,0,0-0.1,0.1c0,0.2,0,0.4,0,0.6c0,0.4,0,0.7,0,1.1c0,0.9-1,1.6-1.8,1.2c-0.6-0.2-0.8-0.6-0.8-1.2
								c0-1-0.1-2-0.1-3c0-0.9,0-1.9-0.1-2.8c0-0.7,0-1.4-0.1-2.1c0-1-0.1-1.9-0.1-2.9c0-0.9,0-1.8,0-2.7
								C79.6,150.9,79.7,150.6,80,150.4 M115.2,152c-0.1-0.2-0.2-0.4-0.3-0.6c-0.8-1.3-2.6-1.3-3.7-0.3c-0.9,0.8-1.2,1.8-0.8,2.8
								c0.2,0.5,0.5,0.9,1,1.1c0.9,0.4,1.8,0.3,2.6-0.3C114.9,154.1,115.4,153,115.2,152z M104.1,152.8c-1.4-0.8-2.8-0.3-3.7,0.8
								c-0.9,1.1-0.4,2.5,0.4,3.1C101.6,155.9,103.8,153.6,104.1,152.8z M90.9,159.4c1.2-1.3,2.4-2.5,3.4-3.9
								c-1.3-0.7-2.6-0.3-3.5,0.8C89.9,157.2,90.1,158.7,90.9,159.4z"/>
							<path fill="#212429" d="M101.8,175c0,2.1-2,1.7-2.2,1.5c-0.3-0.3-0.4-0.9-0.4-1.3c0-0.5,0-1.1,0-1.6c0-0.5,0-1,0-1.5
								c0,0,0-0.1,0-0.1c-0.5,0.2-0.9,0.3-1.4,0.3c-0.5-0.1-0.9-0.3-1.2-0.6c-0.2,0.2-0.3,0.4-0.5,0.6c-0.3,0.4-0.7,0.6-1.1,0.9
								c-0.5,0.3-1.1,0.5-1.6,0.6c-1.2,0.2-2.2-0.1-3.1-0.8c-0.1-0.1-0.2-0.2-0.3-0.3c-0.3,0.6-0.7,1.2-1.2,1.7
								c-0.6,0.6-1.3,1.1-2,1.4c-0.8,0.3-1.6,0.5-2.5,0.5c-1.6,0-2.9-0.5-3.8-1.7c-0.1-0.1-0.2-0.2-0.3-0.4
								c-0.2-0.9-0.4-1.8-0.6-2.8c0-0.5,0.1-0.9,0.3-1.4c0.2-0.7,0.6-1.4,1.2-2c0.5-0.5,1-0.9,1.6-1.3c0.8-0.4,1.6-0.7,2.5-0.7
								c1.1,0,2,0.4,2.6,1.2c0.4,0.5,0.4,1.1,0.2,1.7c-0.3,0.5-1,0.9-1.7,0.6c-0.4-0.2-0.7-0.5-0.8-1c0-0.1-0.1-0.1-0.1-0.1
								c-0.2,0-0.5-0.1-0.7,0c-0.8,0.2-1.4,0.7-1.9,1.4c-0.4,0.6-0.6,1.2-0.5,1.8c0,0.7,0.3,1.3,0.9,1.8c0.4,0.2,0.8,0.3,1.3,0.3
								c0.5,0,1-0.1,1.4-0.3c0.5-0.2,0.9-0.5,1.3-0.9c0.6-0.7,1-1.5,1.2-2.3c0.2-0.6,0.3-1.2,0.4-1.8c0.1-0.4,0.1-0.9,0.2-1.3
								c0-0.3,0.1-0.6,0.1-1c0-0.1,0-0.3,0-0.4c0.1-0.7,1.1-1.3,1.8-1c0.5,0.2,0.8,0.5,0.8,1.1c0,0.2,0,0.4-0.1,0.6
								c0,0.4-0.1,0.9-0.1,1.3c0,0.5,0,0.9,0,1.4c0.1,0.7,0.2,1.4,0.7,1.9c0.3,0.3,0.6,0.3,1,0.2c0.2,0,0.4-0.1,0.6-0.2
								c0.3-0.2,0.6-0.4,0.7-0.7c0.2-0.4,0.4-0.8,0.4-1.2c0.1-0.6,0.1-1.1,0.2-1.7c0-0.3,0-0.7,0-1c0-0.5,0-0.9,0-1.4
								c0-0.3,0-0.6,0-0.9c0-0.5,0.4-1,1-1.2c0.4-0.1,0.7-0.1,1,0.1c0.4,0.2,0.6,0.6,0.6,1c0,0.6,0,1.1,0,1.7c0,0.6,0.1,1.2,0.2,1.9
								c0,0.4,0.1,0.8,0.2,1.1c0.1,0.3,0.2,0.6,0.3,0.9c0.2-0.1,0.4-0.2,0.5-0.4c0.3-0.6,0.3-1.1,0.3-1.7c0-0.4,0-0.9,0-1.3
								c0-0.7,0-1.3-0.1-2c0-0.4,0-0.9,0-1.3c0-0.5,0.4-1,1-1.1c0.6-0.1,1,0,1.4,0.4c0.1,0.1,0.1,0.2,0.2,0.3
								c0.4-0.2,0.7-0.4,1.1-0.5c0.6-0.2,1.2-0.4,1.9-0.4c1.6-0.1,2.9,0.5,3.9,1.6c0.4,0.4,0.7,0.9,0.8,1.5c0.1,0.5,0.2,1,0.2,1.5
								c-0.1,0.9-0.3,1.7-0.8,2.4c-0.3,0.5-0.7,0.9-1.1,1.2c-0.7,0.5-1.4,0.9-2.2,1.1c-1.1,0.3-2.2,0.2-3.3-0.2c0,0-0.1,0-0.2-0.1
								c0,0.4,0,0.7,0,1.1c0,0.4,0,0.9,0,1.3C101.7,173.8,101.8,174.4,101.8,175 M103.7,164.2c-1.4,0.4-2.2,1.8-2,3
								c0.3,1.4,1.6,2,2.9,1.6c1.6-0.4,2.3-1.8,2.1-3C106.3,164.4,105.1,163.7,103.7,164.2z"/>
						</g>
					</g>
				</g>
				<defs>
					<filter id="Adobe_OpacityMaskFilter_1_" filterUnits="userSpaceOnUse" x="79.3" y="148" width="38.5" height="28.7">
						
							<feColorMatrix  type="matrix" values="-1 0 0 0 1  0 -1 0 0 1  0 0 -1 0 1  0 0 0 1 0" color-interpolation-filters="sRGB" result="source"/>
					</filter>
				</defs>
				<mask maskUnits="userSpaceOnUse" x="79.3" y="148" width="38.5" height="28.7" id="SVGID_2_">
					<g filter="url(#Adobe_OpacityMaskFilter_1_)">
						
							<image overflow="visible" width="43" height="34" xlink:href="6EE841E1A4F9CAF3.jpg"  transform="matrix(1 0 0 1 77.2133 145.2133)">
						</image>
					</g>
				</mask>
				<g opacity="2.000000e-02" mask="url(#SVGID_2_)">
					<g>
						<g>
							<path fill="#212429" d="M80,150.4c1.7-1.2,2.3,0.5,2.3,1c0,1,0.1,2,0.1,2.9c0,0.8,0,1.7,0.1,2.5c0,0.3,0,0.7,0,1.1
								c0.3-0.3,0.6-0.5,0.9-0.8c0.4-0.4,0.7-0.8,1-1.2c0.1-0.2,0.2-0.3,0.2-0.5c0.2-0.7,1-1.1,1.8-0.9c0.5,0.2,0.8,0.5,0.9,1
								c0,0.3-0.1,0.7-0.3,1c-0.5,1.1-1.3,1.9-2.2,2.7c-0.4,0.3-0.8,0.7-1.2,1c-0.2,0.2-0.2,0.2,0,0.3c0.6,0.5,1.3,1,2.1,1.3
								c1.2,0.4,2.3,0.2,3.4-0.6c-0.2-0.3-0.5-0.6-0.7-0.9c-0.4-0.6-0.7-1.4-0.7-2.2c-0.1-0.9,0.1-1.7,0.5-2.5
								c0.3-0.6,0.8-1.2,1.4-1.7c0.6-0.5,1.4-0.9,2.2-1.2c1.1-0.3,2.2-0.2,3.2,0.2c0.7,0.2,1.3,0.5,1.7,1c0.4,0.4,0.6,0.9,0.4,1.5
								c-0.1,0.3-0.3,0.7-0.5,1c-0.8,1.2-1.8,2.3-2.8,3.4c-0.1,0.1-0.1,0.1-0.2,0.2c0.9,0.2,4.1-0.9,5.2-1.8c0,0-0.1-0.1-0.1-0.1
								c-0.7-0.7-1.1-1.5-1.3-2.4c-0.2-1.4,0.1-2.6,1.1-3.8c0.8-1,1.8-1.6,3.1-1.9c1.1-0.3,2.1-0.2,3.1,0.2c0.6,0.2,1.2,0.5,1.7,1
								c0.6,0.6,0.7,1.4,0.3,2.2c-0.3,0.8-0.9,1.5-1.4,2.2c-0.5,0.6-1.1,1.3-1.7,2c0.3-0.1,0.6-0.1,0.9-0.2c0.5-0.2,1-0.4,1.5-0.7
								c0.6-0.4,0.9-0.9,1.2-1.4c0.3-0.7,0.5-1.5,0.4-2.2c0-0.7,0-1.5-0.1-2.2c0-0.4,0-0.8,0-1.2c0-0.5,0.2-0.9,0.6-1.2
								c0.4-0.3,0.9-0.3,1.3-0.1c0.3,0.1,0.5,0.3,0.6,0.6c0.6-0.4,1.1-0.6,1.8-0.8c1.1-0.3,2.2-0.2,3.2,0.2c0.9,0.4,1.7,0.9,2.2,1.7
								c0.2,0.3,0.4,0.6,0.5,1c0,0.3,0.1,0.5,0.2,0.8c0.3,0.9,0.1,1.7-0.3,2.6c-0.5,1-1.2,1.9-2.2,2.5c-0.8,0.5-1.7,0.7-2.6,0.8
								c-0.8,0-1.5-0.1-2.1-0.4c-0.2-0.1-0.2-0.1-0.2,0.2c0,0.5,0,0.9,0,1.4c0,0.7,0,1.5,0.1,2.2c0,0.2,0,0.5,0,0.7
								c-0.1,0.8-1.1,1.2-1.7,1c-0.4-0.1-0.7-0.3-0.8-0.7c-0.1-0.2-0.1-0.4-0.1-0.6c0-0.7,0-1.5-0.1-2.2c0-0.2,0-0.5,0-0.7
								c-0.5,0.3-1,0.5-1.5,0.8c-1.6,0.7-3.2,1-4.9,0.5c-0.1,0-0.2,0-0.2,0c-0.9,0.7-1.8,1.2-2.9,1.7c-1.1,0.5-2.3,0.9-3.5,1
								c-1.1,0.2-2.1,0.2-3.2-0.1c-0.1,0-0.2,0-0.2,0.1c-0.6,0.6-1.3,1-2.1,1.4c-1.3,0.6-2.7,0.7-4,0.4c-0.9-0.2-1.6-0.6-2.4-1.1
								c-0.1,0-0.1-0.1-0.1-0.1c0,0,0,0-0.1,0.1c0,0.2,0,0.4,0,0.6c0,0.4,0,0.7,0,1.1c0,0.9-1,1.6-1.8,1.2c-0.6-0.2-0.8-0.6-0.8-1.2
								c0-1-0.1-2-0.1-3c0-0.9,0-1.9-0.1-2.8c0-0.7,0-1.4-0.1-2.1c0-1-0.1-1.9-0.1-2.9c0-0.9,0-1.8,0-2.7
								C79.6,150.9,79.7,150.6,80,150.4 M115.2,152c-0.1-0.2-0.2-0.4-0.3-0.6c-0.8-1.3-2.6-1.3-3.7-0.3c-0.9,0.8-1.2,1.8-0.8,2.8
								c0.2,0.5,0.5,0.9,1,1.1c0.9,0.4,1.8,0.3,2.6-0.3C114.9,154.1,115.4,153,115.2,152z M104.1,152.8c-1.4-0.8-2.8-0.3-3.7,0.8
								c-0.9,1.1-0.4,2.5,0.4,3.1C101.6,155.9,103.8,153.6,104.1,152.8z M90.9,159.4c1.2-1.3,2.4-2.5,3.4-3.9
								c-1.3-0.7-2.6-0.3-3.5,0.8C89.9,157.2,90.1,158.7,90.9,159.4z"/>
							<path fill="#212429" d="M101.8,175c0,2.1-2,1.7-2.2,1.5c-0.3-0.3-0.4-0.9-0.4-1.3c0-0.5,0-1.1,0-1.6c0-0.5,0-1,0-1.5
								c0,0,0-0.1,0-0.1c-0.5,0.2-0.9,0.3-1.4,0.3c-0.5-0.1-0.9-0.3-1.2-0.6c-0.2,0.2-0.3,0.4-0.5,0.6c-0.3,0.4-0.7,0.6-1.1,0.9
								c-0.5,0.3-1.1,0.5-1.6,0.6c-1.2,0.2-2.2-0.1-3.1-0.8c-0.1-0.1-0.2-0.2-0.3-0.3c-0.3,0.6-0.7,1.2-1.2,1.7
								c-0.6,0.6-1.3,1.1-2,1.4c-0.8,0.3-1.6,0.5-2.5,0.5c-1.6,0-2.9-0.5-3.8-1.7c-0.1-0.1-0.2-0.2-0.3-0.4
								c-0.2-0.9-0.4-1.8-0.6-2.8c0-0.5,0.1-0.9,0.3-1.4c0.2-0.7,0.6-1.4,1.2-2c0.5-0.5,1-0.9,1.6-1.3c0.8-0.4,1.6-0.7,2.5-0.7
								c1.1,0,2,0.4,2.6,1.2c0.4,0.5,0.4,1.1,0.2,1.7c-0.3,0.5-1,0.9-1.7,0.6c-0.4-0.2-0.7-0.5-0.8-1c0-0.1-0.1-0.1-0.1-0.1
								c-0.2,0-0.5-0.1-0.7,0c-0.8,0.2-1.4,0.7-1.9,1.4c-0.4,0.6-0.6,1.2-0.5,1.8c0,0.7,0.3,1.3,0.9,1.8c0.4,0.2,0.8,0.3,1.3,0.3
								c0.5,0,1-0.1,1.4-0.3c0.5-0.2,0.9-0.5,1.3-0.9c0.6-0.7,1-1.5,1.2-2.3c0.2-0.6,0.3-1.2,0.4-1.8c0.1-0.4,0.1-0.9,0.2-1.3
								c0-0.3,0.1-0.6,0.1-1c0-0.1,0-0.3,0-0.4c0.1-0.7,1.1-1.3,1.8-1c0.5,0.2,0.8,0.5,0.8,1.1c0,0.2,0,0.4-0.1,0.6
								c0,0.4-0.1,0.9-0.1,1.3c0,0.5,0,0.9,0,1.4c0.1,0.7,0.2,1.4,0.7,1.9c0.3,0.3,0.6,0.3,1,0.2c0.2,0,0.4-0.1,0.6-0.2
								c0.3-0.2,0.6-0.4,0.7-0.7c0.2-0.4,0.4-0.8,0.4-1.2c0.1-0.6,0.1-1.1,0.2-1.7c0-0.3,0-0.7,0-1c0-0.5,0-0.9,0-1.4
								c0-0.3,0-0.6,0-0.9c0-0.5,0.4-1,1-1.2c0.4-0.1,0.7-0.1,1,0.1c0.4,0.2,0.6,0.6,0.6,1c0,0.6,0,1.1,0,1.7c0,0.6,0.1,1.2,0.2,1.9
								c0,0.4,0.1,0.8,0.2,1.1c0.1,0.3,0.2,0.6,0.3,0.9c0.2-0.1,0.4-0.2,0.5-0.4c0.3-0.6,0.3-1.1,0.3-1.7c0-0.4,0-0.9,0-1.3
								c0-0.7,0-1.3-0.1-2c0-0.4,0-0.9,0-1.3c0-0.5,0.4-1,1-1.1c0.6-0.1,1,0,1.4,0.4c0.1,0.1,0.1,0.2,0.2,0.3
								c0.4-0.2,0.7-0.4,1.1-0.5c0.6-0.2,1.2-0.4,1.9-0.4c1.6-0.1,2.9,0.5,3.9,1.6c0.4,0.4,0.7,0.9,0.8,1.5c0.1,0.5,0.2,1,0.2,1.5
								c-0.1,0.9-0.3,1.7-0.8,2.4c-0.3,0.5-0.7,0.9-1.1,1.2c-0.7,0.5-1.4,0.9-2.2,1.1c-1.1,0.3-2.2,0.2-3.3-0.2c0,0-0.1,0-0.2-0.1
								c0,0.4,0,0.7,0,1.1c0,0.4,0,0.9,0,1.3C101.7,173.8,101.8,174.4,101.8,175 M103.7,164.2c-1.4,0.4-2.2,1.8-2,3
								c0.3,1.4,1.6,2,2.9,1.6c1.6-0.4,2.3-1.8,2.1-3C106.3,164.4,105.1,163.7,103.7,164.2z"/>
						</g>
					</g>
					<defs>
						<filter id="Adobe_OpacityMaskFilter_2_" filterUnits="userSpaceOnUse" x="79.3" y="148" width="38.5" height="28.7">
							
								<feColorMatrix  type="matrix" values="-1 0 0 0 1  0 -1 0 0 1  0 0 -1 0 1  0 0 0 1 0" color-interpolation-filters="sRGB" result="source"/>
						</filter>
					</defs>
					<mask maskUnits="userSpaceOnUse" x="79.3" y="148" width="38.5" height="28.7" id="SVGID_2_">
						<g filter="url(#Adobe_OpacityMaskFilter_2_)">
							
								<image overflow="visible" width="43" height="34" xlink:href="6EE841E1A4F9CAF5.jpg"  transform="matrix(1 0 0 1 77.2133 145.2133)">
							</image>
						</g>
					</mask>
					<g opacity="0.55">
						<g>
							<path fill="#212429" d="M80,150.4c1.7-1.2,2.3,0.5,2.3,1c0,1,0.1,2,0.1,2.9c0,0.8,0,1.7,0.1,2.5c0,0.3,0,0.7,0,1.1
								c0.3-0.3,0.6-0.5,0.9-0.8c0.4-0.4,0.7-0.8,1-1.2c0.1-0.2,0.2-0.3,0.2-0.5c0.2-0.7,1-1.1,1.8-0.9c0.5,0.2,0.8,0.5,0.9,1
								c0,0.3-0.1,0.7-0.3,1c-0.5,1.1-1.3,1.9-2.2,2.7c-0.4,0.3-0.8,0.7-1.2,1c-0.2,0.2-0.2,0.2,0,0.3c0.6,0.5,1.3,1,2.1,1.3
								c1.2,0.4,2.3,0.2,3.4-0.6c-0.2-0.3-0.5-0.6-0.7-0.9c-0.4-0.6-0.7-1.4-0.7-2.2c-0.1-0.9,0.1-1.7,0.5-2.5
								c0.3-0.6,0.8-1.2,1.4-1.7c0.6-0.5,1.4-0.9,2.2-1.2c1.1-0.3,2.2-0.2,3.2,0.2c0.7,0.2,1.3,0.5,1.7,1c0.4,0.4,0.6,0.9,0.4,1.5
								c-0.1,0.3-0.3,0.7-0.5,1c-0.8,1.2-1.8,2.3-2.8,3.4c-0.1,0.1-0.1,0.1-0.2,0.2c0.9,0.2,4.1-0.9,5.2-1.8c0,0-0.1-0.1-0.1-0.1
								c-0.7-0.7-1.1-1.5-1.3-2.4c-0.2-1.4,0.1-2.6,1.1-3.8c0.8-1,1.8-1.6,3.1-1.9c1.1-0.3,2.1-0.2,3.1,0.2c0.6,0.2,1.2,0.5,1.7,1
								c0.6,0.6,0.7,1.4,0.3,2.2c-0.3,0.8-0.9,1.5-1.4,2.2c-0.5,0.6-1.1,1.3-1.7,2c0.3-0.1,0.6-0.1,0.9-0.2c0.5-0.2,1-0.4,1.5-0.7
								c0.6-0.4,0.9-0.9,1.2-1.4c0.3-0.7,0.5-1.5,0.4-2.2c0-0.7,0-1.5-0.1-2.2c0-0.4,0-0.8,0-1.2c0-0.5,0.2-0.9,0.6-1.2
								c0.4-0.3,0.9-0.3,1.3-0.1c0.3,0.1,0.5,0.3,0.6,0.6c0.6-0.4,1.1-0.6,1.8-0.8c1.1-0.3,2.2-0.2,3.2,0.2c0.9,0.4,1.7,0.9,2.2,1.7
								c0.2,0.3,0.4,0.6,0.5,1c0,0.3,0.1,0.5,0.2,0.8c0.3,0.9,0.1,1.7-0.3,2.6c-0.5,1-1.2,1.9-2.2,2.5c-0.8,0.5-1.7,0.7-2.6,0.8
								c-0.8,0-1.5-0.1-2.1-0.4c-0.2-0.1-0.2-0.1-0.2,0.2c0,0.5,0,0.9,0,1.4c0,0.7,0,1.5,0.1,2.2c0,0.2,0,0.5,0,0.7
								c-0.1,0.8-1.1,1.2-1.7,1c-0.4-0.1-0.7-0.3-0.8-0.7c-0.1-0.2-0.1-0.4-0.1-0.6c0-0.7,0-1.5-0.1-2.2c0-0.2,0-0.5,0-0.7
								c-0.5,0.3-1,0.5-1.5,0.8c-1.6,0.7-3.2,1-4.9,0.5c-0.1,0-0.2,0-0.2,0c-0.9,0.7-1.8,1.2-2.9,1.7c-1.1,0.5-2.3,0.9-3.5,1
								c-1.1,0.2-2.1,0.2-3.2-0.1c-0.1,0-0.2,0-0.2,0.1c-0.6,0.6-1.3,1-2.1,1.4c-1.3,0.6-2.7,0.7-4,0.4c-0.9-0.2-1.6-0.6-2.4-1.1
								c-0.1,0-0.1-0.1-0.1-0.1c0,0,0,0-0.1,0.1c0,0.2,0,0.4,0,0.6c0,0.4,0,0.7,0,1.1c0,0.9-1,1.6-1.8,1.2c-0.6-0.2-0.8-0.6-0.8-1.2
								c0-1-0.1-2-0.1-3c0-0.9,0-1.9-0.1-2.8c0-0.7,0-1.4-0.1-2.1c0-1-0.1-1.9-0.1-2.9c0-0.9,0-1.8,0-2.7
								C79.6,150.9,79.7,150.6,80,150.4 M115.2,152c-0.1-0.2-0.2-0.4-0.3-0.6c-0.8-1.3-2.6-1.3-3.7-0.3c-0.9,0.8-1.2,1.8-0.8,2.8
								c0.2,0.5,0.5,0.9,1,1.1c0.9,0.4,1.8,0.3,2.6-0.3C114.9,154.1,115.4,153,115.2,152z M104.1,152.8c-1.4-0.8-2.8-0.3-3.7,0.8
								c-0.9,1.1-0.4,2.5,0.4,3.1C101.6,155.9,103.8,153.6,104.1,152.8z M90.9,159.4c1.2-1.3,2.4-2.5,3.4-3.9
								c-1.3-0.7-2.6-0.3-3.5,0.8C89.9,157.2,90.1,158.7,90.9,159.4z"/>
							<path fill="#212429" d="M101.8,175c0,2.1-2,1.7-2.2,1.5c-0.3-0.3-0.4-0.9-0.4-1.3c0-0.5,0-1.1,0-1.6c0-0.5,0-1,0-1.5
								c0,0,0-0.1,0-0.1c-0.5,0.2-0.9,0.3-1.4,0.3c-0.5-0.1-0.9-0.3-1.2-0.6c-0.2,0.2-0.3,0.4-0.5,0.6c-0.3,0.4-0.7,0.6-1.1,0.9
								c-0.5,0.3-1.1,0.5-1.6,0.6c-1.2,0.2-2.2-0.1-3.1-0.8c-0.1-0.1-0.2-0.2-0.3-0.3c-0.3,0.6-0.7,1.2-1.2,1.7
								c-0.6,0.6-1.3,1.1-2,1.4c-0.8,0.3-1.6,0.5-2.5,0.5c-1.6,0-2.9-0.5-3.8-1.7c-0.1-0.1-0.2-0.2-0.3-0.4
								c-0.2-0.9-0.4-1.8-0.6-2.8c0-0.5,0.1-0.9,0.3-1.4c0.2-0.7,0.6-1.4,1.2-2c0.5-0.5,1-0.9,1.6-1.3c0.8-0.4,1.6-0.7,2.5-0.7
								c1.1,0,2,0.4,2.6,1.2c0.4,0.5,0.4,1.1,0.2,1.7c-0.3,0.5-1,0.9-1.7,0.6c-0.4-0.2-0.7-0.5-0.8-1c0-0.1-0.1-0.1-0.1-0.1
								c-0.2,0-0.5-0.1-0.7,0c-0.8,0.2-1.4,0.7-1.9,1.4c-0.4,0.6-0.6,1.2-0.5,1.8c0,0.7,0.3,1.3,0.9,1.8c0.4,0.2,0.8,0.3,1.3,0.3
								c0.5,0,1-0.1,1.4-0.3c0.5-0.2,0.9-0.5,1.3-0.9c0.6-0.7,1-1.5,1.2-2.3c0.2-0.6,0.3-1.2,0.4-1.8c0.1-0.4,0.1-0.9,0.2-1.3
								c0-0.3,0.1-0.6,0.1-1c0-0.1,0-0.3,0-0.4c0.1-0.7,1.1-1.3,1.8-1c0.5,0.2,0.8,0.5,0.8,1.1c0,0.2,0,0.4-0.1,0.6
								c0,0.4-0.1,0.9-0.1,1.3c0,0.5,0,0.9,0,1.4c0.1,0.7,0.2,1.4,0.7,1.9c0.3,0.3,0.6,0.3,1,0.2c0.2,0,0.4-0.1,0.6-0.2
								c0.3-0.2,0.6-0.4,0.7-0.7c0.2-0.4,0.4-0.8,0.4-1.2c0.1-0.6,0.1-1.1,0.2-1.7c0-0.3,0-0.7,0-1c0-0.5,0-0.9,0-1.4
								c0-0.3,0-0.6,0-0.9c0-0.5,0.4-1,1-1.2c0.4-0.1,0.7-0.1,1,0.1c0.4,0.2,0.6,0.6,0.6,1c0,0.6,0,1.1,0,1.7c0,0.6,0.1,1.2,0.2,1.9
								c0,0.4,0.1,0.8,0.2,1.1c0.1,0.3,0.2,0.6,0.3,0.9c0.2-0.1,0.4-0.2,0.5-0.4c0.3-0.6,0.3-1.1,0.3-1.7c0-0.4,0-0.9,0-1.3
								c0-0.7,0-1.3-0.1-2c0-0.4,0-0.9,0-1.3c0-0.5,0.4-1,1-1.1c0.6-0.1,1,0,1.4,0.4c0.1,0.1,0.1,0.2,0.2,0.3
								c0.4-0.2,0.7-0.4,1.1-0.5c0.6-0.2,1.2-0.4,1.9-0.4c1.6-0.1,2.9,0.5,3.9,1.6c0.4,0.4,0.7,0.9,0.8,1.5c0.1,0.5,0.2,1,0.2,1.5
								c-0.1,0.9-0.3,1.7-0.8,2.4c-0.3,0.5-0.7,0.9-1.1,1.2c-0.7,0.5-1.4,0.9-2.2,1.1c-1.1,0.3-2.2,0.2-3.3-0.2c0,0-0.1,0-0.2-0.1
								c0,0.4,0,0.7,0,1.1c0,0.4,0,0.9,0,1.3C101.7,173.8,101.8,174.4,101.8,175 M103.7,164.2c-1.4,0.4-2.2,1.8-2,3
								c0.3,1.4,1.6,2,2.9,1.6c1.6-0.4,2.3-1.8,2.1-3C106.3,164.4,105.1,163.7,103.7,164.2z"/>
						</g>
					</g>
				</g>
			</g>
			<g>
				<g>
					<g>
						<path fill="#D0BED3" d="M90.8,41.1c0.8,0.4,0.4,1.1,0.2,1.2c-0.3,0.2-0.6,0.5-1,0.7c-0.3,0.2-0.6,0.4-0.8,0.6
							c-0.1,0.1-0.2,0.2-0.4,0.3c0.2,0.1,0.3,0.1,0.5,0.2c0.2,0.1,0.4,0.1,0.6,0.1c0.1,0,0.2,0,0.2,0c0.3-0.1,0.6,0.2,0.7,0.5
							c0.1,0.2,0,0.5-0.2,0.6c-0.1,0.1-0.3,0.1-0.4,0.1c-0.5,0-0.9-0.1-1.4-0.3c-0.2-0.1-0.4-0.2-0.6-0.3c-0.1,0-0.1-0.1-0.1,0.1
							c0,0.4,0,0.8,0,1.2c0.1,0.6,0.5,1,1,1.3c0-0.2,0.1-0.3,0.1-0.5c0.1-0.3,0.3-0.6,0.6-0.8c0.3-0.2,0.6-0.4,1-0.4
							c0.3,0,0.6,0.1,0.9,0.2c0.3,0.1,0.6,0.4,0.9,0.6c0.4,0.4,0.6,0.9,0.7,1.4c0.1,0.3,0.1,0.7,0,1c-0.1,0.3-0.2,0.5-0.4,0.5
							c-0.1,0-0.3,0-0.4,0c-0.6-0.1-1.2-0.2-1.8-0.4c0,0-0.1,0-0.1,0c0.1,0.4,1.2,1.5,1.8,1.7c0,0,0-0.1,0-0.1
							c0.1-0.4,0.2-0.8,0.5-1.1c0.4-0.4,0.9-0.6,1.5-0.4c0.5,0.1,1,0.4,1.4,0.8c0.3,0.4,0.5,0.8,0.6,1.3c0.1,0.3,0.1,0.6,0.1,0.9
							c-0.1,0.4-0.3,0.6-0.7,0.6c-0.3,0-0.7,0-1.1-0.1c-0.3-0.1-0.7-0.2-1.1-0.3c0.1,0.1,0.2,0.2,0.3,0.3c0.2,0.2,0.4,0.3,0.6,0.5
							c0.3,0.1,0.5,0.2,0.8,0.2c0.3,0,0.6-0.1,0.8-0.3c0.2-0.2,0.5-0.4,0.7-0.5c0.1-0.1,0.3-0.2,0.4-0.3c0.2-0.1,0.3-0.1,0.5,0
							c0.2,0.1,0.3,0.3,0.3,0.5c0,0.2,0,0.3-0.1,0.4c0.2,0.1,0.5,0.3,0.7,0.6c0.3,0.4,0.6,0.8,0.7,1.4c0.1,0.5,0.1,0.9-0.1,1.3
							c-0.1,0.2-0.1,0.3-0.2,0.4c-0.1,0.1-0.2,0.2-0.2,0.3c-0.2,0.3-0.6,0.4-0.9,0.5c-0.5,0-0.9-0.1-1.3-0.4
							c-0.3-0.2-0.6-0.5-0.9-0.9c-0.2-0.3-0.3-0.6-0.4-1c0-0.1,0-0.1-0.1-0.1c-0.2,0.1-0.3,0.2-0.5,0.3c-0.2,0.2-0.5,0.4-0.7,0.5
							c-0.1,0.1-0.2,0.1-0.2,0.2c-0.3,0.1-0.7-0.2-0.7-0.5c0-0.2,0-0.4,0.1-0.5c0-0.1,0.1-0.1,0.2-0.2c0.2-0.2,0.5-0.4,0.7-0.5
							c0.1-0.1,0.2-0.1,0.2-0.2c-0.2-0.1-0.4-0.3-0.6-0.4c-0.6-0.5-1.1-1.1-1.3-1.9c0,0,0-0.1-0.1-0.1c-0.4-0.2-0.8-0.5-1.2-0.8
							c-0.4-0.4-0.8-0.7-1.1-1.2c-0.3-0.4-0.5-0.9-0.7-1.3c0,0-0.1-0.1-0.1-0.1c-0.3-0.1-0.7-0.3-1-0.6c-0.5-0.4-0.9-1-1-1.6
							c-0.1-0.4-0.2-0.8-0.2-1.2c0,0,0-0.1,0-0.1c0,0,0,0,0,0c-0.1,0-0.1,0.1-0.2,0.1c-0.1,0.1-0.2,0.2-0.4,0.3
							c-0.3,0.2-0.8,0-0.8-0.5c-0.1-0.3,0-0.5,0.2-0.6c0.3-0.2,0.7-0.5,1-0.7c0.3-0.2,0.6-0.4,0.9-0.7c0.2-0.2,0.5-0.3,0.7-0.5
							c0.3-0.2,0.6-0.5,1-0.7c0.3-0.2,0.6-0.4,0.9-0.6C90.5,41.1,90.7,41.1,90.8,41.1 M98.3,56.2c0-0.1,0.1-0.2,0.1-0.3
							c0.3-0.6-0.2-1.4-0.7-1.6c-0.5-0.2-0.9-0.1-1.1,0.3c-0.1,0.2-0.2,0.4-0.2,0.7c0.1,0.5,0.3,0.8,0.7,1
							C97.6,56.5,98.1,56.5,98.3,56.2z M95.6,51.7c0-0.8-0.5-1.2-1.1-1.4c-0.6-0.1-1,0.4-1,0.9C93.9,51.4,95.2,51.8,95.6,51.7z
							 M90.3,47.7c0.7,0.2,1.4,0.4,2.1,0.5c-0.1-0.7-0.5-1.2-1.1-1.3C90.8,46.8,90.3,47.3,90.3,47.7z"/>
						<path fill="#D0BED3" d="M87.5,55.9c-0.7,0.5-1-0.4-1-0.6c0-0.2,0.2-0.4,0.4-0.5c0.2-0.1,0.4-0.3,0.5-0.4
							c0.2-0.1,0.3-0.2,0.5-0.4c0,0,0,0,0,0c-0.2-0.2-0.3-0.3-0.4-0.5c-0.1-0.2-0.1-0.4-0.1-0.6c-0.1,0-0.2,0-0.3-0.1
							c-0.2-0.1-0.4-0.2-0.6-0.3c-0.2-0.1-0.4-0.3-0.6-0.5c-0.3-0.5-0.5-1-0.4-1.5c0-0.1,0-0.1,0-0.2c-0.3,0-0.6,0-0.9-0.1
							c-0.3-0.1-0.6-0.3-0.9-0.5c-0.3-0.3-0.5-0.6-0.7-0.9c-0.4-0.7-0.5-1.3-0.3-2c0-0.1,0-0.1,0.1-0.2c0.3-0.3,0.5-0.6,0.8-0.9
							c0.2-0.1,0.3-0.2,0.5-0.2c0.3-0.1,0.6-0.1,1,0c0.3,0.1,0.5,0.2,0.8,0.4c0.3,0.2,0.6,0.5,0.8,0.9c0.2,0.5,0.3,0.9,0.2,1.4
							c-0.1,0.3-0.3,0.4-0.5,0.5c-0.2,0-0.5-0.2-0.6-0.6c0-0.2,0-0.4,0.1-0.5c0,0,0-0.1,0-0.1c0-0.1-0.1-0.2-0.2-0.3
							c-0.3-0.3-0.6-0.4-0.9-0.5c-0.3,0-0.5,0-0.7,0.2c-0.2,0.2-0.4,0.4-0.4,0.8c0,0.2,0.1,0.4,0.2,0.6c0.1,0.2,0.3,0.4,0.4,0.5
							c0.2,0.2,0.4,0.3,0.6,0.3c0.4,0.1,0.7,0.1,1,0c0.2-0.1,0.5-0.1,0.7-0.2c0.2-0.1,0.3-0.2,0.5-0.2c0.1-0.1,0.2-0.1,0.4-0.2
							c0.1,0,0.1-0.1,0.1-0.1c0.3-0.1,0.7,0.2,0.7,0.5c0,0.2,0,0.4-0.2,0.6c-0.1,0-0.1,0.1-0.2,0.1c-0.2,0.1-0.3,0.2-0.5,0.2
							c-0.2,0.1-0.3,0.2-0.5,0.3c-0.2,0.2-0.4,0.4-0.5,0.7c0,0.2,0,0.3,0.2,0.5c0.1,0.1,0.1,0.2,0.2,0.2c0.1,0.1,0.3,0.1,0.4,0.2
							c0.2,0,0.3,0,0.5-0.1c0.2-0.1,0.4-0.2,0.6-0.3c0.1-0.1,0.2-0.2,0.3-0.2c0.2-0.1,0.3-0.2,0.5-0.3c0.1-0.1,0.2-0.1,0.3-0.2
							c0.2-0.1,0.5-0.1,0.6,0.1c0.1,0.1,0.2,0.3,0.2,0.5c0,0.2-0.1,0.4-0.2,0.5c-0.2,0.1-0.4,0.3-0.6,0.4c-0.2,0.2-0.4,0.3-0.6,0.5
							c-0.1,0.1-0.2,0.2-0.3,0.3c-0.1,0.1-0.1,0.2-0.2,0.4c0.1,0.1,0.2,0.1,0.2,0.1c0.3,0,0.5-0.1,0.7-0.3c0.2-0.1,0.3-0.2,0.4-0.3
							c0.2-0.2,0.4-0.3,0.7-0.5c0.1-0.1,0.3-0.2,0.4-0.3c0.2-0.1,0.4,0,0.6,0.2c0.2,0.2,0.2,0.4,0.2,0.7c0,0.1,0,0.1-0.1,0.1
							c0.1,0.1,0.3,0.2,0.4,0.3c0.2,0.2,0.4,0.4,0.6,0.7c0.4,0.7,0.5,1.3,0.4,2c-0.1,0.3-0.2,0.5-0.3,0.7c-0.1,0.2-0.3,0.3-0.5,0.4
							c-0.3,0.2-0.6,0.3-1,0.2c-0.2,0-0.5-0.1-0.7-0.2c-0.3-0.2-0.6-0.4-0.9-0.7c-0.4-0.4-0.6-0.9-0.7-1.4c0,0,0,0,0-0.1
							c-0.1,0.1-0.2,0.2-0.4,0.2c-0.1,0.1-0.3,0.2-0.4,0.3C87.9,55.6,87.7,55.7,87.5,55.9 M91.6,54.1c-0.5-0.5-1.1-0.5-1.5-0.1
							c-0.4,0.5-0.3,1.1,0.1,1.6c0.5,0.6,1.2,0.6,1.5,0.2C92.1,55.3,92.1,54.7,91.6,54.1z"/>
					</g>
				</g>
				<defs>
					<filter id="Adobe_OpacityMaskFilter_3_" filterUnits="userSpaceOnUse" x="82.6" y="41.1" width="17" height="16.5">
						
							<feColorMatrix  type="matrix" values="-1 0 0 0 1  0 -1 0 0 1  0 0 -1 0 1  0 0 0 1 0" color-interpolation-filters="sRGB" result="source"/>
					</filter>
				</defs>
				<mask maskUnits="userSpaceOnUse" x="82.6" y="41.1" width="17" height="16.5" id="SVGID_3_">
					<g filter="url(#Adobe_OpacityMaskFilter_3_)">
						
							<image overflow="visible" width="22" height="22" xlink:href="6EE841E1A4F9CAF7.jpg"  transform="matrix(1 0 0 1 80.2133 38.2133)">
						</image>
					</g>
				</mask>
				<g opacity="2.000000e-02" mask="url(#SVGID_3_)">
					<g>
						<path fill="#212429" d="M90.8,41.1c0.8,0.4,0.4,1.1,0.2,1.2c-0.3,0.2-0.6,0.5-1,0.7c-0.3,0.2-0.6,0.4-0.8,0.6
							c-0.1,0.1-0.2,0.2-0.4,0.3c0.2,0.1,0.3,0.1,0.5,0.2c0.2,0.1,0.4,0.1,0.6,0.1c0.1,0,0.2,0,0.2,0c0.3-0.1,0.6,0.2,0.7,0.5
							c0.1,0.2,0,0.5-0.2,0.6c-0.1,0.1-0.3,0.1-0.4,0.1c-0.5,0-0.9-0.1-1.4-0.3c-0.2-0.1-0.4-0.2-0.6-0.3c-0.1,0-0.1-0.1-0.1,0.1
							c0,0.4,0,0.8,0,1.2c0.1,0.6,0.5,1,1,1.3c0-0.2,0.1-0.3,0.1-0.5c0.1-0.3,0.3-0.6,0.6-0.8c0.3-0.2,0.6-0.4,1-0.4
							c0.3,0,0.6,0.1,0.9,0.2c0.3,0.1,0.6,0.4,0.9,0.6c0.4,0.4,0.6,0.9,0.7,1.4c0.1,0.3,0.1,0.7,0,1c-0.1,0.3-0.2,0.5-0.4,0.5
							c-0.1,0-0.3,0-0.4,0c-0.6-0.1-1.2-0.2-1.8-0.4c0,0-0.1,0-0.1,0c0.1,0.4,1.2,1.5,1.8,1.7c0,0,0-0.1,0-0.1
							c0.1-0.4,0.2-0.8,0.5-1.1c0.4-0.4,0.9-0.6,1.5-0.4c0.5,0.1,1,0.4,1.4,0.8c0.3,0.4,0.5,0.8,0.6,1.3c0.1,0.3,0.1,0.6,0.1,0.9
							c-0.1,0.4-0.3,0.6-0.7,0.6c-0.3,0-0.7,0-1.1-0.1c-0.3-0.1-0.7-0.2-1.1-0.3c0.1,0.1,0.2,0.2,0.3,0.3c0.2,0.2,0.4,0.3,0.6,0.5
							c0.3,0.1,0.5,0.2,0.8,0.2c0.3,0,0.6-0.1,0.8-0.3c0.2-0.2,0.5-0.4,0.7-0.5c0.1-0.1,0.3-0.2,0.4-0.3c0.2-0.1,0.3-0.1,0.5,0
							c0.2,0.1,0.3,0.3,0.3,0.5c0,0.2,0,0.3-0.1,0.4c0.2,0.1,0.5,0.3,0.7,0.6c0.3,0.4,0.6,0.8,0.7,1.4c0.1,0.5,0.1,0.9-0.1,1.3
							c-0.1,0.2-0.1,0.3-0.2,0.4c-0.1,0.1-0.2,0.2-0.2,0.3c-0.2,0.3-0.6,0.4-0.9,0.5c-0.5,0-0.9-0.1-1.3-0.4
							c-0.3-0.2-0.6-0.5-0.9-0.9c-0.2-0.3-0.3-0.6-0.4-1c0-0.1,0-0.1-0.1-0.1c-0.2,0.1-0.3,0.2-0.5,0.3c-0.2,0.2-0.5,0.4-0.7,0.5
							c-0.1,0.1-0.2,0.1-0.2,0.2c-0.3,0.1-0.7-0.2-0.7-0.5c0-0.2,0-0.4,0.1-0.5c0-0.1,0.1-0.1,0.2-0.2c0.2-0.2,0.5-0.4,0.7-0.5
							c0.1-0.1,0.2-0.1,0.2-0.2c-0.2-0.1-0.4-0.3-0.6-0.4c-0.6-0.5-1.1-1.1-1.3-1.9c0,0,0-0.1-0.1-0.1c-0.4-0.2-0.8-0.5-1.2-0.8
							c-0.4-0.4-0.8-0.7-1.1-1.2c-0.3-0.4-0.5-0.9-0.7-1.3c0,0-0.1-0.1-0.1-0.1c-0.3-0.1-0.7-0.3-1-0.6c-0.5-0.4-0.9-1-1-1.6
							c-0.1-0.4-0.2-0.8-0.2-1.2c0,0,0-0.1,0-0.1c0,0,0,0,0,0c-0.1,0-0.1,0.1-0.2,0.1c-0.1,0.1-0.2,0.2-0.4,0.3
							c-0.3,0.2-0.8,0-0.8-0.5c-0.1-0.3,0-0.5,0.2-0.6c0.3-0.2,0.7-0.5,1-0.7c0.3-0.2,0.6-0.4,0.9-0.7c0.2-0.2,0.5-0.3,0.7-0.5
							c0.3-0.2,0.6-0.5,1-0.7c0.3-0.2,0.6-0.4,0.9-0.6C90.5,41.1,90.7,41.1,90.8,41.1 M98.3,56.2c0-0.1,0.1-0.2,0.1-0.3
							c0.3-0.6-0.2-1.4-0.7-1.6c-0.5-0.2-0.9-0.1-1.1,0.3c-0.1,0.2-0.2,0.4-0.2,0.7c0.1,0.5,0.3,0.8,0.7,1
							C97.6,56.5,98.1,56.5,98.3,56.2z M95.6,51.7c0-0.8-0.5-1.2-1.1-1.4c-0.6-0.1-1,0.4-1,0.9C93.9,51.4,95.2,51.8,95.6,51.7z
							 M90.3,47.7c0.7,0.2,1.4,0.4,2.1,0.5c-0.1-0.7-0.5-1.2-1.1-1.3C90.8,46.8,90.3,47.3,90.3,47.7z"/>
						<path fill="#212429" d="M87.5,55.9c-0.7,0.5-1-0.4-1-0.6c0-0.2,0.2-0.4,0.4-0.5c0.2-0.1,0.4-0.3,0.5-0.4
							c0.2-0.1,0.3-0.2,0.5-0.4c0,0,0,0,0,0c-0.2-0.2-0.3-0.3-0.4-0.5c-0.1-0.2-0.1-0.4-0.1-0.6c-0.1,0-0.2,0-0.3-0.1
							c-0.2-0.1-0.4-0.2-0.6-0.3c-0.2-0.1-0.4-0.3-0.6-0.5c-0.3-0.5-0.5-1-0.4-1.5c0-0.1,0-0.1,0-0.2c-0.3,0-0.6,0-0.9-0.1
							c-0.3-0.1-0.6-0.3-0.9-0.5c-0.3-0.3-0.5-0.6-0.7-0.9c-0.4-0.7-0.5-1.3-0.3-2c0-0.1,0-0.1,0.1-0.2c0.3-0.3,0.5-0.6,0.8-0.9
							c0.2-0.1,0.3-0.2,0.5-0.2c0.3-0.1,0.6-0.1,1,0c0.3,0.1,0.5,0.2,0.8,0.4c0.3,0.2,0.6,0.5,0.8,0.9c0.2,0.5,0.3,0.9,0.2,1.4
							c-0.1,0.3-0.3,0.4-0.5,0.5c-0.2,0-0.5-0.2-0.6-0.6c0-0.2,0-0.4,0.1-0.5c0,0,0-0.1,0-0.1c0-0.1-0.1-0.2-0.2-0.3
							c-0.3-0.3-0.6-0.4-0.9-0.5c-0.3,0-0.5,0-0.7,0.2c-0.2,0.2-0.4,0.4-0.4,0.8c0,0.2,0.1,0.4,0.2,0.6c0.1,0.2,0.3,0.4,0.4,0.5
							c0.2,0.2,0.4,0.3,0.6,0.3c0.4,0.1,0.7,0.1,1,0c0.2-0.1,0.5-0.1,0.7-0.2c0.2-0.1,0.3-0.2,0.5-0.2c0.1-0.1,0.2-0.1,0.4-0.2
							c0.1,0,0.1-0.1,0.1-0.1c0.3-0.1,0.7,0.2,0.7,0.5c0,0.2,0,0.4-0.2,0.6c-0.1,0-0.1,0.1-0.2,0.1c-0.2,0.1-0.3,0.2-0.5,0.2
							c-0.2,0.1-0.3,0.2-0.5,0.3c-0.2,0.2-0.4,0.4-0.5,0.7c0,0.2,0,0.3,0.2,0.5c0.1,0.1,0.1,0.2,0.2,0.2c0.1,0.1,0.3,0.1,0.4,0.2
							c0.2,0,0.3,0,0.5-0.1c0.2-0.1,0.4-0.2,0.6-0.3c0.1-0.1,0.2-0.2,0.3-0.2c0.2-0.1,0.3-0.2,0.5-0.3c0.1-0.1,0.2-0.1,0.3-0.2
							c0.2-0.1,0.5-0.1,0.6,0.1c0.1,0.1,0.2,0.3,0.2,0.5c0,0.2-0.1,0.4-0.2,0.5c-0.2,0.1-0.4,0.3-0.6,0.4c-0.2,0.2-0.4,0.3-0.6,0.5
							c-0.1,0.1-0.2,0.2-0.3,0.3c-0.1,0.1-0.1,0.2-0.2,0.4c0.1,0.1,0.2,0.1,0.2,0.1c0.3,0,0.5-0.1,0.7-0.3c0.2-0.1,0.3-0.2,0.4-0.3
							c0.2-0.2,0.4-0.3,0.7-0.5c0.1-0.1,0.3-0.2,0.4-0.3c0.2-0.1,0.4,0,0.6,0.2c0.2,0.2,0.2,0.4,0.2,0.7c0,0.1,0,0.1-0.1,0.1
							c0.1,0.1,0.3,0.2,0.4,0.3c0.2,0.2,0.4,0.4,0.6,0.7c0.4,0.7,0.5,1.3,0.4,2c-0.1,0.3-0.2,0.5-0.3,0.7c-0.1,0.2-0.3,0.3-0.5,0.4
							c-0.3,0.2-0.6,0.3-1,0.2c-0.2,0-0.5-0.1-0.7-0.2c-0.3-0.2-0.6-0.4-0.9-0.7c-0.4-0.4-0.6-0.9-0.7-1.4c0,0,0,0,0-0.1
							c-0.1,0.1-0.2,0.2-0.4,0.2c-0.1,0.1-0.3,0.2-0.4,0.3C87.9,55.6,87.7,55.7,87.5,55.9 M91.6,54.1c-0.5-0.5-1.1-0.5-1.5-0.1
							c-0.4,0.5-0.3,1.1,0.1,1.6c0.5,0.6,1.2,0.6,1.5,0.2C92.1,55.3,92.1,54.7,91.6,54.1z"/>
					</g>
				</g>
			</g>
		</g>
	</g>
</g>
</svg>
