<!-- Generator: Adobe Illustrator 18.0.0, SVG Export Plug-In  -->
<svg version="1.1"
	 xmlns="http://www.w3.org/2000/svg" xmlns:xlink="http://www.w3.org/1999/xlink" xmlns:a="http://ns.adobe.com/AdobeSVGViewerExtensions/3.0/"
	 x="0px" y="0px" width="735.9px" height="247.9px" viewBox="0 0 735.9 247.9" enable-background="new 0 0 735.9 247.9"
	 xml:space="preserve">
<defs>
</defs>
<g>
	<g>
		<g>
			<g>
				<path fill="#154679" d="M529.8,9.4c-0.7-0.6-1.1-1.2-1.4-1.8c-0.3-0.6-0.4-1.3-0.4-2c0-0.9,0.2-1.6,0.5-2.3
					c0.3-0.7,0.8-1.3,1.4-1.9h0c1-0.9,2.2-1.3,3.6-1.3c0.4,0,0.9,0.1,1.3,0.2c0.4,0.1,0.9,0.3,1.3,0.5c0.4,0.2,0.8,0.5,1.1,0.8
					c0.4,0.3,0.7,0.7,1,1.2c0.1,0.2,0.2,0.5,0.2,0.8c0,0.2,0,0.4-0.1,0.6s-0.2,0.3-0.3,0.4c-0.1,0.1-0.3,0.2-0.4,0.3
					c-0.2,0.1-0.4,0.1-0.5,0.1c-0.2,0-0.3,0-0.5-0.1c-0.1-0.1-0.3-0.1-0.4-0.2c-0.1-0.1-0.2-0.2-0.3-0.3c-0.1-0.1-0.2-0.3-0.3-0.4
					c-0.2-0.3-0.5-0.5-0.9-0.7c-0.4-0.2-0.8-0.2-1.2-0.2c-0.3,0-0.7,0.1-1,0.2c-0.3,0.1-0.6,0.3-0.8,0.6c-0.2,0.2-0.4,0.5-0.6,0.8
					c-0.2,0.3-0.2,0.7-0.2,1.1c0,0.7,0.2,1.2,0.6,1.6c0.4,0.4,1,0.7,1.9,1c1.5,0.4,2.8,1,3.6,1.8s1.5,1.5,1.8,2.3s0.5,1.5,0.5,2.4
					c0,2.1-0.8,3.7-2.3,5h0c-1.2,1-2.6,1.6-4.2,1.6c-0.5,0-1-0.1-1.6-0.2c-0.5-0.1-1-0.3-1.5-0.6c-0.5-0.2-0.9-0.6-1.3-0.9
					c-0.4-0.4-0.8-0.8-1.1-1.3c-0.2-0.2-0.3-0.5-0.3-0.8c0-0.2,0-0.4,0.1-0.5c0.1-0.2,0.2-0.3,0.3-0.4c0.1-0.1,0.3-0.2,0.4-0.3
					s0.4-0.1,0.6-0.1c0.5,0,0.9,0.2,1.2,0.6c0.4,0.6,0.8,1,1.4,1.3s1.2,0.4,1.8,0.4c0.5,0,1-0.1,1.4-0.3c0.4-0.2,0.8-0.5,1.2-0.8
					c0.3-0.3,0.6-0.7,0.8-1.2c0.2-0.5,0.3-0.9,0.3-1.4c0-0.5-0.1-0.9-0.3-1.4c-0.2-0.4-0.5-0.8-1-1.3c-0.5-0.4-1.3-0.8-2.4-1.1
					C531.4,10.4,530.4,10,529.8,9.4z"/>
				<path fill="#154679" d="M553.1,19.7v-0.3c-0.7,0.5-1.4,0.9-2.1,1.2s-1.6,0.4-2.5,0.4c-2,0-3.8-0.7-5.2-2.2s-2.2-3.2-2.2-5.2
					s0.7-3.8,2.2-5.2s3.2-2.2,5.2-2.2c2,0,3.8,0.7,5.2,2.2c1.4,1.4,2.2,3.2,2.2,5.2v6c0,0.4-0.1,0.7-0.4,1c-0.3,0.3-0.6,0.4-1,0.4
					c-0.4,0-0.7-0.1-1-0.4C553.2,20.4,553.1,20.1,553.1,19.7z M548.4,9.1c-0.7,0-1.3,0.1-1.8,0.4s-1.1,0.6-1.5,1s-0.7,0.9-1,1.5
					c-0.2,0.6-0.4,1.2-0.4,1.8s0.1,1.2,0.4,1.8c0.2,0.6,0.6,1.1,1,1.5c0.4,0.4,0.9,0.7,1.5,1s1.2,0.4,1.8,0.4c0.6,0,1.2-0.1,1.8-0.4
					c0.6-0.2,1.1-0.6,1.5-1c0.4-0.4,0.7-0.9,1-1.5c0.2-0.6,0.4-1.2,0.4-1.8s-0.1-1.2-0.4-1.8c-0.2-0.6-0.6-1-1-1.5
					c-0.4-0.4-0.9-0.8-1.5-1C549.7,9.2,549.1,9.1,548.4,9.1z"/>
				<path fill="#154679" d="M557.8,19.7V1.4c0-0.4,0.1-0.7,0.4-1c0.3-0.3,0.6-0.4,1-0.4s0.7,0.1,1,0.4c0.3,0.3,0.4,0.6,0.4,1v17h0.6
					c0.4,0,0.7,0.1,1,0.4c0.3,0.3,0.4,0.6,0.4,1c0,0.4-0.1,0.7-0.4,1c-0.3,0.3-0.6,0.4-1,0.4h-2c-0.4,0-0.7-0.1-1-0.4
					C557.9,20.4,557.8,20.1,557.8,19.7z"/>
				<path fill="#154679" d="M585.1,19.7c0,0.4-0.1,0.7-0.4,1c-0.3,0.3-0.6,0.4-1,0.4c-0.4,0-0.7-0.1-1-0.4c-0.3-0.3-0.4-0.6-0.4-1
					v-7.5c0-0.4-0.1-0.8-0.2-1.2c-0.2-0.4-0.4-0.7-0.7-1c-0.3-0.3-0.6-0.5-1-0.7c-0.4-0.2-0.8-0.3-1.2-0.3c-0.4,0-0.8,0.1-1.2,0.3
					s-0.7,0.4-1,0.7c-0.3,0.3-0.5,0.6-0.7,1c-0.2,0.4-0.2,0.8-0.2,1.2v7.5c0,0.4-0.1,0.7-0.4,1c-0.3,0.3-0.6,0.4-1,0.4
					c-0.4,0-0.7-0.1-1-0.4c-0.3-0.3-0.4-0.6-0.4-1v-7.5c0-0.4-0.1-0.8-0.3-1.2s-0.4-0.7-0.7-1s-0.6-0.5-1-0.7s-0.8-0.3-1.2-0.3
					s-0.8,0.1-1.2,0.2c-0.4,0.2-0.7,0.4-1,0.7c-0.3,0.3-0.5,0.6-0.7,1c-0.2,0.4-0.2,0.8-0.2,1.2v7.5c0,0.4-0.1,0.7-0.4,1
					c-0.3,0.3-0.6,0.4-1,0.4c-0.4,0-0.7-0.1-1-0.4c-0.3-0.3-0.4-0.6-0.4-1v-12c0-0.4,0.1-0.7,0.4-1c0.3-0.3,0.6-0.4,1-0.4
					c0.3,0,0.6,0.1,0.8,0.3c0.2,0.2,0.4,0.4,0.5,0.7c0.9-0.6,2-0.9,3.2-0.9c0.9,0,1.7,0.2,2.5,0.5c0.8,0.3,1.5,0.9,2,1.6
					c1.2-1.4,2.7-2.1,4.5-2.1c0.8,0,1.6,0.2,2.3,0.5c0.7,0.3,1.3,0.7,1.9,1.3c0.5,0.5,1,1.2,1.3,1.9c0.3,0.7,0.5,1.5,0.5,2.3V19.7z"
					/>
				<path fill="#154679" d="M602.2,13.7c0,2.1-0.7,3.8-2.2,5.2c-1.5,1.4-3.2,2.2-5.2,2.2c-2,0-3.8-0.7-5.2-2.2s-2.2-3.2-2.2-5.2
					s0.7-3.8,2.2-5.2s3.2-2.2,5.2-2.2c2,0,3.8,0.7,5.2,2.2c0.7,0.7,1.3,1.5,1.6,2.4C602,11.7,602.2,12.7,602.2,13.7z M594.9,9.1
					c-0.7,0-1.3,0.1-1.8,0.4s-1.1,0.6-1.5,1s-0.7,0.9-1,1.5c-0.2,0.6-0.4,1.2-0.4,1.8s0.1,1.2,0.4,1.8c0.2,0.6,0.6,1.1,1,1.5
					c0.4,0.4,0.9,0.7,1.5,1s1.2,0.4,1.8,0.4c0.6,0,1.2-0.1,1.8-0.4c0.6-0.2,1.1-0.6,1.5-1c0.4-0.4,0.7-0.9,1-1.5
					c0.2-0.6,0.4-1.2,0.4-1.8s-0.1-1.2-0.4-1.8c-0.2-0.6-0.6-1-1-1.5c-0.4-0.4-0.9-0.8-1.5-1C596.1,9.2,595.5,9.1,594.9,9.1z"/>
				<path fill="#154679" d="M607.1,7.7c1.2-0.9,2.5-1.4,4.1-1.4c0.9,0,1.8,0.2,2.6,0.5c0.8,0.4,1.6,0.9,2.2,1.5
					c0.6,0.6,1.1,1.3,1.5,2.2s0.6,1.7,0.6,2.7v6.5c0,0.4-0.1,0.7-0.4,1c-0.3,0.3-0.6,0.4-1,0.4c-0.4,0-0.7-0.1-1-0.4
					c-0.3-0.3-0.4-0.6-0.4-1v-6.5c0-0.6-0.1-1.1-0.3-1.6c-0.2-0.5-0.5-0.9-0.9-1.3c-0.4-0.4-0.8-0.7-1.3-0.9s-1-0.3-1.6-0.3
					c-0.6,0-1.1,0.1-1.6,0.3c-0.5,0.2-0.9,0.5-1.3,0.9s-0.7,0.8-0.9,1.3c-0.2,0.5-0.3,1-0.3,1.6v6.5c0,0.4-0.1,0.7-0.4,1
					c-0.3,0.3-0.6,0.4-1,0.4c-0.4,0-0.7-0.1-1-0.4c-0.3-0.3-0.4-0.6-0.4-1v-12c0-0.4,0.1-0.7,0.4-1c0.3-0.3,0.6-0.4,1-0.4
					c0.4,0,0.7,0.1,1,0.4C607,7,607.1,7.3,607.1,7.7z"/>
				<path fill="#154679" d="M527,52.1V33.8c0-0.2,0-0.4,0.1-0.5c0.1-0.2,0.2-0.3,0.3-0.4c0.1-0.1,0.3-0.2,0.4-0.3s0.4-0.1,0.6-0.1
					h4.1c0.6,0,1.2,0.1,1.8,0.3c0.6,0.2,1.1,0.4,1.7,0.7s1,0.7,1.4,1.1s0.8,0.9,1.1,1.4c0.3,0.5,0.5,1.1,0.7,1.7
					c0.2,0.6,0.3,1.2,0.3,1.8c0,1.9-0.7,3.6-2.1,4.9c-1.4,1.4-3,2-4.9,2h-2.7v5.7c0,0.4-0.1,0.7-0.4,1s-0.6,0.4-1,0.4
					s-0.7-0.1-1-0.4C527.1,52.8,527,52.5,527,52.1z M529.8,35.2v8.4h2.7c0.6,0,1.1-0.1,1.6-0.3c0.5-0.2,0.9-0.5,1.3-0.9
					c0.4-0.4,0.7-0.8,0.9-1.3c0.2-0.5,0.3-1.1,0.3-1.6c0-0.6-0.1-1.1-0.3-1.6c-0.2-0.5-0.5-1-0.9-1.3c-0.4-0.4-0.8-0.7-1.3-0.9
					s-1-0.3-1.6-0.3H529.8z"/>
				<path fill="#154679" d="M545.1,36.1c0,0.4-0.2,0.8-0.5,1.1s-0.7,0.5-1.1,0.5s-0.8-0.2-1.1-0.5s-0.5-0.7-0.5-1.1s0.2-0.8,0.5-1.1
					s0.7-0.5,1.1-0.5s0.8,0.2,1.1,0.5S545.1,35.7,545.1,36.1z M542.1,52.1v-12c0-0.4,0.1-0.7,0.4-1c0.3-0.3,0.6-0.4,1-0.4
					s0.7,0.1,1,0.4c0.3,0.3,0.4,0.6,0.4,1v12c0,0.4-0.1,0.7-0.4,1c-0.3,0.3-0.6,0.4-1,0.4s-0.7-0.1-1-0.4
					C542.2,52.8,542.1,52.5,542.1,52.1z"/>
				<path fill="#154679" d="M559,53.5h-10c-0.2,0-0.4,0-0.5-0.1c-0.2-0.1-0.3-0.2-0.4-0.3c-0.1-0.1-0.2-0.3-0.3-0.4
					s-0.1-0.3-0.1-0.5c0-0.3,0.1-0.6,0.3-0.9l8.2-9.8H549c-0.4,0-0.7-0.1-1-0.4c-0.3-0.3-0.4-0.6-0.4-1c0-0.4,0.1-0.7,0.4-1
					c0.3-0.3,0.6-0.4,1-0.4h10c0.2,0,0.4,0,0.5,0.1s0.3,0.2,0.4,0.3s0.2,0.3,0.3,0.4c0.1,0.2,0.1,0.3,0.1,0.5c0,0.4-0.1,0.7-0.3,0.9
					l-8.1,9.7h7.1c0.4,0,0.7,0.1,1,0.4c0.3,0.3,0.4,0.6,0.4,1c0,0.4-0.1,0.7-0.4,1C559.7,53.4,559.4,53.5,559,53.5z"/>
				<path fill="#154679" d="M573.8,53.5h-10c-0.2,0-0.4,0-0.5-0.1c-0.2-0.1-0.3-0.2-0.4-0.3c-0.1-0.1-0.2-0.3-0.3-0.4
					s-0.1-0.3-0.1-0.5c0-0.3,0.1-0.6,0.3-0.9l8.2-9.8h-7.1c-0.4,0-0.7-0.1-1-0.4c-0.3-0.3-0.4-0.6-0.4-1c0-0.4,0.1-0.7,0.4-1
					c0.3-0.3,0.6-0.4,1-0.4h10c0.2,0,0.4,0,0.5,0.1s0.3,0.2,0.4,0.3s0.2,0.3,0.3,0.4c0.1,0.2,0.1,0.3,0.1,0.5c0,0.4-0.1,0.7-0.3,0.9
					l-8.1,9.7h7.1c0.4,0,0.7,0.1,1,0.4c0.3,0.3,0.4,0.6,0.4,1c0,0.4-0.1,0.7-0.4,1C574.5,53.4,574.2,53.5,573.8,53.5z"/>
				<path fill="#154679" d="M588.4,52.1v-0.3c-0.7,0.5-1.4,0.9-2.1,1.2s-1.6,0.4-2.5,0.4c-2,0-3.8-0.7-5.2-2.2s-2.2-3.2-2.2-5.2
					s0.7-3.8,2.2-5.2s3.2-2.2,5.2-2.2c2,0,3.8,0.7,5.2,2.2c1.4,1.4,2.2,3.2,2.2,5.2v6c0,0.4-0.1,0.7-0.4,1c-0.3,0.3-0.6,0.4-1,0.4
					c-0.4,0-0.7-0.1-1-0.4C588.5,52.8,588.4,52.5,588.4,52.1z M583.7,41.5c-0.7,0-1.3,0.1-1.8,0.4s-1.1,0.6-1.5,1s-0.7,0.9-1,1.5
					c-0.2,0.6-0.4,1.2-0.4,1.8s0.1,1.2,0.4,1.8c0.2,0.6,0.6,1.1,1,1.5c0.4,0.4,0.9,0.7,1.5,1s1.2,0.4,1.8,0.4c0.6,0,1.2-0.1,1.8-0.4
					c0.6-0.2,1.1-0.6,1.5-1c0.4-0.4,0.7-0.9,1-1.5c0.2-0.6,0.4-1.2,0.4-1.8s-0.1-1.2-0.4-1.8c-0.2-0.6-0.6-1-1-1.5
					c-0.4-0.4-0.9-0.8-1.5-1C585,41.6,584.4,41.5,583.7,41.5z"/>
				<path fill="#154679" d="M540.6,83.1c0.4,0,0.7,0.1,1,0.4s0.4,0.6,0.4,1s-0.1,0.7-0.4,1s-0.6,0.4-1,0.4h-12.2
					c-0.2,0-0.4,0-0.6-0.1s-0.3-0.2-0.4-0.3c-0.1-0.1-0.2-0.3-0.3-0.4s-0.1-0.4-0.1-0.6V66.2c0-0.2,0-0.4,0.1-0.5
					c0.1-0.2,0.2-0.3,0.3-0.4c0.1-0.1,0.3-0.2,0.4-0.3s0.4-0.1,0.6-0.1h12.2c0.4,0,0.7,0.1,1,0.4s0.4,0.6,0.4,1s-0.1,0.7-0.4,1
					s-0.6,0.4-1,0.4h-10.8v6.4h7.8c0.4,0,0.7,0.1,1,0.4s0.4,0.6,0.4,1s-0.1,0.7-0.4,1s-0.6,0.4-1,0.4h-7.8v6.4H540.6z"/>
				<path fill="#154679" d="M546.7,72.5c1.2-0.9,2.5-1.4,4.1-1.4c0.9,0,1.8,0.2,2.6,0.5c0.8,0.4,1.6,0.9,2.2,1.5
					c0.6,0.6,1.1,1.3,1.5,2.2s0.6,1.7,0.6,2.7v6.5c0,0.4-0.1,0.7-0.4,1c-0.3,0.3-0.6,0.4-1,0.4c-0.4,0-0.7-0.1-1-0.4
					c-0.3-0.3-0.4-0.6-0.4-1V78c0-0.6-0.1-1.1-0.3-1.6c-0.2-0.5-0.5-0.9-0.9-1.3c-0.4-0.4-0.8-0.7-1.3-0.9s-1-0.3-1.6-0.3
					c-0.6,0-1.1,0.1-1.6,0.3c-0.5,0.2-0.9,0.5-1.3,0.9s-0.7,0.8-0.9,1.3c-0.2,0.5-0.3,1-0.3,1.6v6.5c0,0.4-0.1,0.7-0.4,1
					c-0.3,0.3-0.6,0.4-1,0.4c-0.4,0-0.7-0.1-1-0.4c-0.3-0.3-0.4-0.6-0.4-1v-12c0-0.4,0.1-0.7,0.4-1c0.3-0.3,0.6-0.4,1-0.4
					c0.4,0,0.7,0.1,1,0.4C546.6,71.8,546.7,72.1,546.7,72.5z"/>
				<path fill="#154679" d="M571,81.7c0.4,0,0.7,0.1,1,0.4c0.3,0.3,0.4,0.6,0.4,1c0,0.4-0.1,0.7-0.4,1c-1.4,1.2-3,1.8-4.8,1.8
					c-2,0-3.8-0.7-5.2-2.2s-2.2-3.2-2.2-5.2s0.7-3.8,2.2-5.2s3.2-2.2,5.2-2.2c2,0,3.8,0.7,5.2,2.2c0.7,0.7,1.3,1.5,1.6,2.4
					s0.5,1.8,0.5,2.8c0,0.4-0.1,0.7-0.4,1c-0.3,0.3-0.6,0.4-1,0.4h-10.4c0.1,0.5,0.4,0.9,0.7,1.3c0.3,0.4,0.6,0.7,1,1
					c0.4,0.3,0.8,0.5,1.3,0.7c0.5,0.2,1,0.2,1.5,0.2c0.6,0,1.1-0.1,1.6-0.3c0.5-0.2,0.9-0.4,1.3-0.8C570.4,81.9,570.7,81.7,571,81.7
					z M571.6,77.1c-0.2-0.5-0.4-0.9-0.7-1.3c-0.3-0.4-0.6-0.7-1-1c-0.4-0.3-0.8-0.5-1.3-0.7c-0.5-0.2-1-0.2-1.5-0.2s-1,0.1-1.5,0.2
					s-0.9,0.4-1.3,0.7c-0.4,0.3-0.7,0.6-1,1c-0.3,0.4-0.5,0.8-0.6,1.3H571.6z"/>
				<path fill="#154679" d="M579.4,72.5v0.3c0.7-0.5,1.4-0.9,2.1-1.2s1.6-0.4,2.5-0.4c0.4,0,0.8,0,1.2,0.1c0.4,0.1,0.9,0.1,1.2,0.3
					c0.4,0.1,0.7,0.3,0.9,0.6s0.4,0.5,0.4,0.9c0,0.2,0,0.4-0.1,0.5c-0.1,0.2-0.2,0.3-0.3,0.4s-0.3,0.2-0.4,0.3s-0.3,0.1-0.5,0.1
					c-0.2,0-0.4,0-0.6-0.1c-0.6-0.2-1.2-0.3-1.8-0.3c-0.6,0-1.2,0.1-1.8,0.4s-1.1,0.6-1.5,1c-0.4,0.4-0.7,0.9-1,1.5
					c-0.2,0.6-0.4,1.2-0.4,1.8v6c0,0.4-0.1,0.7-0.4,1c-0.3,0.3-0.6,0.4-1,0.4c-0.4,0-0.7-0.1-1-0.4c-0.3-0.3-0.4-0.6-0.4-1v-12
					c0-0.4,0.1-0.7,0.4-1c0.3-0.3,0.6-0.4,1-0.4c0.4,0,0.7,0.1,1,0.4C579.2,71.8,579.4,72.1,579.4,72.5z"/>
				<path fill="#154679" d="M601.3,84.3c-1.3,1.1-2.9,1.6-4.6,1.6c-2,0-3.8-0.7-5.2-2.2s-2.2-3.2-2.2-5.2s0.7-3.8,2.2-5.2
					s3.2-2.2,5.2-2.2c2,0,3.8,0.7,5.2,2.2c1.4,1.4,2.2,3.2,2.2,5.2v7.3c0,0.6-0.1,1.2-0.3,1.8s-0.5,1.1-0.8,1.5
					c-0.3,0.5-0.7,0.9-1.2,1.3c-0.5,0.4-1,0.7-1.5,1c-0.5,0.3-1.1,0.5-1.7,0.6s-1.2,0.2-1.8,0.2c-0.7,0-1.4-0.1-2.1-0.3
					s-1.3-0.4-1.9-0.8c-0.6-0.4-1.2-0.8-1.7-1.3c-0.5-0.5-0.9-1.1-1.3-1.7c-0.1-0.2-0.2-0.4-0.2-0.7c0-0.4,0.1-0.7,0.4-1
					s0.6-0.4,1-0.4c0.3,0,0.5,0.1,0.7,0.2c0.2,0.1,0.4,0.4,0.7,0.8c0.3,0.4,0.6,0.7,0.8,1c1,1,2.2,1.5,3.6,1.5
					c1.4,0,2.6-0.5,3.6-1.5c0.6-0.7,0.9-1.5,0.9-2.1V84.3z M596.7,73.9c-0.7,0-1.3,0.1-1.8,0.4s-1.1,0.6-1.5,1s-0.7,0.9-1,1.5
					c-0.2,0.6-0.4,1.2-0.4,1.8s0.1,1.2,0.4,1.8c0.2,0.6,0.6,1.1,1,1.5c0.4,0.4,0.9,0.7,1.5,1s1.2,0.4,1.8,0.4c0.6,0,1.2-0.1,1.8-0.4
					c0.6-0.2,1.1-0.6,1.5-1c0.4-0.4,0.7-0.9,1-1.5c0.2-0.6,0.4-1.2,0.4-1.8s-0.1-1.2-0.4-1.8c-0.2-0.6-0.6-1-1-1.5
					c-0.4-0.4-0.9-0.8-1.5-1C597.9,74,597.3,73.9,596.7,73.9z"/>
				<path fill="#154679" d="M611,84.5l-4.7-11.4c-0.1-0.2-0.1-0.4-0.1-0.6c0-0.2,0-0.4,0.1-0.5s0.2-0.3,0.3-0.4s0.3-0.2,0.4-0.3
					c0.2-0.1,0.3-0.1,0.5-0.1c0.3,0,0.5,0.1,0.8,0.2c0.2,0.2,0.4,0.4,0.5,0.7l3.7,8.8l3.7-8.9c0.1-0.3,0.3-0.5,0.5-0.6
					c0.2-0.2,0.5-0.2,0.8-0.2c0.2,0,0.4,0,0.5,0.1s0.3,0.2,0.4,0.3s0.2,0.3,0.3,0.4c0.1,0.2,0.1,0.3,0.1,0.5c0,0.2,0,0.4-0.1,0.6
					l-7.6,18.2c-0.1,0.3-0.3,0.5-0.5,0.7c-0.2,0.2-0.5,0.3-0.8,0.3c-0.4,0-0.7-0.1-1-0.4c-0.3-0.3-0.4-0.6-0.4-1
					c0-0.2,0-0.4,0.1-0.6L611,84.5z"/>
				<path fill="#154679" d="M636.3,71.1c1.7,0,3.3,0.5,4.6,1.6v-6.6c0-0.4,0.1-0.7,0.4-1c0.3-0.3,0.6-0.4,1-0.4c0.4,0,0.7,0.1,1,0.4
					c0.3,0.3,0.4,0.6,0.4,1v12.3c0,2.1-0.7,3.8-2.2,5.2c-1.5,1.4-3.2,2.2-5.2,2.2c-2,0-3.8-0.7-5.2-2.2s-2.2-3.2-2.2-5.2
					s0.7-3.8,2.2-5.2S634.2,71.1,636.3,71.1z M640.9,78.5c0-0.6-0.1-1.2-0.4-1.8c-0.2-0.6-0.6-1-1-1.5c-0.4-0.4-0.9-0.8-1.5-1
					c-0.6-0.2-1.2-0.4-1.8-0.4c-0.7,0-1.3,0.1-1.8,0.4s-1.1,0.6-1.5,1s-0.7,0.9-1,1.5c-0.2,0.6-0.4,1.2-0.4,1.8s0.1,1.2,0.4,1.8
					c0.2,0.6,0.6,1.1,1,1.5c0.4,0.4,0.9,0.7,1.5,1s1.2,0.4,1.8,0.4c0.6,0,1.2-0.1,1.8-0.4c0.6-0.2,1.1-0.6,1.5-1
					c0.4-0.4,0.7-0.9,1-1.5C640.8,79.7,640.9,79.1,640.9,78.5z"/>
				<path fill="#154679" d="M648.4,72.5v0.3c0.7-0.5,1.4-0.9,2.1-1.2s1.6-0.4,2.5-0.4c0.4,0,0.8,0,1.2,0.1c0.4,0.1,0.9,0.1,1.2,0.3
					c0.4,0.1,0.7,0.3,0.9,0.6s0.4,0.5,0.4,0.9c0,0.2,0,0.4-0.1,0.5c-0.1,0.2-0.2,0.3-0.3,0.4s-0.3,0.2-0.4,0.3s-0.3,0.1-0.5,0.1
					c-0.2,0-0.4,0-0.6-0.1c-0.6-0.2-1.2-0.3-1.8-0.3c-0.6,0-1.2,0.1-1.8,0.4s-1.1,0.6-1.5,1c-0.4,0.4-0.7,0.9-1,1.5
					c-0.2,0.6-0.4,1.2-0.4,1.8v6c0,0.4-0.1,0.7-0.4,1c-0.3,0.3-0.6,0.4-1,0.4c-0.4,0-0.7-0.1-1-0.4c-0.3-0.3-0.4-0.6-0.4-1v-12
					c0-0.4,0.1-0.7,0.4-1c0.3-0.3,0.6-0.4,1-0.4c0.4,0,0.7,0.1,1,0.4C648.3,71.8,648.4,72.1,648.4,72.5z"/>
				<path fill="#154679" d="M662.1,68.5c0,0.4-0.2,0.8-0.5,1.1s-0.7,0.5-1.1,0.5s-0.8-0.2-1.1-0.5s-0.5-0.7-0.5-1.1s0.2-0.8,0.5-1.1
					s0.7-0.5,1.1-0.5s0.8,0.2,1.1,0.5S662.1,68.1,662.1,68.5z M659.1,84.5v-12c0-0.4,0.1-0.7,0.4-1c0.3-0.3,0.6-0.4,1-0.4
					s0.7,0.1,1,0.4c0.3,0.3,0.4,0.6,0.4,1v12c0,0.4-0.1,0.7-0.4,1c-0.3,0.3-0.6,0.4-1,0.4s-0.7-0.1-1-0.4
					C659.3,85.2,659.1,84.9,659.1,84.5z"/>
				<path fill="#154679" d="M667.5,72.5c1.2-0.9,2.5-1.4,4.1-1.4c0.9,0,1.8,0.2,2.6,0.5c0.8,0.4,1.6,0.9,2.2,1.5
					c0.6,0.6,1.1,1.3,1.5,2.2s0.6,1.7,0.6,2.7v6.5c0,0.4-0.1,0.7-0.4,1c-0.3,0.3-0.6,0.4-1,0.4c-0.4,0-0.7-0.1-1-0.4
					c-0.3-0.3-0.4-0.6-0.4-1V78c0-0.6-0.1-1.1-0.3-1.6c-0.2-0.5-0.5-0.9-0.9-1.3c-0.4-0.4-0.8-0.7-1.3-0.9s-1-0.3-1.6-0.3
					c-0.6,0-1.1,0.1-1.6,0.3c-0.5,0.2-0.9,0.5-1.3,0.9s-0.7,0.8-0.9,1.3c-0.2,0.5-0.3,1-0.3,1.6v6.5c0,0.4-0.1,0.7-0.4,1
					c-0.3,0.3-0.6,0.4-1,0.4c-0.4,0-0.7-0.1-1-0.4c-0.3-0.3-0.4-0.6-0.4-1v-12c0-0.4,0.1-0.7,0.4-1c0.3-0.3,0.6-0.4,1-0.4
					c0.4,0,0.7,0.1,1,0.4C667.3,71.8,667.5,72.1,667.5,72.5z"/>
				<path fill="#154679" d="M680.5,84.5V66.2c0-0.4,0.1-0.7,0.4-1c0.3-0.3,0.6-0.4,1-0.4c0.4,0,0.7,0.1,1,0.4c0.3,0.3,0.4,0.6,0.4,1
					v10.3l7.9-5.1c0.2-0.1,0.5-0.2,0.7-0.2c0.2,0,0.4,0,0.5,0.1s0.3,0.2,0.4,0.3s0.2,0.3,0.3,0.4c0.1,0.2,0.1,0.3,0.1,0.5
					c0,0.5-0.2,0.9-0.5,1.1l-5.5,3.6l5.7,6.4c0.3,0.3,0.4,0.6,0.4,1c0,0.2,0,0.4-0.1,0.5c-0.1,0.2-0.2,0.3-0.3,0.4
					c-0.1,0.1-0.3,0.2-0.4,0.3s-0.3,0.1-0.5,0.1c-0.4,0-0.7-0.1-0.9-0.4l-6.1-6.8l-1.6,1.1v4.8c0,0.4-0.1,0.7-0.4,1
					c-0.3,0.3-0.6,0.4-1,0.4c-0.4,0-0.7-0.1-1-0.4C680.7,85.2,680.5,84.9,680.5,84.5z"/>
				<path fill="#154679" d="M532.5,97.2c2.9,0,5.4,1,7.4,3.1c1,1,1.8,2.2,2.3,3.4c0.5,1.2,0.8,2.6,0.8,4.1c0,2.9-1,5.4-3.1,7.5
					c-2.1,2.1-4.5,3.1-7.4,3.1h-4.1c-0.2,0-0.4,0-0.5-0.1c-0.2-0.1-0.3-0.2-0.4-0.3c-0.1-0.1-0.2-0.3-0.3-0.4
					c-0.1-0.2-0.1-0.4-0.1-0.5V98.6c0-0.2,0-0.4,0.1-0.5c0.1-0.2,0.2-0.3,0.3-0.4c0.1-0.1,0.3-0.2,0.4-0.3c0.2-0.1,0.4-0.1,0.5-0.1
					H532.5z M532.5,115.5c2.1,0,4-0.8,5.5-2.3c0.8-0.8,1.3-1.6,1.7-2.5s0.6-1.9,0.6-3c0-2.1-0.8-4-2.3-5.5s-3.3-2.3-5.5-2.3h-2.7
					v15.5H532.5z"/>
				<path fill="#154679" d="M556.3,114.1c0.4,0,0.7,0.1,1,0.4c0.3,0.3,0.4,0.6,0.4,1c0,0.4-0.1,0.7-0.4,1c-1.4,1.2-3,1.8-4.8,1.8
					c-2,0-3.8-0.7-5.2-2.2s-2.2-3.2-2.2-5.2s0.7-3.8,2.2-5.2s3.2-2.2,5.2-2.2c2,0,3.8,0.7,5.2,2.2c0.7,0.7,1.3,1.5,1.6,2.4
					s0.5,1.8,0.5,2.8c0,0.4-0.1,0.7-0.4,1c-0.3,0.3-0.6,0.4-1,0.4H548c0.1,0.5,0.4,0.9,0.7,1.3c0.3,0.4,0.6,0.7,1,1
					c0.4,0.3,0.8,0.5,1.3,0.7c0.5,0.2,1,0.2,1.5,0.2c0.6,0,1.1-0.1,1.6-0.3c0.5-0.2,0.9-0.4,1.3-0.8
					C555.6,114.3,555.9,114.1,556.3,114.1z M556.8,109.5c-0.2-0.5-0.4-0.9-0.7-1.3c-0.3-0.4-0.6-0.7-1-1c-0.4-0.3-0.8-0.5-1.3-0.7
					c-0.5-0.2-1-0.2-1.5-0.2s-1,0.1-1.5,0.2s-0.9,0.4-1.3,0.7c-0.4,0.3-0.7,0.6-1,1c-0.3,0.4-0.5,0.8-0.6,1.3H556.8z"/>
				<path fill="#154679" d="M561.8,116.9V98.6c0-0.4,0.1-0.7,0.4-1c0.3-0.3,0.6-0.4,1-0.4s0.7,0.1,1,0.4c0.3,0.3,0.4,0.6,0.4,1v17
					h0.6c0.4,0,0.7,0.1,1,0.4c0.3,0.3,0.4,0.6,0.4,1c0,0.4-0.1,0.7-0.4,1c-0.3,0.3-0.6,0.4-1,0.4h-2c-0.4,0-0.7-0.1-1-0.4
					C561.9,117.6,561.8,117.3,561.8,116.9z"/>
				<path fill="#154679" d="M572,100.9c0,0.4-0.2,0.8-0.5,1.1s-0.7,0.5-1.1,0.5s-0.8-0.2-1.1-0.5s-0.5-0.7-0.5-1.1s0.2-0.8,0.5-1.1
					s0.7-0.5,1.1-0.5s0.8,0.2,1.1,0.5S572,100.5,572,100.9z M569,116.9v-12c0-0.4,0.1-0.7,0.4-1c0.3-0.3,0.6-0.4,1-0.4
					s0.7,0.1,1,0.4c0.3,0.3,0.4,0.6,0.4,1v12c0,0.4-0.1,0.7-0.4,1c-0.3,0.3-0.6,0.4-1,0.4s-0.7-0.1-1-0.4
					C569.1,117.6,569,117.3,569,116.9z"/>
				<path fill="#154679" d="M603.3,116.9c0,0.4-0.1,0.7-0.4,1c-0.3,0.3-0.6,0.4-1,0.4c-0.4,0-0.7-0.1-1-0.4c-0.3-0.3-0.4-0.6-0.4-1
					v-7.5c0-0.4-0.1-0.8-0.2-1.2c-0.2-0.4-0.4-0.7-0.7-1c-0.3-0.3-0.6-0.5-1-0.7c-0.4-0.2-0.8-0.3-1.2-0.3c-0.4,0-0.8,0.1-1.2,0.3
					s-0.7,0.4-1,0.7c-0.3,0.3-0.5,0.6-0.7,1c-0.2,0.4-0.2,0.8-0.2,1.2v7.5c0,0.4-0.1,0.7-0.4,1c-0.3,0.3-0.6,0.4-1,0.4
					c-0.4,0-0.7-0.1-1-0.4c-0.3-0.3-0.4-0.6-0.4-1v-7.5c0-0.4-0.1-0.8-0.3-1.2s-0.4-0.7-0.7-1s-0.6-0.5-1-0.7s-0.8-0.3-1.2-0.3
					s-0.8,0.1-1.2,0.2c-0.4,0.2-0.7,0.4-1,0.7c-0.3,0.3-0.5,0.6-0.7,1c-0.2,0.4-0.2,0.8-0.2,1.2v7.5c0,0.4-0.1,0.7-0.4,1
					c-0.3,0.3-0.6,0.4-1,0.4c-0.4,0-0.7-0.1-1-0.4c-0.3-0.3-0.4-0.6-0.4-1v-12c0-0.4,0.1-0.7,0.4-1c0.3-0.3,0.6-0.4,1-0.4
					c0.3,0,0.6,0.1,0.8,0.3c0.2,0.2,0.4,0.4,0.5,0.7c0.9-0.6,2-0.9,3.2-0.9c0.9,0,1.7,0.2,2.5,0.5c0.8,0.3,1.5,0.9,2,1.6
					c1.2-1.4,2.7-2.1,4.5-2.1c0.8,0,1.6,0.2,2.3,0.5c0.7,0.3,1.3,0.7,1.9,1.3c0.5,0.5,1,1.2,1.3,1.9c0.3,0.7,0.5,1.5,0.5,2.3V116.9z
					"/>
				<path fill="#154679" d="M616.9,114.1c0.4,0,0.7,0.1,1,0.4c0.3,0.3,0.4,0.6,0.4,1c0,0.4-0.1,0.7-0.4,1c-1.4,1.2-3,1.8-4.8,1.8
					c-2,0-3.8-0.7-5.2-2.2s-2.2-3.2-2.2-5.2s0.7-3.8,2.2-5.2s3.2-2.2,5.2-2.2c2,0,3.8,0.7,5.2,2.2c0.7,0.7,1.3,1.5,1.6,2.4
					s0.5,1.8,0.5,2.8c0,0.4-0.1,0.7-0.4,1c-0.3,0.3-0.6,0.4-1,0.4h-10.4c0.1,0.5,0.4,0.9,0.7,1.3c0.3,0.4,0.6,0.7,1,1
					c0.4,0.3,0.8,0.5,1.3,0.7c0.5,0.2,1,0.2,1.5,0.2c0.6,0,1.1-0.1,1.6-0.3c0.5-0.2,0.9-0.4,1.3-0.8
					C616.3,114.3,616.6,114.1,616.9,114.1z M617.5,109.5c-0.2-0.5-0.4-0.9-0.7-1.3c-0.3-0.4-0.6-0.7-1-1c-0.4-0.3-0.8-0.5-1.3-0.7
					c-0.5-0.2-1-0.2-1.5-0.2s-1,0.1-1.5,0.2s-0.9,0.4-1.3,0.7c-0.4,0.3-0.7,0.6-1,1c-0.3,0.4-0.5,0.8-0.6,1.3H617.5z"/>
				<path fill="#154679" d="M634.5,116.9v-0.3c-0.7,0.5-1.4,0.9-2.1,1.2s-1.6,0.4-2.5,0.4c-2,0-3.8-0.7-5.2-2.2s-2.2-3.2-2.2-5.2
					s0.7-3.8,2.2-5.2s3.2-2.2,5.2-2.2c2,0,3.8,0.7,5.2,2.2c1.4,1.4,2.2,3.2,2.2,5.2v6c0,0.4-0.1,0.7-0.4,1c-0.3,0.3-0.6,0.4-1,0.4
					c-0.4,0-0.7-0.1-1-0.4C634.7,117.6,634.5,117.3,634.5,116.9z M629.9,106.3c-0.7,0-1.3,0.1-1.8,0.4s-1.1,0.6-1.5,1
					s-0.7,0.9-1,1.5c-0.2,0.6-0.4,1.2-0.4,1.8s0.1,1.2,0.4,1.8c0.2,0.6,0.6,1.1,1,1.5c0.4,0.4,0.9,0.7,1.5,1s1.2,0.4,1.8,0.4
					c0.6,0,1.2-0.1,1.8-0.4c0.6-0.2,1.1-0.6,1.5-1c0.4-0.4,0.7-0.9,1-1.5c0.2-0.6,0.4-1.2,0.4-1.8s-0.1-1.2-0.4-1.8
					c-0.2-0.6-0.6-1-1-1.5c-0.4-0.4-0.9-0.8-1.5-1C631.2,106.4,630.6,106.3,629.9,106.3z"/>
				<path fill="#154679" d="M640.7,103.5h0.6v-5c0-0.4,0.1-0.7,0.4-1c0.3-0.3,0.6-0.4,1-0.4c0.4,0,0.7,0.1,1,0.4
					c0.3,0.3,0.4,0.6,0.4,1v5h1.6c0.4,0,0.7,0.1,1,0.4s0.4,0.6,0.4,1c0,0.4-0.1,0.7-0.4,1s-0.6,0.4-1,0.4h-1.6v6.6
					c0,1.7,0.9,2.6,2.6,2.6c0.4,0,0.7,0.1,1,0.4c0.3,0.3,0.4,0.6,0.4,1c0,0.4-0.1,0.7-0.4,1c-0.3,0.3-0.6,0.4-1,0.4
					c-3.6,0-5.4-1.8-5.4-5.4v-6.6h-0.6c-0.4,0-0.7-0.1-1-0.4c-0.3-0.3-0.4-0.6-0.4-1c0-0.4,0.1-0.7,0.4-1
					C640,103.7,640.3,103.5,640.7,103.5z"/>
				<path fill="#154679" d="M527.1,149.3V131c0-0.2,0-0.4,0.1-0.5c0.1-0.2,0.2-0.3,0.3-0.4c0.1-0.1,0.3-0.2,0.4-0.3s0.4-0.1,0.6-0.1
					c0.5,0,1,0.3,1.2,0.8l7.9,15.8l7.9-15.8c0.3-0.5,0.7-0.8,1.2-0.8c0.2,0,0.4,0,0.5,0.1c0.2,0.1,0.3,0.2,0.4,0.3
					c0.1,0.1,0.2,0.3,0.3,0.4c0.1,0.2,0.1,0.4,0.1,0.5v18.3c0,0.4-0.1,0.7-0.4,1c-0.3,0.3-0.6,0.4-1,0.4s-0.7-0.1-1-0.4
					s-0.4-0.6-0.4-1v-12.4l-6.5,13.1c-0.3,0.5-0.7,0.7-1.2,0.7c-0.6,0-1-0.3-1.3-0.8l-6.5-12.9v12.4c0,0.4-0.1,0.7-0.4,1
					c-0.3,0.3-0.6,0.4-1,0.4s-0.7-0.1-1-0.4S527.1,149.7,527.1,149.3z"/>
				<path fill="#154679" d="M554,133.3c0,0.4-0.2,0.8-0.5,1.1s-0.7,0.5-1.1,0.5s-0.8-0.2-1.1-0.5s-0.5-0.7-0.5-1.1s0.2-0.8,0.5-1.1
					s0.7-0.5,1.1-0.5s0.8,0.2,1.1,0.5S554,132.9,554,133.3z M551,149.3v-12c0-0.4,0.1-0.7,0.4-1c0.3-0.3,0.6-0.4,1-0.4
					s0.7,0.1,1,0.4c0.3,0.3,0.4,0.6,0.4,1v12c0,0.4-0.1,0.7-0.4,1c-0.3,0.3-0.6,0.4-1,0.4s-0.7-0.1-1-0.4
					C551.2,150,551,149.7,551,149.3z"/>
				<path fill="#154679" d="M556.5,149.3V131c0-0.4,0.1-0.7,0.4-1c0.3-0.3,0.6-0.4,1-0.4s0.7,0.1,1,0.4c0.3,0.3,0.4,0.6,0.4,1v17
					h0.6c0.4,0,0.7,0.1,1,0.4c0.3,0.3,0.4,0.6,0.4,1c0,0.4-0.1,0.7-0.4,1c-0.3,0.3-0.6,0.4-1,0.4h-2c-0.4,0-0.7-0.1-1-0.4
					C556.6,150,556.5,149.7,556.5,149.3z"/>
				<path fill="#154679" d="M562.9,149.3V131c0-0.4,0.1-0.7,0.4-1c0.3-0.3,0.6-0.4,1-0.4c0.4,0,0.7,0.1,1,0.4c0.3,0.3,0.4,0.6,0.4,1
					v10.3l7.9-5.1c0.2-0.1,0.5-0.2,0.7-0.2c0.2,0,0.4,0,0.5,0.1s0.3,0.2,0.4,0.3s0.2,0.3,0.3,0.4c0.1,0.2,0.1,0.3,0.1,0.5
					c0,0.5-0.2,0.9-0.5,1.1l-5.5,3.6l5.7,6.4c0.3,0.3,0.4,0.6,0.4,1c0,0.2,0,0.4-0.1,0.5c-0.1,0.2-0.2,0.3-0.3,0.4
					c-0.1,0.1-0.3,0.2-0.4,0.3s-0.3,0.1-0.5,0.1c-0.4,0-0.7-0.1-0.9-0.4l-6.1-6.8l-1.6,1.1v4.8c0,0.4-0.1,0.7-0.4,1
					c-0.3,0.3-0.6,0.4-1,0.4c-0.4,0-0.7-0.1-1-0.4C563.1,150,562.9,149.7,562.9,149.3z"/>
				<path fill="#154679" d="M529.8,171.4c-0.7-0.6-1.1-1.2-1.4-1.8c-0.3-0.6-0.4-1.3-0.4-2c0-0.9,0.2-1.6,0.5-2.3
					c0.3-0.7,0.8-1.3,1.4-1.9h0c1-0.9,2.2-1.3,3.6-1.3c0.4,0,0.9,0.1,1.3,0.2c0.4,0.1,0.9,0.3,1.3,0.5c0.4,0.2,0.8,0.5,1.1,0.8
					c0.4,0.3,0.7,0.7,1,1.2c0.1,0.2,0.2,0.5,0.2,0.8c0,0.2,0,0.4-0.1,0.6s-0.2,0.3-0.3,0.4c-0.1,0.1-0.3,0.2-0.4,0.3
					c-0.2,0.1-0.4,0.1-0.5,0.1c-0.2,0-0.3,0-0.5-0.1c-0.1-0.1-0.3-0.1-0.4-0.2c-0.1-0.1-0.2-0.2-0.3-0.3c-0.1-0.1-0.2-0.3-0.3-0.4
					c-0.2-0.3-0.5-0.5-0.9-0.7c-0.4-0.2-0.8-0.2-1.2-0.2c-0.3,0-0.7,0.1-1,0.2c-0.3,0.1-0.6,0.3-0.8,0.6c-0.2,0.2-0.4,0.5-0.6,0.8
					c-0.2,0.3-0.2,0.7-0.2,1.1c0,0.7,0.2,1.2,0.6,1.6c0.4,0.4,1,0.7,1.9,1c1.5,0.4,2.8,1,3.6,1.8s1.5,1.5,1.8,2.3s0.5,1.5,0.5,2.4
					c0,2.1-0.8,3.7-2.3,5h0c-1.2,1-2.6,1.6-4.2,1.6c-0.5,0-1-0.1-1.6-0.2c-0.5-0.1-1-0.3-1.5-0.6c-0.5-0.2-0.9-0.6-1.3-0.9
					c-0.4-0.4-0.8-0.8-1.1-1.3c-0.2-0.2-0.3-0.5-0.3-0.8c0-0.2,0-0.4,0.1-0.5c0.1-0.2,0.2-0.3,0.3-0.4c0.1-0.1,0.3-0.2,0.4-0.3
					s0.4-0.1,0.6-0.1c0.5,0,0.9,0.2,1.2,0.6c0.4,0.6,0.8,1,1.4,1.3s1.2,0.4,1.8,0.4c0.5,0,1-0.1,1.4-0.3c0.4-0.2,0.8-0.5,1.2-0.8
					c0.3-0.3,0.6-0.7,0.8-1.2c0.2-0.5,0.3-0.9,0.3-1.4c0-0.5-0.1-0.9-0.3-1.4c-0.2-0.4-0.5-0.8-1-1.3c-0.5-0.4-1.3-0.8-2.4-1.1
					C531.4,172.4,530.4,172,529.8,171.4z"/>
				<path fill="#154679" d="M548.4,183.1c-1.8,0-3.3-0.5-4.6-1.6v6.6c0,0.4-0.1,0.7-0.4,1c-0.3,0.3-0.6,0.4-1,0.4
					c-0.4,0-0.7-0.1-1-0.4c-0.3-0.3-0.4-0.6-0.4-1v-12.3c0-2,0.7-3.8,2.2-5.2s3.2-2.2,5.2-2.2c2,0,3.8,0.7,5.2,2.2
					c0.7,0.7,1.3,1.5,1.6,2.4s0.5,1.8,0.5,2.8c0,2.1-0.7,3.8-2.2,5.2c-0.7,0.7-1.5,1.3-2.4,1.6C550.4,182.9,549.5,183.1,548.4,183.1
					z M543.8,175.7c0,0.6,0.1,1.2,0.4,1.8c0.2,0.6,0.6,1.1,1,1.5c0.4,0.4,0.9,0.7,1.5,1s1.2,0.4,1.8,0.4c0.6,0,1.2-0.1,1.8-0.4
					c0.6-0.2,1.1-0.6,1.5-1c0.4-0.4,0.7-0.9,1-1.5c0.2-0.6,0.4-1.2,0.4-1.8s-0.1-1.2-0.4-1.8c-0.2-0.6-0.6-1-1-1.5
					c-0.4-0.4-0.9-0.8-1.5-1c-0.6-0.2-1.2-0.4-1.8-0.4c-0.7,0-1.3,0.1-1.8,0.4s-1.1,0.6-1.5,1s-0.7,0.9-1,1.5
					C543.9,174.5,543.8,175.1,543.8,175.7z"/>
				<path fill="#154679" d="M570,181.7v-0.3c-0.7,0.5-1.4,0.9-2.1,1.2s-1.6,0.4-2.5,0.4c-2,0-3.8-0.7-5.2-2.2s-2.2-3.2-2.2-5.2
					s0.7-3.8,2.2-5.2s3.2-2.2,5.2-2.2c2,0,3.8,0.7,5.2,2.2c1.4,1.4,2.2,3.2,2.2,5.2v6c0,0.4-0.1,0.7-0.4,1c-0.3,0.3-0.6,0.4-1,0.4
					c-0.4,0-0.7-0.1-1-0.4C570.1,182.4,570,182.1,570,181.7z M565.3,171.1c-0.7,0-1.3,0.1-1.8,0.4s-1.1,0.6-1.5,1s-0.7,0.9-1,1.5
					c-0.2,0.6-0.4,1.2-0.4,1.8s0.1,1.2,0.4,1.8c0.2,0.6,0.6,1.1,1,1.5c0.4,0.4,0.9,0.7,1.5,1s1.2,0.4,1.8,0.4c0.6,0,1.2-0.1,1.8-0.4
					c0.6-0.2,1.1-0.6,1.5-1c0.4-0.4,0.7-0.9,1-1.5c0.2-0.6,0.4-1.2,0.4-1.8s-0.1-1.2-0.4-1.8c-0.2-0.6-0.6-1-1-1.5
					c-0.4-0.4-0.9-0.8-1.5-1C566.6,171.2,566,171.1,565.3,171.1z"/>
				<path fill="#154679" d="M586.8,181.5c-1.3,1.1-2.9,1.6-4.6,1.6c-2,0-3.8-0.7-5.2-2.2s-2.2-3.2-2.2-5.2s0.7-3.8,2.2-5.2
					s3.2-2.2,5.2-2.2c2,0,3.8,0.7,5.2,2.2c1.4,1.4,2.2,3.2,2.2,5.2v7.3c0,0.6-0.1,1.2-0.3,1.8s-0.5,1.1-0.8,1.5
					c-0.3,0.5-0.7,0.9-1.2,1.3c-0.5,0.4-1,0.7-1.5,1c-0.5,0.3-1.1,0.5-1.7,0.6s-1.2,0.2-1.8,0.2c-0.7,0-1.4-0.1-2.1-0.3
					s-1.3-0.4-1.9-0.8c-0.6-0.4-1.2-0.8-1.7-1.3c-0.5-0.5-0.9-1.1-1.3-1.7c-0.1-0.2-0.2-0.4-0.2-0.7c0-0.4,0.1-0.7,0.4-1
					s0.6-0.4,1-0.4c0.3,0,0.5,0.1,0.7,0.2c0.2,0.1,0.4,0.4,0.7,0.8c0.3,0.4,0.6,0.7,0.8,1c1,1,2.2,1.5,3.6,1.5
					c1.4,0,2.6-0.5,3.6-1.5c0.6-0.7,0.9-1.5,0.9-2.1V181.5z M582.2,171.1c-0.7,0-1.3,0.1-1.8,0.4s-1.1,0.6-1.5,1s-0.7,0.9-1,1.5
					c-0.2,0.6-0.4,1.2-0.4,1.8s0.1,1.2,0.4,1.8c0.2,0.6,0.6,1.1,1,1.5c0.4,0.4,0.9,0.7,1.5,1s1.2,0.4,1.8,0.4c0.6,0,1.2-0.1,1.8-0.4
					c0.6-0.2,1.1-0.6,1.5-1c0.4-0.4,0.7-0.9,1-1.5c0.2-0.6,0.4-1.2,0.4-1.8s-0.1-1.2-0.4-1.8c-0.2-0.6-0.6-1-1-1.5
					c-0.4-0.4-0.9-0.8-1.5-1C583.4,171.2,582.8,171.1,582.2,171.1z"/>
				<path fill="#154679" d="M594.4,181.7c0,0.4-0.1,0.7-0.4,1c-0.3,0.3-0.6,0.4-1,0.4c-0.4,0-0.7-0.1-1-0.4c-0.3-0.3-0.4-0.6-0.4-1
					v-18.3c0-0.4,0.1-0.7,0.4-1c0.3-0.3,0.6-0.4,1-0.4s0.7,0.1,1,0.4c0.3,0.3,0.4,0.6,0.4,1v6.3c1.2-0.9,2.5-1.4,4.1-1.4
					c0.9,0,1.8,0.2,2.6,0.5c0.8,0.4,1.6,0.9,2.2,1.5c0.6,0.6,1.1,1.3,1.5,2.2s0.6,1.7,0.6,2.7v6.5c0,0.4-0.1,0.7-0.4,1
					c-0.3,0.3-0.6,0.4-1,0.4s-0.7-0.1-1-0.4c-0.3-0.3-0.4-0.6-0.4-1v-6.5c0-0.6-0.1-1.1-0.3-1.6c-0.2-0.5-0.5-0.9-0.9-1.3
					c-0.4-0.4-0.8-0.7-1.3-0.9s-1-0.3-1.6-0.3c-0.6,0-1.1,0.1-1.6,0.3c-0.5,0.2-0.9,0.5-1.3,0.9s-0.7,0.8-0.9,1.3
					c-0.2,0.5-0.3,1-0.3,1.6V181.7z"/>
				<path fill="#154679" d="M618.7,178.9c0.4,0,0.7,0.1,1,0.4c0.3,0.3,0.4,0.6,0.4,1c0,0.4-0.1,0.7-0.4,1c-1.4,1.2-3,1.8-4.8,1.8
					c-2,0-3.8-0.7-5.2-2.2s-2.2-3.2-2.2-5.2s0.7-3.8,2.2-5.2s3.2-2.2,5.2-2.2c2,0,3.8,0.7,5.2,2.2c0.7,0.7,1.3,1.5,1.6,2.4
					s0.5,1.8,0.5,2.8c0,0.4-0.1,0.7-0.4,1c-0.3,0.3-0.6,0.4-1,0.4h-10.4c0.1,0.5,0.4,0.9,0.7,1.3c0.3,0.4,0.6,0.7,1,1
					c0.4,0.3,0.8,0.5,1.3,0.7c0.5,0.2,1,0.2,1.5,0.2c0.6,0,1.1-0.1,1.6-0.3c0.5-0.2,0.9-0.4,1.3-0.8
					C618.1,179.1,618.4,178.9,618.7,178.9z M619.3,174.3c-0.2-0.5-0.4-0.9-0.7-1.3c-0.3-0.4-0.6-0.7-1-1c-0.4-0.3-0.8-0.5-1.3-0.7
					c-0.5-0.2-1-0.2-1.5-0.2s-1,0.1-1.5,0.2s-0.9,0.4-1.3,0.7c-0.4,0.3-0.7,0.6-1,1c-0.3,0.4-0.5,0.8-0.6,1.3H619.3z"/>
				<path fill="#154679" d="M625.7,168.3h0.6v-5c0-0.4,0.1-0.7,0.4-1c0.3-0.3,0.6-0.4,1-0.4c0.4,0,0.7,0.1,1,0.4
					c0.3,0.3,0.4,0.6,0.4,1v5h1.6c0.4,0,0.7,0.1,1,0.4s0.4,0.6,0.4,1c0,0.4-0.1,0.7-0.4,1s-0.6,0.4-1,0.4h-1.6v6.6
					c0,1.7,0.9,2.6,2.6,2.6c0.4,0,0.7,0.1,1,0.4c0.3,0.3,0.4,0.6,0.4,1c0,0.4-0.1,0.7-0.4,1c-0.3,0.3-0.6,0.4-1,0.4
					c-3.6,0-5.4-1.8-5.4-5.4v-6.6h-0.6c-0.4,0-0.7-0.1-1-0.4c-0.3-0.3-0.4-0.6-0.4-1c0-0.4,0.1-0.7,0.4-1
					C625,168.5,625.3,168.3,625.7,168.3z"/>
				<path fill="#154679" d="M636.2,168.3h0.6v-5c0-0.4,0.1-0.7,0.4-1c0.3-0.3,0.6-0.4,1-0.4c0.4,0,0.7,0.1,1,0.4
					c0.3,0.3,0.4,0.6,0.4,1v5h1.6c0.4,0,0.7,0.1,1,0.4s0.4,0.6,0.4,1c0,0.4-0.1,0.7-0.4,1s-0.6,0.4-1,0.4h-1.6v6.6
					c0,1.7,0.9,2.6,2.6,2.6c0.4,0,0.7,0.1,1,0.4c0.3,0.3,0.4,0.6,0.4,1c0,0.4-0.1,0.7-0.4,1c-0.3,0.3-0.6,0.4-1,0.4
					c-3.6,0-5.4-1.8-5.4-5.4v-6.6h-0.6c-0.4,0-0.7-0.1-1-0.4c-0.3-0.3-0.4-0.6-0.4-1c0-0.4,0.1-0.7,0.4-1
					C635.5,168.5,635.9,168.3,636.2,168.3z"/>
				<path fill="#154679" d="M649.2,165.7c0,0.4-0.2,0.8-0.5,1.1s-0.7,0.5-1.1,0.5s-0.8-0.2-1.1-0.5s-0.5-0.7-0.5-1.1
					s0.2-0.8,0.5-1.1s0.7-0.5,1.1-0.5s0.8,0.2,1.1,0.5S649.2,165.3,649.2,165.7z M646.2,181.7v-12c0-0.4,0.1-0.7,0.4-1
					c0.3-0.3,0.6-0.4,1-0.4s0.7,0.1,1,0.4c0.3,0.3,0.4,0.6,0.4,1v12c0,0.4-0.1,0.7-0.4,1c-0.3,0.3-0.6,0.4-1,0.4s-0.7-0.1-1-0.4
					C646.4,182.4,646.2,182.1,646.2,181.7z"/>
				<path fill="#154679" d="M662.4,176.1c-0.8-0.3-1.4-0.6-1.7-1h0c-0.7-0.7-1-1.5-1-2.4c0-0.7,0.2-1.3,0.5-1.8
					c0.4-0.5,0.8-1,1.4-1.4s1.2-0.7,1.9-0.9c0.7-0.2,1.4-0.3,2.2-0.3c2.2,0,4.1,0.9,5.7,2.6c0.2,0.2,0.3,0.5,0.3,0.8
					c0,0.4-0.1,0.7-0.4,1c-0.3,0.3-0.6,0.4-1,0.4c-0.3,0-0.5-0.1-0.7-0.2c-0.2-0.2-0.4-0.3-0.6-0.5c-0.9-0.9-2-1.3-3.3-1.3
					c-1.3,0-2.3,0.4-3,1.2c-0.1,0.1-0.2,0.3-0.2,0.6s0.1,0.4,0.3,0.5l6.2,2c0.9,0.3,1.4,0.7,1.7,1h0c0.7,0.7,1,1.5,1,2.4
					c0,0.7-0.2,1.3-0.5,1.8c-0.4,0.5-0.8,1-1.4,1.4c-0.6,0.4-1.2,0.7-1.9,0.9s-1.4,0.3-2.1,0.3c-2.2,0-4.1-0.9-5.7-2.6
					c-0.2-0.3-0.3-0.5-0.3-0.9c0-0.4,0.1-0.7,0.4-1c0.3-0.3,0.6-0.4,1-0.4c0.3,0,0.5,0.1,0.7,0.3c0.2,0.2,0.4,0.3,0.6,0.5
					c0.9,0.9,2,1.3,3.3,1.3c1.3,0,2.3-0.4,3-1.2c0.1-0.1,0.2-0.3,0.2-0.5c0-0.2-0.1-0.4-0.4-0.5L662.4,176.1z"/>
				<path fill="#154679" d="M685.7,181.7v-0.3c-0.7,0.5-1.4,0.9-2.1,1.2s-1.6,0.4-2.5,0.4c-2,0-3.8-0.7-5.2-2.2s-2.2-3.2-2.2-5.2
					s0.7-3.8,2.2-5.2s3.2-2.2,5.2-2.2c2,0,3.8,0.7,5.2,2.2c1.4,1.4,2.2,3.2,2.2,5.2v6c0,0.4-0.1,0.7-0.4,1c-0.3,0.3-0.6,0.4-1,0.4
					c-0.4,0-0.7-0.1-1-0.4C685.8,182.4,685.7,182.1,685.7,181.7z M681.1,171.1c-0.7,0-1.3,0.1-1.8,0.4s-1.1,0.6-1.5,1
					s-0.7,0.9-1,1.5c-0.2,0.6-0.4,1.2-0.4,1.8s0.1,1.2,0.4,1.8c0.2,0.6,0.6,1.1,1,1.5c0.4,0.4,0.9,0.7,1.5,1s1.2,0.4,1.8,0.4
					c0.6,0,1.2-0.1,1.8-0.4c0.6-0.2,1.1-0.6,1.5-1c0.4-0.4,0.7-0.9,1-1.5c0.2-0.6,0.4-1.2,0.4-1.8s-0.1-1.2-0.4-1.8
					c-0.2-0.6-0.6-1-1-1.5c-0.4-0.4-0.9-0.8-1.5-1C682.3,171.2,681.7,171.1,681.1,171.1z"/>
				<path fill="#154679" d="M702.9,183.1c-0.4,0-0.7-0.1-1-0.4s-0.4-0.6-0.4-1c-0.6,0.5-1.2,0.8-1.9,1c-0.7,0.2-1.4,0.3-2.2,0.3
					c-0.9,0-1.8-0.2-2.7-0.5s-1.6-0.9-2.2-1.5c-0.6-0.6-1.1-1.4-1.5-2.2c-0.4-0.8-0.5-1.7-0.5-2.7v-6.5c0-0.4,0.1-0.7,0.4-1
					c0.3-0.3,0.6-0.4,1-0.4c0.4,0,0.7,0.1,1,0.4c0.3,0.3,0.4,0.6,0.4,1v6.5c0,0.6,0.1,1.1,0.3,1.6c0.2,0.5,0.5,0.9,0.9,1.3
					c0.4,0.4,0.8,0.7,1.3,0.9c0.5,0.2,1,0.3,1.6,0.3c0.6,0,1.1-0.1,1.6-0.3s0.9-0.5,1.3-0.9s0.7-0.8,0.9-1.3c0.2-0.5,0.3-1,0.3-1.6
					v-6.5c0-0.4,0.1-0.7,0.4-1c0.3-0.3,0.6-0.4,1-0.4c0.4,0,0.7,0.1,1,0.4c0.3,0.3,0.4,0.6,0.4,1v12c0,0.4-0.1,0.7-0.4,1
					C703.6,183,703.3,183.1,702.9,183.1z"/>
				<path fill="#154679" d="M717.6,178.9c0.4,0,0.7,0.1,1,0.4c0.3,0.3,0.4,0.6,0.4,1c0,0.4-0.1,0.7-0.4,1c-1.4,1.2-3,1.8-4.8,1.8
					c-2,0-3.8-0.7-5.2-2.2s-2.2-3.2-2.2-5.2s0.7-3.8,2.2-5.2s3.2-2.2,5.2-2.2c1.9,0,3.5,0.6,4.8,1.8c0.3,0.3,0.5,0.6,0.5,1
					c0,0.4-0.1,0.7-0.4,1c-0.3,0.3-0.6,0.4-1,0.4c-0.3,0-0.6-0.1-0.9-0.3c-0.4-0.4-0.9-0.7-1.4-0.9s-1-0.3-1.6-0.3
					c-0.6,0-1.2,0.1-1.8,0.4c-0.6,0.2-1.1,0.6-1.5,1c-0.4,0.4-0.8,0.9-1,1.5c-0.2,0.6-0.4,1.2-0.4,1.8s0.1,1.2,0.4,1.8
					c0.2,0.6,0.6,1.1,1,1.5s0.9,0.7,1.5,1c0.6,0.2,1.2,0.4,1.8,0.4c0.6,0,1.1-0.1,1.6-0.3c0.5-0.2,1-0.5,1.4-0.9
					C717,179,717.3,178.9,717.6,178.9z"/>
				<path fill="#154679" d="M732.4,178.9c0.4,0,0.7,0.1,1,0.4c0.3,0.3,0.4,0.6,0.4,1c0,0.4-0.1,0.7-0.4,1c-1.4,1.2-3,1.8-4.8,1.8
					c-2,0-3.8-0.7-5.2-2.2s-2.2-3.2-2.2-5.2s0.7-3.8,2.2-5.2s3.2-2.2,5.2-2.2c2,0,3.8,0.7,5.2,2.2c0.7,0.7,1.3,1.5,1.6,2.4
					s0.5,1.8,0.5,2.8c0,0.4-0.1,0.7-0.4,1c-0.3,0.3-0.6,0.4-1,0.4h-10.4c0.1,0.5,0.4,0.9,0.7,1.3c0.3,0.4,0.6,0.7,1,1
					c0.4,0.3,0.8,0.5,1.3,0.7c0.5,0.2,1,0.2,1.5,0.2c0.6,0,1.1-0.1,1.6-0.3c0.5-0.2,0.9-0.4,1.3-0.8
					C731.7,179.1,732,178.9,732.4,178.9z M733,174.3c-0.2-0.5-0.4-0.9-0.7-1.3c-0.3-0.4-0.6-0.7-1-1c-0.4-0.3-0.8-0.5-1.3-0.7
					c-0.5-0.2-1-0.2-1.5-0.2s-1,0.1-1.5,0.2s-0.9,0.4-1.3,0.7c-0.4,0.3-0.7,0.6-1,1c-0.3,0.4-0.5,0.8-0.6,1.3H733z"/>
				<path fill="#154679" d="M529.8,203.8c-0.7-0.6-1.1-1.2-1.4-1.8c-0.3-0.6-0.4-1.3-0.4-2c0-0.9,0.2-1.6,0.5-2.3
					c0.3-0.7,0.8-1.3,1.4-1.9h0c1-0.9,2.2-1.3,3.6-1.3c0.4,0,0.9,0.1,1.3,0.2c0.4,0.1,0.9,0.3,1.3,0.5c0.4,0.2,0.8,0.5,1.1,0.8
					c0.4,0.3,0.7,0.7,1,1.2c0.1,0.2,0.2,0.5,0.2,0.8c0,0.2,0,0.4-0.1,0.6s-0.2,0.3-0.3,0.4c-0.1,0.1-0.3,0.2-0.4,0.3
					c-0.2,0.1-0.4,0.1-0.5,0.1c-0.2,0-0.3,0-0.5-0.1c-0.1-0.1-0.3-0.1-0.4-0.2c-0.1-0.1-0.2-0.2-0.3-0.3c-0.1-0.1-0.2-0.3-0.3-0.4
					c-0.2-0.3-0.5-0.5-0.9-0.7c-0.4-0.2-0.8-0.2-1.2-0.2c-0.3,0-0.7,0.1-1,0.2c-0.3,0.1-0.6,0.3-0.8,0.6c-0.2,0.2-0.4,0.5-0.6,0.8
					c-0.2,0.3-0.2,0.7-0.2,1.1c0,0.7,0.2,1.2,0.6,1.6c0.4,0.4,1,0.7,1.9,1c1.5,0.4,2.8,1,3.6,1.8s1.5,1.5,1.8,2.3s0.5,1.5,0.5,2.4
					c0,2.1-0.8,3.7-2.3,5h0c-1.2,1-2.6,1.6-4.2,1.6c-0.5,0-1-0.1-1.6-0.2c-0.5-0.1-1-0.3-1.5-0.6c-0.5-0.2-0.9-0.6-1.3-0.9
					c-0.4-0.4-0.8-0.8-1.1-1.3c-0.2-0.2-0.3-0.5-0.3-0.8c0-0.2,0-0.4,0.1-0.5c0.1-0.2,0.2-0.3,0.3-0.4c0.1-0.1,0.3-0.2,0.4-0.3
					s0.4-0.1,0.6-0.1c0.5,0,0.9,0.2,1.2,0.6c0.4,0.6,0.8,1,1.4,1.3s1.2,0.4,1.8,0.4c0.5,0,1-0.1,1.4-0.3c0.4-0.2,0.8-0.5,1.2-0.8
					c0.3-0.3,0.6-0.7,0.8-1.2c0.2-0.5,0.3-0.9,0.3-1.4c0-0.5-0.1-0.9-0.3-1.4c-0.2-0.4-0.5-0.8-1-1.3c-0.5-0.4-1.3-0.8-2.4-1.1
					C531.4,204.8,530.4,204.4,529.8,203.8z"/>
				<path fill="#154679" d="M555.8,208.1c0,2.1-0.7,3.8-2.2,5.2c-1.5,1.4-3.2,2.2-5.2,2.2c-2,0-3.8-0.7-5.2-2.2s-2.2-3.2-2.2-5.2
					s0.7-3.8,2.2-5.2s3.2-2.2,5.2-2.2c2,0,3.8,0.7,5.2,2.2c0.7,0.7,1.3,1.5,1.6,2.4C555.6,206.1,555.8,207.1,555.8,208.1z
					 M548.4,203.5c-0.7,0-1.3,0.1-1.8,0.4s-1.1,0.6-1.5,1s-0.7,0.9-1,1.5c-0.2,0.6-0.4,1.2-0.4,1.8s0.1,1.2,0.4,1.8
					c0.2,0.6,0.6,1.1,1,1.5c0.4,0.4,0.9,0.7,1.5,1s1.2,0.4,1.8,0.4c0.6,0,1.2-0.1,1.8-0.4c0.6-0.2,1.1-0.6,1.5-1
					c0.4-0.4,0.7-0.9,1-1.5c0.2-0.6,0.4-1.2,0.4-1.8s-0.1-1.2-0.4-1.8c-0.2-0.6-0.6-1-1-1.5c-0.4-0.4-0.9-0.8-1.5-1
					C549.7,203.6,549.1,203.5,548.4,203.5z"/>
				<path fill="#154679" d="M570.3,215.5c-0.4,0-0.7-0.1-1-0.4s-0.4-0.6-0.4-1c-0.6,0.5-1.2,0.8-1.9,1c-0.7,0.2-1.4,0.3-2.2,0.3
					c-0.9,0-1.8-0.2-2.7-0.5s-1.6-0.9-2.2-1.5c-0.6-0.6-1.1-1.4-1.5-2.2c-0.4-0.8-0.5-1.7-0.5-2.7v-6.5c0-0.4,0.1-0.7,0.4-1
					c0.3-0.3,0.6-0.4,1-0.4c0.4,0,0.7,0.1,1,0.4c0.3,0.3,0.4,0.6,0.4,1v6.5c0,0.6,0.1,1.1,0.3,1.6c0.2,0.5,0.5,0.9,0.9,1.3
					c0.4,0.4,0.8,0.7,1.3,0.9c0.5,0.2,1,0.3,1.6,0.3c0.6,0,1.1-0.1,1.6-0.3s0.9-0.5,1.3-0.9s0.7-0.8,0.9-1.3c0.2-0.5,0.3-1,0.3-1.6
					v-6.5c0-0.4,0.1-0.7,0.4-1c0.3-0.3,0.6-0.4,1-0.4c0.4,0,0.7,0.1,1,0.4c0.3,0.3,0.4,0.6,0.4,1v12c0,0.4-0.1,0.7-0.4,1
					C571,215.4,570.7,215.5,570.3,215.5z"/>
				<path fill="#154679" d="M576.5,202.1v0.3c0.7-0.5,1.4-0.9,2.1-1.2s1.6-0.4,2.5-0.4c0.4,0,0.8,0,1.2,0.1c0.4,0.1,0.9,0.1,1.2,0.3
					c0.4,0.1,0.7,0.3,0.9,0.6s0.4,0.5,0.4,0.9c0,0.2,0,0.4-0.1,0.5c-0.1,0.2-0.2,0.3-0.3,0.4s-0.3,0.2-0.4,0.3s-0.3,0.1-0.5,0.1
					c-0.2,0-0.4,0-0.6-0.1c-0.6-0.2-1.2-0.3-1.8-0.3c-0.6,0-1.2,0.1-1.8,0.4s-1.1,0.6-1.5,1c-0.4,0.4-0.7,0.9-1,1.5
					c-0.2,0.6-0.4,1.2-0.4,1.8v6c0,0.4-0.1,0.7-0.4,1c-0.3,0.3-0.6,0.4-1,0.4c-0.4,0-0.7-0.1-1-0.4c-0.3-0.3-0.4-0.6-0.4-1v-12
					c0-0.4,0.1-0.7,0.4-1c0.3-0.3,0.6-0.4,1-0.4c0.4,0,0.7,0.1,1,0.4C576.3,201.4,576.5,201.7,576.5,202.1z"/>
				<path fill="#154679" d="M605.6,211.3c0.4,0,0.7,0.1,1,0.4c0.3,0.3,0.4,0.6,0.4,1c0,0.4-0.1,0.7-0.4,1c-1.4,1.2-3,1.8-4.8,1.8
					c-2,0-3.8-0.7-5.2-2.2s-2.2-3.2-2.2-5.2s0.7-3.8,2.2-5.2s3.2-2.2,5.2-2.2c1.9,0,3.5,0.6,4.8,1.8c0.3,0.3,0.5,0.6,0.5,1
					c0,0.4-0.1,0.7-0.4,1c-0.3,0.3-0.6,0.4-1,0.4c-0.3,0-0.6-0.1-0.9-0.3c-0.4-0.4-0.9-0.7-1.4-0.9s-1-0.3-1.6-0.3
					c-0.6,0-1.2,0.1-1.8,0.4c-0.6,0.2-1.1,0.6-1.5,1c-0.4,0.4-0.8,0.9-1,1.5c-0.2,0.6-0.4,1.2-0.4,1.8s0.1,1.2,0.4,1.8
					c0.2,0.6,0.6,1.1,1,1.5s0.9,0.7,1.5,1c0.6,0.2,1.2,0.4,1.8,0.4c0.6,0,1.1-0.1,1.6-0.3c0.5-0.2,1-0.5,1.4-0.9
					C604.9,211.4,605.2,211.3,605.6,211.3z"/>
				<path fill="#154679" d="M611.8,202.1v0.3c0.7-0.5,1.4-0.9,2.1-1.2s1.6-0.4,2.5-0.4c0.4,0,0.8,0,1.2,0.1c0.4,0.1,0.9,0.1,1.2,0.3
					c0.4,0.1,0.7,0.3,0.9,0.6s0.4,0.5,0.4,0.9c0,0.2,0,0.4-0.1,0.5c-0.1,0.2-0.2,0.3-0.3,0.4s-0.3,0.2-0.4,0.3s-0.3,0.1-0.5,0.1
					c-0.2,0-0.4,0-0.6-0.1c-0.6-0.2-1.2-0.3-1.8-0.3c-0.6,0-1.2,0.1-1.8,0.4s-1.1,0.6-1.5,1c-0.4,0.4-0.7,0.9-1,1.5
					c-0.2,0.6-0.4,1.2-0.4,1.8v6c0,0.4-0.1,0.7-0.4,1c-0.3,0.3-0.6,0.4-1,0.4c-0.4,0-0.7-0.1-1-0.4c-0.3-0.3-0.4-0.6-0.4-1v-12
					c0-0.4,0.1-0.7,0.4-1c0.3-0.3,0.6-0.4,1-0.4c0.4,0,0.7,0.1,1,0.4C611.7,201.4,611.8,201.7,611.8,202.1z"/>
				<path fill="#154679" d="M633,211.3c0.4,0,0.7,0.1,1,0.4c0.3,0.3,0.4,0.6,0.4,1c0,0.4-0.1,0.7-0.4,1c-1.4,1.2-3,1.8-4.8,1.8
					c-2,0-3.8-0.7-5.2-2.2s-2.2-3.2-2.2-5.2s0.7-3.8,2.2-5.2s3.2-2.2,5.2-2.2c2,0,3.8,0.7,5.2,2.2c0.7,0.7,1.3,1.5,1.6,2.4
					s0.5,1.8,0.5,2.8c0,0.4-0.1,0.7-0.4,1c-0.3,0.3-0.6,0.4-1,0.4h-10.4c0.1,0.5,0.4,0.9,0.7,1.3c0.3,0.4,0.6,0.7,1,1
					c0.4,0.3,0.8,0.5,1.3,0.7c0.5,0.2,1,0.2,1.5,0.2c0.6,0,1.1-0.1,1.6-0.3c0.5-0.2,0.9-0.4,1.3-0.8
					C632.3,211.5,632.6,211.3,633,211.3z M633.6,206.7c-0.2-0.5-0.4-0.9-0.7-1.3c-0.3-0.4-0.6-0.7-1-1c-0.4-0.3-0.8-0.5-1.3-0.7
					c-0.5-0.2-1-0.2-1.5-0.2s-1,0.1-1.5,0.2s-0.9,0.4-1.3,0.7c-0.4,0.3-0.7,0.6-1,1c-0.3,0.4-0.5,0.8-0.6,1.3H633.6z"/>
				<path fill="#154679" d="M650.6,214.1v-0.3c-0.7,0.5-1.4,0.9-2.1,1.2s-1.6,0.4-2.5,0.4c-2,0-3.8-0.7-5.2-2.2s-2.2-3.2-2.2-5.2
					s0.7-3.8,2.2-5.2s3.2-2.2,5.2-2.2c2,0,3.8,0.7,5.2,2.2c1.4,1.4,2.2,3.2,2.2,5.2v6c0,0.4-0.1,0.7-0.4,1c-0.3,0.3-0.6,0.4-1,0.4
					c-0.4,0-0.7-0.1-1-0.4C650.8,214.8,650.6,214.5,650.6,214.1z M646,203.5c-0.7,0-1.3,0.1-1.8,0.4s-1.1,0.6-1.5,1s-0.7,0.9-1,1.5
					c-0.2,0.6-0.4,1.2-0.4,1.8s0.1,1.2,0.4,1.8c0.2,0.6,0.6,1.1,1,1.5c0.4,0.4,0.9,0.7,1.5,1s1.2,0.4,1.8,0.4c0.6,0,1.2-0.1,1.8-0.4
					c0.6-0.2,1.1-0.6,1.5-1c0.4-0.4,0.7-0.9,1-1.5c0.2-0.6,0.4-1.2,0.4-1.8s-0.1-1.2-0.4-1.8c-0.2-0.6-0.6-1-1-1.5
					c-0.4-0.4-0.9-0.8-1.5-1C647.2,203.6,646.6,203.5,646,203.5z"/>
				<path fill="#154679" d="M676.3,214.1c0,0.4-0.1,0.7-0.4,1c-0.3,0.3-0.6,0.4-1,0.4c-0.4,0-0.7-0.1-1-0.4c-0.3-0.3-0.4-0.6-0.4-1
					v-7.5c0-0.4-0.1-0.8-0.2-1.2c-0.2-0.4-0.4-0.7-0.7-1c-0.3-0.3-0.6-0.5-1-0.7c-0.4-0.2-0.8-0.3-1.2-0.3c-0.4,0-0.8,0.1-1.2,0.3
					s-0.7,0.4-1,0.7c-0.3,0.3-0.5,0.6-0.7,1c-0.2,0.4-0.2,0.8-0.2,1.2v7.5c0,0.4-0.1,0.7-0.4,1c-0.3,0.3-0.6,0.4-1,0.4
					c-0.4,0-0.7-0.1-1-0.4c-0.3-0.3-0.4-0.6-0.4-1v-7.5c0-0.4-0.1-0.8-0.3-1.2s-0.4-0.7-0.7-1s-0.6-0.5-1-0.7s-0.8-0.3-1.2-0.3
					s-0.8,0.1-1.2,0.2c-0.4,0.2-0.7,0.4-1,0.7c-0.3,0.3-0.5,0.6-0.7,1c-0.2,0.4-0.2,0.8-0.2,1.2v7.5c0,0.4-0.1,0.7-0.4,1
					c-0.3,0.3-0.6,0.4-1,0.4c-0.4,0-0.7-0.1-1-0.4c-0.3-0.3-0.4-0.6-0.4-1v-12c0-0.4,0.1-0.7,0.4-1c0.3-0.3,0.6-0.4,1-0.4
					c0.3,0,0.6,0.1,0.8,0.3c0.2,0.2,0.4,0.4,0.5,0.7c0.9-0.6,2-0.9,3.2-0.9c0.9,0,1.7,0.2,2.5,0.5c0.8,0.3,1.5,0.9,2,1.6
					c1.2-1.4,2.7-2.1,4.5-2.1c0.8,0,1.6,0.2,2.3,0.5c0.7,0.3,1.3,0.7,1.9,1.3c0.5,0.5,1,1.2,1.3,1.9c0.3,0.7,0.5,1.5,0.5,2.3V214.1z
					"/>
				<path fill="#154679" d="M527.1,246.5v-18.3c0-0.2,0-0.4,0.1-0.5c0.1-0.2,0.2-0.3,0.3-0.4c0.1-0.1,0.3-0.2,0.4-0.3
					s0.4-0.1,0.6-0.1c0.5,0,1,0.3,1.2,0.8l7.9,15.8l7.9-15.8c0.3-0.5,0.7-0.8,1.2-0.8c0.2,0,0.4,0,0.5,0.1c0.2,0.1,0.3,0.2,0.4,0.3
					c0.1,0.1,0.2,0.3,0.3,0.4c0.1,0.2,0.1,0.4,0.1,0.5v18.3c0,0.4-0.1,0.7-0.4,1c-0.3,0.3-0.6,0.4-1,0.4s-0.7-0.1-1-0.4
					s-0.4-0.6-0.4-1v-12.4l-6.5,13.1c-0.3,0.5-0.7,0.7-1.2,0.7c-0.6,0-1-0.3-1.3-0.8l-6.5-12.9v12.4c0,0.4-0.1,0.7-0.4,1
					c-0.3,0.3-0.6,0.4-1,0.4s-0.7-0.1-1-0.4S527.1,246.9,527.1,246.5z"/>
				<path fill="#154679" d="M562.7,247.9c-0.4,0-0.7-0.1-1-0.4s-0.4-0.6-0.4-1c-0.6,0.5-1.2,0.8-1.9,1c-0.7,0.2-1.4,0.3-2.2,0.3
					c-0.9,0-1.8-0.2-2.7-0.5c-0.8-0.4-1.6-0.9-2.2-1.5c-0.6-0.6-1.1-1.4-1.5-2.2c-0.4-0.8-0.5-1.7-0.5-2.7v-6.5c0-0.4,0.1-0.7,0.4-1
					c0.3-0.3,0.6-0.4,1-0.4c0.4,0,0.7,0.1,1,0.4c0.3,0.3,0.4,0.6,0.4,1v6.5c0,0.6,0.1,1.1,0.3,1.6c0.2,0.5,0.5,0.9,0.9,1.3
					c0.4,0.4,0.8,0.7,1.3,0.9c0.5,0.2,1,0.3,1.6,0.3c0.6,0,1.1-0.1,1.6-0.3c0.5-0.2,0.9-0.5,1.3-0.9c0.4-0.4,0.7-0.8,0.9-1.3
					c0.2-0.5,0.3-1,0.3-1.6v-6.5c0-0.4,0.1-0.7,0.4-1c0.3-0.3,0.6-0.4,1-0.4c0.4,0,0.7,0.1,1,0.4c0.3,0.3,0.4,0.6,0.4,1v12
					c0,0.4-0.1,0.7-0.4,1C563.4,247.8,563,247.9,562.7,247.9z"/>
				<path fill="#154679" d="M568.8,240.9c-0.8-0.3-1.4-0.6-1.7-1h0c-0.7-0.7-1-1.5-1-2.4c0-0.7,0.2-1.3,0.5-1.8
					c0.4-0.5,0.8-1,1.4-1.4s1.2-0.7,1.9-0.9c0.7-0.2,1.4-0.3,2.2-0.3c2.2,0,4.1,0.9,5.7,2.7c0.2,0.2,0.3,0.5,0.3,0.8
					c0,0.4-0.1,0.7-0.4,1c-0.3,0.3-0.6,0.4-1,0.4c-0.3,0-0.5-0.1-0.7-0.2c-0.2-0.2-0.4-0.3-0.6-0.5c-0.9-0.9-2-1.3-3.3-1.3
					c-1.3,0-2.3,0.4-3,1.2c-0.1,0.1-0.2,0.3-0.2,0.6s0.1,0.4,0.3,0.5l6.2,2c0.9,0.3,1.4,0.7,1.7,1h0c0.7,0.7,1,1.5,1,2.4
					c0,0.7-0.2,1.3-0.5,1.8c-0.4,0.5-0.8,1-1.4,1.4c-0.6,0.4-1.2,0.7-1.9,0.9s-1.4,0.3-2.1,0.3c-2.2,0-4.1-0.9-5.7-2.6
					c-0.2-0.3-0.3-0.5-0.3-0.9c0-0.4,0.1-0.7,0.4-1c0.3-0.3,0.6-0.4,1-0.4c0.3,0,0.5,0.1,0.7,0.3c0.2,0.2,0.4,0.3,0.6,0.5
					c0.9,0.9,2,1.3,3.3,1.3c1.3,0,2.3-0.4,3-1.2c0.1-0.1,0.2-0.3,0.2-0.5c0-0.2-0.1-0.4-0.4-0.5L568.8,240.9z"/>
				<path fill="#154679" d="M582.8,246.5c0,0.4-0.1,0.7-0.4,1c-0.3,0.3-0.6,0.4-1,0.4c-0.4,0-0.7-0.1-1-0.4c-0.3-0.3-0.4-0.6-0.4-1
					v-18.3c0-0.4,0.1-0.7,0.4-1c0.3-0.3,0.6-0.4,1-0.4s0.7,0.1,1,0.4c0.3,0.3,0.4,0.6,0.4,1v6.3c1.2-0.9,2.5-1.4,4.1-1.4
					c0.9,0,1.8,0.2,2.6,0.5c0.8,0.4,1.6,0.9,2.2,1.5c0.6,0.6,1.1,1.3,1.5,2.2c0.4,0.8,0.6,1.7,0.6,2.7v6.5c0,0.4-0.1,0.7-0.4,1
					c-0.3,0.3-0.6,0.4-1,0.4s-0.7-0.1-1-0.4c-0.3-0.3-0.4-0.6-0.4-1V240c0-0.6-0.1-1.1-0.3-1.6c-0.2-0.5-0.5-0.9-0.9-1.3
					c-0.4-0.4-0.8-0.7-1.3-0.9s-1-0.3-1.6-0.3c-0.6,0-1.1,0.1-1.6,0.3c-0.5,0.2-0.9,0.5-1.3,0.9c-0.4,0.4-0.7,0.8-0.9,1.3
					c-0.2,0.5-0.3,1-0.3,1.6V246.5z"/>
				<path fill="#154679" d="M598.6,234.5v0.3c0.7-0.5,1.4-0.9,2.1-1.2s1.6-0.4,2.5-0.4c0.4,0,0.8,0,1.2,0.1c0.4,0.1,0.9,0.1,1.2,0.3
					c0.4,0.1,0.7,0.3,0.9,0.6s0.4,0.5,0.4,0.9c0,0.2,0,0.4-0.1,0.5c-0.1,0.2-0.2,0.3-0.3,0.4c-0.1,0.1-0.3,0.2-0.4,0.3
					s-0.3,0.1-0.5,0.1c-0.2,0-0.4,0-0.6-0.1c-0.6-0.2-1.2-0.3-1.8-0.3c-0.6,0-1.2,0.1-1.8,0.4c-0.6,0.2-1.1,0.6-1.5,1
					c-0.4,0.4-0.7,0.9-1,1.5c-0.2,0.6-0.4,1.2-0.4,1.8v6c0,0.4-0.1,0.7-0.4,1c-0.3,0.3-0.6,0.4-1,0.4c-0.4,0-0.7-0.1-1-0.4
					c-0.3-0.3-0.4-0.6-0.4-1v-12c0-0.4,0.1-0.7,0.4-1c0.3-0.3,0.6-0.4,1-0.4c0.4,0,0.7,0.1,1,0.4
					C598.5,233.8,598.6,234.1,598.6,234.5z"/>
				<path fill="#154679" d="M623.3,240.5c0,2.1-0.7,3.8-2.2,5.2c-1.5,1.4-3.2,2.2-5.2,2.2c-2,0-3.8-0.7-5.2-2.2s-2.2-3.2-2.2-5.2
					s0.7-3.8,2.2-5.2s3.2-2.2,5.2-2.2c2,0,3.8,0.7,5.2,2.2c0.7,0.7,1.3,1.5,1.6,2.4C623.1,238.5,623.3,239.5,623.3,240.5z
					 M615.9,235.9c-0.7,0-1.3,0.1-1.8,0.4s-1.1,0.6-1.5,1c-0.4,0.4-0.7,0.9-1,1.5c-0.2,0.6-0.4,1.2-0.4,1.8s0.1,1.2,0.4,1.8
					c0.2,0.6,0.6,1.1,1,1.5c0.4,0.4,0.9,0.8,1.5,1c0.6,0.2,1.2,0.4,1.8,0.4c0.6,0,1.2-0.1,1.8-0.4c0.6-0.2,1.1-0.6,1.5-1
					c0.4-0.4,0.7-0.9,1-1.5c0.2-0.6,0.4-1.2,0.4-1.8s-0.1-1.2-0.4-1.8c-0.2-0.6-0.6-1-1-1.5c-0.4-0.4-0.9-0.8-1.5-1
					C617.2,236,616.6,235.9,615.9,235.9z"/>
				<path fill="#154679" d="M640.2,240.5c0,2.1-0.7,3.8-2.2,5.2c-1.5,1.4-3.2,2.2-5.2,2.2c-2,0-3.8-0.7-5.2-2.2s-2.2-3.2-2.2-5.2
					s0.7-3.8,2.2-5.2s3.2-2.2,5.2-2.2c2,0,3.8,0.7,5.2,2.2c0.7,0.7,1.3,1.5,1.6,2.4C640,238.5,640.2,239.5,640.2,240.5z
					 M632.8,235.9c-0.7,0-1.3,0.1-1.8,0.4s-1.1,0.6-1.5,1c-0.4,0.4-0.7,0.9-1,1.5c-0.2,0.6-0.4,1.2-0.4,1.8s0.1,1.2,0.4,1.8
					c0.2,0.6,0.6,1.1,1,1.5c0.4,0.4,0.9,0.8,1.5,1c0.6,0.2,1.2,0.4,1.8,0.4c0.6,0,1.2-0.1,1.8-0.4c0.6-0.2,1.1-0.6,1.5-1
					c0.4-0.4,0.7-0.9,1-1.5c0.2-0.6,0.4-1.2,0.4-1.8s-0.1-1.2-0.4-1.8c-0.2-0.6-0.6-1-1-1.5c-0.4-0.4-0.9-0.8-1.5-1
					C634.1,236,633.5,235.9,632.8,235.9z"/>
				<path fill="#154679" d="M663.2,246.5c0,0.4-0.1,0.7-0.4,1c-0.3,0.3-0.6,0.4-1,0.4c-0.4,0-0.7-0.1-1-0.4c-0.3-0.3-0.4-0.6-0.4-1
					V239c0-0.4-0.1-0.8-0.2-1.2c-0.2-0.4-0.4-0.7-0.7-1c-0.3-0.3-0.6-0.5-1-0.7c-0.4-0.2-0.8-0.2-1.2-0.2c-0.4,0-0.8,0.1-1.2,0.2
					s-0.7,0.4-1,0.7c-0.3,0.3-0.5,0.6-0.7,1c-0.2,0.4-0.2,0.8-0.2,1.2v7.5c0,0.4-0.1,0.7-0.4,1c-0.3,0.3-0.6,0.4-1,0.4
					c-0.4,0-0.7-0.1-1-0.4c-0.3-0.3-0.4-0.6-0.4-1V239c0-0.4-0.1-0.8-0.3-1.2s-0.4-0.7-0.7-1c-0.3-0.3-0.6-0.5-1-0.7
					s-0.8-0.2-1.2-0.2s-0.8,0.1-1.2,0.2c-0.4,0.2-0.7,0.4-1,0.7c-0.3,0.3-0.5,0.6-0.7,1c-0.2,0.4-0.2,0.8-0.2,1.2v7.5
					c0,0.4-0.1,0.7-0.4,1c-0.3,0.3-0.6,0.4-1,0.4c-0.4,0-0.7-0.1-1-0.4c-0.3-0.3-0.4-0.6-0.4-1v-12c0-0.4,0.1-0.7,0.4-1
					c0.3-0.3,0.6-0.4,1-0.4c0.3,0,0.6,0.1,0.8,0.3c0.2,0.2,0.4,0.4,0.5,0.7c0.9-0.6,2-0.9,3.2-0.9c0.9,0,1.7,0.2,2.5,0.5
					c0.8,0.3,1.5,0.9,2,1.6c1.2-1.4,2.7-2.1,4.5-2.1c0.8,0,1.6,0.2,2.3,0.5c0.7,0.3,1.3,0.7,1.9,1.3c0.5,0.5,1,1.2,1.3,1.9
					c0.3,0.7,0.5,1.5,0.5,2.3V246.5z"/>
				<path fill="#154679" d="M668.2,240.9c-0.8-0.3-1.4-0.6-1.7-1h0c-0.7-0.7-1-1.5-1-2.4c0-0.7,0.2-1.3,0.5-1.8
					c0.4-0.5,0.8-1,1.4-1.4s1.2-0.7,1.9-0.9c0.7-0.2,1.4-0.3,2.2-0.3c2.2,0,4.1,0.9,5.7,2.7c0.2,0.2,0.3,0.5,0.3,0.8
					c0,0.4-0.1,0.7-0.4,1c-0.3,0.3-0.6,0.4-1,0.4c-0.3,0-0.5-0.1-0.7-0.2c-0.2-0.2-0.4-0.3-0.6-0.5c-0.9-0.9-2-1.3-3.3-1.3
					c-1.3,0-2.3,0.4-3,1.2c-0.1,0.1-0.2,0.3-0.2,0.6s0.1,0.4,0.3,0.5l6.2,2c0.9,0.3,1.4,0.7,1.7,1h0c0.7,0.7,1,1.5,1,2.4
					c0,0.7-0.2,1.3-0.5,1.8c-0.4,0.5-0.8,1-1.4,1.4c-0.6,0.4-1.2,0.7-1.9,0.9s-1.4,0.3-2.1,0.3c-2.2,0-4.1-0.9-5.7-2.6
					c-0.2-0.3-0.3-0.5-0.3-0.9c0-0.4,0.1-0.7,0.4-1c0.3-0.3,0.6-0.4,1-0.4c0.3,0,0.5,0.1,0.7,0.3c0.2,0.2,0.4,0.3,0.6,0.5
					c0.9,0.9,2,1.3,3.3,1.3c1.3,0,2.3-0.4,3-1.2c0.1-0.1,0.2-0.3,0.2-0.5c0-0.2-0.1-0.4-0.4-0.5L668.2,240.9z"/>
			</g>
			<line fill="none" stroke="#154679" stroke-width="4" stroke-miterlimit="10" x1="0" y1="211.8" x2="489" y2="211.8"/>
		</g>
	</g>
	<g>
		<g>
			<path fill="#154679" d="M285.1,149.1c5.8,0,10.7,2.1,14.8,6.2c2.1,2.1,3.6,4.3,4.6,6.8c1,2.4,1.5,5.1,1.5,8.1
				c0,5.8-2.1,10.8-6.2,14.9c-4.1,4.1-9,6.1-14.8,6.1H277c-0.4,0-0.7-0.1-1.1-0.2s-0.6-0.3-0.9-0.6c-0.3-0.2-0.5-0.5-0.6-0.9
				c-0.1-0.3-0.2-0.7-0.2-1.1v-36.5c0-0.4,0.1-0.7,0.2-1.1c0.1-0.3,0.4-0.6,0.6-0.9c0.3-0.2,0.6-0.4,0.9-0.6s0.7-0.2,1.1-0.2H285.1z
				 M285.1,185.6c4.3,0,7.9-1.5,10.9-4.5c1.5-1.5,2.7-3.2,3.4-5c0.8-1.8,1.1-3.8,1.1-6c0-4.2-1.5-7.9-4.5-10.9s-6.7-4.5-10.9-4.5
				h-5.3v30.9H285.1z"/>
			<path fill="#154679" d="M333.9,188.4v-0.5c-1.3,1.1-2.7,1.9-4.3,2.4c-1.5,0.6-3.2,0.8-4.9,0.8c-4.1,0-7.5-1.4-10.4-4.3
				c-2.9-2.9-4.3-6.3-4.3-10.4c0-4.1,1.4-7.5,4.3-10.4c2.9-2.9,6.3-4.3,10.4-4.3c4,0,7.5,1.4,10.4,4.3c2.9,2.9,4.3,6.3,4.3,10.4v12
				c0,0.8-0.3,1.4-0.8,1.9c-0.5,0.5-1.2,0.8-1.9,0.8c-0.8,0-1.4-0.3-2-0.8C334.2,189.8,333.9,189.2,333.9,188.4z M324.7,167.2
				c-1.3,0-2.5,0.2-3.6,0.7c-1.1,0.5-2.1,1.2-2.9,2c-0.8,0.8-1.5,1.8-2,2.9c-0.5,1.1-0.7,2.3-0.7,3.6s0.2,2.5,0.7,3.6
				c0.5,1.1,1.1,2.1,2,2.9c0.8,0.8,1.8,1.5,2.9,2c1.1,0.5,2.3,0.7,3.6,0.7c1.3,0,2.5-0.2,3.6-0.7c1.1-0.5,2.1-1.2,2.9-2
				s1.5-1.8,2-2.9c0.5-1.1,0.7-2.3,0.7-3.6s-0.2-2.4-0.7-3.6c-0.5-1.1-1.1-2.1-2-2.9c-0.8-0.8-1.8-1.5-2.9-2
				C327.2,167.5,326,167.2,324.7,167.2z"/>
			<path fill="#154679" d="M353.3,188.4l-9.5-22.7c-0.2-0.4-0.3-0.8-0.3-1.2c0-0.4,0.1-0.7,0.2-1.1c0.1-0.3,0.3-0.6,0.6-0.9
				c0.2-0.3,0.5-0.5,0.9-0.6c0.3-0.1,0.7-0.2,1.1-0.2c0.5,0,1.1,0.2,1.5,0.5c0.5,0.3,0.8,0.8,1.1,1.4l7.4,17.6l7.4-17.7
				c0.2-0.5,0.5-1,0.9-1.3c0.4-0.3,0.9-0.5,1.7-0.5c0.4,0,0.7,0.1,1.1,0.2s0.6,0.3,0.9,0.6c0.2,0.3,0.4,0.5,0.6,0.9
				c0.1,0.3,0.2,0.7,0.2,1.1c0,0.4-0.1,0.8-0.3,1.2l-15.1,36.2c-0.2,0.5-0.6,1-1.1,1.3c-0.5,0.3-1,0.5-1.6,0.5c-0.8,0-1.4-0.3-2-0.8
				s-0.8-1.2-0.8-2c0-0.4,0.1-0.8,0.3-1.2L353.3,188.4z"/>
			<path fill="#154679" d="M378.4,177.1c-1.6-0.6-2.8-1.3-3.5-1.9h0c-1.3-1.3-2-2.9-2-4.8c0-1.3,0.4-2.5,1.1-3.6
				c0.7-1.1,1.6-2,2.8-2.7c1.1-0.8,2.4-1.3,3.8-1.7s2.9-0.6,4.3-0.6c4.4,0,8.1,1.8,11.3,5.3c0.4,0.5,0.6,1,0.6,1.7
				c0,0.8-0.3,1.4-0.8,2s-1.2,0.8-2,0.8c-0.6,0-1-0.2-1.4-0.5c-0.4-0.3-0.8-0.7-1.1-1c-1.8-1.8-4-2.7-6.5-2.7c-2.5,0-4.5,0.8-6,2.3
				c-0.3,0.3-0.4,0.7-0.4,1.2c0,0.5,0.2,0.8,0.7,1l12.3,4c1.7,0.7,2.9,1.3,3.5,1.9h0c1.3,1.3,2,2.9,2,4.8c0,1.3-0.4,2.6-1.1,3.6
				c-0.7,1.1-1.6,2-2.8,2.7c-1.1,0.8-2.4,1.3-3.8,1.7c-1.4,0.4-2.8,0.6-4.3,0.6c-4.4,0-8.2-1.7-11.3-5.2c-0.4-0.5-0.6-1.1-0.6-1.7
				c0-0.8,0.3-1.4,0.8-2s1.2-0.8,2-0.8c0.6,0,1.1,0.2,1.5,0.5c0.4,0.3,0.8,0.7,1.1,1c1.8,1.8,4,2.7,6.5,2.7c2.5,0,4.5-0.8,6-2.4
				c0.3-0.3,0.4-0.7,0.4-1.1c0-0.5-0.2-0.8-0.7-1L378.4,177.1z"/>
		</g>
	</g>
</g>
</svg>
