<!-- Generator: Adobe Illustrator 18.0.0, SVG Export Plug-In  -->
<svg version="1.1"
	 xmlns="http://www.w3.org/2000/svg" xmlns:xlink="http://www.w3.org/1999/xlink" xmlns:a="http://ns.adobe.com/AdobeSVGViewerExtensions/3.0/"
	 x="0px" y="0px" width="1561px" height="180.6px" viewBox="0 0 1561 180.6" enable-background="new 0 0 1561 180.6"
	 xml:space="preserve">
<defs>
</defs>
<g>
	<circle fill="#FFFFFF" cx="1129.7" cy="130.3" r="7.7"/>
	<line fill="none" stroke="#FFFFFF" stroke-width="1.8928" stroke-miterlimit="10" x1="1148.2" y1="146.6" x2="1560.4" y2="146.6"/>
	<g>
		<path fill="#FFFFFF" d="M1415.3,173.7c0,2.2-0.8,3.9-2.3,5.1c-1.6,1.2-3.7,1.8-6.5,1.8c-2.8,0-5-0.4-6.8-1.3v-3.8
			c1.1,0.5,2.3,0.9,3.5,1.2c1.2,0.3,2.4,0.4,3.5,0.4c1.6,0,2.7-0.3,3.5-0.9s1.1-1.4,1.1-2.4c0-0.9-0.3-1.7-1-2.3
			c-0.7-0.6-2.1-1.4-4.3-2.2c-2.2-0.9-3.8-1.9-4.7-3.1s-1.4-2.5-1.4-4.2c0-2,0.7-3.6,2.2-4.8c1.4-1.2,3.4-1.7,5.8-1.7
			c2.3,0,4.6,0.5,7,1.5l-1.3,3.2c-2.2-0.9-4.1-1.4-5.8-1.4c-1.3,0-2.3,0.3-2.9,0.8c-0.7,0.6-1,1.3-1,2.2c0,0.6,0.1,1.2,0.4,1.6
			c0.3,0.4,0.7,0.9,1.3,1.3c0.6,0.4,1.7,0.9,3.3,1.6c1.8,0.7,3.1,1.4,3.9,2.1c0.8,0.6,1.4,1.4,1.8,2.2
			C1415.1,171.6,1415.3,172.6,1415.3,173.7z"/>
		<path fill="#FFFFFF" d="M1419.3,157c0-0.7,0.2-1.2,0.6-1.6s0.9-0.6,1.6-0.6c0.7,0,1.2,0.2,1.6,0.6s0.6,0.9,0.6,1.6
			c0,0.7-0.2,1.2-0.6,1.6s-0.9,0.6-1.6,0.6c-0.7,0-1.3-0.2-1.6-0.6S1419.3,157.7,1419.3,157z M1423.5,180.3h-3.9v-18.4h3.9V180.3z"
			/>
		<path fill="#FFFFFF" d="M1445.3,180.3h-3.9V169c0-1.4-0.3-2.5-0.9-3.2c-0.6-0.7-1.5-1-2.7-1c-1.7,0-2.9,0.5-3.6,1.5
			c-0.8,1-1.1,2.6-1.1,4.9v9.2h-3.9v-18.4h3.1l0.5,2.4h0.2c0.6-0.9,1.3-1.6,2.4-2c1-0.5,2.2-0.7,3.4-0.7c4.4,0,6.6,2.2,6.6,6.7
			V180.3z"/>
		<path fill="#FFFFFF" d="M1458.1,180.6c-2.8,0-4.9-0.8-6.3-2.4c-1.4-1.6-2.2-4-2.2-7c0-3.1,0.8-5.5,2.3-7.1s3.7-2.5,6.6-2.5
			c1.9,0,3.7,0.4,5.2,1.1l-1.2,3.1c-1.7-0.6-3-1-4.1-1c-3.2,0-4.8,2.1-4.8,6.3c0,2.1,0.4,3.6,1.2,4.6s2,1.6,3.5,1.6
			c1.7,0,3.4-0.4,4.9-1.3v3.4c-0.7,0.4-1.4,0.7-2.2,0.9C1460.2,180.5,1459.3,180.6,1458.1,180.6z"/>
		<path fill="#FFFFFF" d="M1475.6,180.6c-2.9,0-5.1-0.8-6.7-2.5s-2.4-4-2.4-6.9c0-3,0.7-5.4,2.2-7.1c1.5-1.7,3.6-2.6,6.2-2.6
			c2.4,0,4.3,0.7,5.8,2.2c1.4,1.5,2.1,3.5,2.1,6.1v2.1h-12.3c0.1,1.8,0.5,3.2,1.4,4.1s2.2,1.4,3.8,1.4c1.1,0,2.1-0.1,3-0.3
			c0.9-0.2,1.9-0.5,3-1v3.2c-1,0.5-1.9,0.8-2.9,1C1478,180.5,1476.9,180.6,1475.6,180.6z M1474.9,164.5c-1.2,0-2.2,0.4-3,1.2
			c-0.7,0.8-1.2,1.9-1.3,3.4h8.4c0-1.5-0.4-2.7-1.1-3.5S1476.1,164.5,1474.9,164.5z"/>
		<path fill="#FFFFFF" d="M1497.4,180.3h-3.9v-15.7c0-1.9,0-3.4,0.1-4.5c-0.3,0.3-0.6,0.6-0.9,0.9c-0.4,0.3-1.6,1.3-3.7,3.1l-2-2.5
			l7.2-5.6h3.3V180.3z"/>
		<path fill="#FFFFFF" d="M1513.6,155.7c2.3,0,4.1,0.5,5.5,1.6c1.3,1.1,2,2.5,2,4.3c0,2.5-1.5,4.5-4.5,6c1.9,1,3.3,2,4.1,3
			c0.8,1.1,1.2,2.2,1.2,3.5c0,2-0.7,3.6-2.2,4.8s-3.5,1.8-6,1.8c-2.6,0-4.7-0.6-6.1-1.7c-1.5-1.1-2.2-2.7-2.2-4.8
			c0-1.4,0.4-2.6,1.1-3.7s2-2,3.7-2.9c-1.5-0.9-2.5-1.8-3.2-2.8c-0.6-1-0.9-2.1-0.9-3.3c0-1.8,0.7-3.2,2.1-4.2
			C1509.5,156.2,1511.3,155.7,1513.6,155.7z M1509.1,174c0,1.2,0.4,2,1.2,2.7s1.9,1,3.3,1c1.4,0,2.5-0.3,3.3-1s1.2-1.6,1.2-2.7
			c0-0.9-0.4-1.7-1.1-2.5c-0.7-0.7-1.8-1.4-3.3-2.1l-0.5-0.2c-1.5,0.6-2.5,1.4-3.2,2.1C1509.4,172.1,1509.1,173,1509.1,174z
			 M1513.5,158.7c-1.1,0-2,0.3-2.7,0.8c-0.7,0.5-1,1.3-1,2.2c0,0.6,0.1,1.1,0.4,1.5c0.2,0.5,0.6,0.9,1.1,1.2
			c0.5,0.4,1.3,0.8,2.4,1.3c1.3-0.6,2.3-1.2,2.8-1.9c0.5-0.6,0.8-1.4,0.8-2.3c0-0.9-0.3-1.7-1-2.2
			C1515.6,158.9,1514.7,158.7,1513.5,158.7z"/>
		<path fill="#FFFFFF" d="M1527.6,180.3l9.6-20.8h-12.6V156h16.8v2.7l-9.6,21.6H1527.6z"/>
		<path fill="#FFFFFF" d="M1560.7,168.1c0,4.2-0.7,7.4-2,9.4s-3.4,3.1-6.2,3.1c-2.7,0-4.8-1.1-6.2-3.2c-1.4-2.1-2.1-5.2-2.1-9.3
			c0-4.3,0.7-7.5,2-9.5s3.4-3.1,6.2-3.1c2.7,0,4.8,1.1,6.2,3.2S1560.7,164,1560.7,168.1z M1548.2,168.1c0,3.3,0.3,5.7,1,7.1
			c0.7,1.4,1.8,2.1,3.3,2.1s2.6-0.7,3.3-2.2c0.7-1.4,1-3.8,1-7.1c0-3.3-0.3-5.6-1-7.1c-0.7-1.5-1.8-2.2-3.3-2.2s-2.6,0.7-3.3,2.1
			S1548.2,164.8,1548.2,168.1z"/>
	</g>
	<line fill="none" stroke="#FFFFFF" stroke-width="1.8928" stroke-miterlimit="10" x1="1129.7" y1="130.3" x2="1057.7" y2="130.3"/>
	<g>
		<path fill="#FFFFFF" d="M1161.7,138h-4l-9.8-17.2h-0.1l0.1,1c0.1,1.8,0.2,3.5,0.2,5V138h-3v-21.6h4l9.8,17.1h0.1
			c0-0.2-0.1-1.1-0.1-2.5c-0.1-1.4-0.1-2.5-0.1-3.3v-11.3h3V138z"/>
		<path fill="#FFFFFF" d="M1180,129.8c0,2.7-0.6,4.8-1.9,6.3c-1.3,1.5-3,2.2-5.3,2.2c-1.4,0-2.7-0.3-3.7-1c-1.1-0.7-1.9-1.7-2.5-3
			c-0.6-1.3-0.9-2.8-0.9-4.5c0-2.7,0.6-4.7,1.9-6.2c1.3-1.5,3-2.2,5.3-2.2c2.2,0,3.9,0.8,5.2,2.3
			C1179.4,125.2,1180,127.2,1180,129.8z M1169,129.8c0,3.8,1.3,5.7,3.9,5.7c2.6,0,3.8-1.9,3.8-5.7c0-3.7-1.3-5.6-3.9-5.6
			c-1.3,0-2.3,0.5-2.9,1.4C1169.3,126.6,1169,128,1169,129.8z"/>
		<path fill="#FFFFFF" d="M1191.4,121.3c0.6,0,1.2,0,1.6,0.1l-0.3,3.2c-0.5-0.1-0.9-0.2-1.4-0.2c-1.3,0-2.3,0.5-3.1,1.4
			c-0.8,0.9-1.2,2.1-1.2,3.5v8.5h-3.2v-16.4h2.5l0.4,2.9h0.2c0.5-1,1.2-1.8,2-2.3C1189.6,121.6,1190.5,121.3,1191.4,121.3z"/>
		<path fill="#FFFFFF" d="M1201.4,135.5c0.8,0,1.6-0.1,2.4-0.4v2.6c-0.4,0.2-0.8,0.3-1.4,0.4s-1.1,0.2-1.7,0.2c-3,0-4.6-1.7-4.6-5.2
			v-8.8h-2.1v-1.5l2.2-1.3l1.1-3.5h2v3.6h4.3v2.6h-4.3v8.8c0,0.8,0.2,1.5,0.6,1.9C1200.3,135.3,1200.8,135.5,1201.4,135.5z"/>
		<path fill="#FFFFFF" d="M1220.1,138h-3.2v-10.1c0-1.3-0.2-2.2-0.7-2.8s-1.2-0.9-2.2-0.9c-1.3,0-2.3,0.4-3,1.3
			c-0.6,0.9-1,2.3-1,4.4v8.1h-3.2v-23h3.2v5.8c0,0.9-0.1,1.9-0.2,3h0.2c0.4-0.8,1-1.4,1.8-1.8c0.8-0.4,1.7-0.7,2.7-0.7
			c3.7,0,5.5,2,5.5,6V138z"/>
		<path fill="#FFFFFF" d="M1240.8,138l-5.8-18.1h-0.1c0.2,2.7,0.2,5.2,0.2,7.5V138h-3v-21.6h4.6l5.6,17.2h0.1l5.7-17.2h4.6V138h-3.1
			v-10.7c0-1.1,0-2.5,0.1-4.2c0-1.7,0.1-2.8,0.1-3.1h-0.1l-6,18H1240.8z"/>
		<path fill="#FFFFFF" d="M1264.3,138.3c-2.4,0-4.2-0.7-5.5-2.2s-2-3.5-2-6.1c0-2.7,0.6-4.8,1.8-6.3s2.9-2.3,5.1-2.3
			c2,0,3.6,0.7,4.7,2c1.2,1.3,1.7,3.1,1.7,5.4v1.9h-10.1c0,1.6,0.4,2.8,1.2,3.7c0.7,0.9,1.8,1.3,3.2,1.3c0.9,0,1.7-0.1,2.5-0.3
			c0.8-0.2,1.6-0.5,2.5-0.9v2.8c-0.8,0.4-1.6,0.7-2.4,0.9C1266.2,138.2,1265.3,138.3,1264.3,138.3z M1263.7,124c-1,0-1.8,0.4-2.5,1
			c-0.6,0.7-1,1.7-1.1,3.1h6.9c0-1.4-0.3-2.4-0.9-3.1S1264.7,124,1263.7,124z"/>
		<path fill="#FFFFFF" d="M1277,138h-3.2v-23h3.2V138z"/>
		<path fill="#FFFFFF" d="M1289.4,121.3c1.9,0,3.4,0.7,4.4,2.2c1.1,1.5,1.6,3.6,1.6,6.2c0,2.7-0.5,4.8-1.6,6.3
			c-1.1,1.5-2.5,2.2-4.4,2.2c-1.9,0-3.4-0.7-4.5-2.2h-0.2l-0.6,1.9h-2.4v-23h3.2v5.5c0,0.4,0,1-0.1,1.8c0,0.8-0.1,1.3-0.1,1.5h0.1
			C1285.9,122.2,1287.4,121.3,1289.4,121.3z M1288.5,124.2c-1.3,0-2.2,0.4-2.8,1.2c-0.6,0.8-0.9,2.2-0.9,4.1v0.2
			c0,2,0.3,3.4,0.9,4.3c0.6,0.9,1.5,1.3,2.9,1.3c1.1,0,2-0.5,2.6-1.5c0.6-1,0.9-2.4,0.9-4.2C1292.1,126,1290.9,124.2,1288.5,124.2z"
			/>
		<path fill="#FFFFFF" d="M1312.5,129.8c0,2.7-0.6,4.8-1.9,6.3c-1.3,1.5-3,2.2-5.3,2.2c-1.4,0-2.7-0.3-3.7-1c-1.1-0.7-1.9-1.7-2.5-3
			c-0.6-1.3-0.9-2.8-0.9-4.5c0-2.7,0.6-4.7,1.9-6.2c1.3-1.5,3-2.2,5.3-2.2c2.2,0,3.9,0.8,5.2,2.3
			C1311.9,125.2,1312.5,127.2,1312.5,129.8z M1301.5,129.8c0,3.8,1.3,5.7,3.9,5.7c2.6,0,3.8-1.9,3.8-5.7c0-3.7-1.3-5.6-3.9-5.6
			c-1.3,0-2.3,0.5-2.9,1.4C1301.8,126.6,1301.5,128,1301.5,129.8z"/>
		<path fill="#FFFFFF" d="M1326.9,138l-0.5-2.1h-0.2c-0.4,0.8-1.1,1.4-1.9,1.8s-1.8,0.7-2.8,0.7c-1.8,0-3.2-0.5-4.1-1.5
			c-0.9-1-1.4-2.5-1.4-4.5v-10.7h3.2v10.1c0,1.3,0.2,2.2,0.7,2.8c0.5,0.6,1.2,0.9,2.2,0.9c1.3,0,2.3-0.4,3-1.3c0.6-0.9,1-2.3,1-4.4
			v-8.1h3.2V138H1326.9z"/>
		<path fill="#FFFFFF" d="M1341.6,121.3c0.6,0,1.2,0,1.6,0.1l-0.3,3.2c-0.5-0.1-0.9-0.2-1.4-0.2c-1.3,0-2.3,0.5-3.1,1.4
			c-0.8,0.9-1.2,2.1-1.2,3.5v8.5h-3.2v-16.4h2.5l0.4,2.9h0.2c0.5-1,1.2-1.8,2-2.3C1339.8,121.6,1340.7,121.3,1341.6,121.3z"/>
		<path fill="#FFFFFF" d="M1359.3,138h-3.2v-10.1c0-1.3-0.2-2.2-0.7-2.8s-1.2-0.9-2.2-0.9c-1.4,0-2.4,0.4-3,1.3s-0.9,2.3-0.9,4.4
			v8.1h-3.2v-16.4h2.5l0.5,2.1h0.2c0.5-0.8,1.1-1.4,1.9-1.8c0.8-0.4,1.8-0.6,2.8-0.6c3.6,0,5.4,2,5.4,6V138z"/>
		<path fill="#FFFFFF" d="M1370.4,138.3c-2.4,0-4.2-0.7-5.5-2.2s-2-3.5-2-6.1c0-2.7,0.6-4.8,1.8-6.3s2.9-2.3,5.1-2.3
			c2,0,3.6,0.7,4.7,2c1.2,1.3,1.7,3.1,1.7,5.4v1.9h-10.1c0,1.6,0.4,2.8,1.2,3.7c0.7,0.9,1.8,1.3,3.2,1.3c0.9,0,1.7-0.1,2.5-0.3
			c0.8-0.2,1.6-0.5,2.5-0.9v2.8c-0.8,0.4-1.6,0.7-2.4,0.9C1372.4,138.2,1371.4,138.3,1370.4,138.3z M1369.8,124c-1,0-1.8,0.4-2.5,1
			c-0.6,0.7-1,1.7-1.1,3.1h6.9c0-1.4-0.3-2.4-0.9-3.1S1370.9,124,1369.8,124z"/>
		<path fill="#FFFFFF" d="M1390.8,138h-3.2v-21.6h11.3v3h-8v6.8h7.5v3h-7.5V138z"/>
		<path fill="#FFFFFF" d="M1415.5,129.8c0,2.7-0.6,4.8-1.9,6.3c-1.3,1.5-3,2.2-5.3,2.2c-1.4,0-2.7-0.3-3.7-1c-1.1-0.7-1.9-1.7-2.5-3
			c-0.6-1.3-0.9-2.8-0.9-4.5c0-2.7,0.6-4.7,1.9-6.2c1.3-1.5,3-2.2,5.3-2.2c2.2,0,3.9,0.8,5.2,2.3
			C1414.9,125.2,1415.5,127.2,1415.5,129.8z M1404.5,129.8c0,3.8,1.3,5.7,3.9,5.7c2.6,0,3.8-1.9,3.8-5.7c0-3.7-1.3-5.6-3.9-5.6
			c-1.3,0-2.3,0.5-2.9,1.4C1404.8,126.6,1404.5,128,1404.5,129.8z"/>
		<path fill="#FFFFFF" d="M1432.6,129.8c0,2.7-0.6,4.8-1.9,6.3c-1.3,1.5-3,2.2-5.3,2.2c-1.4,0-2.7-0.3-3.7-1c-1.1-0.7-1.9-1.7-2.5-3
			c-0.6-1.3-0.9-2.8-0.9-4.5c0-2.7,0.6-4.7,1.9-6.2c1.3-1.5,3-2.2,5.3-2.2c2.2,0,3.9,0.8,5.2,2.3
			C1432,125.2,1432.6,127.2,1432.6,129.8z M1421.6,129.8c0,3.8,1.3,5.7,3.9,5.7c2.6,0,3.8-1.9,3.8-5.7c0-3.7-1.3-5.6-3.9-5.6
			c-1.3,0-2.3,0.5-2.9,1.4C1421.9,126.6,1421.6,128,1421.6,129.8z"/>
		<path fill="#FFFFFF" d="M1442,135.5c0.8,0,1.6-0.1,2.4-0.4v2.6c-0.4,0.2-0.8,0.3-1.4,0.4s-1.1,0.2-1.7,0.2c-3,0-4.6-1.7-4.6-5.2
			v-8.8h-2.1v-1.5l2.2-1.3l1.1-3.5h2v3.6h4.3v2.6h-4.3v8.8c0,0.8,0.2,1.5,0.6,1.9C1440.8,135.3,1441.3,135.5,1442,135.5z"/>
		<path fill="#FFFFFF" d="M1455.1,121.3c1.9,0,3.4,0.7,4.4,2.2c1.1,1.5,1.6,3.6,1.6,6.2c0,2.7-0.5,4.8-1.6,6.3
			c-1.1,1.5-2.5,2.2-4.4,2.2c-1.9,0-3.4-0.7-4.5-2.2h-0.2l-0.6,1.9h-2.4v-23h3.2v5.5c0,0.4,0,1-0.1,1.8c0,0.8-0.1,1.3-0.1,1.5h0.1
			C1451.6,122.2,1453.1,121.3,1455.1,121.3z M1454.2,124.2c-1.3,0-2.2,0.4-2.8,1.2c-0.6,0.8-0.9,2.2-0.9,4.1v0.2
			c0,2,0.3,3.4,0.9,4.3c0.6,0.9,1.5,1.3,2.9,1.3c1.1,0,2-0.5,2.6-1.5c0.6-1,0.9-2.4,0.9-4.2C1457.8,126,1456.6,124.2,1454.2,124.2z"
			/>
		<path fill="#FFFFFF" d="M1474.3,138l-0.6-2.3h-0.1c-0.7,1-1.5,1.7-2.2,2c-0.7,0.4-1.7,0.5-2.8,0.5c-1.5,0-2.6-0.4-3.5-1.3
			c-0.8-0.9-1.3-2.1-1.3-3.7c0-1.7,0.6-3,1.7-3.8c1.2-0.9,2.9-1.3,5.3-1.4l2.6-0.1v-0.9c0-1-0.2-1.8-0.7-2.3s-1.2-0.8-2.1-0.8
			c-0.8,0-1.5,0.1-2.2,0.4c-0.7,0.2-1.4,0.5-2.1,0.9l-1-2.5c0.8-0.5,1.7-0.8,2.7-1.1c1-0.2,1.9-0.4,2.8-0.4c1.9,0,3.4,0.5,4.4,1.4
			s1.5,2.3,1.5,4.3v11H1474.3z M1469.5,135.6c1.2,0,2.1-0.4,2.8-1.1c0.7-0.7,1.1-1.7,1.1-3v-1.4l-1.9,0.1c-1.5,0.1-2.6,0.3-3.3,0.8
			c-0.7,0.5-1,1.2-1,2.2c0,0.7,0.2,1.3,0.6,1.7C1468.1,135.4,1468.7,135.6,1469.5,135.6z"/>
		<path fill="#FFFFFF" d="M1484.2,138h-3.2v-23h3.2V138z"/>
		<path fill="#FFFFFF" d="M1492.1,138h-3.2v-23h3.2V138z"/>
		<path fill="#FFFFFF" d="M1512.8,119.1c-1.9,0-3.4,0.7-4.4,2.2c-1.1,1.4-1.6,3.4-1.6,6c0,2.7,0.5,4.7,1.6,6c1,1.4,2.5,2,4.5,2
			c0.8,0,1.7-0.1,2.5-0.3s1.6-0.4,2.5-0.7v3c-1.6,0.6-3.3,1-5.3,1c-2.9,0-5.2-1-6.7-2.9c-1.6-1.9-2.4-4.7-2.4-8.2
			c0-2.2,0.4-4.2,1.1-5.9c0.8-1.7,1.9-3,3.3-3.9c1.4-0.9,3.1-1.3,5.1-1.3c2,0,3.9,0.5,5.7,1.4l-1.2,2.9c-0.7-0.3-1.4-0.6-2.1-0.9
			C1514.4,119.2,1513.6,119.1,1512.8,119.1z"/>
		<path fill="#FFFFFF" d="M1524.9,138h-3.2v-23h3.2V138z"/>
		<path fill="#FFFFFF" d="M1540.1,138l-0.5-2.1h-0.2c-0.4,0.8-1.1,1.4-1.9,1.8s-1.8,0.7-2.8,0.7c-1.8,0-3.2-0.5-4.1-1.5
			c-0.9-1-1.4-2.5-1.4-4.5v-10.7h3.2v10.1c0,1.3,0.2,2.2,0.7,2.8c0.5,0.6,1.2,0.9,2.2,0.9c1.3,0,2.3-0.4,3-1.3c0.6-0.9,1-2.3,1-4.4
			v-8.1h3.2V138H1540.1z"/>
		<path fill="#FFFFFF" d="M1555,121.3c1.9,0,3.4,0.7,4.4,2.2c1.1,1.5,1.6,3.6,1.6,6.2c0,2.7-0.5,4.8-1.6,6.3
			c-1.1,1.5-2.5,2.2-4.4,2.2c-1.9,0-3.4-0.7-4.5-2.2h-0.2l-0.6,1.9h-2.4v-23h3.2v5.5c0,0.4,0,1-0.1,1.8c0,0.8-0.1,1.3-0.1,1.5h0.1
			C1551.5,122.2,1553,121.3,1555,121.3z M1554.1,124.2c-1.3,0-2.2,0.4-2.8,1.2c-0.6,0.8-0.9,2.2-0.9,4.1v0.2c0,2,0.3,3.4,0.9,4.3
			c0.6,0.9,1.5,1.3,2.9,1.3c1.1,0,2-0.5,2.6-1.5c0.6-1,0.9-2.4,0.9-4.2C1557.7,126,1556.5,124.2,1554.1,124.2z"/>
	</g>
	<circle fill="#FFFFFF" cx="422.2" cy="15.3" r="7.7"/>
	<circle fill="#FFFFFF" cx="422.2" cy="113.7" r="7.7"/>
	<g>
		<path fill="#FFFFFF" d="M15.6,155.6c0,2.2-0.8,3.9-2.3,5.1c-1.6,1.2-3.7,1.8-6.5,1.8c-2.8,0-5-0.4-6.8-1.3v-3.8
			c1.1,0.5,2.3,0.9,3.5,1.2c1.2,0.3,2.4,0.4,3.5,0.4c1.6,0,2.7-0.3,3.5-0.9s1.1-1.4,1.1-2.4c0-0.9-0.3-1.7-1-2.3
			c-0.7-0.6-2.1-1.4-4.3-2.2c-2.2-0.9-3.8-1.9-4.7-3.1s-1.4-2.5-1.4-4.2c0-2,0.7-3.6,2.2-4.8c1.4-1.2,3.4-1.7,5.8-1.7
			c2.3,0,4.6,0.5,7,1.5l-1.3,3.2c-2.2-0.9-4.1-1.4-5.8-1.4c-1.3,0-2.3,0.3-2.9,0.8c-0.7,0.6-1,1.3-1,2.2c0,0.6,0.1,1.2,0.4,1.6
			c0.3,0.4,0.7,0.9,1.3,1.3c0.6,0.4,1.7,0.9,3.3,1.6c1.8,0.7,3.1,1.4,3.9,2.1s1.4,1.4,1.8,2.2C15.4,153.5,15.6,154.5,15.6,155.6z"/>
		<path fill="#FFFFFF" d="M19.6,138.9c0-0.7,0.2-1.2,0.6-1.6s0.9-0.6,1.6-0.6c0.7,0,1.2,0.2,1.6,0.6s0.6,0.9,0.6,1.6
			c0,0.7-0.2,1.2-0.6,1.6c-0.4,0.4-0.9,0.6-1.6,0.6c-0.7,0-1.3-0.2-1.6-0.6C19.8,140.1,19.6,139.6,19.6,138.9z M23.8,162.2h-3.9
			v-18.4h3.9V162.2z"/>
		<path fill="#FFFFFF" d="M45.5,162.2h-3.9v-11.3c0-1.4-0.3-2.5-0.9-3.2c-0.6-0.7-1.5-1-2.7-1c-1.7,0-2.9,0.5-3.6,1.5
			c-0.8,1-1.1,2.6-1.1,4.9v9.2h-3.9v-18.4h3.1l0.5,2.4h0.2c0.6-0.9,1.3-1.6,2.4-2c1-0.5,2.2-0.7,3.4-0.7c4.4,0,6.6,2.2,6.6,6.7
			V162.2z"/>
		<path fill="#FFFFFF" d="M58.4,162.5c-2.8,0-4.9-0.8-6.3-2.4c-1.4-1.6-2.2-4-2.2-7c0-3.1,0.8-5.5,2.3-7.1c1.5-1.7,3.7-2.5,6.6-2.5
			c1.9,0,3.7,0.4,5.2,1.1l-1.2,3.1c-1.7-0.6-3-1-4.1-1c-3.2,0-4.8,2.1-4.8,6.3c0,2.1,0.4,3.6,1.2,4.6c0.8,1,2,1.6,3.5,1.6
			c1.7,0,3.4-0.4,4.9-1.3v3.4c-0.7,0.4-1.4,0.7-2.2,0.9C60.5,162.4,59.5,162.5,58.4,162.5z"/>
		<path fill="#FFFFFF" d="M75.9,162.5c-2.9,0-5.1-0.8-6.7-2.5c-1.6-1.7-2.4-4-2.4-6.9c0-3,0.7-5.4,2.2-7.1c1.5-1.7,3.6-2.6,6.2-2.6
			c2.4,0,4.3,0.7,5.8,2.2c1.4,1.5,2.1,3.5,2.1,6.1v2.1H70.8c0.1,1.8,0.5,3.2,1.4,4.1s2.2,1.4,3.8,1.4c1.1,0,2.1-0.1,3-0.3
			c0.9-0.2,1.9-0.5,3-1v3.2c-1,0.5-1.9,0.8-2.9,1C78.3,162.4,77.1,162.5,75.9,162.5z M75.2,146.4c-1.2,0-2.2,0.4-3,1.2
			c-0.7,0.8-1.2,1.9-1.3,3.4h8.4c0-1.5-0.4-2.7-1.1-3.5C77.4,146.8,76.4,146.4,75.2,146.4z"/>
		<path fill="#FFFFFF" d="M97.7,162.2h-3.9v-15.7c0-1.9,0-3.4,0.1-4.5c-0.3,0.3-0.6,0.6-0.9,0.9c-0.4,0.3-1.6,1.3-3.7,3.1l-2-2.5
			l7.2-5.6h3.3V162.2z"/>
		<path fill="#FFFFFF" d="M113.9,137.5c2.3,0,4.1,0.5,5.5,1.6c1.3,1.1,2,2.5,2,4.3c0,2.5-1.5,4.5-4.5,6c1.9,1,3.3,2,4.1,3
			c0.8,1.1,1.2,2.2,1.2,3.5c0,2-0.7,3.6-2.2,4.8s-3.5,1.8-6,1.8c-2.6,0-4.7-0.6-6.1-1.7c-1.5-1.1-2.2-2.7-2.2-4.8
			c0-1.4,0.4-2.6,1.1-3.7s2-2,3.7-2.9c-1.5-0.9-2.5-1.8-3.2-2.8c-0.6-1-0.9-2.1-0.9-3.3c0-1.8,0.7-3.2,2.1-4.2
			C109.8,138,111.6,137.5,113.9,137.5z M109.3,155.9c0,1.2,0.4,2,1.2,2.7s1.9,1,3.3,1c1.4,0,2.5-0.3,3.3-1c0.8-0.7,1.2-1.6,1.2-2.7
			c0-0.9-0.4-1.7-1.1-2.5c-0.7-0.7-1.8-1.4-3.3-2.1l-0.5-0.2c-1.5,0.6-2.5,1.4-3.2,2.1C109.7,154,109.3,154.9,109.3,155.9z
			 M113.8,140.5c-1.1,0-2,0.3-2.7,0.8c-0.7,0.5-1,1.3-1,2.2c0,0.6,0.1,1.1,0.4,1.5c0.2,0.5,0.6,0.9,1.1,1.2c0.5,0.4,1.3,0.8,2.4,1.3
			c1.3-0.6,2.3-1.2,2.8-1.9c0.5-0.6,0.8-1.4,0.8-2.3c0-0.9-0.3-1.7-1-2.2C115.9,140.8,115,140.5,113.8,140.5z"/>
		<path fill="#FFFFFF" d="M133.3,147c2.5,0,4.4,0.6,5.8,1.9c1.4,1.3,2.1,3.1,2.1,5.3c0,2.6-0.8,4.6-2.4,6.1
			c-1.6,1.5-3.9,2.2-6.9,2.2c-2.7,0-4.9-0.4-6.4-1.3v-3.5c0.9,0.5,1.9,0.9,3.1,1.2c1.2,0.3,2.2,0.4,3.2,0.4c1.8,0,3.1-0.4,4-1.2
			c0.9-0.8,1.4-1.9,1.4-3.5c0-2.9-1.9-4.4-5.6-4.4c-0.5,0-1.2,0.1-1.9,0.2s-1.4,0.2-2,0.4l-1.7-1l0.9-11.9h12.6v3.5h-9.2l-0.5,6
			c0.4-0.1,0.9-0.1,1.4-0.2C131.8,147,132.5,147,133.3,147z"/>
		<path fill="#FFFFFF" d="M161,148.2c0,4.8-1,8.4-2.9,10.7c-1.9,2.4-4.8,3.5-8.7,3.5c-1.5,0-2.5-0.1-3.2-0.3v-3.3c1,0.3,2,0.4,3,0.4
			c2.6,0,4.6-0.7,5.9-2.1c1.3-1.4,2-3.6,2.1-6.7H157c-0.7,1-1.4,1.7-2.4,2.2c-0.9,0.4-2,0.7-3.3,0.7c-2.2,0-3.8-0.7-5.1-2
			c-1.2-1.3-1.8-3.2-1.8-5.5c0-2.5,0.7-4.6,2.1-6.1s3.4-2.3,5.8-2.3c1.7,0,3.2,0.4,4.5,1.3s2.3,2.1,3,3.7
			C160.6,144.1,161,146,161,148.2z M152.5,140.8c-1.4,0-2.4,0.4-3.1,1.3s-1.1,2.1-1.1,3.7c0,1.4,0.3,2.5,1,3.3
			c0.7,0.8,1.7,1.2,3.1,1.2c1.3,0,2.4-0.4,3.3-1.2c0.9-0.8,1.3-1.7,1.3-2.8c0-1-0.2-1.9-0.6-2.8c-0.4-0.9-0.9-1.5-1.6-2
			C154.2,141,153.4,140.8,152.5,140.8z"/>
	</g>
	<line fill="none" stroke="#FFFFFF" stroke-width="1.8928" stroke-miterlimit="10" x1="0.1" y1="31.7" x2="404.3" y2="31.7"/>
	<g>
		<path fill="#FFFFFF" d="M15.6,56.1c0,2.2-0.8,3.9-2.3,5.1C11.7,62.4,9.5,63,6.8,63c-2.8,0-5-0.4-6.8-1.3V58
			c1.1,0.5,2.3,0.9,3.5,1.2c1.2,0.3,2.4,0.4,3.5,0.4c1.6,0,2.7-0.3,3.5-0.9s1.1-1.4,1.1-2.4c0-0.9-0.3-1.7-1-2.3
			c-0.7-0.6-2.1-1.4-4.3-2.2c-2.2-0.9-3.8-1.9-4.7-3.1s-1.4-2.5-1.4-4.2c0-2,0.7-3.6,2.2-4.8C3.9,38.6,5.8,38,8.3,38
			c2.3,0,4.6,0.5,7,1.5l-1.3,3.2c-2.2-0.9-4.1-1.4-5.8-1.4c-1.3,0-2.3,0.3-2.9,0.8c-0.7,0.6-1,1.3-1,2.2c0,0.6,0.1,1.2,0.4,1.6
			c0.3,0.4,0.7,0.9,1.3,1.3c0.6,0.4,1.7,0.9,3.3,1.6c1.8,0.7,3.1,1.4,3.9,2.1c0.8,0.6,1.4,1.4,1.8,2.2C15.4,54,15.6,55,15.6,56.1z"
			/>
		<path fill="#FFFFFF" d="M19.6,39.4c0-0.7,0.2-1.2,0.6-1.6s0.9-0.6,1.6-0.6c0.7,0,1.2,0.2,1.6,0.6s0.6,0.9,0.6,1.6
			c0,0.7-0.2,1.2-0.6,1.6s-0.9,0.6-1.6,0.6c-0.7,0-1.3-0.2-1.6-0.6S19.6,40.1,19.6,39.4z M23.8,62.7h-3.9V44.3h3.9V62.7z"/>
		<path fill="#FFFFFF" d="M45.5,62.7h-3.9V51.4c0-1.4-0.3-2.5-0.9-3.2c-0.6-0.7-1.5-1-2.7-1c-1.7,0-2.9,0.5-3.6,1.5
			c-0.8,1-1.1,2.6-1.1,4.9v9.2h-3.9V44.3h3.1l0.5,2.4h0.2c0.6-0.9,1.3-1.6,2.4-2c1-0.5,2.2-0.7,3.4-0.7c4.4,0,6.6,2.2,6.6,6.7V62.7z
			"/>
		<path fill="#FFFFFF" d="M58.4,63c-2.8,0-4.9-0.8-6.3-2.4c-1.4-1.6-2.2-4-2.2-7c0-3.1,0.8-5.5,2.3-7.1s3.7-2.5,6.6-2.5
			c1.9,0,3.7,0.4,5.2,1.1l-1.2,3.1c-1.7-0.6-3-1-4.1-1c-3.2,0-4.8,2.1-4.8,6.3c0,2.1,0.4,3.6,1.2,4.6s2,1.6,3.5,1.6
			c1.7,0,3.4-0.4,4.9-1.3v3.4c-0.7,0.4-1.4,0.7-2.2,0.9C60.5,62.9,59.5,63,58.4,63z"/>
		<path fill="#FFFFFF" d="M75.9,63c-2.9,0-5.1-0.8-6.7-2.5s-2.4-4-2.4-6.9c0-3,0.7-5.4,2.2-7.1c1.5-1.7,3.6-2.6,6.2-2.6
			c2.4,0,4.3,0.7,5.8,2.2c1.4,1.5,2.1,3.5,2.1,6.1v2.1H70.8c0.1,1.8,0.5,3.2,1.4,4.1s2.2,1.4,3.8,1.4c1.1,0,2.1-0.1,3-0.3
			c0.9-0.2,1.9-0.5,3-1v3.2c-1,0.5-1.9,0.8-2.9,1C78.3,62.9,77.1,63,75.9,63z M75.2,46.9c-1.2,0-2.2,0.4-3,1.2
			c-0.7,0.8-1.2,1.9-1.3,3.4h8.4c0-1.5-0.4-2.7-1.1-3.5S76.4,46.9,75.2,46.9z"/>
		<path fill="#FFFFFF" d="M97.7,62.7h-3.9V47c0-1.9,0-3.4,0.1-4.5c-0.3,0.3-0.6,0.6-0.9,0.9c-0.4,0.3-1.6,1.3-3.7,3.1l-2-2.5
			l7.2-5.6h3.3V62.7z"/>
		<path fill="#FFFFFF" d="M113.9,38c2.3,0,4.1,0.5,5.5,1.6c1.3,1.1,2,2.5,2,4.3c0,2.5-1.5,4.5-4.5,6c1.9,1,3.3,2,4.1,3
			c0.8,1.1,1.2,2.2,1.2,3.5c0,2-0.7,3.6-2.2,4.8s-3.5,1.8-6,1.8c-2.6,0-4.7-0.6-6.1-1.7c-1.5-1.1-2.2-2.7-2.2-4.8
			c0-1.4,0.4-2.6,1.1-3.7s2-2,3.7-2.9c-1.5-0.9-2.5-1.8-3.2-2.8c-0.6-1-0.9-2.1-0.9-3.3c0-1.8,0.7-3.2,2.1-4.2
			C109.8,38.6,111.6,38,113.9,38z M109.3,56.4c0,1.2,0.4,2,1.2,2.7s1.9,1,3.3,1c1.4,0,2.5-0.3,3.3-1s1.2-1.6,1.2-2.7
			c0-0.9-0.4-1.7-1.1-2.5c-0.7-0.7-1.8-1.4-3.3-2.1l-0.5-0.2c-1.5,0.6-2.5,1.4-3.2,2.1C109.7,54.5,109.3,55.4,109.3,56.4z M113.8,41
			c-1.1,0-2,0.3-2.7,0.8c-0.7,0.5-1,1.3-1,2.2c0,0.6,0.1,1.1,0.4,1.5c0.2,0.5,0.6,0.9,1.1,1.2c0.5,0.4,1.3,0.8,2.4,1.3
			c1.3-0.6,2.3-1.2,2.8-1.9c0.5-0.6,0.8-1.4,0.8-2.3c0-0.9-0.3-1.7-1-2.2C115.9,41.3,115,41,113.8,41z"/>
		<path fill="#FFFFFF" d="M133.3,47.5c2.5,0,4.4,0.6,5.8,1.9c1.4,1.3,2.1,3.1,2.1,5.3c0,2.6-0.8,4.6-2.4,6.1
			c-1.6,1.5-3.9,2.2-6.9,2.2c-2.7,0-4.9-0.4-6.4-1.3v-3.5c0.9,0.5,1.9,0.9,3.1,1.2c1.2,0.3,2.2,0.4,3.2,0.4c1.8,0,3.1-0.4,4-1.2
			c0.9-0.8,1.4-1.9,1.4-3.5c0-2.9-1.9-4.4-5.6-4.4c-0.5,0-1.2,0.1-1.9,0.2s-1.4,0.2-2,0.4l-1.7-1l0.9-11.9h12.6v3.5h-9.2l-0.5,6
			c0.4-0.1,0.9-0.1,1.4-0.2C131.8,47.5,132.5,47.5,133.3,47.5z"/>
		<path fill="#FFFFFF" d="M152.7,38c2.3,0,4.1,0.5,5.5,1.6c1.3,1.1,2,2.5,2,4.3c0,2.5-1.5,4.5-4.5,6c1.9,1,3.3,2,4.1,3
			c0.8,1.1,1.2,2.2,1.2,3.5c0,2-0.7,3.6-2.2,4.8s-3.5,1.8-6,1.8c-2.6,0-4.7-0.6-6.1-1.7c-1.5-1.1-2.2-2.7-2.2-4.8
			c0-1.4,0.4-2.6,1.1-3.7s2-2,3.7-2.9c-1.5-0.9-2.5-1.8-3.2-2.8c-0.6-1-0.9-2.1-0.9-3.3c0-1.8,0.7-3.2,2.1-4.2
			C148.7,38.6,150.5,38,152.7,38z M148.2,56.4c0,1.2,0.4,2,1.2,2.7s1.9,1,3.3,1c1.4,0,2.5-0.3,3.3-1s1.2-1.6,1.2-2.7
			c0-0.9-0.4-1.7-1.1-2.5c-0.7-0.7-1.8-1.4-3.3-2.1l-0.5-0.2c-1.5,0.6-2.5,1.4-3.2,2.1C148.6,54.5,148.2,55.4,148.2,56.4z M152.7,41
			c-1.1,0-2,0.3-2.7,0.8c-0.7,0.5-1,1.3-1,2.2c0,0.6,0.1,1.1,0.4,1.5c0.2,0.5,0.6,0.9,1.1,1.2c0.5,0.4,1.3,0.8,2.4,1.3
			c1.3-0.6,2.3-1.2,2.8-1.9c0.5-0.6,0.8-1.4,0.8-2.3c0-0.9-0.3-1.7-1-2.2C154.8,41.3,153.8,41,152.7,41z"/>
	</g>
	<g>
		<path fill="#FFFFFF" d="M103.3,119.7H100V110h-9.2v9.7h-3.3V98.1h3.3v8.8h9.2v-8.8h3.3V119.7z"/>
		<path fill="#FFFFFF" d="M117.7,119.7l-0.6-2.3h-0.1c-0.7,1-1.5,1.7-2.2,2c-0.7,0.4-1.7,0.5-2.8,0.5c-1.5,0-2.6-0.4-3.5-1.3
			s-1.3-2.1-1.3-3.7c0-1.7,0.6-3,1.7-3.8c1.2-0.9,2.9-1.3,5.3-1.4l2.6-0.1v-0.9c0-1-0.2-1.8-0.7-2.3s-1.2-0.8-2.1-0.8
			c-0.8,0-1.5,0.1-2.2,0.4c-0.7,0.2-1.4,0.5-2.1,0.9l-1-2.5c0.8-0.5,1.7-0.8,2.7-1.1c1-0.2,1.9-0.4,2.8-0.4c1.9,0,3.4,0.5,4.4,1.4
			c1,0.9,1.5,2.3,1.5,4.3v11H117.7z M112.9,117.3c1.2,0,2.1-0.4,2.8-1.1c0.7-0.7,1.1-1.7,1.1-3v-1.4l-1.9,0.1
			c-1.5,0.1-2.6,0.3-3.3,0.8c-0.7,0.5-1,1.2-1,2.2c0,0.7,0.2,1.3,0.6,1.7C111.5,117.1,112.1,117.3,112.9,117.3z"/>
		<path fill="#FFFFFF" d="M136.9,119.7l-2-7.6c-0.2-0.8-0.7-2.7-1.3-5.6h-0.1c-0.5,2.7-0.9,4.5-1.3,5.7l-2,7.6h-3.6l-4.2-16.4h3.3
			l1.9,8.1c0.4,2,0.7,3.7,0.9,5.1h0.1c0.1-0.7,0.2-1.5,0.4-2.5c0.2-0.9,0.3-1.6,0.5-2.1l2.3-8.6h3.5l2.2,8.6
			c0.1,0.5,0.3,1.2,0.5,2.2c0.2,1,0.3,1.8,0.4,2.3h0.1c0.1-1.2,0.5-2.9,1-5.1l2-8.1h3.2l-4.3,16.4H136.9z"/>
		<path fill="#FFFFFF" d="M153,117.2c0.8,0,1.6-0.1,2.4-0.4v2.6c-0.4,0.2-0.8,0.3-1.4,0.4s-1.1,0.2-1.7,0.2c-3,0-4.6-1.7-4.6-5.2
			V106h-2.1v-1.5l2.2-1.3l1.1-3.5h2v3.6h4.3v2.6h-4.3v8.8c0,0.8,0.2,1.5,0.6,1.9C151.8,117,152.4,117.2,153,117.2z"/>
		<path fill="#FFFFFF" d="M171.7,119.7h-3.2v-10.1c0-1.3-0.2-2.2-0.7-2.8c-0.5-0.6-1.2-0.9-2.2-0.9c-1.3,0-2.3,0.4-3,1.3
			c-0.6,0.9-1,2.3-1,4.4v8.1h-3.2v-23h3.2v5.8c0,0.9-0.1,1.9-0.2,3h0.2c0.4-0.8,1-1.4,1.8-1.8c0.8-0.4,1.7-0.7,2.7-0.7
			c3.7,0,5.5,2,5.5,6V119.7z"/>
		<path fill="#FFFFFF" d="M189.5,111.5c0,2.7-0.6,4.8-1.9,6.3c-1.3,1.5-3,2.2-5.3,2.2c-1.4,0-2.7-0.3-3.7-1c-1.1-0.7-1.9-1.7-2.5-3
			s-0.9-2.8-0.9-4.5c0-2.7,0.6-4.7,1.9-6.2c1.3-1.5,3-2.2,5.3-2.2c2.2,0,3.9,0.8,5.2,2.3S189.5,108.9,189.5,111.5z M178.5,111.5
			c0,3.8,1.3,5.7,3.9,5.7c2.6,0,3.8-1.9,3.8-5.7c0-3.7-1.3-5.6-3.9-5.6c-1.3,0-2.3,0.5-2.9,1.4C178.8,108.3,178.5,109.7,178.5,111.5
			z"/>
		<path fill="#FFFFFF" d="M200.9,103c0.6,0,1.2,0,1.6,0.1l-0.3,3.2c-0.5-0.1-0.9-0.2-1.4-0.2c-1.3,0-2.3,0.5-3.1,1.4
			c-0.8,0.9-1.2,2.1-1.2,3.5v8.5h-3.2v-16.4h2.5l0.4,2.9h0.2c0.5-1,1.2-1.7,2-2.3S200,103,200.9,103z"/>
		<path fill="#FFFFFF" d="M218.6,119.7h-3.2v-10.1c0-1.3-0.2-2.2-0.7-2.8c-0.5-0.6-1.2-0.9-2.2-0.9c-1.4,0-2.4,0.4-3,1.3
			c-0.6,0.9-0.9,2.3-0.9,4.4v8.1h-3.2v-16.4h2.5l0.5,2.1h0.2c0.5-0.8,1.1-1.4,1.9-1.8c0.8-0.4,1.8-0.6,2.8-0.6c3.6,0,5.4,2,5.4,6
			V119.7z"/>
		<path fill="#FFFFFF" d="M233.9,119.7h-3.2V98.1H242v3h-8v6.8h7.5v3h-7.5V119.7z"/>
		<path fill="#FFFFFF" d="M258.7,111.5c0,2.7-0.6,4.8-1.9,6.3c-1.3,1.5-3,2.2-5.3,2.2c-1.4,0-2.7-0.3-3.7-1c-1.1-0.7-1.9-1.7-2.5-3
			s-0.9-2.8-0.9-4.5c0-2.7,0.6-4.7,1.9-6.2c1.3-1.5,3-2.2,5.3-2.2c2.2,0,3.9,0.8,5.2,2.3S258.7,108.9,258.7,111.5z M247.7,111.5
			c0,3.8,1.3,5.7,3.9,5.7c2.6,0,3.8-1.9,3.8-5.7c0-3.7-1.3-5.6-3.9-5.6c-1.3,0-2.3,0.5-2.9,1.4C248,108.3,247.7,109.7,247.7,111.5z"
			/>
		<path fill="#FFFFFF" d="M275.8,111.5c0,2.7-0.6,4.8-1.9,6.3c-1.3,1.5-3,2.2-5.3,2.2c-1.4,0-2.7-0.3-3.7-1c-1.1-0.7-1.9-1.7-2.5-3
			s-0.9-2.8-0.9-4.5c0-2.7,0.6-4.7,1.9-6.2c1.3-1.5,3-2.2,5.3-2.2c2.2,0,3.9,0.8,5.2,2.3S275.8,108.9,275.8,111.5z M264.8,111.5
			c0,3.8,1.3,5.7,3.9,5.7c2.6,0,3.8-1.9,3.8-5.7c0-3.7-1.3-5.6-3.9-5.6c-1.3,0-2.3,0.5-2.9,1.4C265.1,108.3,264.8,109.7,264.8,111.5
			z"/>
		<path fill="#FFFFFF" d="M285.1,117.2c0.8,0,1.6-0.1,2.4-0.4v2.6c-0.4,0.2-0.8,0.3-1.4,0.4s-1.1,0.2-1.7,0.2c-3,0-4.6-1.7-4.6-5.2
			V106h-2.1v-1.5l2.2-1.3l1.1-3.5h2v3.6h4.3v2.6H283v8.8c0,0.8,0.2,1.5,0.6,1.9C284,117,284.5,117.2,285.1,117.2z"/>
		<path fill="#FFFFFF" d="M298.2,103c1.9,0,3.4,0.7,4.4,2.2c1.1,1.5,1.6,3.6,1.6,6.2c0,2.7-0.5,4.8-1.6,6.3
			c-1.1,1.5-2.5,2.2-4.4,2.2c-1.9,0-3.4-0.7-4.5-2.2h-0.2l-0.6,1.9h-2.4v-23h3.2v5.5c0,0.4,0,1-0.1,1.8c0,0.8-0.1,1.3-0.1,1.5h0.1
			C294.7,103.9,296.2,103,298.2,103z M297.4,105.9c-1.3,0-2.2,0.4-2.8,1.2c-0.6,0.8-0.9,2.2-0.9,4.1v0.2c0,2,0.3,3.4,0.9,4.3
			c0.6,0.9,1.5,1.3,2.9,1.3c1.1,0,2-0.5,2.6-1.5s0.9-2.4,0.9-4.2C300.9,107.7,299.7,105.9,297.4,105.9z"/>
		<path fill="#FFFFFF" d="M317.4,119.7l-0.6-2.3h-0.1c-0.7,1-1.5,1.7-2.2,2c-0.7,0.4-1.7,0.5-2.8,0.5c-1.5,0-2.6-0.4-3.5-1.3
			s-1.3-2.1-1.3-3.7c0-1.7,0.6-3,1.7-3.8c1.2-0.9,2.9-1.3,5.3-1.4l2.6-0.1v-0.9c0-1-0.2-1.8-0.7-2.3s-1.2-0.8-2.1-0.8
			c-0.8,0-1.5,0.1-2.2,0.4c-0.7,0.2-1.4,0.5-2.1,0.9l-1-2.5c0.8-0.5,1.7-0.8,2.7-1.1c1-0.2,1.9-0.4,2.8-0.4c1.9,0,3.4,0.5,4.4,1.4
			c1,0.9,1.5,2.3,1.5,4.3v11H317.4z M312.6,117.3c1.2,0,2.1-0.4,2.8-1.1c0.7-0.7,1.1-1.7,1.1-3v-1.4l-1.9,0.1
			c-1.5,0.1-2.6,0.3-3.3,0.8c-0.7,0.5-1,1.2-1,2.2c0,0.7,0.2,1.3,0.6,1.7C311.2,117.1,311.8,117.3,312.6,117.3z"/>
		<path fill="#FFFFFF" d="M327.4,119.7h-3.2v-23h3.2V119.7z"/>
		<path fill="#FFFFFF" d="M335.2,119.7H332v-23h3.2V119.7z"/>
		<path fill="#FFFFFF" d="M355.9,100.8c-1.9,0-3.4,0.7-4.4,2.2c-1.1,1.4-1.6,3.4-1.6,6c0,2.7,0.5,4.7,1.6,6c1,1.4,2.5,2,4.5,2
			c0.8,0,1.7-0.1,2.5-0.3c0.8-0.2,1.6-0.4,2.5-0.7v3c-1.6,0.6-3.3,1-5.3,1c-2.9,0-5.2-1-6.7-2.9c-1.6-1.9-2.4-4.7-2.4-8.2
			c0-2.2,0.4-4.2,1.1-5.9c0.8-1.7,1.9-3,3.3-3.9c1.4-0.9,3.1-1.3,5.1-1.3c2,0,3.9,0.5,5.7,1.4l-1.2,2.9c-0.7-0.3-1.4-0.6-2.1-0.9
			C357.5,100.9,356.7,100.8,355.9,100.8z"/>
		<path fill="#FFFFFF" d="M368,119.7h-3.2v-23h3.2V119.7z"/>
		<path fill="#FFFFFF" d="M383.3,119.7l-0.5-2.1h-0.2c-0.4,0.8-1.1,1.4-1.9,1.8s-1.8,0.7-2.8,0.7c-1.8,0-3.2-0.5-4.1-1.5
			c-0.9-1-1.4-2.5-1.4-4.5v-10.7h3.2v10.1c0,1.3,0.2,2.2,0.7,2.8c0.5,0.6,1.2,0.9,2.2,0.9c1.3,0,2.3-0.4,3-1.3c0.6-0.9,1-2.3,1-4.4
			v-8.1h3.2v16.4H383.3z"/>
		<path fill="#FFFFFF" d="M398.1,103c1.9,0,3.4,0.7,4.4,2.2c1.1,1.5,1.6,3.6,1.6,6.2c0,2.7-0.5,4.8-1.6,6.3
			c-1.1,1.5-2.5,2.2-4.4,2.2c-1.9,0-3.4-0.7-4.5-2.2h-0.2l-0.6,1.9h-2.4v-23h3.2v5.5c0,0.4,0,1-0.1,1.8c0,0.8-0.1,1.3-0.1,1.5h0.1
			C394.6,103.9,396.1,103,398.1,103z M397.3,105.9c-1.3,0-2.2,0.4-2.8,1.2c-0.6,0.8-0.9,2.2-0.9,4.1v0.2c0,2,0.3,3.4,0.9,4.3
			c0.6,0.9,1.5,1.3,2.9,1.3c1.1,0,2-0.5,2.6-1.5s0.9-2.4,0.9-4.2C400.8,107.7,399.6,105.9,397.3,105.9z"/>
	</g>
	<polyline fill="none" stroke="#FFFFFF" stroke-width="1.8928" stroke-miterlimit="10" points="793,80.8 470.5,16 415,16 	"/>
	<g>
		<path fill="#FFFFFF" d="M85.4,23L79.6,5h-0.1c0.2,2.7,0.2,5.2,0.2,7.5V23h-3V1.4h4.6L87,18.6H87l5.7-17.2h4.6V23h-3.1V12.3
			c0-1.1,0-2.5,0.1-4.2c0-1.7,0.1-2.8,0.1-3.1h-0.1l-6,18H85.4z"/>
		<path fill="#FFFFFF" d="M108.9,23.3c-2.4,0-4.2-0.7-5.5-2.2s-2-3.5-2-6.1c0-2.7,0.6-4.8,1.8-6.3s2.9-2.3,5.1-2.3
			c2,0,3.6,0.7,4.7,2c1.2,1.3,1.7,3.1,1.7,5.4v1.9h-10.1c0,1.6,0.4,2.8,1.2,3.7c0.7,0.9,1.8,1.3,3.2,1.3c0.9,0,1.7-0.1,2.5-0.3
			c0.8-0.2,1.6-0.5,2.5-0.9v2.8c-0.8,0.4-1.6,0.7-2.4,0.9C110.8,23.2,109.9,23.3,108.9,23.3z M108.3,9c-1,0-1.8,0.4-2.5,1
			c-0.6,0.7-1,1.7-1.1,3.1h6.9c0-1.4-0.3-2.4-0.9-3.1S109.3,9,108.3,9z"/>
		<path fill="#FFFFFF" d="M121.6,23h-3.2V0h3.2V23z"/>
		<path fill="#FFFFFF" d="M134,6.4c1.9,0,3.4,0.7,4.4,2.2c1.1,1.5,1.6,3.6,1.6,6.2c0,2.7-0.5,4.8-1.6,6.3c-1.1,1.5-2.5,2.2-4.4,2.2
			c-1.9,0-3.4-0.7-4.5-2.2h-0.2l-0.6,1.9h-2.4V0h3.2v5.5c0,0.4,0,1-0.1,1.8c0,0.8-0.1,1.3-0.1,1.5h0.1C130.5,7.2,132,6.4,134,6.4z
			 M133.1,9.2c-1.3,0-2.2,0.4-2.8,1.2c-0.6,0.8-0.9,2.2-0.9,4.1v0.2c0,2,0.3,3.4,0.9,4.3c0.6,0.9,1.5,1.3,2.9,1.3
			c1.1,0,2-0.5,2.6-1.5c0.6-1,0.9-2.4,0.9-4.2C136.7,11.1,135.5,9.2,133.1,9.2z"/>
		<path fill="#FFFFFF" d="M157.1,14.8c0,2.7-0.6,4.8-1.9,6.3c-1.3,1.5-3,2.2-5.3,2.2c-1.4,0-2.7-0.3-3.7-1c-1.1-0.7-1.9-1.7-2.5-3
			c-0.6-1.3-0.9-2.8-0.9-4.5c0-2.7,0.6-4.7,1.9-6.2c1.3-1.5,3-2.2,5.3-2.2c2.2,0,3.9,0.8,5.2,2.3C156.5,10.2,157.1,12.2,157.1,14.8z
			 M146.1,14.8c0,3.8,1.3,5.7,3.9,5.7c2.6,0,3.8-1.9,3.8-5.7c0-3.7-1.3-5.6-3.9-5.6c-1.3,0-2.3,0.5-2.9,1.4
			C146.4,11.6,146.1,13,146.1,14.8z"/>
		<path fill="#FFFFFF" d="M171.5,23l-0.5-2.1h-0.2c-0.4,0.8-1.1,1.4-1.9,1.8s-1.8,0.7-2.8,0.7c-1.8,0-3.2-0.5-4.1-1.5
			c-0.9-1-1.4-2.5-1.4-4.5V6.7h3.2v10.1c0,1.3,0.2,2.2,0.7,2.8c0.5,0.6,1.2,0.9,2.2,0.9c1.3,0,2.3-0.4,3-1.3c0.6-0.9,1-2.3,1-4.4
			V6.7h3.2V23H171.5z"/>
		<path fill="#FFFFFF" d="M186.2,6.4c0.6,0,1.2,0,1.6,0.1l-0.3,3.2c-0.5-0.1-0.9-0.2-1.4-0.2c-1.3,0-2.3,0.5-3.1,1.4
			c-0.8,0.9-1.2,2.1-1.2,3.5V23h-3.2V6.7h2.5l0.4,2.9h0.2c0.5-1,1.2-1.8,2-2.3C184.4,6.6,185.3,6.4,186.2,6.4z"/>
		<path fill="#FFFFFF" d="M203.9,23h-3.2V13c0-1.3-0.2-2.2-0.7-2.8s-1.2-0.9-2.2-0.9c-1.4,0-2.4,0.4-3,1.3s-0.9,2.3-0.9,4.4V23h-3.2
			V6.7h2.5l0.5,2.1h0.2c0.5-0.8,1.1-1.4,1.9-1.8c0.8-0.4,1.8-0.6,2.8-0.6c3.6,0,5.4,2,5.4,6V23z"/>
		<path fill="#FFFFFF" d="M215,23.3c-2.4,0-4.2-0.7-5.5-2.2s-2-3.5-2-6.1c0-2.7,0.6-4.8,1.8-6.3s2.9-2.3,5.1-2.3c2,0,3.6,0.7,4.7,2
			c1.2,1.3,1.7,3.1,1.7,5.4v1.9h-10.1c0,1.6,0.4,2.8,1.2,3.7c0.7,0.9,1.8,1.3,3.2,1.3c0.9,0,1.7-0.1,2.5-0.3
			c0.8-0.2,1.6-0.5,2.5-0.9v2.8c-0.8,0.4-1.6,0.7-2.4,0.9C217,23.2,216,23.3,215,23.3z M214.4,9c-1,0-1.8,0.4-2.5,1
			c-0.6,0.7-1,1.7-1.1,3.1h6.9c0-1.4-0.3-2.4-0.9-3.1S215.4,9,214.4,9z"/>
		<path fill="#FFFFFF" d="M235.4,23h-3.2V1.4h11.3v3h-8v6.8h7.5v3h-7.5V23z"/>
		<path fill="#FFFFFF" d="M260.1,14.8c0,2.7-0.6,4.8-1.9,6.3c-1.3,1.5-3,2.2-5.3,2.2c-1.4,0-2.7-0.3-3.7-1c-1.1-0.7-1.9-1.7-2.5-3
			c-0.6-1.3-0.9-2.8-0.9-4.5c0-2.7,0.6-4.7,1.9-6.2c1.3-1.5,3-2.2,5.3-2.2c2.2,0,3.9,0.8,5.2,2.3C259.5,10.2,260.1,12.2,260.1,14.8z
			 M249.1,14.8c0,3.8,1.3,5.7,3.9,5.7c2.6,0,3.8-1.9,3.8-5.7c0-3.7-1.3-5.6-3.9-5.6c-1.3,0-2.3,0.5-2.9,1.4
			C249.4,11.6,249.1,13,249.1,14.8z"/>
		<path fill="#FFFFFF" d="M277.2,14.8c0,2.7-0.6,4.8-1.9,6.3c-1.3,1.5-3,2.2-5.3,2.2c-1.4,0-2.7-0.3-3.7-1c-1.1-0.7-1.9-1.7-2.5-3
			c-0.6-1.3-0.9-2.8-0.9-4.5c0-2.7,0.6-4.7,1.9-6.2c1.3-1.5,3-2.2,5.3-2.2c2.2,0,3.9,0.8,5.2,2.3C276.6,10.2,277.2,12.2,277.2,14.8z
			 M266.2,14.8c0,3.8,1.3,5.7,3.9,5.7c2.6,0,3.8-1.9,3.8-5.7c0-3.7-1.3-5.6-3.9-5.6c-1.3,0-2.3,0.5-2.9,1.4
			C266.5,11.6,266.2,13,266.2,14.8z"/>
		<path fill="#FFFFFF" d="M286.6,20.5c0.8,0,1.6-0.1,2.4-0.4v2.6c-0.4,0.2-0.8,0.3-1.4,0.4s-1.1,0.2-1.7,0.2c-3,0-4.6-1.7-4.6-5.2
			V9.3h-2.1V7.7l2.2-1.3l1.1-3.5h2v3.6h4.3v2.6h-4.3V18c0,0.8,0.2,1.5,0.6,1.9C285.4,20.3,285.9,20.5,286.6,20.5z"/>
		<path fill="#FFFFFF" d="M299.7,6.4c1.9,0,3.4,0.7,4.4,2.2c1.1,1.5,1.6,3.6,1.6,6.2c0,2.7-0.5,4.8-1.6,6.3
			c-1.1,1.5-2.5,2.2-4.4,2.2c-1.9,0-3.4-0.7-4.5-2.2h-0.2l-0.6,1.9h-2.4V0h3.2v5.5c0,0.4,0,1-0.1,1.8c0,0.8-0.1,1.3-0.1,1.5h0.1
			C296.2,7.2,297.7,6.4,299.7,6.4z M298.8,9.2c-1.3,0-2.2,0.4-2.8,1.2c-0.6,0.8-0.9,2.2-0.9,4.1v0.2c0,2,0.3,3.4,0.9,4.3
			c0.6,0.9,1.5,1.3,2.9,1.3c1.1,0,2-0.5,2.6-1.5c0.6-1,0.9-2.4,0.9-4.2C302.4,11.1,301.2,9.2,298.8,9.2z"/>
		<path fill="#FFFFFF" d="M318.8,23l-0.6-2.3h-0.1c-0.7,1-1.5,1.7-2.2,2c-0.7,0.4-1.7,0.5-2.8,0.5c-1.5,0-2.6-0.4-3.5-1.3
			c-0.8-0.9-1.3-2.1-1.3-3.7c0-1.7,0.6-3,1.7-3.8c1.2-0.9,2.9-1.3,5.3-1.4L318,13v-0.9c0-1-0.2-1.8-0.7-2.3S316.1,9,315.2,9
			c-0.8,0-1.5,0.1-2.2,0.4c-0.7,0.2-1.4,0.5-2.1,0.9l-1-2.5c0.8-0.5,1.7-0.8,2.7-1.1c1-0.2,1.9-0.4,2.8-0.4c1.9,0,3.4,0.5,4.4,1.4
			s1.5,2.3,1.5,4.3v11H318.8z M314.1,20.6c1.2,0,2.1-0.4,2.8-1.1c0.7-0.7,1.1-1.7,1.1-3v-1.4l-1.9,0.1c-1.5,0.1-2.6,0.3-3.3,0.8
			c-0.7,0.5-1,1.2-1,2.2c0,0.7,0.2,1.3,0.6,1.7C312.7,20.4,313.3,20.6,314.1,20.6z"/>
		<path fill="#FFFFFF" d="M328.8,23h-3.2V0h3.2V23z"/>
		<path fill="#FFFFFF" d="M336.6,23h-3.2V0h3.2V23z"/>
		<path fill="#FFFFFF" d="M357.4,4.1c-1.9,0-3.4,0.7-4.4,2.2c-1.1,1.4-1.6,3.4-1.6,6c0,2.7,0.5,4.7,1.6,6c1,1.4,2.5,2,4.5,2
			c0.8,0,1.7-0.1,2.5-0.3s1.6-0.4,2.5-0.7v3c-1.6,0.6-3.3,1-5.3,1c-2.9,0-5.2-1-6.7-2.9c-1.6-1.9-2.4-4.7-2.4-8.2
			c0-2.2,0.4-4.2,1.1-5.9c0.8-1.7,1.9-3,3.3-3.9c1.4-0.9,3.1-1.3,5.1-1.3c2,0,3.9,0.5,5.7,1.4l-1.2,2.9c-0.7-0.3-1.4-0.6-2.1-0.9
			C359,4.2,358.2,4.1,357.4,4.1z"/>
		<path fill="#FFFFFF" d="M369.5,23h-3.2V0h3.2V23z"/>
		<path fill="#FFFFFF" d="M384.7,23l-0.5-2.1h-0.2c-0.4,0.8-1.1,1.4-1.9,1.8s-1.8,0.7-2.8,0.7c-1.8,0-3.2-0.5-4.1-1.5
			c-0.9-1-1.4-2.5-1.4-4.5V6.7h3.2v10.1c0,1.3,0.2,2.2,0.7,2.8c0.5,0.6,1.2,0.9,2.2,0.9c1.3,0,2.3-0.4,3-1.3c0.6-0.9,1-2.3,1-4.4
			V6.7h3.2V23H384.7z"/>
		<path fill="#FFFFFF" d="M399.6,6.4c1.9,0,3.4,0.7,4.4,2.2c1.1,1.5,1.6,3.6,1.6,6.2c0,2.7-0.5,4.8-1.6,6.3
			c-1.1,1.5-2.5,2.2-4.4,2.2c-1.9,0-3.4-0.7-4.5-2.2h-0.2l-0.6,1.9h-2.4V0h3.2v5.5c0,0.4,0,1-0.1,1.8c0,0.8-0.1,1.3-0.1,1.5h0.1
			C396.1,7.2,397.6,6.4,399.6,6.4z M398.7,9.2c-1.3,0-2.2,0.4-2.8,1.2c-0.6,0.8-0.9,2.2-0.9,4.1v0.2c0,2,0.3,3.4,0.9,4.3
			c0.6,0.9,1.5,1.3,2.9,1.3c1.1,0,2-0.5,2.6-1.5c0.6-1,0.9-2.4,0.9-4.2C402.3,11.1,401.1,9.2,398.7,9.2z"/>
	</g>
	<line fill="none" stroke="#FFFFFF" stroke-width="1.8928" stroke-miterlimit="10" x1="0.1" y1="130" x2="404.3" y2="130"/>
	<line fill="none" stroke="#FFFFFF" stroke-width="1.8928" stroke-miterlimit="10" x1="569.2" y1="114.3" x2="422.2" y2="113.7"/>
</g>
</svg>
