<!-- Generator: Adobe Illustrator 18.0.0, SVG Export Plug-In  -->
<svg version="1.1"
	 xmlns="http://www.w3.org/2000/svg" xmlns:xlink="http://www.w3.org/1999/xlink" xmlns:a="http://ns.adobe.com/AdobeSVGViewerExtensions/3.0/"
	 x="0px" y="0px" width="227.7px" height="205.1px" viewBox="0 0 227.7 205.1" enable-background="new 0 0 227.7 205.1"
	 xml:space="preserve">
<defs>
</defs>
<g>
	<path fill="#B6407B" d="M0,149.4c0,20.5,11.1,38.5,27.7,48.1l-3.1-94.3C9.7,113.3,0,130.2,0,149.4z"/>
	<path fill="#B6407B" d="M55.7,93.8c-8.6,0-16.8,2-24.1,5.5l1.7,101.1c6.9,3,14.5,4.7,22.4,4.7c4.6,0,9-0.6,13.3-1.6L66.9,94.9
		C63.2,94.2,59.5,93.8,55.7,93.8z"/>
	<path fill="#B6407B" d="M203.2,103.3l-3.1,94.3c16.5-9.6,27.7-27.6,27.7-48.1C227.7,130.2,218,113.3,203.2,103.3z"/>
	<path fill="#B6407B" d="M160.9,94.9l-2.1,108.6c4.3,1,8.7,1.6,13.3,1.6c8,0,15.6-1.7,22.4-4.7l1.7-101.1
		c-7.3-3.5-15.5-5.5-24.1-5.5C168.2,93.8,164.5,94.2,160.9,94.9z"/>
	<path fill="#B6407B" d="M114.1,0L114.1,0c-0.2,0-0.3,0-0.5,0c-0.2,0-0.3,0-0.5,0l0,0c-74,0.7-93.3,79.6-97.1,98.2h14.4
		c0,0,28.4-77.2,83.2-77.5c54.8,0.2,83.2,77.5,83.2,77.5h14.4C207.4,79.6,188.1,0.7,114.1,0z"/>
</g>
</svg>
