<!-- Generator: Adobe Illustrator 18.0.0, SVG Export Plug-In  -->
<svg version="1.1"
	 xmlns="http://www.w3.org/2000/svg" xmlns:xlink="http://www.w3.org/1999/xlink" xmlns:a="http://ns.adobe.com/AdobeSVGViewerExtensions/3.0/"
	 x="0px" y="0px" width="216.1px" height="265.1px" viewBox="0 0 216.1 265.1" enable-background="new 0 0 216.1 265.1"
	 xml:space="preserve">
<defs>
</defs>
<g>
	<g>
		<g>
			<g>
				<line fill="none" stroke="#B6407B" stroke-width="5" stroke-miterlimit="10" x1="6.6" y1="74.1" x2="5.9" y2="80"/>
				
					<line fill="none" stroke="#B6407B" stroke-width="5" stroke-miterlimit="10" stroke-dasharray="11.71,4.8791" x1="5.3" y1="84.9" x2="3.6" y2="98.9"/>
				<path fill="none" stroke="#B6407B" stroke-width="5" stroke-miterlimit="10" d="M3.3,101.3l-0.7,6c0,0-0.1,0-0.1,0v6"/>
				<path fill="none" stroke="#B6407B" stroke-width="5" stroke-miterlimit="10" stroke-dasharray="11.8987,4.9578" d="M2.5,118.2
					v77.9c0,13.7,8.7,27.5,19.3,30.6l112.4,32.9"/>
				<path fill="none" stroke="#B6407B" stroke-width="5" stroke-miterlimit="10" d="M136.6,260.2c2.1,0.4,4.1,0.4,6-0.1v1.7l5.8-1.5
					"/>
				
					<line fill="none" stroke="#B6407B" stroke-width="5" stroke-miterlimit="10" stroke-dasharray="12.9825,5.4094" x1="153.6" y1="259.1" x2="204.5" y2="246.2"/>
				<polyline fill="none" stroke="#B6407B" stroke-width="5" stroke-miterlimit="10" points="207.1,245.6 212.9,244.1 212.9,238.1 
									"/>
				
					<line fill="none" stroke="#B6407B" stroke-width="5" stroke-miterlimit="10" stroke-dasharray="12.8182,5.3409" x1="212.9" y1="232.8" x2="212.9" y2="144.6"/>
				<polyline fill="none" stroke="#B6407B" stroke-width="5" stroke-miterlimit="10" points="212.9,142 212.9,136 212.8,136 
					212.8,129.9 213.6,129.8 213.6,123.8 				"/>
				
					<line fill="none" stroke="#B6407B" stroke-width="5" stroke-miterlimit="10" stroke-dasharray="11.8591,4.9413" x1="213.6" y1="118.8" x2="213.6" y2="87.7"/>
				<line fill="none" stroke="#B6407B" stroke-width="5" stroke-miterlimit="10" x1="213.6" y1="85.2" x2="213.6" y2="79.2"/>
			</g>
			<g>
				<line fill="none" stroke="#B6407B" stroke-width="5" stroke-miterlimit="10" x1="214.2" y1="78.8" x2="208.5" y2="76.9"/>
				<polyline fill="none" stroke="#B6407B" stroke-width="5" stroke-miterlimit="10" stroke-dasharray="11.7278,4.8866" points="
					203.9,75.3 75.2,31.1 17.6,50.7 				"/>
				<polyline fill="none" stroke="#B6407B" stroke-width="5" stroke-miterlimit="10" points="15.3,51.5 9.6,53.4 8.7,59.4 				"/>
				<line fill="none" stroke="#B6407B" stroke-width="5" stroke-miterlimit="10" x1="7.5" y1="68" x2="6.6" y2="74"/>
			</g>
		</g>
	</g>
	<g>
		<g>
			<path fill="none" stroke="#B6407B" stroke-width="5" stroke-miterlimit="10" d="M46.1,38.8c0.1-3,0.1-4.8,0.1-6"/>
			<path fill="none" stroke="#B6407B" stroke-width="5" stroke-miterlimit="10" d="M45.9,23.7c0-1.6,0.1-3.5,0.1-6c2,0,4,0,6,0"/>
			<path fill="none" stroke="#B6407B" stroke-width="5" stroke-miterlimit="10" stroke-dasharray="12.3744,5.156" d="M57.2,17.9
				c81.7,3.1,117.4,43.9,117.4,43.9s-0.1,28.5-0.1,44.6"/>
			<path fill="none" stroke="#B6407B" stroke-width="5" stroke-miterlimit="10" d="M174.4,108.9c0,2.5,0,4.6,0,6l-5.9,1.2"/>
			
				<line fill="none" stroke="#B6407B" stroke-width="5" stroke-miterlimit="10" stroke-dasharray="6.0463,2.5193" x1="166.1" y1="116.6" x2="158.9" y2="118.1"/>
			<path fill="none" stroke="#B6407B" stroke-width="5" stroke-miterlimit="10" d="M157.7,118.4l-5.9,1.2c0,0,0,0,0,0l-5.8-1.7"/>
			
				<line fill="none" stroke="#B6407B" stroke-width="5" stroke-miterlimit="10" stroke-dasharray="11.7935,4.914" x1="141.3" y1="116.5" x2="15.4" y2="79.5"/>
			<polyline fill="none" stroke="#B6407B" stroke-width="5" stroke-miterlimit="10" points="13.1,78.8 7.3,77.1 6.6,83.1 			"/>
			
				<line fill="none" stroke="#B6407B" stroke-width="5" stroke-miterlimit="10" stroke-dasharray="12.2347,5.0978" x1="6" y1="88.1" x2="4.2" y2="102.8"/>
			<path fill="none" stroke="#B6407B" stroke-width="5" stroke-miterlimit="10" d="M3.9,105.3l-0.7,6c0,0,1.7,1.2,5.3,2.7"/>
			<path fill="none" stroke="#B6407B" stroke-width="5" stroke-miterlimit="10" stroke-dasharray="11.7733,4.9055" d="M13.1,115.8
				c4.2,1.5,9.9,3,17.2,4.2c19.1,3.1,67.8,12.9,90.7,23.2c7.4,3.3,13.3,5.7,17.9,7.4"/>
			<path fill="none" stroke="#B6407B" stroke-width="5" stroke-miterlimit="10" d="M141.3,151.4c2.2,0.8,4.1,1.3,5.7,1.7v1.5
				l3.8-0.8c2.1,0.2,3.5,0,4.4-0.4c0-0.1,0-0.3,0-0.5l5.9-1.2"/>
			
				<line fill="none" stroke="#B6407B" stroke-width="5" stroke-miterlimit="10" stroke-dasharray="10.1847,4.2436" x1="165.3" y1="150.8" x2="205.6" y2="142.4"/>
			<polyline fill="none" stroke="#B6407B" stroke-width="5" stroke-miterlimit="10" points="207.6,142 213.5,140.8 213.5,134.8 			
				"/>
			
				<line fill="none" stroke="#B6407B" stroke-width="5" stroke-miterlimit="10" stroke-dasharray="12.0241,5.01" x1="213.5" y1="129.8" x2="213.5" y2="115.2"/>
			<polyline fill="none" stroke="#B6407B" stroke-width="5" stroke-miterlimit="10" points="213.5,112.7 213.5,106.7 207.6,108 			
				"/>
			
				<line fill="none" stroke="#B6407B" stroke-width="5" stroke-miterlimit="10" stroke-dasharray="10.2202,4.2584" x1="203.5" y1="108.8" x2="191.4" y2="111.4"/>
			<path fill="none" stroke="#B6407B" stroke-width="5" stroke-miterlimit="10" d="M189.3,111.8l-5.9,1.2c0-1.7,0-3.7,0-6"/>
			<path fill="none" stroke="#B6407B" stroke-width="5" stroke-miterlimit="10" stroke-dasharray="11.083,4.6179" d="M183.4,102.4
				c0-13.5,0-32.2,0-44.8"/>
			<path fill="none" stroke="#B6407B" stroke-width="5" stroke-miterlimit="10" d="M183.5,55.3c0-2.3,0-4.3,0-6
				c-1.6-1.2-3.2-2.5-4.8-3.7"/>
			<path fill="none" stroke="#B6407B" stroke-width="5" stroke-miterlimit="10" stroke-dasharray="12.4616,5.1923" d="M174.5,42.6
				C113.3-1.6,63.9,0.8,44.9,4.1"/>
			<path fill="none" stroke="#B6407B" stroke-width="5" stroke-miterlimit="10" d="M42.4,4.6C38.6,5.3,36.6,6,36.6,6v6"/>
			
				<line fill="none" stroke="#B6407B" stroke-width="5" stroke-miterlimit="10" stroke-dasharray="13.1049,5.4604" x1="36.6" y1="17.5" x2="36.6" y2="33.3"/>
			<line fill="none" stroke="#B6407B" stroke-width="5" stroke-miterlimit="10" x1="36.6" y1="36.1" x2="36.6" y2="42.1"/>
		</g>
	</g>
</g>
</svg>
