<!-- Generator: Adobe Illustrator 18.0.0, SVG Export Plug-In  -->
<svg version="1.1"
	 xmlns="http://www.w3.org/2000/svg" xmlns:xlink="http://www.w3.org/1999/xlink" xmlns:a="http://ns.adobe.com/AdobeSVGViewerExtensions/3.0/"
	 x="0px" y="0px" width="230px" height="279.2px" viewBox="0 0 230 279.2" enable-background="new 0 0 230 279.2"
	 xml:space="preserve">
<defs>
</defs>
<g>
	<polygon fill="#212559" points="163.5,106.3 7.7,52.7 79,28.5 230,80.3 	"/>
	<path fill="#253E86" d="M229.4,135.7L153.6,148V93c0,0,24.1-7.3,36.4-8.5c12.2-1.2,39.4-3.8,39.4-3.8V135.7z"/>
	<polygon fill="#FFFFFF" points="228.5,147.7 156.3,161.8 156.3,127.3 228.5,113.3 	"/>
	<g id="item_1_">
		<path fill="#253E86" d="M144.2,277L21,241c-11.5-3.4-21-18.3-21-33.2v-96.6c8.1,3.2,139.9,28.4,139.9,28.4
			c11.5,3.4,23.4,6.1,25.3,18.4v98C165.2,271,155.8,280.4,144.2,277z"/>
		<path id="white_2_" fill="#FFFFFF" d="M4.5,75.1L0,112.2c0,0,8.7,6.1,29.5,9.4s73.6,14,98.6,25.2c25,11.2,33.8,12.9,37.1,11.1
			c0-5.7-3.8-36.8-3.8-36.8L4.5,75.1z"/>
		<path fill="#FFFFFF" d="M36.8,43V3.8c0,0,68.9-23.8,159.3,47c0,18.4-0.2,75.9-0.2,75.9s-9.9,0.2-9.9-2.5s0.2-59.9,0.2-59.9
			S144,16,46.5,16.5c-0.5,20.8,0.7,7.3,0.3,23L36.8,43z"/>
		<polygon fill="#212559" points="11.8,76.6 11.8,85.2 156.8,127.5 156.8,116.4 140.2,111.7 139,97 98.3,85.2 98.1,99.8 		"/>
		<path id="top_1_" fill="#253E86" d="M7.7,52.7c0,0,68.5,5.7,151.2,44.3c1.3,6.9,2.8,24,2.8,24l-22.1-6.5l-0.9-16.1L98.2,86.6
			l-0.8,13.9L4.5,75L7.7,52.7z"/>
	</g>
	<polygon fill="#253E86" points="228.6,259.9 152.2,279.2 152.2,161.7 228.6,142.4 	"/>
	<path fill="#CBC5C9" d="M186.2,64.4V56c0,0-57.2-43-103.6-44.7C46.9,10.7,36.3,12,36.3,12v5.6c0,0,11.8-2.7,46.3,1.1
		C116.7,24.1,186.2,64.4,186.2,64.4z"/>
</g>
</svg>
