<!-- Generator: Adobe Illustrator 18.0.0, SVG Export Plug-In  -->
<svg version="1.1"
	 xmlns="http://www.w3.org/2000/svg" xmlns:xlink="http://www.w3.org/1999/xlink" xmlns:a="http://ns.adobe.com/AdobeSVGViewerExtensions/3.0/"
	 x="0px" y="0px" width="461.8px" height="111.6px" viewBox="0 0 461.8 111.6" enable-background="new 0 0 461.8 111.6"
	 xml:space="preserve">
<defs>
</defs>
<path fill="none" stroke="#2A3B8E" stroke-width="8" stroke-miterlimit="10" stroke-dasharray="18,6" d="M7.2,90.8
	c0.1-0.1,0.2-0.2,0.3-0.2c1.1-0.9,2.8-2.1,5-3.5c0,0,0,0,0,0c4.4-3.4,18.7-11.1,35.5-19.4c12.6-6.3,26.3-12.7,38.2-17.7
	c1.6-0.7,3.2-1.4,4.8-2l0-0.1c7.2-3,13.7-5.4,19-7.1c6.7-2.1,11.2-3.6,14.9-4.8c13-4.6,15.2-5.9,65.8-15c3-0.6,6.2-1.2,9.5-1.8
	c47.6-9.1,79.2-11.8,105.5-13.3l0,0.1c14.5-0.8,27.3-1.1,40.4-1.4c0.1,0,0.1,0,0.2,0C375,3.6,422,3.7,450.6,7
	c0.6,0.1,1.2,0.3,1.6,0.5c0.1,0,0.1,0.1,0.2,0.1c0.1,0,0.2,0.1,0.2,0.2c0.1,0.1,0.2,0.2,0.3,0.2c0.1,0.1,0.1,0.1,0.2,0.2
	c0.1,0.1,0.2,0.2,0.2,0.3c0.1,0.1,0.1,0.1,0.1,0.2c0.1,0.1,0.2,0.2,0.2,0.3c0,0,0,0,0,0c1.2,2,1.4,4.9,1.4,5.6c0,0.2,0,0.4,0,0.6
	l2.4,20.1c0.1,0.4,0.1,0.8,0,1.2l0.1,0.8c0,0,0,5.7-7.2,5.7l-42.3-1.1c-1.5,0-2.8-1-3.2-2.5h0c-1.4-4.5-4.6-8.2-8.9-10.1
	c-0.8-0.4-1.6-0.5-2.5-0.5c0,0-17.1-0.1-22.9,0c-6,0.1-18.1,0.5-24.2,0.7c-5.7,0.2-17,0.3-22.7,0.7c-12,0.7-35.9,2.8-47.8,4.2
	c-11,1.3-33,4.3-44,6.2c-8.8,1.5-26.4,5.1-35.2,7c-7.5,1.6-22.4,4.9-29.8,6.8c-7.9,2-23.7,6.4-31.5,8.8c-7.9,2.5-23.4,8.1-31.2,11
	c-7.8,3-23.4,9.2-31,12.7c-4.9,2.2-14.6,6.9-19.3,9.5c0,0-0.1,0.1-0.1,0.1c-31.7,15.6-42,10.3-42,10.3C4.2,106.4,1.2,95.9,7.2,90.8z
	"/>
</svg>
