<!-- Generator: Adobe Illustrator 18.0.0, SVG Export Plug-In  -->
<svg version="1.1"
	 xmlns="http://www.w3.org/2000/svg" xmlns:xlink="http://www.w3.org/1999/xlink" xmlns:a="http://ns.adobe.com/AdobeSVGViewerExtensions/3.0/"
	 x="0px" y="0px" width="234px" height="151.6px" viewBox="0 0 234 151.6" enable-background="new 0 0 234 151.6"
	 xml:space="preserve">
<defs>
</defs>
<g id="item_1_">
	
		<path fill="none" stroke="#B6407B" stroke-width="5.9319" stroke-linecap="round" stroke-linejoin="round" stroke-dasharray="9.8866" d="
		M230.7,57.5c0.3-2.3,0.7-6.5-0.5-7.1c0.1-0.1-0.3-0.2-0.3-0.2c0.9-1-1.1-4.8-2.3-6.8c-4.6-10.3-19.4-21-39-28.6
		c-24.3-10.3-57.2-15.7-86.9-8.7C49.8,14.9,3.9,61.5,3.3,86.6c-0.3,2.5-0.8,7.2,1,7c-1.2,0.9,0.9,4.6,2.1,6.7
		c0.1,0.2,0.2,0.4,0.3,0.6c0.1,1.2,0.4,2.1,1.1,2.1c0,0,0,0.1,0,0.1c-1,1,1,4.6,2.1,6.6c10.3,22.9,70.7,48,122,36
		c51.9-8.7,98-55.2,98.6-80.2c0.2-1.7,0.5-4.6,0.1-6.1C230.7,58.6,230.7,58.1,230.7,57.5z"/>
	
		<line fill="none" stroke="#B6407B" stroke-width="5.9319" stroke-miterlimit="10" stroke-dasharray="9.8866" x1="4.6" y1="94.4" x2="53" y2="83.6"/>
	
		<line fill="none" stroke="#B6407B" stroke-width="5.9319" stroke-miterlimit="10" stroke-dasharray="9.8866" x1="180.2" y1="59.6" x2="228.7" y2="48.8"/>
	
		<path fill="none" stroke="#B6407B" stroke-width="5.9319" stroke-linecap="round" stroke-linejoin="round" stroke-dasharray="9.8866" d="
		M53.1,85.3c0,0-7.7,23,40.3,13.5c9-1.8,27.3,1.3,29,5c3.9-5.8,7.5-9.6,20.2-11.9c12.7-2.3,48.3-10.7,38.3-31.8"/>
	
		<path fill="none" stroke="#B6407B" stroke-width="5.9319" stroke-linecap="round" stroke-linejoin="round" stroke-dasharray="9.8866" d="
		M52.7,83.2c0,0-15.9-18.3,32.2-27.8c9-1.8,24.8-11.6,24.9-15.7c5.8,3.9,10.6,6.1,23.2,3.3c12.6-2.7,48.7-8.4,47.5,14.9"/>
</g>
</svg>
