<!-- Generator: Adobe Illustrator 18.0.0, SVG Export Plug-In  -->
<svg version="1.1"
	 xmlns="http://www.w3.org/2000/svg" xmlns:xlink="http://www.w3.org/1999/xlink" xmlns:a="http://ns.adobe.com/AdobeSVGViewerExtensions/3.0/"
	 x="0px" y="0px" width="197.9px" height="126.4px" viewBox="0 0 197.9 126.4" enable-background="new 0 0 197.9 126.4"
	 xml:space="preserve">
<defs>
</defs>
<g id="item_2_">
	<path fill="#952028" d="M197,47.9c0-0.1-0.2-0.1-0.3-0.2c0.8-0.9-1-4.1-2-5.9c-9-19.8-61.4-41.5-105.9-31
		c-45.1,7.6-84.9,48-85.4,69.8c-0.3,2.2-0.7,6.3,0.8,6.1c-1,0.7,0.8,4,1.8,5.8c8.9,19.8,61.4,41.6,105.8,31.2
		c45.1-7.5,85-47.9,85.6-69.6C197.7,52.1,198.1,48.4,197,47.9z"/>
	<path fill="#952028" d="M193.9,39.8c0-0.1-0.2-0.1-0.3-0.2c0.8-0.9-1-4.1-2-5.9c-9-19.8-61.4-41.5-105.9-31
		c-45.1,7.6-84.9,48-85.4,69.8c-0.3,2.2-0.7,6.3,0.8,6.1c-1,0.7,0.8,4,1.8,5.8c8.9,19.8,61.4,41.6,105.8,31.2
		c45.1-7.5,85-47.9,85.6-69.6C194.6,44,194.9,40.3,193.9,39.8z"/>
	<path fill="#C0272D" d="M197.2,41.2c0-0.1-0.2-0.1-0.3-0.2c0.8-0.9-1-4.1-2-5.9C186,15.3,133.5-6.4,89,4.1
		C44,11.7,4.1,52.1,3.6,73.9c-0.3,2.2-0.7,6.3,0.8,6.1c-1,0.7,0.8,4,1.8,5.8c8.9,19.8,61.4,41.6,105.8,31.2
		c45.1-7.5,85-47.9,85.6-69.6C197.9,45.3,198.3,41.7,197.2,41.2z"/>
	<g>
		<g>
			<line fill="none" stroke="#501214" stroke-width="0.6431" stroke-miterlimit="10" x1="4.1" y1="79.5" x2="7.8" y2="78.7"/>
			
				<line fill="none" stroke="#501214" stroke-width="0.6431" stroke-miterlimit="10" stroke-dasharray="7.5461,7.5461" x1="15.2" y1="77.2" x2="189" y2="42"/>
			<line fill="none" stroke="#501214" stroke-width="0.6431" stroke-miterlimit="10" x1="192.7" y1="41.2" x2="196.5" y2="40.5"/>
		</g>
	</g>
	<g>
		<path fill="#F2F2F2" d="M147.1,51.7c-0.4-2.5-2.2-4.2-4.1-3.9L56,63c-1.8,0.3-2.9,2.6-2.5,5l0,0c0.4,2.5,2.2,4.2,4.1,3.9
			l87.1-15.2C146.4,56.5,147.6,54.2,147.1,51.7L147.1,51.7z"/>
		<path fill="#CCCBCB" d="M54.2,54.6c-2.2,5.7-1.8,12.1,0,17.9c0.8,2.5,1.9,5,3.6,7c0.6,0.7,1.3,1.5,2.3,1.7
			c1.4,0.3,2.8-0.8,2.8-2.2c0-1.1-0.7-1.5-1.4-2.2c-0.7-0.8-1.2-1.7-1.7-2.7c-1.4-2.8-2.1-5.8-2.4-8.8c-0.3-3-0.1-6.2,1.1-9
			C59.2,53.4,55.3,51.8,54.2,54.6C52.5,59,54.2,54.6,54.2,54.6z"/>
		<path fill="#CCCBCB" d="M72.9,51.2c-1.4,5.8-0.7,12,0.9,17.6c0.7,2.5,1.6,5.3,3.3,7.3c0.7,0.9,1.6,1.5,2.8,1.2
			c1.1-0.3,1.8-1.3,1.7-2.4c-0.1-0.9-0.8-1.4-1.2-2.2c-0.7-1.1-1.1-2.3-1.6-3.5c-1-2.8-1.6-5.6-1.8-8.5c-0.3-2.8-0.3-5.8,0.4-8.6
			C77.8,49.4,73.6,48.3,72.9,51.2C71.9,55.4,72.9,51.2,72.9,51.2z"/>
		<path fill="#CCCBCB" d="M89.9,50.2c-0.5,6.1,0.5,12.4,2,18.3c0.6,2.2,1.2,4.4,2.3,6.4c1.2,2,4.5,1.4,4.4-1.1
			c0-0.8-0.6-1.4-0.8-2.1c-0.4-1-0.7-2-1-3c-0.9-3.1-1.5-6.3-1.9-9.5c-0.4-2.9-0.6-5.8-0.3-8.7C94.4,47.6,90.2,47.2,89.9,50.2
			C89.6,54.1,89.9,50.2,89.9,50.2z"/>
		<path fill="#CCCBCB" d="M106.4,45.3c-2.7,1.2-0.5,4.6,0.1,6.4c0.9,2.9,1.6,5.9,2,8.9c0.4,2.7,0.7,5.4,0.7,8.1c0,1.7-0.7,4.3,2,4.5
			c4.6,0.2,2.4-10.5,2-12.8c-0.4-3.1-1.1-6.2-2-9.2C110.6,49.2,109.6,43.9,106.4,45.3C105.2,45.8,106.4,45.3,106.4,45.3z"/>
		<g>
			<path fill="#CCCBCB" d="M120,42.3c-2.5,1.6,0.2,4.6,1,6.3c1.2,2.7,1.9,5.7,2.3,8.6c0.4,2.7,0.6,5.5,0.1,8.2
				c-0.1,0.7-0.5,1.4-0.6,2.1c-0.1,1.2,0.8,2.3,2.1,2.4c5,0.4,3.2-11.6,2.8-14.1C127.3,53.4,124.5,39.5,120,42.3
				C118.9,43,120,42.3,120,42.3z"/>
		</g>
		<path fill="#CCCBCB" d="M134.8,39.9c-2.3,1.9,0.9,4.5,1.8,6.2c1.5,2.8,2.3,5.9,2.7,8.9c0.3,2.5,0.3,5.4-0.5,7.9
			c-0.2,0.8-0.9,1.4-0.9,2.2c0,1.4,1.3,2.5,2.7,2.3c2.3-0.4,3-4.1,3.3-6c0.4-2.9,0.2-6-0.2-8.9C143.1,50.1,139.2,36.3,134.8,39.9
			C133.8,40.8,134.8,39.9,134.8,39.9z"/>
		
			<ellipse transform="matrix(0.9811 -0.1933 0.1933 0.9811 -9.6142 20.755)" fill="#050505" stroke="#F1EB55" stroke-width="4.5016" stroke-miterlimit="10" cx="101.6" cy="59.7" rx="4.3" ry="4.2"/>
	</g>
	
		<path fill="none" stroke="#3F1B0C" stroke-width="0.7087" stroke-linecap="round" stroke-linejoin="round" stroke-dasharray="1.89,1.89" d="
		M46.8,71.4c0,0-6.5,19.9,34.3,11.9c7.6-1.5,23.2,1.2,24.7,4.5c3.3-5,6.3-8.3,17.1-10.2c10.8-1.9,41-9.1,32.4-27.5"/>
	
		<path fill="none" stroke="#3F1B0C" stroke-width="0.7087" stroke-linecap="round" stroke-linejoin="round" stroke-dasharray="1.89,1.89" d="
		M46.4,69.6c0,0-13.6-16,27.3-24c7.6-1.5,21-9.9,21.1-13.5c4.9,3.4,9,5.3,19.7,3c10.7-2.3,41.4-7.1,40.4,13.1"/>
</g>
</svg>
