<!-- Generator: Adobe Illustrator 18.0.0, SVG Export Plug-In  -->
<svg version="1.1"
	 xmlns="http://www.w3.org/2000/svg" xmlns:xlink="http://www.w3.org/1999/xlink" xmlns:a="http://ns.adobe.com/AdobeSVGViewerExtensions/3.0/"
	 x="0px" y="0px" width="1080.9px" height="60.9px" viewBox="0 0 1080.9 60.9" enable-background="new 0 0 1080.9 60.9"
	 xml:space="preserve">
<defs>
</defs>
<g>
	<path fill="#2A3A8D" d="M39.1,39.4c0,0.8-0.3,1.6-1,2.2c-4.4,3.5-9.3,5.2-14.7,5.2c-6.5,0-12-2.3-16.6-6.9S0,29.9,0,23.4
		c0-6.5,2.3-12,6.9-16.6C11.4,2.3,17,0,23.4,0C29,0,34,1.8,38.5,5.5C39,6,39.3,6.7,39.3,7.6c0,0.4-0.1,0.9-0.2,1.2
		c-0.2,0.4-0.4,0.7-0.7,1c-0.3,0.3-0.6,0.5-1,0.7s-0.8,0.2-1.2,0.2c-0.8,0-1.5-0.3-2.1-0.9c-1.5-1.2-3.1-2.1-4.9-2.7
		s-3.7-0.9-5.7-0.9c-4.8,0-8.8,1.7-12.2,5.1c-3.3,3.3-5,7.4-5,12.2c0,4.8,1.7,8.8,5,12.2c3.4,3.4,7.4,5,12.2,5
		c3.5,0,6.7-0.9,9.5-2.8v-9.1h-8.1c-0.9,0-1.6-0.3-2.2-0.9c-0.6-0.6-0.9-1.3-0.9-2.2c0-0.4,0.1-0.8,0.2-1.2c0.2-0.4,0.4-0.7,0.7-1
		c0.3-0.3,0.6-0.5,1-0.7c0.4-0.2,0.8-0.2,1.2-0.2h11.2c0.4,0,0.8,0.1,1.2,0.2c0.4,0.2,0.7,0.4,1,0.7c0.3,0.3,0.5,0.6,0.7,1
		c0.2,0.4,0.2,0.8,0.2,1.2V39.4z"/>
	<path fill="#2A3A8D" d="M52.3,8.2c0,1-0.4,1.8-1.1,2.5s-1.6,1.1-2.5,1.1s-1.8-0.4-2.5-1.1s-1.1-1.6-1.1-2.5s0.4-1.8,1.1-2.5
		s1.6-1.1,2.5-1.1s1.8,0.4,2.5,1.1S52.3,7.2,52.3,8.2z M45.6,43.8V17.1c0-0.9,0.3-1.6,0.9-2.2c0.6-0.6,1.3-0.9,2.2-0.9
		c0.8,0,1.6,0.3,2.2,0.9c0.6,0.6,0.9,1.3,0.9,2.2v26.7c0,0.9-0.3,1.6-0.9,2.2c-0.6,0.6-1.3,0.9-2.2,0.9c-0.8,0-1.6-0.3-2.2-0.9
		C45.9,45.4,45.6,44.7,45.6,43.8z"/>
	<path fill="#2A3A8D" d="M73.3,46.9c-1.3,0-2.2-0.5-2.7-1.6L58.3,18.3c-0.2-0.4-0.2-0.8-0.2-1.2s0.1-0.8,0.2-1.2
		c0.2-0.4,0.4-0.7,0.6-1c0.3-0.3,0.6-0.5,1-0.7c0.4-0.2,0.8-0.2,1.2-0.2c0.5,0,1,0.1,1.5,0.4c0.5,0.3,0.9,0.6,1.1,1.1l9.6,20.9
		l9.6-20.9c0.6-1,1.5-1.6,2.7-1.6c0.4,0,0.8,0.1,1.2,0.2c0.4,0.2,0.7,0.4,1,0.7c0.3,0.3,0.5,0.6,0.7,1c0.2,0.4,0.2,0.8,0.2,1.2
		c0,0.4-0.1,0.9-0.3,1.2L76,45.2C75.5,46.3,74.6,46.9,73.3,46.9z"/>
	<path fill="#2A3A8D" d="M118.2,37.6c0.9,0,1.6,0.3,2.2,0.9c0.6,0.6,0.9,1.3,0.9,2.2c0,0.9-0.3,1.6-0.9,2.2c-3,2.7-6.6,4-10.7,4
		c-4.5,0-8.4-1.6-11.6-4.8c-3.2-3.2-4.8-7.1-4.8-11.6s1.6-8.4,4.8-11.6c3.2-3.2,7.1-4.8,11.6-4.8c4.5,0,8.4,1.6,11.6,4.8
		c1.6,1.6,2.8,3.3,3.6,5.3c0.8,1.9,1.2,4,1.2,6.3c0,0.9-0.3,1.6-0.9,2.2c-0.6,0.6-1.3,0.9-2.2,0.9H99.8c0.3,1.1,0.8,2.1,1.5,2.9
		s1.4,1.7,2.3,2.3c0.9,0.6,1.8,1.1,2.9,1.5c1,0.4,2.1,0.5,3.3,0.5c1.3,0,2.5-0.2,3.5-0.6c1.1-0.4,2.1-1,3-1.8
		C116.7,37.9,117.4,37.7,118.2,37.6z M119.5,27.4c-0.3-1.1-0.8-2.1-1.5-2.9c-0.7-0.9-1.4-1.7-2.3-2.3c-0.9-0.6-1.8-1.1-2.9-1.5
		c-1-0.4-2.1-0.5-3.2-0.5s-2.2,0.2-3.3,0.5s-2,0.8-2.9,1.5s-1.6,1.4-2.3,2.3s-1.1,1.9-1.4,2.9H119.5z"/>
	<path fill="#2A3A8D" d="M194.6,43.8c0,0.9-0.3,1.6-0.9,2.2c-0.6,0.6-1.3,0.9-2.2,0.9c-0.9,0-1.6-0.3-2.2-0.9s-0.9-1.3-0.9-2.2V27.1
		c0-0.9-0.2-1.8-0.5-2.7c-0.4-0.8-0.9-1.6-1.5-2.2c-0.6-0.6-1.4-1.1-2.2-1.5s-1.8-0.6-2.7-0.6c-1,0-1.9,0.2-2.7,0.6
		c-0.8,0.4-1.6,0.9-2.2,1.5c-0.6,0.6-1.1,1.4-1.5,2.2c-0.4,0.8-0.5,1.7-0.5,2.7v16.7c0,0.9-0.3,1.6-0.9,2.2
		c-0.6,0.6-1.3,0.9-2.2,0.9c-0.9,0-1.6-0.3-2.2-0.9c-0.6-0.6-0.9-1.3-0.9-2.2V27.1c0-1-0.2-1.9-0.6-2.7c-0.4-0.8-0.9-1.6-1.5-2.2
		c-0.6-0.6-1.4-1.1-2.2-1.5c-0.8-0.4-1.7-0.6-2.7-0.6c-1,0-1.9,0.2-2.7,0.5c-0.8,0.4-1.6,0.9-2.2,1.5c-0.6,0.6-1.1,1.4-1.5,2.2
		c-0.4,0.8-0.5,1.7-0.5,2.7v16.7c0,0.9-0.3,1.6-0.9,2.2c-0.6,0.6-1.3,0.9-2.2,0.9c-0.9,0-1.6-0.3-2.2-0.9c-0.6-0.6-0.9-1.3-0.9-2.2
		V17.1c0-0.8,0.3-1.6,0.9-2.2c0.6-0.6,1.3-0.9,2.2-0.9c0.7,0,1.3,0.2,1.8,0.6s0.9,0.9,1.1,1.5c2.1-1.4,4.5-2.1,7.1-2.1
		c2,0,3.8,0.4,5.5,1.2c1.7,0.8,3.2,1.9,4.5,3.5c2.7-3.1,6-4.7,10-4.7c1.8,0,3.5,0.3,5.1,1c1.6,0.7,3,1.6,4.2,2.8
		c1.2,1.2,2.1,2.6,2.8,4.2c0.7,1.6,1,3.3,1,5.1V43.8z"/>
	<path fill="#2A3A8D" d="M224.8,37.6c0.9,0,1.6,0.3,2.2,0.9c0.6,0.6,0.9,1.3,0.9,2.2c0,0.9-0.3,1.6-0.9,2.2c-3,2.7-6.6,4-10.7,4
		c-4.5,0-8.4-1.6-11.6-4.8c-3.2-3.2-4.8-7.1-4.8-11.6s1.6-8.4,4.8-11.6c3.2-3.2,7.1-4.8,11.6-4.8c4.5,0,8.4,1.6,11.6,4.8
		c1.6,1.6,2.8,3.3,3.6,5.3c0.8,1.9,1.2,4,1.2,6.3c0,0.9-0.3,1.6-0.9,2.2c-0.6,0.6-1.3,0.9-2.2,0.9h-23.2c0.3,1.1,0.8,2.1,1.5,2.9
		s1.4,1.7,2.3,2.3c0.9,0.6,1.8,1.1,2.9,1.5c1,0.4,2.1,0.5,3.3,0.5c1.3,0,2.5-0.2,3.5-0.6c1.1-0.4,2.1-1,3-1.8
		C223.4,37.9,224.1,37.7,224.8,37.6z M226.1,27.4c-0.3-1.1-0.8-2.1-1.5-2.9c-0.7-0.9-1.4-1.7-2.3-2.3c-0.9-0.6-1.8-1.1-2.9-1.5
		c-1-0.4-2.1-0.5-3.2-0.5s-2.2,0.2-3.3,0.5s-2,0.8-2.9,1.5s-1.6,1.4-2.3,2.3s-1.1,1.9-1.4,2.9H226.1z"/>
	<path fill="#2A3A8D" d="M273.1,6.2c-5.4,0-8.1,2.7-8.1,8.1v1.5h5.9c0.8,0,1.6,0.3,2.2,0.9c0.6,0.6,0.9,1.3,0.9,2.2
		c0,0.9-0.3,1.6-0.9,2.2c-0.6,0.6-1.3,0.9-2.2,0.9H265v22c0,0.4-0.1,0.8-0.2,1.2c-0.2,0.4-0.4,0.7-0.6,1c-0.3,0.3-0.6,0.5-1,0.7
		c-0.4,0.2-0.8,0.2-1.2,0.2c-0.4,0-0.8-0.1-1.2-0.2c-0.4-0.2-0.7-0.4-1-0.7c-0.3-0.3-0.5-0.6-0.6-1c-0.2-0.4-0.2-0.8-0.2-1.2v-22
		h-1.4c-0.9,0-1.6-0.3-2.2-0.9c-0.6-0.6-0.9-1.3-0.9-2.2s0.3-1.6,0.9-2.2c0.6-0.6,1.3-0.9,2.2-0.9h1.4v-1.5C259,4.8,263.7,0,273.1,0
		c0.8,0,1.6,0.3,2.2,0.9c0.6,0.6,0.9,1.3,0.9,2.2c0,0.9-0.3,1.6-0.9,2.2C274.7,5.9,274,6.2,273.1,6.2z"/>
	<path fill="#2A3A8D" d="M286.7,8.2c0,1-0.4,1.8-1.1,2.5s-1.6,1.1-2.5,1.1s-1.8-0.4-2.5-1.1s-1.1-1.6-1.1-2.5s0.4-1.8,1.1-2.5
		s1.6-1.1,2.5-1.1s1.8,0.4,2.5,1.1S286.7,7.2,286.7,8.2z M280,43.8V17.1c0-0.9,0.3-1.6,0.9-2.2c0.6-0.6,1.3-0.9,2.2-0.9
		c0.8,0,1.6,0.3,2.2,0.9c0.6,0.6,0.9,1.3,0.9,2.2v26.7c0,0.9-0.3,1.6-0.9,2.2c-0.6,0.6-1.3,0.9-2.2,0.9c-0.8,0-1.6-0.3-2.2-0.9
		C280.3,45.4,280,44.7,280,43.8z"/>
	<path fill="#2A3A8D" d="M307.7,46.9c-1.3,0-2.2-0.5-2.7-1.6l-12.4-26.9c-0.2-0.4-0.2-0.8-0.2-1.2s0.1-0.8,0.2-1.2
		c0.2-0.4,0.4-0.7,0.6-1c0.3-0.3,0.6-0.5,1-0.7c0.4-0.2,0.8-0.2,1.2-0.2c0.5,0,1,0.1,1.5,0.4c0.5,0.3,0.9,0.6,1.1,1.1l9.6,20.9
		l9.6-20.9c0.6-1,1.5-1.6,2.7-1.6c0.4,0,0.8,0.1,1.2,0.2c0.4,0.2,0.7,0.4,1,0.7c0.3,0.3,0.5,0.6,0.7,1c0.2,0.4,0.2,0.8,0.2,1.2
		c0,0.4-0.1,0.9-0.3,1.2l-12.3,26.9C309.9,46.3,309,46.9,307.7,46.9z"/>
	<path fill="#2A3A8D" d="M352.6,37.6c0.9,0,1.6,0.3,2.2,0.9c0.6,0.6,0.9,1.3,0.9,2.2c0,0.9-0.3,1.6-0.9,2.2c-3,2.7-6.6,4-10.7,4
		c-4.5,0-8.4-1.6-11.6-4.8c-3.2-3.2-4.8-7.1-4.8-11.6s1.6-8.4,4.8-11.6c3.2-3.2,7.1-4.8,11.6-4.8c4.5,0,8.4,1.6,11.6,4.8
		c1.6,1.6,2.8,3.3,3.6,5.3c0.8,1.9,1.2,4,1.2,6.3c0,0.9-0.3,1.6-0.9,2.2c-0.6,0.6-1.3,0.9-2.2,0.9h-23.2c0.3,1.1,0.8,2.1,1.5,2.9
		s1.4,1.7,2.3,2.3c0.9,0.6,1.8,1.1,2.9,1.5c1,0.4,2.1,0.5,3.3,0.5c1.3,0,2.5-0.2,3.5-0.6c1.1-0.4,2.1-1,3-1.8
		C351.1,37.9,351.8,37.7,352.6,37.6z M353.9,27.4c-0.3-1.1-0.8-2.1-1.5-2.9c-0.7-0.9-1.4-1.7-2.3-2.3c-0.9-0.6-1.8-1.1-2.9-1.5
		c-1-0.4-2.1-0.5-3.2-0.5s-2.2,0.2-3.3,0.5s-2,0.8-2.9,1.5s-1.6,1.4-2.3,2.3s-1.1,1.9-1.4,2.9H353.9z"/>
	<path fill="#2A3A8D" d="M385.5,14.1h1.4V3c0-0.8,0.3-1.6,0.9-2.2c0.6-0.6,1.3-0.9,2.2-0.9c0.8,0,1.6,0.3,2.2,0.9
		c0.6,0.6,0.9,1.3,0.9,2.2v11h3.7c0.8,0,1.6,0.3,2.1,0.9s0.9,1.3,0.9,2.2c0,0.9-0.3,1.6-0.9,2.2s-1.3,0.9-2.1,0.9H393v14.7
		c0,3.9,2,5.8,5.9,5.8c0.8,0,1.6,0.3,2.1,0.9s0.9,1.3,0.9,2.2c0,0.9-0.3,1.6-0.9,2.2s-1.3,0.9-2.1,0.9c-8,0-12-4-12-12V20.2h-1.4
		c-0.8,0-1.5-0.3-2.1-0.9c-0.6-0.6-0.9-1.3-0.9-2.2c0-0.8,0.3-1.6,0.9-2.2C384,14.4,384.7,14.1,385.5,14.1z"/>
	<path fill="#2A3A8D" d="M437.2,30.5c0,4.6-1.6,8.4-4.8,11.6c-3.2,3.2-7.1,4.8-11.6,4.8c-4.5,0-8.4-1.6-11.6-4.8
		c-3.2-3.2-4.8-7.1-4.8-11.6s1.6-8.4,4.8-11.6c3.2-3.2,7.1-4.8,11.6-4.8c4.5,0,8.4,1.6,11.6,4.8c1.6,1.6,2.8,3.4,3.6,5.3
		S437.2,28.2,437.2,30.5z M420.8,20.2c-1.4,0-2.8,0.3-4,0.8c-1.2,0.5-2.3,1.3-3.3,2.2c-0.9,0.9-1.6,2-2.2,3.3
		c-0.5,1.2-0.8,2.6-0.8,4s0.3,2.7,0.8,4c0.5,1.2,1.3,2.3,2.2,3.3c0.9,0.9,2,1.7,3.3,2.2c1.2,0.5,2.6,0.8,4,0.8c1.4,0,2.8-0.3,4-0.8
		c1.2-0.5,2.3-1.3,3.3-2.2c0.9-0.9,1.7-2,2.2-3.3c0.5-1.2,0.8-2.6,0.8-4s-0.3-2.7-0.8-4c-0.5-1.2-1.3-2.3-2.2-3.3
		c-0.9-0.9-2-1.7-3.3-2.2C423.6,20.5,422.2,20.2,420.8,20.2z"/>
	<path fill="#2A3A8D" d="M465.4,31.3c-1.8-0.7-3.1-1.4-3.9-2.2h0c-1.5-1.5-2.2-3.3-2.2-5.3c0-1.5,0.4-2.8,1.2-4s1.8-2.2,3.1-3.1
		c1.3-0.8,2.7-1.5,4.3-1.9c1.6-0.5,3.2-0.7,4.8-0.7c4.9,0,9.1,2,12.6,5.9c0.4,0.5,0.6,1.1,0.6,1.8c0,0.9-0.3,1.6-0.9,2.2
		c-0.6,0.6-1.3,0.9-2.2,0.9c-0.6,0-1.2-0.2-1.6-0.5s-0.9-0.7-1.3-1.1c-2-2-4.4-3-7.3-3c-2.8,0-5.1,0.9-6.7,2.6
		c-0.3,0.3-0.5,0.7-0.5,1.3s0.3,0.9,0.8,1.1l13.7,4.5c1.9,0.7,3.2,1.5,3.9,2.2h0c1.5,1.5,2.2,3.3,2.2,5.3c0,1.5-0.4,2.9-1.2,4
		s-1.8,2.2-3.1,3.1c-1.3,0.8-2.7,1.5-4.3,1.9s-3.2,0.7-4.8,0.7c-4.9,0-9.1-1.9-12.6-5.8c-0.4-0.6-0.6-1.2-0.6-1.9
		c0-0.9,0.3-1.6,0.9-2.2c0.6-0.6,1.3-0.9,2.2-0.9c0.6,0,1.2,0.2,1.6,0.6c0.4,0.4,0.9,0.7,1.2,1.1c2,2,4.4,3,7.3,3
		c2.8,0,5-0.9,6.7-2.6c0.3-0.3,0.4-0.7,0.4-1.2c0-0.5-0.3-0.9-0.8-1.1L465.4,31.3z"/>
	<path fill="#2A3A8D" d="M515.5,37.6c0.9,0,1.6,0.3,2.2,0.9c0.6,0.6,0.9,1.3,0.9,2.2c0,0.9-0.3,1.6-0.9,2.2c-3,2.7-6.6,4-10.7,4
		c-4.5,0-8.4-1.6-11.6-4.8c-3.2-3.2-4.8-7.1-4.8-11.6s1.6-8.4,4.8-11.6c3.2-3.2,7.1-4.8,11.6-4.8c4.5,0,8.4,1.6,11.6,4.8
		c1.6,1.6,2.8,3.3,3.6,5.3s1.2,4,1.2,6.3c0,0.9-0.3,1.6-0.9,2.2c-0.6,0.6-1.3,0.9-2.2,0.9h-23.2c0.3,1.1,0.8,2.1,1.5,2.9
		s1.4,1.7,2.3,2.3c0.9,0.6,1.8,1.1,2.9,1.5c1,0.4,2.1,0.5,3.3,0.5c1.3,0,2.5-0.2,3.5-0.6c1.1-0.4,2.1-1,3-1.8
		C514,37.9,514.7,37.7,515.5,37.6z M516.8,27.4c-0.3-1.1-0.8-2.1-1.5-2.9c-0.7-0.9-1.4-1.7-2.3-2.3c-0.9-0.6-1.8-1.1-2.9-1.5
		c-1-0.4-2.1-0.5-3.2-0.5s-2.2,0.2-3.3,0.5s-2,0.8-2.9,1.5s-1.6,1.4-2.3,2.3s-1.1,1.9-1.4,2.9H516.8z"/>
	<path fill="#2A3A8D" d="M553,37.6c0.9,0,1.6,0.3,2.2,0.9c0.6,0.6,0.9,1.3,0.9,2.2c0,0.9-0.3,1.6-0.9,2.2c-3,2.7-6.6,4-10.7,4
		c-4.5,0-8.4-1.6-11.6-4.8S528,35,528,30.5s1.6-8.4,4.8-11.6s7.1-4.8,11.6-4.8c4.5,0,8.4,1.6,11.6,4.8c1.6,1.6,2.8,3.3,3.6,5.3
		s1.2,4,1.2,6.3c0,0.9-0.3,1.6-0.9,2.2c-0.6,0.6-1.3,0.9-2.2,0.9h-23.2c0.3,1.1,0.8,2.1,1.5,2.9s1.4,1.7,2.3,2.3
		c0.9,0.6,1.8,1.1,2.9,1.5c1,0.4,2.1,0.5,3.3,0.5c1.3,0,2.5-0.2,3.5-0.6s2.1-1,3-1.8C551.5,37.9,552.2,37.7,553,37.6z M554.3,27.4
		c-0.3-1.1-0.8-2.1-1.5-2.9c-0.7-0.9-1.4-1.7-2.3-2.3c-0.9-0.6-1.8-1.1-2.9-1.5c-1-0.4-2.1-0.5-3.2-0.5s-2.2,0.2-3.3,0.5
		s-2,0.8-2.9,1.5s-1.6,1.4-2.3,2.3s-1.1,1.9-1.4,2.9H554.3z"/>
	<path fill="#2A3A8D" d="M593.9,43.8l-10.5-25.3c-0.2-0.4-0.3-0.9-0.3-1.4c0-0.4,0.1-0.8,0.2-1.2s0.4-0.7,0.6-1s0.6-0.5,1-0.7
		s0.8-0.2,1.2-0.2c0.6,0,1.2,0.2,1.7,0.5s0.9,0.8,1.2,1.5l8.2,19.7l8.2-19.7c0.2-0.6,0.6-1.1,1-1.4s1.1-0.5,1.9-0.5
		c0.4,0,0.8,0.1,1.2,0.2s0.7,0.4,1,0.7s0.5,0.6,0.7,1s0.2,0.8,0.2,1.2c0,0.4-0.1,0.9-0.3,1.4l-16.8,40.4c-0.3,0.6-0.6,1.1-1.2,1.5
		s-1.1,0.6-1.7,0.6c-0.9,0-1.6-0.3-2.2-0.9c-0.6-0.6-0.9-1.3-0.9-2.2c0-0.5,0.1-0.9,0.3-1.3L593.9,43.8z"/>
	<path fill="#2A3A8D" d="M648.7,30.5c0,4.6-1.6,8.4-4.8,11.6c-3.2,3.2-7.1,4.8-11.6,4.8c-4.5,0-8.4-1.6-11.6-4.8s-4.8-7.1-4.8-11.6
		s1.6-8.4,4.8-11.6s7.1-4.8,11.6-4.8c4.5,0,8.4,1.6,11.6,4.8c1.6,1.6,2.8,3.4,3.6,5.3S648.7,28.2,648.7,30.5z M632.3,20.2
		c-1.4,0-2.8,0.3-4,0.8s-2.3,1.3-3.3,2.2s-1.6,2-2.2,3.3s-0.8,2.6-0.8,4s0.3,2.7,0.8,4s1.3,2.3,2.2,3.3s2,1.7,3.3,2.2s2.6,0.8,4,0.8
		c1.4,0,2.8-0.3,4-0.8s2.3-1.3,3.3-2.2s1.7-2,2.2-3.3s0.8-2.6,0.8-4s-0.3-2.7-0.8-4s-1.3-2.3-2.2-3.3s-2-1.7-3.3-2.2
		S633.7,20.2,632.3,20.2z"/>
	<path fill="#2A3A8D" d="M680.9,46.9c-0.9,0-1.6-0.3-2.2-0.9s-0.9-1.3-0.9-2.1c-1.3,1.1-2.8,1.8-4.3,2.3s-3.1,0.7-4.9,0.7
		c-2.1,0-4.1-0.4-5.9-1.2s-3.5-1.9-4.9-3.3s-2.5-3-3.3-4.9s-1.2-3.8-1.2-5.9V17.1c0-0.8,0.3-1.6,0.9-2.2s1.3-0.9,2.2-0.9
		c0.8,0,1.6,0.3,2.2,0.9s0.9,1.3,0.9,2.2v14.5c0,1.3,0.2,2.5,0.7,3.6s1.1,2.1,2,2.9s1.8,1.5,2.9,2s2.3,0.7,3.6,0.7
		c1.2,0,2.4-0.2,3.5-0.7s2.1-1.1,2.9-2s1.5-1.8,2-2.9s0.7-2.3,0.7-3.6V17.1c0-0.8,0.3-1.6,0.9-2.2s1.3-0.9,2.2-0.9
		c0.8,0,1.6,0.3,2.2,0.9s0.9,1.3,0.9,2.2v26.7c0,0.8-0.3,1.6-0.9,2.2S681.7,46.9,680.9,46.9z"/>
	<path fill="#2A3A8D" d="M694.6,17.1v0.6c1.5-1.2,3.1-2.1,4.8-2.7s3.6-0.9,5.5-0.9c0.9,0,1.8,0.1,2.8,0.2s1.9,0.3,2.7,0.6
		s1.5,0.7,2.1,1.2s0.8,1.2,0.8,2.1c0,0.4-0.1,0.8-0.2,1.2s-0.4,0.7-0.7,1s-0.6,0.5-1,0.7s-0.8,0.2-1.2,0.2c-0.4,0-0.8-0.1-1.3-0.3
		c-1.2-0.5-2.6-0.7-4-0.7c-1.4,0-2.8,0.3-4,0.8s-2.3,1.3-3.3,2.2s-1.7,2-2.2,3.3s-0.8,2.6-0.8,4v13.4c0,0.8-0.3,1.6-0.9,2.2
		s-1.3,0.9-2.2,0.9c-0.9,0-1.6-0.3-2.2-0.9s-0.9-1.3-0.9-2.2V17.1c0-0.8,0.3-1.6,0.9-2.2s1.3-0.9,2.2-0.9c0.8,0,1.6,0.3,2.2,0.9
		S694.6,16.3,694.6,17.1z"/>
	<path fill="#2A3A8D" d="M740.4,17.7c2.9-2.4,6.3-3.6,10.3-3.6c4.5,0,8.4,1.6,11.6,4.8c1.6,1.6,2.8,3.3,3.6,5.3s1.2,4,1.2,6.3
		c0,4.6-1.6,8.4-4.8,11.6c-3.2,3.2-7.1,4.8-11.6,4.8c-4.5,0-8.4-1.6-11.6-4.8s-4.8-7.1-4.8-11.6V3c0-0.9,0.3-1.6,0.9-2.2
		s1.3-0.9,2.2-0.9c0.9,0,1.6,0.3,2.2,0.9s0.9,1.3,0.9,2.2V17.7z M750.7,40.8c1.4,0,2.8-0.3,4-0.8s2.3-1.3,3.3-2.2s1.7-2,2.2-3.3
		s0.8-2.6,0.8-4s-0.3-2.7-0.8-4s-1.3-2.3-2.2-3.3s-2-1.7-3.3-2.2s-2.6-0.8-4-0.8c-1.4,0-2.8,0.3-4,0.8s-2.3,1.3-3.3,2.2
		s-1.6,2-2.2,3.3s-0.8,2.6-0.8,4s0.3,2.7,0.8,4s1.3,2.3,2.2,3.3s2,1.7,3.3,2.2S749.2,40.8,750.7,40.8z"/>
	<path fill="#2A3A8D" d="M780.1,8.2c0,1-0.4,1.8-1.1,2.5s-1.6,1.1-2.5,1.1s-1.8-0.4-2.5-1.1s-1.1-1.6-1.1-2.5s0.4-1.8,1.1-2.5
		s1.6-1.1,2.5-1.1s1.8,0.4,2.5,1.1S780.1,7.2,780.1,8.2z M773.4,43.8V17.1c0-0.9,0.3-1.6,0.9-2.2s1.3-0.9,2.2-0.9s1.6,0.3,2.2,0.9
		s0.9,1.3,0.9,2.2v26.7c0,0.9-0.3,1.6-0.9,2.2s-1.3,0.9-2.2,0.9s-1.6-0.3-2.2-0.9S773.4,44.7,773.4,43.8z"/>
	<path fill="#2A3A8D" d="M812.5,43.3c-2.9,2.4-6.4,3.6-10.3,3.6c-4.5,0-8.4-1.6-11.6-4.8s-4.8-7.1-4.8-11.6s1.6-8.4,4.8-11.6
		s7.1-4.8,11.6-4.8c4.5,0,8.4,1.6,11.6,4.8c3.2,3.2,4.8,7.1,4.8,11.6v16.3c0,1.4-0.2,2.7-0.6,4s-1,2.4-1.8,3.4s-1.7,2-2.7,2.8
		s-2.2,1.5-3.4,2.1s-2.5,1-3.8,1.3s-2.6,0.5-3.9,0.5c-1.6,0-3.1-0.2-4.6-0.6s-2.9-1-4.3-1.8s-2.6-1.7-3.7-2.9s-2.1-2.4-2.9-3.9
		c-0.3-0.4-0.5-1-0.5-1.6c0-0.9,0.3-1.6,0.9-2.2s1.3-0.9,2.2-0.9c0.6,0,1.1,0.1,1.5,0.4s0.9,0.9,1.6,1.8s1.2,1.7,1.8,2.1
		c2.2,2.2,4.9,3.3,8.1,3.3c3.2,0,5.8-1.1,8-3.3c1.3-1.6,2-3.2,2-4.8V43.3z M802.2,20.2c-1.4,0-2.8,0.3-4,0.8s-2.3,1.3-3.3,2.2
		s-1.6,2-2.2,3.3s-0.8,2.6-0.8,4s0.3,2.7,0.8,4s1.3,2.3,2.2,3.3s2,1.7,3.3,2.2s2.6,0.8,4,0.8c1.4,0,2.8-0.3,4-0.8s2.3-1.3,3.3-2.2
		s1.7-2,2.2-3.3s0.8-2.6,0.8-4s-0.3-2.7-0.8-4s-1.3-2.3-2.2-3.3s-2-1.7-3.3-2.2S803.7,20.2,802.2,20.2z"/>
	<path fill="#2A3A8D" d="M846.9,31.3c-1.8-0.7-3.1-1.4-3.9-2.2h0c-1.5-1.5-2.2-3.3-2.2-5.3c0-1.5,0.4-2.8,1.2-4s1.8-2.2,3.1-3.1
		s2.7-1.5,4.3-1.9s3.2-0.7,4.8-0.7c4.9,0,9.1,2,12.6,5.9c0.4,0.5,0.6,1.1,0.6,1.8c0,0.9-0.3,1.6-0.9,2.2s-1.3,0.9-2.2,0.9
		c-0.6,0-1.2-0.2-1.6-0.5s-0.9-0.7-1.3-1.1c-2-2-4.4-3-7.3-3c-2.8,0-5.1,0.9-6.7,2.6c-0.3,0.3-0.5,0.7-0.5,1.3s0.3,0.9,0.8,1.1
		l13.7,4.5c1.9,0.7,3.2,1.5,3.9,2.2h0c1.5,1.5,2.2,3.3,2.2,5.3c0,1.5-0.4,2.9-1.2,4s-1.8,2.2-3.1,3.1s-2.7,1.5-4.3,1.9
		s-3.2,0.7-4.8,0.7c-4.9,0-9.1-1.9-12.6-5.8c-0.4-0.6-0.6-1.2-0.6-1.9c0-0.9,0.3-1.6,0.9-2.2s1.3-0.9,2.2-0.9c0.6,0,1.2,0.2,1.6,0.6
		s0.9,0.7,1.2,1.1c2,2,4.4,3,7.3,3c2.8,0,5-0.9,6.7-2.6c0.3-0.3,0.4-0.7,0.4-1.2c0-0.5-0.3-0.9-0.8-1.1L846.9,31.3z"/>
	<path fill="#2A3A8D" d="M899.4,46.9c-0.9,0-1.6-0.3-2.2-0.9s-0.9-1.3-0.9-2.1c-1.3,1.1-2.8,1.8-4.3,2.3s-3.1,0.7-4.9,0.7
		c-2.1,0-4.1-0.4-5.9-1.2s-3.5-1.9-4.9-3.3s-2.5-3-3.3-4.9s-1.2-3.8-1.2-5.9V17.1c0-0.8,0.3-1.6,0.9-2.2s1.3-0.9,2.2-0.9
		c0.8,0,1.6,0.3,2.2,0.9s0.9,1.3,0.9,2.2v14.5c0,1.3,0.2,2.5,0.7,3.6s1.1,2.1,2,2.9s1.8,1.5,2.9,2s2.3,0.7,3.6,0.7
		c1.2,0,2.4-0.2,3.5-0.7s2.1-1.1,2.9-2s1.5-1.8,2-2.9s0.7-2.3,0.7-3.6V17.1c0-0.8,0.3-1.6,0.9-2.2s1.3-0.9,2.2-0.9
		c0.8,0,1.6,0.3,2.2,0.9s0.9,1.3,0.9,2.2v26.7c0,0.8-0.3,1.6-0.9,2.2S900.3,46.9,899.4,46.9z"/>
	<path fill="#2A3A8D" d="M923.5,46.9c-3.9,0-7.4-1.2-10.3-3.6v14.6c0,0.9-0.3,1.6-0.9,2.2s-1.3,0.9-2.2,0.9c-0.9,0-1.6-0.3-2.2-0.9
		s-0.9-1.3-0.9-2.2V30.5c0-4.5,1.6-8.4,4.8-11.6s7.1-4.8,11.6-4.8c4.5,0,8.4,1.6,11.6,4.8c1.6,1.6,2.8,3.3,3.6,5.3s1.2,4,1.2,6.3
		c0,4.6-1.6,8.4-4.8,11.6c-1.6,1.6-3.4,2.8-5.3,3.6S925.8,46.9,923.5,46.9z M913.2,30.5c0,1.4,0.3,2.7,0.8,4s1.3,2.3,2.2,3.3
		s2,1.7,3.3,2.2s2.6,0.8,4,0.8c1.4,0,2.8-0.3,4-0.8s2.3-1.3,3.3-2.2s1.7-2,2.2-3.3s0.8-2.6,0.8-4s-0.3-2.7-0.8-4s-1.3-2.3-2.2-3.3
		s-2-1.7-3.3-2.2s-2.6-0.8-4-0.8c-1.4,0-2.8,0.3-4,0.8s-2.3,1.3-3.3,2.2s-1.6,2-2.2,3.3S913.2,29.1,913.2,30.5z"/>
	<path fill="#2A3A8D" d="M950.6,17.1v0.6c1.5-1.2,3.1-2.1,4.8-2.7s3.6-0.9,5.5-0.9c0.9,0,1.8,0.1,2.8,0.2s1.9,0.3,2.7,0.6
		s1.5,0.7,2.1,1.2s0.8,1.2,0.8,2.1c0,0.4-0.1,0.8-0.2,1.2s-0.4,0.7-0.7,1s-0.6,0.5-1,0.7s-0.8,0.2-1.2,0.2c-0.4,0-0.8-0.1-1.3-0.3
		c-1.2-0.5-2.6-0.7-4-0.7c-1.4,0-2.8,0.3-4,0.8s-2.3,1.3-3.3,2.2s-1.7,2-2.2,3.3s-0.8,2.6-0.8,4v13.4c0,0.8-0.3,1.6-0.9,2.2
		s-1.3,0.9-2.2,0.9c-0.9,0-1.6-0.3-2.2-0.9s-0.9-1.3-0.9-2.2V17.1c0-0.8,0.3-1.6,0.9-2.2s1.3-0.9,2.2-0.9c0.8,0,1.6,0.3,2.2,0.9
		S950.6,16.3,950.6,17.1z"/>
	<path fill="#2A3A8D" d="M981,8.2c0,1-0.4,1.8-1.1,2.5s-1.6,1.1-2.5,1.1s-1.8-0.4-2.5-1.1s-1.1-1.6-1.1-2.5s0.4-1.8,1.1-2.5
		s1.6-1.1,2.5-1.1s1.8,0.4,2.5,1.1S981,7.2,981,8.2z M974.4,43.8V17.1c0-0.9,0.3-1.6,0.9-2.2s1.3-0.9,2.2-0.9s1.6,0.3,2.2,0.9
		s0.9,1.3,0.9,2.2v26.7c0,0.9-0.3,1.6-0.9,2.2s-1.3,0.9-2.2,0.9s-1.6-0.3-2.2-0.9S974.4,44.7,974.4,43.8z"/>
	<path fill="#2A3A8D" d="M992.8,31.3c-1.8-0.7-3.1-1.4-3.9-2.2h0c-1.5-1.5-2.2-3.3-2.2-5.3c0-1.5,0.4-2.8,1.2-4s1.8-2.2,3.1-3.1
		s2.7-1.5,4.3-1.9s3.2-0.7,4.8-0.7c4.9,0,9.1,2,12.6,5.9c0.4,0.5,0.6,1.1,0.6,1.8c0,0.9-0.3,1.6-0.9,2.2s-1.3,0.9-2.2,0.9
		c-0.6,0-1.2-0.2-1.6-0.5s-0.9-0.7-1.3-1.1c-2-2-4.4-3-7.3-3c-2.8,0-5.1,0.9-6.7,2.6c-0.3,0.3-0.5,0.7-0.5,1.3s0.3,0.9,0.8,1.1
		l13.7,4.5c1.9,0.7,3.2,1.5,3.9,2.2h0c1.5,1.5,2.2,3.3,2.2,5.3c0,1.5-0.4,2.9-1.2,4s-1.8,2.2-3.1,3.1s-2.7,1.5-4.3,1.9
		s-3.2,0.7-4.8,0.7c-4.9,0-9.1-1.9-12.6-5.8c-0.4-0.6-0.6-1.2-0.6-1.9c0-0.9,0.3-1.6,0.9-2.2s1.3-0.9,2.2-0.9c0.6,0,1.2,0.2,1.6,0.6
		s0.9,0.7,1.2,1.1c2,2,4.4,3,7.3,3c2.8,0,5-0.9,6.7-2.6c0.3-0.3,0.4-0.7,0.4-1.2c0-0.5-0.3-0.9-0.8-1.1L992.8,31.3z"/>
	<path fill="#2A3A8D" d="M1042.8,37.6c0.9,0,1.6,0.3,2.2,0.9s0.9,1.3,0.9,2.2c0,0.9-0.3,1.6-0.9,2.2c-3,2.7-6.6,4-10.7,4
		c-4.5,0-8.4-1.6-11.6-4.8s-4.8-7.1-4.8-11.6s1.6-8.4,4.8-11.6s7.1-4.8,11.6-4.8c4.5,0,8.4,1.6,11.6,4.8c1.6,1.6,2.8,3.3,3.6,5.3
		s1.2,4,1.2,6.3c0,0.9-0.3,1.6-0.9,2.2s-1.3,0.9-2.2,0.9h-23.2c0.3,1.1,0.8,2.1,1.5,2.9s1.4,1.7,2.3,2.3s1.8,1.1,2.9,1.5
		s2.1,0.5,3.3,0.5c1.3,0,2.5-0.2,3.5-0.6s2.1-1,3-1.8C1041.4,37.9,1042.1,37.7,1042.8,37.6z M1044.1,27.4c-0.3-1.1-0.8-2.1-1.5-2.9
		s-1.4-1.7-2.3-2.3s-1.8-1.1-2.9-1.5s-2.1-0.5-3.2-0.5s-2.2,0.2-3.3,0.5s-2,0.8-2.9,1.5s-1.6,1.4-2.3,2.3s-1.1,1.9-1.4,2.9H1044.1z"
		/>
	<path fill="#2A3A8D" d="M1080.9,42.7c0,0.6-0.1,1.1-0.3,1.6s-0.5,0.9-0.9,1.3s-0.8,0.7-1.3,0.9s-1,0.3-1.6,0.3
		c-0.6,0-1.1-0.1-1.6-0.3s-0.9-0.5-1.3-0.9s-0.7-0.8-0.9-1.3s-0.3-1.1-0.3-1.6c0-0.6,0.1-1.1,0.3-1.6s0.5-1,0.9-1.3s0.8-0.7,1.3-0.9
		s1-0.3,1.6-0.3s1.1,0.1,1.6,0.3s1,0.5,1.3,0.9s0.7,0.8,0.9,1.3S1080.9,42.1,1080.9,42.7z M1073.7,3.1c0-0.9,0.3-1.6,0.9-2.2
		s1.3-0.9,2.2-0.9s1.6,0.3,2.2,0.9s0.9,1.3,0.9,2.2v30.6c0,0.4-0.1,0.8-0.2,1.2s-0.4,0.7-0.7,1s-0.6,0.5-1,0.6s-0.8,0.2-1.2,0.2
		c-0.4,0-0.8-0.1-1.2-0.2s-0.7-0.4-1-0.7s-0.5-0.6-0.6-1s-0.2-0.7-0.2-1.2V3.1z"/>
</g>
</svg>
