<!-- Generator: Adobe Illustrator 18.0.0, SVG Export Plug-In  -->
<svg version="1.1"
	 xmlns="http://www.w3.org/2000/svg" xmlns:xlink="http://www.w3.org/1999/xlink" xmlns:a="http://ns.adobe.com/AdobeSVGViewerExtensions/3.0/"
	 x="0px" y="0px" width="269px" height="273.8px" viewBox="0 0 269 273.8" enable-background="new 0 0 269 273.8"
	 xml:space="preserve">
<defs>
</defs>
<g>
	<g>
		<path fill="none" stroke="#2A3A8D" stroke-width="16" stroke-miterlimit="10" d="M134.5,8c-17.5,0-31.8,14.2-31.8,31.8v52.3h63.5
			V39.8C166.2,22.2,152,8,134.5,8z"/>
		<g id="hospital_1_">
			<path fill="#2B398E" d="M215.2,82.5H53.8C24.1,82.5,0,106.6,0,136.3V220c0,29.7,24.1,53.8,53.8,53.8h161.4
				c29.7,0,53.8-24.1,53.8-53.8v-83.7C269,106.6,244.9,82.5,215.2,82.5z M165.5,183.4h-22.8v22.8h-16.4v-22.8h-22.8v-16.4h22.8
				v-22.8h16.4v22.8h22.8V183.4z"/>
		</g>
	</g>
	<polygon fill="#FFFFFF" points="142.7,144.2 126.3,144.2 126.3,166.9 103.5,166.9 103.5,183.4 126.3,183.4 126.3,206.2 
		142.7,206.2 142.7,183.4 165.5,183.4 165.5,166.9 142.7,166.9 	"/>
</g>
</svg>
