<!-- Generator: Adobe Illustrator 18.0.0, SVG Export Plug-In  -->
<svg version="1.1"
	 xmlns="http://www.w3.org/2000/svg" xmlns:xlink="http://www.w3.org/1999/xlink" xmlns:a="http://ns.adobe.com/AdobeSVGViewerExtensions/3.0/"
	 x="0px" y="0px" width="682.3px" height="110.3px" viewBox="0 0 682.3 110.3" enable-background="new 0 0 682.3 110.3"
	 xml:space="preserve">
<defs>
</defs>
<g>
	<path fill="#B97E2B" d="M27.6,36.3c0,0.7-0.3,1.3-0.8,1.8c-0.5,0.5-1.1,0.8-1.8,0.8s-1.3-0.3-1.8-0.8c-0.5-0.5-0.8-1.1-0.8-1.8V22
		H5.2v14.3c0,0.7-0.3,1.3-0.8,1.8c-0.5,0.5-1.1,0.8-1.8,0.8s-1.3-0.3-1.8-0.8C0.3,37.6,0,37,0,36.3V2.6c0-0.7,0.3-1.3,0.8-1.8
		C1.3,0.3,1.9,0,2.6,0s1.3,0.3,1.8,0.8c0.5,0.5,0.8,1.1,0.8,1.8v14.3h17.3V2.6c0-0.7,0.3-1.3,0.8-1.8C23.7,0.3,24.3,0,25.1,0
		s1.3,0.3,1.8,0.8c0.5,0.5,0.8,1.1,0.8,1.8V36.3z"/>
	<path fill="#B97E2B" d="M58.4,25.3c0,3.8-1.3,7-4,9.6c-2.7,2.7-5.9,4-9.6,4c-3.8,0-7-1.3-9.6-4s-4-5.9-4-9.6c0-3.8,1.3-7,4-9.6
		c2.7-2.7,5.9-4,9.6-4c3.7,0,6.9,1.3,9.6,4c1.3,1.3,2.3,2.8,3,4.4C58.1,21.7,58.4,23.4,58.4,25.3z M44.8,16.7
		c-1.2,0-2.3,0.2-3.4,0.7s-1.9,1.1-2.7,1.8S37.4,20.9,37,22c-0.4,1-0.7,2.1-0.7,3.3c0,1.2,0.2,2.3,0.7,3.3c0.4,1,1,1.9,1.8,2.7
		s1.7,1.4,2.7,1.8s2.2,0.7,3.4,0.7c1.2,0,2.3-0.2,3.3-0.7s1.9-1.1,2.7-1.8s1.4-1.7,1.8-2.7c0.4-1,0.7-2.1,0.7-3.3
		c0-1.2-0.2-2.3-0.7-3.3c-0.4-1-1.1-1.9-1.8-2.7s-1.7-1.4-2.7-1.8S46,16.7,44.8,16.7z"/>
	<path fill="#B97E2B" d="M79.7,11.7c1.2,0,2,0.6,2.4,1.9l4.9,14.8l5.1-15.3c0.1-0.4,0.4-0.8,0.8-1c0.4-0.3,0.9-0.4,1.5-0.4
		c0.4,0,0.7,0.1,1,0.2c0.3,0.1,0.6,0.3,0.8,0.5c0.2,0.2,0.4,0.5,0.5,0.8c0.1,0.3,0.2,0.6,0.2,1c0,0.3-0.1,0.6-0.2,1l-7.4,22.1
		c-0.1,0.5-0.4,0.9-0.8,1.2c-0.4,0.3-0.9,0.5-1.6,0.5c-0.6,0-1.1-0.2-1.5-0.5c-0.4-0.3-0.7-0.7-0.9-1.1l-5-15l-5,15
		c-0.1,0.5-0.4,0.9-0.9,1.2c-0.4,0.3-0.9,0.5-1.5,0.5s-1.1-0.2-1.5-0.5c-0.4-0.3-0.7-0.7-0.9-1.2l-7.4-22.1c-0.1-0.4-0.2-0.7-0.2-1
		c0-0.3,0.1-0.7,0.2-1c0.1-0.3,0.3-0.6,0.5-0.8c0.2-0.2,0.5-0.4,0.8-0.5c0.3-0.1,0.6-0.2,1-0.2c0.6,0,1.1,0.1,1.5,0.4
		c0.4,0.3,0.7,0.6,0.8,1l5.1,15.2l4.9-14.8C77.7,12.3,78.5,11.7,79.7,11.7z"/>
	<path fill="#B97E2B" d="M115.5,36.4V2.6c0-0.7,0.2-1.3,0.7-1.8c0.5-0.5,1.1-0.7,1.8-0.7c0.7,0,1.3,0.2,1.8,0.7
		c0.5,0.5,0.7,1.1,0.7,1.8v31.3h1.2c0.7,0,1.3,0.2,1.8,0.7c0.5,0.5,0.7,1.1,0.7,1.8c0,0.7-0.2,1.3-0.7,1.8c-0.5,0.5-1.1,0.7-1.8,0.7
		H118c-0.7,0-1.3-0.2-1.8-0.7C115.8,37.7,115.5,37.1,115.5,36.4z"/>
	<path fill="#B97E2B" d="M154.7,25.3c0,3.8-1.3,7-4,9.6c-2.7,2.7-5.9,4-9.6,4c-3.8,0-7-1.3-9.6-4s-4-5.9-4-9.6c0-3.8,1.3-7,4-9.6
		c2.7-2.7,5.9-4,9.6-4c3.7,0,6.9,1.3,9.6,4c1.3,1.3,2.3,2.8,3,4.4C154.3,21.7,154.7,23.4,154.7,25.3z M141.1,16.7
		c-1.2,0-2.3,0.2-3.4,0.7s-1.9,1.1-2.7,1.8s-1.4,1.7-1.8,2.7c-0.4,1-0.7,2.1-0.7,3.3c0,1.2,0.2,2.3,0.7,3.3c0.4,1,1,1.9,1.8,2.7
		s1.7,1.4,2.7,1.8s2.2,0.7,3.4,0.7c1.2,0,2.3-0.2,3.3-0.7s1.9-1.1,2.7-1.8s1.4-1.7,1.8-2.7c0.4-1,0.7-2.1,0.7-3.3
		c0-1.2-0.2-2.3-0.7-3.3c-0.4-1-1.1-1.9-1.8-2.7s-1.7-1.4-2.7-1.8S142.2,16.7,141.1,16.7z"/>
	<path fill="#B97E2B" d="M163.6,14.2c2.2-1.7,4.7-2.5,7.6-2.5c1.7,0,3.3,0.3,4.8,1s2.9,1.6,4,2.7c1.2,1.1,2.1,2.5,2.8,4
		c0.7,1.5,1,3.2,1,4.9v12c0,0.7-0.2,1.3-0.7,1.8s-1.1,0.7-1.8,0.7c-0.7,0-1.3-0.2-1.8-0.7c-0.5-0.5-0.7-1.1-0.7-1.8v-12
		c0-1-0.2-2-0.6-2.9c-0.4-0.9-1-1.7-1.6-2.4c-0.7-0.7-1.5-1.2-2.4-1.6c-0.9-0.4-1.9-0.6-2.9-0.6c-1.1,0-2,0.2-3,0.6
		c-0.9,0.4-1.7,0.9-2.4,1.6c-0.7,0.7-1.2,1.5-1.6,2.4c-0.4,0.9-0.6,1.9-0.6,2.9v12c0,0.7-0.2,1.3-0.7,1.8s-1.1,0.7-1.8,0.7
		c-0.7,0-1.3-0.2-1.8-0.7s-0.7-1.1-0.7-1.8V14.2c0-0.7,0.2-1.3,0.7-1.8c0.5-0.5,1.1-0.8,1.8-0.8c0.7,0,1.3,0.3,1.8,0.8
		C163.4,12.9,163.6,13.5,163.6,14.2z"/>
	<path fill="#B97E2B" d="M209.9,35.9c-2.4,2-5.3,3-8.5,3c-3.8,0-7-1.3-9.6-4s-4-5.9-4-9.6c0-3.8,1.3-7,4-9.6c2.7-2.7,5.9-4,9.6-4
		c3.7,0,6.9,1.3,9.6,4c2.7,2.7,4,5.9,4,9.6v13.5c0,1.2-0.2,2.3-0.5,3.3s-0.9,2-1.5,2.9s-1.4,1.6-2.2,2.3c-0.9,0.7-1.8,1.3-2.8,1.8
		c-1,0.5-2,0.8-3.1,1.1s-2.2,0.4-3.3,0.4c-1.3,0-2.6-0.2-3.8-0.5c-1.2-0.3-2.4-0.8-3.5-1.5c-1.1-0.6-2.1-1.5-3.1-2.4
		c-0.9-1-1.7-2-2.4-3.2c-0.3-0.4-0.4-0.8-0.4-1.4c0-0.7,0.2-1.3,0.7-1.8c0.5-0.5,1.1-0.7,1.8-0.7c0.5,0,0.9,0.1,1.2,0.3
		c0.3,0.2,0.7,0.7,1.3,1.5c0.6,0.8,1,1.4,1.5,1.8c1.8,1.8,4.1,2.8,6.7,2.8c2.6,0,4.8-0.9,6.7-2.7c1.1-1.4,1.7-2.7,1.7-4V35.9z
		 M201.3,16.7c-1.2,0-2.3,0.2-3.4,0.7c-1,0.5-1.9,1.1-2.7,1.8s-1.4,1.7-1.8,2.7c-0.4,1-0.7,2.1-0.7,3.3c0,1.2,0.2,2.3,0.7,3.3
		c0.4,1,1,1.9,1.8,2.7s1.7,1.4,2.7,1.8c1,0.5,2.2,0.7,3.4,0.7c1.2,0,2.3-0.2,3.3-0.7c1-0.5,1.9-1.1,2.7-1.8s1.4-1.7,1.8-2.7
		c0.4-1,0.7-2.1,0.7-3.3c0-1.2-0.2-2.3-0.7-3.3c-0.4-1-1.1-1.9-1.8-2.7s-1.7-1.4-2.7-1.8C203.6,17,202.5,16.7,201.3,16.7z"/>
	<path fill="#B97E2B" d="M254.1,31.2c0.7,0,1.3,0.2,1.8,0.7c0.5,0.5,0.7,1.1,0.7,1.8c0,0.7-0.3,1.3-0.8,1.9
		c-2.5,2.2-5.5,3.3-8.9,3.3c-3.8,0-7-1.3-9.6-4s-4-5.9-4-9.6c0-3.8,1.3-7,4-9.6c2.7-2.7,5.9-4,9.6-4c3.4,0,6.4,1.1,8.9,3.3
		c0.6,0.5,0.9,1.2,0.9,1.9c0,0.7-0.2,1.3-0.7,1.8c-0.5,0.5-1.1,0.7-1.8,0.7c-0.6,0-1.2-0.2-1.7-0.6c-0.8-0.7-1.7-1.2-2.6-1.6
		c-0.9-0.4-1.9-0.5-3-0.5c-1.2,0-2.3,0.2-3.3,0.7s-1.9,1.1-2.7,1.8c-0.8,0.8-1.4,1.7-1.8,2.7c-0.4,1-0.7,2.1-0.7,3.3
		c0,1.2,0.2,2.3,0.7,3.3c0.4,1,1.1,1.9,1.8,2.7c0.8,0.8,1.7,1.4,2.7,1.8c1,0.4,2.1,0.7,3.3,0.7c1.1,0,2.1-0.2,3-0.5s1.8-0.9,2.6-1.6
		C253,31.4,253.5,31.2,254.1,31.2z"/>
	<path fill="#B97E2B" d="M282.8,36.4v-0.5c-1.2,1-2.5,1.7-4,2.2c-1.4,0.5-2.9,0.8-4.6,0.8c-3.8,0-7-1.3-9.6-4s-4-5.9-4-9.6
		c0-3.8,1.3-7,4-9.6c2.7-2.7,5.9-4,9.6-4c3.7,0,6.9,1.3,9.6,4c2.7,2.7,4,5.9,4,9.6v11.1c0,0.7-0.2,1.3-0.7,1.8s-1.1,0.7-1.8,0.7
		c-0.7,0-1.3-0.2-1.8-0.7S282.8,37.1,282.8,36.4z M274.3,16.7c-1.2,0-2.3,0.2-3.4,0.7c-1,0.5-1.9,1.1-2.7,1.8s-1.4,1.7-1.8,2.7
		c-0.4,1-0.7,2.1-0.7,3.3c0,1.2,0.2,2.3,0.7,3.3c0.4,1,1,1.9,1.8,2.7s1.7,1.4,2.7,1.8c1,0.5,2.2,0.7,3.4,0.7c1.2,0,2.3-0.2,3.3-0.7
		c1-0.5,1.9-1.1,2.7-1.8s1.4-1.7,1.8-2.7c0.4-1,0.7-2.1,0.7-3.3c0-1.2-0.2-2.3-0.7-3.3c-0.4-1-1.1-1.9-1.8-2.7s-1.7-1.4-2.7-1.8
		C276.5,17,275.4,16.7,274.3,16.7z"/>
	<path fill="#B97E2B" d="M296.8,14.2c2.2-1.7,4.7-2.5,7.6-2.5c1.7,0,3.3,0.3,4.8,1s2.9,1.6,4,2.7c1.2,1.1,2.1,2.5,2.8,4
		c0.7,1.5,1,3.2,1,4.9v12c0,0.7-0.2,1.3-0.7,1.8s-1.1,0.7-1.8,0.7c-0.7,0-1.3-0.2-1.8-0.7S312,37,312,36.3v-12c0-1-0.2-2-0.6-2.9
		c-0.4-0.9-1-1.7-1.6-2.4c-0.7-0.7-1.5-1.2-2.4-1.6c-0.9-0.4-1.9-0.6-2.9-0.6c-1.1,0-2,0.2-3,0.6c-0.9,0.4-1.7,0.9-2.4,1.6
		c-0.7,0.7-1.2,1.5-1.6,2.4c-0.4,0.9-0.6,1.9-0.6,2.9v12c0,0.7-0.2,1.3-0.7,1.8s-1.1,0.7-1.8,0.7c-0.7,0-1.3-0.2-1.8-0.7
		s-0.7-1.1-0.7-1.8V14.2c0-0.7,0.2-1.3,0.7-1.8c0.5-0.5,1.1-0.8,1.8-0.8c0.7,0,1.3,0.3,1.8,0.8C296.6,12.9,296.8,13.5,296.8,14.2z"
		/>
	<path fill="#B97E2B" d="M337.9,11.7h1.1V2.5c0-0.7,0.2-1.3,0.7-1.8c0.5-0.5,1.1-0.7,1.8-0.7c0.7,0,1.3,0.2,1.8,0.7
		c0.5,0.5,0.7,1.1,0.7,1.8v9.1h3c0.7,0,1.3,0.2,1.8,0.7c0.5,0.5,0.7,1.1,0.7,1.8c0,0.7-0.2,1.3-0.7,1.8s-1.1,0.7-1.8,0.7h-3V29
		c0,3.2,1.6,4.8,4.9,4.8c0.7,0,1.3,0.2,1.8,0.7c0.5,0.5,0.7,1.1,0.7,1.8c0,0.7-0.2,1.3-0.7,1.8c-0.5,0.5-1.1,0.7-1.8,0.7
		c-6.6,0-9.9-3.3-9.9-9.9V16.7h-1.1c-0.7,0-1.3-0.2-1.8-0.7s-0.7-1.1-0.7-1.8c0-0.7,0.2-1.3,0.7-1.8
		C336.6,11.9,337.2,11.7,337.9,11.7z"/>
	<path fill="#B97E2B" d="M360,36.3c0,0.7-0.2,1.3-0.7,1.8s-1.1,0.7-1.8,0.7c-0.7,0-1.3-0.2-1.8-0.7s-0.7-1.1-0.7-1.8V2.6
		c0-0.7,0.2-1.3,0.7-1.8c0.5-0.5,1.1-0.7,1.8-0.7c0.7,0,1.3,0.2,1.8,0.7c0.5,0.5,0.7,1.1,0.8,1.8v11.7c2.2-1.7,4.7-2.5,7.6-2.5
		c1.7,0,3.3,0.3,4.8,1c1.5,0.7,2.9,1.6,4,2.7c1.2,1.1,2.1,2.5,2.8,4s1,3.2,1,4.9v11.9c0,0.7-0.3,1.3-0.8,1.8
		c-0.5,0.5-1.1,0.7-1.8,0.7s-1.3-0.2-1.8-0.7s-0.7-1.1-0.7-1.8V24.4c0-1-0.2-2-0.6-2.9c-0.4-0.9-1-1.7-1.6-2.4
		c-0.7-0.7-1.5-1.2-2.4-1.6c-0.9-0.4-1.9-0.6-2.9-0.6c-1.1,0-2,0.2-3,0.6c-0.9,0.4-1.7,0.9-2.4,1.6c-0.7,0.7-1.2,1.5-1.6,2.4
		c-0.4,0.9-0.6,1.9-0.6,2.9V36.3z"/>
	<path fill="#B97E2B" d="M404.8,31.2c0.7,0,1.3,0.2,1.8,0.7c0.5,0.5,0.7,1.1,0.7,1.8c0,0.7-0.2,1.3-0.7,1.8
		c-2.5,2.2-5.5,3.3-8.9,3.3c-3.8,0-7-1.3-9.6-4s-4-5.9-4-9.6c0-3.8,1.3-7,4-9.6c2.7-2.7,5.9-4,9.6-4c3.7,0,6.9,1.3,9.6,4
		c1.3,1.3,2.3,2.8,3,4.4c0.7,1.6,1,3.4,1,5.2c0,0.7-0.2,1.3-0.7,1.8s-1.1,0.7-1.8,0.7h-19.2c0.3,0.9,0.7,1.7,1.2,2.4
		c0.5,0.7,1.2,1.4,1.9,1.9c0.7,0.5,1.5,0.9,2.4,1.2c0.9,0.3,1.8,0.4,2.7,0.4c1.1,0,2-0.2,2.9-0.5c0.9-0.3,1.7-0.8,2.5-1.5
		C403.6,31.5,404.2,31.2,404.8,31.2z M405.9,22.7c-0.3-0.9-0.7-1.7-1.2-2.4c-0.5-0.7-1.2-1.4-1.9-1.9c-0.7-0.5-1.5-0.9-2.4-1.2
		c-0.9-0.3-1.8-0.4-2.7-0.4c-0.9,0-1.8,0.1-2.7,0.4s-1.7,0.7-2.4,1.2s-1.4,1.2-1.9,1.9c-0.5,0.7-0.9,1.6-1.2,2.4H405.9z"/>
	<path fill="#B97E2B" d="M424.2,36.4l-8.8-21c-0.2-0.4-0.2-0.8-0.2-1.1c0-0.3,0.1-0.7,0.2-1c0.1-0.3,0.3-0.6,0.5-0.8
		c0.2-0.2,0.5-0.4,0.8-0.5c0.3-0.1,0.6-0.2,1-0.2c0.5,0,1,0.1,1.4,0.4c0.4,0.3,0.8,0.7,1,1.3l6.8,16.3l6.8-16.4
		c0.2-0.5,0.5-0.9,0.8-1.2s0.9-0.4,1.5-0.4c0.4,0,0.7,0.1,1,0.2c0.3,0.1,0.6,0.3,0.8,0.5s0.4,0.5,0.5,0.8c0.1,0.3,0.2,0.6,0.2,1
		c0,0.4-0.1,0.7-0.3,1.1l-14,33.5c-0.2,0.5-0.5,0.9-1,1.2s-0.9,0.5-1.4,0.5c-0.7,0-1.3-0.2-1.8-0.7c-0.5-0.5-0.7-1.1-0.7-1.8
		c0-0.4,0.1-0.8,0.2-1.1L424.2,36.4z"/>
	<path fill="#B97E2B" d="M456.8,36.4V2.6c0-0.7,0.2-1.3,0.7-1.8c0.5-0.5,1.1-0.7,1.8-0.7c0.7,0,1.3,0.2,1.8,0.7
		c0.5,0.5,0.7,1.1,0.7,1.8v31.3h1.2c0.7,0,1.3,0.2,1.8,0.7c0.5,0.5,0.7,1.1,0.7,1.8c0,0.7-0.2,1.3-0.7,1.8c-0.5,0.5-1.1,0.7-1.8,0.7
		h-3.7c-0.7,0-1.3-0.2-1.8-0.7S456.8,37.1,456.8,36.4z"/>
	<path fill="#B97E2B" d="M490.8,36.4v-0.5c-1.2,1-2.5,1.7-4,2.2c-1.4,0.5-2.9,0.8-4.6,0.8c-3.8,0-7-1.3-9.6-4c-2.7-2.7-4-5.9-4-9.6
		c0-3.8,1.3-7,4-9.6c2.7-2.7,5.9-4,9.6-4c3.7,0,6.9,1.3,9.6,4c2.7,2.7,4,5.9,4,9.6v11.1c0,0.7-0.2,1.3-0.7,1.8
		c-0.5,0.5-1.1,0.7-1.8,0.7c-0.7,0-1.3-0.2-1.8-0.7S490.8,37.1,490.8,36.4z M482.3,16.7c-1.2,0-2.3,0.2-3.4,0.7
		c-1,0.5-1.9,1.1-2.7,1.8s-1.4,1.7-1.8,2.7c-0.4,1-0.7,2.1-0.7,3.3c0,1.2,0.2,2.3,0.7,3.3c0.4,1,1,1.9,1.8,2.7s1.7,1.4,2.7,1.8
		c1,0.5,2.2,0.7,3.4,0.7c1.2,0,2.3-0.2,3.3-0.7s1.9-1.1,2.7-1.8s1.4-1.7,1.8-2.7c0.4-1,0.7-2.1,0.7-3.3c0-1.2-0.2-2.3-0.7-3.3
		c-0.4-1-1.1-1.9-1.8-2.7s-1.7-1.4-2.7-1.8S483.5,16.7,482.3,16.7z"/>
	<path fill="#B97E2B" d="M504.8,25.9c-1.5-0.6-2.6-1.2-3.2-1.8h0c-1.2-1.2-1.8-2.7-1.8-4.4c0-1.2,0.3-2.3,1-3.3s1.5-1.8,2.6-2.5
		c1.1-0.7,2.2-1.2,3.6-1.6c1.3-0.4,2.6-0.6,4-0.6c4.1,0,7.5,1.6,10.4,4.9c0.3,0.4,0.5,0.9,0.5,1.5c0,0.7-0.2,1.3-0.7,1.8
		c-0.5,0.5-1.1,0.7-1.8,0.7c-0.5,0-1-0.1-1.3-0.4c-0.4-0.3-0.7-0.6-1.1-0.9c-1.7-1.7-3.7-2.5-6-2.5c-2.3,0-4.2,0.7-5.6,2.1
		c-0.3,0.3-0.4,0.6-0.4,1.1c0,0.5,0.2,0.8,0.6,0.9l11.4,3.7c1.6,0.6,2.7,1.2,3.2,1.8h0c1.2,1.2,1.8,2.7,1.8,4.4c0,1.2-0.3,2.4-1,3.4
		c-0.7,1-1.5,1.8-2.6,2.5c-1.1,0.7-2.2,1.2-3.5,1.6c-1.3,0.4-2.6,0.6-4,0.6c-4.1,0-7.6-1.6-10.4-4.8c-0.4-0.5-0.5-1-0.5-1.6
		c0-0.7,0.2-1.3,0.7-1.8c0.5-0.5,1.1-0.7,1.8-0.7c0.5,0,1,0.2,1.4,0.5c0.4,0.3,0.7,0.6,1,0.9c1.7,1.7,3.7,2.5,6.1,2.5
		c2.3,0,4.2-0.7,5.6-2.2c0.2-0.3,0.4-0.6,0.4-1c0-0.5-0.2-0.8-0.7-0.9L504.8,25.9z"/>
	<path fill="#B97E2B" d="M527.9,11.7h1.1V2.5c0-0.7,0.2-1.3,0.7-1.8c0.5-0.5,1.1-0.7,1.8-0.7c0.7,0,1.3,0.2,1.8,0.7
		c0.5,0.5,0.7,1.1,0.7,1.8v9.1h3c0.7,0,1.3,0.2,1.8,0.7c0.5,0.5,0.7,1.1,0.7,1.8c0,0.7-0.2,1.3-0.7,1.8s-1.1,0.7-1.8,0.7h-3V29
		c0,3.2,1.6,4.8,4.9,4.8c0.7,0,1.3,0.2,1.8,0.7c0.5,0.5,0.7,1.1,0.7,1.8c0,0.7-0.2,1.3-0.7,1.8s-1.1,0.7-1.8,0.7
		c-6.6,0-9.9-3.3-9.9-9.9V16.7h-1.1c-0.7,0-1.3-0.2-1.8-0.7c-0.5-0.5-0.7-1.1-0.7-1.8c0-0.7,0.2-1.3,0.7-1.8
		C526.7,11.9,527.3,11.7,527.9,11.7z"/>
	<path fill="#B97E2B" d="M22.2,96.1v-0.5c-1.2,1-2.5,1.7-4,2.2c-1.4,0.5-2.9,0.8-4.6,0.8c-3.8,0-7-1.3-9.6-4s-4-5.9-4-9.6
		c0-3.8,1.3-7,4-9.6c2.7-2.7,5.9-4,9.6-4c3.7,0,6.9,1.3,9.6,4c2.7,2.7,4,5.9,4,9.6v11.1c0,0.7-0.2,1.3-0.7,1.8s-1.1,0.7-1.8,0.7
		c-0.7,0-1.3-0.2-1.8-0.7S22.2,96.8,22.2,96.1z M13.7,76.5c-1.2,0-2.3,0.2-3.4,0.7c-1,0.5-1.9,1.1-2.7,1.8s-1.4,1.7-1.8,2.7
		c-0.4,1-0.7,2.1-0.7,3.3c0,1.2,0.2,2.3,0.7,3.3c0.4,1,1,1.9,1.8,2.7s1.7,1.4,2.7,1.8c1,0.5,2.2,0.7,3.4,0.7c1.2,0,2.3-0.2,3.3-0.7
		c1-0.5,1.9-1.1,2.7-1.8s1.4-1.7,1.8-2.7c0.4-1,0.7-2.1,0.7-3.3c0-1.2-0.2-2.3-0.7-3.3c-0.4-1-1.1-1.9-1.8-2.7s-1.7-1.4-2.7-1.8
		C16,76.7,14.9,76.5,13.7,76.5z"/>
	<path fill="#B97E2B" d="M46.3,64.8c-4.5,0-6.7,2.2-6.7,6.7v1.3h4.9c0.7,0,1.3,0.2,1.8,0.7c0.5,0.5,0.7,1.1,0.7,1.8
		c0,0.7-0.2,1.3-0.7,1.8c-0.5,0.5-1.1,0.7-1.8,0.7h-4.9v18.2c0,0.3-0.1,0.7-0.2,1c-0.1,0.3-0.3,0.6-0.5,0.8
		c-0.2,0.2-0.5,0.4-0.8,0.5c-0.3,0.1-0.6,0.2-1,0.2s-0.7-0.1-1-0.2c-0.3-0.1-0.6-0.3-0.8-0.5c-0.2-0.2-0.4-0.5-0.5-0.8
		c-0.1-0.3-0.2-0.6-0.2-1V77.9h-1.2c-0.7,0-1.3-0.2-1.8-0.7c-0.5-0.5-0.7-1.1-0.7-1.8c0-0.7,0.2-1.3,0.7-1.8
		c0.5-0.5,1.1-0.7,1.8-0.7h1.2v-1.3c0-7.8,3.9-11.8,11.8-11.8c0.7,0,1.3,0.2,1.8,0.7c0.5,0.5,0.7,1.1,0.7,1.8c0,0.7-0.2,1.3-0.7,1.8
		C47.6,64.6,47,64.8,46.3,64.8z"/>
	<path fill="#B97E2B" d="M53,71.4h1.1v-9.1c0-0.7,0.2-1.3,0.7-1.8c0.5-0.5,1.1-0.7,1.8-0.7c0.7,0,1.3,0.2,1.8,0.7
		c0.5,0.5,0.7,1.1,0.7,1.8v9.1h3c0.7,0,1.3,0.2,1.8,0.7c0.5,0.5,0.7,1.1,0.7,1.8c0,0.7-0.2,1.3-0.7,1.8s-1.1,0.7-1.8,0.7h-3v12.2
		c0,3.2,1.6,4.8,4.9,4.8c0.7,0,1.3,0.2,1.8,0.7c0.5,0.5,0.7,1.1,0.7,1.8c0,0.7-0.2,1.3-0.7,1.8c-0.5,0.5-1.1,0.7-1.8,0.7
		c-6.6,0-9.9-3.3-9.9-9.9V76.5H53c-0.7,0-1.3-0.2-1.8-0.7s-0.7-1.1-0.7-1.8c0-0.7,0.2-1.3,0.7-1.8C51.8,71.6,52.4,71.4,53,71.4z"/>
	<path fill="#B97E2B" d="M89.4,91c0.7,0,1.3,0.2,1.8,0.7c0.5,0.5,0.7,1.1,0.7,1.8c0,0.7-0.2,1.3-0.7,1.8c-2.5,2.2-5.5,3.3-8.9,3.3
		c-3.8,0-7-1.3-9.6-4s-4-5.9-4-9.6c0-3.8,1.3-7,4-9.6c2.7-2.7,5.9-4,9.6-4c3.7,0,6.9,1.3,9.6,4c1.3,1.3,2.3,2.8,3,4.4
		c0.7,1.6,1,3.4,1,5.2c0,0.7-0.2,1.3-0.7,1.8s-1.1,0.7-1.8,0.7H74.1c0.3,0.9,0.7,1.7,1.2,2.4c0.5,0.7,1.2,1.4,1.9,1.9
		c0.7,0.5,1.5,0.9,2.4,1.2s1.8,0.4,2.7,0.4c1.1,0,2-0.2,2.9-0.5c0.9-0.3,1.7-0.8,2.5-1.5C88.2,91.2,88.7,91,89.4,91z M90.5,82.5
		c-0.3-0.9-0.7-1.7-1.2-2.4c-0.5-0.7-1.2-1.4-1.9-1.9s-1.5-0.9-2.4-1.2s-1.8-0.4-2.7-0.4s-1.8,0.1-2.7,0.4s-1.7,0.7-2.4,1.2
		c-0.7,0.5-1.4,1.2-1.9,1.9c-0.5,0.7-0.9,1.6-1.2,2.4H90.5z"/>
	<path fill="#B97E2B" d="M104.8,73.9v0.5c1.2-1,2.5-1.7,4-2.2c1.4-0.5,2.9-0.8,4.6-0.8c0.7,0,1.5,0,2.3,0.1c0.8,0.1,1.6,0.3,2.3,0.5
		c0.7,0.3,1.3,0.6,1.7,1c0.5,0.4,0.7,1,0.7,1.7c0,0.4-0.1,0.7-0.2,1c-0.1,0.3-0.3,0.6-0.5,0.8c-0.2,0.2-0.5,0.4-0.8,0.5
		c-0.3,0.1-0.6,0.2-1,0.2c-0.3,0-0.7-0.1-1.1-0.3c-1-0.4-2.1-0.6-3.3-0.6c-1.2,0-2.3,0.2-3.3,0.7s-1.9,1.1-2.7,1.8
		c-0.8,0.8-1.4,1.7-1.8,2.7c-0.4,1-0.7,2.1-0.7,3.3v11.1c0,0.7-0.2,1.3-0.7,1.8c-0.5,0.5-1.1,0.7-1.8,0.7c-0.7,0-1.3-0.2-1.8-0.7
		s-0.7-1.1-0.7-1.8V73.9c0-0.7,0.2-1.3,0.7-1.8c0.5-0.5,1.1-0.7,1.8-0.7c0.7,0,1.3,0.2,1.8,0.7C104.5,72.6,104.8,73.2,104.8,73.9z"
		/>
	<path fill="#B97E2B" d="M158.4,91c0.7,0,1.3,0.2,1.8,0.7c0.5,0.5,0.7,1.1,0.7,1.8c0,0.7-0.2,1.3-0.7,1.8c-2.5,2.2-5.5,3.3-8.9,3.3
		c-3.8,0-7-1.3-9.6-4s-4-5.9-4-9.6c0-3.8,1.3-7,4-9.6c2.7-2.7,5.9-4,9.6-4c3.7,0,6.9,1.3,9.6,4c1.3,1.3,2.3,2.8,3,4.4
		c0.7,1.6,1,3.4,1,5.2c0,0.7-0.2,1.3-0.7,1.8s-1.1,0.7-1.8,0.7h-19.2c0.3,0.9,0.7,1.7,1.2,2.4c0.5,0.7,1.2,1.4,1.9,1.9
		c0.7,0.5,1.5,0.9,2.4,1.2c0.9,0.3,1.8,0.4,2.7,0.4c1.1,0,2-0.2,2.9-0.5c0.9-0.3,1.7-0.8,2.5-1.5C157.2,91.2,157.8,91,158.4,91z
		 M159.5,82.5c-0.3-0.9-0.7-1.7-1.2-2.4c-0.5-0.7-1.2-1.4-1.9-1.9c-0.7-0.5-1.5-0.9-2.4-1.2c-0.9-0.3-1.8-0.4-2.7-0.4
		c-0.9,0-1.8,0.1-2.7,0.4s-1.7,0.7-2.4,1.2s-1.4,1.2-1.9,1.9c-0.5,0.7-0.9,1.6-1.2,2.4H159.5z"/>
	<path fill="#B97E2B" d="M177.2,85l-7.9-9.4c-0.4-0.4-0.6-1-0.6-1.7c0-0.3,0.1-0.7,0.2-1c0.1-0.3,0.3-0.6,0.5-0.8
		c0.2-0.2,0.5-0.4,0.8-0.5c0.3-0.1,0.6-0.2,1-0.2c0.8,0,1.4,0.3,1.9,0.8l7.3,8.8l7.3-8.8c0.5-0.6,1.1-0.8,1.9-0.8
		c0.4,0,0.7,0.1,1,0.2c0.3,0.1,0.6,0.3,0.8,0.5s0.4,0.5,0.5,0.8c0.1,0.3,0.2,0.6,0.2,1c0,0.6-0.2,1.2-0.6,1.7l-7.9,9.4l7.9,9.5
		c0.4,0.4,0.5,0.9,0.5,1.6c0,0.3-0.1,0.7-0.2,1c-0.1,0.3-0.3,0.6-0.5,0.8s-0.5,0.4-0.8,0.5c-0.3,0.1-0.6,0.2-1,0.2
		c-0.7,0-1.3-0.3-1.8-0.8l-7.4-8.9l-7.4,8.9c-0.5,0.5-1.1,0.8-1.8,0.8c-0.4,0-0.7-0.1-1-0.2c-0.3-0.1-0.6-0.3-0.8-0.5
		c-0.2-0.2-0.4-0.5-0.5-0.8c-0.1-0.3-0.2-0.6-0.2-1c0-0.6,0.2-1.2,0.5-1.6L177.2,85z"/>
	<path fill="#B97E2B" d="M209.6,98.6c-3.3,0-6.1-1-8.5-3v12.1c0,0.7-0.2,1.3-0.7,1.8c-0.5,0.5-1.1,0.7-1.8,0.7
		c-0.7,0-1.3-0.2-1.8-0.7c-0.5-0.5-0.7-1.1-0.7-1.8V85c0-3.8,1.3-7,4-9.6c2.7-2.7,5.9-4,9.6-4c3.7,0,6.9,1.3,9.6,4
		c1.3,1.3,2.3,2.8,3,4.4c0.7,1.6,1,3.4,1,5.2c0,3.8-1.3,7-4,9.6c-1.4,1.3-2.8,2.3-4.4,3S211.5,98.6,209.6,98.6z M201.1,85
		c0,1.2,0.2,2.3,0.7,3.3c0.4,1,1,1.9,1.8,2.7s1.7,1.4,2.7,1.8s2.2,0.7,3.4,0.7c1.2,0,2.3-0.2,3.3-0.7s1.9-1.1,2.7-1.8
		s1.4-1.7,1.8-2.7c0.4-1,0.7-2.1,0.7-3.3c0-1.2-0.2-2.3-0.7-3.3c-0.4-1-1.1-1.9-1.8-2.7s-1.7-1.4-2.7-1.8s-2.1-0.7-3.3-0.7
		c-1.2,0-2.3,0.2-3.4,0.7s-1.9,1.1-2.7,1.8s-1.4,1.7-1.8,2.7C201.3,82.7,201.1,83.8,201.1,85z"/>
	<path fill="#B97E2B" d="M234,66.6c0,0.8-0.3,1.5-0.9,2.1c-0.6,0.6-1.3,0.9-2.1,0.9c-0.8,0-1.5-0.3-2.1-0.9
		c-0.6-0.6-0.9-1.3-0.9-2.1c0-0.8,0.3-1.5,0.9-2.1c0.6-0.6,1.3-0.9,2.1-0.9c0.8,0,1.5,0.3,2.1,0.9C233.7,65,234,65.7,234,66.6z
		 M228.5,96.1V73.9c0-0.7,0.2-1.3,0.7-1.8c0.5-0.5,1.1-0.7,1.8-0.7c0.7,0,1.3,0.2,1.8,0.7c0.5,0.5,0.7,1.1,0.8,1.8v22.1
		c0,0.7-0.3,1.3-0.8,1.8c-0.5,0.5-1.1,0.7-1.8,0.7c-0.7,0-1.3-0.2-1.8-0.7S228.5,96.8,228.5,96.1z"/>
	<path fill="#B97E2B" d="M243.8,73.9v0.5c1.2-1,2.5-1.7,4-2.2s2.9-0.8,4.6-0.8c0.7,0,1.5,0,2.3,0.1c0.8,0.1,1.6,0.3,2.3,0.5
		c0.7,0.3,1.3,0.6,1.7,1c0.5,0.4,0.7,1,0.7,1.7c0,0.4-0.1,0.7-0.2,1c-0.1,0.3-0.3,0.6-0.5,0.8c-0.2,0.2-0.5,0.4-0.8,0.5
		s-0.6,0.2-1,0.2c-0.3,0-0.7-0.1-1.1-0.3c-1-0.4-2.1-0.6-3.3-0.6c-1.2,0-2.3,0.2-3.3,0.7s-1.9,1.1-2.7,1.8c-0.8,0.8-1.4,1.7-1.8,2.7
		c-0.4,1-0.7,2.1-0.7,3.3v11.1c0,0.7-0.2,1.3-0.7,1.8s-1.1,0.7-1.8,0.7c-0.7,0-1.3-0.2-1.8-0.7s-0.7-1.1-0.7-1.8V73.9
		c0-0.7,0.2-1.3,0.7-1.8c0.5-0.5,1.1-0.7,1.8-0.7c0.7,0,1.3,0.2,1.8,0.7C243.5,72.6,243.8,73.2,243.8,73.9z"/>
	<path fill="#B97E2B" d="M271.1,96.1l-8.8-21c-0.2-0.4-0.2-0.8-0.2-1.1c0-0.3,0.1-0.7,0.2-1c0.1-0.3,0.3-0.6,0.5-0.8
		c0.2-0.2,0.5-0.4,0.8-0.5c0.3-0.1,0.6-0.2,1-0.2c0.5,0,1,0.1,1.4,0.4c0.4,0.3,0.8,0.7,1,1.3l6.8,16.3l6.8-16.4
		c0.2-0.5,0.5-0.9,0.8-1.2s0.9-0.4,1.5-0.4c0.4,0,0.7,0.1,1,0.2c0.3,0.1,0.6,0.3,0.8,0.5s0.4,0.5,0.5,0.8c0.1,0.3,0.2,0.6,0.2,1
		c0,0.4-0.1,0.7-0.3,1.1l-14,33.5c-0.2,0.5-0.5,0.9-1,1.2s-0.9,0.5-1.4,0.5c-0.7,0-1.3-0.2-1.8-0.7c-0.5-0.5-0.7-1.1-0.7-1.8
		c0-0.4,0.1-0.8,0.2-1.1L271.1,96.1z"/>
	<path fill="#B97E2B" d="M317.5,71.4c3.2,0,6.1,1,8.5,3V62.3c0-0.7,0.2-1.3,0.7-1.8c0.5-0.5,1.1-0.7,1.8-0.7c0.7,0,1.3,0.2,1.8,0.7
		s0.7,1.1,0.7,1.8V85c0,3.8-1.3,7-4,9.6c-2.7,2.7-5.9,4-9.6,4c-3.8,0-7-1.3-9.6-4s-4-5.9-4-9.6c0-3.8,1.3-7,4-9.6
		C310.6,72.7,313.8,71.4,317.5,71.4z M326.1,85c0-1.2-0.2-2.3-0.7-3.3c-0.4-1-1.1-1.9-1.8-2.7s-1.7-1.4-2.7-1.8s-2.1-0.7-3.3-0.7
		c-1.2,0-2.3,0.2-3.4,0.7s-1.9,1.1-2.7,1.8s-1.4,1.7-1.8,2.7c-0.4,1-0.7,2.1-0.7,3.3c0,1.2,0.2,2.3,0.7,3.3c0.4,1,1,1.9,1.8,2.7
		s1.7,1.4,2.7,1.8s2.2,0.7,3.4,0.7c1.2,0,2.3-0.2,3.3-0.7s1.9-1.1,2.7-1.8s1.4-1.7,1.8-2.7C325.8,87.3,326.1,86.2,326.1,85z"/>
	<path fill="#B97E2B" d="M357.2,96.1v-0.5c-1.2,1-2.5,1.7-4,2.2c-1.4,0.5-2.9,0.8-4.6,0.8c-3.8,0-7-1.3-9.6-4s-4-5.9-4-9.6
		c0-3.8,1.3-7,4-9.6c2.7-2.7,5.9-4,9.6-4c3.7,0,6.9,1.3,9.6,4c2.7,2.7,4,5.9,4,9.6v11.1c0,0.7-0.2,1.3-0.7,1.8s-1.1,0.7-1.8,0.7
		c-0.7,0-1.3-0.2-1.8-0.7S357.2,96.8,357.2,96.1z M348.7,76.5c-1.2,0-2.3,0.2-3.4,0.7s-1.9,1.1-2.7,1.8s-1.4,1.7-1.8,2.7
		c-0.4,1-0.7,2.1-0.7,3.3c0,1.2,0.2,2.3,0.7,3.3c0.4,1,1,1.9,1.8,2.7s1.7,1.4,2.7,1.8s2.2,0.7,3.4,0.7c1.2,0,2.3-0.2,3.3-0.7
		s1.9-1.1,2.7-1.8s1.4-1.7,1.8-2.7c0.4-1,0.7-2.1,0.7-3.3c0-1.2-0.2-2.3-0.7-3.3c-0.4-1-1.1-1.9-1.8-2.7s-1.7-1.4-2.7-1.8
		S349.8,76.5,348.7,76.5z"/>
	<path fill="#B97E2B" d="M368.5,71.4h1.1v-9.1c0-0.7,0.2-1.3,0.7-1.8c0.5-0.5,1.1-0.7,1.8-0.7c0.7,0,1.3,0.2,1.8,0.7
		c0.5,0.5,0.7,1.1,0.7,1.8v9.1h3c0.7,0,1.3,0.2,1.8,0.7c0.5,0.5,0.7,1.1,0.7,1.8c0,0.7-0.2,1.3-0.7,1.8s-1.1,0.7-1.8,0.7h-3v12.2
		c0,3.2,1.6,4.8,4.9,4.8c0.7,0,1.3,0.2,1.8,0.7c0.5,0.5,0.7,1.1,0.7,1.8c0,0.7-0.2,1.3-0.7,1.8c-0.5,0.5-1.1,0.7-1.8,0.7
		c-6.6,0-9.9-3.3-9.9-9.9V76.5h-1.1c-0.7,0-1.3-0.2-1.8-0.7s-0.7-1.1-0.7-1.8c0-0.7,0.2-1.3,0.7-1.8
		C367.3,71.6,367.9,71.4,368.5,71.4z"/>
	<path fill="#B97E2B" d="M404.9,91c0.7,0,1.3,0.2,1.8,0.7c0.5,0.5,0.7,1.1,0.7,1.8c0,0.7-0.2,1.3-0.7,1.8c-2.5,2.2-5.5,3.3-8.9,3.3
		c-3.8,0-7-1.3-9.6-4s-4-5.9-4-9.6c0-3.8,1.3-7,4-9.6c2.7-2.7,5.9-4,9.6-4c3.7,0,6.9,1.3,9.6,4c1.3,1.3,2.3,2.8,3,4.4
		c0.7,1.6,1,3.4,1,5.2c0,0.7-0.2,1.3-0.7,1.8s-1.1,0.7-1.8,0.7h-19.2c0.3,0.9,0.7,1.7,1.2,2.4c0.5,0.7,1.2,1.4,1.9,1.9
		c0.7,0.5,1.5,0.9,2.4,1.2s1.8,0.4,2.7,0.4c1.1,0,2-0.2,2.9-0.5c0.9-0.3,1.7-0.8,2.5-1.5C403.7,91.2,404.2,91,404.9,91z M406,82.5
		c-0.3-0.9-0.7-1.7-1.2-2.4c-0.5-0.7-1.2-1.4-1.9-1.9s-1.5-0.9-2.4-1.2s-1.8-0.4-2.7-0.4s-1.8,0.1-2.7,0.4s-1.7,0.7-2.4,1.2
		c-0.7,0.5-1.4,1.2-1.9,1.9c-0.5,0.7-0.9,1.6-1.2,2.4H406z"/>
	<path fill="#B97E2B" d="M420.2,85.7c-1.5-0.6-2.6-1.2-3.2-1.8h0c-1.2-1.2-1.8-2.7-1.8-4.4c0-1.2,0.3-2.3,1-3.3s1.5-1.8,2.6-2.5
		c1.1-0.7,2.2-1.2,3.6-1.6c1.3-0.4,2.6-0.6,4-0.6c4.1,0,7.5,1.6,10.4,4.9c0.3,0.4,0.5,0.9,0.5,1.5c0,0.7-0.2,1.3-0.7,1.8
		c-0.5,0.5-1.1,0.7-1.8,0.7c-0.5,0-1-0.1-1.3-0.4c-0.4-0.3-0.7-0.6-1.1-0.9c-1.7-1.7-3.7-2.5-6-2.5c-2.3,0-4.2,0.7-5.6,2.1
		c-0.3,0.3-0.4,0.6-0.4,1.1c0,0.5,0.2,0.8,0.6,0.9l11.4,3.7c1.6,0.6,2.7,1.2,3.2,1.8h0c1.2,1.2,1.8,2.7,1.8,4.4c0,1.2-0.3,2.4-1,3.4
		c-0.7,1-1.5,1.8-2.6,2.5c-1.1,0.7-2.2,1.2-3.5,1.6c-1.3,0.4-2.6,0.6-4,0.6c-4.1,0-7.6-1.6-10.4-4.8c-0.4-0.5-0.5-1-0.5-1.6
		c0-0.7,0.2-1.3,0.7-1.8c0.5-0.5,1.1-0.7,1.8-0.7c0.5,0,1,0.2,1.4,0.5c0.4,0.3,0.7,0.6,1,0.9c1.7,1.7,3.7,2.5,6.1,2.5
		c2.3,0,4.2-0.7,5.6-2.2c0.2-0.3,0.4-0.6,0.4-1c0-0.5-0.2-0.8-0.7-0.9L420.2,85.7z"/>
	<path fill="#B97E2B" d="M462.5,66.6c0,0.8-0.3,1.5-0.9,2.1c-0.6,0.6-1.3,0.9-2.1,0.9s-1.5-0.3-2.1-0.9c-0.6-0.6-0.9-1.3-0.9-2.1
		c0-0.8,0.3-1.5,0.9-2.1c0.6-0.6,1.3-0.9,2.1-0.9s1.5,0.3,2.1,0.9C462.2,65,462.5,65.7,462.5,66.6z M457,96.1V73.9
		c0-0.7,0.2-1.3,0.7-1.8c0.5-0.5,1.1-0.7,1.8-0.7s1.3,0.2,1.8,0.7c0.5,0.5,0.8,1.1,0.8,1.8v22.1c0,0.7-0.3,1.3-0.8,1.8
		s-1.1,0.7-1.8,0.7s-1.3-0.2-1.8-0.7S457,96.8,457,96.1z"/>
	<path fill="#B97E2B" d="M472.3,73.9c2.2-1.7,4.7-2.5,7.6-2.5c1.7,0,3.3,0.3,4.8,1s2.9,1.6,4,2.7c1.2,1.1,2.1,2.5,2.8,4
		c0.7,1.5,1,3.2,1,4.9v12c0,0.7-0.2,1.3-0.7,1.8s-1.1,0.7-1.8,0.7c-0.7,0-1.3-0.2-1.8-0.7c-0.5-0.5-0.7-1.1-0.7-1.8v-12
		c0-1-0.2-2-0.6-2.9c-0.4-0.9-1-1.7-1.6-2.4c-0.7-0.7-1.5-1.2-2.4-1.6c-0.9-0.4-1.9-0.6-2.9-0.6c-1.1,0-2,0.2-3,0.6
		c-0.9,0.4-1.7,0.9-2.4,1.6c-0.7,0.7-1.2,1.5-1.6,2.4c-0.4,0.9-0.6,1.9-0.6,2.9v12c0,0.7-0.2,1.3-0.7,1.8c-0.5,0.5-1.1,0.7-1.8,0.7
		c-0.7,0-1.3-0.2-1.8-0.7s-0.7-1.1-0.7-1.8V73.9c0-0.7,0.2-1.3,0.7-1.8c0.5-0.5,1.1-0.8,1.8-0.8c0.7,0,1.3,0.3,1.8,0.8
		C472.1,72.7,472.3,73.2,472.3,73.9z"/>
	<path fill="#B97E2B" d="M526.1,64.8c-4.5,0-6.7,2.2-6.7,6.7v1.3h4.9c0.7,0,1.3,0.2,1.8,0.7c0.5,0.5,0.7,1.1,0.7,1.8
		c0,0.7-0.2,1.3-0.7,1.8c-0.5,0.5-1.1,0.7-1.8,0.7h-4.9v18.2c0,0.3-0.1,0.7-0.2,1c-0.1,0.3-0.3,0.6-0.5,0.8
		c-0.2,0.2-0.5,0.4-0.8,0.5c-0.3,0.1-0.6,0.2-1,0.2s-0.7-0.1-1-0.2c-0.3-0.1-0.6-0.3-0.8-0.5c-0.2-0.2-0.4-0.5-0.5-0.8
		c-0.1-0.3-0.2-0.6-0.2-1V77.9h-1.2c-0.7,0-1.3-0.2-1.8-0.7c-0.5-0.5-0.7-1.1-0.7-1.8c0-0.7,0.2-1.3,0.7-1.8
		c0.5-0.5,1.1-0.7,1.8-0.7h1.2v-1.3c0-7.8,3.9-11.8,11.8-11.8c0.7,0,1.3,0.2,1.8,0.7c0.5,0.5,0.7,1.1,0.7,1.8c0,0.7-0.2,1.3-0.7,1.8
		C527.4,64.6,526.8,64.8,526.1,64.8z"/>
	<path fill="#B97E2B" d="M535.5,73.9v0.5c1.2-1,2.5-1.7,4-2.2s2.9-0.8,4.6-0.8c0.7,0,1.5,0,2.3,0.1c0.8,0.1,1.6,0.3,2.3,0.5
		c0.7,0.3,1.3,0.6,1.7,1c0.5,0.4,0.7,1,0.7,1.7c0,0.4-0.1,0.7-0.2,1c-0.1,0.3-0.3,0.6-0.5,0.8s-0.5,0.4-0.8,0.5s-0.6,0.2-1,0.2
		c-0.3,0-0.7-0.1-1.1-0.3c-1-0.4-2.1-0.6-3.3-0.6c-1.2,0-2.3,0.2-3.3,0.7s-1.9,1.1-2.7,1.8c-0.8,0.8-1.4,1.7-1.8,2.7
		c-0.4,1-0.7,2.1-0.7,3.3v11.1c0,0.7-0.2,1.3-0.7,1.8s-1.1,0.7-1.8,0.7c-0.7,0-1.3-0.2-1.8-0.7c-0.5-0.5-0.7-1.1-0.7-1.8V73.9
		c0-0.7,0.2-1.3,0.7-1.8c0.5-0.5,1.1-0.7,1.8-0.7c0.7,0,1.3,0.2,1.8,0.7C535.2,72.6,535.5,73.2,535.5,73.9z"/>
	<path fill="#B97E2B" d="M560.7,66.6c0,0.8-0.3,1.5-0.9,2.1c-0.6,0.6-1.3,0.9-2.1,0.9s-1.5-0.3-2.1-0.9c-0.6-0.6-0.9-1.3-0.9-2.1
		c0-0.8,0.3-1.5,0.9-2.1c0.6-0.6,1.3-0.9,2.1-0.9s1.5,0.3,2.1,0.9C560.4,65,560.7,65.7,560.7,66.6z M555.2,96.1V73.9
		c0-0.7,0.2-1.3,0.7-1.8c0.5-0.5,1.1-0.7,1.8-0.7s1.3,0.2,1.8,0.7c0.5,0.5,0.8,1.1,0.8,1.8v22.1c0,0.7-0.3,1.3-0.8,1.8
		s-1.1,0.7-1.8,0.7s-1.3-0.2-1.8-0.7S555.2,96.8,555.2,96.1z"/>
	<path fill="#B97E2B" d="M579.1,71.4c3.2,0,6.1,1,8.5,3V62.3c0-0.7,0.2-1.3,0.7-1.8s1.1-0.7,1.8-0.7c0.7,0,1.3,0.2,1.8,0.7
		c0.5,0.5,0.7,1.1,0.7,1.8V85c0,3.8-1.3,7-4,9.6c-2.7,2.7-5.9,4-9.6,4c-3.8,0-7-1.3-9.6-4c-2.7-2.7-4-5.9-4-9.6c0-3.8,1.3-7,4-9.6
		C572.1,72.7,575.3,71.4,579.1,71.4z M587.6,85c0-1.2-0.2-2.3-0.7-3.3c-0.4-1-1.1-1.9-1.8-2.7s-1.7-1.4-2.7-1.8s-2.1-0.7-3.3-0.7
		c-1.2,0-2.3,0.2-3.4,0.7c-1,0.5-1.9,1.1-2.7,1.8s-1.4,1.7-1.8,2.7c-0.4,1-0.7,2.1-0.7,3.3c0,1.2,0.2,2.3,0.7,3.3
		c0.4,1,1,1.9,1.8,2.7s1.7,1.4,2.7,1.8c1,0.5,2.2,0.7,3.4,0.7c1.2,0,2.3-0.2,3.3-0.7s1.9-1.1,2.7-1.8s1.4-1.7,1.8-2.7
		C587.4,87.3,587.6,86.2,587.6,85z"/>
	<path fill="#B97E2B" d="M618.7,95.6c-2.4,2-5.3,3-8.5,3c-3.8,0-7-1.3-9.6-4c-2.7-2.7-4-5.9-4-9.6c0-3.8,1.3-7,4-9.6
		c2.7-2.7,5.9-4,9.6-4c3.7,0,6.9,1.3,9.6,4c2.7,2.7,4,5.9,4,9.6v13.5c0,1.2-0.2,2.3-0.5,3.3s-0.9,2-1.5,2.9s-1.4,1.6-2.2,2.3
		c-0.9,0.7-1.8,1.3-2.8,1.8c-1,0.5-2,0.8-3.1,1.1c-1.1,0.3-2.2,0.4-3.3,0.4c-1.3,0-2.6-0.2-3.8-0.5c-1.2-0.3-2.4-0.8-3.5-1.5
		c-1.1-0.6-2.1-1.5-3.1-2.4c-0.9-1-1.7-2-2.4-3.2c-0.3-0.4-0.4-0.8-0.4-1.4c0-0.7,0.2-1.3,0.7-1.8c0.5-0.5,1.1-0.7,1.8-0.7
		c0.5,0,0.9,0.1,1.2,0.3c0.3,0.2,0.8,0.7,1.3,1.5s1,1.4,1.5,1.8c1.8,1.8,4.1,2.8,6.7,2.8c2.6,0,4.8-0.9,6.7-2.7
		c1.1-1.4,1.7-2.7,1.7-4V95.6z M610.2,76.5c-1.2,0-2.3,0.2-3.4,0.7c-1,0.5-1.9,1.1-2.7,1.8s-1.4,1.7-1.8,2.7c-0.4,1-0.7,2.1-0.7,3.3
		c0,1.2,0.2,2.3,0.7,3.3c0.4,1,1,1.9,1.8,2.7s1.7,1.4,2.7,1.8c1,0.5,2.2,0.7,3.4,0.7c1.2,0,2.3-0.2,3.3-0.7s1.9-1.1,2.7-1.8
		s1.4-1.7,1.8-2.7c0.4-1,0.7-2.1,0.7-3.3c0-1.2-0.2-2.3-0.7-3.3c-0.4-1-1.1-1.9-1.8-2.7s-1.7-1.4-2.7-1.8S611.4,76.5,610.2,76.5z"/>
	<path fill="#B97E2B" d="M648.4,91c0.7,0,1.3,0.2,1.8,0.7c0.5,0.5,0.7,1.1,0.7,1.8c0,0.7-0.2,1.3-0.7,1.8c-2.5,2.2-5.5,3.3-8.9,3.3
		c-3.8,0-7-1.3-9.6-4c-2.7-2.7-4-5.9-4-9.6c0-3.8,1.3-7,4-9.6c2.7-2.7,5.9-4,9.6-4c3.7,0,6.9,1.3,9.6,4c1.3,1.3,2.3,2.8,3,4.4
		s1,3.4,1,5.2c0,0.7-0.2,1.3-0.7,1.8c-0.5,0.5-1.1,0.7-1.8,0.7h-19.2c0.3,0.9,0.7,1.7,1.2,2.4c0.5,0.7,1.2,1.4,1.9,1.9
		c0.7,0.5,1.5,0.9,2.4,1.2c0.9,0.3,1.8,0.4,2.7,0.4c1.1,0,2-0.2,2.9-0.5c0.9-0.3,1.7-0.8,2.5-1.5C647.2,91.2,647.8,91,648.4,91z
		 M649.5,82.5c-0.3-0.9-0.7-1.7-1.2-2.4c-0.5-0.7-1.2-1.4-1.9-1.9c-0.7-0.5-1.5-0.9-2.4-1.2c-0.9-0.3-1.8-0.4-2.7-0.4
		c-0.9,0-1.8,0.1-2.7,0.4s-1.7,0.7-2.4,1.2s-1.4,1.2-1.9,1.9c-0.5,0.7-0.9,1.6-1.2,2.4H649.5z"/>
	<path fill="#B97E2B" d="M663.8,71.5c0,0.4-0.1,0.7-0.2,1c-0.1,0.3-0.3,0.6-0.5,0.8c-0.2,0.2-0.5,0.4-0.8,0.5
		c-0.3,0.1-0.6,0.2-1,0.2c-0.7,0-1.3-0.2-1.8-0.7c-0.5-0.5-0.7-1.1-0.7-1.8c0-1.6,0.3-3.1,0.9-4.6c0.6-1.4,1.5-2.7,2.5-3.7
		s2.3-1.9,3.7-2.5c1.4-0.6,2.9-0.9,4.5-0.9s3.1,0.3,4.5,0.9s2.7,1.5,3.7,2.6s1.9,2.3,2.5,3.7c0.6,1.4,0.9,2.9,0.9,4.5
		c0,3.2-1.2,6-3.5,8.4l-3.8,3.5c-1.3,1.3-1.9,2.7-1.9,4.3c0,0.7-0.2,1.3-0.7,1.8c-0.5,0.5-1.1,0.7-1.8,0.7s-1.3-0.2-1.8-0.7
		c-0.5-0.5-0.7-1.1-0.7-1.8c0-2.9,1.2-5.5,3.5-7.9l3.8-3.5c1.3-1.3,1.9-2.9,1.9-4.7c0-0.9-0.2-1.8-0.5-2.6c-0.4-0.8-0.8-1.5-1.4-2.1
		s-1.3-1.1-2.1-1.4c-0.8-0.4-1.7-0.5-2.6-0.5c-0.9,0-1.8,0.2-2.6,0.5c-0.8,0.3-1.5,0.8-2.1,1.4c-0.6,0.6-1.1,1.3-1.4,2.1
		C664,69.7,663.8,70.6,663.8,71.5z M674,95.2c0,1-0.3,1.8-1,2.4c-0.7,0.7-1.5,1-2.4,1s-1.8-0.3-2.4-1c-0.7-0.7-1-1.5-1-2.4
		s0.3-1.8,1-2.4c0.7-0.7,1.5-1,2.4-1s1.8,0.3,2.4,1C673.6,93.4,674,94.2,674,95.2z"/>
</g>
</svg>
