<!-- Generator: Adobe Illustrator 18.0.0, SVG Export Plug-In  -->
<svg version="1.1"
	 xmlns="http://www.w3.org/2000/svg" xmlns:xlink="http://www.w3.org/1999/xlink" xmlns:a="http://ns.adobe.com/AdobeSVGViewerExtensions/3.0/"
	 x="0px" y="0px" width="231.9px" height="49.4px" viewBox="0 0 231.9 49.4" enable-background="new 0 0 231.9 49.4"
	 xml:space="preserve">
<defs>
</defs>
<g>
	<g>
		<path fill="none" stroke="#E4BE22" stroke-width="2.752" stroke-miterlimit="10" d="M114.3,3.2c0,0.2,0,0.5,0,0.8
			c0.3,1,0.7,2.4,1.1,3.9c-0.6-1.7-1.3-3.2-1.9-4.4"/>
		<path fill="none" stroke="#E4BE22" stroke-width="2.752" stroke-miterlimit="10" stroke-dasharray="9.7875,4.1946" d="M110,2
			C64.4-0.4,15.5,4.6,7.1,5.6C6.3,5.6,5.7,6.2,5.6,7L3.4,25.4"/>
		<polyline fill="none" stroke="#E4BE22" stroke-width="2.752" stroke-miterlimit="10" points="3.1,27.4 2.5,32.2 2.5,32.2 
			2.5,32.3 2.2,34.6 2.3,34.6 1.9,39.4 		"/>
		<path fill="none" stroke="#E4BE22" stroke-width="2.752" stroke-miterlimit="10" stroke-dasharray="9.3187,3.9937" d="M1.6,43.4
			l-0.2,2.8C1.3,47.2,2.1,48,3,48h133.5c0.7,0,1.2-0.4,1.5-1l4.4-10.5c0.5-1.1-0.3-2.3-1.5-2.3h-15.6"/>
		<path fill="none" stroke="#E4BE22" stroke-width="2.752" stroke-miterlimit="10" d="M123.3,34.2h-4.8c0,0,0,0,0.1-0.1l4.8,0"/>
		<path fill="none" stroke="#E4BE22" stroke-width="2.752" stroke-miterlimit="10" stroke-dasharray="11.4141,4.8918" d="
			M128.3,34.1l6.7,0c0.4,0,0.8-0.1,1.1-0.4l1.6-1.4c1.2-1,0.5-2.9-1.1-2.9h-14.4c-0.6,0-1.2-0.4-1.5-0.9"/>
		<path fill="none" stroke="#E4BE22" stroke-width="2.752" stroke-miterlimit="10" d="M120.3,26.1c-0.3-1.6-0.6-3.2-0.9-4.7
			c0.2,0.9,0.5,1.7,0.6,2.3c0.2,0.8,1,1.3,1.8,1.2c0,0,0,0,0,0"/>
		<path fill="none" stroke="#E4BE22" stroke-width="2.752" stroke-miterlimit="10" stroke-dasharray="9.5196,4.0798" d="M125.9,24.3
			c8.5-1.2,16-1.5,35.5,2.8c16.7,3.7,58.3,8.2,67.4,9.1c1,0.1,1.8-0.7,1.8-1.6V14.9c0-0.8-0.6-1.5-1.4-1.6C169.7,3.1,126,2,116,1.8
			c-0.1,0-0.2,0-0.2,0"/>
	</g>
</g>
</svg>
