<!-- Generator: Adobe Illustrator 18.0.0, SVG Export Plug-In  -->
<svg version="1.1"
	 xmlns="http://www.w3.org/2000/svg" xmlns:xlink="http://www.w3.org/1999/xlink" xmlns:a="http://ns.adobe.com/AdobeSVGViewerExtensions/3.0/"
	 x="0px" y="0px" width="1149.3px" height="777.8px" viewBox="0 0 1149.3 777.8" enable-background="new 0 0 1149.3 777.8"
	 xml:space="preserve">
<defs>
</defs>
<g>
	<polygon fill="#B6407B" points="561,4.5 561,226.9 6,411.1 6,118.9 	"/>
	<path fill="none" stroke="#000000" stroke-width="0.7805" stroke-miterlimit="10" d="M4.7,118.9"/>
	<polygon fill="#C45597" points="561,4.5 565.3,0 0,114 6,118.9 	"/>
	<polygon fill="#CE5FA6" points="0,114 0,419.4 6,423.1 7,118 	"/>
	<polygon fill="#660C4A" points="6,411.1 6,423.1 592.1,777.8 592.1,757.7 	"/>
	<polygon fill="#C64F96" points="561,4.5 561,226.9 1138.2,407.7 1138.2,117.5 	"/>
	<polygon fill="#D162AA" points="565.3,0 561,4.5 1138.2,117.5 1149.3,112.1 	"/>
	<polygon fill="#DB6EBA" points="1149.3,112.1 1149.3,411.9 1138.2,420.3 1138.2,117.5 	"/>
	<polygon fill="#721751" points="1138.2,407.7 1138.2,420.3 592.1,777.8 592.1,757.7 	"/>
	<polygon fill="#7C2358" points="561,226.9 1138.2,407.7 592.1,757.7 6,411.1 	"/>
	<polygon fill="#DD0A37" points="604.5,139.9 604.5,201.2 592.1,198.3 592.1,137.3 	"/>
	<path fill="#232323" d="M604.5,139.9c0,0,4,0,4.7,0c1.4-0.5,3.6-1.7,6.4-1.1c0,1.6,0,58.4,0,58.4l-11.1,4.1V139.9z"/>
	<path fill="#282828" d="M592.1,137.3c0,0,5.4-0.5,6.2-1c1.2-0.5,4.7-1.1,6.2-1l11.1,3.4c0,0-2.4-0.4-6.4,1.1c-2.8,0-4.7,0-4.7,0
		L592.1,137.3z"/>
	<polygon fill="#141414" points="613.2,198 613.2,199.6 604.5,202.9 604.5,201.2 	"/>
	<polygon fill="#1E1E1E" points="604.5,202.9 593.2,200.3 593.2,198.6 604.5,201.2 	"/>
	<polygon fill="#191919" points="613.2,199.6 615.7,200.5 604.5,204.7 604.5,202.9 	"/>
	<polygon fill="#232323" points="604.5,202.9 604.5,204.7 591.7,201.7 593.2,200.3 	"/>
	<polygon fill="#1C1C1C" points="615.7,200.5 615.7,251.3 604.5,256 604.5,204.7 	"/>
	<polygon fill="#DD0A37" points="604.5,204.7 591.7,201.7 592.1,251.7 604.5,256 	"/>
	<polygon fill="#232323" points="591.7,248.5 582.7,252 604.5,259 604.5,256 592.1,251.7 	"/>
	<polygon fill="#191919" points="604.5,256 615.7,251.3 618.7,252.6 604.5,259 	"/>
	<polygon fill="#232323" points="604.5,259 604.5,270.4 582.7,263.2 582.7,252 	"/>
	<polygon fill="#1C1C1C" points="604.5,259 618.7,252.6 618.7,264.8 604.5,270.4 	"/>
	<polygon fill="#C3A57D" points="897.8,307.3 897.8,314.6 610.3,226.1 610.3,219.9 	"/>
	<polygon fill="#877147" points="897.8,307.3 961.3,277.5 961.3,283.8 897.8,314.6 	"/>
	<polygon fill="#B29470" points="615.7,227.8 615.7,272.8 889.9,364.5 889.9,312.2 	"/>
	<polygon fill="#7C643D" points="889.9,312.2 897.8,314.6 954.6,287 954.6,331.1 889.9,364.5 	"/>
	<polygon fill="#B29470" points="613.9,273.3 613.9,285.4 889.9,379.2 889.9,365.6 	"/>
	<polygon fill="#725836" points="615.7,272.8 613.9,273.3 889.9,365.6 889.9,364.5 	"/>
	<polygon fill="#7C643D" points="889.9,365.6 889.9,379.2 955.7,344.9 955.7,331.5 	"/>
	<polygon fill="#6D5531" points="954.6,331.1 955.7,331.5 889.9,365.6 889.9,364.5 	"/>
	<polygon fill="#D3B68F" points="610.3,219.9 676.4,196.7 961.3,277.5 897.8,307.3 	"/>
	<polygon fill="#282828" points="617.8,230.7 617.8,243.9 676.7,262.7 676.7,249.3 	"/>
	<polygon fill="#7C643D" points="618.7,231 618.7,243.2 617.8,243.9 617.8,230.7 	"/>
	<polygon fill="#725836" points="618.7,243.2 617.8,243.9 676.7,262.7 676.7,261.5 	"/>
	<polygon fill="#282828" points="617.8,246.7 617.8,257.9 676.7,277.4 676.7,264.9 	"/>
	<polygon fill="#7C643D" points="618.7,247 618.7,257.4 617.8,257.9 617.8,246.7 	"/>
	<polygon fill="#725836" points="618.7,257.4 617.8,257.9 676.7,277.4 676.7,276.5 	"/>
	<polygon fill="#282828" points="617.8,261.2 617.8,271.9 676.7,291.5 676.7,280.7 	"/>
	<polygon fill="#7C643D" points="618.8,261.5 618.8,271.2 617.8,271.9 617.8,261.2 	"/>
	<polygon fill="#725836" points="618.8,271.2 617.8,271.9 676.7,291.5 676.7,290.4 	"/>
	<polygon fill="#282828" points="680.8,250.4 680.8,263.4 743.5,282.7 743.5,269.6 	"/>
	<polygon fill="#7C643D" points="681.8,250.7 681.8,262.7 680.8,263.4 680.8,250.4 	"/>
	<polygon fill="#725836" points="681.8,262.7 743.5,281.8 743.5,282.7 680.8,263.4 	"/>
	<polygon fill="#282828" points="680.8,266 680.8,278.4 743.5,299.1 743.5,285.7 	"/>
	<polygon fill="#7C643D" points="681.8,266.3 681.8,277.4 680.8,278.4 680.8,266 	"/>
	<polygon fill="#725836" points="681.8,277.4 743.5,298 743.5,299.1 680.8,278.4 	"/>
	<polygon fill="#282828" points="680.8,281.7 680.8,292.9 743.5,313.7 743.5,302.8 	"/>
	<polygon fill="#7C643D" points="682.2,282.1 682.2,292.3 680.8,292.9 680.8,281.7 	"/>
	<polygon fill="#725836" points="682.2,292.3 743.5,312.8 743.5,313.7 680.8,292.9 	"/>
	<polygon fill="#282828" points="748,271.2 748,284.6 814.4,305.2 814.4,291.5 	"/>
	<polygon fill="#7C643D" points="749.2,271.6 749.2,283.9 748,284.6 748,271.2 	"/>
	<polygon fill="#725836" points="749.2,283.9 814.4,304 814.4,305.2 748,284.6 	"/>
	<polygon fill="#282828" points="748,286.9 748,300.2 814.4,322 814.4,307.6 	"/>
	<polygon fill="#7C643D" points="749.2,287.3 749.2,299.5 748,300.2 748,286.9 	"/>
	<polygon fill="#725836" points="749.2,299.5 814.4,320.8 814.4,322 748,300.2 	"/>
	<polygon fill="#282828" points="748,303.7 748,315 814.4,337.2 814.4,325.6 	"/>
	<polygon fill="#7C643D" points="749.2,304.1 749.2,314.1 748,315 748,303.7 	"/>
	<polygon fill="#725836" points="749.2,314.1 814.4,336 814.4,337.2 748,315 	"/>
	<polygon fill="#282828" points="818.8,292.9 818.8,306.3 888,328 888,314.6 	"/>
	<polygon fill="#7C643D" points="820,293.2 820,305.6 818.8,306.3 818.8,292.9 	"/>
	<polygon fill="#725836" points="820,305.6 888,326.9 888,328 818.8,306.3 	"/>
	<polygon fill="#282828" points="818.8,308.9 818.8,323.1 888,345.7 888,330.6 	"/>
	<polygon fill="#7C643D" points="820,309.3 820,322.5 818.8,323.1 818.8,308.9 	"/>
	<polygon fill="#725836" points="820,322.5 888,344.7 888,345.7 818.8,323.1 	"/>
	<polygon fill="#282828" points="818.8,326.5 818.8,338.7 888,361.8 888,349.6 	"/>
	<polygon fill="#7C643D" points="820,326.9 820,338.2 818.8,338.7 818.8,326.5 	"/>
	<polygon fill="#725836" points="820,338.2 888,360.8 888,361.8 818.8,338.7 	"/>
	<path fill="#BC5093" d="M309.5,300.3v81.5l224.8-82.5v-16.6l-173.1,60.9c0,0-31.9-35.4-38.5-44.1
		C322.7,299.6,320.7,294.6,309.5,300.3z"/>
	<path fill="#DB63A5" d="M309.5,300.3c0,0,7-4,11.4-2.3c-3.1-1.5-71.3-29.4-71.3-29.4s-4-0.8-8.2,0c-4.1,0.8-5.8,1.5-5.8,1.5
		L309.5,300.3z"/>
	<polygon fill="#DB63A5" points="219.2,282.7 433.6,218.1 451.3,224.2 235.5,289.8 	"/>
	<polygon fill="#C9599C" points="451.3,224.2 451.3,246.4 306.7,292.1 273.4,278.3 	"/>
	<polygon fill="#C9579A" points="309.5,381.8 219.2,337.9 219.2,282.7 235.5,289.8 235.5,270 309.5,300.3 	"/>
	<polygon fill="#D86CB2" points="356.7,328.6 356.7,338.6 361.2,343.6 524.4,286.2 524.4,271 	"/>
	<path fill="#E57ABA" d="M524.4,271l-73-24.6l-144.6,45.6l14.1,5.9c0,0,1.2,0.7,1.8,1.6l34,29L524.4,271z"/>
	<path fill="#A30536" d="M370.4,319.1c0,0-4.2,8.9-17,15.8c-1.6-1.8-31.1-33.1-34.6-43.5c0.4-2,5.9-14.4,17.7-16.5
		C338.3,275.4,358.5,285.5,370.4,319.1z"/>
	<path fill="#DD0A37" d="M336.6,275c0,0-23.6-24.2-72.2-28.5c-2.4,0.4-17.1,2.2-18.2,15.3c2.1,1.5,43.2,19.5,72.7,29.7
		C320.5,287.7,324.7,277.7,336.6,275z"/>
	<path fill="#C10637" d="M318.9,291.5c0,0-46-16.7-72.7-29.7c0.8,2.4,0.3,4.2,4.5,7.2c4.1,1.7,70.3,29,70.3,29s1.3,0.9,1.8,1.6
		c0.5,0.6,2,1.7,2,1.7S319.4,294,318.9,291.5z"/>
	<polygon fill="#B29470" points="222.2,339.4 222.2,342.8 237,350.4 237,346.6 	"/>
	<polygon fill="#7C643D" points="237,350.4 241.4,348.7 237,346.6 	"/>
	<polygon fill="#7C643D" points="347,368 347,371.4 327.8,379.5 327.8,375 	"/>
	<polygon fill="#6D5531" points="327.8,375 327.8,379.5 322.9,376.8 	"/>
	<path fill="#C45FA5" d="M356.7,333c0,0-2.2,1.3-3.3,1.9l3.3,3.6V333z"/>
	<polygon fill="#AA4387" points="534.3,282.7 524.4,280.1 524.4,286.2 	"/>
	<polygon fill="#A38666" points="416.2,373.7 387.5,385.6 488.4,429.7 543.4,405 441.8,362.4 	"/>
	<polygon fill="#B29470" points="502.5,388 409.9,348.9 394.4,355.3 486.7,394.6 	"/>
	<polygon fill="#B7062C" points="383.3,329.7 383.3,337.7 485.7,380.9 485.7,372 	"/>
	<polygon fill="#B29470" points="680.3,406.7 574.1,368.6 496.7,399.2 602.7,443.6 	"/>
	<polygon fill="#282828" points="383.3,329.7 473.2,298.6 575.3,336.8 485.7,372 	"/>
	<polygon fill="#B7062C" points="486.7,372.4 486.7,381.4 602.7,429.7 602.7,420 	"/>
	<polygon fill="#282828" points="486.7,372.4 576.5,337.2 690.1,380.3 602.7,420 	"/>
	<polygon fill="#A50731" points="690.1,380.3 690.1,389.2 602.7,429.7 602.7,420 	"/>
	<polygon fill="#A50731" points="692,379.5 692,388.9 771.5,352.4 771.5,344 	"/>
	<polygon fill="#282828" points="692,379.5 578.8,336.4 657.9,305.2 771.5,344 	"/>
	<polygon fill="#282828" points="577.6,335.9 474.9,297.5 553.9,269.6 656.7,304.8 	"/>
	<polygon fill="#9E8366" points="486.7,394.6 486.7,403.4 394.4,364.5 394.4,355.3 	"/>
	<polygon fill="#876E54" points="486.7,394.6 502.5,388 512.9,392.3 486.7,403.4 	"/>
	<polygon fill="#9E8366" points="496.7,399.2 496.7,407.7 602.7,452.8 602.7,443.6 	"/>
	<polygon fill="#876E54" points="602.7,443.6 680.3,406.7 680.3,415.6 602.7,452.8 	"/>
	<polygon fill="#917559" points="387.5,385.6 387.5,393.3 488.4,438.3 488.4,429.7 	"/>
	<polygon fill="#A38666" points="518.5,417 489.2,430.2 602.7,480.3 680.3,441.2 652,429.1 602.7,452.8 	"/>
	<polygon fill="#917559" points="602.7,480.3 602.7,490 489.2,438.7 489.2,430.2 	"/>
	<polygon fill="#7A6048" points="602.7,480.3 602.7,490 680.3,450.3 680.3,441.2 	"/>
	<polygon fill="#755C45" points="675.1,396.2 691.4,402.5 691.4,411.1 680.3,407.4 680.3,406.7 664.5,401.1 	"/>
	<polygon fill="#876E54" points="691.4,402.5 691.4,411.1 760.8,377.9 760.8,370 	"/>
	<polygon fill="#B29470" points="760.8,370 745.5,364.3 675.1,396.2 691.4,402.5 	"/>
	<polygon fill="#A38666" points="737.6,388.9 768.2,400 719.4,423.4 690.1,411.7 	"/>
	<polygon fill="#7A6048" points="768.2,400 768.2,408.1 730,427.5 719.4,423.4 	"/>
	<polygon fill="#F2EC25" points="454.5,389.9 454.5,393 476.2,402.3 476.2,399 	"/>
	<polygon fill="#A6A327" points="476.2,399 476.2,402.3 480.6,400.9 	"/>
	<polygon fill="#F2EC25" points="561,435.1 561,438.3 585.8,449.1 585.8,445.6 	"/>
	<polygon fill="#A6A327" points="585.8,445.6 585.8,449.1 589.8,447.3 	"/>
	<polygon fill="#141413" points="690.1,380.3 690.1,389.2 692,388.5 692,379.5 578.8,336.4 657.9,305.2 656.7,304.8 577.6,335.9 
		474.9,297.5 473.2,298.6 575.3,336.8 485.7,372 486.7,372.4 576.5,337.2 	"/>
	<polygon fill="#141413" points="485.7,380.9 486.7,381.4 486.7,372.4 485.7,372 	"/>
	<polygon fill="#7A6048" points="517.6,416.6 518.5,417 489.2,430.2 489.2,438.7 488.4,438.3 488.4,429.7 	"/>
	<polygon fill="#C9579A" points="800.9,529.6 800.9,597.1 644.3,527.5 644.3,440 765.8,488.9 765.8,514.4 	"/>
	<polygon fill="#BC5093" points="800.9,529.6 1005.8,410.2 1005.8,468.2 800.9,597.1 	"/>
	<polygon fill="#DB63A5" points="765.8,514.4 973.3,398.3 1005.8,410.2 800.9,529.6 	"/>
	<path fill="#BC5093" d="M787.5,502.2c0,0,0.5-1.7-9.8-18c0,0-7,0.4-11.9,4.7v25.5L787.5,502.2z"/>
	<path fill="#DB63A5" d="M777.7,484.2c0,0-77.2-33.6-117.8-48.8c-2.7-0.7-4.6-0.9-7.5,0c-2.9,0.9-8.1,4.6-8.1,4.6l121.4,48.9
		C765.8,488.9,771.1,484.5,777.7,484.2z"/>
	<path fill="#E57ABA" d="M942.5,415.5l-87.8-29.9l-142.5,70.7l65.6,27.9c0,0,9.7,15.5,9.8,18L942.5,415.5z"/>
	<path fill="#A30536" d="M772.1,474.1c0,0,1,14.1,15.4,28.1c5.3-3,25.1-14.1,25.1-14.1s-0.8-23.4-20.3-36.3
		C789.7,452.8,767.7,460.6,772.1,474.1z"/>
	<path fill="#DD0A37" d="M792.4,451.9c0,0-29.8-28.6-119-46.6c-3.3,0.4-22.6,6.6-19.9,20.9c4.1,1.8,118.6,47.9,118.6,47.9
		S766.2,461.8,792.4,451.9z"/>
	<path fill="#C10637" d="M772.1,474.1l-118.6-47.9l-0.3,9c0,0,2.5-1,5.3-0.1s115.7,47.7,115.7,47.7S772,474.6,772.1,474.1z"/>
	<polygon fill="#B29470" points="648.1,529.2 648.1,533 676.5,545.9 676.5,541.8 	"/>
	<polygon fill="#7C643D" points="676.5,541.8 676.5,545.9 681,543.8 	"/>
	<polygon fill="#B29470" points="800.9,597.1 800.9,601.3 762.6,583.9 762.6,580.1 	"/>
	<polygon fill="#7C643D" points="800.9,597.1 800.9,601.3 823.8,586.6 823.8,582.7 	"/>
	<polygon fill="#7C643D" points="994,475.6 994,479.6 973.7,492.3 973.7,488.4 	"/>
	<polygon fill="#6D5531" points="973.7,492.3 968.2,491.8 973.7,488.4 	"/>
	<polygon fill="#BC5093" points="572.1,467.7 572.1,526 424.9,599.8 424.9,499.6 451.9,488.9 451.9,523.8 	"/>
	<polygon fill="#C9579A" points="424.9,599.8 162.6,454.5 162.6,368 424.9,499.6 	"/>
	<polygon fill="#DB63A5" points="451.9,488.9 424.9,499.6 162.6,368 186.2,359.8 	"/>
	<polygon fill="#DB63A5" points="451.9,495.8 451.9,523.8 572.1,467.7 543.3,454.5 	"/>
	<polygon fill="#DB63A5" points="220.9,376.6 303.9,348.5 325.8,357.8 243.6,387.7 	"/>
	<polygon fill="#BC5093" points="325.8,357.8 325.8,379.5 270.1,400.6 243.6,387.7 	"/>
	<polygon fill="#E57ABA" points="325.8,379.5 427.3,425.8 370.4,449.3 270.1,400.6 	"/>
	<polygon fill="#E57ABA" points="428.2,426.6 515.8,466.9 451.9,495.8 451.9,488.9 371.6,449.9 	"/>
	<path fill="#FFFD38" d="M245,361.3c0,0-2.1,23-1.4,26.3l-0.5-0.3c0,0-2.5-7.3,1.3-26.1C244.4,361.3,244.7,361.2,245,361.3z"/>
	<path fill="#C10637" d="M244.4,361.3c0,0-3.9,1.6-5.7,6.7c-1.9,5-3.1,13.7-1.7,16.4l6.1,3C243.1,387.4,241.1,378.4,244.4,361.3z"/>
	<path fill="#A30536" d="M245,361.3c0,0,11.5,3,23.9,35.7c0.6,1.7,0.3,1.1,0.4,3.2l-25.8-12.5C243.6,387.7,242.5,376.4,245,361.3z"
		/>
	<path fill="#FFFB5C" d="M475.7,461.2c0,0-31.3,3.3-79.7,0.6l-1.6-0.8c0,0,52.6,1.3,81.4-0.7C475.7,460.2,475.6,460.2,475.7,461.2z"
		/>
	<path fill="#C10637" d="M475.7,461.2c0,0,3,9.2-0.9,24.2l-22.9,10.4v-6.8L396,461.8C396,461.8,440.1,464.4,475.7,461.2z"/>
	<path fill="#A30536" d="M475.7,460.2c0,0,7.9,12.8,4.3,22.8l-5.2,2.3c0,0,4-11.1,0.9-24.2C475.7,461.2,475.5,460.9,475.7,460.2z"/>
	<path fill="#DD0A37" d="M475.7,460.2c0,0-1.5-9.7-88.2-2.6l6.8,3.3C394.4,461,431.4,463.5,475.7,460.2z"/>
	<polygon fill="#C45FA5" points="427.3,425.8 428.2,426.6 371.6,449.9 370.4,449.3 	"/>
	<polygon fill="#CC0728" points="346.2,121.9 346.2,210.5 446.3,181.1 446.3,97.9 	"/>
	<polygon fill="#282828" points="351.8,125.8 351.8,204.8 440.5,179.4 440.5,104.3 	"/>
	<polygon fill="#C10637" points="436.1,105.3 436.1,176.9 440.5,179.4 440.5,104.3 	"/>
	<polygon fill="#A30536" points="436.1,176.9 351.8,201.2 351.8,204.8 440.5,179.4 	"/>
	<polygon fill="#DD0A37" points="446.3,97.9 443.6,97.3 343.3,121.1 346.2,121.9 	"/>
	<polygon fill="#C10637" points="343.3,121.1 343.3,209.5 346.2,210.5 346.2,121.9 	"/>
	<polygon fill="#CC0728" points="228.1,150.7 228.1,244.9 341.7,212 341.7,123.2 	"/>
	<polygon fill="#282828" points="234.1,154.5 234.1,238.2 336.6,209 336.6,127.9 	"/>
	<polygon fill="#CC0728" points="213.8,154.5 213.8,249.1 110.1,278.7 110.1,179.4 	"/>
	<polygon fill="#C10637" points="333.9,128.6 333.9,207.8 336.6,209 336.6,127.9 	"/>
	<polygon fill="#A30536" points="333.9,207.8 234.1,236 234.1,238.2 336.6,209 	"/>
	<polygon fill="#DD0A37" points="341.7,123.2 338.3,122.5 225.1,149.7 228.1,150.7 	"/>
	<polygon fill="#C10637" points="228.1,150.7 225.1,149.7 225.1,243.4 228.1,244.9 	"/>
	<polygon fill="#282828" points="207.5,161.2 207.5,245.8 115.9,271 115.9,183.1 	"/>
	<polygon fill="#DD0A37" points="213.8,154.5 208.7,153.8 107,177.9 110.1,179.4 	"/>
	<polygon fill="#E80F48" points="107,177.9 107,276.6 110.1,278.7 110.1,179.4 	"/>
	<polygon fill="#C10637" points="205.6,161.6 205.6,244.9 207.5,245.8 207.5,161.2 	"/>
	<polygon fill="#A30536" points="205.6,244.9 115.9,269.5 115.9,271 207.5,245.8 	"/>
	<linearGradient id="SVGID_1_" gradientUnits="userSpaceOnUse" x1="149.0562" y1="292.3647" x2="153.4809" y2="292.3647">
		<stop  offset="0" style="stop-color:#FFFFFF"/>
		<stop  offset="1" style="stop-color:#9C9C9C"/>
	</linearGradient>
	<polygon fill="url(#SVGID_1_)" points="153.5,216.6 153.5,368.1 149.1,368.1 149.1,217.3 	"/>
	<polygon fill="#C3A57D" points="149.1,287.7 139.3,295.4 138,294.7 149.1,286.1 	"/>
	<polygon fill="#C3A57D" points="133.8,294.4 139.9,297.6 139.9,302.7 133.8,299.5 	"/>
	<polygon fill="#A08264" points="139.9,297.6 146,295.4 146,300.6 139.9,302.7 	"/>
	<polygon fill="#D3B68F" points="146,295.4 139.9,292 133.8,294.4 139.9,297.6 	"/>
	<polygon fill="#B29470" points="135.4,300.3 103.4,411.1 107.2,412.5 138,301.7 	"/>
	<polygon fill="#9E8366" points="138,301.7 139.9,302.7 143,301.6 113,410.8 107.2,412.5 	"/>
	<polygon fill="#A08264" points="149.1,287.7 149.1,289.4 143.3,293.9 139.3,295.4 	"/>
	<polygon fill="#D3B68F" points="151.3,294.8 157.4,297.6 161.7,294.8 155.7,292 	"/>
	<polygon fill="#C3A57D" points="151.3,294.8 151.3,299.1 157.4,301.9 157.4,297.6 	"/>
	<polygon fill="#A08264" points="157.4,297.6 161.7,294.8 161.7,299.4 157.4,301.9 	"/>
	<polygon fill="#9E8366" points="159.5,300.6 180.8,361.6 178.3,362.5 157.4,301.9 	"/>
	<polygon fill="#876E54" points="154.6,300.6 176.4,363.2 178.3,362.5 157.4,301.9 	"/>
	<polygon fill="#C3A57D" points="150.4,287.7 156.5,295.4 158,294.4 150.4,285.3 	"/>
	<polygon fill="#A08264" points="150.4,287.7 150.4,289 154.6,294.8 156.5,295.4 	"/>
	<polygon fill="#F9EE1E" points="143.1,218.1 158.9,215.7 158.9,211.3 143.1,213.5 	"/>
	<polygon fill="#FFFD38" points="143.1,213.5 142,209.4 158.3,207.2 158.9,211.3 	"/>
	<polygon fill="#FFF873" points="142,209.4 139.9,206.5 156,204.2 158.3,207.2 	"/>
	<polygon fill="#FFFB6E" points="139.9,206.5 137.9,204.9 152.7,202.9 156,204.2 	"/>
	<polygon fill="#F7F06D" points="139.9,206.5 131.9,210.3 130.5,208.4 137.9,204.9 	"/>
	<polygon fill="#F4EA71" points="139.9,206.5 142,209.4 132.9,211.3 131.9,210.3 	"/>
	<polygon fill="#F4EF37" points="132.9,211.3 132.9,214.3 143.1,213.5 142,209.4 	"/>
	<polygon fill="#EDDE20" points="132.9,214.3 132.9,216.6 143.1,218.1 143.1,213.5 	"/>
	<path fill="#CBC9CA" d="M152.7,202.9c0,0,0.1-0.6,2.8-3l3.4,2.3l-2.9,2L152.7,202.9z"/>
	<path fill="#CBC9CA" d="M155.5,199.9c0,0,4.3-4.3,7.5-5.5c0,0,4,2.1,5.4,3.7l-9.4,4.1L155.5,199.9z"/>
	<path fill="#CBC9CA" d="M163,194.4c0,0,9-4.7,13.6-5c0,0,4.9,0.4,6.8,4l-15,4.6L163,194.4z"/>
	<polygon fill="#C1C1C1" points="156,204.2 158.3,207.2 161.9,206.1 158.9,202.2 	"/>
	<polygon fill="#C1C1C1" points="168.3,198 158.9,202.2 161.9,206.1 171.7,203.5 	"/>
	<path fill="#C1C1C1" d="M168.3,198l3.4,5.4l16-3.9c0,0-1.8-3.5-4.3-6.1L168.3,198z"/>
	<polygon fill="#B2B2B2" points="158.3,207.2 158.9,211.3 163.3,210.8 161.9,206.1 	"/>
	<polygon fill="#A3A3A3" points="158.9,211.3 158.9,215.7 163,215.7 163.3,210.8 	"/>
	<polygon fill="#969696" points="158.9,215.7 156.2,216.1 161.9,218.1 163,215.7 	"/>
	<path fill="#969696" d="M163,215.7l-1,2.4c0,0,4.1,1.8,7.5,1.8l3.8-3.2L163,215.7z"/>
	<path fill="#969696" d="M173.2,216.6l-3.8,3.2c0,0,13.9,0.2,17.2,0c0,0,1.7-2,2.3-4.1L173.2,216.6z"/>
	<polygon fill="#A3A3A3" points="163.3,210.8 163,215.7 173.2,216.6 173.2,210.3 	"/>
	<polygon fill="#B2B2B2" points="171.7,203.5 161.9,206.1 163.3,210.8 173.2,210.3 	"/>
	<path fill="#B2B2B2" d="M171.7,203.5l1.4,6.9l16.5-1.7c0,0,0.9-4.7-2-9.1L171.7,203.5z"/>
	<path fill="#A3A3A3" d="M173.2,210.3v6.3l15.7-0.9c0,0,1-2.7,0.8-7.1L173.2,210.3z"/>
	<path fill="#A3A3A3" d="M130.5,208.4h-3.8c0,0,2.3,0.5,4.3,3.4c0.3,2.1,1.5,4.7,0,6.7c1.1,0,2-2,2-2v-2.4v-3l-0.9-0.9L130.5,208.4z
		"/>
	<path fill="#CBC9CA" d="M126.7,208.4c0,0-2.3,0.5-1.5,5.1c0.3,1.7,2.3,5.1,5.7,5.1c1-1.6,1.3-2.8,0-6.7
		C129.5,209.7,128.5,208.9,126.7,208.4z"/>
	<polygon fill="#E5E8E7" points="673.9,181.8 667.9,214.6 677.3,217.1 674.9,229.3 693.1,234.7 695.6,222.6 704.8,225.1 
		712.3,192.4 	"/>
	<polygon fill="#282828" points="675.7,184.3 671.2,209.2 697.9,217.1 702.7,192 	"/>
	<polygon fill="#1E1E1E" points="676.7,184.6 672.2,208.5 671.2,209.2 675.7,184.3 	"/>
	<polygon fill="#141414" points="672.2,208.5 698,216.2 697.9,217.1 671.2,209.2 	"/>
	<polygon fill="#C9C9C9" points="698.6,223.4 698,229.2 706.3,226.3 706.3,230 693.1,234.7 695.6,222.6 	"/>
	<polygon fill="#D1D1D1" points="704.5,225 708.8,223.5 715.4,192.5 712.3,192.4 	"/>
	<polygon fill="#F3F4F5" points="715.4,192.5 676.5,181.8 673.9,181.8 712.3,192.4 	"/>
	<polygon fill="#BFBFBF" points="698.6,223.4 704.8,225.1 706.3,226.3 698,229.2 	"/>
	<polygon fill="#D1D1D1" points="704.5,193.3 699.7,215.5 705.6,217.1 710.9,194.9 	"/>
	<polygon fill="#C9C9C9" points="705.3,193.5 700.6,215 699.7,215.5 704.5,193.3 	"/>
	<polygon fill="#BFBFBF" points="700.6,215 705.8,216.4 705.6,217.1 699.7,215.5 	"/>
	<polygon fill="#FFFD38" points="705.8,195.9 705.5,197.3 709.4,198.3 709.8,196.9 	"/>
	<polygon fill="#FFFD38" points="705.3,198.7 704.8,200.3 708.3,201.2 708.7,199.6 	"/>
	<polygon fill="#F2EC25" points="705.8,195.9 706.2,195.5 710,196.4 709.8,196.9 	"/>
	<polygon fill="#F2EC25" points="705.3,198.7 705.7,198.3 709.1,199.3 708.7,199.6 	"/>
	<polygon fill="#A6A327" points="709.1,199.3 708.7,200.8 708.3,201.2 708.7,199.6 	"/>
	<polygon fill="#20201D" points="839.9,177.1 839.9,256 789.9,243.9 789.9,252 749.5,240.4 749.5,231.8 709.9,215.5 709.9,143.8 	
		"/>
	<polygon fill="#F5F8FA" points="833.9,179.4 833.9,248.5 715.7,214 715.7,148.7 	"/>
	<polygon fill="#232322" points="749.5,240.4 735.8,247.6 774.9,259.2 789.9,252 	"/>
	<polygon fill="#1E1E1E" points="774.9,259.2 774.9,262.7 735.8,251.1 735.8,247.6 	"/>
	<polygon fill="#141414" points="796,245.4 796,253.8 774.9,262.7 774.9,259.2 789.9,252 789.9,243.9 	"/>
	<polygon fill="#1E1E1E" points="718.5,149.4 718.5,212.9 715.7,214 715.7,148.7 	"/>
	<polygon fill="#141414" points="718.5,212.9 715.7,214 833.9,248.5 833.9,246.7 	"/>
	<polygon fill="#141413" points="839.9,177.1 845.7,174.9 845.7,253.3 839.9,256 	"/>
	<polygon fill="#282828" points="845.7,174.9 717.1,142.1 709.9,143.8 839.9,177.1 	"/>
	<path fill="#20201D" d="M829.5,264.6c0,0-2-0.3-2.6,0.6c0,1.1,0,5.5,0,5.5s0.9,1.5,1.8,2l34.5,11.1c0,0,3,0.5,4.4-1.5
		c0-1.9,0-4.9,0-4.9s0.1-1.4-3.7-2.6L829.5,264.6z"/>
	<path fill="#141413" d="M866.9,276.5l26.4-12.4c0,0,1.8,0.9,1.9,1.8c0,0.9,0,3.8,0,3.8s-0.5,0.6-1.9,1.4l-27.5,12.5
		c0,0,1-0.4,1.7-1.2v-4.9C867.5,277.5,867.3,276.8,866.9,276.5z"/>
	<path fill="#282828" d="M893.3,264.1l-34.7-9l-29.2,9.5l34.3,10.4c0,0,1.9,0.7,3.1,1.5L893.3,264.1z"/>
	<polygon fill="#FFFD38" points="832.7,268.3 832.7,271.3 845.7,275.1 845.7,272.2 	"/>
	<polygon fill="#A6A327" points="845.7,272.2 846.6,271.7 846.6,274.8 845.7,275.1 	"/>
	<polygon fill="#F2EC25" points="846.6,271.7 833.6,268 832.7,268.3 845.7,272.2 	"/>
	<path fill="#FFFD38" d="M859,276c0,0-1.5,0.3-1.7,2.5c-0.1,0.6,0.3,2.2,2.3,2.2c2,0,2.4-1.2,2.5-1.8C861.9,278.1,861.5,276,859,276
		z"/>
	<path fill="#F2EC25" d="M859.6,276.1c0,0,3.1,0.4,3.2,2.3c-0.1,1.3-1,2.3-2.7,2.4C860.1,280.8,864.6,279.1,859.6,276.1z"/>
	<polygon fill="#DD0A37" points="981.6,313.1 981.6,239.2 964.4,234 964.4,307.3 	"/>
	<polygon fill="#232323" points="981.6,239.2 981.6,313.1 993.1,306.6 993.1,234 	"/>
	<polygon fill="#282828" points="993.1,234 975.8,228.7 964.4,234 981.6,239.2 	"/>
	<polygon fill="#1E1E1E" points="965.4,307.6 965.4,309.3 981.6,315 981.6,313.1 	"/>
	<polygon fill="#191919" points="981.6,313.1 981.6,315 990.9,309.7 990.9,307.9 	"/>
	<polygon fill="#191919" points="990.9,309.7 992.3,310 981.6,316.2 981.6,315 	"/>
	<polygon fill="#232323" points="981.6,315 981.6,316.2 963.9,309.9 965.4,309.3 	"/>
	<polygon fill="#DD0A37" points="963.9,309.9 963.9,373 981.6,379.2 981.6,316.2 	"/>
	<polygon fill="#232323" points="981.6,316.2 992.3,310 992.3,372.9 981.6,379.2 	"/>
	<polygon fill="#232323" points="963.9,367.1 955,373.1 983.9,383.2 981.6,379.2 963.9,373 	"/>
	<polygon fill="#191919" points="981.6,379.2 992.3,372.9 997.4,374.9 983.9,383.2 	"/>
	<polygon fill="#232323" points="983.9,383.2 983.9,395.5 955,384.9 955,373.1 	"/>
	<polygon fill="#1C1C1C" points="983.9,383.2 997.4,374.9 997.4,387 983.9,395.5 	"/>
	<polygon fill="#661B4B" points="983.9,395.5 1021.4,385.6 1009,373.1 997.4,379.2 997.4,387 	"/>
	<polygon fill="#661B4B" points="955.7,344.9 963.9,343.4 963.9,367.1 889.9,379.2 	"/>
	<polygon fill="#661B4B" points="572.1,526 424.9,599.8 230.9,492.3 424.9,646.1 561,562.4 	"/>
	<polygon fill="#661B4B" points="800.9,601.3 823.8,586.6 823.8,582.7 968.2,491.8 973.7,492.3 994,479.6 1021.2,482.7 823.8,609.2 
			"/>
	<polygon fill="#661B4B" points="602.7,490 644.3,492.3 644.3,468.7 	"/>
	<path fill="#661B4B" d="M768.2,408.1l-29.3,15.3c0,0,19.5,8,21.9,9.2l37.3-18.9L768.2,408.1z"/>
	<polygon fill="#661B4B" points="327.8,379.5 347,371.4 347,368 404.3,346.6 409.9,348.9 396,355.3 394.4,364.5 416.2,373.7 
		392.9,383.4 	"/>
	<polygon fill="#661B4B" points="604.5,270.4 615.7,272.8 615.7,266 	"/>
	<polygon fill="#661B4B" points="237,350.4 247.2,351.6 241.4,348.7 	"/>
	<path fill="#661B4B" d="M149.1,381.8c0,0,3.4-1.2,5.6,0c0.8,1.2-1.4,2.4-2.8,2.4C150.4,384.1,147.7,383.1,149.1,381.8z"/>
	<polygon fill="#661B4B" points="103.4,411.1 107.2,412.5 113,410.8 116.1,414.4 107.9,418.4 	"/>
	<path fill="#BFA27F" d="M867.5,282.8l25.8-11.7c0,0,1.9-1,1.9-1.4l2.9,0.6l-26.3,12.5H867.5z"/>
	<polygon fill="#BFA27F" points="774.9,262.7 796,253.8 796,245.4 810.8,248.5 809.4,256 	"/>
	<polygon fill="#BFA27F" points="693.1,234.7 706.3,230 706.3,226.3 710.9,229.2 710,230.7 	"/>
	<polygon fill="#AD4287" points="845.7,239.2 845.7,174.9 717.1,142.1 726.1,138.6 853.4,172.2 853.4,234 	"/>
	<polygon fill="#AD4287" points="992.3,362.4 992.3,310 990.9,309.7 990.9,307.9 993.1,306.6 993.1,234 975.8,228.7 977.7,227.8 
		995,233.1 994.4,306.4 993.1,307.6 993.1,309.3 994.2,309.7 995,362.8 	"/>
	<polygon fill="#AD4287" points="615.7,218 615.7,200.5 613.2,199.6 613.2,198 615.7,197.1 615.7,138.8 604.5,135.3 606.2,135.3 
		618.3,138.6 617.1,217.5 	"/>
	<polygon fill="#876E54" points="476.2,402.3 480.6,400.9 486.7,403.4 	"/>
	<polygon fill="#876E54" points="589.8,447.3 585.8,449.1 597,450.4 	"/>
	<polygon fill="#9B2F6A" points="208.7,153.8 213.8,154.5 213.8,249.1 216.7,244.9 216.7,153.8 211.8,153 	"/>
	<polygon fill="#9B2F6A" points="443.6,97.3 446.3,97.9 446.3,181.1 453.3,171.8 451.3,96.4 444.7,96.4 	"/>
	<polygon fill="#9B2F6A" points="338.3,122.5 341.7,123.2 341.7,212 343.3,209.5 343.3,121.1 	"/>
	<path fill="#D372B0" d="M325.8,379.5l-56.4,20.7l118.2,57.4c0,0,30.7-2.6,35.6-2.2L325.8,379.5z"/>
	<path fill="#D372B0" d="M451.3,246.4l-106.5,33.6c0,0,6.8,6.5,7.6,7.4L451.3,246.4z"/>
	<path fill="#D372B0" d="M942.5,415.5l-129.8,72.6c0,0-0.1-12.9-6.7-21.7L942.5,415.5z"/>
	<polygon opacity="0.2" fill="#F4F4F4" points="443.6,354.6 598.3,296.2 627.2,313.7 485.7,372 	"/>
	<polygon opacity="0.2" fill="#F4F4F4" points="630.1,316.2 488,372.9 565.3,406.1 653.2,342.3 	"/>
	<polygon opacity="0.2" fill="#F4F4F4" points="443.6,354.6 443.6,363.1 485.7,380.9 485.7,372 	"/>
	<polygon opacity="0.2" fill="#F4F4F4" points="488,372.9 488,381.9 564.3,413.7 565.3,406.1 	"/>
	<polygon opacity="0.2" fill="#F4F4F4" points="575.3,418.3 578.8,410.2 661.2,352.4 676.7,366.5 602.7,420 602.7,429.7 	"/>
</g>
</svg>
