<!-- Generator: Adobe Illustrator 18.0.0, SVG Export Plug-In  -->
<svg version="1.1"
	 xmlns="http://www.w3.org/2000/svg" xmlns:xlink="http://www.w3.org/1999/xlink" xmlns:a="http://ns.adobe.com/AdobeSVGViewerExtensions/3.0/"
	 x="0px" y="0px" width="193.9px" height="39.8px" viewBox="0 0 193.9 39.8" enable-background="new 0 0 193.9 39.8"
	 xml:space="preserve">
<defs>
</defs>
<g id="item_1_">
	<path fill="#1F2020" d="M17.5,5.9H6.6c-1.2,0-2.1-1-2.1-2.1v0c0-1.2,1-2.1,2.1-2.1h10.9c1.2,0,2.1,1,2.1,2.1v0
		C19.6,4.9,18.7,5.9,17.5,5.9z"/>
	<polygon fill="#CCCBCB" points="85.7,7.8 116.7,7.8 113.9,18 103.5,21.1 111.3,27.8 108.2,39.2 82.7,18.6 	"/>
	<path fill="#808080" d="M116.7,7.1L108,39.8h45.5l5.6-3.5l2-7.5h3.7l-0.9,6.1l2.5-6.1h1.8l-0.7,5.9l2.3-5.9h3.3l-0.5,5.8l2.4-5.8
		h3.1l-0.8,5.9l2.1-5.9h3.1l-1.9,7h5.1l8.1-31h-73.1C120.8,4.8,117,5.7,116.7,7.1z"/>
	<path fill="#1F2020" d="M1.6,4.4c0,0-3.6,5.2,0,11.5c3.6-0.9,22.4-9,82.2,3.7c-4-1.4-27.2-10.8-72.3-13.2C8,6.6,2.8,7.2,1.6,4.4z"
		/>
	<path fill="#3F4143" d="M82.6,6.5c0,0-40.2-9.6-78.7-5.4c-2.1,1.1-3.6,4.4,0,6.3c5.5,0,37.1-2.5,79.9,12.3c0-6.5,3.3-13,3.3-13
		S86.1,4.8,82.6,6.5z"/>
</g>
</svg>
