<!-- Generator: Adobe Illustrator 18.0.0, SVG Export Plug-In  -->
<svg version="1.1"
	 xmlns="http://www.w3.org/2000/svg" xmlns:xlink="http://www.w3.org/1999/xlink" xmlns:a="http://ns.adobe.com/AdobeSVGViewerExtensions/3.0/"
	 x="0px" y="0px" width="359.2px" height="78px" viewBox="0 0 359.2 78" enable-background="new 0 0 359.2 78" xml:space="preserve"
	>
<defs>
</defs>
<g>
	<g>
		<g>
			<path fill="none" stroke="#B6407B" stroke-width="5.1605" stroke-linecap="round" stroke-linejoin="round" d="M221.1,14.1
				c-2,0.3-5,1-5.7,2.5h-6.4"/>
			
				<line fill="none" stroke="#B6407B" stroke-width="5.1605" stroke-linecap="round" stroke-linejoin="round" stroke-dasharray="14.0665,14.0665" x1="195" y1="16.6" x2="173.9" y2="16.6"/>
			<path fill="none" stroke="#B6407B" stroke-width="5.1605" stroke-linecap="round" stroke-linejoin="round" d="M166.9,16.6h-6.4
				c0.5-1.2,0.9-1.9,0.9-1.9s-1.4-2.5-5.8-1.3"/>
			
				<path fill="none" stroke="#B6407B" stroke-width="5.1605" stroke-linecap="round" stroke-linejoin="round" stroke-dasharray="13.506,13.506" d="
				M142.5,12.1C120.4,7.8,67.3-0.8,14.8,4"/>
			<path fill="none" stroke="#B6407B" stroke-width="5.1605" stroke-linecap="round" stroke-linejoin="round" d="M8.3,5.3
				C6.4,7.1,5.1,10.9,5,10.7c0,0-1.6,2.2-2.4,5.9"/>
			<path fill="none" stroke="#B6407B" stroke-width="5.1605" stroke-linecap="round" stroke-linejoin="round" d="M2.6,25.7
				c0.4,1.9,1.2,3.9,2.4,5.9c1.1-0.3,3.1-1,6.1-1.8"/>
			
				<path fill="none" stroke="#B6407B" stroke-width="5.1605" stroke-linecap="round" stroke-linejoin="round" stroke-dasharray="12.6499,12.6499" d="
				M23.5,27.3c19.3-2.9,55.4-4,119.4,8.6"/>
			<path fill="none" stroke="#B6407B" stroke-width="5.1605" stroke-linecap="round" stroke-linejoin="round" d="M149,37.2
				c2.1,0.4,4.1,0.9,6.2,1.3c0-0.1,0-0.2,0-0.3l5,4"/>
			
				<line fill="none" stroke="#B6407B" stroke-width="5.1605" stroke-linecap="round" stroke-linejoin="round" stroke-dasharray="14.8552,14.8552" x1="171.8" y1="51.5" x2="189.1" y2="65.6"/>
			<polyline fill="none" stroke="#B6407B" stroke-width="5.1605" stroke-linecap="round" stroke-linejoin="round" points="
				194.8,70.2 199.8,74.3 199.5,75.4 205.9,75.4 			"/>
			
				<polyline fill="none" stroke="#B6407B" stroke-width="5.1605" stroke-linecap="round" stroke-linejoin="round" stroke-dasharray="13.8005,13.8005" points="
				219.7,75.4 282.6,75.4 292.8,69.1 293,68.2 			"/>
			<polyline fill="none" stroke="#B6407B" stroke-width="5.1605" stroke-linecap="round" stroke-linejoin="round" points="
				294.8,61.5 296.5,55.3 303.3,55.3 301.6,66.5 306.1,55.3 309.5,55.3 308.2,66.2 312.5,55.3 318.6,55.3 317.7,65.9 322.1,55.3 
				327.8,55.3 326.4,66.2 330.2,55.3 336,55.3 334.3,61.5 			"/>
			<polyline fill="none" stroke="#B6407B" stroke-width="5.1605" stroke-linecap="round" stroke-linejoin="round" points="
				334.1,62.6 332.4,68.7 341.8,68.7 343.5,62.6 			"/>
			
				<line fill="none" stroke="#B6407B" stroke-width="5.1605" stroke-linecap="round" stroke-linejoin="round" stroke-dasharray="14.6811,14.6811" x1="347.3" y1="48.4" x2="353" y2="27.1"/>
			<polyline fill="none" stroke="#B6407B" stroke-width="5.1605" stroke-linecap="round" stroke-linejoin="round" points="355,20 
				356.6,13.9 350.2,13.9 			"/>
			
				<line fill="none" stroke="#B6407B" stroke-width="5.1605" stroke-linecap="round" stroke-linejoin="round" stroke-dasharray="11.7389,11.7389" x1="338.5" y1="13.9" x2="227" y2="13.9"/>
		</g>
		<g>
			<polyline fill="none" stroke="#B6407B" stroke-width="5.1605" stroke-linecap="round" stroke-linejoin="round" points="
				196.1,45.2 191.3,41 197.4,39.2 			"/>
			<polyline fill="none" stroke="#B6407B" stroke-width="5.1605" stroke-linecap="round" stroke-linejoin="round" points="
				204.2,37.2 210.4,35.4 208.7,41.5 			"/>
			<polyline fill="none" stroke="#B6407B" stroke-width="5.1605" stroke-linecap="round" stroke-linejoin="round" points="
				207.1,47.2 205.5,53.3 200.7,49.2 			"/>
		</g>
	</g>
</g>
</svg>
