<?xml version="1.0" encoding="utf-8"?>
<!-- Generator: Adobe Illustrator 18.0.0, SVG Export Plug-In . SVG Version: 6.00 Build 0)  -->
<!DOCTYPE svg PUBLIC "-//W3C//DTD SVG 1.1//EN" "http://www.w3.org/Graphics/SVG/1.1/DTD/svg11.dtd">
<svg version="1.1" xmlns="http://www.w3.org/2000/svg" xmlns:xlink="http://www.w3.org/1999/xlink" x="0px" y="0px"
	 viewBox="0 0 350 153" enable-background="new 0 0 350 153" xml:space="preserve">
<g id="mediaroom_x5F_ref_xA0_Image_1_">
</g>
<g id="wall">
</g>
<g id="studio1">
</g>
<g id="desk1">
</g>
<g id="sofa2">
</g>
<g id="desk2">
</g>
<g id="sofa1">
</g>
<g id="sofa3">
</g>
<g id="photo_frames">
</g>
<g id="lamb">
</g>
<g id="machine2">
</g>
<g id="TV">
</g>
<g id="DVD_Player">
</g>
<g id="studio2">
</g>
<g id="shadows">
</g>
<g id="highlights">
	<g id="item_11_" transform="translate(8.6987659,-514.59056)" inkscape:groupmode="layer" inkscape:label="Calque 1">
		<g>
			<g id="layer1-9_11_" transform="translate(37.142857,-309.47901)" inkscape:label="Calque 1">
				<g id="g4315_11_" transform="matrix(1.6210352,0,0,1.6210352,-236.61672,-413.90959)">
					<g id="g4385_11_" transform="translate(0,50.50415)">
						<g id="g4188_12_" transform="translate(0,-189.60125)">
							
								<linearGradient id="path3770-6-6-6-9-5-7_1_" gradientUnits="userSpaceOnUse" x1="-1464.1606" y1="777.0636" x2="-1464.1606" y2="736.933" gradientTransform="matrix(-1.5088 0 0 -1.6506 -1893.5009 2231.8479)">
								<stop  offset="0" style="stop-color:#0F9BD7"/>
								<stop  offset="1" style="stop-color:#0E4D8C"/>
							</linearGradient>
							
								<path id="path3770-6-6-6-9-5-7_12_" inkscape:connector-curvature="0" sodipodi:nodetypes="ccccccc" fill="url(#path3770-6-6-6-9-5-7_1_)" d="
								M322.7,947l-16.1,0.2l0,39l16.6,5.1c0.8,0.2,1.7,0.1,1.6-1.4v-40.9C324.8,947.7,323.7,947.1,322.7,947L322.7,947z"/>
						</g>
						<path id="path4304_12_" inkscape:connector-curvature="0" fill="#FFFFFF" d="M320.2,762.8l0,5.1l-9.9-0.8v7.3l8.5,1.3v4.9
							l-8.5-1.5v8.8l10,2.6v5l-14-3.9v-29.3L320.2,762.8z"/>
						<g id="g4264_11_">
							<g id="g4257_12_" transform="translate(0,-450)">
								
									<linearGradient id="path3770-6-6-6-9-5_1_" gradientUnits="userSpaceOnUse" x1="-1430.8669" y1="1038.1416" x2="-1430.8669" y2="998.6994" gradientTransform="matrix(-1.7904 0 0 -1.7143 -2266.4741 2984.5317)">
									<stop  offset="0" style="stop-color:#0F9BD7"/>
									<stop  offset="1" style="stop-color:#0E4D8C"/>
								</linearGradient>
								
									<path id="path3770-6-6-6-9-5_12_" inkscape:connector-curvature="0" sodipodi:nodetypes="ccccccc" fill="url(#path3770-6-6-6-9-5_1_)" d="
									M303.7,1201.3l-19.1,0.8l0,39.4l19.7,6.5c0.9,0.2,2,0.2,1.9-1.3v-43.2C306.2,1202.1,304.9,1201.4,303.7,1201.3L303.7,1201.3
									z"/>
								<path id="path4255_12_" inkscape:connector-curvature="0" sodipodi:nodetypes="ccccccccccc" fill="#FFFFFF" d="M284.2,1206
									l5.1-0.1l7.1,23.8l0-23.6l5.5,0v35.8l-7.6-2.4l-6.7-25v22.9l-3.1-0.8L284.2,1206z"/>
							</g>
							<g id="g4110_11_">
								<g id="g4147_11_">
									<g id="g4203_11_">
										<g id="g4069_11_">
											<g id="g4062_12_" transform="translate(0,-450)">
												
													<linearGradient id="path3770-6-6-6_1_" gradientUnits="userSpaceOnUse" x1="-1538.5914" y1="1037.1292" x2="-1538.5914" y2="1001.4548" gradientTransform="matrix(-1.6709 0 0 -1.9203 -2316.6638 3186.9656)">
													<stop  offset="0" style="stop-color:#0F9BD7"/>
													<stop  offset="1" style="stop-color:#0E4D8C"/>
												</linearGradient>
												
													<path id="path3770-6-6-6_12_" inkscape:connector-curvature="0" sodipodi:nodetypes="ccccccc" fill="url(#path3770-6-6-6_1_)" d="
													M262.1,1189.2l-17.8,4v39.3l18.3,7.1c0.9,0.2,1.7,0.3,1.6-1.3v-46.9C264.3,1189.9,263.3,1189.3,262.1,1189.2
													L262.1,1189.2z"/>
												<path id="path4060_12_" inkscape:connector-curvature="0" sodipodi:nodetypes="ccscccccccc" fill="#FFFFFF" d="
													M246.8,1197.3v22c0.2,2.6,0,5.5,3.5,6.4c2.7,0.7,3.5-1.6,3.6-4.7v-24.5l6-0.7v25.7c0.1,11.5-6.4,9.9-8.5,9.5
													c-3.6-0.9-7.1-3.2-7.4-5.6v-27.8L246.8,1197.3z"/>
											</g>
											<g id="g4036_11_">
												<g id="g3980_11_">
													<g id="g3939_11_">
														<g id="g3932_12_" transform="translate(0,-449.74746)">
															
																<linearGradient id="path3770-6-6-8_1_" gradientUnits="userSpaceOnUse" x1="-387.842" y1="1047.0101" x2="-387.842" y2="1010.3729" gradientTransform="matrix(1.7109 0 0 -1.9276 848.7988 3193.4492)">
																<stop  offset="0" style="stop-color:#0F9BD7"/>
																<stop  offset="1" style="stop-color:#0E4D8C"/>
															</linearGradient>
															
																<path id="path3770-6-6-8_12_" inkscape:connector-curvature="0" sodipodi:nodetypes="ccccccc" fill="url(#path3770-6-6-8_1_)" d="
																M177.2,1172.3l18.3,10.7v37.5l-18.8-2.1c-0.9-0.2-1.7-0.5-1.6-1.9v-42.9C175,1172.1,176,1171.9,177.2,1172.3z"/>
															<path id="path3930_12_" inkscape:connector-curvature="0" fill="#FFFFFF" d="M181.7,1179.9v34.6l13.8,2.1v-5.2
																l-8-1.6v-26.7L181.7,1179.9z"/>
														</g>
														<g id="g3918_11_">
															<g id="g3924_11_">
																
																	<linearGradient id="path3770_1_" gradientUnits="userSpaceOnUse" x1="-256.2148" y1="616.2269" x2="-256.2148" y2="579.3107" gradientTransform="matrix(1.621 0 0 -1.621 556.7152 1720.6937)">
																	<stop  offset="0" style="stop-color:#0F9BD7"/>
																	<stop  offset="1" style="stop-color:#0E4D8C"/>
																</linearGradient>
																
																	<path id="path3770_12_" inkscape:connector-curvature="0" sodipodi:nodetypes="ccccccc" fill="url(#path3770_1_)" d="
																	M129.9,719.3l24.9,9.4v31.4l-25.4-4.1c-0.8-0.2-1.6-0.5-1.5-1.6v-34.2C127.8,719,128.8,718.9,129.9,719.3z"/>
																<path id="path3772_12_" inkscape:connector-curvature="0" sodipodi:nodetypes="cccccccccccccc" fill="#FFFFFF" d="
																	M132.6,724.8l9,3.3l4.1,18.4l4-15.6l5.3,1.8v23.5l-2.5-0.5v-18.5l-4.5,17.7l-5-1l-4.9-21v20.1l-5.5-1.1L132.6,724.8
																	z"/>
																
																	<linearGradient id="path3770-6_1_" gradientUnits="userSpaceOnUse" x1="-310.2267" y1="603.8295" x2="-310.2267" y2="568.5928" gradientTransform="matrix(1.6157 0 0 -1.7914 666.154 1806.9298)">
																	<stop  offset="0" style="stop-color:#0F9BD7"/>
																	<stop  offset="1" style="stop-color:#0E4D8C"/>
																</linearGradient>
																
																	<path id="path3770-6_12_" inkscape:connector-curvature="0" sodipodi:nodetypes="ccccccc" fill="url(#path3770-6_1_)" d="
																	M157.3,721.4l17.2,8.4v35.9l-17.7-2.5c-0.8-0.2-1.6-0.5-1.5-1.8v-39C155.2,721.1,156.2,721.1,157.3,721.4
																	L157.3,721.4z"/>
																<path id="path3915_12_" inkscape:connector-curvature="0" sodipodi:nodetypes="ccccccccccccc" fill="#FFFFFF" d="
																	M160,727.7V759l14.6,2.6v-4.3l-8.3-1.7l0-8.7l8.3,2.4v-4.3l-8.3-2.5v-7.2l8.3,3V734L160,727.7z"/>
															</g>
														</g>
													</g>
													<g id="g3971_12_">
														
															<linearGradient id="path3770-6-6-4-2_1_" gradientUnits="userSpaceOnUse" x1="-505.2133" y1="588.0794" x2="-505.2133" y2="556.5911" gradientTransform="matrix(1.9604 0 0 -2.0499 1198.1429 1937.8536)">
															<stop  offset="0" style="stop-color:#0F9BD7"/>
															<stop  offset="1" style="stop-color:#0E4D8C"/>
														</linearGradient>
														
															<path id="path3770-6-6-4-2_12_" inkscape:connector-curvature="0" sodipodi:nodetypes="ccccccc" fill="url(#path3770-6-6-4-2_1_)" d="
															M197.8,723.9l21.6,15.7v35.8l-21.5-1.3c-1-0.2-2-0.6-1.9-2.1v-46.7C195.9,723.6,196.5,723.4,197.8,723.9L197.8,723.9z
															"/>
														<g id="g3967_12_">
															<path id="path3956_12_" inkscape:connector-curvature="0" sodipodi:nodetypes="cccccscc" fill="#FFFFFF" d="
																M201,732.4l-0.1,37.1l10.4,1.4c4.7,0.8,6.7-3.5,6.5-6.7c-0.1-4.6-1.4-8-4.2-9.1c2.7,0.3,3.6-2,3.7-4.3
																c0.6-8.4-5.6-11.7-5.6-11.7L201,732.4z"/>
														</g>
														<path id="path3958_12_" inkscape:connector-curvature="0" sodipodi:nodetypes="cccccc" fill="#0487C6" d="M206.2,741
															v8.9l3.9,1.5c2,0.7,2.8-0.4,2.8-2.8c-0.2-2.5-0.5-4.3-2.9-5.6L206.2,741z"/>
														<path id="path3960_12_" inkscape:connector-curvature="0" sodipodi:nodetypes="cccccc" fill="#005D9E" d="
															M206.2,755.2v9.8l3.7,0.8c2.9,0.6,3.4-2.2,3.3-3.9c0-2.5-0.5-4.2-2.7-5.4L206.2,755.2z"/>
													</g>
												</g>
												<g id="g4025_12_">
													
														<linearGradient id="path3770-6-6-4_1_" gradientUnits="userSpaceOnUse" x1="-1490.3081" y1="582.5692" x2="-1490.3081" y2="552.1711" gradientTransform="matrix(-1.9957 0 0 -2.0843 -2742.2781 1956.1769)">
														<stop  offset="0" style="stop-color:#0F9BD7"/>
														<stop  offset="1" style="stop-color:#0E4D8C"/>
													</linearGradient>
													
														<path id="path3770-6-6-4_12_" inkscape:connector-curvature="0" sodipodi:nodetypes="ccccccc" fill="url(#path3770-6-6-4_1_)" d="
														M241.3,732.9l-21.3,6.9v35.7l21.9,9.2c1,0.3,2,0.3,1.9-1.4v-48.2C244.1,733,243.1,732.1,241.3,732.9L241.3,732.9z"/>
													<g id="g4020_12_">
														<path id="path4008_12_" inkscape:connector-curvature="0" sodipodi:nodetypes="ccccscc" fill="#FFFFFF" d="M239,751.6
															v14.5c-0.4,9.8-3.4,11.4-8.1,10.4c-7.2-2-7.9-8.7-7.9-15.7c0-3.4,0-8.7,0.5-12.8c0.7-6.3,7.2-8.3,10.7-6.9
															C238.3,742.9,238.9,747.2,239,751.6L239,751.6z"/>
														
															<linearGradient id="path4010_1_" gradientUnits="userSpaceOnUse" x1="-200.2895" y1="1116.7584" x2="-200.0318" y2="1073.7358" gradientTransform="matrix(1.621 0 0 -1.621 555.1595 2547.2063)">
															<stop  offset="0" style="stop-color:#0F9BD7"/>
															<stop  offset="1" style="stop-color:#0E4D8C"/>
														</linearGradient>
														<path id="path4010_12_" inkscape:connector-curvature="0" sodipodi:nodetypes="csscssc" fill="url(#path4010_1_)" d="
															M228,753.5c0,2.9,0,8.5,0,11.7c0,3.2,0.9,5.8,2.6,6.2c1.8,0.4,2.8-1.8,2.7-5.6v-15.2c0-2.1-0.6-4.1-2.1-4.3
															C228.1,745.7,228,750.9,228,753.5L228,753.5z"/>
													</g>
												</g>
											</g>
										</g>
										<g id="g4115_12_">
											<g id="g4198_12_">
												
													<linearGradient id="path3770-6-6-6-9_1_" gradientUnits="userSpaceOnUse" x1="-1514.6238" y1="590.5126" x2="-1514.6238" y2="552.1003" gradientTransform="matrix(-1.6211 0 0 -1.7729 -2180.9453 1797.3097)">
													<stop  offset="0" style="stop-color:#0F9BD7"/>
													<stop  offset="1" style="stop-color:#0E4D8C"/>
												</linearGradient>
												
													<path id="path3770-6-6-6-9_12_" inkscape:connector-curvature="0" sodipodi:nodetypes="ccccccc" fill="url(#path3770-6-6-6-9_1_)" d="
													M282.1,746.4l-17.4,2l0.1,39.2l17.8,6.3c0.8,0.2,1.6,0.3,1.5-1.2v-44.2C284.1,747,283.2,746.4,282.1,746.4L282.1,746.4z
													"/>
												<path id="path4097_12_" inkscape:connector-curvature="0" sodipodi:nodetypes="csscccccccccc" fill="#FFFFFF" d="
													M264.4,753c0,0,4.6-0.5,7.9-0.3c1.3,0.1,1.3,0.1,2.1,0.4c2.2,0.7,5,2.6,5.2,8.1v1.7c-0.6,5.1-2.3,6.7-4.4,7.6l5.3,17.7
													l-6-1.9l-4.4-15c-0.7,0-1.5-0.1-2.5-0.2v13l-3.1-0.9L264.4,753z"/>
												
													<linearGradient id="path4099_1_" gradientUnits="userSpaceOnUse" x1="-175.5339" y1="1109.6907" x2="-175.5339" y2="1069.6787" gradientTransform="matrix(1.621 0 0 -1.621 555.1595 2547.2063)">
													<stop  offset="0" style="stop-color:#0F9BD7"/>
													<stop  offset="1" style="stop-color:#0E4D8C"/>
												</linearGradient>
												<path id="path4099_12_" inkscape:connector-curvature="0" sodipodi:nodetypes="ccccccc" fill="url(#path4099_1_)" d="
													M267.8,766.4v-8.8l3,0.1c2.4,0.4,2.7,2.9,2.7,4.1v0.8c-0.2,3-1.6,4.3-3.6,4.1L267.8,766.4z"/>
											</g>
										</g>
									</g>
								</g>
							</g>
						</g>
					</g>
				</g>
			</g>
		</g>
	</g>
</g>
<g id="color" display="none">
	<g display="inline">
		<rect x="-108.8" y="10.8" fill="#F5F8FA" width="189.6" height="22.1"/>
		<rect x="-108.8" y="32.9" fill="#F3F4F5" width="189.6" height="22.1"/>
		<rect x="-108.8" y="55.1" fill="#E5E8E7" width="189.6" height="22.1"/>
		<rect x="-108.8" y="77.2" fill="#D0D0D1" width="189.6" height="22.1"/>
		<rect x="-108.8" y="99.3" fill="#CBC9CA" width="189.6" height="22.1"/>
		<rect x="-108.8" y="120.4" fill="#D3B68F" width="189.6" height="22.1"/>
		<rect x="-108.8" y="142.5" fill="#C3A57D" width="189.6" height="22.1"/>
	</g>
</g>
</svg>
