<!-- Generator: Adobe Illustrator 18.0.0, SVG Export Plug-In  -->
<svg version="1.1"
	 xmlns="http://www.w3.org/2000/svg" xmlns:xlink="http://www.w3.org/1999/xlink" xmlns:a="http://ns.adobe.com/AdobeSVGViewerExtensions/3.0/"
	 x="0px" y="0px" width="498.1px" height="324.5px" viewBox="0 0 498.1 324.5" enable-background="new 0 0 498.1 324.5"
	 xml:space="preserve">
<defs>
</defs>
<g>
	<g>
		<polyline fill="#048450" points="288.3,324.1 288.3,273.8 342.1,273.8 342.1,98.8 0,98.8 0,324.5 		"/>
		<polygon fill="#D6D6D6" points="288.3,324.1 342.1,273.8 288.3,273.8 		"/>
		<polygon opacity="0.8" fill="#033A22" points="288.3,324.1 252.6,324.1 288.3,294.4 		"/>
		<polygon opacity="0.8" fill="#033A22" points="0,99.2 217,55.2 124.4,99.2 		"/>
		<g>
			<path fill="#FFFFFF" d="M19.7,138.6v-11.3h1.8v11.3H19.7z"/>
			<path fill="#FFFFFF" d="M33,138.6h-1.8v-5.2c0-0.7-0.1-1.1-0.4-1.5c-0.3-0.3-0.7-0.5-1.3-0.5c-0.8,0-1.3,0.2-1.7,0.7
				c-0.4,0.5-0.5,1.2-0.5,2.3v4.3h-1.8v-8.5h1.4l0.3,1.1h0.1c0.3-0.4,0.6-0.7,1.1-0.9c0.5-0.2,1-0.3,1.6-0.3c2,0,3.1,1,3.1,3.1
				V138.6z"/>
			<path fill="#FFFFFF" d="M47,138.6l-3.3-9.4h-0.1c0.1,1.4,0.1,2.7,0.1,3.9v5.5h-1.7v-11.3h2.6l3.1,9h0l3.2-9h2.6v11.3H52V133
				c0-0.6,0-1.3,0-2.2s0.1-1.4,0.1-1.6h-0.1l-3.4,9.4H47z"/>
			<path fill="#FFFFFF" d="M61.5,138.7c-1.3,0-2.4-0.4-3.1-1.2c-0.7-0.8-1.1-1.8-1.1-3.2c0-1.4,0.3-2.5,1-3.3
				c0.7-0.8,1.6-1.2,2.9-1.2c1.1,0,2,0.3,2.7,1c0.7,0.7,1,1.6,1,2.8v1h-5.7c0,0.8,0.2,1.5,0.7,1.9c0.4,0.4,1,0.7,1.8,0.7
				c0.5,0,1,0,1.4-0.1s0.9-0.3,1.4-0.5v1.5c-0.4,0.2-0.9,0.4-1.3,0.4S62.1,138.7,61.5,138.7z M61.1,131.3c-0.6,0-1,0.2-1.4,0.5
				c-0.3,0.4-0.6,0.9-0.6,1.6H63c0-0.7-0.2-1.2-0.5-1.6C62.2,131.5,61.7,131.3,61.1,131.3z"/>
			<path fill="#FFFFFF" d="M69.8,138.6H68v-12h1.8V138.6z"/>
			<path fill="#FFFFFF" d="M78,129.9c1.1,0,1.9,0.4,2.5,1.2c0.6,0.8,0.9,1.9,0.9,3.2c0,1.4-0.3,2.5-0.9,3.3
				c-0.6,0.8-1.4,1.2-2.5,1.2c-1.1,0-1.9-0.4-2.5-1.2h-0.1l-0.3,1h-1.4v-12h1.8v2.9c0,0.2,0,0.5,0,0.9s0,0.7,0,0.8h0.1
				C76,130.3,76.9,129.9,78,129.9z M77.5,131.4c-0.7,0-1.3,0.2-1.6,0.6c-0.3,0.4-0.5,1.1-0.5,2.2v0.1c0,1,0.2,1.8,0.5,2.3
				s0.9,0.7,1.6,0.7c0.6,0,1.1-0.3,1.5-0.8c0.3-0.5,0.5-1.2,0.5-2.2C79.5,132.4,78.8,131.4,77.5,131.4z"/>
			<path fill="#FFFFFF" d="M92.2,134.3c0,1.4-0.4,2.5-1.1,3.3s-1.7,1.2-3,1.2c-0.8,0-1.5-0.2-2.1-0.5c-0.6-0.4-1.1-0.9-1.4-1.6
				s-0.5-1.5-0.5-2.3c0-1.4,0.4-2.5,1.1-3.2c0.7-0.8,1.7-1.2,3-1.2c1.2,0,2.2,0.4,2.9,1.2S92.2,133,92.2,134.3z M86,134.3
				c0,2,0.7,3,2.2,3c1.4,0,2.2-1,2.2-3c0-1.9-0.7-2.9-2.2-2.9c-0.8,0-1.3,0.3-1.7,0.8C86.2,132.6,86,133.4,86,134.3z"/>
			<path fill="#FFFFFF" d="M101.5,138.6l-0.3-1.1h-0.1c-0.3,0.4-0.6,0.7-1.1,0.9c-0.5,0.2-1,0.3-1.6,0.3c-1,0-1.8-0.3-2.3-0.8
				s-0.8-1.3-0.8-2.3v-5.6h1.8v5.3c0,0.7,0.1,1.1,0.4,1.5s0.7,0.5,1.3,0.5c0.8,0,1.3-0.2,1.7-0.7s0.5-1.2,0.5-2.3v-4.3h1.8v8.5
				H101.5z"/>
			<path fill="#FFFFFF" d="M111,129.9c0.4,0,0.7,0,0.9,0.1l-0.2,1.7c-0.3-0.1-0.5-0.1-0.8-0.1c-0.7,0-1.3,0.2-1.8,0.7
				c-0.4,0.5-0.7,1.1-0.7,1.8v4.5h-1.8v-8.5h1.4l0.2,1.5h0.1c0.3-0.5,0.7-0.9,1.1-1.2S110.5,129.9,111,129.9z"/>
			<path fill="#FFFFFF" d="M122.2,138.6h-1.8v-5.2c0-0.7-0.1-1.1-0.4-1.5c-0.3-0.3-0.7-0.5-1.3-0.5c-0.8,0-1.3,0.2-1.7,0.7
				c-0.4,0.5-0.5,1.2-0.5,2.3v4.3h-1.8v-8.5h1.4l0.3,1.1h0.1c0.3-0.4,0.6-0.7,1.1-0.9c0.5-0.2,1-0.3,1.6-0.3c2,0,3.1,1,3.1,3.1
				V138.6z"/>
			<path fill="#FFFFFF" d="M129.6,138.7c-1.3,0-2.4-0.4-3.1-1.2c-0.7-0.8-1.1-1.8-1.1-3.2c0-1.4,0.3-2.5,1-3.3
				c0.7-0.8,1.6-1.2,2.9-1.2c1.1,0,2,0.3,2.7,1c0.7,0.7,1,1.6,1,2.8v1h-5.7c0,0.8,0.2,1.5,0.7,1.9c0.4,0.4,1,0.7,1.8,0.7
				c0.5,0,1,0,1.4-0.1s0.9-0.3,1.4-0.5v1.5c-0.4,0.2-0.9,0.4-1.3,0.4S130.2,138.7,129.6,138.7z M129.3,131.3c-0.6,0-1,0.2-1.4,0.5
				c-0.3,0.4-0.6,0.9-0.6,1.6h3.9c0-0.7-0.2-1.2-0.5-1.6C130.3,131.5,129.9,131.3,129.3,131.3z"/>
			<path fill="#FFFFFF" d="M138.1,136.9c-0.2,1-0.7,2.2-1.4,3.7h-1.3c0.4-1.4,0.6-2.7,0.8-3.9h1.8L138.1,136.9z"/>
			<path fill="#FFFFFF" d="M148.8,138.6H147v-5.3c0-0.7-0.1-1.1-0.4-1.5c-0.2-0.3-0.6-0.5-1.2-0.5c-0.7,0-1.2,0.2-1.5,0.7
				c-0.3,0.5-0.5,1.2-0.5,2.3v4.3h-1.8v-8.5h1.4l0.3,1.1h0.1c0.2-0.4,0.6-0.7,1-0.9c0.5-0.2,0.9-0.3,1.5-0.3c1.3,0,2.2,0.4,2.6,1.3
				h0.1c0.3-0.4,0.6-0.8,1.1-1c0.5-0.2,1-0.4,1.6-0.4c1,0,1.8,0.3,2.2,0.8c0.5,0.5,0.7,1.3,0.7,2.4v5.6h-1.8v-5.3
				c0-0.7-0.1-1.1-0.4-1.5c-0.2-0.3-0.6-0.5-1.2-0.5c-0.7,0-1.2,0.2-1.5,0.7c-0.3,0.4-0.5,1.1-0.5,2V138.6z"/>
			<path fill="#FFFFFF" d="M165.5,134.3c0,1.4-0.4,2.5-1.1,3.3s-1.7,1.2-3,1.2c-0.8,0-1.5-0.2-2.1-0.5c-0.6-0.4-1.1-0.9-1.4-1.6
				s-0.5-1.5-0.5-2.3c0-1.4,0.4-2.5,1.1-3.2c0.7-0.8,1.7-1.2,3-1.2c1.2,0,2.2,0.4,2.9,1.2S165.5,133,165.5,134.3z M159.2,134.3
				c0,2,0.7,3,2.2,3c1.4,0,2.2-1,2.2-3c0-1.9-0.7-2.9-2.2-2.9c-0.8,0-1.3,0.3-1.7,0.8C159.4,132.6,159.2,133.4,159.2,134.3z"/>
			<path fill="#FFFFFF" d="M174.5,136.2c0,0.8-0.3,1.5-0.9,1.9c-0.6,0.4-1.5,0.7-2.6,0.7c-1.1,0-2-0.2-2.7-0.5v-1.6
				c1,0.5,1.9,0.7,2.8,0.7c1.1,0,1.7-0.3,1.7-1c0-0.2-0.1-0.4-0.2-0.5c-0.1-0.1-0.3-0.3-0.6-0.4c-0.3-0.2-0.7-0.3-1.2-0.5
				c-1-0.4-1.6-0.8-2-1.1c-0.3-0.4-0.5-0.9-0.5-1.5c0-0.7,0.3-1.3,0.9-1.7c0.6-0.4,1.4-0.6,2.4-0.6c1,0,2,0.2,2.8,0.6l-0.6,1.4
				c-0.9-0.4-1.7-0.6-2.3-0.6c-1,0-1.4,0.3-1.4,0.8c0,0.3,0.1,0.5,0.4,0.7c0.2,0.2,0.8,0.4,1.6,0.8c0.7,0.3,1.2,0.5,1.5,0.7
				c0.3,0.2,0.6,0.5,0.7,0.8C174.4,135.4,174.5,135.7,174.5,136.2z"/>
			<path fill="#FFFFFF" d="M180.8,137.3c0.4,0,0.9-0.1,1.3-0.2v1.4c-0.2,0.1-0.5,0.2-0.8,0.2s-0.6,0.1-1,0.1c-1.7,0-2.6-0.9-2.6-2.7
				v-4.6h-1.2v-0.8l1.2-0.7l0.6-1.8h1.1v1.9h2.4v1.4h-2.4v4.6c0,0.4,0.1,0.8,0.3,1C180.1,137.2,180.4,137.3,180.8,137.3z"/>
			<path fill="#FFFFFF" d="M193.7,138.7c-1.3,0-2.3-0.4-2.9-1.1c-0.7-0.8-1-1.8-1-3.2c0-1.4,0.4-2.5,1.1-3.3s1.7-1.2,3-1.2
				c0.9,0,1.7,0.2,2.4,0.5l-0.5,1.5c-0.8-0.3-1.4-0.4-1.9-0.4c-1.5,0-2.2,1-2.2,2.9c0,1,0.2,1.7,0.6,2.2c0.4,0.5,0.9,0.7,1.6,0.7
				c0.8,0,1.6-0.2,2.3-0.6v1.6c-0.3,0.2-0.7,0.3-1,0.4C194.7,138.7,194.2,138.7,193.7,138.7z"/>
			<path fill="#FFFFFF" d="M204.6,138.6l-0.4-1.2h-0.1c-0.4,0.5-0.8,0.9-1.2,1.1c-0.4,0.2-1,0.3-1.6,0.3c-0.8,0-1.5-0.2-2-0.7
				s-0.7-1.1-0.7-1.9c0-0.9,0.3-1.5,1-2s1.6-0.7,3-0.7l1.5,0v-0.5c0-0.5-0.1-1-0.4-1.2c-0.3-0.3-0.6-0.4-1.2-0.4
				c-0.4,0-0.9,0.1-1.3,0.2c-0.4,0.1-0.8,0.3-1.2,0.5l-0.6-1.3c0.5-0.2,1-0.4,1.5-0.6c0.5-0.1,1.1-0.2,1.6-0.2
				c1.1,0,1.9,0.2,2.5,0.7s0.8,1.2,0.8,2.2v5.7H204.6z M201.9,137.4c0.7,0,1.2-0.2,1.6-0.6s0.6-0.9,0.6-1.5v-0.7l-1.1,0
				c-0.9,0-1.5,0.2-1.9,0.4c-0.4,0.3-0.6,0.6-0.6,1.2c0,0.4,0.1,0.7,0.3,0.9C201.1,137.3,201.5,137.4,201.9,137.4z"/>
			<path fill="#FFFFFF" d="M213.9,131.4h-2.1v7.2H210v-7.2h-1.4v-0.8l1.4-0.6v-0.6c0-1,0.2-1.8,0.7-2.2c0.5-0.5,1.2-0.7,2.2-0.7
				c0.6,0,1.3,0.1,1.9,0.3l-0.5,1.4c-0.4-0.1-0.9-0.2-1.3-0.2c-0.4,0-0.7,0.1-0.9,0.4c-0.2,0.3-0.3,0.6-0.3,1.1v0.6h2.1V131.4z"/>
			<path fill="#FFFFFF" d="M220.3,138.7c-1.3,0-2.4-0.4-3.1-1.2c-0.7-0.8-1.1-1.8-1.1-3.2c0-1.4,0.3-2.5,1-3.3
				c0.7-0.8,1.6-1.2,2.9-1.2c1.1,0,2,0.3,2.7,1c0.7,0.7,1,1.6,1,2.8v1h-5.7c0,0.8,0.2,1.5,0.7,1.9c0.4,0.4,1,0.7,1.8,0.7
				c0.5,0,1,0,1.4-0.1s0.9-0.3,1.4-0.5v1.5c-0.4,0.2-0.9,0.4-1.3,0.4S220.9,138.7,220.3,138.7z M219.9,131.3c-0.6,0-1,0.2-1.4,0.5
				c-0.3,0.4-0.6,0.9-0.6,1.6h3.9c0-0.7-0.2-1.2-0.5-1.6C221,131.5,220.5,131.3,219.9,131.3z M218.8,129v-0.2
				c0.3-0.4,0.6-0.8,0.9-1.2c0.3-0.4,0.6-0.8,0.7-1.1h2.1v0.2c-0.3,0.3-0.7,0.7-1.2,1.2c-0.5,0.5-1,0.9-1.3,1.2H218.8z"/>
			<path fill="#FFFFFF" d="M232.6,136.2c0,0.8-0.3,1.5-0.9,1.9c-0.6,0.4-1.5,0.7-2.6,0.7c-1.1,0-2-0.2-2.7-0.5v-1.6
				c1,0.5,1.9,0.7,2.8,0.7c1.1,0,1.7-0.3,1.7-1c0-0.2-0.1-0.4-0.2-0.5c-0.1-0.1-0.3-0.3-0.6-0.4c-0.3-0.2-0.7-0.3-1.2-0.5
				c-1-0.4-1.6-0.8-2-1.1c-0.3-0.4-0.5-0.9-0.5-1.5c0-0.7,0.3-1.3,0.9-1.7c0.6-0.4,1.4-0.6,2.4-0.6c1,0,2,0.2,2.8,0.6l-0.6,1.4
				c-0.9-0.4-1.7-0.6-2.3-0.6c-1,0-1.4,0.3-1.4,0.8c0,0.3,0.1,0.5,0.4,0.7c0.2,0.2,0.8,0.4,1.6,0.8c0.7,0.3,1.2,0.5,1.5,0.7
				c0.3,0.2,0.6,0.5,0.7,0.8C232.5,135.4,232.6,135.7,232.6,136.2z"/>
			<path fill="#FFFFFF" d="M245.3,138.7c-1.1,0-1.9-0.4-2.5-1.2h-0.1c0.1,0.7,0.1,1.2,0.1,1.3v3.5H241v-12.3h1.5
				c0,0.2,0.1,0.5,0.3,1.1h0.1c0.6-0.9,1.4-1.3,2.5-1.3c1.1,0,1.9,0.4,2.5,1.2c0.6,0.8,0.9,1.9,0.9,3.2s-0.3,2.5-0.9,3.3
				C247.2,138.4,246.4,138.7,245.3,138.7z M244.9,131.4c-0.7,0-1.2,0.2-1.6,0.6c-0.3,0.4-0.5,1.1-0.5,2v0.3c0,1,0.2,1.8,0.5,2.3
				s0.9,0.7,1.6,0.7c0.6,0,1.1-0.3,1.5-0.8c0.3-0.5,0.5-1.2,0.5-2.2c0-1-0.2-1.7-0.5-2.2C246,131.6,245.5,131.4,244.9,131.4z"/>
			<path fill="#FFFFFF" d="M256.4,129.9c0.4,0,0.7,0,0.9,0.1l-0.2,1.7c-0.3-0.1-0.5-0.1-0.8-0.1c-0.7,0-1.3,0.2-1.8,0.7
				c-0.4,0.5-0.7,1.1-0.7,1.8v4.5H252v-8.5h1.4l0.2,1.5h0.1c0.3-0.5,0.7-0.9,1.1-1.2S255.8,129.9,256.4,129.9z"/>
			<path fill="#FFFFFF" d="M267.6,134.3c0,1.4-0.4,2.5-1.1,3.3s-1.7,1.2-3,1.2c-0.8,0-1.5-0.2-2.1-0.5c-0.6-0.4-1.1-0.9-1.4-1.6
				s-0.5-1.5-0.5-2.3c0-1.4,0.4-2.5,1.1-3.2c0.7-0.8,1.7-1.2,3-1.2c1.2,0,2.2,0.4,2.9,1.2S267.6,133,267.6,134.3z M261.4,134.3
				c0,2,0.7,3,2.2,3c1.4,0,2.2-1,2.2-3c0-1.9-0.7-2.9-2.2-2.9c-0.8,0-1.3,0.3-1.7,0.8C261.6,132.6,261.4,133.4,261.4,134.3z"/>
			<path fill="#FFFFFF" d="M272.8,138.6l-3.2-8.5h1.9l1.7,5c0.3,0.8,0.5,1.5,0.5,2h0.1c0-0.4,0.2-1,0.5-2l1.7-5h1.9l-3.3,8.5H272.8z
				"/>
			<path fill="#FFFFFF" d="M280.4,127.8c0-0.3,0.1-0.6,0.3-0.7s0.4-0.3,0.8-0.3c0.3,0,0.6,0.1,0.7,0.3c0.2,0.2,0.3,0.4,0.3,0.7
				c0,0.3-0.1,0.6-0.3,0.7c-0.2,0.2-0.4,0.3-0.7,0.3c-0.3,0-0.6-0.1-0.8-0.3C280.5,128.3,280.4,128.1,280.4,127.8z M282.3,138.6
				h-1.8v-8.5h1.8V138.6z"/>
			<path fill="#FFFFFF" d="M289,138.7c-1.1,0-1.9-0.4-2.5-1.2s-0.9-1.9-0.9-3.2c0-1.4,0.3-2.5,0.9-3.3c0.6-0.8,1.4-1.2,2.5-1.2
				c1.1,0,2,0.4,2.6,1.2h0.1c-0.1-0.6-0.1-1.1-0.1-1.5v-3.1h1.8v12h-1.4l-0.3-1.1h-0.1C290.9,138.3,290.1,138.7,289,138.7z
				 M289.5,137.3c0.7,0,1.3-0.2,1.6-0.6c0.3-0.4,0.5-1.1,0.5-2v-0.3c0-1.1-0.2-1.8-0.5-2.3s-0.9-0.7-1.6-0.7c-0.6,0-1.1,0.3-1.5,0.8
				c-0.3,0.5-0.5,1.3-0.5,2.2c0,0.9,0.2,1.7,0.5,2.2C288.3,137,288.8,137.3,289.5,137.3z"/>
			<path fill="#FFFFFF" d="M300.8,138.7c-1.3,0-2.4-0.4-3.1-1.2c-0.7-0.8-1.1-1.8-1.1-3.2c0-1.4,0.3-2.5,1-3.3
				c0.7-0.8,1.6-1.2,2.9-1.2c1.1,0,2,0.3,2.7,1c0.7,0.7,1,1.6,1,2.8v1h-5.7c0,0.8,0.2,1.5,0.7,1.9c0.4,0.4,1,0.7,1.8,0.7
				c0.5,0,1,0,1.4-0.1s0.9-0.3,1.4-0.5v1.5c-0.4,0.2-0.9,0.4-1.3,0.4S301.4,138.7,300.8,138.7z M300.5,131.3c-0.6,0-1,0.2-1.4,0.5
				c-0.3,0.4-0.6,0.9-0.6,1.6h3.9c0-0.7-0.2-1.2-0.5-1.6C301.5,131.5,301.1,131.3,300.5,131.3z"/>
			<path fill="#FFFFFF" d="M21.5,157.5h-1.8v-11.3H26v1.6h-4.5v3.5h4.2v1.6h-4.2V157.5z"/>
			<path fill="#FFFFFF" d="M31.1,153v4.5h-1.8v-11.3h3.2c1.5,0,2.5,0.3,3.2,0.8c0.7,0.5,1,1.4,1,2.5c0,1.4-0.7,2.4-2.2,3l3.2,5h-2.1
				l-2.7-4.5H31.1z M31.1,151.5h1.3c0.9,0,1.5-0.2,1.9-0.5c0.4-0.3,0.6-0.8,0.6-1.4c0-0.6-0.2-1.1-0.6-1.4c-0.4-0.3-1-0.4-1.9-0.4
				h-1.2V151.5z"/>
			<path fill="#FFFFFF" d="M46.9,157.5h-6.4v-11.3h6.4v1.6h-4.5v3.1h4.3v1.5h-4.3v3.5h4.5V157.5z"/>
			<path fill="#FFFFFF" d="M56.9,157.5h-6.4v-11.3h6.4v1.6h-4.5v3.1h4.3v1.5h-4.3v3.5h4.5V157.5z"/>
			<path fill="#FFFFFF" d="M71,157.5l-0.4-1.2h-0.1c-0.4,0.5-0.8,0.9-1.2,1.1c-0.4,0.2-1,0.3-1.6,0.3c-0.8,0-1.5-0.2-2-0.7
				s-0.7-1.1-0.7-1.9c0-0.9,0.3-1.5,1-2s1.6-0.7,3-0.7l1.5,0v-0.5c0-0.5-0.1-1-0.4-1.2c-0.3-0.3-0.6-0.4-1.2-0.4
				c-0.4,0-0.9,0.1-1.3,0.2c-0.4,0.1-0.8,0.3-1.2,0.5l-0.6-1.3c0.5-0.2,1-0.4,1.5-0.6c0.5-0.1,1.1-0.2,1.6-0.2
				c1.1,0,1.9,0.2,2.5,0.7s0.8,1.2,0.8,2.2v5.7H71z M68.3,156.3c0.7,0,1.2-0.2,1.6-0.6s0.6-0.9,0.6-1.5v-0.7l-1.1,0
				c-0.9,0-1.5,0.2-1.9,0.4c-0.4,0.3-0.6,0.6-0.6,1.2c0,0.4,0.1,0.7,0.3,0.9C67.5,156.2,67.8,156.3,68.3,156.3z"/>
			<path fill="#FFFFFF" d="M83.5,157.5h-1.8v-5.2c0-0.7-0.1-1.1-0.4-1.5c-0.3-0.3-0.7-0.5-1.3-0.5c-0.8,0-1.3,0.2-1.7,0.7
				c-0.4,0.5-0.5,1.2-0.5,2.3v4.3H76V149h1.4l0.3,1.1h0.1c0.3-0.4,0.6-0.7,1.1-0.9c0.5-0.2,1-0.3,1.6-0.3c2,0,3.1,1,3.1,3.1V157.5z"
				/>
			<path fill="#FFFFFF" d="M90.1,157.7c-1.1,0-1.9-0.4-2.5-1.2s-0.9-1.9-0.9-3.2c0-1.4,0.3-2.5,0.9-3.3c0.6-0.8,1.4-1.2,2.5-1.2
				c1.1,0,2,0.4,2.6,1.2h0.1c-0.1-0.6-0.1-1.1-0.1-1.5v-3.1h1.8v12H93l-0.3-1.1h-0.1C92.1,157.3,91.2,157.7,90.1,157.7z M90.6,156.2
				c0.7,0,1.3-0.2,1.6-0.6c0.3-0.4,0.5-1.1,0.5-2v-0.3c0-1.1-0.2-1.8-0.5-2.3s-0.9-0.7-1.6-0.7c-0.6,0-1.1,0.3-1.5,0.8
				c-0.3,0.5-0.5,1.3-0.5,2.2c0,0.9,0.2,1.7,0.5,2.2C89.4,156,89.9,156.2,90.6,156.2z"/>
			<path fill="#FFFFFF" d="M111.1,153.3c0,1.4-0.4,2.5-1.1,3.3s-1.7,1.2-3,1.2c-0.8,0-1.5-0.2-2.1-0.5c-0.6-0.4-1.1-0.9-1.4-1.6
				s-0.5-1.5-0.5-2.3c0-1.4,0.4-2.5,1.1-3.2c0.7-0.8,1.7-1.2,3-1.2c1.2,0,2.2,0.4,2.9,1.2S111.1,151.9,111.1,153.3z M104.9,153.3
				c0,2,0.7,3,2.2,3c1.4,0,2.2-1,2.2-3c0-1.9-0.7-2.9-2.2-2.9c-0.8,0-1.3,0.3-1.7,0.8C105,151.6,104.9,152.3,104.9,153.3z"/>
			<path fill="#FFFFFF" d="M118.6,150.4h-2.1v7.2h-1.8v-7.2h-1.4v-0.8l1.4-0.6v-0.6c0-1,0.2-1.8,0.7-2.2c0.5-0.5,1.2-0.7,2.2-0.7
				c0.6,0,1.3,0.1,1.9,0.3l-0.5,1.4c-0.4-0.1-0.9-0.2-1.3-0.2c-0.4,0-0.7,0.1-0.9,0.4c-0.2,0.3-0.3,0.6-0.3,1.1v0.6h2.1V150.4z"/>
			<path fill="#FFFFFF" d="M124.4,156.2c0.4,0,0.9-0.1,1.3-0.2v1.4c-0.2,0.1-0.5,0.2-0.8,0.2s-0.6,0.1-1,0.1c-1.7,0-2.6-0.9-2.6-2.7
				v-4.6h-1.2v-0.8l1.2-0.7l0.6-1.8h1.1v1.9h2.4v1.4h-2.4v4.6c0,0.4,0.1,0.8,0.3,1C123.8,156.1,124.1,156.2,124.4,156.2z"/>
			<path fill="#FFFFFF" d="M132.4,157.7c-1.3,0-2.4-0.4-3.1-1.2c-0.7-0.8-1.1-1.8-1.1-3.2c0-1.4,0.3-2.5,1-3.3
				c0.7-0.8,1.6-1.2,2.9-1.2c1.1,0,2,0.3,2.7,1c0.7,0.7,1,1.6,1,2.8v1H130c0,0.8,0.2,1.5,0.7,1.9c0.4,0.4,1,0.7,1.8,0.7
				c0.5,0,1,0,1.4-0.1s0.9-0.3,1.4-0.5v1.5c-0.4,0.2-0.9,0.4-1.3,0.4S133,157.7,132.4,157.7z M132.1,150.2c-0.6,0-1,0.2-1.4,0.5
				c-0.3,0.4-0.6,0.9-0.6,1.6h3.9c0-0.7-0.2-1.2-0.5-1.6C133.1,150.4,132.6,150.2,132.1,150.2z"/>
			<path fill="#FFFFFF" d="M146.5,157.5h-1.8v-5.2c0-0.7-0.1-1.1-0.4-1.5c-0.3-0.3-0.7-0.5-1.3-0.5c-0.8,0-1.3,0.2-1.7,0.7
				c-0.4,0.5-0.5,1.2-0.5,2.3v4.3H139V149h1.4l0.3,1.1h0.1c0.3-0.4,0.6-0.7,1.1-0.9c0.5-0.2,1-0.3,1.6-0.3c2,0,3.1,1,3.1,3.1V157.5z
				"/>
			<path fill="#FFFFFF" d="M161.5,157.5l-0.3-1.1h-0.1c-0.3,0.4-0.6,0.7-1.1,0.9c-0.5,0.2-1,0.3-1.6,0.3c-1,0-1.8-0.3-2.3-0.8
				s-0.8-1.3-0.8-2.3V149h1.8v5.3c0,0.7,0.1,1.1,0.4,1.5s0.7,0.5,1.3,0.5c0.8,0,1.3-0.2,1.7-0.7s0.5-1.2,0.5-2.3V149h1.8v8.5H161.5z
				"/>
			<path fill="#FFFFFF" d="M174.2,157.5h-1.8v-5.2c0-0.7-0.1-1.1-0.4-1.5c-0.3-0.3-0.7-0.5-1.3-0.5c-0.8,0-1.3,0.2-1.7,0.7
				c-0.4,0.5-0.5,1.2-0.5,2.3v4.3h-1.8V149h1.4l0.3,1.1h0.1c0.3-0.4,0.6-0.7,1.1-0.9c0.5-0.2,1-0.3,1.6-0.3c2,0,3.1,1,3.1,3.1V157.5
				z"/>
			<path fill="#FFFFFF" d="M179.7,157.5h-1.8v-12h1.8V157.5z"/>
			<path fill="#FFFFFF" d="M183.4,146.8c0-0.3,0.1-0.6,0.3-0.7s0.4-0.3,0.8-0.3c0.3,0,0.6,0.1,0.7,0.3c0.2,0.2,0.3,0.4,0.3,0.7
				c0,0.3-0.1,0.6-0.3,0.7c-0.2,0.2-0.4,0.3-0.7,0.3c-0.3,0-0.6-0.1-0.8-0.3C183.4,147.3,183.4,147.1,183.4,146.8z M185.3,157.5
				h-1.8V149h1.8V157.5z"/>
			<path fill="#FFFFFF" d="M196.2,157.5h-1.8v-5.3c0-0.7-0.1-1.1-0.4-1.5c-0.2-0.3-0.6-0.5-1.2-0.5c-0.7,0-1.2,0.2-1.5,0.7
				c-0.3,0.5-0.5,1.2-0.5,2.3v4.3h-1.8V149h1.4l0.3,1.1h0.1c0.2-0.4,0.6-0.7,1-0.9c0.5-0.2,0.9-0.3,1.5-0.3c1.3,0,2.2,0.4,2.6,1.3
				h0.1c0.3-0.4,0.6-0.8,1.1-1c0.5-0.2,1-0.4,1.6-0.4c1,0,1.8,0.3,2.2,0.8c0.5,0.5,0.7,1.3,0.7,2.4v5.6h-1.8v-5.3
				c0-0.7-0.1-1.1-0.4-1.5c-0.2-0.3-0.6-0.5-1.2-0.5c-0.7,0-1.2,0.2-1.5,0.7c-0.3,0.4-0.5,1.1-0.5,2V157.5z"/>
			<path fill="#FFFFFF" d="M205.2,146.8c0-0.3,0.1-0.6,0.3-0.7s0.4-0.3,0.8-0.3c0.3,0,0.6,0.1,0.7,0.3c0.2,0.2,0.3,0.4,0.3,0.7
				c0,0.3-0.1,0.6-0.3,0.7c-0.2,0.2-0.4,0.3-0.7,0.3c-0.3,0-0.6-0.1-0.8-0.3C205.3,147.3,205.2,147.1,205.2,146.8z M207.2,157.5
				h-1.8V149h1.8V157.5z"/>
			<path fill="#FFFFFF" d="M214.1,156.2c0.4,0,0.9-0.1,1.3-0.2v1.4c-0.2,0.1-0.5,0.2-0.8,0.2s-0.6,0.1-1,0.1c-1.7,0-2.6-0.9-2.6-2.7
				v-4.6h-1.2v-0.8l1.2-0.7l0.6-1.8h1.1v1.9h2.4v1.4h-2.4v4.6c0,0.4,0.1,0.8,0.3,1C213.5,156.1,213.8,156.2,214.1,156.2z"/>
			<path fill="#FFFFFF" d="M222.1,157.7c-1.3,0-2.4-0.4-3.1-1.2c-0.7-0.8-1.1-1.8-1.1-3.2c0-1.4,0.3-2.5,1-3.3
				c0.7-0.8,1.6-1.2,2.9-1.2c1.1,0,2,0.3,2.7,1c0.7,0.7,1,1.6,1,2.8v1h-5.7c0,0.8,0.2,1.5,0.7,1.9c0.4,0.4,1,0.7,1.8,0.7
				c0.5,0,1,0,1.4-0.1s0.9-0.3,1.4-0.5v1.5c-0.4,0.2-0.9,0.4-1.3,0.4S222.6,157.7,222.1,157.7z M221.7,150.2c-0.6,0-1,0.2-1.4,0.5
				c-0.3,0.4-0.6,0.9-0.6,1.6h3.9c0-0.7-0.2-1.2-0.5-1.6C222.8,150.4,222.3,150.2,221.7,150.2z"/>
			<path fill="#FFFFFF" d="M231.5,157.7c-1.1,0-1.9-0.4-2.5-1.2s-0.9-1.9-0.9-3.2c0-1.4,0.3-2.5,0.9-3.3c0.6-0.8,1.4-1.2,2.5-1.2
				c1.1,0,2,0.4,2.6,1.2h0.1c-0.1-0.6-0.1-1.1-0.1-1.5v-3.1h1.8v12h-1.4l-0.3-1.1H234C233.5,157.3,232.6,157.7,231.5,157.7z
				 M232,156.2c0.7,0,1.3-0.2,1.6-0.6c0.3-0.4,0.5-1.1,0.5-2v-0.3c0-1.1-0.2-1.8-0.5-2.3s-0.9-0.7-1.6-0.7c-0.6,0-1.1,0.3-1.5,0.8
				c-0.3,0.5-0.5,1.3-0.5,2.2c0,0.9,0.2,1.7,0.5,2.2C230.8,156,231.3,156.2,232,156.2z"/>
			<path fill="#FFFFFF" d="M250.3,157.5l-0.4-1.2h-0.1c-0.4,0.5-0.8,0.9-1.2,1.1c-0.4,0.2-1,0.3-1.6,0.3c-0.8,0-1.5-0.2-2-0.7
				s-0.7-1.1-0.7-1.9c0-0.9,0.3-1.5,1-2s1.6-0.7,3-0.7l1.5,0v-0.5c0-0.5-0.1-1-0.4-1.2c-0.3-0.3-0.6-0.4-1.2-0.4
				c-0.4,0-0.9,0.1-1.3,0.2c-0.4,0.1-0.8,0.3-1.2,0.5l-0.6-1.3c0.5-0.2,1-0.4,1.5-0.6c0.5-0.1,1.1-0.2,1.6-0.2
				c1.1,0,1.9,0.2,2.5,0.7s0.8,1.2,0.8,2.2v5.7H250.3z M247.6,156.3c0.7,0,1.2-0.2,1.6-0.6s0.6-0.9,0.6-1.5v-0.7l-1.1,0
				c-0.9,0-1.5,0.2-1.9,0.4c-0.4,0.3-0.6,0.6-0.6,1.2c0,0.4,0.1,0.7,0.3,0.9C246.8,156.2,247.1,156.3,247.6,156.3z"/>
			<path fill="#FFFFFF" d="M258.7,157.7c-1.3,0-2.3-0.4-2.9-1.1c-0.7-0.8-1-1.8-1-3.2c0-1.4,0.4-2.5,1.1-3.3c0.7-0.8,1.7-1.2,3-1.2
				c0.9,0,1.7,0.2,2.4,0.5l-0.5,1.5c-0.8-0.3-1.4-0.4-1.9-0.4c-1.5,0-2.2,1-2.2,2.9c0,1,0.2,1.7,0.6,2.2c0.4,0.5,0.9,0.7,1.6,0.7
				c0.8,0,1.6-0.2,2.3-0.6v1.6c-0.3,0.2-0.7,0.3-1,0.4C259.7,157.7,259.2,157.7,258.7,157.7z"/>
			<path fill="#FFFFFF" d="M267.7,157.7c-1.3,0-2.3-0.4-2.9-1.1c-0.7-0.8-1-1.8-1-3.2c0-1.4,0.4-2.5,1.1-3.3s1.7-1.2,3-1.2
				c0.9,0,1.7,0.2,2.4,0.5l-0.5,1.5c-0.8-0.3-1.4-0.4-1.9-0.4c-1.5,0-2.2,1-2.2,2.9c0,1,0.2,1.7,0.6,2.2c0.4,0.5,0.9,0.7,1.6,0.7
				c0.8,0,1.6-0.2,2.3-0.6v1.6c-0.3,0.2-0.7,0.3-1,0.4C268.7,157.7,268.3,157.7,267.7,157.7z"/>
			<path fill="#FFFFFF" d="M277,157.7c-1.3,0-2.4-0.4-3.1-1.2c-0.7-0.8-1.1-1.8-1.1-3.2c0-1.4,0.3-2.5,1-3.3
				c0.7-0.8,1.6-1.2,2.9-1.2c1.1,0,2,0.3,2.7,1c0.7,0.7,1,1.6,1,2.8v1h-5.7c0,0.8,0.2,1.5,0.7,1.9c0.4,0.4,1,0.7,1.8,0.7
				c0.5,0,1,0,1.4-0.1s0.9-0.3,1.4-0.5v1.5c-0.4,0.2-0.9,0.4-1.3,0.4S277.6,157.7,277,157.7z M276.7,150.2c-0.6,0-1,0.2-1.4,0.5
				c-0.3,0.4-0.6,0.9-0.6,1.6h3.9c0-0.7-0.2-1.2-0.5-1.6C277.7,150.4,277.3,150.2,276.7,150.2z"/>
			<path fill="#FFFFFF" d="M289.3,155.1c0,0.8-0.3,1.5-0.9,1.9c-0.6,0.4-1.5,0.7-2.6,0.7c-1.1,0-2-0.2-2.7-0.5v-1.6
				c1,0.5,1.9,0.7,2.8,0.7c1.1,0,1.7-0.3,1.7-1c0-0.2-0.1-0.4-0.2-0.5c-0.1-0.1-0.3-0.3-0.6-0.4c-0.3-0.2-0.7-0.3-1.2-0.5
				c-1-0.4-1.6-0.8-2-1.1c-0.3-0.4-0.5-0.9-0.5-1.5c0-0.7,0.3-1.3,0.9-1.7c0.6-0.4,1.4-0.6,2.4-0.6c1,0,2,0.2,2.8,0.6l-0.6,1.4
				c-0.9-0.4-1.7-0.6-2.3-0.6c-1,0-1.4,0.3-1.4,0.8c0,0.3,0.1,0.5,0.4,0.7c0.2,0.2,0.8,0.4,1.6,0.8c0.7,0.3,1.2,0.5,1.5,0.7
				c0.3,0.2,0.6,0.5,0.7,0.8C289.2,154.4,289.3,154.7,289.3,155.1z"/>
			<path fill="#FFFFFF" d="M298.2,155.1c0,0.8-0.3,1.5-0.9,1.9c-0.6,0.4-1.5,0.7-2.6,0.7c-1.1,0-2-0.2-2.7-0.5v-1.6
				c1,0.5,1.9,0.7,2.8,0.7c1.1,0,1.7-0.3,1.7-1c0-0.2-0.1-0.4-0.2-0.5c-0.1-0.1-0.3-0.3-0.6-0.4c-0.3-0.2-0.7-0.3-1.2-0.5
				c-1-0.4-1.6-0.8-2-1.1c-0.3-0.4-0.5-0.9-0.5-1.5c0-0.7,0.3-1.3,0.9-1.7c0.6-0.4,1.4-0.6,2.4-0.6c1,0,2,0.2,2.8,0.6l-0.6,1.4
				c-0.9-0.4-1.7-0.6-2.3-0.6c-1,0-1.4,0.3-1.4,0.8c0,0.3,0.1,0.5,0.4,0.7c0.2,0.2,0.8,0.4,1.6,0.8c0.7,0.3,1.2,0.5,1.5,0.7
				c0.3,0.2,0.6,0.5,0.7,0.8C298.1,154.4,298.2,154.7,298.2,155.1z"/>
			<path fill="#FFFFFF" d="M22.7,175.2c0.4,0,0.9-0.1,1.3-0.2v1.4c-0.2,0.1-0.5,0.2-0.8,0.2s-0.6,0.1-1,0.1c-1.7,0-2.6-0.9-2.6-2.7
				v-4.6h-1.2v-0.8l1.2-0.7l0.6-1.8h1.1v1.9h2.4v1.4h-2.4v4.6c0,0.4,0.1,0.8,0.3,1C22,175.1,22.3,175.2,22.7,175.2z"/>
			<path fill="#FFFFFF" d="M34.4,172.2c0,1.4-0.4,2.5-1.1,3.3s-1.7,1.2-3,1.2c-0.8,0-1.5-0.2-2.1-0.5c-0.6-0.4-1.1-0.9-1.4-1.6
				s-0.5-1.5-0.5-2.3c0-1.4,0.4-2.5,1.1-3.2c0.7-0.8,1.7-1.2,3-1.2c1.2,0,2.2,0.4,2.9,1.2S34.4,170.9,34.4,172.2z M28.2,172.2
				c0,2,0.7,3,2.2,3c1.4,0,2.2-1,2.2-3c0-1.9-0.7-2.9-2.2-2.9c-0.8,0-1.3,0.3-1.7,0.8C28.4,170.6,28.2,171.3,28.2,172.2z"/>
			<path fill="#FFFFFF" d="M50,176.5l-1.1-4c-0.1-0.4-0.4-1.4-0.7-2.9h-0.1c-0.3,1.4-0.5,2.4-0.7,3l-1.1,4h-2l-2.4-8.5h1.9l1.1,4.2
				c0.2,1,0.4,1.9,0.5,2.7h0c0.1-0.4,0.1-0.8,0.2-1.3s0.2-0.8,0.3-1.1l1.3-4.5h2l1.3,4.5c0.1,0.3,0.2,0.6,0.3,1.2
				c0.1,0.5,0.2,0.9,0.2,1.2H51c0.1-0.6,0.3-1.5,0.5-2.7l1.1-4.2h1.8l-2.4,8.5H50z"/>
			<path fill="#FFFFFF" d="M57,165.7c0-0.3,0.1-0.6,0.3-0.7s0.4-0.3,0.8-0.3c0.3,0,0.6,0.1,0.7,0.3c0.2,0.2,0.3,0.4,0.3,0.7
				c0,0.3-0.1,0.6-0.3,0.7c-0.2,0.2-0.4,0.3-0.7,0.3c-0.3,0-0.6-0.1-0.8-0.3C57.1,166.3,57,166,57,165.7z M58.9,176.5h-1.8V168h1.8
				V176.5z"/>
			<path fill="#FFFFFF" d="M67,169.3h-2.1v7.2H63v-7.2h-1.4v-0.8l1.4-0.6v-0.6c0-1,0.2-1.8,0.7-2.2c0.5-0.5,1.2-0.7,2.2-0.7
				c0.6,0,1.3,0.1,1.9,0.3l-0.5,1.4c-0.4-0.1-0.9-0.2-1.3-0.2c-0.4,0-0.7,0.1-0.9,0.4c-0.2,0.3-0.3,0.6-0.3,1.1v0.6H67V169.3z
				 M68.3,165.7c0-0.3,0.1-0.6,0.3-0.7s0.4-0.3,0.8-0.3c0.3,0,0.6,0.1,0.7,0.3c0.2,0.2,0.3,0.4,0.3,0.7c0,0.3-0.1,0.6-0.3,0.7
				c-0.2,0.2-0.4,0.3-0.7,0.3c-0.3,0-0.6-0.1-0.8-0.3C68.4,166.3,68.3,166,68.3,165.7z M70.2,176.5h-1.8V168h1.8V176.5z"/>
			<path fill="#FFFFFF" d="M73.7,175.5c0-0.4,0.1-0.7,0.3-0.9s0.5-0.3,0.8-0.3c0.4,0,0.7,0.1,0.9,0.3c0.2,0.2,0.3,0.5,0.3,0.9
				c0,0.4-0.1,0.7-0.3,0.9c-0.2,0.2-0.5,0.3-0.9,0.3c-0.4,0-0.7-0.1-0.8-0.3C73.8,176.2,73.7,175.9,73.7,175.5z"/>
			<path fill="#FFFFFF" d="M23.6,214.4h-1.8v-9.7h-3.3v-1.6h8.5v1.6h-3.3V214.4z"/>
			<path fill="#FFFFFF" d="M37.1,214.4h-1.8v-5.2c0-0.7-0.1-1.1-0.4-1.5c-0.3-0.3-0.7-0.5-1.3-0.5c-0.8,0-1.3,0.2-1.7,0.7
				c-0.4,0.5-0.5,1.2-0.5,2.3v4.2h-1.8v-12h1.8v3c0,0.5,0,1-0.1,1.6h0.1c0.2-0.4,0.6-0.7,1-1c0.4-0.2,1-0.3,1.5-0.3
				c2.1,0,3.1,1,3.1,3.1V214.4z"/>
			<path fill="#FFFFFF" d="M44.5,214.6c-1.3,0-2.4-0.4-3.1-1.2c-0.7-0.8-1.1-1.8-1.1-3.2c0-1.4,0.3-2.5,1-3.3
				c0.7-0.8,1.6-1.2,2.9-1.2c1.1,0,2,0.3,2.7,1c0.7,0.7,1,1.6,1,2.8v1h-5.7c0,0.8,0.2,1.5,0.7,1.9c0.4,0.4,1,0.7,1.8,0.7
				c0.5,0,1,0,1.4-0.1s0.9-0.3,1.4-0.5v1.5c-0.4,0.2-0.9,0.4-1.3,0.4S45.1,214.6,44.5,214.6z M44.2,207.1c-0.6,0-1,0.2-1.4,0.5
				c-0.3,0.4-0.6,0.9-0.6,1.6h3.9c0-0.7-0.2-1.2-0.5-1.6C45.2,207.3,44.8,207.1,44.2,207.1z"/>
			<path fill="#FFFFFF" d="M63.6,205.9v1l-1.5,0.3c0.1,0.2,0.2,0.4,0.3,0.7c0.1,0.3,0.1,0.5,0.1,0.8c0,0.9-0.3,1.6-0.9,2.1
				c-0.6,0.5-1.4,0.8-2.5,0.8c-0.3,0-0.5,0-0.7-0.1c-0.4,0.2-0.6,0.5-0.6,0.8c0,0.2,0.1,0.3,0.3,0.4s0.5,0.1,1,0.1h1.5
				c0.9,0,1.7,0.2,2.1,0.6c0.5,0.4,0.7,1,0.7,1.7c0,1-0.4,1.7-1.2,2.2c-0.8,0.5-1.9,0.8-3.5,0.8c-1.2,0-2-0.2-2.7-0.6
				c-0.6-0.4-0.9-1-0.9-1.8c0-0.5,0.2-1,0.5-1.3c0.3-0.4,0.8-0.6,1.4-0.7c-0.2-0.1-0.4-0.3-0.6-0.5c-0.2-0.2-0.2-0.5-0.2-0.7
				c0-0.3,0.1-0.6,0.3-0.8c0.2-0.2,0.4-0.4,0.8-0.7c-0.4-0.2-0.8-0.5-1.1-0.9c-0.3-0.4-0.4-0.9-0.4-1.5c0-0.9,0.3-1.6,0.9-2.2
				c0.6-0.5,1.4-0.8,2.5-0.8c0.2,0,0.5,0,0.8,0.1c0.3,0,0.5,0.1,0.6,0.1H63.6z M56.9,215.7c0,0.4,0.2,0.7,0.5,0.9
				c0.4,0.2,0.8,0.3,1.5,0.3c1,0,1.7-0.1,2.2-0.4c0.5-0.3,0.7-0.7,0.7-1.1c0-0.4-0.1-0.6-0.4-0.8c-0.3-0.2-0.8-0.2-1.5-0.2h-1.4
				c-0.5,0-0.9,0.1-1.2,0.4C57,215,56.9,215.3,56.9,215.7z M57.7,208.7c0,0.5,0.1,0.9,0.4,1.2s0.7,0.4,1.2,0.4c1,0,1.6-0.6,1.6-1.7
				c0-0.6-0.1-1-0.4-1.3s-0.7-0.5-1.2-0.5c-0.5,0-0.9,0.1-1.2,0.4S57.7,208.1,57.7,208.7z"/>
			<path fill="#FFFFFF" d="M73.9,210.1c0,1.4-0.4,2.5-1.1,3.3s-1.7,1.2-3,1.2c-0.8,0-1.5-0.2-2.1-0.5c-0.6-0.4-1.1-0.9-1.4-1.6
				s-0.5-1.5-0.5-2.3c0-1.4,0.4-2.5,1.1-3.2c0.7-0.8,1.7-1.2,3-1.2c1.2,0,2.2,0.4,2.9,1.2S73.9,208.8,73.9,210.1z M67.7,210.1
				c0,2,0.7,3,2.2,3c1.4,0,2.2-1,2.2-3c0-1.9-0.7-2.9-2.2-2.9c-0.8,0-1.3,0.3-1.7,0.8C67.9,208.5,67.7,209.2,67.7,210.1z"/>
			<path fill="#FFFFFF" d="M84.8,210.1c0,1.4-0.4,2.5-1.1,3.3s-1.7,1.2-3,1.2c-0.8,0-1.5-0.2-2.1-0.5c-0.6-0.4-1.1-0.9-1.4-1.6
				s-0.5-1.5-0.5-2.3c0-1.4,0.4-2.5,1.1-3.2c0.7-0.8,1.7-1.2,3-1.2c1.2,0,2.2,0.4,2.9,1.2S84.8,208.8,84.8,210.1z M78.6,210.1
				c0,2,0.7,3,2.2,3c1.4,0,2.2-1,2.2-3c0-1.9-0.7-2.9-2.2-2.9c-0.8,0-1.3,0.3-1.7,0.8C78.7,208.5,78.6,209.2,78.6,210.1z"/>
			<path fill="#FFFFFF" d="M90.9,214.6c-1.1,0-1.9-0.4-2.5-1.2s-0.9-1.9-0.9-3.2c0-1.4,0.3-2.5,0.9-3.3c0.6-0.8,1.4-1.2,2.5-1.2
				c1.1,0,2,0.4,2.6,1.2h0.1c-0.1-0.6-0.1-1.1-0.1-1.5v-3.1h1.8v12h-1.4l-0.3-1.1h-0.1C92.9,214.2,92,214.6,90.9,214.6z M91.4,213.1
				c0.7,0,1.3-0.2,1.6-0.6c0.3-0.4,0.5-1.1,0.5-2v-0.3c0-1.1-0.2-1.8-0.5-2.3s-0.9-0.7-1.6-0.7c-0.6,0-1.1,0.3-1.5,0.8
				c-0.3,0.5-0.5,1.3-0.5,2.2c0,0.9,0.2,1.7,0.5,2.2C90.2,212.9,90.7,213.1,91.4,213.1z"/>
			<path fill="#FFFFFF" d="M108.7,214.6c-1.1,0-1.9-0.4-2.5-1.2H106c0.1,0.7,0.1,1.2,0.1,1.3v3.5h-1.8v-12.3h1.5
				c0,0.2,0.1,0.5,0.3,1.1h0.1c0.6-0.9,1.4-1.3,2.5-1.3c1.1,0,1.9,0.4,2.5,1.2c0.6,0.8,0.9,1.9,0.9,3.2s-0.3,2.5-0.9,3.3
				C110.6,214.2,109.7,214.6,108.7,214.6z M108.2,207.2c-0.7,0-1.2,0.2-1.6,0.6c-0.3,0.4-0.5,1.1-0.5,2v0.3c0,1,0.2,1.8,0.5,2.3
				s0.9,0.7,1.6,0.7c0.6,0,1.1-0.3,1.5-0.8c0.3-0.5,0.5-1.2,0.5-2.2c0-1-0.2-1.7-0.5-2.2C109.4,207.5,108.9,207.2,108.2,207.2z"/>
			<path fill="#FFFFFF" d="M119.1,214.6c-1.3,0-2.4-0.4-3.1-1.2c-0.7-0.8-1.1-1.8-1.1-3.2c0-1.4,0.3-2.5,1-3.3
				c0.7-0.8,1.6-1.2,2.9-1.2c1.1,0,2,0.3,2.7,1c0.7,0.7,1,1.6,1,2.8v1h-5.7c0,0.8,0.2,1.5,0.7,1.9c0.4,0.4,1,0.7,1.8,0.7
				c0.5,0,1,0,1.4-0.1s0.9-0.3,1.4-0.5v1.5c-0.4,0.2-0.9,0.4-1.3,0.4S119.7,214.6,119.1,214.6z M118.8,207.1c-0.6,0-1,0.2-1.4,0.5
				c-0.3,0.4-0.6,0.9-0.6,1.6h3.9c0-0.7-0.2-1.2-0.5-1.6C119.8,207.3,119.3,207.1,118.8,207.1z"/>
			<path fill="#FFFFFF" d="M133.2,210.1c0,1.4-0.4,2.5-1.1,3.3s-1.7,1.2-3,1.2c-0.8,0-1.5-0.2-2.1-0.5c-0.6-0.4-1.1-0.9-1.4-1.6
				s-0.5-1.5-0.5-2.3c0-1.4,0.4-2.5,1.1-3.2c0.7-0.8,1.7-1.2,3-1.2c1.2,0,2.2,0.4,2.9,1.2S133.2,208.8,133.2,210.1z M127,210.1
				c0,2,0.7,3,2.2,3c1.4,0,2.2-1,2.2-3c0-1.9-0.7-2.9-2.2-2.9c-0.8,0-1.3,0.3-1.7,0.8C127.2,208.5,127,209.2,127,210.1z"/>
			<path fill="#FFFFFF" d="M140.8,214.6c-1.1,0-1.9-0.4-2.5-1.2h-0.1c0.1,0.7,0.1,1.2,0.1,1.3v3.5h-1.8v-12.3h1.5
				c0,0.2,0.1,0.5,0.3,1.1h0.1c0.6-0.9,1.4-1.3,2.5-1.3c1.1,0,1.9,0.4,2.5,1.2c0.6,0.8,0.9,1.9,0.9,3.2s-0.3,2.5-0.9,3.3
				C142.7,214.2,141.9,214.6,140.8,214.6z M140.4,207.2c-0.7,0-1.2,0.2-1.6,0.6c-0.3,0.4-0.5,1.1-0.5,2v0.3c0,1,0.2,1.8,0.5,2.3
				s0.9,0.7,1.6,0.7c0.6,0,1.1-0.3,1.5-0.8c0.3-0.5,0.5-1.2,0.5-2.2c0-1-0.2-1.7-0.5-2.2C141.5,207.5,141,207.2,140.4,207.2z"/>
			<path fill="#FFFFFF" d="M149.3,214.4h-1.8v-12h1.8V214.4z"/>
			<path fill="#FFFFFF" d="M156.8,214.6c-1.3,0-2.4-0.4-3.1-1.2c-0.7-0.8-1.1-1.8-1.1-3.2c0-1.4,0.3-2.5,1-3.3
				c0.7-0.8,1.6-1.2,2.9-1.2c1.1,0,2,0.3,2.7,1c0.7,0.7,1,1.6,1,2.8v1h-5.7c0,0.8,0.2,1.5,0.7,1.9c0.4,0.4,1,0.7,1.8,0.7
				c0.5,0,1,0,1.4-0.1s0.9-0.3,1.4-0.5v1.5c-0.4,0.2-0.9,0.4-1.3,0.4S157.4,214.6,156.8,214.6z M156.5,207.1c-0.6,0-1,0.2-1.4,0.5
				c-0.3,0.4-0.6,0.9-0.6,1.6h3.9c0-0.7-0.2-1.2-0.5-1.6C157.5,207.3,157.1,207.1,156.5,207.1z"/>
			<path fill="#FFFFFF" d="M176.3,210.1c0,1.4-0.4,2.5-1.1,3.3s-1.7,1.2-3,1.2c-0.8,0-1.5-0.2-2.1-0.5c-0.6-0.4-1.1-0.9-1.4-1.6
				s-0.5-1.5-0.5-2.3c0-1.4,0.4-2.5,1.1-3.2c0.7-0.8,1.7-1.2,3-1.2c1.2,0,2.2,0.4,2.9,1.2S176.3,208.8,176.3,210.1z M170,210.1
				c0,2,0.7,3,2.2,3c1.4,0,2.2-1,2.2-3c0-1.9-0.7-2.9-2.2-2.9c-0.8,0-1.3,0.3-1.7,0.8C170.2,208.5,170,209.2,170,210.1z"/>
			<path fill="#FFFFFF" d="M183.8,207.3h-2.1v7.2h-1.8v-7.2h-1.4v-0.8l1.4-0.6v-0.6c0-1,0.2-1.8,0.7-2.2c0.5-0.5,1.2-0.7,2.2-0.7
				c0.6,0,1.3,0.1,1.9,0.3l-0.5,1.4c-0.4-0.1-0.9-0.2-1.3-0.2c-0.4,0-0.7,0.1-0.9,0.4c-0.2,0.3-0.3,0.6-0.3,1.1v0.6h2.1V207.3z"/>
			<path fill="#FFFFFF" d="M196.8,214.4l-3.3-9.4h-0.1c0.1,1.4,0.1,2.7,0.1,3.9v5.5h-1.7v-11.3h2.6l3.1,9h0l3.2-9h2.6v11.3h-1.8
				v-5.6c0-0.6,0-1.3,0-2.2s0.1-1.4,0.1-1.6h-0.1l-3.4,9.4H196.8z"/>
			<path fill="#FFFFFF" d="M211.2,214.6c-1.3,0-2.4-0.4-3.1-1.2c-0.7-0.8-1.1-1.8-1.1-3.2c0-1.4,0.3-2.5,1-3.3
				c0.7-0.8,1.6-1.2,2.9-1.2c1.1,0,2,0.3,2.7,1c0.7,0.7,1,1.6,1,2.8v1h-5.7c0,0.8,0.2,1.5,0.7,1.9c0.4,0.4,1,0.7,1.8,0.7
				c0.5,0,1,0,1.4-0.1s0.9-0.3,1.4-0.5v1.5c-0.4,0.2-0.9,0.4-1.3,0.4S211.8,214.6,211.2,214.6z M210.9,207.1c-0.6,0-1,0.2-1.4,0.5
				c-0.3,0.4-0.6,0.9-0.6,1.6h3.9c0-0.7-0.2-1.2-0.5-1.6C211.9,207.3,211.5,207.1,210.9,207.1z"/>
			<path fill="#FFFFFF" d="M219.6,214.4h-1.8v-12h1.8V214.4z"/>
			<path fill="#FFFFFF" d="M227.7,205.7c1.1,0,1.9,0.4,2.5,1.2c0.6,0.8,0.9,1.9,0.9,3.2c0,1.4-0.3,2.5-0.9,3.3
				c-0.6,0.8-1.4,1.2-2.5,1.2c-1.1,0-1.9-0.4-2.5-1.2h-0.1l-0.3,1h-1.4v-12h1.8v2.9c0,0.2,0,0.5,0,0.9s0,0.7,0,0.8h0.1
				C225.8,206.2,226.6,205.7,227.7,205.7z M227.3,207.2c-0.7,0-1.3,0.2-1.6,0.6c-0.3,0.4-0.5,1.1-0.5,2.2v0.1c0,1,0.2,1.8,0.5,2.3
				s0.9,0.7,1.6,0.7c0.6,0,1.1-0.3,1.5-0.8c0.3-0.5,0.5-1.2,0.5-2.2C229.2,208.2,228.6,207.2,227.3,207.2z"/>
			<path fill="#FFFFFF" d="M242,210.1c0,1.4-0.4,2.5-1.1,3.3s-1.7,1.2-3,1.2c-0.8,0-1.5-0.2-2.1-0.5c-0.6-0.4-1.1-0.9-1.4-1.6
				s-0.5-1.5-0.5-2.3c0-1.4,0.4-2.5,1.1-3.2c0.7-0.8,1.7-1.2,3-1.2c1.2,0,2.2,0.4,2.9,1.2S242,208.8,242,210.1z M235.8,210.1
				c0,2,0.7,3,2.2,3c1.4,0,2.2-1,2.2-3c0-1.9-0.7-2.9-2.2-2.9c-0.8,0-1.3,0.3-1.7,0.8C235.9,208.5,235.8,209.2,235.8,210.1z"/>
			<path fill="#FFFFFF" d="M251.2,214.4l-0.3-1.1h-0.1c-0.3,0.4-0.6,0.7-1.1,0.9c-0.5,0.2-1,0.3-1.6,0.3c-1,0-1.8-0.3-2.3-0.8
				s-0.8-1.3-0.8-2.3v-5.6h1.8v5.3c0,0.7,0.1,1.1,0.4,1.5s0.7,0.5,1.3,0.5c0.8,0,1.3-0.2,1.7-0.7s0.5-1.2,0.5-2.3v-4.3h1.8v8.5
				H251.2z"/>
			<path fill="#FFFFFF" d="M260.8,205.7c0.4,0,0.7,0,0.9,0.1l-0.2,1.7c-0.3-0.1-0.5-0.1-0.8-0.1c-0.7,0-1.3,0.2-1.8,0.7
				c-0.4,0.5-0.7,1.1-0.7,1.8v4.5h-1.8v-8.5h1.4l0.2,1.5h0.1c0.3-0.5,0.7-0.9,1.1-1.2S260.2,205.7,260.8,205.7z"/>
			<path fill="#FFFFFF" d="M271.9,214.4h-1.8v-5.2c0-0.7-0.1-1.1-0.4-1.5c-0.3-0.3-0.7-0.5-1.3-0.5c-0.8,0-1.3,0.2-1.7,0.7
				c-0.4,0.5-0.5,1.2-0.5,2.3v4.3h-1.8v-8.5h1.4l0.3,1.1h0.1c0.3-0.4,0.6-0.7,1.1-0.9c0.5-0.2,1-0.3,1.6-0.3c2,0,3.1,1,3.1,3.1
				V214.4z"/>
			<path fill="#FFFFFF" d="M279.4,214.6c-1.3,0-2.4-0.4-3.1-1.2c-0.7-0.8-1.1-1.8-1.1-3.2c0-1.4,0.3-2.5,1-3.3
				c0.7-0.8,1.6-1.2,2.9-1.2c1.1,0,2,0.3,2.7,1c0.7,0.7,1,1.6,1,2.8v1H277c0,0.8,0.2,1.5,0.7,1.9c0.4,0.4,1,0.7,1.8,0.7
				c0.5,0,1,0,1.4-0.1s0.9-0.3,1.4-0.5v1.5c-0.4,0.2-0.9,0.4-1.3,0.4S280,214.6,279.4,214.6z M279,207.1c-0.6,0-1,0.2-1.4,0.5
				c-0.3,0.4-0.6,0.9-0.6,1.6h3.9c0-0.7-0.2-1.2-0.5-1.6C280.1,207.3,279.6,207.1,279,207.1z"/>
			<path fill="#FFFFFF" d="M294.4,213.1c0.4,0,0.9-0.1,1.3-0.2v1.4c-0.2,0.1-0.5,0.2-0.8,0.2s-0.6,0.1-1,0.1c-1.7,0-2.6-0.9-2.6-2.7
				v-4.6h-1.2v-0.8l1.2-0.7l0.6-1.8h1.1v1.9h2.4v1.4h-2.4v4.6c0,0.4,0.1,0.8,0.3,1C293.8,213,294.1,213.1,294.4,213.1z"/>
			<path fill="#FFFFFF" d="M304,214.4l-0.4-1.2h-0.1c-0.4,0.5-0.8,0.9-1.2,1.1c-0.4,0.2-1,0.3-1.6,0.3c-0.8,0-1.5-0.2-2-0.7
				s-0.7-1.1-0.7-1.9c0-0.9,0.3-1.5,1-2s1.6-0.7,3-0.7l1.5,0v-0.5c0-0.5-0.1-1-0.4-1.2c-0.3-0.3-0.6-0.4-1.2-0.4
				c-0.4,0-0.9,0.1-1.3,0.2c-0.4,0.1-0.8,0.3-1.2,0.5l-0.6-1.3c0.5-0.2,1-0.4,1.5-0.6c0.5-0.1,1.1-0.2,1.6-0.2
				c1.1,0,1.9,0.2,2.5,0.7s0.8,1.2,0.8,2.2v5.7H304z M301.3,213.2c0.7,0,1.2-0.2,1.6-0.6s0.6-0.9,0.6-1.5v-0.7l-1.1,0
				c-0.9,0-1.5,0.2-1.9,0.4c-0.4,0.3-0.6,0.6-0.6,1.2c0,0.4,0.1,0.7,0.3,0.9C300.5,213.1,300.8,213.2,301.3,213.2z"/>
			<path fill="#FFFFFF" d="M310.7,209.9l1-1.3l2.6-2.7h2.1l-3.4,3.7l3.6,4.9h-2.1l-2.7-3.7l-1,0.8v2.9H309v-12h1.8v5.9L310.7,209.9
				L310.7,209.9z"/>
			<path fill="#FFFFFF" d="M322.9,214.6c-1.3,0-2.4-0.4-3.1-1.2c-0.7-0.8-1.1-1.8-1.1-3.2c0-1.4,0.3-2.5,1-3.3
				c0.7-0.8,1.6-1.2,2.9-1.2c1.1,0,2,0.3,2.7,1c0.7,0.7,1,1.6,1,2.8v1h-5.7c0,0.8,0.2,1.5,0.7,1.9c0.4,0.4,1,0.7,1.8,0.7
				c0.5,0,1,0,1.4-0.1s0.9-0.3,1.4-0.5v1.5c-0.4,0.2-0.9,0.4-1.3,0.4S323.5,214.6,322.9,214.6z M322.6,207.1c-0.6,0-1,0.2-1.4,0.5
				c-0.3,0.4-0.6,0.9-0.6,1.6h3.9c0-0.7-0.2-1.2-0.5-1.6C323.6,207.3,323.2,207.1,322.6,207.1z"/>
			<path fill="#FFFFFF" d="M22.9,233.5c-1.3,0-2.3-0.4-2.9-1.1c-0.7-0.8-1-1.8-1-3.2c0-1.4,0.4-2.5,1.1-3.3s1.7-1.2,3-1.2
				c0.9,0,1.7,0.2,2.4,0.5l-0.5,1.5c-0.8-0.3-1.4-0.4-1.9-0.4c-1.5,0-2.2,1-2.2,2.9c0,1,0.2,1.7,0.6,2.2c0.4,0.5,0.9,0.7,1.6,0.7
				c0.8,0,1.6-0.2,2.3-0.6v1.6c-0.3,0.2-0.7,0.3-1,0.4C23.9,233.5,23.4,233.5,22.9,233.5z"/>
			<path fill="#FFFFFF" d="M36,229.1c0,1.4-0.4,2.5-1.1,3.3s-1.7,1.2-3,1.2c-0.8,0-1.5-0.2-2.1-0.5c-0.6-0.4-1.1-0.9-1.4-1.6
				S28,230,28,229.1c0-1.4,0.4-2.5,1.1-3.2c0.7-0.8,1.7-1.2,3-1.2c1.2,0,2.2,0.4,2.9,1.2S36,227.7,36,229.1z M29.8,229.1
				c0,2,0.7,3,2.2,3c1.4,0,2.2-1,2.2-3c0-1.9-0.7-2.9-2.2-2.9c-0.8,0-1.3,0.3-1.7,0.8C30,227.4,29.8,228.2,29.8,229.1z"/>
			<path fill="#FFFFFF" d="M43.6,226.2h-2.1v7.2h-1.8v-7.2h-1.4v-0.8l1.4-0.6v-0.6c0-1,0.2-1.8,0.7-2.2c0.5-0.5,1.2-0.7,2.2-0.7
				c0.6,0,1.3,0.1,1.9,0.3L44,223c-0.4-0.1-0.9-0.2-1.3-0.2c-0.4,0-0.7,0.1-0.9,0.4c-0.2,0.3-0.3,0.6-0.3,1.1v0.6h2.1V226.2z
				 M49.3,226.2h-2.1v7.2h-1.8v-7.2H44v-0.8l1.4-0.6v-0.6c0-1,0.2-1.8,0.7-2.2c0.5-0.5,1.2-0.7,2.2-0.7c0.6,0,1.3,0.1,1.9,0.3
				l-0.5,1.4c-0.4-0.1-0.9-0.2-1.3-0.2c-0.4,0-0.7,0.1-0.9,0.4c-0.2,0.3-0.3,0.6-0.3,1.1v0.6h2.1V226.2z"/>
			<path fill="#FFFFFF" d="M55.7,233.5c-1.3,0-2.4-0.4-3.1-1.2c-0.7-0.8-1.1-1.8-1.1-3.2c0-1.4,0.3-2.5,1-3.3
				c0.7-0.8,1.6-1.2,2.9-1.2c1.1,0,2,0.3,2.7,1c0.7,0.7,1,1.6,1,2.8v1h-5.7c0,0.8,0.2,1.5,0.7,1.9c0.4,0.4,1,0.7,1.8,0.7
				c0.5,0,1,0,1.4-0.1s0.9-0.3,1.4-0.5v1.5c-0.4,0.2-0.9,0.4-1.3,0.4S56.3,233.5,55.7,233.5z M55.4,226.1c-0.6,0-1,0.2-1.4,0.5
				c-0.3,0.4-0.6,0.9-0.6,1.6h3.9c0-0.7-0.2-1.2-0.5-1.6C56.4,226.2,55.9,226.1,55.4,226.1z"/>
			<path fill="#FFFFFF" d="M66,233.5c-1.3,0-2.4-0.4-3.1-1.2c-0.7-0.8-1.1-1.8-1.1-3.2c0-1.4,0.3-2.5,1-3.3c0.7-0.8,1.6-1.2,2.9-1.2
				c1.1,0,2,0.3,2.7,1c0.7,0.7,1,1.6,1,2.8v1h-5.7c0,0.8,0.2,1.5,0.7,1.9c0.4,0.4,1,0.7,1.8,0.7c0.5,0,1,0,1.4-0.1s0.9-0.3,1.4-0.5
				v1.5c-0.4,0.2-0.9,0.4-1.3,0.4S66.6,233.5,66,233.5z M65.7,226.1c-0.6,0-1,0.2-1.4,0.5c-0.3,0.4-0.6,0.9-0.6,1.6h3.9
				c0-0.7-0.2-1.2-0.5-1.6C66.7,226.2,66.2,226.1,65.7,226.1z"/>
			<path fill="#FFFFFF" d="M79.8,233.4l-3.2-8.5h1.9l1.7,5c0.3,0.8,0.5,1.5,0.5,2h0.1c0-0.4,0.2-1,0.5-2l1.7-5H85l-3.3,8.5H79.8z"/>
			<path fill="#FFFFFF" d="M91.2,233.5c-1.3,0-2.4-0.4-3.1-1.2c-0.7-0.8-1.1-1.8-1.1-3.2c0-1.4,0.3-2.5,1-3.3
				c0.7-0.8,1.6-1.2,2.9-1.2c1.1,0,2,0.3,2.7,1c0.7,0.7,1,1.6,1,2.8v1h-5.7c0,0.8,0.2,1.5,0.7,1.9c0.4,0.4,1,0.7,1.8,0.7
				c0.5,0,1,0,1.4-0.1s0.9-0.3,1.4-0.5v1.5c-0.4,0.2-0.9,0.4-1.3,0.4S91.8,233.5,91.2,233.5z M90.9,226.1c-0.6,0-1,0.2-1.4,0.5
				c-0.3,0.4-0.6,0.9-0.6,1.6h3.9c0-0.7-0.2-1.2-0.5-1.6C91.9,226.2,91.4,226.1,90.9,226.1z"/>
			<path fill="#FFFFFF" d="M102.1,224.7c0.4,0,0.7,0,0.9,0.1l-0.2,1.7c-0.3-0.1-0.5-0.1-0.8-0.1c-0.7,0-1.3,0.2-1.8,0.7
				c-0.4,0.5-0.7,1.1-0.7,1.8v4.5h-1.8v-8.5h1.4l0.2,1.5h0.1c0.3-0.5,0.7-0.9,1.1-1.2S101.6,224.7,102.1,224.7z"/>
			<path fill="#FFFFFF" d="M104.5,224.8h2l1.7,4.8c0.3,0.7,0.4,1.3,0.5,1.9h0.1c0-0.3,0.1-0.6,0.3-1c0.1-0.4,0.8-2.3,2-5.8h2
				l-3.6,9.7c-0.7,1.8-1.8,2.7-3.3,2.7c-0.4,0-0.8,0-1.2-0.1v-1.4c0.3,0.1,0.6,0.1,0.9,0.1c0.9,0,1.5-0.5,1.8-1.5l0.3-0.8
				L104.5,224.8z"/>
			<path fill="#FFFFFF" d="M126.4,230.9c0,0.8-0.3,1.5-0.9,1.9c-0.6,0.4-1.5,0.7-2.6,0.7c-1.1,0-2-0.2-2.7-0.5v-1.6
				c1,0.5,1.9,0.7,2.8,0.7c1.1,0,1.7-0.3,1.7-1c0-0.2-0.1-0.4-0.2-0.5c-0.1-0.1-0.3-0.3-0.6-0.4c-0.3-0.2-0.7-0.3-1.2-0.5
				c-1-0.4-1.6-0.8-2-1.1c-0.3-0.4-0.5-0.9-0.5-1.5c0-0.7,0.3-1.3,0.9-1.7c0.6-0.4,1.4-0.6,2.4-0.6c1,0,2,0.2,2.8,0.6l-0.6,1.4
				c-0.9-0.4-1.7-0.6-2.3-0.6c-1,0-1.4,0.3-1.4,0.8c0,0.3,0.1,0.5,0.4,0.7c0.2,0.2,0.8,0.4,1.6,0.8c0.7,0.3,1.2,0.5,1.5,0.7
				c0.3,0.2,0.6,0.5,0.7,0.8C126.4,230.2,126.4,230.5,126.4,230.9z"/>
			<path fill="#FFFFFF" d="M133.3,233.5c-1.3,0-2.4-0.4-3.1-1.2c-0.7-0.8-1.1-1.8-1.1-3.2c0-1.4,0.3-2.5,1-3.3
				c0.7-0.8,1.6-1.2,2.9-1.2c1.1,0,2,0.3,2.7,1c0.7,0.7,1,1.6,1,2.8v1h-5.7c0,0.8,0.2,1.5,0.7,1.9c0.4,0.4,1,0.7,1.8,0.7
				c0.5,0,1,0,1.4-0.1s0.9-0.3,1.4-0.5v1.5c-0.4,0.2-0.9,0.4-1.3,0.4S133.9,233.5,133.3,233.5z M133,226.1c-0.6,0-1,0.2-1.4,0.5
				c-0.3,0.4-0.6,0.9-0.6,1.6h3.9c0-0.7-0.2-1.2-0.5-1.6C134,226.2,133.5,226.1,133,226.1z"/>
			<path fill="#FFFFFF" d="M144.2,224.7c0.4,0,0.7,0,0.9,0.1l-0.2,1.7c-0.3-0.1-0.5-0.1-0.8-0.1c-0.7,0-1.3,0.2-1.8,0.7
				c-0.4,0.5-0.7,1.1-0.7,1.8v4.5h-1.8v-8.5h1.4l0.2,1.5h0.1c0.3-0.5,0.7-0.9,1.1-1.2S143.7,224.7,144.2,224.7z"/>
			<path fill="#FFFFFF" d="M147.7,222.6c0-0.3,0.1-0.6,0.3-0.7s0.4-0.3,0.8-0.3c0.3,0,0.6,0.1,0.7,0.3c0.2,0.2,0.3,0.4,0.3,0.7
				c0,0.3-0.1,0.6-0.3,0.7c-0.2,0.2-0.4,0.3-0.7,0.3c-0.3,0-0.6-0.1-0.8-0.3C147.8,223.1,147.7,222.9,147.7,222.6z M149.7,233.4
				h-1.8v-8.5h1.8V233.4z"/>
			<path fill="#FFFFFF" d="M161,229.1c0,1.4-0.4,2.5-1.1,3.3s-1.7,1.2-3,1.2c-0.8,0-1.5-0.2-2.1-0.5c-0.6-0.4-1.1-0.9-1.4-1.6
				s-0.5-1.5-0.5-2.3c0-1.4,0.4-2.5,1.1-3.2c0.7-0.8,1.7-1.2,3-1.2c1.2,0,2.2,0.4,2.9,1.2S161,227.7,161,229.1z M154.8,229.1
				c0,2,0.7,3,2.2,3c1.4,0,2.2-1,2.2-3c0-1.9-0.7-2.9-2.2-2.9c-0.8,0-1.3,0.3-1.7,0.8C155,227.4,154.8,228.2,154.8,229.1z"/>
			<path fill="#FFFFFF" d="M170.3,233.4l-0.3-1.1H170c-0.3,0.4-0.6,0.7-1.1,0.9c-0.5,0.2-1,0.3-1.6,0.3c-1,0-1.8-0.3-2.3-0.8
				s-0.8-1.3-0.8-2.3v-5.6h1.8v5.3c0,0.7,0.1,1.1,0.4,1.5s0.7,0.5,1.3,0.5c0.8,0,1.3-0.2,1.7-0.7s0.5-1.2,0.5-2.3v-4.3h1.8v8.5
				H170.3z"/>
			<path fill="#FFFFFF" d="M181.2,230.9c0,0.8-0.3,1.5-0.9,1.9c-0.6,0.4-1.5,0.7-2.6,0.7c-1.1,0-2-0.2-2.7-0.5v-1.6
				c1,0.5,1.9,0.7,2.8,0.7c1.1,0,1.7-0.3,1.7-1c0-0.2-0.1-0.4-0.2-0.5c-0.1-0.1-0.3-0.3-0.6-0.4c-0.3-0.2-0.7-0.3-1.2-0.5
				c-1-0.4-1.6-0.8-2-1.1c-0.3-0.4-0.5-0.9-0.5-1.5c0-0.7,0.3-1.3,0.9-1.7c0.6-0.4,1.4-0.6,2.4-0.6c1,0,2,0.2,2.8,0.6l-0.6,1.4
				c-0.9-0.4-1.7-0.6-2.3-0.6c-1,0-1.4,0.3-1.4,0.8c0,0.3,0.1,0.5,0.4,0.7c0.2,0.2,0.8,0.4,1.6,0.8c0.7,0.3,1.2,0.5,1.5,0.7
				c0.3,0.2,0.6,0.5,0.7,0.8C181.2,230.2,181.2,230.5,181.2,230.9z"/>
			<path fill="#FFFFFF" d="M186.2,233.4h-1.8v-12h1.8V233.4z"/>
			<path fill="#FFFFFF" d="M188.7,224.8h2l1.7,4.8c0.3,0.7,0.4,1.3,0.5,1.9h0.1c0-0.3,0.1-0.6,0.3-1c0.1-0.4,0.8-2.3,2-5.8h2
				l-3.6,9.7c-0.7,1.8-1.8,2.7-3.3,2.7c-0.4,0-0.8,0-1.2-0.1v-1.4c0.3,0.1,0.6,0.1,0.9,0.1c0.9,0,1.5-0.5,1.8-1.5l0.3-0.8
				L188.7,224.8z"/>
			<path fill="#FFFFFF" d="M201.5,231.7c-0.2,1-0.7,2.2-1.4,3.7h-1.3c0.4-1.4,0.6-2.7,0.8-3.9h1.8L201.5,231.7z"/>
			<path fill="#FFFFFF" d="M215.6,233.4l-0.4-1.2h-0.1c-0.4,0.5-0.8,0.9-1.2,1.1c-0.4,0.2-1,0.3-1.6,0.3c-0.8,0-1.5-0.2-2-0.7
				s-0.7-1.1-0.7-1.9c0-0.9,0.3-1.5,1-2s1.6-0.7,3-0.7l1.5,0v-0.5c0-0.5-0.1-1-0.4-1.2c-0.3-0.3-0.6-0.4-1.2-0.4
				c-0.4,0-0.9,0.1-1.3,0.2c-0.4,0.1-0.8,0.3-1.2,0.5l-0.6-1.3c0.5-0.2,1-0.4,1.5-0.6c0.5-0.1,1.1-0.2,1.6-0.2
				c1.1,0,1.9,0.2,2.5,0.7s0.8,1.2,0.8,2.2v5.7H215.6z M212.9,232.1c0.7,0,1.2-0.2,1.6-0.6s0.6-0.9,0.6-1.5v-0.7l-1.1,0
				c-0.9,0-1.5,0.2-1.9,0.4c-0.4,0.3-0.6,0.6-0.6,1.2c0,0.4,0.1,0.7,0.3,0.9C212.2,232,212.5,232.1,212.9,232.1z"/>
			<path fill="#FFFFFF" d="M228.2,233.4h-1.8v-5.2c0-0.7-0.1-1.1-0.4-1.5c-0.3-0.3-0.7-0.5-1.3-0.5c-0.8,0-1.3,0.2-1.7,0.7
				c-0.4,0.5-0.5,1.2-0.5,2.3v4.3h-1.8v-8.5h1.4l0.3,1.1h0.1c0.3-0.4,0.6-0.7,1.1-0.9c0.5-0.2,1-0.3,1.6-0.3c2,0,3.1,1,3.1,3.1
				V233.4z"/>
			<path fill="#FFFFFF" d="M234.7,233.5c-1.1,0-1.9-0.4-2.5-1.2s-0.9-1.9-0.9-3.2c0-1.4,0.3-2.5,0.9-3.3c0.6-0.8,1.4-1.2,2.5-1.2
				c1.1,0,2,0.4,2.6,1.2h0.1c-0.1-0.6-0.1-1.1-0.1-1.5v-3.1h1.8v12h-1.4l-0.3-1.1h-0.1C236.7,233.1,235.9,233.5,234.7,233.5z
				 M235.2,232.1c0.7,0,1.3-0.2,1.6-0.6c0.3-0.4,0.5-1.1,0.5-2v-0.3c0-1.1-0.2-1.8-0.5-2.3s-0.9-0.7-1.6-0.7c-0.6,0-1.1,0.3-1.5,0.8
				c-0.3,0.5-0.5,1.3-0.5,2.2c0,0.9,0.2,1.7,0.5,2.2C234.1,231.8,234.6,232.1,235.2,232.1z"/>
			<path fill="#FFFFFF" d="M250.2,233.4h-1.8v-11.3h6.4v1.6h-4.5v3.5h4.2v1.6h-4.2V233.4z"/>
			<path fill="#FFFFFF" d="M259.8,228.9v4.5H258v-11.3h3.2c1.5,0,2.5,0.3,3.2,0.8c0.7,0.5,1,1.4,1,2.5c0,1.4-0.7,2.4-2.2,3l3.2,5
				h-2.1l-2.7-4.5H259.8z M259.8,227.3h1.3c0.9,0,1.5-0.2,1.9-0.5c0.4-0.3,0.6-0.8,0.6-1.4c0-0.6-0.2-1.1-0.6-1.4
				c-0.4-0.3-1-0.4-1.9-0.4h-1.2V227.3z"/>
			<path fill="#FFFFFF" d="M275.6,233.4h-6.4v-11.3h6.4v1.6h-4.5v3.1h4.3v1.5h-4.3v3.5h4.5V233.4z"/>
			<path fill="#FFFFFF" d="M285.6,233.4h-6.4v-11.3h6.4v1.6h-4.5v3.1h4.3v1.5h-4.3v3.5h4.5V233.4z"/>
			<path fill="#FFFFFF" d="M301.4,233.4l-1.1-4c-0.1-0.4-0.4-1.4-0.7-2.9h-0.1c-0.3,1.4-0.5,2.4-0.7,3l-1.1,4h-2l-2.4-8.5h1.9
				l1.1,4.2c0.2,1,0.4,1.9,0.5,2.7h0c0.1-0.4,0.1-0.8,0.2-1.3s0.2-0.8,0.3-1.1l1.3-4.5h2l1.3,4.5c0.1,0.3,0.2,0.6,0.3,1.2
				c0.1,0.5,0.2,0.9,0.2,1.2h0.1c0.1-0.6,0.3-1.5,0.5-2.7l1.1-4.2h1.8l-2.4,8.5H301.4z"/>
			<path fill="#FFFFFF" d="M308.3,222.6c0-0.3,0.1-0.6,0.3-0.7s0.4-0.3,0.8-0.3c0.3,0,0.6,0.1,0.7,0.3c0.2,0.2,0.3,0.4,0.3,0.7
				c0,0.3-0.1,0.6-0.3,0.7c-0.2,0.2-0.4,0.3-0.7,0.3c-0.3,0-0.6-0.1-0.8-0.3C308.4,223.1,308.3,222.9,308.3,222.6z M310.3,233.4
				h-1.8v-8.5h1.8V233.4z"/>
			<path fill="#FFFFFF" d="M318.3,226.2h-2.1v7.2h-1.8v-7.2H313v-0.8l1.4-0.6v-0.6c0-1,0.2-1.8,0.7-2.2c0.5-0.5,1.2-0.7,2.2-0.7
				c0.6,0,1.3,0.1,1.9,0.3l-0.5,1.4c-0.4-0.1-0.9-0.2-1.3-0.2c-0.4,0-0.7,0.1-0.9,0.4c-0.2,0.3-0.3,0.6-0.3,1.1v0.6h2.1V226.2z
				 M319.7,222.6c0-0.3,0.1-0.6,0.3-0.7s0.4-0.3,0.8-0.3c0.3,0,0.6,0.1,0.7,0.3c0.2,0.2,0.3,0.4,0.3,0.7c0,0.3-0.1,0.6-0.3,0.7
				c-0.2,0.2-0.4,0.3-0.7,0.3c-0.3,0-0.6-0.1-0.8-0.3C319.7,223.1,319.7,222.9,319.7,222.6z M321.6,233.4h-1.8v-8.5h1.8V233.4z"/>
			<path fill="#FFFFFF" d="M22.9,252.5c-1.3,0-2.3-0.4-2.9-1.1c-0.7-0.8-1-1.8-1-3.2c0-1.4,0.4-2.5,1.1-3.3s1.7-1.2,3-1.2
				c0.9,0,1.7,0.2,2.4,0.5l-0.5,1.5c-0.8-0.3-1.4-0.4-1.9-0.4c-1.5,0-2.2,1-2.2,2.9c0,1,0.2,1.7,0.6,2.2c0.4,0.5,0.9,0.7,1.6,0.7
				c0.8,0,1.6-0.2,2.3-0.6v1.6c-0.3,0.2-0.7,0.3-1,0.4C23.9,252.4,23.4,252.5,22.9,252.5z"/>
			<path fill="#FFFFFF" d="M36,248.1c0,1.4-0.4,2.5-1.1,3.3s-1.7,1.2-3,1.2c-0.8,0-1.5-0.2-2.1-0.5c-0.6-0.4-1.1-0.9-1.4-1.6
				s-0.5-1.5-0.5-2.3c0-1.4,0.4-2.5,1.1-3.2c0.7-0.8,1.7-1.2,3-1.2c1.2,0,2.2,0.4,2.9,1.2S36,246.7,36,248.1z M29.8,248.1
				c0,2,0.7,3,2.2,3c1.4,0,2.2-1,2.2-3c0-1.9-0.7-2.9-2.2-2.9c-0.8,0-1.3,0.3-1.7,0.8C30,246.4,29.8,247.1,29.8,248.1z"/>
			<path fill="#FFFFFF" d="M46.5,252.3h-1.8v-5.3c0-0.7-0.1-1.1-0.4-1.5c-0.2-0.3-0.6-0.5-1.2-0.5c-0.7,0-1.2,0.2-1.5,0.7
				c-0.3,0.5-0.5,1.2-0.5,2.3v4.3h-1.8v-8.5h1.4l0.3,1.1h0.1c0.2-0.4,0.6-0.7,1-0.9c0.5-0.2,0.9-0.3,1.5-0.3c1.3,0,2.2,0.4,2.6,1.3
				h0.1c0.3-0.4,0.6-0.8,1.1-1c0.5-0.2,1-0.4,1.6-0.4c1,0,1.8,0.3,2.2,0.8c0.5,0.5,0.7,1.3,0.7,2.4v5.6h-1.8v-5.3
				c0-0.7-0.1-1.1-0.4-1.5c-0.2-0.3-0.6-0.5-1.2-0.5c-0.7,0-1.2,0.2-1.5,0.7c-0.3,0.4-0.5,1.1-0.5,2V252.3z"/>
			<path fill="#FFFFFF" d="M59.9,252.5c-1.1,0-1.9-0.4-2.5-1.2h-0.1c0.1,0.7,0.1,1.2,0.1,1.3v3.5h-1.8v-12.3h1.5
				c0,0.2,0.1,0.5,0.3,1.1h0.1c0.6-0.9,1.4-1.3,2.5-1.3c1.1,0,1.9,0.4,2.5,1.2c0.6,0.8,0.9,1.9,0.9,3.2s-0.3,2.5-0.9,3.3
				C61.8,252.1,61,252.5,59.9,252.5z M59.5,245.1c-0.7,0-1.2,0.2-1.6,0.6c-0.3,0.4-0.5,1.1-0.5,2v0.3c0,1,0.2,1.8,0.5,2.3
				s0.9,0.7,1.6,0.7c0.6,0,1.1-0.3,1.5-0.8c0.3-0.5,0.5-1.2,0.5-2.2c0-1-0.2-1.7-0.5-2.2C60.6,245.4,60.1,245.1,59.5,245.1z"/>
			<path fill="#FFFFFF" d="M68.4,252.3h-1.8v-12h1.8V252.3z"/>
			<path fill="#FFFFFF" d="M75.9,252.5c-1.3,0-2.4-0.4-3.1-1.2c-0.7-0.8-1.1-1.8-1.1-3.2c0-1.4,0.3-2.5,1-3.3
				c0.7-0.8,1.6-1.2,2.9-1.2c1.1,0,2,0.3,2.7,1c0.7,0.7,1,1.6,1,2.8v1h-5.7c0,0.8,0.2,1.5,0.7,1.9c0.4,0.4,1,0.7,1.8,0.7
				c0.5,0,1,0,1.4-0.1s0.9-0.3,1.4-0.5v1.5c-0.4,0.2-0.9,0.4-1.3,0.4S76.5,252.5,75.9,252.5z M75.6,245c-0.6,0-1,0.2-1.4,0.5
				c-0.3,0.4-0.6,0.9-0.6,1.6h3.9c0-0.7-0.2-1.2-0.5-1.6C76.6,245.2,76.2,245,75.6,245z"/>
			<path fill="#FFFFFF" d="M85.7,251c0.4,0,0.9-0.1,1.3-0.2v1.4c-0.2,0.1-0.5,0.2-0.8,0.2s-0.6,0.1-1,0.1c-1.7,0-2.6-0.9-2.6-2.7
				v-4.6h-1.2v-0.8l1.2-0.7l0.6-1.8h1.1v1.9h2.4v1.4h-2.4v4.6c0,0.4,0.1,0.8,0.3,1C85,250.9,85.3,251,85.7,251z"/>
			<path fill="#FFFFFF" d="M93.6,252.5c-1.3,0-2.4-0.4-3.1-1.2c-0.7-0.8-1.1-1.8-1.1-3.2c0-1.4,0.3-2.5,1-3.3
				c0.7-0.8,1.6-1.2,2.9-1.2c1.1,0,2,0.3,2.7,1c0.7,0.7,1,1.6,1,2.8v1h-5.7c0,0.8,0.2,1.5,0.7,1.9c0.4,0.4,1,0.7,1.8,0.7
				c0.5,0,1,0,1.4-0.1s0.9-0.3,1.4-0.5v1.5c-0.4,0.2-0.9,0.4-1.3,0.4S94.2,252.5,93.6,252.5z M93.3,245c-0.6,0-1,0.2-1.4,0.5
				c-0.3,0.4-0.6,0.9-0.6,1.6h3.9c0-0.7-0.2-1.2-0.5-1.6C94.3,245.2,93.9,245,93.3,245z"/>
			<path fill="#FFFFFF" d="M105.9,249.9c0,0.8-0.3,1.5-0.9,1.9c-0.6,0.4-1.5,0.7-2.6,0.7c-1.1,0-2-0.2-2.7-0.5v-1.6
				c1,0.5,1.9,0.7,2.8,0.7c1.1,0,1.7-0.3,1.7-1c0-0.2-0.1-0.4-0.2-0.5c-0.1-0.1-0.3-0.3-0.6-0.4c-0.3-0.2-0.7-0.3-1.2-0.5
				c-1-0.4-1.6-0.8-2-1.1c-0.3-0.4-0.5-0.9-0.5-1.5c0-0.7,0.3-1.3,0.9-1.7c0.6-0.4,1.4-0.6,2.4-0.6c1,0,2,0.2,2.8,0.6l-0.6,1.4
				c-0.9-0.4-1.7-0.6-2.3-0.6c-1,0-1.4,0.3-1.4,0.8c0,0.3,0.1,0.5,0.4,0.7c0.2,0.2,0.8,0.4,1.6,0.8c0.7,0.3,1.2,0.5,1.5,0.7
				c0.3,0.2,0.6,0.5,0.7,0.8C105.8,249.1,105.9,249.5,105.9,249.9z"/>
			<path fill="#FFFFFF" d="M119.7,252.3l-0.4-1.2h-0.1c-0.4,0.5-0.8,0.9-1.2,1.1c-0.4,0.2-1,0.3-1.6,0.3c-0.8,0-1.5-0.2-2-0.7
				s-0.7-1.1-0.7-1.9c0-0.9,0.3-1.5,1-2s1.6-0.7,3-0.7l1.5,0v-0.5c0-0.5-0.1-1-0.4-1.2c-0.3-0.3-0.6-0.4-1.2-0.4
				c-0.4,0-0.9,0.1-1.3,0.2c-0.4,0.1-0.8,0.3-1.2,0.5l-0.6-1.3c0.5-0.2,1-0.4,1.5-0.6c0.5-0.1,1.1-0.2,1.6-0.2
				c1.1,0,1.9,0.2,2.5,0.7s0.8,1.2,0.8,2.2v5.7H119.7z M117,251.1c0.7,0,1.2-0.2,1.6-0.6s0.6-0.9,0.6-1.5v-0.7l-1.1,0
				c-0.9,0-1.5,0.2-1.9,0.4c-0.4,0.3-0.6,0.6-0.6,1.2c0,0.4,0.1,0.7,0.3,0.9C116.2,251,116.5,251.1,117,251.1z"/>
			<path fill="#FFFFFF" d="M132.2,252.3h-1.8v-5.2c0-0.7-0.1-1.1-0.4-1.5c-0.3-0.3-0.7-0.5-1.3-0.5c-0.8,0-1.3,0.2-1.7,0.7
				c-0.4,0.5-0.5,1.2-0.5,2.3v4.3h-1.8v-8.5h1.4l0.3,1.1h0.1c0.3-0.4,0.6-0.7,1.1-0.9c0.5-0.2,1-0.3,1.6-0.3c2,0,3.1,1,3.1,3.1
				V252.3z"/>
			<path fill="#FFFFFF" d="M134.6,243.8h2l1.7,4.8c0.3,0.7,0.4,1.3,0.5,1.9h0.1c0-0.3,0.1-0.6,0.3-1c0.1-0.4,0.8-2.3,2-5.8h2
				l-3.6,9.7c-0.7,1.8-1.8,2.7-3.3,2.7c-0.4,0-0.8,0-1.2-0.1v-1.4c0.3,0.1,0.6,0.1,0.9,0.1c0.9,0,1.5-0.5,1.8-1.5l0.3-0.8
				L134.6,243.8z"/>
			<path fill="#FFFFFF" d="M154.3,252.5c-1.3,0-2.3-0.4-2.9-1.1c-0.7-0.8-1-1.8-1-3.2c0-1.4,0.4-2.5,1.1-3.3s1.7-1.2,3-1.2
				c0.9,0,1.7,0.2,2.4,0.5l-0.5,1.5c-0.8-0.3-1.4-0.4-1.9-0.4c-1.5,0-2.2,1-2.2,2.9c0,1,0.2,1.7,0.6,2.2c0.4,0.5,0.9,0.7,1.6,0.7
				c0.8,0,1.6-0.2,2.3-0.6v1.6c-0.3,0.2-0.7,0.3-1,0.4C155.3,252.4,154.8,252.5,154.3,252.5z"/>
			<path fill="#FFFFFF" d="M167.4,248.1c0,1.4-0.4,2.5-1.1,3.3s-1.7,1.2-3,1.2c-0.8,0-1.5-0.2-2.1-0.5c-0.6-0.4-1.1-0.9-1.4-1.6
				s-0.5-1.5-0.5-2.3c0-1.4,0.4-2.5,1.1-3.2c0.7-0.8,1.7-1.2,3-1.2c1.2,0,2.2,0.4,2.9,1.2S167.4,246.7,167.4,248.1z M161.2,248.1
				c0,2,0.7,3,2.2,3c1.4,0,2.2-1,2.2-3c0-1.9-0.7-2.9-2.2-2.9c-0.8,0-1.3,0.3-1.7,0.8C161.4,246.4,161.2,247.1,161.2,248.1z"/>
			<path fill="#FFFFFF" d="M175,245.2h-2.1v7.2h-1.8v-7.2h-1.4v-0.8l1.4-0.6v-0.6c0-1,0.2-1.8,0.7-2.2c0.5-0.5,1.2-0.7,2.2-0.7
				c0.6,0,1.3,0.1,1.9,0.3l-0.5,1.4c-0.4-0.1-0.9-0.2-1.3-0.2c-0.4,0-0.7,0.1-0.9,0.4c-0.2,0.3-0.3,0.6-0.3,1.1v0.6h2.1V245.2z
				 M180.7,245.2h-2.1v7.2h-1.8v-7.2h-1.4v-0.8l1.4-0.6v-0.6c0-1,0.2-1.8,0.7-2.2c0.5-0.5,1.2-0.7,2.2-0.7c0.6,0,1.3,0.1,1.9,0.3
				l-0.5,1.4c-0.4-0.1-0.9-0.2-1.3-0.2c-0.4,0-0.7,0.1-0.9,0.4c-0.2,0.3-0.3,0.6-0.3,1.1v0.6h2.1V245.2z"/>
			<path fill="#FFFFFF" d="M187.1,252.5c-1.3,0-2.4-0.4-3.1-1.2c-0.7-0.8-1.1-1.8-1.1-3.2c0-1.4,0.3-2.5,1-3.3
				c0.7-0.8,1.6-1.2,2.9-1.2c1.1,0,2,0.3,2.7,1c0.7,0.7,1,1.6,1,2.8v1h-5.7c0,0.8,0.2,1.5,0.7,1.9c0.4,0.4,1,0.7,1.8,0.7
				c0.5,0,1,0,1.4-0.1s0.9-0.3,1.4-0.5v1.5c-0.4,0.2-0.9,0.4-1.3,0.4S187.7,252.5,187.1,252.5z M186.8,245c-0.6,0-1,0.2-1.4,0.5
				c-0.3,0.4-0.6,0.9-0.6,1.6h3.9c0-0.7-0.2-1.2-0.5-1.6C187.8,245.2,187.3,245,186.8,245z"/>
			<path fill="#FFFFFF" d="M197.4,252.5c-1.3,0-2.4-0.4-3.1-1.2c-0.7-0.8-1.1-1.8-1.1-3.2c0-1.4,0.3-2.5,1-3.3
				c0.7-0.8,1.6-1.2,2.9-1.2c1.1,0,2,0.3,2.7,1c0.7,0.7,1,1.6,1,2.8v1H195c0,0.8,0.2,1.5,0.7,1.9c0.4,0.4,1,0.7,1.8,0.7
				c0.5,0,1,0,1.4-0.1s0.9-0.3,1.4-0.5v1.5c-0.4,0.2-0.9,0.4-1.3,0.4S198,252.5,197.4,252.5z M197,245c-0.6,0-1,0.2-1.4,0.5
				c-0.3,0.4-0.6,0.9-0.6,1.6h3.9c0-0.7-0.2-1.2-0.5-1.6C198.1,245.2,197.6,245,197,245z"/>
			<path fill="#FFFFFF" d="M212.7,252.5c-1.3,0-2.3-0.4-2.9-1.1c-0.7-0.8-1-1.8-1-3.2c0-1.4,0.4-2.5,1.1-3.3s1.7-1.2,3-1.2
				c0.9,0,1.7,0.2,2.4,0.5l-0.5,1.5c-0.8-0.3-1.4-0.4-1.9-0.4c-1.5,0-2.2,1-2.2,2.9c0,1,0.2,1.7,0.6,2.2c0.4,0.5,0.9,0.7,1.6,0.7
				c0.8,0,1.6-0.2,2.3-0.6v1.6c-0.3,0.2-0.7,0.3-1,0.4C213.6,252.4,213.2,252.5,212.7,252.5z"/>
			<path fill="#FFFFFF" d="M225.8,248.1c0,1.4-0.4,2.5-1.1,3.3s-1.7,1.2-3,1.2c-0.8,0-1.5-0.2-2.1-0.5c-0.6-0.4-1.1-0.9-1.4-1.6
				s-0.5-1.5-0.5-2.3c0-1.4,0.4-2.5,1.1-3.2c0.7-0.8,1.7-1.2,3-1.2c1.2,0,2.2,0.4,2.9,1.2S225.8,246.7,225.8,248.1z M219.6,248.1
				c0,2,0.7,3,2.2,3c1.4,0,2.2-1,2.2-3c0-1.9-0.7-2.9-2.2-2.9c-0.8,0-1.3,0.3-1.7,0.8C219.8,246.4,219.6,247.1,219.6,248.1z"/>
			<path fill="#FFFFFF" d="M236.6,252.3h-1.8v-5.2c0-0.7-0.1-1.1-0.4-1.5c-0.3-0.3-0.7-0.5-1.3-0.5c-0.8,0-1.3,0.2-1.7,0.7
				c-0.4,0.5-0.5,1.2-0.5,2.3v4.3h-1.8v-8.5h1.4l0.3,1.1h0.1c0.3-0.4,0.6-0.7,1.1-0.9c0.5-0.2,1-0.3,1.6-0.3c2,0,3.1,1,3.1,3.1
				V252.3z"/>
			<path fill="#FFFFFF" d="M247.8,252.3H246v-5.2c0-0.7-0.1-1.1-0.4-1.5c-0.3-0.3-0.7-0.5-1.3-0.5c-0.8,0-1.3,0.2-1.7,0.7
				c-0.4,0.5-0.5,1.2-0.5,2.3v4.3h-1.8v-8.5h1.4l0.3,1.1h0.1c0.3-0.4,0.6-0.7,1.1-0.9c0.5-0.2,1-0.3,1.6-0.3c2,0,3.1,1,3.1,3.1
				V252.3z"/>
			<path fill="#FFFFFF" d="M259.1,248.1c0,1.4-0.4,2.5-1.1,3.3s-1.7,1.2-3,1.2c-0.8,0-1.5-0.2-2.1-0.5c-0.6-0.4-1.1-0.9-1.4-1.6
				s-0.5-1.5-0.5-2.3c0-1.4,0.4-2.5,1.1-3.2c0.7-0.8,1.7-1.2,3-1.2c1.2,0,2.2,0.4,2.9,1.2S259.1,246.7,259.1,248.1z M252.8,248.1
				c0,2,0.7,3,2.2,3c1.4,0,2.2-1,2.2-3c0-1.9-0.7-2.9-2.2-2.9c-0.8,0-1.3,0.3-1.7,0.8C253,246.4,252.8,247.1,252.8,248.1z"/>
			<path fill="#FFFFFF" d="M262.2,241.5c0-0.3,0.1-0.6,0.3-0.7s0.4-0.3,0.8-0.3c0.3,0,0.6,0.1,0.7,0.3c0.2,0.2,0.3,0.4,0.3,0.7
				c0,0.3-0.1,0.6-0.3,0.7c-0.2,0.2-0.4,0.3-0.7,0.3c-0.3,0-0.6-0.1-0.8-0.3C262.3,242.1,262.2,241.9,262.2,241.5z M264.1,252.3
				h-1.8v-8.5h1.8V252.3z"/>
			<path fill="#FFFFFF" d="M273.6,249.9c0,0.8-0.3,1.5-0.9,1.9c-0.6,0.4-1.5,0.7-2.6,0.7c-1.1,0-2-0.2-2.7-0.5v-1.6
				c1,0.5,1.9,0.7,2.8,0.7c1.1,0,1.7-0.3,1.7-1c0-0.2-0.1-0.4-0.2-0.5c-0.1-0.1-0.3-0.3-0.6-0.4c-0.3-0.2-0.7-0.3-1.2-0.5
				c-1-0.4-1.6-0.8-2-1.1c-0.3-0.4-0.5-0.9-0.5-1.5c0-0.7,0.3-1.3,0.9-1.7c0.6-0.4,1.4-0.6,2.4-0.6c1,0,2,0.2,2.8,0.6l-0.6,1.4
				c-0.9-0.4-1.7-0.6-2.3-0.6c-1,0-1.4,0.3-1.4,0.8c0,0.3,0.1,0.5,0.4,0.7c0.2,0.2,0.8,0.4,1.6,0.8c0.7,0.3,1.2,0.5,1.5,0.7
				c0.3,0.2,0.6,0.5,0.7,0.8C273.6,249.1,273.6,249.5,273.6,249.9z"/>
			<path fill="#FFFFFF" d="M282.5,249.9c0,0.8-0.3,1.5-0.9,1.9c-0.6,0.4-1.5,0.7-2.6,0.7c-1.1,0-2-0.2-2.7-0.5v-1.6
				c1,0.5,1.9,0.7,2.8,0.7c1.1,0,1.7-0.3,1.7-1c0-0.2-0.1-0.4-0.2-0.5c-0.1-0.1-0.3-0.3-0.6-0.4c-0.3-0.2-0.7-0.3-1.2-0.5
				c-1-0.4-1.6-0.8-2-1.1c-0.3-0.4-0.5-0.9-0.5-1.5c0-0.7,0.3-1.3,0.9-1.7c0.6-0.4,1.4-0.6,2.4-0.6c1,0,2,0.2,2.8,0.6l-0.6,1.4
				c-0.9-0.4-1.7-0.6-2.3-0.6c-1,0-1.4,0.3-1.4,0.8c0,0.3,0.1,0.5,0.4,0.7c0.2,0.2,0.8,0.4,1.6,0.8c0.7,0.3,1.2,0.5,1.5,0.7
				c0.3,0.2,0.6,0.5,0.7,0.8C282.4,249.1,282.5,249.5,282.5,249.9z"/>
			<path fill="#FFFFFF" d="M289.4,252.5c-1.3,0-2.4-0.4-3.1-1.2c-0.7-0.8-1.1-1.8-1.1-3.2c0-1.4,0.3-2.5,1-3.3
				c0.7-0.8,1.6-1.2,2.9-1.2c1.1,0,2,0.3,2.7,1c0.7,0.7,1,1.6,1,2.8v1H287c0,0.8,0.2,1.5,0.7,1.9c0.4,0.4,1,0.7,1.8,0.7
				c0.5,0,1,0,1.4-0.1s0.9-0.3,1.4-0.5v1.5c-0.4,0.2-0.9,0.4-1.3,0.4S290,252.5,289.4,252.5z M289.1,245c-0.6,0-1,0.2-1.4,0.5
				c-0.3,0.4-0.6,0.9-0.6,1.6h3.9c0-0.7-0.2-1.2-0.5-1.6C290.1,245.2,289.6,245,289.1,245z"/>
			<path fill="#FFFFFF" d="M302,252.3l-0.3-1.1h-0.1c-0.3,0.4-0.6,0.7-1.1,0.9c-0.5,0.2-1,0.3-1.6,0.3c-1,0-1.8-0.3-2.3-0.8
				s-0.8-1.3-0.8-2.3v-5.6h1.8v5.3c0,0.7,0.1,1.1,0.4,1.5s0.7,0.5,1.3,0.5c0.8,0,1.3-0.2,1.7-0.7s0.5-1.2,0.5-2.3v-4.3h1.8v8.5H302z
				"/>
			<path fill="#FFFFFF" d="M311.5,243.6c0.4,0,0.7,0,0.9,0.1l-0.2,1.7c-0.3-0.1-0.5-0.1-0.8-0.1c-0.7,0-1.3,0.2-1.8,0.7
				c-0.4,0.5-0.7,1.1-0.7,1.8v4.5h-1.8v-8.5h1.4l0.2,1.5h0.1c0.3-0.5,0.7-0.9,1.1-1.2S311,243.6,311.5,243.6z"/>
			<path fill="#FFFFFF" d="M316.7,241.1l-0.3,4.1h-1.2l-0.3-4.1H316.7z"/>
			<path fill="#FFFFFF" d="M325.9,249.9c0,0.8-0.3,1.5-0.9,1.9c-0.6,0.4-1.5,0.7-2.6,0.7c-1.1,0-2-0.2-2.7-0.5v-1.6
				c1,0.5,1.9,0.7,2.8,0.7c1.1,0,1.7-0.3,1.7-1c0-0.2-0.1-0.4-0.2-0.5c-0.1-0.1-0.3-0.3-0.6-0.4c-0.3-0.2-0.7-0.3-1.2-0.5
				c-1-0.4-1.6-0.8-2-1.1c-0.3-0.4-0.5-0.9-0.5-1.5c0-0.7,0.3-1.3,0.9-1.7c0.6-0.4,1.4-0.6,2.4-0.6c1,0,2,0.2,2.8,0.6l-0.6,1.4
				c-0.9-0.4-1.7-0.6-2.3-0.6c-1,0-1.4,0.3-1.4,0.8c0,0.3,0.1,0.5,0.4,0.7c0.2,0.2,0.8,0.4,1.6,0.8c0.7,0.3,1.2,0.5,1.5,0.7
				c0.3,0.2,0.6,0.5,0.7,0.8C325.8,249.1,325.9,249.5,325.9,249.9z"/>
			<path fill="#FFFFFF" d="M23.8,264.1h-2.1v7.2h-1.8v-7.2h-1.4v-0.8l1.4-0.6v-0.6c0-1,0.2-1.8,0.7-2.2c0.5-0.5,1.2-0.7,2.2-0.7
				c0.6,0,1.3,0.1,1.9,0.3l-0.5,1.4c-0.4-0.1-0.9-0.2-1.3-0.2c-0.4,0-0.7,0.1-0.9,0.4c-0.2,0.3-0.3,0.6-0.3,1.1v0.6h2.1V264.1z"/>
			<path fill="#FFFFFF" d="M31.7,271.3l-0.4-1.2h-0.1c-0.4,0.5-0.8,0.9-1.2,1.1c-0.4,0.2-1,0.3-1.6,0.3c-0.8,0-1.5-0.2-2-0.7
				s-0.7-1.1-0.7-1.9c0-0.9,0.3-1.5,1-2s1.6-0.7,3-0.7l1.5,0v-0.5c0-0.5-0.1-1-0.4-1.2c-0.3-0.3-0.6-0.4-1.2-0.4
				c-0.4,0-0.9,0.1-1.3,0.2c-0.4,0.1-0.8,0.3-1.2,0.5l-0.6-1.3c0.5-0.2,1-0.4,1.5-0.6c0.5-0.1,1.1-0.2,1.6-0.2
				c1.1,0,1.9,0.2,2.5,0.7c0.6,0.5,0.8,1.2,0.8,2.2v5.7H31.7z M29,270.1c0.7,0,1.2-0.2,1.6-0.6s0.6-0.9,0.6-1.5v-0.7l-1.1,0
				c-0.9,0-1.5,0.2-1.9,0.4c-0.4,0.3-0.6,0.6-0.6,1.2c0,0.4,0.1,0.7,0.3,0.9C28.2,270,28.6,270.1,29,270.1z"/>
			<path fill="#FFFFFF" d="M38.7,271.3l-3.2-8.5h1.9l1.7,5c0.3,0.8,0.5,1.5,0.5,2h0.1c0-0.4,0.2-1,0.5-2l1.7-5h1.9l-3.3,8.5H38.7z"
				/>
			<path fill="#FFFFFF" d="M53.9,267c0,1.4-0.4,2.5-1.1,3.3s-1.7,1.2-3,1.2c-0.8,0-1.5-0.2-2.1-0.5c-0.6-0.4-1.1-0.9-1.4-1.6
				s-0.5-1.5-0.5-2.3c0-1.4,0.4-2.5,1.1-3.2c0.7-0.8,1.7-1.2,3-1.2c1.2,0,2.2,0.4,2.9,1.2S53.9,265.7,53.9,267z M47.7,267
				c0,2,0.7,3,2.2,3c1.4,0,2.2-1,2.2-3c0-1.9-0.7-2.9-2.2-2.9c-0.8,0-1.3,0.3-1.7,0.8C47.9,265.3,47.7,266.1,47.7,267z"/>
			<path fill="#FFFFFF" d="M63.2,271.3l-0.3-1.1h-0.1c-0.3,0.4-0.6,0.7-1.1,0.9c-0.5,0.2-1,0.3-1.6,0.3c-1,0-1.8-0.3-2.3-0.8
				s-0.8-1.3-0.8-2.3v-5.6H59v5.3c0,0.7,0.1,1.1,0.4,1.5s0.7,0.5,1.3,0.5c0.8,0,1.3-0.2,1.7-0.7s0.5-1.2,0.5-2.3v-4.3h1.8v8.5H63.2z
				"/>
			<path fill="#FFFFFF" d="M72.8,262.6c0.4,0,0.7,0,0.9,0.1l-0.2,1.7c-0.3-0.1-0.5-0.1-0.8-0.1c-0.7,0-1.3,0.2-1.8,0.7
				c-0.4,0.5-0.7,1.1-0.7,1.8v4.5h-1.8v-8.5h1.4l0.2,1.5h0.1c0.3-0.5,0.7-0.9,1.1-1.2S72.2,262.6,72.8,262.6z"/>
			<path fill="#FFFFFF" d="M76.3,260.5c0-0.3,0.1-0.6,0.3-0.7s0.4-0.3,0.8-0.3c0.3,0,0.6,0.1,0.7,0.3c0.2,0.2,0.3,0.4,0.3,0.7
				c0,0.3-0.1,0.6-0.3,0.7c-0.2,0.2-0.4,0.3-0.7,0.3c-0.3,0-0.6-0.1-0.8-0.3C76.4,261.1,76.3,260.8,76.3,260.5z M78.2,271.3h-1.8
				v-8.5h1.8V271.3z"/>
			<path fill="#FFFFFF" d="M85.2,270c0.4,0,0.9-0.1,1.3-0.2v1.4c-0.2,0.1-0.5,0.2-0.8,0.2s-0.6,0.1-1,0.1c-1.7,0-2.6-0.9-2.6-2.7
				v-4.6H81v-0.8l1.2-0.7l0.6-1.8H84v1.9h2.4v1.4H84v4.6c0,0.4,0.1,0.8,0.3,1C84.5,269.9,84.8,270,85.2,270z"/>
			<path fill="#FFFFFF" d="M93.1,271.4c-1.3,0-2.4-0.4-3.1-1.2c-0.7-0.8-1.1-1.8-1.1-3.2c0-1.4,0.3-2.5,1-3.3
				c0.7-0.8,1.6-1.2,2.9-1.2c1.1,0,2,0.3,2.7,1c0.7,0.7,1,1.6,1,2.8v1h-5.7c0,0.8,0.2,1.5,0.7,1.9c0.4,0.4,1,0.7,1.8,0.7
				c0.5,0,1,0,1.4-0.1s0.9-0.3,1.4-0.5v1.5c-0.4,0.2-0.9,0.4-1.3,0.4S93.7,271.4,93.1,271.4z M92.8,264c-0.6,0-1,0.2-1.4,0.5
				c-0.3,0.4-0.6,0.9-0.6,1.6h3.9c0-0.7-0.2-1.2-0.5-1.6C93.8,264.2,93.4,264,92.8,264z"/>
			<path fill="#FFFFFF" d="M112.5,271.3h-1.8V266c0-0.7-0.1-1.1-0.4-1.5c-0.3-0.3-0.7-0.5-1.3-0.5c-0.8,0-1.3,0.2-1.7,0.7
				s-0.5,1.2-0.5,2.3v4.2H105v-12h1.8v3c0,0.5,0,1-0.1,1.6h0.1c0.2-0.4,0.6-0.7,1-1c0.4-0.2,1-0.3,1.5-0.3c2.1,0,3.1,1,3.1,3.1
				V271.3z"/>
			<path fill="#FFFFFF" d="M121.5,271.3l-0.4-1.2h-0.1c-0.4,0.5-0.8,0.9-1.2,1.1c-0.4,0.2-1,0.3-1.6,0.3c-0.8,0-1.5-0.2-2-0.7
				s-0.7-1.1-0.7-1.9c0-0.9,0.3-1.5,1-2s1.6-0.7,3-0.7l1.5,0v-0.5c0-0.5-0.1-1-0.4-1.2c-0.3-0.3-0.6-0.4-1.2-0.4
				c-0.4,0-0.9,0.1-1.3,0.2c-0.4,0.1-0.8,0.3-1.2,0.5l-0.6-1.3c0.5-0.2,1-0.4,1.5-0.6c0.5-0.1,1.1-0.2,1.6-0.2
				c1.1,0,1.9,0.2,2.5,0.7s0.8,1.2,0.8,2.2v5.7H121.5z M118.8,270.1c0.7,0,1.2-0.2,1.6-0.6s0.6-0.9,0.6-1.5v-0.7l-1.1,0
				c-0.9,0-1.5,0.2-1.9,0.4c-0.4,0.3-0.6,0.6-0.6,1.2c0,0.4,0.1,0.7,0.3,0.9C118,270,118.4,270.1,118.8,270.1z"/>
			<path fill="#FFFFFF" d="M132.6,271.3l-0.3-1.1h-0.1c-0.3,0.4-0.6,0.7-1.1,0.9c-0.5,0.2-1,0.3-1.6,0.3c-1,0-1.8-0.3-2.3-0.8
				s-0.8-1.3-0.8-2.3v-5.6h1.8v5.3c0,0.7,0.1,1.1,0.4,1.5s0.7,0.5,1.3,0.5c0.8,0,1.3-0.2,1.7-0.7s0.5-1.2,0.5-2.3v-4.3h1.8v8.5
				H132.6z"/>
			<path fill="#FFFFFF" d="M145.3,271.3h-1.8V266c0-0.7-0.1-1.1-0.4-1.5c-0.3-0.3-0.7-0.5-1.3-0.5c-0.8,0-1.3,0.2-1.7,0.7
				c-0.4,0.5-0.5,1.2-0.5,2.3v4.3h-1.8v-8.5h1.4l0.3,1.1h0.1c0.3-0.4,0.6-0.7,1.1-0.9c0.5-0.2,1-0.3,1.6-0.3c2,0,3.1,1,3.1,3.1
				V271.3z"/>
			<path fill="#FFFFFF" d="M152.1,270c0.4,0,0.9-0.1,1.3-0.2v1.4c-0.2,0.1-0.5,0.2-0.8,0.2s-0.6,0.1-1,0.1c-1.7,0-2.6-0.9-2.6-2.7
				v-4.6H148v-0.8l1.2-0.7l0.6-1.8h1.1v1.9h2.4v1.4H151v4.6c0,0.4,0.1,0.8,0.3,1C151.5,269.9,151.8,270,152.1,270z"/>
			<path fill="#FFFFFF" d="M156.1,270.3c0-0.4,0.1-0.7,0.3-0.9s0.5-0.3,0.8-0.3c0.4,0,0.7,0.1,0.9,0.3c0.2,0.2,0.3,0.5,0.3,0.9
				c0,0.4-0.1,0.7-0.3,0.9c-0.2,0.2-0.5,0.3-0.9,0.3c-0.4,0-0.7-0.1-0.8-0.3C156.2,271,156.1,270.7,156.1,270.3z"/>
		</g>
	</g>
	<g>
		<path fill="#A07A50" d="M486.6,55.2c0,19.7,0,39,0,58.8c3.1,0.5,6,1.1,9.2,1.6c0,3.1,0,5.9,0,9.2c-2.9,0.4-5.6,0.7-9.2,1.1
			c0.4,21.1,0,22.4,0,47.7c-57.5,0-111.2,0-167.8,0c0-24.7,0-22.2,0-47.2c-2.3-0.4-5-0.8-8-1.2c0-2.9,0-5.7,0-9
			c2.6-0.3,5.1-0.5,8.2-0.8c0-19.7,0-39.5,0-60c-9.6-1-10.8-8.3-10.6-17.2c0.3-15.9,0-15.9,15.1-19.6c24.4-6,48.8-12.2,73.2-17.9
			c4.3-1,9.1-0.9,13.3,0.1c27.2,6.4,54.3,13.2,81.4,19.7c4.7,1.1,7.2,2.8,6.6,8.4c-0.4,3.7-0.1,7.5-0.1,11.3
			C498,48.4,495.4,54.3,486.6,55.2z M403.7,48.7c-8.1,8.7-11.5,8.6-19.6-0.2c-6.5,9-11.5,9-18.4,0.1c-7.6,8.7-10.8,8.7-18.9,0.9
			c-2.8,1.9-5.4,4.8-8.2,5.2c-3.1,0.5-6.5-1.4-9.7-2.2c0,20.9,0,41.8,0,62.9c49.5,0,98.6,0,147.8,0c0-21.1,0-41.6,0-62.8
			c-7.4,4.3-12.7,2.6-16.3-4.7c-6.7,9.3-10.3,9.5-19.3,1.4c-7.8,8.1-11.3,7.9-19-1C415.8,57.3,410.7,57.4,403.7,48.7z M328.7,148.9
			c49.6,0,98.4,0,147.6,0c0-7.9,0-15.2,0-22.9c-49.4,0-98.4,0-147.6,0C328.7,133.7,328.7,140.9,328.7,148.9z"/>
		<path fill="#634C4A" d="M403.7,48.7c7,8.8,12.1,8.6,18.4-0.3c7.7,8.9,11.2,9,19,1c9,8,12.6,7.8,19.3-1.4c3.6,7.3,8.9,9,16.3,4.7
			c0,21.2,0,41.7,0,62.8c-49.2,0-98.3,0-147.8,0c0-21.2,0-42.1,0-62.9c3.1,0.8,6.6,2.6,9.7,2.2c2.9-0.4,5.4-3.3,8.2-5.2
			c8.1,7.8,11.2,7.7,18.9-0.9c6.9,8.9,12,8.9,18.4-0.1C392.2,57.2,395.6,57.4,403.7,48.7z"/>
		<path fill="#634C4A" d="M328.7,148.9c0-7.9,0-15.1,0-22.9c49.2,0,98.2,0,147.6,0c0,7.6,0,15,0,22.9
			C427.1,148.9,378.3,148.9,328.7,148.9z"/>
		<g>
			<path fill="#F3E5D4" d="M382.6,65.3c0.7,0,1.3,0,1.8,0c12.8,0,25.5,0.1,38.3-0.1c7.4-0.1,12.1,5.6,12.6,11.1
				c0.7,8.3-5.7,13.1-11.1,13.6c-0.6,0.1-1.2,0.2-1.9,0.3c0,0.8-0.1,1.6-0.1,2.4c-0.3,3.8-2.9,6.2-6.8,6.2c-8.6,0-17.3,0-25.9,0
				c-4.2,0-6.9-2.7-7-7c0-4.3,0-8.6,0-12.9C382.6,74.4,382.6,70,382.6,65.3z M422.3,70.4c0,4.9,0,9.6,0,14.4c3,0.2,5.5-0.7,7.1-3.2
				c1.7-2.7,1.5-5.5-0.1-8.1C427.7,70.9,425.3,70.1,422.3,70.4z"/>
			<path fill="#F3E5D4" d="M432.9,100.5c0.1,4-2.4,7.2-5.8,7.2c-15.8,0-31.7,0-47.5,0c-3.4,0-5.9-3.1-5.9-7.2
				C393.5,100.5,413.2,100.5,432.9,100.5z"/>
		</g>
		<path fill="#EBCD9B" d="M328.9,52.5c3.1,0.8,6.6,2.6,9.7,2.2c2.8-0.4,5.3-3.2,8.1-5.1V12.9c-6,1.5-12,3-18,4.5"/>
		<path fill="#EBCD9B" d="M365.7,48.6c6.8,8.7,11.7,8.8,18,0.4V4.1c0-0.1,0-0.2,0-0.3c-6,1.4-12,2.9-18,4.4V48.6z"/>
		<path fill="#EBCD9B" d="M403.6,0v48.7c0,0,0,0,0.1-0.1c7,8.8,12.1,8.6,18.4-0.3c0,0,0,0,0,0V3.7c-4-1-8-1.9-12.1-2.9
			C407.9,0.3,405.8,0.1,403.6,0z"/>
		<path fill="#EBCD9B" d="M440.9,49.5c0,0,0.1-0.1,0.1-0.1c9,8,12.6,7.8,19.3-1.4c0,0,0,0.1,0.1,0.1V13c-6.5-1.6-13-3.2-19.5-4.8
			V49.5z"/>
		<path fill="#EBCD9B" d="M486.6,55.2c8.8-0.9,11.5-6.8,11.4-15c0-3.8-0.3-7.6,0.1-11.3c0.6-5.6-1.9-7.3-6.6-8.4
			c-5.1-1.2-9.6-2.3-14.7-3.5v21.1c0,0.6-0.1,14.5,0,15.1C482.5,55.9,486.4,55.3,486.6,55.2"/>
	</g>
</g>
</svg>
