<!-- Generator: Adobe Illustrator 18.0.0, SVG Export Plug-In  -->
<svg version="1.1"
	 xmlns="http://www.w3.org/2000/svg" xmlns:xlink="http://www.w3.org/1999/xlink" xmlns:a="http://ns.adobe.com/AdobeSVGViewerExtensions/3.0/"
	 x="0px" y="0px" width="331.5px" height="289.2px" viewBox="0 0 331.5 289.2" enable-background="new 0 0 331.5 289.2"
	 xml:space="preserve">
<defs>
</defs>
<g>
	<path fill="none" stroke="#B6407B" stroke-width="5" stroke-miterlimit="10" stroke-dasharray="12,5" d="M325.7,3.3l-26.7,22.6
		l0,12l-0.3,0.3v75l0.3-0.1l0,12.6l27.5-11.5c1.3-0.7,2.8-2.2,2.7-5.8V5.7C329.1,2,327.4,2,325.7,3.3z"/>
	<path fill="none" stroke="#B6407B" stroke-width="5" stroke-miterlimit="10" stroke-dasharray="12,5" d="M294.2,13.9L294.2,13.9
		l-31.7,28.6l0,10l-0.7,0.6l0.4,79.8l0.2-0.1l0,12.7l32.6-12.6c1.5-0.8,3.3-2.5,3.2-6.2V16.2C298.3,12.4,296.2,12.5,294.2,13.9z"/>
	<path fill="none" stroke="#B6407B" stroke-width="5" stroke-miterlimit="10" stroke-dasharray="12,5" d="M228.6,42.8
		c0.1-4.3-1.6-4.5-3.5-3.1l-29.6,35.8v12l-0.4,0.4v75.6c0.1,0.7,0.2,1.3,0.4,1.8v17.1l30.4-8.7c1.4-0.7,2.8-1.7,2.6-5.8V42.8z"/>
	<path fill="none" stroke="#B6407B" stroke-width="5" stroke-miterlimit="10" stroke-dasharray="12,5" d="M114.6,117.7l-30.3-4.6
		c-1.9,0.6-3.7,2.6-3.5,6.8v125.4c-0.1,4.4,1.2,3.9,2.7,3.1l31.2-23.5v-11.2l0.2-0.1v-14.8l-0.2,0.1V117.7z"/>
	<path fill="none" stroke="#B6407B" stroke-width="5" stroke-miterlimit="10" stroke-dasharray="12,5" d="M47.2,163.8l-41.4,8.5
		c-1.8,0.6-3.5,2.4-3.4,5.9v105.5c-0.1,3.7,1.2,3.2,2.5,2.4l42.2-28.4V246l0.2-0.1v-70.4l-0.2,0.1V163.8z"/>
	<path fill="none" stroke="#B6407B" stroke-width="5" stroke-miterlimit="10" stroke-dasharray="12,5" d="M79.9,138l-28.6,0.4v0
		c-1.8,0.5-3.5,2.1-3.3,6V261c-0.1,4,1.2,3.6,2.5,2.9L79.9,243v-12l0.2-0.1v-12.5l-0.2,0.1v-23.4l0.1-0.1v-12.5l-0.1,0.1v-19.8
		l0.2,0v-12.6l-0.2,0V138z"/>
	<path fill="none" stroke="#B6407B" stroke-width="5" stroke-miterlimit="10" stroke-dasharray="12,5" d="M115.5,93.9v133.4
		c-0.2,4.6,1.4,4.1,3.1,3.2l35.7-29.7V101l-35.8-13.6C116.3,88.1,115.4,89.4,115.5,93.9z"/>
	<path fill="none" stroke="#B6407B" stroke-width="5" stroke-miterlimit="10" stroke-dasharray="12,5" d="M190.7,51.5L190.7,51.5
		l-35.4,49.1v99.5l36.4-8.4c1.7-0.9,3.3-2.2,3.1-6.7V54C195.3,47.9,193.7,46.9,190.7,51.5z"/>
	<path fill="none" stroke="#B6407B" stroke-width="5" stroke-miterlimit="10" stroke-dasharray="12,5" d="M261.6,33.7
		c0.1-4-1.5-4.1-3.4-2.8v0l-28.9,29.8l0,12c-0.3,0.3-0.4,0.4-0.4,0.4l0.4,79.8l0.2-0.1l0,11.9l29.5-10.3c1.4-0.7,2.7-1.6,2.5-5.5
		V33.7z"/>
</g>
</svg>
