<!-- Generator: Adobe Illustrator 18.0.0, SVG Export Plug-In  -->
<svg version="1.1"
	 xmlns="http://www.w3.org/2000/svg" xmlns:xlink="http://www.w3.org/1999/xlink" xmlns:a="http://ns.adobe.com/AdobeSVGViewerExtensions/3.0/"
	 x="0px" y="0px" width="1560.4px" height="243.5px" viewBox="0 0 1560.4 243.5" enable-background="new 0 0 1560.4 243.5"
	 xml:space="preserve">
<defs>
</defs>
<g>
	<g>
		<path fill="#FFFFFF" d="M15.6,117.2c0,2.2-0.8,3.9-2.3,5.1s-3.7,1.8-6.5,1.8c-2.8,0-5-0.4-6.8-1.3v-3.8c1.1,0.5,2.3,0.9,3.5,1.2
			c1.2,0.3,2.4,0.4,3.5,0.4c1.6,0,2.7-0.3,3.5-0.9c0.7-0.6,1.1-1.4,1.1-2.4c0-0.9-0.3-1.7-1-2.3c-0.7-0.6-2.1-1.4-4.3-2.2
			c-2.2-0.9-3.8-1.9-4.7-3.1c-0.9-1.2-1.4-2.5-1.4-4.2c0-2,0.7-3.6,2.2-4.8c1.4-1.2,3.4-1.7,5.8-1.7c2.3,0,4.6,0.5,7,1.5l-1.3,3.2
			c-2.2-0.9-4.1-1.4-5.8-1.4c-1.3,0-2.3,0.3-2.9,0.8c-0.7,0.6-1,1.3-1,2.2c0,0.6,0.1,1.2,0.4,1.6c0.3,0.4,0.7,0.9,1.3,1.3
			c0.6,0.4,1.7,0.9,3.3,1.6c1.8,0.7,3.1,1.4,3.9,2.1c0.8,0.6,1.4,1.4,1.8,2.2C15.4,115.2,15.6,116.1,15.6,117.2z"/>
		<path fill="#FFFFFF" d="M19.6,100.6c0-0.7,0.2-1.2,0.6-1.6s0.9-0.6,1.6-0.6c0.7,0,1.2,0.2,1.6,0.6s0.6,0.9,0.6,1.6
			c0,0.7-0.2,1.2-0.6,1.6c-0.4,0.4-0.9,0.6-1.6,0.6c-0.7,0-1.3-0.2-1.6-0.6C19.8,101.7,19.6,101.2,19.6,100.6z M23.8,123.8h-3.9
			v-18.4h3.9V123.8z"/>
		<path fill="#FFFFFF" d="M45.5,123.8h-3.9v-11.3c0-1.4-0.3-2.5-0.9-3.2s-1.5-1-2.7-1c-1.7,0-2.9,0.5-3.6,1.5
			c-0.8,1-1.1,2.6-1.1,4.9v9.2h-3.9v-18.4h3.1l0.5,2.4h0.2c0.6-0.9,1.3-1.6,2.4-2c1-0.5,2.2-0.7,3.4-0.7c4.4,0,6.6,2.2,6.6,6.7
			V123.8z"/>
		<path fill="#FFFFFF" d="M58.4,124.2c-2.8,0-4.9-0.8-6.3-2.4c-1.4-1.6-2.2-4-2.2-7c0-3.1,0.8-5.5,2.3-7.1s3.7-2.5,6.6-2.5
			c1.9,0,3.7,0.4,5.2,1.1l-1.2,3.1c-1.7-0.6-3-1-4.1-1c-3.2,0-4.8,2.1-4.8,6.3c0,2.1,0.4,3.6,1.2,4.6c0.8,1,2,1.6,3.5,1.6
			c1.7,0,3.4-0.4,4.9-1.3v3.4c-0.7,0.4-1.4,0.7-2.2,0.9S59.5,124.2,58.4,124.2z"/>
		<path fill="#FFFFFF" d="M75.9,124.2c-2.9,0-5.1-0.8-6.7-2.5c-1.6-1.7-2.4-4-2.4-6.9c0-3,0.7-5.4,2.2-7.1c1.5-1.7,3.6-2.6,6.2-2.6
			c2.4,0,4.3,0.7,5.8,2.2s2.1,3.5,2.1,6.1v2.1H70.8c0.1,1.8,0.5,3.2,1.4,4.1c0.9,1,2.2,1.4,3.8,1.4c1.1,0,2.1-0.1,3-0.3
			c0.9-0.2,1.9-0.5,3-1v3.2c-1,0.5-1.9,0.8-2.9,1C78.3,124.1,77.1,124.2,75.9,124.2z M75.2,108.1c-1.2,0-2.2,0.4-3,1.2
			c-0.7,0.8-1.2,1.9-1.3,3.4h8.4c0-1.5-0.4-2.7-1.1-3.5S76.4,108.1,75.2,108.1z"/>
		<path fill="#FFFFFF" d="M97.7,123.8h-3.9v-15.7c0-1.9,0-3.4,0.1-4.5c-0.3,0.3-0.6,0.6-0.9,0.9c-0.4,0.3-1.6,1.3-3.7,3.1l-2-2.5
			l7.2-5.6h3.3V123.8z"/>
		<path fill="#FFFFFF" d="M122.1,109.9c0,4.8-1,8.4-2.9,10.7c-1.9,2.4-4.8,3.5-8.7,3.5c-1.5,0-2.5-0.1-3.2-0.3v-3.3
			c1,0.3,2,0.4,3,0.4c2.6,0,4.6-0.7,5.9-2.1c1.3-1.4,2-3.6,2.1-6.7h-0.2c-0.7,1-1.4,1.7-2.4,2.2c-0.9,0.4-2,0.7-3.3,0.7
			c-2.2,0-3.8-0.7-5.1-2c-1.2-1.3-1.8-3.2-1.8-5.5c0-2.5,0.7-4.6,2.1-6.1c1.4-1.5,3.4-2.3,5.8-2.3c1.7,0,3.2,0.4,4.5,1.3
			s2.3,2.1,3,3.7C121.7,105.7,122.1,107.6,122.1,109.9z M113.6,102.4c-1.4,0-2.4,0.4-3.1,1.3s-1.1,2.1-1.1,3.7c0,1.4,0.3,2.5,1,3.3
			c0.7,0.8,1.7,1.2,3.1,1.2c1.3,0,2.4-0.4,3.3-1.2c0.9-0.8,1.3-1.7,1.3-2.8c0-1-0.2-1.9-0.6-2.8c-0.4-0.9-0.9-1.5-1.6-2
			C115.3,102.7,114.5,102.4,113.6,102.4z"/>
		<path fill="#FFFFFF" d="M141.5,109.9c0,4.8-1,8.4-2.9,10.7c-1.9,2.4-4.8,3.5-8.7,3.5c-1.5,0-2.5-0.1-3.2-0.3v-3.3
			c1,0.3,2,0.4,3,0.4c2.6,0,4.6-0.7,5.9-2.1c1.3-1.4,2-3.6,2.1-6.7h-0.2c-0.7,1-1.4,1.7-2.4,2.2c-0.9,0.4-2,0.7-3.3,0.7
			c-2.2,0-3.8-0.7-5.1-2c-1.2-1.3-1.8-3.2-1.8-5.5c0-2.5,0.7-4.6,2.1-6.1c1.4-1.5,3.4-2.3,5.8-2.3c1.7,0,3.2,0.4,4.5,1.3
			s2.3,2.1,3,3.7C141.2,105.7,141.5,107.6,141.5,109.9z M133.1,102.4c-1.4,0-2.4,0.4-3.1,1.3s-1.1,2.1-1.1,3.7c0,1.4,0.3,2.5,1,3.3
			c0.7,0.8,1.7,1.2,3.1,1.2c1.3,0,2.4-0.4,3.3-1.2c0.9-0.8,1.3-1.7,1.3-2.8c0-1-0.2-1.9-0.6-2.8c-0.4-0.9-0.9-1.5-1.6-2
			C134.7,102.7,133.9,102.4,133.1,102.4z"/>
		<path fill="#FFFFFF" d="M161,111.7c0,4.2-0.7,7.4-2,9.4s-3.4,3.1-6.2,3.1c-2.7,0-4.8-1.1-6.2-3.2c-1.4-2.1-2.1-5.2-2.1-9.3
			c0-4.3,0.7-7.5,2-9.5c1.4-2,3.4-3.1,6.2-3.1c2.7,0,4.8,1.1,6.2,3.2S161,107.6,161,111.7z M148.5,111.7c0,3.3,0.3,5.7,1,7.1
			s1.8,2.1,3.3,2.1s2.6-0.7,3.3-2.2c0.7-1.4,1-3.8,1-7.1c0-3.3-0.3-5.6-1-7.1c-0.7-1.5-1.8-2.2-3.3-2.2s-2.6,0.7-3.3,2.1
			S148.5,108.3,148.5,111.7z"/>
	</g>
	<circle fill="#FFFFFF" cx="1162" cy="50.1" r="7.7"/>
	<circle fill="#FFFFFF" cx="1187.5" cy="189.6" r="7.7"/>
	<line fill="none" stroke="#FFFFFF" stroke-width="1.8928" stroke-miterlimit="10" x1="1172" y1="68.8" x2="1560.4" y2="68.8"/>
	<line fill="none" stroke="#FFFFFF" stroke-width="1.8928" stroke-miterlimit="10" x1="1199.1" y1="210.8" x2="1560.4" y2="212.8"/>
	<g>
		<path fill="#FFFFFF" d="M1407.6,96.5c0,2.2-0.8,3.9-2.3,5.1c-1.6,1.2-3.7,1.8-6.5,1.8c-2.8,0-5-0.4-6.8-1.3v-3.8
			c1.1,0.5,2.3,0.9,3.5,1.2c1.2,0.3,2.4,0.4,3.5,0.4c1.6,0,2.7-0.3,3.5-0.9c0.7-0.6,1.1-1.4,1.1-2.4c0-0.9-0.3-1.7-1-2.3
			c-0.7-0.6-2.1-1.4-4.3-2.2c-2.2-0.9-3.8-1.9-4.7-3.1c-0.9-1.2-1.4-2.5-1.4-4.2c0-2,0.7-3.6,2.2-4.8c1.4-1.2,3.4-1.7,5.8-1.7
			c2.3,0,4.6,0.5,7,1.5l-1.3,3.2c-2.2-0.9-4.1-1.4-5.8-1.4c-1.3,0-2.3,0.3-2.9,0.8c-0.7,0.6-1,1.3-1,2.2c0,0.6,0.1,1.2,0.4,1.6
			c0.3,0.4,0.7,0.9,1.3,1.3c0.6,0.4,1.7,0.9,3.3,1.6c1.8,0.7,3.1,1.4,3.9,2.1c0.8,0.6,1.4,1.4,1.8,2.2
			C1407.4,94.4,1407.6,95.4,1407.6,96.5z"/>
		<path fill="#FFFFFF" d="M1411.7,79.8c0-0.7,0.2-1.2,0.6-1.6s0.9-0.6,1.6-0.6c0.7,0,1.2,0.2,1.6,0.6s0.6,0.9,0.6,1.6
			c0,0.7-0.2,1.2-0.6,1.6s-0.9,0.6-1.6,0.6c-0.7,0-1.3-0.2-1.6-0.6S1411.7,80.5,1411.7,79.8z M1415.8,103.1h-3.9V84.7h3.9V103.1z"/>
		<path fill="#FFFFFF" d="M1437.6,103.1h-3.9V91.8c0-1.4-0.3-2.5-0.9-3.2c-0.6-0.7-1.5-1-2.7-1c-1.7,0-2.9,0.5-3.6,1.5
			c-0.8,1-1.1,2.6-1.1,4.9v9.2h-3.9V84.7h3.1l0.5,2.4h0.2c0.6-0.9,1.3-1.6,2.4-2c1-0.5,2.2-0.7,3.4-0.7c4.4,0,6.6,2.2,6.6,6.7V103.1
			z"/>
		<path fill="#FFFFFF" d="M1450.5,103.4c-2.8,0-4.9-0.8-6.3-2.4s-2.2-4-2.2-7c0-3.1,0.8-5.5,2.3-7.1c1.5-1.7,3.7-2.5,6.6-2.5
			c1.9,0,3.7,0.4,5.2,1.1l-1.2,3.1c-1.7-0.6-3-1-4.1-1c-3.2,0-4.8,2.1-4.8,6.3c0,2.1,0.4,3.6,1.2,4.6s2,1.6,3.5,1.6
			c1.7,0,3.4-0.4,4.9-1.3v3.4c-0.7,0.4-1.4,0.7-2.2,0.9C1452.6,103.3,1451.6,103.4,1450.5,103.4z"/>
		<path fill="#FFFFFF" d="M1468,103.4c-2.9,0-5.1-0.8-6.7-2.5s-2.4-4-2.4-6.9c0-3,0.7-5.4,2.2-7.1s3.6-2.6,6.2-2.6
			c2.4,0,4.3,0.7,5.8,2.2c1.4,1.5,2.1,3.5,2.1,6.1v2.1h-12.3c0.1,1.8,0.5,3.2,1.4,4.1c0.9,1,2.2,1.4,3.8,1.4c1.1,0,2.1-0.1,3-0.3
			c0.9-0.2,1.9-0.5,3-1v3.2c-1,0.5-1.9,0.8-2.9,1C1470.3,103.3,1469.2,103.4,1468,103.4z M1467.2,87.3c-1.2,0-2.2,0.4-3,1.2
			c-0.7,0.8-1.2,1.9-1.3,3.4h8.4c0-1.5-0.4-2.7-1.1-3.5C1469.5,87.7,1468.5,87.3,1467.2,87.3z"/>
		<path fill="#FFFFFF" d="M1494.7,103.1h-16.5v-3l6.3-6.3c1.9-1.9,3.1-3.2,3.7-4c0.6-0.8,1-1.5,1.3-2.2c0.3-0.7,0.4-1.4,0.4-2.2
			c0-1.1-0.3-2-1-2.6s-1.6-0.9-2.7-0.9c-0.9,0-1.8,0.2-2.7,0.5c-0.9,0.3-1.9,1-3,1.9l-2.1-2.6c1.4-1.1,2.7-2,3.9-2.4
			c1.3-0.5,2.6-0.7,4.1-0.7c2.3,0,4.1,0.6,5.4,1.8c1.4,1.2,2,2.8,2,4.8c0,1.1-0.2,2.1-0.6,3.1c-0.4,1-1,2-1.8,3.1
			c-0.8,1-2.2,2.5-4.1,4.3l-4.2,4.1v0.2h11.5V103.1z"/>
		<path fill="#FFFFFF" d="M1514.2,90.9c0,4.2-0.7,7.4-2,9.4s-3.4,3.1-6.2,3.1c-2.7,0-4.8-1.1-6.2-3.2c-1.4-2.1-2.1-5.2-2.1-9.3
			c0-4.3,0.7-7.5,2-9.5s3.4-3.1,6.2-3.1c2.7,0,4.8,1.1,6.2,3.2C1513.5,83.7,1514.2,86.8,1514.2,90.9z M1501.6,90.9
			c0,3.3,0.3,5.7,1,7.1c0.7,1.4,1.8,2.1,3.3,2.1s2.6-0.7,3.3-2.2c0.7-1.4,1-3.8,1-7.1c0-3.3-0.3-5.6-1-7.1c-0.7-1.5-1.8-2.2-3.3-2.2
			s-2.6,0.7-3.3,2.1S1501.6,87.6,1501.6,90.9z"/>
		<path fill="#FFFFFF" d="M1533.6,90.9c0,4.2-0.7,7.4-2,9.4s-3.4,3.1-6.2,3.1c-2.7,0-4.8-1.1-6.2-3.2c-1.4-2.1-2.1-5.2-2.1-9.3
			c0-4.3,0.7-7.5,2-9.5s3.4-3.1,6.2-3.1c2.7,0,4.8,1.1,6.2,3.2C1532.9,83.7,1533.6,86.8,1533.6,90.9z M1521.1,90.9
			c0,3.3,0.3,5.7,1,7.1c0.7,1.4,1.8,2.1,3.3,2.1s2.6-0.7,3.3-2.2c0.7-1.4,1-3.8,1-7.1c0-3.3-0.3-5.6-1-7.1c-0.7-1.5-1.8-2.2-3.3-2.2
			s-2.6,0.7-3.3,2.1S1521.1,87.6,1521.1,90.9z"/>
		<path fill="#FFFFFF" d="M1553,89.1c0,4.8-1,8.4-2.9,10.7c-1.9,2.4-4.8,3.5-8.7,3.5c-1.5,0-2.5-0.1-3.2-0.3v-3.3c1,0.3,2,0.4,3,0.4
			c2.6,0,4.6-0.7,5.9-2.1c1.3-1.4,2-3.6,2.1-6.7h-0.2c-0.7,1-1.4,1.7-2.4,2.2c-0.9,0.4-2,0.7-3.3,0.7c-2.2,0-3.8-0.7-5.1-2
			c-1.2-1.3-1.8-3.2-1.8-5.5c0-2.5,0.7-4.6,2.1-6.1c1.4-1.5,3.4-2.3,5.8-2.3c1.7,0,3.2,0.4,4.5,1.3s2.3,2.1,3,3.7
			C1552.7,85,1553,86.9,1553,89.1z M1544.6,81.7c-1.4,0-2.4,0.4-3.1,1.3s-1.1,2.1-1.1,3.7c0,1.4,0.3,2.5,1,3.3
			c0.7,0.8,1.7,1.2,3.1,1.2c1.3,0,2.4-0.4,3.3-1.2c0.9-0.8,1.3-1.7,1.3-2.8c0-1-0.2-1.9-0.6-2.8c-0.4-0.9-0.9-1.5-1.6-2
			C1546.2,81.9,1545.5,81.7,1544.6,81.7z"/>
	</g>
	<g>
		<path fill="#FFFFFF" d="M1416.2,236.6c0,2.2-0.8,3.9-2.3,5.1c-1.6,1.2-3.7,1.8-6.5,1.8c-2.8,0-5-0.4-6.8-1.3v-3.8
			c1.1,0.5,2.3,0.9,3.5,1.2c1.2,0.3,2.4,0.4,3.5,0.4c1.6,0,2.7-0.3,3.5-0.9s1.1-1.4,1.1-2.4c0-0.9-0.3-1.7-1-2.3
			c-0.7-0.6-2.1-1.4-4.3-2.2c-2.2-0.9-3.8-1.9-4.7-3.1s-1.4-2.5-1.4-4.2c0-2,0.7-3.6,2.2-4.8c1.4-1.2,3.4-1.7,5.8-1.7
			c2.3,0,4.6,0.5,7,1.5l-1.3,3.2c-2.2-0.9-4.1-1.4-5.8-1.4c-1.3,0-2.3,0.3-2.9,0.8c-0.7,0.6-1,1.3-1,2.2c0,0.6,0.1,1.2,0.4,1.6
			c0.3,0.4,0.7,0.9,1.3,1.3c0.6,0.4,1.7,0.9,3.3,1.6c1.8,0.7,3.1,1.4,3.9,2.1c0.8,0.6,1.4,1.4,1.8,2.2
			C1416,234.5,1416.2,235.5,1416.2,236.6z"/>
		<path fill="#FFFFFF" d="M1420.3,219.9c0-0.7,0.2-1.2,0.6-1.6s0.9-0.6,1.6-0.6c0.7,0,1.2,0.2,1.6,0.6s0.6,0.9,0.6,1.6
			c0,0.7-0.2,1.2-0.6,1.6s-0.9,0.6-1.6,0.6c-0.7,0-1.3-0.2-1.6-0.6S1420.3,220.5,1420.3,219.9z M1424.4,243.2h-3.9v-18.4h3.9V243.2z
			"/>
		<path fill="#FFFFFF" d="M1446.2,243.2h-3.9v-11.3c0-1.4-0.3-2.5-0.9-3.2c-0.6-0.7-1.5-1-2.7-1c-1.7,0-2.9,0.5-3.6,1.5
			c-0.8,1-1.1,2.6-1.1,4.9v9.2h-3.9v-18.4h3.1l0.5,2.4h0.2c0.6-0.9,1.3-1.6,2.4-2c1-0.5,2.2-0.7,3.4-0.7c4.4,0,6.6,2.2,6.6,6.7
			V243.2z"/>
		<path fill="#FFFFFF" d="M1459.1,243.5c-2.8,0-4.9-0.8-6.3-2.4c-1.4-1.6-2.2-4-2.2-7c0-3.1,0.8-5.5,2.3-7.1s3.7-2.5,6.6-2.5
			c1.9,0,3.7,0.4,5.2,1.1l-1.2,3.1c-1.7-0.6-3-1-4.1-1c-3.2,0-4.8,2.1-4.8,6.3c0,2.1,0.4,3.6,1.2,4.6s2,1.6,3.5,1.6
			c1.7,0,3.4-0.4,4.9-1.3v3.4c-0.7,0.4-1.4,0.7-2.2,0.9C1461.2,243.4,1460.2,243.5,1459.1,243.5z"/>
		<path fill="#FFFFFF" d="M1476.6,243.5c-2.9,0-5.1-0.8-6.7-2.5s-2.4-4-2.4-6.9c0-3,0.7-5.4,2.2-7.1c1.5-1.7,3.6-2.6,6.2-2.6
			c2.4,0,4.3,0.7,5.8,2.2c1.4,1.5,2.1,3.5,2.1,6.1v2.1h-12.3c0.1,1.8,0.5,3.2,1.4,4.1s2.2,1.4,3.8,1.4c1.1,0,2.1-0.1,3-0.3
			c0.9-0.2,1.9-0.5,3-1v3.2c-1,0.5-1.9,0.8-2.9,1C1478.9,243.4,1477.8,243.5,1476.6,243.5z M1475.8,227.4c-1.2,0-2.2,0.4-3,1.2
			c-0.7,0.8-1.2,1.9-1.3,3.4h8.4c0-1.5-0.4-2.7-1.1-3.5S1477.1,227.4,1475.8,227.4z"/>
		<path fill="#FFFFFF" d="M1503.3,243.2h-16.5v-3l6.3-6.3c1.9-1.9,3.1-3.2,3.7-4s1-1.5,1.3-2.2c0.3-0.7,0.4-1.4,0.4-2.2
			c0-1.1-0.3-2-1-2.6c-0.7-0.6-1.6-0.9-2.7-0.9c-0.9,0-1.8,0.2-2.7,0.5c-0.9,0.3-1.9,1-3,1.9l-2.1-2.6c1.4-1.1,2.7-2,3.9-2.4
			c1.3-0.5,2.6-0.7,4.1-0.7c2.3,0,4.1,0.6,5.4,1.8c1.4,1.2,2,2.8,2,4.8c0,1.1-0.2,2.1-0.6,3.1c-0.4,1-1,2-1.8,3.1
			c-0.8,1-2.2,2.5-4.1,4.3l-4.2,4.1v0.2h11.5V243.2z"/>
		<path fill="#FFFFFF" d="M1522.8,231c0,4.2-0.7,7.4-2,9.4s-3.4,3.1-6.2,3.1c-2.7,0-4.8-1.1-6.2-3.2c-1.4-2.1-2.1-5.2-2.1-9.3
			c0-4.3,0.7-7.5,2-9.5s3.4-3.1,6.2-3.1c2.7,0,4.8,1.1,6.2,3.2S1522.8,226.9,1522.8,231z M1510.2,231c0,3.3,0.3,5.7,1,7.1
			c0.7,1.4,1.8,2.1,3.3,2.1s2.6-0.7,3.3-2.2c0.7-1.4,1-3.8,1-7.1c0-3.3-0.3-5.6-1-7.1c-0.7-1.5-1.8-2.2-3.3-2.2s-2.6,0.7-3.3,2.1
			S1510.2,227.7,1510.2,231z"/>
		<path fill="#FFFFFF" d="M1537.2,243.2h-3.9v-15.7c0-1.9,0-3.4,0.1-4.5c-0.3,0.3-0.6,0.6-0.9,0.9c-0.4,0.3-1.6,1.3-3.7,3.1l-2-2.5
			l7.2-5.6h3.3V243.2z"/>
		<path fill="#FFFFFF" d="M1556.7,243.2h-3.9v-15.7c0-1.9,0-3.4,0.1-4.5c-0.3,0.3-0.6,0.6-0.9,0.9c-0.4,0.3-1.6,1.3-3.7,3.1l-2-2.5
			l7.2-5.6h3.3V243.2z"/>
	</g>
	<g>
		<path fill="#FFFFFF" d="M1182.4,11.3h7.4v10.9c-1.2,0.4-2.4,0.7-3.5,0.9c-1.1,0.2-2.3,0.3-3.6,0.3c-3,0-5.4-1-7-2.9
			c-1.6-1.9-2.5-4.7-2.5-8.2c0-3.5,0.9-6.2,2.8-8.2c1.9-2,4.4-2.9,7.6-2.9c2.1,0,4.1,0.4,5.9,1.3l-1.1,2.9c-1.6-0.8-3.2-1.2-4.9-1.2
			c-2.1,0-3.8,0.7-5.1,2.2c-1.2,1.4-1.9,3.4-1.9,5.9c0,2.6,0.6,4.7,1.7,6c1.1,1.4,2.7,2.1,4.8,2.1c1.1,0,2.2-0.1,3.4-0.4v-5.6h-4.1
			V11.3z"/>
		<path fill="#FFFFFF" d="M1201.9,6.4c0.6,0,1.2,0,1.6,0.1l-0.3,3.2c-0.5-0.1-0.9-0.2-1.4-0.2c-1.3,0-2.3,0.5-3.1,1.4
			c-0.8,0.9-1.2,2.1-1.2,3.5V23h-3.2V6.7h2.5l0.4,2.9h0.2c0.5-1,1.2-1.7,2-2.3S1200.9,6.4,1201.9,6.4z"/>
		<path fill="#FFFFFF" d="M1212.9,23.3c-2.4,0-4.2-0.7-5.5-2.2c-1.3-1.5-2-3.5-2-6.1c0-2.7,0.6-4.8,1.8-6.3c1.2-1.5,2.9-2.3,5.1-2.3
			c2,0,3.6,0.7,4.7,2c1.2,1.3,1.7,3.1,1.7,5.4v1.9h-10.1c0,1.6,0.4,2.8,1.2,3.7c0.7,0.9,1.8,1.3,3.2,1.3c0.9,0,1.7-0.1,2.5-0.3
			c0.8-0.2,1.6-0.5,2.5-0.9v2.8c-0.8,0.4-1.6,0.7-2.4,0.9S1213.9,23.3,1212.9,23.3z M1212.3,9c-1,0-1.8,0.4-2.5,1
			c-0.6,0.7-1,1.7-1.1,3.1h6.9c0-1.4-0.3-2.4-0.9-3.1C1214.1,9.3,1213.3,9,1212.3,9z"/>
		<path fill="#FFFFFF" d="M1231.9,23l-0.6-2.3h-0.1c-0.7,1-1.5,1.7-2.2,2c-0.7,0.4-1.7,0.5-2.8,0.5c-1.5,0-2.6-0.4-3.5-1.3
			s-1.3-2.1-1.3-3.7c0-1.7,0.6-3,1.7-3.8c1.2-0.9,2.9-1.3,5.3-1.4l2.6-0.1v-0.9c0-1-0.2-1.8-0.7-2.3s-1.2-0.8-2.1-0.8
			c-0.8,0-1.5,0.1-2.2,0.4c-0.7,0.2-1.4,0.5-2.1,0.9l-1-2.5c0.8-0.5,1.7-0.8,2.7-1.1c1-0.2,1.9-0.4,2.8-0.4c1.9,0,3.4,0.5,4.4,1.4
			c1,0.9,1.5,2.3,1.5,4.3v11H1231.9z M1227.1,20.6c1.2,0,2.1-0.4,2.8-1.1c0.7-0.7,1.1-1.7,1.1-3v-1.4l-1.9,0.1
			c-1.5,0.1-2.6,0.3-3.3,0.8c-0.7,0.5-1,1.2-1,2.2c0,0.7,0.2,1.3,0.6,1.7C1225.7,20.4,1226.3,20.6,1227.1,20.6z"/>
		<path fill="#FFFFFF" d="M1244.3,20.5c0.8,0,1.6-0.1,2.4-0.4v2.6c-0.4,0.2-0.8,0.3-1.4,0.4s-1.1,0.2-1.7,0.2c-3,0-4.6-1.7-4.6-5.2
			V9.3h-2.1V7.7l2.2-1.3l1.1-3.5h2v3.6h4.3v2.6h-4.3V18c0,0.8,0.2,1.5,0.6,1.9C1243.1,20.3,1243.6,20.5,1244.3,20.5z"/>
		<path fill="#FFFFFF" d="M1256.3,23.3c-2.4,0-4.2-0.7-5.5-2.2c-1.3-1.5-2-3.5-2-6.1c0-2.7,0.6-4.8,1.8-6.3c1.2-1.5,2.9-2.3,5.1-2.3
			c2,0,3.6,0.7,4.7,2c1.2,1.3,1.7,3.1,1.7,5.4v1.9h-10.1c0,1.6,0.4,2.8,1.2,3.7c0.7,0.9,1.8,1.3,3.2,1.3c0.9,0,1.7-0.1,2.5-0.3
			c0.8-0.2,1.6-0.5,2.5-0.9v2.8c-0.8,0.4-1.6,0.7-2.4,0.9S1257.3,23.3,1256.3,23.3z M1255.7,9c-1,0-1.8,0.4-2.5,1
			c-0.6,0.7-1,1.7-1.1,3.1h6.9c0-1.4-0.3-2.4-0.9-3.1C1257.5,9.3,1256.7,9,1255.7,9z"/>
		<path fill="#FFFFFF" d="M1273.5,6.4c0.6,0,1.2,0,1.6,0.1l-0.3,3.2c-0.5-0.1-0.9-0.2-1.4-0.2c-1.3,0-2.3,0.5-3.1,1.4
			c-0.8,0.9-1.2,2.1-1.2,3.5V23h-3.2V6.7h2.5l0.4,2.9h0.2c0.5-1,1.2-1.7,2-2.3S1272.5,6.4,1273.5,6.4z"/>
		<path fill="#FFFFFF" d="M1303.9,23h-3.6l-3.4-12.9c-0.1-0.6-0.3-1.4-0.5-2.4c-0.2-1.1-0.4-1.8-0.4-2.2c-0.1,0.6-0.2,1.4-0.4,2.5
			s-0.4,1.8-0.5,2.2l-3.3,12.8h-3.6l-2.6-10.8L1283,1.4h3.3l2.9,12.6c0.4,2,0.8,3.8,1,5.4c0.1-0.8,0.2-1.8,0.5-2.8
			c0.2-1,0.4-1.9,0.5-2.5l3.3-12.6h3.2l3.3,12.7c0.3,1.2,0.7,2.9,1,5.3c0.1-1.4,0.5-3.2,1-5.4l2.8-12.6h3.3L1303.9,23z"/>
		<path fill="#FFFFFF" d="M1318.2,23.3c-2.4,0-4.2-0.7-5.5-2.2c-1.3-1.5-2-3.5-2-6.1c0-2.7,0.6-4.8,1.8-6.3c1.2-1.5,2.9-2.3,5.1-2.3
			c2,0,3.6,0.7,4.7,2c1.2,1.3,1.7,3.1,1.7,5.4v1.9H1314c0,1.6,0.4,2.8,1.2,3.7c0.7,0.9,1.8,1.3,3.2,1.3c0.9,0,1.7-0.1,2.5-0.3
			c0.8-0.2,1.6-0.5,2.5-0.9v2.8c-0.8,0.4-1.6,0.7-2.4,0.9S1319.2,23.3,1318.2,23.3z M1317.6,9c-1,0-1.8,0.4-2.5,1
			c-0.6,0.7-1,1.7-1.1,3.1h6.9c0-1.4-0.3-2.4-0.9-3.1C1319.5,9.3,1318.7,9,1317.6,9z"/>
		<path fill="#FFFFFF" d="M1337.9,18.4c0,1.6-0.5,2.8-1.6,3.7c-1.1,0.9-2.6,1.3-4.6,1.3c-2,0-3.6-0.3-4.9-1v-3
			c1.8,0.9,3.4,1.3,5,1.3c2,0,3-0.6,3-1.9c0-0.4-0.1-0.8-0.3-1c-0.2-0.3-0.6-0.6-1.1-0.9c-0.5-0.3-1.2-0.6-2.1-1
			c-1.7-0.7-2.9-1.5-3.5-2.2s-0.9-1.7-0.9-2.8c0-1.4,0.5-2.5,1.6-3.3c1-0.8,2.5-1.2,4.3-1.2c1.8,0,3.5,0.4,5,1.2l-1,2.6
			c-1.6-0.7-3-1.1-4.1-1.1c-1.7,0-2.5,0.5-2.5,1.6c0,0.5,0.2,0.9,0.7,1.3c0.4,0.4,1.4,0.8,2.9,1.5c1.2,0.5,2.2,1,2.7,1.4
			c0.6,0.4,1,0.9,1.3,1.5C1337.8,16.9,1337.9,17.6,1337.9,18.4z"/>
		<path fill="#FFFFFF" d="M1347,20.5c0.8,0,1.6-0.1,2.4-0.4v2.6c-0.4,0.2-0.8,0.3-1.4,0.4s-1.1,0.2-1.7,0.2c-3,0-4.6-1.7-4.6-5.2
			V9.3h-2.1V7.7l2.2-1.3l1.1-3.5h2v3.6h4.3v2.6h-4.3V18c0,0.8,0.2,1.5,0.6,1.9C1345.9,20.3,1346.4,20.5,1347,20.5z"/>
		<path fill="#FFFFFF" d="M1359,23.3c-2.4,0-4.2-0.7-5.5-2.2c-1.3-1.5-2-3.5-2-6.1c0-2.7,0.6-4.8,1.8-6.3c1.2-1.5,2.9-2.3,5.1-2.3
			c2,0,3.6,0.7,4.7,2c1.2,1.3,1.7,3.1,1.7,5.4v1.9h-10.1c0,1.6,0.4,2.8,1.2,3.7c0.7,0.9,1.8,1.3,3.2,1.3c0.9,0,1.7-0.1,2.5-0.3
			c0.8-0.2,1.6-0.5,2.5-0.9v2.8c-0.8,0.4-1.6,0.7-2.4,0.9S1360,23.3,1359,23.3z M1358.4,9c-1,0-1.8,0.4-2.5,1
			c-0.6,0.7-1,1.7-1.1,3.1h6.9c0-1.4-0.3-2.4-0.9-3.1C1360.2,9.3,1359.4,9,1358.4,9z"/>
		<path fill="#FFFFFF" d="M1376.2,6.4c0.6,0,1.2,0,1.6,0.1l-0.3,3.2c-0.5-0.1-0.9-0.2-1.4-0.2c-1.3,0-2.3,0.5-3.1,1.4
			c-0.8,0.9-1.2,2.1-1.2,3.5V23h-3.2V6.7h2.5l0.4,2.9h0.2c0.5-1,1.2-1.7,2-2.3S1375.3,6.4,1376.2,6.4z"/>
		<path fill="#FFFFFF" d="M1393.9,23h-3.2V13c0-1.3-0.2-2.2-0.7-2.8c-0.5-0.6-1.2-0.9-2.2-0.9c-1.4,0-2.4,0.4-3,1.3
			c-0.6,0.9-0.9,2.3-0.9,4.4V23h-3.2V6.7h2.5l0.5,2.1h0.2c0.5-0.8,1.1-1.4,1.9-1.8c0.8-0.4,1.8-0.6,2.8-0.6c3.6,0,5.4,2,5.4,6V23z"
			/>
		<path fill="#FFFFFF" d="M1417.5,17.1c0,1.9-0.6,3.4-1.9,4.5s-3.1,1.6-5.3,1.6c-2.3,0-4.1-0.4-5.6-1.1v-3.3
			c0.9,0.5,1.9,0.8,2.9,1.1c1,0.3,2,0.4,2.9,0.4c1.3,0,2.2-0.3,2.9-0.8s0.9-1.2,0.9-2.1c0-0.8-0.3-1.5-0.8-2.1s-1.7-1.2-3.5-2
			c-1.8-0.8-3.1-1.7-3.9-2.7c-0.7-1-1.1-2.3-1.1-3.7c0-1.8,0.6-3.2,1.8-4.3c1.2-1,2.8-1.6,4.8-1.6c1.9,0,3.8,0.5,5.7,1.4l-1,2.9
			c-1.8-0.8-3.4-1.2-4.8-1.2c-1.1,0-1.9,0.2-2.4,0.7c-0.5,0.5-0.8,1.2-0.8,2c0,0.6,0.1,1,0.3,1.4s0.6,0.8,1.1,1.1
			c0.5,0.4,1.4,0.8,2.7,1.4c1.5,0.7,2.5,1.3,3.2,1.8s1.2,1.2,1.5,1.9C1417.4,15.3,1417.5,16.2,1417.5,17.1z"/>
		<path fill="#FFFFFF" d="M1418.7,6.7h3.5l3.1,9.3c0.5,1.3,0.8,2.6,0.9,3.7h0.1c0.1-0.5,0.2-1.2,0.5-2s1.4-4.4,3.5-11h3.5l-6.5,18.5
			c-1.2,3.4-3.1,5.1-5.9,5.1c-0.7,0-1.4-0.1-2.1-0.3v-2.8c0.5,0.1,1,0.2,1.7,0.2c1.5,0,2.6-1,3.3-2.9l0.6-1.5L1418.7,6.7z"/>
		<path fill="#FFFFFF" d="M1441.2,23.3c-1.9,0-3.4-0.7-4.4-2.2s-1.6-3.6-1.6-6.2c0-2.7,0.5-4.8,1.6-6.3s2.6-2.2,4.5-2.2
			c2,0,3.5,0.8,4.5,2.4h0.2c-0.2-1.2-0.2-2.1-0.2-2.8V0h3.2v23h-2.5l-0.6-2.1h-0.2C1444.6,22.5,1443.1,23.3,1441.2,23.3z M1442,20.5
			c1.3,0,2.3-0.4,2.9-1.2c0.6-0.8,0.9-2.1,0.9-3.9v-0.5c0-2.1-0.3-3.5-0.9-4.4c-0.6-0.9-1.6-1.3-2.9-1.3c-1.1,0-2,0.5-2.6,1.5
			c-0.6,1-0.9,2.4-0.9,4.2c0,1.8,0.3,3.2,0.9,4.1C1439.9,20,1440.8,20.5,1442,20.5z"/>
		<path fill="#FFFFFF" d="M1466.8,23h-3.2V13c0-1.3-0.2-2.2-0.7-2.8c-0.5-0.6-1.2-0.9-2.2-0.9c-1.4,0-2.4,0.4-3,1.3
			c-0.6,0.9-0.9,2.3-0.9,4.4V23h-3.2V6.7h2.5l0.5,2.1h0.2c0.5-0.8,1.1-1.4,1.9-1.8c0.8-0.4,1.8-0.6,2.8-0.6c3.6,0,5.4,2,5.4,6V23z"
			/>
		<path fill="#FFFFFF" d="M1477.9,23.3c-2.4,0-4.2-0.7-5.5-2.2c-1.3-1.5-2-3.5-2-6.1c0-2.7,0.6-4.8,1.8-6.3c1.2-1.5,2.9-2.3,5.1-2.3
			c2,0,3.6,0.7,4.7,2c1.2,1.3,1.7,3.1,1.7,5.4v1.9h-10.1c0,1.6,0.4,2.8,1.2,3.7c0.7,0.9,1.8,1.3,3.2,1.3c0.9,0,1.7-0.1,2.5-0.3
			c0.8-0.2,1.6-0.5,2.5-0.9v2.8c-0.8,0.4-1.6,0.7-2.4,0.9S1478.9,23.3,1477.9,23.3z M1477.3,9c-1,0-1.8,0.4-2.5,1
			c-0.6,0.7-1,1.7-1.1,3.1h6.9c0-1.4-0.3-2.4-0.9-3.1C1479.1,9.3,1478.3,9,1477.3,9z"/>
		<path fill="#FFFFFF" d="M1485.1,6.7h3.5l3.1,9.3c0.5,1.3,0.8,2.6,0.9,3.7h0.1c0.1-0.5,0.2-1.2,0.5-2s1.4-4.4,3.5-11h3.5l-6.5,18.5
			c-1.2,3.4-3.1,5.1-5.9,5.1c-0.7,0-1.4-0.1-2.1-0.3v-2.8c0.5,0.1,1,0.2,1.7,0.2c1.5,0,2.6-1,3.3-2.9l0.6-1.5L1485.1,6.7z"/>
		<path fill="#FFFFFF" d="M1182.4,47.6h7.4v10.9c-1.2,0.4-2.4,0.7-3.5,0.9c-1.1,0.2-2.3,0.3-3.6,0.3c-3,0-5.4-1-7-2.9
			c-1.6-1.9-2.5-4.7-2.5-8.2c0-3.5,0.9-6.2,2.8-8.2c1.9-2,4.4-2.9,7.6-2.9c2.1,0,4.1,0.4,5.9,1.3l-1.1,2.9c-1.6-0.8-3.2-1.2-4.9-1.2
			c-2.1,0-3.8,0.7-5.1,2.2c-1.2,1.4-1.9,3.4-1.9,5.9c0,2.6,0.6,4.7,1.7,6c1.1,1.4,2.7,2.1,4.8,2.1c1.1,0,2.2-0.1,3.4-0.4v-5.6h-4.1
			V47.6z"/>
		<path fill="#FFFFFF" d="M1194,38.7c0-0.6,0.2-1.1,0.5-1.4c0.3-0.3,0.8-0.5,1.3-0.5c0.6,0,1,0.2,1.3,0.5c0.3,0.3,0.5,0.8,0.5,1.4
			c0,0.6-0.2,1.1-0.5,1.4c-0.3,0.3-0.8,0.5-1.3,0.5c-0.6,0-1-0.2-1.3-0.5C1194.2,39.7,1194,39.3,1194,38.7z M1197.4,59.3h-3.2V43
			h3.2V59.3z"/>
		<path fill="#FFFFFF" d="M1211.5,59.3l-0.6-2.3h-0.1c-0.7,1-1.5,1.7-2.2,2c-0.7,0.4-1.7,0.5-2.8,0.5c-1.5,0-2.6-0.4-3.5-1.3
			s-1.3-2.1-1.3-3.7c0-1.7,0.6-3,1.7-3.8c1.2-0.9,2.9-1.3,5.3-1.4l2.6-0.1v-0.9c0-1-0.2-1.8-0.7-2.3s-1.2-0.8-2.1-0.8
			c-0.8,0-1.5,0.1-2.2,0.4c-0.7,0.2-1.4,0.5-2.1,0.9l-1-2.5c0.8-0.5,1.7-0.8,2.7-1.1c1-0.2,1.9-0.4,2.8-0.4c1.9,0,3.4,0.5,4.4,1.4
			c1,0.9,1.5,2.3,1.5,4.3v11H1211.5z M1206.7,57c1.2,0,2.1-0.4,2.8-1.1c0.7-0.7,1.1-1.7,1.1-3v-1.4l-1.9,0.1
			c-1.5,0.1-2.6,0.3-3.3,0.8c-0.7,0.5-1,1.2-1,2.2c0,0.7,0.2,1.3,0.6,1.7C1205.3,56.8,1205.9,57,1206.7,57z"/>
		<path fill="#FFFFFF" d="M1231.5,59.3h-3.2V49.3c0-1.3-0.2-2.2-0.7-2.8c-0.5-0.6-1.2-0.9-2.2-0.9c-1.4,0-2.4,0.4-3,1.3
			c-0.6,0.9-0.9,2.3-0.9,4.4v8.1h-3.2V43h2.5l0.5,2.1h0.2c0.5-0.8,1.1-1.4,1.9-1.8c0.8-0.4,1.8-0.6,2.8-0.6c3.6,0,5.4,2,5.4,6V59.3z
			"/>
		<path fill="#FFFFFF" d="M1241.6,56.8c0.8,0,1.6-0.1,2.4-0.4v2.6c-0.4,0.2-0.8,0.3-1.4,0.4s-1.1,0.2-1.7,0.2c-3,0-4.6-1.7-4.6-5.2
			v-8.8h-2.1v-1.5l2.2-1.3l1.1-3.5h2V43h4.3v2.6h-4.3v8.8c0,0.8,0.2,1.5,0.6,1.9C1240.5,56.6,1241,56.8,1241.6,56.8z"/>
		<path fill="#FFFFFF" d="M1257.2,54.7c0,1.6-0.5,2.8-1.6,3.7c-1.1,0.9-2.6,1.3-4.6,1.3c-2,0-3.6-0.3-4.9-1v-3
			c1.8,0.9,3.4,1.3,5,1.3c2,0,3-0.6,3-1.9c0-0.4-0.1-0.8-0.3-1c-0.2-0.3-0.6-0.6-1.1-0.9c-0.5-0.3-1.2-0.6-2.1-1
			c-1.7-0.7-2.9-1.5-3.5-2.2s-0.9-1.7-0.9-2.8c0-1.4,0.5-2.5,1.6-3.3c1-0.8,2.5-1.2,4.3-1.2c1.8,0,3.5,0.4,5,1.2l-1,2.6
			c-1.6-0.7-3-1.1-4.1-1.1c-1.7,0-2.5,0.5-2.5,1.6c0,0.5,0.2,0.9,0.7,1.3c0.4,0.4,1.4,0.8,2.9,1.5c1.2,0.5,2.2,1,2.7,1.4
			c0.6,0.4,1,0.9,1.3,1.5C1257,53.2,1257.2,53.9,1257.2,54.7z"/>
	</g>
	<circle fill="#FFFFFF" cx="433.7" cy="68.3" r="7.7"/>
	<line fill="none" stroke="#FFFFFF" stroke-width="1.8928" stroke-miterlimit="10" x1="0.1" y1="86" x2="415" y2="86"/>
	<line fill="none" stroke="#FFFFFF" stroke-width="1.8928" stroke-miterlimit="10" x1="573.8" y1="70.1" x2="441.4" y2="69.9"/>
	<line fill="none" stroke="#FFFFFF" stroke-width="1.8928" stroke-miterlimit="10" x1="1076" y1="50.1" x2="1167.7" y2="49.7"/>
	<polyline fill="none" stroke="#FFFFFF" stroke-width="1.8928" stroke-miterlimit="10" points="898.4,113.2 1152.3,189.6 
		1187.5,189.6 	"/>
	<g>
		<g>
			<path fill="#FFFFFF" d="M1211.3,190h7.4v10.9c-1.2,0.4-2.4,0.7-3.5,0.9c-1.1,0.2-2.3,0.3-3.6,0.3c-3,0-5.4-1-7-2.9
				c-1.6-1.9-2.5-4.7-2.5-8.2c0-3.5,0.9-6.2,2.8-8.2s4.4-3,7.6-3c2.1,0,4.1,0.4,5.9,1.3l-1.1,2.9c-1.6-0.8-3.2-1.2-4.9-1.2
				c-2.1,0-3.8,0.7-5.1,2.2c-1.2,1.4-1.9,3.4-1.9,5.9c0,2.6,0.6,4.7,1.7,6c1.1,1.4,2.7,2.1,4.8,2.1c1.1,0,2.2-0.1,3.4-0.4V193h-4.1
				V190z"/>
			<path fill="#FFFFFF" d="M1236.6,193.5c0,2.7-0.6,4.8-1.9,6.3c-1.3,1.5-3,2.2-5.3,2.2c-1.4,0-2.7-0.3-3.7-1
				c-1.1-0.7-1.9-1.7-2.5-3c-0.6-1.3-0.9-2.8-0.9-4.5c0-2.7,0.6-4.7,1.9-6.2c1.3-1.5,3-2.2,5.3-2.2c2.2,0,3.9,0.8,5.2,2.3
				C1235.9,188.8,1236.6,190.9,1236.6,193.5z M1225.6,193.5c0,3.8,1.3,5.7,3.9,5.7c2.6,0,3.8-1.9,3.8-5.7c0-3.7-1.3-5.6-3.9-5.6
				c-1.3,0-2.3,0.5-2.9,1.4C1225.9,190.3,1225.6,191.7,1225.6,193.5z"/>
			<path fill="#FFFFFF" d="M1243.5,201.7h-3.2v-23h3.2V201.7z"/>
			<path fill="#FFFFFF" d="M1253.2,202c-1.9,0-3.4-0.7-4.4-2.2c-1.1-1.5-1.6-3.6-1.6-6.2c0-2.7,0.5-4.8,1.6-6.3s2.6-2.2,4.5-2.2
				c2,0,3.5,0.8,4.5,2.4h0.2c-0.2-1.2-0.2-2.1-0.2-2.8v-6h3.2v23h-2.5l-0.6-2.1h-0.2C1256.7,201.2,1255.2,202,1253.2,202z
				 M1254,199.2c1.3,0,2.3-0.4,2.9-1.2s0.9-2.1,0.9-3.9v-0.5c0-2.1-0.3-3.5-0.9-4.4s-1.6-1.3-2.9-1.3c-1.1,0-2,0.5-2.6,1.5
				c-0.6,1-0.9,2.4-0.9,4.2c0,1.8,0.3,3.2,0.9,4.1C1252,198.7,1252.8,199.2,1254,199.2z"/>
			<path fill="#FFFFFF" d="M1281.6,182.8c-1.9,0-3.4,0.7-4.4,2.2c-1.1,1.4-1.6,3.4-1.6,6c0,2.7,0.5,4.7,1.6,6c1,1.4,2.5,2,4.5,2
				c0.8,0,1.7-0.1,2.5-0.3s1.6-0.4,2.5-0.7v3c-1.6,0.6-3.3,1-5.3,1c-2.9,0-5.2-1-6.7-2.9c-1.6-1.9-2.4-4.7-2.4-8.2
				c0-2.2,0.4-4.2,1.1-5.9c0.8-1.7,1.9-3,3.3-3.9c1.4-0.9,3.1-1.3,5.1-1.3c2,0,3.9,0.5,5.7,1.4l-1.2,2.9c-0.7-0.3-1.4-0.6-2.1-0.9
				C1283.3,182.9,1282.5,182.8,1281.6,182.8z"/>
			<path fill="#FFFFFF" d="M1303.9,193.5c0,2.7-0.6,4.8-1.9,6.3c-1.3,1.5-3,2.2-5.3,2.2c-1.4,0-2.7-0.3-3.7-1
				c-1.1-0.7-1.9-1.7-2.5-3c-0.6-1.3-0.9-2.8-0.9-4.5c0-2.7,0.6-4.7,1.9-6.2c1.3-1.5,3-2.2,5.3-2.2c2.2,0,3.9,0.8,5.2,2.3
				C1303.3,188.8,1303.9,190.9,1303.9,193.5z M1292.9,193.5c0,3.8,1.3,5.7,3.9,5.7c2.6,0,3.8-1.9,3.8-5.7c0-3.7-1.3-5.6-3.9-5.6
				c-1.3,0-2.3,0.5-2.9,1.4C1293.2,190.3,1292.9,191.7,1292.9,193.5z"/>
			<path fill="#FFFFFF" d="M1317.1,201.7l-0.6-2.3h-0.1c-0.7,1-1.5,1.7-2.2,2c-0.7,0.4-1.7,0.5-2.8,0.5c-1.5,0-2.6-0.4-3.5-1.3
				c-0.8-0.9-1.3-2.1-1.3-3.7c0-1.7,0.6-3,1.7-3.8c1.2-0.9,2.9-1.3,5.3-1.4l2.6-0.1v-0.9c0-1-0.2-1.8-0.7-2.3s-1.2-0.8-2.1-0.8
				c-0.8,0-1.5,0.1-2.2,0.4c-0.7,0.2-1.4,0.5-2.1,0.9l-1-2.5c0.8-0.5,1.7-0.8,2.7-1.1c1-0.2,1.9-0.4,2.8-0.4c1.9,0,3.4,0.5,4.4,1.4
				s1.5,2.3,1.5,4.3v11H1317.1z M1312.3,199.3c1.2,0,2.1-0.4,2.8-1.1c0.7-0.7,1.1-1.7,1.1-3v-1.4l-1.9,0.1c-1.5,0.1-2.6,0.3-3.3,0.8
				c-0.7,0.5-1,1.2-1,2.2c0,0.7,0.2,1.3,0.6,1.7C1310.9,199.1,1311.5,199.3,1312.3,199.3z"/>
			<path fill="#FFFFFF" d="M1334,197c0,1.6-0.5,2.8-1.6,3.7s-2.6,1.3-4.6,1.3c-2,0-3.6-0.3-4.9-1v-3c1.8,0.9,3.4,1.3,5,1.3
				c2,0,3-0.6,3-1.9c0-0.4-0.1-0.8-0.3-1c-0.2-0.3-0.6-0.6-1.1-0.9c-0.5-0.3-1.2-0.6-2.1-1c-1.7-0.7-2.9-1.5-3.5-2.2
				s-0.9-1.7-0.9-2.8c0-1.4,0.5-2.5,1.6-3.3c1-0.8,2.5-1.2,4.3-1.2c1.8,0,3.5,0.4,5,1.2l-1,2.6c-1.6-0.7-3-1.1-4.1-1.1
				c-1.7,0-2.5,0.5-2.5,1.6c0,0.5,0.2,0.9,0.7,1.3c0.4,0.4,1.4,0.8,2.9,1.5c1.2,0.5,2.2,1,2.7,1.4c0.6,0.4,1,0.9,1.3,1.5
				C1333.9,195.6,1334,196.2,1334,197z"/>
			<path fill="#FFFFFF" d="M1343.1,199.2c0.8,0,1.6-0.1,2.4-0.4v2.6c-0.4,0.2-0.8,0.3-1.4,0.4s-1.1,0.2-1.7,0.2
				c-3,0-4.6-1.7-4.6-5.2V188h-2.1v-1.5l2.2-1.3l1.1-3.5h2v3.6h4.3v2.6h-4.3v8.8c0,0.8,0.2,1.5,0.6,1.9
				C1342,199,1342.5,199.2,1343.1,199.2z"/>
			<path fill="#FFFFFF" d="M1359.4,201.7h-3.2v-21.6h11.3v3h-8v6.8h7.5v3h-7.5V201.7z"/>
			<path fill="#FFFFFF" d="M1384.1,193.5c0,2.7-0.6,4.8-1.9,6.3c-1.3,1.5-3,2.2-5.3,2.2c-1.4,0-2.7-0.3-3.7-1
				c-1.1-0.7-1.9-1.7-2.5-3c-0.6-1.3-0.9-2.8-0.9-4.5c0-2.7,0.6-4.7,1.9-6.2c1.3-1.5,3-2.2,5.3-2.2c2.2,0,3.9,0.8,5.2,2.3
				C1383.5,188.8,1384.1,190.9,1384.1,193.5z M1373.1,193.5c0,3.8,1.3,5.7,3.9,5.7c2.6,0,3.8-1.9,3.8-5.7c0-3.7-1.3-5.6-3.9-5.6
				c-1.3,0-2.3,0.5-2.9,1.4C1373.4,190.3,1373.1,191.7,1373.1,193.5z"/>
			<path fill="#FFFFFF" d="M1401.2,193.5c0,2.7-0.6,4.8-1.9,6.3c-1.3,1.5-3,2.2-5.3,2.2c-1.4,0-2.7-0.3-3.7-1
				c-1.1-0.7-1.9-1.7-2.5-3c-0.6-1.3-0.9-2.8-0.9-4.5c0-2.7,0.6-4.7,1.9-6.2c1.3-1.5,3-2.2,5.3-2.2c2.2,0,3.9,0.8,5.2,2.3
				C1400.6,188.8,1401.2,190.9,1401.2,193.5z M1390.2,193.5c0,3.8,1.3,5.7,3.9,5.7c2.6,0,3.8-1.9,3.8-5.7c0-3.7-1.3-5.6-3.9-5.6
				c-1.3,0-2.3,0.5-2.9,1.4C1390.5,190.3,1390.2,191.7,1390.2,193.5z"/>
			<path fill="#FFFFFF" d="M1410.5,199.2c0.8,0,1.6-0.1,2.4-0.4v2.6c-0.4,0.2-0.8,0.3-1.4,0.4s-1.1,0.2-1.7,0.2
				c-3,0-4.6-1.7-4.6-5.2V188h-2.1v-1.5l2.2-1.3l1.1-3.5h2v3.6h4.3v2.6h-4.3v8.8c0,0.8,0.2,1.5,0.6,1.9
				C1409.4,199,1409.9,199.2,1410.5,199.2z"/>
			<path fill="#FFFFFF" d="M1423.6,185c1.9,0,3.4,0.7,4.4,2.2c1.1,1.5,1.6,3.6,1.6,6.2c0,2.7-0.5,4.8-1.6,6.3
				c-1.1,1.5-2.5,2.2-4.4,2.2c-1.9,0-3.4-0.7-4.5-2.2h-0.2l-0.6,1.9h-2.4v-23h3.2v5.5c0,0.4,0,1-0.1,1.8c0,0.8-0.1,1.3-0.1,1.5h0.1
				C1420.2,185.8,1421.7,185,1423.6,185z M1422.8,187.9c-1.3,0-2.2,0.4-2.8,1.2c-0.6,0.8-0.9,2.2-0.9,4.1v0.2c0,2,0.3,3.4,0.9,4.3
				c0.6,0.9,1.5,1.3,2.9,1.3c1.1,0,2-0.5,2.6-1.5c0.6-1,0.9-2.4,0.9-4.2C1426.3,189.7,1425.2,187.9,1422.8,187.9z"/>
			<path fill="#FFFFFF" d="M1442.8,201.7l-0.6-2.3h-0.1c-0.7,1-1.5,1.7-2.2,2c-0.7,0.4-1.7,0.5-2.8,0.5c-1.5,0-2.6-0.4-3.5-1.3
				c-0.8-0.9-1.3-2.1-1.3-3.7c0-1.7,0.6-3,1.7-3.8c1.2-0.9,2.9-1.3,5.3-1.4l2.6-0.1v-0.9c0-1-0.2-1.8-0.7-2.3s-1.2-0.8-2.1-0.8
				c-0.8,0-1.5,0.1-2.2,0.4c-0.7,0.2-1.4,0.5-2.1,0.9l-1-2.5c0.8-0.5,1.7-0.8,2.7-1.1c1-0.2,1.9-0.4,2.8-0.4c1.9,0,3.4,0.5,4.4,1.4
				s1.5,2.3,1.5,4.3v11H1442.8z M1438,199.3c1.2,0,2.1-0.4,2.8-1.1c0.7-0.7,1.1-1.7,1.1-3v-1.4l-1.9,0.1c-1.5,0.1-2.6,0.3-3.3,0.8
				c-0.7,0.5-1,1.2-1,2.2c0,0.7,0.2,1.3,0.6,1.7C1436.6,199.1,1437.2,199.3,1438,199.3z"/>
			<path fill="#FFFFFF" d="M1452.8,201.7h-3.2v-23h3.2V201.7z"/>
			<path fill="#FFFFFF" d="M1460.6,201.7h-3.2v-23h3.2V201.7z"/>
			<path fill="#FFFFFF" d="M1481.3,182.8c-1.9,0-3.4,0.7-4.4,2.2c-1.1,1.4-1.6,3.4-1.6,6c0,2.7,0.5,4.7,1.6,6c1,1.4,2.5,2,4.5,2
				c0.8,0,1.7-0.1,2.5-0.3s1.6-0.4,2.5-0.7v3c-1.6,0.6-3.3,1-5.3,1c-2.9,0-5.2-1-6.7-2.9c-1.6-1.9-2.4-4.7-2.4-8.2
				c0-2.2,0.4-4.2,1.1-5.9c0.8-1.7,1.9-3,3.3-3.9c1.4-0.9,3.1-1.3,5.1-1.3c2,0,3.9,0.5,5.7,1.4l-1.2,2.9c-0.7-0.3-1.4-0.6-2.1-0.9
				C1483,182.9,1482.2,182.8,1481.3,182.8z"/>
			<path fill="#FFFFFF" d="M1493.5,201.7h-3.2v-23h3.2V201.7z"/>
			<path fill="#FFFFFF" d="M1508.7,201.7l-0.5-2.1h-0.2c-0.4,0.8-1.1,1.4-1.9,1.8s-1.8,0.7-2.8,0.7c-1.8,0-3.2-0.5-4.1-1.5
				c-0.9-1-1.4-2.5-1.4-4.5v-10.7h3.2v10.1c0,1.3,0.2,2.2,0.7,2.8c0.5,0.6,1.2,0.9,2.2,0.9c1.3,0,2.3-0.4,3-1.3c0.6-0.9,1-2.3,1-4.4
				v-8.1h3.2v16.4H1508.7z"/>
			<path fill="#FFFFFF" d="M1523.6,185c1.9,0,3.4,0.7,4.4,2.2c1.1,1.5,1.6,3.6,1.6,6.2c0,2.7-0.5,4.8-1.6,6.3
				c-1.1,1.5-2.5,2.2-4.4,2.2c-1.9,0-3.4-0.7-4.5-2.2h-0.2l-0.6,1.9h-2.4v-23h3.2v5.5c0,0.4,0,1-0.1,1.8c0,0.8-0.1,1.3-0.1,1.5h0.1
				C1520.1,185.8,1521.6,185,1523.6,185z M1522.7,187.9c-1.3,0-2.2,0.4-2.8,1.2c-0.6,0.8-0.9,2.2-0.9,4.1v0.2c0,2,0.3,3.4,0.9,4.3
				c0.6,0.9,1.5,1.3,2.9,1.3c1.1,0,2-0.5,2.6-1.5c0.6-1,0.9-2.4,0.9-4.2C1526.2,189.7,1525.1,187.9,1522.7,187.9z"/>
		</g>
	</g>
	<text transform="matrix(1 0 0 1 74.1797 76.0196)" fill="#FFFFFF" font-family="'OpenSans-Semibold'" font-size="31">Geellong Football Club</text>
</g>
</svg>
