<!-- Generator: Adobe Illustrator 18.0.0, SVG Export Plug-In  -->
<svg version="1.1"
	 xmlns="http://www.w3.org/2000/svg" xmlns:xlink="http://www.w3.org/1999/xlink" xmlns:a="http://ns.adobe.com/AdobeSVGViewerExtensions/3.0/"
	 x="0px" y="0px" width="486.9px" height="488.7px" viewBox="0 0 486.9 488.7" enable-background="new 0 0 486.9 488.7"
	 xml:space="preserve">
<defs>
</defs>
<g>
	<g>
		<path fill="#292F3D" d="M238.2,49c3.6,1,7.3,2,10.9,3c1,0.9,1.9,2.1,2.9,2.7c38,19.1,54.5,44.2,54.5,82.9c0,60.9,0,121.9,0,182.8
			c0,20.6,10.1,34.4,28.8,39.8c19.4,5.6,29.1-1.8,29.1-22.4c0-56.6-0.1-113.2,0.1-169.7c0-9.9,0.6-19.6,1.8-29.1
			c2.8-24.1,19.6-39.1,42.7-38.9c4.3,0,8.6,0.1,12.8,0.2c3,0.8,6.1,1.7,9.1,2.5c1,0.9,1.9,2.3,2.9,2.7c34.9,12.2,53,51,52.8,81
			c-0.5,75-0.2,150.3-0.2,225.4c0,23.9,0,23.5-23.6,17.2c-9.4-2.5-11.6-6.1-11.6-15.2c0.3-78,0.3-156,0.1-234.1
			c0-6-0.7-12.3-2.4-18.5c-3.5-12.6-12.2-20.8-23.8-23.7c-11.7-2.9-19.3,0.2-22.5,11.1c-1.9,6.6-2.9,14-3,21.4
			c-0.2,59.4-0.1,118.9-0.2,178.3c0,5.4,0.2,11.1-0.9,16c-7.3,31.7-36.5,42.7-72.8,27.8c-32.4-13.3-54.3-44.8-54.4-78.5
			c-0.1-60.9,0-121.8,0-182.7c0-3,0.1-6-0.1-9c-1.7-21.2-15.3-35.2-35.3-36.3c-11.6-0.7-18.7,7.8-18.7,23
			c-0.1,59.2,0,118.5-0.1,177.7c0,7.4-0.5,14.8-1.7,21.8c-9.5,53-69.7,41.5-99.5,12c-19-18.8-25.9-40.2-26-61.9
			c-0.5-62.6-0.1-125-0.2-187.5c0-15.5-9.2-27.6-24-32.8c-15.3-5.4-25.7-0.5-28.3,13.7c-0.9,5-1.4,10.2-1.4,15.5
			C36,140.9,36,214.8,36,288.6c0,2.4-0.2,4.7,0,7.1c0.5,5.9-2,7.3-8,5.4c-9.4-2.9-18.7-5.1-28.1-7.6C0,210,0,126.5,0,43
			c0.8-1.6,2-3.1,2.3-4.9C8-2.9,47.8-9.3,84.3,11.7c25.4,14.6,40.7,40.7,40.8,70.3c0.2,60.2,0,120.3,0.1,180.4
			c0,4.7,0.4,9.6,1.3,14.5c3.1,16.4,11.5,25.7,26.8,30.1c15.4,4.4,24.6-0.4,27.5-15c0.8-4.1,1.3-8.5,1.4-12.9
			c0.1-21.7,0-43.6,0.1-65.3c0.1-40.3-0.4-80.7,0.4-120.8c0.6-30.2,20.6-46.2,50.9-43.1C235.1,50,236.6,49.3,238.2,49z"/>
		<g>
			<path fill="#292F3D" d="M21.5,326.9l8.2,2.4v26.3l-5.3-1.6v-17.8c0-0.5,0-1.2,0-2.1c0-0.9,0-1.6,0-2.1l-5.2,20.5l-5.5-1.6
				l-5.1-23.5c0,0.5,0,1.2,0,2.1c0,0.9,0,1.6,0,2.2v17.8l-5.3-1.6v-26.2l8.3,2.4l4.9,22.1L21.5,326.9z"/>
			<path fill="#292F3D" d="M55.9,341.7l-14.4-4.2v5.6l13.2,3.9v4.6l-13.2-3.9v6.8l15,4.5v4.7L36,357.5v-26.3l19.9,5.9V341.7z"/>
			<path fill="#292F3D" d="M61.8,338.8l5.7,1.7v21.6l13.6,4v4.7l-19.2-5.7V338.8z"/>
			<path fill="#292F3D" d="M106,354.7c0.8,1.4,1.2,2.8,1.2,4.4c0,1.6-0.4,2.8-1.3,3.5c-0.5,0.4-1.2,0.7-2.1,0.9
				c1.4,0.9,2.4,2,3.1,3.3c0.7,1.3,1.1,2.7,1.1,4.2c0,1.6-0.4,2.8-1.2,3.8c-0.5,0.7-1.2,1.2-1.9,1.5c-0.9,0.4-1.9,0.5-3.1,0.4
				c-1.2-0.1-2.5-0.4-3.8-0.8l-12.2-3.6v-26.3l13.1,3.9C102.3,350.8,104.7,352.4,106,354.7z M91.3,352.1v5.8l6.6,2
				c1.2,0.3,2.1,0.4,2.9,0.2c0.7-0.2,1.1-0.9,1.1-2c0-1.2-0.5-2.2-1.5-2.9c-0.8-0.5-1.9-1-3.2-1.4L91.3,352.1z M91.3,362.3v7l6.6,2
				c1.2,0.3,2.1,0.5,2.8,0.3c1.2-0.2,1.8-1.1,1.8-2.8c0-1.4-0.6-2.5-1.7-3.3c-0.6-0.5-1.5-0.9-2.7-1.3L91.3,362.3z"/>
			<path fill="#292F3D" d="M134.8,384.4c-2.1,1.4-5,1.6-8.9,0.4c-3.9-1.2-6.9-3.1-8.9-5.7c-2.8-3.3-4.1-7.4-4.1-12.1
				c0-4.8,1.4-8.1,4.1-9.7c2.1-1.4,5-1.6,8.9-0.5c3.9,1.1,6.9,3,8.9,5.7c2.7,3.2,4.1,7.3,4.1,12.1
				C138.9,379.5,137.6,382.7,134.8,384.4z M131.3,379.4c1.3-1.2,2-3.3,2-6.3c0-3-0.7-5.4-2-7.5c-1.3-2-3.1-3.3-5.4-4
				c-2.2-0.7-4-0.4-5.4,0.8c-1.3,1.2-2,3.3-2,6.3c0,3,0.7,5.5,2,7.5c1.3,2,3.1,3.3,5.4,4C128.2,380.9,130,380.6,131.3,379.4z"/>
			<path fill="#292F3D" d="M144.1,363.1l5.8,1.7V381c0,1.8,0.2,3.2,0.7,4.2c0.7,1.7,2.2,2.9,4.5,3.5c2.3,0.7,3.8,0.4,4.5-0.9
				c0.4-0.7,0.7-2,0.7-3.8v-16.2l5.8,1.7v16.3c0,2.8-0.4,4.9-1.3,6.2c-1.7,2.4-4.9,2.9-9.6,1.5s-7.9-3.8-9.6-7.1
				c-0.9-1.8-1.3-4.1-1.3-7V363.1z"/>
			<path fill="#292F3D" d="M189.7,377.2c1,0.7,1.8,1.6,2.5,2.6c0.6,0.8,1,1.7,1.4,2.6c0.3,0.9,0.5,1.9,0.5,2.9c0,1.3-0.3,2.4-1,3.4
				c-0.7,1-1.7,1.6-3.2,1.6c1.3,0.9,2.1,1.8,2.7,2.9c0.5,1.1,0.8,2.5,0.8,4.4v1.8c0,1.2,0,2,0.1,2.5c0.1,0.7,0.5,1.3,1,1.8v0.7
				l-6.3-1.9c-0.2-0.6-0.3-1.1-0.4-1.5c-0.1-0.8-0.2-1.6-0.2-2.4l0-2.5c0-1.7-0.3-2.9-0.9-3.6c-0.6-0.7-1.7-1.3-3.2-1.8l-5.5-1.6
				v10.4l-5.5-1.6v-26.5l13,3.8C187.3,375.9,188.7,376.5,189.7,377.2z M178,377.7v7.1l6.1,1.8c1.2,0.4,2.1,0.5,2.7,0.4
				c1.1-0.2,1.6-1,1.6-2.5c0-1.6-0.5-2.8-1.6-3.7c-0.6-0.5-1.5-0.9-2.6-1.2L178,377.7z"/>
			<path fill="#292F3D" d="M200.3,379.7l6,1.8l10.8,21.7v-18.5l5.3,1.6v26.5l-5.7-1.7L205.6,389v18.8l-5.3-1.6V379.7z"/>
			<path fill="#292F3D" d="M248.6,398.7l-14.4-4.2v5.6l13.2,3.9v4.6l-13.2-3.9v6.8l15,4.5v4.8l-20.6-6.1v-26.5l19.9,5.9V398.7z"/>
			<path fill="#292F3D" d="M284,404.4l8.2,2.4v26.6l-5.3-1.6v-18c0-0.5,0-1.2,0-2.2c0-0.9,0-1.6,0-2.2l-5.2,20.8l-5.5-1.6l-5.1-23.8
				c0,0.5,0,1.2,0,2.2c0,0.9,0,1.7,0,2.2v18l-5.3-1.6V399l8.3,2.4l4.9,22.4L284,404.4z"/>
			<path fill="#292F3D" d="M319.2,439c-2.1,1.5-5,1.6-8.9,0.5c-3.9-1.2-6.9-3.1-8.9-5.7c-2.8-3.4-4.1-7.4-4.1-12.2
				c0-4.9,1.4-8.1,4.1-9.8c2.1-1.5,5-1.6,8.9-0.5c3.9,1.1,6.9,3.1,8.9,5.7c2.7,3.3,4.1,7.3,4.1,12.2
				C323.3,434.1,321.9,437.3,319.2,439z M315.7,433.9c1.3-1.2,2-3.4,2-6.4c0-3-0.7-5.5-2-7.5c-1.3-2-3.1-3.4-5.4-4
				c-2.2-0.7-4-0.4-5.4,0.8c-1.3,1.2-2,3.3-2,6.3c0,3,0.7,5.5,2,7.5c1.3,2,3.1,3.4,5.4,4C312.5,435.5,314.3,435.2,315.7,433.9z"/>
			<path fill="#292F3D" d="M344.4,422.2l5.9,1.7l-9.3,23.9l-5.4-1.6l-9.2-29.4l6.1,1.8l5.9,22L344.4,422.2z"/>
			<path fill="#292F3D" d="M374.7,435.9l-14.4-4.2v5.7l13.2,3.9v4.6l-13.2-3.9v6.9l15,4.5v4.8l-20.6-6.1v-26.7l19.9,5.9V435.9z"/>
			<path fill="#292F3D" d="M398.6,438.2l8.2,2.4v26.7l-5.3-1.6v-18.1c0-0.5,0-1.2,0-2.2c0-0.9,0-1.7,0-2.2l-5.2,20.9l-5.5-1.6
				l-5.1-23.9c0,0.5,0,1.2,0,2.2c0,0.9,0,1.7,0,2.2v18.1l-5.3-1.6v-26.7l8.3,2.4l4.9,22.5L398.6,438.2z"/>
			<path fill="#292F3D" d="M433,453.1l-14.4-4.2v5.7l13.2,3.9v4.7l-13.2-3.9v6.9l15,4.5v4.8l-20.6-6.1v-26.8l19.9,5.9V453.1z"/>
			<path fill="#292F3D" d="M438.9,450.1l6,1.8l10.8,21.9V455l5.3,1.6v26.8l-5.7-1.7l-11.1-22.3v19l-5.3-1.6V450.1z"/>
			<path fill="#292F3D" d="M486.9,464.2v4.8l-8.1-2.4v22.1L473,487v-22.1l-8.2-2.4v-4.7L486.9,464.2z"/>
		</g>
	</g>
</g>
</svg>
