<!-- Generator: Adobe Illustrator 18.0.0, SVG Export Plug-In  -->
<svg version="1.1"
	 xmlns="http://www.w3.org/2000/svg" xmlns:xlink="http://www.w3.org/1999/xlink" xmlns:a="http://ns.adobe.com/AdobeSVGViewerExtensions/3.0/"
	 x="0px" y="0px" width="251.7px" height="177.9px" viewBox="0 0 251.7 177.9" enable-background="new 0 0 251.7 177.9"
	 xml:space="preserve">
<defs>
</defs>
<g>
	<g>
		<path fill="#243772" d="M225,127.1c-0.6-0.1-1-0.2-1.4-0.4c-20.7-5.2-41.4-10.4-62.1-15.7c-4.5-1.1-9-2.3-13.5-3.6
			c-6.6-1.8-11.8-8.3-12.3-15.2c-0.1-1.7-0.2-3.4-0.2-5.1c0-14.3,0-28.5,0-42.8c0-3.1,0.6-6,2.4-8.1c2.6-2.8,6-4,10.2-3
			c30,7.4,59.9,14.9,89.9,22.4c6.7,1.7,11.9,7.2,13.3,14.4c0.2,1.1,0.3,2.2,0.3,3.3c0,31,0,62.1,0.1,93.1c0,7.9-4.4,12.7-12.4,11.1
			c-0.6-0.1-1.3-0.3-1.9-0.4c-29.6-7.5-59.3-15.2-88.9-22.6c-6.8-1.7-11.2-7.7-12.6-13.2c-2.6-10.1,3.7-17.1,13.3-14.7
			c24.4,6.2,48.8,12.4,73.2,18.5c1.7,0.4,2.7-0.3,2.7-2.1c0-5,0-9.9,0-14.9C225,128,225,127.6,225,127.1z M224.9,80.6
			c-0.3-0.1-0.6-0.1-0.8-0.2c-19.9-5-39.8-10-59.7-14.9c-1.1-0.3-2.3,0.6-2.3,1.9c0,5.3,0,10.6,0,15.9c0,0.4,0,0.7,0.1,1.1
			c0.4,0.1,0.7,0.2,1,0.3c19.8,5,39.7,10,59.5,14.9c1.1,0.3,2.3-0.6,2.3-1.8c0-5.4,0-10.9,0-16.3C224.9,81.2,224.9,80.9,224.9,80.6z
			"/>
		<path fill="#243772" d="M76.8,32.3c0.1,9-7,14.6-15.9,12.3c-9-2.3-16-11.9-15.7-21.1c0.3-8.4,6.9-13.9,15.8-11.8
			C69.8,13.8,76.8,23.1,76.8,32.3z"/>
		<path fill="#243772" d="M90.5,35.4c0-9,6.9-14.7,15.7-12.4c9,2.3,15.6,11.4,15.8,20.2c0.2,9.3-6.9,15-15.8,12.8
			C97.2,53.6,90.4,44.3,90.5,35.4z"/>
		<path fill="#243772" d="M76.9,120c0.2,9.1-7.2,14.2-15.1,12.5c-8.5-1.8-16.2-10.8-16.5-20.1c-0.3-9.7,7.2-14.9,15.4-13
			C69.8,101.5,76.8,110.6,76.9,120z"/>
		<path fill="#243772" d="M31.5,20.9c0.3,8.5-6.6,14.6-15.7,12.3C7.1,31.1,0.1,22.1,0,13C-0.1,3.8,7-1.7,15.8,0.5
			C25.4,2.9,31.8,12.8,31.5,20.9z"/>
		<path fill="#243772" d="M31.6,64.7c0.1,8.8-6.8,14.5-15.3,12.5c-8.7-2-16-11.2-16.2-20c-0.2-9.8,7.3-14.7,15.2-13
			C24.3,46,31.8,55.9,31.6,64.7z"/>
		<path fill="#243772" d="M76.8,76.1c0,9-7,14.6-15.7,12.4c-8.7-2.2-15.7-11.3-15.9-20.4c-0.1-9.4,7.4-14.5,15.5-12.6
			C69.4,57.5,76.9,66.8,76.8,76.1z"/>
		<path fill="#243772" d="M106.3,67c8.8,2.2,15.8,11.3,15.8,20.5c0,9.1-7.1,14.6-15.8,12.4c-8.7-2.2-15.6-11.4-15.8-20.5
			C90.4,70.2,98,64.7,106.3,67z"/>
		<path fill="#243772" d="M31.6,108.5c0.3,8.9-7.2,14.3-15.5,12.4c-8.3-2-15.9-10.8-16-20.3C-0.1,91,7.4,86.1,15.5,87.9
			C24.9,90.1,31.9,100.1,31.6,108.5z"/>
		<path fill="#243772" d="M90.5,123.2c-0.2-9.2,7.6-14.8,16.5-12.1c8.6,2.6,15.3,11.7,15.1,20.8c-0.2,8.9-7.5,14.5-16.7,11.6
			C97.1,141,90.4,132,90.5,123.2z"/>
	</g>
</g>
</svg>
