<!-- Generator: Adobe Illustrator 18.0.0, SVG Export Plug-In  -->
<svg version="1.1"
	 xmlns="http://www.w3.org/2000/svg" xmlns:xlink="http://www.w3.org/1999/xlink" xmlns:a="http://ns.adobe.com/AdobeSVGViewerExtensions/3.0/"
	 x="0px" y="0px" width="258.7px" height="184.9px" viewBox="0 0 258.7 184.9" enable-background="new 0 0 258.7 184.9"
	 xml:space="preserve">
<defs>
</defs>
<g>
	<g>
		<path fill="none" stroke="#B6407B" stroke-width="7" stroke-miterlimit="10" stroke-dasharray="12,5" d="M228.5,130.6
			c-0.6-0.1-1-0.2-1.4-0.4c-20.7-5.2-41.4-10.4-62.1-15.7c-4.5-1.1-9-2.3-13.5-3.6c-6.6-1.8-11.8-8.3-12.3-15.2
			c-0.1-1.7-0.2-3.4-0.2-5.1c0-14.3,0-28.5,0-42.8c0-3.1,0.6-6,2.4-8.1c2.6-2.8,6-4,10.2-3c30,7.4,59.9,14.9,89.9,22.4
			c6.7,1.7,11.9,7.2,13.3,14.4c0.2,1.1,0.3,2.2,0.3,3.3c0,31,0,62.1,0.1,93.1c0,7.9-4.4,12.7-12.4,11.1c-0.6-0.1-1.3-0.3-1.9-0.4
			c-29.6-7.5-59.3-15.2-88.9-22.6c-6.8-1.7-11.2-7.7-12.6-13.2c-2.6-10.1,3.7-17.1,13.3-14.7c24.4,6.2,48.8,12.4,73.2,18.5
			c1.7,0.4,2.7-0.3,2.7-2.1c0-5,0-9.9,0-14.9C228.5,131.5,228.5,131.1,228.5,130.6z M228.4,84.1c-0.3-0.1-0.6-0.1-0.8-0.2
			c-19.9-5-39.8-10-59.7-14.9c-1.1-0.3-2.3,0.6-2.3,1.9c0,5.3,0,10.6,0,15.9c0,0.4,0,0.7,0.1,1.1c0.4,0.1,0.7,0.2,1,0.3
			c19.8,5,39.7,10,59.5,14.9c1.1,0.3,2.3-0.6,2.3-1.8c0-5.4,0-10.9,0-16.3C228.4,84.7,228.4,84.4,228.4,84.1z"/>
		<path fill="none" stroke="#B6407B" stroke-width="7" stroke-miterlimit="10" stroke-dasharray="12,5" d="M80.3,35.8
			c0.1,9-7,14.6-15.9,12.3c-9-2.3-16-11.9-15.7-21.1c0.3-8.4,6.9-13.9,15.8-11.8C73.3,17.3,80.3,26.6,80.3,35.8z"/>
		<path fill="none" stroke="#B6407B" stroke-width="7" stroke-miterlimit="10" stroke-dasharray="12,5" d="M94,38.9
			c0-9,6.9-14.7,15.7-12.4c9,2.3,15.6,11.4,15.8,20.2c0.2,9.3-6.9,15-15.8,12.8C100.7,57.1,93.9,47.8,94,38.9z"/>
		<path fill="none" stroke="#B6407B" stroke-width="7" stroke-miterlimit="10" stroke-dasharray="12,5" d="M80.4,123.5
			c0.2,9.1-7.2,14.2-15.1,12.5c-8.5-1.8-16.2-10.8-16.5-20.1c-0.3-9.7,7.2-14.9,15.4-13C73.3,105,80.3,114.1,80.4,123.5z"/>
		<path fill="none" stroke="#B6407B" stroke-width="7" stroke-miterlimit="10" stroke-dasharray="12,5" d="M35,24.4
			C35.3,33,28.5,39,19.3,36.8C10.6,34.6,3.6,25.6,3.5,16.5C3.4,7.3,10.5,1.8,19.3,4C28.9,6.4,35.3,16.3,35,24.4z"/>
		<path fill="none" stroke="#B6407B" stroke-width="7" stroke-miterlimit="10" stroke-dasharray="12,5" d="M35.1,68.2
			c0.1,8.8-6.8,14.5-15.3,12.5c-8.7-2-16-11.2-16.2-20c-0.2-9.8,7.3-14.7,15.2-13C27.8,49.5,35.3,59.4,35.1,68.2z"/>
		<path fill="none" stroke="#B6407B" stroke-width="7" stroke-miterlimit="10" stroke-dasharray="12,5" d="M80.3,79.6
			c0,9-7,14.6-15.7,12.4C56,89.9,48.9,80.7,48.8,71.6c-0.1-9.4,7.4-14.5,15.5-12.6C72.9,61,80.4,70.3,80.3,79.6z"/>
		<path fill="none" stroke="#B6407B" stroke-width="7" stroke-miterlimit="10" stroke-dasharray="12,5" d="M109.8,70.5
			c8.8,2.2,15.8,11.3,15.8,20.5c0,9.1-7.1,14.6-15.8,12.4C101.1,101.2,94.1,92,94,82.9C93.9,73.7,101.5,68.2,109.8,70.5z"/>
		<path fill="none" stroke="#B6407B" stroke-width="7" stroke-miterlimit="10" stroke-dasharray="12,5" d="M35.1,112
			c0.3,8.9-7.2,14.3-15.5,12.4c-8.3-2-15.9-10.8-16-20.3C3.4,94.5,10.9,89.6,19,91.4C28.4,93.6,35.4,103.6,35.1,112z"/>
		<path fill="none" stroke="#B6407B" stroke-width="7" stroke-miterlimit="10" stroke-dasharray="12,5" d="M94,126.7
			c-0.2-9.2,7.6-14.8,16.5-12.1c8.6,2.6,15.3,11.7,15.1,20.8c-0.2,8.9-7.5,14.5-16.7,11.6C100.6,144.5,93.9,135.5,94,126.7z"/>
	</g>
</g>
</svg>
