<!-- Generator: Adobe Illustrator 18.0.0, SVG Export Plug-In  -->
<svg version="1.1"
	 xmlns="http://www.w3.org/2000/svg" xmlns:xlink="http://www.w3.org/1999/xlink" xmlns:a="http://ns.adobe.com/AdobeSVGViewerExtensions/3.0/"
	 x="0px" y="0px" width="656.1px" height="936.8px" viewBox="0 0 656.1 936.8" enable-background="new 0 0 656.1 936.8"
	 xml:space="preserve">
<defs>
</defs>
<g>
	
		<ellipse fill="#69BE5A" stroke="#FFFFFF" stroke-width="1.8928" stroke-miterlimit="10" cx="328.1" cy="468.4" rx="327.1" ry="467.5"/>
	<path fill="none" stroke="#FFFFFF" stroke-width="5.6783" stroke-miterlimit="10" d="M24.9,469.5c0,185.5,82.4,343.5,197.7,403.3
		h204.9C542.8,812.9,625.2,655,625.2,469.5c0-187.7-84.4-347.2-201.9-405.4H226.8C109.3,122.2,24.9,281.8,24.9,469.5z"/>
	<line fill="none" stroke="#FFFFFF" stroke-width="5.6783" stroke-miterlimit="10" x1="295" y1="469.3" x2="383.2" y2="469.3"/>
	
		<rect x="203.2" y="341.6" fill="none" stroke="#FFFFFF" stroke-width="5.6783" stroke-miterlimit="10" width="273.3" height="255.8"/>
	<ellipse fill="none" stroke="#FFFFFF" stroke-width="5.6783" stroke-miterlimit="10" cx="339.1" cy="469.6" rx="44.1" ry="41.3"/>
	<ellipse fill="none" stroke="#FFFFFF" stroke-width="5.6783" stroke-miterlimit="10" cx="339.9" cy="469.3" rx="23.2" ry="21.7"/>
	<path fill="none" stroke="#FFFFFF" stroke-width="5.6783" stroke-miterlimit="10" d="M95.3,745.4c0,0,60.3-63.9,236.7-61.2
		c176.4,2.7,223.4,60.4,223.4,60.4"/>
	<path fill="none" stroke="#FFFFFF" stroke-width="5.6783" stroke-miterlimit="10" d="M95.3,189c0,0,60.3,63.9,236.7,61.2
		s223.4-60.4,223.4-60.4"/>
	<ellipse fill="#FFFFFF" cx="222.6" cy="872.8" rx="19.8" ry="18.6"/>
	<ellipse fill="#FFFFFF" cx="295" cy="872.8" rx="19.8" ry="18.6"/>
	<ellipse fill="#FFFFFF" cx="367.4" cy="872.8" rx="19.8" ry="18.6"/>
	<ellipse fill="#FFFFFF" cx="439.8" cy="872.8" rx="19.8" ry="18.6"/>
	<ellipse fill="#FFFFFF" cx="231.3" cy="64.1" rx="19.8" ry="18.6"/>
	<ellipse fill="#FFFFFF" cx="300" cy="64.1" rx="19.8" ry="18.6"/>
	<ellipse fill="#FFFFFF" cx="371.2" cy="64.1" rx="19.8" ry="18.6"/>
	<ellipse fill="#FFFFFF" cx="437.4" cy="64.1" rx="19.8" ry="18.6"/>
</g>
</svg>
