<!-- Generator: Adobe Illustrator 18.0.0, SVG Export Plug-In  -->
<svg version="1.1"
	 xmlns="http://www.w3.org/2000/svg" xmlns:xlink="http://www.w3.org/1999/xlink" xmlns:a="http://ns.adobe.com/AdobeSVGViewerExtensions/3.0/"
	 x="0px" y="0px" width="267.7px" height="386.9px" viewBox="0 0 267.7 386.9" enable-background="new 0 0 267.7 386.9"
	 xml:space="preserve">
<defs>
</defs>
<g>
	<path fill="#FFFFFF" stroke="#2B388E" stroke-width="7" stroke-miterlimit="10" stroke-dasharray="13,7" d="M118.7,22.1L6.5,27.7
		v21.6l112.1-5.6c3.8,0,6.9-4.8,6.9-10.8S122.4,22.1,118.7,22.1z"/>
	<polygon fill="#FFFFFF" stroke="#2B388E" stroke-width="7" stroke-miterlimit="10" stroke-dasharray="13,7" points="253.6,56.2 
		253.6,76.3 16,76.3 16,34.7 128.7,28.6 	"/>
	<path fill="#FFFFFF" stroke="#2B388E" stroke-width="7" stroke-miterlimit="10" stroke-dasharray="13,7" d="M250.5,338.5l-105.8,28
		c-2.6,0.7-5.2-1.2-5.3-3.9l-8.1-292.6c-0.1-2.2,1.6-4.1,3.9-4.3L249,56.5c2.4-0.2,4.5,1.7,4.5,4.2v273.7
		C253.6,336.3,252.3,338,250.5,338.5z"/>
	<g>
		<polygon fill="#FFFFFF" stroke="#2B388E" stroke-width="7" stroke-miterlimit="10" stroke-dasharray="13,7" points="38.9,295 
			25.4,296.6 25.4,276 39,274.4 		"/>
	</g>
	<g>
		<path fill="#FFFFFF" stroke="#2B388E" stroke-width="7" stroke-miterlimit="10" stroke-dasharray="13,7" d="M131.5,76.3L12.9,43.9
			l-0.3-0.1L26.2,284c0.1,1.3,0.7,2.4,1.7,3.2l111.6,80.6L131.5,76.3z"/>
	</g>
	<g>
		<path fill="#FFFFFF" stroke="#2B388E" stroke-width="7" stroke-miterlimit="10" stroke-dasharray="13,7" d="M257.4,329.5
			c-0.7,0-3.1,0.2-3.8,0.5l-118.1,27.4v25.1l120.2-27.9c4.2,0,8.5-5.6,8.5-12.6C264.2,335.1,261.7,329.5,257.4,329.5z"/>
		
			<ellipse fill="#FFFFFF" stroke="#2B388E" stroke-width="7" stroke-miterlimit="10" stroke-dasharray="13,7" cx="138.9" cy="370" rx="7.6" ry="12.6"/>
	</g>
	<g>
		<path fill="#FFFFFF" stroke="#2B388E" stroke-width="7" stroke-miterlimit="10" stroke-dasharray="13,7" d="M208.1,58
			c0,0-36.1-43.9-71.2-52.1C83.7-6.5,58.5,33.8,58.5,33.8l43,10.7V26.7c0-4.7,5.3-8.3,9.9-7.8l7.4,0.9c6.5,0.7,10.7,6.2,10.7,12.8
			v18.8l40.8,9.6L208.1,58z"/>
		<path fill="#FFFFFF" stroke="#2B388E" stroke-width="7" stroke-miterlimit="10" stroke-dasharray="13,7" d="M181.3,60.1
			c0,0-21.7-41.5-56.4-51.2c-42.3-11.8-66,24.8-66,24.8l42.6,10.7V26.7c0-4.7,5.7-8.3,10.3-7.8l8.9,0.9c6.5,0.7,11.8,6.2,11.8,12.8
			l0.1,18.7l39.7,9.6L181.3,60.1z"/>
	</g>
	
		<ellipse fill="#FFFFFF" stroke="#2B388E" stroke-width="7" stroke-miterlimit="10" stroke-dasharray="13,7" cx="10.4" cy="38.5" rx="6.9" ry="10.8"/>
	
		<ellipse fill="#FFFFFF" stroke="#2B388E" stroke-width="7" stroke-miterlimit="10" stroke-dasharray="13,7" cx="25.4" cy="286.8" rx="7.8" ry="9.8"/>
	<polygon fill="#FFFFFF" stroke="#2B388E" stroke-width="7" stroke-miterlimit="10" stroke-dasharray="13,7" points="179.7,50.5 
		185.3,61.6 219.3,59.1 210.8,48.7 	"/>
	<polygon fill="#FFFFFF" stroke="#2B388E" stroke-width="7" stroke-miterlimit="10" stroke-dasharray="13,7" points="179.7,50.4 
		185.3,61.6 181.7,61.9 	"/>
</g>
</svg>
