<!-- Generator: Adobe Illustrator 18.0.0, SVG Export Plug-In  -->
<svg version="1.1"
	 xmlns="http://www.w3.org/2000/svg" xmlns:xlink="http://www.w3.org/1999/xlink" xmlns:a="http://ns.adobe.com/AdobeSVGViewerExtensions/3.0/"
	 x="0px" y="0px" width="1556.2px" height="80.2px" viewBox="0 0 1556.2 80.2" enable-background="new 0 0 1556.2 80.2"
	 xml:space="preserve">
<defs>
</defs>
<g>
	<g>
		<circle fill="#FFFFFF" cx="1125.4" cy="23" r="7.7"/>
		<line fill="none" stroke="#FFFFFF" stroke-width="1.8928" stroke-miterlimit="10" x1="1143.9" y1="46.2" x2="1556.1" y2="46.2"/>
		<g>
			<path fill="#FFFFFF" d="M1411,73.2c0,2.2-0.8,3.9-2.3,5.1c-1.6,1.2-3.7,1.8-6.5,1.8c-2.8,0-5-0.4-6.8-1.3v-3.8
				c1.1,0.5,2.3,0.9,3.5,1.2c1.2,0.3,2.4,0.4,3.5,0.4c1.6,0,2.7-0.3,3.5-0.9s1.1-1.4,1.1-2.4c0-0.9-0.3-1.7-1-2.3
				c-0.7-0.6-2.1-1.4-4.3-2.2c-2.2-0.9-3.8-1.9-4.7-3.1s-1.4-2.5-1.4-4.2c0-2,0.7-3.6,2.2-4.8c1.4-1.2,3.4-1.7,5.8-1.7
				c2.3,0,4.6,0.5,7,1.5l-1.3,3.2c-2.2-0.9-4.1-1.4-5.8-1.4c-1.3,0-2.3,0.3-2.9,0.8c-0.7,0.6-1,1.3-1,2.2c0,0.6,0.1,1.2,0.4,1.6
				c0.3,0.4,0.7,0.9,1.3,1.3c0.6,0.4,1.7,0.9,3.3,1.6c1.8,0.7,3.1,1.4,3.9,2.1c0.8,0.6,1.4,1.4,1.8,2.2
				C1410.8,71.2,1411,72.1,1411,73.2z"/>
			<path fill="#FFFFFF" d="M1415.1,56.6c0-0.7,0.2-1.2,0.6-1.6s0.9-0.6,1.6-0.6c0.7,0,1.2,0.2,1.6,0.6s0.6,0.9,0.6,1.6
				c0,0.7-0.2,1.2-0.6,1.6s-0.9,0.6-1.6,0.6c-0.7,0-1.3-0.2-1.6-0.6S1415.1,57.2,1415.1,56.6z M1419.2,79.8h-3.9V61.4h3.9V79.8z"/>
			<path fill="#FFFFFF" d="M1441,79.8h-3.9V68.5c0-1.4-0.3-2.5-0.9-3.2c-0.6-0.7-1.5-1-2.7-1c-1.7,0-2.9,0.5-3.6,1.5
				c-0.8,1-1.1,2.6-1.1,4.9v9.2h-3.9V61.4h3.1l0.5,2.4h0.2c0.6-0.9,1.3-1.6,2.4-2c1-0.5,2.2-0.7,3.4-0.7c4.4,0,6.6,2.2,6.6,6.7V79.8
				z"/>
			<path fill="#FFFFFF" d="M1453.8,80.2c-2.8,0-4.9-0.8-6.3-2.4c-1.4-1.6-2.2-4-2.2-7c0-3.1,0.8-5.5,2.3-7.1s3.7-2.5,6.6-2.5
				c1.9,0,3.7,0.4,5.2,1.1l-1.2,3.1c-1.7-0.6-3-1-4.1-1c-3.2,0-4.8,2.1-4.8,6.3c0,2.1,0.4,3.6,1.2,4.6s2,1.6,3.5,1.6
				c1.7,0,3.4-0.4,4.9-1.3V79c-0.7,0.4-1.4,0.7-2.2,0.9C1455.9,80.1,1455,80.2,1453.8,80.2z"/>
			<path fill="#FFFFFF" d="M1471.3,80.2c-2.9,0-5.1-0.8-6.7-2.5s-2.4-4-2.4-6.9c0-3,0.7-5.4,2.2-7.1c1.5-1.7,3.6-2.6,6.2-2.6
				c2.4,0,4.3,0.7,5.8,2.2c1.4,1.5,2.1,3.5,2.1,6.1v2.1h-12.3c0.1,1.8,0.5,3.2,1.4,4.1s2.2,1.4,3.8,1.4c1.1,0,2.1-0.1,3-0.3
				c0.9-0.2,1.9-0.5,3-1v3.2c-1,0.5-1.9,0.8-2.9,1C1473.7,80.1,1472.6,80.2,1471.3,80.2z M1470.6,64.1c-1.2,0-2.2,0.4-3,1.2
				c-0.7,0.8-1.2,1.9-1.3,3.4h8.4c0-1.5-0.4-2.7-1.1-3.5S1471.9,64.1,1470.6,64.1z"/>
			<path fill="#FFFFFF" d="M1493.1,79.8h-3.9V64.1c0-1.9,0-3.4,0.1-4.5c-0.3,0.3-0.6,0.6-0.9,0.9c-0.4,0.3-1.6,1.3-3.7,3.1l-2-2.5
				l7.2-5.6h3.3V79.8z"/>
			<path fill="#FFFFFF" d="M1509.3,55.2c2.3,0,4.1,0.5,5.5,1.6c1.3,1.1,2,2.5,2,4.3c0,2.5-1.5,4.5-4.5,6c1.9,1,3.3,2,4.1,3
				c0.8,1.1,1.2,2.2,1.2,3.5c0,2-0.7,3.6-2.2,4.8s-3.5,1.8-6,1.8c-2.6,0-4.7-0.6-6.1-1.7c-1.5-1.1-2.2-2.7-2.2-4.8
				c0-1.4,0.4-2.6,1.1-3.7s2-2,3.7-2.9c-1.5-0.9-2.5-1.8-3.2-2.8c-0.6-1-0.9-2.1-0.9-3.3c0-1.8,0.7-3.2,2.1-4.2
				C1505.3,55.7,1507.1,55.2,1509.3,55.2z M1504.8,73.5c0,1.2,0.4,2,1.2,2.7s1.9,1,3.3,1c1.4,0,2.5-0.3,3.3-1s1.2-1.6,1.2-2.7
				c0-0.9-0.4-1.7-1.1-2.5c-0.7-0.7-1.8-1.4-3.3-2.1l-0.5-0.2c-1.5,0.6-2.5,1.4-3.2,2.1C1505.1,71.7,1504.8,72.5,1504.8,73.5z
				 M1509.3,58.2c-1.1,0-2,0.3-2.7,0.8c-0.7,0.5-1,1.3-1,2.2c0,0.6,0.1,1.1,0.4,1.5c0.2,0.5,0.6,0.9,1.1,1.2
				c0.5,0.4,1.3,0.8,2.4,1.3c1.3-0.6,2.3-1.2,2.8-1.9c0.5-0.6,0.8-1.4,0.8-2.3c0-0.9-0.3-1.7-1-2.2
				C1511.3,58.5,1510.4,58.2,1509.3,58.2z"/>
			<path fill="#FFFFFF" d="M1528.7,55.2c2.3,0,4.1,0.5,5.5,1.6c1.3,1.1,2,2.5,2,4.3c0,2.5-1.5,4.5-4.5,6c1.9,1,3.3,2,4.1,3
				c0.8,1.1,1.2,2.2,1.2,3.5c0,2-0.7,3.6-2.2,4.8s-3.5,1.8-6,1.8c-2.6,0-4.7-0.6-6.1-1.7c-1.5-1.1-2.2-2.7-2.2-4.8
				c0-1.4,0.4-2.6,1.1-3.7s2-2,3.7-2.9c-1.5-0.9-2.5-1.8-3.2-2.8c-0.6-1-0.9-2.1-0.9-3.3c0-1.8,0.7-3.2,2.1-4.2
				C1524.7,55.7,1526.5,55.2,1528.7,55.2z M1524.2,73.5c0,1.2,0.4,2,1.2,2.7s1.9,1,3.3,1c1.4,0,2.5-0.3,3.3-1s1.2-1.6,1.2-2.7
				c0-0.9-0.4-1.7-1.1-2.5c-0.7-0.7-1.8-1.4-3.3-2.1l-0.5-0.2c-1.5,0.6-2.5,1.4-3.2,2.1C1524.5,71.7,1524.2,72.5,1524.2,73.5z
				 M1528.7,58.2c-1.1,0-2,0.3-2.7,0.8c-0.7,0.5-1,1.3-1,2.2c0,0.6,0.1,1.1,0.4,1.5c0.2,0.5,0.6,0.9,1.1,1.2
				c0.5,0.4,1.3,0.8,2.4,1.3c1.3-0.6,2.3-1.2,2.8-1.9c0.5-0.6,0.8-1.4,0.8-2.3c0-0.9-0.3-1.7-1-2.2
				C1530.7,58.5,1529.8,58.2,1528.7,58.2z"/>
			<path fill="#FFFFFF" d="M1548.2,64.7c2.5,0,4.4,0.6,5.8,1.9c1.4,1.3,2.1,3.1,2.1,5.3c0,2.6-0.8,4.6-2.4,6.1
				c-1.6,1.5-3.9,2.2-6.9,2.2c-2.7,0-4.9-0.4-6.4-1.3v-3.5c0.9,0.5,1.9,0.9,3.1,1.2c1.2,0.3,2.2,0.4,3.2,0.4c1.8,0,3.1-0.4,4-1.2
				c0.9-0.8,1.4-1.9,1.4-3.5c0-2.9-1.9-4.4-5.6-4.4c-0.5,0-1.2,0.1-1.9,0.2s-1.4,0.2-2,0.4l-1.7-1l0.9-11.9h12.6V59h-9.2l-0.5,6
				c0.4-0.1,0.9-0.1,1.4-0.2C1546.7,64.7,1547.4,64.7,1548.2,64.7z"/>
		</g>
		<line fill="none" stroke="#FFFFFF" stroke-width="1.8928" stroke-miterlimit="10" x1="976.9" y1="23" x2="1117.7" y2="23"/>
		<g>
			<path fill="#FFFFFF" d="M1147.1,23.2v8.6h-3.3V10.3h5.6c2.6,0,4.5,0.5,5.7,1.6c1.2,1,1.9,2.6,1.9,4.7c0,2.7-1.3,4.6-3.9,5.8
				l5.6,9.6h-3.7l-4.8-8.6H1147.1z M1147.1,20.3h2.3c1.5,0,2.6-0.3,3.3-0.9s1-1.5,1-2.7c0-1.2-0.4-2.1-1.1-2.6s-1.9-0.8-3.3-0.8
				h-2.2V20.3z"/>
			<path fill="#FFFFFF" d="M1161.2,11.2c0-0.6,0.2-1.1,0.5-1.4c0.3-0.3,0.8-0.5,1.3-0.5c0.6,0,1,0.2,1.3,0.5
				c0.3,0.3,0.5,0.8,0.5,1.4c0,0.6-0.2,1.1-0.5,1.4c-0.3,0.3-0.8,0.5-1.3,0.5c-0.6,0-1-0.2-1.3-0.5S1161.2,11.8,1161.2,11.2z
				 M1164.6,31.9h-3.2V15.5h3.2V31.9z"/>
			<path fill="#FFFFFF" d="M1175.3,32.2c-2.3,0-4-0.7-5.2-2.2c-1.2-1.4-1.8-3.5-1.8-6.2c0-2.8,0.6-4.9,1.9-6.3
				c1.2-1.5,3-2.2,5.4-2.2c1.6,0,3,0.3,4.3,1l-1,2.8c-1.4-0.6-2.5-0.9-3.4-0.9c-2.6,0-3.9,1.9-3.9,5.6c0,1.8,0.3,3.2,1,4.1
				c0.7,0.9,1.6,1.4,2.9,1.4c1.4,0,2.8-0.4,4.1-1.2v3c-0.6,0.4-1.2,0.6-1.8,0.8C1177.1,32.1,1176.3,32.2,1175.3,32.2z"/>
			<path fill="#FFFFFF" d="M1196.4,31.9h-3.2V21.8c0-1.3-0.2-2.2-0.7-2.8s-1.2-0.9-2.2-0.9c-1.3,0-2.3,0.4-3,1.3
				c-0.6,0.9-1,2.3-1,4.4v8.1h-3.2v-23h3.2v5.8c0,0.9-0.1,1.9-0.2,3h0.2c0.4-0.8,1-1.4,1.8-1.8c0.8-0.4,1.7-0.7,2.7-0.7
				c3.7,0,5.5,2,5.5,6V31.9z"/>
			<path fill="#FFFFFF" d="M1213.6,31.9h-3.2V21.8c0-1.3-0.2-2.2-0.7-2.8s-1.1-0.9-2.1-0.9c-1.2,0-2.1,0.4-2.7,1.3
				c-0.6,0.9-0.9,2.3-0.9,4.4v8.1h-3.2V15.5h2.5l0.5,2.1h0.2c0.4-0.8,1-1.4,1.8-1.8c0.8-0.4,1.7-0.6,2.6-0.6c2.3,0,3.9,0.9,4.6,2.6
				h0.2c0.4-0.8,1.1-1.4,1.9-1.9c0.8-0.5,1.7-0.7,2.8-0.7c1.8,0,3.1,0.5,3.9,1.5c0.8,1,1.2,2.5,1.2,4.5v10.7h-3.2V21.8
				c0-1.3-0.2-2.2-0.7-2.8s-1.1-0.9-2.1-0.9c-1.2,0-2.2,0.4-2.7,1.3c-0.6,0.8-0.9,2.1-0.9,3.9V31.9z"/>
			<path fill="#FFFFFF" d="M1241.1,23.7c0,2.7-0.6,4.8-1.9,6.3c-1.3,1.5-3,2.2-5.3,2.2c-1.4,0-2.7-0.3-3.7-1c-1.1-0.7-1.9-1.7-2.5-3
				c-0.6-1.3-0.9-2.8-0.9-4.5c0-2.7,0.6-4.7,1.9-6.2c1.3-1.5,3-2.2,5.3-2.2c2.2,0,3.9,0.8,5.2,2.3
				C1240.4,19,1241.1,21.1,1241.1,23.7z M1230.1,23.7c0,3.8,1.3,5.7,3.9,5.7c2.6,0,3.8-1.9,3.8-5.7c0-3.7-1.3-5.6-3.9-5.6
				c-1.3,0-2.3,0.5-2.9,1.4C1230.4,20.5,1230.1,21.9,1230.1,23.7z"/>
			<path fill="#FFFFFF" d="M1258.1,31.9h-3.2V21.8c0-1.3-0.2-2.2-0.7-2.8s-1.2-0.9-2.2-0.9c-1.4,0-2.4,0.4-3,1.3s-0.9,2.3-0.9,4.4
				v8.1h-3.2V15.5h2.5l0.5,2.1h0.2c0.5-0.8,1.1-1.4,1.9-1.8c0.8-0.4,1.8-0.6,2.8-0.6c3.6,0,5.4,2,5.4,6V31.9z"/>
			<path fill="#FFFFFF" d="M1267.6,32.2c-1.9,0-3.4-0.7-4.4-2.2c-1.1-1.5-1.6-3.6-1.6-6.2c0-2.7,0.5-4.8,1.6-6.3s2.6-2.2,4.5-2.2
				c2,0,3.5,0.8,4.5,2.4h0.2c-0.2-1.2-0.2-2.1-0.2-2.8v-6h3.2v23h-2.5l-0.6-2.1h-0.2C1271.1,31.4,1269.6,32.2,1267.6,32.2z
				 M1268.5,29.4c1.3,0,2.3-0.4,2.9-1.2s0.9-2.1,0.9-3.9v-0.5c0-2.1-0.3-3.5-0.9-4.4s-1.6-1.3-2.9-1.3c-1.1,0-2,0.5-2.6,1.5
				c-0.6,1-0.9,2.4-0.9,4.2c0,1.8,0.3,3.2,0.9,4.1C1266.4,28.9,1267.3,29.4,1268.5,29.4z"/>
			<path fill="#FFFFFF" d="M1290.8,31.9h-3.2V10.3h11.3v3h-8V20h7.5v3h-7.5V31.9z"/>
			<path fill="#FFFFFF" d="M1315.6,23.7c0,2.7-0.6,4.8-1.9,6.3c-1.3,1.5-3,2.2-5.3,2.2c-1.4,0-2.7-0.3-3.7-1c-1.1-0.7-1.9-1.7-2.5-3
				c-0.6-1.3-0.9-2.8-0.9-4.5c0-2.7,0.6-4.7,1.9-6.2c1.3-1.5,3-2.2,5.3-2.2c2.2,0,3.9,0.8,5.2,2.3
				C1314.9,19,1315.6,21.1,1315.6,23.7z M1304.6,23.7c0,3.8,1.3,5.7,3.9,5.7c2.6,0,3.8-1.9,3.8-5.7c0-3.7-1.3-5.6-3.9-5.6
				c-1.3,0-2.3,0.5-2.9,1.4C1304.9,20.5,1304.6,21.9,1304.6,23.7z"/>
			<path fill="#FFFFFF" d="M1332.7,23.7c0,2.7-0.6,4.8-1.9,6.3c-1.3,1.5-3,2.2-5.3,2.2c-1.4,0-2.7-0.3-3.7-1c-1.1-0.7-1.9-1.7-2.5-3
				c-0.6-1.3-0.9-2.8-0.9-4.5c0-2.7,0.6-4.7,1.9-6.2c1.3-1.5,3-2.2,5.3-2.2c2.2,0,3.9,0.8,5.2,2.3C1332,19,1332.7,21.1,1332.7,23.7z
				 M1321.7,23.7c0,3.8,1.3,5.7,3.9,5.7c2.6,0,3.8-1.9,3.8-5.7c0-3.7-1.3-5.6-3.9-5.6c-1.3,0-2.3,0.5-2.9,1.4
				C1322,20.5,1321.7,21.9,1321.7,23.7z"/>
			<path fill="#FFFFFF" d="M1342,29.4c0.8,0,1.6-0.1,2.4-0.4v2.6c-0.4,0.2-0.8,0.3-1.4,0.4s-1.1,0.2-1.7,0.2c-3,0-4.6-1.7-4.6-5.2
				v-8.8h-2.1v-1.5l2.2-1.3l1.1-3.5h2v3.6h4.3v2.6h-4.3v8.8c0,0.8,0.2,1.5,0.6,1.9C1340.9,29.2,1341.4,29.4,1342,29.4z"/>
			<path fill="#FFFFFF" d="M1355.1,15.2c1.9,0,3.4,0.7,4.4,2.2c1.1,1.5,1.6,3.6,1.6,6.2c0,2.7-0.5,4.8-1.6,6.3
				c-1.1,1.5-2.5,2.2-4.4,2.2c-1.9,0-3.4-0.7-4.5-2.2h-0.2l-0.6,1.9h-2.4v-23h3.2v5.5c0,0.4,0,1-0.1,1.8c0,0.8-0.1,1.3-0.1,1.5h0.1
				C1351.6,16,1353.1,15.2,1355.1,15.2z M1354.3,18.1c-1.3,0-2.2,0.4-2.8,1.2c-0.6,0.8-0.9,2.2-0.9,4.1v0.2c0,2,0.3,3.4,0.9,4.3
				c0.6,0.9,1.5,1.3,2.9,1.3c1.1,0,2-0.5,2.6-1.5c0.6-1,0.9-2.4,0.9-4.2C1357.8,19.9,1356.6,18.1,1354.3,18.1z"/>
			<path fill="#FFFFFF" d="M1374.3,31.9l-0.6-2.3h-0.1c-0.7,1-1.5,1.7-2.2,2c-0.7,0.4-1.7,0.5-2.8,0.5c-1.5,0-2.6-0.4-3.5-1.3
				c-0.8-0.9-1.3-2.1-1.3-3.7c0-1.7,0.6-3,1.7-3.8c1.2-0.9,2.9-1.3,5.3-1.4l2.6-0.1V21c0-1-0.2-1.8-0.7-2.3s-1.2-0.8-2.1-0.8
				c-0.8,0-1.5,0.1-2.2,0.4c-0.7,0.2-1.4,0.5-2.1,0.9l-1-2.5c0.8-0.5,1.7-0.8,2.7-1.1c1-0.2,1.9-0.4,2.8-0.4c1.9,0,3.4,0.5,4.4,1.4
				s1.5,2.3,1.5,4.3v11H1374.3z M1369.5,29.5c1.2,0,2.1-0.4,2.8-1.1c0.7-0.7,1.1-1.7,1.1-3v-1.4l-1.9,0.1c-1.5,0.1-2.6,0.3-3.3,0.8
				c-0.7,0.5-1,1.2-1,2.2c0,0.7,0.2,1.3,0.6,1.7C1368.1,29.3,1368.7,29.5,1369.5,29.5z"/>
			<path fill="#FFFFFF" d="M1384.3,31.9h-3.2v-23h3.2V31.9z"/>
			<path fill="#FFFFFF" d="M1392.1,31.9h-3.2v-23h3.2V31.9z"/>
			<path fill="#FFFFFF" d="M1412.8,13c-1.9,0-3.4,0.7-4.4,2.2c-1.1,1.4-1.6,3.4-1.6,6c0,2.7,0.5,4.7,1.6,6c1,1.4,2.5,2,4.5,2
				c0.8,0,1.7-0.1,2.5-0.3s1.6-0.4,2.5-0.7v3c-1.6,0.6-3.3,1-5.3,1c-2.9,0-5.2-1-6.7-2.9c-1.6-1.9-2.4-4.7-2.4-8.2
				c0-2.2,0.4-4.2,1.1-5.9c0.8-1.7,1.9-3,3.3-3.9c1.4-0.9,3.1-1.3,5.1-1.3c2,0,3.9,0.5,5.7,1.4l-1.2,2.9c-0.7-0.3-1.4-0.6-2.1-0.9
				C1414.4,13.1,1413.6,13,1412.8,13z"/>
			<path fill="#FFFFFF" d="M1424.9,31.9h-3.2v-23h3.2V31.9z"/>
			<path fill="#FFFFFF" d="M1440.2,31.9l-0.5-2.1h-0.2c-0.4,0.8-1.1,1.4-1.9,1.8s-1.8,0.7-2.8,0.7c-1.8,0-3.2-0.5-4.1-1.5
				c-0.9-1-1.4-2.5-1.4-4.5V15.5h3.2v10.1c0,1.3,0.2,2.2,0.7,2.8c0.5,0.6,1.2,0.9,2.2,0.9c1.3,0,2.3-0.4,3-1.3c0.6-0.9,1-2.3,1-4.4
				v-8.1h3.2v16.4H1440.2z"/>
			<path fill="#FFFFFF" d="M1455,15.2c1.9,0,3.4,0.7,4.4,2.2c1.1,1.5,1.6,3.6,1.6,6.2c0,2.7-0.5,4.8-1.6,6.3
				c-1.1,1.5-2.5,2.2-4.4,2.2c-1.9,0-3.4-0.7-4.5-2.2h-0.2l-0.6,1.9h-2.4v-23h3.2v5.5c0,0.4,0,1-0.1,1.8c0,0.8-0.1,1.3-0.1,1.5h0.1
				C1451.5,16,1453,15.2,1455,15.2z M1454.2,18.1c-1.3,0-2.2,0.4-2.8,1.2c-0.6,0.8-0.9,2.2-0.9,4.1v0.2c0,2,0.3,3.4,0.9,4.3
				c0.6,0.9,1.5,1.3,2.9,1.3c1.1,0,2-0.5,2.6-1.5c0.6-1,0.9-2.4,0.9-4.2C1457.7,19.9,1456.5,18.1,1454.2,18.1z"/>
		</g>
	</g>
	<g>
		<circle fill="#FFFFFF" cx="422.2" cy="17.2" r="7.7"/>
		<line fill="none" stroke="#FFFFFF" stroke-width="1.8928" stroke-miterlimit="10" x1="0.1" y1="33.5" x2="404.3" y2="33.5"/>
		<g>
			<path fill="#FFFFFF" d="M15.6,57.9c0,2.2-0.8,3.9-2.3,5.1c-1.6,1.2-3.7,1.8-6.5,1.8c-2.8,0-5-0.4-6.8-1.3v-3.8
				c1.1,0.5,2.3,0.9,3.5,1.2c1.2,0.3,2.4,0.4,3.5,0.4c1.6,0,2.7-0.3,3.5-0.9s1.1-1.4,1.1-2.4c0-0.9-0.3-1.7-1-2.3
				c-0.7-0.6-2.1-1.4-4.3-2.2c-2.2-0.9-3.8-1.9-4.7-3.1S0.3,48,0.3,46.4c0-2,0.7-3.6,2.2-4.8c1.4-1.2,3.4-1.7,5.8-1.7
				c2.3,0,4.6,0.5,7,1.5l-1.3,3.2c-2.2-0.9-4.1-1.4-5.8-1.4c-1.3,0-2.3,0.3-2.9,0.8c-0.7,0.6-1,1.3-1,2.2c0,0.6,0.1,1.2,0.4,1.6
				c0.3,0.4,0.7,0.9,1.3,1.3c0.6,0.4,1.7,0.9,3.3,1.6c1.8,0.7,3.1,1.4,3.9,2.1c0.8,0.6,1.4,1.4,1.8,2.2
				C15.4,55.9,15.6,56.8,15.6,57.9z"/>
			<path fill="#FFFFFF" d="M19.6,41.2c0-0.7,0.2-1.2,0.6-1.6s0.9-0.6,1.6-0.6c0.7,0,1.2,0.2,1.6,0.6s0.6,0.9,0.6,1.6
				c0,0.7-0.2,1.2-0.6,1.6s-0.9,0.6-1.6,0.6c-0.7,0-1.3-0.2-1.6-0.6S19.6,41.9,19.6,41.2z M23.8,64.5h-3.9V46.1h3.9V64.5z"/>
			<path fill="#FFFFFF" d="M45.5,64.5h-3.9V53.2c0-1.4-0.3-2.5-0.9-3.2c-0.6-0.7-1.5-1-2.7-1c-1.7,0-2.9,0.5-3.6,1.5
				c-0.8,1-1.1,2.6-1.1,4.9v9.2h-3.9V46.1h3.1l0.5,2.4h0.2c0.6-0.9,1.3-1.6,2.4-2c1-0.5,2.2-0.7,3.4-0.7c4.4,0,6.6,2.2,6.6,6.7V64.5
				z"/>
			<path fill="#FFFFFF" d="M58.4,64.8c-2.8,0-4.9-0.8-6.3-2.4c-1.4-1.6-2.2-4-2.2-7c0-3.1,0.8-5.5,2.3-7.1s3.7-2.5,6.6-2.5
				c1.9,0,3.7,0.4,5.2,1.1L62.8,50c-1.7-0.6-3-1-4.1-1c-3.2,0-4.8,2.1-4.8,6.3c0,2.1,0.4,3.6,1.2,4.6s2,1.6,3.5,1.6
				c1.7,0,3.4-0.4,4.9-1.3v3.4c-0.7,0.4-1.4,0.7-2.2,0.9C60.5,64.8,59.5,64.8,58.4,64.8z"/>
			<path fill="#FFFFFF" d="M75.9,64.8c-2.9,0-5.1-0.8-6.7-2.5s-2.4-4-2.4-6.9c0-3,0.7-5.4,2.2-7.1c1.5-1.7,3.6-2.6,6.2-2.6
				c2.4,0,4.3,0.7,5.8,2.2c1.4,1.5,2.1,3.5,2.1,6.1v2.1H70.8c0.1,1.8,0.5,3.2,1.4,4.1s2.2,1.4,3.8,1.4c1.1,0,2.1-0.1,3-0.3
				c0.9-0.2,1.9-0.5,3-1v3.2c-1,0.5-1.9,0.8-2.9,1C78.3,64.7,77.1,64.8,75.9,64.8z M75.2,48.7c-1.2,0-2.2,0.4-3,1.2
				c-0.7,0.8-1.2,1.9-1.3,3.4h8.4c0-1.5-0.4-2.7-1.1-3.5S76.4,48.7,75.2,48.7z"/>
			<path fill="#FFFFFF" d="M97.7,64.5h-3.9V48.8c0-1.9,0-3.4,0.1-4.5c-0.3,0.3-0.6,0.6-0.9,0.9c-0.4,0.3-1.6,1.3-3.7,3.1l-2-2.5
				l7.2-5.6h3.3V64.5z"/>
			<path fill="#FFFFFF" d="M113.9,39.9c2.3,0,4.1,0.5,5.5,1.6c1.3,1.1,2,2.5,2,4.3c0,2.5-1.5,4.5-4.5,6c1.9,1,3.3,2,4.1,3
				c0.8,1.1,1.2,2.2,1.2,3.5c0,2-0.7,3.6-2.2,4.8s-3.5,1.8-6,1.8c-2.6,0-4.7-0.6-6.1-1.7c-1.5-1.1-2.2-2.7-2.2-4.8
				c0-1.4,0.4-2.6,1.1-3.7s2-2,3.7-2.9c-1.5-0.9-2.5-1.8-3.2-2.8c-0.6-1-0.9-2.1-0.9-3.3c0-1.8,0.7-3.2,2.1-4.2
				C109.8,40.4,111.6,39.9,113.9,39.9z M109.3,58.2c0,1.2,0.4,2,1.2,2.7s1.9,1,3.3,1c1.4,0,2.5-0.3,3.3-1s1.2-1.6,1.2-2.7
				c0-0.9-0.4-1.7-1.1-2.5c-0.7-0.7-1.8-1.4-3.3-2.1l-0.5-0.2c-1.5,0.6-2.5,1.4-3.2,2.1C109.7,56.3,109.3,57.2,109.3,58.2z
				 M113.8,42.9c-1.1,0-2,0.3-2.7,0.8c-0.7,0.5-1,1.3-1,2.2c0,0.6,0.1,1.1,0.4,1.5c0.2,0.5,0.6,0.9,1.1,1.2c0.5,0.4,1.3,0.8,2.4,1.3
				c1.3-0.6,2.3-1.2,2.8-1.9c0.5-0.6,0.8-1.4,0.8-2.3c0-0.9-0.3-1.7-1-2.2C115.9,43.2,115,42.9,113.8,42.9z"/>
			<path fill="#FFFFFF" d="M127.8,64.5l9.6-20.8h-12.6v-3.4h16.8V43l-9.6,21.6H127.8z"/>
			<path fill="#FFFFFF" d="M161,52.4c0,4.2-0.7,7.4-2,9.4s-3.4,3.1-6.2,3.1c-2.7,0-4.8-1.1-6.2-3.2c-1.4-2.1-2.1-5.2-2.1-9.3
				c0-4.3,0.7-7.5,2-9.5s3.4-3.1,6.2-3.1c2.7,0,4.8,1.1,6.2,3.2S161,48.2,161,52.4z M148.5,52.4c0,3.3,0.3,5.7,1,7.1
				c0.7,1.4,1.8,2.1,3.3,2.1s2.6-0.7,3.3-2.2c0.7-1.4,1-3.8,1-7.1c0-3.3-0.3-5.6-1-7.1c-0.7-1.5-1.8-2.2-3.3-2.2s-2.6,0.7-3.3,2.1
				S148.5,49,148.5,52.4z"/>
		</g>
		<line fill="none" stroke="#FFFFFF" stroke-width="1.8928" stroke-miterlimit="10" x1="642.7" y1="17.8" x2="422.2" y2="17.2"/>
		<g>
			<path fill="#FFFFFF" d="M54.4,7.9c0,2.3-0.7,4-2.1,5.2s-3.3,1.8-5.8,1.8h-2.1V23h-3.3V1.4h5.8c2.5,0,4.4,0.6,5.6,1.7
				C53.8,4.2,54.4,5.8,54.4,7.9z M44.4,11.9h1.7c1.7,0,2.9-0.3,3.7-0.9S51,9.4,51,8c0-1.2-0.4-2.2-1.1-2.8s-1.8-0.9-3.3-0.9h-2.3
				V11.9z"/>
			<path fill="#FFFFFF" d="M71.4,14.8c0,2.7-0.6,4.8-1.9,6.3c-1.3,1.5-3,2.2-5.3,2.2c-1.4,0-2.7-0.3-3.7-1c-1.1-0.7-1.9-1.7-2.5-3
				c-0.6-1.3-0.9-2.8-0.9-4.5c0-2.7,0.6-4.7,1.9-6.2c1.3-1.5,3-2.2,5.3-2.2c2.2,0,3.9,0.8,5.2,2.3C70.8,10.2,71.4,12.2,71.4,14.8z
				 M60.4,14.8c0,3.8,1.3,5.7,3.9,5.7c2.6,0,3.8-1.9,3.8-5.7c0-3.7-1.3-5.6-3.9-5.6c-1.3,0-2.3,0.5-2.9,1.4
				C60.7,11.6,60.4,13,60.4,14.8z"/>
			<path fill="#FFFFFF" d="M82.8,6.4c0.6,0,1.2,0,1.6,0.1l-0.3,3.2c-0.5-0.1-0.9-0.2-1.4-0.2c-1.3,0-2.3,0.5-3.1,1.4
				c-0.8,0.9-1.2,2.1-1.2,3.5V23h-3.2V6.7h2.5l0.4,2.9h0.2c0.5-1,1.2-1.8,2-2.3C81,6.6,81.9,6.4,82.8,6.4z"/>
			<path fill="#FFFFFF" d="M92.8,20.5c0.8,0,1.6-0.1,2.4-0.4v2.6c-0.4,0.2-0.8,0.3-1.4,0.4s-1.1,0.2-1.7,0.2c-3,0-4.6-1.7-4.6-5.2
				V9.3h-2.1V7.7l2.2-1.3L88.8,3h2v3.6H95v2.6h-4.3V18c0,0.8,0.2,1.5,0.6,1.9C91.7,20.3,92.2,20.5,92.8,20.5z"/>
			<path fill="#FFFFFF" d="M118.2,23l-2-6h-7.6l-2,6h-3.4l7.5-21.7h3.6l7.5,21.7H118.2z M115.4,14l-1.9-5.9c-0.1-0.4-0.3-1-0.6-1.9
				c-0.2-0.8-0.4-1.5-0.5-1.9c-0.2,1.2-0.6,2.5-1.1,4l-1.8,5.6H115.4z"/>
			<path fill="#FFFFFF" d="M129.1,23.3c-1.9,0-3.4-0.7-4.4-2.2c-1.1-1.5-1.6-3.6-1.6-6.2c0-2.7,0.5-4.8,1.6-6.3s2.6-2.2,4.5-2.2
				c2,0,3.5,0.8,4.5,2.4h0.2c-0.2-1.2-0.2-2.1-0.2-2.8V0h3.2v23h-2.5l-0.6-2.1h-0.2C132.6,22.5,131.1,23.3,129.1,23.3z M130,20.5
				c1.3,0,2.3-0.4,2.9-1.2s0.9-2.1,0.9-3.9v-0.5c0-2.1-0.3-3.5-0.9-4.4s-1.6-1.3-2.9-1.3c-1.1,0-2,0.5-2.6,1.5
				c-0.6,1-0.9,2.4-0.9,4.2c0,1.8,0.3,3.2,0.9,4.1C127.9,20,128.8,20.5,130,20.5z"/>
			<path fill="#FFFFFF" d="M148.1,23.3c-2.4,0-4.2-0.7-5.5-2.2s-2-3.5-2-6.1c0-2.7,0.6-4.8,1.8-6.3s2.9-2.3,5.1-2.3
				c2,0,3.6,0.7,4.7,2c1.2,1.3,1.7,3.1,1.7,5.4v1.9h-10.1c0,1.6,0.4,2.8,1.2,3.7c0.7,0.9,1.8,1.3,3.2,1.3c0.9,0,1.7-0.1,2.5-0.3
				c0.8-0.2,1.6-0.5,2.5-0.9v2.8c-0.8,0.4-1.6,0.7-2.4,0.9C150,23.2,149.1,23.3,148.1,23.3z M147.5,9c-1,0-1.8,0.4-2.5,1
				c-0.6,0.7-1,1.7-1.1,3.1h6.9c0-1.4-0.3-2.4-0.9-3.1S148.5,9,147.5,9z"/>
			<path fill="#FFFFFF" d="M160.8,23h-3.2V0h3.2V23z"/>
			<path fill="#FFFFFF" d="M174.9,23l-0.6-2.3h-0.1c-0.7,1-1.5,1.7-2.2,2c-0.7,0.4-1.7,0.5-2.8,0.5c-1.5,0-2.6-0.4-3.5-1.3
				c-0.8-0.9-1.3-2.1-1.3-3.7c0-1.7,0.6-3,1.7-3.8c1.2-0.9,2.9-1.3,5.3-1.4L174,13v-0.9c0-1-0.2-1.8-0.7-2.3S172.1,9,171.2,9
				c-0.8,0-1.5,0.1-2.2,0.4c-0.7,0.2-1.4,0.5-2.1,0.9l-1-2.5c0.8-0.5,1.7-0.8,2.7-1.1c1-0.2,1.9-0.4,2.8-0.4c1.9,0,3.4,0.5,4.4,1.4
				s1.5,2.3,1.5,4.3v11H174.9z M170.1,20.6c1.2,0,2.1-0.4,2.8-1.1c0.7-0.7,1.1-1.7,1.1-3v-1.4l-1.9,0.1c-1.5,0.1-2.6,0.3-3.3,0.8
				c-0.7,0.5-1,1.2-1,2.2c0,0.7,0.2,1.3,0.6,1.7C168.7,20.4,169.3,20.6,170.1,20.6z"/>
			<path fill="#FFFFFF" d="M181.4,2.3c0-0.6,0.2-1.1,0.5-1.4c0.3-0.3,0.8-0.5,1.3-0.5c0.6,0,1,0.2,1.3,0.5c0.3,0.3,0.5,0.8,0.5,1.4
				c0,0.6-0.2,1.1-0.5,1.4c-0.3,0.3-0.8,0.5-1.3,0.5c-0.6,0-1-0.2-1.3-0.5S181.4,2.9,181.4,2.3z M184.8,23h-3.2V6.7h3.2V23z"/>
			<path fill="#FFFFFF" d="M194.5,23.3c-1.9,0-3.4-0.7-4.4-2.2c-1.1-1.5-1.6-3.6-1.6-6.2c0-2.7,0.5-4.8,1.6-6.3s2.6-2.2,4.5-2.2
				c2,0,3.5,0.8,4.5,2.4h0.2c-0.2-1.2-0.2-2.1-0.2-2.8V0h3.2v23h-2.5l-0.6-2.1h-0.2C198,22.5,196.5,23.3,194.5,23.3z M195.4,20.5
				c1.3,0,2.3-0.4,2.9-1.2s0.9-2.1,0.9-3.9v-0.5c0-2.1-0.3-3.5-0.9-4.4s-1.6-1.3-2.9-1.3c-1.1,0-2,0.5-2.6,1.5
				c-0.6,1-0.9,2.4-0.9,4.2c0,1.8,0.3,3.2,0.9,4.1C193.3,20,194.2,20.5,195.4,20.5z"/>
			<path fill="#FFFFFF" d="M213.5,23.3c-2.4,0-4.2-0.7-5.5-2.2s-2-3.5-2-6.1c0-2.7,0.6-4.8,1.8-6.3s2.9-2.3,5.1-2.3
				c2,0,3.6,0.7,4.7,2c1.2,1.3,1.7,3.1,1.7,5.4v1.9h-10.1c0,1.6,0.4,2.8,1.2,3.7c0.7,0.9,1.8,1.3,3.2,1.3c0.9,0,1.7-0.1,2.5-0.3
				c0.8-0.2,1.6-0.5,2.5-0.9v2.8c-0.8,0.4-1.6,0.7-2.4,0.9C215.4,23.2,214.5,23.3,213.5,23.3z M212.9,9c-1,0-1.8,0.4-2.5,1
				c-0.6,0.7-1,1.7-1.1,3.1h6.9c0-1.4-0.3-2.4-0.9-3.1S213.9,9,212.9,9z"/>
			<path fill="#FFFFFF" d="M233.9,23h-3.2V1.4h11.3v3h-8v6.8h7.5v3h-7.5V23z"/>
			<path fill="#FFFFFF" d="M258.6,14.8c0,2.7-0.6,4.8-1.9,6.3c-1.3,1.5-3,2.2-5.3,2.2c-1.4,0-2.7-0.3-3.7-1c-1.1-0.7-1.9-1.7-2.5-3
				c-0.6-1.3-0.9-2.8-0.9-4.5c0-2.7,0.6-4.7,1.9-6.2c1.3-1.5,3-2.2,5.3-2.2c2.2,0,3.9,0.8,5.2,2.3C258,10.2,258.6,12.2,258.6,14.8z
				 M247.6,14.8c0,3.8,1.3,5.7,3.9,5.7c2.6,0,3.8-1.9,3.8-5.7c0-3.7-1.3-5.6-3.9-5.6c-1.3,0-2.3,0.5-2.9,1.4
				C247.9,11.6,247.6,13,247.6,14.8z"/>
			<path fill="#FFFFFF" d="M275.7,14.8c0,2.7-0.6,4.8-1.9,6.3c-1.3,1.5-3,2.2-5.3,2.2c-1.4,0-2.7-0.3-3.7-1c-1.1-0.7-1.9-1.7-2.5-3
				c-0.6-1.3-0.9-2.8-0.9-4.5c0-2.7,0.6-4.7,1.9-6.2c1.3-1.5,3-2.2,5.3-2.2c2.2,0,3.9,0.8,5.2,2.3C275.1,10.2,275.7,12.2,275.7,14.8
				z M264.7,14.8c0,3.8,1.3,5.7,3.9,5.7c2.6,0,3.8-1.9,3.8-5.7c0-3.7-1.3-5.6-3.9-5.6c-1.3,0-2.3,0.5-2.9,1.4
				C265,11.6,264.7,13,264.7,14.8z"/>
			<path fill="#FFFFFF" d="M285,20.5c0.8,0,1.6-0.1,2.4-0.4v2.6c-0.4,0.2-0.8,0.3-1.4,0.4s-1.1,0.2-1.7,0.2c-3,0-4.6-1.7-4.6-5.2
				V9.3h-2.1V7.7l2.2-1.3L281,3h2v3.6h4.3v2.6h-4.3V18c0,0.8,0.2,1.5,0.6,1.9C283.9,20.3,284.4,20.5,285,20.5z"/>
			<path fill="#FFFFFF" d="M298.1,6.4c1.9,0,3.4,0.7,4.4,2.2c1.1,1.5,1.6,3.6,1.6,6.2c0,2.7-0.5,4.8-1.6,6.3
				c-1.1,1.5-2.5,2.2-4.4,2.2c-1.9,0-3.4-0.7-4.5-2.2h-0.2l-0.6,1.9h-2.4V0h3.2v5.5c0,0.4,0,1-0.1,1.8c0,0.8-0.1,1.3-0.1,1.5h0.1
				C294.7,7.2,296.2,6.4,298.1,6.4z M297.3,9.2c-1.3,0-2.2,0.4-2.8,1.2c-0.6,0.8-0.9,2.2-0.9,4.1v0.2c0,2,0.3,3.4,0.9,4.3
				c0.6,0.9,1.5,1.3,2.9,1.3c1.1,0,2-0.5,2.6-1.5c0.6-1,0.9-2.4,0.9-4.2C300.8,11.1,299.7,9.2,297.3,9.2z"/>
			<path fill="#FFFFFF" d="M317.3,23l-0.6-2.3h-0.1c-0.7,1-1.5,1.7-2.2,2c-0.7,0.4-1.7,0.5-2.8,0.5c-1.5,0-2.6-0.4-3.5-1.3
				c-0.8-0.9-1.3-2.1-1.3-3.7c0-1.7,0.6-3,1.7-3.8c1.2-0.9,2.9-1.3,5.3-1.4l2.6-0.1v-0.9c0-1-0.2-1.8-0.7-2.3S314.6,9,313.7,9
				c-0.8,0-1.5,0.1-2.2,0.4c-0.7,0.2-1.4,0.5-2.1,0.9l-1-2.5c0.8-0.5,1.7-0.8,2.7-1.1c1-0.2,1.9-0.4,2.8-0.4c1.9,0,3.4,0.5,4.4,1.4
				s1.5,2.3,1.5,4.3v11H317.3z M312.5,20.6c1.2,0,2.1-0.4,2.8-1.1c0.7-0.7,1.1-1.7,1.1-3v-1.4l-1.9,0.1c-1.5,0.1-2.6,0.3-3.3,0.8
				c-0.7,0.5-1,1.2-1,2.2c0,0.7,0.2,1.3,0.6,1.7C311.1,20.4,311.7,20.6,312.5,20.6z"/>
			<path fill="#FFFFFF" d="M327.3,23h-3.2V0h3.2V23z"/>
			<path fill="#FFFFFF" d="M335.1,23h-3.2V0h3.2V23z"/>
			<path fill="#FFFFFF" d="M355.8,4.1c-1.9,0-3.4,0.7-4.4,2.2c-1.1,1.4-1.6,3.4-1.6,6c0,2.7,0.5,4.7,1.6,6c1,1.4,2.5,2,4.5,2
				c0.8,0,1.7-0.1,2.5-0.3s1.6-0.4,2.5-0.7v3c-1.6,0.6-3.3,1-5.3,1c-2.9,0-5.2-1-6.7-2.9c-1.6-1.9-2.4-4.7-2.4-8.2
				c0-2.2,0.4-4.2,1.1-5.9c0.8-1.7,1.9-3,3.3-3.9c1.4-0.9,3.1-1.3,5.1-1.3c2,0,3.9,0.5,5.7,1.4l-1.2,2.9c-0.7-0.3-1.4-0.6-2.1-0.9
				C357.5,4.2,356.7,4.1,355.8,4.1z"/>
			<path fill="#FFFFFF" d="M368,23h-3.2V0h3.2V23z"/>
			<path fill="#FFFFFF" d="M383.2,23l-0.5-2.1h-0.2c-0.4,0.8-1.1,1.4-1.9,1.8s-1.8,0.7-2.8,0.7c-1.8,0-3.2-0.5-4.1-1.5
				c-0.9-1-1.4-2.5-1.4-4.5V6.7h3.2v10.1c0,1.3,0.2,2.2,0.7,2.8c0.5,0.6,1.2,0.9,2.2,0.9c1.3,0,2.3-0.4,3-1.3c0.6-0.9,1-2.3,1-4.4
				V6.7h3.2V23H383.2z"/>
			<path fill="#FFFFFF" d="M398.1,6.4c1.9,0,3.4,0.7,4.4,2.2c1.1,1.5,1.6,3.6,1.6,6.2c0,2.7-0.5,4.8-1.6,6.3
				c-1.1,1.5-2.5,2.2-4.4,2.2c-1.9,0-3.4-0.7-4.5-2.2h-0.2l-0.6,1.9h-2.4V0h3.2v5.5c0,0.4,0,1-0.1,1.8c0,0.8-0.1,1.3-0.1,1.5h0.1
				C394.6,7.2,396.1,6.4,398.1,6.4z M397.2,9.2c-1.3,0-2.2,0.4-2.8,1.2c-0.6,0.8-0.9,2.2-0.9,4.1v0.2c0,2,0.3,3.4,0.9,4.3
				c0.6,0.9,1.5,1.3,2.9,1.3c1.1,0,2-0.5,2.6-1.5c0.6-1,0.9-2.4,0.9-4.2C400.7,11.1,399.6,9.2,397.2,9.2z"/>
		</g>
	</g>
</g>
</svg>
