<!-- Generator: Adobe Illustrator 18.0.0, SVG Export Plug-In  -->
<svg version="1.1"
	 xmlns="http://www.w3.org/2000/svg" xmlns:xlink="http://www.w3.org/1999/xlink" xmlns:a="http://ns.adobe.com/AdobeSVGViewerExtensions/3.0/"
	 x="0px" y="0px" width="485.2px" height="222.9px" viewBox="0 0 485.2 222.9" enable-background="new 0 0 485.2 222.9"
	 xml:space="preserve">
<defs>
</defs>
<g>
	<g>
		<g>
			<path fill="#E9C2A0" d="M74.3,218.3l346.2-106.7c0,0,36.6-22.1,21.6-57.5c-14.8-35.9-56.8-27.5-56.8-27.5L4.6,125.7L74.3,218.3z"
				/>
			<g>
				<path fill="#FFFFFF" d="M75.6,222.6c35.3-10.9,70.6-21.8,106-32.7c60.1-18.5,120.2-37.1,180.3-55.6c17.8-5.5,35.7-11,53.5-16.5
					c2.5-0.8,5.7-1.3,8-2.7c11-7.1,20-17.7,24.6-30c7.2-19.4-1.9-42-17.8-54.1c-11.4-8.6-27-11-40.9-9.7c-8.7,0.9-17.4,3.9-25.8,6.1
					c-52.8,13.8-105.6,27.5-158.4,41.3C148.7,83.4,92.5,98.1,36.3,112.7c-11,2.9-21.9,5.7-32.9,8.6c-2.6,0.7-4.5,4.3-2.7,6.7
					c23.2,30.9,46.5,61.7,69.7,92.6c3.5,4.6,11.4,0.1,7.9-4.6C55,185.1,31.8,154.2,8.6,123.4c-0.9,2.2-1.8,4.5-2.7,6.7
					c33.8-8.8,67.5-17.6,101.3-26.4C169.1,87.5,231,71.4,293,55.3c23.1-6,46.2-12,69.3-18.1c8.4-2.2,17.1-5.3,25.7-6.6
					c-1.3,0.2,1.2-0.1,1.6-0.2c1.1-0.1,2.3-0.2,3.4-0.2c3.2-0.2,6.4,0,9.7,0.3c7.8,0.7,15.4,3.4,21.9,7.8
					c17.1,11.6,21,35.6,10.4,52.6c-3.4,5.4-8.2,10.4-13.2,14.2c-1.1,0.8-2.2,1.6-3.4,2.4c-0.5,0.3,1.7-0.6,0.5-0.2
					c-3.9,1.2-7.8,2.4-11.7,3.6c-50.2,15.5-100.3,30.9-150.5,46.4c-54,16.6-107.9,33.3-161.9,49.9c-7.2,2.2-14.5,4.5-21.7,6.7
					C67.5,215.6,69.9,224.4,75.6,222.6z"/>
			</g>
		</g>
	</g>
	<g>
		<defs>
			
				<rect id="SVGID_1_" x="346.2" y="-9.6" transform="matrix(0.2709 0.9626 -0.9626 0.2709 355.2217 -330.6602)" width="99.4" height="157.6"/>
		</defs>
		<clipPath id="SVGID_2_">
			<use xlink:href="#SVGID_1_"  overflow="visible"/>
		</clipPath>
		<g clip-path="url(#SVGID_2_)">
			<path fill="#E8C19F" d="M256.4,154.1l-0.5-1.7l171.4-52.1c0,0,49.2-16,38.4-54.3c-10-35.6-59.5-21-59.5-21L235.8,72.9l-1.2-4.5"
				/>
		</g>
		
			<ellipse transform="matrix(0.2709 0.9626 -0.9626 0.2709 385.55 -353.5337)" clip-path="url(#SVGID_2_)" fill="#231F20" cx="426.2" cy="77.8" rx="3.6" ry="3.7"/>
		
			<ellipse transform="matrix(0.2709 0.9626 -0.9626 0.2709 384.8268 -355.261)" clip-path="url(#SVGID_2_)" fill="#FFFFFF" cx="426.9" cy="76.4" rx="1.4" ry="1.4"/>
		
			<ellipse transform="matrix(0.2709 0.9626 -0.9626 0.2709 351.1154 -367.0417)" clip-path="url(#SVGID_2_)" fill="#231F20" cx="417.9" cy="48.3" rx="3.6" ry="3.7"/>
		
			<ellipse transform="matrix(0.2709 0.9626 -0.9626 0.2709 350.392 -368.7691)" clip-path="url(#SVGID_2_)" fill="#FFFFFF" cx="418.6" cy="46.9" rx="1.4" ry="1.4"/>
		
			<ellipse transform="matrix(0.2709 0.9626 -0.9626 0.2709 377.7272 -336.4594)" clip-path="url(#SVGID_2_)" fill="#603A17" cx="411" cy="81.1" rx="1.1" ry="1.1"/>
		
			<ellipse transform="matrix(0.2709 0.9626 -0.9626 0.2709 382.3867 -334.6315)" clip-path="url(#SVGID_2_)" fill="#603A17" cx="412.1" cy="85.1" rx="1.1" ry="1.1"/>
		
			<ellipse transform="matrix(0.2709 0.9626 -0.9626 0.2709 387.2296 -332.7317)" clip-path="url(#SVGID_2_)" fill="#603A17" cx="413.3" cy="89.3" rx="1.1" ry="1.1"/>
		
			<ellipse transform="matrix(0.2709 0.9626 -0.9626 0.2709 383.3172 -328.8844)" clip-path="url(#SVGID_2_)" fill="#603A17" cx="408.8" cy="88.6" rx="1.1" ry="1.1"/>
		
			<ellipse transform="matrix(0.2709 0.9626 -0.9626 0.2709 378.1069 -330.9285)" clip-path="url(#SVGID_2_)" fill="#603A17" cx="407.5" cy="84.1" rx="1.1" ry="1.1"/>
		
			<ellipse transform="matrix(0.2709 0.9626 -0.9626 0.2709 337.0442 -352.4185)" clip-path="url(#SVGID_2_)" fill="#603A17" cx="401.2" cy="46.3" rx="1.1" ry="1.1"/>
		
			<ellipse transform="matrix(0.2709 0.9626 -0.9626 0.2709 341.7037 -350.5907)" clip-path="url(#SVGID_2_)" fill="#603A17" cx="402.3" cy="50.3" rx="1.1" ry="1.1"/>
		
			<ellipse transform="matrix(0.2709 0.9626 -0.9626 0.2709 346.5466 -348.691)" clip-path="url(#SVGID_2_)" fill="#603A17" cx="403.5" cy="54.4" rx="1.1" ry="1.1"/>
		
			<ellipse transform="matrix(0.2709 0.9626 -0.9626 0.2709 342.6343 -344.8438)" clip-path="url(#SVGID_2_)" fill="#603A17" cx="399" cy="53.8" rx="1.1" ry="1.1"/>
		
			<ellipse transform="matrix(0.2709 0.9626 -0.9626 0.2709 337.4239 -346.8877)" clip-path="url(#SVGID_2_)" fill="#603A17" cx="397.7" cy="49.3" rx="1.1" ry="1.1"/>
		<g clip-path="url(#SVGID_2_)">
			<path fill="none" stroke="#231F20" stroke-width="0.9207" stroke-miterlimit="10" d="M374.8,77.1c3.1,10.9,10.9,14.3,16.7,15.2
				l-10.4-36.9C376.6,59.2,371.7,66.1,374.8,77.1z"/>
			<path fill="#FFFFFF" stroke="#231F20" stroke-width="0.9207" stroke-miterlimit="10" d="M387,51.6c0,0-2.8,1.2-5.9,3.8l10.4,36.9
				c3.9,0.6,7,0.2,7,0.2L387,51.6z"/>
		</g>
		<path clip-path="url(#SVGID_2_)" fill="#BE202E" d="M400.8,16.2c-6.3,1.3-11.3,5.3-13.4,10.2l28.9-6.8
			C412.5,16.4,406.8,15,400.8,16.2z"/>
		<path clip-path="url(#SVGID_2_)" fill="#BE202E" d="M438.7,101.3l-28.4,8.7c4.3,3.1,10.6,4.1,16.7,2.1
			C432.7,110.1,436.9,106,438.7,101.3z"/>
		<path clip-path="url(#SVGID_2_)" fill="#F69321" d="M413.2,26.4C419.5,55.7,441,65,441,65c-12.8,19.2-8.4,26.6-5.5,33
			c13.7-7,36-22.9,28.4-50c-6.2-22.1-27.7-24.9-43-23.7L413.2,26.4z"/>
		<path clip-path="url(#SVGID_2_)" fill="#BE202E" d="M471.8,48.1L471.8,48.1c0-0.1,0-0.1,0-0.2c0-0.1,0-0.1,0-0.2l0,0
			c-12.9-35.6-50.5-29.6-53.7-26.6l2.2,9.1c0,0,35-2.8,41.6,20.5c6.5,23.3-26.3,39.9-26.3,39.9l3.7,8.6
			C447.7,95.1,480.3,79.7,471.8,48.1z"/>
		<path clip-path="url(#SVGID_2_)" fill="#BE202E" d="M420.9,27c-0.4-2.2-1.5-4.2-2.9-5.9L386.9,28c-0.6,2-0.7,4-0.3,6.1
			c0.2,1.2,0.6,2.3,1.2,3.3l33.4-7.4C421.2,29,421.1,28,420.9,27z"/>
		<path clip-path="url(#SVGID_2_)" fill="#BE202E" d="M437.6,89.9L405,100.3c0,1.2,0.3,2.3,0.6,3.5c0.7,2,1.8,3.7,3.3,5.1l30.3-9.7
			c0.4-2.2,0.3-4.4-0.4-6.5C438.6,91.7,438.1,90.8,437.6,89.9z"/>
	</g>
</g>
</svg>
