<!-- Generator: Adobe Illustrator 18.0.0, SVG Export Plug-In  -->
<svg version="1.1"
	 xmlns="http://www.w3.org/2000/svg" xmlns:xlink="http://www.w3.org/1999/xlink" xmlns:a="http://ns.adobe.com/AdobeSVGViewerExtensions/3.0/"
	 x="0px" y="0px" width="914.7px" height="806.8px" viewBox="0 0 914.7 806.8" enable-background="new 0 0 914.7 806.8"
	 xml:space="preserve">
<defs>
</defs>
<g>
	<g>
		<g>
			<path fill="#E9C2A0" d="M379.9,212.3c0,0,260.1,99.9,317.4,111.7c57.2,11.9,134.9-144.6,33.5-184.6
				C666,113.5,540.3,62.8,457.7,29.3C395.6,3.9,326.5,3.4,263.9,27.7C150,72.5-6,180.4,11.3,434.7c20,293.1,238.6,361.6,469,362.2
				c135.5,0,248.3-102.5,261.8-236.9l0,0c11.8-117.8-56.2-228.4-166.3-271.1L379.9,212.3z"/>
			<g>
				<path fill="#FFFFFF" d="M377.3,222c42.5,16.3,85.2,32.3,127.9,48c34.2,12.6,68.4,25,102.9,36.9c25.8,8.9,51.7,18,78.1,24.8
					c11,2.9,21.6,4.2,32.7,0.4c13.3-4.6,24.6-13.7,33.8-24c21.8-24.3,35.3-56.9,37.2-89.4c2.1-34.6-13.7-67-44.8-83.6
					c-8.5-4.5-17.9-7.7-26.9-11.3c-9.7-3.9-19.4-7.8-29.1-11.7c-22.7-9.1-45.4-18.2-68-27.4C573.4,65.4,525.7,46.1,478,26.8
					c-26.1-10.6-51.8-19.9-79.8-24c-30.1-4.4-60.4-3.6-90.3,1.9c-37.3,6.9-73.2,22.9-106.3,41.2c-29.3,16.1-56.9,35.7-81.6,58.2
					C60.5,158.6,22,231.6,7.5,310.7C-1.8,361.6-2,414,4.2,465.3c5.5,45.4,16.6,89.8,35.8,131.3c32,69.2,88,123.3,156.2,156.5
					c70.6,34.4,149.8,47.7,227.6,52.2c44.2,2.5,88.4,3.3,131.4-8.8c43.5-12.3,83.6-35.9,116-67.4c67.9-66,96.1-165.1,75.1-257.2
					c-10.5-46.1-33.7-88.9-65.7-123.7c-28.5-31-64.3-54.2-103.4-69.5c-48.9-19.1-97.8-38.2-146.7-57.4c-16-6.3-32-12.5-48.1-18.8
					c-5.1-2-11,2.1-12.3,7C368.7,215.3,372.2,220,377.3,222c45.4,17.7,90.7,35.5,136.1,53.2c19.5,7.6,38.9,15.2,58.4,22.8
					c37,14.5,70,37.1,96.8,66.5c30.8,33.9,51.4,76.2,60.4,121.1c9,45.3,4.6,92.9-11.1,136.2c-30.2,83.3-105,144.7-191.6,161
					c-21.7,4.1-43.5,4.3-65.5,3.9c-20.3-0.4-40.7-1.4-61-3.1c-38.7-3.2-76.6-9.1-114.7-19.2c-70.7-18.7-136.4-52.8-184.2-109.1
					c-55.9-65.8-77.5-155-80.5-240.8c-3.1-88.4,17-176.5,70-248.1c9.8-13.2,22.2-27.2,34.7-39.5c6.2-6.1,12.6-11.9,19.2-17.6
					c3.1-2.7,6.3-5.3,9.5-7.8c3.9-3.1,5.2-4.1,9.2-7.1C188.1,75.7,215.5,60,244,47c3.1-1.4,6.3-2.8,9.5-4.2c0.8-0.3,1.6-0.7,2.4-1
					c2.6-1.1-1.9,0.8,0.7-0.3c1.8-0.8,3.6-1.5,5.4-2.2c12.1-4.9,24.5-9,37.2-12.1c28.6-7.1,58.2-8.7,87.5-5.7
					c28.3,2.9,54.6,12,80.8,22.6c23,9.3,46,18.6,69,27.9c47.4,19.2,94.8,38.3,142.3,57.3c17.9,7.2,37.8,14,54.3,22
					c8.2,4,13.5,7.8,19.4,13.8c1.3,1.3,2.6,2.8,3.8,4.2c2,2.3-1.1-1.5,0.7,0.9c0.6,0.7,1.1,1.5,1.6,2.2c2.2,3.2,4.1,6.7,5.8,10.3
					c1.2,2.7-0.7-1.8,0.4,0.9c0.3,0.8,0.6,1.7,0.9,2.5c0.6,1.7,1.1,3.4,1.6,5.1c0.5,1.7,0.9,3.5,1.3,5.3c0.2,0.9,0.3,1.8,0.5,2.7
					c0.1,0.4,0.6,4.1,0.3,1.8c1,7.7,0.8,15.5,0.1,23.2c-0.1,0.9-0.2,1.9-0.3,2.8c0.3-2.2-0.2,0.9-0.2,1.1c-0.3,1.9-0.7,3.8-1,5.6
					c-0.8,4.1-1.9,8.1-3.1,12.1c-2.5,8.5-4.6,13.5-8.2,20.7c-3.4,6.9-7.4,13.5-11.9,19.8c-0.5,0.7-1.1,1.4-1.6,2.2
					c-1.8,2.4,1.2-1.5-0.6,0.8c-1.1,1.4-2.2,2.7-3.3,4c-2.4,2.7-4.9,5.3-7.6,7.8c-1.2,1.1-2.4,2.1-3.6,3.2c-0.6,0.5-1.2,1-1.8,1.5
					c1.9-1.5-0.1,0-0.4,0.3c-2.6,1.9-5.3,3.6-8.1,5c-0.7,0.4-4.8,2.1-2,1c-1.2,0.5-2.5,0.9-3.8,1.3c-1.3,0.4-2.5,0.7-3.8,1
					c-0.6,0.1-1.3,0.2-1.9,0.3c3.2-0.5,0.2-0.1-0.5,0c-1.3,0.1-2.5,0.1-3.8,0c-0.6,0-1.2-0.1-1.9-0.2c3,0.3,0.9,0.1,0.2-0.1
					c-2-0.4-4-0.9-5.9-1.4c-4.8-1.2-9.6-2.5-14.4-3.9c-12.9-3.8-25.7-7.9-38.5-12.2c-33.3-11.1-66.4-22.9-99.4-34.9
					c-51.9-18.8-103.7-38.2-155.3-57.9c-1.3-0.5-2.6-1-3.8-1.5c-5.1-2-11,2.1-12.3,7C368.7,215.3,372.2,220,377.3,222z"/>
			</g>
		</g>
	</g>
	<g>
		<g>
			<path fill="#E9C2A0" d="M472.7,687.8l-0.5-8.1c-2.7-57.8,41.6-106.9,99.3-110.1l165.7-8.6c57.8-2.7,106.9,41.6,110.1,99.3
				l0.5,8.1c2.7,57.8-41.6,106.9-99.3,110.1l-165.7,8.6C525.6,789.8,476,745,472.7,687.8z"/>
			<g>
				<path fill="#FFFFFF" d="M482.7,687.8c-1.2-18.9,0.3-36.9,8.7-54.2c9.2-19.2,24.6-34.5,43.5-44.2c21.3-11,45.4-10.2,68.6-11.5
					c31.4-1.6,62.9-3.3,94.3-4.9c21.7-1.1,45.4-4.6,66.8,0.5c41.5,9.8,70.3,46.6,72.9,88.6c1.2,20.1-1.5,39.2-11.2,57.1
					c-10.2,18.7-26.5,33-45.8,41.8c-20.6,9.3-45,8.2-67.1,9.3c-31.5,1.6-63,3.3-94.5,4.9c-20.3,1.1-42.1,4.2-62-0.4
					C516.3,765.5,485.4,729.3,482.7,687.8c-0.8-12.8-20.8-12.9-20,0c3.1,48,35.3,89.2,81,104.1c23.6,7.7,48.4,4.7,72.7,3.4
					c31.5-1.6,62.9-3.3,94.4-4.9c23.2-1.2,47.8-0.5,69.9-8.2c44.9-15.6,75.4-58.2,77.2-105.4c1.7-44.2-18.2-86.2-56.4-109.5
					c-19-11.6-42.1-17.5-64.3-16.3c-6.2,0.3-12.4,0.6-18.6,1c-30.4,1.6-60.8,3.2-91.2,4.7c-20,1-40.1,1.5-60,3.2
					c-47.3,4.2-87.6,37.8-100.8,83.3c-4.3,14.6-4.7,29.5-3.8,44.6C463.5,700.6,483.5,700.7,482.7,687.8z"/>
			</g>
		</g>
	</g>
	<g>
		<g>
			<path fill="#E9C2A0" d="M529.4,452.5l-0.5-8.1c-2.7-57.8,41.6-106.9,99.3-110.1l165.7-8.6C851.7,323,900.8,367.3,904,425l0.5,8.1
				c2.7,57.8-41.6,106.9-99.3,110.1l-165.7,8.6C581.8,554.5,532.6,510.2,529.4,452.5z"/>
			<g>
				<path fill="#FFFFFF" d="M539.4,452.5c-1.2-18.9,0.3-36.9,8.7-54.2c9.2-19.2,24.6-34.5,43.5-44.2c21.3-11,45.4-10.2,68.6-11.5
					c31.4-1.6,62.9-3.3,94.3-4.9c21.7-1.1,45.4-4.6,66.8,0.5c41.5,9.8,70.3,46.6,72.9,88.6c1.2,20.1-1.5,39.2-11.2,57.1
					c-10.2,18.7-26.5,33-45.8,41.8c-20.6,9.3-45,8.2-67.1,9.3c-31.5,1.6-63,3.3-94.5,4.9c-20.7,1.1-42.9,4.2-63.3-0.6
					C572,529.8,542,493.7,539.4,452.5c-0.8-12.8-20.8-12.9-20,0c3,47.8,34.4,88.7,79.8,103.9c23.8,7.9,48.6,5,73,3.7
					c31.5-1.6,62.9-3.3,94.4-4.9c23-1.2,47.5-0.5,69.5-7.8c45.1-15.1,76-57.3,78.4-104.5c2.3-44.2-17.4-86.5-55.2-110.2
					c-19.2-12.1-42.8-18.2-65.4-17c-6,0.3-12,0.6-18,0.9c-30.3,1.6-60.6,3.1-90.9,4.7c-19.9,1-39.8,1.6-59.6,3.1
					c-47.5,3.6-88,36.8-101.9,82.1c-4.6,15-5.1,30.4-4.1,45.9C520.2,465.3,540.2,465.4,539.4,452.5z"/>
			</g>
		</g>
	</g>
</g>
</svg>
