<?xml version="1.0" encoding="utf-8"?>
<!-- Generator: Adobe Illustrator 18.0.0, SVG Export Plug-In . SVG Version: 6.00 Build 0)  -->
<!DOCTYPE svg PUBLIC "-//W3C//DTD SVG 1.1//EN" "http://www.w3.org/Graphics/SVG/1.1/DTD/svg11.dtd">
<svg version="1.1" xmlns="http://www.w3.org/2000/svg" xmlns:xlink="http://www.w3.org/1999/xlink" x="0px" y="0px"
	 viewBox="0 0 254 200.1" enable-background="new 0 0 254 200.1" xml:space="preserve">
<g id="bg">
</g>
<g id="maps" opacity="0.5">
</g>
<g id="logo">
</g>
<g id="hospital_icon">
</g>
<g id="bottom_line">
</g>
<g id="hand">
	<g>
		<g>
			<g>
				<path fill="#E9C2A0" d="M74.4,84.5c0,0,48.2,18.5,58.8,20.7s25-26.8,6.2-34.2c-12-4.8-35.3-14.2-50.6-20.4
					c-11.5-4.7-24.3-4.8-35.9-0.3c-21.1,8.3-50,28.3-46.8,75.4c3.7,54.3,44.2,67,86.9,67.1c25.1,0,46-19,48.5-43.9l0,0
					c2.2-21.8-10.4-42.3-30.8-50.2L74.4,84.5z"/>
				<g>
					<path fill="#FFFFFF" d="M73.7,87.1c12.2,4.7,24.5,9.3,36.8,13.7c6.8,2.4,13.6,4.9,20.6,6.8c6.3,1.7,11.1-2.1,14.8-6.9
						c4.5-5.9,6.5-14.3,4.6-21.5c-2.4-8.9-11.8-11.3-19.3-14.3c-11.8-4.7-23.5-9.5-35.3-14.2C83,45.4,71,42.6,57.2,46
						c-16,4-31.2,15.1-40.8,28.3C3,92.5,1.1,116.6,5,138.2c3.5,19.2,14.4,35.7,31.4,45.3C53,193,73,195.3,91.8,195.5
						c18.2,0.2,34.7-8.7,44.7-23.9c10.3-15.7,10.2-36.3,1.5-52.6c-7.2-13.4-19.5-20.2-33.1-25.5c-9.9-3.9-19.8-7.7-29.7-11.6
						C71.9,80.6,70.5,85.8,73.7,87.1c11.3,4.4,22.7,8.8,34,13.2c20,7.8,33.3,26.6,31.1,48.5c-2.5,24.8-24.1,41.5-48.2,41.2
						c-19.3-0.2-39.6-3.1-56.1-14c-19-12.6-25.6-35.2-25.9-57c-0.3-21.6,8.3-42,25.6-55.3c6.4-4.9,13.6-8.7,21.1-11.5
						c14.7-5.5,28.2-1,41.9,4.6c11.7,4.7,23.3,9.4,35,14.1c4.2,1.7,9.1,2.9,11.8,6.9c2.4,3.6,2,8.3,1,12.2
						c-1.4,5.2-6,13.8-12.5,12.2c-7-1.7-13.8-4.3-20.6-6.8c-12.3-4.4-24.6-9-36.8-13.7C71.9,80.6,70.5,85.8,73.7,87.1z"/>
				</g>
			</g>
			<g>
				<path fill="#E9C2A0" d="M91.6,172.6l-0.1-1.5c-0.5-10.7,7.7-19.8,18.4-20.4l30.7-1.6c10.7-0.5,19.8,7.7,20.4,18.4l0.1,1.5
					c0.5,10.7-7.7,19.8-18.4,20.4l-30.7,1.6C101.4,191.5,92.2,183.2,91.6,172.6z"/>
				<g>
					<path fill="#FFFFFF" d="M94.4,172.6c-0.5-9.6,5.3-18.7,15.6-19.2c4.6-0.2,9.2-0.5,13.8-0.7c5.4-0.3,10.8-0.6,16.2-0.8
						c9.5-0.5,17.5,6.1,18.3,15.6c0.8,9.6-5.6,18.7-15.6,19.2c-4.6,0.2-9.2,0.5-13.8,0.7c-5.4,0.3-10.8,0.6-16.2,0.8
						C103.2,188.7,95.2,182.1,94.4,172.6c-0.3-3.4-5.7-3.5-5.4,0c0.9,10.4,7.9,18.7,18.3,20.8c5.6,1.1,12.1-0.1,17.7-0.3
						c5.9-0.3,11.8-0.6,17.7-0.9c10-0.5,18-7.5,20.5-17c2.4-8.8-1.2-19.4-8.7-24.6c-6.2-4.2-12.5-4.2-19.6-3.8
						c-7.3,0.4-14.7,0.8-22,1.1c-7.7,0.4-14.5,2.5-19.5,8.8c-3.6,4.6-4.8,10.2-4.5,15.9C89.1,176,94.5,176.1,94.4,172.6z"/>
				</g>
			</g>
			<g>
				<path fill="#E9C2A0" d="M142.2,71.5l74.7-24.9c0,0,14.9-9,8.8-23.4C219.7,8.6,202.6,12,202.6,12L84,46.8L142.2,71.5z"/>
				<g>
					<path fill="#FFFFFF" d="M143,74.1c23.2-7.7,46.4-15.5,69.6-23.2c2.2-0.7,4.8-1.3,6.7-2.6c5.9-4.2,10.1-10.3,10.6-17.6
						c1.1-14.2-15-25.1-28.1-21.2c-39.5,11.6-79,23.2-118.5,34.9c-2,0.6-2.9,4-0.6,4.9c19.4,8.2,38.8,16.4,58.2,24.6
						c3.2,1.3,5.9-3.3,2.7-4.7c-19.4-8.2-38.8-16.4-58.2-24.6c-0.2,1.6-0.4,3.3-0.6,4.9c22-6.5,44-12.9,66-19.4
						c13.7-4,27.3-8,41-12.1c6.3-1.9,12.1-4.3,18.6-3.4c8.2,1.1,14.2,7.6,14.2,16.1c0,5.5-4.4,10.6-8.8,13.5c0.7-0.5,0.1,0-0.7,0.2
						c-1.3,0.4-2.6,0.9-3.9,1.3c-4.6,1.5-9.1,3.1-13.7,4.6c-18.6,6.2-37.3,12.4-55.9,18.7C138.2,69.9,139.6,75.2,143,74.1z"/>
				</g>
			</g>
			<g>
				<path fill="#E9C2A0" d="M137.3,107.4c0,0,18.7-8.3,9.9-30.8l76.3,12.5c3.6,0.7,7,2.5,9.3,5.3c2.3,2.7,4.3,6.7,3.6,11.8
					c-1.5,10.9-10.2,16.8-28.7,13.7C184.6,116.2,137.3,107.4,137.3,107.4z"/>
				<g>
					<path fill="#FFFFFF" d="M138.6,109.7c13.2-6,15.7-21.4,11.2-33.9c-1.1,1.1-2.2,2.2-3.3,3.3c24.1,3.9,48.2,7.9,72.3,11.8
						c6.9,1.1,13,3.5,14.9,11.2c1.1,4.4-1.2,9.5-4.5,12.4c-4,3.5-10.3,3.6-15.2,3.4c-10.3-0.4-20.9-3.2-31.1-5
						c-10-1.8-20.1-3.6-30.1-5.4c-4.9-0.9-9.8-1.8-14.8-2.7c-3.4-0.6-4.9,4.6-1.4,5.2c14.5,2.7,29.1,5.3,43.6,7.9
						c9.7,1.7,19.4,3.7,29.2,5c8.9,1.1,19.3,0.9,25.6-6.4c6.1-7,5.3-17.1-0.2-24c-3.6-4.6-9.1-5.8-14.5-6.7c-14-2.3-28-4.6-42-6.9
						c-10.1-1.7-20.2-3.3-30.3-5c-1.8-0.3-4.1,1.2-3.3,3.3c3.8,10.3,2.4,22.7-8.7,27.7C132.7,106.5,135.5,111.2,138.6,109.7z"/>
				</g>
			</g>
			<g>
				<path fill="#E9C2A0" d="M102.1,129l-0.1-1.5c-0.5-10.7,7.7-19.8,18.4-20.4l30.7-1.6c10.7-0.5,19.8,7.7,20.4,18.4l0.1,1.5
					c0.5,10.7-7.7,19.8-18.4,20.4l-30.7,1.6C111.8,147.9,102.7,139.7,102.1,129z"/>
				<g>
					<path fill="#FFFFFF" d="M104.8,129c-0.5-9.6,5.3-18.7,15.6-19.2c4.6-0.2,9.2-0.5,13.8-0.7c5.4-0.3,10.8-0.6,16.2-0.8
						c9.5-0.5,17.5,6.1,18.3,15.6c0.8,9.6-5.6,18.7-15.6,19.2c-4.6,0.2-9.2,0.5-13.8,0.7c-5.4,0.3-10.8,0.6-16.2,0.8
						C113.6,145.1,105.6,138.6,104.8,129c-0.3-3.4-5.7-3.5-5.4,0c0.9,10.4,7.9,18.7,18.3,20.8c5.6,1.1,12.1-0.1,17.7-0.3
						c5.9-0.3,11.8-0.6,17.7-0.9c10-0.5,18-7.5,20.5-17c2.4-8.8-1.2-19.4-8.7-24.6c-6.2-4.2-12.5-4.2-19.6-3.8
						c-7.3,0.4-14.7,0.8-22,1.1c-7.7,0.4-14.5,2.5-19.5,8.8c-3.6,4.6-4.8,10.2-4.5,15.9C99.6,132.5,105,132.5,104.8,129z"/>
				</g>
			</g>
		</g>
		<g id="doctor_2_">
			<defs>
				
					<rect id="SVGID_63_" x="192.7" y="-5" transform="matrix(0.2894 0.9572 -0.9572 0.2894 177.3194 -178.8654)" width="32.9" height="70"/>
			</defs>
			<clipPath id="SVGID_2_">
				<use xlink:href="#SVGID_63_"  overflow="visible"/>
			</clipPath>
			<g clip-path="url(#SVGID_2_)">
				<path fill="#E8C19F" d="M41.5,109c41.4,1.3,55.1-29.5,52.1-52.6l42.3-12.8c0,0,20.6-5,15-23.5c-4.5-14.7-18.1-12.8-23.9-11.1
					c-9.3,2.8-56.8,19.6-77.7,30C-5.9,66.6-14.2,106.3-0.6,151.1c19.6,64.8,88,60.6,149.9,41.8c19.7-6,41.9-12.1,65.6-19.3
					c30.1-9.1,45.3-16.6,40.8-31.7c-5-16.6-21.6-13.6-53.5-3.9c-18.2,5.5-34,10.1-34,10.1l-0.2-0.8l75.3-24.6
					c0,0,21.6-7.5,16.3-24.9c-4.9-16.1-26.6-9.2-26.6-9.2l-74.9,22.6l-0.6-2L243.4,82c0,0,22.4-7.9,17.1-25.7
					c-5.4-18-29.9-10.9-29.9-10.9l-84,25.4l-0.8-2.3L220.2,46c0,0,18.9-5.9,13.5-23.7c-5.7-18.8-24.2-11.7-24.2-11.7l-57.8,17.7
					c-1.6,12.6-16.1,15.5-28.7,19.3l-29.4,8.9C97.8,118.3,26.9,108.6,41.5,109z"/>
				<g>
					<path fill="#FFFFFF" d="M41.5,109.3c18.9,0.4,37.2-6.1,46.9-23.2c3.7-6.5,5.5-14,5.9-21.5c0.1-1.2-0.5-8-0.2-8.1
						c2.1-0.6,4.2-1.3,6.4-1.9c11.8-3.6,23.7-7.2,35.5-10.7c12.4-3.7,19.4-13.8,14.3-26.6c-5.8-14.4-21.8-9.3-32.8-5.5
						c-19.1,6.6-38.1,13.6-56.7,21.6C40.8,42,21.6,53.2,8.2,70.6C-3.3,85.6-7.6,104.3-6.4,123c1.3,19.4,7.2,40.1,19.4,55.5
						c11.4,14.5,28.6,22.3,46.5,25.3c20.1,3.3,41,0.9,60.8-3.1c25.8-5.3,51-13.9,76.3-21.3c13.8-4,27.7-7.8,41-13.3
						c6.7-2.8,14.2-6.5,17.8-13.1c2.9-5.3,1.2-12-1.9-16.7c-3.4-5.2-9.6-6.5-15.4-6.5c-11,0-22.1,3.8-32.5,6.9
						c-11.9,3.5-23.7,7.1-35.6,10.6c-0.8,0.2-2.8,0.7-1.4,0.2c1.5-0.5,3.1-1,4.6-1.5c6-2,12.1-3.9,18.1-5.9
						c14.5-4.7,29-9.5,43.5-14.2c7.4-2.4,14.3-4.5,20.2-10c5.7-5.4,7.1-13.1,4.1-20.3c-2.7-6.4-9.5-8.6-15.9-8.7
						c-7.6-0.1-15.2,3-22.3,5.1c-14.8,4.5-29.7,9-44.5,13.5c-5.3,1.6-10.5,3.2-15.8,4.8c-0.8,0.3-1.7,0.5-2.5,0.8
						c0.6-0.2-1-1.2,0.9-1.8c25.6-8.1,51.1-16.2,76.7-24.3c7.2-2.3,13.7-4.4,19.5-9.6c11.7-10.6,5.8-29.3-9.9-31.2
						c-7.9-0.9-14.7,1.1-22.1,3.3c-14.1,4.3-28.2,8.5-42.3,12.8c-11.2,3.4-22.3,6.8-33.5,10.1c-1.7,0.5-0.4-1.8-1.4-1.5
						c1.1-0.3,2.2-0.7,3.3-1c5.6-1.7,11.2-3.4,16.8-5.1c14.7-4.5,29.4-8.9,44.2-13.4c7.2-2.2,14.3-3.7,19.9-9.2
						c8.5-8.5,5.1-24.7-5.6-29.7c-5.7-2.7-11.8-1.1-17.4,0.6c-18.5,5.6-37,11.3-55.5,16.9c-0.1,0-0.2,0.1-0.2,0.2
						C149,42.6,130.4,45,118.8,48.5c-8.4,2.6-16.9,5.1-25.3,7.7c-0.1,0-0.2,0.2-0.2,0.3c0.7,11.6-0.9,23.3-7.6,33.1
						c-5.1,7.5-13,12.6-21.4,15.7c-6,2.2-12.4,3.4-18.7,3.7c-1.7,0.1-3.4,0.1-5.1,0C38.7,108.8,40.4,109.3,41.5,109.3
						c0.4,0,0.4-0.6,0-0.6c-0.5,0-1.8-0.3-2.2,0.2c-0.1,0.1-0.1,0.2-0.1,0.3c0.8,2.2,14.1-0.4,15.8-0.8c11.4-2.2,22.3-7.4,29.7-16.5
						c4.5-5.5,7.1-12.2,8.4-19.1c0.8-4.1,1-8.4,0.9-12.5c0-1.1-0.8-3.4,0.2-3.7c1.2-0.4,2.3-0.7,3.5-1.1
						c13.9-4.2,28.9-7.4,42.2-13.2c3.8-1.6,7.1-3.9,9.6-7.2c1.4-1.8,1.5-6.2,3.3-6.8c5.2-1.6,10.3-3.1,15.5-4.7
						c13.3-4.1,26.5-8.1,39.8-12.2c3-0.9,5.9-1.7,9.1-1.8c11.9-0.3,19.3,12.1,16.6,23c-2.5,10.1-13.2,12.8-21.7,15.4
						c-22.1,6.7-44.2,13.4-66.2,20c-0.2,0-0.3,0.2-0.2,0.4c0.3,0.8,0.5,1.5,0.8,2.3c0.1,0.2,0.2,0.3,0.4,0.2
						c23.9-7.2,47.7-14.4,71.6-21.6c7.2-2.2,14.2-4.8,21.8-5.1c10.8-0.4,20.1,5.2,20.9,16.7c0.7,9.1-7.4,15.7-14.7,19.4
						c-3.7,1.9-7.9,2.9-11.9,4.1c-9.9,3.1-19.8,6.3-29.7,9.4c-15.7,5-31.5,10-47.2,15c-0.2,0.1-0.3,0.2-0.2,0.4
						c0.2,0.7,0.4,1.4,0.6,2c0,0.2,0.2,0.3,0.4,0.2c23.4-7.1,46.8-14.1,70.2-21.2c9.5-2.9,22.3-6.1,29.1,3.6
						c9.2,12.9-4.6,25.3-16.1,29.1c-24.5,8-49,16-73.5,24c-0.2,0.1-0.3,0.2-0.2,0.4c0.1,0.3,0.2,0.5,0.2,0.8
						c0.1,0.2,0.2,0.3,0.4,0.2c8.9-2.6,17.8-5.2,26.7-7.9c12.7-3.8,25.6-8.3,38.9-9.8c8.8-1,17.3,0.7,20.9,9.5
						c3.7,9.2-1.2,16.2-8.9,20.9c-11,6.9-24.4,10.1-36.7,13.8c-14.6,4.4-29.3,8.6-44,12.9c-23.1,6.7-45.9,13.7-69.9,16
						c-20.3,2-41.8,0.8-60.4-8.4C15.1,185.6,3.9,166.8-1.7,146c-5.5-20.1-6.4-41.6,2.1-61c9.6-21.7,30-36.5,50.7-46.6
						c18.9-9.2,39-16.3,58.8-23.3c14.4-5.1,36.4-14.8,41.3,7.6c3.1,14.3-10.9,19.2-21.5,22.4c-12.1,3.6-24.1,7.3-36.2,10.9
						c0,0,0,0,0,0c-0.1,0-0.3,0.2-0.2,0.3c1.5,12.2-1.4,24.5-8.7,34.5c-10,13.6-26.9,18.1-43,17.8C41,108.7,41.1,109.3,41.5,109.3z"
						/>
				</g>
			</g>
			<circle clip-path="url(#SVGID_2_)" fill="#231F20" cx="214.4" cy="35.4" r="1.6"/>
			<circle clip-path="url(#SVGID_2_)" fill="#FFFFFF" cx="214.7" cy="34.8" r="0.6"/>
			<circle clip-path="url(#SVGID_2_)" fill="#231F20" cx="210.4" cy="22" r="1.6"/>
			<circle clip-path="url(#SVGID_2_)" fill="#FFFFFF" cx="210.7" cy="21.4" r="0.6"/>
			<path clip-path="url(#SVGID_2_)" d="M219.5,35.1c-0.2-0.6-0.4-1.2-0.5-1.8c-0.2-0.6,0.1-1,0.6-1.2c0.5-0.1,0.9,0.1,1.1,0.7
				c0.4,1.2,0.8,2.4,1.1,3.7c0.2,0.5-0.1,1-0.6,1.1c-0.5,0.1-0.9-0.1-1.1-0.6C219.9,36.4,219.7,35.8,219.5,35.1z"/>
			<path clip-path="url(#SVGID_2_)" d="M214.8,19.4c-0.2-0.6-0.3-1.1-0.5-1.7c-0.2-0.6,0-1.1,0.5-1.2c0.5-0.2,0.9,0.1,1.1,0.7
				c0.4,1.2,0.7,2.4,1.1,3.6c0.2,0.6-0.1,1-0.6,1.2c-0.5,0.1-0.9-0.1-1.1-0.7C215.1,20.7,214.9,20,214.8,19.4
				C214.8,19.4,214.8,19.4,214.8,19.4z"/>
			<path clip-path="url(#SVGID_2_)" fill="#8A5E3C" d="M189.2,35.9c-3.2-10.5,4.3-17,10.4-19.5c1.3-0.5,1.1-0.4,1.4,0.7
				c2.9,9.4,5.7,18.8,8.5,28.3c0.1,0.2,0.1,0.4,0.2,0.6C202.9,48.3,192,45.3,189.2,35.9z"/>
			<path clip-path="url(#SVGID_2_)" fill="#E8C19F" d="M191.3,35.1c-2.2-7.3,2.7-14.1,7.2-15.9c1.1-0.4,0.9-0.3,1.1,0.6
				c2.4,7.9,4.8,15.9,7.2,23.8c0.1,0.2,0.1,0.4,0.2,0.5C202.1,45.4,193.5,42.3,191.3,35.1z"/>
			<path clip-path="url(#SVGID_2_)" fill="#FFFFFF" d="M194.2,34.2c-1.6-5.3,2.2-10.3,5.6-11.7c0.8-0.3,0.7-0.3,0.9,0.4
				c1.7,5.8,3.5,11.5,5.2,17.3c0,0.1,0.1,0.3,0.1,0.4C202.2,41.7,195.7,39.4,194.2,34.2z"/>
			
				<rect x="214.8" y="11.8" transform="matrix(0.2894 0.9572 -0.9572 0.2894 186.8427 -204.8071)" clip-path="url(#SVGID_2_)" fill="#C3E3EC" width="33.2" height="23.2"/>
			<path clip-path="url(#SVGID_2_)" fill="#BE202E" d="M235.7,20.2c0.3,1.1,0.6,2,0.9,3c0,0.1-0.2,0.3-0.3,0.3
				c-0.8,0.3-1.6,0.5-2.4,0.7c-0.5,0.1-0.5,0.3-0.4,0.8c0.3,0.9,0.5,1.8,0.8,2.7c-1.1,0.3-2.1,0.6-3.3,1c-0.3-0.9-0.5-1.7-0.8-2.6
				c-0.2-0.8-0.2-0.7-0.9-0.5c-0.8,0.2-1.7,0.5-2.5,0.8c-0.3-1.1-0.6-2.1-1-3.2c0.1-0.1,0.3-0.1,0.5-0.2c0.8-0.2,1.5-0.5,2.3-0.7
				c0.4-0.1,0.5-0.2,0.4-0.7c-0.3-0.9-0.6-1.8-0.8-2.8c1.1-0.3,2.1-0.6,3.2-1c0.3,1.1,0.6,2.1,1,3.3
				C233.6,20.9,234.6,20.6,235.7,20.2z"/>
			
				<rect x="190.7" y="32.7" transform="matrix(0.2894 0.9572 -0.9572 0.2894 170.0551 -158.483)" clip-path="url(#SVGID_2_)" fill="#8A5E3C" width="2.1" height="5.2"/>
		</g>
	</g>
</g>
</svg>
