<!-- Generator: Adobe Illustrator 18.0.0, SVG Export Plug-In  -->
<svg version="1.1"
	 xmlns="http://www.w3.org/2000/svg" xmlns:xlink="http://www.w3.org/1999/xlink" xmlns:a="http://ns.adobe.com/AdobeSVGViewerExtensions/3.0/"
	 x="0px" y="0px" width="593px" height="420.2px" viewBox="0 0 593 420.2" enable-background="new 0 0 593 420.2"
	 xml:space="preserve">
<defs>
</defs>
<g>
	
		<image overflow="visible" opacity="0.21" width="2471" height="1751" xlink:href="63AA9EBA1C1D77F9.png"  transform="matrix(0.24 0 0 0.24 0 0)">
	</image>
	<g>
		<path fill="#FFFFFF" d="M541.3,24.5c-66.6-6-99.8,16.4-113.3,29.6c-0.5,0.5-1.1,0.7-1.8,0.7c-1.9-0.1-3.8-0.2-5.7-0.2H124.1
			c-49.8,0-90.6,39.2-90.6,87.1v131.9c0,47.9,40.8,87.1,90.6,87.1h294c49.8,0,90.6-39.2,90.6-87.1V139.4c0-20.7-7.8-39.6-20.7-54.4
			c-0.5-0.6-0.7-1.4-0.4-2.1c3.9-11.4,18.1-44.2,54.1-54C544.2,28.2,543.9,24.7,541.3,24.5z"/>
		<path fill="none" stroke="#B7407B" stroke-width="5" stroke-miterlimit="10" d="M541.3,24.5c-66.6-6-99.8,16.4-113.3,29.6
			c-0.5,0.5-1.1,0.7-1.8,0.7c-1.9-0.1-3.8-0.2-5.7-0.2H124.1c-49.8,0-90.6,39.2-90.6,87.1v131.9c0,47.9,40.8,87.1,90.6,87.1h294
			c49.8,0,90.6-39.2,90.6-87.1V139.4c0-20.7-7.8-39.6-20.7-54.4c-0.5-0.6-0.7-1.4-0.4-2.1c3.9-11.4,18.1-44.2,54.1-54
			C544.2,28.2,543.9,24.7,541.3,24.5z"/>
	</g>
</g>
</svg>
