<!-- Generator: Adobe Illustrator 18.0.0, SVG Export Plug-In  -->
<svg version="1.1"
	 xmlns="http://www.w3.org/2000/svg" xmlns:xlink="http://www.w3.org/1999/xlink" xmlns:a="http://ns.adobe.com/AdobeSVGViewerExtensions/3.0/"
	 x="0px" y="0px" width="770.9px" height="526.8px" viewBox="0 0 770.9 526.8" enable-background="new 0 0 770.9 526.8"
	 xml:space="preserve">
<defs>
</defs>
<g>
	
		<image overflow="visible" opacity="0.25" width="3212" height="2195" xlink:href="BEFA97339DD131E3.png"  transform="matrix(0.24 0 0 0.24 0 0)">
	</image>
	<g>
		<path fill="#FFFFFF" d="M722.4,7.7c-94.1-8.5-141,23.2-160,41.8c-0.7,0.7-1.6,1-2.6,0.9c-2.7-0.2-5.4-0.3-8.1-0.3H133.2
			c-70.4,0-128,55.3-128,123v186.4c0,67.6,57.6,123,128,123h415.2c70.4,0,128-55.3,128-123V170c0-29.2-11-56-29.2-76.8
			c-0.7-0.8-1-2-0.6-3c5.5-16.1,25.6-62.5,76.5-76.3C726.6,12.9,726.1,8,722.4,7.7z"/>
		<path fill="none" stroke="#E4BE22" stroke-width="8.4743" stroke-miterlimit="10" d="M722.4,7.7c-94.1-8.5-141,23.2-160,41.8
			c-0.7,0.7-1.6,1-2.6,0.9c-2.7-0.2-5.4-0.3-8.1-0.3H133.2c-70.4,0-128,55.3-128,123v186.4c0,67.6,57.6,123,128,123h415.2
			c70.4,0,128-55.3,128-123V170c0-29.2-11-56-29.2-76.8c-0.7-0.8-1-2-0.6-3c5.5-16.1,25.6-62.5,76.5-76.3
			C726.6,12.9,726.1,8,722.4,7.7z"/>
	</g>
</g>
</svg>
