<!-- Generator: Adobe Illustrator 18.0.0, SVG Export Plug-In  -->
<svg version="1.1"
	 xmlns="http://www.w3.org/2000/svg" xmlns:xlink="http://www.w3.org/1999/xlink" xmlns:a="http://ns.adobe.com/AdobeSVGViewerExtensions/3.0/"
	 x="0px" y="0px" width="695.7px" height="138.3px" viewBox="0 0 695.7 138.3" enable-background="new 0 0 695.7 138.3"
	 xml:space="preserve">
<defs>
</defs>
<g>
	<circle fill="#FFFFFF" cx="321.8" cy="82.3" r="7.7"/>
	<line fill="none" stroke="#FFFFFF" stroke-width="1.8928" stroke-miterlimit="10" x1="334.8" y1="104.3" x2="694.6" y2="104.3"/>
	<g>
		<path fill="#FFFFFF" d="M550.5,131.3c0,2.2-0.8,3.9-2.3,5.1c-1.6,1.2-3.7,1.8-6.5,1.8c-2.8,0-5-0.4-6.8-1.3v-3.8
			c1.1,0.5,2.3,0.9,3.5,1.2c1.2,0.3,2.4,0.4,3.5,0.4c1.6,0,2.7-0.3,3.5-0.9s1.1-1.4,1.1-2.4c0-0.9-0.3-1.7-1-2.3
			c-0.7-0.6-2.1-1.4-4.3-2.2c-2.2-0.9-3.8-1.9-4.7-3.1s-1.4-2.5-1.4-4.2c0-2,0.7-3.6,2.2-4.8c1.4-1.2,3.4-1.7,5.8-1.7
			c2.3,0,4.6,0.5,7,1.5l-1.3,3.2c-2.2-0.9-4.1-1.4-5.8-1.4c-1.3,0-2.3,0.3-2.9,0.8c-0.7,0.6-1,1.3-1,2.2c0,0.6,0.1,1.2,0.4,1.6
			c0.3,0.4,0.7,0.9,1.3,1.3c0.6,0.4,1.7,0.9,3.3,1.6c1.8,0.7,3.1,1.4,3.9,2.1c0.8,0.6,1.4,1.4,1.8,2.2
			C550.3,129.3,550.5,130.2,550.5,131.3z"/>
		<path fill="#FFFFFF" d="M554.6,114.7c0-0.7,0.2-1.2,0.6-1.6s0.9-0.6,1.6-0.6c0.7,0,1.2,0.2,1.6,0.6s0.6,0.9,0.6,1.6
			c0,0.7-0.2,1.2-0.6,1.6s-0.9,0.6-1.6,0.6c-0.7,0-1.3-0.2-1.6-0.6S554.6,115.3,554.6,114.7z M558.7,137.9h-3.9v-18.4h3.9V137.9z"/>
		<path fill="#FFFFFF" d="M580.5,137.9h-3.9v-11.3c0-1.4-0.3-2.5-0.9-3.2c-0.6-0.7-1.5-1-2.7-1c-1.7,0-2.9,0.5-3.6,1.5
			c-0.8,1-1.1,2.6-1.1,4.9v9.2h-3.9v-18.4h3.1l0.5,2.4h0.2c0.6-0.9,1.3-1.6,2.4-2c1-0.5,2.2-0.7,3.4-0.7c4.4,0,6.6,2.2,6.6,6.7
			V137.9z"/>
		<path fill="#FFFFFF" d="M593.3,138.3c-2.8,0-4.9-0.8-6.3-2.4c-1.4-1.6-2.2-4-2.2-7c0-3.1,0.8-5.5,2.3-7.1s3.7-2.5,6.6-2.5
			c1.9,0,3.7,0.4,5.2,1.1l-1.2,3.1c-1.7-0.6-3-1-4.1-1c-3.2,0-4.8,2.1-4.8,6.3c0,2.1,0.4,3.6,1.2,4.6s2,1.6,3.5,1.6
			c1.7,0,3.4-0.4,4.9-1.3v3.4c-0.7,0.4-1.4,0.7-2.2,0.9C595.4,138.2,594.5,138.3,593.3,138.3z"/>
		<path fill="#FFFFFF" d="M610.8,138.3c-2.9,0-5.1-0.8-6.7-2.5s-2.4-4-2.4-6.9c0-3,0.7-5.4,2.2-7.1c1.5-1.7,3.6-2.6,6.2-2.6
			c2.4,0,4.3,0.7,5.8,2.2c1.4,1.5,2.1,3.5,2.1,6.1v2.1h-12.3c0.1,1.8,0.5,3.2,1.4,4.1s2.2,1.4,3.8,1.4c1.1,0,2.1-0.1,3-0.3
			c0.9-0.2,1.9-0.5,3-1v3.2c-1,0.5-1.9,0.8-2.9,1C613.2,138.2,612.1,138.3,610.8,138.3z M610.1,122.2c-1.2,0-2.2,0.4-3,1.2
			c-0.7,0.8-1.2,1.9-1.3,3.4h8.4c0-1.5-0.4-2.7-1.1-3.5S611.3,122.2,610.1,122.2z"/>
		<path fill="#FFFFFF" d="M632.6,137.9h-3.9v-15.7c0-1.9,0-3.4,0.1-4.5c-0.3,0.3-0.6,0.6-0.9,0.9c-0.4,0.3-1.6,1.3-3.7,3.1l-2-2.5
			l7.2-5.6h3.3V137.9z"/>
		<path fill="#FFFFFF" d="M648.8,113.3c2.3,0,4.1,0.5,5.5,1.6c1.3,1.1,2,2.5,2,4.3c0,2.5-1.5,4.5-4.5,6c1.9,1,3.3,2,4.1,3
			c0.8,1.1,1.2,2.2,1.2,3.5c0,2-0.7,3.6-2.2,4.8s-3.5,1.8-6,1.8c-2.6,0-4.7-0.6-6.1-1.7c-1.5-1.1-2.2-2.7-2.2-4.8
			c0-1.4,0.4-2.6,1.1-3.7s2-2,3.7-2.9c-1.5-0.9-2.5-1.8-3.2-2.8c-0.6-1-0.9-2.1-0.9-3.3c0-1.8,0.7-3.2,2.1-4.2
			C644.7,113.8,646.6,113.3,648.8,113.3z M644.3,131.6c0,1.2,0.4,2,1.2,2.7s1.9,1,3.3,1c1.4,0,2.5-0.3,3.3-1s1.2-1.6,1.2-2.7
			c0-0.9-0.4-1.7-1.1-2.5c-0.7-0.7-1.8-1.4-3.3-2.1l-0.5-0.2c-1.5,0.6-2.5,1.4-3.2,2.1C644.6,129.8,644.3,130.6,644.3,131.6z
			 M648.8,116.3c-1.1,0-2,0.3-2.7,0.8c-0.7,0.5-1,1.3-1,2.2c0,0.6,0.1,1.1,0.4,1.5c0.2,0.5,0.6,0.9,1.1,1.2c0.5,0.4,1.3,0.8,2.4,1.3
			c1.3-0.6,2.3-1.2,2.8-1.9c0.5-0.6,0.8-1.4,0.8-2.3c0-0.9-0.3-1.7-1-2.2C650.8,116.6,649.9,116.3,648.8,116.3z"/>
		<path fill="#FFFFFF" d="M662.8,137.9l9.6-20.8h-12.6v-3.4h16.8v2.7l-9.6,21.6H662.8z"/>
		<path fill="#FFFFFF" d="M695,119.2c0,1.5-0.4,2.8-1.3,3.9c-0.9,1-2.2,1.7-3.8,2.1v0.1c2,0.2,3.4,0.9,4.4,1.8s1.5,2.3,1.5,3.9
			c0,2.3-0.8,4.1-2.5,5.4c-1.7,1.3-4,1.9-7.1,1.9c-2.7,0-5-0.4-6.8-1.3v-3.5c1,0.5,2.1,0.9,3.3,1.2s2.3,0.4,3.3,0.4
			c1.9,0,3.3-0.3,4.2-1c0.9-0.7,1.4-1.8,1.4-3.2c0-1.3-0.5-2.3-1.5-2.9c-1-0.6-2.7-0.9-4.9-0.9h-2.1v-3.2h2.1c3.9,0,5.8-1.3,5.8-4
			c0-1-0.3-1.8-1-2.4s-1.7-0.8-3-0.8c-0.9,0-1.8,0.1-2.7,0.4c-0.9,0.3-1.9,0.8-3,1.5l-1.9-2.7c2.2-1.6,4.8-2.5,7.8-2.5
			c2.5,0,4.4,0.5,5.7,1.6S695,117.4,695,119.2z"/>
	</g>
	<polyline fill="none" stroke="#FFFFFF" stroke-width="1.8928" stroke-miterlimit="10" points="0.3,0.9 271.6,82.3 321.8,82.3 	"/>
	<g>
		<path fill="#FFFFFF" d="M358,84.1c0,1.9-0.6,3.4-1.9,4.5c-1.3,1.1-3.1,1.6-5.3,1.6c-2.3,0-4.1-0.4-5.6-1.1v-3.3
			c0.9,0.5,1.9,0.8,2.9,1.1c1,0.3,2,0.4,2.9,0.4c1.3,0,2.2-0.3,2.9-0.8c0.6-0.5,0.9-1.2,0.9-2.1c0-0.8-0.3-1.5-0.8-2.1
			c-0.6-0.6-1.7-1.2-3.5-2c-1.8-0.8-3.1-1.7-3.9-2.7c-0.7-1-1.1-2.3-1.1-3.7c0-1.8,0.6-3.2,1.8-4.3c1.2-1,2.8-1.6,4.8-1.6
			c1.9,0,3.8,0.5,5.7,1.4l-1,2.9c-1.8-0.8-3.4-1.2-4.8-1.2c-1.1,0-1.9,0.2-2.4,0.7c-0.5,0.5-0.8,1.2-0.8,2c0,0.6,0.1,1,0.3,1.4
			s0.6,0.8,1.1,1.1c0.5,0.4,1.4,0.8,2.7,1.4c1.5,0.7,2.5,1.3,3.2,1.8c0.7,0.6,1.2,1.2,1.5,1.9S358,83.1,358,84.1z"/>
		<path fill="#FFFFFF" d="M367.2,87.5c0.8,0,1.6-0.1,2.4-0.4v2.6c-0.4,0.2-0.8,0.3-1.4,0.4s-1.1,0.2-1.7,0.2c-3,0-4.6-1.7-4.6-5.2
			v-8.8h-2.1v-1.5l2.2-1.3l1.1-3.5h2v3.6h4.3v2.6h-4.3V85c0,0.8,0.2,1.5,0.6,1.9C366,87.3,366.5,87.5,367.2,87.5z"/>
		<path fill="#FFFFFF" d="M395.4,90h-3.8l-6.3-9.8l-1.9,1.7V90h-3.3V68.4h3.3v10.3c0.9-1.2,1.8-2.3,2.7-3.4l5.4-6.9h3.7
			c-3.5,4.4-6,7.6-7.5,9.5L395.4,90z"/>
		<path fill="#FFFFFF" d="M397.5,69.3c0-0.6,0.2-1.1,0.5-1.4c0.3-0.3,0.8-0.5,1.3-0.5c0.6,0,1,0.2,1.3,0.5c0.3,0.3,0.5,0.8,0.5,1.4
			c0,0.6-0.2,1.1-0.5,1.4c-0.3,0.3-0.8,0.5-1.3,0.5c-0.6,0-1-0.2-1.3-0.5S397.5,69.9,397.5,69.3z M400.9,90h-3.2V73.6h3.2V90z"/>
		<path fill="#FFFFFF" d="M408.7,90h-3.2V67h3.2V90z"/>
		<path fill="#FFFFFF" d="M418.4,90.3c-1.9,0-3.4-0.7-4.4-2.2c-1.1-1.5-1.6-3.6-1.6-6.2c0-2.7,0.5-4.8,1.6-6.3s2.6-2.2,4.5-2.2
			c2,0,3.5,0.8,4.5,2.4h0.2c-0.2-1.2-0.2-2.1-0.2-2.8v-6h3.2v23h-2.5l-0.6-2.1H423C421.9,89.5,420.4,90.3,418.4,90.3z M419.3,87.5
			c1.3,0,2.3-0.4,2.9-1.2s0.9-2.1,0.9-3.9v-0.5c0-2.1-0.3-3.5-0.9-4.4s-1.6-1.3-2.9-1.3c-1.1,0-2,0.5-2.6,1.5
			c-0.6,1-0.9,2.4-0.9,4.2c0,1.8,0.3,3.2,0.9,4.1C417.2,87,418.1,87.5,419.3,87.5z"/>
		<path fill="#FFFFFF" d="M440.2,90l-0.6-2.3h-0.1c-0.7,1-1.5,1.7-2.2,2c-0.7,0.4-1.7,0.5-2.8,0.5c-1.5,0-2.6-0.4-3.5-1.3
			c-0.8-0.9-1.3-2.1-1.3-3.7c0-1.7,0.6-3,1.7-3.8c1.2-0.9,2.9-1.3,5.3-1.4l2.6-0.1v-0.9c0-1-0.2-1.8-0.7-2.3s-1.2-0.8-2.1-0.8
			c-0.8,0-1.5,0.1-2.2,0.4c-0.7,0.2-1.4,0.5-2.1,0.9l-1-2.5c0.8-0.5,1.7-0.8,2.7-1.1c1-0.2,1.9-0.4,2.8-0.4c1.9,0,3.4,0.5,4.4,1.4
			s1.5,2.3,1.5,4.3v11H440.2z M435.5,87.6c1.2,0,2.1-0.4,2.8-1.1c0.7-0.7,1.1-1.7,1.1-3v-1.4l-1.9,0.1c-1.5,0.1-2.6,0.3-3.3,0.8
			c-0.7,0.5-1,1.2-1,2.2c0,0.7,0.2,1.3,0.6,1.7C434.1,87.4,434.7,87.6,435.5,87.6z"/>
		<path fill="#FFFFFF" d="M457.9,90h-3.2V68.4h11.3v3h-8v6.8h7.5v3h-7.5V90z"/>
		<path fill="#FFFFFF" d="M482.6,81.8c0,2.7-0.6,4.8-1.9,6.3c-1.3,1.5-3,2.2-5.3,2.2c-1.4,0-2.7-0.3-3.7-1c-1.1-0.7-1.9-1.7-2.5-3
			c-0.6-1.3-0.9-2.8-0.9-4.5c0-2.7,0.6-4.7,1.9-6.2c1.3-1.5,3-2.2,5.3-2.2c2.2,0,3.9,0.8,5.2,2.3C482,77.1,482.6,79.2,482.6,81.8z
			 M471.6,81.8c0,3.8,1.3,5.7,3.9,5.7c2.6,0,3.8-1.9,3.8-5.7c0-3.7-1.3-5.6-3.9-5.6c-1.3,0-2.3,0.5-2.9,1.4
			C471.9,78.6,471.6,80,471.6,81.8z"/>
		<path fill="#FFFFFF" d="M499.7,81.8c0,2.7-0.6,4.8-1.9,6.3c-1.3,1.5-3,2.2-5.3,2.2c-1.4,0-2.7-0.3-3.7-1c-1.1-0.7-1.9-1.7-2.5-3
			c-0.6-1.3-0.9-2.8-0.9-4.5c0-2.7,0.6-4.7,1.9-6.2c1.3-1.5,3-2.2,5.3-2.2c2.2,0,3.9,0.8,5.2,2.3C499.1,77.1,499.7,79.2,499.7,81.8z
			 M488.7,81.8c0,3.8,1.3,5.7,3.9,5.7c2.6,0,3.8-1.9,3.8-5.7c0-3.7-1.3-5.6-3.9-5.6c-1.3,0-2.3,0.5-2.9,1.4
			C489,78.6,488.7,80,488.7,81.8z"/>
		<path fill="#FFFFFF" d="M509,87.5c0.8,0,1.6-0.1,2.4-0.4v2.6c-0.4,0.2-0.8,0.3-1.4,0.4s-1.1,0.2-1.7,0.2c-3,0-4.6-1.7-4.6-5.2
			v-8.8h-2.1v-1.5l2.2-1.3L505,70h2v3.6h4.3v2.6h-4.3V85c0,0.8,0.2,1.5,0.6,1.9C507.9,87.3,508.4,87.5,509,87.5z"/>
		<path fill="#FFFFFF" d="M522.1,73.3c1.9,0,3.4,0.7,4.4,2.2c1.1,1.5,1.6,3.6,1.6,6.2c0,2.7-0.5,4.8-1.6,6.3
			c-1.1,1.5-2.5,2.2-4.4,2.2c-1.9,0-3.4-0.7-4.5-2.2h-0.2l-0.6,1.9h-2.4V67h3.2v5.5c0,0.4,0,1-0.1,1.8c0,0.8-0.1,1.3-0.1,1.5h0.1
			C518.7,74.1,520.2,73.3,522.1,73.3z M521.3,76.2c-1.3,0-2.2,0.4-2.8,1.2c-0.6,0.8-0.9,2.2-0.9,4.1v0.2c0,2,0.3,3.4,0.9,4.3
			c0.6,0.9,1.5,1.3,2.9,1.3c1.1,0,2-0.5,2.6-1.5c0.6-1,0.9-2.4,0.9-4.2C524.8,78,523.7,76.2,521.3,76.2z"/>
		<path fill="#FFFFFF" d="M541.3,90l-0.6-2.3h-0.1c-0.7,1-1.5,1.7-2.2,2c-0.7,0.4-1.7,0.5-2.8,0.5c-1.5,0-2.6-0.4-3.5-1.3
			c-0.8-0.9-1.3-2.1-1.3-3.7c0-1.7,0.6-3,1.7-3.8c1.2-0.9,2.9-1.3,5.3-1.4l2.6-0.1v-0.9c0-1-0.2-1.8-0.7-2.3s-1.2-0.8-2.1-0.8
			c-0.8,0-1.5,0.1-2.2,0.4c-0.7,0.2-1.4,0.5-2.1,0.9l-1-2.5c0.8-0.5,1.7-0.8,2.7-1.1c1-0.2,1.9-0.4,2.8-0.4c1.9,0,3.4,0.5,4.4,1.4
			s1.5,2.3,1.5,4.3v11H541.3z M536.5,87.6c1.2,0,2.1-0.4,2.8-1.1c0.7-0.7,1.1-1.7,1.1-3v-1.4l-1.9,0.1c-1.5,0.1-2.6,0.3-3.3,0.8
			c-0.7,0.5-1,1.2-1,2.2c0,0.7,0.2,1.3,0.6,1.7C535.1,87.4,535.7,87.6,536.5,87.6z"/>
		<path fill="#FFFFFF" d="M551.3,90h-3.2V67h3.2V90z"/>
		<path fill="#FFFFFF" d="M559.1,90h-3.2V67h3.2V90z"/>
		<path fill="#FFFFFF" d="M579.8,71.1c-1.9,0-3.4,0.7-4.4,2.2c-1.1,1.4-1.6,3.4-1.6,6c0,2.7,0.5,4.7,1.6,6c1,1.4,2.5,2,4.5,2
			c0.8,0,1.7-0.1,2.5-0.3s1.6-0.4,2.5-0.7v3c-1.6,0.6-3.3,1-5.3,1c-2.9,0-5.2-1-6.7-2.9c-1.6-1.9-2.4-4.7-2.4-8.2
			c0-2.2,0.4-4.2,1.1-5.9c0.8-1.7,1.9-3,3.3-3.9c1.4-0.9,3.1-1.3,5.1-1.3c2,0,3.9,0.5,5.7,1.4l-1.2,2.9c-0.7-0.3-1.4-0.6-2.1-0.9
			C581.5,71.2,580.7,71.1,579.8,71.1z"/>
		<path fill="#FFFFFF" d="M592,90h-3.2V67h3.2V90z"/>
		<path fill="#FFFFFF" d="M607.2,90l-0.5-2.1h-0.2c-0.4,0.8-1.1,1.4-1.9,1.8s-1.8,0.7-2.8,0.7c-1.8,0-3.2-0.5-4.1-1.5
			c-0.9-1-1.4-2.5-1.4-4.5V73.6h3.2v10.1c0,1.3,0.2,2.2,0.7,2.8c0.5,0.6,1.2,0.9,2.2,0.9c1.3,0,2.3-0.4,3-1.3c0.6-0.9,1-2.3,1-4.4
			v-8.1h3.2V90H607.2z"/>
		<path fill="#FFFFFF" d="M622.1,73.3c1.9,0,3.4,0.7,4.4,2.2c1.1,1.5,1.6,3.6,1.6,6.2c0,2.7-0.5,4.8-1.6,6.3
			c-1.1,1.5-2.5,2.2-4.4,2.2c-1.9,0-3.4-0.7-4.5-2.2h-0.2l-0.6,1.9h-2.4V67h3.2v5.5c0,0.4,0,1-0.1,1.8c0,0.8-0.1,1.3-0.1,1.5h0.1
			C618.6,74.1,620.1,73.3,622.1,73.3z M621.2,76.2c-1.3,0-2.2,0.4-2.8,1.2c-0.6,0.8-0.9,2.2-0.9,4.1v0.2c0,2,0.3,3.4,0.9,4.3
			c0.6,0.9,1.5,1.3,2.9,1.3c1.1,0,2-0.5,2.6-1.5c0.6-1,0.9-2.4,0.9-4.2C624.7,78,623.6,76.2,621.2,76.2z"/>
	</g>
</g>
</svg>
