<!-- Generator: Adobe Illustrator 18.0.0, SVG Export Plug-In  -->
<svg version="1.1"
	 xmlns="http://www.w3.org/2000/svg" xmlns:xlink="http://www.w3.org/1999/xlink" xmlns:a="http://ns.adobe.com/AdobeSVGViewerExtensions/3.0/"
	 x="0px" y="0px" width="145.9px" height="119px" viewBox="0 0 145.9 119" enable-background="new 0 0 145.9 119"
	 xml:space="preserve">
<defs>
</defs>
<g id="item_1_">
	<g>
		<polygon fill="#E6E6E5" points="120.4,119 13.4,115.8 5.7,52.3 127.2,53.4 		"/>
		<polygon fill="#EF4437" points="127.1,51.6 5.7,50.5 0,18.1 131.7,17.9 		"/>
		<polygon fill="#B72C26" points="0,18.1 19.6,0.9 144.8,0 131.7,17.9 		"/>
		<polygon opacity="0.8" fill="#B4B4B4" points="132.6,53.5 0.2,52.2 0,19.8 131.7,19.7 		"/>
		<polygon fill="#898989" points="142.5,41 135.2,104.3 120.4,119 127.2,53.4 132.6,53.5 		"/>
		<polygon fill="#B72C26" points="144.8,0 140.7,36.6 127.1,51.6 131.7,17.9 		"/>
		<polygon opacity="0.8" fill="#9B9A9A" points="144.8,0 145.9,36.7 132.6,53.5 131.7,17.9 		"/>
		<polygon fill="#841618" points="16.6,18.1 22.8,12.3 136.1,11.9 131.6,17.9 		"/>
		<polygon fill="#991B1F" points="19.6,0.9 22.8,12.3 16.6,18.1 0,18.1 		"/>
	</g>
</g>
</svg>
