<!-- Generator: Adobe Illustrator 18.0.0, SVG Export Plug-In  -->
<svg version="1.1"
	 xmlns="http://www.w3.org/2000/svg" xmlns:xlink="http://www.w3.org/1999/xlink" xmlns:a="http://ns.adobe.com/AdobeSVGViewerExtensions/3.0/"
	 x="0px" y="0px" width="1115px" height="700px" viewBox="0 0 1115 700" enable-background="new 0 0 1115 700" xml:space="preserve"
	>
<defs>
</defs>
<g>
	<g id="details_1_">
		<rect x="0" y="0" fill="#FFFFFF" width="1115" height="700"/>
		<g>
			<path fill="#221F1F" d="M64.2,508.6h-1.7v-12.8H58v-1.5h10.7v1.5h-4.5V508.6z"/>
			<path fill="#221F1F" d="M77.9,508.6v-6.9c0-0.9-0.2-1.5-0.6-2s-1-0.6-1.9-0.6c-1.1,0-1.9,0.3-2.5,0.9s-0.8,1.6-0.8,3v5.6h-1.6
				v-15.2h1.6v4.6c0,0.6,0,1-0.1,1.4h0.1c0.3-0.5,0.8-0.9,1.4-1.2s1.3-0.4,2-0.4c1.3,0,2.3,0.3,2.9,0.9c0.7,0.6,1,1.6,1,3v7H77.9z"
				/>
			<path fill="#221F1F" d="M87.4,508.8c-1.6,0-2.8-0.5-3.7-1.4s-1.4-2.3-1.4-4c0-1.7,0.4-3.1,1.3-4.1s2-1.5,3.4-1.5
				c1.3,0,2.4,0.4,3.2,1.3c0.8,0.9,1.2,2,1.2,3.5v1H84c0,1.3,0.3,2.2,1,2.9c0.6,0.7,1.4,1,2.5,1c1.1,0,2.3-0.2,3.4-0.7v1.4
				c-0.6,0.2-1.1,0.4-1.6,0.5S88.1,508.8,87.4,508.8z M87,499.1c-0.9,0-1.5,0.3-2.1,0.8c-0.5,0.6-0.8,1.3-0.9,2.3h5.6
				c0-1-0.2-1.8-0.7-2.3C88.5,499.4,87.8,499.1,87,499.1z"/>
			<path fill="#221F1F" d="M107.5,508.6h-7.9v-14.3h7.9v1.5h-6.3v4.6h5.9v1.5h-5.9v5.3h6.3V508.6z"/>
			<path fill="#221F1F" d="M118.5,497.7c0,0.9-0.3,1.7-0.8,2.2c-0.5,0.6-1.2,1-2.2,1.2v0.1c1.1,0.1,2,0.5,2.5,1.1
				c0.6,0.6,0.8,1.4,0.8,2.3c0,1.4-0.5,2.4-1.4,3.1c-0.9,0.7-2.3,1.1-4,1.1c-0.8,0-1.4-0.1-2.1-0.2c-0.6-0.1-1.2-0.3-1.8-0.6v-1.5
				c0.6,0.3,1.3,0.5,2,0.7s1.4,0.2,2,0.2c2.5,0,3.7-1,3.7-2.9c0-1.7-1.4-2.6-4.1-2.6h-1.4v-1.4h1.4c1.1,0,2-0.2,2.6-0.7
				c0.6-0.5,1-1.2,1-2c0-0.7-0.2-1.2-0.7-1.6s-1.1-0.6-1.9-0.6c-0.6,0-1.2,0.1-1.8,0.3c-0.6,0.2-1.2,0.5-1.9,0.9l-0.8-1.1
				c0.6-0.5,1.3-0.8,2-1.1s1.6-0.4,2.4-0.4c1.4,0,2.5,0.3,3.2,1S118.5,496.6,118.5,497.7z"/>
			<path fill="#221F1F" d="M130.5,501.5c0,2.5-0.4,4.3-1.2,5.5s-2,1.8-3.6,1.8c-1.5,0-2.7-0.6-3.5-1.9s-1.2-3.1-1.2-5.5
				c0-2.5,0.4-4.3,1.2-5.5s2-1.8,3.5-1.8c1.5,0,2.7,0.6,3.5,1.9C130.1,497.3,130.5,499.1,130.5,501.5z M122.7,501.5
				c0,2.1,0.2,3.6,0.7,4.5s1.3,1.4,2.3,1.4c1.1,0,1.9-0.5,2.3-1.4c0.5-1,0.7-2.5,0.7-4.5s-0.2-3.6-0.7-4.5c-0.5-1-1.3-1.4-2.3-1.4
				c-1.1,0-1.8,0.5-2.3,1.4S122.7,499.4,122.7,501.5z"/>
			<path fill="#221F1F" d="M141.9,501.5c0,2.5-0.4,4.3-1.2,5.5s-2,1.8-3.6,1.8c-1.5,0-2.7-0.6-3.5-1.9s-1.2-3.1-1.2-5.5
				c0-2.5,0.4-4.3,1.2-5.5s2-1.8,3.5-1.8c1.5,0,2.7,0.6,3.5,1.9C141.5,497.3,141.9,499.1,141.9,501.5z M134.1,501.5
				c0,2.1,0.2,3.6,0.7,4.5s1.3,1.4,2.3,1.4c1.1,0,1.9-0.5,2.3-1.4c0.5-1,0.7-2.5,0.7-4.5s-0.2-3.6-0.7-4.5c-0.5-1-1.3-1.4-2.3-1.4
				c-1.1,0-1.8,0.5-2.3,1.4S134.1,499.4,134.1,501.5z"/>
			<path fill="#221F1F" d="M156.1,495.6c-1.6,0-2.8,0.5-3.7,1.6s-1.4,2.5-1.4,4.3c0,1.9,0.4,3.3,1.3,4.3s2.1,1.5,3.7,1.5
				c1,0,2.1-0.2,3.4-0.5v1.5c-1,0.4-2.2,0.6-3.7,0.6c-2.1,0-3.7-0.6-4.9-1.9c-1.1-1.3-1.7-3.1-1.7-5.4c0-1.5,0.3-2.8,0.8-3.9
				c0.5-1.1,1.3-2,2.4-2.6c1-0.6,2.3-0.9,3.7-0.9c1.5,0,2.8,0.3,3.9,0.8l-0.7,1.4C158.3,495.9,157.2,495.6,156.1,495.6z"/>
			<path fill="#221F1F" d="M171.6,503.3c0,1.7-0.4,3.1-1.3,4.1s-2.1,1.5-3.6,1.5c-1,0-1.8-0.2-2.5-0.7c-0.7-0.4-1.3-1.1-1.7-1.9
				c-0.4-0.8-0.6-1.8-0.6-2.9c0-1.7,0.4-3.1,1.3-4.1s2.1-1.5,3.6-1.5c1.5,0,2.7,0.5,3.6,1.5S171.6,501.6,171.6,503.3z M163.5,503.3
				c0,1.4,0.3,2.4,0.8,3.1s1.3,1.1,2.4,1.1s1.9-0.4,2.4-1.1c0.5-0.7,0.8-1.8,0.8-3.1c0-1.4-0.3-2.4-0.8-3.1
				c-0.5-0.7-1.4-1.1-2.4-1.1c-1.1,0-1.9,0.3-2.4,1C163.7,500.9,163.5,501.9,163.5,503.3z"/>
			<path fill="#221F1F" d="M179.3,497.7c0.5,0,0.9,0,1.3,0.1l-0.2,1.5c-0.4-0.1-0.8-0.1-1.2-0.1c-0.9,0-1.6,0.4-2.2,1.1
				c-0.6,0.7-0.9,1.6-0.9,2.6v5.7h-1.6v-10.7h1.3l0.2,2h0.1c0.4-0.7,0.9-1.2,1.4-1.6C178,497.9,178.7,497.7,179.3,497.7z"/>
			<path fill="#221F1F" d="M189.9,508.6v-6.9c0-0.9-0.2-1.5-0.6-2s-1-0.6-1.9-0.6c-1.1,0-1.9,0.3-2.5,0.9c-0.5,0.6-0.8,1.6-0.8,3
				v5.6h-1.6v-10.7h1.3l0.3,1.5h0.1c0.3-0.5,0.8-0.9,1.4-1.2c0.6-0.3,1.3-0.4,2-0.4c1.3,0,2.3,0.3,2.9,0.9s1,1.6,1,3v7H189.9z"/>
			<path fill="#221F1F" d="M199.4,508.8c-1.6,0-2.8-0.5-3.7-1.4s-1.4-2.3-1.4-4c0-1.7,0.4-3.1,1.3-4.1c0.8-1,2-1.5,3.4-1.5
				c1.3,0,2.4,0.4,3.2,1.3c0.8,0.9,1.2,2,1.2,3.5v1h-7.4c0,1.3,0.3,2.2,1,2.9c0.6,0.7,1.4,1,2.5,1c1.2,0,2.3-0.2,3.4-0.7v1.4
				c-0.6,0.2-1.1,0.4-1.6,0.5C200.7,508.8,200.1,508.8,199.4,508.8z M198.9,499.1c-0.9,0-1.5,0.3-2.1,0.8s-0.8,1.3-0.9,2.3h5.6
				c0-1-0.2-1.8-0.7-2.3S199.8,499.1,198.9,499.1z"/>
			<path fill="#221F1F" d="M212.6,508.6l-0.3-1.5h-0.1c-0.5,0.7-1.1,1.1-1.6,1.4s-1.2,0.4-2,0.4c-1.1,0-1.9-0.3-2.5-0.8
				c-0.6-0.5-0.9-1.3-0.9-2.3c0-2.2,1.7-3.3,5.2-3.4l1.8-0.1v-0.7c0-0.8-0.2-1.5-0.5-1.9s-0.9-0.6-1.7-0.6c-0.9,0-1.9,0.3-3,0.8
				l-0.5-1.2c0.5-0.3,1.1-0.5,1.7-0.7s1.3-0.2,1.9-0.2c1.3,0,2.2,0.3,2.8,0.8c0.6,0.6,0.9,1.5,0.9,2.7v7.3H212.6z M209,507.5
				c1,0,1.8-0.3,2.4-0.8s0.9-1.3,0.9-2.3v-1l-1.6,0.1c-1.3,0-2.2,0.2-2.8,0.6c-0.6,0.4-0.9,0.9-0.9,1.7c0,0.6,0.2,1,0.5,1.3
				S208.3,507.5,209,507.5z"/>
			<path fill="#221F1F" d="M218.8,508.6h-1.6v-15.2h1.6V508.6z"/>
			<path fill="#221F1F" d="M232,508.6h-1.7v-12.8h-4.5v-1.5h10.7v1.5H232V508.6z"/>
			<path fill="#221F1F" d="M247.7,503.3c0,1.7-0.4,3.1-1.3,4.1s-2.1,1.5-3.6,1.5c-1,0-1.8-0.2-2.5-0.7c-0.7-0.4-1.3-1.1-1.7-1.9
				c-0.4-0.8-0.6-1.8-0.6-2.9c0-1.7,0.4-3.1,1.3-4.1s2.1-1.5,3.6-1.5c1.5,0,2.7,0.5,3.6,1.5S247.7,501.6,247.7,503.3z M239.5,503.3
				c0,1.4,0.3,2.4,0.8,3.1s1.3,1.1,2.4,1.1s1.9-0.4,2.4-1.1c0.5-0.7,0.8-1.8,0.8-3.1c0-1.4-0.3-2.4-0.8-3.1
				c-0.5-0.7-1.4-1.1-2.4-1.1c-1.1,0-1.9,0.3-2.4,1C239.8,500.9,239.5,501.9,239.5,503.3z"/>
			<path fill="#221F1F" d="M255.5,508.8c-0.7,0-1.3-0.1-1.9-0.4s-1.1-0.7-1.4-1.2H252c0.1,0.6,0.1,1.2,0.1,1.8v4.4h-1.6v-15.5h1.3
				l0.2,1.5h0.1c0.4-0.6,0.9-1,1.5-1.3c0.6-0.3,1.2-0.4,1.9-0.4c1.4,0,2.5,0.5,3.3,1.5c0.8,1,1.2,2.3,1.2,4.1c0,1.8-0.4,3.1-1.2,4.1
				S256.9,508.8,255.5,508.8z M255.2,499.1c-1.1,0-1.9,0.3-2.4,0.9s-0.7,1.6-0.8,2.9v0.4c0,1.5,0.2,2.6,0.8,3.2c0.5,0.6,1.3,1,2.4,1
				c0.9,0,1.6-0.4,2.2-1.1c0.5-0.7,0.8-1.8,0.8-3.1c0-1.3-0.3-2.4-0.8-3.1C256.9,499.5,256.2,499.1,255.2,499.1z"/>
			<path fill="#221F1F" d="M271.9,503.3c0,1.7-0.4,3.1-1.3,4.1s-2.1,1.5-3.6,1.5c-1,0-1.8-0.2-2.5-0.7c-0.7-0.4-1.3-1.1-1.7-1.9
				c-0.4-0.8-0.6-1.8-0.6-2.9c0-1.7,0.4-3.1,1.3-4.1s2.1-1.5,3.6-1.5c1.5,0,2.7,0.5,3.6,1.5S271.9,501.6,271.9,503.3z M263.8,503.3
				c0,1.4,0.3,2.4,0.8,3.1s1.3,1.1,2.4,1.1s1.9-0.4,2.4-1.1c0.5-0.7,0.8-1.8,0.8-3.1c0-1.4-0.3-2.4-0.8-3.1
				c-0.5-0.7-1.4-1.1-2.4-1.1c-1.1,0-1.9,0.3-2.4,1C264.1,500.9,263.8,501.9,263.8,503.3z"/>
			<path fill="#221F1F" d="M283.5,497.9v1l-2,0.2c0.2,0.2,0.3,0.5,0.5,0.9c0.1,0.4,0.2,0.8,0.2,1.2c0,1-0.4,1.9-1.1,2.5
				c-0.7,0.6-1.7,0.9-2.9,0.9c-0.3,0-0.6,0-0.9-0.1c-0.7,0.4-1,0.8-1,1.4c0,0.3,0.1,0.5,0.4,0.6s0.7,0.2,1.2,0.2h1.9
				c1.2,0,2,0.2,2.7,0.7s0.9,1.2,0.9,2.1c0,1.2-0.5,2.1-1.4,2.7c-0.9,0.6-2.3,0.9-4.2,0.9c-1.4,0-2.5-0.3-3.2-0.8s-1.1-1.3-1.1-2.2
				c0-0.7,0.2-1.2,0.6-1.7s1-0.8,1.8-1c-0.3-0.1-0.5-0.3-0.7-0.6c-0.2-0.3-0.3-0.6-0.3-0.9c0-0.4,0.1-0.7,0.3-1s0.5-0.6,1-0.8
				c-0.6-0.2-1-0.6-1.3-1.2s-0.5-1.2-0.5-1.9c0-1.2,0.4-2.1,1.1-2.7c0.7-0.6,1.7-1,3-1c0.6,0,1.1,0.1,1.5,0.2H283.5z M275,510.4
				c0,0.6,0.2,1,0.7,1.3s1.2,0.4,2.1,0.4c1.4,0,2.4-0.2,3-0.6s1-1,1-1.7c0-0.6-0.2-1-0.5-1.2s-1-0.3-2-0.3h-1.9
				c-0.7,0-1.3,0.2-1.7,0.5C275.2,509.3,275,509.8,275,510.4z M275.9,501.4c0,0.7,0.2,1.3,0.6,1.7c0.4,0.4,1,0.6,1.8,0.6
				c1.6,0,2.4-0.8,2.4-2.3c0-1.6-0.8-2.4-2.4-2.4c-0.8,0-1.3,0.2-1.8,0.6C276.1,500,275.9,500.6,275.9,501.4z"/>
			<path fill="#221F1F" d="M290.6,497.7c0.5,0,0.9,0,1.3,0.1l-0.2,1.5c-0.4-0.1-0.8-0.1-1.2-0.1c-0.9,0-1.6,0.4-2.2,1.1
				s-0.9,1.6-0.9,2.6v5.7h-1.6v-10.7h1.3l0.2,2h0.1c0.4-0.7,0.9-1.2,1.4-1.6S289.9,497.7,290.6,497.7z"/>
			<path fill="#221F1F" d="M300.4,508.6l-0.3-1.5H300c-0.5,0.7-1.1,1.1-1.6,1.4c-0.5,0.2-1.2,0.4-2,0.4c-1.1,0-1.9-0.3-2.5-0.8
				c-0.6-0.5-0.9-1.3-0.9-2.3c0-2.2,1.7-3.3,5.2-3.4l1.8-0.1v-0.7c0-0.8-0.2-1.5-0.5-1.9c-0.4-0.4-0.9-0.6-1.7-0.6
				c-0.9,0-1.9,0.3-3,0.8l-0.5-1.2c0.5-0.3,1.1-0.5,1.7-0.7s1.3-0.2,1.9-0.2c1.3,0,2.2,0.3,2.8,0.8s0.9,1.5,0.9,2.7v7.3H300.4z
				 M296.8,507.5c1,0,1.8-0.3,2.4-0.8s0.9-1.3,0.9-2.3v-1l-1.6,0.1c-1.3,0-2.2,0.2-2.8,0.6s-0.9,0.9-0.9,1.7c0,0.6,0.2,1,0.5,1.3
				C295.6,507.3,296.1,507.5,296.8,507.5z"/>
			<path fill="#221F1F" d="M309.9,508.8c-0.7,0-1.3-0.1-1.9-0.4s-1.1-0.7-1.4-1.2h-0.1c0.1,0.6,0.1,1.2,0.1,1.8v4.4H305v-15.5h1.3
				l0.2,1.5h0.1c0.4-0.6,0.9-1,1.5-1.3c0.6-0.3,1.2-0.4,1.9-0.4c1.4,0,2.5,0.5,3.3,1.5c0.8,1,1.2,2.3,1.2,4.1c0,1.8-0.4,3.1-1.2,4.1
				S311.3,508.8,309.9,508.8z M309.7,499.1c-1.1,0-1.9,0.3-2.4,0.9s-0.7,1.6-0.8,2.9v0.4c0,1.5,0.2,2.6,0.8,3.2c0.5,0.6,1.3,1,2.4,1
				c0.9,0,1.6-0.4,2.2-1.1c0.5-0.7,0.8-1.8,0.8-3.1c0-1.3-0.3-2.4-0.8-3.1C311.4,499.5,310.7,499.1,309.7,499.1z"/>
			<path fill="#221F1F" d="M324.5,508.6v-6.9c0-0.9-0.2-1.5-0.6-2s-1-0.6-1.9-0.6c-1.1,0-1.9,0.3-2.5,0.9s-0.8,1.6-0.8,3v5.6h-1.6
				v-15.2h1.6v4.6c0,0.6,0,1-0.1,1.4h0.1c0.3-0.5,0.8-0.9,1.4-1.2s1.3-0.4,2-0.4c1.3,0,2.3,0.3,2.9,0.9c0.7,0.6,1,1.6,1,3v7H324.5z"
				/>
			<path fill="#221F1F" d="M334,508.8c-1.6,0-2.8-0.5-3.7-1.4s-1.4-2.3-1.4-4c0-1.7,0.4-3.1,1.3-4.1s2-1.5,3.4-1.5
				c1.3,0,2.4,0.4,3.2,1.3c0.8,0.9,1.2,2,1.2,3.5v1h-7.4c0,1.3,0.3,2.2,1,2.9c0.6,0.7,1.4,1,2.5,1c1.1,0,2.3-0.2,3.4-0.7v1.4
				c-0.6,0.2-1.1,0.4-1.6,0.5S334.7,508.8,334,508.8z M333.5,499.1c-0.9,0-1.5,0.3-2.1,0.8c-0.5,0.6-0.8,1.3-0.9,2.3h5.6
				c0-1-0.2-1.8-0.7-2.3C335,499.4,334.4,499.1,333.5,499.1z"/>
			<path fill="#221F1F" d="M345.5,497.7c0.5,0,0.9,0,1.3,0.1l-0.2,1.5c-0.4-0.1-0.8-0.1-1.2-0.1c-0.9,0-1.6,0.4-2.2,1.1
				c-0.6,0.7-0.9,1.6-0.9,2.6v5.7h-1.6v-10.7h1.3l0.2,2h0.1c0.4-0.7,0.9-1.2,1.4-1.6C344.2,497.9,344.9,497.7,345.5,497.7z"/>
			<path fill="#221F1F" d="M353.8,495c0-0.4,0.1-0.6,0.3-0.8c0.2-0.2,0.4-0.3,0.7-0.3c0.3,0,0.5,0.1,0.7,0.3s0.3,0.4,0.3,0.8
				s-0.1,0.6-0.3,0.8s-0.4,0.3-0.7,0.3c-0.3,0-0.5-0.1-0.7-0.3C353.9,495.7,353.8,495.4,353.8,495z M355.6,508.6H354v-10.7h1.6
				V508.6z"/>
			<path fill="#221F1F" d="M365.9,505.7c0,1-0.4,1.8-1.1,2.3c-0.7,0.5-1.8,0.8-3.1,0.8c-1.4,0-2.5-0.2-3.3-0.7v-1.5
				c0.5,0.3,1.1,0.5,1.7,0.6s1.2,0.2,1.7,0.2c0.8,0,1.5-0.1,1.9-0.4s0.7-0.7,0.7-1.2c0-0.4-0.2-0.8-0.5-1.1c-0.4-0.3-1.1-0.6-2.1-1
				c-1-0.4-1.7-0.7-2.1-1s-0.7-0.6-0.9-0.9c-0.2-0.4-0.3-0.8-0.3-1.3c0-0.9,0.4-1.6,1.1-2.1s1.7-0.8,2.9-0.8c1.1,0,2.3,0.2,3.4,0.7
				l-0.6,1.3c-1.1-0.4-2-0.7-2.9-0.7c-0.8,0-1.3,0.1-1.7,0.4s-0.6,0.6-0.6,1c0,0.3,0.1,0.5,0.2,0.7s0.4,0.4,0.7,0.6
				c0.3,0.2,0.9,0.4,1.9,0.8c1.3,0.5,2.1,0.9,2.6,1.4S365.9,505,365.9,505.7z"/>
			<path fill="#221F1F" d="M380.6,505.7c0,1-0.4,1.8-1.1,2.3c-0.7,0.5-1.8,0.8-3.1,0.8c-1.4,0-2.5-0.2-3.3-0.7v-1.5
				c0.5,0.3,1.1,0.5,1.7,0.6c0.6,0.1,1.2,0.2,1.7,0.2c0.8,0,1.5-0.1,1.9-0.4c0.5-0.3,0.7-0.7,0.7-1.2c0-0.4-0.2-0.8-0.5-1.1
				s-1.1-0.6-2.1-1c-1-0.4-1.7-0.7-2.1-1c-0.4-0.3-0.7-0.6-0.9-0.9c-0.2-0.4-0.3-0.8-0.3-1.3c0-0.9,0.4-1.6,1.1-2.1
				c0.7-0.5,1.7-0.8,2.9-0.8c1.2,0,2.3,0.2,3.4,0.7l-0.6,1.3c-1.1-0.4-2-0.7-2.9-0.7c-0.8,0-1.3,0.1-1.7,0.4c-0.4,0.2-0.6,0.6-0.6,1
				c0,0.3,0.1,0.5,0.2,0.7c0.1,0.2,0.4,0.4,0.7,0.6s0.9,0.4,1.9,0.8c1.3,0.5,2.1,0.9,2.6,1.4C380.4,504.4,380.6,505,380.6,505.7z"/>
			<path fill="#221F1F" d="M392.5,503.3c0,1.7-0.4,3.1-1.3,4.1s-2.1,1.5-3.6,1.5c-1,0-1.8-0.2-2.5-0.7c-0.7-0.4-1.3-1.1-1.7-1.9
				c-0.4-0.8-0.6-1.8-0.6-2.9c0-1.7,0.4-3.1,1.3-4.1s2.1-1.5,3.6-1.5c1.5,0,2.7,0.5,3.6,1.5S392.5,501.6,392.5,503.3z M384.3,503.3
				c0,1.4,0.3,2.4,0.8,3.1s1.3,1.1,2.4,1.1s1.9-0.4,2.4-1.1c0.5-0.7,0.8-1.8,0.8-3.1c0-1.4-0.3-2.4-0.8-3.1
				c-0.5-0.7-1.4-1.1-2.4-1.1c-1.1,0-1.9,0.3-2.4,1C384.6,500.9,384.3,501.9,384.3,503.3z"/>
			<path fill="#221F1F" d="M396.9,508.6h-1.6v-15.2h1.6V508.6z"/>
			<path fill="#221F1F" d="M407.6,507.2L407.6,507.2c-0.8,1.1-2,1.6-3.4,1.6c-1.4,0-2.5-0.5-3.3-1.4s-1.2-2.3-1.2-4.1
				s0.4-3.1,1.2-4.1c0.8-1,1.9-1.5,3.3-1.5c1.4,0,2.6,0.5,3.3,1.6h0.1l-0.1-0.8l0-0.8v-4.4h1.6v15.2h-1.3L407.6,507.2z M404.4,507.5
				c1.1,0,1.9-0.3,2.4-0.9s0.7-1.6,0.7-2.9v-0.3c0-1.5-0.3-2.6-0.8-3.2s-1.3-1-2.4-1c-0.9,0-1.7,0.4-2.2,1.1
				c-0.5,0.7-0.8,1.8-0.8,3.1c0,1.4,0.2,2.4,0.8,3.1C402.7,507.1,403.4,507.5,404.4,507.5z"/>
			<path fill="#221F1F" d="M68.3,532.6l-2-6.3c-0.1-0.4-0.4-1.3-0.7-2.6h-0.1c-0.3,1.1-0.5,2-0.7,2.6l-2,6.3H61l-2.9-10.7h1.7
				c0.7,2.7,1.2,4.7,1.6,6.1s0.6,2.4,0.6,2.8h0.1c0.1-0.4,0.2-0.9,0.3-1.4s0.3-1.1,0.4-1.4l2-6.1h1.8l1.9,6.1
				c0.4,1.1,0.6,2.1,0.7,2.8h0.1c0-0.2,0.1-0.6,0.2-1.1c0.1-0.5,0.8-3.1,2-7.9h1.7l-3,10.7H68.3z"/>
			<path fill="#221F1F" d="M84.3,527.3c0,1.7-0.4,3.1-1.3,4.1s-2.1,1.5-3.6,1.5c-1,0-1.8-0.2-2.5-0.7c-0.7-0.4-1.3-1.1-1.7-1.9
				c-0.4-0.8-0.6-1.8-0.6-2.9c0-1.7,0.4-3.1,1.3-4.1s2.1-1.5,3.6-1.5c1.5,0,2.7,0.5,3.6,1.5S84.3,525.6,84.3,527.3z M76.2,527.3
				c0,1.4,0.3,2.4,0.8,3.1s1.3,1.1,2.4,1.1s1.9-0.4,2.4-1.1c0.5-0.7,0.8-1.8,0.8-3.1c0-1.4-0.3-2.4-0.8-3.1
				c-0.5-0.7-1.4-1.1-2.4-1.1c-1.1,0-1.9,0.3-2.4,1C76.5,524.9,76.2,525.9,76.2,527.3z"/>
			<path fill="#221F1F" d="M92,521.7c0.5,0,0.9,0,1.3,0.1l-0.2,1.5c-0.4-0.1-0.8-0.1-1.2-0.1c-0.9,0-1.6,0.4-2.2,1.1
				s-0.9,1.6-0.9,2.6v5.7h-1.6v-10.7h1.3l0.2,2h0.1c0.4-0.7,0.9-1.2,1.4-1.6S91.4,521.7,92,521.7z"/>
			<path fill="#221F1F" d="M96.9,532.6h-1.6v-15.2h1.6V532.6z"/>
			<path fill="#221F1F" d="M107.6,531.2L107.6,531.2c-0.8,1.1-2,1.6-3.4,1.6c-1.4,0-2.5-0.5-3.3-1.4s-1.2-2.3-1.2-4.1
				s0.4-3.1,1.2-4.1c0.8-1,1.9-1.5,3.3-1.5c1.4,0,2.6,0.5,3.3,1.6h0.1l-0.1-0.8l0-0.8v-4.4h1.6v15.2h-1.3L107.6,531.2z M104.4,531.5
				c1.1,0,1.9-0.3,2.4-0.9s0.7-1.6,0.7-2.9v-0.3c0-1.5-0.3-2.6-0.8-3.2s-1.3-1-2.4-1c-0.9,0-1.7,0.4-2.2,1.1
				c-0.5,0.7-0.8,1.8-0.8,3.1c0,1.4,0.2,2.4,0.8,3.1C102.7,531.1,103.4,531.5,104.4,531.5z"/>
			<path fill="#221F1F" d="M121.3,532.6l-2-6.3c-0.1-0.4-0.4-1.3-0.7-2.6h-0.1c-0.3,1.1-0.5,2-0.7,2.6l-2,6.3H114l-2.9-10.7h1.7
				c0.7,2.7,1.2,4.7,1.6,6.1c0.4,1.4,0.6,2.4,0.6,2.8h0.1c0.1-0.4,0.2-0.9,0.3-1.4s0.3-1.1,0.4-1.4l2-6.1h1.8l1.9,6.1
				c0.4,1.1,0.6,2.1,0.7,2.8h0.1c0-0.2,0.1-0.6,0.2-1.1c0.1-0.5,0.8-3.1,2-7.9h1.7l-3,10.7H121.3z"/>
			<path fill="#221F1F" d="M128,519c0-0.4,0.1-0.6,0.3-0.8c0.2-0.2,0.4-0.3,0.7-0.3c0.3,0,0.5,0.1,0.7,0.3s0.3,0.4,0.3,0.8
				s-0.1,0.6-0.3,0.8s-0.4,0.3-0.7,0.3c-0.3,0-0.5-0.1-0.7-0.3C128.1,519.7,128,519.4,128,519z M129.8,532.6h-1.6v-10.7h1.6V532.6z"
				/>
			<path fill="#221F1F" d="M140.5,531.2L140.5,531.2c-0.8,1.1-2,1.6-3.4,1.6c-1.4,0-2.5-0.5-3.3-1.4s-1.2-2.3-1.2-4.1
				s0.4-3.1,1.2-4.1c0.8-1,1.9-1.5,3.3-1.5c1.4,0,2.6,0.5,3.3,1.6h0.1l-0.1-0.8l0-0.8v-4.4h1.6v15.2h-1.3L140.5,531.2z M137.2,531.5
				c1.1,0,1.9-0.3,2.4-0.9c0.5-0.6,0.7-1.6,0.7-2.9v-0.3c0-1.5-0.3-2.6-0.8-3.2c-0.5-0.6-1.3-1-2.4-1c-0.9,0-1.7,0.4-2.2,1.1
				c-0.5,0.7-0.8,1.8-0.8,3.1c0,1.4,0.2,2.4,0.8,3.1C135.5,531.1,136.2,531.5,137.2,531.5z"/>
			<path fill="#221F1F" d="M149.9,532.8c-1.6,0-2.8-0.5-3.7-1.4s-1.4-2.3-1.4-4c0-1.7,0.4-3.1,1.3-4.1s2-1.5,3.4-1.5
				c1.3,0,2.4,0.4,3.2,1.3c0.8,0.9,1.2,2,1.2,3.5v1h-7.4c0,1.3,0.3,2.2,1,2.9c0.6,0.7,1.4,1,2.5,1c1.1,0,2.3-0.2,3.4-0.7v1.4
				c-0.6,0.2-1.1,0.4-1.6,0.5S150.6,532.8,149.9,532.8z M149.5,523.1c-0.9,0-1.5,0.3-2.1,0.8c-0.5,0.6-0.8,1.3-0.9,2.3h5.6
				c0-1-0.2-1.8-0.7-2.3C151,523.4,150.3,523.1,149.5,523.1z"/>
			<path fill="#221F1F" d="M168.4,532.6l-0.3-1.5H168c-0.5,0.7-1.1,1.1-1.6,1.4s-1.2,0.4-2,0.4c-1.1,0-1.9-0.3-2.5-0.8
				c-0.6-0.5-0.9-1.3-0.9-2.3c0-2.2,1.7-3.3,5.2-3.4l1.8-0.1v-0.7c0-0.8-0.2-1.5-0.5-1.9s-0.9-0.6-1.7-0.6c-0.9,0-1.9,0.3-3,0.8
				l-0.5-1.2c0.5-0.3,1.1-0.5,1.7-0.7s1.3-0.2,1.9-0.2c1.3,0,2.2,0.3,2.8,0.8c0.6,0.6,0.9,1.5,0.9,2.7v7.3H168.4z M164.7,531.5
				c1,0,1.8-0.3,2.4-0.8s0.9-1.3,0.9-2.3v-1l-1.6,0.1c-1.3,0-2.2,0.2-2.8,0.6c-0.6,0.4-0.9,0.9-0.9,1.7c0,0.6,0.2,1,0.5,1.3
				S164.1,531.5,164.7,531.5z"/>
			<path fill="#221F1F" d="M180.2,532.6v-6.9c0-0.9-0.2-1.5-0.6-2s-1-0.6-1.9-0.6c-1.1,0-1.9,0.3-2.5,0.9c-0.5,0.6-0.8,1.6-0.8,3
				v5.6h-1.6v-10.7h1.3l0.3,1.5h0.1c0.3-0.5,0.8-0.9,1.4-1.2c0.6-0.3,1.3-0.4,2-0.4c1.3,0,2.3,0.3,2.9,0.9s1,1.6,1,3v7H180.2z"/>
			<path fill="#221F1F" d="M192.4,531.2L192.4,531.2c-0.8,1.1-2,1.6-3.4,1.6c-1.4,0-2.5-0.5-3.3-1.4s-1.2-2.3-1.2-4.1
				s0.4-3.1,1.2-4.1c0.8-1,1.9-1.5,3.3-1.5c1.4,0,2.6,0.5,3.3,1.6h0.1l-0.1-0.8l0-0.8v-4.4h1.6v15.2h-1.3L192.4,531.2z M189.2,531.5
				c1.1,0,1.9-0.3,2.4-0.9s0.7-1.6,0.7-2.9v-0.3c0-1.5-0.3-2.6-0.8-3.2s-1.3-1-2.4-1c-0.9,0-1.7,0.4-2.2,1.1
				c-0.5,0.7-0.8,1.8-0.8,3.1c0,1.4,0.2,2.4,0.8,3.1C187.5,531.1,188.2,531.5,189.2,531.5z"/>
			<path fill="#221F1F" d="M206.8,532.8c-1.5,0-2.7-0.5-3.6-1.4c-0.8-1-1.3-2.3-1.3-4c0-1.8,0.4-3.2,1.3-4.2c0.9-1,2.1-1.5,3.7-1.5
				c0.5,0,1,0.1,1.5,0.2c0.5,0.1,0.9,0.2,1.2,0.4l-0.5,1.4c-0.4-0.1-0.7-0.3-1.2-0.4c-0.4-0.1-0.8-0.1-1.1-0.1
				c-2.2,0-3.3,1.4-3.3,4.2c0,1.3,0.3,2.3,0.8,3c0.5,0.7,1.3,1.1,2.4,1.1c0.9,0,1.8-0.2,2.7-0.6v1.4
				C208.8,532.7,207.9,532.8,206.8,532.8z"/>
			<path fill="#221F1F" d="M221.3,527.3c0,1.7-0.4,3.1-1.3,4.1s-2.1,1.5-3.6,1.5c-1,0-1.8-0.2-2.5-0.7c-0.7-0.4-1.3-1.1-1.7-1.9
				c-0.4-0.8-0.6-1.8-0.6-2.9c0-1.7,0.4-3.1,1.3-4.1s2.1-1.5,3.6-1.5c1.5,0,2.7,0.5,3.6,1.5S221.3,525.6,221.3,527.3z M213.2,527.3
				c0,1.4,0.3,2.4,0.8,3.1s1.3,1.1,2.4,1.1s1.9-0.4,2.4-1.1c0.5-0.7,0.8-1.8,0.8-3.1c0-1.4-0.3-2.4-0.8-3.1
				c-0.5-0.7-1.4-1.1-2.4-1.1c-1.1,0-1.9,0.3-2.4,1C213.4,524.9,213.2,525.9,213.2,527.3z"/>
			<path fill="#221F1F" d="M231.4,532.6v-6.9c0-0.9-0.2-1.5-0.6-2s-1-0.6-1.9-0.6c-1.1,0-1.9,0.3-2.5,0.9c-0.5,0.6-0.8,1.6-0.8,3
				v5.6h-1.6v-10.7h1.3l0.3,1.5h0.1c0.3-0.5,0.8-0.9,1.4-1.2s1.3-0.4,2-0.4c1.3,0,2.3,0.3,2.9,0.9c0.6,0.6,1,1.6,1,3v7H231.4z"/>
			<path fill="#221F1F" d="M239.8,531.5c0.3,0,0.6,0,0.8-0.1s0.5-0.1,0.6-0.1v1.2c-0.2,0.1-0.4,0.2-0.8,0.2
				c-0.3,0.1-0.6,0.1-0.9,0.1c-2.1,0-3.1-1.1-3.1-3.3v-6.4H235v-0.8l1.5-0.7l0.7-2.3h0.9v2.5h3.1v1.3h-3.1v6.3
				c0,0.6,0.2,1.1,0.5,1.5S239.3,531.5,239.8,531.5z"/>
			<path fill="#221F1F" d="M243.3,519c0-0.4,0.1-0.6,0.3-0.8c0.2-0.2,0.4-0.3,0.7-0.3c0.3,0,0.5,0.1,0.7,0.3s0.3,0.4,0.3,0.8
				s-0.1,0.6-0.3,0.8s-0.4,0.3-0.7,0.3c-0.3,0-0.5-0.1-0.7-0.3C243.4,519.7,243.3,519.4,243.3,519z M245.1,532.6h-1.6v-10.7h1.6
				V532.6z"/>
			<path fill="#221F1F" d="M255.8,532.6v-6.9c0-0.9-0.2-1.5-0.6-2s-1-0.6-1.9-0.6c-1.1,0-1.9,0.3-2.5,0.9c-0.5,0.6-0.8,1.6-0.8,3
				v5.6h-1.6v-10.7h1.3l0.3,1.5h0.1c0.3-0.5,0.8-0.9,1.4-1.2s1.3-0.4,2-0.4c1.3,0,2.3,0.3,2.9,0.9c0.6,0.6,1,1.6,1,3v7H255.8z"/>
			<path fill="#221F1F" d="M262.3,521.9v6.9c0,0.9,0.2,1.5,0.6,2s1,0.6,1.9,0.6c1.1,0,1.9-0.3,2.5-0.9s0.8-1.6,0.8-3v-5.6h1.6v10.7
				h-1.3l-0.2-1.4h-0.1c-0.3,0.5-0.8,0.9-1.4,1.2s-1.3,0.4-2,0.4c-1.3,0-2.3-0.3-2.9-0.9s-1-1.6-1-3v-7H262.3z"/>
			<path fill="#221F1F" d="M277.5,532.8c-1.6,0-2.8-0.5-3.7-1.4s-1.4-2.3-1.4-4c0-1.7,0.4-3.1,1.3-4.1s2-1.5,3.4-1.5
				c1.3,0,2.4,0.4,3.2,1.3c0.8,0.9,1.2,2,1.2,3.5v1h-7.4c0,1.3,0.3,2.2,1,2.9c0.6,0.7,1.4,1,2.5,1c1.1,0,2.3-0.2,3.4-0.7v1.4
				c-0.6,0.2-1.1,0.4-1.6,0.5S278.2,532.8,277.5,532.8z M277.1,523.1c-0.9,0-1.5,0.3-2.1,0.8c-0.5,0.6-0.8,1.3-0.9,2.3h5.6
				c0-1-0.2-1.8-0.7-2.3C278.6,523.4,277.9,523.1,277.1,523.1z"/>
			<path fill="#221F1F" d="M291.1,529.7c0,1-0.4,1.8-1.1,2.3c-0.7,0.5-1.8,0.8-3.1,0.8c-1.4,0-2.5-0.2-3.3-0.7v-1.5
				c0.5,0.3,1.1,0.5,1.7,0.6s1.2,0.2,1.7,0.2c0.8,0,1.5-0.1,1.9-0.4s0.7-0.7,0.7-1.2c0-0.4-0.2-0.8-0.5-1.1c-0.4-0.3-1.1-0.6-2.1-1
				c-1-0.4-1.7-0.7-2.1-1s-0.7-0.6-0.9-0.9c-0.2-0.4-0.3-0.8-0.3-1.3c0-0.9,0.4-1.6,1.1-2.1s1.7-0.8,2.9-0.8c1.1,0,2.3,0.2,3.4,0.7
				l-0.6,1.3c-1.1-0.4-2-0.7-2.9-0.7c-0.8,0-1.3,0.1-1.7,0.4s-0.6,0.6-0.6,1c0,0.3,0.1,0.5,0.2,0.7s0.4,0.4,0.7,0.6
				c0.3,0.2,0.9,0.4,1.9,0.8c1.3,0.5,2.1,0.9,2.6,1.4S291.1,529,291.1,529.7z"/>
			<path fill="#221F1F" d="M302.3,531.5c0.3,0,0.6,0,0.8-0.1s0.5-0.1,0.6-0.1v1.2c-0.2,0.1-0.4,0.2-0.8,0.2
				c-0.3,0.1-0.6,0.1-0.9,0.1c-2.1,0-3.1-1.1-3.1-3.3v-6.4h-1.5v-0.8l1.5-0.7l0.7-2.3h0.9v2.5h3.1v1.3h-3.1v6.3
				c0,0.6,0.2,1.1,0.5,1.5S301.8,531.5,302.3,531.5z"/>
			<path fill="#221F1F" d="M315.2,527.3c0,1.7-0.4,3.1-1.3,4.1c-0.9,1-2.1,1.5-3.6,1.5c-1,0-1.8-0.2-2.5-0.7
				c-0.7-0.4-1.3-1.1-1.7-1.9c-0.4-0.8-0.6-1.8-0.6-2.9c0-1.7,0.4-3.1,1.3-4.1c0.9-1,2.1-1.5,3.6-1.5c1.5,0,2.7,0.5,3.6,1.5
				C314.7,524.2,315.2,525.6,315.2,527.3z M307,527.3c0,1.4,0.3,2.4,0.8,3.1s1.3,1.1,2.4,1.1c1.1,0,1.9-0.4,2.4-1.1s0.8-1.8,0.8-3.1
				c0-1.4-0.3-2.4-0.8-3.1s-1.4-1.1-2.4-1.1c-1.1,0-1.9,0.3-2.4,1C307.3,524.9,307,525.9,307,527.3z"/>
			<path fill="#221F1F" d="M328.2,521.8c1.4,0,2.5,0.5,3.3,1.4c0.8,1,1.2,2.3,1.2,4.1s-0.4,3.1-1.2,4.1c-0.8,1-1.9,1.5-3.3,1.5
				c-0.7,0-1.3-0.1-1.9-0.4c-0.6-0.3-1.1-0.7-1.4-1.2h-0.1l-0.3,1.4h-1.2v-15.2h1.6v3.7c0,0.8,0,1.6-0.1,2.2h0.1
				C325.6,522.3,326.7,521.8,328.2,521.8z M327.9,523.1c-1.1,0-1.9,0.3-2.4,1s-0.7,1.7-0.7,3.2s0.2,2.6,0.8,3.2c0.5,0.6,1.3,1,2.4,1
				c1,0,1.7-0.4,2.2-1.1s0.7-1.8,0.7-3.1c0-1.4-0.2-2.4-0.7-3.1S328.9,523.1,327.9,523.1z"/>
			<path fill="#221F1F" d="M339.9,532.8c-1.6,0-2.8-0.5-3.7-1.4s-1.4-2.3-1.4-4c0-1.7,0.4-3.1,1.3-4.1c0.8-1,2-1.5,3.4-1.5
				c1.3,0,2.4,0.4,3.2,1.3c0.8,0.9,1.2,2,1.2,3.5v1h-7.4c0,1.3,0.3,2.2,1,2.9c0.6,0.7,1.4,1,2.5,1c1.2,0,2.3-0.2,3.4-0.7v1.4
				c-0.6,0.2-1.1,0.4-1.6,0.5C341.3,532.8,340.7,532.8,339.9,532.8z M339.5,523.1c-0.9,0-1.5,0.3-2.1,0.8s-0.8,1.3-0.9,2.3h5.6
				c0-1-0.2-1.8-0.7-2.3S340.3,523.1,339.5,523.1z"/>
			<path fill="#221F1F" d="M73.2,556.6v-7c0-0.9-0.2-1.5-0.5-1.9s-0.9-0.6-1.7-0.6c-1,0-1.8,0.3-2.2,0.9c-0.5,0.6-0.7,1.5-0.7,2.7v6
				h-1.6v-7c0-0.9-0.2-1.5-0.5-1.9c-0.4-0.4-0.9-0.6-1.7-0.6c-1,0-1.8,0.3-2.2,0.9c-0.5,0.6-0.7,1.6-0.7,3v5.6h-1.6v-10.7h1.3
				l0.3,1.5h0.1c0.3-0.5,0.7-0.9,1.3-1.2s1.2-0.4,1.9-0.4c1.7,0,2.8,0.6,3.3,1.8h0.1c0.3-0.6,0.8-1,1.4-1.3s1.3-0.5,2.1-0.5
				c1.2,0,2.1,0.3,2.7,0.9c0.6,0.6,0.9,1.6,0.9,3v7H73.2z"/>
			<path fill="#221F1F" d="M84.7,556.6l-0.3-1.5h-0.1c-0.5,0.7-1.1,1.1-1.6,1.4c-0.5,0.2-1.2,0.4-2,0.4c-1.1,0-1.9-0.3-2.5-0.8
				c-0.6-0.5-0.9-1.3-0.9-2.3c0-2.2,1.7-3.3,5.2-3.4l1.8-0.1v-0.7c0-0.8-0.2-1.5-0.5-1.9c-0.4-0.4-0.9-0.6-1.7-0.6
				c-0.9,0-1.9,0.3-3,0.8l-0.5-1.2c0.5-0.3,1.1-0.5,1.7-0.7s1.3-0.2,1.9-0.2c1.3,0,2.2,0.3,2.8,0.8s0.9,1.5,0.9,2.7v7.3H84.7z
				 M81.1,555.5c1,0,1.8-0.3,2.4-0.8s0.9-1.3,0.9-2.3v-1l-1.6,0.1c-1.3,0-2.2,0.2-2.8,0.6s-0.9,0.9-0.9,1.7c0,0.6,0.2,1,0.5,1.3
				C79.9,555.3,80.4,555.5,81.1,555.5z"/>
			<path fill="#221F1F" d="M96.6,556.6v-6.9c0-0.9-0.2-1.5-0.6-2s-1-0.6-1.9-0.6c-1.1,0-1.9,0.3-2.5,0.9c-0.5,0.6-0.8,1.6-0.8,3v5.6
				h-1.6v-10.7h1.3l0.3,1.5h0.1c0.3-0.5,0.8-0.9,1.4-1.2s1.3-0.4,2-0.4c1.3,0,2.3,0.3,2.9,0.9c0.6,0.6,1,1.6,1,3v7H96.6z"/>
			<path fill="#221F1F" d="M103,545.9v6.9c0,0.9,0.2,1.5,0.6,2s1,0.6,1.9,0.6c1.1,0,1.9-0.3,2.5-0.9s0.8-1.6,0.8-3v-5.6h1.6v10.7
				H109l-0.2-1.4h-0.1c-0.3,0.5-0.8,0.9-1.4,1.2s-1.3,0.4-2,0.4c-1.3,0-2.3-0.3-2.9-0.9s-1-1.6-1-3v-7H103z"/>
			<path fill="#221F1F" d="M118.6,547.2h-2.7v9.4h-1.6v-9.4h-1.9v-0.7l1.9-0.6v-0.6c0-2.6,1.1-3.9,3.4-3.9c0.6,0,1.2,0.1,2,0.3
				l-0.4,1.3c-0.6-0.2-1.2-0.3-1.6-0.3c-0.6,0-1.1,0.2-1.4,0.6c-0.3,0.4-0.4,1.1-0.4,2v0.7h2.7V547.2z"/>
			<path fill="#221F1F" d="M127.1,556.6l-0.3-1.5h-0.1c-0.5,0.7-1.1,1.1-1.6,1.4c-0.5,0.2-1.2,0.4-2,0.4c-1.1,0-1.9-0.3-2.5-0.8
				c-0.6-0.5-0.9-1.3-0.9-2.3c0-2.2,1.7-3.3,5.2-3.4l1.8-0.1v-0.7c0-0.8-0.2-1.5-0.5-1.9c-0.4-0.4-0.9-0.6-1.7-0.6
				c-0.9,0-1.9,0.3-3,0.8l-0.5-1.2c0.5-0.3,1.1-0.5,1.7-0.7s1.3-0.2,1.9-0.2c1.3,0,2.2,0.3,2.8,0.8s0.9,1.5,0.9,2.7v7.3H127.1z
				 M123.4,555.5c1,0,1.8-0.3,2.4-0.8s0.9-1.3,0.9-2.3v-1l-1.6,0.1c-1.3,0-2.2,0.2-2.8,0.6s-0.9,0.9-0.9,1.7c0,0.6,0.2,1,0.5,1.3
				C122.3,555.3,122.8,555.5,123.4,555.5z"/>
			<path fill="#221F1F" d="M135.9,556.8c-1.5,0-2.7-0.5-3.6-1.4c-0.8-1-1.3-2.3-1.3-4c0-1.8,0.4-3.2,1.3-4.2c0.9-1,2.1-1.5,3.7-1.5
				c0.5,0,1,0.1,1.5,0.2c0.5,0.1,0.9,0.2,1.2,0.4l-0.5,1.4c-0.4-0.1-0.7-0.3-1.2-0.4c-0.4-0.1-0.8-0.1-1.1-0.1
				c-2.2,0-3.3,1.4-3.3,4.2c0,1.3,0.3,2.3,0.8,3c0.5,0.7,1.3,1.1,2.4,1.1c0.9,0,1.8-0.2,2.7-0.6v1.4
				C137.9,556.7,137,556.8,135.9,556.8z"/>
			<path fill="#221F1F" d="M144.6,555.5c0.3,0,0.6,0,0.8-0.1s0.5-0.1,0.6-0.1v1.2c-0.2,0.1-0.4,0.2-0.8,0.2
				c-0.3,0.1-0.6,0.1-0.9,0.1c-2.1,0-3.1-1.1-3.1-3.3v-6.4h-1.5v-0.8l1.5-0.7l0.7-2.3h0.9v2.5h3.1v1.3h-3.1v6.3
				c0,0.6,0.2,1.1,0.5,1.5S144.1,555.5,144.6,555.5z"/>
			<path fill="#221F1F" d="M149.7,545.9v6.9c0,0.9,0.2,1.5,0.6,2s1,0.6,1.9,0.6c1.1,0,1.9-0.3,2.5-0.9s0.8-1.6,0.8-3v-5.6h1.6v10.7
				h-1.3l-0.2-1.4h-0.1c-0.3,0.5-0.8,0.9-1.4,1.2c-0.6,0.3-1.3,0.4-2,0.4c-1.3,0-2.3-0.3-2.9-0.9s-1-1.6-1-3v-7H149.7z"/>
			<path fill="#221F1F" d="M165.3,545.7c0.5,0,0.9,0,1.3,0.1l-0.2,1.5c-0.4-0.1-0.8-0.1-1.2-0.1c-0.9,0-1.6,0.4-2.2,1.1
				c-0.6,0.7-0.9,1.6-0.9,2.6v5.7h-1.6v-10.7h1.3l0.2,2h0.1c0.4-0.7,0.9-1.2,1.4-1.6C164,545.9,164.6,545.7,165.3,545.7z"/>
			<path fill="#221F1F" d="M173.1,556.8c-1.6,0-2.8-0.5-3.7-1.4s-1.4-2.3-1.4-4c0-1.7,0.4-3.1,1.3-4.1s2-1.5,3.4-1.5
				c1.3,0,2.4,0.4,3.2,1.3c0.8,0.9,1.2,2,1.2,3.5v1h-7.4c0,1.3,0.3,2.2,1,2.9c0.6,0.7,1.4,1,2.5,1c1.1,0,2.3-0.2,3.4-0.7v1.4
				c-0.6,0.2-1.1,0.4-1.6,0.5S173.8,556.8,173.1,556.8z M172.7,547.1c-0.9,0-1.5,0.3-2.1,0.8c-0.5,0.6-0.8,1.3-0.9,2.3h5.6
				c0-1-0.2-1.8-0.7-2.3C174.2,547.4,173.5,547.1,172.7,547.1z"/>
			<path fill="#221F1F" d="M187.1,555.2L187.1,555.2c-0.8,1.1-2,1.6-3.4,1.6c-1.4,0-2.5-0.5-3.3-1.4s-1.2-2.3-1.2-4.1
				s0.4-3.1,1.2-4.1c0.8-1,1.9-1.5,3.3-1.5c1.4,0,2.6,0.5,3.3,1.6h0.1l-0.1-0.8l0-0.8v-4.4h1.6v15.2h-1.3L187.1,555.2z M183.8,555.5
				c1.1,0,1.9-0.3,2.4-0.9c0.5-0.6,0.7-1.6,0.7-2.9v-0.3c0-1.5-0.3-2.6-0.8-3.2c-0.5-0.6-1.3-1-2.4-1c-0.9,0-1.7,0.4-2.2,1.1
				c-0.5,0.7-0.8,1.8-0.8,3.1c0,1.4,0.2,2.4,0.8,3.1C182.1,555.1,182.9,555.5,183.8,555.5z"/>
			<path fill="#221F1F" d="M197.1,543c0-0.4,0.1-0.6,0.3-0.8c0.2-0.2,0.4-0.3,0.7-0.3c0.3,0,0.5,0.1,0.7,0.3s0.3,0.4,0.3,0.8
				s-0.1,0.6-0.3,0.8s-0.4,0.3-0.7,0.3c-0.3,0-0.5-0.1-0.7-0.3C197.2,543.7,197.1,543.4,197.1,543z M198.8,556.6h-1.6v-10.7h1.6
				V556.6z"/>
			<path fill="#221F1F" d="M209.6,556.6v-6.9c0-0.9-0.2-1.5-0.6-2s-1-0.6-1.9-0.6c-1.1,0-1.9,0.3-2.5,0.9c-0.5,0.6-0.8,1.6-0.8,3
				v5.6h-1.6v-10.7h1.3l0.3,1.5h0.1c0.3-0.5,0.8-0.9,1.4-1.2c0.6-0.3,1.3-0.4,2-0.4c1.3,0,2.3,0.3,2.9,0.9s1,1.6,1,3v7H209.6z"/>
			<path fill="#221F1F" d="M226.2,556.6l-4.8-12.7h-0.1c0.1,1,0.1,2.2,0.1,3.6v9.1h-1.5v-14.3h2.5l4.5,11.8h0.1l4.6-11.8h2.5v14.3
				h-1.7v-9.2c0-1.1,0-2.2,0.1-3.4h-0.1l-4.9,12.6H226.2z"/>
			<path fill="#221F1F" d="M242.2,556.8c-1.6,0-2.8-0.5-3.7-1.4s-1.4-2.3-1.4-4c0-1.7,0.4-3.1,1.3-4.1c0.8-1,2-1.5,3.4-1.5
				c1.3,0,2.4,0.4,3.2,1.3c0.8,0.9,1.2,2,1.2,3.5v1h-7.4c0,1.3,0.3,2.2,1,2.9c0.6,0.7,1.4,1,2.5,1c1.2,0,2.3-0.2,3.4-0.7v1.4
				c-0.6,0.2-1.1,0.4-1.6,0.5C243.6,556.8,242.9,556.8,242.2,556.8z M241.8,547.1c-0.9,0-1.5,0.3-2.1,0.8s-0.8,1.3-0.9,2.3h5.6
				c0-1-0.2-1.8-0.7-2.3S242.6,547.1,241.8,547.1z"/>
			<path fill="#221F1F" d="M250.5,556.6h-1.6v-15.2h1.6V556.6z"/>
			<path fill="#221F1F" d="M258.9,545.8c1.4,0,2.5,0.5,3.3,1.4c0.8,1,1.2,2.3,1.2,4.1s-0.4,3.1-1.2,4.1c-0.8,1-1.9,1.5-3.3,1.5
				c-0.7,0-1.3-0.1-1.9-0.4c-0.6-0.3-1.1-0.7-1.4-1.2h-0.1l-0.3,1.4H254v-15.2h1.6v3.7c0,0.8,0,1.6-0.1,2.2h0.1
				C256.3,546.3,257.4,545.8,258.9,545.8z M258.7,547.1c-1.1,0-1.9,0.3-2.4,1s-0.7,1.7-0.7,3.2s0.2,2.6,0.8,3.2c0.5,0.6,1.3,1,2.4,1
				c1,0,1.7-0.4,2.2-1.1s0.7-1.8,0.7-3.1c0-1.4-0.2-2.4-0.7-3.1S259.7,547.1,258.7,547.1z"/>
			<path fill="#221F1F" d="M275.4,551.3c0,1.7-0.4,3.1-1.3,4.1c-0.9,1-2.1,1.5-3.6,1.5c-1,0-1.8-0.2-2.5-0.7
				c-0.7-0.4-1.3-1.1-1.7-1.9c-0.4-0.8-0.6-1.8-0.6-2.9c0-1.7,0.4-3.1,1.3-4.1c0.9-1,2.1-1.5,3.6-1.5c1.5,0,2.7,0.5,3.6,1.5
				C275,548.2,275.4,549.6,275.4,551.3z M267.3,551.3c0,1.4,0.3,2.4,0.8,3.1s1.3,1.1,2.4,1.1c1.1,0,1.9-0.4,2.4-1.1s0.8-1.8,0.8-3.1
				c0-1.4-0.3-2.4-0.8-3.1s-1.4-1.1-2.4-1.1c-1.1,0-1.9,0.3-2.4,1C267.5,548.9,267.3,549.9,267.3,551.3z"/>
			<path fill="#221F1F" d="M279.8,545.9v6.9c0,0.9,0.2,1.5,0.6,2s1,0.6,1.9,0.6c1.1,0,1.9-0.3,2.5-0.9s0.8-1.6,0.8-3v-5.6h1.6v10.7
				h-1.3l-0.2-1.4h-0.1c-0.3,0.5-0.8,0.9-1.4,1.2s-1.3,0.4-2,0.4c-1.3,0-2.3-0.3-2.9-0.9s-1-1.6-1-3v-7H279.8z"/>
			<path fill="#221F1F" d="M295.4,545.7c0.5,0,0.9,0,1.3,0.1l-0.2,1.5c-0.4-0.1-0.8-0.1-1.2-0.1c-0.9,0-1.6,0.4-2.2,1.1
				c-0.6,0.7-0.9,1.6-0.9,2.6v5.7h-1.6v-10.7h1.3l0.2,2h0.1c0.4-0.7,0.9-1.2,1.4-1.6C294.1,545.9,294.7,545.7,295.4,545.7z"/>
			<path fill="#221F1F" d="M306,556.6v-6.9c0-0.9-0.2-1.5-0.6-2s-1-0.6-1.9-0.6c-1.1,0-1.9,0.3-2.5,0.9c-0.5,0.6-0.8,1.6-0.8,3v5.6
				h-1.6v-10.7h1.3l0.3,1.5h0.1c0.3-0.5,0.8-0.9,1.4-1.2s1.3-0.4,2-0.4c1.3,0,2.3,0.3,2.9,0.9c0.6,0.6,1,1.6,1,3v7H306z"/>
			<path fill="#221F1F" d="M315.4,556.8c-1.6,0-2.8-0.5-3.7-1.4s-1.4-2.3-1.4-4c0-1.7,0.4-3.1,1.3-4.1s2-1.5,3.4-1.5
				c1.3,0,2.4,0.4,3.2,1.3c0.8,0.9,1.2,2,1.2,3.5v1H312c0,1.3,0.3,2.2,1,2.9c0.6,0.7,1.4,1,2.5,1c1.1,0,2.3-0.2,3.4-0.7v1.4
				c-0.6,0.2-1.1,0.4-1.6,0.5S316.1,556.8,315.4,556.8z M315,547.1c-0.9,0-1.5,0.3-2.1,0.8c-0.5,0.6-0.8,1.3-0.9,2.3h5.6
				c0-1-0.2-1.8-0.7-2.3C316.5,547.4,315.8,547.1,315,547.1z"/>
			<path fill="#221F1F" d="M321.9,555.6c0-0.4,0.1-0.8,0.3-1s0.5-0.3,0.9-0.3c0.4,0,0.7,0.1,0.9,0.3s0.3,0.6,0.3,1
				c0,0.4-0.1,0.7-0.3,1s-0.5,0.3-0.9,0.3c-0.3,0-0.6-0.1-0.8-0.3S321.9,556.1,321.9,555.6z"/>
		</g>
		<g>
			<path fill="#221F1F" d="M66.8,308.7c0,0.4-0.1,0.7-0.4,0.9c-0.3,0.3-0.6,0.4-0.9,0.4c-0.4,0-0.7-0.1-0.9-0.4
				c-0.3-0.2-0.4-0.6-0.4-0.9v-21.3l-2.1,0.7c-0.2,0.1-0.3,0.1-0.5,0.1c-0.4,0-0.7-0.1-0.9-0.4c-0.3-0.3-0.4-0.6-0.4-0.9
				s0.1-0.7,0.4-0.9c0.1-0.1,0.3-0.2,0.4-0.3l3.8-1.3c0.1-0.1,0.3-0.1,0.5-0.1c0.4,0,0.7,0.1,0.9,0.4c0.2,0.3,0.4,0.6,0.4,0.9V308.7
				z"/>
			<path fill="#221F1F" d="M78.4,299.6c-0.5,0.1-0.9,0.1-1.4,0.1c-2.1,0-3.9-0.8-5.4-2.3c-1.5-1.5-2.2-3.3-2.2-5.4
				c0-2.1,0.7-3.9,2.2-5.4c1.5-1.5,3.3-2.3,5.4-2.3s3.9,0.8,5.4,2.3c1.5,1.5,2.2,3.3,2.2,5.4c0,1.6-0.4,3-1.2,4.2l-7.9,13.1
				c-0.1,0.1-0.1,0.2-0.2,0.3c-0.3,0.3-0.6,0.4-0.9,0.4c-0.4,0-0.7-0.1-0.9-0.4c-0.3-0.2-0.4-0.6-0.4-0.9c0-0.2,0.1-0.5,0.2-0.7
				L78.4,299.6z M71.9,292.1c0,1.4,0.5,2.6,1.5,3.6s2.2,1.5,3.6,1.5c1.4,0,2.6-0.5,3.6-1.5s1.5-2.2,1.5-3.6s-0.5-2.6-1.5-3.6
				s-2.2-1.5-3.6-1.5c-1.4,0-2.6,0.5-3.6,1.5S71.9,290.6,71.9,292.1z"/>
			<path fill="#221F1F" d="M96.4,299.6c-0.5,0.1-0.9,0.1-1.4,0.1c-2.1,0-3.9-0.8-5.4-2.3c-1.5-1.5-2.2-3.3-2.2-5.4
				c0-2.1,0.7-3.9,2.2-5.4c1.5-1.5,3.3-2.3,5.4-2.3s3.9,0.8,5.4,2.3c1.5,1.5,2.2,3.3,2.2,5.4c0,1.6-0.4,3-1.2,4.2l-7.9,13.1
				c-0.1,0.1-0.1,0.2-0.2,0.3c-0.3,0.3-0.6,0.4-0.9,0.4c-0.4,0-0.7-0.1-0.9-0.4c-0.3-0.2-0.4-0.6-0.4-0.9c0-0.2,0.1-0.5,0.2-0.7
				L96.4,299.6z M89.8,292.1c0,1.4,0.5,2.6,1.5,3.6s2.2,1.5,3.6,1.5c1.4,0,2.6-0.5,3.6-1.5s1.5-2.2,1.5-3.6s-0.5-2.6-1.5-3.6
				s-2.2-1.5-3.6-1.5c-1.4,0-2.6,0.5-3.6,1.5S89.8,290.6,89.8,292.1z"/>
			<path fill="#221F1F" d="M108.8,295.8c-0.2-0.1-0.3-0.3-0.5-0.4c-1.2-1.3-1.9-2.8-1.9-4.5s0.6-3.3,1.9-4.5
				c1.2-1.3,2.8-1.9,4.5-1.9s3.3,0.6,4.5,1.9c1.2,1.3,1.9,2.8,1.9,4.5s-0.6,3.3-1.9,4.5c-0.2,0.2-0.3,0.3-0.5,0.4
				c0.5,0.3,1,0.7,1.4,1.1c1.5,1.5,2.2,3.3,2.2,5.5s-0.7,3.9-2.2,5.4c-1.5,1.5-3.3,2.3-5.4,2.3c-2.1,0-3.9-0.8-5.4-2.3
				c-1.5-1.5-2.2-3.3-2.2-5.4s0.8-3.9,2.3-5.5C107.9,296.4,108.3,296.1,108.8,295.8z M112.9,297.2c-1.4,0-2.6,0.5-3.6,1.5
				c-1,1-1.5,2.2-1.5,3.6c0,1.4,0.5,2.6,1.5,3.6c1,1,2.2,1.5,3.6,1.5c1.4,0,2.6-0.5,3.6-1.5c1-1,1.5-2.2,1.5-3.6
				c0-1.4-0.5-2.6-1.5-3.6C115.5,297.7,114.3,297.2,112.9,297.2z M112.9,286.9c-1.1,0-2,0.4-2.7,1.1c-0.8,0.8-1.1,1.7-1.1,2.7
				s0.4,2,1.1,2.7c0.8,0.8,1.7,1.1,2.7,1.1s2-0.4,2.7-1.1c0.8-0.8,1.1-1.7,1.1-2.7s-0.4-2-1.1-2.7
				C114.8,287.3,113.9,286.9,112.9,286.9z"/>
		</g>
		<g>
			<path fill="#283B8C" d="M175.8,302.9c0.4,0,0.7,0.1,0.9,0.4c0.2,0.2,0.4,0.6,0.4,0.9c0,0.4-0.1,0.7-0.4,0.9
				c-0.2,0.2-0.6,0.4-0.9,0.4h-11.2c-0.2,0-0.4,0-0.5-0.1c-0.2-0.1-0.3-0.2-0.4-0.3c-0.1-0.1-0.2-0.3-0.3-0.4
				c-0.1-0.2-0.1-0.3-0.1-0.5v-16.8c0-0.2,0-0.3,0.1-0.5c0.1-0.2,0.2-0.3,0.3-0.4c0.1-0.1,0.3-0.2,0.4-0.3c0.2-0.1,0.3-0.1,0.5-0.1
				h11.2c0.4,0,0.7,0.1,0.9,0.4c0.2,0.2,0.4,0.6,0.4,0.9c0,0.4-0.1,0.7-0.4,0.9c-0.2,0.2-0.6,0.4-0.9,0.4h-9.9v5.8h7.1
				c0.4,0,0.7,0.1,0.9,0.4c0.2,0.2,0.4,0.6,0.4,0.9c0,0.4-0.1,0.7-0.4,0.9c-0.2,0.2-0.6,0.4-0.9,0.4h-7.1v5.8H175.8z"/>
			<path fill="#283B8C" d="M179.7,291.1c0-0.7,0.1-1.4,0.4-2c0.3-0.6,0.6-1.1,1.1-1.6c0.4-0.5,1-0.8,1.6-1.1
				c0.6-0.3,1.2-0.4,1.9-0.4s1.3,0.1,1.9,0.4c0.6,0.3,1.1,0.6,1.6,1.1c0.4,0.5,0.8,1,1.1,1.6s0.4,1.3,0.4,1.9c0,1.3-0.5,2.5-1.5,3.6
				c1.6,1.3,2.4,2.9,2.4,4.8c0,0.8-0.2,1.6-0.5,2.3c-0.3,0.7-0.7,1.4-1.3,1.9s-1.2,1-1.9,1.3c-0.7,0.3-1.5,0.5-2.3,0.5
				s-1.6-0.2-2.3-0.5c-0.7-0.3-1.3-0.7-1.9-1.3c-0.5-0.5-0.9-1.2-1.3-1.9s-0.5-1.5-0.5-2.3c0-0.4,0.1-0.7,0.4-0.9s0.5-0.4,0.9-0.4
				c0.4,0,0.7,0.1,0.9,0.4s0.4,0.5,0.4,0.9c0,0.5,0.1,0.9,0.3,1.3s0.4,0.8,0.7,1.1c0.3,0.3,0.6,0.5,1,0.7c0.4,0.2,0.8,0.3,1.3,0.3
				c0.5,0,0.9-0.1,1.3-0.3c0.4-0.2,0.8-0.4,1.1-0.7c0.3-0.3,0.5-0.7,0.7-1.1c0.2-0.4,0.3-0.8,0.3-1.3s-0.1-0.9-0.3-1.3
				c-0.2-0.4-0.4-0.8-0.7-1.1c-0.3-0.3-0.7-0.5-1.1-0.7c-0.4-0.2-0.8-0.3-1.3-0.3c-0.4,0-0.7-0.1-0.9-0.4c-0.2-0.2-0.4-0.5-0.4-0.9
				c0-0.4,0.1-0.7,0.4-0.9c0.2-0.2,0.5-0.4,0.9-0.4c0.3,0,0.6-0.1,0.9-0.2c0.3-0.1,0.5-0.3,0.8-0.5c0.2-0.2,0.4-0.5,0.5-0.8
				c0.1-0.3,0.2-0.6,0.2-0.9c0-0.3-0.1-0.7-0.2-1c-0.1-0.3-0.3-0.6-0.5-0.8c-0.2-0.2-0.5-0.4-0.8-0.5c-0.3-0.1-0.6-0.2-0.9-0.2
				c-0.3,0-0.6,0.1-0.9,0.2c-0.3,0.1-0.5,0.3-0.8,0.5c-0.2,0.2-0.4,0.5-0.5,0.8c-0.1,0.3-0.2,0.6-0.2,1c0,0.3-0.1,0.6-0.4,0.9
				s-0.5,0.4-0.9,0.4c-0.3,0-0.6-0.1-0.9-0.4C179.9,291.8,179.7,291.5,179.7,291.1z"/>
			<path fill="#283B8C" d="M192.3,295.8c0-1.5,0.1-2.9,0.4-4.1c0.3-1.2,0.6-2.2,1.1-3c0.5-0.8,1.1-1.5,1.8-1.9
				c0.7-0.4,1.6-0.7,2.5-0.7c0.9,0,1.8,0.2,2.5,0.7c0.7,0.4,1.3,1.1,1.9,1.9c0.5,0.8,0.9,1.8,1.1,3c0.3,1.2,0.4,2.5,0.4,4
				c0,1.5-0.1,2.8-0.4,4c-0.3,1.2-0.6,2.2-1.1,3s-1.1,1.5-1.9,1.9c-0.7,0.4-1.6,0.7-2.5,0.7c-0.9,0-1.8-0.2-2.5-0.7
				c-0.7-0.4-1.3-1.1-1.8-1.9c-0.5-0.8-0.9-1.8-1.1-3S192.3,297.3,192.3,295.8z M198.2,288.7c-0.6,0-1.1,0.2-1.5,0.5
				c-0.4,0.4-0.8,0.9-1,1.5s-0.5,1.4-0.6,2.3c-0.1,0.9-0.2,1.8-0.2,2.8c0,1,0.1,2,0.2,2.9c0.1,0.9,0.3,1.6,0.6,2.3
				c0.3,0.6,0.6,1.1,1,1.5c0.4,0.4,0.9,0.5,1.5,0.5c0.6,0,1.1-0.2,1.5-0.5c0.4-0.4,0.8-0.9,1-1.5s0.5-1.4,0.6-2.3
				c0.1-0.9,0.2-1.8,0.2-2.8c0-1-0.1-1.9-0.2-2.8s-0.3-1.6-0.6-2.3s-0.6-1.1-1-1.5C199.3,288.8,198.8,288.7,198.2,288.7z"/>
			<path fill="#283B8C" d="M205.9,295.8c0-1.5,0.1-2.9,0.4-4.1c0.3-1.2,0.6-2.2,1.1-3c0.5-0.8,1.1-1.5,1.8-1.9
				c0.7-0.4,1.6-0.7,2.5-0.7c0.9,0,1.8,0.2,2.5,0.7c0.7,0.4,1.3,1.1,1.9,1.9c0.5,0.8,0.9,1.8,1.1,3c0.3,1.2,0.4,2.5,0.4,4
				c0,1.5-0.1,2.8-0.4,4c-0.3,1.2-0.6,2.2-1.1,3s-1.1,1.5-1.9,1.9c-0.7,0.4-1.6,0.7-2.5,0.7c-0.9,0-1.8-0.2-2.5-0.7
				c-0.7-0.4-1.3-1.1-1.8-1.9c-0.5-0.8-0.9-1.8-1.1-3S205.9,297.3,205.9,295.8z M211.8,288.7c-0.6,0-1.1,0.2-1.5,0.5
				c-0.4,0.4-0.8,0.9-1,1.5s-0.5,1.4-0.6,2.3c-0.1,0.9-0.2,1.8-0.2,2.8c0,1,0.1,2,0.2,2.9c0.1,0.9,0.3,1.6,0.6,2.3
				c0.3,0.6,0.6,1.1,1,1.5c0.4,0.4,0.9,0.5,1.5,0.5c0.6,0,1.1-0.2,1.5-0.5c0.4-0.4,0.8-0.9,1-1.5s0.5-1.4,0.6-2.3
				c0.1-0.9,0.2-1.8,0.2-2.8c0-1-0.1-1.9-0.2-2.8s-0.3-1.6-0.6-2.3s-0.6-1.1-1-1.5C212.8,288.8,212.3,288.7,211.8,288.7z"/>
			<path fill="#283B8C" d="M241.5,301.1c0.2,0,0.3,0,0.5,0.1c0.2,0.1,0.3,0.2,0.4,0.3c0.1,0.1,0.2,0.2,0.3,0.4
				c0.1,0.2,0.1,0.3,0.1,0.5c0,0.3-0.1,0.6-0.4,0.9c-1.8,1.4-3.8,2.2-6.1,2.2c-2.7,0-4.9-0.9-6.8-2.8s-2.8-4.2-2.8-6.8
				c0-2.7,0.9-4.9,2.8-6.8c1.9-1.9,4.2-2.8,6.8-2.8c2.3,0,4.3,0.8,6.2,2.3c0.2,0.2,0.3,0.5,0.3,0.9c0,0.2,0,0.4-0.1,0.5
				s-0.2,0.3-0.3,0.4c-0.1,0.1-0.3,0.2-0.4,0.3c-0.2,0.1-0.3,0.1-0.5,0.1c-0.3,0-0.6-0.1-0.9-0.4c-0.6-0.5-1.3-0.9-2-1.1
				s-1.5-0.4-2.3-0.4c-2,0-3.6,0.7-5,2.1c-1.4,1.4-2.1,3.1-2.1,5c0,2,0.7,3.7,2.1,5c1.4,1.4,3.1,2.1,5,2.1c1.7,0,3.2-0.5,4.4-1.6
				C240.9,301.2,241.2,301.1,241.5,301.1z"/>
			<path fill="#283B8C" d="M258,298.7c0,1.9-0.7,3.5-2,4.8c-1.3,1.3-2.9,2-4.8,2c-1.9,0-3.5-0.7-4.8-2s-2-2.9-2-4.8s0.7-3.5,2-4.8
				s2.9-2,4.8-2c1.9,0,3.4,0.7,4.8,2c0.7,0.7,1.2,1.4,1.5,2.2C257.8,296.9,258,297.8,258,298.7z M251.3,294.4
				c-0.6,0-1.2,0.1-1.7,0.3c-0.5,0.2-1,0.5-1.3,0.9c-0.4,0.4-0.7,0.8-0.9,1.3s-0.3,1.1-0.3,1.6c0,0.6,0.1,1.1,0.3,1.6s0.5,1,0.9,1.3
				c0.4,0.4,0.8,0.7,1.3,0.9s1.1,0.3,1.7,0.3c0.6,0,1.1-0.1,1.7-0.3s1-0.5,1.3-0.9s0.7-0.8,0.9-1.3c0.2-0.5,0.3-1.1,0.3-1.6
				c0-0.6-0.1-1.1-0.3-1.6c-0.2-0.5-0.5-1-0.9-1.3c-0.4-0.4-0.8-0.7-1.3-0.9C252.4,294.6,251.8,294.4,251.3,294.4z"/>
			<path fill="#283B8C" d="M262.4,293.2v0.2c0.6-0.5,1.3-0.9,2-1.1c0.7-0.3,1.5-0.4,2.3-0.4c0.4,0,0.7,0,1.1,0.1
				c0.4,0,0.8,0.1,1.1,0.3s0.6,0.3,0.9,0.5c0.2,0.2,0.3,0.5,0.3,0.8c0,0.2,0,0.3-0.1,0.5c-0.1,0.2-0.2,0.3-0.3,0.4
				c-0.1,0.1-0.2,0.2-0.4,0.3c-0.2,0.1-0.3,0.1-0.5,0.1c-0.2,0-0.3,0-0.5-0.1c-0.5-0.2-1.1-0.3-1.7-0.3c-0.6,0-1.1,0.1-1.7,0.3
				c-0.5,0.2-1,0.5-1.3,0.9s-0.7,0.8-0.9,1.3c-0.2,0.5-0.3,1.1-0.3,1.7v5.5c0,0.3-0.1,0.6-0.4,0.9c-0.2,0.2-0.5,0.4-0.9,0.4
				c-0.4,0-0.7-0.1-0.9-0.4c-0.2-0.2-0.4-0.5-0.4-0.9v-11c0-0.3,0.1-0.6,0.4-0.9c0.2-0.2,0.5-0.4,0.9-0.4c0.3,0,0.6,0.1,0.9,0.4
				C262.3,292.5,262.4,292.8,262.4,293.2z"/>
			<path fill="#283B8C" d="M274,293.2c1.1-0.8,2.3-1.2,3.8-1.2c0.8,0,1.6,0.2,2.4,0.5c0.8,0.3,1.4,0.8,2,1.3s1,1.2,1.4,2
				s0.5,1.6,0.5,2.5v6c0,0.4-0.1,0.7-0.4,0.9c-0.2,0.2-0.5,0.4-0.9,0.4c-0.4,0-0.7-0.1-0.9-0.4c-0.2-0.2-0.4-0.5-0.4-0.9v-6
				c0-0.5-0.1-1-0.3-1.5s-0.5-0.9-0.8-1.2s-0.7-0.6-1.2-0.8c-0.5-0.2-0.9-0.3-1.5-0.3c-0.5,0-1,0.1-1.5,0.3
				c-0.5,0.2-0.9,0.5-1.2,0.8c-0.3,0.3-0.6,0.7-0.8,1.2c-0.2,0.5-0.3,0.9-0.3,1.5v6c0,0.4-0.1,0.7-0.4,0.9c-0.2,0.2-0.5,0.4-0.9,0.4
				c-0.4,0-0.7-0.1-0.9-0.4c-0.2-0.2-0.4-0.5-0.4-0.9v-11c0-0.3,0.1-0.6,0.4-0.9s0.5-0.4,0.9-0.4c0.3,0,0.6,0.1,0.9,0.4
				S274,292.8,274,293.2z"/>
			<path fill="#283B8C" d="M296.3,301.6c0.4,0,0.7,0.1,0.9,0.4c0.2,0.2,0.4,0.5,0.4,0.9c0,0.4-0.1,0.7-0.4,0.9
				c-1.2,1.1-2.7,1.6-4.4,1.6c-1.9,0-3.5-0.7-4.8-2s-2-2.9-2-4.8s0.7-3.5,2-4.8s2.9-2,4.8-2c1.9,0,3.4,0.7,4.8,2
				c0.7,0.7,1.2,1.4,1.5,2.2c0.3,0.8,0.5,1.7,0.5,2.6c0,0.4-0.1,0.7-0.4,0.9c-0.2,0.2-0.5,0.4-0.9,0.4h-9.6c0.1,0.4,0.3,0.8,0.6,1.2
				s0.6,0.7,0.9,0.9c0.4,0.3,0.8,0.5,1.2,0.6c0.4,0.1,0.9,0.2,1.3,0.2c0.5,0,1-0.1,1.5-0.2c0.4-0.2,0.9-0.4,1.2-0.7
				C295.7,301.8,296,301.7,296.3,301.6z M296.8,297.4c-0.1-0.4-0.3-0.8-0.6-1.2c-0.3-0.4-0.6-0.7-0.9-0.9c-0.4-0.3-0.8-0.5-1.2-0.6
				c-0.4-0.1-0.9-0.2-1.3-0.2c-0.5,0-0.9,0.1-1.3,0.2c-0.4,0.1-0.8,0.3-1.2,0.6c-0.4,0.3-0.7,0.6-0.9,0.9c-0.3,0.4-0.5,0.8-0.6,1.2
				H296.8z"/>
			<path fill="#283B8C" d="M312.4,304.2V304c-0.6,0.5-1.3,0.9-2,1.1c-0.7,0.3-1.5,0.4-2.3,0.4c-1.9,0-3.5-0.7-4.8-2s-2-2.9-2-4.8
				s0.7-3.5,2-4.8s2.9-2,4.8-2c1.9,0,3.4,0.7,4.8,2c1.3,1.3,2,2.9,2,4.8v5.5c0,0.3-0.1,0.6-0.4,0.9c-0.2,0.2-0.5,0.4-0.9,0.4
				c-0.4,0-0.7-0.1-0.9-0.4C312.6,304.8,312.4,304.5,312.4,304.2z M308.2,294.4c-0.6,0-1.2,0.1-1.7,0.3c-0.5,0.2-1,0.5-1.3,0.9
				c-0.4,0.4-0.7,0.8-0.9,1.3s-0.3,1.1-0.3,1.6c0,0.6,0.1,1.1,0.3,1.6s0.5,1,0.9,1.3c0.4,0.4,0.8,0.7,1.3,0.9s1.1,0.3,1.7,0.3
				c0.6,0,1.1-0.1,1.7-0.3s1-0.5,1.3-0.9s0.7-0.8,0.9-1.3c0.2-0.5,0.3-1.1,0.3-1.6c0-0.6-0.1-1.1-0.3-1.6c-0.2-0.5-0.5-1-0.9-1.3
				c-0.4-0.4-0.8-0.7-1.3-0.9C309.3,294.6,308.8,294.4,308.2,294.4z"/>
			<path fill="#283B8C" d="M316.8,304.2v-16.8c0-0.4,0.1-0.7,0.4-0.9s0.5-0.4,0.9-0.4c0.4,0,0.7,0.1,0.9,0.4s0.4,0.5,0.4,0.9v15.5
				h0.6c0.3,0,0.6,0.1,0.9,0.4s0.4,0.5,0.4,0.9c0,0.3-0.1,0.6-0.4,0.9c-0.2,0.2-0.5,0.4-0.9,0.4H318c-0.3,0-0.6-0.1-0.9-0.4
				C316.9,304.8,316.8,304.5,316.8,304.2z"/>
			<path fill="#283B8C" d="M343.3,288.7h-4.8v15.5c0,0.4-0.1,0.7-0.4,0.9c-0.2,0.2-0.6,0.4-0.9,0.4c-0.4,0-0.7-0.1-0.9-0.4
				c-0.2-0.2-0.4-0.6-0.4-0.9v-15.5h-4.8c-0.4,0-0.7-0.1-0.9-0.4c-0.2-0.2-0.4-0.6-0.4-0.9c0-0.4,0.1-0.7,0.4-0.9
				c0.2-0.2,0.6-0.4,0.9-0.4h12.1c0.4,0,0.7,0.1,0.9,0.4s0.4,0.6,0.4,0.9c0,0.4-0.1,0.7-0.4,0.9S343.6,288.7,343.3,288.7z"/>
			<path fill="#283B8C" d="M355.1,298.7c0,1.9-0.7,3.5-2,4.8c-1.3,1.3-2.9,2-4.8,2c-1.9,0-3.5-0.7-4.8-2s-2-2.9-2-4.8s0.7-3.5,2-4.8
				s2.9-2,4.8-2c1.9,0,3.4,0.7,4.8,2c0.7,0.7,1.2,1.4,1.5,2.2C354.9,296.9,355,297.8,355.1,298.7z M348.3,294.4
				c-0.6,0-1.2,0.1-1.7,0.3c-0.5,0.2-1,0.5-1.3,0.9c-0.4,0.4-0.7,0.8-0.9,1.3s-0.3,1.1-0.3,1.6c0,0.6,0.1,1.1,0.3,1.6s0.5,1,0.9,1.3
				c0.4,0.4,0.8,0.7,1.3,0.9s1.1,0.3,1.7,0.3c0.6,0,1.1-0.1,1.7-0.3s1-0.5,1.3-0.9s0.7-0.8,0.9-1.3c0.2-0.5,0.3-1.1,0.3-1.6
				c0-0.6-0.1-1.1-0.3-1.6c-0.2-0.5-0.5-1-0.9-1.3c-0.4-0.4-0.8-0.7-1.3-0.9C349.4,294.6,348.9,294.4,348.3,294.4z"/>
			<path fill="#283B8C" d="M363.7,305.5c-1.6,0-3-0.5-4.2-1.5v6c0,0.4-0.1,0.7-0.4,0.9c-0.2,0.2-0.5,0.4-0.9,0.4
				c-0.4,0-0.7-0.1-0.9-0.4s-0.4-0.5-0.4-0.9v-11.3c0-1.9,0.7-3.5,2-4.8s2.9-2,4.8-2c1.9,0,3.4,0.7,4.8,2c0.7,0.7,1.2,1.4,1.5,2.2
				c0.3,0.8,0.5,1.7,0.5,2.6c0,1.9-0.7,3.5-2,4.8c-0.7,0.7-1.4,1.2-2.2,1.5C365.5,305.3,364.7,305.5,363.7,305.5z M359.5,298.7
				c0,0.6,0.1,1.1,0.3,1.6s0.5,1,0.9,1.3c0.4,0.4,0.8,0.7,1.3,0.9s1.1,0.3,1.7,0.3c0.6,0,1.1-0.1,1.7-0.3s1-0.5,1.3-0.9
				s0.7-0.8,0.9-1.3c0.2-0.5,0.3-1.1,0.3-1.6c0-0.6-0.1-1.1-0.3-1.6c-0.2-0.5-0.5-1-0.9-1.3c-0.4-0.4-0.8-0.7-1.3-0.9
				c-0.5-0.2-1.1-0.3-1.7-0.3c-0.6,0-1.2,0.1-1.7,0.3c-0.5,0.2-1,0.5-1.3,0.9c-0.4,0.4-0.7,0.8-0.9,1.3S359.5,298.1,359.5,298.7z"/>
			<path fill="#283B8C" d="M385.9,298.7c0,1.9-0.7,3.5-2,4.8c-1.3,1.3-2.9,2-4.8,2c-1.9,0-3.5-0.7-4.8-2s-2-2.9-2-4.8s0.7-3.5,2-4.8
				s2.9-2,4.8-2c1.9,0,3.4,0.7,4.8,2c0.7,0.7,1.2,1.4,1.5,2.2C385.8,296.9,385.9,297.8,385.9,298.7z M379.2,294.4
				c-0.6,0-1.2,0.1-1.7,0.3c-0.5,0.2-1,0.5-1.3,0.9c-0.4,0.4-0.7,0.8-0.9,1.3c-0.2,0.5-0.3,1.1-0.3,1.6c0,0.6,0.1,1.1,0.3,1.6
				c0.2,0.5,0.5,1,0.9,1.3s0.8,0.7,1.3,0.9c0.5,0.2,1.1,0.3,1.7,0.3c0.6,0,1.1-0.1,1.7-0.3s1-0.5,1.3-0.9c0.4-0.4,0.7-0.8,0.9-1.3
				c0.2-0.5,0.3-1.1,0.3-1.6c0-0.6-0.1-1.1-0.3-1.6c-0.2-0.5-0.5-1-0.9-1.3c-0.4-0.4-0.8-0.7-1.3-0.9
				C380.3,294.6,379.8,294.4,379.2,294.4z"/>
			<path fill="#283B8C" d="M398.9,304c-1.2,1-2.6,1.5-4.2,1.5c-1.9,0-3.5-0.7-4.8-2s-2-2.9-2-4.8s0.7-3.5,2-4.8s2.9-2,4.8-2
				c1.9,0,3.4,0.7,4.8,2c1.3,1.3,2,2.9,2,4.8v6.7c0,0.6-0.1,1.1-0.3,1.6s-0.4,1-0.7,1.4c-0.3,0.4-0.7,0.8-1.1,1.2
				c-0.4,0.3-0.9,0.6-1.4,0.9s-1,0.4-1.6,0.5s-1.1,0.2-1.6,0.2c-0.6,0-1.3-0.1-1.9-0.2c-0.6-0.2-1.2-0.4-1.8-0.7
				c-0.6-0.3-1.1-0.7-1.5-1.2s-0.9-1-1.2-1.6c-0.1-0.2-0.2-0.4-0.2-0.7c0-0.4,0.1-0.7,0.4-0.9c0.2-0.2,0.5-0.4,0.9-0.4
				c0.2,0,0.4,0.1,0.6,0.2c0.2,0.1,0.4,0.4,0.6,0.8s0.5,0.7,0.7,0.9c0.9,0.9,2,1.4,3.3,1.4c1.3,0,2.4-0.5,3.3-1.4
				c0.6-0.7,0.8-1.3,0.8-2V304z M394.6,294.4c-0.6,0-1.2,0.1-1.7,0.3c-0.5,0.2-1,0.5-1.3,0.9c-0.4,0.4-0.7,0.8-0.9,1.3
				s-0.3,1.1-0.3,1.6c0,0.6,0.1,1.1,0.3,1.6s0.5,1,0.9,1.3c0.4,0.4,0.8,0.7,1.3,0.9s1.1,0.3,1.7,0.3c0.6,0,1.1-0.1,1.7-0.3
				s1-0.5,1.3-0.9s0.7-0.8,0.9-1.3c0.2-0.5,0.3-1.1,0.3-1.6c0-0.6-0.1-1.1-0.3-1.6c-0.2-0.5-0.5-1-0.9-1.3c-0.4-0.4-0.8-0.7-1.3-0.9
				C395.8,294.6,395.2,294.4,394.6,294.4z"/>
			<path fill="#283B8C" d="M405.8,293.2v0.2c0.6-0.5,1.3-0.9,2-1.1c0.7-0.3,1.5-0.4,2.3-0.4c0.4,0,0.7,0,1.1,0.1
				c0.4,0,0.8,0.1,1.1,0.3s0.6,0.3,0.9,0.5c0.2,0.2,0.3,0.5,0.3,0.8c0,0.2,0,0.3-0.1,0.5c-0.1,0.2-0.2,0.3-0.3,0.4
				c-0.1,0.1-0.2,0.2-0.4,0.3c-0.2,0.1-0.3,0.1-0.5,0.1c-0.2,0-0.3,0-0.5-0.1c-0.5-0.2-1.1-0.3-1.7-0.3c-0.6,0-1.1,0.1-1.7,0.3
				c-0.5,0.2-1,0.5-1.3,0.9s-0.7,0.8-0.9,1.3c-0.2,0.5-0.3,1.1-0.3,1.7v5.5c0,0.3-0.1,0.6-0.4,0.9c-0.2,0.2-0.5,0.4-0.9,0.4
				c-0.4,0-0.7-0.1-0.9-0.4c-0.2-0.2-0.4-0.5-0.4-0.9v-11c0-0.3,0.1-0.6,0.4-0.9c0.2-0.2,0.5-0.4,0.9-0.4c0.3,0,0.6,0.1,0.9,0.4
				C405.7,292.5,405.8,292.8,405.8,293.2z"/>
			<path fill="#283B8C" d="M425.9,304.2V304c-0.6,0.5-1.3,0.9-2,1.1c-0.7,0.3-1.5,0.4-2.3,0.4c-1.9,0-3.5-0.7-4.8-2s-2-2.9-2-4.8
				s0.7-3.5,2-4.8s2.9-2,4.8-2c1.9,0,3.4,0.7,4.8,2c1.3,1.3,2,2.9,2,4.8v5.5c0,0.3-0.1,0.6-0.4,0.9c-0.2,0.2-0.5,0.4-0.9,0.4
				c-0.4,0-0.7-0.1-0.9-0.4C426,304.8,425.9,304.5,425.9,304.2z M421.7,294.4c-0.6,0-1.2,0.1-1.7,0.3c-0.5,0.2-1,0.5-1.3,0.9
				c-0.4,0.4-0.7,0.8-0.9,1.3s-0.3,1.1-0.3,1.6c0,0.6,0.1,1.1,0.3,1.6s0.5,1,0.9,1.3c0.4,0.4,0.8,0.7,1.3,0.9s1.1,0.3,1.7,0.3
				c0.6,0,1.1-0.1,1.7-0.3s1-0.5,1.3-0.9s0.7-0.8,0.9-1.3c0.2-0.5,0.3-1.1,0.3-1.6c0-0.6-0.1-1.1-0.3-1.6c-0.2-0.5-0.5-1-0.9-1.3
				c-0.4-0.4-0.8-0.7-1.3-0.9C422.8,294.6,422.3,294.4,421.7,294.4z"/>
			<path fill="#283B8C" d="M437.1,305.5c-1.6,0-3-0.5-4.2-1.5v6c0,0.4-0.1,0.7-0.4,0.9c-0.2,0.2-0.5,0.4-0.9,0.4
				c-0.4,0-0.7-0.1-0.9-0.4s-0.4-0.5-0.4-0.9v-11.3c0-1.9,0.7-3.5,2-4.8s2.9-2,4.8-2c1.9,0,3.4,0.7,4.8,2c0.7,0.7,1.2,1.4,1.5,2.2
				c0.3,0.8,0.5,1.7,0.5,2.6c0,1.9-0.7,3.5-2,4.8c-0.7,0.7-1.4,1.2-2.2,1.5C438.9,305.3,438,305.5,437.1,305.5z M432.9,298.7
				c0,0.6,0.1,1.1,0.3,1.6s0.5,1,0.9,1.3c0.4,0.4,0.8,0.7,1.3,0.9s1.1,0.3,1.7,0.3c0.6,0,1.1-0.1,1.7-0.3s1-0.5,1.3-0.9
				s0.7-0.8,0.9-1.3c0.2-0.5,0.3-1.1,0.3-1.6c0-0.6-0.1-1.1-0.3-1.6c-0.2-0.5-0.5-1-0.9-1.3c-0.4-0.4-0.8-0.7-1.3-0.9
				c-0.5-0.2-1.1-0.3-1.7-0.3c-0.6,0-1.2,0.1-1.7,0.3c-0.5,0.2-1,0.5-1.3,0.9c-0.4,0.4-0.7,0.8-0.9,1.3S432.9,298.1,432.9,298.7z"/>
			<path fill="#283B8C" d="M448.3,304.2c0,0.4-0.1,0.7-0.4,0.9c-0.2,0.2-0.5,0.4-0.9,0.4c-0.3,0-0.6-0.1-0.9-0.4
				c-0.2-0.2-0.4-0.5-0.4-0.9v-16.8c0-0.4,0.1-0.7,0.4-0.9c0.2-0.2,0.5-0.4,0.9-0.4s0.6,0.1,0.9,0.4s0.4,0.5,0.4,0.9v5.8
				c1.1-0.8,2.3-1.2,3.8-1.2c0.8,0,1.6,0.2,2.4,0.5c0.8,0.3,1.4,0.8,2,1.3c0.6,0.6,1,1.2,1.4,2s0.5,1.6,0.5,2.5v5.9
				c0,0.4-0.1,0.7-0.4,0.9c-0.2,0.2-0.5,0.4-0.9,0.4c-0.3,0-0.6-0.1-0.9-0.4c-0.2-0.2-0.4-0.5-0.4-0.9v-5.9c0-0.5-0.1-1-0.3-1.5
				c-0.2-0.5-0.5-0.9-0.8-1.2c-0.3-0.3-0.7-0.6-1.2-0.8c-0.5-0.2-0.9-0.3-1.5-0.3c-0.5,0-1,0.1-1.5,0.3c-0.5,0.2-0.9,0.5-1.2,0.8
				c-0.3,0.3-0.6,0.7-0.8,1.2c-0.2,0.5-0.3,0.9-0.3,1.5V304.2z"/>
			<path fill="#283B8C" d="M470.6,301.6c0.4,0,0.7,0.1,0.9,0.4c0.2,0.2,0.4,0.5,0.4,0.9c0,0.4-0.1,0.7-0.4,0.9
				c-1.2,1.1-2.7,1.6-4.4,1.6c-1.9,0-3.5-0.7-4.8-2s-2-2.9-2-4.8s0.7-3.5,2-4.8s2.9-2,4.8-2c1.9,0,3.4,0.7,4.8,2
				c0.7,0.7,1.2,1.4,1.5,2.2c0.3,0.8,0.5,1.7,0.5,2.6c0,0.4-0.1,0.7-0.4,0.9c-0.2,0.2-0.5,0.4-0.9,0.4H463c0.1,0.4,0.3,0.8,0.6,1.2
				c0.3,0.4,0.6,0.7,0.9,0.9c0.4,0.3,0.8,0.5,1.2,0.6c0.4,0.1,0.9,0.2,1.3,0.2c0.5,0,1-0.1,1.5-0.2s0.9-0.4,1.2-0.7
				C470,301.8,470.2,301.7,470.6,301.6z M471.1,297.4c-0.1-0.4-0.3-0.8-0.6-1.2c-0.3-0.4-0.6-0.7-0.9-0.9c-0.4-0.3-0.8-0.5-1.2-0.6
				c-0.4-0.1-0.9-0.2-1.3-0.2s-0.9,0.1-1.3,0.2c-0.4,0.1-0.8,0.3-1.2,0.6s-0.7,0.6-0.9,0.9c-0.3,0.4-0.5,0.8-0.6,1.2H471.1z"/>
			<path fill="#283B8C" d="M478.2,293.2v0.2c0.6-0.5,1.3-0.9,2-1.1c0.7-0.3,1.5-0.4,2.3-0.4c0.4,0,0.7,0,1.1,0.1
				c0.4,0,0.8,0.1,1.1,0.3s0.6,0.3,0.9,0.5s0.3,0.5,0.3,0.8c0,0.2,0,0.3-0.1,0.5c-0.1,0.2-0.2,0.3-0.3,0.4s-0.2,0.2-0.4,0.3
				c-0.2,0.1-0.3,0.1-0.5,0.1c-0.2,0-0.3,0-0.5-0.1c-0.5-0.2-1.1-0.3-1.7-0.3c-0.6,0-1.1,0.1-1.7,0.3c-0.5,0.2-1,0.5-1.3,0.9
				c-0.4,0.4-0.7,0.8-0.9,1.3c-0.2,0.5-0.3,1.1-0.3,1.7v5.5c0,0.3-0.1,0.6-0.4,0.9c-0.2,0.2-0.5,0.4-0.9,0.4c-0.4,0-0.7-0.1-0.9-0.4
				c-0.2-0.2-0.4-0.5-0.4-0.9v-11c0-0.3,0.1-0.6,0.4-0.9s0.5-0.4,0.9-0.4c0.3,0,0.6,0.1,0.9,0.4S478.2,292.8,478.2,293.2z"/>
			<path fill="#283B8C" d="M163.4,329.9v-16.8c0-0.2,0-0.3,0.1-0.5c0.1-0.2,0.2-0.3,0.3-0.4c0.1-0.1,0.3-0.2,0.4-0.3
				c0.2-0.1,0.3-0.1,0.5-0.1c0.5,0,0.9,0.2,1.1,0.7l7.2,14.5l7.2-14.5c0.3-0.5,0.7-0.7,1.1-0.7c0.2,0,0.3,0,0.5,0.1
				c0.2,0.1,0.3,0.2,0.4,0.3c0.1,0.1,0.2,0.3,0.3,0.4s0.1,0.3,0.1,0.5v16.8c0,0.4-0.1,0.7-0.4,0.9s-0.6,0.4-0.9,0.4
				c-0.4,0-0.7-0.1-0.9-0.4c-0.2-0.2-0.4-0.6-0.4-0.9v-11.3l-6,12c-0.2,0.4-0.6,0.6-1.1,0.6c-0.5,0-0.9-0.3-1.2-0.8l-5.9-11.8v11.3
				c0,0.4-0.1,0.7-0.4,0.9c-0.2,0.2-0.6,0.4-0.9,0.4c-0.4,0-0.7-0.1-0.9-0.4C163.5,330.6,163.4,330.3,163.4,329.9z"/>
			<path fill="#283B8C" d="M194.9,327.4c0.4,0,0.7,0.1,0.9,0.4s0.4,0.5,0.4,0.9c0,0.4-0.1,0.7-0.4,0.9c-1.2,1.1-2.7,1.6-4.4,1.6
				c-1.9,0-3.5-0.7-4.8-2c-1.3-1.3-2-2.9-2-4.8c0-1.9,0.7-3.5,2-4.8c1.3-1.3,2.9-2,4.8-2c1.9,0,3.4,0.7,4.8,2
				c0.7,0.7,1.2,1.4,1.5,2.2s0.5,1.7,0.5,2.6c0,0.4-0.1,0.7-0.4,0.9c-0.2,0.2-0.5,0.4-0.9,0.4h-9.6c0.1,0.4,0.3,0.8,0.6,1.2
				c0.3,0.4,0.6,0.7,0.9,0.9c0.4,0.3,0.8,0.5,1.2,0.6c0.4,0.1,0.9,0.2,1.3,0.2c0.5,0,1-0.1,1.5-0.2c0.4-0.2,0.9-0.4,1.2-0.7
				C194.3,327.5,194.6,327.4,194.9,327.4z M195.5,323.2c-0.1-0.4-0.3-0.8-0.6-1.2s-0.6-0.7-0.9-0.9c-0.4-0.3-0.8-0.5-1.2-0.6
				c-0.4-0.1-0.9-0.2-1.3-0.2s-0.9,0.1-1.3,0.2c-0.4,0.1-0.8,0.3-1.2,0.6s-0.7,0.6-0.9,0.9s-0.5,0.8-0.6,1.2H195.5z"/>
			<path fill="#283B8C" d="M206.8,317.6c1.6,0,3,0.5,4.2,1.5v-6c0-0.4,0.1-0.7,0.4-0.9s0.5-0.4,0.9-0.4c0.4,0,0.7,0.1,0.9,0.4
				s0.4,0.5,0.4,0.9v11.3c0,1.9-0.7,3.5-2,4.8c-1.3,1.3-2.9,2-4.8,2c-1.9,0-3.5-0.7-4.8-2c-1.3-1.3-2-2.9-2-4.8c0-1.9,0.7-3.5,2-4.8
				C203.4,318.3,205,317.6,206.8,317.6z M211.1,324.4c0-0.6-0.1-1.1-0.3-1.6c-0.2-0.5-0.5-1-0.9-1.3c-0.4-0.4-0.8-0.7-1.3-0.9
				s-1.1-0.3-1.7-0.3c-0.6,0-1.2,0.1-1.7,0.3s-1,0.5-1.3,0.9c-0.4,0.4-0.7,0.8-0.9,1.3c-0.2,0.5-0.3,1.1-0.3,1.6
				c0,0.6,0.1,1.1,0.3,1.6s0.5,1,0.9,1.3c0.4,0.4,0.8,0.7,1.3,0.9c0.5,0.2,1.1,0.3,1.7,0.3c0.6,0,1.1-0.1,1.7-0.3
				c0.5-0.2,1-0.5,1.3-0.9s0.7-0.8,0.9-1.3C211,325.5,211.1,325,211.1,324.4z"/>
			<path fill="#283B8C" d="M234.6,329.9c0,0.4-0.1,0.7-0.4,0.9s-0.5,0.4-0.9,0.4c-0.4,0-0.7-0.1-0.9-0.4c-0.2-0.2-0.4-0.5-0.4-0.9
				V323c0-0.4-0.1-0.8-0.2-1.1c-0.1-0.3-0.4-0.7-0.6-0.9c-0.3-0.3-0.6-0.5-0.9-0.6c-0.3-0.2-0.7-0.2-1.1-0.2c-0.4,0-0.8,0.1-1.1,0.2
				c-0.3,0.2-0.6,0.4-0.9,0.6s-0.5,0.6-0.6,0.9c-0.1,0.3-0.2,0.7-0.2,1.1v6.9c0,0.4-0.1,0.7-0.4,0.9c-0.2,0.2-0.5,0.4-0.9,0.4
				c-0.4,0-0.7-0.1-0.9-0.4c-0.2-0.2-0.4-0.5-0.4-0.9V323c0-0.4-0.1-0.8-0.2-1.1c-0.2-0.3-0.4-0.6-0.6-0.9s-0.6-0.5-0.9-0.6
				c-0.3-0.2-0.7-0.2-1.1-0.2c-0.4,0-0.8,0.1-1.1,0.2c-0.3,0.1-0.7,0.4-0.9,0.6c-0.3,0.3-0.5,0.6-0.6,0.9c-0.1,0.3-0.2,0.7-0.2,1.1
				v6.9c0,0.4-0.1,0.7-0.4,0.9s-0.5,0.4-0.9,0.4c-0.4,0-0.7-0.1-0.9-0.4s-0.4-0.5-0.4-0.9v-11c0-0.3,0.1-0.6,0.4-0.9
				s0.5-0.4,0.9-0.4c0.3,0,0.5,0.1,0.7,0.2c0.2,0.2,0.4,0.4,0.4,0.6c0.9-0.6,1.8-0.9,2.9-0.9c0.8,0,1.6,0.2,2.3,0.5
				c0.7,0.3,1.3,0.8,1.9,1.4c1.1-1.3,2.5-1.9,4.1-1.9c0.7,0,1.4,0.1,2.1,0.4c0.7,0.3,1.2,0.7,1.7,1.2s0.9,1.1,1.2,1.7
				c0.3,0.7,0.4,1.4,0.4,2.1V329.9z"/>
			<path fill="#283B8C" d="M250.3,324.4c0,1.9-0.7,3.5-2,4.8c-1.3,1.3-2.9,2-4.8,2c-1.9,0-3.5-0.7-4.8-2c-1.3-1.3-2-2.9-2-4.8
				c0-1.9,0.7-3.5,2-4.8c1.3-1.3,2.9-2,4.8-2c1.9,0,3.4,0.7,4.8,2c0.7,0.7,1.2,1.4,1.5,2.2C250.1,322.6,250.3,323.5,250.3,324.4z
				 M243.5,320.2c-0.6,0-1.2,0.1-1.7,0.3s-1,0.5-1.3,0.9c-0.4,0.4-0.7,0.8-0.9,1.3c-0.2,0.5-0.3,1.1-0.3,1.6c0,0.6,0.1,1.1,0.3,1.6
				s0.5,1,0.9,1.3c0.4,0.4,0.8,0.7,1.3,0.9c0.5,0.2,1.1,0.3,1.7,0.3c0.6,0,1.1-0.1,1.7-0.3c0.5-0.2,1-0.5,1.3-0.9s0.7-0.8,0.9-1.3
				c0.2-0.5,0.3-1.1,0.3-1.6c0-0.6-0.1-1.1-0.3-1.6c-0.2-0.5-0.5-1-0.9-1.3c-0.4-0.4-0.8-0.7-1.3-0.9S244.1,320.2,243.5,320.2z"/>
			<path fill="#283B8C" d="M254.7,318.9c1.1-0.8,2.3-1.2,3.8-1.2c0.8,0,1.6,0.2,2.4,0.5c0.8,0.3,1.4,0.8,2,1.3c0.6,0.6,1,1.2,1.4,2
				s0.5,1.6,0.5,2.5v6c0,0.4-0.1,0.7-0.4,0.9c-0.2,0.2-0.5,0.4-0.9,0.4c-0.4,0-0.7-0.1-0.9-0.4c-0.2-0.2-0.4-0.5-0.4-0.9v-6
				c0-0.5-0.1-1-0.3-1.5c-0.2-0.5-0.5-0.9-0.8-1.2c-0.3-0.3-0.7-0.6-1.2-0.8c-0.5-0.2-0.9-0.3-1.5-0.3c-0.5,0-1,0.1-1.5,0.3
				c-0.5,0.2-0.9,0.5-1.2,0.8c-0.3,0.3-0.6,0.8-0.8,1.2c-0.2,0.5-0.3,0.9-0.3,1.5v6c0,0.4-0.1,0.7-0.4,0.9c-0.2,0.2-0.5,0.4-0.9,0.4
				c-0.4,0-0.7-0.1-0.9-0.4c-0.2-0.2-0.4-0.5-0.4-0.9v-11c0-0.3,0.1-0.6,0.4-0.9c0.2-0.2,0.5-0.4,0.9-0.4c0.3,0,0.6,0.1,0.9,0.4
				C254.6,318.3,254.7,318.6,254.7,318.9z"/>
			<path fill="#283B8C" d="M267.9,317.6h0.6v-4.5c0-0.3,0.1-0.6,0.4-0.9c0.2-0.2,0.5-0.4,0.9-0.4c0.3,0,0.6,0.1,0.9,0.4
				c0.2,0.2,0.4,0.5,0.4,0.9v4.5h1.5c0.3,0,0.6,0.1,0.9,0.4s0.4,0.5,0.4,0.9c0,0.4-0.1,0.7-0.4,0.9s-0.5,0.4-0.9,0.4H271v6.1
				c0,1.6,0.8,2.4,2.4,2.4c0.3,0,0.6,0.1,0.9,0.4s0.4,0.5,0.4,0.9c0,0.4-0.1,0.7-0.4,0.9s-0.5,0.4-0.9,0.4c-3.3,0-4.9-1.6-4.9-4.9
				v-6.1h-0.6c-0.3,0-0.6-0.1-0.9-0.4c-0.2-0.2-0.4-0.5-0.4-0.9c0-0.3,0.1-0.6,0.4-0.9C267.3,317.8,267.5,317.6,267.9,317.6z"/>
			<path fill="#221F1F" d="M178.2,359.6c0,2.1-0.7,3.9-2.2,5.3c-1.5,1.5-3.2,2.2-5.3,2.2c-2.1,0-3.9-0.7-5.3-2.2
				c-1.5-1.5-2.2-3.2-2.2-5.3c0-2.1,0.7-3.9,2.2-5.3c1.5-1.5,3.2-2.2,5.3-2.2c2.1,0,3.8,0.7,5.3,2.2c0.7,0.7,1.3,1.6,1.7,2.4
				C178.1,357.6,178.2,358.6,178.2,359.6z M170.7,354.1c-0.8,0-1.5,0.1-2.1,0.4c-0.6,0.3-1.2,0.7-1.8,1.2c-0.5,0.5-1,1.1-1.2,1.8
				s-0.4,1.4-0.4,2.1c0,1.5,0.5,2.8,1.6,3.9s2.4,1.6,3.9,1.6s2.8-0.5,3.9-1.6s1.6-2.4,1.6-3.9c0-1.5-0.5-2.8-1.6-3.9
				C173.5,354.7,172.2,354.1,170.7,354.1z"/>
			<path fill="#221F1F" d="M188.6,367.2c-0.3,0-0.5-0.1-0.7-0.3c-0.2-0.2-0.3-0.4-0.3-0.7c-0.4,0.3-0.9,0.6-1.4,0.7
				c-0.5,0.2-1,0.2-1.6,0.2c-0.7,0-1.3-0.1-1.9-0.4s-1.1-0.6-1.6-1.1s-0.8-1-1.1-1.6c-0.3-0.6-0.4-1.2-0.4-1.9v-4.7
				c0-0.3,0.1-0.5,0.3-0.7s0.4-0.3,0.7-0.3c0.3,0,0.5,0.1,0.7,0.3s0.3,0.4,0.3,0.7v4.7c0,0.4,0.1,0.8,0.2,1.1
				c0.2,0.4,0.4,0.7,0.6,0.9c0.3,0.3,0.6,0.5,0.9,0.6c0.4,0.2,0.7,0.2,1.1,0.2c0.4,0,0.8-0.1,1.1-0.2s0.7-0.4,0.9-0.6
				s0.5-0.6,0.6-0.9c0.2-0.4,0.2-0.7,0.2-1.1v-4.7c0-0.3,0.1-0.5,0.3-0.7c0.2-0.2,0.4-0.3,0.7-0.3c0.3,0,0.5,0.1,0.7,0.3
				c0.2,0.2,0.3,0.4,0.3,0.7v8.6c0,0.3-0.1,0.5-0.3,0.7C189.1,367.1,188.8,367.2,188.6,367.2z"/>
			<path fill="#221F1F" d="M191.9,356.6h0.4v-3.5c0-0.3,0.1-0.5,0.3-0.7c0.2-0.2,0.4-0.3,0.7-0.3c0.3,0,0.5,0.1,0.7,0.3
				c0.2,0.2,0.3,0.4,0.3,0.7v3.5h1.2c0.3,0,0.5,0.1,0.7,0.3c0.2,0.2,0.3,0.4,0.3,0.7c0,0.3-0.1,0.5-0.3,0.7
				c-0.2,0.2-0.4,0.3-0.7,0.3h-1.2v4.7c0,1.2,0.6,1.9,1.9,1.9c0.3,0,0.5,0.1,0.7,0.3c0.2,0.2,0.3,0.4,0.3,0.7c0,0.3-0.1,0.5-0.3,0.7
				c-0.2,0.2-0.4,0.3-0.7,0.3c-2.6,0-3.8-1.3-3.8-3.8v-4.7h-0.4c-0.3,0-0.5-0.1-0.7-0.3c-0.2-0.2-0.3-0.4-0.3-0.7
				c0-0.3,0.1-0.5,0.3-0.7C191.5,356.7,191.7,356.6,191.9,356.6z"/>
			<path fill="#221F1F" d="M206,364.2c0.3,0,0.5,0.1,0.7,0.3c0.2,0.2,0.3,0.4,0.3,0.7c0,0.3-0.1,0.5-0.3,0.7c-1,0.9-2.1,1.3-3.4,1.3
				c-1.5,0-2.7-0.5-3.7-1.5c-1-1-1.5-2.3-1.5-3.7s0.5-2.7,1.5-3.7c1-1,2.3-1.5,3.7-1.5c1.4,0,2.7,0.5,3.7,1.5
				c0.5,0.5,0.9,1.1,1.2,1.7c0.3,0.6,0.4,1.3,0.4,2c0,0.3-0.1,0.5-0.3,0.7s-0.4,0.3-0.7,0.3h-7.4c0.1,0.3,0.3,0.7,0.5,0.9
				c0.2,0.3,0.5,0.5,0.7,0.7c0.3,0.2,0.6,0.4,0.9,0.5c0.3,0.1,0.7,0.2,1,0.2c0.4,0,0.8-0.1,1.1-0.2c0.3-0.1,0.7-0.3,1-0.6
				C205.5,364.3,205.8,364.2,206,364.2z M206.4,360.9c-0.1-0.3-0.3-0.7-0.5-0.9s-0.5-0.5-0.7-0.7c-0.3-0.2-0.6-0.4-0.9-0.5
				c-0.3-0.1-0.7-0.2-1-0.2s-0.7,0.1-1,0.2c-0.3,0.1-0.6,0.3-0.9,0.5c-0.3,0.2-0.5,0.4-0.7,0.7s-0.4,0.6-0.5,0.9H206.4z"/>
			<path fill="#221F1F" d="M212,357.6v0.2c0.5-0.4,1-0.7,1.5-0.9s1.1-0.3,1.8-0.3c0.3,0,0.6,0,0.9,0.1c0.3,0,0.6,0.1,0.9,0.2
				c0.3,0.1,0.5,0.2,0.7,0.4c0.2,0.2,0.3,0.4,0.3,0.7c0,0.1,0,0.3-0.1,0.4s-0.1,0.2-0.2,0.3s-0.2,0.2-0.3,0.2s-0.2,0.1-0.4,0.1
				c-0.1,0-0.3,0-0.4-0.1c-0.4-0.2-0.8-0.2-1.3-0.2c-0.5,0-0.9,0.1-1.3,0.3s-0.8,0.4-1,0.7c-0.3,0.3-0.5,0.6-0.7,1.1
				c-0.2,0.4-0.3,0.8-0.3,1.3v4.3c0,0.3-0.1,0.5-0.3,0.7c-0.2,0.2-0.4,0.3-0.7,0.3c-0.3,0-0.5-0.1-0.7-0.3c-0.2-0.2-0.3-0.4-0.3-0.7
				v-8.6c0-0.3,0.1-0.5,0.3-0.7s0.4-0.3,0.7-0.3c0.3,0,0.5,0.1,0.7,0.3S212,357.3,212,357.6z"/>
			<path fill="#221F1F" d="M221,362.2c-0.6-0.2-1-0.5-1.2-0.7h0c-0.5-0.5-0.7-1.1-0.7-1.7c0-0.5,0.1-0.9,0.4-1.3s0.6-0.7,1-1
				s0.9-0.5,1.4-0.6c0.5-0.1,1-0.2,1.5-0.2c1.6,0,2.9,0.6,4,1.9c0.1,0.2,0.2,0.4,0.2,0.6c0,0.3-0.1,0.5-0.3,0.7s-0.4,0.3-0.7,0.3
				c-0.2,0-0.4-0.1-0.5-0.2c-0.1-0.1-0.3-0.2-0.4-0.4c-0.6-0.6-1.4-1-2.3-1c-0.9,0-1.6,0.3-2.2,0.8c-0.1,0.1-0.2,0.2-0.2,0.4
				s0.1,0.3,0.2,0.4l4.4,1.5c0.6,0.2,1,0.5,1.2,0.7h0c0.5,0.5,0.7,1.1,0.7,1.7c0,0.5-0.1,0.9-0.4,1.3s-0.6,0.7-1,1
				c-0.4,0.3-0.9,0.5-1.4,0.6s-1,0.2-1.5,0.2c-1.6,0-2.9-0.6-4-1.9c-0.1-0.2-0.2-0.4-0.2-0.6c0-0.3,0.1-0.5,0.3-0.7
				c0.2-0.2,0.4-0.3,0.7-0.3c0.2,0,0.4,0.1,0.5,0.2c0.1,0.1,0.3,0.2,0.4,0.4c0.6,0.6,1.4,1,2.3,1c0.9,0,1.6-0.3,2.2-0.8
				c0.1-0.1,0.1-0.2,0.1-0.4c0-0.2-0.1-0.3-0.3-0.4L221,362.2z"/>
			<path fill="#221F1F" d="M234.3,367.2c-1.3,0-2.4-0.4-3.3-1.2v4.7c0,0.3-0.1,0.5-0.3,0.7c-0.2,0.2-0.4,0.3-0.7,0.3
				c-0.3,0-0.5-0.1-0.7-0.3c-0.2-0.2-0.3-0.4-0.3-0.7v-8.8c0-1.5,0.5-2.7,1.5-3.7c1-1,2.3-1.5,3.7-1.5c1.4,0,2.7,0.5,3.7,1.5
				c0.5,0.5,0.9,1.1,1.2,1.7c0.3,0.6,0.4,1.3,0.4,2c0,1.5-0.5,2.7-1.5,3.7c-0.5,0.5-1.1,0.9-1.7,1.2
				C235.7,367.1,235,367.2,234.3,367.2z M231,361.9c0,0.5,0.1,0.9,0.3,1.3c0.2,0.4,0.4,0.8,0.7,1c0.3,0.3,0.6,0.5,1,0.7
				s0.8,0.3,1.3,0.3c0.5,0,0.9-0.1,1.3-0.3s0.8-0.4,1-0.7c0.3-0.3,0.5-0.7,0.7-1.1c0.2-0.4,0.3-0.8,0.3-1.3c0-0.5-0.1-0.9-0.3-1.3
				c-0.2-0.4-0.4-0.7-0.7-1s-0.6-0.5-1-0.7s-0.8-0.3-1.3-0.3c-0.5,0-0.9,0.1-1.3,0.3s-0.7,0.4-1,0.7c-0.3,0.3-0.5,0.6-0.7,1.1
				S231,361.5,231,361.9z"/>
			<path fill="#221F1F" d="M249.6,366.2V366c-0.5,0.4-1,0.7-1.5,0.9c-0.6,0.2-1.1,0.3-1.8,0.3c-1.5,0-2.7-0.5-3.7-1.5
				c-1-1-1.5-2.3-1.5-3.7s0.5-2.7,1.5-3.7c1-1,2.3-1.5,3.7-1.5c1.4,0,2.7,0.5,3.7,1.5c1,1,1.5,2.3,1.5,3.7v4.3
				c0,0.3-0.1,0.5-0.3,0.7c-0.2,0.2-0.4,0.3-0.7,0.3c-0.3,0-0.5-0.1-0.7-0.3C249.7,366.7,249.6,366.5,249.6,366.2z M246.3,358.6
				c-0.5,0-0.9,0.1-1.3,0.3s-0.7,0.4-1,0.7c-0.3,0.3-0.5,0.6-0.7,1.1s-0.3,0.8-0.3,1.3c0,0.5,0.1,0.9,0.3,1.3c0.2,0.4,0.4,0.8,0.7,1
				c0.3,0.3,0.6,0.5,1,0.7s0.8,0.3,1.3,0.3c0.5,0,0.9-0.1,1.3-0.3s0.8-0.4,1-0.7c0.3-0.3,0.5-0.7,0.7-1.1c0.2-0.4,0.3-0.8,0.3-1.3
				c0-0.5-0.1-0.9-0.3-1.3c-0.2-0.4-0.4-0.7-0.7-1s-0.6-0.5-1-0.7S246.8,358.6,246.3,358.6z"/>
			<path fill="#221F1F" d="M261.1,364.2c0.3,0,0.5,0.1,0.7,0.3c0.2,0.2,0.3,0.4,0.3,0.7c0,0.3-0.1,0.5-0.3,0.7
				c-1,0.9-2.1,1.3-3.4,1.3c-1.5,0-2.7-0.5-3.7-1.5c-1-1-1.5-2.3-1.5-3.7s0.5-2.7,1.5-3.7c1-1,2.3-1.5,3.7-1.5
				c1.3,0,2.5,0.4,3.4,1.3c0.2,0.2,0.3,0.4,0.3,0.7c0,0.3-0.1,0.5-0.3,0.7c-0.2,0.2-0.4,0.3-0.7,0.3c-0.2,0-0.5-0.1-0.6-0.2
				c-0.3-0.3-0.7-0.5-1-0.6c-0.4-0.1-0.7-0.2-1.1-0.2c-0.5,0-0.9,0.1-1.3,0.3c-0.4,0.2-0.8,0.4-1.1,0.7c-0.3,0.3-0.5,0.6-0.7,1.1
				c-0.2,0.4-0.3,0.8-0.3,1.3c0,0.5,0.1,0.9,0.3,1.3c0.2,0.4,0.4,0.8,0.7,1c0.3,0.3,0.7,0.5,1.1,0.7c0.4,0.2,0.8,0.3,1.3,0.3
				c0.4,0,0.8-0.1,1.1-0.2c0.4-0.1,0.7-0.3,1-0.6C260.7,364.3,260.9,364.2,261.1,364.2z"/>
			<path fill="#221F1F" d="M271.6,364.2c0.3,0,0.5,0.1,0.7,0.3c0.2,0.2,0.3,0.4,0.3,0.7c0,0.3-0.1,0.5-0.3,0.7
				c-1,0.9-2.1,1.3-3.4,1.3c-1.5,0-2.7-0.5-3.7-1.5c-1-1-1.5-2.3-1.5-3.7s0.5-2.7,1.5-3.7c1-1,2.3-1.5,3.7-1.5
				c1.4,0,2.7,0.5,3.7,1.5c0.5,0.5,0.9,1.1,1.2,1.7s0.4,1.3,0.4,2c0,0.3-0.1,0.5-0.3,0.7s-0.4,0.3-0.7,0.3h-7.4
				c0.1,0.3,0.3,0.7,0.5,0.9c0.2,0.3,0.4,0.5,0.7,0.7c0.3,0.2,0.6,0.4,0.9,0.5c0.3,0.1,0.7,0.2,1,0.2c0.4,0,0.8-0.1,1.1-0.2
				c0.3-0.1,0.7-0.3,1-0.6C271.2,364.3,271.4,364.2,271.6,364.2z M272.1,360.9c-0.1-0.3-0.3-0.7-0.5-0.9s-0.5-0.5-0.7-0.7
				c-0.3-0.2-0.6-0.4-0.9-0.5c-0.3-0.1-0.7-0.2-1-0.2s-0.7,0.1-1,0.2c-0.3,0.1-0.6,0.3-0.9,0.5c-0.3,0.2-0.5,0.4-0.7,0.7
				c-0.2,0.3-0.4,0.6-0.5,0.9H272.1z"/>
			<path fill="#221F1F" d="M285.2,352.1c2.1,0,3.8,0.7,5.3,2.2c0.7,0.7,1.3,1.5,1.7,2.4c0.4,0.9,0.5,1.8,0.5,2.9
				c0,2.1-0.7,3.9-2.2,5.3c-1.5,1.5-3.2,2.2-5.3,2.2h-2.9c-0.1,0-0.3,0-0.4-0.1c-0.1-0.1-0.2-0.1-0.3-0.2s-0.2-0.2-0.2-0.3
				c-0.1-0.1-0.1-0.3-0.1-0.4v-13.1c0-0.1,0-0.3,0.1-0.4c0.1-0.1,0.1-0.2,0.2-0.3s0.2-0.2,0.3-0.2c0.1-0.1,0.3-0.1,0.4-0.1H285.2z
				 M285.2,365.2c1.5,0,2.8-0.5,3.9-1.6c0.5-0.5,1-1.1,1.2-1.8c0.3-0.6,0.4-1.4,0.4-2.1c0-1.5-0.5-2.8-1.6-3.9
				c-1.1-1.1-2.4-1.6-3.9-1.6h-1.9v11.1H285.2z"/>
			<path fill="#221F1F" d="M302.1,364.2c0.3,0,0.5,0.1,0.7,0.3c0.2,0.2,0.3,0.4,0.3,0.7c0,0.3-0.1,0.5-0.3,0.7
				c-1,0.9-2.1,1.3-3.4,1.3c-1.5,0-2.7-0.5-3.7-1.5c-1-1-1.5-2.3-1.5-3.7s0.5-2.7,1.5-3.7c1-1,2.3-1.5,3.7-1.5
				c1.4,0,2.7,0.5,3.7,1.5c0.5,0.5,0.9,1.1,1.2,1.7s0.4,1.3,0.4,2c0,0.3-0.1,0.5-0.3,0.7s-0.4,0.3-0.7,0.3h-7.4
				c0.1,0.3,0.3,0.7,0.5,0.9c0.2,0.3,0.4,0.5,0.7,0.7c0.3,0.2,0.6,0.4,0.9,0.5c0.3,0.1,0.7,0.2,1,0.2c0.4,0,0.8-0.1,1.1-0.2
				c0.3-0.1,0.7-0.3,1-0.6C301.6,364.3,301.9,364.2,302.1,364.2z M302.5,360.9c-0.1-0.3-0.3-0.7-0.5-0.9s-0.5-0.5-0.7-0.7
				c-0.3-0.2-0.6-0.4-0.9-0.5c-0.3-0.1-0.7-0.2-1-0.2s-0.7,0.1-1,0.2c-0.3,0.1-0.6,0.3-0.9,0.5c-0.3,0.2-0.5,0.4-0.7,0.7
				c-0.2,0.3-0.4,0.6-0.5,0.9H302.5z"/>
			<path fill="#221F1F" d="M308,362.2c-0.6-0.2-1-0.5-1.2-0.7h0c-0.5-0.5-0.7-1.1-0.7-1.7c0-0.5,0.1-0.9,0.4-1.3s0.6-0.7,1-1
				s0.9-0.5,1.4-0.6c0.5-0.1,1-0.2,1.5-0.2c1.6,0,2.9,0.6,4,1.9c0.1,0.2,0.2,0.4,0.2,0.6c0,0.3-0.1,0.5-0.3,0.7
				c-0.2,0.2-0.4,0.3-0.7,0.3c-0.2,0-0.4-0.1-0.5-0.2c-0.1-0.1-0.3-0.2-0.4-0.4c-0.6-0.6-1.4-1-2.3-1c-0.9,0-1.6,0.3-2.2,0.8
				c-0.1,0.1-0.2,0.2-0.2,0.4s0.1,0.3,0.2,0.4l4.4,1.5c0.6,0.2,1,0.5,1.2,0.7h0c0.5,0.5,0.7,1.1,0.7,1.7c0,0.5-0.1,0.9-0.4,1.3
				s-0.6,0.7-1,1s-0.9,0.5-1.4,0.6c-0.5,0.1-1,0.2-1.5,0.2c-1.6,0-2.9-0.6-4-1.9c-0.1-0.2-0.2-0.4-0.2-0.6c0-0.3,0.1-0.5,0.3-0.7
				c0.2-0.2,0.4-0.3,0.7-0.3c0.2,0,0.4,0.1,0.5,0.2c0.1,0.1,0.3,0.2,0.4,0.4c0.6,0.6,1.4,1,2.3,1c0.9,0,1.6-0.3,2.2-0.8
				c0.1-0.1,0.1-0.2,0.1-0.4c0-0.2-0.1-0.3-0.3-0.4L308,362.2z"/>
			<path fill="#221F1F" d="M318.7,354.8c0,0.3-0.1,0.6-0.3,0.8s-0.5,0.3-0.8,0.3s-0.6-0.1-0.8-0.3s-0.3-0.5-0.3-0.8s0.1-0.6,0.3-0.8
				s0.5-0.3,0.8-0.3s0.6,0.1,0.8,0.3S318.7,354.4,318.7,354.8z M316.6,366.2v-8.6c0-0.3,0.1-0.5,0.3-0.7s0.4-0.3,0.7-0.3
				s0.5,0.1,0.7,0.3c0.2,0.2,0.3,0.4,0.3,0.7v8.6c0,0.3-0.1,0.5-0.3,0.7c-0.2,0.2-0.4,0.3-0.7,0.3s-0.5-0.1-0.7-0.3
				C316.7,366.7,316.6,366.5,316.6,366.2z"/>
			<path fill="#221F1F" d="M329.2,366c-0.9,0.8-2,1.2-3.3,1.2c-1.5,0-2.7-0.5-3.7-1.5c-1-1-1.5-2.3-1.5-3.7s0.5-2.7,1.5-3.7
				c1-1,2.3-1.5,3.7-1.5c1.4,0,2.7,0.5,3.7,1.5c1,1,1.5,2.3,1.5,3.7v5.2c0,0.5-0.1,0.9-0.2,1.3c-0.1,0.4-0.3,0.8-0.6,1.1
				c-0.2,0.3-0.5,0.6-0.9,0.9c-0.3,0.3-0.7,0.5-1.1,0.7s-0.8,0.3-1.2,0.4c-0.4,0.1-0.8,0.2-1.3,0.2c-0.5,0-1-0.1-1.5-0.2
				s-0.9-0.3-1.4-0.6c-0.4-0.3-0.8-0.6-1.2-0.9c-0.4-0.4-0.7-0.8-0.9-1.2c-0.1-0.1-0.2-0.3-0.2-0.5c0-0.3,0.1-0.5,0.3-0.7
				c0.2-0.2,0.4-0.3,0.7-0.3c0.2,0,0.3,0,0.5,0.1s0.3,0.3,0.5,0.6c0.2,0.3,0.4,0.5,0.6,0.7c0.7,0.7,1.6,1.1,2.6,1.1
				c1,0,1.9-0.4,2.6-1.1c0.4-0.5,0.6-1,0.6-1.5V366z M325.9,358.6c-0.5,0-0.9,0.1-1.3,0.3s-0.7,0.4-1,0.7c-0.3,0.3-0.5,0.6-0.7,1.1
				s-0.3,0.8-0.3,1.3c0,0.5,0.1,0.9,0.3,1.3c0.2,0.4,0.4,0.8,0.7,1c0.3,0.3,0.6,0.5,1,0.7s0.8,0.3,1.3,0.3c0.5,0,0.9-0.1,1.3-0.3
				s0.8-0.4,1-0.7c0.3-0.3,0.5-0.7,0.7-1.1c0.2-0.4,0.3-0.8,0.3-1.3c0-0.5-0.1-0.9-0.3-1.3c-0.2-0.4-0.4-0.7-0.7-1s-0.6-0.5-1-0.7
				S326.3,358.6,325.9,358.6z"/>
			<path fill="#221F1F" d="M334.6,357.6c0.8-0.6,1.8-1,2.9-1c0.7,0,1.3,0.1,1.9,0.4c0.6,0.3,1.1,0.6,1.6,1c0.5,0.4,0.8,1,1.1,1.6
				c0.3,0.6,0.4,1.2,0.4,1.9v4.6c0,0.3-0.1,0.5-0.3,0.7c-0.2,0.2-0.4,0.3-0.7,0.3c-0.3,0-0.5-0.1-0.7-0.3c-0.2-0.2-0.3-0.4-0.3-0.7
				v-4.6c0-0.4-0.1-0.8-0.2-1.1c-0.2-0.4-0.4-0.7-0.6-0.9s-0.6-0.5-0.9-0.6s-0.7-0.2-1.1-0.2c-0.4,0-0.8,0.1-1.1,0.2
				c-0.4,0.2-0.7,0.4-0.9,0.6s-0.5,0.6-0.6,0.9c-0.2,0.4-0.2,0.7-0.2,1.1v4.6c0,0.3-0.1,0.5-0.3,0.7c-0.2,0.2-0.4,0.3-0.7,0.3
				c-0.3,0-0.5-0.1-0.7-0.3c-0.2-0.2-0.3-0.4-0.3-0.7v-8.6c0-0.3,0.1-0.5,0.3-0.7c0.2-0.2,0.4-0.3,0.7-0.3c0.3,0,0.5,0.1,0.7,0.3
				C334.5,357.1,334.6,357.3,334.6,357.6z"/>
			<path fill="#221F1F" d="M362.1,364.8c0,0.3-0.1,0.5-0.3,0.7c-1.4,1.1-3,1.7-4.7,1.7c-2.1,0-3.9-0.7-5.3-2.2
				c-1.5-1.5-2.2-3.2-2.2-5.3c0-2.1,0.7-3.9,2.2-5.3c1.5-1.5,3.2-2.2,5.3-2.2c1.8,0,3.4,0.6,4.8,1.8c0.2,0.2,0.3,0.4,0.3,0.7
				c0,0.1,0,0.3-0.1,0.4c-0.1,0.1-0.1,0.2-0.2,0.3c-0.1,0.1-0.2,0.2-0.3,0.2c-0.1,0-0.3,0.1-0.4,0.1c-0.3,0-0.5-0.1-0.7-0.3
				c-0.5-0.4-1-0.7-1.6-0.9c-0.6-0.2-1.2-0.3-1.8-0.3c-1.5,0-2.8,0.5-3.9,1.6c-1.1,1.1-1.6,2.4-1.6,3.9c0,1.5,0.5,2.8,1.6,3.9
				c1.1,1.1,2.4,1.6,3.9,1.6c1.1,0,2.1-0.3,3-0.9v-2.9h-2.6c-0.3,0-0.5-0.1-0.7-0.3s-0.3-0.4-0.3-0.7c0-0.1,0-0.3,0.1-0.4
				c0.1-0.1,0.1-0.2,0.2-0.3s0.2-0.2,0.3-0.2c0.1-0.1,0.2-0.1,0.4-0.1h3.6c0.1,0,0.3,0,0.4,0.1c0.1,0.1,0.2,0.1,0.3,0.2
				c0.1,0.1,0.2,0.2,0.2,0.3c0.1,0.1,0.1,0.2,0.1,0.4V364.8z"/>
			<path fill="#221F1F" d="M365.6,357.6v0.2c0.5-0.4,1-0.7,1.5-0.9s1.1-0.3,1.8-0.3c0.3,0,0.6,0,0.9,0.1c0.3,0,0.6,0.1,0.9,0.2
				c0.3,0.1,0.5,0.2,0.7,0.4c0.2,0.2,0.3,0.4,0.3,0.7c0,0.1,0,0.3-0.1,0.4s-0.1,0.2-0.2,0.3s-0.2,0.2-0.3,0.2s-0.2,0.1-0.4,0.1
				c-0.1,0-0.3,0-0.4-0.1c-0.4-0.2-0.8-0.2-1.3-0.2c-0.5,0-0.9,0.1-1.3,0.3s-0.8,0.4-1,0.7c-0.3,0.3-0.5,0.6-0.7,1.1
				c-0.2,0.4-0.3,0.8-0.3,1.3v4.3c0,0.3-0.1,0.5-0.3,0.7c-0.2,0.2-0.4,0.3-0.7,0.3c-0.3,0-0.5-0.1-0.7-0.3c-0.2-0.2-0.3-0.4-0.3-0.7
				v-8.6c0-0.3,0.1-0.5,0.3-0.7s0.4-0.3,0.7-0.3c0.3,0,0.5,0.1,0.7,0.3S365.6,357.3,365.6,357.6z"/>
			<path fill="#221F1F" d="M383.2,361.9c0,1.5-0.5,2.7-1.5,3.7c-1,1-2.3,1.5-3.7,1.5c-1.5,0-2.7-0.5-3.7-1.5c-1-1-1.5-2.3-1.5-3.7
				s0.5-2.7,1.5-3.7c1-1,2.3-1.5,3.7-1.5c1.4,0,2.7,0.5,3.7,1.5c0.5,0.5,0.9,1.1,1.2,1.7C383.1,360.5,383.2,361.2,383.2,361.9z
				 M378,358.6c-0.5,0-0.9,0.1-1.3,0.3s-0.7,0.4-1,0.7c-0.3,0.3-0.5,0.6-0.7,1.1s-0.3,0.8-0.3,1.3c0,0.5,0.1,0.9,0.3,1.3
				c0.2,0.4,0.4,0.8,0.7,1c0.3,0.3,0.6,0.5,1,0.7s0.8,0.3,1.3,0.3c0.5,0,0.9-0.1,1.3-0.3s0.8-0.4,1-0.7c0.3-0.3,0.5-0.7,0.7-1.1
				c0.2-0.4,0.3-0.8,0.3-1.3c0-0.5-0.1-0.9-0.3-1.3c-0.2-0.4-0.4-0.7-0.7-1s-0.6-0.5-1-0.7S378.4,358.6,378,358.6z"/>
			<path fill="#221F1F" d="M393.5,367.2c-0.3,0-0.5-0.1-0.7-0.3c-0.2-0.2-0.3-0.4-0.3-0.7c-0.4,0.3-0.9,0.6-1.4,0.7
				c-0.5,0.2-1,0.2-1.6,0.2c-0.7,0-1.3-0.1-1.9-0.4s-1.1-0.6-1.6-1.1s-0.8-1-1.1-1.6c-0.3-0.6-0.4-1.2-0.4-1.9v-4.7
				c0-0.3,0.1-0.5,0.3-0.7s0.4-0.3,0.7-0.3c0.3,0,0.5,0.1,0.7,0.3s0.3,0.4,0.3,0.7v4.7c0,0.4,0.1,0.8,0.2,1.1
				c0.2,0.4,0.4,0.7,0.6,0.9c0.3,0.3,0.6,0.5,0.9,0.6c0.4,0.2,0.7,0.2,1.1,0.2c0.4,0,0.8-0.1,1.1-0.2s0.7-0.4,0.9-0.6
				s0.5-0.6,0.6-0.9c0.2-0.4,0.2-0.7,0.2-1.1v-4.7c0-0.3,0.1-0.5,0.3-0.7c0.2-0.2,0.4-0.3,0.7-0.3c0.3,0,0.5,0.1,0.7,0.3
				c0.2,0.2,0.3,0.4,0.3,0.7v8.6c0,0.3-0.1,0.5-0.3,0.7C394.1,367.1,393.8,367.2,393.5,367.2z"/>
			<path fill="#221F1F" d="M401.3,367.2c-1.3,0-2.4-0.4-3.3-1.2v4.7c0,0.3-0.1,0.5-0.3,0.7c-0.2,0.2-0.4,0.3-0.7,0.3
				c-0.3,0-0.5-0.1-0.7-0.3c-0.2-0.2-0.3-0.4-0.3-0.7v-8.8c0-1.5,0.5-2.7,1.5-3.7c1-1,2.3-1.5,3.7-1.5c1.4,0,2.7,0.5,3.7,1.5
				c0.5,0.5,0.9,1.1,1.2,1.7s0.4,1.3,0.4,2c0,1.5-0.5,2.7-1.5,3.7c-0.5,0.5-1.1,0.9-1.7,1.2S402,367.2,401.3,367.2z M398,361.9
				c0,0.5,0.1,0.9,0.3,1.3c0.2,0.4,0.4,0.8,0.7,1c0.3,0.3,0.6,0.5,1,0.7c0.4,0.2,0.8,0.3,1.3,0.3c0.5,0,0.9-0.1,1.3-0.3
				s0.8-0.4,1-0.7c0.3-0.3,0.5-0.7,0.7-1.1c0.2-0.4,0.3-0.8,0.3-1.3c0-0.5-0.1-0.9-0.3-1.3c-0.2-0.4-0.4-0.7-0.7-1s-0.6-0.5-1-0.7
				s-0.8-0.3-1.3-0.3c-0.5,0-0.9,0.1-1.3,0.3c-0.4,0.2-0.8,0.4-1,0.7c-0.3,0.3-0.5,0.6-0.7,1.1C398.1,361,398,361.5,398,361.9z"/>
		</g>
		<line fill="none" stroke="#221F1F" stroke-width="1.0939" stroke-miterlimit="10" x1="139.7" y1="283.2" x2="139.7" y2="376.5"/>
	</g>
	<g>
		<path fill="#221F1F" d="M797.4,641.7v8.1h-1v-8.1H797.4z"/>
		<path fill="#221F1F" d="M799.3,645.6c0-0.6,0-1.1,0-1.6h0.9l0,0.9h0c0.3-0.6,0.9-1.1,1.8-1.1c0.8,0,1.4,0.5,1.6,1.2h0
			c0.2-0.3,0.4-0.6,0.6-0.8c0.3-0.3,0.7-0.4,1.3-0.4c0.8,0,1.9,0.5,1.9,2.5v3.4h-1v-3.3c0-1.1-0.4-1.8-1.3-1.8c-0.6,0-1.1,0.4-1.2,1
			c0,0.1-0.1,0.3-0.1,0.5v3.6h-1v-3.5c0-0.9-0.4-1.6-1.2-1.6c-0.7,0-1.1,0.5-1.3,1.1c-0.1,0.2-0.1,0.3-0.1,0.5v3.5h-1V645.6z"/>
		<path fill="#221F1F" d="M812.5,649.8l-0.1-0.7h0c-0.3,0.5-0.9,0.9-1.8,0.9c-1.2,0-1.8-0.8-1.8-1.7c0-1.4,1.2-2.2,3.5-2.2V646
			c0-0.5-0.1-1.3-1.3-1.3c-0.5,0-1.1,0.2-1.5,0.4l-0.2-0.7c0.5-0.3,1.2-0.5,1.9-0.5c1.8,0,2.2,1.2,2.2,2.4v2.2c0,0.5,0,1,0.1,1.4
			H812.5z M812.4,646.8c-1.2,0-2.5,0.2-2.5,1.3c0,0.7,0.5,1,1,1c0.8,0,1.2-0.5,1.4-1c0-0.1,0.1-0.2,0.1-0.3V646.8z"/>
		<path fill="#221F1F" d="M820.1,644c0,0.4,0,0.9,0,1.6v3.4c0,1.3-0.3,2.1-0.8,2.7c-0.6,0.5-1.4,0.7-2.1,0.7c-0.7,0-1.5-0.2-1.9-0.5
			l0.3-0.8c0.4,0.2,1,0.5,1.7,0.5c1.1,0,1.9-0.6,1.9-2v-0.6h0c-0.3,0.5-0.9,1-1.8,1c-1.4,0-2.5-1.2-2.5-2.8c0-2,1.3-3.1,2.6-3.1
			c1,0,1.6,0.5,1.8,1h0l0-0.9H820.1z M819,646.3c0-0.2,0-0.3-0.1-0.5c-0.2-0.6-0.7-1.1-1.5-1.1c-1,0-1.7,0.9-1.7,2.2
			c0,1.1,0.6,2.1,1.7,2.1c0.6,0,1.2-0.4,1.5-1.1c0.1-0.2,0.1-0.4,0.1-0.6V646.3z"/>
		<path fill="#221F1F" d="M822.4,647.1c0,1.4,0.9,2,2,2c0.8,0,1.2-0.1,1.6-0.3l0.2,0.8c-0.4,0.2-1,0.4-1.9,0.4
			c-1.8,0-2.9-1.2-2.9-2.9s1-3.1,2.7-3.1c1.9,0,2.4,1.7,2.4,2.7c0,0.2,0,0.4,0,0.5H822.4z M825.5,646.3c0-0.7-0.3-1.7-1.5-1.7
			c-1.1,0-1.5,1-1.6,1.7H825.5z"/>
		<path fill="#221F1F" d="M830.2,648.7c0.3,0.2,0.9,0.4,1.4,0.4c0.8,0,1.1-0.4,1.1-0.9c0-0.5-0.3-0.8-1.1-1.1
			c-1-0.4-1.5-0.9-1.5-1.6c0-0.9,0.8-1.7,2-1.7c0.6,0,1.1,0.2,1.4,0.4l-0.3,0.8c-0.2-0.1-0.6-0.3-1.2-0.3c-0.6,0-1,0.4-1,0.8
			c0,0.5,0.3,0.7,1.1,1c1,0.4,1.5,0.9,1.5,1.8c0,1-0.8,1.7-2.2,1.7c-0.6,0-1.2-0.2-1.6-0.4L830.2,648.7z"/>
		<path fill="#221F1F" d="M840.4,646.9c0,2.1-1.5,3.1-2.9,3.1c-1.6,0-2.8-1.2-2.8-3c0-1.9,1.3-3.1,2.9-3.1
			C839.2,643.9,840.4,645.1,840.4,646.9z M835.8,646.9c0,1.3,0.7,2.2,1.8,2.2c1,0,1.8-0.9,1.8-2.3c0-1-0.5-2.2-1.7-2.2
			C836.3,644.7,835.8,645.8,835.8,646.9z"/>
		<path fill="#221F1F" d="M846.6,648.2c0,0.6,0,1.1,0,1.6h-0.9l-0.1-0.9h0c-0.3,0.5-0.9,1.1-1.9,1.1c-0.9,0-2-0.5-2-2.5V644h1.1v3.2
			c0,1.1,0.3,1.8,1.3,1.8c0.7,0,1.2-0.5,1.4-1c0.1-0.2,0.1-0.3,0.1-0.5V644h1.1V648.2z"/>
		<path fill="#221F1F" d="M848.3,645.8c0-0.7,0-1.3,0-1.8h0.9l0,1.1h0c0.3-0.8,0.9-1.3,1.6-1.3c0.1,0,0.2,0,0.3,0v1
			c-0.1,0-0.2,0-0.4,0c-0.7,0-1.3,0.6-1.4,1.4c0,0.1,0,0.3,0,0.5v3.1h-1V645.8z"/>
		<path fill="#221F1F" d="M856.3,649.6c-0.3,0.1-0.9,0.3-1.7,0.3c-1.8,0-2.9-1.2-2.9-3c0-1.8,1.2-3.1,3.1-3.1c0.6,0,1.2,0.2,1.5,0.3
			L856,645c-0.3-0.1-0.6-0.3-1.2-0.3c-1.3,0-2.1,1-2.1,2.2c0,1.3,0.9,2.2,2,2.2c0.6,0,1-0.2,1.3-0.3L856.3,649.6z"/>
		<path fill="#221F1F" d="M858,647.1c0,1.4,0.9,2,2,2c0.8,0,1.2-0.1,1.6-0.3l0.2,0.8c-0.4,0.2-1,0.4-1.9,0.4c-1.8,0-2.9-1.2-2.9-2.9
			s1-3.1,2.7-3.1c1.9,0,2.4,1.7,2.4,2.7c0,0.2,0,0.4,0,0.5H858z M861.1,646.3c0-0.7-0.3-1.7-1.5-1.7c-1.1,0-1.5,1-1.6,1.7H861.1z"/>
		<path fill="#221F1F" d="M863.2,645c0-0.4,0.3-0.8,0.7-0.8c0.4,0,0.7,0.3,0.7,0.8c0,0.4-0.3,0.7-0.7,0.7
			C863.5,645.7,863.2,645.4,863.2,645z M863.2,649.2c0-0.4,0.3-0.8,0.7-0.8c0.4,0,0.7,0.3,0.7,0.8c0,0.4-0.3,0.7-0.7,0.7
			C863.5,649.9,863.2,649.6,863.2,649.2z"/>
		<path fill="#221F1F" d="M868.5,641.3h1.1v3.6h0c0.2-0.3,0.4-0.6,0.8-0.7c0.3-0.2,0.7-0.3,1.1-0.3c0.8,0,2,0.5,2,2.5v3.5h-1.1v-3.3
			c0-0.9-0.3-1.7-1.3-1.7c-0.7,0-1.2,0.5-1.4,1.1c-0.1,0.1-0.1,0.3-0.1,0.5v3.5h-1.1V641.3z"/>
		<path fill="#221F1F" d="M876.3,642.3v1.7h1.5v0.8h-1.5v3.1c0,0.7,0.2,1.1,0.8,1.1c0.3,0,0.5,0,0.6-0.1l0,0.8
			c-0.2,0.1-0.5,0.1-0.9,0.1c-0.5,0-0.9-0.2-1.1-0.4c-0.3-0.3-0.4-0.8-0.4-1.5v-3.2h-0.9V644h0.9v-1.4L876.3,642.3z"/>
		<path fill="#221F1F" d="M880.3,642.3v1.7h1.5v0.8h-1.5v3.1c0,0.7,0.2,1.1,0.8,1.1c0.3,0,0.5,0,0.6-0.1l0,0.8
			c-0.2,0.1-0.5,0.1-0.9,0.1c-0.5,0-0.9-0.2-1.1-0.4c-0.3-0.3-0.4-0.8-0.4-1.5v-3.2h-0.9V644h0.9v-1.4L880.3,642.3z"/>
		<path fill="#221F1F" d="M883,645.9c0-0.7,0-1.3,0-1.9h0.9l0,1h0c0.4-0.7,1.1-1.1,2.1-1.1c1.4,0,2.5,1.2,2.5,3
			c0,2.1-1.3,3.1-2.6,3.1c-0.8,0-1.4-0.3-1.8-0.9h0v3.2h-1V645.9z M884.1,647.4c0,0.2,0,0.3,0,0.4c0.2,0.7,0.8,1.2,1.6,1.2
			c1.1,0,1.8-0.9,1.8-2.2c0-1.2-0.6-2.2-1.7-2.2c-0.7,0-1.4,0.5-1.6,1.3c0,0.1-0.1,0.3-0.1,0.4V647.4z"/>
		<path fill="#221F1F" d="M889.6,645c0-0.4,0.3-0.8,0.7-0.8c0.4,0,0.7,0.3,0.7,0.8c0,0.4-0.3,0.7-0.7,0.7
			C889.9,645.7,889.6,645.4,889.6,645z M889.6,649.2c0-0.4,0.3-0.8,0.7-0.8c0.4,0,0.7,0.3,0.7,0.8c0,0.4-0.3,0.7-0.7,0.7
			C889.9,649.9,889.6,649.6,889.6,649.2z"/>
		<path fill="#221F1F" d="M891.4,650.3l3.3-8.7h0.8l-3.4,8.7H891.4z"/>
		<path fill="#221F1F" d="M895.6,650.3l3.3-8.7h0.8l-3.4,8.7H895.6z"/>
		<path fill="#221F1F" d="M901,644l0.8,3c0.2,0.6,0.3,1.2,0.4,1.8h0c0.1-0.6,0.3-1.2,0.5-1.8l0.9-3h0.9l0.9,2.9
			c0.2,0.7,0.4,1.3,0.5,1.9h0c0.1-0.6,0.3-1.2,0.4-1.9l0.8-2.9h1l-1.9,5.8h-1l-0.9-2.8c-0.2-0.6-0.4-1.2-0.5-1.9h0
			c-0.1,0.7-0.3,1.3-0.5,1.9l-0.9,2.8h-1l-1.8-5.8H901z"/>
		<path fill="#221F1F" d="M910,644l0.8,3c0.2,0.6,0.3,1.2,0.4,1.8h0c0.1-0.6,0.3-1.2,0.5-1.8l0.9-3h0.9l0.9,2.9
			c0.2,0.7,0.4,1.3,0.5,1.9h0c0.1-0.6,0.3-1.2,0.4-1.9l0.8-2.9h1l-1.9,5.8h-1l-0.9-2.8c-0.2-0.6-0.4-1.2-0.5-1.9h0
			c-0.1,0.7-0.3,1.3-0.5,1.9l-0.9,2.8h-1l-1.8-5.8H910z"/>
		<path fill="#221F1F" d="M918.9,644l0.8,3c0.2,0.6,0.3,1.2,0.4,1.8h0c0.1-0.6,0.3-1.2,0.5-1.8l0.9-3h0.9l0.9,2.9
			c0.2,0.7,0.4,1.3,0.5,1.9h0c0.1-0.6,0.3-1.2,0.4-1.9l0.8-2.9h1l-1.9,5.8h-1l-0.9-2.8c-0.2-0.6-0.4-1.2-0.5-1.9h0
			c-0.1,0.7-0.3,1.3-0.5,1.9l-0.9,2.8h-1l-1.8-5.8H918.9z"/>
		<path fill="#221F1F" d="M926.6,649.2c0-0.4,0.3-0.8,0.7-0.8c0.4,0,0.7,0.3,0.7,0.8c0,0.4-0.3,0.8-0.7,0.8
			C926.9,649.9,926.6,649.6,926.6,649.2z"/>
		<path fill="#221F1F" d="M929.4,645.6c0-0.6,0-1.1,0-1.6h0.9l0,0.9h0c0.3-0.6,0.9-1.1,1.8-1.1c0.8,0,1.4,0.5,1.6,1.2h0
			c0.2-0.3,0.4-0.6,0.6-0.8c0.3-0.3,0.7-0.4,1.3-0.4c0.8,0,1.9,0.5,1.9,2.5v3.4h-1v-3.3c0-1.1-0.4-1.8-1.3-1.8c-0.6,0-1.1,0.4-1.2,1
			c0,0.1-0.1,0.3-0.1,0.5v3.6h-1v-3.5c0-0.9-0.4-1.6-1.2-1.6c-0.7,0-1.1,0.5-1.3,1.1c-0.1,0.2-0.1,0.3-0.1,0.5v3.5h-1V645.6z"/>
		<path fill="#221F1F" d="M940,647.1c0,1.4,0.9,2,2,2c0.8,0,1.2-0.1,1.6-0.3l0.2,0.8c-0.4,0.2-1,0.4-1.9,0.4c-1.8,0-2.9-1.2-2.9-2.9
			s1-3.1,2.7-3.1c1.9,0,2.4,1.7,2.4,2.7c0,0.2,0,0.4,0,0.5H940z M943,646.3c0-0.7-0.3-1.7-1.5-1.7c-1.1,0-1.5,1-1.6,1.7H943z"/>
		<path fill="#221F1F" d="M950.4,641.3v7c0,0.5,0,1.1,0,1.5h-0.9l0-1h0c-0.3,0.6-1,1.1-2,1.1c-1.4,0-2.5-1.2-2.5-3
			c0-1.9,1.2-3.1,2.6-3.1c0.9,0,1.5,0.4,1.8,0.9h0v-3.5H950.4z M949.3,646.4c0-0.1,0-0.3,0-0.4c-0.2-0.7-0.7-1.2-1.5-1.2
			c-1.1,0-1.7,1-1.7,2.2c0,1.2,0.6,2.1,1.7,2.1c0.7,0,1.4-0.5,1.5-1.3c0-0.1,0-0.3,0-0.5V646.4z"/>
		<path fill="#221F1F" d="M952.1,645.6c0-0.6,0-1.1,0-1.6h0.9l0,0.9h0c0.3-0.6,0.9-1.1,1.8-1.1c0.8,0,1.4,0.5,1.6,1.2h0
			c0.2-0.3,0.4-0.6,0.6-0.8c0.3-0.3,0.7-0.4,1.3-0.4c0.8,0,1.9,0.5,1.9,2.5v3.4h-1v-3.3c0-1.1-0.4-1.8-1.3-1.8c-0.6,0-1.1,0.4-1.2,1
			c0,0.1-0.1,0.3-0.1,0.5v3.6h-1v-3.5c0-0.9-0.4-1.6-1.2-1.6c-0.7,0-1.1,0.5-1.3,1.1c-0.1,0.2-0.1,0.3-0.1,0.5v3.5h-1V645.6z"/>
		<path fill="#221F1F" d="M967.4,646.9c0,2.1-1.5,3.1-2.9,3.1c-1.6,0-2.8-1.2-2.8-3c0-1.9,1.3-3.1,2.9-3.1
			C966.3,643.9,967.4,645.1,967.4,646.9z M962.8,646.9c0,1.3,0.7,2.2,1.8,2.2c1,0,1.8-0.9,1.8-2.3c0-1-0.5-2.2-1.7-2.2
			C963.3,644.7,962.8,645.8,962.8,646.9z"/>
		<path fill="#221F1F" d="M968.7,645.6c0-0.6,0-1.1,0-1.6h0.9l0.1,1h0c0.3-0.6,1-1.1,1.9-1.1c0.8,0,2.1,0.5,2.1,2.5v3.5h-1.1v-3.3
			c0-0.9-0.3-1.7-1.3-1.7c-0.7,0-1.2,0.5-1.4,1.1c0,0.1-0.1,0.3-0.1,0.5v3.5h-1.1V645.6z"/>
		<path fill="#221F1F" d="M976.6,642.3v1.7h1.5v0.8h-1.5v3.1c0,0.7,0.2,1.1,0.8,1.1c0.3,0,0.5,0,0.6-0.1l0,0.8
			c-0.2,0.1-0.5,0.1-0.9,0.1c-0.5,0-0.9-0.2-1.1-0.4c-0.3-0.3-0.4-0.8-0.4-1.5v-3.2h-0.9V644h0.9v-1.4L976.6,642.3z"/>
		<path fill="#221F1F" d="M979,649.2c0-0.4,0.3-0.8,0.7-0.8c0.4,0,0.7,0.3,0.7,0.8c0,0.4-0.3,0.8-0.7,0.8
			C979.3,649.9,979,649.6,979,649.2z"/>
		<path fill="#221F1F" d="M985.9,649.6c-0.3,0.1-0.9,0.3-1.7,0.3c-1.8,0-2.9-1.2-2.9-3c0-1.8,1.2-3.1,3.1-3.1c0.6,0,1.2,0.2,1.5,0.3
			l-0.2,0.8c-0.3-0.1-0.6-0.3-1.2-0.3c-1.3,0-2.1,1-2.1,2.2c0,1.3,0.9,2.2,2,2.2c0.6,0,1-0.2,1.3-0.3L985.9,649.6z"/>
		<path fill="#221F1F" d="M992.3,646.9c0,2.1-1.5,3.1-2.9,3.1c-1.6,0-2.8-1.2-2.8-3c0-1.9,1.3-3.1,2.9-3.1
			C991.2,643.9,992.3,645.1,992.3,646.9z M987.7,646.9c0,1.3,0.7,2.2,1.8,2.2c1,0,1.8-0.9,1.8-2.3c0-1-0.5-2.2-1.7-2.2
			C988.3,644.7,987.7,645.8,987.7,646.9z"/>
		<path fill="#221F1F" d="M993.7,645.6c0-0.6,0-1.1,0-1.6h0.9l0,0.9h0c0.3-0.6,0.9-1.1,1.8-1.1c0.8,0,1.4,0.5,1.6,1.2h0
			c0.2-0.3,0.4-0.6,0.6-0.8c0.3-0.3,0.7-0.4,1.3-0.4c0.8,0,1.9,0.5,1.9,2.5v3.4h-1v-3.3c0-1.1-0.4-1.8-1.3-1.8c-0.6,0-1.1,0.4-1.2,1
			c0,0.1-0.1,0.3-0.1,0.5v3.6h-1v-3.5c0-0.9-0.4-1.6-1.2-1.6c-0.7,0-1.1,0.5-1.3,1.1c-0.1,0.2-0.1,0.3-0.1,0.5v3.5h-1V645.6z"/>
		<path fill="#221F1F" d="M1003.4,649.2c0-0.4,0.3-0.8,0.7-0.8c0.4,0,0.7,0.3,0.7,0.8c0,0.4-0.3,0.8-0.7,0.8
			C1003.7,649.9,1003.4,649.6,1003.4,649.2z"/>
		<path fill="#221F1F" d="M1009.4,649.8l-0.1-0.7h0c-0.3,0.5-0.9,0.9-1.8,0.9c-1.2,0-1.8-0.8-1.8-1.7c0-1.4,1.2-2.2,3.5-2.2V646
			c0-0.5-0.1-1.3-1.3-1.3c-0.5,0-1.1,0.2-1.5,0.4l-0.2-0.7c0.5-0.3,1.2-0.5,1.9-0.5c1.8,0,2.2,1.2,2.2,2.4v2.2c0,0.5,0,1,0.1,1.4
			H1009.4z M1009.2,646.8c-1.2,0-2.5,0.2-2.5,1.3c0,0.7,0.5,1,1,1c0.8,0,1.2-0.5,1.4-1c0-0.1,0.1-0.2,0.1-0.3V646.8z"/>
		<path fill="#221F1F" d="M1016.8,648.2c0,0.6,0,1.1,0,1.6h-0.9l-0.1-0.9h0c-0.3,0.5-0.9,1.1-1.9,1.1c-0.9,0-2-0.5-2-2.5V644h1.1
			v3.2c0,1.1,0.3,1.8,1.3,1.8c0.7,0,1.2-0.5,1.4-1c0.1-0.2,0.1-0.3,0.1-0.5V644h1.1V648.2z"/>
		<path fill="#221F1F" d="M1017.7,650.3l3.3-8.7h0.8l-3.4,8.7H1017.7z"/>
	</g>
</g>
</svg>
