<!-- Generator: Adobe Illustrator 18.0.0, SVG Export Plug-In  -->
<svg version="1.1"
	 xmlns="http://www.w3.org/2000/svg" xmlns:xlink="http://www.w3.org/1999/xlink" xmlns:a="http://ns.adobe.com/AdobeSVGViewerExtensions/3.0/"
	 x="0px" y="0px" width="414.5px" height="527.3px" viewBox="0 0 414.5 527.3" enable-background="new 0 0 414.5 527.3"
	 xml:space="preserve">
<defs>
</defs>
<g id="_x33_d_copy_2">
	<g id="Layer_1_copy_4">
	</g>
	<g>
		<path fill="none" stroke="#2B388E" stroke-width="8" stroke-miterlimit="10" stroke-dasharray="15,9" d="M120.3,445.8v1.7l0.4,0
			l0.9-4.6c1.2-6.3,6.5-11,12.9-11.4l2.1-0.1v-4.9h-2.8l0.9-12.5c0.1-1,0.9-1.9,2-1.9h4.3c1.1,0,1.9,0.8,2,1.9l0.9,12.5h-2.8v4.6
			l26.8-1.8v-10.1c0-0.6,0.5-1.1,1.1-1c0.5,0,1.2,0.1,2.1,0.2v-4c-2.2-0.5-3.2-0.8-3.2-0.8v-72.8l8.5-10h8.8v-1.8h-5.5v-91.8
			c-13.7,1-30.8,1.8-51.1,1.8c-27.4,0-47.1-1.2-60.2-2.4v192.1l29.2-3.4C109.6,424,120.3,433.5,120.3,445.8z"/>
		<path fill="none" stroke="#2B388E" stroke-width="8" stroke-miterlimit="10" stroke-dasharray="15,9" d="M103.3,206.3
			c4.9,0,12.7,0.2,15.9,1c3,0.7,10.1,2.9,15.7,4.7c15.3-1.8,30.3-12,30.3-12h14.2v-13.3c-0.3-0.2-0.6-0.4-0.9-0.7
			c-1.2-1.1-2.4-2.2-3.3-3.3c-4.3-5.1-8.1-16.5-10.4-24.5c-1.5-5.3-2.3-10.9-2.3-16.4v-23.2c-7.4-7.2-14.3-15.7-13.6-19.6
			c0.9-4.8,3.6-8.1,7-10.4c1.5-3.2,3.6-5.3,7.6-6.8c2.9-1.1,5.7-1,8.1,0c9.4-13.8,25.3-22.9,43.3-22.9h3.8c2.2,0,4.3,0.2,6.4,0.5
			v-25c-2.3-0.5-4.4-1-6-1.2l-2.5,1.2c0,0-5.6-0.6-12.9-1.2c-4.1,0.2-12.3,0.8-16.4,1.2c-7,0.6-20.9,2.3-27.8,3.5
			c-7.6,1.3-22.5,4.7-30,6.5c-8.3,2-24.9,6.1-33,8.9c-3.8,1.4-11.2,5-15.2,5.6c-3.3,0.5-13.2-0.7-13.2-0.7v149.8l32-3.1
			C100.3,204.8,101.4,205.4,103.3,206.3z"/>
		<path fill="none" stroke="#2B388E" stroke-width="8" stroke-miterlimit="10" stroke-dasharray="15,9" d="M409.5,469.4l-43.3-3.4
			l-0.8-9.8c-0.2-6.8-5.8-12-5.8-12l-0.3,0.1c-2.6-2-5.6-3.2-8.8-3.7c-3.7-0.5-7.4-0.3-11.1,0.5l-3.9,0.9l0-2.1
			c0.1-4.8-3.8-8.8-8.6-8.6l-22.9,0.8c0-3.7-3-6.7-6.7-6.7h-17.4l2.5-11.3c0.1-0.3,0.1-0.6,0.2-0.9c0.6-3.3,1-9.9,1.2-13.2
			c0.2-5.3,0.2-17.8,0.1-25.3c0,0,0,0,0,0v-6c-3.9-2.3-8.2-3.4-12.5-3.3c-2.5,0.1-5,0.6-7.4,1.5v-25.9l-8.5-10H252
			c0.9-8.1,1.9-17.4,2.2-22.1c1.3-20.1,2-80.7,2-80.7l-1.5-39.7l9.9-4.2l6.8-6.2l2.8-4l2.5-12.7l2.5-13.7l2-14.7l0.8-12.2l-0.8-25.5
			l-1.2-4.5l-7.2-4.7l-7-3.2l-7.5-3.4l-9.8-8.1c-1.8-1.8-3.7-3.5-5.7-5V32.7c2.5-1,4.5-2,4.5-2V7.9c0,0-34.3-4.1-46.2-3.8
			c0,0,0,0,0,0c-0.1,0-0.2,0-0.3,0c-11.1,0.3-29.5,3-45.2,5.7v0c-7.4,1.3-14.2,2.5-19.3,3.5c-8.5,1.6-21.9,4.5-34.4,7.4
			c0,0,0,0,0,0.1c-9,2.1-17.5,4.2-23.4,6c-7.7,2.3-30.3,11.2-30.3,11.2v17.7c0,0,1.6,1.7,2.3,2v152.2l-1.7,0.2c-1,0.1-1.8,1-1.8,2
			v22c0,0,1.1,0.3,3.5,0.7v196.4l-4.8,0.6c-10.3,1.2-18,9.9-18,20.2l-1.6,26.9l-0.4,0.1L6,482.8c-1.3,0.3-1.9,1.2-2,2.3l0,0v6.3
			c0,1.5,1.2,2.8,2.7,3l256,27.8c23.5,2.6,47.3,0.5,69.9-6.2l57.6-16.8l20.2-19.6v-8.7C410.7,470.2,410.3,469.5,409.5,469.4z
			 M68.3,58.1c0,0,9.9,1.2,13.2,0.7c4-0.6,11.4-4.2,15.2-5.6c8.1-2.9,24.7-6.9,33-8.9c7.5-1.8,22.4-5.2,30-6.5
			c6.9-1.2,20.8-2.9,27.8-3.5c4.1-0.4,12.3-1.1,16.4-1.2c7.3,0.6,12.9,1.2,12.9,1.2l2.5-1.2c1.5,0.1,3.7,0.6,6,1.2v25
			c-2.1-0.3-4.2-0.5-6.4-0.5H215c-18,0-33.9,9.1-43.3,22.9c-2.4-1-5.2-1.2-8.1,0c-3.9,1.5-6,3.6-7.6,6.8c-3.4,2.3-6.1,5.6-7,10.4
			c-0.7,3.9,6.2,12.4,13.6,19.6v23.2c0,5.6,0.8,11.1,2.3,16.4c2.3,8,6.1,19.4,10.4,24.5c1,1.1,2.1,2.3,3.3,3.3
			c0.3,0.2,0.6,0.5,0.9,0.7v13.3h-14.2c0,0-15,10.2-30.3,12c-5.6-1.8-12.7-4-15.7-4.7c-3.2-0.8-11-1-15.9-1c-2-0.9-3.1-1.5-3.1-1.5
			l-32,3.1V58.1z M68.3,236.7c13.1,1.3,32.7,2.4,60.2,2.4c20.3,0,37.4-0.8,51.1-1.8v91.8h5.5v1.8h-8.8l-8.5,10v72.8
			c0,0,1,0.3,3.2,0.8v4c-0.8-0.1-1.6-0.1-2.1-0.2c-0.6-0.1-1.1,0.4-1.1,1v10.1l-26.8,1.8v-4.6h2.8l-0.9-12.5c-0.1-1-0.9-1.9-2-1.9
			h-4.3c-1.1,0-1.9,0.8-2,1.9l-0.9,12.5h2.8v4.9l-2.1,0.1c-6.4,0.4-11.7,5.1-12.9,11.4l-0.9,4.6l-0.4,0v-1.7
			c0-12.3-10.7-21.8-22.8-20.4l-29.2,3.4V236.7z"/>
	</g>
</g>
</svg>
