<!-- Generator: Adobe Illustrator 18.0.0, SVG Export Plug-In  -->
<svg version="1.1"
	 xmlns="http://www.w3.org/2000/svg" xmlns:xlink="http://www.w3.org/1999/xlink" xmlns:a="http://ns.adobe.com/AdobeSVGViewerExtensions/3.0/"
	 x="0px" y="0px" width="1562.5px" height="184.2px" viewBox="0 0 1562.5 184.2" enable-background="new 0 0 1562.5 184.2"
	 xml:space="preserve">
<defs>
</defs>
<g>
	<g>
		<circle fill="#FFFFFF" cx="1152.3" cy="14.6" r="7.7"/>
		<line fill="none" stroke="#FFFFFF" stroke-width="1.8928" stroke-miterlimit="10" x1="1170.2" y1="27.4" x2="1560.4" y2="27.4"/>
		<g>
			<path fill="#FFFFFF" d="M1416.2,58.3c0,2.2-0.8,3.9-2.3,5.1s-3.7,1.8-6.5,1.8c-2.8,0-5-0.4-6.8-1.3v-3.8c1.1,0.5,2.3,0.9,3.5,1.2
				c1.2,0.3,2.4,0.4,3.5,0.4c1.6,0,2.7-0.3,3.5-0.9c0.7-0.6,1.1-1.4,1.1-2.4c0-0.9-0.3-1.7-1-2.3c-0.7-0.6-2.1-1.4-4.3-2.2
				c-2.2-0.9-3.8-1.9-4.7-3.1c-0.9-1.2-1.4-2.5-1.4-4.2c0-2,0.7-3.6,2.2-4.8c1.4-1.2,3.4-1.7,5.8-1.7c2.3,0,4.6,0.5,7,1.5l-1.3,3.2
				c-2.2-0.9-4.1-1.4-5.8-1.4c-1.3,0-2.3,0.3-2.9,0.8c-0.7,0.6-1,1.3-1,2.2c0,0.6,0.1,1.2,0.4,1.6c0.3,0.4,0.7,0.9,1.3,1.3
				c0.6,0.4,1.7,0.9,3.3,1.6c1.8,0.7,3.1,1.4,3.9,2.1c0.8,0.6,1.4,1.4,1.8,2.2C1416,56.2,1416.2,57.2,1416.2,58.3z"/>
			<path fill="#FFFFFF" d="M1420.3,41.6c0-0.7,0.2-1.2,0.6-1.6s0.9-0.6,1.6-0.6c0.7,0,1.2,0.2,1.6,0.6s0.6,0.9,0.6,1.6
				c0,0.7-0.2,1.2-0.6,1.6c-0.4,0.4-0.9,0.6-1.6,0.6c-0.7,0-1.3-0.2-1.6-0.6C1420.5,42.8,1420.3,42.3,1420.3,41.6z M1424.4,64.9
				h-3.9V46.5h3.9V64.9z"/>
			<path fill="#FFFFFF" d="M1446.2,64.9h-3.9V53.6c0-1.4-0.3-2.5-0.9-3.2s-1.5-1-2.7-1c-1.7,0-2.9,0.5-3.6,1.5
				c-0.8,1-1.1,2.6-1.1,4.9v9.2h-3.9V46.5h3.1l0.5,2.4h0.2c0.6-0.9,1.3-1.6,2.4-2c1-0.5,2.2-0.7,3.4-0.7c4.4,0,6.6,2.2,6.6,6.7V64.9
				z"/>
			<path fill="#FFFFFF" d="M1459.1,65.2c-2.8,0-4.9-0.8-6.3-2.4c-1.4-1.6-2.2-4-2.2-7c0-3.1,0.8-5.5,2.3-7.1s3.7-2.5,6.6-2.5
				c1.9,0,3.7,0.4,5.2,1.1l-1.2,3.1c-1.7-0.6-3-1-4.1-1c-3.2,0-4.8,2.1-4.8,6.3c0,2.1,0.4,3.6,1.2,4.6c0.8,1,2,1.6,3.5,1.6
				c1.7,0,3.4-0.4,4.9-1.3V64c-0.7,0.4-1.4,0.7-2.2,0.9S1460.2,65.2,1459.1,65.2z"/>
			<path fill="#FFFFFF" d="M1476.6,65.2c-2.9,0-5.1-0.8-6.7-2.5c-1.6-1.7-2.4-4-2.4-6.9c0-3,0.7-5.4,2.2-7.1
				c1.5-1.7,3.6-2.6,6.2-2.6c2.4,0,4.3,0.7,5.8,2.2s2.1,3.5,2.1,6.1v2.1h-12.3c0.1,1.8,0.5,3.2,1.4,4.1c0.9,1,2.2,1.4,3.8,1.4
				c1.1,0,2.1-0.1,3-0.3c0.9-0.2,1.9-0.5,3-1v3.2c-1,0.5-1.9,0.8-2.9,1C1478.9,65.1,1477.8,65.2,1476.6,65.2z M1475.8,49.1
				c-1.2,0-2.2,0.4-3,1.2c-0.7,0.8-1.2,1.9-1.3,3.4h8.4c0-1.5-0.4-2.7-1.1-3.5S1477.1,49.1,1475.8,49.1z"/>
			<path fill="#FFFFFF" d="M1498.3,64.9h-3.9V49.2c0-1.9,0-3.4,0.1-4.5c-0.3,0.3-0.6,0.6-0.9,0.9c-0.4,0.3-1.6,1.3-3.7,3.1l-2-2.5
				l7.2-5.6h3.3V64.9z"/>
			<path fill="#FFFFFF" d="M1522.8,50.9c0,4.8-1,8.4-2.9,10.7c-1.9,2.4-4.8,3.5-8.7,3.5c-1.5,0-2.5-0.1-3.2-0.3v-3.3
				c1,0.3,2,0.4,3,0.4c2.6,0,4.6-0.7,5.9-2.1c1.3-1.4,2-3.6,2.1-6.7h-0.2c-0.7,1-1.4,1.7-2.4,2.2c-0.9,0.4-2,0.7-3.3,0.7
				c-2.2,0-3.8-0.7-5.1-2c-1.2-1.3-1.8-3.2-1.8-5.5c0-2.5,0.7-4.6,2.1-6.1c1.4-1.5,3.4-2.3,5.8-2.3c1.7,0,3.2,0.4,4.5,1.3
				s2.3,2.1,3,3.7C1522.4,46.8,1522.8,48.7,1522.8,50.9z M1514.3,43.5c-1.4,0-2.4,0.4-3.1,1.3s-1.1,2.1-1.1,3.7c0,1.4,0.3,2.5,1,3.3
				c0.7,0.8,1.7,1.2,3.1,1.2c1.3,0,2.4-0.4,3.3-1.2c0.9-0.8,1.3-1.7,1.3-2.8c0-1-0.2-1.9-0.6-2.8c-0.4-0.9-0.9-1.5-1.6-2
				C1515.9,43.7,1515.2,43.5,1514.3,43.5z"/>
			<path fill="#FFFFFF" d="M1542.2,50.9c0,4.8-1,8.4-2.9,10.7c-1.9,2.4-4.8,3.5-8.7,3.5c-1.5,0-2.5-0.1-3.2-0.3v-3.3
				c1,0.3,2,0.4,3,0.4c2.6,0,4.6-0.7,5.9-2.1c1.3-1.4,2-3.6,2.1-6.7h-0.2c-0.7,1-1.4,1.7-2.4,2.2c-0.9,0.4-2,0.7-3.3,0.7
				c-2.2,0-3.8-0.7-5.1-2c-1.2-1.3-1.8-3.2-1.8-5.5c0-2.5,0.7-4.6,2.1-6.1c1.4-1.5,3.4-2.3,5.8-2.3c1.7,0,3.2,0.4,4.5,1.3
				s2.3,2.1,3,3.7C1541.8,46.8,1542.2,48.7,1542.2,50.9z M1533.7,43.5c-1.4,0-2.4,0.4-3.1,1.3s-1.1,2.1-1.1,3.7c0,1.4,0.3,2.5,1,3.3
				c0.7,0.8,1.7,1.2,3.1,1.2c1.3,0,2.4-0.4,3.3-1.2c0.9-0.8,1.3-1.7,1.3-2.8c0-1-0.2-1.9-0.6-2.8c-0.4-0.9-0.9-1.5-1.6-2
				C1535.4,43.7,1534.6,43.5,1533.7,43.5z"/>
			<path fill="#FFFFFF" d="M1562.5,59.6h-3.3v5.3h-3.8v-5.3h-11.1v-3l11.1-16.1h3.8v15.8h3.3V59.6z M1555.5,56.3v-6.1
				c0-2.2,0.1-4,0.2-5.3h-0.1c-0.3,0.7-0.8,1.6-1.5,2.7l-6,8.8H1555.5z"/>
		</g>
		<line fill="none" stroke="#FFFFFF" stroke-width="1.8928" stroke-miterlimit="10" x1="1152.3" y1="14.6" x2="1034.7" y2="14.6"/>
		<g>
			<path fill="#FFFFFF" d="M1175.9,23h-3.2V1.4h11.3v3h-8v6.8h7.5v3h-7.5V23z"/>
			<path fill="#FFFFFF" d="M1194.9,6.4c0.6,0,1.2,0,1.6,0.1l-0.3,3.2c-0.5-0.1-0.9-0.2-1.4-0.2c-1.3,0-2.3,0.5-3.1,1.4
				c-0.8,0.9-1.2,2.1-1.2,3.5V23h-3.2V6.7h2.5l0.4,2.9h0.2c0.5-1,1.2-1.7,2-2.3S1193.9,6.4,1194.9,6.4z"/>
			<path fill="#FFFFFF" d="M1205.9,23.3c-2.4,0-4.2-0.7-5.5-2.2c-1.3-1.5-2-3.5-2-6.1c0-2.7,0.6-4.8,1.8-6.3
				c1.2-1.5,2.9-2.3,5.1-2.3c2,0,3.6,0.7,4.7,2c1.2,1.3,1.7,3.1,1.7,5.4v1.9h-10.1c0,1.6,0.4,2.8,1.2,3.7c0.7,0.9,1.8,1.3,3.2,1.3
				c0.9,0,1.7-0.1,2.5-0.3c0.8-0.2,1.6-0.5,2.5-0.9v2.8c-0.8,0.4-1.6,0.7-2.4,0.9S1206.9,23.3,1205.9,23.3z M1205.3,9
				c-1,0-1.8,0.4-2.5,1c-0.6,0.7-1,1.7-1.1,3.1h6.9c0-1.4-0.3-2.4-0.9-3.1C1207.1,9.3,1206.3,9,1205.3,9z"/>
			<path fill="#FFFFFF" d="M1228.1,23h-3.2V12.9c0-1.3-0.2-2.2-0.7-2.8c-0.4-0.6-1.1-0.9-2.1-0.9c-1.2,0-2.1,0.4-2.7,1.3
				c-0.6,0.9-0.9,2.3-0.9,4.4V23h-3.2V6.7h2.5l0.5,2.1h0.2c0.4-0.8,1-1.4,1.8-1.8c0.8-0.4,1.7-0.6,2.6-0.6c2.3,0,3.9,0.9,4.6,2.6
				h0.2c0.4-0.8,1.1-1.4,1.9-1.9c0.8-0.5,1.7-0.7,2.8-0.7c1.8,0,3.1,0.5,3.9,1.5c0.8,1,1.2,2.5,1.2,4.5V23h-3.2V12.9
				c0-1.3-0.2-2.2-0.7-2.8c-0.4-0.6-1.1-0.9-2.1-0.9c-1.2,0-2.2,0.4-2.7,1.3c-0.6,0.8-0.9,2.1-0.9,3.9V23z"/>
			<path fill="#FFFFFF" d="M1251.6,23l-0.6-2.3h-0.1c-0.7,1-1.5,1.7-2.2,2c-0.7,0.4-1.7,0.5-2.8,0.5c-1.5,0-2.6-0.4-3.5-1.3
				s-1.3-2.1-1.3-3.7c0-1.7,0.6-3,1.7-3.8c1.2-0.9,2.9-1.3,5.3-1.4l2.6-0.1v-0.9c0-1-0.2-1.8-0.7-2.3S1248.9,9,1248,9
				c-0.8,0-1.5,0.1-2.2,0.4c-0.7,0.2-1.4,0.5-2.1,0.9l-1-2.5c0.8-0.5,1.7-0.8,2.7-1.1c1-0.2,1.9-0.4,2.8-0.4c1.9,0,3.4,0.5,4.4,1.4
				c1,0.9,1.5,2.3,1.5,4.3v11H1251.6z M1246.8,20.6c1.2,0,2.1-0.4,2.8-1.1c0.7-0.7,1.1-1.7,1.1-3v-1.4l-1.9,0.1
				c-1.5,0.1-2.6,0.3-3.3,0.8c-0.7,0.5-1,1.2-1,2.2c0,0.7,0.2,1.3,0.6,1.7C1245.4,20.4,1246,20.6,1246.8,20.6z"/>
			<path fill="#FFFFFF" d="M1271.7,23h-3.2V13c0-1.3-0.2-2.2-0.7-2.8c-0.5-0.6-1.2-0.9-2.2-0.9c-1.4,0-2.4,0.4-3,1.3
				c-0.6,0.9-0.9,2.3-0.9,4.4V23h-3.2V6.7h2.5l0.5,2.1h0.2c0.5-0.8,1.1-1.4,1.9-1.8c0.8-0.4,1.8-0.6,2.8-0.6c3.6,0,5.4,2,5.4,6V23z"
				/>
			<path fill="#FFFFFF" d="M1281.8,20.5c0.8,0,1.6-0.1,2.4-0.4v2.6c-0.4,0.2-0.8,0.3-1.4,0.4s-1.1,0.2-1.7,0.2c-3,0-4.6-1.7-4.6-5.2
				V9.3h-2.1V7.7l2.2-1.3l1.1-3.5h2v3.6h4.3v2.6h-4.3V18c0,0.8,0.2,1.5,0.6,1.9C1280.7,20.3,1281.2,20.5,1281.8,20.5z"/>
			<path fill="#FFFFFF" d="M1290.4,23h-3.2V0h3.2V23z"/>
			<path fill="#FFFFFF" d="M1301.6,23.3c-2.4,0-4.2-0.7-5.5-2.2c-1.3-1.5-2-3.5-2-6.1c0-2.7,0.6-4.8,1.8-6.3
				c1.2-1.5,2.9-2.3,5.1-2.3c2,0,3.6,0.7,4.7,2c1.2,1.3,1.7,3.1,1.7,5.4v1.9h-10.1c0,1.6,0.4,2.8,1.2,3.7c0.7,0.9,1.8,1.3,3.2,1.3
				c0.9,0,1.7-0.1,2.5-0.3c0.8-0.2,1.6-0.5,2.5-0.9v2.8c-0.8,0.4-1.6,0.7-2.4,0.9S1302.6,23.3,1301.6,23.3z M1301,9
				c-1,0-1.8,0.4-2.5,1c-0.6,0.7-1,1.7-1.1,3.1h6.9c0-1.4-0.3-2.4-0.9-3.1C1302.8,9.3,1302,9,1301,9z"/>
			<path fill="#FFFFFF" d="M1322,23h-3.2V1.4h11.3v3h-8v6.8h7.5v3h-7.5V23z"/>
			<path fill="#FFFFFF" d="M1346.7,14.8c0,2.7-0.6,4.8-1.9,6.3c-1.3,1.5-3,2.2-5.3,2.2c-1.4,0-2.7-0.3-3.7-1c-1.1-0.7-1.9-1.7-2.5-3
				s-0.9-2.8-0.9-4.5c0-2.7,0.6-4.7,1.9-6.2c1.3-1.5,3-2.2,5.3-2.2c2.2,0,3.9,0.8,5.2,2.3S1346.7,12.2,1346.7,14.8z M1335.7,14.8
				c0,3.8,1.3,5.7,3.9,5.7c2.6,0,3.8-1.9,3.8-5.7c0-3.7-1.3-5.6-3.9-5.6c-1.3,0-2.3,0.5-2.9,1.4C1336,11.6,1335.7,13,1335.7,14.8z"
				/>
			<path fill="#FFFFFF" d="M1363.8,14.8c0,2.7-0.6,4.8-1.9,6.3c-1.3,1.5-3,2.2-5.3,2.2c-1.4,0-2.7-0.3-3.7-1c-1.1-0.7-1.9-1.7-2.5-3
				s-0.9-2.8-0.9-4.5c0-2.7,0.6-4.7,1.9-6.2c1.3-1.5,3-2.2,5.3-2.2c2.2,0,3.9,0.8,5.2,2.3S1363.8,12.2,1363.8,14.8z M1352.8,14.8
				c0,3.8,1.3,5.7,3.9,5.7c2.6,0,3.8-1.9,3.8-5.7c0-3.7-1.3-5.6-3.9-5.6c-1.3,0-2.3,0.5-2.9,1.4C1353.1,11.6,1352.8,13,1352.8,14.8z
				"/>
			<path fill="#FFFFFF" d="M1373.2,20.5c0.8,0,1.6-0.1,2.4-0.4v2.6c-0.4,0.2-0.8,0.3-1.4,0.4s-1.1,0.2-1.7,0.2c-3,0-4.6-1.7-4.6-5.2
				V9.3h-2.1V7.7l2.2-1.3l1.1-3.5h2v3.6h4.3v2.6h-4.3V18c0,0.8,0.2,1.5,0.6,1.9C1372,20.3,1372.5,20.5,1373.2,20.5z"/>
			<path fill="#FFFFFF" d="M1386.3,6.4c1.9,0,3.4,0.7,4.4,2.2c1.1,1.5,1.6,3.6,1.6,6.2c0,2.7-0.5,4.8-1.6,6.3
				c-1.1,1.5-2.5,2.2-4.4,2.2c-1.9,0-3.4-0.7-4.5-2.2h-0.2l-0.6,1.9h-2.4V0h3.2v5.5c0,0.4,0,1-0.1,1.8c0,0.8-0.1,1.3-0.1,1.5h0.1
				C1382.8,7.2,1384.3,6.4,1386.3,6.4z M1385.4,9.2c-1.3,0-2.2,0.4-2.8,1.2c-0.6,0.8-0.9,2.2-0.9,4.1v0.2c0,2,0.3,3.4,0.9,4.3
				c0.6,0.9,1.5,1.3,2.9,1.3c1.1,0,2-0.5,2.6-1.5s0.9-2.4,0.9-4.2C1389,11.1,1387.8,9.2,1385.4,9.2z"/>
			<path fill="#FFFFFF" d="M1405.4,23l-0.6-2.3h-0.1c-0.7,1-1.5,1.7-2.2,2c-0.7,0.4-1.7,0.5-2.8,0.5c-1.5,0-2.6-0.4-3.5-1.3
				s-1.3-2.1-1.3-3.7c0-1.7,0.6-3,1.7-3.8c1.2-0.9,2.9-1.3,5.3-1.4l2.6-0.1v-0.9c0-1-0.2-1.8-0.7-2.3s-1.2-0.8-2.1-0.8
				c-0.8,0-1.5,0.1-2.2,0.4c-0.7,0.2-1.4,0.5-2.1,0.9l-1-2.5c0.8-0.5,1.7-0.8,2.7-1.1c1-0.2,1.9-0.4,2.8-0.4c1.9,0,3.4,0.5,4.4,1.4
				c1,0.9,1.5,2.3,1.5,4.3v11H1405.4z M1400.7,20.6c1.2,0,2.1-0.4,2.8-1.1c0.7-0.7,1.1-1.7,1.1-3v-1.4l-1.9,0.1
				c-1.5,0.1-2.6,0.3-3.3,0.8c-0.7,0.5-1,1.2-1,2.2c0,0.7,0.2,1.3,0.6,1.7C1399.3,20.4,1399.9,20.6,1400.7,20.6z"/>
			<path fill="#FFFFFF" d="M1415.4,23h-3.2V0h3.2V23z"/>
			<path fill="#FFFFFF" d="M1423.2,23h-3.2V0h3.2V23z"/>
			<path fill="#FFFFFF" d="M1444,4.1c-1.9,0-3.4,0.7-4.4,2.2c-1.1,1.4-1.6,3.4-1.6,6c0,2.7,0.5,4.7,1.6,6c1,1.4,2.5,2,4.5,2
				c0.8,0,1.7-0.1,2.5-0.3c0.8-0.2,1.6-0.4,2.5-0.7v3c-1.6,0.6-3.3,1-5.3,1c-2.9,0-5.2-1-6.7-2.9c-1.6-1.9-2.4-4.7-2.4-8.2
				c0-2.2,0.4-4.2,1.1-5.9c0.8-1.7,1.9-3,3.3-3.9c1.4-0.9,3.1-1.3,5.1-1.3c2,0,3.9,0.5,5.7,1.4l-1.2,2.9c-0.7-0.3-1.4-0.6-2.1-0.9
				C1445.6,4.2,1444.8,4.1,1444,4.1z"/>
			<path fill="#FFFFFF" d="M1456.1,23h-3.2V0h3.2V23z"/>
			<path fill="#FFFFFF" d="M1471.3,23l-0.5-2.1h-0.2c-0.4,0.8-1.1,1.4-1.9,1.8s-1.8,0.7-2.8,0.7c-1.8,0-3.2-0.5-4.1-1.5
				c-0.9-1-1.4-2.5-1.4-4.5V6.7h3.2v10.1c0,1.3,0.2,2.2,0.7,2.8c0.5,0.6,1.2,0.9,2.2,0.9c1.3,0,2.3-0.4,3-1.3c0.6-0.9,1-2.3,1-4.4
				V6.7h3.2V23H1471.3z"/>
			<path fill="#FFFFFF" d="M1486.2,6.4c1.9,0,3.4,0.7,4.4,2.2c1.1,1.5,1.6,3.6,1.6,6.2c0,2.7-0.5,4.8-1.6,6.3
				c-1.1,1.5-2.5,2.2-4.4,2.2c-1.9,0-3.4-0.7-4.5-2.2h-0.2l-0.6,1.9h-2.4V0h3.2v5.5c0,0.4,0,1-0.1,1.8c0,0.8-0.1,1.3-0.1,1.5h0.1
				C1482.7,7.2,1484.2,6.4,1486.2,6.4z M1485.3,9.2c-1.3,0-2.2,0.4-2.8,1.2c-0.6,0.8-0.9,2.2-0.9,4.1v0.2c0,2,0.3,3.4,0.9,4.3
				c0.6,0.9,1.5,1.3,2.9,1.3c1.1,0,2-0.5,2.6-1.5s0.9-2.4,0.9-4.2C1488.9,11.1,1487.7,9.2,1485.3,9.2z"/>
		</g>
	</g>
	<g>
		<circle fill="#FFFFFF" cx="462.8" cy="22" r="7.7"/>
		<circle fill="#FFFFFF" cx="376" cy="132.5" r="7.7"/>
		<line fill="none" stroke="#FFFFFF" stroke-width="1.8928" stroke-miterlimit="10" x1="0.1" y1="39.6" x2="444.1" y2="39.6"/>
		<g>
			<path fill="#FFFFFF" d="M15.6,64.5c0,2.2-0.8,3.9-2.3,5.1s-3.7,1.8-6.5,1.8c-2.8,0-5-0.4-6.8-1.3v-3.8c1.1,0.5,2.3,0.9,3.5,1.2
				c1.2,0.3,2.4,0.4,3.5,0.4c1.6,0,2.7-0.3,3.5-0.9c0.7-0.6,1.1-1.4,1.1-2.4c0-0.9-0.3-1.7-1-2.3c-0.7-0.6-2.1-1.4-4.3-2.2
				c-2.2-0.9-3.8-1.9-4.7-3.1C0.7,56,0.3,54.6,0.3,53c0-2,0.7-3.6,2.2-4.8c1.4-1.2,3.4-1.7,5.8-1.7c2.3,0,4.6,0.5,7,1.5l-1.3,3.2
				c-2.2-0.9-4.1-1.4-5.8-1.4c-1.3,0-2.3,0.3-2.9,0.8c-0.7,0.6-1,1.3-1,2.2c0,0.6,0.1,1.2,0.4,1.6c0.3,0.4,0.7,0.9,1.3,1.3
				c0.6,0.4,1.7,0.9,3.3,1.6c1.8,0.7,3.1,1.4,3.9,2.1c0.8,0.6,1.4,1.4,1.8,2.2C15.4,62.4,15.6,63.4,15.6,64.5z"/>
			<path fill="#FFFFFF" d="M19.6,47.8c0-0.7,0.2-1.2,0.6-1.6s0.9-0.6,1.6-0.6c0.7,0,1.2,0.2,1.6,0.6s0.6,0.9,0.6,1.6
				c0,0.7-0.2,1.2-0.6,1.6c-0.4,0.4-0.9,0.6-1.6,0.6c-0.7,0-1.3-0.2-1.6-0.6C19.8,49,19.6,48.5,19.6,47.8z M23.8,71.1h-3.9V52.7h3.9
				V71.1z"/>
			<path fill="#FFFFFF" d="M45.5,71.1h-3.9V59.8c0-1.4-0.3-2.5-0.9-3.2s-1.5-1-2.7-1c-1.7,0-2.9,0.5-3.6,1.5c-0.8,1-1.1,2.6-1.1,4.9
				v9.2h-3.9V52.7h3.1l0.5,2.4h0.2c0.6-0.9,1.3-1.6,2.4-2c1-0.5,2.2-0.7,3.4-0.7c4.4,0,6.6,2.2,6.6,6.7V71.1z"/>
			<path fill="#FFFFFF" d="M58.4,71.4c-2.8,0-4.9-0.8-6.3-2.4c-1.4-1.6-2.2-4-2.2-7c0-3.1,0.8-5.5,2.3-7.1s3.7-2.5,6.6-2.5
				c1.9,0,3.7,0.4,5.2,1.1l-1.2,3.1c-1.7-0.6-3-1-4.1-1c-3.2,0-4.8,2.1-4.8,6.3c0,2.1,0.4,3.6,1.2,4.6c0.8,1,2,1.6,3.5,1.6
				c1.7,0,3.4-0.4,4.9-1.3v3.4c-0.7,0.4-1.4,0.7-2.2,0.9S59.5,71.4,58.4,71.4z"/>
			<path fill="#FFFFFF" d="M75.9,71.4c-2.9,0-5.1-0.8-6.7-2.5c-1.6-1.7-2.4-4-2.4-6.9c0-3,0.7-5.4,2.2-7.1c1.5-1.7,3.6-2.6,6.2-2.6
				c2.4,0,4.3,0.7,5.8,2.2s2.1,3.5,2.1,6.1v2.1H70.8c0.1,1.8,0.5,3.2,1.4,4.1c0.9,1,2.2,1.4,3.8,1.4c1.1,0,2.1-0.1,3-0.3
				c0.9-0.2,1.9-0.5,3-1v3.2c-1,0.5-1.9,0.8-2.9,1C78.3,71.3,77.1,71.4,75.9,71.4z M75.2,55.3c-1.2,0-2.2,0.4-3,1.2
				c-0.7,0.8-1.2,1.9-1.3,3.4h8.4c0-1.5-0.4-2.7-1.1-3.5S76.4,55.3,75.2,55.3z"/>
			<path fill="#FFFFFF" d="M97.7,71.1h-3.9V55.4c0-1.9,0-3.4,0.1-4.5c-0.3,0.3-0.6,0.6-0.9,0.9c-0.4,0.3-1.6,1.3-3.7,3.1l-2-2.5
				l7.2-5.6h3.3V71.1z"/>
			<path fill="#FFFFFF" d="M113.9,46.5c2.3,0,4.1,0.5,5.5,1.6c1.3,1.1,2,2.5,2,4.3c0,2.5-1.5,4.5-4.5,6c1.9,1,3.3,2,4.1,3
				c0.8,1.1,1.2,2.2,1.2,3.5c0,2-0.7,3.6-2.2,4.8s-3.5,1.8-6,1.8c-2.6,0-4.7-0.6-6.1-1.7c-1.5-1.1-2.2-2.7-2.2-4.8
				c0-1.4,0.4-2.6,1.1-3.7c0.8-1.1,2-2,3.7-2.9c-1.5-0.9-2.5-1.8-3.2-2.8c-0.6-1-0.9-2.1-0.9-3.3c0-1.8,0.7-3.2,2.1-4.2
				C109.8,47,111.6,46.5,113.9,46.5z M109.3,64.8c0,1.2,0.4,2,1.2,2.7s1.9,1,3.3,1c1.4,0,2.5-0.3,3.3-1s1.2-1.6,1.2-2.7
				c0-0.9-0.4-1.7-1.1-2.5c-0.7-0.7-1.8-1.4-3.3-2.1l-0.5-0.2c-1.5,0.6-2.5,1.4-3.2,2.1C109.7,62.9,109.3,63.8,109.3,64.8z
				 M113.8,49.5c-1.1,0-2,0.3-2.7,0.8c-0.7,0.5-1,1.3-1,2.2c0,0.6,0.1,1.1,0.4,1.5s0.6,0.9,1.1,1.2s1.3,0.8,2.4,1.3
				c1.3-0.6,2.3-1.2,2.8-1.9c0.5-0.6,0.8-1.4,0.8-2.3c0-0.9-0.3-1.7-1-2.2C115.9,49.7,115,49.5,113.8,49.5z"/>
			<path fill="#FFFFFF" d="M141.5,57.2c0,4.8-1,8.4-2.9,10.7c-1.9,2.4-4.8,3.5-8.7,3.5c-1.5,0-2.5-0.1-3.2-0.3v-3.3
				c1,0.3,2,0.4,3,0.4c2.6,0,4.6-0.7,5.9-2.1c1.3-1.4,2-3.6,2.1-6.7h-0.2c-0.7,1-1.4,1.7-2.4,2.2c-0.9,0.4-2,0.7-3.3,0.7
				c-2.2,0-3.8-0.7-5.1-2c-1.2-1.3-1.8-3.2-1.8-5.5c0-2.5,0.7-4.6,2.1-6.1c1.4-1.5,3.4-2.3,5.8-2.3c1.7,0,3.2,0.4,4.5,1.3
				s2.3,2.1,3,3.7C141.2,53,141.5,54.9,141.5,57.2z M133.1,49.7c-1.4,0-2.4,0.4-3.1,1.3s-1.1,2.1-1.1,3.7c0,1.4,0.3,2.5,1,3.3
				c0.7,0.8,1.7,1.2,3.1,1.2c1.3,0,2.4-0.4,3.3-1.2c0.9-0.8,1.3-1.7,1.3-2.8c0-1-0.2-1.9-0.6-2.8c-0.4-0.9-0.9-1.5-1.6-2
				C134.7,50,133.9,49.7,133.1,49.7z"/>
			<path fill="#FFFFFF" d="M161,71.1h-16.5v-3l6.3-6.3c1.9-1.9,3.1-3.2,3.7-4c0.6-0.8,1-1.5,1.3-2.2c0.3-0.7,0.4-1.4,0.4-2.2
				c0-1.1-0.3-2-1-2.6c-0.7-0.6-1.6-0.9-2.7-0.9c-0.9,0-1.8,0.2-2.7,0.5c-0.9,0.3-1.9,1-3,1.9l-2.1-2.6c1.4-1.1,2.7-2,3.9-2.4
				c1.3-0.5,2.6-0.7,4.1-0.7c2.3,0,4.1,0.6,5.4,1.8c1.4,1.2,2,2.8,2,4.8c0,1.1-0.2,2.1-0.6,3.1c-0.4,1-1,2-1.8,3.1
				c-0.8,1-2.2,2.5-4.1,4.3l-4.2,4.1v0.2H161V71.1z"/>
		</g>
		<line fill="none" stroke="#FFFFFF" stroke-width="1.8928" stroke-miterlimit="10" x1="574.6" y1="22.2" x2="462.8" y2="22"/>
		<g>
			<path fill="#FFFFFF" d="M106.9,10.8c-1.9,0-3.4,0.7-4.4,2.2c-1.1,1.4-1.6,3.4-1.6,6c0,2.7,0.5,4.7,1.6,6c1,1.4,2.5,2,4.5,2
				c0.8,0,1.7-0.1,2.5-0.3c0.8-0.2,1.6-0.4,2.5-0.7v3c-1.6,0.6-3.3,1-5.3,1c-2.9,0-5.2-1-6.7-2.9c-1.6-1.9-2.4-4.7-2.4-8.2
				c0-2.2,0.4-4.2,1.1-5.9c0.8-1.7,1.9-3,3.3-3.9c1.4-0.9,3.1-1.3,5.1-1.3c2,0,3.9,0.5,5.7,1.4l-1.2,2.9c-0.7-0.3-1.4-0.6-2.1-0.9
				C108.5,10.9,107.7,10.8,106.9,10.8z"/>
			<path fill="#FFFFFF" d="M129.2,21.4c0,2.7-0.6,4.8-1.9,6.3c-1.3,1.5-3,2.2-5.3,2.2c-1.4,0-2.7-0.3-3.7-1c-1.1-0.7-1.9-1.7-2.5-3
				s-0.9-2.8-0.9-4.5c0-2.7,0.6-4.7,1.9-6.2c1.3-1.5,3-2.2,5.3-2.2c2.2,0,3.9,0.8,5.2,2.3S129.2,18.9,129.2,21.4z M118.2,21.4
				c0,3.8,1.3,5.7,3.9,5.7c2.6,0,3.8-1.9,3.8-5.7c0-3.7-1.3-5.6-3.9-5.6c-1.3,0-2.3,0.5-2.9,1.4C118.5,18.3,118.2,19.6,118.2,21.4z"
				/>
			<path fill="#FFFFFF" d="M136.1,29.7h-3.2v-23h3.2V29.7z"/>
			<path fill="#FFFFFF" d="M143.9,29.7h-3.2v-23h3.2V29.7z"/>
			<path fill="#FFFFFF" d="M148.3,9c0-0.6,0.2-1.1,0.5-1.4c0.3-0.3,0.8-0.5,1.3-0.5c0.6,0,1,0.2,1.3,0.5c0.3,0.3,0.5,0.8,0.5,1.4
				c0,0.6-0.2,1.1-0.5,1.4c-0.3,0.3-0.8,0.5-1.3,0.5c-0.6,0-1-0.2-1.3-0.5C148.5,10,148.3,9.6,148.3,9z M151.7,29.7h-3.2V13.3h3.2
				V29.7z"/>
			<path fill="#FFFFFF" d="M169.6,29.7h-3.2V19.6c0-1.3-0.2-2.2-0.7-2.8c-0.5-0.6-1.2-0.9-2.2-0.9c-1.4,0-2.4,0.4-3,1.3
				c-0.6,0.9-0.9,2.3-0.9,4.4v8.1h-3.2V13.3h2.5l0.5,2.1h0.2c0.5-0.8,1.1-1.4,1.9-1.8c0.8-0.4,1.8-0.6,2.8-0.6c3.6,0,5.4,2,5.4,6
				V29.7z"/>
			<path fill="#FFFFFF" d="M186.9,13.3v1.9l-2.6,0.5c0.2,0.3,0.4,0.8,0.6,1.3c0.2,0.5,0.2,1,0.2,1.6c0,1.7-0.5,3-1.6,4
				s-2.6,1.4-4.4,1.4c-0.5,0-0.9,0-1.3-0.1c-0.7,0.5-1,1-1,1.6c0,0.4,0.2,0.7,0.5,0.8c0.3,0.2,0.9,0.3,1.8,0.3h2.6
				c1.7,0,2.9,0.4,3.8,1.2c0.9,0.8,1.3,1.9,1.3,3.3c0,1.9-0.7,3.3-2.1,4.3c-1.4,1-3.5,1.5-6.1,1.5c-2.1,0-3.6-0.4-4.7-1.2
				s-1.6-1.9-1.6-3.4c0-1,0.3-1.9,0.9-2.5s1.4-1.2,2.5-1.4c-0.4-0.2-0.8-0.5-1.1-1s-0.4-0.9-0.4-1.4c0-0.6,0.2-1.1,0.5-1.6
				c0.3-0.4,0.8-0.8,1.4-1.3c-0.8-0.4-1.4-1-1.9-1.8c-0.5-0.8-0.7-1.8-0.7-2.9c0-1.8,0.5-3.1,1.6-4.1c1-1,2.5-1.5,4.4-1.5
				c0.4,0,0.9,0,1.3,0.1c0.5,0.1,0.8,0.1,1.1,0.2H186.9z M175,32.2c0,0.7,0.3,1.3,0.9,1.7c0.6,0.4,1.5,0.6,2.6,0.6
				c1.8,0,3.1-0.3,3.9-0.8s1.3-1.3,1.3-2.2c0-0.7-0.2-1.2-0.7-1.5c-0.5-0.3-1.3-0.5-2.6-0.5H178c-0.9,0-1.7,0.2-2.2,0.7
				C175.3,30.8,175,31.4,175,32.2z M176.4,18.6c0,1,0.2,1.8,0.7,2.4c0.5,0.6,1.2,0.8,2.1,0.8c1.9,0,2.8-1.1,2.8-3.2
				c0-1.1-0.2-1.9-0.7-2.5c-0.5-0.6-1.2-0.9-2.1-0.9c-0.9,0-1.6,0.3-2.1,0.9C176.6,16.7,176.4,17.5,176.4,18.6z"/>
			<path fill="#FFFFFF" d="M202.1,29.7l-2-7.6c-0.2-0.8-0.7-2.7-1.3-5.6h-0.1c-0.5,2.7-0.9,4.5-1.3,5.7l-2,7.6h-3.6l-4.2-16.4h3.3
				l1.9,8.1c0.4,2,0.7,3.7,0.9,5.1h0.1c0.1-0.7,0.2-1.5,0.4-2.5c0.2-0.9,0.3-1.6,0.5-2.1l2.3-8.6h3.5l2.2,8.6
				c0.1,0.5,0.3,1.2,0.5,2.2c0.2,1,0.3,1.8,0.4,2.3h0.1c0.1-1.2,0.5-2.9,1-5.1l2-8.1h3.2l-4.3,16.4H202.1z"/>
			<path fill="#FFFFFF" d="M226,21.4c0,2.7-0.6,4.8-1.9,6.3c-1.3,1.5-3,2.2-5.3,2.2c-1.4,0-2.7-0.3-3.7-1c-1.1-0.7-1.9-1.7-2.5-3
				s-0.9-2.8-0.9-4.5c0-2.7,0.6-4.7,1.9-6.2c1.3-1.5,3-2.2,5.3-2.2c2.2,0,3.9,0.8,5.2,2.3S226,18.9,226,21.4z M215,21.4
				c0,3.8,1.3,5.7,3.9,5.7c2.6,0,3.8-1.9,3.8-5.7c0-3.7-1.3-5.6-3.9-5.6c-1.3,0-2.3,0.5-2.9,1.4C215.3,18.3,215,19.6,215,21.4z"/>
			<path fill="#FFFFFF" d="M243.1,21.4c0,2.7-0.6,4.8-1.9,6.3c-1.3,1.5-3,2.2-5.3,2.2c-1.4,0-2.7-0.3-3.7-1c-1.1-0.7-1.9-1.7-2.5-3
				s-0.9-2.8-0.9-4.5c0-2.7,0.6-4.7,1.9-6.2c1.3-1.5,3-2.2,5.3-2.2c2.2,0,3.9,0.8,5.2,2.3S243.1,18.9,243.1,21.4z M232.1,21.4
				c0,3.8,1.3,5.7,3.9,5.7c2.6,0,3.8-1.9,3.8-5.7c0-3.7-1.3-5.6-3.9-5.6c-1.3,0-2.3,0.5-2.9,1.4C232.4,18.3,232.1,19.6,232.1,21.4z"
				/>
			<path fill="#FFFFFF" d="M251.9,29.9c-1.9,0-3.4-0.7-4.4-2.2s-1.6-3.6-1.6-6.2c0-2.7,0.5-4.8,1.6-6.3s2.6-2.2,4.5-2.2
				c2,0,3.5,0.8,4.5,2.4h0.2c-0.2-1.2-0.2-2.1-0.2-2.8v-6h3.2v23h-2.5l-0.6-2.1h-0.2C255.4,29.1,253.9,29.9,251.9,29.9z M252.7,27.1
				c1.3,0,2.3-0.4,2.9-1.2c0.6-0.8,0.9-2.1,0.9-3.9v-0.5c0-2.1-0.3-3.5-0.9-4.4c-0.6-0.9-1.6-1.3-2.9-1.3c-1.1,0-2,0.5-2.6,1.5
				c-0.6,1-0.9,2.4-0.9,4.2c0,1.8,0.3,3.2,0.9,4.1C250.7,26.7,251.5,27.1,252.7,27.1z"/>
			<path fill="#FFFFFF" d="M275.1,29.7h-3.2V8h11.3v3h-8v6.8h7.5v3h-7.5V29.7z"/>
			<path fill="#FFFFFF" d="M299.8,21.4c0,2.7-0.6,4.8-1.9,6.3c-1.3,1.5-3,2.2-5.3,2.2c-1.4,0-2.7-0.3-3.7-1c-1.1-0.7-1.9-1.7-2.5-3
				s-0.9-2.8-0.9-4.5c0-2.7,0.6-4.7,1.9-6.2c1.3-1.5,3-2.2,5.3-2.2c2.2,0,3.9,0.8,5.2,2.3S299.8,18.9,299.8,21.4z M288.8,21.4
				c0,3.8,1.3,5.7,3.9,5.7c2.6,0,3.8-1.9,3.8-5.7c0-3.7-1.3-5.6-3.9-5.6c-1.3,0-2.3,0.5-2.9,1.4C289.1,18.3,288.8,19.6,288.8,21.4z"
				/>
			<path fill="#FFFFFF" d="M316.9,21.4c0,2.7-0.6,4.8-1.9,6.3c-1.3,1.5-3,2.2-5.3,2.2c-1.4,0-2.7-0.3-3.7-1c-1.1-0.7-1.9-1.7-2.5-3
				s-0.9-2.8-0.9-4.5c0-2.7,0.6-4.7,1.9-6.2c1.3-1.5,3-2.2,5.3-2.2c2.2,0,3.9,0.8,5.2,2.3S316.9,18.9,316.9,21.4z M305.9,21.4
				c0,3.8,1.3,5.7,3.9,5.7c2.6,0,3.8-1.9,3.8-5.7c0-3.7-1.3-5.6-3.9-5.6c-1.3,0-2.3,0.5-2.9,1.4C306.2,18.3,305.9,19.6,305.9,21.4z"
				/>
			<path fill="#FFFFFF" d="M326.2,27.1c0.8,0,1.6-0.1,2.4-0.4v2.6c-0.4,0.2-0.8,0.3-1.4,0.4s-1.1,0.2-1.7,0.2c-3,0-4.6-1.7-4.6-5.2
				v-8.8h-2.1v-1.5l2.2-1.3l1.1-3.5h2v3.6h4.3v2.6h-4.3v8.8c0,0.8,0.2,1.5,0.6,1.9C325.1,26.9,325.6,27.1,326.2,27.1z"/>
			<path fill="#FFFFFF" d="M339.3,13c1.9,0,3.4,0.7,4.4,2.2c1.1,1.5,1.6,3.6,1.6,6.2c0,2.7-0.5,4.8-1.6,6.3
				c-1.1,1.5-2.5,2.2-4.4,2.2c-1.9,0-3.4-0.7-4.5-2.2h-0.2l-0.6,1.9h-2.4v-23h3.2v5.5c0,0.4,0,1-0.1,1.8c0,0.8-0.1,1.3-0.1,1.5h0.1
				C335.8,13.8,337.3,13,339.3,13z M338.5,15.8c-1.3,0-2.2,0.4-2.8,1.2c-0.6,0.8-0.9,2.2-0.9,4.1v0.2c0,2,0.3,3.4,0.9,4.3
				c0.6,0.9,1.5,1.3,2.9,1.3c1.1,0,2-0.5,2.6-1.5s0.9-2.4,0.9-4.2C342,17.7,340.8,15.8,338.5,15.8z"/>
			<path fill="#FFFFFF" d="M358.5,29.7l-0.6-2.3h-0.1c-0.7,1-1.5,1.7-2.2,2c-0.7,0.4-1.7,0.5-2.8,0.5c-1.5,0-2.6-0.4-3.5-1.3
				S348,26.6,348,25c0-1.7,0.6-3,1.7-3.8c1.2-0.9,2.9-1.3,5.3-1.4l2.6-0.1v-0.9c0-1-0.2-1.8-0.7-2.3s-1.2-0.8-2.1-0.8
				c-0.8,0-1.5,0.1-2.2,0.4c-0.7,0.2-1.4,0.5-2.1,0.9l-1-2.5c0.8-0.5,1.7-0.8,2.7-1.1c1-0.2,1.9-0.4,2.8-0.4c1.9,0,3.4,0.5,4.4,1.4
				c1,0.9,1.5,2.3,1.5,4.3v11H358.5z M353.7,27.3c1.2,0,2.1-0.4,2.8-1.1c0.7-0.7,1.1-1.7,1.1-3v-1.4l-1.9,0.1
				c-1.5,0.1-2.6,0.3-3.3,0.8c-0.7,0.5-1,1.2-1,2.2c0,0.7,0.2,1.3,0.6,1.7C352.3,27.1,352.9,27.3,353.7,27.3z"/>
			<path fill="#FFFFFF" d="M368.5,29.7h-3.2v-23h3.2V29.7z"/>
			<path fill="#FFFFFF" d="M376.3,29.7h-3.2v-23h3.2V29.7z"/>
			<path fill="#FFFFFF" d="M397,10.8c-1.9,0-3.4,0.7-4.4,2.2c-1.1,1.4-1.6,3.4-1.6,6c0,2.7,0.5,4.7,1.6,6c1,1.4,2.5,2,4.5,2
				c0.8,0,1.7-0.1,2.5-0.3c0.8-0.2,1.6-0.4,2.5-0.7v3c-1.6,0.6-3.3,1-5.3,1c-2.9,0-5.2-1-6.7-2.9c-1.6-1.9-2.4-4.7-2.4-8.2
				c0-2.2,0.4-4.2,1.1-5.9c0.8-1.7,1.9-3,3.3-3.9c1.4-0.9,3.1-1.3,5.1-1.3c2,0,3.9,0.5,5.7,1.4l-1.2,2.9c-0.7-0.3-1.4-0.6-2.1-0.9
				C398.7,10.9,397.9,10.8,397,10.8z"/>
			<path fill="#FFFFFF" d="M409.1,29.7h-3.2v-23h3.2V29.7z"/>
			<path fill="#FFFFFF" d="M424.4,29.7l-0.5-2.1h-0.2c-0.4,0.8-1.1,1.4-1.9,1.8s-1.8,0.7-2.8,0.7c-1.8,0-3.2-0.5-4.1-1.5
				c-0.9-1-1.4-2.5-1.4-4.5V13.3h3.2v10.1c0,1.3,0.2,2.2,0.7,2.8c0.5,0.6,1.2,0.9,2.2,0.9c1.3,0,2.3-0.4,3-1.3c0.6-0.9,1-2.3,1-4.4
				v-8.1h3.2v16.4H424.4z"/>
			<path fill="#FFFFFF" d="M439.2,13c1.9,0,3.4,0.7,4.4,2.2c1.1,1.5,1.6,3.6,1.6,6.2c0,2.7-0.5,4.8-1.6,6.3
				c-1.1,1.5-2.5,2.2-4.4,2.2c-1.9,0-3.4-0.7-4.5-2.2h-0.2l-0.6,1.9h-2.4v-23h3.2v5.5c0,0.4,0,1-0.1,1.8c0,0.8-0.1,1.3-0.1,1.5h0.1
				C435.7,13.8,437.3,13,439.2,13z M438.4,15.8c-1.3,0-2.2,0.4-2.8,1.2c-0.6,0.8-0.9,2.2-0.9,4.1v0.2c0,2,0.3,3.4,0.9,4.3
				c0.6,0.9,1.5,1.3,2.9,1.3c1.1,0,2-0.5,2.6-1.5s0.9-2.4,0.9-4.2C441.9,17.7,440.8,15.8,438.4,15.8z"/>
		</g>
		<line fill="none" stroke="#FFFFFF" stroke-width="1.8928" stroke-miterlimit="10" x1="0.1" y1="150.5" x2="362.7" y2="150.5"/>
		<g>
			<path fill="#FFFFFF" d="M15.6,177.2c0,2.2-0.8,3.9-2.3,5.1s-3.7,1.8-6.5,1.8c-2.8,0-5-0.4-6.8-1.3v-3.8c1.1,0.5,2.3,0.9,3.5,1.2
				c1.2,0.3,2.4,0.4,3.5,0.4c1.6,0,2.7-0.3,3.5-0.9c0.7-0.6,1.1-1.4,1.1-2.4c0-0.9-0.3-1.7-1-2.3c-0.7-0.6-2.1-1.4-4.3-2.2
				c-2.2-0.9-3.8-1.9-4.7-3.1c-0.9-1.2-1.4-2.5-1.4-4.2c0-2,0.7-3.6,2.2-4.8c1.4-1.2,3.4-1.7,5.8-1.7c2.3,0,4.6,0.5,7,1.5l-1.3,3.2
				c-2.2-0.9-4.1-1.4-5.8-1.4c-1.3,0-2.3,0.3-2.9,0.8c-0.7,0.6-1,1.3-1,2.2c0,0.6,0.1,1.2,0.4,1.6c0.3,0.4,0.7,0.9,1.3,1.3
				c0.6,0.4,1.7,0.9,3.3,1.6c1.8,0.7,3.1,1.4,3.9,2.1c0.8,0.6,1.4,1.4,1.8,2.2C15.4,175.2,15.6,176.1,15.6,177.2z"/>
			<path fill="#FFFFFF" d="M19.6,160.6c0-0.7,0.2-1.2,0.6-1.6s0.9-0.6,1.6-0.6c0.7,0,1.2,0.2,1.6,0.6s0.6,0.9,0.6,1.6
				c0,0.7-0.2,1.2-0.6,1.6c-0.4,0.4-0.9,0.6-1.6,0.6c-0.7,0-1.3-0.2-1.6-0.6C19.8,161.8,19.6,161.2,19.6,160.6z M23.8,183.8h-3.9
				v-18.4h3.9V183.8z"/>
			<path fill="#FFFFFF" d="M45.5,183.8h-3.9v-11.3c0-1.4-0.3-2.5-0.9-3.2s-1.5-1-2.7-1c-1.7,0-2.9,0.5-3.6,1.5
				c-0.8,1-1.1,2.6-1.1,4.9v9.2h-3.9v-18.4h3.1l0.5,2.4h0.2c0.6-0.9,1.3-1.6,2.4-2c1-0.5,2.2-0.7,3.4-0.7c4.4,0,6.6,2.2,6.6,6.7
				V183.8z"/>
			<path fill="#FFFFFF" d="M58.4,184.2c-2.8,0-4.9-0.8-6.3-2.4c-1.4-1.6-2.2-4-2.2-7c0-3.1,0.8-5.5,2.3-7.1s3.7-2.5,6.6-2.5
				c1.9,0,3.7,0.4,5.2,1.1l-1.2,3.1c-1.7-0.6-3-1-4.1-1c-3.2,0-4.8,2.1-4.8,6.3c0,2.1,0.4,3.6,1.2,4.6c0.8,1,2,1.6,3.5,1.6
				c1.7,0,3.4-0.4,4.9-1.3v3.4c-0.7,0.4-1.4,0.7-2.2,0.9S59.5,184.2,58.4,184.2z"/>
			<path fill="#FFFFFF" d="M75.9,184.2c-2.9,0-5.1-0.8-6.7-2.5c-1.6-1.7-2.4-4-2.4-6.9c0-3,0.7-5.4,2.2-7.1c1.5-1.7,3.6-2.6,6.2-2.6
				c2.4,0,4.3,0.7,5.8,2.2s2.1,3.5,2.1,6.1v2.1H70.8c0.1,1.8,0.5,3.2,1.4,4.1c0.9,1,2.2,1.4,3.8,1.4c1.1,0,2.1-0.1,3-0.3
				c0.9-0.2,1.9-0.5,3-1v3.2c-1,0.5-1.9,0.8-2.9,1C78.3,184.1,77.1,184.2,75.9,184.2z M75.2,168.1c-1.2,0-2.2,0.4-3,1.2
				c-0.7,0.8-1.2,1.9-1.3,3.4h8.4c0-1.5-0.4-2.7-1.1-3.5S76.4,168.1,75.2,168.1z"/>
			<path fill="#FFFFFF" d="M97.7,183.8h-3.9v-15.7c0-1.9,0-3.4,0.1-4.5c-0.3,0.3-0.6,0.6-0.9,0.9c-0.4,0.3-1.6,1.3-3.7,3.1l-2-2.5
				l7.2-5.6h3.3V183.8z"/>
			<path fill="#FFFFFF" d="M113.9,159.2c2.3,0,4.1,0.5,5.5,1.6c1.3,1.1,2,2.5,2,4.3c0,2.5-1.5,4.5-4.5,6c1.9,1,3.3,2,4.1,3
				c0.8,1.1,1.2,2.2,1.2,3.5c0,2-0.7,3.6-2.2,4.8s-3.5,1.8-6,1.8c-2.6,0-4.7-0.6-6.1-1.7c-1.5-1.1-2.2-2.7-2.2-4.8
				c0-1.4,0.4-2.6,1.1-3.7c0.8-1.1,2-2,3.7-2.9c-1.5-0.9-2.5-1.8-3.2-2.8c-0.6-1-0.9-2.1-0.9-3.3c0-1.8,0.7-3.2,2.1-4.2
				C109.8,159.7,111.6,159.2,113.9,159.2z M109.3,177.5c0,1.2,0.4,2,1.2,2.7s1.9,1,3.3,1c1.4,0,2.5-0.3,3.3-1s1.2-1.6,1.2-2.7
				c0-0.9-0.4-1.7-1.1-2.5c-0.7-0.7-1.8-1.4-3.3-2.1l-0.5-0.2c-1.5,0.6-2.5,1.4-3.2,2.1C109.7,175.7,109.3,176.5,109.3,177.5z
				 M113.8,162.2c-1.1,0-2,0.3-2.7,0.8c-0.7,0.5-1,1.3-1,2.2c0,0.6,0.1,1.1,0.4,1.5s0.6,0.9,1.1,1.2s1.3,0.8,2.4,1.3
				c1.3-0.6,2.3-1.2,2.8-1.9c0.5-0.6,0.8-1.4,0.8-2.3c0-0.9-0.3-1.7-1-2.2C115.9,162.5,115,162.2,113.8,162.2z"/>
			<path fill="#FFFFFF" d="M141.5,169.9c0,4.8-1,8.4-2.9,10.7c-1.9,2.4-4.8,3.5-8.7,3.5c-1.5,0-2.5-0.1-3.2-0.3v-3.3
				c1,0.3,2,0.4,3,0.4c2.6,0,4.6-0.7,5.9-2.1c1.3-1.4,2-3.6,2.1-6.7h-0.2c-0.7,1-1.4,1.7-2.4,2.2c-0.9,0.4-2,0.7-3.3,0.7
				c-2.2,0-3.8-0.7-5.1-2c-1.2-1.3-1.8-3.2-1.8-5.5c0-2.5,0.7-4.6,2.1-6.1c1.4-1.5,3.4-2.3,5.8-2.3c1.7,0,3.2,0.4,4.5,1.3
				s2.3,2.1,3,3.7C141.2,165.7,141.5,167.7,141.5,169.9z M133.1,162.4c-1.4,0-2.4,0.4-3.1,1.3s-1.1,2.1-1.1,3.7c0,1.4,0.3,2.5,1,3.3
				c0.7,0.8,1.7,1.2,3.1,1.2c1.3,0,2.4-0.4,3.3-1.2c0.9-0.8,1.3-1.7,1.3-2.8c0-1-0.2-1.9-0.6-2.8c-0.4-0.9-0.9-1.5-1.6-2
				C134.7,162.7,133.9,162.4,133.1,162.4z"/>
			<path fill="#FFFFFF" d="M161,183.8h-16.5v-3l6.3-6.3c1.9-1.9,3.1-3.2,3.7-4c0.6-0.8,1-1.5,1.3-2.2c0.3-0.7,0.4-1.4,0.4-2.2
				c0-1.1-0.3-2-1-2.6c-0.7-0.6-1.6-0.9-2.7-0.9c-0.9,0-1.8,0.2-2.7,0.5c-0.9,0.3-1.9,1-3,1.9l-2.1-2.6c1.4-1.1,2.7-2,3.9-2.4
				c1.3-0.5,2.6-0.7,4.1-0.7c2.3,0,4.1,0.6,5.4,1.8c1.4,1.2,2,2.8,2,4.8c0,1.1-0.2,2.1-0.6,3.1c-0.4,1-1,2-1.8,3.1
				c-0.8,1-2.2,2.5-4.1,4.3l-4.2,4.1v0.2H161V183.8z"/>
		</g>
		<g>
			<path fill="#FFFFFF" d="M60,140.5H48.7v-21.6H60v3h-8v5.9h7.5v3H52v6.8h8V140.5z"/>
			<path fill="#FFFFFF" d="M74.2,135.8c0,1.6-0.5,2.8-1.6,3.7c-1.1,0.9-2.6,1.3-4.6,1.3c-2,0-3.6-0.3-4.9-1v-3
				c1.8,0.9,3.4,1.3,5,1.3c2,0,3-0.6,3-1.9c0-0.4-0.1-0.8-0.3-1c-0.2-0.3-0.6-0.6-1.1-0.9c-0.5-0.3-1.2-0.6-2.1-1
				c-1.7-0.7-2.9-1.5-3.5-2.2s-0.9-1.7-0.9-2.8c0-1.4,0.5-2.5,1.6-3.3c1-0.8,2.5-1.2,4.3-1.2c1.8,0,3.5,0.4,5,1.2l-1,2.6
				c-1.6-0.7-3-1.1-4.1-1.1c-1.7,0-2.5,0.5-2.5,1.6c0,0.5,0.2,0.9,0.7,1.3c0.4,0.4,1.4,0.8,2.9,1.5c1.2,0.5,2.2,1,2.7,1.4
				c0.6,0.4,1,0.9,1.3,1.5C74,134.4,74.2,135.1,74.2,135.8z"/>
			<path fill="#FFFFFF" d="M87.8,135.8c0,1.6-0.5,2.8-1.6,3.7c-1.1,0.9-2.6,1.3-4.6,1.3c-2,0-3.6-0.3-4.9-1v-3
				c1.8,0.9,3.4,1.3,5,1.3c2,0,3-0.6,3-1.9c0-0.4-0.1-0.8-0.3-1c-0.2-0.3-0.6-0.6-1.1-0.9c-0.5-0.3-1.2-0.6-2.1-1
				c-1.7-0.7-2.9-1.5-3.5-2.2s-0.9-1.7-0.9-2.8c0-1.4,0.5-2.5,1.6-3.3c1-0.8,2.5-1.2,4.3-1.2c1.8,0,3.5,0.4,5,1.2l-1,2.6
				c-1.6-0.7-3-1.1-4.1-1.1c-1.7,0-2.5,0.5-2.5,1.6c0,0.5,0.2,0.9,0.7,1.3c0.4,0.4,1.4,0.8,2.9,1.5c1.2,0.5,2.2,1,2.7,1.4
				c0.6,0.4,1,0.9,1.3,1.5C87.7,134.4,87.8,135.1,87.8,135.8z"/>
			<path fill="#FFFFFF" d="M97.9,140.8c-2.4,0-4.2-0.7-5.5-2.2c-1.3-1.5-2-3.5-2-6.1c0-2.7,0.6-4.8,1.8-6.3c1.2-1.5,2.9-2.3,5.1-2.3
				c2,0,3.6,0.7,4.7,2c1.2,1.3,1.7,3.1,1.7,5.4v1.9H93.7c0,1.6,0.4,2.8,1.2,3.7c0.7,0.9,1.8,1.3,3.2,1.3c0.9,0,1.7-0.1,2.5-0.3
				c0.8-0.2,1.6-0.5,2.5-0.9v2.8c-0.8,0.4-1.6,0.7-2.4,0.9S98.9,140.8,97.9,140.8z M97.3,126.5c-1,0-1.8,0.4-2.5,1
				c-0.6,0.7-1,1.7-1.1,3.1h6.9c0-1.4-0.3-2.4-0.9-3.1C99.1,126.8,98.3,126.5,97.3,126.5z"/>
			<path fill="#FFFFFF" d="M120.7,140.5h-3.2v-10.1c0-1.3-0.2-2.2-0.7-2.8c-0.5-0.6-1.2-0.9-2.2-0.9c-1.4,0-2.4,0.4-3,1.3
				c-0.6,0.9-0.9,2.3-0.9,4.4v8.1h-3.2v-16.4h2.5l0.5,2.1h0.2c0.5-0.8,1.1-1.4,1.9-1.8c0.8-0.4,1.8-0.6,2.8-0.6c3.6,0,5.4,2,5.4,6
				V140.5z"/>
			<path fill="#FFFFFF" d="M130.3,140.8c-1.9,0-3.4-0.7-4.4-2.2s-1.6-3.6-1.6-6.2c0-2.7,0.5-4.8,1.6-6.3s2.6-2.2,4.5-2.2
				c2,0,3.5,0.8,4.5,2.4h0.2c-0.2-1.2-0.2-2.1-0.2-2.8v-6h3.2v23h-2.5l-0.6-2.1h-0.2C133.8,140,132.3,140.8,130.3,140.8z M131.2,138
				c1.3,0,2.3-0.4,2.9-1.2c0.6-0.8,0.9-2.1,0.9-3.9v-0.5c0-2.1-0.3-3.5-0.9-4.4c-0.6-0.9-1.6-1.3-2.9-1.3c-1.1,0-2,0.5-2.6,1.5
				c-0.6,1-0.9,2.4-0.9,4.2c0,1.8,0.3,3.2,0.9,4.1C129.1,137.5,130,138,131.2,138z"/>
			<path fill="#FFFFFF" d="M156.1,132.3c0,2.7-0.6,4.8-1.9,6.3c-1.3,1.5-3,2.2-5.3,2.2c-1.4,0-2.7-0.3-3.7-1c-1.1-0.7-1.9-1.7-2.5-3
				s-0.9-2.8-0.9-4.5c0-2.7,0.6-4.7,1.9-6.2c1.3-1.5,3-2.2,5.3-2.2c2.2,0,3.9,0.8,5.2,2.3S156.1,129.7,156.1,132.3z M145,132.3
				c0,3.8,1.3,5.7,3.9,5.7c2.6,0,3.8-1.9,3.8-5.7c0-3.7-1.3-5.6-3.9-5.6c-1.3,0-2.3,0.5-2.9,1.4C145.4,129.1,145,130.5,145,132.3z"
				/>
			<path fill="#FFFFFF" d="M173,140.5h-3.2v-10.1c0-1.3-0.2-2.2-0.7-2.8c-0.5-0.6-1.2-0.9-2.2-0.9c-1.4,0-2.4,0.4-3,1.3
				c-0.6,0.9-0.9,2.3-0.9,4.4v8.1h-3.2v-16.4h2.5l0.5,2.1h0.2c0.5-0.8,1.1-1.4,1.9-1.8c0.8-0.4,1.8-0.6,2.8-0.6c3.6,0,5.4,2,5.4,6
				V140.5z"/>
			<path fill="#FFFFFF" d="M188.4,140.5h-3.2v-21.6h11.3v3h-8v6.8h7.5v3h-7.5V140.5z"/>
			<path fill="#FFFFFF" d="M213.1,132.3c0,2.7-0.6,4.8-1.9,6.3c-1.3,1.5-3,2.2-5.3,2.2c-1.4,0-2.7-0.3-3.7-1c-1.1-0.7-1.9-1.7-2.5-3
				s-0.9-2.8-0.9-4.5c0-2.7,0.6-4.7,1.9-6.2c1.3-1.5,3-2.2,5.3-2.2c2.2,0,3.9,0.8,5.2,2.3S213.1,129.7,213.1,132.3z M202.1,132.3
				c0,3.8,1.3,5.7,3.9,5.7c2.6,0,3.8-1.9,3.8-5.7c0-3.7-1.3-5.6-3.9-5.6c-1.3,0-2.3,0.5-2.9,1.4
				C202.4,129.1,202.1,130.5,202.1,132.3z"/>
			<path fill="#FFFFFF" d="M230.2,132.3c0,2.7-0.6,4.8-1.9,6.3c-1.3,1.5-3,2.2-5.3,2.2c-1.4,0-2.7-0.3-3.7-1c-1.1-0.7-1.9-1.7-2.5-3
				s-0.9-2.8-0.9-4.5c0-2.7,0.6-4.7,1.9-6.2c1.3-1.5,3-2.2,5.3-2.2c2.2,0,3.9,0.8,5.2,2.3S230.2,129.7,230.2,132.3z M219.2,132.3
				c0,3.8,1.3,5.7,3.9,5.7c2.6,0,3.8-1.9,3.8-5.7c0-3.7-1.3-5.6-3.9-5.6c-1.3,0-2.3,0.5-2.9,1.4
				C219.5,129.1,219.2,130.5,219.2,132.3z"/>
			<path fill="#FFFFFF" d="M239.5,138c0.8,0,1.6-0.1,2.4-0.4v2.6c-0.4,0.2-0.8,0.3-1.4,0.4s-1.1,0.2-1.7,0.2c-3,0-4.6-1.7-4.6-5.2
				v-8.8h-2.1v-1.5l2.2-1.3l1.1-3.5h2v3.6h4.3v2.6h-4.3v8.8c0,0.8,0.2,1.5,0.6,1.9C238.4,137.8,238.9,138,239.5,138z"/>
			<path fill="#FFFFFF" d="M252.6,123.8c1.9,0,3.4,0.7,4.4,2.2c1.1,1.5,1.6,3.6,1.6,6.2c0,2.7-0.5,4.8-1.6,6.3
				c-1.1,1.5-2.5,2.2-4.4,2.2c-1.9,0-3.4-0.7-4.5-2.2h-0.2l-0.6,1.9h-2.4v-23h3.2v5.5c0,0.4,0,1-0.1,1.8c0,0.8-0.1,1.3-0.1,1.5h0.1
				C249.2,124.7,250.7,123.8,252.6,123.8z M251.8,126.7c-1.3,0-2.2,0.4-2.8,1.2c-0.6,0.8-0.9,2.2-0.9,4.1v0.2c0,2,0.3,3.4,0.9,4.3
				c0.6,0.9,1.5,1.3,2.9,1.3c1.1,0,2-0.5,2.6-1.5s0.9-2.4,0.9-4.2C255.3,128.5,254.2,126.7,251.8,126.7z"/>
			<path fill="#FFFFFF" d="M271.8,140.5l-0.6-2.3h-0.1c-0.7,1-1.5,1.7-2.2,2c-0.7,0.4-1.7,0.5-2.8,0.5c-1.5,0-2.6-0.4-3.5-1.3
				s-1.3-2.1-1.3-3.7c0-1.7,0.6-3,1.7-3.8c1.2-0.9,2.9-1.3,5.3-1.4l2.6-0.1v-0.9c0-1-0.2-1.8-0.7-2.3s-1.2-0.8-2.1-0.8
				c-0.8,0-1.5,0.1-2.2,0.4c-0.7,0.2-1.4,0.5-2.1,0.9l-1-2.5c0.8-0.5,1.7-0.8,2.7-1.1c1-0.2,1.9-0.4,2.8-0.4c1.9,0,3.4,0.5,4.4,1.4
				c1,0.9,1.5,2.3,1.5,4.3v11H271.8z M267,138.1c1.2,0,2.1-0.4,2.8-1.1c0.7-0.7,1.1-1.7,1.1-3v-1.4l-1.9,0.1
				c-1.5,0.1-2.6,0.3-3.3,0.8c-0.7,0.5-1,1.2-1,2.2c0,0.7,0.2,1.3,0.6,1.7C265.6,137.9,266.2,138.1,267,138.1z"/>
			<path fill="#FFFFFF" d="M281.8,140.5h-3.2v-23h3.2V140.5z"/>
			<path fill="#FFFFFF" d="M289.6,140.5h-3.2v-23h3.2V140.5z"/>
			<path fill="#FFFFFF" d="M310.3,121.6c-1.9,0-3.4,0.7-4.4,2.2c-1.1,1.4-1.6,3.4-1.6,6c0,2.7,0.5,4.7,1.6,6c1,1.4,2.5,2,4.5,2
				c0.8,0,1.7-0.1,2.5-0.3c0.8-0.2,1.6-0.4,2.5-0.7v3c-1.6,0.6-3.3,1-5.3,1c-2.9,0-5.2-1-6.7-2.9c-1.6-1.9-2.4-4.7-2.4-8.2
				c0-2.2,0.4-4.2,1.1-5.9c0.8-1.7,1.9-3,3.3-3.9c1.4-0.9,3.1-1.3,5.1-1.3c2,0,3.9,0.5,5.7,1.4l-1.2,2.9c-0.7-0.3-1.4-0.6-2.1-0.9
				C312,121.7,311.2,121.6,310.3,121.6z"/>
			<path fill="#FFFFFF" d="M322.5,140.5h-3.2v-23h3.2V140.5z"/>
			<path fill="#FFFFFF" d="M337.7,140.5l-0.5-2.1h-0.2c-0.4,0.8-1.1,1.4-1.9,1.8s-1.8,0.7-2.8,0.7c-1.8,0-3.2-0.5-4.1-1.5
				c-0.9-1-1.4-2.5-1.4-4.5v-10.7h3.2v10.1c0,1.3,0.2,2.2,0.7,2.8c0.5,0.6,1.2,0.9,2.2,0.9c1.3,0,2.3-0.4,3-1.3c0.6-0.9,1-2.3,1-4.4
				v-8.1h3.2v16.4H337.7z"/>
			<path fill="#FFFFFF" d="M352.6,123.8c1.9,0,3.4,0.7,4.4,2.2c1.1,1.5,1.6,3.6,1.6,6.2c0,2.7-0.5,4.8-1.6,6.3
				c-1.1,1.5-2.5,2.2-4.4,2.2c-1.9,0-3.4-0.7-4.5-2.2h-0.2l-0.6,1.9h-2.4v-23h3.2v5.5c0,0.4,0,1-0.1,1.8c0,0.8-0.1,1.3-0.1,1.5h0.1
				C349.1,124.7,350.6,123.8,352.6,123.8z M351.7,126.7c-1.3,0-2.2,0.4-2.8,1.2c-0.6,0.8-0.9,2.2-0.9,4.1v0.2c0,2,0.3,3.4,0.9,4.3
				c0.6,0.9,1.5,1.3,2.9,1.3c1.1,0,2-0.5,2.6-1.5s0.9-2.4,0.9-4.2C355.2,128.5,354.1,126.7,351.7,126.7z"/>
		</g>
		<polyline fill="none" stroke="#FFFFFF" stroke-width="1.8928" stroke-miterlimit="10" points="807.9,39.6 455.1,132.5 376,132.5 
					"/>
	</g>
</g>
</svg>
