<!-- Generator: Adobe Illustrator 18.0.0, SVG Export Plug-In  -->
<svg version="1.1"
	 xmlns="http://www.w3.org/2000/svg" xmlns:xlink="http://www.w3.org/1999/xlink" xmlns:a="http://ns.adobe.com/AdobeSVGViewerExtensions/3.0/"
	 x="0px" y="0px" width="833.8px" height="247.9px" viewBox="0 0 833.8 247.9" enable-background="new 0 0 833.8 247.9"
	 xml:space="preserve">
<defs>
</defs>
<g>
	<g>
		<g>
			<g>
				<g>
					<path fill="#6C8538" d="M156.3,0c0.7,0,1.5,0.1,2.1,0.4c0.7,0.3,1.2,0.7,1.7,1.2c0.5,0.5,0.9,1.1,1.2,1.7
						c0.3,0.7,0.4,1.4,0.4,2.1c0,1.3-0.4,2.5-1.2,3.5c0.5,0.3,1,0.7,1.4,1.1s0.7,0.9,1,1.4c0.3,0.5,0.5,1,0.6,1.5
						c0.1,0.5,0.2,1.1,0.2,1.7c0,0.9-0.2,1.7-0.5,2.5s-0.8,1.5-1.4,2.1c-0.6,0.6-1.3,1.1-2.1,1.4c-0.8,0.3-1.6,0.5-2.5,0.5h-5.1
						c-0.2,0-0.4,0-0.5-0.1c-0.2-0.1-0.3-0.2-0.4-0.3c-0.1-0.1-0.2-0.3-0.3-0.4c-0.1-0.2-0.1-0.4-0.1-0.5V1.4c0-0.2,0-0.4,0.1-0.5
						c0.1-0.2,0.2-0.3,0.3-0.4c0.1-0.1,0.3-0.2,0.4-0.3S152,0,152.2,0H156.3z M153.6,2.8v5.3h2.7c0.4,0,0.7-0.1,1-0.2
						c0.3-0.1,0.6-0.3,0.8-0.6c0.2-0.2,0.4-0.5,0.6-0.9s0.2-0.7,0.2-1c0-0.4-0.1-0.7-0.2-1s-0.3-0.6-0.6-0.9s-0.5-0.4-0.8-0.6
						c-0.3-0.1-0.7-0.2-1-0.2H153.6z M153.6,10.9v7.4h3.7c0.5,0,1-0.1,1.4-0.3c0.4-0.2,0.8-0.5,1.2-0.8c0.3-0.3,0.6-0.7,0.8-1.2
						s0.3-0.9,0.3-1.4c0-0.5-0.1-1-0.3-1.4s-0.5-0.8-0.8-1.2s-0.7-0.6-1.2-0.8s-0.9-0.3-1.4-0.3H153.6z"/>
					<path fill="#6C8538" d="M177.7,19.7v-0.3c-0.7,0.5-1.4,0.9-2.1,1.2s-1.6,0.4-2.5,0.4c-2,0-3.8-0.7-5.2-2.2s-2.2-3.2-2.2-5.2
						s0.7-3.8,2.2-5.2s3.2-2.2,5.2-2.2c2,0,3.8,0.7,5.2,2.2c1.4,1.4,2.2,3.2,2.2,5.2v6c0,0.4-0.1,0.7-0.4,1c-0.3,0.3-0.6,0.4-1,0.4
						c-0.4,0-0.7-0.1-1-0.4C177.8,20.4,177.7,20.1,177.7,19.7z M173,9.1c-0.7,0-1.3,0.1-1.8,0.4s-1.1,0.6-1.5,1s-0.7,0.9-1,1.5
						c-0.2,0.6-0.4,1.2-0.4,1.8s0.1,1.2,0.4,1.8c0.2,0.6,0.6,1.1,1,1.5c0.4,0.4,0.9,0.7,1.5,1s1.2,0.4,1.8,0.4
						c0.6,0,1.2-0.1,1.8-0.4c0.6-0.2,1.1-0.6,1.5-1c0.4-0.4,0.7-0.9,1-1.5c0.2-0.6,0.4-1.2,0.4-1.8s-0.1-1.2-0.4-1.8
						c-0.2-0.6-0.6-1-1-1.5c-0.4-0.4-0.9-0.8-1.5-1C174.3,9.2,173.7,9.1,173,9.1z"/>
					<path fill="#6C8538" d="M193.8,16.9c0.4,0,0.7,0.1,1,0.4c0.3,0.3,0.4,0.6,0.4,1c0,0.4-0.1,0.7-0.4,1c-1.4,1.2-3,1.8-4.8,1.8
						c-2,0-3.8-0.7-5.2-2.2s-2.2-3.2-2.2-5.2s0.7-3.8,2.2-5.2s3.2-2.2,5.2-2.2c1.9,0,3.5,0.6,4.8,1.8c0.3,0.3,0.5,0.6,0.5,1
						c0,0.4-0.1,0.7-0.4,1c-0.3,0.3-0.6,0.4-1,0.4c-0.3,0-0.6-0.1-0.9-0.3c-0.4-0.4-0.9-0.7-1.4-0.9s-1-0.3-1.6-0.3
						c-0.6,0-1.2,0.1-1.8,0.4c-0.6,0.2-1.1,0.6-1.5,1c-0.4,0.4-0.8,0.9-1,1.5c-0.2,0.6-0.4,1.2-0.4,1.8s0.1,1.2,0.4,1.8
						c0.2,0.6,0.6,1.1,1,1.5s0.9,0.7,1.5,1c0.6,0.2,1.2,0.4,1.8,0.4c0.6,0,1.1-0.1,1.6-0.3c0.5-0.2,1-0.5,1.4-0.9
						C193.1,17,193.4,16.9,193.8,16.9z"/>
					<path fill="#6C8538" d="M212.1,13.7c0,2.1-0.7,3.8-2.2,5.2c-1.5,1.4-3.2,2.2-5.2,2.2c-2,0-3.8-0.7-5.2-2.2s-2.2-3.2-2.2-5.2
						s0.7-3.8,2.2-5.2s3.2-2.2,5.2-2.2c2,0,3.8,0.7,5.2,2.2c0.7,0.7,1.3,1.5,1.6,2.4C211.9,11.7,212.1,12.7,212.1,13.7z M204.7,9.1
						c-0.7,0-1.3,0.1-1.8,0.4s-1.1,0.6-1.5,1s-0.7,0.9-1,1.5c-0.2,0.6-0.4,1.2-0.4,1.8s0.1,1.2,0.4,1.8c0.2,0.6,0.6,1.1,1,1.5
						c0.4,0.4,0.9,0.7,1.5,1s1.2,0.4,1.8,0.4c0.6,0,1.2-0.1,1.8-0.4c0.6-0.2,1.1-0.6,1.5-1c0.4-0.4,0.7-0.9,1-1.5
						c0.2-0.6,0.4-1.2,0.4-1.8s-0.1-1.2-0.4-1.8c-0.2-0.6-0.6-1-1-1.5c-0.4-0.4-0.9-0.8-1.5-1C205.9,9.2,205.3,9.1,204.7,9.1z"/>
					<path fill="#6C8538" d="M216.9,7.7c1.2-0.9,2.5-1.4,4.1-1.4c0.9,0,1.8,0.2,2.6,0.5c0.8,0.4,1.6,0.9,2.2,1.5
						c0.6,0.6,1.1,1.3,1.5,2.2s0.6,1.7,0.6,2.7v6.5c0,0.4-0.1,0.7-0.4,1c-0.3,0.3-0.6,0.4-1,0.4c-0.4,0-0.7-0.1-1-0.4
						c-0.3-0.3-0.4-0.6-0.4-1v-6.5c0-0.6-0.1-1.1-0.3-1.6c-0.2-0.5-0.5-0.9-0.9-1.3c-0.4-0.4-0.8-0.7-1.3-0.9s-1-0.3-1.6-0.3
						c-0.6,0-1.1,0.1-1.6,0.3c-0.5,0.2-0.9,0.5-1.3,0.9s-0.7,0.8-0.9,1.3c-0.2,0.5-0.3,1-0.3,1.6v6.5c0,0.4-0.1,0.7-0.4,1
						c-0.3,0.3-0.6,0.4-1,0.4c-0.4,0-0.7-0.1-1-0.4c-0.3-0.3-0.4-0.6-0.4-1v-12c0-0.4,0.1-0.7,0.4-1c0.3-0.3,0.6-0.4,1-0.4
						c0.4,0,0.7,0.1,1,0.4C216.8,7,216.9,7.3,216.9,7.7z"/>
					<path fill="#6C8538" d="M164.6,41.8c-0.7-0.6-1.1-1.2-1.4-1.8c-0.3-0.6-0.4-1.3-0.4-2c0-0.9,0.2-1.6,0.5-2.3
						c0.3-0.7,0.8-1.3,1.4-1.9h0c1-0.9,2.2-1.3,3.6-1.3c0.4,0,0.9,0.1,1.3,0.2c0.4,0.1,0.9,0.3,1.3,0.5c0.4,0.2,0.8,0.5,1.1,0.8
						c0.4,0.3,0.7,0.7,1,1.2c0.1,0.2,0.2,0.5,0.2,0.8c0,0.2,0,0.4-0.1,0.6s-0.2,0.3-0.3,0.4c-0.1,0.1-0.3,0.2-0.4,0.3
						c-0.2,0.1-0.4,0.1-0.5,0.1c-0.2,0-0.3,0-0.5-0.1c-0.1-0.1-0.3-0.1-0.4-0.2c-0.1-0.1-0.2-0.2-0.3-0.3c-0.1-0.1-0.2-0.3-0.3-0.4
						c-0.2-0.3-0.5-0.5-0.9-0.7c-0.4-0.2-0.8-0.2-1.2-0.2c-0.3,0-0.7,0.1-1,0.2c-0.3,0.1-0.6,0.3-0.8,0.6c-0.2,0.2-0.4,0.5-0.6,0.8
						c-0.2,0.3-0.2,0.7-0.2,1.1c0,0.7,0.2,1.2,0.6,1.6c0.4,0.4,1,0.7,1.9,1c1.5,0.4,2.8,1,3.6,1.8s1.5,1.5,1.8,2.3s0.5,1.5,0.5,2.4
						c0,2.1-0.8,3.7-2.3,5h0c-1.2,1-2.6,1.6-4.2,1.6c-0.5,0-1-0.1-1.6-0.2c-0.5-0.1-1-0.3-1.5-0.6c-0.5-0.2-0.9-0.6-1.3-0.9
						c-0.4-0.4-0.8-0.8-1.1-1.3c-0.2-0.2-0.3-0.5-0.3-0.8c0-0.2,0-0.4,0.1-0.5c0.1-0.2,0.2-0.3,0.3-0.4c0.1-0.1,0.3-0.2,0.4-0.3
						s0.4-0.1,0.6-0.1c0.5,0,0.9,0.2,1.2,0.6c0.4,0.6,0.8,1,1.4,1.3s1.2,0.4,1.8,0.4c0.5,0,1-0.1,1.4-0.3c0.4-0.2,0.8-0.5,1.2-0.8
						c0.3-0.3,0.6-0.7,0.8-1.2c0.2-0.5,0.3-0.9,0.3-1.4c0-0.5-0.1-0.9-0.3-1.4c-0.2-0.4-0.5-0.8-1-1.3c-0.5-0.4-1.3-0.8-2.4-1.1
						C166.3,42.8,165.3,42.4,164.6,41.8z"/>
					<path fill="#6C8538" d="M188,52.1v-0.3c-0.7,0.5-1.4,0.9-2.1,1.2s-1.6,0.4-2.5,0.4c-2,0-3.8-0.7-5.2-2.2s-2.2-3.2-2.2-5.2
						s0.7-3.8,2.2-5.2s3.2-2.2,5.2-2.2c2,0,3.8,0.7,5.2,2.2c1.4,1.4,2.2,3.2,2.2,5.2v6c0,0.4-0.1,0.7-0.4,1c-0.3,0.3-0.6,0.4-1,0.4
						c-0.4,0-0.7-0.1-1-0.4C188.1,52.8,188,52.5,188,52.1z M183.3,41.5c-0.7,0-1.3,0.1-1.8,0.4s-1.1,0.6-1.5,1s-0.7,0.9-1,1.5
						c-0.2,0.6-0.4,1.2-0.4,1.8s0.1,1.2,0.4,1.8c0.2,0.6,0.6,1.1,1,1.5c0.4,0.4,0.9,0.7,1.5,1s1.2,0.4,1.8,0.4
						c0.6,0,1.2-0.1,1.8-0.4c0.6-0.2,1.1-0.6,1.5-1c0.4-0.4,0.7-0.9,1-1.5c0.2-0.6,0.4-1.2,0.4-1.8s-0.1-1.2-0.4-1.8
						c-0.2-0.6-0.6-1-1-1.5c-0.4-0.4-0.9-0.8-1.5-1C184.6,41.6,184,41.5,183.3,41.5z"/>
					<path fill="#6C8538" d="M192.7,52.1V33.8c0-0.4,0.1-0.7,0.4-1c0.3-0.3,0.6-0.4,1-0.4s0.7,0.1,1,0.4c0.3,0.3,0.4,0.6,0.4,1v17
						h0.6c0.4,0,0.7,0.1,1,0.4c0.3,0.3,0.4,0.6,0.4,1c0,0.4-0.1,0.7-0.4,1c-0.3,0.3-0.6,0.4-1,0.4h-2c-0.4,0-0.7-0.1-1-0.4
						C192.8,52.8,192.7,52.5,192.7,52.1z"/>
					<path fill="#6C8538" d="M201.8,46.5c-0.8-0.3-1.4-0.6-1.7-1h0c-0.7-0.7-1-1.5-1-2.4c0-0.7,0.2-1.3,0.5-1.8
						c0.4-0.5,0.8-1,1.4-1.4s1.2-0.7,1.9-0.9c0.7-0.2,1.4-0.3,2.2-0.3c2.2,0,4.1,0.9,5.7,2.6c0.2,0.2,0.3,0.5,0.3,0.8
						c0,0.4-0.1,0.7-0.4,1c-0.3,0.3-0.6,0.4-1,0.4c-0.3,0-0.5-0.1-0.7-0.2c-0.2-0.2-0.4-0.3-0.6-0.5c-0.9-0.9-2-1.3-3.3-1.3
						c-1.3,0-2.3,0.4-3,1.2c-0.1,0.1-0.2,0.3-0.2,0.6s0.1,0.4,0.3,0.5l6.2,2c0.9,0.3,1.4,0.7,1.7,1h0c0.7,0.7,1,1.5,1,2.4
						c0,0.7-0.2,1.3-0.5,1.8c-0.4,0.5-0.8,1-1.4,1.4c-0.6,0.4-1.2,0.7-1.9,0.9s-1.4,0.3-2.1,0.3c-2.2,0-4.1-0.9-5.7-2.6
						c-0.2-0.3-0.3-0.5-0.3-0.9c0-0.4,0.1-0.7,0.4-1c0.3-0.3,0.6-0.4,1-0.4c0.3,0,0.5,0.1,0.7,0.3c0.2,0.2,0.4,0.3,0.6,0.5
						c0.9,0.9,2,1.3,3.3,1.3c1.3,0,2.3-0.4,3-1.2c0.1-0.1,0.2-0.3,0.2-0.5c0-0.2-0.1-0.4-0.4-0.5L201.8,46.5z"/>
					<path fill="#6C8538" d="M225.1,52.1v-0.3c-0.7,0.5-1.4,0.9-2.1,1.2s-1.6,0.4-2.5,0.4c-2,0-3.8-0.7-5.2-2.2s-2.2-3.2-2.2-5.2
						s0.7-3.8,2.2-5.2s3.2-2.2,5.2-2.2c2,0,3.8,0.7,5.2,2.2c1.4,1.4,2.2,3.2,2.2,5.2v6c0,0.4-0.1,0.7-0.4,1c-0.3,0.3-0.6,0.4-1,0.4
						c-0.4,0-0.7-0.1-1-0.4C225.3,52.8,225.1,52.5,225.1,52.1z M220.5,41.5c-0.7,0-1.3,0.1-1.8,0.4s-1.1,0.6-1.5,1s-0.7,0.9-1,1.5
						c-0.2,0.6-0.4,1.2-0.4,1.8s0.1,1.2,0.4,1.8c0.2,0.6,0.6,1.1,1,1.5c0.4,0.4,0.9,0.7,1.5,1s1.2,0.4,1.8,0.4
						c0.6,0,1.2-0.1,1.8-0.4c0.6-0.2,1.1-0.6,1.5-1c0.4-0.4,0.7-0.9,1-1.5c0.2-0.6,0.4-1.2,0.4-1.8s-0.1-1.2-0.4-1.8
						c-0.2-0.6-0.6-1-1-1.5c-0.4-0.4-0.9-0.8-1.5-1C221.8,41.6,221.2,41.5,220.5,41.5z"/>
					<path fill="#6C8538" d="M131,64.8c0.7,0,1.5,0.1,2.1,0.4c0.7,0.3,1.2,0.7,1.7,1.2c0.5,0.5,0.9,1.1,1.2,1.7
						c0.3,0.7,0.4,1.4,0.4,2.1c0,1.3-0.4,2.5-1.2,3.5c0.5,0.3,1,0.7,1.4,1.1s0.7,0.9,1,1.4c0.3,0.5,0.5,1,0.6,1.5
						c0.1,0.5,0.2,1.1,0.2,1.7c0,0.9-0.2,1.7-0.5,2.5s-0.8,1.5-1.4,2.1c-0.6,0.6-1.3,1.1-2.1,1.4c-0.8,0.3-1.6,0.5-2.5,0.5h-5.1
						c-0.2,0-0.4,0-0.5-0.1c-0.2-0.1-0.3-0.2-0.4-0.3c-0.1-0.1-0.2-0.3-0.3-0.4c-0.1-0.2-0.1-0.4-0.1-0.5V66.2c0-0.2,0-0.4,0.1-0.5
						c0.1-0.2,0.2-0.3,0.3-0.4c0.1-0.1,0.3-0.2,0.4-0.3s0.3-0.1,0.5-0.1H131z M128.3,67.6v5.3h2.7c0.4,0,0.7-0.1,1-0.2
						c0.3-0.1,0.6-0.3,0.8-0.6c0.2-0.2,0.4-0.5,0.6-0.9s0.2-0.7,0.2-1c0-0.4-0.1-0.7-0.2-1s-0.3-0.6-0.6-0.9s-0.5-0.4-0.8-0.6
						c-0.3-0.1-0.7-0.2-1-0.2H128.3z M128.3,75.7v7.4h3.7c0.5,0,1-0.1,1.4-0.3c0.4-0.2,0.8-0.5,1.2-0.8c0.3-0.3,0.6-0.7,0.8-1.2
						s0.3-0.9,0.3-1.4c0-0.5-0.1-1-0.3-1.4s-0.5-0.8-0.8-1.2s-0.7-0.6-1.2-0.8s-0.9-0.3-1.4-0.3H128.3z"/>
					<path fill="#6C8538" d="M155.1,78.5c0,2.1-0.7,3.8-2.2,5.2c-1.5,1.4-3.2,2.2-5.2,2.2c-2,0-3.8-0.7-5.2-2.2s-2.2-3.2-2.2-5.2
						s0.7-3.8,2.2-5.2s3.2-2.2,5.2-2.2c2,0,3.8,0.7,5.2,2.2c0.7,0.7,1.3,1.5,1.6,2.4C154.9,76.5,155.1,77.5,155.1,78.5z M147.7,73.9
						c-0.7,0-1.3,0.1-1.8,0.4s-1.1,0.6-1.5,1s-0.7,0.9-1,1.5c-0.2,0.6-0.4,1.2-0.4,1.8s0.1,1.2,0.4,1.8c0.2,0.6,0.6,1.1,1,1.5
						c0.4,0.4,0.9,0.7,1.5,1s1.2,0.4,1.8,0.4c0.6,0,1.2-0.1,1.8-0.4c0.6-0.2,1.1-0.6,1.5-1c0.4-0.4,0.7-0.9,1-1.5
						c0.2-0.6,0.4-1.2,0.4-1.8s-0.1-1.2-0.4-1.8c-0.2-0.6-0.6-1-1-1.5c-0.4-0.4-0.9-0.8-1.5-1C149,74,148.4,73.9,147.7,73.9z"/>
					<path fill="#6C8538" d="M157.1,84.5V66.2c0-0.4,0.1-0.7,0.4-1c0.3-0.3,0.6-0.4,1-0.4s0.7,0.1,1,0.4c0.3,0.3,0.4,0.6,0.4,1v17
						h0.6c0.4,0,0.7,0.1,1,0.4c0.3,0.3,0.4,0.6,0.4,1c0,0.4-0.1,0.7-0.4,1c-0.3,0.3-0.6,0.4-1,0.4h-2c-0.4,0-0.7-0.1-1-0.4
						C157.2,85.2,157.1,84.9,157.1,84.5z"/>
					<path fill="#6C8538" d="M178.3,78.5c0,2.1-0.7,3.8-2.2,5.2c-1.5,1.4-3.2,2.2-5.2,2.2c-2,0-3.8-0.7-5.2-2.2s-2.2-3.2-2.2-5.2
						s0.7-3.8,2.2-5.2s3.2-2.2,5.2-2.2c2,0,3.8,0.7,5.2,2.2c0.7,0.7,1.3,1.5,1.6,2.4C178.1,76.5,178.3,77.5,178.3,78.5z M170.9,73.9
						c-0.7,0-1.3,0.1-1.8,0.4s-1.1,0.6-1.5,1s-0.7,0.9-1,1.5c-0.2,0.6-0.4,1.2-0.4,1.8s0.1,1.2,0.4,1.8c0.2,0.6,0.6,1.1,1,1.5
						c0.4,0.4,0.9,0.7,1.5,1s1.2,0.4,1.8,0.4c0.6,0,1.2-0.1,1.8-0.4c0.6-0.2,1.1-0.6,1.5-1c0.4-0.4,0.7-0.9,1-1.5
						c0.2-0.6,0.4-1.2,0.4-1.8s-0.1-1.2-0.4-1.8c-0.2-0.6-0.6-1-1-1.5c-0.4-0.4-0.9-0.8-1.5-1C172.2,74,171.6,73.9,170.9,73.9z"/>
					<path fill="#6C8538" d="M192.4,84.3c-1.3,1.1-2.9,1.6-4.6,1.6c-2,0-3.8-0.7-5.2-2.2s-2.2-3.2-2.2-5.2s0.7-3.8,2.2-5.2
						s3.2-2.2,5.2-2.2c2,0,3.8,0.7,5.2,2.2c1.4,1.4,2.2,3.2,2.2,5.2v7.3c0,0.6-0.1,1.2-0.3,1.8s-0.5,1.1-0.8,1.5
						c-0.3,0.5-0.7,0.9-1.2,1.3c-0.5,0.4-1,0.7-1.5,1c-0.5,0.3-1.1,0.5-1.7,0.6s-1.2,0.2-1.8,0.2c-0.7,0-1.4-0.1-2.1-0.3
						s-1.3-0.4-1.9-0.8c-0.6-0.4-1.2-0.8-1.7-1.3c-0.5-0.5-0.9-1.1-1.3-1.7c-0.1-0.2-0.2-0.4-0.2-0.7c0-0.4,0.1-0.7,0.4-1
						s0.6-0.4,1-0.4c0.3,0,0.5,0.1,0.7,0.2c0.2,0.1,0.4,0.4,0.7,0.8c0.3,0.4,0.6,0.7,0.8,1c1,1,2.2,1.5,3.6,1.5
						c1.4,0,2.6-0.5,3.6-1.5c0.6-0.7,0.9-1.5,0.9-2.1V84.3z M187.8,73.9c-0.7,0-1.3,0.1-1.8,0.4s-1.1,0.6-1.5,1s-0.7,0.9-1,1.5
						c-0.2,0.6-0.4,1.2-0.4,1.8s0.1,1.2,0.4,1.8c0.2,0.6,0.6,1.1,1,1.5c0.4,0.4,0.9,0.7,1.5,1s1.2,0.4,1.8,0.4
						c0.6,0,1.2-0.1,1.8-0.4c0.6-0.2,1.1-0.6,1.5-1c0.4-0.4,0.7-0.9,1-1.5c0.2-0.6,0.4-1.2,0.4-1.8s-0.1-1.2-0.4-1.8
						c-0.2-0.6-0.6-1-1-1.5c-0.4-0.4-0.9-0.8-1.5-1C189.1,74,188.5,73.9,187.8,73.9z"/>
					<path fill="#6C8538" d="M200,72.5c1.2-0.9,2.5-1.4,4.1-1.4c0.9,0,1.8,0.2,2.6,0.5c0.8,0.4,1.6,0.9,2.2,1.5
						c0.6,0.6,1.1,1.3,1.5,2.2s0.6,1.7,0.6,2.7v6.5c0,0.4-0.1,0.7-0.4,1c-0.3,0.3-0.6,0.4-1,0.4c-0.4,0-0.7-0.1-1-0.4
						c-0.3-0.3-0.4-0.6-0.4-1V78c0-0.6-0.1-1.1-0.3-1.6c-0.2-0.5-0.5-0.9-0.9-1.3c-0.4-0.4-0.8-0.7-1.3-0.9s-1-0.3-1.6-0.3
						c-0.6,0-1.1,0.1-1.6,0.3c-0.5,0.2-0.9,0.5-1.3,0.9s-0.7,0.8-0.9,1.3c-0.2,0.5-0.3,1-0.3,1.6v6.5c0,0.4-0.1,0.7-0.4,1
						c-0.3,0.3-0.6,0.4-1,0.4c-0.4,0-0.7-0.1-1-0.4c-0.3-0.3-0.4-0.6-0.4-1v-12c0-0.4,0.1-0.7,0.4-1c0.3-0.3,0.6-0.4,1-0.4
						c0.4,0,0.7,0.1,1,0.4C199.9,71.8,200,72.1,200,72.5z"/>
					<path fill="#6C8538" d="M225.1,84.5v-0.3c-0.7,0.5-1.4,0.9-2.1,1.2s-1.6,0.4-2.5,0.4c-2,0-3.8-0.7-5.2-2.2s-2.2-3.2-2.2-5.2
						s0.7-3.8,2.2-5.2s3.2-2.2,5.2-2.2c2,0,3.8,0.7,5.2,2.2c1.4,1.4,2.2,3.2,2.2,5.2v6c0,0.4-0.1,0.7-0.4,1c-0.3,0.3-0.6,0.4-1,0.4
						c-0.4,0-0.7-0.1-1-0.4C225.3,85.2,225.1,84.9,225.1,84.5z M220.5,73.9c-0.7,0-1.3,0.1-1.8,0.4s-1.1,0.6-1.5,1s-0.7,0.9-1,1.5
						c-0.2,0.6-0.4,1.2-0.4,1.8s0.1,1.2,0.4,1.8c0.2,0.6,0.6,1.1,1,1.5c0.4,0.4,0.9,0.7,1.5,1s1.2,0.4,1.8,0.4
						c0.6,0,1.2-0.1,1.8-0.4c0.6-0.2,1.1-0.6,1.5-1c0.4-0.4,0.7-0.9,1-1.5c0.2-0.6,0.4-1.2,0.4-1.8s-0.1-1.2-0.4-1.8
						c-0.2-0.6-0.6-1-1-1.5c-0.4-0.4-0.9-0.8-1.5-1C221.8,74,221.2,73.9,220.5,73.9z"/>
					<path fill="#6C8538" d="M54,113.5c0.2,0,0.4,0,0.5,0.1c0.2,0.1,0.3,0.2,0.4,0.3c0.1,0.1,0.2,0.3,0.3,0.4
						c0.1,0.2,0.1,0.4,0.1,0.5c0,0.4-0.1,0.7-0.4,1c-2,1.6-4.2,2.3-6.6,2.3c-2.9,0-5.4-1-7.5-3.1s-3.1-4.5-3.1-7.5
						c0-2.9,1-5.4,3.1-7.4c2.1-2.1,4.6-3.1,7.5-3.1c2.5,0,4.8,0.8,6.8,2.5c0.2,0.2,0.4,0.6,0.4,1c0,0.2,0,0.4-0.1,0.6
						s-0.2,0.3-0.3,0.4c-0.1,0.1-0.3,0.2-0.4,0.3c-0.2,0.1-0.4,0.1-0.5,0.1c-0.3,0-0.7-0.1-1-0.4c-0.7-0.5-1.4-0.9-2.2-1.2
						c-0.8-0.3-1.7-0.4-2.6-0.4c-2.1,0-4,0.8-5.5,2.3c-1.5,1.5-2.3,3.3-2.3,5.5c0,2.2,0.8,4,2.3,5.5c1.5,1.5,3.3,2.3,5.5,2.3
						c1.8,0,3.5-0.6,4.9-1.7C53.4,113.6,53.7,113.6,54,113.5z"/>
					<path fill="#6C8538" d="M60,104.9v0.3c0.7-0.5,1.4-0.9,2.1-1.2s1.6-0.4,2.5-0.4c0.4,0,0.8,0,1.2,0.1c0.4,0.1,0.9,0.1,1.2,0.3
						c0.4,0.1,0.7,0.3,0.9,0.6s0.4,0.5,0.4,0.9c0,0.2,0,0.4-0.1,0.5c-0.1,0.2-0.2,0.3-0.3,0.4s-0.3,0.2-0.4,0.3s-0.3,0.1-0.5,0.1
						c-0.2,0-0.4,0-0.6-0.1c-0.6-0.2-1.2-0.3-1.8-0.3c-0.6,0-1.2,0.1-1.8,0.4s-1.1,0.6-1.5,1c-0.4,0.4-0.7,0.9-1,1.5
						c-0.2,0.6-0.4,1.2-0.4,1.8v6c0,0.4-0.1,0.7-0.4,1c-0.3,0.3-0.6,0.4-1,0.4c-0.4,0-0.7-0.1-1-0.4c-0.3-0.3-0.4-0.6-0.4-1v-12
						c0-0.4,0.1-0.7,0.4-1c0.3-0.3,0.6-0.4,1-0.4c0.4,0,0.7,0.1,1,0.4C59.9,104.2,60,104.5,60,104.9z"/>
					<path fill="#6C8538" d="M81.2,114.1c0.4,0,0.7,0.1,1,0.4c0.3,0.3,0.4,0.6,0.4,1c0,0.4-0.1,0.7-0.4,1c-1.4,1.2-3,1.8-4.8,1.8
						c-2,0-3.8-0.7-5.2-2.2S70,113,70,110.9s0.7-3.8,2.2-5.2s3.2-2.2,5.2-2.2c2,0,3.8,0.7,5.2,2.2c0.7,0.7,1.3,1.5,1.6,2.4
						s0.5,1.8,0.5,2.8c0,0.4-0.1,0.7-0.4,1c-0.3,0.3-0.6,0.4-1,0.4H72.9c0.1,0.5,0.4,0.9,0.7,1.3c0.3,0.4,0.6,0.7,1,1
						c0.4,0.3,0.8,0.5,1.3,0.7c0.5,0.2,1,0.2,1.5,0.2c0.6,0,1.1-0.1,1.6-0.3c0.5-0.2,0.9-0.4,1.3-0.8
						C80.5,114.3,80.8,114.1,81.2,114.1z M81.8,109.5c-0.2-0.5-0.4-0.9-0.7-1.3c-0.3-0.4-0.6-0.7-1-1c-0.4-0.3-0.8-0.5-1.3-0.7
						c-0.5-0.2-1-0.2-1.5-0.2s-1,0.1-1.5,0.2s-0.9,0.4-1.3,0.7c-0.4,0.3-0.7,0.6-1,1c-0.3,0.4-0.5,0.8-0.6,1.3H81.8z"/>
					<path fill="#6C8538" d="M98.8,116.9v-0.3c-0.7,0.5-1.4,0.9-2.1,1.2s-1.6,0.4-2.5,0.4c-2,0-3.8-0.7-5.2-2.2s-2.2-3.2-2.2-5.2
						s0.7-3.8,2.2-5.2s3.2-2.2,5.2-2.2c2,0,3.8,0.7,5.2,2.2c1.4,1.4,2.2,3.2,2.2,5.2v6c0,0.4-0.1,0.7-0.4,1c-0.3,0.3-0.6,0.4-1,0.4
						c-0.4,0-0.7-0.1-1-0.4C99,117.6,98.8,117.3,98.8,116.9z M94.2,106.3c-0.7,0-1.3,0.1-1.8,0.4s-1.1,0.6-1.5,1s-0.7,0.9-1,1.5
						c-0.2,0.6-0.4,1.2-0.4,1.8s0.1,1.2,0.4,1.8c0.2,0.6,0.6,1.1,1,1.5c0.4,0.4,0.9,0.7,1.5,1s1.2,0.4,1.8,0.4
						c0.6,0,1.2-0.1,1.8-0.4c0.6-0.2,1.1-0.6,1.5-1c0.4-0.4,0.7-0.9,1-1.5c0.2-0.6,0.4-1.2,0.4-1.8s-0.1-1.2-0.4-1.8
						c-0.2-0.6-0.6-1-1-1.5c-0.4-0.4-0.9-0.8-1.5-1C95.5,106.4,94.9,106.3,94.2,106.3z"/>
					<path fill="#6C8538" d="M124.5,116.9c0,0.4-0.1,0.7-0.4,1c-0.3,0.3-0.6,0.4-1,0.4c-0.4,0-0.7-0.1-1-0.4c-0.3-0.3-0.4-0.6-0.4-1
						v-7.5c0-0.4-0.1-0.8-0.2-1.2c-0.2-0.4-0.4-0.7-0.7-1c-0.3-0.3-0.6-0.5-1-0.7c-0.4-0.2-0.8-0.3-1.2-0.3c-0.4,0-0.8,0.1-1.2,0.3
						s-0.7,0.4-1,0.7c-0.3,0.3-0.5,0.6-0.7,1c-0.2,0.4-0.2,0.8-0.2,1.2v7.5c0,0.4-0.1,0.7-0.4,1c-0.3,0.3-0.6,0.4-1,0.4
						c-0.4,0-0.7-0.1-1-0.4c-0.3-0.3-0.4-0.6-0.4-1v-7.5c0-0.4-0.1-0.8-0.3-1.2s-0.4-0.7-0.7-1s-0.6-0.5-1-0.7s-0.8-0.3-1.2-0.3
						s-0.8,0.1-1.2,0.2c-0.4,0.2-0.7,0.4-1,0.7c-0.3,0.3-0.5,0.6-0.7,1c-0.2,0.4-0.2,0.8-0.2,1.2v7.5c0,0.4-0.1,0.7-0.4,1
						c-0.3,0.3-0.6,0.4-1,0.4c-0.4,0-0.7-0.1-1-0.4c-0.3-0.3-0.4-0.6-0.4-1v-12c0-0.4,0.1-0.7,0.4-1c0.3-0.3,0.6-0.4,1-0.4
						c0.3,0,0.6,0.1,0.8,0.3c0.2,0.2,0.4,0.4,0.5,0.7c0.9-0.6,2-0.9,3.2-0.9c0.9,0,1.7,0.2,2.5,0.5c0.8,0.3,1.5,0.9,2,1.6
						c1.2-1.4,2.7-2.1,4.5-2.1c0.8,0,1.6,0.2,2.3,0.5c0.7,0.3,1.3,0.7,1.9,1.3c0.5,0.5,1,1.2,1.3,1.9c0.3,0.7,0.5,1.5,0.5,2.3V116.9
						z"/>
					<path fill="#6C8538" d="M146,114.1c0.4,0,0.7,0.1,1,0.4c0.3,0.3,0.4,0.6,0.4,1c0,0.4-0.1,0.7-0.4,1c-1.4,1.2-3,1.8-4.8,1.8
						c-2,0-3.8-0.7-5.2-2.2s-2.2-3.2-2.2-5.2s0.7-3.8,2.2-5.2s3.2-2.2,5.2-2.2c1.9,0,3.5,0.6,4.8,1.8c0.3,0.3,0.5,0.6,0.5,1
						c0,0.4-0.1,0.7-0.4,1c-0.3,0.3-0.6,0.4-1,0.4c-0.3,0-0.6-0.1-0.9-0.3c-0.4-0.4-0.9-0.7-1.4-0.9s-1-0.3-1.6-0.3
						c-0.6,0-1.2,0.1-1.8,0.4c-0.6,0.2-1.1,0.6-1.5,1c-0.4,0.4-0.8,0.9-1,1.5c-0.2,0.6-0.4,1.2-0.4,1.8s0.1,1.2,0.4,1.8
						c0.2,0.6,0.6,1.1,1,1.5s0.9,0.7,1.5,1c0.6,0.2,1.2,0.4,1.8,0.4c0.6,0,1.1-0.1,1.6-0.3c0.5-0.2,1-0.5,1.4-0.9
						C145.4,114.2,145.7,114.1,146,114.1z"/>
					<path fill="#6C8538" d="M152.3,116.9c0,0.4-0.1,0.7-0.4,1c-0.3,0.3-0.6,0.4-1,0.4c-0.4,0-0.7-0.1-1-0.4c-0.3-0.3-0.4-0.6-0.4-1
						V98.6c0-0.4,0.1-0.7,0.4-1c0.3-0.3,0.6-0.4,1-0.4s0.7,0.1,1,0.4c0.3,0.3,0.4,0.6,0.4,1v6.3c1.2-0.9,2.5-1.4,4.1-1.4
						c0.9,0,1.8,0.2,2.6,0.5c0.8,0.4,1.6,0.9,2.2,1.5c0.6,0.6,1.1,1.3,1.5,2.2s0.6,1.7,0.6,2.7v6.5c0,0.4-0.1,0.7-0.4,1
						c-0.3,0.3-0.6,0.4-1,0.4s-0.7-0.1-1-0.4c-0.3-0.3-0.4-0.6-0.4-1v-6.5c0-0.6-0.1-1.1-0.3-1.6c-0.2-0.5-0.5-0.9-0.9-1.3
						c-0.4-0.4-0.8-0.7-1.3-0.9s-1-0.3-1.6-0.3c-0.6,0-1.1,0.1-1.6,0.3c-0.5,0.2-0.9,0.5-1.3,0.9s-0.7,0.8-0.9,1.3
						c-0.2,0.5-0.3,1-0.3,1.6V116.9z"/>
					<path fill="#6C8538" d="M176.6,114.1c0.4,0,0.7,0.1,1,0.4c0.3,0.3,0.4,0.6,0.4,1c0,0.4-0.1,0.7-0.4,1c-1.4,1.2-3,1.8-4.8,1.8
						c-2,0-3.8-0.7-5.2-2.2s-2.2-3.2-2.2-5.2s0.7-3.8,2.2-5.2s3.2-2.2,5.2-2.2c2,0,3.8,0.7,5.2,2.2c0.7,0.7,1.3,1.5,1.6,2.4
						s0.5,1.8,0.5,2.8c0,0.4-0.1,0.7-0.4,1c-0.3,0.3-0.6,0.4-1,0.4h-10.4c0.1,0.5,0.4,0.9,0.7,1.3c0.3,0.4,0.6,0.7,1,1
						c0.4,0.3,0.8,0.5,1.3,0.7c0.5,0.2,1,0.2,1.5,0.2c0.6,0,1.1-0.1,1.6-0.3c0.5-0.2,0.9-0.4,1.3-0.8
						C176,114.3,176.3,114.1,176.6,114.1z M177.2,109.5c-0.2-0.5-0.4-0.9-0.7-1.3c-0.3-0.4-0.6-0.7-1-1c-0.4-0.3-0.8-0.5-1.3-0.7
						c-0.5-0.2-1-0.2-1.5-0.2s-1,0.1-1.5,0.2s-0.9,0.4-1.3,0.7c-0.4,0.3-0.7,0.6-1,1c-0.3,0.4-0.5,0.8-0.6,1.3H177.2z"/>
					<path fill="#6C8538" d="M193.5,114.1c0.4,0,0.7,0.1,1,0.4c0.3,0.3,0.4,0.6,0.4,1c0,0.4-0.1,0.7-0.4,1c-1.4,1.2-3,1.8-4.8,1.8
						c-2,0-3.8-0.7-5.2-2.2s-2.2-3.2-2.2-5.2s0.7-3.8,2.2-5.2s3.2-2.2,5.2-2.2c2,0,3.8,0.7,5.2,2.2c0.7,0.7,1.3,1.5,1.6,2.4
						s0.5,1.8,0.5,2.8c0,0.4-0.1,0.7-0.4,1c-0.3,0.3-0.6,0.4-1,0.4h-10.4c0.1,0.5,0.4,0.9,0.7,1.3c0.3,0.4,0.6,0.7,1,1
						c0.4,0.3,0.8,0.5,1.3,0.7c0.5,0.2,1,0.2,1.5,0.2c0.6,0,1.1-0.1,1.6-0.3c0.5-0.2,0.9-0.4,1.3-0.8
						C192.9,114.3,193.2,114.1,193.5,114.1z M194.1,109.5c-0.2-0.5-0.4-0.9-0.7-1.3c-0.3-0.4-0.6-0.7-1-1c-0.4-0.3-0.8-0.5-1.3-0.7
						c-0.5-0.2-1-0.2-1.5-0.2s-1,0.1-1.5,0.2s-0.9,0.4-1.3,0.7c-0.4,0.3-0.7,0.6-1,1c-0.3,0.4-0.5,0.8-0.6,1.3H194.1z"/>
					<path fill="#6C8538" d="M201.8,111.3c-0.8-0.3-1.4-0.6-1.7-1h0c-0.7-0.7-1-1.5-1-2.4c0-0.7,0.2-1.3,0.5-1.8
						c0.4-0.5,0.8-1,1.4-1.4s1.2-0.7,1.9-0.9c0.7-0.2,1.4-0.3,2.2-0.3c2.2,0,4.1,0.9,5.7,2.6c0.2,0.2,0.3,0.5,0.3,0.8
						c0,0.4-0.1,0.7-0.4,1c-0.3,0.3-0.6,0.4-1,0.4c-0.3,0-0.5-0.1-0.7-0.2c-0.2-0.2-0.4-0.3-0.6-0.5c-0.9-0.9-2-1.3-3.3-1.3
						c-1.3,0-2.3,0.4-3,1.2c-0.1,0.1-0.2,0.3-0.2,0.6s0.1,0.4,0.3,0.5l6.2,2c0.9,0.3,1.4,0.7,1.7,1h0c0.7,0.7,1,1.5,1,2.4
						c0,0.7-0.2,1.3-0.5,1.8c-0.4,0.5-0.8,1-1.4,1.4c-0.6,0.4-1.2,0.7-1.9,0.9s-1.4,0.3-2.1,0.3c-2.2,0-4.1-0.9-5.7-2.6
						c-0.2-0.3-0.3-0.5-0.3-0.9c0-0.4,0.1-0.7,0.4-1c0.3-0.3,0.6-0.4,1-0.4c0.3,0,0.5,0.1,0.7,0.3c0.2,0.2,0.4,0.3,0.6,0.5
						c0.9,0.9,2,1.3,3.3,1.3c1.3,0,2.3-0.4,3-1.2c0.1-0.1,0.2-0.3,0.2-0.5c0-0.2-0.1-0.4-0.4-0.5L201.8,111.3z"/>
					<path fill="#6C8538" d="M224.4,114.1c0.4,0,0.7,0.1,1,0.4c0.3,0.3,0.4,0.6,0.4,1c0,0.4-0.1,0.7-0.4,1c-1.4,1.2-3,1.8-4.8,1.8
						c-2,0-3.8-0.7-5.2-2.2s-2.2-3.2-2.2-5.2s0.7-3.8,2.2-5.2s3.2-2.2,5.2-2.2c2,0,3.8,0.7,5.2,2.2c0.7,0.7,1.3,1.5,1.6,2.4
						s0.5,1.8,0.5,2.8c0,0.4-0.1,0.7-0.4,1c-0.3,0.3-0.6,0.4-1,0.4h-10.4c0.1,0.5,0.4,0.9,0.7,1.3c0.3,0.4,0.6,0.7,1,1
						c0.4,0.3,0.8,0.5,1.3,0.7c0.5,0.2,1,0.2,1.5,0.2c0.6,0,1.1-0.1,1.6-0.3c0.5-0.2,0.9-0.4,1.3-0.8
						C223.7,114.3,224,114.1,224.4,114.1z M225,109.5c-0.2-0.5-0.4-0.9-0.7-1.3c-0.3-0.4-0.6-0.7-1-1c-0.4-0.3-0.8-0.5-1.3-0.7
						c-0.5-0.2-1-0.2-1.5-0.2s-1,0.1-1.5,0.2s-0.9,0.4-1.3,0.7c-0.4,0.3-0.7,0.6-1,1c-0.3,0.4-0.5,0.8-0.6,1.3H225z"/>
					<path fill="#6C8538" d="M155,129.6c0.7,0,1.5,0.1,2.1,0.4c0.7,0.3,1.2,0.7,1.7,1.2c0.5,0.5,0.9,1.1,1.2,1.7
						c0.3,0.7,0.4,1.4,0.4,2.1c0,1.3-0.4,2.5-1.2,3.5c0.5,0.3,1,0.7,1.4,1.1s0.7,0.9,1,1.4c0.3,0.5,0.5,1,0.6,1.5
						c0.1,0.5,0.2,1.1,0.2,1.7c0,0.9-0.2,1.7-0.5,2.5s-0.8,1.5-1.4,2.1c-0.6,0.6-1.3,1.1-2.1,1.4c-0.8,0.3-1.6,0.5-2.5,0.5h-5.1
						c-0.2,0-0.4,0-0.5-0.1c-0.2-0.1-0.3-0.2-0.4-0.3c-0.1-0.1-0.2-0.3-0.3-0.4c-0.1-0.2-0.1-0.4-0.1-0.5V131c0-0.2,0-0.4,0.1-0.5
						c0.1-0.2,0.2-0.3,0.3-0.4c0.1-0.1,0.3-0.2,0.4-0.3s0.3-0.1,0.5-0.1H155z M152.3,132.4v5.3h2.7c0.4,0,0.7-0.1,1-0.2
						c0.3-0.1,0.6-0.3,0.8-0.6c0.2-0.2,0.4-0.5,0.6-0.9s0.2-0.7,0.2-1c0-0.4-0.1-0.7-0.2-1s-0.3-0.6-0.6-0.9s-0.5-0.4-0.8-0.6
						c-0.3-0.1-0.7-0.2-1-0.2H152.3z M152.3,140.5v7.4h3.7c0.5,0,1-0.1,1.4-0.3c0.4-0.2,0.8-0.5,1.2-0.8c0.3-0.3,0.6-0.7,0.8-1.2
						s0.3-0.9,0.3-1.4c0-0.5-0.1-1-0.3-1.4s-0.5-0.8-0.8-1.2s-0.7-0.6-1.2-0.8s-0.9-0.3-1.4-0.3H152.3z"/>
					<path fill="#6C8538" d="M176.7,150.7c-0.4,0-0.7-0.1-1-0.4s-0.4-0.6-0.4-1c-0.6,0.5-1.2,0.8-1.9,1c-0.7,0.2-1.4,0.3-2.2,0.3
						c-0.9,0-1.8-0.2-2.7-0.5s-1.6-0.9-2.2-1.5c-0.6-0.6-1.1-1.4-1.5-2.2c-0.4-0.8-0.5-1.7-0.5-2.7v-6.5c0-0.4,0.1-0.7,0.4-1
						c0.3-0.3,0.6-0.4,1-0.4c0.4,0,0.7,0.1,1,0.4c0.3,0.3,0.4,0.6,0.4,1v6.5c0,0.6,0.1,1.1,0.3,1.6c0.2,0.5,0.5,0.9,0.9,1.3
						c0.4,0.4,0.8,0.7,1.3,0.9c0.5,0.2,1,0.3,1.6,0.3c0.6,0,1.1-0.1,1.6-0.3s0.9-0.5,1.3-0.9s0.7-0.8,0.9-1.3c0.2-0.5,0.3-1,0.3-1.6
						v-6.5c0-0.4,0.1-0.7,0.4-1c0.3-0.3,0.6-0.4,1-0.4c0.4,0,0.7,0.1,1,0.4c0.3,0.3,0.4,0.6,0.4,1v12c0,0.4-0.1,0.7-0.4,1
						C177.4,150.6,177.1,150.7,176.7,150.7z"/>
					<path fill="#6C8538" d="M181.4,135.9h0.6v-5c0-0.4,0.1-0.7,0.4-1c0.3-0.3,0.6-0.4,1-0.4c0.4,0,0.7,0.1,1,0.4
						c0.3,0.3,0.4,0.6,0.4,1v5h1.6c0.4,0,0.7,0.1,1,0.4s0.4,0.6,0.4,1c0,0.4-0.1,0.7-0.4,1s-0.6,0.4-1,0.4h-1.6v6.6
						c0,1.7,0.9,2.6,2.6,2.6c0.4,0,0.7,0.1,1,0.4c0.3,0.3,0.4,0.6,0.4,1c0,0.4-0.1,0.7-0.4,1c-0.3,0.3-0.6,0.4-1,0.4
						c-3.6,0-5.4-1.8-5.4-5.4v-6.6h-0.6c-0.4,0-0.7-0.1-1-0.4c-0.3-0.3-0.4-0.6-0.4-1c0-0.4,0.1-0.7,0.4-1
						C180.8,136.1,181.1,135.9,181.4,135.9z"/>
					<path fill="#6C8538" d="M192,135.9h0.6v-5c0-0.4,0.1-0.7,0.4-1c0.3-0.3,0.6-0.4,1-0.4c0.4,0,0.7,0.1,1,0.4
						c0.3,0.3,0.4,0.6,0.4,1v5h1.6c0.4,0,0.7,0.1,1,0.4s0.4,0.6,0.4,1c0,0.4-0.1,0.7-0.4,1s-0.6,0.4-1,0.4h-1.6v6.6
						c0,1.7,0.9,2.6,2.6,2.6c0.4,0,0.7,0.1,1,0.4c0.3,0.3,0.4,0.6,0.4,1c0,0.4-0.1,0.7-0.4,1c-0.3,0.3-0.6,0.4-1,0.4
						c-3.6,0-5.4-1.8-5.4-5.4v-6.6H192c-0.4,0-0.7-0.1-1-0.4c-0.3-0.3-0.4-0.6-0.4-1c0-0.4,0.1-0.7,0.4-1
						C191.3,136.1,191.6,135.9,192,135.9z"/>
					<path fill="#6C8538" d="M211.7,146.5c0.4,0,0.7,0.1,1,0.4c0.3,0.3,0.4,0.6,0.4,1c0,0.4-0.1,0.7-0.4,1c-1.4,1.2-3,1.8-4.8,1.8
						c-2,0-3.8-0.7-5.2-2.2s-2.2-3.2-2.2-5.2s0.7-3.8,2.2-5.2s3.2-2.2,5.2-2.2c2,0,3.8,0.7,5.2,2.2c0.7,0.7,1.3,1.5,1.6,2.4
						s0.5,1.8,0.5,2.8c0,0.4-0.1,0.7-0.4,1c-0.3,0.3-0.6,0.4-1,0.4h-10.4c0.1,0.5,0.4,0.9,0.7,1.3c0.3,0.4,0.6,0.7,1,1
						c0.4,0.3,0.8,0.5,1.3,0.7c0.5,0.2,1,0.2,1.5,0.2c0.6,0,1.1-0.1,1.6-0.3c0.5-0.2,0.9-0.4,1.3-0.8
						C211.1,146.7,211.4,146.5,211.7,146.5z M212.3,141.9c-0.2-0.5-0.4-0.9-0.7-1.3c-0.3-0.4-0.6-0.7-1-1c-0.4-0.3-0.8-0.5-1.3-0.7
						c-0.5-0.2-1-0.2-1.5-0.2s-1,0.1-1.5,0.2s-0.9,0.4-1.3,0.7c-0.4,0.3-0.7,0.6-1,1c-0.3,0.4-0.5,0.8-0.6,1.3H212.3z"/>
					<path fill="#6C8538" d="M220,137.3v0.3c0.7-0.5,1.4-0.9,2.1-1.2s1.6-0.4,2.5-0.4c0.4,0,0.8,0,1.2,0.1c0.4,0.1,0.9,0.1,1.2,0.3
						c0.4,0.1,0.7,0.3,0.9,0.6s0.4,0.5,0.4,0.9c0,0.2,0,0.4-0.1,0.5c-0.1,0.2-0.2,0.3-0.3,0.4s-0.3,0.2-0.4,0.3s-0.3,0.1-0.5,0.1
						c-0.2,0-0.4,0-0.6-0.1c-0.6-0.2-1.2-0.3-1.8-0.3c-0.6,0-1.2,0.1-1.8,0.4s-1.1,0.6-1.5,1c-0.4,0.4-0.7,0.9-1,1.5
						c-0.2,0.6-0.4,1.2-0.4,1.8v6c0,0.4-0.1,0.7-0.4,1c-0.3,0.3-0.6,0.4-1,0.4c-0.4,0-0.7-0.1-1-0.4c-0.3-0.3-0.4-0.6-0.4-1v-12
						c0-0.4,0.1-0.7,0.4-1c0.3-0.3,0.6-0.4,1-0.4c0.4,0,0.7,0.1,1,0.4C219.9,136.6,220,136.9,220,137.3z"/>
					<path fill="#6C8538" d="M61.9,178.3c0.2,0,0.4,0,0.5,0.1c0.2,0.1,0.3,0.2,0.4,0.3c0.1,0.1,0.2,0.3,0.3,0.4
						c0.1,0.2,0.1,0.4,0.1,0.5c0,0.4-0.1,0.7-0.4,1c-2,1.6-4.2,2.3-6.6,2.3c-2.9,0-5.4-1-7.5-3.1s-3.1-4.5-3.1-7.5
						c0-2.9,1-5.4,3.1-7.4c2.1-2.1,4.6-3.1,7.5-3.1c2.5,0,4.8,0.8,6.8,2.5c0.2,0.2,0.4,0.6,0.4,1c0,0.2,0,0.4-0.1,0.6
						s-0.2,0.3-0.3,0.4c-0.1,0.1-0.3,0.2-0.4,0.3c-0.2,0.1-0.4,0.1-0.5,0.1c-0.3,0-0.7-0.1-1-0.4c-0.7-0.5-1.4-0.9-2.2-1.2
						c-0.8-0.3-1.7-0.4-2.6-0.4c-2.1,0-4,0.8-5.5,2.3c-1.5,1.5-2.3,3.3-2.3,5.5c0,2.2,0.8,4,2.3,5.5c1.5,1.5,3.3,2.3,5.5,2.3
						c1.8,0,3.5-0.6,4.9-1.7C61.3,178.4,61.6,178.4,61.9,178.3z"/>
					<path fill="#6C8538" d="M80,175.7c0,2.1-0.7,3.8-2.2,5.2c-1.5,1.4-3.2,2.2-5.2,2.2c-2,0-3.8-0.7-5.2-2.2s-2.2-3.2-2.2-5.2
						s0.7-3.8,2.2-5.2s3.2-2.2,5.2-2.2c2,0,3.8,0.7,5.2,2.2c0.7,0.7,1.3,1.5,1.6,2.4C79.8,173.7,80,174.7,80,175.7z M72.6,171.1
						c-0.7,0-1.3,0.1-1.8,0.4s-1.1,0.6-1.5,1c-0.4,0.4-0.7,0.9-1,1.5c-0.2,0.6-0.4,1.2-0.4,1.8s0.1,1.2,0.4,1.8
						c0.2,0.6,0.6,1.1,1,1.5c0.4,0.4,0.9,0.8,1.5,1c0.6,0.2,1.2,0.4,1.8,0.4c0.6,0,1.2-0.1,1.8-0.4c0.6-0.2,1.1-0.6,1.5-1
						c0.4-0.4,0.7-0.9,1-1.5c0.2-0.6,0.4-1.2,0.4-1.8s-0.1-1.2-0.4-1.8c-0.2-0.6-0.6-1-1-1.5c-0.4-0.4-0.9-0.8-1.5-1
						C73.8,171.2,73.2,171.1,72.6,171.1z"/>
					<path fill="#6C8538" d="M90.3,164.8c-2.4,0-3.6,1.2-3.6,3.6v0.7h2.6c0.4,0,0.7,0.1,1,0.4c0.3,0.3,0.4,0.6,0.4,1
						c0,0.4-0.1,0.7-0.4,1c-0.3,0.3-0.6,0.4-1,0.4h-2.6v9.9c0,0.2,0,0.4-0.1,0.5c-0.1,0.2-0.2,0.3-0.3,0.4c-0.1,0.1-0.3,0.2-0.4,0.3
						s-0.3,0.1-0.5,0.1c-0.2,0-0.4,0-0.5-0.1s-0.3-0.2-0.4-0.3c-0.1-0.1-0.2-0.3-0.3-0.4c-0.1-0.2-0.1-0.3-0.1-0.5v-9.9h-0.6
						c-0.4,0-0.7-0.1-1-0.4c-0.3-0.3-0.4-0.6-0.4-1c0-0.4,0.1-0.7,0.4-1c0.3-0.3,0.6-0.4,1-0.4h0.6v-0.7c0-4.3,2.1-6.4,6.4-6.4
						c0.4,0,0.7,0.1,1,0.4c0.3,0.3,0.4,0.6,0.4,1c0,0.4-0.1,0.7-0.4,1C91,164.6,90.6,164.8,90.3,164.8z"/>
					<path fill="#6C8538" d="M100.8,164.8c-2.4,0-3.6,1.2-3.6,3.6v0.7h2.6c0.4,0,0.7,0.1,1,0.4c0.3,0.3,0.4,0.6,0.4,1
						c0,0.4-0.1,0.7-0.4,1c-0.3,0.3-0.6,0.4-1,0.4h-2.6v9.9c0,0.2,0,0.4-0.1,0.5c-0.1,0.2-0.2,0.3-0.3,0.4c-0.1,0.1-0.3,0.2-0.4,0.3
						s-0.3,0.1-0.5,0.1c-0.2,0-0.4,0-0.5-0.1s-0.3-0.2-0.4-0.3c-0.1-0.1-0.2-0.3-0.3-0.4c-0.1-0.2-0.1-0.3-0.1-0.5v-9.9h-0.6
						c-0.4,0-0.7-0.1-1-0.4c-0.3-0.3-0.4-0.6-0.4-1c0-0.4,0.1-0.7,0.4-1c0.3-0.3,0.6-0.4,1-0.4h0.6v-0.7c0-4.3,2.1-6.4,6.4-6.4
						c0.4,0,0.7,0.1,1,0.4c0.3,0.3,0.4,0.6,0.4,1c0,0.4-0.1,0.7-0.4,1C101.5,164.6,101.2,164.8,100.8,164.8z"/>
					<path fill="#6C8538" d="M114.4,178.9c0.4,0,0.7,0.1,1,0.4c0.3,0.3,0.4,0.6,0.4,1c0,0.4-0.1,0.7-0.4,1c-1.4,1.2-3,1.8-4.8,1.8
						c-2,0-3.8-0.7-5.2-2.2s-2.2-3.2-2.2-5.2s0.7-3.8,2.2-5.2s3.2-2.2,5.2-2.2c2,0,3.8,0.7,5.2,2.2c0.7,0.7,1.3,1.5,1.6,2.4
						c0.4,0.9,0.5,1.8,0.5,2.8c0,0.4-0.1,0.7-0.4,1c-0.3,0.3-0.6,0.4-1,0.4h-10.4c0.1,0.5,0.4,0.9,0.7,1.3c0.3,0.4,0.6,0.7,1,1
						c0.4,0.3,0.8,0.5,1.3,0.7c0.5,0.2,1,0.2,1.5,0.2c0.6,0,1.1-0.1,1.6-0.3c0.5-0.2,0.9-0.4,1.3-0.8
						C113.7,179.1,114.1,178.9,114.4,178.9z M115,174.3c-0.2-0.5-0.4-0.9-0.7-1.3c-0.3-0.4-0.6-0.7-1-1c-0.4-0.3-0.8-0.5-1.3-0.7
						c-0.5-0.2-1-0.2-1.5-0.2s-1,0.1-1.5,0.2s-0.9,0.4-1.3,0.7c-0.4,0.3-0.7,0.6-1,1c-0.3,0.4-0.5,0.8-0.6,1.3H115z"/>
					<path fill="#6C8538" d="M131.3,178.9c0.4,0,0.7,0.1,1,0.4c0.3,0.3,0.4,0.6,0.4,1c0,0.4-0.1,0.7-0.4,1c-1.4,1.2-3,1.8-4.8,1.8
						c-2,0-3.8-0.7-5.2-2.2s-2.2-3.2-2.2-5.2s0.7-3.8,2.2-5.2s3.2-2.2,5.2-2.2c2,0,3.8,0.7,5.2,2.2c0.7,0.7,1.3,1.5,1.6,2.4
						c0.4,0.9,0.5,1.8,0.5,2.8c0,0.4-0.1,0.7-0.4,1c-0.3,0.3-0.6,0.4-1,0.4H123c0.1,0.5,0.4,0.9,0.7,1.3c0.3,0.4,0.6,0.7,1,1
						c0.4,0.3,0.8,0.5,1.3,0.7c0.5,0.2,1,0.2,1.5,0.2c0.6,0,1.1-0.1,1.6-0.3c0.5-0.2,0.9-0.4,1.3-0.8
						C130.6,179.1,130.9,178.9,131.3,178.9z M131.9,174.3c-0.2-0.5-0.4-0.9-0.7-1.3c-0.3-0.4-0.6-0.7-1-1c-0.4-0.3-0.8-0.5-1.3-0.7
						c-0.5-0.2-1-0.2-1.5-0.2s-1,0.1-1.5,0.2s-0.9,0.4-1.3,0.7c-0.4,0.3-0.7,0.6-1,1c-0.3,0.4-0.5,0.8-0.6,1.3H131.9z"/>
					<path fill="#6C8538" d="M146.1,177.1c-0.4,0-0.7-0.1-1-0.4c-0.3-0.3-0.4-0.6-0.4-1s0.1-0.7,0.4-1c0.3-0.3,0.6-0.4,1-0.4h6
						c0.4,0,0.7,0.1,1,0.4c0.3,0.3,0.4,0.6,0.4,1s-0.1,0.7-0.4,1c-0.3,0.3-0.6,0.4-1,0.4H146.1z"/>
					<path fill="#6C8538" d="M184.1,181.7c0,0.4-0.1,0.7-0.4,1c-0.3,0.3-0.6,0.4-1,0.4c-0.4,0-0.7-0.1-1-0.4c-0.3-0.3-0.4-0.6-0.4-1
						v-7.5c0-0.4-0.1-0.8-0.2-1.2c-0.2-0.4-0.4-0.7-0.7-1c-0.3-0.3-0.6-0.5-1-0.7c-0.4-0.2-0.8-0.2-1.2-0.2c-0.4,0-0.8,0.1-1.2,0.2
						s-0.7,0.4-1,0.7c-0.3,0.3-0.5,0.6-0.7,1c-0.2,0.4-0.2,0.8-0.2,1.2v7.5c0,0.4-0.1,0.7-0.4,1c-0.3,0.3-0.6,0.4-1,0.4
						c-0.4,0-0.7-0.1-1-0.4c-0.3-0.3-0.4-0.6-0.4-1v-7.5c0-0.4-0.1-0.8-0.3-1.2s-0.4-0.7-0.7-1c-0.3-0.3-0.6-0.5-1-0.7
						s-0.8-0.2-1.2-0.2s-0.8,0.1-1.2,0.2c-0.4,0.2-0.7,0.4-1,0.7c-0.3,0.3-0.5,0.6-0.7,1c-0.2,0.4-0.2,0.8-0.2,1.2v7.5
						c0,0.4-0.1,0.7-0.4,1c-0.3,0.3-0.6,0.4-1,0.4c-0.4,0-0.7-0.1-1-0.4c-0.3-0.3-0.4-0.6-0.4-1v-12c0-0.4,0.1-0.7,0.4-1
						c0.3-0.3,0.6-0.4,1-0.4c0.3,0,0.6,0.1,0.8,0.3c0.2,0.2,0.4,0.4,0.5,0.7c0.9-0.6,2-0.9,3.2-0.9c0.9,0,1.7,0.2,2.5,0.5
						c0.8,0.3,1.5,0.9,2,1.6c1.2-1.4,2.7-2.1,4.5-2.1c0.8,0,1.6,0.2,2.3,0.5c0.7,0.3,1.3,0.7,1.9,1.3c0.5,0.5,1,1.2,1.3,1.9
						c0.3,0.7,0.5,1.5,0.5,2.3V181.7z"/>
					<path fill="#6C8538" d="M198.5,181.7v-0.3c-0.7,0.5-1.4,0.9-2.1,1.2s-1.6,0.4-2.5,0.4c-2,0-3.8-0.7-5.2-2.2s-2.2-3.2-2.2-5.2
						s0.7-3.8,2.2-5.2s3.2-2.2,5.2-2.2c2,0,3.8,0.7,5.2,2.2c1.4,1.4,2.2,3.2,2.2,5.2v6c0,0.4-0.1,0.7-0.4,1c-0.3,0.3-0.6,0.4-1,0.4
						c-0.4,0-0.7-0.1-1-0.4C198.6,182.4,198.5,182.1,198.5,181.7z M193.9,171.1c-0.7,0-1.3,0.1-1.8,0.4s-1.1,0.6-1.5,1
						c-0.4,0.4-0.7,0.9-1,1.5c-0.2,0.6-0.4,1.2-0.4,1.8s0.1,1.2,0.4,1.8c0.2,0.6,0.6,1.1,1,1.5c0.4,0.4,0.9,0.8,1.5,1
						c0.6,0.2,1.2,0.4,1.8,0.4c0.6,0,1.2-0.1,1.8-0.4c0.6-0.2,1.1-0.6,1.5-1c0.4-0.4,0.7-0.9,1-1.5c0.2-0.6,0.4-1.2,0.4-1.8
						s-0.1-1.2-0.4-1.8c-0.2-0.6-0.6-1-1-1.5c-0.4-0.4-0.9-0.8-1.5-1C195.1,171.2,194.5,171.1,193.9,171.1z"/>
					<path fill="#6C8538" d="M204.6,168.3h0.6v-5c0-0.4,0.1-0.7,0.4-1c0.3-0.3,0.6-0.4,1-0.4c0.4,0,0.7,0.1,1,0.4
						c0.3,0.3,0.4,0.6,0.4,1v5h1.6c0.4,0,0.7,0.1,1,0.4c0.3,0.3,0.4,0.6,0.4,1c0,0.4-0.1,0.7-0.4,1c-0.3,0.3-0.6,0.4-1,0.4H208v6.6
						c0,1.7,0.9,2.6,2.6,2.6c0.4,0,0.7,0.1,1,0.4c0.3,0.3,0.4,0.6,0.4,1c0,0.4-0.1,0.7-0.4,1c-0.3,0.3-0.6,0.4-1,0.4
						c-3.6,0-5.4-1.8-5.4-5.4v-6.6h-0.6c-0.4,0-0.7-0.1-1-0.4c-0.3-0.3-0.4-0.6-0.4-1c0-0.4,0.1-0.7,0.4-1
						C204,168.5,204.3,168.3,204.6,168.3z"/>
					<path fill="#6C8538" d="M224.4,178.9c0.4,0,0.7,0.1,1,0.4c0.3,0.3,0.4,0.6,0.4,1c0,0.4-0.1,0.7-0.4,1c-1.4,1.2-3,1.8-4.8,1.8
						c-2,0-3.8-0.7-5.2-2.2s-2.2-3.2-2.2-5.2s0.7-3.8,2.2-5.2s3.2-2.2,5.2-2.2c2,0,3.8,0.7,5.2,2.2c0.7,0.7,1.3,1.5,1.6,2.4
						c0.4,0.9,0.5,1.8,0.5,2.8c0,0.4-0.1,0.7-0.4,1c-0.3,0.3-0.6,0.4-1,0.4h-10.4c0.1,0.5,0.4,0.9,0.7,1.3c0.3,0.4,0.6,0.7,1,1
						c0.4,0.3,0.8,0.5,1.3,0.7c0.5,0.2,1,0.2,1.5,0.2c0.6,0,1.1-0.1,1.6-0.3c0.5-0.2,0.9-0.4,1.3-0.8
						C223.7,179.1,224,178.9,224.4,178.9z M225,174.3c-0.2-0.5-0.4-0.9-0.7-1.3c-0.3-0.4-0.6-0.7-1-1c-0.4-0.3-0.8-0.5-1.3-0.7
						c-0.5-0.2-1-0.2-1.5-0.2s-1,0.1-1.5,0.2s-0.9,0.4-1.3,0.7c-0.4,0.3-0.7,0.6-1,1c-0.3,0.4-0.5,0.8-0.6,1.3H225z"/>
					<path fill="#6C8538" d="M179.8,212.7c0.4,0,0.7,0.1,1,0.4c0.3,0.3,0.4,0.6,0.4,1s-0.1,0.7-0.4,1s-0.6,0.4-1,0.4h-12.2
						c-0.2,0-0.4,0-0.6-0.1s-0.3-0.2-0.4-0.3c-0.1-0.1-0.2-0.3-0.3-0.4s-0.1-0.4-0.1-0.6v-18.3c0-0.2,0-0.4,0.1-0.5
						c0.1-0.2,0.2-0.3,0.3-0.4c0.1-0.1,0.3-0.2,0.4-0.3s0.4-0.1,0.6-0.1h12.2c0.4,0,0.7,0.1,1,0.4c0.3,0.3,0.4,0.6,0.4,1
						s-0.1,0.7-0.4,1s-0.6,0.4-1,0.4H169v6.4h7.8c0.4,0,0.7,0.1,1,0.4s0.4,0.6,0.4,1s-0.1,0.7-0.4,1c-0.3,0.3-0.6,0.4-1,0.4H169v6.4
						H179.8z"/>
					<path fill="#6C8538" d="M194.3,213.9c-1.3,1.1-2.9,1.6-4.6,1.6c-2,0-3.8-0.7-5.2-2.2s-2.2-3.2-2.2-5.2s0.7-3.8,2.2-5.2
						s3.2-2.2,5.2-2.2c2,0,3.8,0.7,5.2,2.2c1.4,1.4,2.2,3.2,2.2,5.2v7.3c0,0.6-0.1,1.2-0.3,1.8s-0.5,1.1-0.8,1.5
						c-0.3,0.5-0.7,0.9-1.2,1.3c-0.5,0.4-1,0.7-1.5,1c-0.5,0.3-1.1,0.5-1.7,0.6s-1.2,0.2-1.8,0.2c-0.7,0-1.4-0.1-2.1-0.3
						c-0.7-0.2-1.3-0.4-1.9-0.8c-0.6-0.4-1.2-0.8-1.7-1.3c-0.5-0.5-0.9-1.1-1.3-1.7c-0.1-0.2-0.2-0.4-0.2-0.7c0-0.4,0.1-0.7,0.4-1
						c0.3-0.3,0.6-0.4,1-0.4c0.3,0,0.5,0.1,0.7,0.2c0.2,0.1,0.4,0.4,0.7,0.8c0.3,0.4,0.6,0.7,0.8,1c1,1,2.2,1.5,3.6,1.5
						c1.4,0,2.6-0.5,3.6-1.5c0.6-0.7,0.9-1.5,0.9-2.1V213.9z M189.7,203.5c-0.7,0-1.3,0.1-1.8,0.4s-1.1,0.6-1.5,1
						c-0.4,0.4-0.7,0.9-1,1.5c-0.2,0.6-0.4,1.2-0.4,1.8s0.1,1.2,0.4,1.8c0.2,0.6,0.6,1.1,1,1.5c0.4,0.4,0.9,0.8,1.5,1
						c0.6,0.2,1.2,0.4,1.8,0.4c0.6,0,1.2-0.1,1.8-0.4c0.6-0.2,1.1-0.6,1.5-1c0.4-0.4,0.7-0.9,1-1.5c0.2-0.6,0.4-1.2,0.4-1.8
						s-0.1-1.2-0.4-1.8c-0.2-0.6-0.6-1-1-1.5c-0.4-0.4-0.9-0.8-1.5-1C190.9,203.6,190.3,203.5,189.7,203.5z"/>
					<path fill="#6C8538" d="M211.2,213.9c-1.3,1.1-2.9,1.6-4.6,1.6c-2,0-3.8-0.7-5.2-2.2s-2.2-3.2-2.2-5.2s0.7-3.8,2.2-5.2
						s3.2-2.2,5.2-2.2c2,0,3.8,0.7,5.2,2.2c1.4,1.4,2.2,3.2,2.2,5.2v7.3c0,0.6-0.1,1.2-0.3,1.8s-0.5,1.1-0.8,1.5
						c-0.3,0.5-0.7,0.9-1.2,1.3c-0.5,0.4-1,0.7-1.5,1c-0.5,0.3-1.1,0.5-1.7,0.6s-1.2,0.2-1.8,0.2c-0.7,0-1.4-0.1-2.1-0.3
						c-0.7-0.2-1.3-0.4-1.9-0.8c-0.6-0.4-1.2-0.8-1.7-1.3c-0.5-0.5-0.9-1.1-1.3-1.7c-0.1-0.2-0.2-0.4-0.2-0.7c0-0.4,0.1-0.7,0.4-1
						c0.3-0.3,0.6-0.4,1-0.4c0.3,0,0.5,0.1,0.7,0.2c0.2,0.1,0.4,0.4,0.7,0.8c0.3,0.4,0.6,0.7,0.8,1c1,1,2.2,1.5,3.6,1.5
						c1.4,0,2.6-0.5,3.6-1.5c0.6-0.7,0.9-1.5,0.9-2.1V213.9z M206.5,203.5c-0.7,0-1.3,0.1-1.8,0.4s-1.1,0.6-1.5,1
						c-0.4,0.4-0.7,0.9-1,1.5c-0.2,0.6-0.4,1.2-0.4,1.8s0.1,1.2,0.4,1.8c0.2,0.6,0.6,1.1,1,1.5c0.4,0.4,0.9,0.8,1.5,1
						c0.6,0.2,1.2,0.4,1.8,0.4c0.6,0,1.2-0.1,1.8-0.4c0.6-0.2,1.1-0.6,1.5-1c0.4-0.4,0.7-0.9,1-1.5c0.2-0.6,0.4-1.2,0.4-1.8
						s-0.1-1.2-0.4-1.8c-0.2-0.6-0.6-1-1-1.5c-0.4-0.4-0.9-0.8-1.5-1C207.8,203.6,207.2,203.5,206.5,203.5z"/>
					<path fill="#6C8538" d="M218.7,208.5c-0.8-0.3-1.4-0.6-1.7-1h0c-0.7-0.7-1-1.5-1-2.4c0-0.7,0.2-1.3,0.5-1.8
						c0.4-0.5,0.8-1,1.4-1.4s1.2-0.7,1.9-0.9c0.7-0.2,1.4-0.3,2.2-0.3c2.2,0,4.1,0.9,5.7,2.7c0.2,0.2,0.3,0.5,0.3,0.8
						c0,0.4-0.1,0.7-0.4,1c-0.3,0.3-0.6,0.4-1,0.4c-0.3,0-0.5-0.1-0.7-0.2c-0.2-0.2-0.4-0.3-0.6-0.5c-0.9-0.9-2-1.3-3.3-1.3
						c-1.3,0-2.3,0.4-3,1.2c-0.1,0.1-0.2,0.3-0.2,0.6s0.1,0.4,0.3,0.5l6.2,2c0.9,0.3,1.4,0.7,1.7,1h0c0.7,0.7,1,1.5,1,2.4
						c0,0.7-0.2,1.3-0.5,1.8c-0.4,0.5-0.8,1-1.4,1.4c-0.6,0.4-1.2,0.7-1.9,0.9s-1.4,0.3-2.1,0.3c-2.2,0-4.1-0.9-5.7-2.6
						c-0.2-0.3-0.3-0.5-0.3-0.9c0-0.4,0.1-0.7,0.4-1c0.3-0.3,0.6-0.4,1-0.4c0.3,0,0.5,0.1,0.7,0.3c0.2,0.2,0.4,0.3,0.6,0.5
						c0.9,0.9,2,1.3,3.3,1.3c1.3,0,2.3-0.4,3-1.2c0.1-0.1,0.2-0.3,0.2-0.5c0-0.2-0.1-0.4-0.4-0.5L218.7,208.5z"/>
					<path fill="#6C8538" d="M2.8,236.2c-0.7-0.6-1.1-1.2-1.4-1.8c-0.3-0.6-0.4-1.3-0.4-2c0-0.9,0.2-1.6,0.5-2.3
						c0.3-0.7,0.8-1.3,1.4-1.9h0c1-0.9,2.2-1.3,3.6-1.3c0.4,0,0.9,0.1,1.3,0.2c0.4,0.1,0.9,0.3,1.3,0.5c0.4,0.2,0.8,0.5,1.1,0.8
						c0.4,0.3,0.7,0.7,1,1.2c0.1,0.2,0.2,0.5,0.2,0.8c0,0.2,0,0.4-0.1,0.6s-0.2,0.3-0.3,0.4c-0.1,0.1-0.3,0.2-0.4,0.3
						c-0.2,0.1-0.4,0.1-0.5,0.1c-0.2,0-0.3,0-0.5-0.1c-0.1-0.1-0.3-0.1-0.4-0.2c-0.1-0.1-0.2-0.2-0.3-0.3c-0.1-0.1-0.2-0.3-0.3-0.4
						c-0.2-0.3-0.5-0.5-0.9-0.7c-0.4-0.2-0.8-0.2-1.2-0.2c-0.3,0-0.7,0.1-1,0.2c-0.3,0.1-0.6,0.3-0.8,0.6c-0.2,0.2-0.4,0.5-0.6,0.8
						c-0.2,0.3-0.2,0.7-0.2,1.1c0,0.7,0.2,1.2,0.6,1.6c0.4,0.4,1,0.7,1.9,1c1.5,0.4,2.8,1,3.6,1.8s1.5,1.5,1.8,2.3
						c0.3,0.7,0.5,1.5,0.5,2.4c0,2.1-0.8,3.7-2.3,5h0c-1.2,1-2.6,1.6-4.2,1.6c-0.5,0-1-0.1-1.6-0.2c-0.5-0.1-1-0.3-1.5-0.6
						c-0.5-0.2-0.9-0.6-1.3-0.9c-0.4-0.4-0.8-0.8-1.1-1.3c-0.2-0.2-0.3-0.5-0.3-0.8c0-0.2,0-0.4,0.1-0.5c0.1-0.2,0.2-0.3,0.3-0.4
						c0.1-0.1,0.3-0.2,0.4-0.3s0.4-0.1,0.6-0.1c0.5,0,0.9,0.2,1.2,0.6c0.4,0.6,0.8,1,1.4,1.3c0.6,0.3,1.2,0.4,1.8,0.4
						c0.5,0,1-0.1,1.4-0.3c0.4-0.2,0.8-0.5,1.2-0.8c0.3-0.3,0.6-0.7,0.8-1.2c0.2-0.5,0.3-0.9,0.3-1.4c0-0.5-0.1-0.9-0.3-1.4
						c-0.2-0.4-0.5-0.8-1-1.3c-0.5-0.4-1.3-0.8-2.4-1.1C4.4,237.2,3.4,236.8,2.8,236.2z"/>
					<path fill="#6C8538" d="M16.8,246.5c0,0.4-0.1,0.7-0.4,1c-0.3,0.3-0.6,0.4-1,0.4c-0.4,0-0.7-0.1-1-0.4c-0.3-0.3-0.4-0.6-0.4-1
						v-18.3c0-0.4,0.1-0.7,0.4-1c0.3-0.3,0.6-0.4,1-0.4s0.7,0.1,1,0.4c0.3,0.3,0.4,0.6,0.4,1v6.3c1.2-0.9,2.5-1.4,4.1-1.4
						c0.9,0,1.8,0.2,2.6,0.5c0.8,0.4,1.6,0.9,2.2,1.5c0.6,0.6,1.1,1.3,1.5,2.2c0.4,0.8,0.6,1.7,0.6,2.7v6.5c0,0.4-0.1,0.7-0.4,1
						c-0.3,0.3-0.6,0.4-1,0.4s-0.7-0.1-1-0.4c-0.3-0.3-0.4-0.6-0.4-1V240c0-0.6-0.1-1.1-0.3-1.6c-0.2-0.5-0.5-0.9-0.9-1.3
						c-0.4-0.4-0.8-0.7-1.3-0.9s-1-0.3-1.6-0.3c-0.6,0-1.1,0.1-1.6,0.3c-0.5,0.2-0.9,0.5-1.3,0.9c-0.4,0.4-0.7,0.8-0.9,1.3
						c-0.2,0.5-0.3,1-0.3,1.6V246.5z"/>
					<path fill="#6C8538" d="M32.6,234.5v0.3c0.7-0.5,1.4-0.9,2.1-1.2s1.6-0.4,2.5-0.4c0.4,0,0.8,0,1.2,0.1c0.4,0.1,0.9,0.1,1.2,0.3
						c0.4,0.1,0.7,0.3,0.9,0.6s0.4,0.5,0.4,0.9c0,0.2,0,0.4-0.1,0.5c-0.1,0.2-0.2,0.3-0.3,0.4c-0.1,0.1-0.3,0.2-0.4,0.3
						s-0.3,0.1-0.5,0.1c-0.2,0-0.4,0-0.6-0.1c-0.6-0.2-1.2-0.3-1.8-0.3c-0.6,0-1.2,0.1-1.8,0.4c-0.6,0.2-1.1,0.6-1.5,1
						c-0.4,0.4-0.7,0.9-1,1.5c-0.2,0.6-0.4,1.2-0.4,1.8v6c0,0.4-0.1,0.7-0.4,1c-0.3,0.3-0.6,0.4-1,0.4c-0.4,0-0.7-0.1-1-0.4
						c-0.3-0.3-0.4-0.6-0.4-1v-12c0-0.4,0.1-0.7,0.4-1c0.3-0.3,0.6-0.4,1-0.4c0.4,0,0.7,0.1,1,0.4C32.4,233.8,32.6,234.1,32.6,234.5
						z"/>
					<path fill="#6C8538" d="M53.8,243.7c0.4,0,0.7,0.1,1,0.4c0.3,0.3,0.4,0.6,0.4,1c0,0.4-0.1,0.7-0.4,1c-1.4,1.2-3,1.8-4.8,1.8
						c-2,0-3.8-0.7-5.2-2.2s-2.2-3.2-2.2-5.2s0.7-3.8,2.2-5.2s3.2-2.2,5.2-2.2c2,0,3.8,0.7,5.2,2.2c0.7,0.7,1.3,1.5,1.6,2.4
						c0.4,0.9,0.5,1.8,0.5,2.8c0,0.4-0.1,0.7-0.4,1c-0.3,0.3-0.6,0.4-1,0.4H45.5c0.1,0.5,0.4,0.9,0.7,1.3c0.3,0.4,0.6,0.7,1,1
						c0.4,0.3,0.8,0.5,1.3,0.7c0.5,0.2,1,0.2,1.5,0.2c0.6,0,1.1-0.1,1.6-0.3c0.5-0.2,0.9-0.4,1.3-0.8
						C53.1,243.9,53.4,243.8,53.8,243.7z M54.4,239.1c-0.2-0.5-0.4-0.9-0.7-1.3c-0.3-0.4-0.6-0.7-1-1c-0.4-0.3-0.8-0.5-1.3-0.7
						c-0.5-0.2-1-0.2-1.5-0.2s-1,0.1-1.5,0.2s-0.9,0.4-1.3,0.7c-0.4,0.3-0.7,0.6-1,1c-0.3,0.4-0.5,0.8-0.6,1.3H54.4z"/>
					<path fill="#6C8538" d="M70.6,243.7c0.4,0,0.7,0.1,1,0.4c0.3,0.3,0.4,0.6,0.4,1c0,0.4-0.1,0.7-0.4,1c-1.4,1.2-3,1.8-4.8,1.8
						c-2,0-3.8-0.7-5.2-2.2s-2.2-3.2-2.2-5.2s0.7-3.8,2.2-5.2s3.2-2.2,5.2-2.2c2,0,3.8,0.7,5.2,2.2c0.7,0.7,1.3,1.5,1.6,2.4
						c0.4,0.9,0.5,1.8,0.5,2.8c0,0.4-0.1,0.7-0.4,1c-0.3,0.3-0.6,0.4-1,0.4H62.3c0.1,0.5,0.4,0.9,0.7,1.3c0.3,0.4,0.6,0.7,1,1
						c0.4,0.3,0.8,0.5,1.3,0.7c0.5,0.2,1,0.2,1.5,0.2c0.6,0,1.1-0.1,1.6-0.3c0.5-0.2,0.9-0.4,1.3-0.8
						C70,243.9,70.3,243.8,70.6,243.7z M71.2,239.1c-0.2-0.5-0.4-0.9-0.7-1.3c-0.3-0.4-0.6-0.7-1-1c-0.4-0.3-0.8-0.5-1.3-0.7
						c-0.5-0.2-1-0.2-1.5-0.2s-1,0.1-1.5,0.2s-0.9,0.4-1.3,0.7c-0.4,0.3-0.7,0.6-1,1c-0.3,0.4-0.5,0.8-0.6,1.3H71.2z"/>
					<path fill="#6C8538" d="M83.7,233.1c1.7,0,3.3,0.5,4.6,1.6v-6.6c0-0.4,0.1-0.7,0.4-1c0.3-0.3,0.6-0.4,1-0.4
						c0.4,0,0.7,0.1,1,0.4c0.3,0.3,0.4,0.6,0.4,1v12.3c0,2.1-0.7,3.8-2.2,5.2c-1.5,1.4-3.2,2.2-5.2,2.2c-2,0-3.8-0.7-5.2-2.2
						s-2.2-3.2-2.2-5.2s0.7-3.8,2.2-5.2S81.6,233.1,83.7,233.1z M88.3,240.5c0-0.6-0.1-1.2-0.4-1.8c-0.2-0.6-0.6-1-1-1.5
						c-0.4-0.4-0.9-0.8-1.5-1c-0.6-0.2-1.2-0.4-1.8-0.4c-0.7,0-1.3,0.1-1.8,0.4s-1.1,0.6-1.5,1c-0.4,0.4-0.7,0.9-1,1.5
						c-0.2,0.6-0.4,1.2-0.4,1.8s0.1,1.2,0.4,1.8c0.2,0.6,0.6,1.1,1,1.5c0.4,0.4,0.9,0.8,1.5,1c0.6,0.2,1.2,0.4,1.8,0.4
						c0.6,0,1.2-0.1,1.8-0.4c0.6-0.2,1.1-0.6,1.5-1c0.4-0.4,0.7-0.9,1-1.5C88.2,241.7,88.3,241.1,88.3,240.5z"/>
					<path fill="#6C8538" d="M104.4,243.7c0.4,0,0.7,0.1,1,0.4c0.3,0.3,0.4,0.6,0.4,1c0,0.4-0.1,0.7-0.4,1c-1.4,1.2-3,1.8-4.8,1.8
						c-2,0-3.8-0.7-5.2-2.2s-2.2-3.2-2.2-5.2s0.7-3.8,2.2-5.2s3.2-2.2,5.2-2.2c2,0,3.8,0.7,5.2,2.2c0.7,0.7,1.3,1.5,1.6,2.4
						c0.4,0.9,0.5,1.8,0.5,2.8c0,0.4-0.1,0.7-0.4,1c-0.3,0.3-0.6,0.4-1,0.4H96.1c0.1,0.5,0.4,0.9,0.7,1.3c0.3,0.4,0.6,0.7,1,1
						c0.4,0.3,0.8,0.5,1.3,0.7c0.5,0.2,1,0.2,1.5,0.2c0.6,0,1.1-0.1,1.6-0.3c0.5-0.2,0.9-0.4,1.3-0.8
						C103.7,243.9,104,243.8,104.4,243.7z M105,239.1c-0.2-0.5-0.4-0.9-0.7-1.3c-0.3-0.4-0.6-0.7-1-1c-0.4-0.3-0.8-0.5-1.3-0.7
						c-0.5-0.2-1-0.2-1.5-0.2s-1,0.1-1.5,0.2s-0.9,0.4-1.3,0.7c-0.4,0.3-0.7,0.6-1,1c-0.3,0.4-0.5,0.8-0.6,1.3H105z"/>
					<path fill="#6C8538" d="M117.4,233.1c1.7,0,3.3,0.5,4.6,1.6v-6.6c0-0.4,0.1-0.7,0.4-1c0.3-0.3,0.6-0.4,1-0.4
						c0.4,0,0.7,0.1,1,0.4c0.3,0.3,0.4,0.6,0.4,1v12.3c0,2.1-0.7,3.8-2.2,5.2c-1.5,1.4-3.2,2.2-5.2,2.2c-2,0-3.8-0.7-5.2-2.2
						s-2.2-3.2-2.2-5.2s0.7-3.8,2.2-5.2S115.4,233.1,117.4,233.1z M122,240.5c0-0.6-0.1-1.2-0.4-1.8c-0.2-0.6-0.6-1-1-1.5
						c-0.4-0.4-0.9-0.8-1.5-1c-0.6-0.2-1.2-0.4-1.8-0.4c-0.7,0-1.3,0.1-1.8,0.4s-1.1,0.6-1.5,1c-0.4,0.4-0.7,0.9-1,1.5
						c-0.2,0.6-0.4,1.2-0.4,1.8s0.1,1.2,0.4,1.8c0.2,0.6,0.6,1.1,1,1.5c0.4,0.4,0.9,0.8,1.5,1c0.6,0.2,1.2,0.4,1.8,0.4
						c0.6,0,1.2-0.1,1.8-0.4c0.6-0.2,1.1-0.6,1.5-1c0.4-0.4,0.7-0.9,1-1.5C121.9,241.7,122,241.1,122,240.5z"/>
					<path fill="#6C8538" d="M146,243.7c0.4,0,0.7,0.1,1,0.4c0.3,0.3,0.4,0.6,0.4,1c0,0.4-0.1,0.7-0.4,1c-1.4,1.2-3,1.8-4.8,1.8
						c-2,0-3.8-0.7-5.2-2.2s-2.2-3.2-2.2-5.2s0.7-3.8,2.2-5.2s3.2-2.2,5.2-2.2c1.9,0,3.5,0.6,4.8,1.8c0.3,0.3,0.5,0.6,0.5,1
						c0,0.4-0.1,0.7-0.4,1c-0.3,0.3-0.6,0.4-1,0.4c-0.3,0-0.6-0.1-0.9-0.3c-0.4-0.4-0.9-0.7-1.4-0.9c-0.5-0.2-1-0.3-1.6-0.3
						c-0.6,0-1.2,0.1-1.8,0.4c-0.6,0.2-1.1,0.6-1.5,1c-0.4,0.4-0.8,0.9-1,1.5c-0.2,0.6-0.4,1.2-0.4,1.8s0.1,1.2,0.4,1.8
						c0.2,0.6,0.6,1.1,1,1.5c0.4,0.4,0.9,0.7,1.5,1c0.6,0.2,1.2,0.4,1.8,0.4c0.6,0,1.1-0.1,1.6-0.3c0.5-0.2,1-0.5,1.4-0.8
						C145.4,243.8,145.7,243.7,146,243.7z"/>
					<path fill="#6C8538" d="M152.3,246.5c0,0.4-0.1,0.7-0.4,1c-0.3,0.3-0.6,0.4-1,0.4c-0.4,0-0.7-0.1-1-0.4c-0.3-0.3-0.4-0.6-0.4-1
						v-18.3c0-0.4,0.1-0.7,0.4-1c0.3-0.3,0.6-0.4,1-0.4s0.7,0.1,1,0.4c0.3,0.3,0.4,0.6,0.4,1v6.3c1.2-0.9,2.5-1.4,4.1-1.4
						c0.9,0,1.8,0.2,2.6,0.5c0.8,0.4,1.6,0.9,2.2,1.5c0.6,0.6,1.1,1.3,1.5,2.2c0.4,0.8,0.6,1.7,0.6,2.7v6.5c0,0.4-0.1,0.7-0.4,1
						c-0.3,0.3-0.6,0.4-1,0.4s-0.7-0.1-1-0.4c-0.3-0.3-0.4-0.6-0.4-1V240c0-0.6-0.1-1.1-0.3-1.6c-0.2-0.5-0.5-0.9-0.9-1.3
						c-0.4-0.4-0.8-0.7-1.3-0.9s-1-0.3-1.6-0.3c-0.6,0-1.1,0.1-1.6,0.3c-0.5,0.2-0.9,0.5-1.3,0.9c-0.4,0.4-0.7,0.8-0.9,1.3
						c-0.2,0.5-0.3,1-0.3,1.6V246.5z"/>
					<path fill="#6C8538" d="M176.6,243.7c0.4,0,0.7,0.1,1,0.4c0.3,0.3,0.4,0.6,0.4,1c0,0.4-0.1,0.7-0.4,1c-1.4,1.2-3,1.8-4.8,1.8
						c-2,0-3.8-0.7-5.2-2.2s-2.2-3.2-2.2-5.2s0.7-3.8,2.2-5.2s3.2-2.2,5.2-2.2c2,0,3.8,0.7,5.2,2.2c0.7,0.7,1.3,1.5,1.6,2.4
						c0.4,0.9,0.5,1.8,0.5,2.8c0,0.4-0.1,0.7-0.4,1c-0.3,0.3-0.6,0.4-1,0.4h-10.4c0.1,0.5,0.4,0.9,0.7,1.3c0.3,0.4,0.6,0.7,1,1
						c0.4,0.3,0.8,0.5,1.3,0.7c0.5,0.2,1,0.2,1.5,0.2c0.6,0,1.1-0.1,1.6-0.3c0.5-0.2,0.9-0.4,1.3-0.8
						C176,243.9,176.3,243.8,176.6,243.7z M177.2,239.1c-0.2-0.5-0.4-0.9-0.7-1.3c-0.3-0.4-0.6-0.7-1-1c-0.4-0.3-0.8-0.5-1.3-0.7
						c-0.5-0.2-1-0.2-1.5-0.2s-1,0.1-1.5,0.2s-0.9,0.4-1.3,0.7c-0.4,0.3-0.7,0.6-1,1c-0.3,0.4-0.5,0.8-0.6,1.3H177.2z"/>
					<path fill="#6C8538" d="M193.5,243.7c0.4,0,0.7,0.1,1,0.4c0.3,0.3,0.4,0.6,0.4,1c0,0.4-0.1,0.7-0.4,1c-1.4,1.2-3,1.8-4.8,1.8
						c-2,0-3.8-0.7-5.2-2.2s-2.2-3.2-2.2-5.2s0.7-3.8,2.2-5.2s3.2-2.2,5.2-2.2c2,0,3.8,0.7,5.2,2.2c0.7,0.7,1.3,1.5,1.6,2.4
						c0.4,0.9,0.5,1.8,0.5,2.8c0,0.4-0.1,0.7-0.4,1c-0.3,0.3-0.6,0.4-1,0.4h-10.4c0.1,0.5,0.4,0.9,0.7,1.3c0.3,0.4,0.6,0.7,1,1
						c0.4,0.3,0.8,0.5,1.3,0.7c0.5,0.2,1,0.2,1.5,0.2c0.6,0,1.1-0.1,1.6-0.3c0.5-0.2,0.9-0.4,1.3-0.8
						C192.9,243.9,193.2,243.8,193.5,243.7z M194.1,239.1c-0.2-0.5-0.4-0.9-0.7-1.3c-0.3-0.4-0.6-0.7-1-1c-0.4-0.3-0.8-0.5-1.3-0.7
						c-0.5-0.2-1-0.2-1.5-0.2s-1,0.1-1.5,0.2s-0.9,0.4-1.3,0.7c-0.4,0.3-0.7,0.6-1,1c-0.3,0.4-0.5,0.8-0.6,1.3H194.1z"/>
					<path fill="#6C8538" d="M201.8,240.9c-0.8-0.3-1.4-0.6-1.7-1h0c-0.7-0.7-1-1.5-1-2.4c0-0.7,0.2-1.3,0.5-1.8
						c0.4-0.5,0.8-1,1.4-1.4s1.2-0.7,1.9-0.9c0.7-0.2,1.4-0.3,2.2-0.3c2.2,0,4.1,0.9,5.7,2.7c0.2,0.2,0.3,0.5,0.3,0.8
						c0,0.4-0.1,0.7-0.4,1c-0.3,0.3-0.6,0.4-1,0.4c-0.3,0-0.5-0.1-0.7-0.2c-0.2-0.2-0.4-0.3-0.6-0.5c-0.9-0.9-2-1.3-3.3-1.3
						c-1.3,0-2.3,0.4-3,1.2c-0.1,0.1-0.2,0.3-0.2,0.6s0.1,0.4,0.3,0.5l6.2,2c0.9,0.3,1.4,0.7,1.7,1h0c0.7,0.7,1,1.5,1,2.4
						c0,0.7-0.2,1.3-0.5,1.8c-0.4,0.5-0.8,1-1.4,1.4c-0.6,0.4-1.2,0.7-1.9,0.9s-1.4,0.3-2.1,0.3c-2.2,0-4.1-0.9-5.7-2.6
						c-0.2-0.3-0.3-0.5-0.3-0.9c0-0.4,0.1-0.7,0.4-1c0.3-0.3,0.6-0.4,1-0.4c0.3,0,0.5,0.1,0.7,0.3c0.2,0.2,0.4,0.3,0.6,0.5
						c0.9,0.9,2,1.3,3.3,1.3c1.3,0,2.3-0.4,3-1.2c0.1-0.1,0.2-0.3,0.2-0.5c0-0.2-0.1-0.4-0.4-0.5L201.8,240.9z"/>
					<path fill="#6C8538" d="M224.4,243.7c0.4,0,0.7,0.1,1,0.4c0.3,0.3,0.4,0.6,0.4,1c0,0.4-0.1,0.7-0.4,1c-1.4,1.2-3,1.8-4.8,1.8
						c-2,0-3.8-0.7-5.2-2.2s-2.2-3.2-2.2-5.2s0.7-3.8,2.2-5.2s3.2-2.2,5.2-2.2c2,0,3.8,0.7,5.2,2.2c0.7,0.7,1.3,1.5,1.6,2.4
						c0.4,0.9,0.5,1.8,0.5,2.8c0,0.4-0.1,0.7-0.4,1c-0.3,0.3-0.6,0.4-1,0.4h-10.4c0.1,0.5,0.4,0.9,0.7,1.3c0.3,0.4,0.6,0.7,1,1
						c0.4,0.3,0.8,0.5,1.3,0.7c0.5,0.2,1,0.2,1.5,0.2c0.6,0,1.1-0.1,1.6-0.3c0.5-0.2,0.9-0.4,1.3-0.8
						C223.7,243.9,224,243.8,224.4,243.7z M225,239.1c-0.2-0.5-0.4-0.9-0.7-1.3c-0.3-0.4-0.6-0.7-1-1c-0.4-0.3-0.8-0.5-1.3-0.7
						c-0.5-0.2-1-0.2-1.5-0.2s-1,0.1-1.5,0.2s-0.9,0.4-1.3,0.7c-0.4,0.3-0.7,0.6-1,1c-0.3,0.4-0.5,0.8-0.6,1.3H225z"/>
				</g>
			</g>
			<line fill="none" stroke="#6C8538" stroke-width="4" stroke-miterlimit="10" x1="268.8" y1="199" x2="833.8" y2="199"/>
		</g>
	</g>
	<g>
		<g>
			<path fill="#6C8538" d="M281.8,141.6l7.2,26.1l7.2-26.1c0.1-0.5,0.4-1,0.9-1.3c0.5-0.3,1-0.5,1.7-0.5c0.5,0,1.1,0.2,1.5,0.5
				c0.5,0.3,0.8,0.8,1,1.3l7.2,26.1l7.3-26.1c0.1-0.4,0.3-0.7,0.6-1c0.5-0.5,1.2-0.8,1.9-0.8c0.7,0,1.4,0.3,1.9,0.8
				c0.5,0.5,0.8,1.2,0.8,1.9c0,0.3-0.1,0.7-0.2,1.1l-9.6,34.7c-0.2,0.7-0.6,1.2-1.1,1.6s-1,0.6-1.7,0.6c-0.8,0-1.4-0.3-1.9-0.8
				c-0.4-0.4-0.6-0.8-0.8-1.3l-7.1-25.7l-7.1,25.6c-0.2,0.7-0.6,1.2-1.1,1.6c-0.5,0.4-1,0.6-1.7,0.6c-0.8,0-1.4-0.3-1.9-0.8
				c-0.3-0.3-0.6-0.8-0.8-1.3l-9.6-34.8c-0.1-0.4-0.2-0.7-0.2-1c0-0.7,0.3-1.4,0.8-1.9c0.5-0.5,1.2-0.8,1.9-0.8s1.4,0.3,1.9,0.8
				C281.5,140.9,281.7,141.2,281.8,141.6z"/>
			<path fill="#6C8538" d="M345,172.5c0.8,0,1.4,0.2,1.9,0.7c0.5,0.5,0.8,1.1,0.8,1.9c0,0.7-0.3,1.4-0.8,1.9
				c-2.6,2.3-5.7,3.5-9.3,3.5c-3.9,0-7.3-1.4-10.1-4.2c-2.8-2.8-4.2-6.1-4.2-10.1c0-3.9,1.4-7.3,4.2-10.1c2.8-2.8,6.1-4.2,10.1-4.2
				c3.9,0,7.2,1.4,10.1,4.2c1.4,1.4,2.4,2.9,3.1,4.6c0.7,1.7,1,3.5,1,5.5c0,0.8-0.3,1.4-0.8,1.9c-0.5,0.5-1.1,0.8-1.9,0.8H329
				c0.3,0.9,0.7,1.8,1.3,2.6c0.6,0.8,1.2,1.4,2,2c0.8,0.6,1.6,1,2.5,1.3c0.9,0.3,1.8,0.5,2.8,0.5c1.1,0,2.1-0.2,3.1-0.5
				c0.9-0.3,1.8-0.8,2.6-1.5C343.8,172.7,344.4,172.5,345,172.5z M346.2,163.6c-0.3-0.9-0.7-1.8-1.3-2.6c-0.6-0.8-1.2-1.4-2-2
				c-0.8-0.5-1.6-1-2.5-1.3c-0.9-0.3-1.8-0.5-2.8-0.5c-1,0-1.9,0.2-2.8,0.5c-0.9,0.3-1.8,0.7-2.5,1.3c-0.8,0.6-1.4,1.2-2,2
				c-0.6,0.8-1,1.6-1.2,2.6H346.2z"/>
			<path fill="#6C8538" d="M377.5,172.5c0.8,0,1.4,0.2,1.9,0.7c0.5,0.5,0.8,1.1,0.8,1.9c0,0.7-0.3,1.4-0.8,1.9
				c-2.6,2.3-5.7,3.5-9.3,3.5c-3.9,0-7.3-1.4-10.1-4.2c-2.8-2.8-4.2-6.1-4.2-10.1c0-3.9,1.4-7.3,4.2-10.1c2.8-2.8,6.1-4.2,10.1-4.2
				c3.9,0,7.2,1.4,10.1,4.2c1.4,1.4,2.4,2.9,3.1,4.6c0.7,1.7,1,3.5,1,5.5c0,0.8-0.3,1.4-0.8,1.9c-0.5,0.5-1.1,0.8-1.9,0.8h-20.1
				c0.3,0.9,0.7,1.8,1.3,2.6c0.6,0.8,1.2,1.4,2,2c0.8,0.6,1.6,1,2.5,1.3c0.9,0.3,1.8,0.5,2.8,0.5c1.1,0,2.1-0.2,3.1-0.5
				c0.9-0.3,1.8-0.8,2.6-1.5C376.3,172.7,376.9,172.5,377.5,172.5z M378.7,163.6c-0.3-0.9-0.7-1.8-1.3-2.6c-0.6-0.8-1.2-1.4-2-2
				c-0.8-0.5-1.6-1-2.5-1.3c-0.9-0.3-1.8-0.5-2.8-0.5c-1,0-1.9,0.2-2.8,0.5c-0.9,0.3-1.8,0.7-2.5,1.3c-0.8,0.6-1.4,1.2-2,2
				c-0.6,0.8-1,1.6-1.2,2.6H378.7z"/>
			<path fill="#6C8538" d="M388.3,177.8v-35.3c0-0.7,0.3-1.4,0.8-1.9c0.5-0.5,1.1-0.8,1.9-0.8c0.7,0,1.4,0.3,1.9,0.8
				c0.5,0.5,0.8,1.1,0.8,1.9v19.8l15.2-9.9c0.4-0.3,0.9-0.4,1.4-0.4c0.4,0,0.7,0.1,1,0.2c0.3,0.1,0.6,0.3,0.8,0.6
				c0.2,0.2,0.4,0.5,0.6,0.9c0.1,0.3,0.2,0.7,0.2,1c0,0.9-0.3,1.7-1,2.1l-10.6,6.9l10.9,12.3c0.5,0.5,0.7,1.2,0.7,1.9
				c0,0.4-0.1,0.7-0.2,1c-0.1,0.3-0.3,0.6-0.6,0.9s-0.5,0.4-0.8,0.6s-0.7,0.2-1,0.2c-0.7,0-1.3-0.2-1.8-0.7l-11.7-13.2l-3.1,2v9.2
				c0,0.7-0.3,1.4-0.8,1.9s-1.1,0.8-1.9,0.8c-0.7,0-1.4-0.3-1.9-0.8C388.6,179.1,388.3,178.5,388.3,177.8z"/>
			<path fill="#6C8538" d="M422,166.9c-1.6-0.6-2.7-1.2-3.4-1.9h0c-1.3-1.3-1.9-2.8-1.9-4.6c0-1.3,0.3-2.5,1-3.5s1.6-1.9,2.7-2.7
				c1.1-0.7,2.3-1.3,3.7-1.7c1.4-0.4,2.8-0.6,4.2-0.6c4.2,0,7.9,1.7,10.9,5.1c0.4,0.4,0.5,1,0.5,1.6c0,0.8-0.2,1.4-0.7,1.9
				c-0.5,0.5-1.1,0.8-1.9,0.8c-0.5,0-1-0.2-1.4-0.5c-0.4-0.3-0.7-0.6-1.1-1c-1.7-1.7-3.8-2.6-6.3-2.6c-2.4,0-4.4,0.7-5.8,2.2
				c-0.3,0.3-0.4,0.6-0.4,1.1c0,0.5,0.2,0.8,0.7,1l11.9,3.9c1.7,0.6,2.8,1.3,3.4,1.9h0c1.3,1.3,1.9,2.8,1.9,4.6c0,1.3-0.3,2.5-1,3.5
				c-0.7,1-1.6,1.9-2.7,2.7c-1.1,0.7-2.3,1.3-3.7,1.7s-2.8,0.6-4.1,0.6c-4.3,0-7.9-1.7-10.9-5.1c-0.4-0.5-0.6-1-0.6-1.7
				c0-0.8,0.2-1.4,0.7-1.9c0.5-0.5,1.1-0.8,1.9-0.8c0.6,0,1,0.2,1.4,0.5c0.4,0.3,0.7,0.6,1.1,1c1.7,1.7,3.8,2.6,6.3,2.6
				c2.4,0,4.4-0.8,5.8-2.3c0.3-0.3,0.4-0.6,0.4-1c0-0.5-0.2-0.8-0.7-1L422,166.9z"/>
		</g>
	</g>
</g>
</svg>
