<!-- Generator: Adobe Illustrator 18.0.0, SVG Export Plug-In  -->
<svg version="1.1"
	 xmlns="http://www.w3.org/2000/svg" xmlns:xlink="http://www.w3.org/1999/xlink" xmlns:a="http://ns.adobe.com/AdobeSVGViewerExtensions/3.0/"
	 x="0px" y="0px" width="108.4px" height="154.8px" viewBox="0 0 108.4 154.8" enable-background="new 0 0 108.4 154.8"
	 xml:space="preserve">
<defs>
</defs>
<g>
	
		<ellipse transform="matrix(0.9857 -0.1684 0.1684 0.9857 -15.8393 10.647)" fill="#353535" cx="54.9" cy="98.7" rx="53.5" ry="54"/>
	
		<ellipse transform="matrix(0.9857 -0.1684 0.1684 0.9857 -16.6768 10.0573)" fill="#817E7A" cx="51" cy="103.4" rx="50.9" ry="51.4"/>
	
		<ellipse transform="matrix(0.9857 -0.1684 0.1684 0.9857 -16.6768 10.0573)" fill="#353535" cx="51" cy="103.4" rx="44" ry="44.4"/>
	
		<ellipse transform="matrix(0.9857 -0.1684 0.1684 0.9857 -16.6768 10.0573)" fill="#8E8C8B" cx="51" cy="103.4" rx="30.8" ry="31.1"/>
	
		<ellipse transform="matrix(0.9857 -0.1684 0.1684 0.9857 -16.6768 10.0573)" fill="#969493" cx="51" cy="103.4" rx="28" ry="28.2"/>
	<polygon fill="#8D8E8D" points="81.4,112.3 87.4,107.5 67.1,37.3 45.4,36.8 45.4,0.9 41.3,0.8 41.1,40.6 	"/>
	<path fill="#DAD9D9" d="M19.5,0L16,110c0,0,33.8,27.8,65.4,2.3L62,41.4l-22.6-1l0.5-39.6L19.5,0z"/>
	
		<ellipse transform="matrix(0.9857 -0.1684 0.1684 0.9857 -16.6768 10.0573)" fill="#96918C" cx="51" cy="103.4" rx="14" ry="14.2"/>
	
		<ellipse transform="matrix(0.9857 -0.1684 0.1684 0.9857 -16.6768 10.0573)" fill="#393939" cx="51" cy="103.4" rx="12.1" ry="12.2"/>
</g>
</svg>
