<!-- Generator: Adobe Illustrator 18.0.0, SVG Export Plug-In  -->
<svg version="1.1"
	 xmlns="http://www.w3.org/2000/svg" xmlns:xlink="http://www.w3.org/1999/xlink" xmlns:a="http://ns.adobe.com/AdobeSVGViewerExtensions/3.0/"
	 x="0px" y="0px" width="158.6px" height="48.3px" viewBox="0 0 158.6 48.3" enable-background="new 0 0 158.6 48.3"
	 xml:space="preserve">
<defs>
</defs>
<path fill="#2A3A8D" stroke="#2A3A8D" stroke-width="7.748" stroke-miterlimit="10" d="M79.3,3.9c10.6,0.2,21,1.7,31.1,4.7
	c15.2,4.5,28.6,12,40.2,22.4c1.1,1,2.3,2.1,3.1,3.3c1.9,2.8,1.1,6.5-1.6,8.5c-2.7,2.1-6.7,1.9-9.2-0.4c-5.7-5.4-12.1-10.1-19.1-13.9
	c-7.4-4-15.2-6.9-23.5-8.8c-8.9-2-17.9-2.7-27.1-2.1c-7,0.4-13.8,1.7-20.5,3.6c-9,2.7-17.4,6.6-25.1,11.8c-4.2,2.8-8.1,6-11.8,9.5
	c-2.7,2.6-7.2,2.7-9.8,0.2c-2.8-2.6-2.9-6.8-0.1-9.5c4.7-4.5,9.8-8.6,15.4-12.1c7.3-4.7,15.2-8.5,23.6-11.3C51.7,7.4,58.7,5.7,66,5
	C70.4,4.5,74.8,4.2,79.3,3.9z"/>
</svg>
