<!-- Generator: Adobe Illustrator 18.0.0, SVG Export Plug-In  -->
<svg version="1.1"
	 xmlns="http://www.w3.org/2000/svg" xmlns:xlink="http://www.w3.org/1999/xlink" xmlns:a="http://ns.adobe.com/AdobeSVGViewerExtensions/3.0/"
	 x="0px" y="0px" width="575.2px" height="413.5px" viewBox="0 0 575.2 413.5" enable-background="new 0 0 575.2 413.5"
	 xml:space="preserve">
<defs>
</defs>
<g>
	<path fill="#020E4C" d="M309.5,0c4.9,0.6,9.7,1.3,14.6,1.8C398,8.6,465.1,34,525.1,78.4c17.5,12.9,33.6,27.7,50.1,41.4
		c-14.4,14.6-27.8,28.2-41.2,41.8C465.4,94.4,383.4,58.3,287.2,58.4c-96,0.1-177.8,36.1-247.4,104.3C26.6,149,13.3,135.2,0,121.5
		c0-0.3,0-0.6,0-1c1.3-1.1,2.7-2.2,4-3.3c15.3-13,29.8-27,45.9-38.9C109.8,34,176.9,8.6,250.8,1.8c4.9-0.4,9.7-1.2,14.6-1.8
		C280.1,0,294.8,0,309.5,0z"/>
	<path fill="#020E4C" d="M453,243.3c-88.5-91.6-241.2-93.1-331.3,0.1c-13.3-13.5-26.6-26.9-39.9-40.4
		c102.6-110.9,294.9-121.3,411.3-0.2C479.9,216.3,466.5,229.7,453,243.3z"/>
	<path fill="#020E4C" d="M202.3,326.1c-13.6-13.8-26.8-27.2-40-40.6c60.4-66.2,177.6-75.8,250.3-0.5c-13.3,13.5-26.5,27-40.2,40.9
		c-23.4-23-51.7-35.6-84.8-35.6C254.5,290.2,226.2,302.7,202.3,326.1z"/>
	<path fill="#020E4C" d="M287.4,413.5c18.1-18.4,36.2-36.8,54.2-55c-14-13.7-33.1-22-54-21.7c-21.1,0.2-40.1,8.5-54,22.1
		C251.4,376.9,269.4,395.2,287.4,413.5z"/>
</g>
</svg>
