<!-- Generator: Adobe Illustrator 18.0.0, SVG Export Plug-In  -->
<svg version="1.1"
	 xmlns="http://www.w3.org/2000/svg" xmlns:xlink="http://www.w3.org/1999/xlink" xmlns:a="http://ns.adobe.com/AdobeSVGViewerExtensions/3.0/"
	 x="0px" y="0px" width="203.9px" height="63.8px" viewBox="0 0 203.9 63.8" enable-background="new 0 0 203.9 63.8"
	 xml:space="preserve">
<defs>
</defs>
<g>
	<path fill="#2A3A8D" d="M40.4,17.4c-0.9,5.1-1.8,10.1-2.8,15.1c-1.7,8-3.5,16-5.2,24c-0.4,2.1-0.9,4.1-1.4,6.1c-0.1,0.4-0.6,1-1,1
		c-4.9,0.1-9.8,0.1-14.8,0.1C10.1,42.7,5.1,21.6,0,0.5c5.1,0,10.1,0,15.3,0c2.9,16,5.8,32,8.7,48.2c3.2-16.1,6.4-32.1,9.6-48.2
		c5.2,0,10.1,0,15.4,0c2.9,15.9,5.8,31.8,8.8,47.9c0.4-2.6,0.8-5,1.2-7.5c1.9-10.2,3.8-20.4,5.7-30.5c0.5-2.9,1.1-5.7,1.6-8.5
		c0.2-1.1,0.7-1.5,1.9-1.5c4.2,0.1,8.4,0,12.8,0c-0.6,2.4-1.1,4.7-1.7,7C77,15.6,74.9,24,72.8,32.4c-2,7.9-4.1,15.9-6.2,23.8
		c-0.5,2-1.1,4.1-1.5,6.1c-0.2,1.2-0.8,1.5-1.9,1.5c-4.1-0.1-8.1-0.1-12.2,0c-1.5,0.1-1.9-0.5-2.1-1.8c-1.2-6.2-2.5-12.4-3.6-18.6
		c-1.5-8-2.8-16-4.2-23.9c-0.1-0.7-0.2-1.4-0.2-2.1C40.7,17.4,40.6,17.4,40.4,17.4z"/>
	<path fill="#2A3A8D" d="M156.7,11.7c0,4.8,0,9.3,0,13.9c0,1.2,0.9,0.9,1.5,0.9c6.4,0,12.7,0,19.1,0c2.2,0,2.2,0,2.2,2.2
		c0,2.5,0,5,0,7.5c0,0.5-0.1,1.1-0.1,1.8c-7.6,0-15,0-22.6,0c0,8.5,0,16.9,0,25.5c-4.9,0-9.5,0-14.3,0c0-21.1-0.1-42.1-0.1-63.2
		c12.8,0,25.7,0,38.6-0.1c0,3.8,0,7.6,0,11.5C172.9,11.7,164.9,11.7,156.7,11.7z"/>
	<path fill="#2A3A8D" d="M99.7,63.7c-2.7,0-5.3,0-7.9,0c-1.6,0-3.2-0.1-4.8,0c-1.1,0.1-1.5-0.5-1.4-1.9c0-0.1,0-0.1,0-0.2
		c0-19.6,0-39.2-0.1-58.8c0-2.1,0.4-2.5,1.9-2.5c4,0.1,8,0,12.2,0C99.7,21.4,99.7,42.3,99.7,63.7z"/>
	<path fill="#2A3A8D" d="M203.9,63.5c-1.8,0-3.6,0-5.4,0c-2.4,0-4.8-0.1-7.2,0.1c-1.1,0.1-1.5-0.5-1.5-2c0-5.5,0-11.1,0-16.6
		c0-14.1-0.1-28.3-0.1-42.4c0-0.8,0-1.5,0-2.4c4.7,0,9.3,0,14.1,0C203.8,21,203.9,42.1,203.9,63.5z"/>
	<path fill="#2A3A8D" d="M133.1,34.3c0,2.9,0,5.6,0,8.4c0,1.1-0.8,0.9-1.5,0.9c-4.5,0-9,0-13.5,0c-2.7,0-5.4,0-8.1,0
		c-1,0-1.4-0.3-1.4-1.4c0.1-2.6,0-5.2,0-7.9C116.8,34.3,124.8,34.3,133.1,34.3z"/>
</g>
</svg>
