<!-- Generator: Adobe Illustrator 18.0.0, SVG Export Plug-In  -->
<svg version="1.1"
	 xmlns="http://www.w3.org/2000/svg" xmlns:xlink="http://www.w3.org/1999/xlink" xmlns:a="http://ns.adobe.com/AdobeSVGViewerExtensions/3.0/"
	 x="0px" y="0px" width="100.9px" height="160.9px" viewBox="0 0 100.9 160.9" enable-background="new 0 0 100.9 160.9"
	 xml:space="preserve">
<defs>
</defs>
<g>
	<path fill="none" stroke="#E4BE22" stroke-width="2.3451" stroke-miterlimit="10" stroke-dasharray="8.2079,3.5177" d="M90.4,57
		H80.4v-3.8h-6.3V37.6h-0.4L69,23.7H32.8L28,37.6h-0.5v15.6h-6.5V57l-8.4,0L1.2,124.6L3,159.7H30l1-7.2c19.2,7.7,36.9,1.3,38.5,0.7
		l1.5,6.6h26.9l1.8-35.1L90.4,57z M30.9,152.4"/>
	<path fill="none" stroke="#E4BE22" stroke-width="2.3451" stroke-miterlimit="10" stroke-dasharray="8.2079,3.5177" d="M28.3,13.9
		c28.9-7.9,44.4-0.4,44.4-0.4l9.6,43h8.2c0,0-10.5-48.1-11.4-50.2C47.9-5.4,22.1,6.6,22.1,6.6L12.6,57l6.9,0
		C19.4,56.9,27.1,17.4,28.3,13.9z"/>
</g>
</svg>
