<!-- Generator: Adobe Illustrator 18.0.0, SVG Export Plug-In  -->
<svg version="1.1"
	 xmlns="http://www.w3.org/2000/svg" xmlns:xlink="http://www.w3.org/1999/xlink" xmlns:a="http://ns.adobe.com/AdobeSVGViewerExtensions/3.0/"
	 x="0px" y="0px" width="124.3px" height="188.4px" viewBox="0 0 124.3 188.4" enable-background="new 0 0 124.3 188.4"
	 xml:space="preserve">
<defs>
</defs>
<g id="item_1_">
	<path fill="#21BFCE" d="M22.7,71.2v-4.3h67.3v4.3h11.5l10.5,76.8c0,0-17,30.1-55.9,30.1S0,148,0,148l13.1-76.9L22.7,71.2z"/>
	<polygon fill="#8E8E8E" points="111.9,58.1 26.5,58.1 13,71.2 101.4,71 	"/>
	<polygon fill="#008080" points="47.3,128.5 65.9,128.5 73.6,162.8 37.8,162.8 	"/>
	<path fill="#2C2C2E" d="M73.1,163.4l3,10.9c0,0-20.4,6.8-41.5-0.4c0.4-1.1,3.2-10.4,3.2-10.4H73.1z"/>
	<path fill="#121213" d="M34.6,173.4c0,0,19.4,6.9,41.7,0.5c0.5,2,1.4,6.4,1.4,6.4s-21.6,8.6-44.5-0.7
		C33.5,178.1,34.6,173.4,34.6,173.4z"/>
	<path fill="#2A2A2C" d="M0,148l2.1,39.8h30.6l1.9-14.5C34.6,173.4,13.8,167.9,0,148z"/>
	<path fill="#2A2A2C" d="M111.9,148l-2.1,39.8H79.2l-3.1-14.1C76.1,173.8,97.7,169.2,111.9,148z"/>
	<rect x="35.6" y="49.1" fill="#B7B7B7" width="47.2" height="18"/>
	<polygon fill="#014240" points="47.2,128 52.5,128 43,161.7 37.8,161.7 	"/>
	<polygon fill="#F3F3F3" points="35.6,51.4 40.9,34.4 77.7,34.4 82.8,51.4 	"/>
	<polygon fill="#121213" points="44.1,157.8 72.3,157.8 73.1,161.7 37.8,161.7 	"/>
	<path fill="#FFFFFF" d="M15.1,69.1l10.8-57.2c0,0,29.3-13.2,64.7,0.1c1,2.4,12.9,57.4,12.9,57.4h-9.3L83.3,20.1
		c0,0-17.7-8.7-50.5,0.3c-1.3,3.9-10,48.8-10,48.8L15.1,69.1z"/>
	<g>
		<polygon fill="#FFFFFF" points="48.8,157.4 62.7,157.4 67.2,178.4 44.1,178.4 		"/>
		<path fill="#C6C5C5" d="M56,169.3L56,169.3c-3.1,0-5.7-2.6-5.7-5.7l0,0c0-3.1,2.6-5.7,5.7-5.7h0c3.1,0,5.7,2.6,5.7,5.7l0,0
			C61.7,166.7,59.1,169.3,56,169.3z"/>
		<path fill="#777777" d="M56,179.3L56,179.3c-1.1,0-2-0.9-2-2v-3.2c0-1.1,0.9-2,2-2h0c1.1,0,2,0.9,2,2v3.2
			C57.9,178.4,57.1,179.3,56,179.3z"/>
	</g>
	<path fill="#A09F9F" d="M25.9,11.8l10.6-8.3c0,0,21.6-8.6,59.4,0.8c-2.6,3.8-5.3,7.3-5.3,7.3S60,2.5,25.9,11.8z"/>
	<polygon fill="#A09F9F" points="95.8,4.4 110.2,60.7 103.5,68.9 90.6,11.8 	"/>
	<path fill="#848484" d="M101.4,71l10.5-12.9l12.4,74.7c0,0-5.9,10.8-12.6,14.5C110.9,141.1,101.4,71,101.4,71z"/>
	<path fill="#0F0F10" d="M124.3,132.8l-0.3,36l-14.1,17.4l2-38.3C111.9,148,119.8,140.9,124.3,132.8z"/>
	<polygon fill="#C1C1C0" points="27.2,63.5 35.6,19.6 32.9,20.3 22.7,69.1 	"/>
	<polygon fill="#9D9D9D" points="40.9,33.1 45.9,29.4 81,29.4 77.7,33.1 	"/>
	<polygon fill="#9D9D9D" points="81,29.4 86.2,46.5 86.6,61.1 82.8,67.1 82.8,50 77.7,33.1 	"/>
	<polygon fill="#BCBCBC" points="48.7,155.4 51.8,151.9 65.4,151.9 62.7,155.4 	"/>
	<polygon fill="#969696" points="65.4,151.9 69.5,169.6 67.2,176 62.7,155.4 	"/>
</g>
</svg>
