<!-- Generator: Adobe Illustrator 18.0.0, SVG Export Plug-In  -->
<svg version="1.1"
	 xmlns="http://www.w3.org/2000/svg" xmlns:xlink="http://www.w3.org/1999/xlink" xmlns:a="http://ns.adobe.com/AdobeSVGViewerExtensions/3.0/"
	 x="0px" y="0px" width="46.7px" height="96.5px" viewBox="0 0 46.7 96.5" enable-background="new 0 0 46.7 96.5"
	 xml:space="preserve">
<defs>
</defs>
<g>
	<rect x="0" y="0" fill="#E9C2A0" width="46.7" height="96.5"/>
	<rect x="0.2" y="0" fill="#C3E3EC" width="46.6" height="32.1"/>
	<path fill="#BE202E" d="M20.9,9c1.5,0,3,0,4.4,0c0.1,0,0.3,0.3,0.3,0.5c0,1.1,0.1,2.3,0,3.4c0,0.7,0.2,0.8,0.9,0.8
		c1.3,0,2.6,0,3.9,0c0,1.6,0,3.1,0,4.7c-1.3,0-2.5,0-3.7,0c-1.2,0-1-0.1-1,1c0,1.2,0,2.4,0,3.7c-1.6,0-3.1,0-4.7,0
		c0-0.2,0-0.4,0-0.7c0-1.1,0-2.2,0-3.3c0-0.6-0.1-0.8-0.7-0.8c-1.3,0-2.7,0-4.1,0c0-1.6,0-3.1,0-4.7c1.6,0,3.1,0,4.8,0
		C20.9,12.1,20.9,10.6,20.9,9z"/>
	<ellipse fill="#231F20" cx="33.1" cy="43.5" rx="2.3" ry="2.3"/>
	<ellipse fill="#FFFFFF" cx="32.4" cy="42.8" rx="0.9" ry="0.9"/>
	<ellipse fill="#231F20" cx="13.5" cy="43.5" rx="2.3" ry="2.3"/>
	<ellipse fill="#FFFFFF" cx="12.8" cy="42.8" rx="0.9" ry="0.9"/>
	<path d="M34.8,36.6c-0.9,0-1.8,0-2.6,0c-0.8,0-1.4-0.5-1.3-1.2c0-0.7,0.5-1.2,1.3-1.2c1.8,0,3.6,0,5.4,0c0.8,0,1.3,0.5,1.3,1.2
		c0,0.7-0.5,1.2-1.3,1.2C36.6,36.6,35.7,36.6,34.8,36.6z"/>
	<path d="M11.7,36.6c-0.8,0-1.7,0-2.5,0c-0.8,0-1.4-0.5-1.4-1.2c0-0.7,0.5-1.2,1.4-1.2c1.8,0,3.5,0,5.3,0c0.9,0,1.4,0.5,1.4,1.2
		c0,0.7-0.5,1.2-1.3,1.2C13.6,36.6,12.7,36.6,11.7,36.6L11.7,36.6z"/>
	<path fill="#8A5E3C" d="M23.4,77.1C8.1,77.1,2.3,64.6,1.5,55.4c-0.2-2-0.1-1.6,1.5-1.6c13.8,0,27.7,0,41.5,0c0.3,0,0.6,0,0.9,0
		C45.8,63.9,37.3,77.1,23.4,77.1z"/>
	<path fill="#E8C19F" d="M23.3,73.9C12.6,73.9,5.5,64.7,4.9,58c-0.1-1.6-0.1-1.3,1.2-1.3c11.6,0,23.3,0,34.9,0c0.3,0,0.5,0,0.8,0
		C41.6,63.8,33.9,73.9,23.3,73.9z"/>
	<path fill="#FFFFFF" d="M23.3,69.8c-7.8,0-13-7-13.4-12.1c-0.1-1.2-0.1-1,0.9-1c8.5,0,16.9,0,25.4,0c0.2,0,0.4,0,0.6,0
		C36.6,62.1,31,69.8,23.3,69.8z"/>
	<rect x="22.2" y="69.8" fill="#8A5E3C" width="3" height="7.2"/>
</g>
</svg>
