<!-- Generator: Adobe Illustrator 18.0.0, SVG Export Plug-In  -->
<svg version="1.1"
	 xmlns="http://www.w3.org/2000/svg" xmlns:xlink="http://www.w3.org/1999/xlink" xmlns:a="http://ns.adobe.com/AdobeSVGViewerExtensions/3.0/"
	 x="0px" y="0px" width="194.9px" height="191.9px" viewBox="0 0 194.9 191.9" enable-background="new 0 0 194.9 191.9"
	 xml:space="preserve">
<defs>
</defs>
<g>
	<path fill="#E8C19F" d="M20.3,37.2c13.1,0.4,26.3,0.1,39.5,0.3c3.1,0,6.1,0.3,9.8,0.6c1.2,0.1,2.1,1,2.1,2.1v43.1l0,0
		c0,13.3-0.3,78.9,0.1,91.1c0.3,8.6,8.3,15.4,18.5,14.4c8.8-0.8,14.7-5.9,14.8-14.6c0.1-6.7,0.1-28.5,0.1-49.3
		c0.1-0.1,0.2-0.1,0.3-0.2c6.1,7.3,13.6,7.1,16.9,7.1c6.1,0,14.8-5.4,16.3-15.9c0.1-0.4,0.7-0.5,0.9-0.2c7,10.3,27.1,11.5,31-8
		c0-0.1,0.1-0.2,0.2-0.3c2.1-0.9,4.1,5,9.5,4.7c4.3-0.2,11.4,0.1,11.6-18c0.2-20.6,0-41.9,0-63.9c0-16.9-9-26.9-26.6-27
		C117.1,2.8,68.8,2.9,20.6,3.1C9.8,3.1,2.7,10.6,2.8,20.4C2.9,30.1,9.5,36.8,20.3,37.2z"/>
	<g>
		<path fill="#FFFFFF" d="M20.3,40.1c14.2,0.4,28.4-0.3,42.5,0.4c0.8,0,6,0.8,6-0.1c0,0.6,0,1.1,0,1.7c0,2.6,0,5.3,0,7.9
			c0,11.1,0,22.2,0,33.3c1-1,1.9-1.9,2.9-2.9l0,0c-1.6,0-2.9,1.3-2.9,2.9c0,29.2-0.4,58.5,0,87.8c0.1,7.4,2.1,13.3,8.5,17.7
			c7.5,5.1,18.4,3.6,25.2-1.8c6.6-5.3,5.5-15,5.5-22.5c0.1-13.2,0-26.4,0-39.5c-0.5,0.8-1,1.7-1.4,2.5c0.1-0.1,0.2-0.1,0.3-0.2
			c-1.2-0.2-2.3-0.3-3.5-0.5c5.3,5.9,13.5,9.2,21.5,7.7c3.7-0.7,6.9-2.5,9.8-5c1.8-1.5,3.1-3.5,4.3-5.5c0.6-1,1-2.1,1.4-3.1
			c0.2-0.4,0.5-3.2,0.7-3.3c-0.9,0.2-1.9,0.5-2.8,0.7c-1.5-0.6-0.2,0.3,0.3,0.9c0.6,0.7,1.2,1.3,1.9,1.9c1.3,1.2,2.8,2.1,4.4,2.8
			c3.5,1.7,7.4,2.3,11.3,1.9c8.8-0.9,14.6-7.8,16.8-15.9c-0.6,2-3.6-0.9-1.1,1.4c0.6,0.6,1.3,1.2,2,1.7c1.5,1.1,3.3,2,5.2,2
			c2.5,0.1,5.2-0.1,7.5-1.1c8-3.4,8.1-14.4,8.2-21.6c0.2-16,0-32.1,0-48.1c0-11.2,1.4-23.5-5.4-33.1c-5.5-7.8-15-10.4-24.1-10.7
			c-16.5-0.4-33-0.2-49.6-0.3c-17.2,0-34.4,0-51.5,0c-8.6,0-17.2,0-25.8,0.1c-7.5,0-15.4-0.7-22.8,0.6C5,2.6-1,13,0.1,23
			C1.2,33.7,10.3,39.5,20.3,40.1c3.7,0.2,3.7-5.6,0-5.8C14.4,33.9,9,31.6,6.7,25.8c-2.3-5.7-0.5-12.3,3.9-16.4
			c5.1-4.7,13.7-3.3,20-3.4c8.6,0,17.2-0.1,25.8-0.1c33-0.1,66.1-0.1,99.1,0.2c11.4,0.1,24.3-0.8,30.7,10.5
			c2.7,4.7,2.9,10.4,2.9,15.6c0,8.5,0,17,0.1,25.6c0,7.7,0.1,15.4,0,23.1c0,7.3,0.7,15.2-1.1,22.3c-0.7,2.9-2.2,5.1-5.1,5.8
			c-3.8,0.9-5.8-1.2-8.6-3.4c-2-1.5-5.8-1.9-6.5,1.3c-1.1,4.9-3.2,9.2-7.7,11.8c-3.4,1.9-7.6,1.7-11.2,0.5c-3.9-1.2-5.5-5.2-9-6.5
			c-0.9-0.4-2.1,0.1-2.8,0.7c-2.1,2-2.1,6.1-3.6,8.7c-1.7,3-4.8,5.2-8,6.3c-6.4,2.2-13.5-1.1-17.8-5.8c-0.9-1-2.4-1-3.5-0.5
			c-0.1,0.1-0.2,0.1-0.3,0.2c-0.9,0.4-1.4,1.5-1.4,2.5c0,11.8,0,23.6,0,35.4c0,7.1,1.8,17.2-3.9,22.5c-7.4,7-21.2,2.6-23.6-6.8
			c-1.1-4.2-0.3-9.5-0.3-13.8c-0.2-26.3,0.1-52.6,0.1-78.9c-1,1-1.9,1.9-2.9,2.9l0,0c1.6,0,2.9-1.3,2.9-2.9c0-12.4,0-24.8,0-37.2
			c0-5.7,0.5-10.4-6.8-11c-15.8-1.3-31.7-0.3-47.5-0.7C16.5,34.2,16.5,40,20.3,40.1z"/>
	</g>
</g>
</svg>
