<!-- Generator: Adobe Illustrator 18.0.0, SVG Export Plug-In  -->
<svg version="1.1"
	 xmlns="http://www.w3.org/2000/svg" xmlns:xlink="http://www.w3.org/1999/xlink" xmlns:a="http://ns.adobe.com/AdobeSVGViewerExtensions/3.0/"
	 x="0px" y="0px" width="291.4px" height="215.9px" viewBox="0 0 291.4 215.9" enable-background="new 0 0 291.4 215.9"
	 xml:space="preserve">
<defs>
</defs>
<g>
	<path fill="#FFFFFF" d="M153.6,108.4c0,30.7,0,61.3,0,92c0,1.3,0,2.7,0,4c0,4.7-1.4,8.5-6,10.6c-4.6,2.1-8.4,0.5-11.9-2.6
		c-11.8-10.3-23.7-20.5-35.5-30.7c-8.9-7.7-17.8-15.6-26.9-23.1c-1.8-1.5-4.7-2.6-7-2.6c-17.8-0.2-35.7-0.1-53.5-0.1
		C3.5,155.8,0,152.2,0,143c0-23.7,0-47.3,0-71c0-9.3,3.4-12.7,12.7-12.7c17.7,0,35.3-0.1,53,0.1c3.9,0,6.9-1.1,9.8-3.7
		C95.2,38.5,115,21.5,134.8,4.3c3.7-3.2,7.5-5.7,12.6-3.5c5.3,2.3,6.2,6.9,6.2,12C153.5,44.7,153.6,76.5,153.6,108.4z"/>
	<g>
		<path fill="#FFFFFF" d="M271.5,110.3c-0.2-35-10-64.5-29.6-90.6c-5.4-7.2-5.7-13.1-0.6-17.1c5.3-4.1,10.8-2.5,16.3,4.8
			c45.3,59.3,45,142.5-0.8,202.1c-4.3,5.6-10.4,6.9-15.1,3.2c-4.7-3.6-5.2-9.4-0.9-15c16.4-21.4,26.3-45.4,29.6-72.1
			C271.1,119.7,271.3,113.8,271.5,110.3z"/>
		<path fill="#FFFFFF" d="M234.9,107.9c-0.3-22.9-6.8-44-19.9-63.1c-1.7-2.5-3.3-5.6-3.5-8.5c-0.3-4.3,2.3-7.5,6.6-9
			c4.7-1.7,8.9-0.2,11.4,3.8c5.6,9.4,12,18.6,15.9,28.7c16.6,43,11.7,83.9-13.9,122.3c-1.7,2.6-4.6,5-7.4,6.1
			c-3.8,1.5-7.6,0-10.2-3.5c-2.8-3.8-2.6-7.6-0.3-11.7c4.4-7.6,9.1-15.1,12.8-23.1C232.4,136.7,234.7,122.6,234.9,107.9z"/>
		<path fill="#FFFFFF" d="M215.8,107.9c-0.3,16.3-4.3,31.6-12.5,45.6c-3.9,6.6-9.5,8.6-14.9,5.4c-5.2-3.1-6.1-8.8-2.5-15.3
			c13.5-24.3,13.4-48.5-0.6-72.6c-3.4-5.9-2.4-11.8,2.5-14.9c5.1-3.2,10.7-1.5,14.4,4.3C210.6,73.4,215.8,91.7,215.8,107.9z"/>
	</g>
</g>
</svg>
