<!-- Generator: Adobe Illustrator 18.0.0, SVG Export Plug-In  -->
<svg version="1.1"
	 xmlns="http://www.w3.org/2000/svg" xmlns:xlink="http://www.w3.org/1999/xlink" xmlns:a="http://ns.adobe.com/AdobeSVGViewerExtensions/3.0/"
	 x="0px" y="0px" width="138.1px" height="45.6px" viewBox="0 0 138.1 45.6" enable-background="new 0 0 138.1 45.6"
	 xml:space="preserve">
<defs>
</defs>
<g id="start_1_">
	<g>
		<path fill="none" stroke="#D81F26" stroke-width="1.5" stroke-miterlimit="10" d="M131.2,44.9H7c-3.4,0-6.2-2.8-6.2-6.2V7
			c0-3.4,2.8-6.2,6.2-6.2h124.2c3.4,0,6.2,2.8,6.2,6.2v31.7C137.3,42.1,134.6,44.9,131.2,44.9z"/>
	</g>
	<g enable-background="new    ">
		<path fill="#BE1E2D" d="M25.2,28.1h-2.6v-9.9h-3.3v-2.1h9.1v2.1h-3.3V28.1z"/>
		<path fill="#BE1E2D" d="M36,28.1l-0.5-1.3h-0.1c-0.4,0.5-0.9,0.9-1.3,1.1c-0.4,0.2-1,0.3-1.8,0.3c-0.9,0-1.6-0.3-2.1-0.8
			s-0.8-1.2-0.8-2.2c0-1,0.3-1.7,1-2.2c0.7-0.5,1.7-0.7,3.1-0.8l1.6,0V22c0-0.9-0.5-1.4-1.4-1.4c-0.7,0-1.6,0.2-2.6,0.7l-0.8-1.7
			c1.1-0.6,2.2-0.8,3.5-0.8c1.2,0,2.2,0.3,2.8,0.8s1,1.4,1,2.5v6.2H36z M35.2,23.8l-1,0c-0.7,0-1.3,0.2-1.6,0.4s-0.5,0.6-0.5,1.1
			c0,0.7,0.4,1.1,1.2,1.1c0.6,0,1.1-0.2,1.4-0.5s0.5-0.8,0.5-1.3V23.8z"/>
		<path fill="#BE1E2D" d="M45.4,28.3c-1.1,0-1.9-0.4-2.6-1.2h-0.1c0.1,0.8,0.1,1.2,0.1,1.3v3.7h-2.5V18.9h2l0.4,1.2h0.1
			c0.6-0.9,1.5-1.4,2.6-1.4c1.1,0,1.9,0.4,2.6,1.3s0.9,2,0.9,3.5c0,1-0.1,1.8-0.4,2.6c-0.3,0.7-0.7,1.3-1.2,1.7
			C46.7,28.1,46.1,28.3,45.4,28.3z M44.7,20.7c-0.6,0-1.1,0.2-1.4,0.6c-0.3,0.4-0.4,1-0.4,1.9v0.3c0,1,0.1,1.7,0.4,2.1
			c0.3,0.4,0.8,0.6,1.4,0.6c1.1,0,1.7-0.9,1.7-2.8c0-0.9-0.1-1.6-0.4-2C45.7,21,45.2,20.7,44.7,20.7z"/>
		<path fill="#BE1E2D" d="M59.3,26.3c0.4,0,1-0.1,1.6-0.3v1.9c-0.6,0.3-1.4,0.4-2.3,0.4c-1,0-1.7-0.3-2.2-0.8
			c-0.5-0.5-0.7-1.3-0.7-2.3v-4.5h-1.2v-1.1l1.4-0.8l0.7-1.9h1.6v2h2.6v1.9h-2.6v4.5c0,0.4,0.1,0.6,0.3,0.8
			C58.7,26.2,59,26.3,59.3,26.3z"/>
		<path fill="#BE1E2D" d="M71.2,23.5c0,1.5-0.4,2.7-1.2,3.5s-1.9,1.3-3.3,1.3c-0.9,0-1.7-0.2-2.3-0.6c-0.7-0.4-1.2-0.9-1.6-1.7
			c-0.4-0.7-0.5-1.6-0.5-2.5c0-1.5,0.4-2.7,1.2-3.5c0.8-0.8,1.9-1.3,3.3-1.3c0.9,0,1.7,0.2,2.3,0.6c0.7,0.4,1.2,0.9,1.6,1.7
			S71.2,22.5,71.2,23.5z M64.8,23.5c0,0.9,0.1,1.6,0.4,2.1c0.3,0.5,0.8,0.7,1.5,0.7c0.7,0,1.2-0.2,1.4-0.7c0.3-0.5,0.4-1.2,0.4-2.1
			c0-0.9-0.1-1.6-0.4-2.1c-0.3-0.5-0.8-0.7-1.5-0.7c-0.7,0-1.2,0.2-1.5,0.7S64.8,22.6,64.8,23.5z"/>
		<path fill="#BE1E2D" d="M85,24.8c0,1.1-0.4,1.9-1.2,2.6c-0.8,0.6-1.9,0.9-3.3,0.9c-1.3,0-2.4-0.2-3.4-0.7v-2.4
			c0.8,0.4,1.5,0.6,2.1,0.8c0.6,0.1,1.1,0.2,1.5,0.2c0.6,0,1-0.1,1.3-0.3c0.3-0.2,0.5-0.5,0.5-1c0-0.2-0.1-0.4-0.2-0.6
			c-0.1-0.2-0.3-0.4-0.6-0.5c-0.3-0.2-0.8-0.4-1.6-0.8c-0.7-0.3-1.3-0.7-1.7-1c-0.4-0.3-0.7-0.7-0.9-1.1c-0.2-0.4-0.3-0.9-0.3-1.5
			c0-1.1,0.4-1.9,1.1-2.5c0.7-0.6,1.7-0.9,3-0.9c0.6,0,1.2,0.1,1.8,0.2c0.6,0.1,1.2,0.4,1.8,0.6l-0.8,2c-0.6-0.3-1.2-0.4-1.6-0.6
			c-0.4-0.1-0.8-0.2-1.2-0.2c-0.5,0-0.9,0.1-1.1,0.3c-0.3,0.2-0.4,0.5-0.4,0.9c0,0.2,0.1,0.4,0.2,0.6s0.3,0.3,0.5,0.5
			s0.8,0.4,1.6,0.8c1.1,0.5,1.9,1.1,2.3,1.6C84.7,23.3,85,24,85,24.8z"/>
		<path fill="#BE1E2D" d="M90.8,26.3c0.4,0,1-0.1,1.6-0.3v1.9c-0.6,0.3-1.4,0.4-2.3,0.4c-1,0-1.7-0.3-2.2-0.8
			c-0.5-0.5-0.7-1.3-0.7-2.3v-4.5H86v-1.1l1.4-0.8l0.7-1.9h1.6v2h2.6v1.9h-2.6v4.5c0,0.4,0.1,0.6,0.3,0.8S90.5,26.3,90.8,26.3z"/>
		<path fill="#BE1E2D" d="M100.2,28.1l-0.5-1.3h-0.1c-0.4,0.5-0.9,0.9-1.3,1.1c-0.4,0.2-1,0.3-1.8,0.3c-0.9,0-1.6-0.3-2.1-0.8
			c-0.5-0.5-0.8-1.2-0.8-2.2c0-1,0.3-1.7,1-2.2c0.7-0.5,1.7-0.7,3.1-0.8l1.6,0V22c0-0.9-0.5-1.4-1.4-1.4c-0.7,0-1.6,0.2-2.6,0.7
			l-0.8-1.7c1.1-0.6,2.2-0.8,3.5-0.8c1.2,0,2.2,0.3,2.8,0.8c0.7,0.5,1,1.4,1,2.5v6.2H100.2z M99.4,23.8l-1,0c-0.7,0-1.3,0.2-1.6,0.4
			c-0.4,0.2-0.5,0.6-0.5,1.1c0,0.7,0.4,1.1,1.2,1.1c0.6,0,1.1-0.2,1.4-0.5s0.5-0.8,0.5-1.3V23.8z"/>
		<path fill="#BE1E2D" d="M109.7,18.7c0.3,0,0.6,0,0.9,0.1l-0.2,2.4c-0.2-0.1-0.5-0.1-0.7-0.1c-0.8,0-1.4,0.2-1.9,0.6
			c-0.4,0.4-0.7,1-0.7,1.7v4.7h-2.5v-9.2h1.9l0.4,1.6h0.1c0.3-0.5,0.7-0.9,1.2-1.3C108.6,18.9,109.1,18.7,109.7,18.7z"/>
		<path fill="#BE1E2D" d="M116.1,26.3c0.4,0,1-0.1,1.6-0.3v1.9c-0.6,0.3-1.4,0.4-2.3,0.4c-1,0-1.7-0.3-2.2-0.8
			c-0.5-0.5-0.7-1.3-0.7-2.3v-4.5h-1.2v-1.1l1.4-0.8l0.7-1.9h1.6v2h2.6v1.9H115v4.5c0,0.4,0.1,0.6,0.3,0.8
			C115.5,26.2,115.7,26.3,116.1,26.3z"/>
	</g>
</g>
</svg>
