<!-- Generator: Adobe Illustrator 18.0.0, SVG Export Plug-In  -->
<svg version="1.1"
	 xmlns="http://www.w3.org/2000/svg" xmlns:xlink="http://www.w3.org/1999/xlink" xmlns:a="http://ns.adobe.com/AdobeSVGViewerExtensions/3.0/"
	 x="0px" y="0px" width="235.1px" height="357.7px" viewBox="0 0 235.1 357.7" enable-background="new 0 0 235.1 357.7"
	 xml:space="preserve">
<defs>
</defs>
<g id="student_1_">
	<defs>
		<rect id="SVGID_1_" x="175.6" y="29" width="59.5" height="92.5"/>
	</defs>
	<clipPath id="SVGID_2_">
		<use xlink:href="#SVGID_1_"  overflow="visible"/>
	</clipPath>
	<g clip-path="url(#SVGID_2_)">
		<path fill="#E8C19F" d="M89.2,290.1c16.6-50.6-15.4-79-44.3-83.9v-57c0,0,1.5-27.3-22.8-27.3c-19.4,0-22,17.5-22,25.4
			c0,12.5,2.9,77.5,7.8,107.2c13.1,78.3,57.8,103.3,116.7,103.3c85,0,104.8-86,104.8-169.5c0-26.6,0.7-56.2,0.7-88.2
			c0-40.5-3.5-62.2-23.3-62.2c-21.8-0.1-24.2,21.6-24.2,64.6c0,24.5-0.2,45.8-0.2,45.8h-1L134.3,45.9l0,100.9l-2.7-0.1l-1.5-116.1
			c0,0-1.4-30.7-24.7-30.7c-23.6,0-24,32.8-24,32.8V146l-3.1,0.1V45.9c0,0-0.3-25.5-23.6-25.5c-24.6,0-22.8,25.5-22.8,25.5l0.2,78
			c14.5,6.7,12.7,25.7,12.7,42.7v39.6C120.8,223.9,83.3,307.8,89.2,290.1z"/>
	</g>
	<ellipse clip-path="url(#SVGID_2_)" fill="#231F20" cx="216.3" cy="63.3" rx="2" ry="2.1"/>
	<ellipse clip-path="url(#SVGID_2_)" fill="#FFFFFF" cx="215.7" cy="62.7" rx="0.8" ry="0.8"/>
	<ellipse clip-path="url(#SVGID_2_)" fill="#231F20" cx="198.7" cy="63.3" rx="2" ry="2.1"/>
	<ellipse clip-path="url(#SVGID_2_)" fill="#FFFFFF" cx="198.1" cy="62.7" rx="0.8" ry="0.8"/>
	
		<line clip-path="url(#SVGID_2_)" fill="none" stroke="#231F20" stroke-width="0.8519" stroke-miterlimit="10" x1="206.2" y1="68.1" x2="208" y2="68.1"/>
	<path clip-path="url(#SVGID_2_)" d="M235.1,37.4V33h-57.9v4.4h9.1c0,0.3,0,0.5,0,0.7c0,5.3,0,11.1,0,16.4c10.9,0,32.8,0.3,39,0.3
		c0.2,0,0.4,0,0.7,0V37.4h3.3c0,0.2,0,0.4,0,0.6c0,6.4,0,12.7,0,19.1c0,0.3-0.1,0.7-0.3,0.9c-1,1.5-2,3-3,4.5
		c1.5,2.1,2.9,4.2,4.4,6.4c1.4-2.1,2.8-4.1,4.2-6.1c0.1-0.2,0.1-0.5-0.1-0.7c-0.9-1.3-1.8-2.7-2.7-4c-0.2-0.3-0.3-0.7-0.3-1.1
		c0-6.3,0-12.5,0-18.8c0-0.3,0-0.5,0-0.9H235.1z"/>
	<rect x="205.1" y="82.5" clip-path="url(#SVGID_2_)" fill="#FFFFFF" width="2.1" height="2.1"/>
	<rect x="208.9" y="82.5" clip-path="url(#SVGID_2_)" fill="#FFFFFF" width="2.1" height="2.1"/>
	
		<ellipse clip-path="url(#SVGID_2_)" fill="none" stroke="#231F20" stroke-width="0.8519" stroke-miterlimit="10" cx="197" cy="68.1" rx="9.2" ry="9.4"/>
	
		<ellipse clip-path="url(#SVGID_2_)" fill="none" stroke="#231F20" stroke-width="0.8519" stroke-miterlimit="10" cx="217.2" cy="68.1" rx="9.2" ry="9.4"/>
	<path clip-path="url(#SVGID_2_)" fill="#231F20" d="M208,96c6.1,0,6.7-7.7,7.6-14h-15.3C201.4,88.3,201.9,96,208,96z"/>
</g>
</svg>
