<!-- Generator: Adobe Illustrator 18.0.0, SVG Export Plug-In  -->
<svg version="1.1"
	 xmlns="http://www.w3.org/2000/svg" xmlns:xlink="http://www.w3.org/1999/xlink" xmlns:a="http://ns.adobe.com/AdobeSVGViewerExtensions/3.0/"
	 x="0px" y="0px" width="120.3px" height="108.3px" viewBox="0 0 120.3 108.3" enable-background="new 0 0 120.3 108.3"
	 xml:space="preserve">
<defs>
</defs>
<g>
	<path fill="#5B9344" d="M91.4,12.4c-3,2.9-5.8,5.6-8.7,8.5c-5.6-3.9-11.9-6.7-18.9-8C41.1,8.6,17.5,24,13.5,46
		C9,70,24.7,92,49.5,95.7c27,3.9,47-15.1,49.7-35.9c0.1-0.9,0.4-2,1-2.6c3.5-3.6,7.1-7.1,10.9-10.9c4.1,18.4-5,44.1-29.4,56.2
		C56.5,114.9,25,107,9.6,84.4C-6.6,60.7-1.9,30,21,12C42.7-5.1,73.4-3,91.4,12.4z"/>
	<path fill="#5B9344" d="M59.2,84c-11.4-11-23.1-22.3-34.7-33.5c4.8-4.6,9.6-9.2,14.5-13.9c6.5,6.3,13.2,12.7,19.8,19.1
		c15.9-15.3,31.4-30.3,46.7-45.1c5.2,5.1,10.1,9.9,14.7,14.3C100.1,44.4,79.6,64.3,59.2,84z"/>
</g>
</svg>
