<!-- Generator: Adobe Illustrator 18.0.0, SVG Export Plug-In  -->
<svg version="1.1"
	 xmlns="http://www.w3.org/2000/svg" xmlns:xlink="http://www.w3.org/1999/xlink" xmlns:a="http://ns.adobe.com/AdobeSVGViewerExtensions/3.0/"
	 x="0px" y="0px" width="488.6px" height="146px" viewBox="0 0 488.6 146" enable-background="new 0 0 488.6 146"
	 xml:space="preserve">
<defs>
</defs>
<g>
	<path fill="#434343" d="M481.1,39.9L435.9,40c-1.6,0-3-1-3.5-2.5v0c-1.6-4.7-5.2-8.5-9.8-10.4v0c-0.9-0.4-1.8-0.5-2.7-0.5
		c0,0-18.3,0.5-24.4,0.7c-6.4,0.3-19.3,1.1-25.7,1.5c-6,0.4-18.1,0.9-24.1,1.4c-12.8,1.1-38.2,4.1-50.9,6c-11.7,1.7-35.1,5.6-46.7,8
		c-9.4,1.9-28,6.3-37.3,8.6c-7.9,1.9-23.7,6-31.6,8.2c-8.4,2.4-25.1,7.5-33.3,10.4c-8.3,2.9-24.7,9.3-32.9,12.7
		c-8.2,3.4-24.6,10.6-32.6,14.5c-5.2,2.5-15.4,7.8-20.3,10.7c-4.5,2.7-17.4,11.7-17.4,11.7l0.7,23.6L0.8,146L0,120.7
		c0,0,0.1-7.1,10.2-16.1s71.8-43.2,101-53.3c32.8-11.4,14.9-9.7,95.2-27.4c80.5-17.7,116.4-18.6,155-21.3
		c29.6-2.1,85.5-3.9,118.6-1.1c4.6,0.4,4.5,6,4.5,6l4.1,26.1C488.6,33.6,488.7,39.6,481.1,39.9z"/>
	<path fill="#5F5F5F" d="M481.2,37.2l-38.9,0c-1.6,0-3-1.6-3.5-3.1v0c-1.6-4.7-5.2-8.5-9.8-10.4v0c-0.9-0.4-1.8-0.5-2.7-0.5
		c0,0-18.3,0.5-24.4,0.7c-6.4,0.3-19.3,1.1-25.7,1.5c-6,0.4-22.4,1-28.4,1.6c-12.8,1.1-41.4,4.2-54.1,6.1
		c-11.7,1.7-30.3,5.2-41.9,7.6c-9.4,1.9-26.4,5.9-35.7,8.2c-7.9,1.9-24.1,6.1-31.9,8.3c-8.4,2.4-25,7-33.2,9.9
		c-8.3,2.9-25.6,8.7-33.7,12.1c-8.2,3.4-23.8,9.5-31.9,13.4c-5.2,2.5-17.4,8.4-22.3,11.3c-4.5,2.7-22.5,14.1-22.5,14.1l0.8,26.8
		L0.8,146L0,120.7c0,0,0.3-7.8,15.4-20c10.5-8.5,74-42.6,102.3-52.3c33.7-11.6,15.1-9.1,95.5-26C291.7,5.9,329.1,4.3,368.3,2.1
		c29.6-1.7,79.1-3.3,112.2-0.4c4,0.3,4.5,6.7,4.6,7.8c0,0.2,0,0.4,0.1,0.7l3.2,21.3c0.2,1.4,0,2.9-0.7,4.1
		C486.7,37.1,485,37.1,481.2,37.2z"/>
	<g>
		<path d="M437.4,5.3l4.7,27.6c0.2,1,1.1,1.8,2.1,1.8l41.4,0c1.3,0,2.3-1.2,2.1-2.5l-4.6-26.8c-0.2-1-1-1.8-2.1-1.8l-41.5-0.9
			C438.2,2.8,437.2,4,437.4,5.3z"/>
		<path fill="#3E3E3E" d="M439.8,7.1l3.9,23.5c0.2,1,1.1,1.8,2.1,1.8l37.8,0.1c1.3,0,2.3-1.2,2.1-2.5l-3.8-22.7
			c-0.2-1-1-1.8-2.1-1.8L442,4.6C440.6,4.6,439.6,5.8,439.8,7.1z"/>
		<polygon fill="#464646" points="477.1,7.7 481.1,32.6 457.4,32.5 453.4,7.2 		"/>
		
			<ellipse transform="matrix(-0.9887 0.1497 -0.1497 -0.9887 932.6613 -28.6046)" fill="#464646" stroke="#2B2B2B" stroke-width="1.0665" stroke-miterlimit="10" cx="467.4" cy="20.8" rx="4" ry="5.2"/>
		<polygon fill="#464646" points="451.9,9 452.3,11.6 449.1,11.7 448.6,9.1 		"/>
		<polygon fill="#464646" points="452.2,15.6 452.6,18.2 449.4,18.3 448.9,15.7 		"/>
		<polygon fill="#464646" points="446.5,8.5 447.5,15.1 443.3,15.2 442.2,8.7 		"/>
	</g>
	<path fill="#080808" d="M97.7,56.4c7.6-3.4,14.4-6.2,20-8.1c33.7-11.6,16.2-8.3,95.5-26c50.4-11.3,84.1-15.1,112-17.5l2.5,24
		c-12.5,1.3-26.3,2.9-34.1,4.1c-11.7,1.7-30.3,5.2-41.9,7.6c-9.4,1.9-26.4,5.9-35.7,8.2c-7.9,1.9-24.1,6.1-31.9,8.3
		c-8.4,2.4-25,7-33.2,9.9c-8.3,2.9-25.6,8.7-33.7,12.1c-4.6,1.9-11.4,4.6-18,7.3L97.7,56.4z"/>
</g>
</svg>
