<!-- Generator: Adobe Illustrator 18.0.0, SVG Export Plug-In  -->
<svg version="1.1"
	 xmlns="http://www.w3.org/2000/svg" xmlns:xlink="http://www.w3.org/1999/xlink" xmlns:a="http://ns.adobe.com/AdobeSVGViewerExtensions/3.0/"
	 x="0px" y="0px" width="301.6px" height="207.3px" viewBox="0 0 301.6 207.3" enable-background="new 0 0 301.6 207.3"
	 xml:space="preserve">
<defs>
</defs>
<g>
	<g>
		<path fill="#E9EDF7" d="M52.1,72.7c0,0,6.6,44.7,9.4,59.8c3.4,17.8,15.8,72.3,15.8,72.3c0.3,1.5,1.6,2.6,3.1,2.5l130.2-15.6
			l12.6,11c0,0,30.3-6.7,39.7-10.2c9.8-3.6,32.5-7.9,38.1-18.5c0,0,2.8-40.1-2.7-83c-10.1-76.5-16.7-87.5-16.7-87.5
			C275.3,0,257-3.4,225.5,7c-13,4.2-62.2,29.1-62.2,29.1L54.4,69.2C52.8,69.6,51.8,71.2,52.1,72.7z"/>
		<path fill="#DDE0E8" d="M52,72l112.1-31.8c0,0,49.2-22.9,62.2-27.1C257.8,2.7,276.2,2,282.4,5.4l-0.9-2C275.3,0,257-3.4,225.5,7
			c-13,4.2-62.2,29.1-62.2,29.1l-109,33.1c-1.6,0.4-2.4,1.9-2.2,3.4L52,72z"/>
		<path fill="#DCE0EA" d="M227.2,36.9c23.8-7.4,46.1-8.6,61.8-4.5l-1.3-6.4c-15.3-4.3-37.6-2.8-61.4,4.7c-44,13.2-77.1,40.7-74,62.5
			c0.1,1,0.5,3.8,0.8,4.7C151.8,76,185.2,49.3,227.2,36.9z"/>
		<path fill="#5E647C" d="M298,88.9c-3.4-25.8-6.4-43.9-8.9-56.5c-15.8-4.2-37.9-2.9-61.7,4.4c-44,13-77.2,40.5-74.1,62.4
			c3.1,22.2,41.4,32.5,85.5,21.8C263.4,114.8,284.6,102.7,298,88.9z"/>
		<path fill="#E9EDF7" d="M41.3,136.3c-1.7-8.6-4.9-27.5-7.1-41c-21.7,7.1-36.5,23.9-33.9,40.2c2.6,17.3,23.1,28.8,46.7,26.6
			C44.7,152.3,42.4,141.8,41.3,136.3z"/>
		<path opacity="0.1" fill="#010101" d="M35.7,137.3c1.1,5.3,3.3,15.5,5.5,25.1c1.9,0,3.8-0.1,5.8-0.3c-2.2-9.9-4.6-20.4-5.6-25.9
			c-1.7-8.6-4.9-27.5-7.1-41c-1.9,0.6-3.7,1.3-5.5,2.1C31,110.8,34,129,35.7,137.3z"/>
		<path fill="#E9EDF7" d="M61.3,130.8C58.7,117,52.9,78.4,52,72l-18.5,5c-1.3,0.3-2.1,1.6-1.9,2.8c0,0,6.8,42.3,9.7,56.6
			c2.4,12,10.8,48.6,10.8,48.6c0.2,1.2,1.3,2,2.5,1.9l18.4-2C69,167.2,63.4,142,61.3,130.8z"/>
		<path opacity="0.1" fill="#010101" d="M46.4,73.5c1,6.9,6.7,44.8,9.3,58.4c2.1,11.1,7.7,36.1,11.6,53.5l5.7-0.6
			c-3.9-17.6-9.6-42.9-11.7-54C58.7,117,52.9,78.4,52,72L46.4,73.5z"/>
		<path fill="#D1D4DE" d="M301.5,137.8c0,0-69.1,26.6-92.5,32.6c-27.9,6.8-87.4,15.7-134.6,21.4c1.7,7.8,2.9,13.1,2.9,13.1
			c0.3,1.5,1.6,2.6,3.1,2.5l130.2-15.6l12.6,11c0,0,30.3-6.7,39.7-10.2c9.8-3.6,32.5-7.9,38.1-18.5
			C300.9,173.9,302,159.1,301.5,137.8L301.5,137.8z"/>
		<path fill="#16837C" d="M255.6,130.2c0.6,4.6-4.8,9.9-12.1,11.6c-7.3,1.7-13.7-0.6-14.3-5.2c-0.6-4.6,4.8-9.7,12.1-11.5
			C248.6,123.3,255,125.5,255.6,130.2z"/>
		<path fill="#16837C" d="M286.3,114c1.6,4.3-2.5,11.1-9.3,15.1c-6.8,4-13.6,3.8-15.2-0.5c-1.6-4.2,2.5-10.9,9.3-14.9
			C277.8,109.7,284.7,109.8,286.3,114z"/>
		<path fill="#16837C" d="M195.3,137.2c-0.5,4.5,5.1,8.7,12.5,9.2c7.4,0.5,13.7-2.8,14.1-7.4c0.5-4.6-5.1-8.7-12.5-9.2
			C202.1,129.4,195.8,132.7,195.3,137.2z"/>
		<path fill="#14675F" d="M243.5,141.8c-6.8,1.6-12.8-0.3-14.1-4.2c0,0.3,0,0.7,0,1c0.6,4.6,7,6.9,14.3,5.2
			c7.3-1.7,12.7-7,12.1-11.6c0-0.3-0.1-0.7-0.2-1C255.4,135.6,250.3,140.2,243.5,141.8z"/>
		<path fill="#14675F" d="M277,129.2c-6.8,4-13.6,3.8-15.2-0.5c0-0.1-0.1-0.2-0.1-0.3c0,0.8,0.1,1.5,0.3,2.2
			c1.6,4.3,8.4,4.5,15.2,0.5c6.6-4,10.8-10.6,9.4-14.9C286.5,120.4,282.6,125.8,277,129.2z"/>
		<path fill="#14675F" d="M222,139c-0.5,4.6-6.8,8-14.1,7.4c-6.2-0.5-11.1-3.4-12.3-7c-0.2,4.4,5.3,8.4,12.5,9
			c7.4,0.6,13.7-2.8,14.1-7.4c0.1-0.8,0-1.5-0.2-2.2C222,138.8,222,138.9,222,139z"/>
		<path fill="#192A21" d="M272.9,96.7l-71.7,18.6c-1.9,0.5-3.7-0.6-4-2.3l-6.9-49.9c-0.2-1.5,1-3.1,2.8-3.6l71.6-21.3
			c1.9-0.6,3.7,0.4,4,2.1l7,52.5C275.9,94.5,274.7,96.2,272.9,96.7z"/>
		<path fill="#639476" d="M267.7,94l-62.2,16.3c-1.9,0.5-3.7-0.6-4-2.3l-6-43.3c-0.2-1.5,1-3.1,2.8-3.6l62.2-18.3
			c1.9-0.6,3.7,0.4,4,2.1l6,45.2C270.6,91.9,269.4,93.6,267.7,94z"/>
		<path fill="#E9EDF7" d="M301.1,170.6c-5.6,10.6-28.9,15.6-38.7,19.2c-9.5,3.5-39.1,10.1-39.1,10.1l-12.5-11L80.1,204.9
			c-1.5,0.1-2.8-0.1-2.8-0.1c0.3,1.5,1.6,2.6,3.1,2.5l130.2-15.6l12.6,11c0,0,30.2-6.7,39.6-10.2c9.8-3.6,32.5-8,38.2-18.5
			L301.1,170.6z"/>
	</g>
</g>
</svg>
