<!-- Generator: Adobe Illustrator 18.0.0, SVG Export Plug-In  -->
<svg version="1.1"
	 xmlns="http://www.w3.org/2000/svg" xmlns:xlink="http://www.w3.org/1999/xlink" xmlns:a="http://ns.adobe.com/AdobeSVGViewerExtensions/3.0/"
	 x="0px" y="0px" width="1215.1px" height="777.4px" viewBox="0 0 1215.1 777.4" enable-background="new 0 0 1215.1 777.4"
	 xml:space="preserve">
<defs>
</defs>
<g>
	<polygon fill="#0F395C" points="1190.5,452.2 678.6,743.1 25.6,508.6 602.9,328 	"/>
	<polygon fill="#86BCE4" points="602.5,16.3 602.5,327.9 25.6,508.6 25.6,143.1 	"/>
	<polygon fill="none" stroke="#20201D" stroke-width="1.867" stroke-miterlimit="10" points="25.6,508.6 25.6,143.1 40.5,148.2 
		40.5,513.9 	"/>
	<polygon fill="#62A1CE" points="40.5,148.2 40.5,513.9 505.8,368.5 505.8,44.9 	"/>
	<polygon fill="#89C7ED" points="25.6,143.1 40.5,148.2 505.8,44.9 491.5,40.7 	"/>
	<polygon fill="#89C7ED" points="602.5,16.3 602.5,0 0,133.4 25.6,143.1 	"/>
	<polygon fill="#0A3451" points="0,133.4 0,526.5 678.6,777.4 678.6,743.1 25.6,508.6 25.6,143.1 	"/>
	<polygon fill="#68B6DD" points="602.5,16.3 602.5,0 1215.1,80.1 1190.5,94.2 	"/>
	<polygon fill="#063047" points="1190.5,94.2 1215.1,80.1 1215.1,468 678.6,777.4 678.6,743.1 1190.5,452.2 	"/>
	<polygon fill="#FCF5EA" points="602.5,315.5 505.8,345.7 505.8,364.1 602.5,332.9 	"/>
	<polygon fill="#FFFFFF" points="602.5,310.2 505.8,339.8 505.8,345.7 602.5,315.5 	"/>
	<polygon fill="#86BCE4" points="505.8,137.3 448.3,151.8 448.3,196.1 505.8,180.8 	"/>
	<polygon fill="#66AAD3" points="505.8,180.8 492.3,176.5 448.3,187.8 448.3,196.1 	"/>
	<polygon fill="#D8D8D8" points="316.6,267 321.6,268.9 321.6,283.2 316.6,280.7 	"/>
	<polygon fill="#FFFFFF" points="321.6,268.9 496.4,218.1 491.6,216.2 316.6,267 	"/>
	<polygon fill="#EBECED" points="321.6,283.2 321.6,268.9 496.4,218.1 496.4,230.1 	"/>
	<polygon fill="#89C4EA" points="0,133.4 25.6,143.1 25.6,536 0,526.5 	"/>
	<polygon fill="#66AAD3" points="1190.5,94.2 1215.1,80.1 1215.1,468 1190.5,484.1 	"/>
	<polygon fill="#66AAD3" points="25.6,143.1 25.6,508.6 40.5,514.6 40.5,148.2 	"/>
	<polygon fill="#86BCE4" points="492.3,176.5 505.8,180.8 505.8,137.3 492.3,140.7 	"/>
	<path fill="#62A1CE" d="M602.5,16.3v311.6l587.9,124.3v-358L602.5,16.3z M788.2,257l-121.7-22.7v-184L788.2,67V257z M942.6,285.3
		l-141.8-26.7v-191l141.8,19.5V285.3z M1141.2,322.3l-183.4-34.3V89.7l183.4,24.9V322.3z"/>
	<polygon fill="#FCF5EA" points="1184.6,455.6 602.5,332.9 602.5,315.5 1184.6,435.9 	"/>
	<polygon fill="#FFFFFF" points="1190.5,432.3 1184.6,435.9 602.5,315.5 602.5,310.2 	"/>
	<polygon fill="#D8D1C8" points="1190.5,452.2 1184.6,455.6 1184.6,435.9 1190.5,432.3 	"/>
	<g>
		<polygon fill="#86BCE4" points="326.5,270.4 326.5,279.4 352.9,271.4 352.9,262.8 		"/>
		<polygon fill="#5BA9C1" points="326.5,279.4 326,279.2 326,270.2 326.5,270.4 		"/>
		<polygon fill="#66AECB" points="326,270.2 326.5,270.4 352.9,262.8 352.3,262.5 		"/>
	</g>
	<g>
		<polygon fill="#86BCE4" points="371.1,257.4 371.1,266.5 397.5,258.4 397.5,249.8 		"/>
		<polygon fill="#5BA9C1" points="371.1,266.5 370.6,266.2 370.6,257.2 371.1,257.4 		"/>
		<polygon fill="#66AECB" points="370.6,257.2 371.1,257.4 397.5,249.8 396.9,249.6 		"/>
	</g>
	<g>
		<path fill="#EBECED" d="M328.8,271.1l4.3-1.2c0,0,0.8,3.1,2.1,3.8c0.3,0.5-3.1,2.5-5.2,1.9C329.4,275.2,329,271.5,328.8,271.1z"/>
		<path fill="#DCDBDB" d="M335.2,273.7c0,0-1.2,1.8-5.2,1.9c0,0.5,0,1,0,1s3.7,0.3,5.3-1.6C335.3,274.3,335.2,273.7,335.2,273.7z"/>
		<path fill="#C4C4C3" d="M328.8,271.1v4.5c0,0,0.3,0.7,1.2,1c0-0.5,0-1,0-1S329.1,273.8,328.8,271.1z"/>
	</g>
	<g>
		<path fill="#EBECED" d="M342.4,267.3l4.3-1.2c0,0,0.8,3.1,2.1,3.8c0.3,0.5-3.1,2.5-5.2,1.9C343,271.4,342.6,267.7,342.4,267.3z"/>
		<path fill="#DCDBDB" d="M348.9,269.9c0,0-1.2,1.8-5.2,1.9c0,0.5,0,1,0,1s3.7,0.3,5.3-1.6C348.9,270.5,348.9,269.9,348.9,269.9z"/>
		<path fill="#C4C4C3" d="M342.4,267.3v4.5c0,0,0.3,0.7,1.2,1c0-0.5,0-1,0-1S342.7,270,342.4,267.3z"/>
	</g>
	<g>
		<polygon fill="#FFFFFF" points="372,257.8 381.7,255 381.7,262.4 372,265.4 		"/>
		<g>
			<polygon fill="#EBECED" points="376.2,257.7 376.9,257.4 376.9,258.8 376.2,259.1 			"/>
			<polygon fill="#DCDCDD" points="376.7,257.5 376.7,258.7 376.9,258.8 376.9,257.4 			"/>
			<polygon fill="#CCCCCC" points="376.7,258.7 376.2,258.8 376.2,259.1 376.9,258.8 			"/>
		</g>
		<g>
			<polygon fill="#EBECED" points="374.3,261.1 375.1,260.9 375.1,262.3 374.3,262.5 			"/>
			<polygon fill="#DCDCDD" points="374.8,261 374.8,262.2 375.1,262.3 375.1,260.9 			"/>
			<polygon fill="#CCCCCC" points="374.8,262.2 374.3,262.3 374.3,262.5 375.1,262.3 			"/>
		</g>
		<g>
			<polygon fill="#EBECED" points="379,260.1 379.8,259.8 379.8,261.2 379,261.5 			"/>
			<polygon fill="#DCDCDD" points="379.5,259.9 379.5,261.1 379.8,261.2 379.8,259.8 			"/>
			<polygon fill="#CCCCCC" points="379.5,261.1 379,261.2 379,261.5 379.8,261.2 			"/>
		</g>
	</g>
	<g>
		<polygon fill="#FFFFFF" points="386.3,253.6 396,250.8 396,258.3 386.3,261.2 		"/>
		<g>
			<polygon fill="#EBECED" points="390.5,253.5 391.3,253.3 391.3,254.7 390.5,254.9 			"/>
			<polygon fill="#DCDCDD" points="391,253.3 391,254.5 391.3,254.7 391.3,253.3 			"/>
			<polygon fill="#CCCCCC" points="391,254.5 390.5,254.7 390.5,254.9 391.3,254.7 			"/>
		</g>
		<g>
			<polygon fill="#EBECED" points="388.6,257 389.4,256.7 389.4,258.2 388.6,258.4 			"/>
			<polygon fill="#DCDCDD" points="389.1,256.8 389.1,258 389.4,258.2 389.4,256.7 			"/>
			<polygon fill="#CCCCCC" points="389.1,258 388.6,258.2 388.6,258.4 389.4,258.2 			"/>
		</g>
		<g>
			<polygon fill="#EBECED" points="393.3,255.9 394.1,255.7 394.1,257.1 393.3,257.3 			"/>
			<polygon fill="#DCDCDD" points="393.9,255.7 393.9,256.9 394.1,257.1 394.1,255.7 			"/>
			<polygon fill="#CCCCCC" points="393.9,256.9 393.3,257.1 393.3,257.3 394.1,257.1 			"/>
		</g>
	</g>
	<g>
		<polygon fill="#86BCE4" points="458.4,231.4 458.4,240.4 484.8,232.4 484.8,223.8 		"/>
		<polygon fill="#5BA9C1" points="458.4,240.4 457.9,240.2 457.9,231.2 458.4,231.4 		"/>
		<polygon fill="#66AECB" points="457.9,231.2 458.4,231.4 484.8,223.8 484.2,223.5 		"/>
	</g>
	<polygon fill="#FFFFFF" points="459.3,231.7 469,229 469,236.4 459.3,239.4 	"/>
	<g>
		<polygon fill="#EBECED" points="461.6,232.7 462.4,232.5 462.4,233.9 461.6,234.1 		"/>
		<polygon fill="#DCDCDD" points="462.1,232.5 462.1,233.7 462.4,233.9 462.4,232.5 		"/>
		<polygon fill="#CCCCCC" points="462.1,233.7 461.6,233.9 461.6,234.1 462.4,233.9 		"/>
	</g>
	<g>
		<polygon fill="#EBECED" points="466.3,231.6 467.1,231.4 467.1,232.8 466.3,233 		"/>
		<polygon fill="#DCDCDD" points="466.8,231.5 466.8,232.7 467.1,232.8 467.1,231.4 		"/>
		<polygon fill="#CCCCCC" points="466.8,232.7 466.3,232.8 466.3,233 467.1,232.8 		"/>
	</g>
	<polygon fill="#FFFFFF" points="473.6,227.6 483.3,224.8 483.3,232.3 473.6,235.2 	"/>
	<g>
		<polygon fill="#EBECED" points="475.9,228.9 476.7,228.7 476.7,230.1 475.9,230.3 		"/>
		<polygon fill="#DCDCDD" points="476.4,228.7 476.4,229.9 476.7,230.1 476.7,228.7 		"/>
		<polygon fill="#CCCCCC" points="476.4,229.9 475.9,230.1 475.9,230.3 476.7,230.1 		"/>
	</g>
	<g>
		<polygon fill="#EBECED" points="480.6,227.8 481.4,227.6 481.4,229 480.6,229.2 		"/>
		<polygon fill="#DCDCDD" points="481.2,227.7 481.2,228.8 481.4,229 481.4,227.6 		"/>
		<polygon fill="#CCCCCC" points="481.2,228.8 480.6,229 480.6,229.2 481.4,229 		"/>
	</g>
	<polygon opacity="0.3" fill="#FFFFFF" points="1122.4,442.5 697.6,515.2 654.8,460.1 855.4,386.2 	"/>
	<polygon opacity="0.3" fill="#FFFFFF" points="839.8,382.9 602.5,467.6 500.4,420.7 735.5,360.9 	"/>
	<polygon fill="#09324F" points="576.1,646.1 476.7,670.6 678.6,743.1 788.7,646.1 706.7,692.6 	"/>
	<polygon fill="#09324F" points="1060.7,494.9 923.3,598.9 859.3,606.2 954,552.5 952.6,543.8 969.6,547.6 	"/>
	<linearGradient id="SVGID_1_" gradientUnits="userSpaceOnUse" x1="289.6542" y1="282.6492" x2="322.9018" y2="274.2411">
		<stop  offset="0" style="stop-color:#62A1CE"/>
		<stop  offset="0.8966" style="stop-color:#4F86B3"/>
	</linearGradient>
	<polygon fill="url(#SVGID_1_)" points="331.1,280.3 321.6,283.2 291.5,291 298.2,273.8 316.6,267 316.6,280.7 321.2,282.3 	"/>
	<linearGradient id="SVGID_2_" gradientUnits="userSpaceOnUse" x1="322.9654" y1="182.7577" x2="340.3993" y2="178.3488">
		<stop  offset="0" style="stop-color:#62A1CE"/>
		<stop  offset="0.8966" style="stop-color:#4F86B3"/>
	</linearGradient>
	<polyline fill="url(#SVGID_2_)" points="342.7,179.3 323.9,186.8 331.9,178.9 342.7,173.5 342.7,178.9 	"/>
	<linearGradient id="SVGID_3_" gradientUnits="userSpaceOnUse" x1="246.0025" y1="379.333" x2="324.9824" y2="359.3597">
		<stop  offset="0" style="stop-color:#62A1CE"/>
		<stop  offset="0.8966" style="stop-color:#4F86B3"/>
	</linearGradient>
	<polygon fill="url(#SVGID_3_)" points="333.9,411.4 314.1,411.4 314.1,374.9 314.1,371 238.6,352.2 327,304.6 	"/>
	<polygon fill="#66AAD3" points="645.6,22 664,16.3 664,248.8 645.6,258.3 645.6,22.1 	"/>
	<polygon fill="#C8C0B7" points="645.6,246.3 1145.1,342.4 1145.1,355.7 645.6,258.3 	"/>
	<polygon fill="#D8D1C8" points="645.6,246.3 664,237.4 1145.1,328 1145.1,342.4 	"/>
	<polygon fill="#C8C0B7" points="654.8,19.2 654.8,44.9 1145.1,112 1145.1,88.2 1153.3,84.2 	"/>
	<polygon fill="#D8D1C8" points="1153.3,84.2 1161.7,80.1 664,16.3 654.8,19.2 	"/>
	<polygon fill="#A19B94" points="795.1,263.3 806.5,258 805.5,65.6 795.1,64.1 	"/>
	<polygon opacity="0.5" fill="#FFFFFF" points="805.5,258.6 797.5,261.8 797.5,64.5 805.5,65.6 	"/>
	<path fill="#A19B94" d="M662.6,46v192.1l132.5,25.2V64.1L662.6,46z M789.1,256.9l-121.7-22.7v-184l121.7,16.6V256.9z"/>
	<polygon fill="#817E7A" points="949.6,292.5 965.9,288.1 965.9,87.5 949.6,85.3 	"/>
	<polygon fill="#A19B94" points="952.6,291.7 963.8,288.7 963.8,87.2 952.6,85.7 	"/>
	<path fill="#A19B94" d="M795.1,64.1v199.2l154.5,29.3V85.3L795.1,64.1z M942.6,285.8l-141.8-26.7v-191l141.8,19.5V285.8z"/>
	<path fill="#A19B94" d="M949.6,85.3v207.3l195.4,36.6V112L949.6,85.3z M1141.2,322.4l-183.4-34.3V89.8l183.4,24.9V322.4z"/>
	<polygon fill="#B1A9A2" points="667.4,234.3 674.1,231.2 674.1,51.2 667.4,50.3 	"/>
	<polygon fill="#B1A9A2" points="674.1,231.2 789.1,252.8 789.1,256.9 667.4,234.3 	"/>
	<polygon opacity="0.5" fill="#FFFFFF" points="667.4,50.3 789.1,66.9 789.1,256.9 667.4,234.3 	"/>
	<polygon fill="#C8C0B7" points="800.8,259.1 806.5,256.9 942.6,281.8 942.6,285.8 	"/>
	<polygon opacity="0.5" fill="#FFFFFF" points="942.6,87.6 942.6,285.8 800.8,259.1 800.8,68.1 	"/>
	<polygon fill="#D8D1C8" points="962.6,289 965.9,288.1 1141.2,320.2 1141.2,322.4 	"/>
	<g>
		<ellipse fill="#898784" cx="630.1" cy="487.6" rx="9.4" ry="8.6"/>
		<ellipse fill="#817E7A" cx="629.3" cy="488.3" rx="9" ry="8.1"/>
		<ellipse fill="#878582" cx="629.3" cy="488.3" rx="7.8" ry="7"/>
		<ellipse fill="#8E8C8B" cx="629.3" cy="488.3" rx="5.4" ry="4.9"/>
		<ellipse fill="#969493" cx="629.3" cy="488.3" rx="4.9" ry="4.5"/>
		<path fill="#817E7A" d="M618,474.7l6.3,14.7c0,0,6.2,3,10,1.2l-1.3-11.6L618,474.7z"/>
		<polygon fill="#A19B94" points="634.3,490.5 635.5,489.9 634.3,479.2 633.1,478.9 		"/>
		<ellipse fill="#96918C" cx="629.3" cy="488.3" rx="2.5" ry="2.2"/>
		<ellipse fill="#A19B94" cx="629.3" cy="488.3" rx="2.1" ry="1.9"/>
	</g>
	<g>
		<ellipse fill="#898784" cx="526.1" cy="500.6" rx="9.4" ry="8.6"/>
		<ellipse fill="#817E7A" cx="525.3" cy="501.3" rx="9" ry="8.1"/>
		<ellipse fill="#878582" cx="525.3" cy="501.3" rx="7.8" ry="7"/>
		<ellipse fill="#8E8C8B" cx="525.3" cy="501.3" rx="5.4" ry="4.9"/>
		<ellipse fill="#969493" cx="525.3" cy="501.3" rx="4.9" ry="4.5"/>
		<path fill="#817E7A" d="M514,487.6l6.3,14.7c0,0,6.2,3,10,1.2l-1.3-11.6L514,487.6z"/>
		<polygon fill="#A19B94" points="530.4,503.5 531.5,502.9 530.4,492.2 529.1,491.9 		"/>
		<ellipse fill="#96918C" cx="525.3" cy="501.3" rx="2.5" ry="2.2"/>
		<ellipse fill="#A19B94" cx="525.3" cy="501.3" rx="2.1" ry="1.9"/>
	</g>
	<g>
		<ellipse fill="#898784" cx="458.2" cy="481" rx="9.4" ry="8.6"/>
		<ellipse fill="#817E7A" cx="457.3" cy="481.6" rx="9" ry="8.1"/>
		<ellipse fill="#878582" cx="457.3" cy="481.6" rx="7.8" ry="7"/>
		<ellipse fill="#8E8C8B" cx="457.3" cy="481.6" rx="5.4" ry="4.9"/>
		<ellipse fill="#969493" cx="457.3" cy="481.6" rx="4.9" ry="4.5"/>
		<path fill="#817E7A" d="M446,468l6.3,14.7c0,0,6.2,3,10,1.2l-1.3-11.6L446,468z"/>
		<polygon fill="#A19B94" points="462.4,483.8 463.5,483.3 462.4,472.6 461.1,472.2 		"/>
		<ellipse fill="#96918C" cx="457.3" cy="481.6" rx="2.5" ry="2.2"/>
		<ellipse fill="#A19B94" cx="457.3" cy="481.6" rx="2.1" ry="1.9"/>
	</g>
	<g>
		<ellipse fill="#898784" cx="796.6" cy="416.3" rx="9.4" ry="8.6"/>
		<ellipse fill="#817E7A" cx="795.8" cy="417" rx="9" ry="8.1"/>
		<ellipse fill="#878582" cx="795.8" cy="417" rx="7.8" ry="7"/>
		<ellipse fill="#8E8C8B" cx="795.8" cy="417" rx="5.4" ry="4.9"/>
		<ellipse fill="#969493" cx="795.8" cy="417" rx="4.9" ry="4.5"/>
		<path fill="#817E7A" d="M784.5,403.3l6.3,14.7c0,0,6.2,3,10,1.2l-1.3-11.6L784.5,403.3z"/>
		<polygon fill="#A19B94" points="800.8,419.2 802,418.6 800.8,407.9 799.6,407.6 		"/>
		<ellipse fill="#96918C" cx="795.8" cy="417" rx="2.5" ry="2.2"/>
		<ellipse fill="#A19B94" cx="795.8" cy="417" rx="2.1" ry="1.9"/>
	</g>
	<g>
		<ellipse fill="#898784" cx="348.8" cy="423.7" rx="9.4" ry="8.6"/>
		<ellipse fill="#817E7A" cx="348" cy="424.4" rx="9" ry="8.1"/>
		<ellipse fill="#878582" cx="348" cy="424.4" rx="7.8" ry="7"/>
		<ellipse fill="#8E8C8B" cx="348" cy="424.4" rx="5.4" ry="4.9"/>
		<ellipse fill="#969493" cx="348" cy="424.4" rx="4.9" ry="4.5"/>
		<path fill="#817E7A" d="M336.7,410.7l6.3,14.7c0,0,6.2,3,10,1.2l-1.3-11.6L336.7,410.7z"/>
		<polygon fill="#A19B94" points="353,426.6 354.2,426 353,415.3 351.7,415 		"/>
		<ellipse fill="#96918C" cx="348" cy="424.4" rx="2.5" ry="2.2"/>
		<ellipse fill="#A19B94" cx="348" cy="424.4" rx="2.1" ry="1.9"/>
	</g>
	<path fill="#F2EFED" d="M651.8,430.4c0,0,2.7-0.5,4.3-1.1c1.6-0.6,146.8-63.7,146.8-63.7v25.6l-151.1,68.4V430.4z"/>
	<path fill="#878581" d="M651.8,453.9v30.2l43.7-20.4c0,0,1.2-13.3,1.5-18c0.3-2.9,5.8-5.1,11-7.5s38.8-18.8,38.8-18.8s5.8-4,8.4,0
		c1.1,3.2,3.8,7.9,3.8,7.9s3.2,3,11.3-1.1s29.8-15.3,29.8-15.3s3.3-2.5,2.9-6.1c0-3.6,0-20,0-20L651.8,453.9z"/>
	<polygon fill="#A8A19C" points="802.9,384.8 802.9,377.1 651.8,444.8 651.8,453.9 	"/>
	<path fill="#E5E2E1" d="M651.8,444.8v-14.4c0,0-4.4,0.1-7.6-0.8c-3.2-1-302.8-89.8-302.8-89.8s-3,0.3-3,3.3s0,22.9,0,22.9
		l313.4,93.5V444.8z"/>
	<polygon fill="#D8D1C8" points="400.7,276.5 400.7,320.6 455.2,302.9 455.2,261.7 	"/>
	<polygon fill="#878581" points="355,394.1 371,398.7 376.9,409.9 355,417.4 	"/>
	<polygon fill="#D8D1C8" points="387.9,280 387.9,324.7 398.2,321.4 398.2,277.2 	"/>
	<polygon fill="#D8D1C8" points="466.7,258.6 466.7,299.2 458.1,301.9 458.1,260.9 	"/>
	<path fill="#817E7A" d="M651.8,484.1v-30.2l-10.5-2.9c0,0-2.4-0.8-8.6,0.6c-6.2,1.5-13.1,3.3-13.1,3.3s-5.8,1.7-13.1-0.7
		c-7.3-2.4-255.1-77.7-255.1-77.7s-9.9-2.5-16.5-8.7c-6.6-6.2-8-7.6-8-7.6s-0.6,1.8-0.6,3.7c0,2,0,18.2,0,18.2s-0.2,4,7.5,5.8
		c7.8,1.8,268.6,79.6,268.6,79.6s11.2,4.4,13.5,6.5C619.2,475,651.8,484.1,651.8,484.1z"/>
	<polygon fill="#817E7A" points="496.3,457.5 533.6,442.5 555.3,448.5 518.6,464.6 	"/>
	<polygon fill="#8E8C8A" points="555.3,448.5 555.3,455.4 528.1,467.6 518.6,464.6 	"/>
	<polygon fill="#86BCE4" points="576.1,439.8 576.1,459.5 555.7,464.2 493.5,445.3 479.3,434.1 479.3,413.4 495.2,421 558.4,440.8 	
		"/>
	<polygon fill="#6EADCC" points="479.3,413.4 480.9,412.3 495.4,419.1 559.1,438.8 576.1,438 576.1,439.8 558.4,440.8 495.2,421 	
		"/>
	<path fill="#A19B94" d="M651.8,444.8c0,0-8.7-2.9-18-1.1c-9.4,1.8-16.1,3.5-27.2,0.3c-11.1-3.2-245.4-72.7-245.4-72.7
		s-12.9-5.2-18.1-10.2s-7-5.7-9.2-4.9c-2.3,0.8-7,4-7,4s10.1,11.1,20.9,15.1c10.8,3.4,254.7,77.6,254.7,77.6s10.2,4.7,20,1.2
		c8.9-2.6,15.7-4,18.8-3.2c3.1,0.9,10.5,2.9,10.5,2.9V444.8z"/>
	<polygon fill="#86BCE4" points="454.3,402.2 454.3,413.4 417.2,422.6 375.1,409.4 368.7,399.7 368.7,381.8 435.9,402.2 	"/>
	<polygon fill="#6EADCC" points="368.7,381.8 435.9,402.2 454.3,402.2 452.6,401.1 436.1,400.9 370.2,380.9 	"/>
	<g>
		<polygon fill="#CCC5BE" points="333.5,360.9 333.5,307.4 380.9,278.9 466.7,255 500,256.6 500,294.5 505.8,294.5 505.8,252.8 
			466.1,250.8 376.8,274.7 327,304.6 327,360.2 		"/>
		<polygon fill="#D8D1C8" points="333.5,360.9 338.5,359.6 338.5,308 383.2,281.3 466.7,258.6 497.1,259.7 497.1,294.5 500,294.5 
			500,256.6 466.7,255 380.9,278.9 333.5,307.4 		"/>
	</g>
	<path fill="#FFFFFF" d="M802.9,365.6c0,0-3-1.9-7.6-3c-4.6-1.1-280-70-280-70s-16.9-3.8-35.1,2.2s-138.8,45-138.8,45l304.2,90.1
		c0,0,4.9,0.8,6.2,0.5c0,0,1.8,0,8.5-2.9C667.1,424.6,802.9,365.6,802.9,365.6z"/>
	<g>
		<polygon fill="#BAB3AE" points="754.7,402.2 752.5,401 752.5,337.4 754.7,337.4 		"/>
		<polygon fill="#BAB3AE" points="706.7,423.9 702.7,422.2 702.7,357.1 706.7,357.9 		"/>
		<polygon fill="#CCC5BE" points="691.1,365 691.1,430.9 704.1,425.1 704.1,359.3 		"/>
		<g>
			<polygon fill="#D8D1C8" points="642.7,443.1 651.8,444.8 651.8,396.7 685.9,367.3 768.9,331.2 790.6,335.8 790.6,335.8 
				794.2,336.5 786.1,328.7 768.5,325 680.8,362.1 642.7,394.2 			"/>
			<polygon fill="#CCC5BE" points="706.7,358.2 706.7,423.9 752.5,403.4 752.5,338.3 			"/>
			<polygon fill="#CCC5BE" points="766,332.5 766,397.1 754.7,402.2 754.7,337.4 			"/>
			<polygon fill="#CCC5BE" points="651.8,444.8 656.9,442.5 656.9,398.7 688.1,371.4 770.3,336 790.6,339.8 790.6,387.7 
				794.2,386.1 794.2,336.5 768.9,331.2 685.9,367.3 651.8,396.7 			"/>
			<polygon fill="#BAB3AE" points="691.1,430.9 686.2,429.4 686.2,373.1 688.1,371.4 691.1,370.1 			"/>
		</g>
	</g>
	<polygon fill="#CCC5BE" points="387.9,324.7 385.2,325.6 385.2,280.8 387.9,280 	"/>
	<polygon fill="#CCC5BE" points="398.9,321.2 398.9,277 400.7,276.5 400.7,320.6 	"/>
	<polygon fill="#CCC5BE" points="456.3,261.4 456.3,302.5 458.1,302 458.1,260.9 	"/>
	<g>
		<path fill="#D8D1C8" d="M645.6,325.1l2.1,0.5v-40c0,0-2.2-9.3-12.8-11.1c-10.6-1.8-39.9-5.7-39.9-5.7s-13.2-1.8-13.3,8.4h0.9
			c0,0,0.3-8.8,12.7-7.3c12.4,1.5,39.8,5.8,39.8,5.8s7.9,0.2,10.5,10C645.6,295.6,645.6,325.1,645.6,325.1z"/>
		<path fill="#BAB3AE" d="M634.3,275.7c0,0-30.7-5.2-41.5-5.9c-10.8-0.7-11.2,8.3-11.2,8.3v31.1l64,16c0,0,0-29.7,0-39.4
			C643.6,276.1,634.3,275.7,634.3,275.7z M641.3,321.4l-55.5-13.9v-26.9c0,0,0.4-7.8,9.7-7.2c9.4,0.6,36,5.1,36,5.1s8,0.4,9.8,8.7
			C641.3,295.7,641.3,321.4,641.3,321.4z"/>
	</g>
	<g>
		<path fill="#878581" d="M481.5,379.3c0,0,48.7,18,86.5,25.1c1-0.5,1.6-1.3,1.6-1.3s-72.4-18.1-85.9-25.4L481.5,379.3z"/>
		<g>
			<path fill="#A19B94" d="M481.5,401.3v-22c0,0,58.2,20.3,86.5,25.1v22.4C568.1,426.8,513.3,419.1,481.5,401.3z"/>
			<polygon fill="#817E7A" points="569.7,403 568.1,404.4 568.1,426.8 569.7,426 			"/>
		</g>
	</g>
	<g>
		<path fill="#878581" d="M368.7,346.6c0,0,48.7,18,86.5,25.1c1-0.5,1.6-1.3,1.6-1.3s-72.4-18.1-85.9-25.4L368.7,346.6z"/>
		<polygon fill="#817E7A" points="456.8,370.3 455.2,371.6 455.2,394 456.8,393.3 		"/>
		<path fill="#A19B94" d="M368.7,368.5v-22c0,0,57.7,20,86.5,25.1V394C455.2,394,400.5,386.3,368.7,368.5z"/>
	</g>
	<polygon fill="#817E7A" points="333.9,388 333.9,411.4 355,417.4 355,394.1 	"/>
	<g>
		<path fill="#6DACCC" d="M397.5,316.2l40,10.1c0,0,0.9,7,0,11.4c-3.7,1-28.6-3.1-40.4-8.3C394.2,326.4,395.8,318.7,397.5,316.2z"/>
		<path fill="#78B4D8" d="M437.6,326.2l63.2-23.3c0,0,0.5,6.1,0,10c-2.3,3.9-58.2,23.2-63.2,24.7
			C437.9,334.7,437.6,326.2,437.6,326.2z"/>
		<path fill="#86BCE4" d="M500.8,303c0,0-29.3-8.9-33.6-9.1c-4.3,0.5-66.8,20.7-69.7,22.3c4.5,1.1,40,10.1,40,10.1L500.8,303z"/>
	</g>
	<polygon fill="#B1A9A2" points="855.4,399.7 855.4,519.8 968.6,547.6 968.6,424.9 	"/>
	<polygon fill="#C8C0B7" points="968.6,424.9 1079.6,367.3 1079.6,484.1 968.6,547.6 	"/>
	<polygon fill="#D8D1C8" points="855.4,399.7 966.8,345.7 1079.6,367.3 968.6,424.9 	"/>
	<polygon fill="#817E7A" points="855.4,399.7 855.4,409.5 968.6,434.5 968.6,424.9 	"/>
	<polygon fill="#A19B94" points="968.6,434.5 968.6,424.9 1079.6,367.3 1079.6,377.7 	"/>
	<polygon fill="#86BCE4" points="602.5,519.8 576.1,532.6 706.7,575.4 706.7,552.5 	"/>
	<g>
		<polygon fill="#81B9DD" points="923.3,433.9 890.6,451.8 863.8,466.4 863.8,466.4 706.7,552.5 706.7,575.4 954.3,440.8 		"/>
		<polygon fill="#81B9DD" points="898.4,447.5 923.3,433.9 834.7,413.4 807.7,426.5 807.7,453.9 863.8,466.4 890.6,451.8 		"/>
	</g>
	<polygon fill="#6FAECE" points="807.7,426.5 807.7,453.9 863.8,466.4 898.4,447.5 	"/>
	<polygon fill="#74B7D8" points="807.7,453.9 807.7,466.4 847.8,475.2 863.8,466.4 	"/>
	<polygon fill="#66AECB" points="807.7,453.9 807.7,466.4 847.8,475.2 863.8,466.4 	"/>
	<polygon fill="#89C1E5" points="807.7,466.4 662.9,538.7 706.7,552.5 847.8,475.2 	"/>
	<polygon fill="#5297C1" points="576.1,532.6 576.1,646.1 706.7,692.6 706.7,575.4 	"/>
	<polygon fill="#62A1CE" points="706.7,575.4 706.7,692.6 954.3,552.5 954.3,440.8 	"/>
	<polygon fill="#FCF5EA" points="40.5,283.6 40.5,514.7 127.4,544.6 127.4,302.4 	"/>
	<polygon fill="#62A1CE" points="127.4,301.7 127.4,543.8 219.6,514.4 219.6,278.9 	"/>
	<polygon fill="#C8C0B7" points="40.5,283.6 127.4,302.4 219.6,279.7 136,259.7 	"/>
	<polygon fill="#20201D" points="219.6,404.8 219.6,515.2 314.1,485.9 314.1,374.9 	"/>
	<polygon fill="#817E7A" points="40.5,283.6 40.5,294.3 127.4,313.3 127.4,302.4 	"/>
	<polygon fill="#B1A9A2" points="127.4,302.4 127.4,313.3 219.6,290.2 219.6,279.7 	"/>
	<polygon fill="#86BCE4" points="131.4,468.6 219.6,439.6 219.6,459.5 131.4,488.2 	"/>
	<polygon fill="#817E7A" points="314.1,374.9 238.6,355.7 238.6,352.2 314.1,371 	"/>
	<polygon fill="#B1A9A2" points="314.1,374.9 314.1,371 219.6,399.7 219.6,404.8 	"/>
	<polygon fill="#C8C0B7" points="314.1,371 238.6,352.2 219.6,357.3 219.6,399.7 	"/>
	<polygon fill="#817E7A" points="40.5,506.1 40.5,514.7 127.4,544.6 127.4,535.4 	"/>
	<polygon fill="#B1A9A2" points="127.4,535.4 219.6,506.1 219.6,515.2 127.4,544.6 	"/>
	<polygon fill="#B1A9A2" points="219.6,509.4 314.1,480.4 314.1,485.9 219.6,515.2 	"/>
	<polygon fill="#86BCE4" points="131.2,517.4 219.6,489 219.6,508.9 131.2,537 	"/>
	<polygon fill="#FCF5EA" points="170.1,511.9 192.5,505.1 192.5,507.6 170.1,514.2 	"/>
	<polygon fill="#EEE7DC" points="170.1,514.2 168.4,513.7 168.4,511.3 170.1,511.9 	"/>
	<polygon fill="#FFFCF8" points="192.5,505.1 170.1,511.9 168.4,511.3 190.9,504.5 	"/>
	<polygon fill="#86BCE4" points="131.4,492.3 219.6,463.9 219.6,483.8 131.4,511.9 	"/>
	<polygon fill="#FCF5EA" points="170.1,487.3 192.5,480.5 192.5,483 170.1,489.7 	"/>
	<polygon fill="#EEE7DC" points="170.1,489.7 168.4,489.1 168.4,486.7 170.1,487.3 	"/>
	<polygon fill="#FFFCF8" points="192.5,480.5 170.1,487.3 168.4,486.7 190.9,479.9 	"/>
	<polygon fill="#FCF5EA" points="170.1,463.8 192.5,457.1 192.5,459.5 170.1,466.2 	"/>
	<polygon fill="#EEE7DC" points="170.1,466.2 168.4,465.6 168.4,463.2 170.1,463.8 	"/>
	<polygon fill="#FFFCF8" points="192.5,457.1 170.1,463.8 168.4,463.2 190.9,456.5 	"/>
	<polygon fill="#86BCE4" points="131.1,444.3 219.6,415.7 219.6,435.5 131.1,463.9 	"/>
	<polygon fill="#FCF5EA" points="170.1,439.8 192.5,433 192.5,435.5 170.1,442.1 	"/>
	<polygon fill="#EEE7DC" points="170.1,442.1 168.4,441.6 168.4,439.2 170.1,439.8 	"/>
	<polygon fill="#FFFCF8" points="192.5,433 170.1,439.8 168.4,439.2 190.9,432.4 	"/>
	<polygon fill="#86BCE4" points="131.1,314.2 179.2,302.2 179.2,426.8 131.1,442.2 	"/>
	<polygon fill="#86BCE4" points="180.2,301.9 180.2,426.4 219.6,413.7 219.6,292.1 	"/>
	<polygon fill="#4F90B7" points="131.2,442.2 127.4,441.3 127.4,313.4 131.2,314.2 	"/>
	<polygon fill="#4F90B7" points="131.1,444.3 128.3,443.4 128.3,463 131.1,463.9 	"/>
	<polygon fill="#4F90B7" points="131.4,468.6 128.3,467.8 128.3,487.2 131.4,488.2 	"/>
	<polygon fill="#4F90B7" points="131.4,492.3 128.3,491.2 128.3,511.1 131.4,511.9 	"/>
	<polygon fill="#4F90B7" points="131.2,517.4 128.3,516.3 128.3,535.9 131.2,537 	"/>
	<polygon fill="#8DC8ED" points="267.9,389.5 267.9,495.6 219.6,510.4 219.6,404.8 	"/>
	<polygon fill="#8DC8ED" points="269.9,388.9 269.9,494.9 314.1,481.3 314.1,374.9 	"/>
	<g>
		<polygon fill="#E2DACF" points="160.7,379.4 158.6,377.8 161.6,376.8 163.2,378.5 		"/>
		<polygon fill="#FCF5EA" points="163.2,352.6 163.2,379.3 160.7,380.1 160.7,353.3 		"/>
		<polygon fill="#FFFCF8" points="160.7,353.3 163.2,352.6 161.9,351.2 159,352 		"/>
		<polygon fill="#EEE7DC" points="160.7,353.3 160,352.8 160,379.5 160.7,380.1 		"/>
		<polygon fill="#EEE7DC" points="159,352 159,353 160,353.7 160,352.8 		"/>
		<polygon fill="#EEE7DC" points="160.7,380.1 158.6,378.5 158.6,377.8 160.7,379.4 		"/>
	</g>
	<g>
		<polygon fill="#E2DACF" points="200,371.4 197.9,369.8 201,368.9 202.5,370.6 		"/>
		<polygon fill="#FCF5EA" points="202.5,344.6 202.5,371.3 200,372.2 200,345.3 		"/>
		<polygon fill="#FFFCF8" points="200,345.3 202.5,344.6 201.3,343.2 198.4,344 		"/>
		<polygon fill="#EEE7DC" points="200,345.3 199.4,344.8 199.4,371.5 200,372.2 		"/>
		<polygon fill="#EEE7DC" points="198.4,344 198.4,345 199.4,345.7 199.4,344.8 		"/>
		<polygon fill="#EEE7DC" points="200,372.2 197.9,370.6 197.9,369.8 200,371.4 		"/>
	</g>
	<g>
		<polygon fill="#E2DACF" points="252.9,458.8 250.8,457.1 253.8,456.2 255.4,457.9 		"/>
		<polygon fill="#FCF5EA" points="255.4,432 255.4,458.7 252.9,459.5 252.9,432.7 		"/>
		<polygon fill="#FFFCF8" points="252.9,432.7 255.4,432 254.1,430.6 251.2,431.3 		"/>
		<polygon fill="#EEE7DC" points="252.9,432.7 252.2,432.1 252.2,458.9 252.9,459.5 		"/>
		<polygon fill="#EEE7DC" points="251.2,431.3 251.2,432.3 252.2,433 252.2,432.1 		"/>
		<polygon fill="#EEE7DC" points="252.9,459.5 250.8,457.9 250.8,457.1 252.9,458.8 		"/>
	</g>
	<g>
		<polygon fill="#E2DACF" points="287.2,449.9 285.1,448.2 288.2,447.3 289.7,449 		"/>
		<polygon fill="#FCF5EA" points="289.7,423 289.7,449.8 287.2,450.6 287.2,423.8 		"/>
		<polygon fill="#FFFCF8" points="287.2,423.8 289.7,423 288.5,421.6 285.5,422.4 		"/>
		<polygon fill="#EEE7DC" points="287.2,423.8 286.5,423.2 286.5,450 287.2,450.6 		"/>
		<polygon fill="#EEE7DC" points="285.5,422.4 285.5,423.4 286.5,424.1 286.5,423.2 		"/>
		<polygon fill="#EEE7DC" points="287.2,450.6 285.1,449 285.1,448.2 287.2,449.9 		"/>
	</g>
	<polygon fill="#62A1CE" points="269.9,494.9 268.9,494.3 268.9,389.3 269.9,388.9 	"/>
	<polygon fill="#8CC5EA" points="127.4,313.4 175.3,301.3 179.2,302.2 131.2,314.2 	"/>
	<polygon fill="#8CC5EA" points="180.2,301.9 176.4,301 216.3,291 219.6,292.1 	"/>
	<polygon fill="#8CC5EA" points="128.3,443.4 131.1,444.3 219.6,415.7 217.2,414.9 	"/>
	<polygon fill="#8CC5EA" points="128.3,467.8 131.4,468.6 219.6,439.6 217.4,438.5 	"/>
	<polygon fill="#8CC5EA" points="128.3,491.5 131.4,492.2 219.6,463.9 216.8,462.4 	"/>
	<polygon fill="#8CC5EA" points="128.3,516.6 131.4,517.3 219.6,489 216.9,487.9 	"/>
	<polygon fill="#FCF5EA" points="219.6,413.7 219.6,415.7 217.2,414.9 217.2,414.4 	"/>
	<polygon fill="#FCF5EA" points="219.6,435.6 219.6,439.6 217.4,438.5 217.4,436.2 	"/>
	<polygon fill="#FCF5EA" points="219.6,459.5 219.6,463.9 216.8,462.4 216.8,460.4 	"/>
	<polygon fill="#FCF5EA" points="219.6,483.8 219.6,489 216.9,487.9 216.9,484.6 	"/>
	<g>
		<polygon fill="#8E8C8A" points="518.6,478.9 518.6,497.2 537.7,489.2 537.7,470.7 		"/>
		<polygon fill="#817E7A" points="518.6,478.9 444.2,455.4 444.2,472.5 518.6,497.2 		"/>
		<polygon fill="#848280" points="537.7,470.7 463.9,447.2 444.2,455.4 518.6,478.9 		"/>
	</g>
	<polygon fill="#817E7A" points="502.7,365.6 502.7,468.5 469.9,458 469.9,358.3 	"/>
	<polygon fill="#8E8C8A" points="502.7,468.5 510.8,465.3 510.8,362.5 502.7,365.6 	"/>
	<polygon fill="#848280" points="469.9,358.3 479.3,355.5 510.8,362.5 502.7,365.6 	"/>
	<polygon fill="#20201D" points="479.6,358.3 498,362.5 498,357.4 479.6,353.3 	"/>
	<polygon fill="#282825" points="498,362.5 500.4,361.8 500.4,356.8 498,357.4 	"/>
	<polygon fill="#4F95B7" points="458.9,348.9 525.6,364.1 525.6,358.3 458.9,343.7 	"/>
	<polygon fill="#599AC1" points="525.6,358.3 614.9,328 614.9,334.3 525.6,364.1 	"/>
	<polygon fill="#62A1CE" points="458.9,343.7 525.6,358.3 614.9,328 554.2,313.8 	"/>
	<polygon fill="#FFFFFF" points="366.5,186.8 376.9,183.8 376.9,140.3 366.5,143.1 	"/>
	<polygon fill="#EBECED" points="366.5,186.8 342.7,179.3 342.7,173.5 366.5,180.8 	"/>
	<polygon fill="#EBECED" points="366.5,180.8 360.2,178.9 360.2,141.4 366.5,143.1 	"/>
	<polygon fill="#DEDDDD" points="342.7,173.5 360.2,169.9 360.2,178.9 	"/>
	<polygon fill="#CCCDCE" points="360.2,108.7 332.6,143.1 374.3,156.4 374.3,112 	"/>
	<polygon fill="#DEDDDD" points="374.3,112 395.8,105.8 412.7,145.2 374.3,156.4 	"/>
	<polygon fill="#D6D6D6" points="360.2,108.7 374.3,112 395.8,105.8 381.2,102.9 	"/>
</g>
</svg>
