<!-- Generator: Adobe Illustrator 18.0.0, SVG Export Plug-In  -->
<svg version="1.1"
	 xmlns="http://www.w3.org/2000/svg" xmlns:xlink="http://www.w3.org/1999/xlink" xmlns:a="http://ns.adobe.com/AdobeSVGViewerExtensions/3.0/"
	 x="0px" y="0px" width="272.3px" height="226.4px" viewBox="0 0 272.3 226.4" enable-background="new 0 0 272.3 226.4"
	 xml:space="preserve">
<defs>
</defs>
<g>
	<path fill="#D27128" d="M223.7,0C208.5,1.3,34.3,20.3,0,225.2c-0.2,1,1.2,1.6,1.8,0.7c80.8-116.2,209.1-95.7,222.7-93.2
		c0.6,0.1,1.2-0.4,1.2-1L224.8,1C224.8,0.4,224.3,0,223.7,0z"/>
	<path fill="#F7941E" d="M224.2,131.5l-30.9-31.2c-0.2-0.2-0.6-0.3-0.9-0.3l-43.2,7.7c-0.8,0.1-1.4-0.7-1.1-1.4l20.2-39
		c0.2-0.3,0.1-0.6,0-0.9l-20.7-38.7c-0.4-0.7,0.2-1.6,1-1.4l43.3,7.1c0.3,0.1,0.7-0.1,0.9-0.3l30.4-31.6c0.6-0.6,1.6-0.3,1.7,0.5
		l6.6,43.4c0,0.3,0.3,0.6,0.5,0.7l39.5,19.2c0.7,0.4,0.7,1.4,0,1.8l-39.2,19.7c-0.3,0.1-0.5,0.4-0.5,0.8l-6,43.5
		C225.8,131.8,224.8,132.1,224.2,131.5z"/>
</g>
</svg>
