<!-- Generator: Adobe Illustrator 18.0.0, SVG Export Plug-In  -->
<svg version="1.1"
	 xmlns="http://www.w3.org/2000/svg" xmlns:xlink="http://www.w3.org/1999/xlink" xmlns:a="http://ns.adobe.com/AdobeSVGViewerExtensions/3.0/"
	 x="0px" y="0px" width="377.9px" height="547.5px" viewBox="0 0 377.9 547.5" enable-background="new 0 0 377.9 547.5"
	 xml:space="preserve">
<defs>
</defs>
<g>
	<g>
		<ellipse fill="#0A0A0A" cx="169.1" cy="42.5" rx="9.9" ry="15.6"/>
		<polygon fill="#0A0A0A" points="169.1,58.1 9.9,66.2 9.9,35 169.1,26.9 		"/>
	</g>
	<polygon fill="#868885" points="361.2,76.1 361.2,105.2 19.8,105.2 19.8,45 181.7,36.3 	"/>
	<polygon fill="#BABABA" points="13.6,58.8 13.2,43.9 184.5,90.2 184.9,105.2 	"/>
	<path fill="#BDBBBC" d="M356.7,483.9l-152.8,40.4c-3.8,1-7.5-1.8-7.6-5.7L184.6,95.9c-0.1-3.2,2.4-5.9,5.6-6.2l164.5-13.1
		c3.5-0.3,6.5,2.5,6.5,6V478C361.2,480.8,359.4,483.2,356.7,483.9z"/>
	<path fill="#D7D6D6" d="M357,189.6c0-46.7-32.3-84.5-72.2-84.5s-78.3,37.8-78.3,84.5s28.3,84.5,68.2,84.5S357,236.3,357,189.6z"/>
	<polygon fill="#110F0E" points="305.6,485.3 263.5,495.2 258.4,271.9 302.2,268.4 	"/>
	<g>
		<polygon fill="#0A0A0A" points="51.1,421.1 31.7,423.4 31.7,393.6 51.4,391.3 		"/>
	</g>
	<path fill="#EDEDED" d="M296.9,224.6L296.9,224.6c-13.8,1-25.8-8.3-26.6-20.6l-7.7-120l49.1-3.7l7.8,121.1
		C320.3,213.3,310.3,223.6,296.9,224.6z"/>
	<g>
		<path fill="#828484" d="M246.2,205.3l-23.4,3.3c-3.6,0.5-6.9-2.3-6.9-6v-2.2c0-3.7,3.3-6.5,6.9-6l23.4,3.3
			C250.6,198.4,250.6,204.7,246.2,205.3z"/>
		<path fill="#828484" d="M337.2,177.3l12.2-7.7c2.5-1.2,3.4-4.4,1.9-6.7l-0.9-1.4c-1.5-2.3-4.8-2.8-6.9-0.9l-9.4,11.9
			C331.6,174.7,334.2,178.7,337.2,177.3z"/>
		<path fill="#828484" d="M341,193.6l12-4.9c1.9-0.8,2.2-3.5,0.6-5.9l-0.9-1.4c-1.5-2.3-4.2-3.2-5.6-1.7l-9.2,9.1
			C336.2,190.5,338.8,194.5,341,193.6z"/>
		<path fill="#828484" d="M248.2,218.9l-20.5,11.7c-3.2,1.8-7.3,0.4-8.6-3l-0.8-2c-1.3-3.4,0.6-7.2,4.2-8.1l23-5.5
			C249.7,210.9,252,216.7,248.2,218.9z"/>
		<path fill="#828484" d="M256.2,230l-16.6,16.8c-2.6,2.6-6.9,2.3-9.1-0.6l-1.3-1.7c-2.2-2.9-1.4-7.1,1.9-8.9l20.6-11.5
			C255.5,221.9,259.3,226.8,256.2,230z"/>
		<path fill="#828484" d="M245.1,188.4l-23.5-2.4c-3.7-0.4-6.1-3.9-5.3-7.5l0.5-2.1c0.9-3.6,4.7-5.5,8.1-4.2l21.9,8.8
			C251,182.8,249.5,188.8,245.1,188.4z"/>
		<path fill="#828484" d="M251.7,174.1l-22.3-7.8c-3.5-1.2-5.1-5.2-3.4-8.5l1-1.9c1.7-3.3,5.9-4.3,8.9-2.1l19.2,13.7
			C258.7,170,255.8,175.5,251.7,174.1z"/>
		<path fill="#828484" d="M259.2,159.3l-19.6-13.1c-3.1-2-3.6-6.3-1.1-9.1l1.5-1.6c2.5-2.7,6.8-2.7,9.1,0.2l15.2,18.1
			C267,157.1,262.8,161.7,259.2,159.3z"/>
		<path fill="#828484" d="M317.8,140.7l5.3-9.6c2.1-3,4.4-5.4,7.1-2.8l1.6,1.5c2.7,2.5,2.4,6.9-0.5,9.1l-8,7
			C319.8,148.6,315.3,144.2,317.8,140.7z"/>
		<path fill="#828484" d="M323.8,156.8l10.6-13c2.4-2.8,4.9-5,7.3-2.2l1.4,1.6c2.4,2.8,1.8,7-1.3,9l-13.2,10.1
			C325,164.9,320.9,160.2,323.8,156.8z"/>
	</g>
	<ellipse fill="#2A3325" cx="279.3" cy="126" rx="7.9" ry="9"/>
	<ellipse fill="#2A3325" cx="302.8" cy="123.8" rx="7.2" ry="8.1"/>
	<g>
		<polygon fill="#1B1312" points="301.6,109.5 272.7,111.5 272.7,93.7 301.6,91.5 		"/>
		<g>
			<path fill="none" stroke="#ED2224" stroke-width="1.4445" stroke-miterlimit="10" d="M284.2,101.7l-3.4,0.1c-0.6,0-1-0.4-1-1
				v-3.4c0-0.5,0.4-1,1-1l3.4-0.1c0.6,0,1,0.4,1,1v3.4C285.2,101.2,284.7,101.7,284.2,101.7z"/>
			<path fill="none" stroke="#ED2224" stroke-width="1.4445" stroke-miterlimit="10" d="M284.2,107.1l-3.4,0.1c-0.6,0-1-0.4-1-1
				v-3.4c0-0.5,0.4-1,1-1l3.4-0.1c0.6,0,1,0.4,1,1v3.4C285.2,106.7,284.7,107.1,284.2,107.1z"/>
		</g>
		<g>
			<path fill="none" stroke="#ED2224" stroke-width="1.4445" stroke-miterlimit="10" d="M293.7,101.1l-3.4,0.1c-0.6,0-1-0.4-1-1
				v-3.4c0-0.5,0.4-1,1-1l3.4-0.1c0.6,0,1,0.4,1,1v3.4C294.6,100.7,294.2,101.1,293.7,101.1z"/>
			<path fill="none" stroke="#ED2224" stroke-width="1.4445" stroke-miterlimit="10" d="M293.7,106.6l-3.4,0.1c-0.6,0-1-0.4-1-1
				v-3.4c0-0.5,0.4-1,1-1l3.4-0.1c0.6,0,1,0.4,1,1v3.4C294.6,106.1,294.2,106.6,293.7,106.6z"/>
		</g>
	</g>
	<g>
		<polygon fill="#1B1312" points="306.8,156.1 277.9,158.1 277.9,140.3 306.8,138.2 		"/>
		<g>
			<path fill="none" stroke="#ED2224" stroke-width="1.4445" stroke-miterlimit="10" d="M288.5,149.1l-3.4,0.1c-0.6,0-1-0.4-1-1
				v-3.4c0-0.5,0.4-1,1-1l3.4-0.1c0.6,0,1,0.4,1,1v3.4C289.4,148.7,289,149.1,288.5,149.1z"/>
			<path fill="none" stroke="#ED2224" stroke-width="1.4445" stroke-miterlimit="10" d="M288.5,154.6l-3.4,0.1c-0.6,0-1-0.4-1-1
				v-3.4c0-0.5,0.4-1,1-1l3.4-0.1c0.6,0,1,0.4,1,1v3.4C289.4,154.1,289,154.6,288.5,154.6z"/>
		</g>
		<g>
			<path fill="none" stroke="#ED2224" stroke-width="1.4445" stroke-miterlimit="10" d="M300.1,148.1l-3.4,0.1c-0.6,0-1-0.4-1-1
				v-3.4c0-0.5,0.4-1,1-1l3.4-0.1c0.6,0,1,0.4,1,1v3.4C301.1,147.6,300.7,148.1,300.1,148.1z"/>
			<path fill="none" stroke="#ED2224" stroke-width="1.4445" stroke-miterlimit="10" d="M300.1,153.5l-3.4,0.1c-0.6,0-1-0.4-1-1
				v-3.4c0-0.5,0.4-1,1-1l3.4-0.1c0.6,0,1,0.4,1,1v3.4C301.1,153.1,300.7,153.5,300.1,153.5z"/>
		</g>
	</g>
	<path fill="#959494" d="M196.6,526.2l-11.7-421.1l-171.7-47l19.6,347c0.1,1.8,1,3.5,2.5,4.6L196.6,526.2z"/>
	<g>
		<path fill="#D8D9D4" d="M316.3,221.7l4.7-44.1l-22.3-5.7c0,0-2.9-0.6-4.3-0.6c-9.5,0-17.3,10-17.3,22.3c0,10.5,5.6,19.3,13.2,21.6
			l0,0l0.2,0C290.9,215.4,316.3,221.7,316.3,221.7z"/>
		<path fill="#44403D" d="M290.4,215.2L290.4,215.2c-7.6-2.3-13.2-11.1-13.2-21.7c0-12.3,7.8-22.3,17.3-22.3c1.4,0,1.5,0,0,0
			c-10.4,0-19.4,8.5-19.4,22C275,204.9,282,212.7,290.4,215.2L290.4,215.2z"/>
		<ellipse fill="#67625F" cx="318.5" cy="199.6" rx="17.2" ry="22.3"/>
	</g>
	<g>
		<ellipse fill="#0A0A0A" cx="366.8" cy="489.1" rx="11" ry="18.1"/>
		<polygon fill="#0A0A0A" points="366.8,470.9 195.5,511.2 195.5,547.5 366.8,507.2 		"/>
		<ellipse fill="#383938" cx="195.5" cy="529.4" rx="11" ry="18.1"/>
	</g>
	<g>
		<g>
			<g>
				<g>
					<path fill="#010101" d="M209.4,490c13.8-3.3,27.7-6.5,41.5-9.8c2.7-0.6,1.6-4.8-1.2-4.2c-13.8,3.3-27.7,6.5-41.5,9.8
						C205.5,486.5,206.6,490.7,209.4,490L209.4,490z"/>
				</g>
			</g>
			<g>
				<g>
					<path fill="#010101" d="M208.8,469.9c13.8-3.3,27.7-6.5,41.5-9.8c2.7-0.6,1.6-4.8-1.2-4.2c-13.8,3.3-27.7,6.5-41.5,9.8
						C204.9,466.3,206.1,470.5,208.8,469.9L208.8,469.9z"/>
				</g>
			</g>
			<g>
				<g>
					<path fill="#010101" d="M208.3,449.7c13.8-3.3,27.7-6.5,41.5-9.8c2.7-0.6,1.6-4.8-1.2-4.2c-13.8,3.3-27.7,6.5-41.5,9.8
						C204.4,446.2,205.5,450.4,208.3,449.7L208.3,449.7z"/>
				</g>
			</g>
			<g>
				<g>
					<path fill="#010101" d="M207.7,429.6c13.8-3.3,27.7-6.5,41.5-9.8c2.7-0.6,1.6-4.8-1.2-4.2c-13.8,3.3-27.7,6.5-41.5,9.8
						C203.8,426,205,430.2,207.7,429.6L207.7,429.6z"/>
				</g>
			</g>
			<g>
				<g>
					<path fill="#010101" d="M207.2,409.4c13.8-3.3,27.7-6.5,41.5-9.8c2.7-0.6,1.6-4.8-1.2-4.2c-13.8,3.3-27.7,6.5-41.5,9.8
						C203.3,405.9,204.4,410.1,207.2,409.4L207.2,409.4z"/>
				</g>
			</g>
			<g>
				<g>
					<path fill="#010101" d="M206.6,389.3c13.8-3.3,27.7-6.5,41.5-9.8c2.7-0.6,1.6-4.8-1.2-4.2c-13.8,3.3-27.7,6.5-41.5,9.8
						C202.7,385.7,203.9,389.9,206.6,389.3L206.6,389.3z"/>
				</g>
			</g>
			<g>
				<g>
					<path fill="#010101" d="M206.1,369.1c13.8-3.3,27.7-6.5,41.5-9.8c2.7-0.6,1.6-4.8-1.2-4.2c-13.8,3.3-27.7,6.5-41.5,9.8
						C202.2,365.6,203.3,369.8,206.1,369.1L206.1,369.1z"/>
				</g>
			</g>
			<g>
				<g>
					<path fill="#010101" d="M205.5,349c13.8-3.3,27.7-6.5,41.5-9.8c2.7-0.6,1.6-4.8-1.2-4.2c-13.8,3.3-27.7,6.5-41.5,9.8
						C201.6,345.4,202.8,349.6,205.5,349L205.5,349z"/>
				</g>
			</g>
			<g>
				<g>
					<path fill="#010101" d="M205,328.8c13.8-3.3,27.7-6.5,41.5-9.8c2.7-0.6,1.6-4.8-1.2-4.2c-13.8,3.3-27.7,6.5-41.5,9.8
						C201.1,325.3,202.2,329.5,205,328.8L205,328.8z"/>
				</g>
			</g>
			<g>
				<g>
					<path fill="#010101" d="M204.4,308.7c13.8-3.3,27.7-6.5,41.5-9.8c2.7-0.6,1.6-4.8-1.2-4.2c-13.8,3.3-27.7,6.5-41.5,9.8
						C200.5,305.1,201.7,309.3,204.4,308.7L204.4,308.7z"/>
				</g>
			</g>
		</g>
		<g>
			<g>
				<g>
					<path fill="#010101" d="M316.4,469.9c13.1-3.3,26.1-6.5,39.2-9.8c2.7-0.7,1.6-4.9-1.2-4.2c-13.1,3.3-26.1,6.5-39.2,9.8
						C312.5,466.4,313.7,470.6,316.4,469.9L316.4,469.9z"/>
				</g>
			</g>
			<g>
				<g>
					<path fill="#010101" d="M315.9,449.7c13.1-3.3,26.1-6.5,39.2-9.8c2.7-0.7,1.6-4.9-1.2-4.2c-13.1,3.3-26.1,6.5-39.2,9.8
						C312,446.2,313.2,450.4,315.9,449.7L315.9,449.7z"/>
				</g>
			</g>
			<g>
				<g>
					<path fill="#010101" d="M315.4,429.6c13.1-3.3,26.1-6.5,39.2-9.8c2.7-0.7,1.6-4.9-1.2-4.2c-13.1,3.3-26.1,6.5-39.2,9.8
						C311.5,426.1,312.7,430.3,315.4,429.6L315.4,429.6z"/>
				</g>
			</g>
			<g>
				<g>
					<path fill="#010101" d="M314.8,409.4c13.1-3.3,26.1-6.5,39.2-9.8c2.7-0.7,1.6-4.9-1.2-4.2c-13.1,3.3-26.1,6.5-39.2,9.8
						C311,405.9,312.1,410.1,314.8,409.4L314.8,409.4z"/>
				</g>
			</g>
			<g>
				<g>
					<path fill="#010101" d="M314.3,389.3c13.1-3.3,26.1-6.5,39.2-9.8c2.7-0.7,1.6-4.9-1.2-4.2c-13.1,3.3-26.1,6.5-39.2,9.8
						C310.5,385.8,311.6,390,314.3,389.3L314.3,389.3z"/>
				</g>
			</g>
			<g>
				<g>
					<path fill="#010101" d="M313.8,369.1c13.1-3.3,26.1-6.5,39.2-9.8c2.7-0.7,1.6-4.9-1.2-4.2c-13.1,3.3-26.1,6.5-39.2,9.8
						C309.9,365.6,311.1,369.8,313.8,369.1L313.8,369.1z"/>
				</g>
			</g>
			<g>
				<g>
					<path fill="#010101" d="M313.3,349c13.1-3.3,26.1-6.5,39.2-9.8c2.7-0.7,1.6-4.9-1.2-4.2c-13.1,3.3-26.1,6.5-39.2,9.8
						C309.4,345.5,310.6,349.6,313.3,349L313.3,349z"/>
				</g>
			</g>
			<g>
				<g>
					<path fill="#010101" d="M312.8,328.8c13.1-3.3,26.1-6.5,39.2-9.8c2.7-0.7,1.6-4.9-1.2-4.2c-13.1,3.3-26.1,6.5-39.2,9.8
						C308.9,325.3,310.1,329.5,312.8,328.8L312.8,328.8z"/>
				</g>
			</g>
			<g>
				<g>
					<path fill="#010101" d="M312.2,308.7c13.1-3.3,26.1-6.5,39.2-9.8c2.7-0.7,1.6-4.9-1.2-4.2c-13.1,3.3-26.1,6.5-39.2,9.8
						C308.4,305.2,309.5,309.3,312.2,308.7L312.2,308.7z"/>
				</g>
			</g>
			<g>
				<g>
					<path fill="#010101" d="M311.7,288.5c13.1-3.3,26.1-6.5,39.2-9.8c2.7-0.7,1.6-4.9-1.2-4.2c-13.1,3.3-26.1,6.5-39.2,9.8
						C307.9,285,309,289.2,311.7,288.5L311.7,288.5z"/>
				</g>
			</g>
		</g>
	</g>
	<g>
		<path fill="#42433C" d="M295.5,78.7c0,0-52.2-63.4-102.9-75.2c-76.9-17.9-110,40.3-110,40.3l65.2,15.5V33.5
			c0-6.7,4.5-12,11.2-11.2l11,1.3c9.4,1,15.8,9,15.8,18.4V69l57,13.8L295.5,78.7z"/>
		<path fill="#121412" d="M256.9,81.8c0,0-31.3-59.9-81.4-74C114.4-9.2,83.2,43.7,83.2,43.7l64.7,15.5V33.5c0-6.7,5-12,11.7-11.2
			l11.2,1.3c9.4,1,16.3,9,16.3,18.4L186.8,69L244,82.9L256.9,81.8z"/>
	</g>
	<ellipse fill="#3A3B3B" cx="9.9" cy="50.6" rx="9.9" ry="15.6"/>
	<ellipse fill="#3A3B3B" cx="31.7" cy="409.2" rx="11.3" ry="14.2"/>
	<polygon fill="#D1D2D2" points="254.6,67.9 262.6,84 311.8,80.3 299.5,65.2 	"/>
	<path fill="#B5B6B6" d="M264.2,108.5L262.6,84l-8.1-16.1l2.6,43.3C259.4,110.2,261.8,109.3,264.2,108.5L264.2,108.5z"/>
</g>
</svg>
