<!-- Generator: Adobe Illustrator 18.0.0, SVG Export Plug-In  -->
<svg version="1.1"
	 xmlns="http://www.w3.org/2000/svg" xmlns:xlink="http://www.w3.org/1999/xlink" xmlns:a="http://ns.adobe.com/AdobeSVGViewerExtensions/3.0/"
	 x="0px" y="0px" width="1446.2px" height="1086.1px" viewBox="0 0 1446.2 1086.1" enable-background="new 0 0 1446.2 1086.1"
	 xml:space="preserve">
<defs>
</defs>
<g>
	<g>
		<g>
			<path fill="#E9C2A0" d="M446.1,463.6l760.2-234.4c0,0,80.4-48.6,47.5-126.3c-32.4-78.8-124.7-60.4-124.7-60.4L293,260.3
				L446.1,463.6z"/>
			<g>
				<path fill="#FFFFFF" d="M448.7,473.2c18.9-5.8,37.9-11.7,56.8-17.5c47.3-14.6,94.6-29.2,141.9-43.8
					c61.4-18.9,122.8-37.9,184.2-56.8c61.2-18.9,122.4-37.7,183.5-56.6c46.7-14.4,93.3-28.8,140-43.2c13.4-4.1,26.9-8.3,40.3-12.4
					c5-1.5,11.5-2.5,16-5.3c20.5-12.8,38.6-32.2,49.4-53.8c9.4-18.8,12.4-39.1,9.4-59.7c-3.2-22-14.4-43.7-29.6-59.8
					c-23.1-24.4-57.4-34-90.1-33.8c-9,0.1-18.2,0.6-26.9,2.9c-24.8,6.5-49.6,12.9-74.4,19.4c-49.6,12.9-99.3,25.9-148.9,38.8
					c-62.2,16.2-124.5,32.4-186.7,48.6c-62.6,16.3-125.2,32.6-187.8,48.9c-50.7,13.2-101.3,26.4-152,39.6
					c-26.5,6.9-52.9,13.8-79.4,20.7c-1.4,0.4-2.8,0.7-4.2,1.1c-5.7,1.5-9.9,9.5-6,14.7c27.3,36.3,54.6,72.6,82,108.8
					c23.7,31.5,47.4,63,71.1,94.5c3.3,4.3,8.6,6.6,13.7,3.6c4.3-2.5,6.9-9.3,3.6-13.7c-27.3-36.3-54.6-72.6-82-108.8
					c-23.7-31.5-47.4-63-71.1-94.5c-2,4.9-4,9.8-6,14.7c17.8-4.6,35.7-9.3,53.5-13.9c45.3-11.8,90.7-23.6,136-35.4
					c60.6-15.8,121.1-31.6,181.7-47.3c63.5-16.6,127.1-33.1,190.6-49.7c54.3-14.1,108.5-28.3,162.8-42.4c32.7-8.5,65.4-17,98.1-25.6
					c4.4-1.2,8.9-2.6,13.4-3.5c0.6-0.1,1.1-0.2,1.7-0.3c0.5-0.1,1.1-0.2,1.6-0.2c1.6-0.2-2.9,0.4-1.3,0.2c0.5-0.1,1-0.1,1.6-0.2
					c4.6-0.5,9.2-0.8,13.9-0.9c6.4-0.1,12.8,0.2,19.2,0.8c0.8,0.1,1.7,0.2,2.5,0.3c-2.4-0.3,0.5,0.1,0.8,0.1
					c1.8,0.3,3.5,0.6,5.3,0.9c4,0.8,7.9,1.8,11.8,2.9c15.6,4.7,29.5,13.2,40.9,26.1c12.9,14.7,21.4,36.4,22,56.1
					c0.5,17.6-5.3,33.3-15.1,48.1c-2.6,3.9-3.5,5-5.9,8c-2.4,3-5,5.8-7.7,8.6c-4.3,4.4-8.8,8.4-13.6,12.2c-2.1,1.7,1.5-1.1-1.1,0.8
					c-0.8,0.6-1.5,1.1-2.3,1.7c-1.2,0.8-2.3,1.6-3.5,2.4c-2.8,1.9,2.2-0.6,0.9-0.2c-2,0.6-4,1.2-6,1.9c-10.9,3.4-21.8,6.7-32.8,10.1
					c-43.3,13.3-86.5,26.7-129.8,40C974.8,290.1,914.9,308.5,855,327c-62.3,19.2-124.5,38.4-186.8,57.6
					c-50.3,15.5-100.7,31-151,46.6c-24.1,7.4-48.2,14.9-72.3,22.3c-0.5,0.1-0.9,0.3-1.4,0.4C431.1,457.7,436.4,477,448.7,473.2z"/>
			</g>
		</g>
	</g>
	<g id="doctor_1_">
		<g>
			<g>
				<defs>
					
						<rect id="SVGID_1_" x="1075.5" y="-49.2" transform="matrix(0.2894 0.9572 -0.9572 0.2894 961.0691 -1015.2697)" width="177.6" height="377.8"/>
				</defs>
				<clipPath id="SVGID_2_">
					<use xlink:href="#SVGID_1_"  overflow="visible"/>
				</clipPath>
				<g clip-path="url(#SVGID_2_)">
					<path fill="#E8C19F" d="M259.6,566C483,573,557,406.8,540.8,282.1L769.1,213c0,0,111.2-27,81-126.8
						c-24.3-79.3-97.7-69.1-129-59.9c-50.2,15.1-306.6,105.8-419.4,161.9C3.8,337.2-41,551.4,32.4,793.2
						c105.8,349.7,475,327.1,809.1,225.6c106.3-32.4,226.1-65.3,354.1-104.2c162.5-49.1,244.5-89.6,220.2-171.1
						c-27-89.6-116.6-73.4-288.8-21c-98.2,29.7-183.5,54.5-183.5,54.5l-1.1-4.3l406.4-132.8c0,0,116.6-40.5,88-134.4
						c-26.4-86.9-143.6-49.7-143.6-49.7l-404.3,122l-3.2-10.8l463.6-146.8c0,0,120.9-42.6,92.3-138.7
						c-29.1-97.2-161.4-58.8-161.4-58.8L826.8,359.8l-4.3-12.4L1224.1,226c0,0,102-31.8,72.9-127.9C1266.2-3.4,1166.4,35,1166.4,35
						l-312,95.5c-8.6,68-86.9,83.7-154.9,104.2l-158.7,48C563.5,616.2,180.8,563.8,259.6,566z"/>
					<g>
						<path fill="#FFFFFF" d="M259.6,567.6c102,2.2,200.8-32.9,253.1-125.2c20-35.1,29.7-75.6,31.8-116c0.5-6.5-2.7-43.2-1.1-43.7
							c11.3-3.2,22.7-7,34.5-10.3c63.7-19.4,127.9-38.9,191.6-57.8c66.9-20,104.7-74.5,77.2-143.6C815.4-6.7,729,20.8,669.7,41.3
							c-103.1,35.6-205.6,73.4-306,116.6C255.9,204.4,152.2,264.8,79.9,358.7c-62.1,81-85.3,181.9-78.8,282.8
							c7,104.7,38.9,216.4,104.7,299.6c61.5,78.3,154.4,120.4,251,136.6c108.5,17.8,221.3,4.9,328.2-16.7
							c139.3-28.6,275.3-75,411.8-115c74.5-21.6,149.5-42.1,221.3-71.8c36.2-15.1,76.6-35.1,96.1-70.7c15.7-28.6,6.5-64.8-10.3-90.1
							c-18.4-28.1-51.8-35.1-83.1-35.1c-59.4,0-119.3,20.5-175.4,37.2c-64.2,18.9-127.9,38.3-192.1,57.2c-4.3,1.1-15.1,3.8-7.6,1.1
							c8.1-2.7,16.7-5.4,24.8-8.1c32.4-10.8,65.3-21,97.7-31.8c78.3-25.4,156.5-51.3,234.8-76.6c39.9-13,77.2-24.3,109-54
							c30.8-29.1,38.3-70.7,22.1-109.6c-14.6-34.5-51.3-46.4-85.8-47c-41-0.5-82,16.2-120.4,27.5c-79.9,24.3-160.3,48.6-240.2,72.9
							c-28.6,8.6-56.7,17.3-85.3,25.9c-4.3,1.6-9.2,2.7-13.5,4.3c3.2-1.1-5.4-6.5,4.9-9.7c138.2-43.7,275.8-87.4,414-131.2
							c38.9-12.4,73.9-23.7,105.2-51.8c63.1-57.2,31.3-158.1-53.4-168.4c-42.6-4.9-79.3,5.9-119.3,17.8
							c-76.1,23.2-152.2,45.9-228.3,69.1c-60.4,18.4-120.4,36.7-180.8,54.5c-9.2,2.7-2.2-9.7-7.6-8.1c5.9-1.6,11.9-3.8,17.8-5.4
							c30.2-9.2,60.4-18.4,90.7-27.5c79.3-24.3,158.7-48,238.6-72.3c38.9-11.9,77.2-20,107.4-49.7c45.9-45.9,27.5-133.3-30.2-160.3
							c-30.8-14.6-63.7-5.9-93.9,3.2c-99.9,30.2-199.7,61-299.6,91.2c-0.5,0-1.1,0.5-1.1,1.1c-13.5,77.7-113.9,90.7-176.5,109.6
							c-45.3,14-91.2,27.5-136.6,41.6c-0.5,0-1.1,1.1-1.1,1.6c3.8,62.6-4.9,125.8-41,178.7c-27.5,40.5-70.2,68-115.5,84.7
							c-32.4,11.9-66.9,18.4-100.9,20c-9.2,0.5-18.4,0.5-27.5,0C244.5,564.9,253.7,567.6,259.6,567.6c2.2,0,2.2-3.2,0-3.2
							c-2.7,0-9.7-1.6-11.9,1.1c-0.5,0.5-0.5,1.1-0.5,1.6c4.3,11.9,76.1-2.2,85.3-4.3c61.5-11.9,120.4-39.9,160.3-89.1
							c24.3-29.7,38.3-65.8,45.3-103.1c4.3-22.1,5.4-45.3,4.9-67.5c0-5.9-4.3-18.4,1.1-20c6.5-2.2,12.4-3.8,18.9-5.9
							c75-22.7,156-39.9,227.8-71.2c20.5-8.6,38.3-21,51.8-38.9c7.6-9.7,8.1-33.5,17.8-36.7c28.1-8.6,55.6-16.7,83.7-25.4
							c71.8-22.1,143-43.7,214.8-65.8c16.2-4.9,31.8-9.2,49.1-9.7c64.2-1.6,104.2,65.3,89.6,124.1c-13.5,54.5-71.2,69.1-117.1,83.1
							c-119.4,36.2-238.7,72.4-357.4,108c-1.1,0-1.6,1.1-1.1,2.2c1.6,4.3,2.7,8.1,4.3,12.4c0.5,1.1,1.1,1.6,2.2,1.1
							c129-38.9,257.5-77.7,386.4-116.6c38.9-11.9,76.6-25.9,117.7-27.5c58.3-2.2,108.5,28.1,112.8,90.1
							c3.8,49.1-39.9,84.7-79.3,104.7c-20,10.3-42.6,15.7-64.2,22.1c-53.4,16.7-106.9,34-160.3,50.7c-84.7,27-170,54-254.8,81
							c-1.1,0.5-1.6,1.1-1.1,2.2c1.1,3.8,2.2,7.6,3.2,10.8c0,1.1,1.1,1.6,2.2,1.1c126.3-38.3,252.6-76.1,378.9-114.4
							c51.3-15.7,120.4-32.9,157.1,19.4c49.7,69.6-24.8,136.6-86.9,157.1c-132.2,43.2-264.5,86.4-396.7,129.5
							c-1.1,0.5-1.6,1.1-1.1,2.2c0.5,1.6,1.1,2.7,1.1,4.3c0.5,1.1,1.1,1.6,2.2,1.1c48-14,96.1-28.1,144.1-42.6
							c68.5-20.5,138.2-44.8,210-52.9c47.5-5.4,93.4,3.8,112.8,51.3c20,49.7-6.5,87.4-48,112.8c-59.4,37.2-131.7,54.5-198.1,74.5
							c-78.8,23.7-158.1,46.4-237.5,69.6c-124.7,36.2-247.7,73.9-377.3,86.4c-109.6,10.8-225.6,4.3-326-45.3
							c-108.6-52.6-169-154-199.2-266.3C-3.2,657.2-8,541.2,37.8,436.5c51.8-117.1,161.9-197,273.6-251.5
							c102-49.7,210.5-88,317.4-125.8c77.7-27.5,196.5-79.9,222.9,41c16.7,77.2-58.8,103.6-116,120.9
							c-65.3,19.4-130.1,39.4-195.4,58.8l0,0c-0.5,0-1.6,1.1-1.1,1.6c8.1,65.8-7.6,132.2-47,186.2c-54,73.4-145.2,97.7-232.1,96.1
							C256.9,564.4,257.5,567.6,259.6,567.6z"/>
					</g>
				</g>
			</g>
		</g>
		<g>
			<g>
				<defs>
					
						<rect id="SVGID_3_" x="1075.5" y="-49.2" transform="matrix(0.2894 0.9572 -0.9572 0.2894 961.0691 -1015.2697)" width="177.6" height="377.8"/>
				</defs>
				<clipPath id="SVGID_4_">
					<use xlink:href="#SVGID_3_"  overflow="visible"/>
				</clipPath>
				<circle clip-path="url(#SVGID_4_)" fill="#231F20" cx="1192.8" cy="168.8" r="8.6"/>
			</g>
		</g>
		<g>
			<g>
				<defs>
					
						<rect id="SVGID_5_" x="1075.5" y="-49.2" transform="matrix(0.2894 0.9572 -0.9572 0.2894 961.0691 -1015.2697)" width="177.6" height="377.8"/>
				</defs>
				<clipPath id="SVGID_6_">
					<use xlink:href="#SVGID_5_"  overflow="visible"/>
				</clipPath>
				<circle clip-path="url(#SVGID_6_)" fill="#FFFFFF" cx="1194.4" cy="165.5" r="3.2"/>
			</g>
		</g>
		<g>
			<g>
				<defs>
					
						<rect id="SVGID_7_" x="1075.5" y="-49.2" transform="matrix(0.2894 0.9572 -0.9572 0.2894 961.0691 -1015.2697)" width="177.6" height="377.8"/>
				</defs>
				<clipPath id="SVGID_8_">
					<use xlink:href="#SVGID_7_"  overflow="visible"/>
				</clipPath>
				<circle clip-path="url(#SVGID_8_)" fill="#231F20" cx="1171.2" cy="96.4" r="8.6"/>
			</g>
		</g>
		<g>
			<g>
				<defs>
					
						<rect id="SVGID_9_" x="1075.5" y="-49.2" transform="matrix(0.2894 0.9572 -0.9572 0.2894 961.0691 -1015.2697)" width="177.6" height="377.8"/>
				</defs>
				<clipPath id="SVGID_10_">
					<use xlink:href="#SVGID_9_"  overflow="visible"/>
				</clipPath>
				<circle clip-path="url(#SVGID_10_)" fill="#FFFFFF" cx="1172.9" cy="93.2" r="3.2"/>
			</g>
		</g>
		<g>
			<g>
				<defs>
					
						<rect id="SVGID_11_" x="1075.5" y="-49.2" transform="matrix(0.2894 0.9572 -0.9572 0.2894 961.0691 -1015.2697)" width="177.6" height="377.8"/>
				</defs>
				<clipPath id="SVGID_12_">
					<use xlink:href="#SVGID_11_"  overflow="visible"/>
				</clipPath>
				<path clip-path="url(#SVGID_12_)" d="M1220.4,167.1c-1.1-3.2-2.2-6.5-2.7-9.7c-1.1-3.2,0.5-5.4,3.2-6.5c2.7-0.5,4.9,0.5,5.9,3.8
					c2.2,6.5,4.3,13,5.9,20c1.1,2.7-0.5,5.4-3.2,5.9s-4.9-0.5-5.9-3.2C1222.5,174.2,1221.4,170.9,1220.4,167.1z"/>
			</g>
		</g>
		<g>
			<g>
				<defs>
					
						<rect id="SVGID_13_" x="1075.5" y="-49.2" transform="matrix(0.2894 0.9572 -0.9572 0.2894 961.0691 -1015.2697)" width="177.6" height="377.8"/>
				</defs>
				<clipPath id="SVGID_14_">
					<use xlink:href="#SVGID_13_"  overflow="visible"/>
				</clipPath>
				<path clip-path="url(#SVGID_14_)" d="M1195,82.4c-1.1-3.2-1.6-5.9-2.7-9.2c-1.1-3.2,0-5.9,2.7-6.5c2.7-1.1,4.9,0.5,5.9,3.8
					c2.2,6.5,3.8,13,5.9,19.4c1.1,3.2-0.5,5.4-3.2,6.5c-2.7,0.5-4.9-0.5-5.9-3.8C1196.6,89.4,1195.5,85.6,1195,82.4L1195,82.4z"/>
			</g>
		</g>
		<g>
			<g>
				<defs>
					
						<rect id="SVGID_15_" x="1075.5" y="-49.2" transform="matrix(0.2894 0.9572 -0.9572 0.2894 961.0691 -1015.2697)" width="177.6" height="377.8"/>
				</defs>
				<clipPath id="SVGID_16_">
					<use xlink:href="#SVGID_15_"  overflow="visible"/>
				</clipPath>
				<path clip-path="url(#SVGID_16_)" fill="#8A5E3C" d="M1056.8,171.5c-17.3-56.7,23.2-91.8,56.1-105.2c7-2.7,5.9-2.2,7.6,3.8
					c15.7,50.7,30.8,101.5,45.9,152.7c0.5,1.1,0.5,2.2,1.1,3.2C1130.8,238.4,1071.9,222.2,1056.8,171.5z"/>
			</g>
		</g>
		<g>
			<g>
				<defs>
					
						<rect id="SVGID_17_" x="1075.5" y="-49.2" transform="matrix(0.2894 0.9572 -0.9572 0.2894 961.0691 -1015.2697)" width="177.6" height="377.8"/>
				</defs>
				<clipPath id="SVGID_18_">
					<use xlink:href="#SVGID_17_"  overflow="visible"/>
				</clipPath>
				<path clip-path="url(#SVGID_18_)" fill="#E8C19F" d="M1068.1,167.1c-11.9-39.4,14.6-76.1,38.9-85.8c5.9-2.2,4.9-1.6,5.9,3.2
					c13,42.6,25.9,85.8,38.9,128.5c0.5,1.1,0.5,2.2,1.1,2.7C1126.4,222.7,1080,206,1068.1,167.1z"/>
			</g>
		</g>
		<g>
			<g>
				<defs>
					
						<rect id="SVGID_19_" x="1075.5" y="-49.2" transform="matrix(0.2894 0.9572 -0.9572 0.2894 961.0691 -1015.2697)" width="177.6" height="377.8"/>
				</defs>
				<clipPath id="SVGID_20_">
					<use xlink:href="#SVGID_19_"  overflow="visible"/>
				</clipPath>
				<path clip-path="url(#SVGID_20_)" fill="#FFFFFF" d="M1083.8,162.3c-8.6-28.6,11.9-55.6,30.2-63.1c4.3-1.6,3.8-1.6,4.9,2.2
					c9.2,31.3,18.9,62.1,28.1,93.4c0,0.5,0.5,1.6,0.5,2.2C1127,202.8,1091.9,190.4,1083.8,162.3z"/>
			</g>
		</g>
		<g>
			
				<rect x="1195" y="41.8" transform="matrix(0.2894 0.9572 -0.9572 0.2894 1012.7078 -1155.4624)" fill="#C3E3EC" width="179.2" height="125.2"/>
		</g>
		<g>
			<g>
				<defs>
					
						<rect id="SVGID_21_" x="1075.5" y="-49.2" transform="matrix(0.2894 0.9572 -0.9572 0.2894 961.0691 -1015.2697)" width="177.6" height="377.8"/>
				</defs>
				<clipPath id="SVGID_22_">
					<use xlink:href="#SVGID_21_"  overflow="visible"/>
				</clipPath>
				<path clip-path="url(#SVGID_22_)" fill="#BE202E" d="M1307.8,86.7c1.6,5.9,3.2,10.8,4.9,16.2c0,0.5-1.1,1.6-1.6,1.6
					c-4.3,1.6-8.6,2.7-13,3.8c-2.7,0.5-2.7,1.6-2.2,4.3c1.6,4.9,2.7,9.7,4.3,14.6c-5.9,1.6-11.3,3.2-17.8,5.4
					c-1.6-4.9-2.7-9.2-4.3-14c-1.1-4.3-1.1-3.8-4.9-2.7c-4.3,1.1-9.2,2.7-13.5,4.3c-1.6-5.9-3.2-11.3-5.4-17.3
					c0.5-0.5,1.6-0.5,2.7-1.1c4.3-1.1,8.1-2.7,12.4-3.8c2.2-0.5,2.7-1.1,2.2-3.8c-1.6-4.9-3.2-9.7-4.3-15.1
					c5.9-1.6,11.3-3.2,17.3-5.4c1.6,5.9,3.2,11.3,5.4,17.8C1296.5,90.5,1301.8,88.9,1307.8,86.7z"/>
			</g>
		</g>
	</g>
</g>
</svg>
