<!-- Generator: Adobe Illustrator 18.0.0, SVG Export Plug-In  -->
<svg version="1.1"
	 xmlns="http://www.w3.org/2000/svg" xmlns:xlink="http://www.w3.org/1999/xlink" xmlns:a="http://ns.adobe.com/AdobeSVGViewerExtensions/3.0/"
	 x="0px" y="0px" width="612.6px" height="605px" viewBox="0 0 612.6 605" enable-background="new 0 0 612.6 605"
	 xml:space="preserve">
<defs>
</defs>
<g>
	<path fill="#4E4A47" d="M590.8,129.7l1.9-2.6l11.1,5.4c4,2,6.2,6.4,5.4,10.7l-2.9,15.3c-0.1,0.7,0.1,1.5,0.6,2l0.5,0.5
		c0.5,0.5,0.7,1.1,0.7,1.7l-0.7,13.8l-34.6-50.4l3.5-9.5l5.7,2.1c2.8,1,5,3.4,5.7,6.3l1.7,6.8L590.8,129.7z"/>
	<path fill="#DE5F42" d="M569,112.9l6.9,4.1c0.9,0.5,1.5,1.3,1.9,2.2l2.9,7.7c0.5,1.4-0.5,2.9-2,2.9h-7.5L569,112.9z"/>
	<path fill="#77757A" d="M61.3,154.1h-2c-5.9,0-10-5.8-8-11.4l3.5-10l-13.2-16.7c-1.6-2-2-4.6-1.2-7l11.3-33.4L82,78.5L61.3,154.1z"
		/>
	<path fill="#2D2424" d="M61,122.4l-10.4-10.9L52.4,88l-5.6,11.3L43.8,112c-0.4,1.8,0,3.7,1.3,5.1l9.2,10.2l12.4,7.2l3.2-11.5
		L61,122.4z"/>
	<path fill="#F9D952" d="M50.6,111.5l-3.3-10.2c-0.4-1.3-0.3-2.7,0.2-4l3.3-7.4c0.7-1.6,2.1-2.7,3.7-3.1l17.2-4.4v37L50.6,111.5z"/>
	<path fill="#392F2F" d="M46.2,118.3l8.1,9l12.4,7.2l3.2-11.5l-8.8-0.6l-10.4-10.9l-3.3,1.5C45.2,114,44.7,116.6,46.2,118.3z"/>
	<path fill="#2D2424" d="M51.3,106.9l-0.7,4.6L61,122.4l8.8,0.6l-1.5-11l-11.9-7.6C54.4,103.2,51.7,104.5,51.3,106.9z"/>
	<rect x="98.1" y="99.3" fill="#24211F" width="88.7" height="134"/>
	<path fill="#D68B28" d="M33.6,63.1l39.9,52.6l504.6,104.1c4.2,0.5,12.6,0.4,16.8,0c2.2-0.2,6.7-0.8,8.6-1.9
		c0.8-0.4,2.3-1.8,2.6-2.6c0.5-1.3,0-5.6,0-5.6l-49.5-83.4c-11.4-19.2-31.1-31.9-53.3-34.3L52.6,42.2l-6.4-0.7
		C34.4,40.2,26.7,53.5,33.6,63.1L33.6,63.1z"/>
	<path fill="#F7C314" d="M35.8,282.2l12.1,223.5c0.8,14.1,10.9,26,24.8,28.9c34.9,7.3,98.9,20.6,122.8,25.3
		c57.5,11.2,229.8,37.6,278.3,45c6.8,1,12.9-4.2,12.9-11l1.1-252.5L35.8,282.2z"/>
	<path fill="#E7AC22" d="M35.8,282.2l-25-7.1v-27.2l264.4,39l173,22.2c9.5,1.2,19,1.8,28.5,1.8h11v30.5L35.8,282.2z"/>
	<path fill="#E9B320" d="M488,341.4L487,593.9c0,4.3-2.5,8-6,9.9c8.4-3.2,28.5-19.4,58-50.6c8.3-8.8,18.9-26.2,24.8-35.6
		c2.1-3.4,3.3-7.2,3.4-11.2l7.5-230.9L488,341.4z"/>
	<path fill="#D69A29" d="M487.8,310.9c0,0,14.4-0.6,19.1-1.9c7.6-2,28.7-10.5,28.7-10.5l-3.7-2.2l19.4-12.7l-10.8-3.4l34.2-28.4
		l16.2,1.5l15.3-16V265l-16,18.7l-15.4-1.5l-40.6,31.7v16.4l-46.3,11V310.9z"/>
	<polygon fill="#E09C25" points="10.8,247.9 10.8,275.1 2.6,270.2 0.4,242.1 	"/>
	<path fill="#BF822B" d="M590.8,253.1l-16.2-1.5l-34.2,28.4l10.8,3.4L531.9,296l3.7,2.2c0,0-21.1,8.5-28.7,10.5
		c-4.6,1.2-19.1,1.9-19.1,1.9h-11c-9.5,0-19.1-0.6-28.5-1.8l-173-22.2l-264.4-39l-10.4-5.7l-0.2-0.7c-1-4.3,1.1-8.6,4.9-10.6
		l15.2-7.8l559.3,2.2l8.1,0.5c6.4,0.4,12.3,3.6,16.1,8.7l2.2,2.9L590.8,253.1z"/>
	<g>
		<path fill="#E7AC22" d="M4.7,236.3l3.4-14.2c0,0,3.9,0.2,4.9,0c0.9-0.2,3.4-1.9,3.4-1.9v13.1c0,0-3.5,2.6-4.9,3
			C9.8,236.7,4.7,236.3,4.7,236.3z"/>
		<path fill="#FDB515" d="M8.1,222.1c0,0,2.6,1,4.9,0c2.1-0.9,3.4-1.9,3.4-1.9s-3-0.4-4.4,0C10.3,220.7,8.1,222.1,8.1,222.1z"/>
	</g>
	<polygon fill="#322E2B" points="466.2,162.8 479.2,160.9 513.2,165 515.8,247.9 471,289.4 444.9,285.9 125.4,235.9 128.7,168 
		147,119.8 	"/>
	<polygon fill="#403936" points="466.2,162.8 479.2,160.9 515.3,164.4 514.9,220.2 466.2,203.1 218.3,172.8 177.3,177.7 128.7,168 
		147,119.8 	"/>
	<path fill="#362E2B" d="M24.9,229.7c0,0,0.6,10.2,2,12.2c1.9,2.8,10.4,3.6,10.4,3.6l24.4,3.6l85.1,12.3l73.3,9.8L398.3,296
		l38.1,4.8l27.4,3.1c12.5,1.4,25.3-0.2,37-4.8h0c0,0,20.3-13.4,27-17.9c3.6-2.5,10.9-7.4,14.4-10.1c3-2.4,8.6-7.5,11.5-10.1
		c2.6-2.3,7.9-6.8,10.4-9.2c3.4-3.4,11.2-9.8,12.9-14.4c0.4-1,0.2-3.3,0-4.4c-0.3-1.5-1.4-4.4-2.3-5.6c-1.1-1.4-5.6-4.2-5.6-4.2
		L24.9,229.7z"/>
	<g>
		<polygon fill="#DE9E26" points="61.8,239.7 61.6,249.3 94.9,254.1 94.9,244.8 		"/>
		<polygon fill="#A9762B" points="64.9,235 61.8,239.7 94.9,244.8 98.8,239.7 		"/>
	</g>
	<g>
		<polygon fill="#DE9E26" points="400.5,286.3 400.5,296.3 433.5,300.4 433.5,291.4 		"/>
		<polygon fill="#A9762B" points="403.5,281.6 400.5,286.3 433.5,291.4 437.4,286.3 		"/>
	</g>
	<g>
		<polygon fill="#57504A" points="155.4,304.2 217,311.3 214.6,266.5 222.1,254.8 159.7,245.8 152.8,256.6 		"/>
		<path fill="#6E655E" d="M150.6,304l1.4,0.8c2.8,1.5,6.3,1.5,9.1,0.1v0l-2.2-47.1l6.2-11l-9-0.7l-7.8,11.2L150.6,304z"/>
		<path fill="#6E655E" d="M165.4,306.1l1.4,0.8c2.8,1.5,6.3,1.5,9.1,0.1l0,0l-2.2-47.1l6.2-12.1l-10.1-0.7l-6.7,12.3L165.4,306.1z"
			/>
		<path fill="#6E655E" d="M179.9,308.3l1.4,0.8c2.8,1.5,6.3,1.5,9.1,0.1l0,0l-2.2-47.1l6.2-13.3l-10.1-0.7l-6.7,13.4L179.9,308.3z"
			/>
		<path fill="#6E655E" d="M194.3,310.3l1.4,0.8c2.8,1.5,6.3,1.5,9.1,0.1l0,0l-2.2-47.1l6.2-13.3l-10.1-0.7l-6.7,13.4L194.3,310.3z"
			/>
		<path fill="#6E655E" d="M210,312.2l1.4,0.8c2.8,1.5,6.3,1.5,9.1,0.1l0,0l-2.2-47.1l6.2-12.1l-11.3-0.7l-5.6,11.2L210,312.2z"/>
		<path fill="#5F5753" d="M224.7,253.8l-1.2-0.2l-6.1,12.4l2.3,47.6c0.3-0.1,0.7-0.3,1-0.4l-2.2-47.1L224.7,253.8z"/>
	</g>
	<path fill="#473E39" d="M437.4,291.4l28.7,4c9.9,1.4,20,0.6,29.6-2.3l9.5-4.3l-29.4-3.5l-6.2,4.9l-30.5-3.6L437.4,291.4z"/>
	<polygon fill="#464447" points="513.4,253.2 513.4,239.5 517.9,207.3 523.7,174.2 543.9,101.8 533,101.8 512.5,174.2 506.7,207.3 
		502.2,239.5 499.4,249.2 502.2,280.3 502.2,288.4 513.4,277.4 	"/>
	<g>
		<path fill="#5E5C5F" d="M572.8,170l-18.2-52.9l-10.6-15.3l-20.2,72.4l-5.9,33l-4.5,32.2v13.7v24.2l51.8-50.9
			c0,0,4.8-16.3,5.9-21.8C572.4,197.2,572.8,170,572.8,170z"/>
		<polygon fill="#5E5C5F" points="513.4,277.4 513.4,277.4 502.2,288.4 		"/>
	</g>
	<polyline fill="#B1742A" points="466.2,162.8 479.2,160.9 479.2,89.4 466.2,87.9 459.4,162 	"/>
	<polygon fill="#464447" points="69.7,188 69.7,174.3 74.2,142.1 80,109.1 98.1,47.1 87,45.9 68.8,109.1 63,142.1 58.5,174.3 
		58.5,188 58.5,215.2 58.5,223.2 69.7,212.2 	"/>
	<g>
		<path fill="#2B2A2B" d="M130.7,109.6l-20.9-61.2l-11.6-1.3L80,109.1l-5.9,33l-4.5,32.2V188v24.2l51.8-50.9c0,0,8.2-17.8,9.2-23.7
			C132,130.6,130.7,109.6,130.7,109.6z"/>
		<polygon fill="#2B2A2B" points="69.7,212.2 69.7,212.2 58.5,223.2 		"/>
	</g>
	<path fill="#3A3838" d="M17.6,168.6l2.3,53.9c0.1,2.8,2.2,5.1,4.9,5.5l416.7,58.5c3.4,0.5,6.4-2.2,6.4-5.7v-57.6
		c0-2.9-2.1-5.4-4.9-5.7L24,162.6C20.5,162.1,17.5,165,17.6,168.6z"/>
	<path fill="#595554" d="M17.6,172.2l2.3,52.2c0.1,2.7,2.2,4.9,4.8,5.3L439,286.5c3.4,0.5,6.4-2.2,6.4-5.5v-55.8
		c0-2.8-2.1-5.2-4.9-5.6L23.9,166.4C20.5,166,17.5,168.7,17.6,172.2z"/>
	<path fill="#C0812B" d="M249.3,94.4v34.4c0,5.7,4.3,10.4,9.9,11.1l200.2,22c3.6,0.4,6.8-2.4,6.8-6.1v-39.4L249.3,94.4z"/>
	<polygon fill="#B1742A" points="220.6,60.7 249.3,94.4 466.2,116.5 436.5,84.6 	"/>
	<polygon fill="#A26627" points="436.5,84.6 466.2,87.9 466.2,116.5 	"/>
	<polygon fill="#845B24" points="220.6,60.7 249.3,94.4 276.4,66.9 	"/>
	<polygon fill="#845B24" points="403.5,80.8 434.5,113.3 466.2,116.5 436.5,84.6 	"/>
	<path fill="#E7B122" d="M63.2,18.4L75.9,7.6C82.2,2,90.6-0.7,99,0.1l398.7,38.9c17.2,1.7,33,10.5,43.4,24.4c0,0,17.2,25.8,21.8,35
		c3.5,6.9,12.3,31.4,12.3,31.4l-59.4-60.6L63.2,18.4z"/>
	<path fill="#F5C117" d="M499.9,65.8l-442.2-48c-9.4-1-18.4,4.2-22.3,12.9l-8.5,19.2c-2.4,5.4,0.6,11.7,6.3,13.3l0,0v-3.9
		c0-10.5,8.6-18.2,19-17h0L503,92c22.2,2.5,41.9,15.2,53.3,34.3l49.5,83.4c0,0,0.5,4.3,0,5.6l4.5-10.4c4-9.3,2.9-20-2.8-28.3
		L553,97.5C540.8,79.7,521.4,68.1,499.9,65.8z"/>
	<path fill="#524843" d="M475.9,285.3l29.4,3.5c0,0,0.8-6.4,1.3-8.1c0.6-2.7,2.2-6.6,3.8-9c1.4-2.1,4.5-6,6.4-7.6
		c2.9-2.4,12.9-7.7,12.9-7.7l-10.1-3.2c0,0-6.4,1.3-9.9,1.6c-1.6,0.1-8.4-0.4-9.5-1.6c-0.7-0.7-0.8-4-0.8-4s-10.4,4.8-12.7,7.3
		c-1.2,1.2-3.3,4.2-4.1,5.7c-1.3,2.4-3.2,7.3-4.2,9.8C477.1,275.1,475.9,285.3,475.9,285.3z"/>
	<path fill="#473E39" d="M529.2,256.4c0,0-10,5.3-12.9,7.7c-1.9,1.6-5.1,5.5-6.4,7.6c-1.5,2.3-3.1,6.2-3.8,9
		c-0.4,1.7-1.3,8.1-1.3,8.1l33.7-28.3L529.2,256.4L529.2,256.4z"/>
</g>
</svg>
