<!-- Generator: Adobe Illustrator 18.0.0, SVG Export Plug-In  -->
<svg version="1.1"
	 xmlns="http://www.w3.org/2000/svg" xmlns:xlink="http://www.w3.org/1999/xlink" xmlns:a="http://ns.adobe.com/AdobeSVGViewerExtensions/3.0/"
	 x="0px" y="0px" width="293.7px" height="189.5px" viewBox="0 0 293.7 189.5" enable-background="new 0 0 293.7 189.5"
	 xml:space="preserve">
<defs>
</defs>
<g>
	<path fill="#FFC919" d="M37.8,0.3C53-0.8,228.1-9,293.6,188.2c0.3,1-0.9,1.8-1.7,1C194.1,86.9,70.6,127,57.6,131.6
		c-0.6,0.2-1.2-0.2-1.3-0.8L36.9,1.5C36.8,0.9,37.2,0.4,37.8,0.3z"/>
	<path fill="#FEEE74" d="M57.6,130.3l25.6-35.6c0.2-0.3,0.5-0.4,0.8-0.4l43.9,0.9c0.8,0,1.3-0.9,0.8-1.6l-26-35.4
		c-0.2-0.3-0.2-0.6-0.1-0.9l14.4-41.5c0.3-0.8-0.5-1.5-1.3-1.3L74.2,28.3c-0.3,0.1-0.7,0-0.9-0.2l-35-26.5c-0.7-0.5-1.6,0-1.6,0.8
		l0.2,43.9c0,0.3-0.2,0.6-0.4,0.8L0.4,72.2c-0.7,0.5-0.5,1.5,0.3,1.8l41.8,13.4c0.3,0.1,0.6,0.3,0.6,0.7l12.7,42
		C56.1,130.8,57.1,131,57.6,130.3z"/>
</g>
</svg>
