<!-- Generator: Adobe Illustrator 18.0.0, SVG Export Plug-In  -->
<svg version="1.1"
	 xmlns="http://www.w3.org/2000/svg" xmlns:xlink="http://www.w3.org/1999/xlink" xmlns:a="http://ns.adobe.com/AdobeSVGViewerExtensions/3.0/"
	 x="0px" y="0px" width="95.9px" height="103.8px" viewBox="0 0 95.9 103.8" enable-background="new 0 0 95.9 103.8"
	 xml:space="preserve">
<defs>
</defs>
<g>
	<g enable-background="new    ">
		<g>
			<polygon fill="#8F8F8E" points="67.8,55.5 52.4,47.1 62.9,26.1 78.3,34.5 			"/>
		</g>
		<g>
			<defs>
				<path id="SVGID_1_" d="M75.9,1l15.4,8.4c-1.5-0.8-3.4-1.2-5.4-0.9L70.5,0.1C72.5-0.2,74.3,0.2,75.9,1z"/>
			</defs>
			<use xlink:href="#SVGID_1_"  overflow="visible" fill="#E2E2E2"/>
			<clipPath id="SVGID_2_">
				<use xlink:href="#SVGID_1_"  overflow="visible"/>
			</clipPath>
			<g clip-path="url(#SVGID_2_)" enable-background="new    ">
				<path fill="#E2E2E2" d="M85.9,8.5L70.5,0.1C71.7-0.1,72.9,0,74,0.3l15.4,8.4C88.3,8.4,87.1,8.3,85.9,8.5"/>
				<path fill="#E2E2E2" d="M89.4,8.7L74,0.3c0.6,0.1,1.1,0.3,1.6,0.6L91,9.2C90.5,9,89.9,8.8,89.4,8.7"/>
				<path fill="#E2E2E2" d="M91,9.2L75.6,0.9C75.7,0.9,75.8,1,75.9,1l15.4,8.4C91.2,9.3,91.1,9.3,91,9.2"/>
			</g>
		</g>
		<g>
			<polygon fill="#ACACAC" points="37.8,75.3 22.4,66.9 58.1,61.9 73.5,70.3 			"/>
		</g>
		<g>
			<polygon fill="#039AA6" points="78.3,34.5 67.8,55.5 57.4,37.5 			"/>
		</g>
		<g>
			<polygon fill="#087D86" points="57.4,37.5 42,29.1 62.9,26.1 78.3,34.5 			"/>
		</g>
		<g>
			<polygon fill="#02595F" points="67.8,55.5 52.4,47.1 42,29.1 57.4,37.5 			"/>
		</g>
		<g>
			<polygon fill="#7A7A7A" points="73.5,70.3 58.1,61.9 40.3,31 55.7,39.4 			"/>
		</g>
		<g>
			<polygon fill="#039AA6" points="55.7,39.4 73.5,70.3 37.8,75.3 			"/>
		</g>
		<g>
			<polygon fill="#056870" points="37.8,75.3 22.4,66.9 40.3,31 55.7,39.4 			"/>
		</g>
		<g>
			<defs>
				<path id="SVGID_3_" d="M20.1,102.8L4.7,94.4C1.9,92.9,0,89.8,0,85.9l15.4,8.4C15.4,98.2,17.3,101.3,20.1,102.8z"/>
			</defs>
			<use xlink:href="#SVGID_3_"  overflow="visible" fill="#E2E2E2"/>
			<clipPath id="SVGID_4_">
				<use xlink:href="#SVGID_3_"  overflow="visible"/>
			</clipPath>
			<g clip-path="url(#SVGID_4_)" enable-background="new    ">
				<path fill="#E2E2E2" d="M20.1,102.8L4.7,94.4C1.9,92.9,0,89.8,0,85.9l15.4,8.4C15.4,98.2,17.3,101.3,20.1,102.8"/>
			</g>
		</g>
		<g>
			<polygon fill="#E2E2E2" points="25.6,17 10.2,8.6 70.5,0.1 85.9,8.5 			"/>
		</g>
		<g>
			<polygon fill="#E2E2E2" points="15.4,94.3 0,85.9 0.1,20.8 15.5,29.2 			"/>
		</g>
		<g>
			<path fill="#F3F3F3" d="M85.9,8.5c5.5-0.8,10,3.4,10,9.4L95.8,83c0,6-4.5,11.5-10.1,12.2l-60.3,8.5c-5.5,0.8-10-3.4-10-9.4
				l0.1-65.1c0-6,4.5-11.5,10.1-12.2L85.9,8.5z M37.8,75.3l35.7-5L55.7,39.4L37.8,75.3 M67.8,55.5l10.5-21l-20.9,2.9L67.8,55.5"/>
		</g>
		<g>
			<defs>
				<path id="SVGID_5_" d="M15.5,29.2L0.1,20.8c0-6,4.5-11.5,10.1-12.2L25.6,17C20,17.7,15.5,23.2,15.5,29.2z"/>
			</defs>
			<use xlink:href="#SVGID_5_"  overflow="visible" fill="#E2E2E2"/>
			<clipPath id="SVGID_6_">
				<use xlink:href="#SVGID_5_"  overflow="visible"/>
			</clipPath>
			<g clip-path="url(#SVGID_6_)" enable-background="new    ">
				<path fill="#E2E2E2" d="M15.5,29.2L0.1,20.8c0-1.5,0.3-2.9,0.8-4.3l15.4,8.4C15.8,26.3,15.5,27.7,15.5,29.2"/>
				<path fill="#E2E2E2" d="M16.3,24.9L0.9,16.5c0.2-0.6,0.5-1.1,0.8-1.7l15.4,8.4C16.8,23.8,16.5,24.4,16.3,24.9"/>
				<path fill="#E2E2E2" d="M17.1,23.2L1.7,14.9c0.2-0.5,0.5-0.9,0.8-1.3l15.4,8.4C17.6,22.3,17.3,22.8,17.1,23.2"/>
				<path fill="#E2E2E2" d="M17.9,21.9L2.5,13.5c0.3-0.4,0.6-0.8,0.9-1.1l15.4,8.4C18.5,21.1,18.2,21.5,17.9,21.9"/>
				<path fill="#E2E2E2" d="M18.8,20.8L3.4,12.4c0.3-0.4,0.7-0.7,1-1l15.4,8.4C19.5,20.1,19.1,20.4,18.8,20.8"/>
				<path fill="#E2E2E2" d="M19.8,19.7L4.4,11.4c0.4-0.3,0.8-0.7,1.2-1L21,18.8C20.6,19.1,20.2,19.4,19.8,19.7"/>
				<path fill="#E2E2E2" d="M21,18.8L5.6,10.4C6.1,10,6.7,9.7,7.2,9.5l15.4,8.4C22.1,18.1,21.5,18.4,21,18.8"/>
				<path fill="#E2E2E2" d="M22.7,17.8L7.2,9.5C8.2,9,9.2,8.7,10.2,8.6L25.6,17C24.6,17.1,23.6,17.4,22.7,17.8"/>
			</g>
		</g>
	</g>
</g>
</svg>
