<!-- Generator: Adobe Illustrator 18.0.0, SVG Export Plug-In  -->
<svg version="1.1"
	 xmlns="http://www.w3.org/2000/svg" xmlns:xlink="http://www.w3.org/1999/xlink" xmlns:a="http://ns.adobe.com/AdobeSVGViewerExtensions/3.0/"
	 x="0px" y="0px" width="398.7px" height="279.3px" viewBox="0 0 398.7 279.3" enable-background="new 0 0 398.7 279.3"
	 xml:space="preserve">
<defs>
</defs>
<g>
	<ellipse fill="#070808" cx="222.9" cy="26.6" rx="21.9" ry="12.8"/>
	<path fill="#635322" d="M34.5,232.2L34.5,232.2c0,0-1.1,30.1,5.9,36.1s7,10,15,9.5s16-5.5,21.5-5s23,4.1,38,5s132.5,0.5,155-2
		s33,2,40,2.5s10.5,0,16.5-7.5s16.5-23.5,17-27.5c0.2-1.9-0.2-4.5-1.2-7.5c-38.2,23.3-106,26.9-152.8,27
		C125.7,262.9,70.6,256.1,34.5,232.2z"/>
	<path fill="#191918" d="M71.2,245.8c0,2.2-0.8,12.4,0,13.5c0.8,1,2,2.6,3.8,2.6s8.2,0.3,11.2,0s2.8,0.5,7,0s2.5-1.6,2.5-2.6
		c0-1,0.7-1.3,0.4-3.9s0.1-8.3,0.1-8.3L71.2,245.8z"/>
	<path fill="#2F322B" d="M270.9,258.8c0,0,9.6,5.4,24.9,4.1c0.7-0.1,1.3-0.7,1.4-1.4l1.6-17.4h-21.7L270.9,258.8z"/>
	<path fill="#0D0D0C" d="M357.4,34.8c0,0,8-7.5,19-8s12,15.5,12,22s-2,27-7,35s3,9.7,3.3,14.3c0.3,4.7,1.3,12.3,2,19.7
		c0.2,2.7,0.8,3.7,1.3,3.9c0.9,0.2,2-1.9,2-1.9s-4.3,7.7-8.3,0s4-11.3-0.3-20s-5-8.7-14-7.3c-9,1.3-7.3-40.3-7.3-40.3
		s8.8,0.3,11.4-3.7s1.8-11-4.7-13.5C360.3,32.5,357.4,34.8,357.4,34.8z"/>
	<path fill="#060606" d="M397.9,223.3c-0.5-12-3.8-41.7-18.3-75.3c-14.5-33.6-40-77-40-77l-7.4,7.8l0,0c0,0,34.5,49,44.2,92.3
		s12.7,90.8,15.2,92.7C401.4,264.3,398.4,235.3,397.9,223.3z"/>
	<path fill="#C3B261" stroke="#6C5C26" stroke-width="1.5" stroke-miterlimit="10" d="M28.8,15.2c-1-1-6.7-1.4-7.9,5.1
		c-14.4,79-35.7,165.6-2.4,198.9c34.5,34.6,97,43.8,171,43.6c62-0.2,160.8-6.5,179-56.5c6-16.5,3-192.5-7-191.5s-2,2-16,3
		s-292,3.7-307.3-1L28.8,15.2z"/>
	<path fill="#A48D3A" stroke="#6C5C26" stroke-miterlimit="10" d="M23.1,215.2c33.6,34.6,94.6,43.8,166.8,43.6
		c60.5-0.2,156.8-6.5,174.6-56.5c5.3-14.9,3.4-160.8-4.3-187.4c-8.1,1-1.4,1.9-14.8,2.9c-14,1-292,3.7-307.3-1l-9.3-1.6
		c-0.4-0.4-1.6-0.7-2.9-0.5c-0.2,0.5-0.3,1-0.4,1.6C11.4,95.3-9.3,181.9,23.1,215.2z"/>
	<path fill="#97823E" d="M342.2,235.7c-7.2,4.4-15.4,8.1-24.4,11.2c-0.5,7.2-0.9,14-0.9,15.9c0,4.5-2,13,0,15.2
		c3.1-0.7,5.9-2.7,9.5-7.3c6-7.5,16.5-23.5,17-27.5C343.6,241.3,343.2,238.7,342.2,235.7z"/>
	<path fill="#907A37" d="M34.4,232.2c0,0-1,30.1,6,36.1c4.9,4.2,6.4,7.4,9.6,8.8c2.1-5.7-0.6-12.3-0.1-18.3c0.2-2.9-0.3-10.8-1-18.3
		C43.8,237.9,39,235.2,34.4,232.2L34.4,232.2z"/>
	<path fill="#292B2A" d="M272.5,259.5c-0.1,2.2,0,9.7,0,9.7h-1.6l0.8,8.8c0,0,19.9,3,24.4,0c0,0,1.2-13,0-16.8s-14-4-15.5-4.4
		S272.5,259.5,272.5,259.5z"/>
	<path fill="#191918" d="M274.2,260.2c0.2,4.5,0,8.5,0,8.5h-1.5c0,0,1.6,4.6,0.8,6.6c-0.8,2,8.9,1.6,13.9,2s6.6,0.8,7.3-1.4
		c0.7-2.2,0.3-1.9,0-3.9c-0.3-2,0.5,6.5,0.4-2.4c-0.1-8.9-0.1-8.9-0.1-8.9L274.2,260.2z"/>
	<path fill="#1C1D1D" d="M72.4,264.1c0,1.9-0.2,3.2,0,6.2s-0.5,5,0,5.2s4.5-0.2,6.8,0s11.1,0.2,13.2,0.1c2.2-0.1,1.8-11.6,0-11.3
		s-16-0.6-17.5-0.4S72.4,264.1,72.4,264.1z"/>
	<path fill="none" stroke="#212221" stroke-width="2" stroke-miterlimit="10" d="M71.9,260.1c0,0-1,16.4,0,16.9c1,0.5,22.5,0,22.5,0
		h-0.2l-0.1-15.4"/>
	<path fill="none" stroke="#FFFFFF" stroke-miterlimit="10" d="M390.1,119.8c0,0-0.4,0.7-1.1,1.5
		C389.6,120.7,390.1,119.8,390.1,119.8z"/>
	<path fill="#AA953F" stroke="#6C5C26" stroke-width="1.5" stroke-miterlimit="10" d="M203.9,19.3c-7.7,3.7,10.5-8.6,15-10.1
		s8-5.5,19-7.5s22.5-0.5,29.5,0s31.5,7.5,45,25s36,58.5,36,65s3,23-7.5,29.5s-25.5,7-40-8.5s-21.5-40.6-40-63.8
		S237.9,2.9,203.9,19.3z"/>
	<path fill="#A48B34" stroke="#6C5C26" stroke-miterlimit="10" d="M263,39.3c18.5,24,29.4,51.8,43.2,67.5s24.3,13,30.2,4
		c5.9-9,9.5-14.6,8-22s-28-62-57.3-81l0,0c-8.6-3.9-16.3-5.7-19.7-6c-7-0.5-18.5-2-29.5,0c-4.6,0.8-7.9,2-10.5,3.2
		C243.2,12.7,250.3,22.8,263,39.3z"/>
	<path fill="#363A38" d="M332.2,78.8L332.2,78.8l-29.8,15c0,0,25,56.4,29,67.2c4,10.8,10.2,37.3,13.4,60.8s3.2,33.2,12.6,35.1
		s24.4,6.6,34.2,7c-2.5-1.9-5.5-49.4-15.2-92.7S332.2,78.8,332.2,78.8z"/>
	<path fill="#283344" stroke="#000000" stroke-width="1.5" stroke-miterlimit="10" d="M330.3,59.4c-8.9-14.3-27.7-45.7-44.2-51.1
		c-3,5.4,13.3,44.4,13.3,44.4s14.5,27,21,32c6.5,5,24.1,9,24.3,9C342.1,82.6,331.2,60.9,330.3,59.4z"/>
	<path fill="#BF9C3E" stroke="#6D5D26" stroke-width="1.5" stroke-miterlimit="10" d="M318.9,59.4c-8.8-23.8-22.2-41.2-32.9-52.2
		c-8.1-3.5-15.3-5.2-18.6-5.5c-7-0.5-18.5-2-29.5,0c-4.6,0.8-7.9,2-10.5,3.2c15.8,7.7,22.9,17.8,35.6,34.3
		c18.5,24,29.4,51.8,43.2,67.5c1,1.1,2,2.2,3,3.1C309.2,110,330.2,90.1,318.9,59.4z"/>
	<path fill="#A08B38" stroke="#6D5D26" stroke-miterlimit="10" d="M310.6,57.8c-8.8-23.8-22.2-41.2-32.9-52.2c-4-1.7-7.7-3-10.9-3.9
		c-7-0.5-18.2-1.9-28.8,0.1c-4.6,0.8-7.9,2-10.5,3.2c15.8,7.7,22.9,17.8,35.6,34.3c17.6,22.8,28.3,49.1,41.2,65.1
		C309.7,97.2,318.9,80.5,310.6,57.8z"/>
	<path fill="#6E716F" d="M390.1,114.8c-1-7.7-2.3-17-4-21.3c-1.7-4.3-0.7-7.7,1-11c1.7-3.3,1.3-4-1.7-2.3c-1,0.6-2.6,2.2-4.3,4.2
		c-4.3,7.6,3.3,9.3,3.6,13.8c0.3,4.7,1.3,12.3,2,19.7c0.2,2.8,0.8,3.7,1.3,3.9c0.3,0.1,0.6-0.1,0.9-0.4c0.7-0.8,1.1-1.5,1.1-1.5
		s-0.5,0.9-1.1,1.5c-1.5,1.8-4.5,3.8-7.3-1.5c-4-7.7,4-11.3-0.3-20c-2.6-5.3-3.9-7.3-6.5-7.8c-0.7,0.9-1.1,1.5-1.1,1.5
		c-0.3,4.7,3,19.5,2,29.7c-1,10.3-2.7,23.3-2,26.3s2.2,1.3,4.3,0c2.1-1.3,3.1-4.7,7.7-5c4.7-0.3,3.7-4.7,3.3-10.3
		c-0.3-5.7-2.6-4.9,0.7-8.9C393.1,121.1,391.1,122.4,390.1,114.8z"/>
	<circle fill="#161818" cx="384.5" cy="138.5" r="3.2"/>
	<path fill="#B1B3B3" d="M375.7,49.1c-1.3-0.8-3,1.7,0.8,16c1,3.8-0.2,7.4,0.2,9.9c0.3,2.5,1.3,3.8,1.3,3.8s3-1.3,3-3.8
		c0-2.5,1.7-9.5,0-13.5C379.4,57.4,379.2,51.3,375.7,49.1z"/>
	<path fill="#A48D3A" stroke="#6C5C26" stroke-miterlimit="10" d="M78.6,229.3c-4.3-0.8-8.8-0.8-13.2-0.7
		c-7.2,0.2-14.2,0.2-20.3-4.4c-5.2-3.9-7.9-9.7-9.5-15.7C32.5,197.4,30,186.1,27,175c-0.7-2.6-1.6-5.2-3-7.4
		c-3.2-4.9-8.7-6.1-15.1-4.2c-1,0.3-1.9,0.6-2.8,0.9c1,21.6,5.9,39.4,17,50.9c15.6,16,37.1,26.6,62.8,33.3c0.8-2.6,1.3-5.4,1.2-8.3
		C87,234.7,83.9,230.3,78.6,229.3z"/>
	<path fill="#A48D3A" stroke="#6C5C26" stroke-miterlimit="10" d="M12.8,135c1.7-1.6,1.2-3.1-1-3.2c-1.6-0.1-3.2-0.1-4.8-0.1
		c-0.2,2.2-0.4,4.4-0.5,6.6c0.9-0.3,1.7-0.6,2.5-0.9C10.4,136.8,11.7,136,12.8,135z"/>
	<path fill="#A48D3A" stroke="#6C5C26" stroke-miterlimit="10" d="M22,114.9c2.6-2.3,2.8-3.7,0.8-6.5c-1.1-1.5-2.4-2.9-3.6-4.2
		c-2.6-2.7-5.3-5.4-8-8.1c-0.9,6.2-1.8,12.2-2.5,18.2c0.9,0.5,1.8,0.9,2.7,1.4C15.1,117.6,18.7,117.9,22,114.9z"/>
	<path fill="#A48D3A" stroke="#6C5C26" stroke-miterlimit="10" d="M295.7,218.4c-0.7,0.3-2.1,0.6-3.3,1.4
		c-6.8,4.9-10.6,11.5-11.1,19.9c-0.2,2.3,1,3.9,3.2,4.5c3.2,0.9,6.1,0.6,8.7-1.8c5.5-5,8.6-11.3,9.2-18.7
		C302.9,219.5,300.6,217.5,295.7,218.4z"/>
	<path fill="#A48D3A" stroke="#6C5C26" stroke-miterlimit="10" d="M124.6,150.7c-0.1,0-0.2,0-0.3,0c-0.6-3.1-1.3-6.3-1.8-9.4
		c-0.5-3.7-2.8-5.4-6.1-6.2c-1.5-0.3-3-0.5-4.5-0.4c-4.6,0.2-9.2,0.5-13.9,0.8c-10.7,0.6-21.2,1.9-31.5,5.2c-7.8,2.5-12.4,7-13,15.5
		c-0.8,11.8,0.8,23.1,5,34.1c2.8,7.2,7,11.2,15.2,11.4c12.4,0.4,24.3-1,36-5.1c5.2-1.8,9.7-4.7,13.3-8.8c3.4-3.9,5.4-8.2,4.7-13.6
		C126.7,166.4,125.7,158.6,124.6,150.7z"/>
	<path fill="#292F3D" stroke="#FFFFFF" stroke-width="3" stroke-miterlimit="10" d="M318.5,202.1c-4.2-2.8-8.8-4.1-13.8-4.4
		c-9.7-0.6-18.8,1-25.4,8.8c-3.2,3.8-5.9,7.9-8.6,12.1c-2,3-4.1,5.8-7.7,6.9c-4.5,1.5-8.9,3.1-13.5,4c-10.7,2.3-21.5,4.2-32.3,6.2
		c0,0.1,0,0.3,0.1,0.4c-9.4,1.8-18.9,3.6-28.3,5.4c-9.3,1.8-18.6,3.3-28.1,2.3c-8.6-0.9-16-4.1-21.3-11.5c-5-7.1-4.9-14.3,1.2-20.6
		c3.1-3.3,6.6-6.2,10.3-8.8c8.4-6,12.2-13.9,10.8-24.2c-0.5-4-1.4-8-2.2-11.9c-1.7-7.8-4.5-15.5-4.2-23.6c0.6-14,6.2-19,18.9-16.8
		c6.5,1.1,12.9,2.9,19.3,4.8c8.9,2.6,17.6,5.6,26.5,8.2c6.1,1.8,12.1,1.7,17.7-2c4.7-3.2,7.2-7.5,7-13.2c-0.2-5.1-3.4-8-7.8-9.9
		c-17.9-7.9-36.7-10.6-56.1-10.3c-11.8,0.2-23.2,2.6-34.6,5.5c-1.6,0.4-3.3,0.8-5,0.9c-3.7,0.1-5.4-2.7-3.5-5.9
		c0.7-1.2,1.5-2.5,2.6-3.4c4.8-3.6,9.6-7.3,14.7-10.5c3.3-2.1,7-3.6,10.6-5.2c9.2-4.2,18.6-7.9,28.7-9.2c6.7-0.9,13.3-0.4,19.5,2.5
		c0.6,0.3,1.3,0.5,1.9,0.5c5.6,0,10.9-1.2,15.8-3.9c11-6,9.9-15.8,4.7-21.6c-2.6-2.9-6.7-4.8-10.4-6.5c-8.1-3.5-16.5-4.7-25.1-2.1
		c-8.5,2.6-16.4,6.7-23.8,11.5c-14,9.2-27.7,18.8-41.7,28c-4.5,3-9.4,5.5-14.3,7.9c-2.9,1.4-4.3,0.5-5.7-2.3
		c-1.6-3.2-0.4-5.9,1.6-8.3c3.7-4.4,7.6-8.7,11.3-13.2c5.4-6.6,10.9-13.1,16-19.9c4.3-5.7,7.2-12.1,7.5-19.5
		c0.1-3.1-1.2-5.4-3.9-6.8c-3.7-2-7.7-2.3-11.8-1.7c-3.2,0.5-6.5,1.3-9.7,1.8c-5.1,0.9-8.6,3.9-10.3,8.6c-1.2,3.3-2,6.8-2.6,10.2
		c-0.6,3.5-1.9,6.5-4.2,9.2c-5.5,6.6-11.1,13.1-16.2,20c-4.8,6.4-8.5,13.4-9.6,21.4c-0.7,5.5-4.3,9.6-9.8,9.7
		c-4.8,0.1-9.7-0.5-14.4-1.7c-8.2-2.1-16-5.3-22.4-11c-3.1-2.7-3.6-5.6-1.4-9c2.4-3.7,5.2-7,7.8-10.5c3.1-4.2,6.4-8.2,9.3-12.6
		c2-3.1,1.2-6.6-2-8.6c-2.2-1.4-4.8-2.5-7.4-3c-8.6-1.5-16.6-0.3-23.9,3.1c-2.9,15.7-5.7,31.4-8.1,46.6c2.6,2.7,5.3,5.4,8,8.1
		c1.3,1.3,2.5,2.7,3.6,4.2c2,2.8,1.8,4.2-0.8,6.5c-3.3,2.9-6.9,2.7-10.6,0.9c-0.9-0.5-1.8-0.9-2.7-1.4C8,119.3,7.4,125,6.9,130.6
		c1.6,0,3.2,0.1,4.8,0.1c2.3,0.1,2.7,1.6,1,3.2c-1.1,1-2.4,1.9-3.8,2.4c-0.8,0.3-1.7,0.6-2.5,0.9c-0.6,9.1-0.8,17.9-0.4,26
		c0.9-0.3,1.9-0.7,2.8-0.9c6.4-1.9,11.9-0.6,15.1,4.2c1.4,2.2,2.4,4.8,3,7.4c2.9,11.1,5.5,22.4,8.6,33.5c1.7,6,4.4,11.8,9.5,15.7
		c6,4.6,13.1,4.6,20.3,4.4c4.4-0.1,8.9-0.2,13.2,0.7c5.3,1,8.3,5.5,8.5,10.9c0.1,3-0.4,5.7-1.2,8.3c29.8,7.8,65.2,10.4,103.9,10.3
		c38.8-0.1,92.4-2.7,130.5-17.8c3.5-7.7,4.6-16.1,4.9-24.8C325.5,209.5,323,205.2,318.5,202.1z M123.1,186.8
		c-3.6,4.2-8.2,7-13.3,8.8c-11.6,4.1-23.6,5.5-36,5.1c-8.2-0.3-12.4-4.2-15.2-11.4c-4.2-11.1-5.9-22.4-5-34.1
		c0.6-8.5,5.2-13.1,13-15.5c10.3-3.3,20.8-4.6,31.5-5.2c4.6-0.2,9.2-0.6,13.9-0.8c1.5-0.1,3,0.1,4.5,0.4c3.3,0.7,5.6,2.5,6.1,6.2
		c0.4,3.2,1.2,6.3,1.8,9.4c0.1,0,0.2,0,0.3,0c1.1,7.8,2.1,15.7,3.2,23.5C128.6,178.6,126.5,183,123.1,186.8z M302.5,222.8
		c-0.6,7.4-3.7,13.7-9.2,18.7c-2.6,2.3-5.5,2.7-8.7,1.8c-2.2-0.6-3.4-2.2-3.2-4.5c0.6-8.4,4.3-15.1,11.1-19.9
		c1.1-0.8,2.6-1.1,3.3-1.4C300.6,216.5,302.9,218.5,302.5,222.8z"/>
	<g>
		<g>
			<g>
				<path fill="#283442" d="M282.4,17.8c3,5.5,1,12.3-4.5,15.1c-5.5,2.7-12.3,0.4-15.5-4.9c-3.1-5.2-1.2-11.7,4.3-14.6
					C272.3,10.5,279.4,12.3,282.4,17.8z"/>
				<path fill="none" stroke="#FFFFFF" stroke-width="0.915" stroke-miterlimit="10" d="M282.4,17.8c3,5.5,1,12.3-4.5,15.1
					c-5.5,2.7-12.3,0.4-15.5-4.9c-3.1-5.2-1.2-11.7,4.3-14.6C272.3,10.5,279.4,12.3,282.4,17.8z"/>
			</g>
			<path fill="#FFFFFF" d="M276.8,21.9c0.4-0.2,0.9-0.4,1.3-0.7c0.2-0.1,0.4-0.2,0.5-0.3c0.1-0.1,0.2-0.2,0.2-0.4
				c0.1-0.2,0.1-0.4,0.2-0.6c0.2-0.4,0.6-0.6,1-0.7c0.2-0.1,0.5-0.1,0.7,0c0.2,0.1,0.4,0.2,0.4,0.4c0.1,0.5,0.2,1,0.1,1.5
				c-0.2,0.6-0.6,1-1.2,1.3c-0.2,0.1-0.4,0-0.6,0c-0.1,0-0.2,0-0.3,0.1c-0.9,0.5-1.8,0.9-2.7,1.4c-0.2,0.1-0.3,0.2-0.5,0.3
				c-0.2,0.1-0.3,0.4-0.2,0.6c0.1,0.3,0.3,0.4,0.5,0.4c0.1,0,0.3-0.1,0.4-0.1c0.4-0.1,0.7-0.2,1.1-0.2c0.7-0.1,1.2,0.2,1.4,0.9
				c0,0.1,0.1,0.2,0.2,0.2c0.3,0,0.5,0,0.8,0c0.4,0,0.9,0,1.3,0.2c0.3,0.1,0.5,0.2,0.6,0.5c0.2,0.3,0.2,0.6-0.1,0.9
				c-0.3,0.3-0.7,0.5-1.1,0.7c-0.6,0.3-1.2,0.5-1.9,0.7c-0.3,0.1-0.6,0.2-0.9,0.2c-0.4,0-0.8,0-1.1-0.3c0,0,0,0-0.1-0.1
				c-0.3-0.3-0.3-0.5-0.1-0.8c0.2-0.2,0.3-0.4,0.5-0.6c0.1-0.2,0.1-0.3,0-0.5c0-0.1-0.1-0.2-0.2-0.2c-0.3,0-0.5-0.1-0.8,0
				c-0.1,0-0.3,0.1-0.4,0.2c-0.3,0.2-0.6,0.5-0.9,0.7c-0.2,0.1-0.5,0.1-0.7,0.2c-0.3,0.1-0.7,0.2-0.9,0.5c-0.1,0.2-0.2,0.4-0.2,0.7
				c0,0.2,0,0.2,0.2,0.2c0.2-0.1,0.4-0.1,0.6-0.2c0.3-0.1,0.7-0.1,1,0.2c0.3,0.2,0.4,0.5,0.3,0.8c0,0.1-0.1,0.2-0.2,0.4
				c-0.3,0.5-0.7,0.9-1.1,1.2c-0.4,0.4-0.8,0.7-1.3,1c-0.2,0.1-0.4,0.2-0.6,0.3c-0.3,0.1-0.5,0-0.7-0.3c-0.3-0.4-0.4-0.8-0.2-1.3
				c0.1-0.4,0.4-0.7,0.6-1.1c0.1-0.2,0.1-0.1,0-0.3c-0.2-0.2-0.4-0.4-0.5-0.7c-0.2-0.4-0.1-0.8,0.2-1.2c0.2-0.2,0.4-0.4,0.6-0.6
				c0.1,0,0.1-0.1,0.2-0.1c0.2-0.2,0-0.5-0.3-0.5c-0.2,0-0.4,0-0.5,0.1c-0.5,0.2-1,0.4-1.5,0.6c-0.6,0.2-1,0.7-1.1,1.2
				c-0.1,0.4-0.7,0.7-1.1,0.7c-0.8,0-1.4-0.3-1.9-0.8c-0.2-0.3-0.4-0.5-0.5-0.9c-0.1-0.3,0-0.6,0.4-0.7c0.6-0.2,1.2-0.3,1.8-0.2
				c0.4,0,0.8,0,1.2-0.2c0.5-0.2,1.1-0.4,1.5-0.7c0.4-0.3,0.9-0.6,1.1-1.1c0.2-0.3,0.2-0.6,0.1-1c-0.1-0.2-0.3-0.4-0.5-0.3
				c-0.2,0-0.4,0.1-0.6,0.1c-0.3,0.1-0.6,0.2-0.9,0.1c-0.3-0.1-0.5-0.3-0.6-0.5c-0.3-0.4-0.6-0.8-0.9-1.3c-0.1-0.1-0.1-0.2-0.2-0.3
				c-0.2-0.2-0.5-0.1-0.7,0c-0.3,0.2-0.5,0.4-0.7,0.7c-0.4,0.5-0.7,1-1.1,1.5c-0.2,0.3-0.5,0.5-1,0.4c-0.4,0-0.6-0.2-0.8-0.5
				c0-0.1-0.1-0.1-0.1-0.2c0-0.1,0-0.2,0.1-0.3c0.3-0.2,0.5-0.3,0.8-0.5c0.3-0.2,0.6-0.3,0.8-0.4c0.2-0.1,0.2-0.2,0.3-0.4
				c0.1-0.4,0.4-0.8,0.8-1.1c0.1-0.1,0.2-0.2,0.3-0.2c0.1,0,0.1-0.1,0.1-0.1c0-0.1,0-0.1-0.1-0.1c-0.2,0-0.4,0.1-0.5,0.2
				c-0.3,0.2-0.7,0.4-1,0.5c-0.3,0.2-0.7,0.3-1,0.4c-0.1,0-0.1,0-0.2,0c-0.2,0-0.4-0.1-0.5-0.2c-0.2-0.3-0.3-0.6-0.2-0.9
				c0-0.2,0.2-0.4,0.4-0.5c0.6-0.3,1.3-0.4,2.1-0.3c0.2,0,0.5,0.1,0.7,0.1c0.2,0,0.4,0.1,0.5-0.1c0.1-0.1,0.1-0.2-0.1-0.3
				c-0.2-0.1-0.4-0.2-0.6-0.3c-0.2-0.1-0.3-0.2-0.4-0.3c-0.4-0.3-0.5-0.6-0.4-1.1c0.1-0.4,0.4-0.7,0.7-0.9c0.3-0.2,0.6-0.3,0.9-0.3
				c0.1,0,0.1,0,0.2,0c0.1,0.1,0.2,0.2,0.2,0.3c-0.1,0.2-0.1,0.4-0.2,0.6c-0.1,0.2-0.1,0.4-0.2,0.5c0,0.2,0,0.3,0.2,0.4
				c0.4,0.2,0.7,0.2,1.1,0.2c0.2,0,0.4-0.1,0.6-0.1c0.2-0.1,0.3-0.3,0.3-0.5c-0.1-0.3,0-0.7,0.1-1c0.1-0.4,0.3-0.7,0.4-1.1
				c0.1-0.1,0.1-0.3,0-0.4c0-0.2,0-0.3,0-0.5c0-0.2,0.1-0.4,0.3-0.5c0.1-0.1,0.3-0.1,0.4-0.2c0.2-0.1,0.3-0.1,0.5-0.1
				c0.1,0,0.2,0.1,0.3,0.2c0.1,0.3,0.1,0.6,0,0.9c-0.1,0.4-0.3,0.7-0.4,1c-0.1,0.2-0.2,0.4-0.3,0.6c0,0.1-0.1,0.1-0.1,0.2
				c0,0.1,0,0.2,0.2,0.3c0.1,0.1,0.2,0,0.2-0.1c0.2-0.2,0.4-0.5,0.6-0.7c0.4-0.5,0.8-1,1.2-1.5c0.2-0.3,0.5-0.6,0.9-0.8
				c0.3-0.2,0.7-0.3,1.1-0.3c0.2,0,0.4,0,0.5,0.1c0.3,0.2,0.5,0.6,0.1,1c-0.2,0.2-0.4,0.3-0.6,0.4c0,0-0.1,0-0.1,0
				c-0.4,0-0.7,0.1-1,0.2c-0.5,0.2-0.9,0.6-1.3,1c-0.2,0.2-0.4,0.4-0.6,0.7c-0.1,0.1-0.1,0.2-0.1,0.3c0,0.1,0,0.1,0,0.2
				c0.1,0,0.1,0,0.2,0c0.1,0,0.1-0.1,0.2-0.1c0.6-0.4,1.3-0.7,2-0.9c0.6-0.1,1.2-0.2,1.8-0.2c0,0,0.1,0,0.1,0
				c0.4,0.1,0.6,0.4,0.4,0.8c-0.2,0.3-0.5,0.5-0.8,0.5c-0.4,0-0.8,0-1.3,0c-0.3,0-0.6,0-0.9,0.1c-0.6,0.1-0.8,0.4-0.6,1
				c0.1,0.3,0.3,0.6,0.5,0.9c0.1,0.2,0.2,0.3,0.3,0.5c0.2,0.4,0.2,0.8-0.1,1.1c-0.1,0.2-0.2,0.3-0.3,0.5c-0.2,0.3-0.1,0.6,0.2,0.9
				c0.3,0.2,0.7,0.3,1.1,0.2c0.4-0.1,0.8-0.3,1.2-0.5C276.1,22.3,276.4,22.1,276.8,21.9C276.8,21.9,276.8,21.9,276.8,21.9z
				 M271.6,19.5C271.6,19.5,271.6,19.5,271.6,19.5c-0.1-0.1-0.2-0.2-0.2-0.4c-0.1-0.1-0.2-0.2-0.4-0.2c-0.1,0-0.1,0-0.2,0
				c-0.2,0.1-0.4,0.1-0.6,0.2c-0.5,0.2-0.9,0.4-1.3,0.6c-0.3,0.2-0.4,0.5-0.3,0.8c0.2,0.6,0.4,1.1,0.9,1.5c0.2,0.2,0.4,0.2,0.6,0.1
				c0.6-0.1,1.1-0.3,1.6-0.7c0.2-0.1,0.4-0.3,0.5-0.6c0.1-0.2,0.1-0.4,0-0.6C271.9,20.1,271.7,19.8,271.6,19.5z M273.1,24.4
				c-0.2,0.2-0.4,0.3-0.6,0.4c-0.1,0.1-0.2,0.2-0.1,0.4c0,0.1,0.1,0.2,0.2,0.3c0.3,0.3,0.7,0.5,1.1,0.6c0.4,0.1,0.6,0,0.8-0.3
				c0.2-0.3,0.2-0.6,0.2-0.9c0-0.2,0-0.3-0.1-0.5c-0.1-0.3-0.3-0.4-0.6-0.3C273.7,24.2,273.4,24.3,273.1,24.4z M273.6,29.7
				C273.6,29.7,273.6,29.7,273.6,29.7c0,0.1-0.1,0.1-0.1,0.1c-0.5,0.3-0.8,0.8-1.1,1.3c-0.1,0.1-0.1,0.3,0,0.4c0,0,0.1,0.1,0.1,0
				c0.1,0,0.2-0.1,0.3-0.1c0.5-0.3,0.9-0.7,1.2-1.1c0.1-0.1,0.2-0.3,0.2-0.4c0.1-0.2,0-0.3-0.2-0.3
				C273.8,29.6,273.7,29.6,273.6,29.7z M280,27.4c0.2-0.1,0.4-0.3,0.6-0.4c0,0,0.1-0.1,0.1-0.2c0,0-0.1-0.1-0.2-0.1
				c-0.1,0-0.3,0-0.4,0.1c-0.5,0.1-0.9,0.3-1.4,0.4c-0.3,0.1-0.5,0.2-0.8,0.4c0,0-0.1,0.1-0.1,0.1c0,0,0.1,0.1,0.1,0.1
				c0.1,0,0.2,0,0.3,0C278.8,27.9,279.4,27.7,280,27.4z M267.7,28C267.6,27.9,267.6,27.9,267.7,28c-0.3-0.2-0.4-0.3-0.6-0.4
				c-0.2-0.1-0.4-0.1-0.5-0.1c-0.2,0-0.3,0.2-0.2,0.4c0.1,0.2,0.3,0.3,0.5,0.4c0.2,0.1,0.4,0.2,0.7,0.1
				C267.7,28.3,267.8,28.2,267.7,28z M280,21.3c0,0,0.1-0.1,0.1-0.1c0.2-0.3,0.2-0.6,0.1-1c0-0.1-0.1-0.2-0.3-0.1
				c-0.1,0-0.2,0.1-0.3,0.2c-0.2,0.2-0.2,0.5-0.2,0.8C279.6,21.3,279.8,21.4,280,21.3z"/>
		</g>
	</g>
</g>
</svg>
