<!-- Generator: Adobe Illustrator 18.0.0, SVG Export Plug-In  -->
<svg version="1.1"
	 xmlns="http://www.w3.org/2000/svg" xmlns:xlink="http://www.w3.org/1999/xlink" xmlns:a="http://ns.adobe.com/AdobeSVGViewerExtensions/3.0/"
	 x="0px" y="0px" width="105.5px" height="137.2px" viewBox="0 0 105.5 137.2" enable-background="new 0 0 105.5 137.2"
	 xml:space="preserve">
<defs>
</defs>
<g>
	<g>
		<g>
			<polyline fill="none" stroke="#E4BE22" stroke-width="2" stroke-miterlimit="10" points="23.7,110.6 22.6,113.9 25.6,113.9 
				26.8,110.6 			"/>
			<path fill="none" stroke="#E4BE22" stroke-width="2" stroke-miterlimit="10" d="M28.3,106.6l1.2-3.3c0,0-1.8,0.1-3.4,0.2
				l-1.1,3.3"/>
		</g>
	</g>
	<g>
		<g>
			<path fill="none" stroke="#E4BE22" stroke-width="2" stroke-miterlimit="10" d="M80.7,106.8l-1.1-3.3c-1.6-0.1-3.4-0.2-3.4-0.2
				l1.2,3.3"/>
			<polyline fill="none" stroke="#E4BE22" stroke-width="2" stroke-miterlimit="10" points="78.9,110.6 80.1,113.9 83.1,113.9 
				82,110.6 			"/>
		</g>
	</g>
	<g>
		<g>
			<path fill="none" stroke="#E4BE22" stroke-width="2" stroke-miterlimit="10" d="M100.9,72.9c-1.2-1-2.4-1.5-3-1.8
				c0,0,0.9-1.1,2-2.9"/>
			<path fill="none" stroke="#E4BE22" stroke-width="2" stroke-miterlimit="10" stroke-dasharray="6.3022,2.701" d="M101.2,66
				c2.5-4.7,5.1-11.4,1.9-15.8c-1.5-2-4.6-2.1-8.4-0.8"/>
			<path fill="none" stroke="#E4BE22" stroke-width="2" stroke-miterlimit="10" d="M93.4,49.9c-1,0.4-2.1,1-3.1,1.6
				c0-0.2,0-0.4,0-0.5c0.1-0.6,0.2-1.5,0.4-3"/>
			<path fill="none" stroke="#E4BE22" stroke-width="2" stroke-miterlimit="10" stroke-dasharray="7.055,3.0236" d="M91.2,45
				C91.9,40.7,93,33.8,95,22C98.7,0.9,90-0.5,82.4,1.8c-35.8,10.8-47.6,3-61.2,0.3c-13.5-2.7-10.5,14.8-8.7,23
				c1.2,5.6,3.3,16.4,4.4,22.7"/>
			<path fill="none" stroke="#E4BE22" stroke-width="2" stroke-miterlimit="10" d="M17.3,49.3c0.4,2.1,0.6,3.3,0.6,3.3s0,0,0,0.1
				c-1-0.7-2-1.3-3-1.8"/>
			<path fill="none" stroke="#E4BE22" stroke-width="2" stroke-miterlimit="10" stroke-dasharray="6.9411,2.9748" d="M12.2,49.7
				c-4.4-1.7-8-1.7-9.7,0.5C-1,54.9,2.3,62.4,5,67"/>
			<path fill="none" stroke="#E4BE22" stroke-width="2" stroke-miterlimit="10" d="M5.7,68.3c1.1,1.8,2,2.9,2,2.9
				c-0.8,1-1.5,1.9-2,2.8"/>
			<path fill="none" stroke="#E4BE22" stroke-width="2" stroke-miterlimit="10" stroke-dasharray="7.3824,3.1639" d="M4.4,76.9
				C4,78.1,3.9,79,3.9,79.7c-0.2,3.4,2.7,7.9,10.7,11.6"/>
			<path fill="none" stroke="#E4BE22" stroke-width="2" stroke-miterlimit="10" d="M16.1,92c1,0.4,2.1,0.8,3.3,1.2l-0.6,3.4"/>
			
				<line fill="none" stroke="#E4BE22" stroke-width="2" stroke-miterlimit="10" stroke-dasharray="7.7839,3.336" x1="18.2" y1="99.9" x2="12.7" y2="131.2"/>
			<polyline fill="none" stroke="#E4BE22" stroke-width="2" stroke-miterlimit="10" points="12.4,132.8 11.8,136.2 14.5,136.2 
				15.4,132.9 			"/>
			
				<line fill="none" stroke="#E4BE22" stroke-width="2" stroke-miterlimit="10" stroke-dasharray="5.9077,2.5319" x1="16" y1="130.4" x2="22" y2="107.1"/>
			<path fill="none" stroke="#E4BE22" stroke-width="2" stroke-miterlimit="10" d="M22.3,105.9l0.9-3.4c0,0,1.3,0,3.5,0"/>
			<path fill="none" stroke="#E4BE22" stroke-width="2" stroke-miterlimit="10" stroke-dasharray="6.9516,2.9793" d="M29.7,102.4
				c6.1-0.2,15.4-0.9,23.5-2.6c2.2,0.9,14.8,2.8,24.2,3.4"/>
			<path fill="none" stroke="#E4BE22" stroke-width="2" stroke-miterlimit="10" d="M78.9,103.3c1.2,0.1,2.4,0.1,3.5,0.1
				c0.2,0.5,0.5,1.7,1,3.4"/>
			<path fill="none" stroke="#E4BE22" stroke-width="2" stroke-miterlimit="10" stroke-dasharray="8.1609,3.4975" d="M84.3,110.2
				c1.6,6.3,3.8,15.3,5.1,21"/>
			<path fill="none" stroke="#E4BE22" stroke-width="2" stroke-miterlimit="10" d="M89.8,132.8c0.5,2.1,0.8,3.4,0.8,3.4h3l-0.6-3.5"
				/>
			
				<line fill="none" stroke="#E4BE22" stroke-width="2" stroke-miterlimit="10" stroke-dasharray="7.846,3.3626" x1="92.5" y1="129.5" x2="87.3" y2="98"/>
			<path fill="none" stroke="#E4BE22" stroke-width="2" stroke-miterlimit="10" d="M87,96.3l-0.6-3.5c1.1-0.4,2.2-0.9,3.2-1.3"/>
			<path fill="none" stroke="#E4BE22" stroke-width="2" stroke-miterlimit="10" stroke-dasharray="8.1518,3.4936" d="M92.8,90
				c7.8-4.2,10.6-8.4,10.6-8.4c1.2-3.2,0.2-5.7-1.3-7.4"/>
		</g>
	</g>
</g>
</svg>
