<?xml version="1.0" encoding="utf-8"?>
<!-- Generator: Adobe Illustrator 18.0.0, SVG Export Plug-In . SVG Version: 6.00 Build 0)  -->
<!DOCTYPE svg PUBLIC "-//W3C//DTD SVG 1.1//EN" "http://www.w3.org/Graphics/SVG/1.1/DTD/svg11.dtd">
<svg version="1.1" xmlns="http://www.w3.org/2000/svg" xmlns:xlink="http://www.w3.org/1999/xlink" x="0px" y="0px"
	 viewBox="0 0 116.7 230" enable-background="new 0 0 116.7 230" xml:space="preserve">
<g id="bg">
</g>
<g id="maps" opacity="0.5">
</g>
<g id="logo">
</g>
<g id="hospital_icon">
	<g>
		<defs>
			<rect id="SVGID_24_" x="-320.4" y="13.7" width="111.3" height="223.3"/>
		</defs>
		<clipPath id="SVGID_2_">
			<use xlink:href="#SVGID_24_"  overflow="visible"/>
		</clipPath>
		<g id="doctor_4_" clip-path="url(#SVGID_2_)">
			<defs>
				<rect id="SVGID_26_" x="-320.4" y="13.7" width="111.3" height="223.3"/>
			</defs>
			<clipPath id="SVGID_4_">
				<use xlink:href="#SVGID_26_"  overflow="visible"/>
			</clipPath>
			<g clip-path="url(#SVGID_4_)">
				<path fill="#E8C19F" d="M-173.2,710.5c44.6-125.3-41.4-195.5-119.1-207.6V362c0,0,4.1-67.6-61.4-67.6
					c-52.1,0-59.2,43.4-59.2,62.8c0,30.9,7.7,191.6,21.1,265.2c35.1,193.8,155.5,255.6,313.7,255.6c228.7,0,281.9-212.8,281.9-419.3
					c0-65.7,1.7-139.1,1.7-218.3c0-100.3-9.3-153.8-62.7-154c-58.6-0.1-65,53.4-65,159.8c0,60.6-0.6,113.2-0.6,113.2h-2.7
					l-5.8-252.8c0,0-3.1-72.9-64.5-72.9c-57,0-55.9,72.9-55.9,72.9l-0.1,249.7l-7.2-0.1L-63,68.8c0,0-3.7-75.9-66.5-75.9
					c-63.4,0-64.6,81.1-64.6,81.1v280l-8.2,0.1V106.4c0,0-0.8-63.1-63.4-63.1c-66.2,0-61.3,63.1-61.3,63.1l0.5,193
					c39.1,16.5,34.2,63.6,34.2,105.6v98C-88.1,546.9-188.8,754.5-173.2,710.5z"/>
				<g>
					<path fill="#FFFFFF" d="M-172.1,710.8c15-42.6,18.1-89.7-3.4-130.6c-17.1-32.5-47.7-56-81.6-69c-8.3-3.2-16.9-5.7-25.6-7.6
						c-1.5-0.3-8.5-2.1-8.5-0.8c0-0.8,0-1.6,0-2.4c0-10.3,0-20.5,0-30.8c0-30.4,0-60.9,0-91.3c0-12.9,0.6-25.8-2.3-38.5
						c-2.9-12.6-9.1-24.5-19-33.1c-13.9-12-33.6-14.8-51.3-12.8c-17.1,1.9-32.1,10.7-40.9,25.6c-6.5,11-9.1,24.3-9.3,37
						c-0.3,29.6,2,59.3,3.7,88.8c2.6,43.6,5.8,87.3,10.8,130.7c4.9,42.4,12.6,84.5,27.8,124.6c13.9,36.7,34.2,71,61.9,99
						c25,25.3,55.7,44.1,88.9,56.7c35.6,13.5,73.8,19.7,111.7,21.9c42.8,2.4,86.1-0.1,126.9-14.2c35.1-12.2,66.5-33,91.7-60.3
						c25.3-27.4,43.7-60.6,57.3-95.2c30.8-78.8,38.1-166,38.1-249.8c0-60.3,1.3-120.6,1.6-180.8c0.2-29.1,0.5-58.3-1-87.4
						c-1.1-20-2.9-40.4-8.6-59.8c-3.8-13.1-10-26.2-20.8-34.9c-10.4-8.4-23.9-10.8-37-10.4c-12.7,0.4-25.1,4.1-34.8,12.6
						c-10.1,8.9-15.5,22.1-19,34.8c-4.4,16.2-6,33.1-7,49.7c-1.5,23.1-1.5,46.3-1.5,69.5c0,35.8-0.2,71.5-0.6,107.3
						c0.4-0.4,0.7-0.7,1.1-1.1c-0.9,0-1.8,0-2.7,0c0.4,0.4,0.7,0.7,1.1,1.1c-1-45.4-2.1-90.9-3.1-136.3c-0.7-29.2-1.3-58.3-2-87.5
						c-0.2-10.9,0.2-22-1-32.8C66.7,78.2,56.1,52,33.6,39.5c-15-8.3-35.1-9.5-50.9-2.8C-30.5,42.3-39.7,54.1-45,67
						c-5.6,13.6-7.7,28.2-7.7,42.9c0,20.7,0,41.5,0,62.2c0,57.5,0,114.9,0,172.4c0,3.9,0,7.8,0,11.7c0.4-0.4,0.7-0.7,1.1-1.1
						c-2.4,0-4.8-0.1-7.2-0.1c0.4,0.4,0.7,0.7,1.1,1.1c-0.6-42.7-1.2-85.4-1.8-128.1c-0.7-51.6-1.5-103.2-2.2-154.8
						c-0.2-13-3-25.8-7.8-37.9C-75,21.9-83.2,9.8-95.1,1.7c-14.4-9.8-33.6-11.9-50.3-7.9c-29.1,7.1-43,36.4-47.8,63.4
						c-1.8,9.9-1.8,19.5-1.8,29.5c0,56.7,0,113.4,0,170.2c0,32.4,0,64.8,0,97.2c0.4-0.4,0.7-0.7,1.1-1.1c-2.7,0-5.5,0.1-8.2,0.1
						c0.4,0.4,0.7,0.7,1.1,1.1c0-46,0-91.9,0-137.9c0-28.6,0-57.1,0-85.7c0-10.3,0.8-20.9-0.6-31.2c-3.7-27.5-21.1-50.7-49.3-56
						c-17.8-3.4-38.5-1-53.7,9.5c-10.6,7.4-17.3,18.8-20.7,31c-3.1,11.3-2.5,22.8-2.5,34.3c0.1,27.8,0.2,55.7,0.2,83.5
						c0.1,32.5,0.2,65,0.3,97.5c0,0.3,0.2,0.8,0.5,0.9c40.6,17.7,33.7,70.3,33.7,106.5c0,27.2,0,54.4,0,81.6c0,4.9,0,9.7,0,14.6
						c0,0.4,0.3,0.9,0.8,1c36.7,8,72.9,23.2,98,52c18,20.6,27.9,47,30.7,74c2.2,21.1,0.3,42.6-4.5,63.2c-1.4,6.2-3.1,12.3-5.3,18.3
						c-0.5,1.4-1,2.8-1.7,4.1c-0.4,0.7,1.2,1.5,1.7-0.2C-173.2,713.8-172.7,712.3-172.1,710.8c0.5-1.3-1.6-1.8-2-0.6
						c-0.2,0.5-3.3,8.4-0.4,7.4c2.1-0.7,3.1-5.8,3.7-7.5c5.5-15.6,8.4-32.4,9.6-48.9c1.8-24.2-1-49-10.1-71.6
						c-11.2-27.7-32.1-49.7-57.8-64.7c-17.3-10.1-36.5-16.8-55.9-21.5c-0.9-0.2-6.1-2-6.1-0.6c0-0.3,0-0.5,0-0.8c0-1.5,0-3,0-4.5
						c0-5.7,0-11.4,0-17.2c0-25.1,0-50.3,0-75.4c0-21.3,1.4-42.9-2.7-63.9c-1.9-9.5-5.4-18.7-11.2-26.6c-2.6-3.6-5.9-6.7-9.4-9.4
						c-1-0.8-10.9-6.6-10.9-5.7c-0.1-18.6-0.1-37.1-0.2-55.7c-0.1-46.2,0.7-92.6-0.4-138.8c-0.6-24.7,11.8-48.6,36.1-56.9
						c18.9-6.5,42.7-5,59.6,5.9c12.2,7.8,19.9,20.8,23.9,34.4c3.1,10.7,3.1,20.9,3.1,31.9c0,25.9,0,51.7,0,77.6
						c0,51.6,0,103.1,0,154.7c0,0.6,0,1.2,0,1.9c0,0.6,0.5,1.1,1.1,1.1c2.7,0,5.5-0.1,8.2-0.1c0.6,0,1.1-0.5,1.1-1.1
						c0-43.2,0-86.4,0-129.5c0-49.5,0-99,0-148.5c0-15.2,3.5-30.9,9.5-44.8c6.3-14.5,16.9-27.2,31.8-33.3C-134.3-9.1-112.8-7-97,3
						c21,13.3,30.8,40.6,32.8,64.5c0.9,10.7,0.4,21.7,0.5,32.4c0.9,60.8,1.7,121.5,2.6,182.3c0.4,24.6,0.7,49.2,1.1,73.9
						c0,0.6,0.5,1,1.1,1.1c2.4,0,4.8,0.1,7.2,0.1c0.6,0,1.1-0.5,1.1-1.1c0-45.8,0-91.5,0-137.3c0-28.8,0-57.6,0-86.4
						c0-10.7-0.5-21.5,0.2-32.2c1.9-27.8,14.1-59,44.5-64.7c18.6-3.5,38.5,2.4,51.7,16C55.7,61.7,61.5,75.4,64.9,89
						c2.6,10.7,2.9,20.9,3.1,31.8c0.6,25.8,1.2,51.7,1.8,77.5c1.2,52.6,2.4,105.2,3.6,157.8c0,1,0,2.1,0.1,3.1
						c0,0.6,0.5,1.1,1.1,1.1c0.9,0,1.8,0,2.7,0c0.6,0,1-0.5,1.1-1.1c0.5-42.8,0.4-85.7,0.7-128.5c0.2-23.7,0.6-47.5,3.5-71.1
						c2-16.4,5.2-33.6,13.6-48.1c6.7-11.7,17.4-19.4,30.5-22.5c13.9-3.3,30.1-2.4,42.7,4.6c12.7,7.1,20,20.5,24.4,33.8
						c6.5,19.2,8.3,40,9.5,60.1c1.8,28.7,1.3,57.6,1.2,86.4c-0.2,31.4-0.6,62.9-0.9,94.3c-0.6,51.2,0.5,102.6-2.5,153.8
						c-4.8,81.7-19.1,167.5-61.9,238.5c-19.4,32.2-45.4,60.2-77.3,80.2c-35.5,22.2-76.8,32.9-118.3,35.5
						c-40.9,2.6-83.2-0.7-123.2-9.9c-35.7-8.2-70-22.4-99.8-43.9c-68.9-49.7-100.8-132.8-113.3-214.1c-6.4-42-9.7-84.4-12.7-126.8
						c-2.6-36.5-4.7-73.1-5.8-109.7c-0.3-10.5-0.7-21,1.4-31.4c3.2-16,11.7-30.5,26.3-38.5c18-9.8,43.8-9.1,61.7,0.5
						c13.1,7,21.4,19.8,25.5,33.7c3.9,13,3.3,26.2,3.3,39.5c0,30.1,0,60.2,0,90.4c0,12.3,0,24.6,0,36.8c0,0.4,0.3,0.9,0.8,1
						c36.5,5.8,71.4,23.1,96.4,50.6c30.1,33,39,77.7,31.4,121c-2.1,11.8-5.4,23.4-9.4,34.7C-174.6,711.5-172.6,712.1-172.1,710.8z"
						/>
				</g>
			</g>
		</g>
	</g>
	<g>
		<defs>
			<rect id="SVGID_28_" x="2.7" y="3.5" width="111.3" height="223.3"/>
		</defs>
		<clipPath id="SVGID_6_">
			<use xlink:href="#SVGID_28_"  overflow="visible"/>
		</clipPath>
		<g id="doctor_5_" clip-path="url(#SVGID_6_)">
			<defs>
				<rect id="SVGID_30_" x="2.7" y="3.5" width="111.3" height="223.3"/>
			</defs>
			<clipPath id="SVGID_8_">
				<use xlink:href="#SVGID_30_"  overflow="visible"/>
			</clipPath>
			<g clip-path="url(#SVGID_8_)">
				<path fill="#E8C19F" d="M150,700.3C194.6,575,108.6,504.8,30.9,492.7v-141c0,0,4.1-67.6-61.4-67.6c-52.1,0-59.2,43.4-59.2,62.8
					c0,30.9,7.7,191.6,21.1,265.2C-33.6,805.9,86.8,867.7,245,867.7c228.7,0,281.9-212.8,281.9-419.3c0-65.7,1.7-139.1,1.7-218.3
					c0-100.3-9.3-153.8-62.7-154c-58.6-0.1-65,53.4-65,159.8c0,60.6-0.6,113.2-0.6,113.2h-2.7l-5.8-252.8c0,0-3.1-72.9-64.5-72.9
					c-57,0-55.9,72.9-55.9,72.9l-0.1,249.7l-7.2-0.1l-4.1-287.2c0,0-3.7-75.9-66.5-75.9c-63.4,0-64.6,81.1-64.6,81.1v280l-8.2,0.1
					V96.2c0,0-0.8-63.1-63.4-63.1c-66.2,0-61.3,63.1-61.3,63.1l0.5,193c39.1,16.5,34.2,63.6,34.2,105.6v98
					C235.1,536.7,134.3,744.3,150,700.3z"/>
				<g>
					<path fill="#FFFFFF" d="M151,700.6c15-42.6,18.1-89.7-3.4-130.6c-17.1-32.5-47.7-56-81.6-69c-8.3-3.2-16.9-5.7-25.6-7.6
						c-1.5-0.3-8.5-2.1-8.5-0.8c0-0.8,0-1.6,0-2.4c0-10.3,0-20.5,0-30.8c0-30.4,0-60.9,0-91.3c0-12.9,0.6-25.8-2.3-38.5
						c-2.9-12.6-9.1-24.5-19-33.1c-13.9-12-33.6-14.8-51.3-12.8c-17.1,1.9-32.1,10.7-40.9,25.6c-6.5,11-9.1,24.3-9.3,37
						c-0.3,29.6,2,59.3,3.7,88.8c2.6,43.6,5.8,87.3,10.8,130.7c4.9,42.4,12.6,84.5,27.8,124.6c13.9,36.7,34.2,71,61.9,99
						c25,25.3,55.7,44.1,88.9,56.7c35.6,13.5,73.8,19.7,111.7,21.9c42.8,2.4,86.1-0.1,126.9-14.2c35.1-12.2,66.5-33,91.7-60.3
						c25.3-27.4,43.7-60.6,57.3-95.2c30.8-78.8,38.1-166,38.1-249.8c0-60.3,1.3-120.6,1.6-180.8c0.2-29.1,0.5-58.3-1-87.4
						c-1.1-20-2.9-40.4-8.6-59.8c-3.8-13.1-10-26.2-20.8-34.9c-10.4-8.4-23.9-10.8-37-10.4c-12.7,0.4-25.1,4.1-34.8,12.6
						c-10.1,8.9-15.5,22.1-19,34.8c-4.4,16.2-6,33.1-7,49.7c-1.5,23.1-1.5,46.3-1.5,69.5c0,35.8-0.2,71.5-0.6,107.3
						c0.4-0.4,0.7-0.7,1.1-1.1c-0.9,0-1.8,0-2.7,0c0.4,0.4,0.7,0.7,1.1,1.1c-1-45.4-2.1-90.9-3.1-136.3c-0.7-29.2-1.3-58.3-2-87.5
						c-0.2-10.9,0.2-22-1-32.8c-2.7-24.5-13.3-50.7-35.8-63.1c-15-8.3-35.1-9.5-50.9-2.8c-13.2,5.5-22.5,17.3-27.8,30.3
						c-5.6,13.6-7.7,28.2-7.7,42.9c0,20.7,0,41.5,0,62.2c0,57.5,0,114.9,0,172.4c0,3.9,0,7.8,0,11.7c0.4-0.4,0.7-0.7,1.1-1.1
						c-2.4,0-4.8-0.1-7.2-0.1c0.4,0.4,0.7,0.7,1.1,1.1c-0.6-42.7-1.2-85.4-1.8-128.1c-0.7-51.6-1.5-103.2-2.2-154.8
						c-0.2-13-3-25.8-7.8-37.9C248.2,11.7,239.9-0.4,228-8.5c-14.4-9.8-33.6-11.9-50.3-7.9c-29.1,7.1-43,36.4-47.8,63.4
						c-1.8,9.9-1.8,19.5-1.8,29.5c0,56.7,0,113.4,0,170.2c0,32.4,0,64.8,0,97.2c0.4-0.4,0.7-0.7,1.1-1.1c-2.7,0-5.5,0.1-8.2,0.1
						c0.4,0.4,0.7,0.7,1.1,1.1c0-46,0-91.9,0-137.9c0-28.6,0-57.1,0-85.7c0-10.3,0.8-20.9-0.6-31.2c-3.7-27.5-21.1-50.7-49.3-56
						c-17.8-3.4-38.5-1-53.7,9.5C7.7,50.2,1,61.6-2.4,73.8c-3.1,11.3-2.5,22.8-2.5,34.3c0.1,27.8,0.2,55.7,0.2,83.5
						c0.1,32.5,0.2,65,0.3,97.5c0,0.3,0.2,0.8,0.5,0.9c40.6,17.7,33.7,70.3,33.7,106.5c0,27.2,0,54.4,0,81.6c0,4.9,0,9.7,0,14.6
						c0,0.4,0.3,0.9,0.8,1c36.7,8,72.9,23.2,98,52c18,20.6,27.9,47,30.7,74c2.2,21.1,0.3,42.6-4.5,63.2c-1.4,6.2-3.1,12.3-5.3,18.3
						c-0.5,1.4-1,2.8-1.7,4.1c-0.4,0.7,1.2,1.5,1.7-0.2C149.9,703.6,150.5,702.1,151,700.6c0.5-1.3-1.6-1.8-2-0.6
						c-0.2,0.5-3.3,8.4-0.4,7.4c2.1-0.7,3.1-5.8,3.7-7.5c5.5-15.6,8.4-32.4,9.6-48.9c1.8-24.2-1-49-10.1-71.6
						c-11.2-27.7-32.1-49.7-57.8-64.7C76.6,504.7,57.5,498,38,493.3c-0.9-0.2-6.1-2-6.1-0.6c0-0.3,0-0.5,0-0.8c0-1.5,0-3,0-4.5
						c0-5.7,0-11.4,0-17.2c0-25.1,0-50.3,0-75.4c0-21.3,1.4-42.9-2.7-63.9c-1.9-9.5-5.4-18.7-11.2-26.6c-2.6-3.6-5.9-6.7-9.4-9.4
						c-1-0.8-10.9-6.6-10.9-5.7c-0.1-18.6-0.1-37.1-0.2-55.7c-0.1-46.2,0.7-92.6-0.4-138.8C-3.5,69.9,8.9,46,33.2,37.7
						c18.9-6.5,42.7-5,59.6,5.9c12.2,7.8,19.9,20.8,23.9,34.4c3.1,10.7,3.1,20.9,3.1,31.9c0,25.9,0,51.7,0,77.6
						c0,51.6,0,103.1,0,154.7c0,0.6,0,1.2,0,1.9c0,0.6,0.5,1.1,1.1,1.1c2.7,0,5.5-0.1,8.2-0.1c0.6,0,1.1-0.5,1.1-1.1
						c0-43.2,0-86.4,0-129.5c0-49.5,0-99,0-148.5c0-15.2,3.5-30.9,9.5-44.8c6.3-14.5,16.9-27.2,31.8-33.3c17.3-7.1,38.9-5,54.7,4.9
						c21,13.3,30.8,40.6,32.8,64.5c0.9,10.7,0.4,21.7,0.5,32.4c0.9,60.8,1.7,121.5,2.6,182.3c0.4,24.6,0.7,49.2,1.1,73.9
						c0,0.6,0.5,1,1.1,1.1c2.4,0,4.8,0.1,7.2,0.1c0.6,0,1.1-0.5,1.1-1.1c0-45.8,0-91.5,0-137.3c0-28.8,0-57.6,0-86.4
						c0-10.7-0.5-21.5,0.2-32.2c1.9-27.8,14.1-59,44.5-64.7c18.6-3.5,38.5,2.4,51.7,16c9.9,10.2,15.7,23.9,19.1,37.5
						c2.6,10.7,2.9,20.9,3.1,31.8c0.6,25.8,1.2,51.7,1.8,77.5c1.2,52.6,2.4,105.2,3.6,157.8c0,1,0,2.1,0.1,3.1
						c0,0.6,0.5,1.1,1.1,1.1c0.9,0,1.8,0,2.7,0c0.6,0,1-0.5,1.1-1.1c0.5-42.8,0.4-85.7,0.7-128.5c0.2-23.7,0.6-47.5,3.5-71.1
						c2-16.4,5.2-33.6,13.6-48.1c6.7-11.7,17.4-19.4,30.5-22.5c13.9-3.3,30.1-2.4,42.7,4.6c12.7,7.1,20,20.5,24.4,33.8
						c6.5,19.2,8.3,40,9.5,60.1c1.8,28.7,1.3,57.6,1.2,86.4c-0.2,31.4-0.6,62.9-0.9,94.3c-0.6,51.2,0.5,102.6-2.5,153.8
						c-4.8,81.7-19.1,167.5-61.9,238.5c-19.4,32.2-45.4,60.2-77.3,80.2c-35.5,22.2-76.8,32.9-118.3,35.5
						c-40.9,2.6-83.2-0.7-123.2-9.9c-35.7-8.2-70-22.4-99.8-43.9C-25.5,762.6-57.4,679.5-69.9,598.2c-6.4-42-9.7-84.4-12.7-126.8
						c-2.6-36.5-4.7-73.1-5.8-109.7c-0.3-10.5-0.7-21,1.4-31.4c3.2-16,11.7-30.5,26.3-38.5c18-9.8,43.8-9.1,61.7,0.5
						c13.1,7,21.4,19.8,25.5,33.7c3.9,13,3.3,26.2,3.3,39.5c0,30.1,0,60.2,0,90.4c0,12.3,0,24.6,0,36.8c0,0.4,0.3,0.9,0.8,1
						c36.5,5.8,71.4,23.1,96.4,50.6c30.1,33,39,77.7,31.4,121c-2.1,11.8-5.4,23.4-9.4,34.7C148.5,701.3,150.5,701.9,151,700.6z"/>
				</g>
			</g>
			<ellipse clip-path="url(#SVGID_8_)" fill="#231F20" cx="81" cy="104.1" rx="5.5" ry="5.2"/>
			<ellipse clip-path="url(#SVGID_8_)" fill="#FFFFFF" cx="79.3" cy="102.5" rx="2.1" ry="2"/>
			<ellipse clip-path="url(#SVGID_8_)" fill="#231F20" cx="33.8" cy="104.1" rx="5.5" ry="5.2"/>
			<ellipse clip-path="url(#SVGID_8_)" fill="#FFFFFF" cx="32.1" cy="102.5" rx="2.1" ry="2"/>
			<path clip-path="url(#SVGID_8_)" d="M85.1,88.2c-2.1,0-4.2,0-6.3,0c-2,0-3.3-1.2-3.2-2.8c0-1.6,1.3-2.7,3.2-2.7c4.3,0,8.7,0,13,0
				c1.9,0,3.2,1.2,3.2,2.8c0,1.6-1.2,2.8-3.1,2.8C89.5,88.3,87.3,88.2,85.1,88.2z"/>
			<path clip-path="url(#SVGID_8_)" d="M29.6,88.2c-2,0-4,0-6,0c-2,0-3.4-1.1-3.4-2.7c0-1.6,1.3-2.8,3.3-2.8c4.2,0,8.4,0,12.6,0
				c2,0,3.3,1.1,3.3,2.8c0,1.6-1.2,2.7-3.2,2.7C34,88.2,31.8,88.2,29.6,88.2C29.6,88.2,29.6,88.2,29.6,88.2z"/>
			<path clip-path="url(#SVGID_8_)" fill="#8A5E3C" d="M57.8,181.6c-37,0-50.8-28.8-52.7-49.9c-0.4-4.6-0.3-3.7,3.5-3.7
				c33.3,0,66.5,0,99.8,0c0.8,0,1.5,0,2.3,0C111.5,151.2,91.2,181.6,57.8,181.6z"/>
			<path clip-path="url(#SVGID_8_)" fill="#E8C19F" d="M57.5,174.3c-25.9,0-43-21.2-44.4-36.7c-0.3-3.7-0.2-3,3-3c28,0,56,0,84,0
				c0.6,0,1.3,0,1.9,0C101.4,150.9,82.8,174.3,57.5,174.3z"/>
			<path clip-path="url(#SVGID_8_)" fill="#FFFFFF" d="M57.4,164.8c-18.8,0-31.2-16.1-32.3-27.9c-0.3-2.8-0.2-2.3,2.2-2.3
				c20.4,0,40.7,0,61.1,0c0.5,0,0.9,0,1.4,0C89.3,147,75.8,164.8,57.4,164.8z"/>
			<rect x="2.9" y="4.2" clip-path="url(#SVGID_8_)" fill="#C3E3EC" width="112.1" height="74"/>
			<path clip-path="url(#SVGID_8_)" fill="#BE202E" d="M52.8,24.9c3.7,0,7.2,0,10.7,0.1c0.3,0,0.8,0.7,0.8,1.1
				c0.1,2.6,0.2,5.3,0,7.9c-0.1,1.6,0.5,2,2.1,1.9c3.1-0.1,6.2,0,9.4,0c0,3.6,0,7.1,0,10.9c-3,0-6,0-9,0c-2.8,0-2.5-0.2-2.5,2.4
				c0,2.8,0,5.6,0,8.5c-3.8,0-7.5,0-11.3,0c0-0.5-0.1-1-0.1-1.6c0-2.5-0.1-5.1,0-7.6c0.1-1.3-0.3-1.8-1.8-1.7c-3.2,0.1-6.4,0-9.8,0
				c0-3.6,0-7.1,0-10.8c3.8,0,7.5,0,11.5,0C52.8,32.1,52.8,28.6,52.8,24.9z"/>
			<rect x="54.9" y="164.8" clip-path="url(#SVGID_8_)" fill="#8A5E3C" width="7.3" height="16.6"/>
		</g>
	</g>
</g>
<g id="bottom_line">
</g>
<g id="hand">
</g>
</svg>
