<!-- Generator: Adobe Illustrator 18.0.0, SVG Export Plug-In  -->
<svg version="1.1"
	 xmlns="http://www.w3.org/2000/svg" xmlns:xlink="http://www.w3.org/1999/xlink" xmlns:a="http://ns.adobe.com/AdobeSVGViewerExtensions/3.0/"
	 x="0px" y="0px" width="329.4px" height="520.9px" viewBox="0 0 329.4 520.9" enable-background="new 0 0 329.4 520.9"
	 xml:space="preserve">
<defs>
</defs>
<g>
	<g id="FLINDER_2_">
		<rect x="188.6" y="315" fill="#343F21" width="10.6" height="10.4"/>
		<rect x="154.7" y="436.9" fill="#B09251" width="82.2" height="84.1"/>
		<rect x="95.3" y="472.3" fill="#5C4728" width="51.4" height="48.6"/>
		<rect x="244.6" y="413.5" fill="#8E703A" width="48.1" height="18.6"/>
		<rect x="96" y="413.5" fill="#8E703A" width="50.7" height="18.6"/>
		<rect x="146.7" y="369.3" fill="#785E32" width="97.9" height="44.2"/>
		<rect x="66.6" y="395.7" fill="#785E32" width="262.8" height="10"/>
		<rect x="66.6" y="413.5" fill="#8E703A" width="21.7" height="107.4"/>
		<rect x="300.1" y="413.5" fill="#8E703A" width="29.3" height="107.4"/>
		<rect x="66.6" y="405.7" fill="#B09251" width="262.8" height="7.8"/>
		<rect x="153.7" y="405.7" fill="#8E703A" width="83.2" height="7.8"/>
		<rect x="88.2" y="396.6" fill="#B09251" width="7.8" height="124.3"/>
		<rect x="146.7" y="396.6" fill="#B09251" width="7.8" height="124.3"/>
		<rect x="236.8" y="396.6" fill="#B09251" width="7.8" height="124.3"/>
		<rect x="292.3" y="396.6" fill="#B09251" width="7.8" height="124.3"/>
		<path fill="#343F21" d="M199.2,314.8c0-3.4-2.4-6.2-5.3-6.2c-2.9,0-5.3,2.8-5.3,6.2c0,0.2,0,0.4,0,0.7h10.5
			C199.2,315.3,199.2,315,199.2,314.8z"/>
		<path fill="#674E29" d="M137.2,433.5c0-9.4-7.3-17-16.2-17s-16.2,7.6-16.2,17c0,0.6,0,1.2,0.1,1.8h32.3
			C137.2,434.7,137.2,434.1,137.2,433.5z"/>
		<path fill="#48592F" d="M236,365.4c0-23.6-18.4-42.7-41-42.7s-41,19.1-41,42.7c0,1.5,0.1,3.1,0.2,4.6h81.6
			C235.9,368.4,236,366.9,236,365.4z"/>
		<path fill="#674E29" d="M283.5,432.6c0-9.4-7.3-17-16.2-17s-16.2,7.6-16.2,17c0,0.6,0,1.2,0.1,1.8h32.3
			C283.4,433.8,283.5,433.2,283.5,432.6z"/>
		<path fill="#B09251" d="M143.7,494.9c-0.1-12.4-11.9-19.1-22-19.1s-23.4,8.1-22.8,19.1h-3.6v-27.7h51.4v27.7H143.7z"/>
		<path fill="#8E703A" d="M154.7,436.9v24.7c0.1-0.1,0.2-0.1,0.3-0.2c3.9-14,27-19.3,41.9-19.3c15,0,37,8.9,39.9,20.2v-25.4H154.7z"
			/>
		<path fill="#8E703A" d="M195.5,449c-16.5,0-30.1,7.1-31.8,16.3h63.5C225.6,456.1,212,449,195.5,449z"/>
		<path fill="#8E703A" d="M121.6,481.1c-8.9,0-16.2,6.1-17.2,13.9h34.3C137.9,487.1,130.6,481.1,121.6,481.1z"/>
		<polygon fill="#B09251" points="197.1,378.5 150.7,406.8 240.7,406.8 		"/>
		<rect x="99.5" y="347.6" fill="#343F21" width="1.7" height="16.5"/>
		<rect x="193.1" y="292.2" fill="#343F21" width="1.7" height="16.5"/>
		<rect x="288.8" y="347.6" fill="#343F21" width="1.7" height="16.5"/>
		<rect x="286.8" y="362.1" fill="#343F21" width="5.8" height="5.6"/>
		<rect x="97.5" y="363" fill="#343F21" width="5.8" height="5.6"/>
		<rect x="154.5" y="415" fill="#8E703A" width="82.1" height="17.1"/>
		<rect x="96" y="432.1" fill="#B09251" width="196.7" height="5.3"/>
		<rect x="153.7" y="413.4" fill="#B09251" width="83.2" height="2.4"/>
		<rect x="162" y="416.4" fill="none" stroke="#5C4728" stroke-width="0.8665" stroke-miterlimit="10" width="11.8" height="14.4"/>
		<rect x="181" y="416.4" fill="none" stroke="#5C4728" stroke-width="0.8665" stroke-miterlimit="10" width="11.8" height="14.4"/>
		
			<rect x="201.2" y="416.4" fill="none" stroke="#5C4728" stroke-width="0.8665" stroke-miterlimit="10" width="11.8" height="14.4"/>
		
			<rect x="220.8" y="416.4" fill="none" stroke="#5C4728" stroke-width="0.8665" stroke-miterlimit="10" width="11.8" height="14.4"/>
		<rect x="162" y="416.4" fill="#5C4728" width="8.7" height="12.3"/>
		<rect x="181" y="416.4" fill="#5C4728" width="8.7" height="12.3"/>
		<rect x="201.2" y="416.4" fill="#5C4728" width="8.7" height="12.3"/>
		<rect x="220.8" y="416.4" fill="#5C4728" width="8.7" height="12.3"/>
		<path fill="#607240" d="M100.8,395.7v-28.2c0,0-23.6,0.6-25.5,28.5L100.8,395.7z"/>
		<path fill="#48592F" d="M100.5,395.7v-28.2c0,0,23.6,0.6,25.5,28.5L100.5,395.7z"/>
		<path fill="#607240" d="M289.9,395.7v-28.2c0,0-23.6,0.6-25.5,28.5L289.9,395.7z"/>
		<path fill="#48592F" d="M289.5,395.7v-28.2c0,0,23.6,0.6,25.5,28.5L289.5,395.7z"/>
		<circle fill="#D1D3D4" stroke="#8E703A" stroke-width="2.5996" stroke-miterlimit="10" cx="196.8" cy="402.9" r="8.8"/>
		<circle fill="#5C4728" cx="164.7" cy="470.5" r="1.8"/>
		<circle fill="#5C4728" cx="171.6" cy="470.5" r="1.8"/>
		<circle fill="#5C4728" cx="178.6" cy="470.5" r="1.8"/>
		<circle fill="#5C4728" cx="185.4" cy="470.5" r="1.8"/>
		<circle fill="#5C4728" cx="192.1" cy="470.5" r="1.8"/>
		<circle fill="#5C4728" cx="198.9" cy="470.5" r="1.8"/>
		<circle fill="#5C4728" cx="205.8" cy="470.5" r="1.8"/>
		<circle fill="#5C4728" cx="212.6" cy="470.5" r="1.8"/>
		<circle fill="#5C4728" cx="219.2" cy="470.5" r="1.8"/>
		<circle fill="#5C4728" cx="225.9" cy="470.5" r="1.8"/>
		<circle fill="#5C4728" cx="108.6" cy="491.8" r="1.4"/>
		<circle fill="#5C4728" cx="113.7" cy="491.8" r="1.4"/>
		<circle fill="#5C4728" cx="118.9" cy="491.8" r="1.4"/>
		<circle fill="#5C4728" cx="124.1" cy="491.8" r="1.4"/>
		<circle fill="#5C4728" cx="129.1" cy="491.8" r="1.4"/>
		<circle fill="#5C4728" cx="134.2" cy="491.8" r="1.4"/>
		<rect x="160.6" y="474.7" fill="#5C4728" width="69.8" height="26"/>
		<rect x="95.5" y="437.4" fill="#8E703A" width="51.2" height="29.8"/>
		<rect x="244.6" y="437.4" fill="#8E703A" width="48.6" height="29.8"/>
		<rect x="244.6" y="467.2" fill="#B09251" width="48.1" height="27.7"/>
		<rect x="244.6" y="494.9" fill="#5C4728" width="48.1" height="26"/>
		<rect x="154.5" y="500.7" fill="#8E703A" width="82.3" height="20.3"/>
		<path fill="#B09251" d="M95.3,395.3c0-2-1.4-3.6-3.1-3.6c-1.7,0-3.1,1.6-3.1,3.6c0,0.1,0,0.3,0,0.4h6.2
			C95.3,395.6,95.3,395.4,95.3,395.3z"/>
		<path fill="#B09251" d="M153.8,395.3c0-2-1.4-3.6-3.1-3.6s-3.1,1.6-3.1,3.6c0,0.1,0,0.3,0,0.4h6.2
			C153.8,395.6,153.8,395.4,153.8,395.3z"/>
		<path fill="#B09251" d="M243.9,395.6c0-2-1.4-3.6-3.1-3.6c-1.7,0-3.1,1.6-3.1,3.6c0,0.1,0,0.3,0,0.4h6.2
			C243.8,395.9,243.9,395.7,243.9,395.6z"/>
		<path fill="#B09251" d="M299.3,395.6c0-2-1.4-3.6-3.1-3.6c-1.7,0-3.1,1.6-3.1,3.6c0,0.1,0,0.3,0,0.4h6.2
			C299.3,395.9,299.3,395.7,299.3,395.6z"/>
		<rect x="104.8" y="440.9" fill="#674E29" width="5.9" height="24.2"/>
		<rect x="117.3" y="440.9" fill="#674E29" width="5.9" height="24"/>
		<rect x="129.6" y="440.9" fill="#674E29" width="5.9" height="23.6"/>
		<rect x="252.7" y="440.9" fill="#674E29" width="5.9" height="24.2"/>
		<rect x="265.3" y="440.9" fill="#674E29" width="5.9" height="24"/>
		<rect x="277.6" y="440.9" fill="#674E29" width="5.9" height="23.6"/>
		<rect x="253.9" y="473" fill="#674E29" width="4.4" height="6.6"/>
		<rect x="260.7" y="483" fill="#674E29" width="4.4" height="6.6"/>
		<rect x="272.8" y="483" fill="#674E29" width="4.4" height="6.6"/>
		<rect x="266.8" y="473" fill="#674E29" width="4.4" height="6.6"/>
		<rect x="278.8" y="473" fill="#674E29" width="4.4" height="6.6"/>
		<rect x="154.7" y="518.3" fill="#674E29" width="82.2" height="2.5"/>
		<rect x="158.7" y="514" fill="#674E29" width="74.2" height="2.5"/>
		<rect x="162.5" y="509.6" fill="#674E29" width="66.5" height="2.5"/>
		<rect x="166.9" y="505.6" fill="#674E29" width="57.8" height="2.5"/>
		<rect x="171" y="501.9" fill="#674E29" width="49.5" height="2.5"/>
	</g>
	<g>
		<polyline fill="#FFFFFF" points="265.2,186.6 265.2,144.9 314.6,144.9 314.6,0 0,0 0,186.9 		"/>
		<polygon fill="#048450" points="265.2,186.5 314.6,144.9 265.2,144.9 		"/>
		<polygon opacity="0.8" fill="#082B1A" points="265.2,186.5 232.3,186.5 265.2,162 		"/>
		<polygon opacity="0.8" fill="#033A22" points="0,186.4 106.6,274.4 58.2,186.5 		"/>
		<g>
			<path fill="#006838" d="M34.7,47.1l-1.2-3.4h-4.6l-1.2,3.4h-2.1l4.5-12.2h2.2l4.5,12.2H34.7z M33,42l-1.1-3.3
				c-0.1-0.2-0.2-0.6-0.3-1s-0.2-0.8-0.3-1c-0.1,0.7-0.4,1.4-0.7,2.2L29.4,42H33z"/>
			<path fill="#006838" d="M42.9,45.7c0.5,0,1-0.1,1.4-0.2v1.5c-0.2,0.1-0.5,0.2-0.8,0.2c-0.3,0.1-0.7,0.1-1.1,0.1
				c-1.8,0-2.8-1-2.8-2.9v-4.9h-1.3v-0.9l1.3-0.7l0.7-1.9h1.2v2h2.6v1.5h-2.6v4.9c0,0.5,0.1,0.8,0.4,1
				C42.2,45.6,42.5,45.7,42.9,45.7z"/>
			<path fill="#006838" d="M55.3,47.1h-2V35h6.8v1.7h-4.9v3.8h4.6v1.7h-4.6V47.1z"/>
			<path fill="#006838" d="M65.4,47.1h-2V34.2h2V47.1z"/>
			<path fill="#006838" d="M69.3,35.5c0-0.3,0.1-0.6,0.3-0.8c0.2-0.2,0.5-0.3,0.8-0.3c0.3,0,0.6,0.1,0.8,0.3
				c0.2,0.2,0.3,0.5,0.3,0.8c0,0.3-0.1,0.6-0.3,0.8c-0.2,0.2-0.5,0.3-0.8,0.3c-0.4,0-0.6-0.1-0.8-0.3C69.4,36.1,69.3,35.8,69.3,35.5
				z M71.4,47.1h-2v-9.2h2V47.1z"/>
			<path fill="#006838" d="M83.5,47.1h-2v-5.6c0-0.7-0.1-1.2-0.4-1.6s-0.7-0.5-1.4-0.5c-0.8,0-1.4,0.2-1.8,0.7s-0.6,1.3-0.6,2.4v4.6
				h-2v-9.2H77l0.3,1.2h0.1c0.3-0.4,0.7-0.8,1.2-1c0.5-0.2,1.1-0.4,1.7-0.4c2.2,0,3.3,1.1,3.3,3.4V47.1z"/>
			<path fill="#006838" d="M90.6,47.3c-1.1,0-2-0.4-2.7-1.2s-1-2-1-3.5c0-1.5,0.3-2.7,1-3.5c0.7-0.8,1.6-1.3,2.7-1.3
				c1.2,0,2.1,0.4,2.8,1.3h0.1c-0.1-0.7-0.1-1.2-0.1-1.6v-3.3h2v12.9h-1.5l-0.3-1.2h-0.1C92.8,46.8,91.8,47.3,90.6,47.3z M91.2,45.7
				c0.8,0,1.4-0.2,1.8-0.7c0.4-0.5,0.6-1.2,0.6-2.2v-0.3c0-1.2-0.2-2-0.6-2.5c-0.4-0.5-1-0.7-1.8-0.7c-0.7,0-1.2,0.3-1.6,0.8
				c-0.4,0.6-0.6,1.3-0.6,2.4c0,1,0.2,1.8,0.5,2.3C89.9,45.4,90.4,45.7,91.2,45.7z"/>
			<path fill="#006838" d="M103.4,47.3c-1.4,0-2.5-0.4-3.3-1.2c-0.8-0.8-1.2-2-1.2-3.4c0-1.5,0.4-2.7,1.1-3.5
				c0.7-0.9,1.8-1.3,3.1-1.3c1.2,0,2.2,0.4,2.9,1.1s1.1,1.7,1.1,3V43h-6.1c0,0.9,0.3,1.6,0.7,2.1c0.5,0.5,1.1,0.7,1.9,0.7
				c0.5,0,1-0.1,1.5-0.2c0.5-0.1,1-0.3,1.5-0.5v1.6c-0.5,0.2-1,0.4-1.4,0.5S104,47.3,103.4,47.3z M103.1,39.2
				c-0.6,0-1.1,0.2-1.5,0.6c-0.4,0.4-0.6,1-0.7,1.7h4.2c0-0.8-0.2-1.3-0.5-1.7C104.2,39.4,103.7,39.2,103.1,39.2z"/>
			<path fill="#006838" d="M115.1,37.8c0.4,0,0.7,0,1,0.1l-0.2,1.8c-0.3-0.1-0.6-0.1-0.9-0.1c-0.8,0-1.4,0.3-1.9,0.8s-0.7,1.2-0.7,2
				v4.8h-2v-9.2h1.5l0.3,1.6h0.1c0.3-0.5,0.7-1,1.2-1.3C114,37.9,114.6,37.8,115.1,37.8z"/>
			<path fill="#006838" d="M125.2,44.5c0,0.9-0.3,1.6-1,2.1c-0.7,0.5-1.6,0.7-2.8,0.7c-1.2,0-2.2-0.2-2.9-0.6V45
				c1.1,0.5,2.1,0.7,3,0.7c1.2,0,1.8-0.4,1.8-1.1c0-0.2-0.1-0.4-0.2-0.6s-0.4-0.3-0.7-0.5c-0.3-0.2-0.7-0.4-1.3-0.6
				c-1.1-0.4-1.8-0.8-2.1-1.2c-0.4-0.4-0.6-0.9-0.6-1.6c0-0.8,0.3-1.4,1-1.8c0.6-0.4,1.5-0.7,2.6-0.7c1.1,0,2.1,0.2,3.1,0.7
				l-0.6,1.5c-1-0.4-1.8-0.6-2.5-0.6c-1,0-1.5,0.3-1.5,0.9c0,0.3,0.1,0.5,0.4,0.7s0.9,0.5,1.8,0.8c0.8,0.3,1.3,0.6,1.7,0.8
				c0.3,0.2,0.6,0.5,0.8,0.8C125.2,43.7,125.2,44.1,125.2,44.5z"/>
			<path fill="#006838" d="M141.5,43.8c0,1.1-0.4,1.9-1.2,2.5c-0.8,0.6-1.9,0.9-3.2,0.9s-2.5-0.2-3.4-0.6v-1.9
				c0.6,0.3,1.1,0.5,1.8,0.6c0.6,0.1,1.2,0.2,1.7,0.2c0.8,0,1.4-0.1,1.7-0.4c0.4-0.3,0.6-0.7,0.6-1.2c0-0.5-0.2-0.8-0.5-1.2
				c-0.3-0.3-1.1-0.7-2.1-1.1c-1.1-0.4-1.9-1-2.3-1.5c-0.5-0.6-0.7-1.3-0.7-2.1c0-1,0.4-1.8,1.1-2.4c0.7-0.6,1.7-0.9,2.9-0.9
				c1.2,0,2.3,0.3,3.5,0.8l-0.6,1.6c-1.1-0.5-2-0.7-2.9-0.7c-0.6,0-1.1,0.1-1.5,0.4c-0.3,0.3-0.5,0.6-0.5,1.1c0,0.3,0.1,0.6,0.2,0.8
				c0.1,0.2,0.4,0.4,0.7,0.6c0.3,0.2,0.9,0.5,1.6,0.8c0.9,0.4,1.5,0.7,2,1c0.4,0.3,0.7,0.7,0.9,1.1
				C141.4,42.8,141.5,43.3,141.5,43.8z"/>
			<path fill="#006838" d="M148.4,45.7c0.5,0,1-0.1,1.4-0.2v1.5c-0.2,0.1-0.5,0.2-0.8,0.2c-0.3,0.1-0.7,0.1-1.1,0.1
				c-1.8,0-2.8-1-2.8-2.9v-4.9h-1.3v-0.9l1.3-0.7l0.7-1.9h1.2v2h2.6v1.5h-2.6v4.9c0,0.5,0.1,0.8,0.4,1
				C147.7,45.6,148,45.7,148.4,45.7z"/>
			<path fill="#006838" d="M157.6,37.8c0.4,0,0.7,0,1,0.1l-0.2,1.8c-0.3-0.1-0.6-0.1-0.9-0.1c-0.8,0-1.4,0.3-1.9,0.8s-0.7,1.2-0.7,2
				v4.8h-2v-9.2h1.5l0.3,1.6h0.1c0.3-0.5,0.7-1,1.2-1.3C156.5,37.9,157,37.8,157.6,37.8z"/>
			<path fill="#006838" d="M165.5,47.3c-1.4,0-2.5-0.4-3.3-1.2c-0.8-0.8-1.2-2-1.2-3.4c0-1.5,0.4-2.7,1.1-3.5
				c0.7-0.9,1.8-1.3,3.1-1.3c1.2,0,2.2,0.4,2.9,1.1s1.1,1.7,1.1,3V43H163c0,0.9,0.3,1.6,0.7,2.1c0.5,0.5,1.1,0.7,1.9,0.7
				c0.5,0,1-0.1,1.5-0.2c0.5-0.1,1-0.3,1.5-0.5v1.6c-0.5,0.2-1,0.4-1.4,0.5S166.1,47.3,165.5,47.3z M165.2,39.2
				c-0.6,0-1.1,0.2-1.5,0.6c-0.4,0.4-0.6,1-0.7,1.7h4.2c0-0.8-0.2-1.3-0.5-1.7C166.3,39.4,165.8,39.2,165.2,39.2z"/>
			<path fill="#006838" d="M176.6,47.3c-1.4,0-2.5-0.4-3.3-1.2c-0.8-0.8-1.2-2-1.2-3.4c0-1.5,0.4-2.7,1.1-3.5
				c0.7-0.9,1.8-1.3,3.1-1.3c1.2,0,2.2,0.4,2.9,1.1s1.1,1.7,1.1,3V43H174c0,0.9,0.3,1.6,0.7,2.1c0.5,0.5,1.1,0.7,1.9,0.7
				c0.5,0,1-0.1,1.5-0.2c0.5-0.1,1-0.3,1.5-0.5v1.6c-0.5,0.2-1,0.4-1.4,0.5S177.2,47.3,176.6,47.3z M176.2,39.2
				c-0.6,0-1.1,0.2-1.5,0.6c-0.4,0.4-0.6,1-0.7,1.7h4.2c0-0.8-0.2-1.3-0.5-1.7C177.3,39.4,176.8,39.2,176.2,39.2z"/>
			<path fill="#006838" d="M187.1,45.7c0.5,0,1-0.1,1.4-0.2v1.5c-0.2,0.1-0.5,0.2-0.8,0.2c-0.3,0.1-0.7,0.1-1.1,0.1
				c-1.8,0-2.8-1-2.8-2.9v-4.9h-1.3v-0.9l1.3-0.7l0.7-1.9h1.2v2h2.6v1.5h-2.6v4.9c0,0.5,0.1,0.8,0.4,1
				C186.4,45.6,186.7,45.7,187.1,45.7z"/>
			<path fill="#006838" d="M204.5,43.8c0,1.1-0.4,1.9-1.2,2.5c-0.8,0.6-1.9,0.9-3.2,0.9s-2.5-0.2-3.4-0.6v-1.9
				c0.6,0.3,1.1,0.5,1.8,0.6c0.6,0.1,1.2,0.2,1.7,0.2c0.8,0,1.4-0.1,1.7-0.4c0.4-0.3,0.6-0.7,0.6-1.2c0-0.5-0.2-0.8-0.5-1.2
				c-0.3-0.3-1.1-0.7-2.1-1.1c-1.1-0.4-1.9-1-2.3-1.5c-0.5-0.6-0.7-1.3-0.7-2.1c0-1,0.4-1.8,1.1-2.4c0.7-0.6,1.7-0.9,2.9-0.9
				c1.2,0,2.3,0.3,3.5,0.8l-0.6,1.6c-1.1-0.5-2-0.7-2.9-0.7c-0.6,0-1.1,0.1-1.5,0.4c-0.3,0.3-0.5,0.6-0.5,1.1c0,0.3,0.1,0.6,0.2,0.8
				c0.1,0.2,0.4,0.4,0.7,0.6c0.3,0.2,0.9,0.5,1.6,0.8c0.9,0.4,1.5,0.7,2,1c0.4,0.3,0.7,0.7,0.9,1.1
				C204.4,42.8,204.5,43.3,204.5,43.8z"/>
			<path fill="#006838" d="M211.3,45.7c0.5,0,1-0.1,1.4-0.2v1.5c-0.2,0.1-0.5,0.2-0.8,0.2c-0.3,0.1-0.7,0.1-1.1,0.1
				c-1.8,0-2.8-1-2.8-2.9v-4.9h-1.3v-0.9l1.3-0.7l0.7-1.9h1.2v2h2.6v1.5h-2.6v4.9c0,0.5,0.1,0.8,0.4,1
				C210.6,45.6,210.9,45.7,211.3,45.7z"/>
			<path fill="#006838" d="M221.6,47.1l-0.4-1.3h-0.1c-0.4,0.6-0.9,0.9-1.3,1.1c-0.4,0.2-1,0.3-1.7,0.3c-0.9,0-1.6-0.2-2.1-0.7
				c-0.5-0.5-0.8-1.2-0.8-2.1c0-0.9,0.4-1.7,1.1-2.1c0.7-0.5,1.8-0.7,3.2-0.8l1.6,0V41c0-0.6-0.1-1-0.4-1.3
				c-0.3-0.3-0.7-0.4-1.3-0.4c-0.5,0-0.9,0.1-1.4,0.2s-0.8,0.3-1.2,0.5l-0.6-1.4c0.5-0.3,1-0.5,1.6-0.6c0.6-0.1,1.2-0.2,1.7-0.2
				c1.2,0,2,0.3,2.6,0.8s0.9,1.3,0.9,2.4v6.2H221.6z M218.7,45.8c0.7,0,1.3-0.2,1.7-0.6c0.4-0.4,0.6-1,0.6-1.7v-0.8l-1.2,0
				c-0.9,0-1.6,0.2-2,0.5c-0.4,0.3-0.6,0.7-0.6,1.3c0,0.4,0.1,0.7,0.4,1C217.9,45.7,218.2,45.8,218.7,45.8z"/>
			<path fill="#006838" d="M230.4,45.7c0.5,0,1-0.1,1.4-0.2v1.5c-0.2,0.1-0.5,0.2-0.8,0.2c-0.3,0.1-0.7,0.1-1.1,0.1
				c-1.8,0-2.8-1-2.8-2.9v-4.9h-1.3v-0.9l1.3-0.7l0.7-1.9h1.2v2h2.6v1.5h-2.6v4.9c0,0.5,0.1,0.8,0.4,1
				C229.7,45.6,230,45.7,230.4,45.7z"/>
			<path fill="#006838" d="M234.8,35.5c0-0.3,0.1-0.6,0.3-0.8c0.2-0.2,0.5-0.3,0.8-0.3c0.3,0,0.6,0.1,0.8,0.3
				c0.2,0.2,0.3,0.5,0.3,0.8c0,0.3-0.1,0.6-0.3,0.8c-0.2,0.2-0.5,0.3-0.8,0.3c-0.4,0-0.6-0.1-0.8-0.3
				C234.9,36.1,234.8,35.8,234.8,35.5z M236.9,47.1h-2v-9.2h2V47.1z"/>
			<path fill="#006838" d="M249.1,42.5c0,1.5-0.4,2.7-1.2,3.5s-1.8,1.3-3.2,1.3c-0.9,0-1.6-0.2-2.3-0.6c-0.7-0.4-1.2-0.9-1.5-1.7
				s-0.5-1.6-0.5-2.5c0-1.5,0.4-2.7,1.1-3.5s1.8-1.3,3.2-1.3c1.3,0,2.4,0.4,3.2,1.3C248.7,39.9,249.1,41.1,249.1,42.5z M242.4,42.5
				c0,2.1,0.8,3.2,2.3,3.2c1.5,0,2.3-1.1,2.3-3.2c0-2.1-0.8-3.1-2.3-3.1c-0.8,0-1.4,0.3-1.8,0.8S242.4,41.5,242.4,42.5z"/>
			<path fill="#006838" d="M260.7,47.1h-2v-5.6c0-0.7-0.1-1.2-0.4-1.6s-0.7-0.5-1.4-0.5c-0.8,0-1.4,0.2-1.8,0.7s-0.6,1.3-0.6,2.4
				v4.6h-2v-9.2h1.5l0.3,1.2h0.1c0.3-0.4,0.7-0.8,1.2-1c0.5-0.2,1.1-0.4,1.7-0.4c2.2,0,3.3,1.1,3.3,3.4V47.1z"/>
			<path fill="#006838" d="M266.7,45.3c-0.3,1-0.8,2.4-1.5,4h-1.4c0.4-1.5,0.7-2.9,0.9-4.2h1.9L266.7,45.3z"/>
			<path fill="#006838" d="M25.6,58.3h2.1l1.9,5.2c0.3,0.7,0.5,1.4,0.6,2.1h0.1c0.1-0.3,0.1-0.7,0.3-1.1c0.1-0.4,0.8-2.5,2.1-6.2
				h2.1l-3.9,10.4c-0.7,1.9-1.9,2.9-3.6,2.9c-0.4,0-0.9,0-1.3-0.1v-1.5c0.3,0.1,0.6,0.1,1,0.1c0.9,0,1.6-0.5,2-1.6l0.3-0.9
				L25.6,58.3z"/>
			<path fill="#006838" d="M45.5,62.9c0,1.5-0.4,2.7-1.2,3.5s-1.8,1.3-3.2,1.3c-0.9,0-1.6-0.2-2.3-0.6c-0.7-0.4-1.2-0.9-1.5-1.7
				s-0.5-1.6-0.5-2.5c0-1.5,0.4-2.7,1.1-3.5s1.8-1.3,3.2-1.3c1.3,0,2.4,0.4,3.2,1.3C45.1,60.3,45.5,61.5,45.5,62.9z M38.8,62.9
				c0,2.1,0.8,3.2,2.3,3.2c1.5,0,2.3-1.1,2.3-3.2c0-2.1-0.8-3.1-2.3-3.1c-0.8,0-1.4,0.3-1.8,0.8S38.8,61.9,38.8,62.9z"/>
			<path fill="#006838" d="M55.5,67.5l-0.3-1.2h-0.1c-0.3,0.4-0.7,0.8-1.2,1s-1.1,0.4-1.7,0.4c-1.1,0-1.9-0.3-2.5-0.8
				c-0.5-0.6-0.8-1.4-0.8-2.5v-6h2V64c0,0.7,0.1,1.2,0.4,1.6c0.3,0.4,0.7,0.5,1.4,0.5c0.8,0,1.4-0.2,1.8-0.7
				c0.4-0.5,0.6-1.3,0.6-2.5v-4.6h2v9.2H55.5z"/>
			<path fill="#006838" d="M70.5,67.7c-1.4,0-2.4-0.4-3.2-1.2c-0.7-0.8-1.1-2-1.1-3.5c0-1.5,0.4-2.7,1.1-3.6
				c0.8-0.8,1.8-1.2,3.3-1.2c1,0,1.8,0.2,2.6,0.5l-0.6,1.6c-0.8-0.3-1.5-0.5-2-0.5c-1.6,0-2.4,1.1-2.4,3.2c0,1,0.2,1.8,0.6,2.3
				c0.4,0.5,1,0.8,1.7,0.8c0.9,0,1.7-0.2,2.5-0.6v1.7c-0.3,0.2-0.7,0.4-1.1,0.4S71,67.7,70.5,67.7z"/>
			<path fill="#006838" d="M82.2,67.5l-0.4-1.3h-0.1c-0.4,0.6-0.9,0.9-1.3,1.1c-0.4,0.2-1,0.3-1.7,0.3c-0.9,0-1.6-0.2-2.1-0.7
				c-0.5-0.5-0.8-1.2-0.8-2.1c0-0.9,0.4-1.7,1.1-2.1c0.7-0.5,1.8-0.7,3.2-0.8l1.6,0v-0.5c0-0.6-0.1-1-0.4-1.3
				c-0.3-0.3-0.7-0.4-1.3-0.4c-0.5,0-0.9,0.1-1.4,0.2s-0.8,0.3-1.2,0.5L76.7,59c0.5-0.3,1-0.5,1.6-0.6c0.6-0.1,1.2-0.2,1.7-0.2
				c1.2,0,2,0.3,2.6,0.8s0.9,1.3,0.9,2.4v6.2H82.2z M79.3,66.2c0.7,0,1.3-0.2,1.7-0.6c0.4-0.4,0.6-1,0.6-1.7v-0.8l-1.2,0
				c-0.9,0-1.6,0.2-2,0.5c-0.4,0.3-0.6,0.7-0.6,1.3c0,0.4,0.1,0.7,0.4,1C78.4,66.1,78.8,66.2,79.3,66.2z"/>
			<path fill="#006838" d="M95.7,67.5h-2v-5.6c0-0.7-0.1-1.2-0.4-1.6s-0.7-0.5-1.4-0.5c-0.8,0-1.4,0.2-1.8,0.7s-0.6,1.3-0.6,2.4v4.6
				h-2v-9.2h1.5l0.3,1.2h0.1c0.3-0.4,0.7-0.8,1.2-1c0.5-0.2,1.1-0.4,1.7-0.4c2.2,0,3.3,1.1,3.3,3.4V67.5z"/>
			<path fill="#006838" d="M112.9,67.5l-1.2-4.3c-0.1-0.5-0.4-1.5-0.8-3.2h-0.1c-0.3,1.5-0.6,2.6-0.8,3.2l-1.2,4.3h-2.2l-2.6-9.2h2
				l1.2,4.5c0.3,1.1,0.5,2.1,0.6,2.9h0.1c0.1-0.4,0.1-0.9,0.3-1.4c0.1-0.5,0.2-0.9,0.3-1.2l1.4-4.8h2.1l1.4,4.8
				c0.1,0.3,0.2,0.7,0.3,1.2c0.1,0.6,0.2,1,0.2,1.3h0.1c0.1-0.7,0.3-1.6,0.6-2.9l1.2-4.5h2l-2.6,9.2H112.9z"/>
			<path fill="#006838" d="M126.3,67.5l-0.4-1.3h-0.1c-0.4,0.6-0.9,0.9-1.3,1.1c-0.4,0.2-1,0.3-1.7,0.3c-0.9,0-1.6-0.2-2.1-0.7
				c-0.5-0.5-0.8-1.2-0.8-2.1c0-0.9,0.4-1.7,1.1-2.1c0.7-0.5,1.8-0.7,3.2-0.8l1.6,0v-0.5c0-0.6-0.1-1-0.4-1.3
				c-0.3-0.3-0.7-0.4-1.3-0.4c-0.5,0-0.9,0.1-1.4,0.2s-0.8,0.3-1.2,0.5l-0.6-1.4c0.5-0.3,1-0.5,1.6-0.6c0.6-0.1,1.2-0.2,1.7-0.2
				c1.2,0,2,0.3,2.6,0.8s0.9,1.3,0.9,2.4v6.2H126.3z M123.3,66.2c0.7,0,1.3-0.2,1.7-0.6c0.4-0.4,0.6-1,0.6-1.7v-0.8l-1.2,0
				c-0.9,0-1.6,0.2-2,0.5c-0.4,0.3-0.6,0.7-0.6,1.3c0,0.4,0.1,0.7,0.4,1C122.5,66.1,122.9,66.2,123.3,66.2z"/>
			<path fill="#006838" d="M131.5,55.9c0-0.3,0.1-0.6,0.3-0.8c0.2-0.2,0.5-0.3,0.8-0.3c0.3,0,0.6,0.1,0.8,0.3
				c0.2,0.2,0.3,0.5,0.3,0.8c0,0.3-0.1,0.6-0.3,0.8c-0.2,0.2-0.5,0.3-0.8,0.3c-0.4,0-0.6-0.1-0.8-0.3
				C131.6,56.5,131.5,56.2,131.5,55.9z M133.6,67.5h-2v-9.2h2V67.5z"/>
			<path fill="#006838" d="M141.1,66.1c0.5,0,1-0.1,1.4-0.2v1.5c-0.2,0.1-0.5,0.2-0.8,0.2c-0.3,0.1-0.7,0.1-1.1,0.1
				c-1.8,0-2.8-1-2.8-2.9v-4.9h-1.3v-0.9l1.3-0.7l0.7-1.9h1.2v2h2.6v1.5h-2.6v4.9c0,0.5,0.1,0.8,0.4,1
				C140.4,66,140.7,66.1,141.1,66.1z"/>
			<path fill="#006838" d="M155.9,59.8h-2.2v7.7h-2v-7.7h-1.5v-0.9l1.5-0.6v-0.6c0-1.1,0.3-1.9,0.8-2.4c0.5-0.5,1.3-0.8,2.3-0.8
				c0.7,0,1.4,0.1,2,0.3l-0.5,1.5c-0.5-0.2-0.9-0.2-1.4-0.2c-0.4,0-0.8,0.1-1,0.4c-0.2,0.3-0.3,0.7-0.3,1.2v0.6h2.2V59.8z"/>
			<path fill="#006838" d="M166.9,62.9c0,1.5-0.4,2.7-1.2,3.5s-1.8,1.3-3.2,1.3c-0.9,0-1.6-0.2-2.3-0.6c-0.7-0.4-1.2-0.9-1.5-1.7
				s-0.5-1.6-0.5-2.5c0-1.5,0.4-2.7,1.1-3.5s1.8-1.3,3.2-1.3c1.3,0,2.4,0.4,3.2,1.3C166.5,60.3,166.9,61.5,166.9,62.9z M160.2,62.9
				c0,2.1,0.8,3.2,2.3,3.2c1.5,0,2.3-1.1,2.3-3.2c0-2.1-0.8-3.1-2.3-3.1c-0.8,0-1.4,0.3-1.8,0.8S160.2,61.9,160.2,62.9z"/>
			<path fill="#006838" d="M175.1,58.2c0.4,0,0.7,0,1,0.1l-0.2,1.8c-0.3-0.1-0.6-0.1-0.9-0.1c-0.8,0-1.4,0.3-1.9,0.8s-0.7,1.2-0.7,2
				v4.8h-2v-9.2h1.5l0.3,1.6h0.1c0.3-0.5,0.7-1,1.2-1.3C174,58.3,174.5,58.2,175.1,58.2z"/>
			<path fill="#006838" d="M183.3,58.3h2.1l1.9,5.2c0.3,0.7,0.5,1.4,0.6,2.1h0.1c0.1-0.3,0.1-0.7,0.3-1.1c0.1-0.4,0.8-2.5,2.1-6.2
				h2.1l-3.9,10.4c-0.7,1.9-1.9,2.9-3.6,2.9c-0.4,0-0.9,0-1.3-0.1v-1.5c0.3,0.1,0.6,0.1,1,0.1c0.9,0,1.6-0.5,2-1.6l0.3-0.9
				L183.3,58.3z"/>
			<path fill="#006838" d="M203.2,62.9c0,1.5-0.4,2.7-1.2,3.5s-1.8,1.3-3.2,1.3c-0.9,0-1.6-0.2-2.3-0.6c-0.7-0.4-1.2-0.9-1.5-1.7
				s-0.5-1.6-0.5-2.5c0-1.5,0.4-2.7,1.1-3.5s1.8-1.3,3.2-1.3c1.3,0,2.4,0.4,3.2,1.3C202.8,60.3,203.2,61.5,203.2,62.9z M196.6,62.9
				c0,2.1,0.8,3.2,2.3,3.2c1.5,0,2.3-1.1,2.3-3.2c0-2.1-0.8-3.1-2.3-3.1c-0.8,0-1.4,0.3-1.8,0.8S196.6,61.9,196.6,62.9z"/>
			<path fill="#006838" d="M213.2,67.5l-0.3-1.2h-0.1c-0.3,0.4-0.7,0.8-1.2,1s-1.1,0.4-1.7,0.4c-1.1,0-1.9-0.3-2.5-0.8
				c-0.5-0.6-0.8-1.4-0.8-2.5v-6h2V64c0,0.7,0.1,1.2,0.4,1.6c0.3,0.4,0.7,0.5,1.4,0.5c0.8,0,1.4-0.2,1.8-0.7
				c0.4-0.5,0.6-1.3,0.6-2.5v-4.6h2v9.2H213.2z"/>
			<path fill="#006838" d="M223.5,58.2c0.4,0,0.7,0,1,0.1l-0.2,1.8c-0.3-0.1-0.6-0.1-0.9-0.1c-0.8,0-1.4,0.3-1.9,0.8s-0.7,1.2-0.7,2
				v4.8h-2v-9.2h1.5l0.3,1.6h0.1c0.3-0.5,0.7-1,1.2-1.3C222.4,58.3,222.9,58.2,223.5,58.2z"/>
			<path fill="#006838" d="M236.5,66.1c0.5,0,1-0.1,1.4-0.2v1.5c-0.2,0.1-0.5,0.2-0.8,0.2c-0.3,0.1-0.7,0.1-1.1,0.1
				c-1.8,0-2.8-1-2.8-2.9v-4.9H232v-0.9l1.3-0.7l0.7-1.9h1.2v2h2.6v1.5h-2.6v4.9c0,0.5,0.1,0.8,0.4,1
				C235.8,66,236.2,66.1,236.5,66.1z"/>
			<path fill="#006838" d="M245.7,58.2c0.4,0,0.7,0,1,0.1l-0.2,1.8c-0.3-0.1-0.6-0.1-0.9-0.1c-0.8,0-1.4,0.3-1.9,0.8s-0.7,1.2-0.7,2
				v4.8h-2v-9.2h1.5l0.3,1.6h0.1c0.3-0.5,0.7-1,1.2-1.3C244.6,58.3,245.2,58.2,245.7,58.2z"/>
			<path fill="#006838" d="M255.4,67.5l-0.4-1.3H255c-0.4,0.6-0.9,0.9-1.3,1.1c-0.4,0.2-1,0.3-1.7,0.3c-0.9,0-1.6-0.2-2.1-0.7
				c-0.5-0.5-0.8-1.2-0.8-2.1c0-0.9,0.4-1.7,1.1-2.1c0.7-0.5,1.8-0.7,3.2-0.8l1.6,0v-0.5c0-0.6-0.1-1-0.4-1.3
				c-0.3-0.3-0.7-0.4-1.3-0.4c-0.5,0-0.9,0.1-1.4,0.2s-0.8,0.3-1.2,0.5L250,59c0.5-0.3,1-0.5,1.6-0.6c0.6-0.1,1.2-0.2,1.7-0.2
				c1.2,0,2,0.3,2.6,0.8c0.6,0.5,0.9,1.3,0.9,2.4v6.2H255.4z M252.5,66.2c0.7,0,1.3-0.2,1.7-0.6c0.4-0.4,0.6-1,0.6-1.7v-0.8l-1.2,0
				c-0.9,0-1.6,0.2-2,0.5c-0.4,0.3-0.6,0.7-0.6,1.3c0,0.4,0.1,0.7,0.4,1C251.7,66.1,252,66.2,252.5,66.2z"/>
			<path fill="#006838" d="M260.7,55.9c0-0.3,0.1-0.6,0.3-0.8c0.2-0.2,0.5-0.3,0.8-0.3c0.3,0,0.6,0.1,0.8,0.3
				c0.2,0.2,0.3,0.5,0.3,0.8c0,0.3-0.1,0.6-0.3,0.8c-0.2,0.2-0.5,0.3-0.8,0.3c-0.4,0-0.6-0.1-0.8-0.3
				C260.8,56.5,260.7,56.2,260.7,55.9z M262.8,67.5h-2v-9.2h2V67.5z"/>
			<path fill="#006838" d="M274.9,67.5h-2v-5.6c0-0.7-0.1-1.2-0.4-1.6s-0.7-0.5-1.4-0.5c-0.8,0-1.4,0.2-1.8,0.7s-0.6,1.3-0.6,2.4
				v4.6h-2v-9.2h1.5l0.3,1.2h0.1c0.3-0.4,0.7-0.8,1.2-1c0.5-0.2,1.1-0.4,1.7-0.4c2.2,0,3.3,1.1,3.3,3.4V67.5z"/>
			<path fill="#006838" d="M34.5,87.9l-1.2-4.3c-0.1-0.5-0.4-1.5-0.8-3.2h-0.1c-0.3,1.5-0.6,2.6-0.8,3.2l-1.2,4.3h-2.2l-2.6-9.2h2
				l1.2,4.5c0.3,1.1,0.5,2.1,0.6,2.9h0.1c0.1-0.4,0.1-0.9,0.3-1.4c0.1-0.5,0.2-0.9,0.3-1.2l1.4-4.8h2.1l1.4,4.8
				c0.1,0.3,0.2,0.7,0.3,1.2c0.1,0.6,0.2,1,0.2,1.3h0.1c0.1-0.7,0.3-1.6,0.6-2.9l1.2-4.5h2l-2.6,9.2H34.5z"/>
			<path fill="#006838" d="M50.2,87.9h-2v-5.6c0-0.7-0.1-1.2-0.4-1.6s-0.7-0.5-1.4-0.5c-0.8,0-1.4,0.2-1.8,0.7
				c-0.4,0.5-0.6,1.3-0.6,2.5v4.6h-2V75h2v3.3c0,0.5,0,1.1-0.1,1.7h0.1c0.3-0.4,0.6-0.8,1.1-1c0.5-0.2,1-0.4,1.7-0.4
				c2.2,0,3.3,1.1,3.3,3.4V87.9z"/>
			<path fill="#006838" d="M54.1,76.3c0-0.3,0.1-0.6,0.3-0.8c0.2-0.2,0.5-0.3,0.8-0.3c0.3,0,0.6,0.1,0.8,0.3
				c0.2,0.2,0.3,0.5,0.3,0.8c0,0.3-0.1,0.6-0.3,0.8c-0.2,0.2-0.5,0.3-0.8,0.3c-0.4,0-0.6-0.1-0.8-0.3C54.2,76.9,54.1,76.6,54.1,76.3
				z M56.1,87.9h-2v-9.2h2V87.9z"/>
			<path fill="#006838" d="M62.1,87.9h-2V75h2V87.9z"/>
			<path fill="#006838" d="M70.2,88.1c-1.4,0-2.5-0.4-3.3-1.2c-0.8-0.8-1.2-2-1.2-3.4c0-1.5,0.4-2.7,1.1-3.5
				c0.7-0.9,1.8-1.3,3.1-1.3c1.2,0,2.2,0.4,2.9,1.1s1.1,1.7,1.1,3v1.1h-6.1c0,0.9,0.3,1.6,0.7,2.1c0.5,0.5,1.1,0.7,1.9,0.7
				c0.5,0,1-0.1,1.5-0.2c0.5-0.1,1-0.3,1.5-0.5v1.6c-0.5,0.2-1,0.4-1.4,0.5S70.8,88.1,70.2,88.1z M69.9,80c-0.6,0-1.1,0.2-1.5,0.6
				c-0.4,0.4-0.6,1-0.7,1.7h4.2c0-0.8-0.2-1.3-0.5-1.7C71,80.2,70.5,80,69.9,80z"/>
			<path fill="#006838" d="M86.7,88.1c-1.4,0-2.4-0.4-3.2-1.2c-0.7-0.8-1.1-2-1.1-3.5c0-1.5,0.4-2.7,1.1-3.6
				c0.8-0.8,1.8-1.2,3.3-1.2c1,0,1.8,0.2,2.6,0.5l-0.6,1.6c-0.8-0.3-1.5-0.5-2-0.5c-1.6,0-2.4,1.1-2.4,3.2c0,1,0.2,1.8,0.6,2.3
				c0.4,0.5,1,0.8,1.7,0.8c0.9,0,1.7-0.2,2.5-0.6v1.7c-0.3,0.2-0.7,0.4-1.1,0.4S87.2,88.1,86.7,88.1z"/>
			<path fill="#006838" d="M100.8,83.3c0,1.5-0.4,2.7-1.2,3.5s-1.8,1.3-3.2,1.3c-0.9,0-1.6-0.2-2.3-0.6c-0.7-0.4-1.2-0.9-1.5-1.7
				s-0.5-1.6-0.5-2.5c0-1.5,0.4-2.7,1.1-3.5s1.8-1.3,3.2-1.3c1.3,0,2.4,0.4,3.2,1.3C100.4,80.7,100.8,81.9,100.8,83.3z M94.1,83.3
				c0,2.1,0.8,3.2,2.3,3.2c1.5,0,2.3-1.1,2.3-3.2c0-2.1-0.8-3.1-2.3-3.1c-0.8,0-1.4,0.3-1.8,0.8S94.1,82.3,94.1,83.3z"/>
			<path fill="#006838" d="M112.4,87.9h-2v-5.6c0-0.7-0.1-1.2-0.4-1.6s-0.7-0.5-1.4-0.5c-0.8,0-1.4,0.2-1.8,0.7s-0.6,1.3-0.6,2.4
				v4.6h-2v-9.2h1.5l0.3,1.2h0.1c0.3-0.4,0.7-0.8,1.2-1c0.5-0.2,1.1-0.4,1.7-0.4c2.2,0,3.3,1.1,3.3,3.4V87.9z"/>
			<path fill="#006838" d="M124.5,87.9h-2v-5.6c0-0.7-0.1-1.2-0.4-1.6s-0.7-0.5-1.4-0.5c-0.8,0-1.4,0.2-1.8,0.7s-0.6,1.3-0.6,2.4
				v4.6h-2v-9.2h1.5l0.3,1.2h0.1c0.3-0.4,0.7-0.8,1.2-1c0.5-0.2,1.1-0.4,1.7-0.4c2.2,0,3.3,1.1,3.3,3.4V87.9z"/>
			<path fill="#006838" d="M132.5,88.1c-1.4,0-2.5-0.4-3.3-1.2c-0.8-0.8-1.2-2-1.2-3.4c0-1.5,0.4-2.7,1.1-3.5
				c0.7-0.9,1.8-1.3,3.1-1.3c1.2,0,2.2,0.4,2.9,1.1s1.1,1.7,1.1,3v1.1h-6.1c0,0.9,0.3,1.6,0.7,2.1c0.5,0.5,1.1,0.7,1.9,0.7
				c0.5,0,1-0.1,1.5-0.2c0.5-0.1,1-0.3,1.5-0.5v1.6c-0.5,0.2-1,0.4-1.4,0.5S133.1,88.1,132.5,88.1z M132.1,80
				c-0.6,0-1.1,0.2-1.5,0.6c-0.4,0.4-0.6,1-0.7,1.7h4.2c0-0.8-0.2-1.3-0.5-1.7C133.2,80.2,132.7,80,132.1,80z"/>
			<path fill="#006838" d="M143.2,88.1c-1.4,0-2.4-0.4-3.2-1.2c-0.7-0.8-1.1-2-1.1-3.5c0-1.5,0.4-2.7,1.1-3.6
				c0.8-0.8,1.8-1.2,3.3-1.2c1,0,1.8,0.2,2.6,0.5l-0.6,1.6c-0.8-0.3-1.5-0.5-2-0.5c-1.6,0-2.4,1.1-2.4,3.2c0,1,0.2,1.8,0.6,2.3
				c0.4,0.5,1,0.8,1.7,0.8c0.9,0,1.7-0.2,2.5-0.6v1.7c-0.3,0.2-0.7,0.4-1.1,0.4S143.8,88.1,143.2,88.1z"/>
			<path fill="#006838" d="M152.6,86.5c0.5,0,1-0.1,1.4-0.2v1.5c-0.2,0.1-0.5,0.2-0.8,0.2c-0.3,0.1-0.7,0.1-1.1,0.1
				c-1.8,0-2.8-1-2.8-2.9v-4.9h-1.3v-0.9l1.3-0.7l0.7-1.9h1.2v2h2.6v1.5h-2.6v4.9c0,0.5,0.1,0.8,0.4,1
				C151.9,86.4,152.3,86.5,152.6,86.5z"/>
			<path fill="#006838" d="M161.2,88.1c-1.4,0-2.5-0.4-3.3-1.2c-0.8-0.8-1.2-2-1.2-3.4c0-1.5,0.4-2.7,1.1-3.5
				c0.7-0.9,1.8-1.3,3.1-1.3c1.2,0,2.2,0.4,2.9,1.1s1.1,1.7,1.1,3v1.1h-6.1c0,0.9,0.3,1.6,0.7,2.1c0.5,0.5,1.1,0.7,1.9,0.7
				c0.5,0,1-0.1,1.5-0.2c0.5-0.1,1-0.3,1.5-0.5v1.6c-0.5,0.2-1,0.4-1.4,0.5S161.8,88.1,161.2,88.1z M160.8,80
				c-0.6,0-1.1,0.2-1.5,0.6c-0.4,0.4-0.6,1-0.7,1.7h4.2c0-0.8-0.2-1.3-0.5-1.7C161.9,80.2,161.4,80,160.8,80z"/>
			<path fill="#006838" d="M171.3,88.1c-1.1,0-2-0.4-2.7-1.2s-1-2-1-3.5c0-1.5,0.3-2.7,1-3.5c0.7-0.8,1.6-1.3,2.7-1.3
				c1.2,0,2.1,0.4,2.8,1.3h0.1c-0.1-0.7-0.1-1.2-0.1-1.6V75h2v12.9h-1.5l-0.3-1.2h-0.1C173.5,87.6,172.5,88.1,171.3,88.1z
				 M171.9,86.5c0.8,0,1.4-0.2,1.8-0.7c0.4-0.5,0.6-1.2,0.6-2.2v-0.3c0-1.2-0.2-2-0.6-2.5c-0.4-0.5-1-0.7-1.8-0.7
				c-0.7,0-1.2,0.3-1.6,0.8c-0.4,0.6-0.6,1.3-0.6,2.4c0,1,0.2,1.8,0.5,2.3C170.6,86.2,171.1,86.5,171.9,86.5z"/>
			<path fill="#006838" d="M189.2,86.5c0.5,0,1-0.1,1.4-0.2v1.5c-0.2,0.1-0.5,0.2-0.8,0.2c-0.3,0.1-0.7,0.1-1.1,0.1
				c-1.8,0-2.8-1-2.8-2.9v-4.9h-1.3v-0.9l1.3-0.7l0.7-1.9h1.2v2h2.6v1.5h-2.6v4.9c0,0.5,0.1,0.8,0.4,1
				C188.5,86.4,188.8,86.5,189.2,86.5z"/>
			<path fill="#006838" d="M201.9,83.3c0,1.5-0.4,2.7-1.2,3.5s-1.8,1.3-3.2,1.3c-0.9,0-1.6-0.2-2.3-0.6c-0.7-0.4-1.2-0.9-1.5-1.7
				s-0.5-1.6-0.5-2.5c0-1.5,0.4-2.7,1.1-3.5s1.8-1.3,3.2-1.3c1.3,0,2.4,0.4,3.2,1.3C201.5,80.7,201.9,81.9,201.9,83.3z M195.2,83.3
				c0,2.1,0.8,3.2,2.3,3.2c1.5,0,2.3-1.1,2.3-3.2c0-2.1-0.8-3.1-2.3-3.1c-0.8,0-1.4,0.3-1.8,0.8S195.2,82.3,195.2,83.3z"/>
			<path fill="#006838" d="M214.5,86.5c0.5,0,1-0.1,1.4-0.2v1.5c-0.2,0.1-0.5,0.2-0.8,0.2c-0.3,0.1-0.7,0.1-1.1,0.1
				c-1.8,0-2.8-1-2.8-2.9v-4.9H210v-0.9l1.3-0.7l0.7-1.9h1.2v2h2.6v1.5h-2.6v4.9c0,0.5,0.1,0.8,0.4,1
				C213.8,86.4,214.1,86.5,214.5,86.5z"/>
			<path fill="#006838" d="M227.1,87.9h-2v-5.6c0-0.7-0.1-1.2-0.4-1.6s-0.7-0.5-1.4-0.5c-0.8,0-1.4,0.2-1.8,0.7
				c-0.4,0.5-0.6,1.3-0.6,2.5v4.6h-2V75h2v3.3c0,0.5,0,1.1-0.1,1.7h0.1c0.3-0.4,0.6-0.8,1.1-1c0.5-0.2,1-0.4,1.7-0.4
				c2.2,0,3.3,1.1,3.3,3.4V87.9z"/>
			<path fill="#006838" d="M235.1,88.1c-1.4,0-2.5-0.4-3.3-1.2c-0.8-0.8-1.2-2-1.2-3.4c0-1.5,0.4-2.7,1.1-3.5
				c0.7-0.9,1.8-1.3,3.1-1.3c1.2,0,2.2,0.4,2.9,1.1s1.1,1.7,1.1,3v1.1h-6.1c0,0.9,0.3,1.6,0.7,2.1c0.5,0.5,1.1,0.7,1.9,0.7
				c0.5,0,1-0.1,1.5-0.2c0.5-0.1,1-0.3,1.5-0.5v1.6c-0.5,0.2-1,0.4-1.4,0.5S235.8,88.1,235.1,88.1z M234.8,80
				c-0.6,0-1.1,0.2-1.5,0.6c-0.4,0.4-0.6,1-0.7,1.7h4.2c0-0.8-0.2-1.3-0.5-1.7C235.9,80.2,235.4,80,234.8,80z"/>
			<path fill="#006838" d="M250.1,87.9h-2V75.8h6.8v1.7h-4.9v3.8h4.6v1.7h-4.6V87.9z"/>
			<path fill="#006838" d="M260.4,83.1v4.8h-2V75.8h3.4c1.6,0,2.7,0.3,3.5,0.9c0.8,0.6,1.1,1.5,1.1,2.7c0,1.5-0.8,2.6-2.4,3.2
				l3.4,5.4h-2.3l-2.9-4.8H260.4z M260.4,81.4h1.4c0.9,0,1.6-0.2,2-0.5s0.6-0.9,0.6-1.5c0-0.7-0.2-1.2-0.7-1.5s-1.1-0.4-2-0.4h-1.3
				V81.4z"/>
			<path fill="#006838" d="M277.4,87.9h-6.9V75.8h6.9v1.7h-4.9v3.3h4.6v1.7h-4.6v3.8h4.9V87.9z"/>
			<path fill="#006838" d="M288.2,87.9h-6.9V75.8h6.9v1.7h-4.9v3.3h4.6v1.7h-4.6v3.8h4.9V87.9z"/>
			<path fill="#006838" d="M34.5,108.3l-1.2-4.3c-0.1-0.5-0.4-1.5-0.8-3.2h-0.1c-0.3,1.5-0.6,2.6-0.8,3.2l-1.2,4.3h-2.2l-2.6-9.2h2
				l1.2,4.5c0.3,1.1,0.5,2.1,0.6,2.9h0.1c0.1-0.4,0.1-0.9,0.3-1.4c0.1-0.5,0.2-0.9,0.3-1.2l1.4-4.8h2.1l1.4,4.8
				c0.1,0.3,0.2,0.7,0.3,1.2c0.1,0.6,0.2,1,0.2,1.3h0.1c0.1-0.7,0.3-1.6,0.6-2.9l1.2-4.5h2l-2.6,9.2H34.5z"/>
			<path fill="#006838" d="M42,96.7c0-0.3,0.1-0.6,0.3-0.8c0.2-0.2,0.5-0.3,0.8-0.3c0.3,0,0.6,0.1,0.8,0.3c0.2,0.2,0.3,0.5,0.3,0.8
				c0,0.3-0.1,0.6-0.3,0.8c-0.2,0.2-0.5,0.3-0.8,0.3c-0.4,0-0.6-0.1-0.8-0.3C42.1,97.3,42,97,42,96.7z M44.1,108.3h-2v-9.2h2V108.3z
				"/>
			<path fill="#006838" d="M52.7,100.6h-2.2v7.7h-2v-7.7H47v-0.9l1.5-0.6v-0.6c0-1.1,0.3-1.9,0.8-2.4c0.5-0.5,1.3-0.8,2.3-0.8
				c0.7,0,1.4,0.1,2,0.3l-0.5,1.5c-0.5-0.2-0.9-0.2-1.4-0.2c-0.4,0-0.8,0.1-1,0.4c-0.2,0.3-0.3,0.7-0.3,1.2v0.6h2.2V100.6z
				 M54.2,96.7c0-0.3,0.1-0.6,0.3-0.8c0.2-0.2,0.5-0.3,0.8-0.3c0.3,0,0.6,0.1,0.8,0.3c0.2,0.2,0.3,0.5,0.3,0.8
				c0,0.3-0.1,0.6-0.3,0.8c-0.2,0.2-0.5,0.3-0.8,0.3c-0.4,0-0.6-0.1-0.8-0.3C54.3,97.3,54.2,97,54.2,96.7z M56.2,108.3h-2v-9.2h2
				V108.3z"/>
			<path fill="#006838" d="M69.4,106.9c0.5,0,1-0.1,1.4-0.2v1.5c-0.2,0.1-0.5,0.2-0.8,0.2c-0.3,0.1-0.7,0.1-1.1,0.1
				c-1.8,0-2.8-1-2.8-2.9v-4.9h-1.3v-0.9l1.3-0.7l0.7-1.9h1.2v2h2.6v1.5h-2.6v4.9c0,0.5,0.1,0.8,0.4,1
				C68.7,106.8,69.1,106.9,69.4,106.9z"/>
			<path fill="#006838" d="M82,108.3h-2v-5.6c0-0.7-0.1-1.2-0.4-1.6s-0.7-0.5-1.4-0.5c-0.8,0-1.4,0.2-1.8,0.7
				c-0.4,0.5-0.6,1.3-0.6,2.5v4.6h-2V95.4h2v3.3c0,0.5,0,1.1-0.1,1.7h0.1c0.3-0.4,0.6-0.8,1.1-1c0.5-0.2,1-0.4,1.7-0.4
				c2.2,0,3.3,1.1,3.3,3.4V108.3z"/>
			<path fill="#006838" d="M91.8,108.3l-0.4-1.3h-0.1c-0.4,0.6-0.9,0.9-1.3,1.1c-0.4,0.2-1,0.3-1.7,0.3c-0.9,0-1.6-0.2-2.1-0.7
				c-0.5-0.5-0.8-1.2-0.8-2.1c0-0.9,0.4-1.7,1.1-2.1c0.7-0.5,1.8-0.7,3.2-0.8l1.6,0v-0.5c0-0.6-0.1-1-0.4-1.3
				c-0.3-0.3-0.7-0.4-1.3-0.4c-0.5,0-0.9,0.1-1.4,0.2s-0.8,0.3-1.2,0.5l-0.6-1.4c0.5-0.3,1-0.5,1.6-0.6c0.6-0.1,1.2-0.2,1.7-0.2
				c1.2,0,2,0.3,2.6,0.8s0.9,1.3,0.9,2.4v6.2H91.8z M88.9,107c0.7,0,1.3-0.2,1.7-0.6c0.4-0.4,0.6-1,0.6-1.7v-0.8l-1.2,0
				c-0.9,0-1.6,0.2-2,0.5c-0.4,0.3-0.6,0.7-0.6,1.3c0,0.4,0.1,0.7,0.4,1C88,106.9,88.4,107,88.9,107z"/>
			<path fill="#006838" d="M100.6,106.9c0.5,0,1-0.1,1.4-0.2v1.5c-0.2,0.1-0.5,0.2-0.8,0.2c-0.3,0.1-0.7,0.1-1.1,0.1
				c-1.8,0-2.8-1-2.8-2.9v-4.9h-1.3v-0.9l1.3-0.7l0.7-1.9h1.2v2h2.6v1.5h-2.6v4.9c0,0.5,0.1,0.8,0.4,1
				C99.9,106.8,100.2,106.9,100.6,106.9z"/>
			<path fill="#006838" d="M110.7,96.7c0-0.3,0.1-0.6,0.3-0.8c0.2-0.2,0.5-0.3,0.8-0.3c0.3,0,0.6,0.1,0.8,0.3
				c0.2,0.2,0.3,0.5,0.3,0.8c0,0.3-0.1,0.6-0.3,0.8c-0.2,0.2-0.5,0.3-0.8,0.3c-0.4,0-0.6-0.1-0.8-0.3
				C110.8,97.3,110.7,97,110.7,96.7z M112.8,108.3h-2v-9.2h2V108.3z"/>
			<path fill="#006838" d="M123,105.7c0,0.9-0.3,1.6-1,2.1c-0.7,0.5-1.6,0.7-2.8,0.7c-1.2,0-2.2-0.2-2.9-0.6v-1.7
				c1.1,0.5,2.1,0.7,3,0.7c1.2,0,1.8-0.4,1.8-1.1c0-0.2-0.1-0.4-0.2-0.6s-0.4-0.3-0.7-0.5c-0.3-0.2-0.7-0.4-1.3-0.6
				c-1.1-0.4-1.8-0.8-2.1-1.2c-0.4-0.4-0.6-0.9-0.6-1.6c0-0.8,0.3-1.4,1-1.8c0.6-0.4,1.5-0.7,2.6-0.7c1.1,0,2.1,0.2,3.1,0.7
				l-0.6,1.5c-1-0.4-1.8-0.6-2.5-0.6c-1,0-1.5,0.3-1.5,0.9c0,0.3,0.1,0.5,0.4,0.7s0.9,0.5,1.8,0.8c0.8,0.3,1.3,0.6,1.7,0.8
				c0.3,0.2,0.6,0.5,0.8,0.8C122.9,104.9,123,105.3,123,105.7z"/>
			<path fill="#006838" d="M137.8,108.3l-0.4-1.3h-0.1c-0.4,0.6-0.9,0.9-1.3,1.1c-0.4,0.2-1,0.3-1.7,0.3c-0.9,0-1.6-0.2-2.1-0.7
				c-0.5-0.5-0.8-1.2-0.8-2.1c0-0.9,0.4-1.7,1.1-2.1c0.7-0.5,1.8-0.7,3.2-0.8l1.6,0v-0.5c0-0.6-0.1-1-0.4-1.3
				c-0.3-0.3-0.7-0.4-1.3-0.4c-0.5,0-0.9,0.1-1.4,0.2s-0.8,0.3-1.2,0.5l-0.6-1.4c0.5-0.3,1-0.5,1.6-0.6c0.6-0.1,1.2-0.2,1.7-0.2
				c1.2,0,2,0.3,2.6,0.8s0.9,1.3,0.9,2.4v6.2H137.8z M134.9,107c0.7,0,1.3-0.2,1.7-0.6c0.4-0.4,0.6-1,0.6-1.7v-0.8l-1.2,0
				c-0.9,0-1.6,0.2-2,0.5c-0.4,0.3-0.6,0.7-0.6,1.3c0,0.4,0.1,0.7,0.4,1C134.1,106.9,134.4,107,134.9,107z"/>
			<path fill="#006838" d="M146.9,108.5c-1.4,0-2.4-0.4-3.2-1.2c-0.7-0.8-1.1-2-1.1-3.5c0-1.5,0.4-2.7,1.1-3.6
				c0.8-0.8,1.8-1.2,3.3-1.2c1,0,1.8,0.2,2.6,0.5l-0.6,1.6c-0.8-0.3-1.5-0.5-2-0.5c-1.6,0-2.4,1.1-2.4,3.2c0,1,0.2,1.8,0.6,2.3
				c0.4,0.5,1,0.8,1.7,0.8c0.9,0,1.7-0.2,2.5-0.6v1.7c-0.3,0.2-0.7,0.4-1.1,0.4S147.5,108.5,146.9,108.5z"/>
			<path fill="#006838" d="M156.6,108.5c-1.4,0-2.4-0.4-3.2-1.2c-0.7-0.8-1.1-2-1.1-3.5c0-1.5,0.4-2.7,1.1-3.6
				c0.8-0.8,1.8-1.2,3.3-1.2c1,0,1.8,0.2,2.6,0.5l-0.6,1.6c-0.8-0.3-1.5-0.5-2-0.5c-1.6,0-2.4,1.1-2.4,3.2c0,1,0.2,1.8,0.6,2.3
				c0.4,0.5,1,0.8,1.7,0.8c0.9,0,1.7-0.2,2.5-0.6v1.7c-0.3,0.2-0.7,0.4-1.1,0.4S157.2,108.5,156.6,108.5z"/>
			<path fill="#006838" d="M166.6,108.5c-1.4,0-2.5-0.4-3.3-1.2c-0.8-0.8-1.2-2-1.2-3.4c0-1.5,0.4-2.7,1.1-3.5
				c0.7-0.9,1.8-1.3,3.1-1.3c1.2,0,2.2,0.4,2.9,1.1s1.1,1.7,1.1,3v1.1h-6.1c0,0.9,0.3,1.6,0.7,2.1c0.5,0.5,1.1,0.7,1.9,0.7
				c0.5,0,1-0.1,1.5-0.2c0.5-0.1,1-0.3,1.5-0.5v1.6c-0.5,0.2-1,0.4-1.4,0.5S167.2,108.5,166.6,108.5z M166.2,100.4
				c-0.6,0-1.1,0.2-1.5,0.6c-0.4,0.4-0.6,1-0.7,1.7h4.2c0-0.8-0.2-1.3-0.5-1.7C167.4,100.6,166.9,100.4,166.2,100.4z"/>
			<path fill="#006838" d="M179.8,105.7c0,0.9-0.3,1.6-1,2.1c-0.7,0.5-1.6,0.7-2.8,0.7c-1.2,0-2.2-0.2-2.9-0.6v-1.7
				c1.1,0.5,2.1,0.7,3,0.7c1.2,0,1.8-0.4,1.8-1.1c0-0.2-0.1-0.4-0.2-0.6s-0.4-0.3-0.7-0.5c-0.3-0.2-0.7-0.4-1.3-0.6
				c-1.1-0.4-1.8-0.8-2.1-1.2c-0.4-0.4-0.6-0.9-0.6-1.6c0-0.8,0.3-1.4,1-1.8c0.6-0.4,1.5-0.7,2.6-0.7c1.1,0,2.1,0.2,3.1,0.7
				l-0.6,1.5c-1-0.4-1.8-0.6-2.5-0.6c-1,0-1.5,0.3-1.5,0.9c0,0.3,0.1,0.5,0.4,0.7s0.9,0.5,1.8,0.8c0.8,0.3,1.3,0.6,1.7,0.8
				c0.3,0.2,0.6,0.5,0.8,0.8C179.8,104.9,179.8,105.3,179.8,105.7z"/>
			<path fill="#006838" d="M189.4,105.7c0,0.9-0.3,1.6-1,2.1c-0.7,0.5-1.6,0.7-2.8,0.7c-1.2,0-2.2-0.2-2.9-0.6v-1.7
				c1.1,0.5,2.1,0.7,3,0.7c1.2,0,1.8-0.4,1.8-1.1c0-0.2-0.1-0.4-0.2-0.6s-0.4-0.3-0.7-0.5c-0.3-0.2-0.7-0.4-1.3-0.6
				c-1.1-0.4-1.8-0.8-2.1-1.2c-0.4-0.4-0.6-0.9-0.6-1.6c0-0.8,0.3-1.4,1-1.8c0.6-0.4,1.5-0.7,2.6-0.7c1.1,0,2.1,0.2,3.1,0.7
				l-0.6,1.5c-1-0.4-1.8-0.6-2.5-0.6c-1,0-1.5,0.3-1.5,0.9c0,0.3,0.1,0.5,0.4,0.7s0.9,0.5,1.8,0.8c0.8,0.3,1.3,0.6,1.7,0.8
				c0.3,0.2,0.6,0.5,0.8,0.8C189.3,104.9,189.4,105.3,189.4,105.7z"/>
			<path fill="#006838" d="M192.7,96.7c0-0.3,0.1-0.6,0.3-0.8c0.2-0.2,0.5-0.3,0.8-0.3c0.3,0,0.6,0.1,0.8,0.3
				c0.2,0.2,0.3,0.5,0.3,0.8c0,0.3-0.1,0.6-0.3,0.8c-0.2,0.2-0.5,0.3-0.8,0.3c-0.4,0-0.6-0.1-0.8-0.3
				C192.7,97.3,192.7,97,192.7,96.7z M194.7,108.3h-2v-9.2h2V108.3z"/>
			<path fill="#006838" d="M203.5,99c1.1,0,2,0.4,2.7,1.2c0.6,0.8,1,2,1,3.5c0,1.5-0.3,2.7-1,3.5c-0.6,0.8-1.5,1.3-2.7,1.3
				c-1.2,0-2.1-0.4-2.7-1.3h-0.1l-0.4,1.1h-1.5V95.4h2v3.1c0,0.2,0,0.6,0,1c0,0.4,0,0.7-0.1,0.9h0.1C201.4,99.4,202.3,99,203.5,99z
				 M203,100.6c-0.8,0-1.4,0.2-1.7,0.7c-0.3,0.5-0.5,1.2-0.5,2.3v0.1c0,1.1,0.2,1.9,0.5,2.4c0.4,0.5,0.9,0.8,1.7,0.8
				c0.7,0,1.2-0.3,1.6-0.8c0.4-0.5,0.5-1.3,0.5-2.4C205.1,101.6,204.4,100.6,203,100.6z"/>
			<path fill="#006838" d="M212.6,108.3h-2V95.4h2V108.3z"/>
			<path fill="#006838" d="M220.7,108.5c-1.4,0-2.5-0.4-3.3-1.2c-0.8-0.8-1.2-2-1.2-3.4c0-1.5,0.4-2.7,1.1-3.5
				c0.7-0.9,1.8-1.3,3.1-1.3c1.2,0,2.2,0.4,2.9,1.1s1.1,1.7,1.1,3v1.1h-6.1c0,0.9,0.3,1.6,0.7,2.1c0.5,0.5,1.1,0.7,1.9,0.7
				c0.5,0,1-0.1,1.5-0.2c0.5-0.1,1-0.3,1.5-0.5v1.6c-0.5,0.2-1,0.4-1.4,0.5S221.3,108.5,220.7,108.5z M220.3,100.4
				c-0.6,0-1.1,0.2-1.5,0.6c-0.4,0.4-0.6,1-0.7,1.7h4.2c0-0.8-0.2-1.3-0.5-1.7C221.4,100.6,220.9,100.4,220.3,100.4z"/>
			<path fill="#006838" d="M239.6,105.7c0,0.9-0.3,1.6-1,2.1c-0.7,0.5-1.6,0.7-2.8,0.7c-1.2,0-2.2-0.2-2.9-0.6v-1.7
				c1.1,0.5,2.1,0.7,3,0.7c1.2,0,1.8-0.4,1.8-1.1c0-0.2-0.1-0.4-0.2-0.6s-0.4-0.3-0.7-0.5c-0.3-0.2-0.7-0.4-1.3-0.6
				c-1.1-0.4-1.8-0.8-2.1-1.2c-0.4-0.4-0.6-0.9-0.6-1.6c0-0.8,0.3-1.4,1-1.8c0.6-0.4,1.5-0.7,2.6-0.7c1.1,0,2.1,0.2,3.1,0.7
				l-0.6,1.5c-1-0.4-1.8-0.6-2.5-0.6c-1,0-1.5,0.3-1.5,0.9c0,0.3,0.1,0.5,0.4,0.7s0.9,0.5,1.8,0.8c0.8,0.3,1.3,0.6,1.7,0.8
				c0.3,0.2,0.6,0.5,0.8,0.8C239.5,104.9,239.6,105.3,239.6,105.7z"/>
			<path fill="#006838" d="M246.4,106.9c0.5,0,1-0.1,1.4-0.2v1.5c-0.2,0.1-0.5,0.2-0.8,0.2c-0.3,0.1-0.7,0.1-1.1,0.1
				c-1.8,0-2.8-1-2.8-2.9v-4.9h-1.3v-0.9l1.3-0.7l0.7-1.9h1.2v2h2.6v1.5h-2.6v4.9c0,0.5,0.1,0.8,0.4,1
				C245.7,106.8,246,106.9,246.4,106.9z"/>
			<path fill="#006838" d="M256.7,108.3l-0.4-1.3h-0.1c-0.4,0.6-0.9,0.9-1.3,1.1c-0.4,0.2-1,0.3-1.7,0.3c-0.9,0-1.6-0.2-2.1-0.7
				c-0.5-0.5-0.8-1.2-0.8-2.1c0-0.9,0.4-1.7,1.1-2.1c0.7-0.5,1.8-0.7,3.2-0.8l1.6,0v-0.5c0-0.6-0.1-1-0.4-1.3
				c-0.3-0.3-0.7-0.4-1.3-0.4c-0.5,0-0.9,0.1-1.4,0.2s-0.8,0.3-1.2,0.5l-0.6-1.4c0.5-0.3,1-0.5,1.6-0.6c0.6-0.1,1.2-0.2,1.7-0.2
				c1.2,0,2,0.3,2.6,0.8s0.9,1.3,0.9,2.4v6.2H256.7z M253.8,107c0.7,0,1.3-0.2,1.7-0.6c0.4-0.4,0.6-1,0.6-1.7v-0.8l-1.2,0
				c-0.9,0-1.6,0.2-2,0.5c-0.4,0.3-0.6,0.7-0.6,1.3c0,0.4,0.1,0.7,0.4,1C252.9,106.9,253.3,107,253.8,107z"/>
			<path fill="#006838" d="M265.5,106.9c0.5,0,1-0.1,1.4-0.2v1.5c-0.2,0.1-0.5,0.2-0.8,0.2c-0.3,0.1-0.7,0.1-1.1,0.1
				c-1.8,0-2.8-1-2.8-2.9v-4.9H261v-0.9l1.3-0.7l0.7-1.9h1.2v2h2.6v1.5h-2.6v4.9c0,0.5,0.1,0.8,0.4,1
				C264.8,106.8,265.1,106.9,265.5,106.9z"/>
			<path fill="#006838" d="M269.9,96.7c0-0.3,0.1-0.6,0.3-0.8c0.2-0.2,0.5-0.3,0.8-0.3c0.3,0,0.6,0.1,0.8,0.3
				c0.2,0.2,0.3,0.5,0.3,0.8c0,0.3-0.1,0.6-0.3,0.8c-0.2,0.2-0.5,0.3-0.8,0.3c-0.4,0-0.6-0.1-0.8-0.3C270,97.3,269.9,97,269.9,96.7z
				 M272,108.3h-2v-9.2h2V108.3z"/>
			<path fill="#006838" d="M284.2,103.7c0,1.5-0.4,2.7-1.2,3.5s-1.8,1.3-3.2,1.3c-0.9,0-1.6-0.2-2.3-0.6c-0.7-0.4-1.2-0.9-1.5-1.7
				s-0.5-1.6-0.5-2.5c0-1.5,0.4-2.7,1.1-3.5s1.8-1.3,3.2-1.3c1.3,0,2.4,0.4,3.2,1.3C283.8,101.1,284.2,102.3,284.2,103.7z
				 M277.5,103.7c0,2.1,0.8,3.2,2.3,3.2c1.5,0,2.3-1.1,2.3-3.2c0-2.1-0.8-3.1-2.3-3.1c-0.8,0-1.4,0.3-1.8,0.8
				S277.5,102.7,277.5,103.7z"/>
			<path fill="#006838" d="M295.8,108.3h-2v-5.6c0-0.7-0.1-1.2-0.4-1.6s-0.7-0.5-1.4-0.5c-0.8,0-1.4,0.2-1.8,0.7s-0.6,1.3-0.6,2.4
				v4.6h-2v-9.2h1.5l0.3,1.2h0.1c0.3-0.4,0.7-0.8,1.2-1c0.5-0.2,1.1-0.4,1.7-0.4c2.2,0,3.3,1.1,3.3,3.4V108.3z"/>
			<path fill="#006838" d="M34.5,128.7l-1.2-4.3c-0.1-0.5-0.4-1.5-0.8-3.2h-0.1c-0.3,1.5-0.6,2.6-0.8,3.2l-1.2,4.3h-2.2l-2.6-9.2h2
				l1.2,4.5c0.3,1.1,0.5,2.1,0.6,2.9h0.1c0.1-0.4,0.1-0.9,0.3-1.4c0.1-0.5,0.2-0.9,0.3-1.2l1.4-4.8h2.1l1.4,4.8
				c0.1,0.3,0.2,0.7,0.3,1.2c0.1,0.6,0.2,1,0.2,1.3h0.1c0.1-0.7,0.3-1.6,0.6-2.9l1.2-4.5h2l-2.6,9.2H34.5z"/>
			<path fill="#006838" d="M42,117.1c0-0.3,0.1-0.6,0.3-0.8c0.2-0.2,0.5-0.3,0.8-0.3c0.3,0,0.6,0.1,0.8,0.3c0.2,0.2,0.3,0.5,0.3,0.8
				c0,0.3-0.1,0.6-0.3,0.8c-0.2,0.2-0.5,0.3-0.8,0.3c-0.4,0-0.6-0.1-0.8-0.3C42.1,117.7,42,117.4,42,117.1z M44.1,128.7h-2v-9.2h2
				V128.7z"/>
			<path fill="#006838" d="M51.2,128.9c-1.1,0-2-0.4-2.7-1.2c-0.6-0.8-1-2-1-3.5c0-1.5,0.3-2.7,1-3.5c0.7-0.8,1.6-1.3,2.7-1.3
				c1.2,0,2.1,0.4,2.8,1.3h0.1c-0.1-0.7-0.1-1.2-0.1-1.6v-3.3h2v12.9h-1.5l-0.3-1.2H54C53.3,128.4,52.4,128.9,51.2,128.9z
				 M51.8,127.3c0.8,0,1.4-0.2,1.8-0.7c0.4-0.5,0.6-1.2,0.6-2.2v-0.3c0-1.2-0.2-2-0.6-2.5c-0.4-0.5-1-0.7-1.8-0.7
				c-0.7,0-1.2,0.3-1.6,0.8c-0.4,0.6-0.6,1.3-0.6,2.4c0,1,0.2,1.8,0.5,2.3C50.5,127,51,127.3,51.8,127.3z"/>
			<path fill="#006838" d="M64,128.9c-1.4,0-2.5-0.4-3.3-1.2c-0.8-0.8-1.2-2-1.2-3.4c0-1.5,0.4-2.7,1.1-3.5c0.7-0.9,1.8-1.3,3.1-1.3
				c1.2,0,2.2,0.4,2.9,1.1s1.1,1.7,1.1,3v1.1h-6.1c0,0.9,0.3,1.6,0.7,2.1c0.5,0.5,1.1,0.7,1.9,0.7c0.5,0,1-0.1,1.5-0.2
				c0.5-0.1,1-0.3,1.5-0.5v1.6c-0.5,0.2-1,0.4-1.4,0.5S64.6,128.9,64,128.9z M63.7,120.8c-0.6,0-1.1,0.2-1.5,0.6
				c-0.4,0.4-0.6,1-0.7,1.7h4.2c0-0.8-0.2-1.3-0.5-1.7C64.8,121,64.3,120.8,63.7,120.8z"/>
			<path fill="#006838" d="M82.5,128.7l-0.4-1.3H82c-0.4,0.6-0.9,0.9-1.3,1.1c-0.4,0.2-1,0.3-1.7,0.3c-0.9,0-1.6-0.2-2.1-0.7
				c-0.5-0.5-0.8-1.2-0.8-2.1c0-0.9,0.4-1.7,1.1-2.1c0.7-0.5,1.8-0.7,3.2-0.8l1.6,0v-0.5c0-0.6-0.1-1-0.4-1.3
				c-0.3-0.3-0.7-0.4-1.3-0.4c-0.5,0-0.9,0.1-1.4,0.2s-0.8,0.3-1.2,0.5l-0.6-1.4c0.5-0.3,1-0.5,1.6-0.6c0.6-0.1,1.2-0.2,1.7-0.2
				c1.2,0,2,0.3,2.6,0.8s0.9,1.3,0.9,2.4v6.2H82.5z M79.6,127.4c0.7,0,1.3-0.2,1.7-0.6c0.4-0.4,0.6-1,0.6-1.7v-0.8l-1.2,0
				c-0.9,0-1.6,0.2-2,0.5c-0.4,0.3-0.6,0.7-0.6,1.3c0,0.4,0.1,0.7,0.4,1C78.7,127.3,79.1,127.4,79.6,127.4z"/>
			<path fill="#006838" d="M96,128.7h-2v-5.6c0-0.7-0.1-1.2-0.4-1.6s-0.7-0.5-1.4-0.5c-0.8,0-1.4,0.2-1.8,0.7s-0.6,1.3-0.6,2.4v4.6
				h-2v-9.2h1.5l0.3,1.2h0.1c0.3-0.4,0.7-0.8,1.2-1c0.5-0.2,1.1-0.4,1.7-0.4c2.2,0,3.3,1.1,3.3,3.4V128.7z"/>
			<path fill="#006838" d="M103.1,128.9c-1.1,0-2-0.4-2.7-1.2c-0.6-0.8-1-2-1-3.5c0-1.5,0.3-2.7,1-3.5c0.7-0.8,1.6-1.3,2.7-1.3
				c1.2,0,2.1,0.4,2.8,1.3h0.1c-0.1-0.7-0.1-1.2-0.1-1.6v-3.3h2v12.9h-1.5l-0.3-1.2h-0.1C105.2,128.4,104.3,128.9,103.1,128.9z
				 M103.6,127.3c0.8,0,1.4-0.2,1.8-0.7c0.4-0.5,0.6-1.2,0.6-2.2v-0.3c0-1.2-0.2-2-0.6-2.5c-0.4-0.5-1-0.7-1.8-0.7
				c-0.7,0-1.2,0.3-1.6,0.8c-0.4,0.6-0.6,1.3-0.6,2.4c0,1,0.2,1.8,0.5,2.3C102.3,127,102.9,127.3,103.6,127.3z"/>
			<path fill="#006838" d="M125.7,124.1c0,1.5-0.4,2.7-1.2,3.5c-0.8,0.8-1.8,1.3-3.2,1.3c-0.9,0-1.6-0.2-2.3-0.6
				c-0.7-0.4-1.2-0.9-1.5-1.7s-0.5-1.6-0.5-2.5c0-1.5,0.4-2.7,1.1-3.5s1.8-1.3,3.2-1.3c1.3,0,2.4,0.4,3.2,1.3
				C125.3,121.5,125.7,122.7,125.7,124.1z M119,124.1c0,2.1,0.8,3.2,2.3,3.2c1.5,0,2.3-1.1,2.3-3.2c0-2.1-0.8-3.1-2.3-3.1
				c-0.8,0-1.4,0.3-1.8,0.8S119,123.1,119,124.1z"/>
			<path fill="#006838" d="M137.3,128.7h-2v-5.6c0-0.7-0.1-1.2-0.4-1.6s-0.7-0.5-1.4-0.5c-0.8,0-1.4,0.2-1.8,0.7s-0.6,1.3-0.6,2.4
				v4.6h-2v-9.2h1.5l0.3,1.2h0.1c0.3-0.4,0.7-0.8,1.2-1c0.5-0.2,1.1-0.4,1.7-0.4c2.2,0,3.3,1.1,3.3,3.4V128.7z"/>
			<path fill="#006838" d="M152.7,128.7l-0.4-1.3h-0.1c-0.4,0.6-0.9,0.9-1.3,1.1c-0.4,0.2-1,0.3-1.7,0.3c-0.9,0-1.6-0.2-2.1-0.7
				c-0.5-0.5-0.8-1.2-0.8-2.1c0-0.9,0.4-1.7,1.1-2.1c0.7-0.5,1.8-0.7,3.2-0.8l1.6,0v-0.5c0-0.6-0.1-1-0.4-1.3
				c-0.3-0.3-0.7-0.4-1.3-0.4c-0.5,0-0.9,0.1-1.4,0.2s-0.8,0.3-1.2,0.5l-0.6-1.4c0.5-0.3,1-0.5,1.6-0.6c0.6-0.1,1.2-0.2,1.7-0.2
				c1.2,0,2,0.3,2.6,0.8s0.9,1.3,0.9,2.4v6.2H152.7z M149.8,127.4c0.7,0,1.3-0.2,1.7-0.6c0.4-0.4,0.6-1,0.6-1.7v-0.8l-1.2,0
				c-0.9,0-1.6,0.2-2,0.5c-0.4,0.3-0.6,0.7-0.6,1.3c0,0.4,0.1,0.7,0.4,1C148.9,127.3,149.3,127.4,149.8,127.4z"/>
			<path fill="#006838" d="M160,128.7h-2v-12.9h2V128.7z"/>
			<path fill="#006838" d="M166,128.7h-2v-12.9h2V128.7z"/>
			<path fill="#006838" d="M180.4,128.9c-1.2,0-2.1-0.4-2.7-1.3h-0.1c0.1,0.8,0.1,1.2,0.1,1.4v3.8h-2v-13.3h1.6
				c0,0.2,0.1,0.6,0.3,1.2h0.1c0.6-0.9,1.5-1.4,2.7-1.4c1.1,0,2,0.4,2.7,1.2c0.6,0.8,1,2,1,3.5s-0.3,2.7-1,3.5
				C182.5,128.5,181.6,128.9,180.4,128.9z M180,121c-0.8,0-1.3,0.2-1.7,0.7c-0.4,0.5-0.5,1.2-0.5,2.2v0.3c0,1.1,0.2,1.9,0.5,2.4
				c0.4,0.5,0.9,0.8,1.7,0.8c0.7,0,1.2-0.3,1.6-0.8s0.5-1.3,0.5-2.4c0-1-0.2-1.8-0.5-2.3C181.2,121.2,180.7,121,180,121z"/>
			<path fill="#006838" d="M189.6,128.7h-2v-12.9h2V128.7z"/>
			<path fill="#006838" d="M199.4,128.7l-0.4-1.3H199c-0.4,0.6-0.9,0.9-1.3,1.1c-0.4,0.2-1,0.3-1.7,0.3c-0.9,0-1.6-0.2-2.1-0.7
				c-0.5-0.5-0.8-1.2-0.8-2.1c0-0.9,0.4-1.7,1.1-2.1c0.7-0.5,1.8-0.7,3.2-0.8l1.6,0v-0.5c0-0.6-0.1-1-0.4-1.3
				c-0.3-0.3-0.7-0.4-1.3-0.4c-0.5,0-0.9,0.1-1.4,0.2s-0.8,0.3-1.2,0.5l-0.6-1.4c0.5-0.3,1-0.5,1.6-0.6c0.6-0.1,1.2-0.2,1.7-0.2
				c1.2,0,2,0.3,2.6,0.8s0.9,1.3,0.9,2.4v6.2H199.4z M196.5,127.4c0.7,0,1.3-0.2,1.7-0.6c0.4-0.4,0.6-1,0.6-1.7v-0.8l-1.2,0
				c-0.9,0-1.6,0.2-2,0.5c-0.4,0.3-0.6,0.7-0.6,1.3c0,0.4,0.1,0.7,0.4,1C195.7,127.3,196,127.4,196.5,127.4z"/>
			<path fill="#006838" d="M208.2,127.3c0.5,0,1-0.1,1.4-0.2v1.5c-0.2,0.1-0.5,0.2-0.8,0.2c-0.3,0.1-0.7,0.1-1.1,0.1
				c-1.8,0-2.8-1-2.8-2.9V121h-1.3v-0.9l1.3-0.7l0.7-1.9h1.2v2h2.6v1.5H207v4.9c0,0.5,0.1,0.8,0.4,1
				C207.5,127.2,207.8,127.3,208.2,127.3z"/>
			<path fill="#006838" d="M217.4,121h-2.2v7.7h-2V121h-1.5v-0.9l1.5-0.6v-0.6c0-1.1,0.3-1.9,0.8-2.4c0.5-0.5,1.3-0.8,2.3-0.8
				c0.7,0,1.4,0.1,2,0.3l-0.5,1.5c-0.5-0.2-0.9-0.2-1.4-0.2c-0.4,0-0.8,0.1-1,0.4c-0.2,0.3-0.3,0.7-0.3,1.2v0.6h2.2V121z"/>
			<path fill="#006838" d="M228.4,124.1c0,1.5-0.4,2.7-1.2,3.5c-0.8,0.8-1.8,1.3-3.2,1.3c-0.9,0-1.6-0.2-2.3-0.6
				c-0.7-0.4-1.2-0.9-1.5-1.7s-0.5-1.6-0.5-2.5c0-1.5,0.4-2.7,1.1-3.5s1.8-1.3,3.2-1.3c1.3,0,2.4,0.4,3.2,1.3
				C228,121.5,228.4,122.7,228.4,124.1z M221.7,124.1c0,2.1,0.8,3.2,2.3,3.2c1.5,0,2.3-1.1,2.3-3.2c0-2.1-0.8-3.1-2.3-3.1
				c-0.8,0-1.4,0.3-1.8,0.8S221.7,123.1,221.7,124.1z"/>
			<path fill="#006838" d="M236.5,119.4c0.4,0,0.7,0,1,0.1l-0.2,1.8c-0.3-0.1-0.6-0.1-0.9-0.1c-0.8,0-1.4,0.3-1.9,0.8
				s-0.7,1.2-0.7,2v4.8h-2v-9.2h1.5l0.3,1.6h0.1c0.3-0.5,0.7-1,1.2-1.3C235.4,119.5,236,119.4,236.5,119.4z"/>
			<path fill="#006838" d="M248.2,128.7h-2v-5.7c0-0.7-0.1-1.2-0.4-1.6c-0.3-0.3-0.7-0.5-1.2-0.5c-0.8,0-1.3,0.2-1.7,0.7
				c-0.4,0.5-0.5,1.3-0.5,2.4v4.6h-2v-9.2h1.5l0.3,1.2h0.1c0.3-0.4,0.6-0.8,1.1-1s1-0.4,1.6-0.4c1.4,0,2.3,0.5,2.8,1.4h0.1
				c0.3-0.5,0.7-0.8,1.1-1.1c0.5-0.3,1.1-0.4,1.7-0.4c1.1,0,1.9,0.3,2.4,0.8s0.8,1.4,0.8,2.5v6h-2v-5.7c0-0.7-0.1-1.2-0.4-1.6
				c-0.3-0.3-0.7-0.5-1.2-0.5c-0.8,0-1.3,0.2-1.7,0.7c-0.4,0.5-0.5,1.2-0.5,2.2V128.7z"/>
			<path fill="#006838" d="M264.2,126.1c0,0.9-0.3,1.6-1,2.1c-0.7,0.5-1.6,0.7-2.8,0.7c-1.2,0-2.2-0.2-2.9-0.6v-1.7
				c1.1,0.5,2.1,0.7,3,0.7c1.2,0,1.8-0.4,1.8-1.1c0-0.2-0.1-0.4-0.2-0.6s-0.4-0.3-0.7-0.5c-0.3-0.2-0.7-0.4-1.3-0.6
				c-1.1-0.4-1.8-0.8-2.1-1.2c-0.4-0.4-0.6-0.9-0.6-1.6c0-0.8,0.3-1.4,1-1.8c0.6-0.4,1.5-0.7,2.6-0.7c1.1,0,2.1,0.2,3.1,0.7
				l-0.6,1.5c-1-0.4-1.8-0.6-2.5-0.6c-1,0-1.5,0.3-1.5,0.9c0,0.3,0.1,0.5,0.4,0.7s0.9,0.5,1.8,0.8c0.8,0.3,1.3,0.6,1.7,0.8
				c0.3,0.2,0.6,0.5,0.8,0.8C264.1,125.3,264.2,125.7,264.2,126.1z"/>
			<path fill="#006838" d="M267.3,127.7c0-0.4,0.1-0.7,0.3-0.9c0.2-0.2,0.5-0.3,0.9-0.3c0.4,0,0.7,0.1,0.9,0.3
				c0.2,0.2,0.3,0.5,0.3,0.9c0,0.4-0.1,0.7-0.3,0.9c-0.2,0.2-0.5,0.3-0.9,0.3s-0.7-0.1-0.9-0.3C267.4,128.4,267.3,128.1,267.3,127.7
				z"/>
		</g>
	</g>
</g>
</svg>
