<!-- Generator: Adobe Illustrator 18.0.0, SVG Export Plug-In  -->
<svg version="1.1"
	 xmlns="http://www.w3.org/2000/svg" xmlns:xlink="http://www.w3.org/1999/xlink" xmlns:a="http://ns.adobe.com/AdobeSVGViewerExtensions/3.0/"
	 x="0px" y="0px" width="125.6px" height="262.5px" viewBox="0 0 125.6 262.5" enable-background="new 0 0 125.6 262.5"
	 xml:space="preserve">
<defs>
</defs>
<g id="item_1_">
	<rect x="0" y="19.6" fill="#E92E2C" width="102.5" height="168.3"/>
	<rect x="0" y="190.2" fill="#E92E2C" width="102.5" height="72.3"/>
	<path fill="#FFFFFF" d="M96.7,178.8c0,2-2,3.7-4.5,3.7l0,0c-2.5,0-4.5-1.7-4.5-3.7V87c0-2,2-3.7,4.5-3.7l0,0c2.5,0,4.5,1.7,4.5,3.7
		V178.8z"/>
	<path fill="#FFFFFF" d="M96.7,255.6c0,1.2-2,2.2-4.5,2.2l0,0c-2.5,0-4.5-1-4.5-2.2v-54.8c0-1.2,2-2.2,4.5-2.2l0,0
		c2.5,0,4.5,1,4.5,2.2V255.6z"/>
	<polygon fill="#A01E21" points="0,19.6 38.3,0 125.6,0 102.5,19.6 	"/>
	<polygon fill="#771516" points="125.6,228.2 102.5,262.5 102.5,19.6 125.6,0 	"/>
</g>
</svg>
