<!-- Generator: Adobe Illustrator 18.0.0, SVG Export Plug-In  -->
<svg version="1.1"
	 xmlns="http://www.w3.org/2000/svg" xmlns:xlink="http://www.w3.org/1999/xlink" xmlns:a="http://ns.adobe.com/AdobeSVGViewerExtensions/3.0/"
	 x="0px" y="0px" width="258px" height="469.4px" viewBox="0 0 258 469.4" enable-background="new 0 0 258 469.4"
	 xml:space="preserve">
<defs>
</defs>
<g>
	<path fill="#E9C2A0" stroke="#FFFFFF" stroke-width="7.7153" stroke-miterlimit="10" d="M157.8,394.4l-6.2-71.1
		c-0.3-3.4,1.8-6.7,5.1-7.8c9.2-3,34.3-20.8,43.7-45.6l-114.5,10c0,0,27.5-76-33.1-104l-6.2-71C43.9,75.3,48.3,64,26.3,57
		C1.9,49.2,10.6,76.6,11.8,89.7c1.2,14.1,2.6,25,3.2,32.7c0.7,8.2-0.3,16.4-2.9,24.2c-7.4,22-19.9,76.5,16.3,125.6
		c2.4,3.2,3.9,7.1,4.2,11.1l15.2,182.1l114.5-10L157.8,394.4z"/>
	<path fill="#E9C2A0" stroke="#FFFFFF" stroke-width="7.7153" stroke-miterlimit="10" d="M181.3,88l55.2-27.7
		c9.1-4.6,12.8-15.8,8.2-24.9l-0.7-1.4c-4.6-9.1-15.8-12.8-24.9-8.2L164,53.5c-9.1,4.6-12.8,15.8-8.2,24.9l0.7,1.4
		C161,88.9,172.2,92.6,181.3,88z"/>
	<path fill="#E9C2A0" stroke="#FFFFFF" stroke-width="7.7153" stroke-miterlimit="10" d="M182.2,156.1l55.2-27.7
		c9.1-4.6,12.8-15.8,8.2-24.9l-0.7-1.4c-4.6-9.1-15.8-12.8-24.9-8.2l-55.2,27.7c-9.1,4.6-12.8,15.8-8.2,24.9l0.7,1.4
		C161.9,157,173.1,160.7,182.2,156.1z"/>
	<path fill="#E9C2A0" stroke="#FFFFFF" stroke-width="7.7153" stroke-miterlimit="10" d="M237.8,186.8l-20.7,1.8
		c-9.8,0.9-18.5-6.5-19.4-16.3l-0.2-2.2c-0.9-9.8,6.5-18.5,16.3-19.4l20.7-1.8c9.8-0.9,18.5,6.5,19.4,16.3l0.2,2.2
		C254.9,177.3,247.6,186,237.8,186.8z"/>
	<path fill="#E9C2A0" stroke="#FFFFFF" stroke-width="7.7153" stroke-miterlimit="10" d="M236,240.2l-20.7,1.8
		c-9.8,0.9-18.5-6.5-19.4-16.3l-0.2-2.2c-0.9-9.8,6.5-18.5,16.3-19.4l20.7-1.8c9.8-0.9,18.5,6.5,19.4,16.3l0.2,2.2
		C253.1,230.6,245.8,239.3,236,240.2z"/>
	<path fill="#3F4040" d="M213.3,272.5L68.8,285.1c-5.7,0.5-10.8-3.8-11.3-9.5L35.5,24C35,18.3,39.3,13.2,45,12.7L189.5,0
		c5.7-0.5,10.8,3.8,11.3,9.5l22,251.7C223.3,266.9,219,272,213.3,272.5z"/>
	
		<rect x="65.1" y="35.4" transform="matrix(0.9962 -8.727034e-02 8.727034e-02 0.9962 -11.5298 11.7937)" fill="#F7F7F7" width="128.1" height="204.7"/>
	<circle fill="#626464" cx="139.3" cy="258.6" r="9.9"/>
	<g>
		<path fill="#2A3A8D" d="M102.9,142.4c-0.2,2.2-0.4,4.3-0.7,6.5c-0.4,3.5-0.9,6.9-1.3,10.4c-0.1,0.9-0.2,1.8-0.4,2.6
			c0,0.2-0.2,0.4-0.4,0.5c-2.1,0.2-4.1,0.4-6.3,0.6c-2.9-8.8-5.8-17.5-8.7-26.2c2.2-0.2,4.3-0.4,6.4-0.6c1.8,6.7,3.6,13.3,5.4,20
			c0.8-6.9,1.5-13.8,2.3-20.7c2.2-0.2,4.3-0.4,6.5-0.6c1.8,6.6,3.6,13.2,5.4,19.9c0.1-1.1,0.1-2.2,0.2-3.2c0.4-4.4,0.9-8.7,1.3-13.1
			c0.1-1.2,0.3-2.4,0.4-3.7c0-0.5,0.2-0.7,0.7-0.7c1.8-0.1,3.6-0.3,5.4-0.5c-0.2,1.1-0.3,2-0.5,3c-0.6,3.6-1.2,7.2-1.8,10.9
			c-0.6,3.4-1.2,6.9-1.7,10.3c-0.1,0.9-0.3,1.8-0.4,2.6c-0.1,0.5-0.3,0.7-0.8,0.7c-1.7,0.1-3.4,0.2-5.1,0.5c-0.6,0.1-0.8-0.2-1-0.7
			c-0.7-2.6-1.5-5.1-2.2-7.7c-0.9-3.3-1.8-6.6-2.6-10c-0.1-0.3-0.1-0.6-0.2-0.9C103,142.3,103,142.4,102.9,142.4z"/>
		<path fill="#2A3A8D" d="M151.9,135.7c0.2,2,0.3,3.9,0.5,5.9c0,0.5,0.4,0.3,0.7,0.3c2.7-0.2,5.4-0.5,8.1-0.7c0.9-0.1,0.9-0.1,1,0.8
			c0.1,1.1,0.2,2.1,0.3,3.2c0,0.2,0,0.5,0,0.7c-3.2,0.3-6.3,0.6-9.6,0.8c0.3,3.6,0.6,7.2,0.9,10.8c-2.1,0.2-4,0.4-6,0.5
			c-0.8-8.9-1.6-17.8-2.3-26.7c5.4-0.5,10.8-0.9,16.3-1.4c0.1,1.6,0.3,3.2,0.4,4.9C158.7,135.1,155.4,135.4,151.9,135.7z"/>
		<path fill="#2A3A8D" d="M129.7,159.8c-1.1,0.1-2.2,0.2-3.3,0.3c-0.7,0.1-1.4,0.1-2,0.2c-0.5,0.1-0.6-0.2-0.6-0.8c0,0,0-0.1,0-0.1
			c-0.7-8.3-1.4-16.6-2.2-24.9c-0.1-0.9,0.1-1.1,0.7-1.1c1.7-0.1,3.4-0.3,5.1-0.4C128.1,141.9,128.9,150.7,129.7,159.8z"/>
		<path fill="#2A3A8D" d="M173.7,155.9c-0.8,0.1-1.5,0.1-2.3,0.2c-1,0.1-2,0.1-3,0.3c-0.5,0.1-0.6-0.2-0.7-0.8
			c-0.2-2.3-0.4-4.7-0.6-7c-0.5-6-1-12-1.6-17.9c0-0.3-0.1-0.6-0.1-1c2-0.2,3.9-0.3,5.9-0.5C172.1,138,172.9,146.9,173.7,155.9z"/>
		<path fill="#2A3A8D" d="M142.7,146.1c0.1,1.2,0.2,2.4,0.3,3.5c0,0.5-0.3,0.4-0.6,0.5c-1.9,0.2-3.8,0.3-5.7,0.5
			c-1.1,0.1-2.3,0.2-3.4,0.3c-0.4,0-0.6-0.1-0.6-0.5c-0.1-1.1-0.2-2.2-0.3-3.3C135.8,146.7,139.2,146.4,142.7,146.1z"/>
	</g>
	<g>
		<path fill="#2A3A8D" d="M127.1,179.1c0.2,2,0.3,3.9,0.5,5.8c-1.1,0.1-2.2,0.2-3.3,0.3c0-0.2,0-0.4,0-0.6c-0.4-4.5-0.8-9-1.2-13.5
			c0-0.4,0-0.6,0.5-0.7c2.2-0.4,4.5-0.8,6.8-0.5c1.4,0.2,2.6,0.8,3.3,2.2c0.9,1.9,0.3,4.1-1.6,5.2c-0.1,0.1-0.2,0.1-0.3,0.2
			c1.3,0.5,1.8,1.6,2.3,2.8c0.5,1.3,1,2.6,1.5,3.9c-0.2,0-0.3,0.1-0.5,0.1c-0.8,0.1-1.7,0.1-2.5,0.2c-0.4,0-0.5-0.1-0.6-0.4
			c-0.4-1-0.8-2.1-1.2-3.1c-0.1-0.1-0.1-0.3-0.1-0.4c-0.5-1.3-1.2-1.7-2.5-1.6C127.7,179.1,127.4,179.1,127.1,179.1z M126.5,172.6
			c0.1,1.2,0.2,2.4,0.3,3.6c0,0.1,0,0.2,0.1,0.4c0.8-0.1,1.6-0.2,2.4-0.5c0.9-0.3,1.3-1,1.3-1.9c0-0.9-0.4-1.6-1.2-1.8
			C128.5,172.2,127.5,172.4,126.5,172.6z"/>
		<path fill="#2A3A8D" d="M139.6,171.8c0.1,1,0.2,2,0.3,3c0.2,0,0.4,0,0.6,0c1.5-0.1,2.9-0.2,4.4-0.4c0.4,0,0.5,0,0.5,0.4
			c0,0.8,0.1,1.5,0.2,2.3c-1.8,0.2-3.6,0.3-5.4,0.5c0.1,1.2,0.2,2.3,0.3,3.5c2-0.2,4-0.4,6.1-0.5c0.1,0.9,0.2,1.7,0.2,2.5
			c0,0.1-0.2,0.3-0.4,0.3c-0.8,0.1-1.7,0.2-2.5,0.2c-2,0.2-3.9,0.3-5.9,0.5c-0.2,0-0.4,0-0.7,0.1c-0.4-5-0.9-9.9-1.3-14.8
			c0.2,0,0.3-0.1,0.5-0.1c2.7-0.2,5.5-0.5,8.2-0.7c0.4,0,0.5,0,0.6,0.5c0,0.6,0.1,1.2,0.2,1.8c0.1,0.4-0.1,0.5-0.5,0.6
			c-1.6,0.1-3.1,0.3-4.7,0.4C140,171.7,139.9,171.7,139.6,171.8z"/>
		<path fill="#2A3A8D" d="M149,183.1c-0.4-5-0.9-9.9-1.3-14.9c0.2,0,0.4,0,0.5,0c2.7-0.2,5.4-0.5,8.1-0.7c0.4,0,0.6,0.1,0.6,0.5
			c0,0.7,0.1,1.5,0.2,2.3c-1.9,0.2-3.8,0.3-5.8,0.5c0.1,0.6,0.1,1.2,0.2,1.8c0.1,1.2,0.1,1.2,1.3,1.1c1.2-0.1,2.5-0.2,3.7-0.3
			c0.4,0,0.5,0,0.6,0.4c0,0.6,0.1,1.2,0.2,1.8c0,0.4-0.1,0.5-0.4,0.5c-1.5,0.1-3,0.3-4.5,0.4c-0.4,0-0.5,0.2-0.5,0.6
			c0.1,1,0.2,1.9,0.3,2.9c2-0.2,4-0.4,6.1-0.5c0.1,0.9,0.2,1.7,0.2,2.5c0,0.1-0.3,0.3-0.4,0.3c-1.4,0.1-2.8,0.3-4.2,0.4
			c-1.4,0.1-2.8,0.2-4.2,0.4C149.4,183,149.3,183.1,149,183.1z"/>
		<path fill="#2A3A8D" d="M115.1,173.9c0.1,1.1,0.2,2.1,0.3,3.1c0,0.1,0.3,0.2,0.4,0.2c1.4-0.1,2.9-0.2,4.3-0.4c0.2,0,0.4,0,0.6,0
			c0.1,0.9,0.1,1.7,0.2,2.5c0,0.3-0.2,0.3-0.4,0.3c-1.4,0.1-2.9,0.3-4.3,0.4c-0.4,0-0.6,0.1-0.5,0.6c0.2,1.6,0.3,3.3,0.4,4.9
			c0,0.4-0.1,0.6-0.5,0.6c-0.9,0.1-1.9,0.2-2.9,0.2c0-0.2-0.1-0.4-0.1-0.5c-0.4-4.6-0.8-9.1-1.2-13.7c-0.1-0.6-0.1-0.6,0.6-0.7
			c2.6-0.2,5.3-0.5,7.9-0.7c0.4,0,0.6,0.1,0.6,0.5c0,0.6,0.1,1.2,0.2,1.8c0.1,0.4,0,0.6-0.5,0.6c-1.6,0.1-3.1,0.3-4.7,0.4
			C115.4,173.9,115.3,173.9,115.1,173.9z"/>
	</g>
	<g>
		<path fill="#1D9BD7" d="M93.1,216l-3.6-9.3l-0.1,0c0.3,1.9,0.4,3.2,0.5,3.9l0.5,5.6l-2.2,0.2l-1-12.1l3.4-0.3l3.5,9l0,0l2.2-9.5
			l3.4-0.3l1,12.1l-2.3,0.2l-0.5-5.7c0-0.3,0-0.6-0.1-0.9c0-0.4-0.1-1.3-0.1-2.8l-0.1,0l-2.2,9.7L93.1,216z"/>
		<path fill="#1D9BD7" d="M110.3,214.5l-6.7,0.6l-1-12.1l6.7-0.6l0.2,2.1l-4.2,0.3l0.2,2.7l3.9-0.3l0.2,2.1l-3.9,0.3l0.3,3.1
			l4.2-0.3L110.3,214.5z"/>
		<path fill="#1D9BD7" d="M112.8,214.3l-1-12.1l2.5-0.2l0.8,10l4.7-0.4l0.2,2.1L112.8,214.3z"/>
		<path fill="#1D9BD7" d="M121.2,201.5l3.6-0.3c1.7-0.1,2.9,0,3.7,0.4c0.8,0.4,1.2,1.2,1.3,2.2c0.1,0.7-0.1,1.3-0.3,1.8
			c-0.3,0.5-0.7,0.8-1.2,0.9l0,0.1c0.8,0.1,1.3,0.4,1.7,0.8c0.4,0.4,0.6,1.1,0.6,1.8c0.1,1.1-0.2,2-0.9,2.7
			c-0.7,0.7-1.7,1.1-3.1,1.2l-4.4,0.4L121.2,201.5z M124,206.1l1.4-0.1c0.7-0.1,1.1-0.2,1.4-0.4c0.3-0.2,0.4-0.6,0.4-1.1
			c0-0.5-0.2-0.8-0.6-1c-0.3-0.2-0.9-0.2-1.6-0.2l-1.3,0.1L124,206.1z M124.2,208.1l0.3,3.2l1.6-0.1c0.7-0.1,1.2-0.2,1.5-0.5
			c0.3-0.3,0.4-0.7,0.4-1.3c-0.1-1-0.8-1.4-2.2-1.3L124.2,208.1z"/>
		<path fill="#1D9BD7" d="M143.3,205.7c0.2,2-0.2,3.6-1.1,4.7s-2.2,1.8-4,2c-1.8,0.1-3.2-0.3-4.2-1.3c-1-1-1.7-2.5-1.8-4.5
			c-0.2-2,0.2-3.6,1.1-4.7c0.9-1.1,2.2-1.8,4-1.9c1.8-0.1,3.2,0.3,4.2,1.3C142.5,202.2,143.1,203.7,143.3,205.7z M134.8,206.4
			c0.1,1.4,0.4,2.3,1,3c0.5,0.6,1.3,0.9,2.3,0.8c2-0.2,2.8-1.6,2.6-4.3c-0.2-2.7-1.3-4-3.3-3.8c-1,0.1-1.7,0.5-2.1,1.2
			C134.8,204,134.7,205.1,134.8,206.4z"/>
		<path fill="#1D9BD7" d="M154.8,198.7l0.6,7.8c0.1,0.9-0.1,1.7-0.4,2.4c-0.3,0.7-0.8,1.3-1.5,1.7c-0.7,0.4-1.5,0.7-2.5,0.7
			c-1.5,0.1-2.7-0.2-3.6-0.9s-1.4-1.8-1.5-3.2l-0.6-7.8l2.5-0.2l0.6,7.4c0.1,0.9,0.3,1.6,0.7,2s1,0.6,1.8,0.5
			c0.8-0.1,1.4-0.3,1.7-0.8c0.3-0.5,0.5-1.2,0.4-2.1l-0.6-7.4L154.8,198.7z"/>
		<path fill="#1D9BD7" d="M160.8,205.7l0.4,4.6l-2.5,0.2l-1-12.1l3.4-0.3c1.6-0.1,2.8,0.1,3.6,0.6c0.8,0.5,1.3,1.4,1.4,2.6
			c0.1,0.7-0.1,1.4-0.4,1.9s-0.8,1.1-1.5,1.4c2,2.6,3.3,4.2,3.9,5l-2.7,0.2l-3.2-4.4L160.8,205.7z M160.6,203.6l0.8-0.1
			c0.8-0.1,1.3-0.2,1.7-0.5c0.4-0.3,0.5-0.7,0.5-1.3c0-0.6-0.3-1-0.7-1.2c-0.4-0.2-1-0.3-1.8-0.2l-0.7,0.1L160.6,203.6z"/>
		<path fill="#1D9BD7" d="M179.9,208.8l-3.1,0.3l-5.8-8.7l-0.1,0c0.2,1.6,0.4,2.8,0.4,3.4l0.5,5.7l-2.2,0.2l-1-12.1l3.1-0.3l5.8,8.6
			l0.1,0c-0.2-1.6-0.3-2.7-0.4-3.3l-0.5-5.7l2.2-0.2L179.9,208.8z"/>
		<path fill="#1D9BD7" d="M189.7,208l-6.7,0.6l-1-12.1l6.7-0.6l0.2,2.1l-4.2,0.3l0.2,2.7l3.9-0.3l0.2,2.1l-3.9,0.3l0.3,3.1l4.2-0.3
			L189.7,208z"/>
	</g>
</g>
</svg>
