<!-- Generator: Adobe Illustrator 18.0.0, SVG Export Plug-In  -->
<svg version="1.1"
	 xmlns="http://www.w3.org/2000/svg" xmlns:xlink="http://www.w3.org/1999/xlink" xmlns:a="http://ns.adobe.com/AdobeSVGViewerExtensions/3.0/"
	 x="0px" y="0px" width="231.8px" height="152.4px" viewBox="0 0 231.8 152.4" enable-background="new 0 0 231.8 152.4"
	 xml:space="preserve">
<defs>
</defs>
<g>
	<path fill="#FFCF01" d="M231.8,12.3c0,6.8-5.5,12.3-12.3,12.3H49.1c-6.8,0-12.3-5.5-12.3-12.3l0,0C36.9,5.5,42.3,0,49.1,0h170.5
		C226.4,0,231.8,5.5,231.8,12.3L231.8,12.3z"/>
	<polygon fill="#FFCF01" points="210.7,24.5 229.6,73.5 201.3,73.5 184.5,24.5 	"/>
	<path fill="#FFCF01" d="M47.7,73.5c0,0-50.1,26.8-47.6,78.8h231.7V73.5H47.7z M73.6,135.5c-12.5,0-22.6-10.1-22.6-22.6
		c0-12.5,10.1-22.6,22.6-22.6s22.6,10.1,22.6,22.6C96.2,125.4,86.1,135.5,73.6,135.5z M147.5,135.5c-12.5,0-22.6-10.1-22.6-22.6
		c0-12.5,10.1-22.6,22.6-22.6c12.5,0,22.6,10.1,22.6,22.6C170.1,125.4,160,135.5,147.5,135.5z"/>
</g>
</svg>
