<!-- Generator: Adobe Illustrator 18.1.1, SVG Export Plug-In  -->
<svg version="1.1"
	 xmlns="http://www.w3.org/2000/svg" xmlns:xlink="http://www.w3.org/1999/xlink" xmlns:a="http://ns.adobe.com/AdobeSVGViewerExtensions/3.0/"
	 x="0px" y="0px" width="696.6px" height="700.6px" viewBox="0 0 696.6 700.6" enable-background="new 0 0 696.6 700.6"
	 xml:space="preserve">
<defs>
</defs>
<g id="paper_1_">
	<rect y="0" fill="#FFFFFF" width="696.6" height="700.6"/>
	<polygon opacity="0.9" fill="#010101" enable-background="new    " points="0,161.7 0,0 315,0 	"/>
	<path fill="#C4C4C4" d="M0,161.5L315.1,0c0,0-161.8,119.4-197.3,208c0,0-53.3-77.4-117.8-46.3V161.5z"/>
</g>
<text transform="matrix(1 0 0 1 201.8 172.3997)" fill="#010101" font-family="'Comfortaa'" font-size="36">Welcome to </text>
<g id="logo_1_">
	<g>
		<path fill="#283C8E" d="M440.9,175.7c0-0.1,0-0.1,0.1-0.2c0,0,0.1-0.1,0.2-0.1s0.1,0,0.2,0.1s0.1,0.1,0.1,0.2v3.9
			c0,0.1,0,0.1-0.1,0.2s-0.1,0.1-0.2,0.1s-0.1,0-0.2-0.1c0,0-0.1-0.1-0.1-0.2V175.7z"/>
		<path fill="#283C8E" d="M442,177c0-0.1,0-0.1,0.1-0.2s0.1-0.1,0.2-0.1s0.1,0,0.2,0.1c0,0,0.1,0.1,0.1,0.2v0.2
			c0.3-0.3,0.6-0.4,1-0.4s0.7,0.1,1,0.4s0.4,0.6,0.4,1v1.4c0,0.1,0,0.1-0.1,0.2c0,0-0.1,0.1-0.2,0.1s-0.1,0-0.2-0.1
			s-0.1-0.1-0.1-0.2v-1.4c0-0.3-0.1-0.5-0.3-0.7s-0.4-0.3-0.7-0.3s-0.5,0.1-0.7,0.3s-0.3,0.4-0.3,0.7v1.4c0,0.1,0,0.1-0.1,0.2
			c0,0-0.1,0.1-0.2,0.1s-0.1,0-0.2-0.1s-0.1-0.1-0.1-0.2V177H442z"/>
		<path fill="#283C8E" d="M445.2,177c0-0.1,0-0.1,0.1-0.2s0.1-0.1,0.2-0.1s0.1,0,0.2,0.1s0.1,0.1,0.1,0.2v0.2c0.3-0.3,0.6-0.4,1-0.4
			s0.7,0.1,1,0.4s0.4,0.6,0.4,1v1.4c0,0.1,0,0.1-0.1,0.2c0,0-0.1,0.1-0.2,0.1s-0.1,0-0.2-0.1s-0.1-0.1-0.1-0.2v-1.4
			c0-0.3-0.1-0.5-0.3-0.7c-0.2-0.2-0.4-0.3-0.7-0.3s-0.5,0.1-0.7,0.3s-0.3,0.4-0.3,0.7v1.4c0,0.1,0,0.1-0.1,0.2s-0.1,0.1-0.2,0.1
			s-0.1,0-0.2-0.1s-0.1-0.1-0.1-0.2V177H445.2z"/>
		<path fill="#283C8E" d="M451.6,178.3c0,0.4-0.1,0.8-0.4,1.1s-0.7,0.4-1.1,0.4s-0.8-0.1-1.1-0.4c-0.3-0.3-0.4-0.7-0.4-1.1
			s0.1-0.8,0.4-1.1c0.3-0.3,0.7-0.4,1.1-0.4s0.8,0.1,1.1,0.4S451.6,177.9,451.6,178.3z M450,177.2c-0.3,0-0.6,0.1-0.8,0.3
			c-0.2,0.2-0.3,0.5-0.3,0.8s0.1,0.6,0.3,0.8c0.2,0.2,0.5,0.3,0.8,0.3s0.6-0.1,0.8-0.3c0.2-0.2,0.3-0.5,0.3-0.8s-0.1-0.6-0.3-0.8
			S450.3,177.2,450,177.2z"/>
		<path fill="#283C8E" d="M453.6,179.8c0,0-0.1,0.1-0.2,0.1s-0.1,0-0.2-0.1c0,0,0,0,0-0.1l-1.2-2.6V177c0-0.1,0-0.1,0.1-0.2
			s0.1-0.1,0.2-0.1s0.1,0,0.2,0.1c0,0,0,0,0,0.1l1,2.2l1-2.2c0,0,0,0,0-0.1c0,0,0.1-0.1,0.2-0.1s0.1,0,0.2,0.1c0,0,0.1,0.1,0.1,0.2
			v0.1L453.6,179.8C453.6,179.7,453.6,179.8,453.6,179.8z"/>
		<path fill="#283C8E" d="M457.9,179.4c-0.3,0.3-0.7,0.5-1.1,0.5s-0.8-0.1-1.1-0.4s-0.4-0.7-0.4-1.1s0.1-0.8,0.4-1.1
			s0.7-0.4,1.1-0.4s0.8,0.1,1.1,0.4s0.4,0.7,0.4,1.1v1.3c0,0.1,0,0.1-0.1,0.2s-0.1,0.1-0.2,0.1s-0.1,0-0.2-0.1c0,0-0.1-0.1-0.1-0.2
			v-0.3H457.9z M456.8,177.2c-0.3,0-0.6,0.1-0.8,0.3c-0.2,0.2-0.3,0.5-0.3,0.8s0.1,0.6,0.3,0.8c0.2,0.2,0.5,0.3,0.8,0.3
			s0.6-0.1,0.8-0.3c0.2-0.2,0.3-0.5,0.3-0.8s-0.1-0.6-0.3-0.8C457.4,177.3,457.1,177.2,456.8,177.2z"/>
		<path fill="#283C8E" d="M460.3,179.4c0.1,0,0.1,0,0.2,0.1s0.1,0.1,0.1,0.2s0,0.1-0.1,0.2s-0.1,0.1-0.2,0.1c-0.7,0-1.1-0.4-1.1-1.1
			v-1.5H459c-0.1,0-0.1,0-0.2-0.1s-0.1-0.1-0.1-0.2s0-0.1,0.1-0.2s0.1-0.1,0.2-0.1h0.2v-1.1c0-0.1,0-0.1,0.1-0.2s0.1-0.1,0.2-0.1
			s0.1,0,0.2,0.1c0,0,0.1,0.1,0.1,0.2v1.1h0.4c0.1,0,0.1,0,0.2,0.1s0.1,0.1,0.1,0.2s0,0.1-0.1,0.2s-0.1,0.1-0.2,0.1h-0.4v1.5
			C459.7,179.2,459.9,179.4,460.3,179.4z"/>
		<path fill="#283C8E" d="M461.7,176.1c0,0.1,0,0.1-0.1,0.2s-0.1,0.1-0.2,0.1s-0.1,0-0.2-0.1s-0.1-0.1-0.1-0.2s0-0.1,0.1-0.2
			s0.1-0.1,0.2-0.1s0.1,0,0.2,0.1C461.6,176,461.7,176,461.7,176.1z M461.2,177c0-0.1,0-0.1,0.1-0.2c0,0,0.1-0.1,0.2-0.1
			s0.1,0,0.2,0.1s0.1,0.1,0.1,0.2v2.6c0,0.1,0,0.1-0.1,0.2s-0.1,0.1-0.2,0.1s-0.1,0-0.2-0.1c0,0-0.1-0.1-0.1-0.2V177z"/>
		<path fill="#283C8E" d="M465.3,178.3c0,0.4-0.1,0.8-0.4,1.1s-0.7,0.4-1.1,0.4s-0.8-0.1-1.1-0.4s-0.4-0.7-0.4-1.1s0.1-0.8,0.4-1.1
			s0.7-0.4,1.1-0.4s0.8,0.1,1.1,0.4S465.3,177.9,465.3,178.3z M463.8,177.2c-0.3,0-0.6,0.1-0.8,0.3c-0.2,0.2-0.3,0.5-0.3,0.8
			s0.1,0.6,0.3,0.8c0.2,0.2,0.5,0.3,0.8,0.3s0.6-0.1,0.8-0.3c0.2-0.2,0.3-0.5,0.3-0.8s-0.1-0.6-0.3-0.8
			C464.4,177.3,464.1,177.2,463.8,177.2z"/>
		<path fill="#283C8E" d="M465.8,177c0-0.1,0-0.1,0.1-0.2c0,0,0.1-0.1,0.2-0.1s0.1,0,0.2,0.1s0.1,0.1,0.1,0.2v0.2
			c0.3-0.3,0.6-0.4,1-0.4s0.7,0.1,1,0.4s0.4,0.6,0.4,1v1.4c0,0.1,0,0.1-0.1,0.2s-0.1,0.1-0.2,0.1s-0.1,0-0.2-0.1
			c0,0-0.1-0.1-0.1-0.2v-1.4c0-0.3-0.1-0.5-0.3-0.7s-0.4-0.3-0.7-0.3s-0.5,0.1-0.7,0.3c-0.2,0.2-0.3,0.4-0.3,0.7v1.4
			c0,0.1,0,0.1-0.1,0.2s-0.1,0.1-0.2,0.1s-0.1,0-0.2-0.1c0,0-0.1-0.1-0.1-0.2V177H465.8z"/>
		<path fill="#283C8E" d="M471.7,179.4c-0.3,0.3-0.7,0.5-1.1,0.5s-0.8-0.1-1.1-0.4s-0.4-0.7-0.4-1.1s0.1-0.8,0.4-1.1
			s0.7-0.4,1.1-0.4s0.8,0.1,1.1,0.4c0.3,0.3,0.4,0.7,0.4,1.1v1.3c0,0.1,0,0.1-0.1,0.2c0,0-0.1,0.1-0.2,0.1s-0.1,0-0.2-0.1
			s-0.1-0.1-0.1-0.2v-0.3H471.7z M470.6,177.2c-0.3,0-0.6,0.1-0.8,0.3c-0.2,0.2-0.3,0.5-0.3,0.8s0.1,0.6,0.3,0.8
			c0.2,0.2,0.5,0.3,0.8,0.3s0.6-0.1,0.8-0.3c0.2-0.2,0.3-0.5,0.3-0.8s-0.1-0.6-0.3-0.8C471.1,177.3,470.9,177.2,470.6,177.2z"/>
		<path fill="#283C8E" d="M473.1,178.3c-0.2-0.1-0.3-0.1-0.3-0.2c-0.1-0.1-0.2-0.3-0.2-0.5s0.1-0.3,0.2-0.5c0.3-0.3,0.6-0.4,1-0.4
			c0.5,0,0.8,0.2,1.2,0.5v0.1c0,0.1,0,0.1-0.1,0.2c0,0-0.1,0.1-0.2,0.1s-0.1,0-0.1-0.1s-0.1-0.1-0.1-0.1c-0.2-0.2-0.5-0.3-0.8-0.3
			s-0.5,0.1-0.7,0.3c0,0.1-0.1,0.1-0.1,0.2s0.1,0.1,0.1,0.2l1.3,0.4c0.2,0.1,0.3,0.1,0.3,0.2c0.1,0.1,0.2,0.3,0.2,0.5
			s-0.1,0.3-0.2,0.5c-0.3,0.3-0.6,0.4-1,0.4c-0.5,0-0.9-0.2-1.2-0.5v-0.1c0-0.1,0-0.1,0.1-0.2c0,0,0.1-0.1,0.2-0.1s0.1,0,0.1,0.1
			l0.1,0.1c0.2,0.2,0.5,0.3,0.8,0.3s0.5-0.1,0.7-0.3c0-0.1,0.1-0.1,0.1-0.2s-0.1-0.1-0.1-0.2L473.1,178.3z"/>
		<path fill="#283C8E" d="M479.7,179.4c-0.3,0.3-0.7,0.5-1.1,0.5s-0.8-0.1-1.1-0.4c-0.3-0.3-0.4-0.7-0.4-1.1s0.1-0.8,0.4-1.1
			c0.3-0.3,0.7-0.4,1.1-0.4s0.8,0.1,1.1,0.4c0.3,0.3,0.4,0.7,0.4,1.1v1.3c0,0.1,0,0.1-0.1,0.2s-0.1,0.1-0.2,0.1s-0.1,0-0.2-0.1
			s-0.1-0.1-0.1-0.2v-0.3H479.7z M478.6,177.2c-0.3,0-0.6,0.1-0.8,0.3c-0.2,0.2-0.3,0.5-0.3,0.8s0.1,0.6,0.3,0.8
			c0.2,0.2,0.5,0.3,0.8,0.3s0.6-0.1,0.8-0.3c0.2-0.2,0.3-0.5,0.3-0.8s-0.1-0.6-0.3-0.8S478.9,177.2,478.6,177.2z"/>
		<path fill="#283C8E" d="M480.6,177c0-0.1,0-0.1,0.1-0.2s0.1-0.1,0.2-0.1s0.1,0,0.2,0.1c0,0,0.1,0.1,0.1,0.2v0.2
			c0.3-0.3,0.6-0.4,1-0.4s0.7,0.1,1,0.4s0.4,0.6,0.4,1v1.4c0,0.1,0,0.1-0.1,0.2c0,0-0.1,0.1-0.2,0.1s-0.1,0-0.2-0.1
			s-0.1-0.1-0.1-0.2v-1.4c0-0.3-0.1-0.5-0.3-0.7c-0.2-0.2-0.4-0.3-0.7-0.3s-0.5,0.1-0.7,0.3s-0.3,0.4-0.3,0.7v1.4
			c0,0.1,0,0.1-0.1,0.2c0,0-0.1,0.1-0.2,0.1s-0.1,0-0.2-0.1s-0.1-0.1-0.1-0.2V177H480.6z"/>
		<path fill="#283C8E" d="M486.5,175.7c0-0.1,0-0.1,0.1-0.2c0,0,0.1-0.1,0.2-0.1s0.1,0,0.2,0.1s0.1,0.1,0.1,0.2v2.6
			c0,0.4-0.1,0.8-0.4,1.1s-0.7,0.4-1.1,0.4s-0.8-0.1-1.1-0.4s-0.4-0.7-0.4-1.1s0.1-0.8,0.4-1.1s0.7-0.4,1.1-0.4s0.8,0.1,1.1,0.4l0,0
			v-1.5H486.5z M486.5,178.3c0-0.3-0.1-0.6-0.3-0.8c-0.2-0.2-0.5-0.3-0.8-0.3s-0.6,0.1-0.8,0.3c-0.2,0.2-0.3,0.5-0.3,0.8
			s0.1,0.6,0.3,0.8c0.2,0.2,0.5,0.3,0.8,0.3s0.6-0.1,0.8-0.3S486.5,178.6,486.5,178.3z"/>
		<path fill="#283C8E" d="M491.6,175.7c0-0.1,0-0.1,0.1-0.2c0,0,0.1-0.1,0.2-0.1s0.1,0,0.2,0.1c0,0,0.1,0.1,0.1,0.2v2.6
			c0,0.4-0.1,0.8-0.4,1.1c-0.3,0.3-0.7,0.4-1.1,0.4s-0.8-0.1-1.1-0.4s-0.4-0.7-0.4-1.1s0.1-0.8,0.4-1.1s0.7-0.4,1.1-0.4
			s0.8,0.1,1.1,0.4l0,0v-1.5H491.6z M491.6,178.3c0-0.3-0.1-0.6-0.3-0.8c-0.2-0.2-0.5-0.3-0.8-0.3s-0.6,0.1-0.8,0.3
			c-0.2,0.2-0.3,0.5-0.3,0.8s0.1,0.6,0.3,0.8c0.2,0.2,0.5,0.3,0.8,0.3s0.6-0.1,0.8-0.3S491.6,178.6,491.6,178.3z"/>
		<path fill="#283C8E" d="M494.9,179.1c0.1,0,0.1,0,0.2,0.1c0,0,0.1,0.1,0.1,0.2s0,0.1-0.1,0.2c-0.3,0.2-0.6,0.4-1,0.4
			s-0.8-0.1-1.1-0.4c-0.3-0.3-0.4-0.7-0.4-1.1s0.1-0.8,0.4-1.1c0.3-0.3,0.7-0.4,1.1-0.4s0.8,0.1,1.1,0.4c0.3,0.3,0.4,0.7,0.4,1.1
			c0,0.1,0,0.1-0.1,0.2c0,0-0.1,0.1-0.2,0.1h-2.4c0,0.2,0.1,0.4,0.3,0.6c0.2,0.2,0.5,0.3,0.8,0.3s0.5-0.1,0.7-0.3
			C494.8,179.1,494.8,179.1,494.9,179.1z M495.1,178.1c0-0.2-0.1-0.4-0.3-0.6c-0.2-0.2-0.5-0.3-0.8-0.3s-0.6,0.1-0.8,0.3
			c-0.2,0.2-0.3,0.3-0.3,0.6H495.1z"/>
		<path fill="#283C8E" d="M496.5,178.3c-0.2-0.1-0.3-0.1-0.3-0.2c-0.1-0.1-0.2-0.3-0.2-0.5s0.1-0.3,0.2-0.5c0.3-0.3,0.6-0.4,1-0.4
			c0.5,0,0.8,0.2,1.2,0.5v0.1c0,0.1,0,0.1-0.1,0.2c0,0-0.1,0.1-0.2,0.1s-0.1,0-0.1-0.1l-0.1-0.1c-0.2-0.2-0.5-0.3-0.8-0.3
			s-0.5,0.1-0.7,0.3c0,0.1-0.1,0.1-0.1,0.2s0.1,0.1,0.1,0.2l1.3,0.4c0.2,0.1,0.3,0.1,0.3,0.2c0.1,0.1,0.2,0.3,0.2,0.5
			s-0.1,0.3-0.2,0.5c-0.3,0.3-0.6,0.4-1,0.4c-0.5,0-0.9-0.2-1.2-0.5v-0.1c0-0.1,0-0.1,0.1-0.2c0,0,0.1-0.1,0.2-0.1s0.1,0,0.1,0.1
			l0.1,0.1c0.2,0.2,0.5,0.3,0.8,0.3s0.5-0.1,0.7-0.3c0-0.1,0.1-0.1,0.1-0.2s0-0.1-0.1-0.2L496.5,178.3z"/>
		<path fill="#283C8E" d="M499.6,176.1c0,0.1,0,0.1-0.1,0.2s-0.1,0.1-0.2,0.1s-0.1,0-0.2-0.1s-0.1-0.1-0.1-0.2s0-0.1,0.1-0.2
			s0.1-0.1,0.2-0.1s0.1,0,0.2,0.1C499.6,176,499.6,176,499.6,176.1z M499.1,177c0-0.1,0-0.1,0.1-0.2c0,0,0.1-0.1,0.2-0.1
			s0.1,0,0.2,0.1c0,0,0.1,0.1,0.1,0.2v2.6c0,0.1,0,0.1-0.1,0.2c0,0-0.1,0.1-0.2,0.1s-0.1,0-0.2-0.1c0,0-0.1-0.1-0.1-0.2V177z"/>
		<path fill="#283C8E" d="M502.8,179.4L502.8,179.4c-0.3,0.3-0.7,0.5-1.1,0.5s-0.8-0.1-1.1-0.4c-0.3-0.3-0.4-0.7-0.4-1.1
			s0.1-0.8,0.4-1.1c0.3-0.3,0.7-0.4,1.1-0.4s0.8,0.1,1.1,0.4c0.3,0.3,0.4,0.7,0.4,1.1v1.5c0,0.3-0.1,0.6-0.3,0.8
			c-0.3,0.3-0.7,0.5-1.2,0.5s-0.8-0.2-1.2-0.5c-0.1-0.1-0.2-0.2-0.3-0.4v-0.1c0-0.1,0-0.1,0.1-0.2c0,0,0.1-0.1,0.2-0.1
			s0.1,0,0.2,0.1c0,0,0,0,0,0.1c0.1,0.1,0.1,0.2,0.2,0.3c0.2,0.2,0.5,0.4,0.8,0.4s0.6-0.1,0.8-0.4c0.1-0.2,0.2-0.3,0.2-0.5v-0.5
			H502.8z M501.7,177.2c-0.3,0-0.6,0.1-0.8,0.3c-0.2,0.2-0.3,0.5-0.3,0.8s0.1,0.6,0.3,0.8c0.2,0.2,0.5,0.3,0.8,0.3s0.6-0.1,0.8-0.3
			c0.2-0.2,0.3-0.5,0.3-0.8s-0.1-0.6-0.3-0.8S502,177.2,501.7,177.2z"/>
		<path fill="#283C8E" d="M503.7,177c0-0.1,0-0.1,0.1-0.2c0,0,0.1-0.1,0.2-0.1s0.1,0,0.2,0.1c0,0,0.1,0.1,0.1,0.2v0.2
			c0.3-0.3,0.6-0.4,1-0.4s0.7,0.1,1,0.4s0.4,0.6,0.4,1v1.4c0,0.1,0,0.1-0.1,0.2c0,0-0.1,0.1-0.2,0.1s-0.1,0-0.2-0.1
			c0,0-0.1-0.1-0.1-0.2v-1.4c0-0.3-0.1-0.5-0.3-0.7c-0.2-0.2-0.4-0.3-0.7-0.3c-0.3,0-0.5,0.1-0.7,0.3c-0.2,0.2-0.3,0.4-0.3,0.7v1.4
			c0,0.1,0,0.1-0.1,0.2c0,0-0.1,0.1-0.2,0.1s-0.1,0-0.2-0.1c0,0-0.1-0.1-0.1-0.2V177H503.7z"/>
		<path fill="#283C8E" d="M509.3,176.1c0,0.1,0,0.1-0.1,0.2s-0.1,0.1-0.2,0.1s-0.1,0-0.2-0.1s-0.1-0.1-0.1-0.2s0-0.1,0.1-0.2
			s0.1-0.1,0.2-0.1s0.1,0,0.2,0.1C509.3,176,509.3,176,509.3,176.1z M508.8,177c0-0.1,0-0.1,0.1-0.2c0,0,0.1-0.1,0.2-0.1
			s0.1,0,0.2,0.1c0,0,0.1,0.1,0.1,0.2v2.6c0,0.1,0,0.1-0.1,0.2c0,0-0.1,0.1-0.2,0.1s-0.1,0-0.2-0.1c0,0-0.1-0.1-0.1-0.2V177z"/>
		<path fill="#283C8E" d="M509.9,177c0-0.1,0-0.1,0.1-0.2c0,0,0.1-0.1,0.2-0.1s0.1,0,0.2,0.1c0,0,0.1,0.1,0.1,0.2v0.2
			c0.3-0.3,0.6-0.4,1-0.4s0.7,0.1,1,0.4s0.4,0.6,0.4,1v1.4c0,0.1,0,0.1-0.1,0.2c0,0-0.1,0.1-0.2,0.1s-0.1,0-0.2-0.1
			c0,0-0.1-0.1-0.1-0.2v-1.4c0-0.3-0.1-0.5-0.3-0.7c-0.2-0.2-0.4-0.3-0.7-0.3c-0.3,0-0.5,0.1-0.7,0.3c-0.2,0.2-0.3,0.4-0.3,0.7v1.4
			c0,0.1,0,0.1-0.1,0.2c0,0-0.1,0.1-0.2,0.1s-0.1,0-0.2-0.1c0,0-0.1-0.1-0.1-0.2V177H509.9z"/>
		<path fill="#283C8E" d="M516.8,179.7l-1.5-3.1v3c0,0.1,0,0.1-0.1,0.2c0,0-0.1,0.1-0.2,0.1s-0.1,0-0.2-0.1c0,0-0.1-0.1-0.1-0.2
			v-3.9c0-0.1,0-0.1,0.1-0.2c0,0,0.1-0.1,0.2-0.1s0.2,0,0.2,0.1l1.8,3.5l1.8-3.5c0-0.1,0.1-0.1,0.2-0.1s0.1,0,0.2,0.1
			c0,0,0.1,0.1,0.1,0.2v3.9c0,0.1,0,0.1-0.1,0.2c0,0-0.1,0.1-0.2,0.1s-0.1,0-0.2-0.1c0,0-0.1-0.1-0.1-0.2v-3l-1.6,3.1
			c0,0.1-0.1,0.1-0.2,0.1C516.9,179.8,516.9,179.8,516.8,179.7z"/>
		<path fill="#283C8E" d="M522,179.1c0.1,0,0.1,0,0.2,0.1c0,0,0.1,0.1,0.1,0.2s0,0.1-0.1,0.2c-0.3,0.2-0.6,0.4-1,0.4
			s-0.8-0.1-1.1-0.4c-0.3-0.3-0.4-0.7-0.4-1.1s0.1-0.8,0.4-1.1c0.3-0.3,0.7-0.4,1.1-0.4s0.8,0.1,1.1,0.4s0.4,0.7,0.4,1.1
			c0,0.1,0,0.1-0.1,0.2s-0.1,0.1-0.2,0.1H520c0,0.2,0.1,0.4,0.3,0.6c0.2,0.2,0.5,0.3,0.8,0.3s0.5-0.1,0.7-0.3
			C521.9,179.1,522,179.1,522,179.1z M522.2,178.1c0-0.2-0.1-0.4-0.3-0.6c-0.2-0.2-0.5-0.3-0.8-0.3s-0.6,0.1-0.8,0.3
			c-0.2,0.2-0.3,0.3-0.3,0.6H522.2z"/>
		<path fill="#283C8E" d="M523.1,175.7c0-0.1,0-0.1,0.1-0.2s0.1-0.1,0.2-0.1s0.1,0,0.2,0.1c0,0,0.1,0.1,0.1,0.2v3.7h0.2
			c0.1,0,0.1,0,0.2,0.1c0,0,0.1,0.1,0.1,0.2s0,0.1-0.1,0.2c0,0-0.1,0.1-0.2,0.1h-0.4c-0.1,0-0.1,0-0.2-0.1s-0.1-0.1-0.1-0.2
			L523.1,175.7L523.1,175.7z"/>
		<path fill="#283C8E" d="M524.9,177.2L524.9,177.2c0.3-0.3,0.7-0.5,1.1-0.5s0.8,0.1,1.1,0.4s0.4,0.7,0.4,1.1s-0.1,0.8-0.4,1.1
			s-0.7,0.4-1.1,0.4s-0.8-0.1-1.1-0.4c-0.3-0.3-0.4-0.7-0.4-1.1v-2.6c0-0.1,0-0.1,0.1-0.2c0,0,0.1-0.1,0.2-0.1s0.1,0,0.2,0.1
			s0.1,0.1,0.1,0.2v1.6H524.9z M526,179.4c0.3,0,0.6-0.1,0.8-0.3c0.2-0.2,0.3-0.5,0.3-0.8s-0.1-0.6-0.3-0.8
			c-0.2-0.2-0.5-0.3-0.8-0.3s-0.6,0.1-0.8,0.3c-0.2,0.2-0.3,0.5-0.3,0.8s0.1,0.6,0.3,0.8S525.7,179.4,526,179.4z"/>
		<path fill="#283C8E" d="M531,178.3c0,0.4-0.1,0.8-0.4,1.1c-0.3,0.3-0.7,0.4-1.1,0.4s-0.8-0.1-1.1-0.4c-0.3-0.3-0.4-0.7-0.4-1.1
			s0.1-0.8,0.4-1.1c0.3-0.3,0.7-0.4,1.1-0.4s0.8,0.1,1.1,0.4C530.9,177.5,531,177.9,531,178.3z M529.5,177.2c-0.3,0-0.6,0.1-0.8,0.3
			c-0.2,0.2-0.3,0.5-0.3,0.8s0.1,0.6,0.3,0.8c0.2,0.2,0.5,0.3,0.8,0.3s0.6-0.1,0.8-0.3c0.2-0.2,0.3-0.5,0.3-0.8s-0.1-0.6-0.3-0.8
			C530,177.3,529.8,177.2,529.5,177.2z"/>
		<path fill="#283C8E" d="M534.3,179.6c0,0.1,0,0.1-0.1,0.2c0,0-0.1,0.1-0.2,0.1s-0.1,0-0.2-0.1s-0.1-0.1-0.1-0.2v-0.2
			c-0.3,0.3-0.6,0.4-1,0.4s-0.7-0.1-1-0.4s-0.4-0.6-0.4-1V177c0-0.1,0-0.1,0.1-0.2c0,0,0.1-0.1,0.2-0.1s0.1,0,0.2,0.1
			c0,0,0.1,0.1,0.1,0.2v1.4c0,0.3,0.1,0.5,0.3,0.7s0.4,0.3,0.7,0.3s0.5-0.1,0.7-0.3s0.3-0.4,0.3-0.7V177c0-0.1,0-0.1,0.1-0.2
			s0.1-0.1,0.2-0.1s0.1,0,0.2,0.1c0,0,0.1,0.1,0.1,0.2v2.6H534.3z"/>
		<path fill="#283C8E" d="M534.7,177c0-0.1,0-0.1,0.1-0.2c0,0,0.1-0.1,0.2-0.1s0.1,0,0.2,0.1s0.1,0.1,0.1,0.2v0.2
			c0.3-0.3,0.7-0.5,1.1-0.5c0.2,0,0.4,0,0.6,0.1c0,0,0.1,0,0.1,0.1c0,0,0.1,0.1,0.1,0.2s0,0.1-0.1,0.2c0,0-0.1,0.1-0.2,0.1h-0.1
			c-0.1-0.1-0.3-0.1-0.4-0.1c-0.3,0-0.6,0.1-0.8,0.3c-0.2,0.2-0.3,0.5-0.3,0.8v1.3c0,0.1,0,0.1-0.1,0.2s-0.1,0.1-0.2,0.1
			s-0.1,0-0.2-0.1c0,0-0.1-0.1-0.1-0.2L534.7,177L534.7,177z"/>
		<path fill="#283C8E" d="M537.3,177c0-0.1,0-0.1,0.1-0.2c0,0,0.1-0.1,0.2-0.1s0.1,0,0.2,0.1s0.1,0.1,0.1,0.2v0.2
			c0.3-0.3,0.6-0.4,1-0.4s0.7,0.1,1,0.4s0.4,0.6,0.4,1v1.4c0,0.1,0,0.1-0.1,0.2s-0.1,0.1-0.2,0.1s-0.1,0-0.2-0.1
			c0,0-0.1-0.1-0.1-0.2v-1.4c0-0.3-0.1-0.5-0.3-0.7s-0.4-0.3-0.7-0.3s-0.5,0.1-0.7,0.3s-0.3,0.4-0.3,0.7v1.4c0,0.1,0,0.1-0.1,0.2
			s-0.1,0.1-0.2,0.1s-0.1,0-0.2-0.1c0,0-0.1-0.1-0.1-0.2V177H537.3z"/>
		<path fill="#283C8E" d="M543,179.1c0.1,0,0.1,0,0.2,0.1c0,0,0.1,0.1,0.1,0.2s0,0.1-0.1,0.2c-0.3,0.2-0.6,0.4-1,0.4
			s-0.8-0.1-1.1-0.4c-0.3-0.3-0.4-0.7-0.4-1.1s0.1-0.8,0.4-1.1c0.3-0.3,0.7-0.4,1.1-0.4s0.8,0.1,1.1,0.4c0.3,0.3,0.4,0.7,0.4,1.1
			c0,0.1,0,0.1-0.1,0.2c0,0-0.1,0.1-0.2,0.1H541c0,0.2,0.1,0.4,0.3,0.6c0.2,0.2,0.5,0.3,0.8,0.3s0.5-0.1,0.7-0.3
			C542.9,179.1,542.9,179.1,543,179.1z M543.2,178.1c0-0.2-0.1-0.4-0.3-0.6c-0.2-0.2-0.5-0.3-0.8-0.3s-0.6,0.1-0.8,0.3
			c-0.2,0.2-0.3,0.3-0.3,0.6H543.2z"/>
	</g>
	<path fill="#283C8E" d="M506.5,147.2c-0.4-0.4-0.8-0.5-1.3-0.5s-0.9,0.2-1.3,0.5c-0.4,0.4-0.5,0.8-0.5,1.3v13.7
		c0,1.8-0.6,3.3-1.9,4.5c-1.2,1.2-2.7,1.9-4.5,1.9s-3.2-0.6-4.5-1.9c-1.2-1.2-1.9-2.8-1.9-4.5v-24.7c0-0.5-0.2-0.9-0.5-1.3
		c-0.4-0.4-0.8-0.5-1.3-0.5s-0.9,0.2-1.3,0.5c-0.4,0.4-0.5,0.8-0.5,1.3v24.7c0,2.8,1,5.1,2.9,7.1c1.9,1.9,4.3,2.9,7,2.9l0,0l0,0l0,0
		l0,0c2.7,0,5.1-1,7-2.9c2-2,2.9-4.3,2.9-7.1v-13.7C507,148,506.8,147.5,506.5,147.2z"/>
	<path fill="#F06B25" d="M507,159.8v-11.5c0-0.5-0.2-0.9-0.5-1.3c-0.4-0.4-0.8-0.5-1.3-0.5s-0.9,0.2-1.3,0.5
		c-0.4,0.4-0.5,0.8-0.5,1.3v11.5H507z"/>
	<path fill="#0A8551" d="M437.1,149.5c-1.9-1.9-4.3-2.9-7-2.9l0,0l0,0l0,0l0,0c-2.7,0-5.1,1-7,2.9c-2,2-2.9,4.3-2.9,7.1v2.9
		c0,0.5,0.2,0.9,0.5,1.3c0.4,0.4,0.8,0.5,1.3,0.5s0.9-0.2,1.3-0.5c0.4-0.4,0.5-0.8,0.5-1.3v-2.9c0-1.8,0.6-3.3,1.9-4.5
		c1.2-1.2,2.7-1.9,4.5-1.9s3.2,0.6,4.5,1.9c1.2,1.2,1.9,2.8,1.9,4.5V174c0,0.5,0.2,0.9,0.5,1.3c0.4,0.4,0.8,0.5,1.3,0.5
		s0.9-0.2,1.3-0.5c0.4-0.4,0.5-0.8,0.5-1.3v-17.4C440,153.8,439.1,151.4,437.1,149.5z"/>
	<path fill="#0A8551" d="M439.5,149.5c1.9-1.9,4.3-2.9,7-2.9l0,0l0,0l0,0l0,0c2.7,0,5.1,1,7,2.9c2,2,2.9,4.3,2.9,7.1v3.3
		c0,0.5-0.2,0.9-0.5,1.3c-0.4,0.4-0.8,0.5-1.3,0.5s-0.9-0.2-1.3-0.5c-0.4-0.4-0.5-0.8-0.5-1.3v-3.3c0-1.8-0.6-3.3-1.9-4.5
		c-1.2-1.2-2.7-1.9-4.5-1.9s-3.2,0.6-4.5,1.9c-1.2,1.2-1.9,2.8-1.9,4.5V174c0,0.5-0.2,0.9-0.5,1.3c-0.4,0.4-0.8,0.5-1.3,0.5
		s-0.9-0.2-1.3-0.5c-0.4-0.4-0.5-0.8-0.5-1.3v-17.4C436.6,153.8,437.6,151.4,439.5,149.5z"/>
	<circle fill="#F06B25" cx="505.4" cy="141.1" r="2.2"/>
	<g>
		<path fill="#B7417C" d="M554.4,158c0.5,0,0.9,0.2,1.3,0.5c0.4,0.4,0.5,0.8,0.5,1.3s-0.2,0.9-0.5,1.3c-0.4,0.4-0.8,0.5-1.3,0.5H525
			c-0.5,0-0.9-0.2-1.3-0.5c-0.4-0.4-0.5-0.8-0.5-1.3s0.2-0.9,0.5-1.3c0.4-0.4,0.8-0.5,1.3-0.5H554.4z"/>
	</g>
	<path fill="#F06B25" d="M543.7,171.2c-5.1,0.1-9.3-4.2-9.3-9.3v-2.3c0-5.1,4.2-9.4,9.3-9.3c5,0.1,9,4.1,9,9.1h3.6
		c0-7.1-5.8-12.9-13-12.8c-7,0.1-12.6,6-12.6,13v2.3c0,7,5.6,12.9,12.6,13c6.4,0.1,11.8-4.6,12.8-10.7c0.2-1.1-0.7-2.1-1.8-2.1l0,0
		c-0.9,0-1.7,0.7-1.8,1.6C551.7,167.9,548.1,171.1,543.7,171.2z"/>
	<g>
		<path fill="#F06B25" d="M554.4,158c0.5,0,0.9,0.2,1.3,0.5c0.4,0.4,0.5,0.8,0.5,1.3s-0.2,0.9-0.5,1.3c-0.4,0.4-0.8,0.5-1.3,0.5h-49
			c-0.5,0-0.9-0.2-1.3-0.5c-0.4-0.4-0.5-0.8-0.5-1.3s0.2-0.9,0.5-1.3c0.4-0.4,0.8-0.5,1.3-0.5H554.4z"/>
	</g>
	<g>
		<path fill="#FECF09" d="M484.2,158c0.5,0,0.9,0.2,1.3,0.5c0.4,0.4,0.5,0.8,0.5,1.3s-0.2,0.9-0.5,1.3c-0.4,0.4-0.8,0.5-1.3,0.5
			h-29.4c-0.5,0-0.9-0.2-1.3-0.5c-0.4-0.4-0.5-0.8-0.5-1.3s0.2-0.9,0.5-1.3c0.4-0.4,0.8-0.5,1.3-0.5H484.2z"/>
	</g>
	<path fill="#B7417C" d="M532,138.5c-1.9-1.9-4.3-2.9-7-2.9l0,0l0,0l0,0l0,0c-2.7,0-5.1,1-7,2.9c-2,2-2.9,4.3-2.9,7.1v27.5
		c0,0.5,0.2,0.9,0.5,1.3c0.4,0.4,0.8,0.5,1.3,0.5s0.9-0.2,1.3-0.5c0.4-0.4,0.5-0.8,0.5-1.3v-27.5c0-1.8,0.6-3.3,1.9-4.5
		c1.2-1.2,2.7-1.9,4.5-1.9c1.7,0,3.2,0.6,4.5,1.9c1.2,1.2,1.8,2.7,1.9,4.4c0,0.1,0,0.2,0,0.3c0,1,0.8,1.8,1.8,1.8
		c0.9,0,1.7-0.7,1.8-1.6l0,0v-0.3C534.9,142.8,533.9,140.5,532,138.5z"/>
	<path fill="#FECF09" d="M472.7,171.2c-4.7-0.3-8.6-4.6-8.6-9.3v-2.4c0-4.7,3.8-9,8.6-9.3c5.3-0.3,9.7,3.9,9.7,9.1h3.6
		c0-7.3-6.1-13.1-13.5-12.8c-6.8,0.4-12.1,6.1-12.1,13v2.3c0,6.8,5.3,12.6,12.1,13c6.7,0.3,12.3-4.5,13.3-10.8
		c0.2-1-0.6-1.9-1.7-1.9l0,0c-1,0-1.8,0.7-2,1.7C481.4,168.2,477.4,171.5,472.7,171.2z"/>
</g>
<text transform="matrix(1 0 0 1 128.6995 264.8943)" fill="#010101" font-family="'OpenSans'" font-size="24">Melife gives you a vivid experience </text>
<text transform="matrix(1 0 0 1 128.6995 293.6943)" fill="#010101" font-family="'OpenSans'" font-size="24">of design and innovation in Melbourne.</text>
<text transform="matrix(1 0 0 1 128.6995 351.2941)" fill="#010101" font-family="'OpenSans'" font-size="24">Can’t wait to start ? Choose a finger </text>
<text transform="matrix(1 0 0 1 128.6995 380.0942)" fill="#010101" font-family="'OpenSans'" font-size="24">character you like, then the finger will</text>
<text transform="matrix(1 0 0 1 128.6995 408.8942)" fill="#010101" font-family="'OpenSans'" font-size="24">lead you to its corresponding category</text>
<text transform="matrix(1 0 0 1 128.6995 437.6943)" fill="#010101" font-family="'OpenSans'" font-size="24">to explore.</text>
<text transform="matrix(1 0 0 1 128.6995 495.2941)" fill="#010101" font-family="'OpenSans'" font-size="24">Remember, find all 8 products in each </text>
<text transform="matrix(1 0 0 1 128.6995 524.0942)" fill="#010101" font-family="'OpenSans'" font-size="24">category, a big surprise will come to you !</text>
</svg>
