<!-- Generator: Adobe Illustrator 18.0.0, SVG Export Plug-In  -->
<svg version="1.1"
	 xmlns="http://www.w3.org/2000/svg" xmlns:xlink="http://www.w3.org/1999/xlink" xmlns:a="http://ns.adobe.com/AdobeSVGViewerExtensions/3.0/"
	 x="0px" y="0px" width="192.6px" height="52.8px" viewBox="0 0 192.6 52.8" enable-background="new 0 0 192.6 52.8"
	 xml:space="preserve">
<defs>
</defs>
<g id="item_1_">
	<path fill="#BC4026" d="M6.8,8.4L13,1.3c0,0,31.9-5.1,85.9,5.1c-2.8,3.9-5.2,6.8-5.2,6.8S58.9,7.7,6.8,8.4z"/>
	<path fill="#ED5424" d="M1.8,31.4l5-23c0,0,46.3-1.4,87,4.8c1,5,2.6,12.9,3.7,22.7c5.3,0.5,16.2,1.5,16.2,1.5l-4.7,3.3L1.8,31.4z"
		/>
	<path fill="#D3D3D3" d="M96.7,35.2l23.8,2.2l-5.3,3.7l-20-1.8C95.3,39.3,96.5,37.8,96.7,35.2z"/>
	<path fill="#FFFFFF" d="M2.2,29.9c0,0,44.5,1.2,94.5,5.6c0.4,1.3-1.4,3.6-1.4,3.6l20,1.8l-5.8,11.9L0,42.9L2.2,29.9z"/>
	<path fill="#333333" d="M93.2,13.1c0,0,38.5,2.3,92.3,17.8c-0.4,4.7-1.7,18.4-1.7,18.4s-39.4-7.8-54.3-12.5
		c-18.5-5.9-24.2-5-33.5-4.4C95.5,29.2,93.2,13.1,93.2,13.1z"/>
	<polygon fill="#828181" points="192.6,23.5 190.9,42.7 185,49.4 186.7,31 	"/>
	<path fill="#1B1B1C" d="M99,6.4c0,0,34.4,1.5,93.6,17.1c-1.6,2-5.9,7.5-5.9,7.5s-55.9-14.9-92.9-17.9C95.2,11.1,99,6.4,99,6.4z"/>
	<polygon fill="#BCBCBC" points="109.6,51.5 114.5,48.4 120.5,37.4 115.2,41.1 	"/>
</g>
</svg>
