<!-- Generator: Adobe Illustrator 18.0.0, SVG Export Plug-In  -->
<svg version="1.1"
	 xmlns="http://www.w3.org/2000/svg" xmlns:xlink="http://www.w3.org/1999/xlink" xmlns:a="http://ns.adobe.com/AdobeSVGViewerExtensions/3.0/"
	 x="0px" y="0px" width="303.2px" height="101.4px" viewBox="0 0 303.2 101.4" enable-background="new 0 0 303.2 101.4"
	 xml:space="preserve">
<defs>
</defs>
<g>
	<g>
		<path fill="#2A3A8D" d="M46.4,89.3c0-0.1,0-0.2,0.1-0.3c0.1-0.1,0.2-0.1,0.3-0.1c0.1,0,0.2,0,0.3,0.1c0.1,0.1,0.1,0.2,0.1,0.3V98
			c0,0.1,0,0.2-0.1,0.3c-0.1,0.1-0.2,0.1-0.3,0.1c-0.1,0-0.2,0-0.3-0.1c-0.1-0.1-0.1-0.2-0.1-0.3V89.3z"/>
		<path fill="#2A3A8D" d="M48.8,92.2c0-0.1,0-0.2,0.1-0.3c0.1-0.1,0.2-0.1,0.3-0.1s0.2,0,0.3,0.1c0.1,0.1,0.1,0.2,0.1,0.3v0.4
			c0.6-0.6,1.3-0.9,2.2-0.9c0.9,0,1.6,0.3,2.2,0.9c0.6,0.6,0.9,1.4,0.9,2.2V98c0,0.1,0,0.2-0.1,0.3s-0.2,0.1-0.3,0.1s-0.2,0-0.3-0.1
			s-0.1-0.2-0.1-0.3v-3.2c0-0.6-0.2-1.1-0.6-1.5c-0.4-0.4-0.9-0.6-1.5-0.6c-0.6,0-1.1,0.2-1.5,0.6c-0.4,0.4-0.6,0.9-0.6,1.5V98
			c0,0.1,0,0.2-0.1,0.3c-0.1,0.1-0.2,0.1-0.3,0.1s-0.2,0-0.3-0.1c-0.1-0.1-0.1-0.2-0.1-0.3V92.2z"/>
		<path fill="#2A3A8D" d="M56.1,92.2c0-0.1,0-0.2,0.1-0.3s0.2-0.1,0.3-0.1s0.2,0,0.3,0.1s0.1,0.2,0.1,0.3v0.4
			c0.6-0.6,1.3-0.9,2.2-0.9c0.9,0,1.6,0.3,2.2,0.9c0.6,0.6,0.9,1.4,0.9,2.2V98c0,0.1,0,0.2-0.1,0.3c-0.1,0.1-0.2,0.1-0.3,0.1
			s-0.2,0-0.3-0.1c-0.1-0.1-0.1-0.2-0.1-0.3v-3.2c0-0.6-0.2-1.1-0.6-1.5c-0.4-0.4-0.9-0.6-1.5-0.6c-0.6,0-1.1,0.2-1.5,0.6
			c-0.4,0.4-0.6,0.9-0.6,1.5V98c0,0.1,0,0.2-0.1,0.3s-0.2,0.1-0.3,0.1s-0.2,0-0.3-0.1s-0.1-0.2-0.1-0.3V92.2z"/>
		<path fill="#2A3A8D" d="M70.2,95.1c0,0.9-0.3,1.7-1,2.4c-0.7,0.7-1.5,1-2.4,1c-0.9,0-1.7-0.3-2.4-1c-0.7-0.7-1-1.5-1-2.4
			c0-0.9,0.3-1.7,1-2.4c0.7-0.7,1.5-1,2.4-1c0.9,0,1.7,0.3,2.4,1C69.9,93.4,70.2,94.2,70.2,95.1z M66.8,92.7c-0.7,0-1.2,0.2-1.7,0.7
			c-0.5,0.5-0.7,1-0.7,1.7c0,0.7,0.2,1.2,0.7,1.7c0.5,0.5,1,0.7,1.7,0.7c0.7,0,1.2-0.2,1.7-0.7c0.5-0.5,0.7-1,0.7-1.7
			c0-0.7-0.2-1.2-0.7-1.7C68.1,92.9,67.5,92.7,66.8,92.7z"/>
		<path fill="#2A3A8D" d="M74.7,98.4c-0.1,0.1-0.2,0.1-0.3,0.1c-0.1,0-0.3,0-0.3-0.1c0,0-0.1-0.1-0.1-0.1l-2.7-5.9
			c0-0.1,0-0.1,0-0.2c0-0.1,0-0.2,0.1-0.3c0.1-0.1,0.2-0.1,0.3-0.1c0.1,0,0.2,0,0.3,0.1c0,0,0.1,0.1,0.1,0.1l2.2,4.9l2.2-4.9
			c0-0.1,0.1-0.1,0.1-0.1c0.1-0.1,0.2-0.1,0.3-0.1c0.1,0,0.2,0,0.3,0.1c0.1,0.1,0.1,0.2,0.1,0.3c0,0.1,0,0.1,0,0.2l-2.7,5.9
			C74.7,98.3,74.7,98.3,74.7,98.4z"/>
		<path fill="#2A3A8D" d="M84.3,97.5c-0.7,0.7-1.5,1-2.4,1c-0.9,0-1.7-0.3-2.4-1c-0.7-0.7-1-1.5-1-2.4c0-0.9,0.3-1.7,1-2.4
			c0.7-0.7,1.5-1,2.4-1c0.9,0,1.7,0.3,2.4,1s1,1.5,1,2.4V98c0,0.1,0,0.2-0.1,0.3c-0.1,0.1-0.2,0.1-0.3,0.1c-0.1,0-0.2,0-0.3-0.1
			c-0.1-0.1-0.1-0.2-0.1-0.3V97.5z M81.9,92.7c-0.7,0-1.2,0.2-1.7,0.7c-0.5,0.5-0.7,1-0.7,1.7c0,0.7,0.2,1.2,0.7,1.7
			c0.5,0.5,1,0.7,1.7,0.7c0.7,0,1.2-0.2,1.7-0.7c0.5-0.5,0.7-1,0.7-1.7c0-0.7-0.2-1.2-0.7-1.7C83.1,92.9,82.6,92.7,81.9,92.7z"/>
		<path fill="#2A3A8D" d="M89.7,97.5c0.1,0,0.2,0,0.3,0.1c0.1,0.1,0.1,0.2,0.1,0.3c0,0.1,0,0.2-0.1,0.3c-0.1,0.1-0.2,0.1-0.3,0.1
			c-1.6,0-2.4-0.8-2.4-2.4v-3.4h-0.5c-0.1,0-0.2,0-0.3-0.1s-0.1-0.2-0.1-0.3c0-0.1,0-0.2,0.1-0.3s0.2-0.1,0.3-0.1h0.5v-2.4
			c0-0.1,0-0.2,0.1-0.3s0.2-0.1,0.3-0.1c0.1,0,0.2,0,0.3,0.1s0.1,0.2,0.1,0.3v2.4h1c0.1,0,0.2,0,0.3,0.1s0.1,0.2,0.1,0.3
			c0,0.1,0,0.2-0.1,0.3s-0.2,0.1-0.3,0.1h-1v3.4C88.2,97.1,88.7,97.5,89.7,97.5z"/>
		<path fill="#2A3A8D" d="M92.7,90.2c0,0.2-0.1,0.3-0.2,0.4c-0.1,0.1-0.3,0.2-0.4,0.2c-0.2,0-0.3-0.1-0.4-0.2
			c-0.1-0.1-0.2-0.3-0.2-0.4c0-0.2,0.1-0.3,0.2-0.4c0.1-0.1,0.3-0.2,0.4-0.2c0.2,0,0.3,0.1,0.4,0.2C92.6,89.9,92.7,90.1,92.7,90.2z
			 M91.6,92.2c0-0.1,0-0.2,0.1-0.3s0.2-0.1,0.3-0.1c0.1,0,0.2,0,0.3,0.1s0.1,0.2,0.1,0.3V98c0,0.1,0,0.2-0.1,0.3s-0.2,0.1-0.3,0.1
			c-0.1,0-0.2,0-0.3-0.1s-0.1-0.2-0.1-0.3V92.2z"/>
		<path fill="#2A3A8D" d="M100.9,95.1c0,0.9-0.3,1.7-1,2.4c-0.7,0.7-1.5,1-2.4,1c-0.9,0-1.7-0.3-2.4-1s-1-1.5-1-2.4
			c0-0.9,0.3-1.7,1-2.4s1.5-1,2.4-1c0.9,0,1.7,0.3,2.4,1C100.5,93.4,100.9,94.2,100.9,95.1z M97.4,92.7c-0.7,0-1.2,0.2-1.7,0.7
			c-0.5,0.5-0.7,1-0.7,1.7c0,0.7,0.2,1.2,0.7,1.7c0.5,0.5,1,0.7,1.7,0.7c0.7,0,1.2-0.2,1.7-0.7c0.5-0.5,0.7-1,0.7-1.7
			c0-0.7-0.2-1.2-0.7-1.7C98.7,92.9,98.1,92.7,97.4,92.7z"/>
		<path fill="#2A3A8D" d="M101.8,92.2c0-0.1,0-0.2,0.1-0.3c0.1-0.1,0.2-0.1,0.3-0.1c0.1,0,0.2,0,0.3,0.1c0.1,0.1,0.1,0.2,0.1,0.3
			v0.4c0.6-0.6,1.3-0.9,2.2-0.9c0.9,0,1.6,0.3,2.2,0.9c0.6,0.6,0.9,1.4,0.9,2.2V98c0,0.1,0,0.2-0.1,0.3c-0.1,0.1-0.2,0.1-0.3,0.1
			c-0.1,0-0.2,0-0.3-0.1s-0.1-0.2-0.1-0.3v-3.2c0-0.6-0.2-1.1-0.6-1.5c-0.4-0.4-0.9-0.6-1.5-0.6c-0.6,0-1.1,0.2-1.5,0.6
			c-0.4,0.4-0.6,0.9-0.6,1.5V98c0,0.1,0,0.2-0.1,0.3c-0.1,0.1-0.2,0.1-0.3,0.1c-0.1,0-0.2,0-0.3-0.1c-0.1-0.1-0.1-0.2-0.1-0.3V92.2z
			"/>
		<path fill="#2A3A8D" d="M115,97.5c-0.7,0.7-1.5,1-2.4,1c-0.9,0-1.7-0.3-2.4-1c-0.7-0.7-1-1.5-1-2.4c0-0.9,0.3-1.7,1-2.4
			c0.7-0.7,1.5-1,2.4-1c0.9,0,1.7,0.3,2.4,1s1,1.5,1,2.4V98c0,0.1,0,0.2-0.1,0.3c-0.1,0.1-0.2,0.1-0.3,0.1c-0.1,0-0.2,0-0.3-0.1
			c-0.1-0.1-0.1-0.2-0.1-0.3V97.5z M112.5,92.7c-0.7,0-1.2,0.2-1.7,0.7c-0.5,0.5-0.7,1-0.7,1.7c0,0.7,0.2,1.2,0.7,1.7
			c0.5,0.5,1,0.7,1.7,0.7c0.7,0,1.2-0.2,1.7-0.7c0.5-0.5,0.7-1,0.7-1.7c0-0.7-0.2-1.2-0.7-1.7C113.8,92.9,113.2,92.7,112.5,92.7z"/>
		<path fill="#2A3A8D" d="M118.1,95.1c-0.4-0.1-0.6-0.3-0.8-0.4c-0.3-0.3-0.4-0.6-0.4-1c0-0.4,0.1-0.8,0.4-1.1
			c0.6-0.6,1.3-0.9,2.3-0.9c1,0,1.9,0.4,2.6,1.2c0.1,0.1,0.1,0.2,0.1,0.3c0,0.1,0,0.2-0.1,0.3s-0.2,0.1-0.3,0.1
			c-0.1,0-0.2,0-0.3-0.1c-0.1-0.1-0.1-0.1-0.2-0.2c-0.5-0.5-1-0.7-1.7-0.7c-0.7,0-1.2,0.2-1.6,0.6c-0.1,0.1-0.1,0.3-0.1,0.4
			c0,0.2,0.1,0.3,0.3,0.4l3,1c0.4,0.1,0.6,0.3,0.8,0.4c0.3,0.3,0.4,0.6,0.4,1s-0.1,0.8-0.4,1.1c-0.6,0.6-1.3,0.9-2.3,0.9
			c-1,0-1.9-0.4-2.6-1.2c-0.1-0.1-0.1-0.2-0.1-0.3c0-0.1,0-0.2,0.1-0.3c0.1-0.1,0.2-0.1,0.3-0.1c0.1,0,0.2,0,0.3,0.1
			c0.1,0.1,0.1,0.1,0.2,0.2c0.5,0.5,1,0.7,1.7,0.7c0.7,0,1.2-0.2,1.6-0.6c0.1-0.1,0.1-0.3,0.1-0.4c0-0.2-0.1-0.3-0.3-0.4L118.1,95.1
			z"/>
		<path fill="#2A3A8D" d="M132.8,97.5c-0.7,0.7-1.5,1-2.4,1c-0.9,0-1.7-0.3-2.4-1c-0.7-0.7-1-1.5-1-2.4c0-0.9,0.3-1.7,1-2.4
			c0.7-0.7,1.5-1,2.4-1c0.9,0,1.7,0.3,2.4,1c0.7,0.7,1,1.5,1,2.4V98c0,0.1,0,0.2-0.1,0.3c-0.1,0.1-0.2,0.1-0.3,0.1s-0.2,0-0.3-0.1
			c-0.1-0.1-0.1-0.2-0.1-0.3V97.5z M130.4,92.7c-0.7,0-1.2,0.2-1.7,0.7c-0.5,0.5-0.7,1-0.7,1.7c0,0.7,0.2,1.2,0.7,1.7
			c0.5,0.5,1,0.7,1.7,0.7c0.7,0,1.2-0.2,1.7-0.7c0.5-0.5,0.7-1,0.7-1.7c0-0.7-0.2-1.2-0.7-1.7S131.1,92.7,130.4,92.7z"/>
		<path fill="#2A3A8D" d="M134.8,92.2c0-0.1,0-0.2,0.1-0.3s0.2-0.1,0.3-0.1s0.2,0,0.3,0.1c0.1,0.1,0.1,0.2,0.1,0.3v0.4
			c0.6-0.6,1.3-0.9,2.2-0.9c0.9,0,1.6,0.3,2.2,0.9c0.6,0.6,0.9,1.4,0.9,2.2V98c0,0.1,0,0.2-0.1,0.3s-0.2,0.1-0.3,0.1s-0.2,0-0.3-0.1
			c-0.1-0.1-0.1-0.2-0.1-0.3v-3.2c0-0.6-0.2-1.1-0.6-1.5c-0.4-0.4-0.9-0.6-1.5-0.6c-0.6,0-1.1,0.2-1.5,0.6c-0.4,0.4-0.6,0.9-0.6,1.5
			V98c0,0.1,0,0.2-0.1,0.3c-0.1,0.1-0.2,0.1-0.3,0.1s-0.2,0-0.3-0.1s-0.1-0.2-0.1-0.3V92.2z"/>
		<path fill="#2A3A8D" d="M147.9,89.3c0-0.1,0-0.2,0.1-0.3c0.1-0.1,0.2-0.1,0.3-0.1c0.1,0,0.2,0,0.3,0.1s0.1,0.2,0.1,0.3v5.8
			c0,0.9-0.3,1.7-1,2.4c-0.7,0.7-1.5,1-2.4,1c-0.9,0-1.7-0.3-2.4-1c-0.7-0.7-1-1.5-1-2.4c0-0.9,0.3-1.7,1-2.4c0.7-0.7,1.5-1,2.4-1
			c0.9,0,1.7,0.3,2.4,1c0,0,0,0,0,0V89.3z M147.9,95.1c0-0.7-0.2-1.2-0.7-1.7c-0.5-0.5-1-0.7-1.7-0.7c-0.7,0-1.2,0.2-1.7,0.7
			s-0.7,1-0.7,1.7c0,0.7,0.2,1.2,0.7,1.7c0.5,0.5,1,0.7,1.7,0.7c0.7,0,1.2-0.2,1.7-0.7C147.7,96.4,147.9,95.8,147.9,95.1z"/>
		<path fill="#2A3A8D" d="M159.3,89.3c0-0.1,0-0.2,0.1-0.3c0.1-0.1,0.2-0.1,0.3-0.1s0.2,0,0.3,0.1c0.1,0.1,0.1,0.2,0.1,0.3v5.8
			c0,0.9-0.3,1.7-1,2.4c-0.7,0.7-1.5,1-2.4,1c-0.9,0-1.7-0.3-2.4-1s-1-1.5-1-2.4c0-0.9,0.3-1.7,1-2.4s1.5-1,2.4-1
			c0.9,0,1.7,0.3,2.4,1c0,0,0,0,0,0V89.3z M159.3,95.1c0-0.7-0.2-1.2-0.7-1.7s-1-0.7-1.7-0.7c-0.7,0-1.2,0.2-1.7,0.7
			c-0.5,0.5-0.7,1-0.7,1.7c0,0.7,0.2,1.2,0.7,1.7c0.5,0.5,1,0.7,1.7,0.7c0.7,0,1.2-0.2,1.7-0.7C159.1,96.4,159.3,95.8,159.3,95.1z"
			/>
		<path fill="#2A3A8D" d="M166.6,96.9c0.1,0,0.2,0,0.3,0.1c0.1,0.1,0.1,0.2,0.1,0.3c0,0.1,0,0.2-0.1,0.3c-0.6,0.5-1.4,0.8-2.2,0.8
			c-0.9,0-1.7-0.3-2.4-1c-0.7-0.7-1-1.5-1-2.4c0-0.9,0.3-1.7,1-2.4c0.7-0.7,1.5-1,2.4-1c0.9,0,1.7,0.3,2.4,1c0.7,0.7,1,1.5,1,2.4
			c0,0.1,0,0.2-0.1,0.3c-0.1,0.1-0.2,0.1-0.3,0.1h-5.3c0.1,0.5,0.3,0.9,0.7,1.2c0.5,0.5,1,0.7,1.7,0.7c0.6,0,1.1-0.2,1.6-0.6
			C166.3,96.9,166.4,96.9,166.6,96.9z M167.1,94.6c-0.1-0.5-0.3-0.9-0.7-1.2c-0.5-0.5-1-0.7-1.7-0.7c-0.7,0-1.2,0.2-1.7,0.7
			c-0.4,0.4-0.6,0.8-0.7,1.2H167.1z"/>
		<path fill="#2A3A8D" d="M170.3,95.1c-0.4-0.1-0.6-0.3-0.8-0.4c-0.3-0.3-0.4-0.6-0.4-1c0-0.4,0.2-0.8,0.4-1.1
			c0.6-0.6,1.3-0.9,2.3-0.9c1,0,1.9,0.4,2.6,1.2c0.1,0.1,0.1,0.2,0.1,0.3c0,0.1,0,0.2-0.1,0.3c-0.1,0.1-0.2,0.1-0.3,0.1
			c-0.1,0-0.2,0-0.3-0.1c-0.1-0.1-0.1-0.1-0.2-0.2c-0.5-0.5-1-0.7-1.7-0.7c-0.7,0-1.2,0.2-1.6,0.6c-0.1,0.1-0.1,0.3-0.1,0.4
			c0,0.2,0.1,0.3,0.3,0.4l3,1c0.4,0.1,0.6,0.3,0.8,0.4c0.3,0.3,0.4,0.6,0.4,1s-0.1,0.8-0.4,1.1c-0.6,0.6-1.3,0.9-2.3,0.9
			c-1,0-1.9-0.4-2.6-1.2c-0.1-0.1-0.1-0.2-0.1-0.3c0-0.1,0-0.2,0.1-0.3c0.1-0.1,0.2-0.1,0.3-0.1s0.2,0,0.3,0.1
			c0.1,0.1,0.1,0.1,0.2,0.2c0.5,0.5,1,0.7,1.7,0.7c0.7,0,1.2-0.2,1.6-0.6c0.1-0.1,0.1-0.3,0.1-0.4c0-0.2-0.1-0.3-0.3-0.4L170.3,95.1
			z"/>
		<path fill="#2A3A8D" d="M177.1,90.2c0,0.2-0.1,0.3-0.2,0.4c-0.1,0.1-0.3,0.2-0.4,0.2c-0.2,0-0.3-0.1-0.4-0.2
			c-0.1-0.1-0.2-0.3-0.2-0.4c0-0.2,0.1-0.3,0.2-0.4c0.1-0.1,0.3-0.2,0.4-0.2c0.2,0,0.3,0.1,0.4,0.2C177,89.9,177.1,90.1,177.1,90.2z
			 M176,92.2c0-0.1,0-0.2,0.1-0.3c0.1-0.1,0.2-0.1,0.3-0.1c0.1,0,0.2,0,0.3,0.1c0.1,0.1,0.1,0.2,0.1,0.3V98c0,0.1,0,0.2-0.1,0.3
			c-0.1,0.1-0.2,0.1-0.3,0.1c-0.1,0-0.2,0-0.3-0.1c-0.1-0.1-0.1-0.2-0.1-0.3V92.2z"/>
		<path fill="#2A3A8D" d="M184.3,97.5C184.2,97.5,184.2,97.5,184.3,97.5c-0.7,0.7-1.5,1-2.4,1c-0.9,0-1.7-0.3-2.4-1
			c-0.7-0.7-1-1.5-1-2.4c0-0.9,0.3-1.7,1-2.4c0.7-0.7,1.5-1,2.4-1c0.9,0,1.7,0.3,2.4,1c0.7,0.7,1,1.5,1,2.4v3.4
			c0,0.7-0.3,1.3-0.8,1.8c-0.7,0.7-1.6,1.1-2.6,1.1c-1,0-1.9-0.4-2.6-1.1c-0.3-0.3-0.5-0.5-0.6-0.8c0-0.1-0.1-0.2-0.1-0.3
			c0-0.1,0-0.2,0.1-0.3c0.1-0.1,0.2-0.1,0.3-0.1s0.2,0,0.3,0.1c0,0,0.1,0.1,0.1,0.1c0.1,0.2,0.3,0.4,0.5,0.6
			c0.5,0.5,1.2,0.8,1.9,0.8c0.7,0,1.4-0.3,1.9-0.8c0.3-0.4,0.5-0.8,0.5-1.2V97.5z M181.8,92.7c-0.7,0-1.2,0.2-1.7,0.7
			c-0.5,0.5-0.7,1-0.7,1.7c0,0.7,0.2,1.2,0.7,1.7c0.5,0.5,1,0.7,1.7,0.7c0.7,0,1.2-0.2,1.7-0.7c0.5-0.5,0.7-1,0.7-1.7
			c0-0.7-0.2-1.2-0.7-1.7C183.1,92.9,182.5,92.7,181.8,92.7z"/>
		<path fill="#2A3A8D" d="M186.2,92.2c0-0.1,0-0.2,0.1-0.3c0.1-0.1,0.2-0.1,0.3-0.1c0.1,0,0.2,0,0.3,0.1c0.1,0.1,0.1,0.2,0.1,0.3
			v0.4c0.6-0.6,1.3-0.9,2.2-0.9c0.9,0,1.6,0.3,2.2,0.9c0.6,0.6,0.9,1.4,0.9,2.2V98c0,0.1,0,0.2-0.1,0.3c-0.1,0.1-0.2,0.1-0.3,0.1
			s-0.2,0-0.3-0.1c-0.1-0.1-0.1-0.2-0.1-0.3v-3.2c0-0.6-0.2-1.1-0.6-1.5c-0.4-0.4-0.9-0.6-1.5-0.6c-0.6,0-1.1,0.2-1.5,0.6
			c-0.4,0.4-0.6,0.9-0.6,1.5V98c0,0.1,0,0.2-0.1,0.3c-0.1,0.1-0.2,0.1-0.3,0.1c-0.1,0-0.2,0-0.3-0.1c-0.1-0.1-0.1-0.2-0.1-0.3V92.2z
			"/>
		<path fill="#2A3A8D" d="M198.7,90.2c0,0.2-0.1,0.3-0.2,0.4c-0.1,0.1-0.3,0.2-0.4,0.2c-0.2,0-0.3-0.1-0.4-0.2
			c-0.1-0.1-0.2-0.3-0.2-0.4c0-0.2,0.1-0.3,0.2-0.4c0.1-0.1,0.3-0.2,0.4-0.2c0.2,0,0.3,0.1,0.4,0.2
			C198.7,89.9,198.7,90.1,198.7,90.2z M197.6,92.2c0-0.1,0-0.2,0.1-0.3c0.1-0.1,0.2-0.1,0.3-0.1s0.2,0,0.3,0.1
			c0.1,0.1,0.1,0.2,0.1,0.3V98c0,0.1,0,0.2-0.1,0.3c-0.1,0.1-0.2,0.1-0.3,0.1s-0.2,0-0.3-0.1c-0.1-0.1-0.1-0.2-0.1-0.3V92.2z"/>
		<path fill="#2A3A8D" d="M200.1,92.2c0-0.1,0-0.2,0.1-0.3c0.1-0.1,0.2-0.1,0.3-0.1s0.2,0,0.3,0.1c0.1,0.1,0.1,0.2,0.1,0.3v0.4
			c0.6-0.6,1.3-0.9,2.2-0.9c0.9,0,1.6,0.3,2.2,0.9c0.6,0.6,0.9,1.4,0.9,2.2V98c0,0.1,0,0.2-0.1,0.3c-0.1,0.1-0.2,0.1-0.3,0.1
			s-0.2,0-0.3-0.1c-0.1-0.1-0.1-0.2-0.1-0.3v-3.2c0-0.6-0.2-1.1-0.6-1.5c-0.4-0.4-0.9-0.6-1.5-0.6c-0.6,0-1.1,0.2-1.5,0.6
			c-0.4,0.4-0.6,0.9-0.6,1.5V98c0,0.1,0,0.2-0.1,0.3c-0.1,0.1-0.2,0.1-0.3,0.1s-0.2,0-0.3-0.1c-0.1-0.1-0.1-0.2-0.1-0.3V92.2z"/>
		<path fill="#2A3A8D" d="M215.4,98.2l-3.4-6.9V98c0,0.1,0,0.2-0.1,0.3c-0.1,0.1-0.2,0.1-0.3,0.1c-0.1,0-0.2,0-0.3-0.1
			c-0.1-0.1-0.1-0.2-0.1-0.3v-8.8c0-0.1,0-0.2,0.1-0.3c0.1-0.1,0.2-0.1,0.3-0.1c0.2,0,0.3,0.1,0.4,0.3l3.9,7.9l3.9-7.9
			c0.1-0.2,0.2-0.3,0.4-0.3c0.1,0,0.2,0,0.3,0.1c0.1,0.1,0.1,0.2,0.1,0.3V98c0,0.1,0,0.2-0.1,0.3c-0.1,0.1-0.2,0.1-0.3,0.1
			c-0.1,0-0.2,0-0.3-0.1c-0.1-0.1-0.1-0.2-0.1-0.3v-6.7l-3.5,6.9c-0.1,0.2-0.2,0.2-0.4,0.2C215.7,98.5,215.5,98.4,215.4,98.2z"/>
		<path fill="#2A3A8D" d="M227,96.9c0.1,0,0.2,0,0.3,0.1c0.1,0.1,0.1,0.2,0.1,0.3c0,0.1,0,0.2-0.1,0.3c-0.6,0.5-1.4,0.8-2.2,0.8
			c-0.9,0-1.7-0.3-2.4-1c-0.7-0.7-1-1.5-1-2.4c0-0.9,0.3-1.7,1-2.4c0.7-0.7,1.5-1,2.4-1s1.7,0.3,2.4,1c0.7,0.7,1,1.5,1,2.4
			c0,0.1,0,0.2-0.1,0.3c-0.1,0.1-0.2,0.1-0.3,0.1h-5.3c0.1,0.5,0.3,0.9,0.7,1.2c0.5,0.5,1,0.7,1.7,0.7c0.6,0,1.1-0.2,1.6-0.6
			C226.8,96.9,226.9,96.9,227,96.9z M227.5,94.6c-0.1-0.5-0.3-0.9-0.7-1.2c-0.5-0.5-1-0.7-1.7-0.7s-1.2,0.2-1.7,0.7
			c-0.4,0.4-0.6,0.8-0.7,1.2H227.5z"/>
		<path fill="#2A3A8D" d="M229.5,89.3c0-0.1,0-0.2,0.1-0.3c0.1-0.1,0.2-0.1,0.3-0.1c0.1,0,0.2,0,0.3,0.1c0.1,0.1,0.1,0.2,0.1,0.3
			v8.3h0.5c0.1,0,0.2,0,0.3,0.1c0.1,0.1,0.1,0.2,0.1,0.3c0,0.1,0,0.2-0.1,0.3c-0.1,0.1-0.2,0.1-0.3,0.1h-1c-0.1,0-0.2,0-0.3-0.1
			c-0.1-0.1-0.1-0.2-0.1-0.3V89.3z"/>
		<path fill="#2A3A8D" d="M233.4,92.7C233.4,92.7,233.4,92.7,233.4,92.7c0.7-0.7,1.5-1,2.4-1s1.7,0.3,2.4,1c0.7,0.7,1,1.5,1,2.4
			c0,0.9-0.3,1.7-1,2.4c-0.7,0.7-1.5,1-2.4,1s-1.7-0.3-2.4-1c-0.7-0.7-1-1.5-1-2.4v-5.8c0-0.1,0-0.2,0.1-0.3
			c0.1-0.1,0.2-0.1,0.3-0.1s0.2,0,0.3,0.1c0.1,0.1,0.1,0.2,0.1,0.3V92.7z M235.8,97.5c0.7,0,1.2-0.2,1.7-0.7c0.5-0.5,0.7-1,0.7-1.7
			c0-0.7-0.2-1.2-0.7-1.7c-0.5-0.5-1-0.7-1.7-0.7s-1.2,0.2-1.7,0.7s-0.7,1-0.7,1.7c0,0.7,0.2,1.2,0.7,1.7
			C234.6,97.3,235.1,97.5,235.8,97.5z"/>
		<path fill="#2A3A8D" d="M247,95.1c0,0.9-0.3,1.7-1,2.4c-0.7,0.7-1.5,1-2.4,1s-1.7-0.3-2.4-1c-0.7-0.7-1-1.5-1-2.4
			c0-0.9,0.3-1.7,1-2.4c0.7-0.7,1.5-1,2.4-1s1.7,0.3,2.4,1C246.7,93.4,247,94.2,247,95.1z M243.6,92.7c-0.7,0-1.2,0.2-1.7,0.7
			c-0.5,0.5-0.7,1-0.7,1.7c0,0.7,0.2,1.2,0.7,1.7c0.5,0.5,1,0.7,1.7,0.7s1.2-0.2,1.7-0.7c0.5-0.5,0.7-1,0.7-1.7
			c0-0.7-0.2-1.2-0.7-1.7C244.8,92.9,244.3,92.7,243.6,92.7z"/>
		<path fill="#2A3A8D" d="M254.3,98c0,0.1,0,0.2-0.1,0.3c-0.1,0.1-0.2,0.1-0.3,0.1s-0.2,0-0.3-0.1c-0.1-0.1-0.1-0.2-0.1-0.3v-0.4
			c-0.6,0.6-1.3,0.9-2.2,0.9c-0.9,0-1.6-0.3-2.2-0.9c-0.6-0.6-0.9-1.4-0.9-2.2v-3.2c0-0.1,0-0.2,0.1-0.3c0.1-0.1,0.2-0.1,0.3-0.1
			c0.1,0,0.2,0,0.3,0.1c0.1,0.1,0.1,0.2,0.1,0.3v3.2c0,0.6,0.2,1.1,0.6,1.5c0.4,0.4,0.9,0.6,1.5,0.6s1.1-0.2,1.5-0.6
			c0.4-0.4,0.6-0.9,0.6-1.5v-3.2c0-0.1,0-0.2,0.1-0.3c0.1-0.1,0.2-0.1,0.3-0.1s0.2,0,0.3,0.1c0.1,0.1,0.1,0.2,0.1,0.3V98z"/>
		<path fill="#2A3A8D" d="M255.3,92.2c0-0.1,0-0.2,0.1-0.3c0.1-0.1,0.2-0.1,0.3-0.1c0.1,0,0.2,0,0.3,0.1c0.1,0.1,0.1,0.2,0.1,0.3
			v0.5c0.7-0.7,1.5-1,2.4-1c0.5,0,0.9,0.1,1.3,0.2c0.1,0,0.1,0.1,0.2,0.1c0.1,0.1,0.1,0.2,0.1,0.3c0,0.1,0,0.2-0.1,0.3
			c-0.1,0.1-0.2,0.1-0.3,0.1c-0.1,0-0.1,0-0.2,0c-0.3-0.1-0.6-0.2-0.9-0.2c-0.7,0-1.2,0.2-1.7,0.7c-0.5,0.5-0.7,1-0.7,1.7V98
			c0,0.1,0,0.2-0.1,0.3c-0.1,0.1-0.2,0.1-0.3,0.1c-0.1,0-0.2,0-0.3-0.1c-0.1-0.1-0.1-0.2-0.1-0.3V92.2z"/>
		<path fill="#2A3A8D" d="M261.1,92.2c0-0.1,0-0.2,0.1-0.3c0.1-0.1,0.2-0.1,0.3-0.1c0.1,0,0.2,0,0.3,0.1c0.1,0.1,0.1,0.2,0.1,0.3
			v0.4c0.6-0.6,1.3-0.9,2.2-0.9c0.9,0,1.6,0.3,2.2,0.9c0.6,0.6,0.9,1.4,0.9,2.2V98c0,0.1,0,0.2-0.1,0.3s-0.2,0.1-0.3,0.1
			c-0.1,0-0.2,0-0.3-0.1s-0.1-0.2-0.1-0.3v-3.2c0-0.6-0.2-1.1-0.6-1.5c-0.4-0.4-0.9-0.6-1.5-0.6c-0.6,0-1.1,0.2-1.5,0.6
			c-0.4,0.4-0.6,0.9-0.6,1.5V98c0,0.1,0,0.2-0.1,0.3c-0.1,0.1-0.2,0.1-0.3,0.1c-0.1,0-0.2,0-0.3-0.1c-0.1-0.1-0.1-0.2-0.1-0.3V92.2z
			"/>
		<path fill="#2A3A8D" d="M273.7,96.9c0.1,0,0.2,0,0.3,0.1s0.1,0.2,0.1,0.3c0,0.1,0,0.2-0.1,0.3c-0.6,0.5-1.4,0.8-2.2,0.8
			c-0.9,0-1.7-0.3-2.4-1s-1-1.5-1-2.4c0-0.9,0.3-1.7,1-2.4s1.5-1,2.4-1c0.9,0,1.7,0.3,2.4,1c0.7,0.7,1,1.5,1,2.4
			c0,0.1,0,0.2-0.1,0.3c-0.1,0.1-0.2,0.1-0.3,0.1h-5.3c0.1,0.5,0.3,0.9,0.7,1.2c0.5,0.5,1,0.7,1.7,0.7c0.6,0,1.1-0.2,1.6-0.6
			C273.4,96.9,273.5,96.9,273.7,96.9z M274.2,94.6c-0.1-0.5-0.3-0.9-0.7-1.2c-0.5-0.5-1-0.7-1.7-0.7s-1.2,0.2-1.7,0.7
			c-0.4,0.4-0.6,0.8-0.7,1.2H274.2z"/>
	</g>
	<path fill="#2A3A8D" d="M192.4,25.8c-0.8-0.8-1.8-1.2-2.9-1.2c-1.1,0-2.1,0.4-2.9,1.2c-0.8,0.8-1.2,1.8-1.2,2.9v30.5
		c0,3.9-1.4,7.3-4.2,10c-2.8,2.8-6.1,4.1-10,4.2c-3.9,0-7.2-1.4-10-4.2c-2.8-2.8-4.2-6.1-4.2-10V4.1c0-1.1-0.4-2.1-1.2-2.9
		c-0.8-0.8-1.8-1.2-2.9-1.2s-2.1,0.4-2.9,1.2C149.4,2,149,2.9,149,4.1v55.1c0,6.2,2.2,11.4,6.5,15.8c4.3,4.3,9.6,6.5,15.7,6.5v0
		c0,0,0,0,0.1,0c0,0,0,0,0.1,0v0c6.1,0,11.3-2.2,15.7-6.5c4.4-4.4,6.5-9.6,6.5-15.8V28.7C193.6,27.6,193.2,26.6,192.4,25.8z"/>
	<path fill="#F16A25" d="M193.6,54V28.4c0-1.1-0.4-2.1-1.2-2.9c-0.8-0.8-1.8-1.2-2.9-1.2c-1.1,0-2.1,0.4-2.9,1.2
		c-0.8,0.8-1.2,1.8-1.2,2.9V54H193.6z"/>
	<path fill="#0D8450" d="M38,30.9c-4.3-4.3-9.6-6.5-15.7-6.5v0c0,0,0,0-0.1,0c0,0,0,0-0.1,0v0c-6.1,0-11.3,2.2-15.7,6.5
		C2.2,35.3,0,40.5,0,46.7L0,53c0,1.1,0.4,2.1,1.2,2.9c0.8,0.8,1.8,1.2,2.9,1.2s2.1-0.4,2.9-1.2c0.8-0.8,1.2-1.8,1.2-2.9v-6.4
		c0-3.9,1.4-7.3,4.2-10c2.8-2.8,6.1-4.1,10-4.2c3.9,0,7.2,1.4,10,4.2c2.8,2.8,4.2,6.1,4.2,10v38.7c0,1.1,0.4,2.1,1.2,2.9
		c0.8,0.8,1.8,1.2,2.9,1.2c1.1,0,2.1-0.4,2.9-1.2c0.8-0.8,1.2-1.8,1.2-2.9l0-38.7C44.5,40.5,42.4,35.3,38,30.9z"/>
	<path fill="#0D8450" d="M43.4,30.9c4.3-4.3,9.6-6.5,15.7-6.5v0c0,0,0,0,0.1,0s0,0,0.1,0v0c6.1,0,11.3,2.2,15.7,6.5
		c4.4,4.4,6.5,9.6,6.5,15.8V54c0,1.1-0.4,2.1-1.2,2.9c-0.8,0.8-1.8,1.2-2.9,1.2c-1.1,0-2.1-0.4-2.9-1.2c-0.8-0.8-1.2-1.8-1.2-2.9
		v-7.3c0-3.9-1.4-7.3-4.2-10c-2.8-2.8-6.1-4.1-10-4.2c-3.9,0-7.2,1.4-10,4.2c-2.8,2.8-4.2,6.1-4.2,10v38.7c0,1.1-0.4,2.1-1.2,2.9
		c-0.8,0.8-1.8,1.2-2.9,1.2c-1.1,0-2.1-0.4-2.9-1.2c-0.8-0.8-1.2-1.8-1.2-2.9V46.7C36.9,40.5,39.1,35.3,43.4,30.9z"/>
	<circle fill="#F16A25" cx="190" cy="12.4" r="4.8"/>
	<g>
		<path fill="#B6407B" d="M299.1,49.9c1.1,0,2.1,0.4,2.9,1.2c0.8,0.8,1.2,1.8,1.2,2.9c0,1.1-0.4,2.1-1.2,2.9
			c-0.8,0.8-1.8,1.2-2.9,1.2h-65.3c-1.1,0-2.1-0.4-2.9-1.2c-0.8-0.8-1.2-1.8-1.2-2.9c0-1.1,0.4-2.1,1.2-2.9c0.8-0.8,1.8-1.2,2.9-1.2
			H299.1z"/>
	</g>
	<path fill="#F16A25" d="M275.2,79.4c-11.4,0.2-20.7-9.3-20.7-20.7v-5.2c0-11.4,9.3-20.9,20.7-20.7c11,0.2,19.9,9.2,19.9,20.3h8.1
		c0-15.9-13-28.7-28.9-28.4c-15.6,0.3-27.9,13.3-27.9,28.9v5c0,15.6,12.4,28.6,27.9,28.9c14.3,0.2,26.3-10.2,28.5-23.8
		c0.4-2.4-1.5-4.6-3.9-4.6l0,0c-2,0-3.8,1.5-4.1,3.5C293.2,72,285,79.2,275.2,79.4z"/>
	<g>
		<path fill="#F16A25" d="M299.1,49.9c1.1,0,2.1,0.4,2.9,1.2c0.8,0.8,1.2,1.8,1.2,2.9c0,1.1-0.4,2.1-1.2,2.9
			c-0.8,0.8-1.8,1.2-2.9,1.2H190c-1.1,0-2.1-0.4-2.9-1.2c-0.8-0.8-1.2-1.8-1.2-2.9c0-1.1,0.4-2.1,1.2-2.9c0.8-0.8,1.8-1.2,2.9-1.2
			H299.1z"/>
	</g>
	<g>
		<path fill="#FFCF01" d="M142.8,49.9c1.1,0,2.1,0.4,2.9,1.2c0.8,0.8,1.2,1.8,1.2,2.9c0,1.1-0.4,2.1-1.2,2.9
			c-0.8,0.8-1.8,1.2-2.9,1.2H77.4c-1.1,0-2.1-0.4-2.9-1.2c-0.8-0.8-1.2-1.8-1.2-2.9c0-1.1,0.4-2.1,1.2-2.9c0.8-0.8,1.8-1.2,2.9-1.2
			H142.8z"/>
	</g>
	<path fill="#B6407B" d="M249.1,6.5c-4.3-4.3-9.5-6.5-15.6-6.5v0c0,0-0.1,0-0.1,0c0,0-0.1,0-0.1,0v0c-6.1,0.1-11.3,2.2-15.6,6.5
		c-4.4,4.4-6.5,9.6-6.5,15.8v61.3c0,1.1,0.4,2.1,1.2,2.9c0.8,0.8,1.8,1.2,2.9,1.2c1.1,0,2.1-0.4,2.9-1.2c0.8-0.8,1.2-1.8,1.2-2.9
		V22.3c0-3.9,1.4-7.3,4.2-10c2.7-2.7,6.1-4.1,9.9-4.2c3.9,0,7.2,1.4,9.9,4.2c2.7,2.7,4.1,5.9,4.1,9.7c0,0.2,0,0.4,0,0.6
		c0,2.3,1.8,4.1,4.1,4.1c2.1,0,3.8-1.6,4.1-3.6h0v-0.7C255.7,16.2,253.5,10.9,249.1,6.5z"/>
	<path fill="#FFCF01" d="M117.1,79.3c-10.5-0.6-19.1-10.1-19.1-20.7v-5.2c0-10.5,8.6-20,19.1-20.7c11.8-0.7,21.6,8.6,21.6,20.3h8.1
		c0-16.2-13.6-29.2-29.9-28.4C101.7,25.4,90,38.3,90,53.5v5.1c0,15.2,11.7,28,26.9,28.8c14.9,0.8,27.5-9.9,29.6-24.1
		c0.3-2.3-1.4-4.3-3.7-4.3h-0.1c-2.2,0-4,1.6-4.4,3.7C136.6,72.6,127.6,80,117.1,79.3z"/>
</g>
</svg>
