<!-- Generator: Adobe Illustrator 18.0.0, SVG Export Plug-In  -->
<svg version="1.1"
	 xmlns="http://www.w3.org/2000/svg" xmlns:xlink="http://www.w3.org/1999/xlink" xmlns:a="http://ns.adobe.com/AdobeSVGViewerExtensions/3.0/"
	 x="0px" y="0px" width="448.5px" height="324.6px" viewBox="0 0 448.5 324.6" enable-background="new 0 0 448.5 324.6"
	 xml:space="preserve">
<defs>
</defs>
<g>
	<g id="AIRPORT_2_">
		<polygon fill="#8C8B8B" points="201.3,34 0,34 47.5,20.1 154.7,20.1 		"/>
		<rect x="92.2" y="13.9" fill="#C4C4C3" width="201.3" height="94.1"/>
		<rect x="0" y="33.6" fill="#C4C4C3" width="201.3" height="74.5"/>
		<polygon fill="#8C8B8B" points="293.5,13.9 92.2,13.9 139.8,0 247,0 		"/>
		<rect x="128.8" y="86.8" fill="#999999" width="17.4" height="21.2"/>
		<rect x="149.3" y="86.8" fill="#999999" width="16.8" height="21.2"/>
		<rect x="4.8" y="66.5" fill="#8C8B8B" width="8.5" height="11.4"/>
		<rect x="17" y="66.5" fill="#8C8B8B" width="8.5" height="11.4"/>
		<rect x="28.2" y="66.5" fill="#8C8B8B" width="8.5" height="11.4"/>
		<rect x="39.2" y="66.5" fill="#8C8B8B" width="8.5" height="11.4"/>
		<rect x="50.9" y="66.5" fill="#8C8B8B" width="8.5" height="11.4"/>
		<rect x="62.9" y="66.5" fill="#8C8B8B" width="8.5" height="11.4"/>
		<rect x="74.6" y="66.5" fill="#8C8B8B" width="8.5" height="11.4"/>
		<rect x="85.4" y="66.5" fill="#8C8B8B" width="8.5" height="11.4"/>
		<rect x="97.4" y="66.5" fill="#8C8B8B" width="8.5" height="11.4"/>
		<rect x="109" y="66.5" fill="#8C8B8B" width="8.5" height="11.4"/>
		<rect x="4.8" y="86.8" fill="#8C8B8B" width="8.5" height="11.4"/>
		<rect x="17" y="86.8" fill="#8C8B8B" width="8.5" height="11.4"/>
		<rect x="28.2" y="86.8" fill="#8C8B8B" width="8.5" height="11.4"/>
		<rect x="39.2" y="86.8" fill="#8C8B8B" width="8.5" height="11.4"/>
		<rect x="50.9" y="86.8" fill="#8C8B8B" width="8.5" height="11.4"/>
		<rect x="62.9" y="86.8" fill="#8C8B8B" width="8.5" height="11.4"/>
		<rect x="74.6" y="86.8" fill="#8C8B8B" width="8.5" height="11.4"/>
		<rect x="85.4" y="86.8" fill="#8C8B8B" width="8.5" height="11.4"/>
		<rect x="97.4" y="86.8" fill="#8C8B8B" width="8.5" height="11.4"/>
		<rect x="109" y="86.8" fill="#8C8B8B" width="8.5" height="11.4"/>
		<rect x="176.5" y="65.1" fill="#8C8B8B" width="8.5" height="11.4"/>
		<rect x="188.8" y="65.1" fill="#8C8B8B" width="8.5" height="11.4"/>
		<rect x="200" y="65.1" fill="#8C8B8B" width="8.5" height="11.4"/>
		<rect x="211" y="65.1" fill="#8C8B8B" width="8.5" height="11.4"/>
		<rect x="222.7" y="65.1" fill="#8C8B8B" width="8.5" height="11.4"/>
		<rect x="234.7" y="65.1" fill="#8C8B8B" width="8.5" height="11.4"/>
		<rect x="246.3" y="65.1" fill="#8C8B8B" width="8.5" height="11.4"/>
		<rect x="257.1" y="65.1" fill="#8C8B8B" width="8.5" height="11.4"/>
		<rect x="269.2" y="65.1" fill="#8C8B8B" width="8.5" height="11.4"/>
		<rect x="280.8" y="65.1" fill="#8C8B8B" width="8.5" height="11.4"/>
		<rect x="176.5" y="86" fill="#8C8B8B" width="8.5" height="11.4"/>
		<rect x="188.8" y="86" fill="#8C8B8B" width="8.5" height="11.4"/>
		<rect x="200" y="86" fill="#8C8B8B" width="8.5" height="11.4"/>
		<rect x="211" y="86" fill="#8C8B8B" width="8.5" height="11.4"/>
		<rect x="222.7" y="86" fill="#8C8B8B" width="8.5" height="11.4"/>
		<rect x="234.7" y="86" fill="#8C8B8B" width="8.5" height="11.4"/>
		<rect x="246.3" y="86" fill="#8C8B8B" width="8.5" height="11.4"/>
		<rect x="257.1" y="86" fill="#8C8B8B" width="8.5" height="11.4"/>
		<rect x="269.2" y="86" fill="#8C8B8B" width="8.5" height="11.4"/>
		<rect x="280.8" y="86" fill="#8C8B8B" width="8.5" height="11.4"/>
		<rect x="119.4" y="73.8" fill="#E7EBEC" width="53.6" height="5.7"/>
		<line fill="none" stroke="#ACA8A9" stroke-width="1.4246" stroke-miterlimit="10" x1="121.9" y1="79.5" x2="121.9" y2="108"/>
		<line fill="none" stroke="#E7EBEC" stroke-width="1.4246" stroke-miterlimit="10" x1="121" y1="79.5" x2="121" y2="108"/>
		<line fill="none" stroke="#E7EBEC" stroke-width="1.4246" stroke-miterlimit="10" x1="170.6" y1="79.5" x2="170.6" y2="108"/>
		<line fill="none" stroke="#ACA8A9" stroke-width="1.4246" stroke-miterlimit="10" x1="171.8" y1="79.5" x2="171.8" y2="108"/>
		<line fill="none" stroke="#ACA8A9" stroke-width="1.4246" stroke-miterlimit="10" x1="119.4" y1="79.5" x2="173" y2="79.5"/>
		<g>
			<path fill="#3E5D6B" d="M114.2,41.7V21.9h2.9l1.7,13.5l1.7-13.5h2.9v19.8h-1.8V26.1l-1.9,15.6h-1.8L116,26.1v15.6H114.2z"/>
			<path fill="#3E5D6B" d="M126.2,41.7V21.9h7v3.4h-5.1v4.4h4.7V33h-4.7v5.4h5.3v3.3H126.2z"/>
			<path fill="#3E5D6B" d="M136.1,41.7V22.1h1.9v16.3h4.7v3.3H136.1z"/>
			<path fill="#3E5D6B" d="M145.1,21.9h3.8c0.7,0,1.3,0.1,1.7,0.2c0.4,0.1,0.7,0.4,1,0.8c0.3,0.4,0.5,1,0.7,1.7
				c0.2,0.7,0.3,1.5,0.3,2.3c0,0.9-0.1,1.8-0.4,2.6s-0.6,1.4-1,1.7c0.6,0.4,1,1,1.3,1.8c0.3,0.8,0.5,1.8,0.5,3
				c0,0.9-0.1,1.8-0.3,2.6c-0.2,0.9-0.5,1.5-0.8,2s-0.8,0.8-1.3,0.9c-0.3,0.1-1.1,0.1-2.3,0.1h-3.2V21.9z M147,25.2v4.6h1.3
				c0.7,0,1.2,0,1.4-0.1c0.3-0.1,0.6-0.3,0.8-0.7c0.2-0.4,0.3-0.9,0.3-1.5c0-0.6-0.1-1.1-0.2-1.5c-0.2-0.4-0.4-0.6-0.7-0.7
				c-0.2,0-0.7-0.1-1.6-0.1H147z M147,33.1v5.3h1.8c0.7,0,1.1,0,1.3-0.1c0.3-0.1,0.5-0.4,0.7-0.8c0.2-0.4,0.3-1,0.3-1.7
				c0-0.6-0.1-1.1-0.2-1.5c-0.1-0.4-0.3-0.7-0.6-0.9s-0.8-0.3-1.7-0.3H147z"/>
			<path fill="#3E5D6B" d="M155.2,31.9c0-2,0.1-3.7,0.4-5.1c0.2-1,0.5-1.9,0.9-2.7c0.4-0.8,0.8-1.4,1.2-1.8c0.6-0.5,1.3-0.8,2-0.8
				c1.4,0,2.5,0.9,3.3,2.7c0.8,1.8,1.3,4.3,1.3,7.6c0,3.2-0.4,5.7-1.2,7.5c-0.8,1.8-1.9,2.7-3.3,2.7c-1.4,0-2.5-0.9-3.4-2.7
				C155.7,37.6,155.2,35.1,155.2,31.9z M157.2,31.8c0,2.2,0.2,3.9,0.7,5.1c0.5,1.2,1.1,1.7,1.9,1.7c0.8,0,1.4-0.6,1.9-1.7
				c0.5-1.1,0.7-2.9,0.7-5.2c0-2.3-0.2-4-0.7-5.1c-0.5-1.1-1.1-1.7-1.9-1.7c-0.8,0-1.4,0.6-1.9,1.7
				C157.5,27.8,157.2,29.5,157.2,31.8z"/>
			<path fill="#3E5D6B" d="M166.9,21.9h1.9v10.7c0,1.7,0,2.8,0.1,3.3c0.1,0.8,0.3,1.5,0.6,2c0.3,0.5,0.7,0.7,1.3,0.7
				c0.5,0,1-0.2,1.2-0.7c0.3-0.5,0.4-1,0.5-1.7c0.1-0.7,0.1-1.8,0.1-3.4v-11h1.9v10.4c0,2.4-0.1,4.1-0.2,5c-0.1,1-0.3,1.8-0.6,2.5
				c-0.3,0.7-0.6,1.2-1.1,1.6c-0.5,0.4-1.1,0.6-1.8,0.6c-0.9,0-1.6-0.2-2.1-0.7c-0.5-0.4-0.8-1-1.1-1.7c-0.3-0.7-0.5-1.4-0.5-2.2
				c-0.1-1.1-0.2-2.8-0.2-5V21.9z"/>
			<path fill="#3E5D6B" d="M177.4,41.7V21.9h4c1,0,1.7,0.2,2.2,0.5c0.5,0.4,0.8,1,1.1,1.9c0.3,0.9,0.4,2,0.4,3.1
				c0,1.5-0.2,2.7-0.6,3.7c-0.4,1-1,1.6-1.9,1.8c0.4,0.5,0.8,1.1,1,1.7s0.6,1.7,1.1,3.2l1.2,3.9h-2.3l-1.4-4.3
				c-0.5-1.5-0.8-2.5-1-2.9c-0.2-0.4-0.4-0.7-0.6-0.8c-0.2-0.1-0.5-0.2-1-0.2h-0.4v8.3H177.4z M179.3,30.3h1.4
				c0.9,0,1.5-0.1,1.7-0.2c0.2-0.2,0.4-0.4,0.5-0.8s0.2-0.9,0.2-1.5c0-0.7-0.1-1.2-0.3-1.6c-0.2-0.4-0.4-0.7-0.7-0.8
				c-0.2,0-0.6-0.1-1.4-0.1h-1.5V30.3z"/>
			<path fill="#3E5D6B" d="M188,41.7V21.9h1.9l3.9,13.2V21.9h1.8v19.8h-1.9l-3.8-12.9v12.9H188z"/>
			<path fill="#3E5D6B" d="M198.5,41.7V21.9h7v3.4h-5.1v4.4h4.7V33h-4.7v5.4h5.3v3.3H198.5z"/>
			<path fill="#3E5D6B" d="M221,41.7h-2.1l-0.8-4.5h-3.8l-0.8,4.5h-2l3.7-19.8h2L221,41.7z M217.5,33.9l-1.3-7.4l-1.3,7.4H217.5z"/>
			<path fill="#3E5D6B" d="M222.9,41.7V21.9h1.9v19.8H222.9z"/>
			<path fill="#3E5D6B" d="M227.7,41.7V21.9h4c1,0,1.7,0.2,2.2,0.5s0.8,1,1.1,1.9c0.3,0.9,0.4,2,0.4,3.1c0,1.5-0.2,2.7-0.6,3.7
				c-0.4,1-1,1.6-1.9,1.8c0.4,0.5,0.8,1.1,1,1.7c0.3,0.6,0.6,1.7,1.1,3.2l1.2,3.9h-2.3l-1.4-4.3c-0.5-1.5-0.8-2.5-1-2.9
				c-0.2-0.4-0.4-0.7-0.6-0.8c-0.2-0.1-0.5-0.2-1-0.2h-0.4v8.3H227.7z M229.6,30.3h1.4c0.9,0,1.5-0.1,1.7-0.2
				c0.2-0.2,0.4-0.4,0.5-0.8c0.1-0.4,0.2-0.9,0.2-1.5c0-0.7-0.1-1.2-0.3-1.6c-0.2-0.4-0.4-0.7-0.7-0.8c-0.2,0-0.6-0.1-1.4-0.1h-1.5
				V30.3z"/>
			<path fill="#3E5D6B" d="M238.2,41.7V21.9h3.1c1.2,0,1.9,0.1,2.3,0.3c0.5,0.3,1,0.9,1.4,1.9c0.4,1,0.5,2.3,0.5,3.9
				c0,1.2-0.1,2.2-0.3,3.1c-0.2,0.8-0.5,1.5-0.8,2c-0.3,0.5-0.7,0.8-1,0.9c-0.5,0.2-1.1,0.3-2,0.3h-1.2v7.5H238.2z M240.1,25.3v5.6
				h1c0.8,0,1.3-0.1,1.5-0.3c0.3-0.2,0.5-0.5,0.6-1c0.1-0.4,0.2-1,0.2-1.5c0-0.7-0.1-1.3-0.3-1.8c-0.2-0.5-0.5-0.8-0.8-0.9
				c-0.2-0.1-0.7-0.1-1.4-0.1H240.1z"/>
			<path fill="#3E5D6B" d="M247.6,31.9c0-2,0.1-3.7,0.4-5.1c0.2-1,0.5-1.9,0.9-2.7c0.4-0.8,0.8-1.4,1.2-1.8c0.6-0.5,1.3-0.8,2-0.8
				c1.4,0,2.5,0.9,3.3,2.7c0.8,1.8,1.3,4.3,1.3,7.6c0,3.2-0.4,5.7-1.2,7.5c-0.8,1.8-1.9,2.7-3.3,2.7c-1.4,0-2.5-0.9-3.4-2.7
				C248,37.6,247.6,35.1,247.6,31.9z M249.6,31.8c0,2.2,0.2,3.9,0.7,5.1c0.5,1.2,1.1,1.7,1.9,1.7c0.8,0,1.4-0.6,1.9-1.7
				c0.5-1.1,0.7-2.9,0.7-5.2c0-2.3-0.2-4-0.7-5.1c-0.5-1.1-1.1-1.7-1.9-1.7c-0.8,0-1.4,0.6-1.9,1.7S249.6,29.5,249.6,31.8z"/>
			<path fill="#3E5D6B" d="M259.3,41.7V21.9h4c1,0,1.7,0.2,2.2,0.5s0.8,1,1.1,1.9c0.3,0.9,0.4,2,0.4,3.1c0,1.5-0.2,2.7-0.6,3.7
				c-0.4,1-1,1.6-1.9,1.8c0.4,0.5,0.8,1.1,1,1.7s0.6,1.7,1.1,3.2l1.2,3.9h-2.3l-1.4-4.3c-0.5-1.5-0.8-2.5-1-2.9
				c-0.2-0.4-0.4-0.7-0.6-0.8c-0.2-0.1-0.5-0.2-1-0.2h-0.4v8.3H259.3z M261.2,30.3h1.4c0.9,0,1.5-0.1,1.7-0.2
				c0.2-0.2,0.4-0.4,0.5-0.8s0.2-0.9,0.2-1.5c0-0.7-0.1-1.2-0.3-1.6c-0.2-0.4-0.4-0.7-0.7-0.8c-0.2,0-0.6-0.1-1.4-0.1h-1.5V30.3z"/>
			<path fill="#3E5D6B" d="M271.9,41.7V25.3h-2.8v-3.4h7.5v3.4h-2.8v16.5H271.9z"/>
		</g>
	</g>
	<g>
		<polyline fill="#FFFFFF" points="401.9,324.2 401.9,281.7 448.5,281.7 448.5,134 151.8,134 151.8,324.6 		"/>
		<polygon fill="#048450" points="401.9,324.2 448.5,281.7 401.9,281.7 		"/>
		<polygon opacity="0.8" fill="#082B1A" points="401.9,324.2 370.9,324.2 401.9,299.1 		"/>
		<polygon fill="#FFFFFF" points="151.8,135.2 152,116.1 198.6,135.2 		"/>
		<g>
			<path fill="#006838" d="M177.6,171l-3.1-9h-0.1c0.1,1.3,0.1,2.6,0.1,3.8v5.2H173v-10.8h2.5l3,8.6h0l3-8.6h2.5V171h-1.7v-5.3
				c0-0.5,0-1.2,0-2.1s0-1.4,0.1-1.6h-0.1l-3.2,9H177.6z"/>
			<path fill="#006838" d="M191.2,171.1c-1.3,0-2.2-0.4-2.9-1.1s-1.1-1.8-1.1-3.1c0-1.3,0.3-2.4,1-3.1c0.7-0.8,1.6-1.1,2.7-1.1
				c1.1,0,1.9,0.3,2.5,1c0.6,0.7,0.9,1.6,0.9,2.7v0.9H189c0,0.8,0.2,1.4,0.6,1.8s1,0.6,1.7,0.6c0.5,0,0.9,0,1.3-0.1
				c0.4-0.1,0.9-0.2,1.3-0.5v1.4c-0.4,0.2-0.8,0.3-1.3,0.4C192.3,171.1,191.8,171.1,191.2,171.1z M190.9,164c-0.5,0-1,0.2-1.3,0.5
				s-0.5,0.9-0.6,1.5h3.7c0-0.7-0.2-1.2-0.5-1.5C191.9,164.2,191.4,164,190.9,164z"/>
			<path fill="#006838" d="M199.1,171h-1.7v-11.5h1.7V171z"/>
			<path fill="#006838" d="M206.8,162.7c1,0,1.8,0.4,2.4,1.1c0.6,0.7,0.8,1.8,0.8,3.1c0,1.3-0.3,2.4-0.9,3.1s-1.4,1.1-2.4,1.1
				c-1,0-1.8-0.4-2.4-1.1h-0.1l-0.3,1h-1.3v-11.5h1.7v2.7c0,0.2,0,0.5,0,0.9s0,0.7,0,0.8h0.1C205,163.1,205.8,162.7,206.8,162.7z
				 M206.4,164.1c-0.7,0-1.2,0.2-1.5,0.6s-0.5,1.1-0.5,2.1v0.1c0,1,0.2,1.7,0.5,2.2c0.3,0.4,0.8,0.7,1.5,0.7c0.6,0,1.1-0.2,1.4-0.7
				s0.5-1.2,0.5-2.1C208.2,165,207.6,164.1,206.4,164.1z"/>
			<path fill="#006838" d="M220.3,166.9c0,1.3-0.3,2.4-1,3.1c-0.7,0.7-1.6,1.1-2.8,1.1c-0.8,0-1.4-0.2-2-0.5s-1-0.8-1.3-1.5
				s-0.5-1.4-0.5-2.2c0-1.3,0.3-2.4,1-3.1c0.7-0.7,1.6-1.1,2.8-1.1c1.2,0,2.1,0.4,2.8,1.1C219.9,164.6,220.3,165.6,220.3,166.9z
				 M214.4,166.9c0,1.9,0.7,2.8,2.1,2.8c1.4,0,2-0.9,2-2.8c0-1.9-0.7-2.8-2.1-2.8c-0.7,0-1.2,0.2-1.6,0.7
				C214.6,165.3,214.4,166,214.4,166.9z"/>
			<path fill="#006838" d="M229,171l-0.2-1.1h-0.1c-0.2,0.4-0.6,0.7-1,0.9c-0.4,0.2-0.9,0.3-1.5,0.3c-1,0-1.7-0.2-2.2-0.7
				c-0.5-0.5-0.7-1.2-0.7-2.2v-5.3h1.7v5c0,0.6,0.1,1.1,0.4,1.4c0.3,0.3,0.6,0.5,1.2,0.5c0.7,0,1.2-0.2,1.6-0.7s0.5-1.2,0.5-2.2
				v-4.1h1.7v8.1H229z"/>
			<path fill="#006838" d="M238,162.7c0.3,0,0.6,0,0.9,0.1l-0.2,1.6c-0.2-0.1-0.5-0.1-0.8-0.1c-0.7,0-1.2,0.2-1.7,0.7
				s-0.6,1-0.6,1.8v4.3h-1.7v-8.1h1.3l0.2,1.4h0.1c0.3-0.5,0.6-0.9,1-1.2C237.1,162.8,237.5,162.7,238,162.7z"/>
			<path fill="#006838" d="M248.6,171h-1.7v-5c0-0.6-0.1-1.1-0.4-1.4c-0.2-0.3-0.6-0.5-1.2-0.5c-0.7,0-1.3,0.2-1.6,0.6
				c-0.3,0.4-0.5,1.2-0.5,2.2v4.1h-1.7v-8.1h1.3l0.2,1.1h0.1c0.2-0.4,0.6-0.7,1-0.9s0.9-0.3,1.5-0.3c1.9,0,2.9,1,2.9,3V171z"/>
			<path fill="#006838" d="M255.6,171.1c-1.3,0-2.2-0.4-2.9-1.1s-1.1-1.8-1.1-3.1c0-1.3,0.3-2.4,1-3.1c0.7-0.8,1.6-1.1,2.7-1.1
				c1.1,0,1.9,0.3,2.5,1c0.6,0.7,0.9,1.6,0.9,2.7v0.9h-5.4c0,0.8,0.2,1.4,0.6,1.8s1,0.6,1.7,0.6c0.5,0,0.9,0,1.3-0.1
				c0.4-0.1,0.9-0.2,1.3-0.5v1.4c-0.4,0.2-0.8,0.3-1.3,0.4C256.7,171.1,256.2,171.1,255.6,171.1z M255.3,164c-0.5,0-1,0.2-1.3,0.5
				s-0.5,0.9-0.6,1.5h3.7c0-0.7-0.2-1.2-0.5-1.5C256.3,164.2,255.9,164,255.3,164z"/>
			<path fill="#006838" d="M273.6,171l-1.1-3h-4.1l-1,3h-1.8l4-10.8h1.9l4,10.8H273.6z M272.1,166.5l-1-2.9
				c-0.1-0.2-0.2-0.5-0.3-0.9s-0.2-0.7-0.3-0.9c-0.1,0.6-0.3,1.3-0.6,2l-1,2.8H272.1z"/>
			<path fill="#006838" d="M277.7,160.7c0-0.3,0.1-0.5,0.3-0.7s0.4-0.3,0.7-0.3c0.3,0,0.5,0.1,0.7,0.3c0.2,0.2,0.3,0.4,0.3,0.7
				c0,0.3-0.1,0.5-0.3,0.7c-0.2,0.2-0.4,0.3-0.7,0.3c-0.3,0-0.5-0.1-0.7-0.3C277.8,161.2,277.7,161,277.7,160.7z M279.5,171h-1.7
				v-8.1h1.7V171z"/>
			<path fill="#006838" d="M287.2,162.7c0.3,0,0.6,0,0.9,0.1l-0.2,1.6c-0.2-0.1-0.5-0.1-0.8-0.1c-0.7,0-1.2,0.2-1.7,0.7
				s-0.6,1-0.6,1.8v4.3h-1.7v-8.1h1.3l0.2,1.4h0.1c0.3-0.5,0.6-0.9,1-1.2C286.2,162.8,286.7,162.7,287.2,162.7z"/>
			<path fill="#006838" d="M294.7,171.1c-1,0-1.8-0.4-2.4-1.1h-0.1c0.1,0.7,0.1,1.1,0.1,1.3v3.3h-1.7v-11.8h1.4
				c0,0.2,0.1,0.5,0.2,1.1h0.1c0.5-0.8,1.3-1.2,2.4-1.2c1,0,1.8,0.4,2.4,1.1c0.6,0.7,0.8,1.8,0.8,3.1s-0.3,2.4-0.9,3.1
				C296.5,170.7,295.7,171.1,294.7,171.1z M294.3,164.1c-0.7,0-1.2,0.2-1.5,0.6s-0.5,1-0.5,1.9v0.3c0,1,0.2,1.7,0.5,2.2
				c0.3,0.4,0.8,0.7,1.5,0.7c0.6,0,1-0.2,1.4-0.7c0.3-0.5,0.5-1.2,0.5-2.1c0-0.9-0.2-1.6-0.5-2.1
				C295.4,164.3,294.9,164.1,294.3,164.1z"/>
			<path fill="#006838" d="M308.2,166.9c0,1.3-0.3,2.4-1,3.1c-0.7,0.7-1.6,1.1-2.8,1.1c-0.8,0-1.4-0.2-2-0.5s-1-0.8-1.3-1.5
				s-0.5-1.4-0.5-2.2c0-1.3,0.3-2.4,1-3.1c0.7-0.7,1.6-1.1,2.8-1.1c1.2,0,2.1,0.4,2.8,1.1C307.9,164.6,308.2,165.6,308.2,166.9z
				 M302.3,166.9c0,1.9,0.7,2.8,2.1,2.8c1.4,0,2-0.9,2-2.8c0-1.9-0.7-2.8-2.1-2.8c-0.7,0-1.2,0.2-1.6,0.7
				C302.5,165.3,302.3,166,302.3,166.9z"/>
			<path fill="#006838" d="M315.4,162.7c0.3,0,0.6,0,0.9,0.1l-0.2,1.6c-0.2-0.1-0.5-0.1-0.8-0.1c-0.7,0-1.2,0.2-1.7,0.7
				s-0.6,1-0.6,1.8v4.3h-1.7v-8.1h1.3l0.2,1.4h0.1c0.3-0.5,0.6-0.9,1-1.2C314.4,162.8,314.9,162.7,315.4,162.7z"/>
			<path fill="#006838" d="M321.9,169.7c0.4,0,0.8-0.1,1.3-0.2v1.3c-0.2,0.1-0.4,0.2-0.7,0.2s-0.6,0.1-0.9,0.1
				c-1.6,0-2.4-0.9-2.4-2.6v-4.4h-1.1v-0.8l1.2-0.6l0.6-1.7h1.1v1.8h2.3v1.3h-2.3v4.4c0,0.4,0.1,0.7,0.3,0.9
				C321.3,169.6,321.5,169.7,321.9,169.7z"/>
			<path fill="#006838" d="M172.2,184.9c0-1.3,0.2-2.5,0.6-3.7c0.4-1.1,0.9-2.1,1.6-3h1.5c-0.7,0.9-1.2,2-1.6,3.1s-0.5,2.3-0.5,3.5
				s0.2,2.4,0.5,3.5c0.4,1.1,0.9,2.1,1.5,3h-1.5c-0.7-0.8-1.3-1.8-1.6-2.9C172.4,187.4,172.2,186.2,172.2,184.9z"/>
			<path fill="#006838" d="M182.5,189.1h-1.7v-9.3h-3.1v-1.5h8v1.5h-3.1V189.1z"/>
			<path fill="#006838" d="M193.9,189.1l-0.2-1.1h-0.1c-0.2,0.4-0.6,0.7-1,0.9c-0.4,0.2-0.9,0.3-1.5,0.3c-1,0-1.7-0.2-2.2-0.7
				c-0.5-0.5-0.7-1.2-0.7-2.2v-5.3h1.7v5c0,0.6,0.1,1.1,0.4,1.4c0.3,0.3,0.6,0.5,1.2,0.5c0.7,0,1.2-0.2,1.6-0.7s0.5-1.2,0.5-2.2
				v-4.1h1.7v8.1H193.9z"/>
			<path fill="#006838" d="M200.5,189.1h-1.7v-11.5h1.7V189.1z"/>
			<path fill="#006838" d="M205.8,189.1h-1.7v-11.5h1.7V189.1z"/>
			<path fill="#006838" d="M214.4,189.1l-0.3-1.1H214c-0.4,0.5-0.8,0.8-1.2,1c-0.4,0.2-0.9,0.3-1.5,0.3c-0.8,0-1.4-0.2-1.9-0.6
				c-0.4-0.4-0.7-1-0.7-1.8c0-0.8,0.3-1.5,0.9-1.9c0.6-0.4,1.6-0.7,2.8-0.7l1.4,0v-0.4c0-0.5-0.1-0.9-0.4-1.2
				c-0.2-0.3-0.6-0.4-1.1-0.4c-0.4,0-0.8,0.1-1.2,0.2c-0.4,0.1-0.7,0.3-1.1,0.4l-0.6-1.2c0.4-0.2,0.9-0.4,1.4-0.5
				c0.5-0.1,1-0.2,1.5-0.2c1,0,1.8,0.2,2.3,0.7c0.5,0.5,0.8,1.2,0.8,2.1v5.5H214.4z M211.9,187.9c0.6,0,1.1-0.2,1.5-0.5
				c0.4-0.4,0.6-0.8,0.6-1.5v-0.7l-1,0c-0.8,0-1.4,0.2-1.8,0.4c-0.4,0.2-0.5,0.6-0.5,1.1c0,0.4,0.1,0.6,0.3,0.8
				C211.1,187.8,211.4,187.9,211.9,187.9z"/>
			<path fill="#006838" d="M225.9,189.1h-1.7v-5c0-0.6-0.1-1.1-0.3-1.4c-0.2-0.3-0.6-0.5-1.1-0.5c-0.7,0-1.1,0.2-1.5,0.7
				s-0.5,1.2-0.5,2.2v4.1h-1.7v-8.1h1.3l0.2,1.1h0.1c0.2-0.4,0.5-0.7,1-0.9c0.4-0.2,0.9-0.3,1.4-0.3c1.2,0,2.1,0.4,2.5,1.3h0.1
				c0.2-0.4,0.6-0.7,1-0.9c0.4-0.2,0.9-0.3,1.5-0.3c1,0,1.7,0.2,2.1,0.7c0.4,0.5,0.7,1.2,0.7,2.2v5.3h-1.7v-5c0-0.6-0.1-1.1-0.4-1.4
				s-0.6-0.5-1.1-0.5c-0.7,0-1.2,0.2-1.5,0.6s-0.5,1.1-0.5,1.9V189.1z"/>
			<path fill="#006838" d="M239.6,189.1l-0.3-1.1h-0.1c-0.4,0.5-0.8,0.8-1.2,1c-0.4,0.2-0.9,0.3-1.5,0.3c-0.8,0-1.4-0.2-1.9-0.6
				c-0.4-0.4-0.7-1-0.7-1.8c0-0.8,0.3-1.5,0.9-1.9c0.6-0.4,1.6-0.7,2.8-0.7l1.4,0v-0.4c0-0.5-0.1-0.9-0.4-1.2
				c-0.2-0.3-0.6-0.4-1.1-0.4c-0.4,0-0.8,0.1-1.2,0.2c-0.4,0.1-0.7,0.3-1.1,0.4l-0.6-1.2c0.4-0.2,0.9-0.4,1.4-0.5
				c0.5-0.1,1-0.2,1.5-0.2c1,0,1.8,0.2,2.3,0.7c0.5,0.5,0.8,1.2,0.8,2.1v5.5H239.6z M237,187.9c0.6,0,1.1-0.2,1.5-0.5
				c0.4-0.4,0.6-0.8,0.6-1.5v-0.7l-1,0c-0.8,0-1.4,0.2-1.8,0.4c-0.4,0.2-0.5,0.6-0.5,1.1c0,0.4,0.1,0.6,0.3,0.8
				C236.3,187.8,236.6,187.9,237,187.9z"/>
			<path fill="#006838" d="M248.4,180.8c0.3,0,0.6,0,0.9,0.1l-0.2,1.6c-0.2-0.1-0.5-0.1-0.8-0.1c-0.7,0-1.2,0.2-1.7,0.7
				s-0.6,1-0.6,1.8v4.3h-1.7v-8.1h1.3l0.2,1.4h0.1c0.3-0.5,0.6-0.9,1-1.2C247.5,180.9,247.9,180.8,248.4,180.8z"/>
			<path fill="#006838" d="M251.8,178.8c0-0.3,0.1-0.5,0.3-0.7s0.4-0.3,0.7-0.3c0.3,0,0.5,0.1,0.7,0.3c0.2,0.2,0.3,0.4,0.3,0.7
				c0,0.3-0.1,0.5-0.3,0.7c-0.2,0.2-0.4,0.3-0.7,0.3c-0.3,0-0.5-0.1-0.7-0.3C251.9,179.3,251.8,179.1,251.8,178.8z M253.6,189.1
				h-1.7v-8.1h1.7V189.1z"/>
			<path fill="#006838" d="M264.3,189.1h-1.7v-5c0-0.6-0.1-1.1-0.4-1.4c-0.2-0.3-0.6-0.5-1.2-0.5c-0.7,0-1.3,0.2-1.6,0.6
				c-0.3,0.4-0.5,1.2-0.5,2.2v4.1h-1.7v-8.1h1.3l0.2,1.1h0.1c0.2-0.4,0.6-0.7,1-0.9s0.9-0.3,1.5-0.3c1.9,0,2.9,1,2.9,3V189.1z"/>
			<path fill="#006838" d="M271.3,189.2c-1.3,0-2.2-0.4-2.9-1.1s-1.1-1.8-1.1-3.1c0-1.3,0.3-2.4,1-3.1c0.7-0.8,1.6-1.1,2.7-1.1
				c1.1,0,1.9,0.3,2.5,1c0.6,0.7,0.9,1.6,0.9,2.7v0.9H269c0,0.8,0.2,1.4,0.6,1.8s1,0.6,1.7,0.6c0.5,0,0.9,0,1.3-0.1
				c0.4-0.1,0.9-0.2,1.3-0.5v1.4c-0.4,0.2-0.8,0.3-1.3,0.4C272.3,189.2,271.8,189.2,271.3,189.2z M271,182.1c-0.5,0-1,0.2-1.3,0.5
				s-0.5,0.9-0.6,1.5h3.7c0-0.7-0.2-1.2-0.5-1.5C271.9,182.3,271.5,182.1,271,182.1z"/>
			<path fill="#006838" d="M289.3,189.1l-1.1-3h-4.1l-1,3h-1.8l4-10.8h1.9l4,10.8H289.3z M287.7,184.6l-1-2.9
				c-0.1-0.2-0.2-0.5-0.3-0.9s-0.2-0.7-0.3-0.9c-0.1,0.6-0.3,1.3-0.6,2l-1,2.8H287.7z"/>
			<path fill="#006838" d="M293.4,178.8c0-0.3,0.1-0.5,0.3-0.7s0.4-0.3,0.7-0.3c0.3,0,0.5,0.1,0.7,0.3c0.2,0.2,0.3,0.4,0.3,0.7
				c0,0.3-0.1,0.5-0.3,0.7c-0.2,0.2-0.4,0.3-0.7,0.3c-0.3,0-0.5-0.1-0.7-0.3C293.4,179.3,293.4,179.1,293.4,178.8z M295.2,189.1
				h-1.7v-8.1h1.7V189.1z"/>
			<path fill="#006838" d="M302.8,180.8c0.3,0,0.6,0,0.9,0.1l-0.2,1.6c-0.2-0.1-0.5-0.1-0.8-0.1c-0.7,0-1.2,0.2-1.7,0.7
				s-0.6,1-0.6,1.8v4.3h-1.7v-8.1h1.3l0.2,1.4h0.1c0.3-0.5,0.6-0.9,1-1.2C301.9,180.9,302.3,180.8,302.8,180.8z"/>
			<path fill="#006838" d="M310.4,189.2c-1,0-1.8-0.4-2.4-1.1h-0.1c0.1,0.7,0.1,1.1,0.1,1.3v3.3h-1.7v-11.8h1.4
				c0,0.2,0.1,0.5,0.2,1.1h0.1c0.5-0.8,1.3-1.2,2.4-1.2c1,0,1.8,0.4,2.4,1.1c0.6,0.7,0.8,1.8,0.8,3.1s-0.3,2.4-0.9,3.1
				C312.2,188.8,311.4,189.2,310.4,189.2z M310,182.2c-0.7,0-1.2,0.2-1.5,0.6s-0.5,1-0.5,1.9v0.3c0,1,0.2,1.7,0.5,2.2
				c0.3,0.4,0.8,0.7,1.5,0.7c0.6,0,1-0.2,1.4-0.7c0.3-0.5,0.5-1.2,0.5-2.1c0-0.9-0.2-1.6-0.5-2.1C311.1,182.4,310.6,182.2,310,182.2
				z"/>
			<path fill="#006838" d="M323.9,185c0,1.3-0.3,2.4-1,3.1c-0.7,0.7-1.6,1.1-2.8,1.1c-0.8,0-1.4-0.2-2-0.5s-1-0.8-1.3-1.5
				s-0.5-1.4-0.5-2.2c0-1.3,0.3-2.4,1-3.1c0.7-0.7,1.6-1.1,2.8-1.1c1.2,0,2.1,0.4,2.8,1.1C323.5,182.7,323.9,183.7,323.9,185z
				 M318,185c0,1.9,0.7,2.8,2.1,2.8c1.4,0,2-0.9,2-2.8c0-1.9-0.7-2.8-2.1-2.8c-0.7,0-1.2,0.2-1.6,0.7C318.2,183.4,318,184.1,318,185
				z"/>
			<path fill="#006838" d="M331,180.8c0.3,0,0.6,0,0.9,0.1l-0.2,1.6c-0.2-0.1-0.5-0.1-0.8-0.1c-0.7,0-1.2,0.2-1.7,0.7
				s-0.6,1-0.6,1.8v4.3H327v-8.1h1.3l0.2,1.4h0.1c0.3-0.5,0.6-0.9,1-1.2C330.1,180.9,330.6,180.8,331,180.8z"/>
			<path fill="#006838" d="M337.5,187.8c0.4,0,0.8-0.1,1.3-0.2v1.3c-0.2,0.1-0.4,0.2-0.7,0.2s-0.6,0.1-0.9,0.1
				c-1.6,0-2.4-0.9-2.4-2.6v-4.4h-1.1v-0.8l1.2-0.6l0.6-1.7h1.1v1.8h2.3v1.3h-2.3v4.4c0,0.4,0.1,0.7,0.3,0.9
				C336.9,187.7,337.2,187.8,337.5,187.8z"/>
			<path fill="#006838" d="M344.4,184.9c0,1.3-0.2,2.5-0.6,3.6c-0.4,1.1-0.9,2.1-1.6,2.9h-1.5c0.7-0.9,1.2-1.9,1.5-3.1
				c0.4-1.1,0.5-2.3,0.5-3.5c0-1.2-0.2-2.4-0.5-3.5s-0.9-2.2-1.6-3.1h1.5c0.7,0.9,1.3,1.9,1.6,3S344.4,183.6,344.4,184.9z"/>
			<path fill="#006838" d="M179.9,221.2c0,1.3-0.3,2.4-1,3.1c-0.7,0.7-1.6,1.1-2.8,1.1c-0.8,0-1.4-0.2-2-0.5s-1-0.8-1.3-1.5
				s-0.5-1.4-0.5-2.2c0-1.3,0.3-2.4,1-3.1c0.7-0.7,1.6-1.1,2.8-1.1c1.2,0,2.1,0.4,2.8,1.1C179.6,218.9,179.9,219.9,179.9,221.2z
				 M174.1,221.2c0,1.9,0.7,2.8,2.1,2.8c1.4,0,2-0.9,2-2.8c0-1.9-0.7-2.8-2.1-2.8c-0.7,0-1.2,0.2-1.6,0.7
				C174.2,219.6,174.1,220.3,174.1,221.2z"/>
			<path fill="#006838" d="M187.1,218.4h-2v6.8h-1.7v-6.8h-1.3v-0.8l1.3-0.5v-0.5c0-1,0.2-1.7,0.7-2.1s1.1-0.7,2-0.7
				c0.6,0,1.2,0.1,1.8,0.3l-0.5,1.3c-0.4-0.1-0.8-0.2-1.2-0.2c-0.4,0-0.7,0.1-0.8,0.4c-0.2,0.2-0.3,0.6-0.3,1.1v0.5h2V218.4z
				 M192.5,218.4h-2v6.8h-1.7v-6.8h-1.3v-0.8l1.3-0.5v-0.5c0-1,0.2-1.7,0.7-2.1s1.1-0.7,2-0.7c0.6,0,1.2,0.1,1.8,0.3l-0.5,1.3
				c-0.4-0.1-0.8-0.2-1.2-0.2c-0.4,0-0.7,0.1-0.8,0.4c-0.2,0.2-0.3,0.6-0.3,1.1v0.5h2V218.4z"/>
			<path fill="#006838" d="M198.5,225.4c-1.3,0-2.2-0.4-2.9-1.1s-1.1-1.8-1.1-3.1c0-1.3,0.3-2.4,1-3.1c0.7-0.8,1.6-1.1,2.7-1.1
				c1.1,0,1.9,0.3,2.5,1c0.6,0.7,0.9,1.6,0.9,2.7v0.9h-5.4c0,0.8,0.2,1.4,0.6,1.8s1,0.6,1.7,0.6c0.5,0,0.9,0,1.3-0.1
				c0.4-0.1,0.9-0.2,1.3-0.5v1.4c-0.4,0.2-0.8,0.3-1.3,0.4C199.6,225.4,199.1,225.4,198.5,225.4z M198.2,218.3c-0.5,0-1,0.2-1.3,0.5
				s-0.5,0.9-0.6,1.5h3.7c0-0.7-0.2-1.2-0.5-1.5C199.2,218.5,198.7,218.3,198.2,218.3z"/>
			<path fill="#006838" d="M208.8,217c0.3,0,0.6,0,0.9,0.1l-0.2,1.6c-0.2-0.1-0.5-0.1-0.8-0.1c-0.7,0-1.2,0.2-1.7,0.7
				s-0.6,1-0.6,1.8v4.3h-1.7v-8.1h1.3l0.2,1.4h0.1c0.3-0.5,0.6-0.9,1-1.2C207.8,217.1,208.3,217,208.8,217z"/>
			<path fill="#006838" d="M217.7,222.9c0,0.8-0.3,1.4-0.9,1.8c-0.6,0.4-1.4,0.6-2.5,0.6c-1.1,0-1.9-0.2-2.6-0.5v-1.5
				c0.9,0.4,1.8,0.7,2.6,0.7c1.1,0,1.6-0.3,1.6-1c0-0.2-0.1-0.4-0.2-0.5c-0.1-0.1-0.3-0.3-0.6-0.4c-0.3-0.1-0.6-0.3-1.1-0.5
				c-0.9-0.4-1.6-0.7-1.9-1.1s-0.5-0.8-0.5-1.4c0-0.7,0.3-1.2,0.8-1.6c0.6-0.4,1.3-0.6,2.3-0.6c0.9,0,1.8,0.2,2.7,0.6l-0.6,1.3
				c-0.9-0.4-1.6-0.5-2.2-0.5c-0.9,0-1.4,0.3-1.4,0.8c0,0.3,0.1,0.5,0.4,0.6s0.8,0.4,1.5,0.7c0.7,0.3,1.1,0.5,1.5,0.7
				c0.3,0.2,0.5,0.5,0.7,0.7C217.6,222.2,217.7,222.6,217.7,222.9z"/>
			<path fill="#006838" d="M227.6,225.3h-1.7v-10.8h6v1.5h-4.3v3.4h4v1.5h-4V225.3z"/>
			<path fill="#006838" d="M236.6,221v4.3h-1.7v-10.8h3c1.4,0,2.4,0.3,3.1,0.8c0.7,0.5,1,1.3,1,2.4c0,1.3-0.7,2.3-2.1,2.9l3,4.8h-2
				l-2.6-4.3H236.6z M236.6,219.5h1.2c0.8,0,1.4-0.2,1.8-0.5c0.4-0.3,0.5-0.8,0.5-1.4c0-0.6-0.2-1-0.6-1.3c-0.4-0.3-1-0.4-1.8-0.4
				h-1.2V219.5z"/>
			<path fill="#006838" d="M251.6,225.3h-6v-10.8h6v1.5h-4.3v2.9h4v1.5h-4v3.4h4.3V225.3z"/>
			<path fill="#006838" d="M261,225.3h-6v-10.8h6v1.5h-4.3v2.9h4v1.5h-4v3.4h4.3V225.3z"/>
			<path fill="#006838" d="M275.9,225.3l-1-3.8c-0.1-0.4-0.4-1.3-0.7-2.8h-0.1c-0.3,1.3-0.5,2.3-0.7,2.8l-1.1,3.8h-1.9l-2.3-8.1h1.8
				l1,4c0.2,1,0.4,1.8,0.5,2.5h0c0-0.4,0.1-0.8,0.2-1.2s0.2-0.8,0.3-1l1.2-4.3h1.9l1.2,4.3c0.1,0.2,0.2,0.6,0.3,1.1s0.2,0.9,0.2,1.2
				h0.1c0.1-0.6,0.2-1.4,0.5-2.5l1-4h1.7l-2.3,8.1H275.9z"/>
			<path fill="#006838" d="M282.5,215c0-0.3,0.1-0.5,0.3-0.7s0.4-0.3,0.7-0.3c0.3,0,0.5,0.1,0.7,0.3c0.2,0.2,0.3,0.4,0.3,0.7
				c0,0.3-0.1,0.5-0.3,0.7c-0.2,0.2-0.4,0.3-0.7,0.3c-0.3,0-0.5-0.1-0.7-0.3C282.6,215.5,282.5,215.3,282.5,215z M284.3,225.3h-1.7
				v-8.1h1.7V225.3z"/>
			<path fill="#006838" d="M291.9,218.4h-2v6.8h-1.7v-6.8h-1.3v-0.8l1.3-0.5v-0.5c0-1,0.2-1.7,0.7-2.1s1.1-0.7,2-0.7
				c0.6,0,1.2,0.1,1.8,0.3l-0.5,1.3c-0.4-0.1-0.8-0.2-1.2-0.2c-0.4,0-0.7,0.1-0.8,0.4c-0.2,0.2-0.3,0.6-0.3,1.1v0.5h2V218.4z
				 M293.2,215c0-0.3,0.1-0.5,0.3-0.7c0.2-0.2,0.4-0.3,0.7-0.3c0.3,0,0.5,0.1,0.7,0.3s0.3,0.4,0.3,0.7c0,0.3-0.1,0.5-0.3,0.7
				c-0.2,0.2-0.4,0.3-0.7,0.3c-0.3,0-0.6-0.1-0.7-0.3C293.3,215.5,293.2,215.3,293.2,215z M295,225.3h-1.7v-8.1h1.7V225.3z"/>
			<path fill="#006838" d="M303.5,215c0-0.3,0.1-0.5,0.3-0.7s0.4-0.3,0.7-0.3c0.3,0,0.5,0.1,0.7,0.3c0.2,0.2,0.3,0.4,0.3,0.7
				c0,0.3-0.1,0.5-0.3,0.7c-0.2,0.2-0.4,0.3-0.7,0.3c-0.3,0-0.5-0.1-0.7-0.3C303.6,215.5,303.5,215.3,303.5,215z M305.3,225.3h-1.7
				v-8.1h1.7V225.3z"/>
			<path fill="#006838" d="M316,225.3h-1.7v-5c0-0.6-0.1-1.1-0.4-1.4c-0.2-0.3-0.6-0.5-1.2-0.5c-0.7,0-1.3,0.2-1.6,0.6
				c-0.3,0.4-0.5,1.2-0.5,2.2v4.1h-1.7v-8.1h1.3l0.2,1.1h0.1c0.2-0.4,0.6-0.7,1-0.9s0.9-0.3,1.5-0.3c1.9,0,2.9,1,2.9,3V225.3z"/>
			<path fill="#006838" d="M329.5,225.3l-0.3-1.1h-0.1c-0.4,0.5-0.8,0.8-1.2,1c-0.4,0.2-0.9,0.3-1.5,0.3c-0.8,0-1.4-0.2-1.9-0.6
				c-0.4-0.4-0.7-1-0.7-1.8c0-0.8,0.3-1.5,0.9-1.9c0.6-0.4,1.6-0.7,2.8-0.7l1.4,0v-0.4c0-0.5-0.1-0.9-0.4-1.2
				c-0.2-0.3-0.6-0.4-1.1-0.4c-0.4,0-0.8,0.1-1.2,0.2c-0.4,0.1-0.7,0.3-1.1,0.4l-0.6-1.2c0.4-0.2,0.9-0.4,1.4-0.5
				c0.5-0.1,1-0.2,1.5-0.2c1,0,1.8,0.2,2.3,0.7c0.5,0.5,0.8,1.2,0.8,2.1v5.5H329.5z M326.9,224.1c0.6,0,1.1-0.2,1.5-0.5
				c0.4-0.4,0.6-0.8,0.6-1.5v-0.7l-1,0c-0.8,0-1.4,0.2-1.8,0.4c-0.4,0.2-0.5,0.6-0.5,1.1c0,0.4,0.1,0.6,0.3,0.8
				C326.2,224,326.5,224.1,326.9,224.1z"/>
			<path fill="#006838" d="M335.9,225.3h-1.7v-11.5h1.7V225.3z"/>
			<path fill="#006838" d="M341.2,225.3h-1.7v-11.5h1.7V225.3z"/>
			<path fill="#006838" d="M349.7,215c0-0.3,0.1-0.5,0.3-0.7s0.4-0.3,0.7-0.3c0.3,0,0.5,0.1,0.7,0.3c0.2,0.2,0.3,0.4,0.3,0.7
				c0,0.3-0.1,0.5-0.3,0.7c-0.2,0.2-0.4,0.3-0.7,0.3c-0.3,0-0.5-0.1-0.7-0.3C349.8,215.5,349.7,215.3,349.7,215z M351.5,225.3h-1.7
				v-8.1h1.7V225.3z"/>
			<path fill="#006838" d="M358.1,224c0.4,0,0.8-0.1,1.3-0.2v1.3c-0.2,0.1-0.4,0.2-0.7,0.2s-0.6,0.1-0.9,0.1c-1.6,0-2.4-0.9-2.4-2.6
				v-4.4h-1.1v-0.8l1.2-0.6l0.6-1.7h1.1v1.8h2.3v1.3H357v4.4c0,0.4,0.1,0.7,0.3,0.9C357.5,223.9,357.7,224,358.1,224z"/>
			<path fill="#006838" d="M363.5,214.5l-0.3,3.9h-1.1l-0.3-3.9H363.5z"/>
			<path fill="#006838" d="M372.2,222.9c0,0.8-0.3,1.4-0.9,1.8c-0.6,0.4-1.4,0.6-2.5,0.6c-1.1,0-1.9-0.2-2.6-0.5v-1.5
				c0.9,0.4,1.8,0.7,2.6,0.7c1.1,0,1.6-0.3,1.6-1c0-0.2-0.1-0.4-0.2-0.5c-0.1-0.1-0.3-0.3-0.6-0.4c-0.3-0.1-0.6-0.3-1.1-0.5
				c-0.9-0.4-1.6-0.7-1.9-1.1s-0.5-0.8-0.5-1.4c0-0.7,0.3-1.2,0.8-1.6c0.6-0.4,1.3-0.6,2.3-0.6c0.9,0,1.8,0.2,2.7,0.6l-0.6,1.3
				c-0.9-0.4-1.6-0.5-2.2-0.5c-0.9,0-1.4,0.3-1.4,0.8c0,0.3,0.1,0.5,0.4,0.6s0.8,0.4,1.5,0.7c0.7,0.3,1.1,0.5,1.5,0.7
				c0.3,0.2,0.5,0.5,0.7,0.7C372.2,222.2,372.2,222.6,372.2,222.9z"/>
			<path fill="#006838" d="M384.3,225.4c-1,0-1.8-0.4-2.4-1.1h-0.1c0.1,0.7,0.1,1.1,0.1,1.3v3.3h-1.7v-11.8h1.4
				c0,0.2,0.1,0.5,0.2,1.1h0.1c0.5-0.8,1.3-1.2,2.4-1.2c1,0,1.8,0.4,2.4,1.1c0.6,0.7,0.8,1.8,0.8,3.1s-0.3,2.4-0.9,3.1
				C386.1,225,385.3,225.4,384.3,225.4z M383.9,218.4c-0.7,0-1.2,0.2-1.5,0.6s-0.5,1-0.5,1.9v0.3c0,1,0.2,1.7,0.5,2.2
				c0.3,0.4,0.8,0.7,1.5,0.7c0.6,0,1-0.2,1.4-0.7c0.3-0.5,0.5-1.2,0.5-2.1c0-0.9-0.2-1.6-0.5-2.1C385,218.6,384.5,218.4,383.9,218.4
				z"/>
			<path fill="#006838" d="M396.3,225.3l-0.2-1.1H396c-0.2,0.4-0.6,0.7-1,0.9c-0.4,0.2-0.9,0.3-1.5,0.3c-1,0-1.7-0.2-2.2-0.7
				c-0.5-0.5-0.7-1.2-0.7-2.2v-5.3h1.7v5c0,0.6,0.1,1.1,0.4,1.4c0.3,0.3,0.6,0.5,1.2,0.5c0.7,0,1.2-0.2,1.6-0.7s0.5-1.2,0.5-2.2
				v-4.1h1.7v8.1H396.3z"/>
			<path fill="#006838" d="M405.3,217c1,0,1.8,0.4,2.4,1.1c0.6,0.7,0.8,1.8,0.8,3.1c0,1.3-0.3,2.4-0.9,3.1s-1.4,1.1-2.4,1.1
				c-1,0-1.8-0.4-2.4-1.1h-0.1l-0.3,1h-1.3v-11.5h1.7v2.7c0,0.2,0,0.5,0,0.9s0,0.7,0,0.8h0.1C403.5,217.4,404.3,217,405.3,217z
				 M404.9,218.4c-0.7,0-1.2,0.2-1.5,0.6s-0.5,1.1-0.5,2.1v0.1c0,1,0.2,1.7,0.5,2.2c0.3,0.4,0.8,0.7,1.5,0.7c0.6,0,1.1-0.2,1.4-0.7
				s0.5-1.2,0.5-2.1C406.8,219.3,406.1,218.4,404.9,218.4z"/>
			<path fill="#006838" d="M413.3,225.3h-1.7v-11.5h1.7V225.3z"/>
			<path fill="#006838" d="M416.8,215c0-0.3,0.1-0.5,0.3-0.7s0.4-0.3,0.7-0.3c0.3,0,0.5,0.1,0.7,0.3c0.2,0.2,0.3,0.4,0.3,0.7
				c0,0.3-0.1,0.5-0.3,0.7c-0.2,0.2-0.4,0.3-0.7,0.3c-0.3,0-0.5-0.1-0.7-0.3C416.9,215.5,416.8,215.3,416.8,215z M418.6,225.3h-1.7
				v-8.1h1.7V225.3z"/>
			<path fill="#006838" d="M425.4,225.4c-1.2,0-2.1-0.4-2.8-1.1c-0.6-0.7-1-1.8-1-3.1c0-1.4,0.3-2.4,1-3.2c0.7-0.7,1.6-1.1,2.9-1.1
				c0.8,0,1.6,0.2,2.3,0.5l-0.5,1.4c-0.7-0.3-1.3-0.4-1.8-0.4c-1.4,0-2.1,0.9-2.1,2.8c0,0.9,0.2,1.6,0.5,2.1
				c0.3,0.5,0.9,0.7,1.5,0.7c0.8,0,1.5-0.2,2.2-0.6v1.5c-0.3,0.2-0.6,0.3-1,0.4C426.4,225.4,425.9,225.4,425.4,225.4z"/>
			<path fill="#006838" d="M177.8,243.4l-0.3-1.1h-0.1c-0.4,0.5-0.8,0.8-1.2,1c-0.4,0.2-0.9,0.3-1.5,0.3c-0.8,0-1.4-0.2-1.9-0.6
				c-0.4-0.4-0.7-1-0.7-1.8c0-0.8,0.3-1.5,0.9-1.9c0.6-0.4,1.6-0.7,2.8-0.7l1.4,0V238c0-0.5-0.1-0.9-0.4-1.2
				c-0.2-0.3-0.6-0.4-1.1-0.4c-0.4,0-0.8,0.1-1.2,0.2c-0.4,0.1-0.7,0.3-1.1,0.4l-0.6-1.2c0.4-0.2,0.9-0.4,1.4-0.5
				c0.5-0.1,1-0.2,1.5-0.2c1,0,1.8,0.2,2.3,0.7c0.5,0.5,0.8,1.2,0.8,2.1v5.5H177.8z M175.3,242.2c0.6,0,1.1-0.2,1.5-0.5
				c0.4-0.4,0.6-0.8,0.6-1.5v-0.7l-1,0c-0.8,0-1.4,0.2-1.8,0.4c-0.4,0.2-0.5,0.6-0.5,1.1c0,0.4,0.1,0.6,0.3,0.8
				C174.5,242.1,174.9,242.2,175.3,242.2z"/>
			<path fill="#006838" d="M186.7,235.1c0.3,0,0.6,0,0.9,0.1l-0.2,1.6c-0.2-0.1-0.5-0.1-0.8-0.1c-0.7,0-1.2,0.2-1.7,0.7
				s-0.6,1-0.6,1.8v4.3h-1.7v-8.1h1.3l0.2,1.4h0.1c0.3-0.5,0.6-0.9,1-1.2C185.7,235.2,186.2,235.1,186.7,235.1z"/>
			<path fill="#006838" d="M193.7,243.5c-1.3,0-2.2-0.4-2.9-1.1s-1.1-1.8-1.1-3.1c0-1.3,0.3-2.4,1-3.1c0.7-0.8,1.6-1.1,2.7-1.1
				c1.1,0,1.9,0.3,2.5,1c0.6,0.7,0.9,1.6,0.9,2.7v0.9h-5.4c0,0.8,0.2,1.4,0.6,1.8s1,0.6,1.7,0.6c0.5,0,0.9,0,1.3-0.1
				c0.4-0.1,0.9-0.2,1.3-0.5v1.4c-0.4,0.2-0.8,0.3-1.3,0.4C194.7,243.5,194.2,243.5,193.7,243.5z M193.3,236.4c-0.5,0-1,0.2-1.3,0.5
				s-0.5,0.9-0.6,1.5h3.7c0-0.7-0.2-1.2-0.5-1.5C194.3,236.6,193.9,236.4,193.3,236.4z"/>
			<path fill="#006838" d="M204.9,243.4l-0.3-1.1h-0.1c-0.4,0.5-0.8,0.8-1.2,1c-0.4,0.2-0.9,0.3-1.5,0.3c-0.8,0-1.4-0.2-1.9-0.6
				c-0.4-0.4-0.7-1-0.7-1.8c0-0.8,0.3-1.5,0.9-1.9c0.6-0.4,1.6-0.7,2.8-0.7l1.4,0V238c0-0.5-0.1-0.9-0.4-1.2
				c-0.2-0.3-0.6-0.4-1.1-0.4c-0.4,0-0.8,0.1-1.2,0.2c-0.4,0.1-0.7,0.3-1.1,0.4l-0.6-1.2c0.4-0.2,0.9-0.4,1.4-0.5
				c0.5-0.1,1-0.2,1.5-0.2c1,0,1.8,0.2,2.3,0.7c0.5,0.5,0.8,1.2,0.8,2.1v5.5H204.9z M202.3,242.2c0.6,0,1.1-0.2,1.5-0.5
				c0.4-0.4,0.6-0.8,0.6-1.5v-0.7l-1,0c-0.8,0-1.4,0.2-1.8,0.4c-0.4,0.2-0.5,0.6-0.5,1.1c0,0.4,0.1,0.6,0.3,0.8
				C201.6,242.1,201.9,242.2,202.3,242.2z"/>
			<path fill="#006838" d="M215,241c0,0.8-0.3,1.4-0.9,1.8c-0.6,0.4-1.4,0.6-2.5,0.6c-1.1,0-1.9-0.2-2.6-0.5v-1.5
				c0.9,0.4,1.8,0.7,2.6,0.7c1.1,0,1.6-0.3,1.6-1c0-0.2-0.1-0.4-0.2-0.5c-0.1-0.1-0.3-0.3-0.6-0.4c-0.3-0.1-0.6-0.3-1.1-0.5
				c-0.9-0.4-1.6-0.7-1.9-1.1s-0.5-0.8-0.5-1.4c0-0.7,0.3-1.2,0.8-1.6c0.6-0.4,1.3-0.6,2.3-0.6c0.9,0,1.8,0.2,2.7,0.6l-0.6,1.3
				c-0.9-0.4-1.6-0.5-2.2-0.5c-0.9,0-1.4,0.3-1.4,0.8c0,0.3,0.1,0.5,0.4,0.6s0.8,0.4,1.5,0.7c0.7,0.3,1.1,0.5,1.5,0.7
				c0.3,0.2,0.5,0.5,0.7,0.7C215,240.3,215,240.7,215,241z"/>
			<path fill="#006838" d="M219.8,241.8c-0.2,0.9-0.7,2.1-1.3,3.5h-1.3c0.3-1.3,0.6-2.6,0.8-3.7h1.7L219.8,241.8z"/>
			<path fill="#006838" d="M234.9,235.2v1l-1.4,0.3c0.1,0.2,0.2,0.4,0.3,0.6c0.1,0.2,0.1,0.5,0.1,0.8c0,0.8-0.3,1.5-0.9,2
				c-0.6,0.5-1.4,0.7-2.4,0.7c-0.3,0-0.5,0-0.7-0.1c-0.4,0.2-0.6,0.5-0.6,0.8c0,0.2,0.1,0.3,0.3,0.4c0.2,0.1,0.5,0.1,1,0.1h1.4
				c0.9,0,1.6,0.2,2,0.6c0.5,0.4,0.7,0.9,0.7,1.7c0,0.9-0.4,1.6-1.1,2.1c-0.8,0.5-1.8,0.8-3.3,0.8c-1.1,0-1.9-0.2-2.5-0.6
				c-0.6-0.4-0.9-1-0.9-1.7c0-0.5,0.2-0.9,0.5-1.3c0.3-0.3,0.8-0.6,1.3-0.7c-0.2-0.1-0.4-0.3-0.6-0.5s-0.2-0.4-0.2-0.7
				c0-0.3,0.1-0.6,0.3-0.8c0.2-0.2,0.4-0.4,0.8-0.6c-0.4-0.2-0.8-0.5-1-0.9c-0.3-0.4-0.4-0.9-0.4-1.4c0-0.9,0.3-1.6,0.8-2.1
				c0.6-0.5,1.3-0.7,2.4-0.7c0.2,0,0.5,0,0.7,0c0.2,0,0.4,0.1,0.6,0.1H234.9z M228.6,244.6c0,0.4,0.2,0.7,0.5,0.9
				c0.3,0.2,0.8,0.3,1.4,0.3c0.9,0,1.6-0.1,2.1-0.4c0.5-0.3,0.7-0.6,0.7-1.1c0-0.4-0.1-0.6-0.4-0.8c-0.2-0.2-0.7-0.2-1.4-0.2h-1.3
				c-0.5,0-0.9,0.1-1.2,0.3S228.6,244.2,228.6,244.6z M229.3,237.9c0,0.5,0.1,0.9,0.4,1.2c0.3,0.3,0.6,0.4,1.1,0.4
				c1,0,1.5-0.5,1.5-1.6c0-0.5-0.1-0.9-0.4-1.2c-0.2-0.3-0.6-0.4-1.1-0.4c-0.5,0-0.9,0.1-1.1,0.4
				C229.5,236.9,229.3,237.3,229.3,237.9z"/>
			<path fill="#006838" d="M242.6,243.4l-0.3-1.1h-0.1c-0.4,0.5-0.8,0.8-1.2,1c-0.4,0.2-0.9,0.3-1.5,0.3c-0.8,0-1.4-0.2-1.9-0.6
				c-0.4-0.4-0.7-1-0.7-1.8c0-0.8,0.3-1.5,0.9-1.9c0.6-0.4,1.6-0.7,2.8-0.7l1.4,0V238c0-0.5-0.1-0.9-0.4-1.2
				c-0.2-0.3-0.6-0.4-1.1-0.4c-0.4,0-0.8,0.1-1.2,0.2c-0.4,0.1-0.7,0.3-1.1,0.4l-0.6-1.2c0.4-0.2,0.9-0.4,1.4-0.5
				c0.5-0.1,1-0.2,1.5-0.2c1,0,1.8,0.2,2.3,0.7c0.5,0.5,0.8,1.2,0.8,2.1v5.5H242.6z M240,242.2c0.6,0,1.1-0.2,1.5-0.5
				c0.4-0.4,0.6-0.8,0.6-1.5v-0.7l-1,0c-0.8,0-1.4,0.2-1.8,0.4c-0.4,0.2-0.5,0.6-0.5,1.1c0,0.4,0.1,0.6,0.3,0.8
				C239.3,242.1,239.6,242.2,240,242.2z"/>
			<path fill="#006838" d="M250.3,242.1c0.4,0,0.8-0.1,1.3-0.2v1.3c-0.2,0.1-0.4,0.2-0.7,0.2s-0.6,0.1-0.9,0.1
				c-1.6,0-2.4-0.9-2.4-2.6v-4.4h-1.1v-0.8l1.2-0.6l0.6-1.7h1.1v1.8h2.3v1.3h-2.3v4.4c0,0.4,0.1,0.7,0.3,0.9
				C249.7,242,250,242.1,250.3,242.1z"/>
			<path fill="#006838" d="M257.8,243.5c-1.3,0-2.2-0.4-2.9-1.1s-1.1-1.8-1.1-3.1c0-1.3,0.3-2.4,1-3.1c0.7-0.8,1.6-1.1,2.7-1.1
				c1.1,0,1.9,0.3,2.5,1c0.6,0.7,0.9,1.6,0.9,2.7v0.9h-5.4c0,0.8,0.2,1.4,0.6,1.8c0.4,0.4,1,0.6,1.7,0.6c0.5,0,0.9,0,1.3-0.1
				c0.4-0.1,0.9-0.2,1.3-0.5v1.4c-0.4,0.2-0.8,0.3-1.3,0.4C258.9,243.5,258.4,243.5,257.8,243.5z M257.5,236.4c-0.5,0-1,0.2-1.3,0.5
				c-0.3,0.3-0.5,0.9-0.6,1.5h3.7c0-0.7-0.2-1.2-0.5-1.5C258.5,236.6,258.1,236.4,257.5,236.4z"/>
			<path fill="#006838" d="M270.7,243.4H269v-11.5h1.7V243.4z"/>
			<path fill="#006838" d="M281.5,239.3c0,1.3-0.3,2.4-1,3.1c-0.7,0.7-1.6,1.1-2.8,1.1c-0.8,0-1.4-0.2-2-0.5s-1-0.8-1.3-1.5
				s-0.5-1.4-0.5-2.2c0-1.3,0.3-2.4,1-3.1c0.7-0.7,1.6-1.1,2.8-1.1c1.2,0,2.1,0.4,2.8,1.1C281.1,237,281.5,238,281.5,239.3z
				 M275.6,239.3c0,1.9,0.7,2.8,2.1,2.8c1.4,0,2-0.9,2-2.8c0-1.9-0.7-2.8-2.1-2.8c-0.7,0-1.2,0.2-1.6,0.7
				C275.8,237.7,275.6,238.4,275.6,239.3z"/>
			<path fill="#006838" d="M290.2,243.4l-0.2-1.1h-0.1c-0.2,0.4-0.6,0.7-1,0.9c-0.4,0.2-0.9,0.3-1.5,0.3c-1,0-1.7-0.2-2.2-0.7
				c-0.5-0.5-0.7-1.2-0.7-2.2v-5.3h1.7v5c0,0.6,0.1,1.1,0.4,1.4c0.3,0.3,0.6,0.5,1.2,0.5c0.7,0,1.2-0.2,1.6-0.7s0.5-1.2,0.5-2.2
				v-4.1h1.7v8.1H290.2z"/>
			<path fill="#006838" d="M302.2,243.4h-1.7v-5c0-0.6-0.1-1.1-0.4-1.4c-0.2-0.3-0.6-0.5-1.2-0.5c-0.7,0-1.3,0.2-1.6,0.6
				c-0.3,0.4-0.5,1.2-0.5,2.2v4.1h-1.7v-8.1h1.3l0.2,1.1h0.1c0.2-0.4,0.6-0.7,1-0.9s0.9-0.3,1.5-0.3c1.9,0,2.9,1,2.9,3V243.4z"/>
			<path fill="#006838" d="M312.5,235.2v1l-1.4,0.3c0.1,0.2,0.2,0.4,0.3,0.6c0.1,0.2,0.1,0.5,0.1,0.8c0,0.8-0.3,1.5-0.9,2
				c-0.6,0.5-1.4,0.7-2.4,0.7c-0.3,0-0.5,0-0.7-0.1c-0.4,0.2-0.6,0.5-0.6,0.8c0,0.2,0.1,0.3,0.3,0.4c0.2,0.1,0.5,0.1,1,0.1h1.4
				c0.9,0,1.6,0.2,2,0.6c0.5,0.4,0.7,0.9,0.7,1.7c0,0.9-0.4,1.6-1.1,2.1c-0.8,0.5-1.8,0.8-3.3,0.8c-1.1,0-1.9-0.2-2.5-0.6
				c-0.6-0.4-0.9-1-0.9-1.7c0-0.5,0.2-0.9,0.5-1.3c0.3-0.3,0.8-0.6,1.3-0.7c-0.2-0.1-0.4-0.3-0.6-0.5s-0.2-0.4-0.2-0.7
				c0-0.3,0.1-0.6,0.3-0.8c0.2-0.2,0.4-0.4,0.8-0.6c-0.4-0.2-0.8-0.5-1-0.9c-0.3-0.4-0.4-0.9-0.4-1.4c0-0.9,0.3-1.6,0.8-2.1
				c0.6-0.5,1.3-0.7,2.4-0.7c0.2,0,0.5,0,0.7,0c0.2,0,0.4,0.1,0.6,0.1H312.5z M306.2,244.6c0,0.4,0.2,0.7,0.5,0.9
				c0.3,0.2,0.8,0.3,1.4,0.3c0.9,0,1.6-0.1,2.1-0.4c0.5-0.3,0.7-0.6,0.7-1.1c0-0.4-0.1-0.6-0.4-0.8c-0.2-0.2-0.7-0.2-1.4-0.2h-1.3
				c-0.5,0-0.9,0.1-1.2,0.3S306.2,244.2,306.2,244.6z M306.9,237.9c0,0.5,0.1,0.9,0.4,1.2c0.3,0.3,0.6,0.4,1.1,0.4
				c1,0,1.5-0.5,1.5-1.6c0-0.5-0.1-0.9-0.4-1.2c-0.2-0.3-0.6-0.4-1.1-0.4c-0.5,0-0.9,0.1-1.1,0.4
				C307.1,236.9,306.9,237.3,306.9,237.9z"/>
			<path fill="#006838" d="M318.7,243.5c-1.3,0-2.2-0.4-2.9-1.1s-1.1-1.8-1.1-3.1c0-1.3,0.3-2.4,1-3.1c0.7-0.8,1.6-1.1,2.7-1.1
				c1.1,0,1.9,0.3,2.5,1c0.6,0.7,0.9,1.6,0.9,2.7v0.9h-5.4c0,0.8,0.2,1.4,0.6,1.8s1,0.6,1.7,0.6c0.5,0,0.9,0,1.3-0.1
				c0.4-0.1,0.9-0.2,1.3-0.5v1.4c-0.4,0.2-0.8,0.3-1.3,0.4C319.7,243.5,319.2,243.5,318.7,243.5z M318.4,236.4c-0.5,0-1,0.2-1.3,0.5
				s-0.5,0.9-0.6,1.5h3.7c0-0.7-0.2-1.2-0.5-1.5C319.3,236.6,318.9,236.4,318.4,236.4z"/>
			<path fill="#006838" d="M330.3,241c0,0.8-0.3,1.4-0.9,1.8c-0.6,0.4-1.4,0.6-2.5,0.6c-1.1,0-1.9-0.2-2.6-0.5v-1.5
				c0.9,0.4,1.8,0.7,2.6,0.7c1.1,0,1.6-0.3,1.6-1c0-0.2-0.1-0.4-0.2-0.5c-0.1-0.1-0.3-0.3-0.6-0.4c-0.3-0.1-0.6-0.3-1.1-0.5
				c-0.9-0.4-1.6-0.7-1.9-1.1s-0.5-0.8-0.5-1.4c0-0.7,0.3-1.2,0.8-1.6c0.6-0.4,1.3-0.6,2.3-0.6c0.9,0,1.8,0.2,2.7,0.6l-0.6,1.3
				c-0.9-0.4-1.6-0.5-2.2-0.5c-0.9,0-1.4,0.3-1.4,0.8c0,0.3,0.1,0.5,0.4,0.6s0.8,0.4,1.5,0.7c0.7,0.3,1.1,0.5,1.5,0.7
				c0.3,0.2,0.5,0.5,0.7,0.7C330.2,240.3,330.3,240.7,330.3,241z"/>
			<path fill="#006838" d="M343.3,243.4l-0.3-1.1h-0.1c-0.4,0.5-0.8,0.8-1.2,1c-0.4,0.2-0.9,0.3-1.5,0.3c-0.8,0-1.4-0.2-1.9-0.6
				c-0.4-0.4-0.7-1-0.7-1.8c0-0.8,0.3-1.5,0.9-1.9c0.6-0.4,1.6-0.7,2.8-0.7l1.4,0V238c0-0.5-0.1-0.9-0.4-1.2
				c-0.2-0.3-0.6-0.4-1.1-0.4c-0.4,0-0.8,0.1-1.2,0.2c-0.4,0.1-0.7,0.3-1.1,0.4l-0.6-1.2c0.4-0.2,0.9-0.4,1.4-0.5
				c0.5-0.1,1-0.2,1.5-0.2c1,0,1.8,0.2,2.3,0.7c0.5,0.5,0.8,1.2,0.8,2.1v5.5H343.3z M340.8,242.2c0.6,0,1.1-0.2,1.5-0.5
				c0.4-0.4,0.6-0.8,0.6-1.5v-0.7l-1,0c-0.8,0-1.4,0.2-1.8,0.4c-0.4,0.2-0.5,0.6-0.5,1.1c0,0.4,0.1,0.6,0.3,0.8
				C340,242.1,340.3,242.2,340.8,242.2z"/>
			<path fill="#006838" d="M355.1,243.4h-1.7v-5c0-0.6-0.1-1.1-0.4-1.4c-0.2-0.3-0.6-0.5-1.2-0.5c-0.7,0-1.3,0.2-1.6,0.6
				c-0.3,0.4-0.5,1.2-0.5,2.2v4.1H348v-8.1h1.3l0.2,1.1h0.1c0.2-0.4,0.6-0.7,1-0.9s0.9-0.3,1.5-0.3c1.9,0,2.9,1,2.9,3V243.4z"/>
			<path fill="#006838" d="M361.4,243.5c-1,0-1.8-0.4-2.4-1.1c-0.6-0.7-0.8-1.8-0.8-3.1c0-1.3,0.3-2.4,0.9-3.1
				c0.6-0.7,1.4-1.1,2.4-1.1c1.1,0,1.9,0.4,2.4,1.2h0.1c-0.1-0.6-0.1-1-0.1-1.4v-3h1.7v11.5h-1.3l-0.3-1.1h-0.1
				C363.2,243.1,362.4,243.5,361.4,243.5z M361.8,242.1c0.7,0,1.2-0.2,1.5-0.6c0.3-0.4,0.5-1,0.5-1.9v-0.2c0-1-0.2-1.8-0.5-2.2
				c-0.3-0.4-0.8-0.6-1.6-0.6c-0.6,0-1.1,0.2-1.4,0.7c-0.3,0.5-0.5,1.2-0.5,2.1c0,0.9,0.2,1.6,0.5,2.1
				C360.7,241.9,361.2,242.1,361.8,242.1z"/>
			<path fill="#006838" d="M175.8,260.2c0.4,0,0.8-0.1,1.3-0.2v1.3c-0.2,0.1-0.4,0.2-0.7,0.2s-0.6,0.1-0.9,0.1
				c-1.6,0-2.4-0.9-2.4-2.6v-4.4h-1.1v-0.8l1.2-0.6l0.6-1.7h1.1v1.8h2.3v1.3h-2.3v4.4c0,0.4,0.1,0.7,0.3,0.9
				C175.2,260.1,175.5,260.2,175.8,260.2z"/>
			<path fill="#006838" d="M183.3,261.6c-1.3,0-2.2-0.4-2.9-1.1s-1.1-1.8-1.1-3.1c0-1.3,0.3-2.4,1-3.1c0.7-0.8,1.6-1.1,2.7-1.1
				c1.1,0,1.9,0.3,2.5,1c0.6,0.7,0.9,1.6,0.9,2.7v0.9h-5.4c0,0.8,0.2,1.4,0.6,1.8s1,0.6,1.7,0.6c0.5,0,0.9,0,1.3-0.1
				c0.4-0.1,0.9-0.2,1.3-0.5v1.4c-0.4,0.2-0.8,0.3-1.3,0.4C184.3,261.6,183.9,261.6,183.3,261.6z M183,254.5c-0.5,0-1,0.2-1.3,0.5
				s-0.5,0.9-0.6,1.5h3.7c0-0.7-0.2-1.2-0.5-1.5C184,254.7,183.5,254.5,183,254.5z"/>
			<path fill="#006838" d="M193.6,253.2c0.3,0,0.6,0,0.9,0.1l-0.2,1.6c-0.2-0.1-0.5-0.1-0.8-0.1c-0.7,0-1.2,0.2-1.7,0.7
				s-0.6,1-0.6,1.8v4.3h-1.7v-8.1h1.3l0.2,1.4h0.1c0.3-0.5,0.6-0.9,1-1.2C192.6,253.3,193.1,253.2,193.6,253.2z"/>
			<path fill="#006838" d="M203.9,261.5h-1.7v-5c0-0.6-0.1-1.1-0.3-1.4c-0.2-0.3-0.6-0.5-1.1-0.5c-0.7,0-1.1,0.2-1.5,0.7
				s-0.5,1.2-0.5,2.2v4.1h-1.7v-8.1h1.3l0.2,1.1h0.1c0.2-0.4,0.5-0.7,1-0.9c0.4-0.2,0.9-0.3,1.4-0.3c1.2,0,2.1,0.4,2.5,1.3h0.1
				c0.2-0.4,0.6-0.7,1-0.9c0.4-0.2,0.9-0.3,1.5-0.3c1,0,1.7,0.2,2.1,0.7c0.4,0.5,0.7,1.2,0.7,2.2v5.3h-1.7v-5c0-0.6-0.1-1.1-0.4-1.4
				s-0.6-0.5-1.1-0.5c-0.7,0-1.2,0.2-1.5,0.6s-0.5,1.1-0.5,1.9V261.5z"/>
			<path fill="#006838" d="M212.4,251.2c0-0.3,0.1-0.5,0.3-0.7s0.4-0.3,0.7-0.3c0.3,0,0.5,0.1,0.7,0.3c0.2,0.2,0.3,0.4,0.3,0.7
				c0,0.3-0.1,0.5-0.3,0.7c-0.2,0.2-0.4,0.3-0.7,0.3c-0.3,0-0.5-0.1-0.7-0.3C212.4,251.7,212.4,251.5,212.4,251.2z M214.2,261.5
				h-1.7v-8.1h1.7V261.5z"/>
			<path fill="#006838" d="M224.8,261.5h-1.7v-5c0-0.6-0.1-1.1-0.4-1.4c-0.2-0.3-0.6-0.5-1.2-0.5c-0.7,0-1.3,0.2-1.6,0.6
				c-0.3,0.4-0.5,1.2-0.5,2.2v4.1h-1.7v-8.1h1.3l0.2,1.1h0.1c0.2-0.4,0.6-0.7,1-0.9s0.9-0.3,1.5-0.3c1.9,0,2.9,1,2.9,3V261.5z"/>
			<path fill="#006838" d="M233.4,261.5l-0.3-1.1H233c-0.4,0.5-0.8,0.8-1.2,1c-0.4,0.2-0.9,0.3-1.5,0.3c-0.8,0-1.4-0.2-1.9-0.6
				c-0.4-0.4-0.7-1-0.7-1.8c0-0.8,0.3-1.5,0.9-1.9c0.6-0.4,1.6-0.7,2.8-0.7l1.4,0v-0.4c0-0.5-0.1-0.9-0.4-1.2
				c-0.2-0.3-0.6-0.4-1.1-0.4c-0.4,0-0.8,0.1-1.2,0.2c-0.4,0.1-0.7,0.3-1.1,0.4l-0.6-1.2c0.4-0.2,0.9-0.4,1.4-0.5
				c0.5-0.1,1-0.2,1.5-0.2c1,0,1.8,0.2,2.3,0.7c0.5,0.5,0.8,1.2,0.8,2.1v5.5H233.4z M230.8,260.3c0.6,0,1.1-0.2,1.5-0.5
				c0.4-0.4,0.6-0.8,0.6-1.5v-0.7l-1,0c-0.8,0-1.4,0.2-1.8,0.4c-0.4,0.2-0.5,0.6-0.5,1.1c0,0.4,0.1,0.6,0.3,0.8
				C230.1,260.2,230.4,260.3,230.8,260.3z"/>
			<path fill="#006838" d="M239.8,261.5h-1.7V250h1.7V261.5z"/>
			<path fill="#006838" d="M248.8,259.1c0,0.8-0.3,1.4-0.9,1.8c-0.6,0.4-1.4,0.6-2.5,0.6c-1.1,0-1.9-0.2-2.6-0.5v-1.5
				c0.9,0.4,1.8,0.7,2.6,0.7c1.1,0,1.6-0.3,1.6-1c0-0.2-0.1-0.4-0.2-0.5c-0.1-0.1-0.3-0.3-0.6-0.4c-0.3-0.1-0.6-0.3-1.1-0.5
				c-0.9-0.4-1.6-0.7-1.9-1.1s-0.5-0.8-0.5-1.4c0-0.7,0.3-1.2,0.8-1.6c0.6-0.4,1.3-0.6,2.3-0.6c0.9,0,1.8,0.2,2.7,0.6l-0.6,1.3
				c-0.9-0.4-1.6-0.5-2.2-0.5c-0.9,0-1.4,0.3-1.4,0.8c0,0.3,0.1,0.5,0.4,0.6c0.2,0.2,0.8,0.4,1.5,0.7c0.7,0.3,1.1,0.5,1.5,0.7
				c0.3,0.2,0.5,0.5,0.7,0.7C248.7,258.4,248.8,258.8,248.8,259.1z"/>
			<path fill="#006838" d="M261.2,261.5h-1.7v-7c0-0.8,0-1.5,0.1-2c-0.1,0.1-0.2,0.2-0.4,0.4c-0.2,0.1-0.7,0.6-1.6,1.4l-0.9-1.1
				l3.1-2.5h1.4V261.5z"/>
			<path fill="#006838" d="M268.2,259.9c-0.2,0.9-0.7,2.1-1.3,3.5h-1.3c0.3-1.3,0.6-2.6,0.8-3.7h1.7L268.2,259.9z"/>
			<path fill="#006838" d="M283.2,261.5H276v-1.3l2.7-2.8c0.8-0.8,1.3-1.4,1.6-1.8c0.3-0.4,0.5-0.7,0.6-1c0.1-0.3,0.2-0.6,0.2-1
				c0-0.5-0.1-0.9-0.4-1.1c-0.3-0.3-0.7-0.4-1.2-0.4c-0.4,0-0.8,0.1-1.2,0.2c-0.4,0.2-0.8,0.4-1.3,0.8l-0.9-1.1
				c0.6-0.5,1.2-0.9,1.7-1.1c0.6-0.2,1.2-0.3,1.8-0.3c1,0,1.8,0.3,2.4,0.8c0.6,0.5,0.9,1.2,0.9,2.1c0,0.5-0.1,0.9-0.3,1.4
				c-0.2,0.4-0.4,0.9-0.8,1.4c-0.4,0.5-1,1.1-1.8,1.9l-1.9,1.8v0.1h5.1V261.5z"/>
			<path fill="#006838" d="M287.9,259.9c-0.2,0.9-0.7,2.1-1.3,3.5h-1.3c0.3-1.3,0.6-2.6,0.8-3.7h1.7L287.9,259.9z"/>
			<path fill="#006838" d="M302.5,253.2c0,0.7-0.2,1.3-0.6,1.7c-0.4,0.5-0.9,0.8-1.7,0.9v0.1c0.9,0.1,1.5,0.4,1.9,0.8s0.6,1,0.6,1.7
				c0,1-0.4,1.8-1.1,2.4c-0.7,0.6-1.8,0.8-3.1,0.8c-1.2,0-2.2-0.2-3-0.6v-1.5c0.5,0.2,0.9,0.4,1.4,0.5c0.5,0.1,1,0.2,1.5,0.2
				c0.8,0,1.4-0.2,1.9-0.5c0.4-0.3,0.6-0.8,0.6-1.4c0-0.6-0.2-1-0.7-1.3c-0.5-0.3-1.2-0.4-2.1-0.4h-0.9v-1.4h0.9
				c1.7,0,2.6-0.6,2.6-1.8c0-0.5-0.1-0.8-0.4-1.1c-0.3-0.2-0.7-0.4-1.3-0.4c-0.4,0-0.8,0.1-1.2,0.2c-0.4,0.1-0.8,0.3-1.3,0.7
				l-0.8-1.2c1-0.7,2.1-1.1,3.4-1.1c1.1,0,1.9,0.2,2.5,0.7C302.2,251.7,302.5,252.4,302.5,253.2z"/>
			<path fill="#006838" d="M315.9,261.5l-0.3-1.1h-0.1c-0.4,0.5-0.8,0.8-1.2,1c-0.4,0.2-0.9,0.3-1.5,0.3c-0.8,0-1.4-0.2-1.9-0.6
				c-0.4-0.4-0.7-1-0.7-1.8c0-0.8,0.3-1.5,0.9-1.9c0.6-0.4,1.6-0.7,2.8-0.7l1.4,0v-0.4c0-0.5-0.1-0.9-0.4-1.2
				c-0.2-0.3-0.6-0.4-1.1-0.4c-0.4,0-0.8,0.1-1.2,0.2c-0.4,0.1-0.7,0.3-1.1,0.4l-0.6-1.2c0.4-0.2,0.9-0.4,1.4-0.5
				c0.5-0.1,1-0.2,1.5-0.2c1,0,1.8,0.2,2.3,0.7c0.5,0.5,0.8,1.2,0.8,2.1v5.5H315.9z M313.4,260.3c0.6,0,1.1-0.2,1.5-0.5
				c0.4-0.4,0.6-0.8,0.6-1.5v-0.7l-1,0c-0.8,0-1.4,0.2-1.8,0.4c-0.4,0.2-0.5,0.6-0.5,1.1c0,0.4,0.1,0.6,0.3,0.8
				C312.6,260.2,313,260.3,313.4,260.3z"/>
			<path fill="#006838" d="M327.8,261.5h-1.7v-5c0-0.6-0.1-1.1-0.4-1.4c-0.2-0.3-0.6-0.5-1.2-0.5c-0.7,0-1.3,0.2-1.6,0.6
				c-0.3,0.4-0.5,1.2-0.5,2.2v4.1h-1.7v-8.1h1.3l0.2,1.1h0.1c0.2-0.4,0.6-0.7,1-0.9s0.9-0.3,1.5-0.3c1.9,0,2.9,1,2.9,3V261.5z"/>
			<path fill="#006838" d="M334,261.6c-1,0-1.8-0.4-2.4-1.1c-0.6-0.7-0.8-1.8-0.8-3.1c0-1.3,0.3-2.4,0.9-3.1
				c0.6-0.7,1.4-1.1,2.4-1.1c1.1,0,1.9,0.4,2.4,1.2h0.1c-0.1-0.6-0.1-1-0.1-1.4v-3h1.7v11.5h-1.3l-0.3-1.1h-0.1
				C335.9,261.2,335.1,261.6,334,261.6z M334.5,260.2c0.7,0,1.2-0.2,1.5-0.6c0.3-0.4,0.5-1,0.5-1.9v-0.2c0-1-0.2-1.8-0.5-2.2
				c-0.3-0.4-0.8-0.6-1.6-0.6c-0.6,0-1.1,0.2-1.4,0.7c-0.3,0.5-0.5,1.2-0.5,2.1c0,0.9,0.2,1.6,0.5,2.1
				C333.3,260,333.8,260.2,334.5,260.2z"/>
			<path fill="#006838" d="M353.7,259.1h-1.4v2.3h-1.7v-2.3h-4.9v-1.3l4.9-7.1h1.7v7h1.4V259.1z M350.6,257.7V255c0-1,0-1.8,0.1-2.4
				h-0.1c-0.1,0.3-0.3,0.7-0.6,1.2l-2.6,3.9H350.6z"/>
			<path fill="#006838" d="M172.2,275.4c0-1.3,0.2-2.5,0.6-3.7c0.4-1.1,0.9-2.1,1.6-3h1.5c-0.7,0.9-1.2,2-1.6,3.1s-0.5,2.3-0.5,3.5
				s0.2,2.4,0.5,3.5c0.4,1.1,0.9,2.1,1.5,3h-1.5c-0.7-0.8-1.3-1.8-1.6-2.9C172.4,277.9,172.2,276.7,172.2,275.4z"/>
			<path fill="#006838" d="M181.7,278.3c0.4,0,0.8-0.1,1.3-0.2v1.3c-0.2,0.1-0.4,0.2-0.7,0.2s-0.6,0.1-0.9,0.1
				c-1.6,0-2.4-0.9-2.4-2.6v-4.4h-1.1V272l1.2-0.6l0.6-1.7h1.1v1.8h2.3v1.3h-2.3v4.4c0,0.4,0.1,0.7,0.3,0.9
				C181,278.2,181.3,278.3,181.7,278.3z"/>
			<path fill="#006838" d="M189.2,279.7c-1.3,0-2.2-0.4-2.9-1.1s-1.1-1.8-1.1-3.1c0-1.3,0.3-2.4,1-3.1c0.7-0.8,1.6-1.1,2.7-1.1
				c1.1,0,1.9,0.3,2.5,1c0.6,0.7,0.9,1.6,0.9,2.7v0.9h-5.4c0,0.8,0.2,1.4,0.6,1.8s1,0.6,1.7,0.6c0.5,0,0.9,0,1.3-0.1
				c0.4-0.1,0.9-0.2,1.3-0.5v1.4c-0.4,0.2-0.8,0.3-1.3,0.4C190.2,279.7,189.7,279.7,189.2,279.7z M188.8,272.6c-0.5,0-1,0.2-1.3,0.5
				s-0.5,0.9-0.6,1.5h3.7c0-0.7-0.2-1.2-0.5-1.5C189.8,272.8,189.4,272.6,188.8,272.6z"/>
			<path fill="#006838" d="M199.4,271.3c0.3,0,0.6,0,0.9,0.1l-0.2,1.6c-0.2-0.1-0.5-0.1-0.8-0.1c-0.7,0-1.2,0.2-1.7,0.7
				s-0.6,1-0.6,1.8v4.3h-1.7v-8.1h1.3l0.2,1.4h0.1c0.3-0.5,0.6-0.9,1-1.2C198.5,271.4,198.9,271.3,199.4,271.3z"/>
			<path fill="#006838" d="M209.7,279.6H208v-5c0-0.6-0.1-1.1-0.3-1.4c-0.2-0.3-0.6-0.5-1.1-0.5c-0.7,0-1.1,0.2-1.5,0.7
				s-0.5,1.2-0.5,2.2v4.1h-1.7v-8.1h1.3l0.2,1.1h0.1c0.2-0.4,0.5-0.7,1-0.9c0.4-0.2,0.9-0.3,1.4-0.3c1.2,0,2.1,0.4,2.5,1.3h0.1
				c0.2-0.4,0.6-0.7,1-0.9c0.4-0.2,0.9-0.3,1.5-0.3c1,0,1.7,0.2,2.1,0.7c0.4,0.5,0.7,1.2,0.7,2.2v5.3h-1.7v-5c0-0.6-0.1-1.1-0.4-1.4
				s-0.6-0.5-1.1-0.5c-0.7,0-1.2,0.2-1.5,0.6s-0.5,1.1-0.5,1.9V279.6z"/>
			<path fill="#006838" d="M218.2,269.3c0-0.3,0.1-0.5,0.3-0.7s0.4-0.3,0.7-0.3c0.3,0,0.5,0.1,0.7,0.3c0.2,0.2,0.3,0.4,0.3,0.7
				c0,0.3-0.1,0.5-0.3,0.7c-0.2,0.2-0.4,0.3-0.7,0.3c-0.3,0-0.5-0.1-0.7-0.3C218.3,269.8,218.2,269.6,218.2,269.3z M220,279.6h-1.7
				v-8.1h1.7V279.6z"/>
			<path fill="#006838" d="M230.7,279.6H229v-5c0-0.6-0.1-1.1-0.4-1.4c-0.2-0.3-0.6-0.5-1.2-0.5c-0.7,0-1.3,0.2-1.6,0.6
				c-0.3,0.4-0.5,1.2-0.5,2.2v4.1h-1.7v-8.1h1.3l0.2,1.1h0.1c0.2-0.4,0.6-0.7,1-0.9s0.9-0.3,1.5-0.3c1.9,0,2.9,1,2.9,3V279.6z"/>
			<path fill="#006838" d="M239.2,279.6l-0.3-1.1h-0.1c-0.4,0.5-0.8,0.8-1.2,1c-0.4,0.2-0.9,0.3-1.5,0.3c-0.8,0-1.4-0.2-1.9-0.6
				c-0.4-0.4-0.7-1-0.7-1.8c0-0.8,0.3-1.5,0.9-1.9c0.6-0.4,1.6-0.7,2.8-0.7l1.4,0v-0.4c0-0.5-0.1-0.9-0.4-1.2
				c-0.2-0.3-0.6-0.4-1.1-0.4c-0.4,0-0.8,0.1-1.2,0.2c-0.4,0.1-0.7,0.3-1.1,0.4l-0.6-1.2c0.4-0.2,0.9-0.4,1.4-0.5
				c0.5-0.1,1-0.2,1.5-0.2c1,0,1.8,0.2,2.3,0.7c0.5,0.5,0.8,1.2,0.8,2.1v5.5H239.2z M236.7,278.4c0.6,0,1.1-0.2,1.5-0.5
				c0.4-0.4,0.6-0.8,0.6-1.5v-0.7l-1,0c-0.8,0-1.4,0.2-1.8,0.4c-0.4,0.2-0.5,0.6-0.5,1.1c0,0.4,0.1,0.6,0.3,0.8
				C235.9,278.3,236.2,278.4,236.7,278.4z"/>
			<path fill="#006838" d="M245.7,279.6H244v-11.5h1.7V279.6z"/>
			<path fill="#006838" d="M258.7,279.6H257v-7c0-0.8,0-1.5,0.1-2c-0.1,0.1-0.2,0.2-0.4,0.4c-0.2,0.1-0.7,0.6-1.6,1.4l-0.9-1.1
				l3.1-2.5h1.4V279.6z"/>
			<path fill="#006838" d="M268.8,269.3c0-0.3,0.1-0.5,0.3-0.7s0.4-0.3,0.7-0.3c0.3,0,0.5,0.1,0.7,0.3c0.2,0.2,0.3,0.4,0.3,0.7
				c0,0.3-0.1,0.5-0.3,0.7c-0.2,0.2-0.4,0.3-0.7,0.3c-0.3,0-0.5-0.1-0.7-0.3C268.9,269.8,268.8,269.6,268.8,269.3z M270.6,279.6
				h-1.7v-8.1h1.7V279.6z"/>
			<path fill="#006838" d="M279.6,277.2c0,0.8-0.3,1.4-0.9,1.8c-0.6,0.4-1.4,0.6-2.5,0.6c-1.1,0-1.9-0.2-2.6-0.5v-1.5
				c0.9,0.4,1.8,0.7,2.6,0.7c1.1,0,1.6-0.3,1.6-1c0-0.2-0.1-0.4-0.2-0.5c-0.1-0.1-0.3-0.3-0.6-0.4c-0.3-0.1-0.6-0.3-1.1-0.5
				c-0.9-0.4-1.6-0.7-1.9-1.1s-0.5-0.8-0.5-1.4c0-0.7,0.3-1.2,0.8-1.6c0.6-0.4,1.3-0.6,2.3-0.6c0.9,0,1.8,0.2,2.7,0.6l-0.6,1.3
				c-0.9-0.4-1.6-0.5-2.2-0.5c-0.9,0-1.4,0.3-1.4,0.8c0,0.3,0.1,0.5,0.4,0.6s0.8,0.4,1.5,0.7c0.7,0.3,1.1,0.5,1.5,0.7
				c0.3,0.2,0.5,0.5,0.7,0.7C279.5,276.5,279.6,276.9,279.6,277.2z"/>
			<path fill="#006838" d="M292.6,279.6l-0.3-1.1h-0.1c-0.4,0.5-0.8,0.8-1.2,1c-0.4,0.2-0.9,0.3-1.5,0.3c-0.8,0-1.4-0.2-1.9-0.6
				c-0.4-0.4-0.7-1-0.7-1.8c0-0.8,0.3-1.5,0.9-1.9c0.6-0.4,1.6-0.7,2.8-0.7l1.4,0v-0.4c0-0.5-0.1-0.9-0.4-1.2
				c-0.2-0.3-0.6-0.4-1.1-0.4c-0.4,0-0.8,0.1-1.2,0.2c-0.4,0.1-0.7,0.3-1.1,0.4l-0.6-1.2c0.4-0.2,0.9-0.4,1.4-0.5
				c0.5-0.1,1-0.2,1.5-0.2c1,0,1.8,0.2,2.3,0.7c0.5,0.5,0.8,1.2,0.8,2.1v5.5H292.6z M290,278.4c0.6,0,1.1-0.2,1.5-0.5
				c0.4-0.4,0.6-0.8,0.6-1.5v-0.7l-1,0c-0.8,0-1.4,0.2-1.8,0.4c-0.4,0.2-0.5,0.6-0.5,1.1c0,0.4,0.1,0.6,0.3,0.8
				C289.3,278.3,289.6,278.4,290,278.4z"/>
			<path fill="#006838" d="M299,279.6h-1.7v-11.5h1.7V279.6z"/>
			<path fill="#006838" d="M308,277.2c0,0.8-0.3,1.4-0.9,1.8c-0.6,0.4-1.4,0.6-2.5,0.6c-1.1,0-1.9-0.2-2.6-0.5v-1.5
				c0.9,0.4,1.8,0.7,2.6,0.7c1.1,0,1.6-0.3,1.6-1c0-0.2-0.1-0.4-0.2-0.5c-0.1-0.1-0.3-0.3-0.6-0.4c-0.3-0.1-0.6-0.3-1.1-0.5
				c-0.9-0.4-1.6-0.7-1.9-1.1s-0.5-0.8-0.5-1.4c0-0.7,0.3-1.2,0.8-1.6c0.6-0.4,1.3-0.6,2.3-0.6c0.9,0,1.8,0.2,2.7,0.6l-0.6,1.3
				c-0.9-0.4-1.6-0.5-2.2-0.5c-0.9,0-1.4,0.3-1.4,0.8c0,0.3,0.1,0.5,0.4,0.6s0.8,0.4,1.5,0.7c0.7,0.3,1.1,0.5,1.5,0.7
				c0.3,0.2,0.5,0.5,0.7,0.7C307.9,276.5,308,276.9,308,277.2z"/>
			<path fill="#006838" d="M318.1,275.5c0,1.3-0.3,2.4-1,3.1c-0.7,0.7-1.6,1.1-2.8,1.1c-0.8,0-1.4-0.2-2-0.5s-1-0.8-1.3-1.5
				s-0.5-1.4-0.5-2.2c0-1.3,0.3-2.4,1-3.1c0.7-0.7,1.6-1.1,2.8-1.1c1.2,0,2.1,0.4,2.8,1.1C317.8,273.2,318.1,274.2,318.1,275.5z
				 M312.3,275.5c0,1.9,0.7,2.8,2.1,2.8c1.4,0,2-0.9,2-2.8c0-1.9-0.7-2.8-2.1-2.8c-0.7,0-1.2,0.2-1.6,0.7
				C312.4,273.9,312.3,274.6,312.3,275.5z"/>
			<path fill="#006838" d="M330.3,272.7h-2v6.8h-1.7v-6.8h-1.3v-0.8l1.3-0.5v-0.5c0-1,0.2-1.7,0.7-2.1s1.1-0.7,2-0.7
				c0.6,0,1.2,0.1,1.8,0.3l-0.5,1.3c-0.4-0.1-0.8-0.2-1.2-0.2c-0.4,0-0.7,0.1-0.8,0.4c-0.2,0.2-0.3,0.6-0.3,1.1v0.5h2V272.7z"/>
			<path fill="#006838" d="M336.8,271.3c0.3,0,0.6,0,0.9,0.1l-0.2,1.6c-0.2-0.1-0.5-0.1-0.8-0.1c-0.7,0-1.2,0.2-1.7,0.7
				s-0.6,1-0.6,1.8v4.3h-1.7v-8.1h1.3l0.2,1.4h0.1c0.3-0.5,0.6-0.9,1-1.2C335.9,271.4,336.4,271.3,336.8,271.3z"/>
			<path fill="#006838" d="M343.8,279.7c-1.3,0-2.2-0.4-2.9-1.1s-1.1-1.8-1.1-3.1c0-1.3,0.3-2.4,1-3.1c0.7-0.8,1.6-1.1,2.7-1.1
				c1.1,0,1.9,0.3,2.5,1c0.6,0.7,0.9,1.6,0.9,2.7v0.9h-5.4c0,0.8,0.2,1.4,0.6,1.8s1,0.6,1.7,0.6c0.5,0,0.9,0,1.3-0.1
				c0.4-0.1,0.9-0.2,1.3-0.5v1.4c-0.4,0.2-0.8,0.3-1.3,0.4C344.9,279.7,344.4,279.7,343.8,279.7z M343.5,272.6c-0.5,0-1,0.2-1.3,0.5
				s-0.5,0.9-0.6,1.5h3.7c0-0.7-0.2-1.2-0.5-1.5C344.5,272.8,344.1,272.6,343.5,272.6z"/>
			<path fill="#006838" d="M353.6,279.7c-1.3,0-2.2-0.4-2.9-1.1s-1.1-1.8-1.1-3.1c0-1.3,0.3-2.4,1-3.1c0.7-0.8,1.6-1.1,2.7-1.1
				c1.1,0,1.9,0.3,2.5,1c0.6,0.7,0.9,1.6,0.9,2.7v0.9h-5.4c0,0.8,0.2,1.4,0.6,1.8s1,0.6,1.7,0.6c0.5,0,0.9,0,1.3-0.1
				c0.4-0.1,0.9-0.2,1.3-0.5v1.4c-0.4,0.2-0.8,0.3-1.3,0.4C354.6,279.7,354.1,279.7,353.6,279.7z M353.2,272.6c-0.5,0-1,0.2-1.3,0.5
				s-0.5,0.9-0.6,1.5h3.7c0-0.7-0.2-1.2-0.5-1.5C354.2,272.8,353.8,272.6,353.2,272.6z"/>
			<path fill="#006838" d="M176.9,289.4c1,0,1.8,0.4,2.4,1.1c0.6,0.7,0.8,1.8,0.8,3.1c0,1.3-0.3,2.4-0.9,3.1s-1.4,1.1-2.4,1.1
				c-1,0-1.8-0.4-2.4-1.1h-0.1l-0.3,1h-1.3v-11.5h1.7v2.7c0,0.2,0,0.5,0,0.9s0,0.7,0,0.8h0.1C175.1,289.8,175.9,289.4,176.9,289.4z
				 M176.5,290.8c-0.7,0-1.2,0.2-1.5,0.6s-0.5,1.1-0.5,2.1v0.1c0,1,0.2,1.7,0.5,2.2c0.3,0.4,0.8,0.7,1.5,0.7c0.6,0,1.1-0.2,1.4-0.7
				s0.5-1.2,0.5-2.1C178.4,291.7,177.7,290.8,176.5,290.8z"/>
			<path fill="#006838" d="M188.9,297.7l-0.2-1.1h-0.1c-0.2,0.4-0.6,0.7-1,0.9c-0.4,0.2-0.9,0.3-1.5,0.3c-1,0-1.7-0.2-2.2-0.7
				c-0.5-0.5-0.7-1.2-0.7-2.2v-5.3h1.7v5c0,0.6,0.1,1.1,0.4,1.4c0.3,0.3,0.6,0.5,1.2,0.5c0.7,0,1.2-0.2,1.6-0.7s0.5-1.2,0.5-2.2
				v-4.1h1.7v8.1H188.9z"/>
			<path fill="#006838" d="M196.8,296.4c0.4,0,0.8-0.1,1.3-0.2v1.3c-0.2,0.1-0.4,0.2-0.7,0.2s-0.6,0.1-0.9,0.1
				c-1.6,0-2.4-0.9-2.4-2.6v-4.4h-1.1v-0.8l1.2-0.6l0.6-1.7h1.1v1.8h2.3v1.3h-2.3v4.4c0,0.4,0.1,0.7,0.3,0.9
				C196.2,296.3,196.5,296.4,196.8,296.4z"/>
			<path fill="#006838" d="M212.9,293.6c0,1.3-0.3,2.4-1,3.1c-0.7,0.7-1.6,1.1-2.8,1.1c-0.8,0-1.4-0.2-2-0.5s-1-0.8-1.3-1.5
				s-0.5-1.4-0.5-2.2c0-1.3,0.3-2.4,1-3.1c0.7-0.7,1.6-1.1,2.8-1.1c1.2,0,2.1,0.4,2.8,1.1C212.6,291.3,212.9,292.3,212.9,293.6z
				 M207.1,293.6c0,1.9,0.7,2.8,2.1,2.8c1.4,0,2-0.9,2-2.8c0-1.9-0.7-2.8-2.1-2.8c-0.7,0-1.2,0.2-1.6,0.7
				C207.2,292,207.1,292.7,207.1,293.6z"/>
			<path fill="#006838" d="M220.1,290.8h-2v6.8h-1.7v-6.8h-1.3V290l1.3-0.5V289c0-1,0.2-1.7,0.7-2.1s1.1-0.7,2-0.7
				c0.6,0,1.2,0.1,1.8,0.3l-0.5,1.3c-0.4-0.1-0.8-0.2-1.2-0.2c-0.4,0-0.7,0.1-0.8,0.4c-0.2,0.2-0.3,0.6-0.3,1.1v0.5h2V290.8z
				 M225.5,290.8h-2v6.8h-1.7v-6.8h-1.3V290l1.3-0.5V289c0-1,0.2-1.7,0.7-2.1s1.1-0.7,2-0.7c0.6,0,1.2,0.1,1.8,0.3l-0.5,1.3
				c-0.4-0.1-0.8-0.2-1.2-0.2c-0.4,0-0.7,0.1-0.8,0.4c-0.2,0.2-0.3,0.6-0.3,1.1v0.5h2V290.8z"/>
			<path fill="#006838" d="M231.5,297.8c-1.3,0-2.2-0.4-2.9-1.1s-1.1-1.8-1.1-3.1c0-1.3,0.3-2.4,1-3.1c0.7-0.8,1.6-1.1,2.7-1.1
				c1.1,0,1.9,0.3,2.5,1c0.6,0.7,0.9,1.6,0.9,2.7v0.9h-5.4c0,0.8,0.2,1.4,0.6,1.8s1,0.6,1.7,0.6c0.5,0,0.9,0,1.3-0.1
				c0.4-0.1,0.9-0.2,1.3-0.5v1.4c-0.4,0.2-0.8,0.3-1.3,0.4C232.6,297.8,232.1,297.8,231.5,297.8z M231.2,290.7c-0.5,0-1,0.2-1.3,0.5
				s-0.5,0.9-0.6,1.5h3.7c0-0.7-0.2-1.2-0.5-1.5C232.2,290.9,231.7,290.7,231.2,290.7z"/>
			<path fill="#006838" d="M241.8,289.4c0.3,0,0.6,0,0.9,0.1l-0.2,1.6c-0.2-0.1-0.5-0.1-0.8-0.1c-0.7,0-1.2,0.2-1.7,0.7
				s-0.6,1-0.6,1.8v4.3h-1.7v-8.1h1.3l0.2,1.4h0.1c0.3-0.5,0.6-0.9,1-1.2C240.8,289.5,241.3,289.4,241.8,289.4z"/>
			<path fill="#006838" d="M248.8,297.8c-1.3,0-2.2-0.4-2.9-1.1s-1.1-1.8-1.1-3.1c0-1.3,0.3-2.4,1-3.1c0.7-0.8,1.6-1.1,2.7-1.1
				c1.1,0,1.9,0.3,2.5,1c0.6,0.7,0.9,1.6,0.9,2.7v0.9h-5.4c0,0.8,0.2,1.4,0.6,1.8s1,0.6,1.7,0.6c0.5,0,0.9,0,1.3-0.1
				c0.4-0.1,0.9-0.2,1.3-0.5v1.4c-0.4,0.2-0.8,0.3-1.3,0.4C249.8,297.8,249.3,297.8,248.8,297.8z M248.5,290.7c-0.5,0-1,0.2-1.3,0.5
				s-0.5,0.9-0.6,1.5h3.7c0-0.7-0.2-1.2-0.5-1.5C249.4,290.9,249,290.7,248.5,290.7z"/>
			<path fill="#006838" d="M257.7,297.8c-1,0-1.8-0.4-2.4-1.1c-0.6-0.7-0.8-1.8-0.8-3.1c0-1.3,0.3-2.4,0.9-3.1
				c0.6-0.7,1.4-1.1,2.4-1.1c1.1,0,1.9,0.4,2.4,1.2h0.1c-0.1-0.6-0.1-1-0.1-1.4v-3h1.7v11.5h-1.3l-0.3-1.1h-0.1
				C259.6,297.4,258.8,297.8,257.7,297.8z M258.2,296.4c0.7,0,1.2-0.2,1.5-0.6c0.3-0.4,0.5-1,0.5-1.9v-0.2c0-1-0.2-1.8-0.5-2.2
				c-0.3-0.4-0.8-0.6-1.6-0.6c-0.6,0-1.1,0.2-1.4,0.7c-0.3,0.5-0.5,1.2-0.5,2.1c0,0.9,0.2,1.6,0.5,2.1
				C257.1,296.2,257.5,296.4,258.2,296.4z"/>
			<path fill="#006838" d="M274.5,289.4c1,0,1.8,0.4,2.4,1.1c0.6,0.7,0.8,1.8,0.8,3.1c0,1.3-0.3,2.4-0.9,3.1s-1.4,1.1-2.4,1.1
				c-1,0-1.8-0.4-2.4-1.1H272l-0.3,1h-1.3v-11.5h1.7v2.7c0,0.2,0,0.5,0,0.9s0,0.7,0,0.8h0.1C272.7,289.8,273.5,289.4,274.5,289.4z
				 M274.1,290.8c-0.7,0-1.2,0.2-1.5,0.6s-0.5,1.1-0.5,2.1v0.1c0,1,0.2,1.7,0.5,2.2c0.3,0.4,0.8,0.7,1.5,0.7c0.6,0,1.1-0.2,1.4-0.7
				s0.5-1.2,0.5-2.1C276,291.7,275.3,290.8,274.1,290.8z"/>
			<path fill="#006838" d="M279.6,289.5h1.9l1.6,4.6c0.2,0.7,0.4,1.3,0.5,1.9h0.1c0-0.3,0.1-0.6,0.2-1c0.1-0.4,0.7-2.2,1.9-5.5h1.9
				l-3.4,9.2c-0.6,1.7-1.7,2.5-3.1,2.5c-0.4,0-0.7,0-1.1-0.1v-1.4c0.3,0.1,0.6,0.1,0.9,0.1c0.8,0,1.4-0.5,1.7-1.5l0.3-0.8
				L279.6,289.5z"/>
			<path fill="#006838" d="M304.6,292.3c0,1.3-0.2,2.4-0.7,3.3c-0.5,0.9-1.2,1.5-2.2,1.9l2.6,2.8h-2.3l-2-2.4h-0.3
				c-1.6,0-2.8-0.5-3.7-1.4s-1.3-2.3-1.3-4.1c0-1.8,0.4-3.1,1.3-4.1c0.9-1,2.1-1.4,3.7-1.4c1.6,0,2.8,0.5,3.7,1.5
				C304.2,289.2,304.6,290.5,304.6,292.3z M296.5,292.3c0,1.3,0.3,2.3,0.8,3c0.5,0.7,1.3,1,2.4,1c1,0,1.8-0.3,2.3-1s0.8-1.7,0.8-3
				c0-1.3-0.3-2.3-0.8-3c-0.5-0.7-1.3-1-2.3-1c-1,0-1.8,0.3-2.4,1S296.5,291,296.5,292.3z"/>
			<path fill="#006838" d="M312.9,297.7l-0.3-1.1h-0.1c-0.4,0.5-0.8,0.8-1.2,1c-0.4,0.2-0.9,0.3-1.5,0.3c-0.8,0-1.4-0.2-1.9-0.6
				c-0.4-0.4-0.7-1-0.7-1.8c0-0.8,0.3-1.5,0.9-1.9c0.6-0.4,1.6-0.7,2.8-0.7l1.4,0v-0.4c0-0.5-0.1-0.9-0.4-1.2
				c-0.2-0.3-0.6-0.4-1.1-0.4c-0.4,0-0.8,0.1-1.2,0.2c-0.4,0.1-0.7,0.3-1.1,0.4l-0.6-1.2c0.4-0.2,0.9-0.4,1.4-0.5
				c0.5-0.1,1-0.2,1.5-0.2c1,0,1.8,0.2,2.3,0.7c0.5,0.5,0.8,1.2,0.8,2.1v5.5H312.9z M310.3,296.5c0.6,0,1.1-0.2,1.5-0.5
				c0.4-0.4,0.6-0.8,0.6-1.5v-0.7l-1,0c-0.8,0-1.4,0.2-1.8,0.4c-0.4,0.2-0.5,0.6-0.5,1.1c0,0.4,0.1,0.6,0.3,0.8
				C309.6,296.4,309.9,296.5,310.3,296.5z"/>
			<path fill="#006838" d="M324.7,297.7H323v-5c0-0.6-0.1-1.1-0.4-1.4c-0.2-0.3-0.6-0.5-1.2-0.5c-0.7,0-1.3,0.2-1.6,0.6
				c-0.3,0.4-0.5,1.2-0.5,2.2v4.1h-1.7v-8.1h1.3l0.2,1.1h0.1c0.2-0.4,0.6-0.7,1-0.9s0.9-0.3,1.5-0.3c1.9,0,2.9,1,2.9,3V297.7z"/>
			<path fill="#006838" d="M331.2,296.4c0.4,0,0.8-0.1,1.3-0.2v1.3c-0.2,0.1-0.4,0.2-0.7,0.2s-0.6,0.1-0.9,0.1
				c-1.6,0-2.4-0.9-2.4-2.6v-4.4h-1.1v-0.8l1.2-0.6l0.6-1.7h1.1v1.8h2.3v1.3h-2.3v4.4c0,0.4,0.1,0.7,0.3,0.9
				C330.6,296.3,330.9,296.4,331.2,296.4z"/>
			<path fill="#006838" d="M340.2,297.7l-0.3-1.1h-0.1c-0.4,0.5-0.8,0.8-1.2,1c-0.4,0.2-0.9,0.3-1.5,0.3c-0.8,0-1.4-0.2-1.9-0.6
				c-0.4-0.4-0.7-1-0.7-1.8c0-0.8,0.3-1.5,0.9-1.9c0.6-0.4,1.6-0.7,2.8-0.7l1.4,0v-0.4c0-0.5-0.1-0.9-0.4-1.2
				c-0.2-0.3-0.6-0.4-1.1-0.4c-0.4,0-0.8,0.1-1.2,0.2c-0.4,0.1-0.7,0.3-1.1,0.4l-0.6-1.2c0.4-0.2,0.9-0.4,1.4-0.5
				c0.5-0.1,1-0.2,1.5-0.2c1,0,1.8,0.2,2.3,0.7c0.5,0.5,0.8,1.2,0.8,2.1v5.5H340.2z M337.7,296.5c0.6,0,1.1-0.2,1.5-0.5
				c0.4-0.4,0.6-0.8,0.6-1.5v-0.7l-1,0c-0.8,0-1.4,0.2-1.8,0.4c-0.4,0.2-0.5,0.6-0.5,1.1c0,0.4,0.1,0.6,0.3,0.8
				C336.9,296.4,337.2,296.5,337.7,296.5z"/>
			<path fill="#006838" d="M350.4,295.4c0,0.8-0.3,1.4-0.9,1.8c-0.6,0.4-1.4,0.6-2.5,0.6c-1.1,0-1.9-0.2-2.6-0.5v-1.5
				c0.9,0.4,1.8,0.7,2.6,0.7c1.1,0,1.6-0.3,1.6-1c0-0.2-0.1-0.4-0.2-0.5c-0.1-0.1-0.3-0.3-0.6-0.4c-0.3-0.1-0.6-0.3-1.1-0.5
				c-0.9-0.4-1.6-0.7-1.9-1.1s-0.5-0.8-0.5-1.4c0-0.7,0.3-1.2,0.8-1.6c0.6-0.4,1.3-0.6,2.3-0.6c0.9,0,1.8,0.2,2.7,0.6l-0.6,1.3
				c-0.9-0.4-1.6-0.5-2.2-0.5c-0.9,0-1.4,0.3-1.4,0.8c0,0.3,0.1,0.5,0.4,0.6s0.8,0.4,1.5,0.7c0.7,0.3,1.1,0.5,1.5,0.7
				c0.3,0.2,0.5,0.5,0.7,0.7C350.3,294.6,350.4,295,350.4,295.4z"/>
			<path fill="#006838" d="M356.3,293.5c0,1.3-0.2,2.5-0.6,3.6c-0.4,1.1-0.9,2.1-1.6,2.9h-1.5c0.7-0.9,1.2-1.9,1.5-3.1
				c0.4-1.1,0.5-2.3,0.5-3.5c0-1.2-0.2-2.4-0.5-3.5s-0.9-2.2-1.6-3.1h1.5c0.7,0.9,1.3,1.9,1.6,3S356.3,292.2,356.3,293.5z"/>
		</g>
	</g>
</g>
</svg>
