<!-- Generator: Adobe Illustrator 18.0.0, SVG Export Plug-In  -->
<svg version="1.1"
	 xmlns="http://www.w3.org/2000/svg" xmlns:xlink="http://www.w3.org/1999/xlink" xmlns:a="http://ns.adobe.com/AdobeSVGViewerExtensions/3.0/"
	 x="0px" y="0px" width="680.3px" height="247.9px" viewBox="0 0 680.3 247.9" enable-background="new 0 0 680.3 247.9"
	 xml:space="preserve">
<defs>
</defs>
<g>
	<g>
		<g>
			<path fill="#F79334" d="M525,19.7V1.4c0-0.2,0-0.4,0.1-0.5c0.1-0.2,0.2-0.3,0.3-0.4c0.1-0.1,0.3-0.2,0.4-0.3s0.4-0.1,0.6-0.1
				c0.5,0,1,0.3,1.2,0.8l7.9,15.8l7.9-15.8c0.3-0.5,0.7-0.8,1.2-0.8c0.2,0,0.4,0,0.5,0.1c0.2,0.1,0.3,0.2,0.4,0.3
				c0.1,0.1,0.2,0.3,0.3,0.4c0.1,0.2,0.1,0.4,0.1,0.5v18.3c0,0.4-0.1,0.7-0.4,1c-0.3,0.3-0.6,0.4-1,0.4s-0.7-0.1-1-0.4
				s-0.4-0.6-0.4-1V7.3l-6.5,13.1c-0.3,0.5-0.7,0.7-1.2,0.7c-0.6,0-1-0.3-1.3-0.8l-6.5-12.9v12.4c0,0.4-0.1,0.7-0.4,1
				c-0.3,0.3-0.6,0.4-1,0.4s-0.7-0.1-1-0.4S525,20.1,525,19.7z"/>
			<path fill="#F79334" d="M560.3,19.7v-0.3c-0.7,0.5-1.4,0.9-2.1,1.2s-1.6,0.4-2.5,0.4c-2,0-3.8-0.7-5.2-2.2s-2.2-3.2-2.2-5.2
				s0.7-3.8,2.2-5.2s3.2-2.2,5.2-2.2c2,0,3.8,0.7,5.2,2.2c1.4,1.4,2.2,3.2,2.2,5.2v6c0,0.4-0.1,0.7-0.4,1c-0.3,0.3-0.6,0.4-1,0.4
				c-0.4,0-0.7-0.1-1-0.4C560.4,20.4,560.3,20.1,560.3,19.7z M555.6,9.1c-0.7,0-1.3,0.1-1.8,0.4s-1.1,0.6-1.5,1
				c-0.4,0.4-0.7,0.9-1,1.5c-0.2,0.6-0.4,1.2-0.4,1.8s0.1,1.2,0.4,1.8c0.2,0.6,0.6,1.1,1,1.5c0.4,0.4,0.9,0.8,1.5,1
				c0.6,0.2,1.2,0.4,1.8,0.4c0.6,0,1.2-0.1,1.8-0.4c0.6-0.2,1.1-0.6,1.5-1c0.4-0.4,0.7-0.9,1-1.5c0.2-0.6,0.4-1.2,0.4-1.8
				s-0.1-1.2-0.4-1.8c-0.2-0.6-0.6-1-1-1.5c-0.4-0.4-0.9-0.8-1.5-1C556.9,9.2,556.3,9.1,555.6,9.1z"/>
			<path fill="#F79334" d="M570,19.7l-4.7-11.4c-0.1-0.2-0.1-0.4-0.1-0.6c0-0.2,0-0.4,0.1-0.5s0.2-0.3,0.3-0.4s0.3-0.2,0.4-0.3
				c0.2-0.1,0.3-0.1,0.5-0.1c0.3,0,0.5,0.1,0.8,0.2c0.2,0.2,0.4,0.4,0.5,0.7l3.7,8.8l3.7-8.9c0.1-0.3,0.3-0.5,0.5-0.6
				c0.2-0.2,0.5-0.2,0.8-0.2c0.2,0,0.4,0,0.5,0.1s0.3,0.2,0.4,0.3s0.2,0.3,0.3,0.4c0.1,0.2,0.1,0.3,0.1,0.5c0,0.2,0,0.4-0.1,0.6
				l-7.6,18.2c-0.1,0.3-0.3,0.5-0.5,0.7c-0.2,0.2-0.5,0.3-0.8,0.3c-0.4,0-0.7-0.1-1-0.4c-0.3-0.3-0.4-0.6-0.4-1c0-0.2,0-0.4,0.1-0.6
				L570,19.7z"/>
			<path fill="#F79334" d="M594.7,13.7c0,2.1-0.7,3.8-2.2,5.2c-1.5,1.4-3.2,2.2-5.2,2.2c-2,0-3.8-0.7-5.2-2.2s-2.2-3.2-2.2-5.2
				s0.7-3.8,2.2-5.2s3.2-2.2,5.2-2.2c2,0,3.8,0.7,5.2,2.2c0.7,0.7,1.3,1.5,1.6,2.4C594.5,11.7,594.6,12.7,594.7,13.7z M587.3,9.1
				c-0.7,0-1.3,0.1-1.8,0.4s-1.1,0.6-1.5,1c-0.4,0.4-0.7,0.9-1,1.5c-0.2,0.6-0.4,1.2-0.4,1.8s0.1,1.2,0.4,1.8c0.2,0.6,0.6,1.1,1,1.5
				c0.4,0.4,0.9,0.8,1.5,1c0.6,0.2,1.2,0.4,1.8,0.4c0.6,0,1.2-0.1,1.8-0.4c0.6-0.2,1.1-0.6,1.5-1c0.4-0.4,0.7-0.9,1-1.5
				c0.2-0.6,0.4-1.2,0.4-1.8s-0.1-1.2-0.4-1.8c-0.2-0.6-0.6-1-1-1.5c-0.4-0.4-0.9-0.8-1.5-1C588.5,9.2,587.9,9.1,587.3,9.1z"/>
			<path fill="#F79334" d="M599.5,7.7c1.2-0.9,2.5-1.4,4.1-1.4c0.9,0,1.8,0.2,2.6,0.5c0.8,0.4,1.6,0.8,2.2,1.5
				c0.6,0.6,1.1,1.3,1.5,2.2c0.4,0.8,0.6,1.7,0.6,2.7v6.5c0,0.4-0.1,0.7-0.4,1c-0.3,0.3-0.6,0.4-1,0.4c-0.4,0-0.7-0.1-1-0.4
				c-0.3-0.3-0.4-0.6-0.4-1v-6.5c0-0.6-0.1-1.1-0.3-1.6c-0.2-0.5-0.5-0.9-0.9-1.3c-0.4-0.4-0.8-0.7-1.3-0.9s-1-0.3-1.6-0.3
				c-0.6,0-1.1,0.1-1.6,0.3c-0.5,0.2-0.9,0.5-1.3,0.9s-0.7,0.8-0.9,1.3c-0.2,0.5-0.3,1-0.3,1.6v6.5c0,0.4-0.1,0.7-0.4,1
				c-0.3,0.3-0.6,0.4-1,0.4c-0.4,0-0.7-0.1-1-0.4c-0.3-0.3-0.4-0.6-0.4-1v-12c0-0.4,0.1-0.7,0.4-1c0.3-0.3,0.6-0.4,1-0.4
				c0.4,0,0.7,0.1,1,0.4C599.4,7,599.5,7.3,599.5,7.7z"/>
			<path fill="#F79334" d="M615.3,7.7c1.2-0.9,2.5-1.4,4.1-1.4c0.9,0,1.8,0.2,2.6,0.5c0.8,0.4,1.6,0.8,2.2,1.5
				c0.6,0.6,1.1,1.3,1.5,2.2c0.4,0.8,0.6,1.7,0.6,2.7v6.5c0,0.4-0.1,0.7-0.4,1c-0.3,0.3-0.6,0.4-1,0.4c-0.4,0-0.7-0.1-1-0.4
				c-0.3-0.3-0.4-0.6-0.4-1v-6.5c0-0.6-0.1-1.1-0.3-1.6c-0.2-0.5-0.5-0.9-0.9-1.3c-0.4-0.4-0.8-0.7-1.3-0.9s-1-0.3-1.6-0.3
				c-0.6,0-1.1,0.1-1.6,0.3c-0.5,0.2-0.9,0.5-1.3,0.9s-0.7,0.8-0.9,1.3c-0.2,0.5-0.3,1-0.3,1.6v6.5c0,0.4-0.1,0.7-0.4,1
				c-0.3,0.3-0.6,0.4-1,0.4c-0.4,0-0.7-0.1-1-0.4c-0.3-0.3-0.4-0.6-0.4-1v-12c0-0.4,0.1-0.7,0.4-1c0.3-0.3,0.6-0.4,1-0.4
				c0.4,0,0.7,0.1,1,0.4C615.2,7,615.3,7.3,615.3,7.7z"/>
			<path fill="#F79334" d="M640.4,19.7v-0.3c-0.7,0.5-1.4,0.9-2.1,1.2s-1.6,0.4-2.5,0.4c-2,0-3.8-0.7-5.2-2.2s-2.2-3.2-2.2-5.2
				s0.7-3.8,2.2-5.2s3.2-2.2,5.2-2.2c2,0,3.8,0.7,5.2,2.2c1.4,1.4,2.2,3.2,2.2,5.2v6c0,0.4-0.1,0.7-0.4,1c-0.3,0.3-0.6,0.4-1,0.4
				c-0.4,0-0.7-0.1-1-0.4C640.5,20.4,640.4,20.1,640.4,19.7z M635.8,9.1c-0.7,0-1.3,0.1-1.8,0.4s-1.1,0.6-1.5,1
				c-0.4,0.4-0.7,0.9-1,1.5c-0.2,0.6-0.4,1.2-0.4,1.8s0.1,1.2,0.4,1.8c0.2,0.6,0.6,1.1,1,1.5c0.4,0.4,0.9,0.8,1.5,1
				c0.6,0.2,1.2,0.4,1.8,0.4c0.6,0,1.2-0.1,1.8-0.4c0.6-0.2,1.1-0.6,1.5-1c0.4-0.4,0.7-0.9,1-1.5c0.2-0.6,0.4-1.2,0.4-1.8
				s-0.1-1.2-0.4-1.8c-0.2-0.6-0.6-1-1-1.5c-0.4-0.4-0.9-0.8-1.5-1C637,9.2,636.4,9.1,635.8,9.1z"/>
			<path fill="#F79334" d="M649,3.7c0,0.4-0.2,0.8-0.5,1.1s-0.7,0.5-1.1,0.5s-0.8-0.2-1.1-0.5s-0.5-0.7-0.5-1.1s0.2-0.8,0.5-1.1
				s0.7-0.5,1.1-0.5s0.8,0.2,1.1,0.5S649,3.3,649,3.7z M646,19.7v-12c0-0.4,0.1-0.7,0.4-1c0.3-0.3,0.6-0.4,1-0.4s0.7,0.1,1,0.4
				c0.3,0.3,0.4,0.6,0.4,1v12c0,0.4-0.1,0.7-0.4,1c-0.3,0.3-0.6,0.4-1,0.4s-0.7-0.1-1-0.4C646.1,20.4,646,20.1,646,19.7z"/>
			<path fill="#F79334" d="M654.3,14.1c-0.8-0.3-1.4-0.6-1.7-1h0c-0.7-0.7-1-1.5-1-2.4c0-0.7,0.2-1.3,0.5-1.8c0.4-0.5,0.8-1,1.4-1.4
				s1.2-0.7,1.9-0.9c0.7-0.2,1.4-0.3,2.2-0.3c2.2,0,4.1,0.9,5.7,2.7c0.2,0.2,0.3,0.5,0.3,0.8c0,0.4-0.1,0.7-0.4,1
				c-0.3,0.3-0.6,0.4-1,0.4c-0.3,0-0.5-0.1-0.7-0.2c-0.2-0.2-0.4-0.3-0.6-0.5c-0.9-0.9-2-1.3-3.3-1.3c-1.3,0-2.3,0.4-3,1.2
				c-0.1,0.1-0.2,0.3-0.2,0.6s0.1,0.4,0.3,0.5l6.2,2c0.9,0.3,1.4,0.7,1.7,1h0c0.7,0.7,1,1.5,1,2.4c0,0.7-0.2,1.3-0.5,1.8
				c-0.4,0.5-0.8,1-1.4,1.4c-0.6,0.4-1.2,0.7-1.9,0.9s-1.4,0.3-2.1,0.3c-2.2,0-4.1-0.9-5.7-2.6c-0.2-0.3-0.3-0.5-0.3-0.9
				c0-0.4,0.1-0.7,0.4-1c0.3-0.3,0.6-0.4,1-0.4c0.3,0,0.5,0.1,0.7,0.3c0.2,0.2,0.4,0.3,0.6,0.5c0.9,0.9,2,1.3,3.3,1.3
				c1.3,0,2.3-0.4,3-1.2c0.1-0.1,0.2-0.3,0.2-0.5c0-0.2-0.1-0.4-0.4-0.5L654.3,14.1z"/>
			<path fill="#F79334" d="M676.8,16.9c0.4,0,0.7,0.1,1,0.4c0.3,0.3,0.4,0.6,0.4,1c0,0.4-0.1,0.7-0.4,1c-1.4,1.2-3,1.8-4.8,1.8
				c-2,0-3.8-0.7-5.2-2.2s-2.2-3.2-2.2-5.2s0.7-3.8,2.2-5.2s3.2-2.2,5.2-2.2c2,0,3.8,0.7,5.2,2.2c0.7,0.7,1.3,1.5,1.6,2.4
				c0.4,0.9,0.5,1.8,0.5,2.8c0,0.4-0.1,0.7-0.4,1c-0.3,0.3-0.6,0.4-1,0.4h-10.4c0.1,0.5,0.4,0.9,0.7,1.3c0.3,0.4,0.6,0.7,1,1
				c0.4,0.3,0.8,0.5,1.3,0.7c0.5,0.2,1,0.2,1.5,0.2c0.6,0,1.1-0.1,1.6-0.3c0.5-0.2,0.9-0.4,1.3-0.8C676.2,17.1,676.5,17,676.8,16.9z
				 M677.4,12.3c-0.2-0.5-0.4-0.9-0.7-1.3c-0.3-0.4-0.6-0.7-1-1c-0.4-0.3-0.8-0.5-1.3-0.7c-0.5-0.2-1-0.2-1.5-0.2s-1,0.1-1.5,0.2
				s-0.9,0.4-1.3,0.7c-0.4,0.3-0.7,0.6-1,1c-0.3,0.4-0.5,0.8-0.6,1.3H677.4z"/>
			<path fill="#F79334" d="M525,52.1V33.8c0-0.2,0-0.4,0.1-0.5c0.1-0.2,0.2-0.3,0.3-0.4c0.1-0.1,0.3-0.2,0.4-0.3s0.4-0.1,0.6-0.1
				c0.5,0,1,0.2,1.2,0.8l7.9,15.8l7.9-15.8c0.3-0.5,0.7-0.8,1.2-0.8c0.2,0,0.4,0,0.5,0.1c0.2,0.1,0.3,0.2,0.4,0.3
				c0.1,0.1,0.2,0.3,0.3,0.4c0.1,0.2,0.1,0.4,0.1,0.5v18.3c0,0.4-0.1,0.7-0.4,1c-0.3,0.3-0.6,0.4-1,0.4s-0.7-0.1-1-0.4
				s-0.4-0.6-0.4-1V39.7l-6.5,13.1c-0.3,0.5-0.7,0.7-1.2,0.7c-0.6,0-1-0.3-1.3-0.8l-6.5-12.9v12.4c0,0.4-0.1,0.7-0.4,1
				c-0.3,0.3-0.6,0.4-1,0.4s-0.7-0.1-1-0.4S525,52.5,525,52.1z"/>
			<path fill="#F79334" d="M560.3,52.1v-0.3c-0.7,0.5-1.4,0.9-2.1,1.2s-1.6,0.4-2.5,0.4c-2,0-3.8-0.7-5.2-2.2s-2.2-3.2-2.2-5.2
				s0.7-3.8,2.2-5.2s3.2-2.2,5.2-2.2c2,0,3.8,0.7,5.2,2.2c1.4,1.4,2.2,3.2,2.2,5.2v6c0,0.4-0.1,0.7-0.4,1c-0.3,0.3-0.6,0.4-1,0.4
				c-0.4,0-0.7-0.1-1-0.4C560.4,52.8,560.3,52.5,560.3,52.1z M555.6,41.5c-0.7,0-1.3,0.1-1.8,0.4s-1.1,0.6-1.5,1
				c-0.4,0.4-0.7,0.9-1,1.5c-0.2,0.6-0.4,1.2-0.4,1.8s0.1,1.2,0.4,1.8c0.2,0.6,0.6,1.1,1,1.5c0.4,0.4,0.9,0.8,1.5,1
				c0.6,0.2,1.2,0.4,1.8,0.4c0.6,0,1.2-0.1,1.8-0.4c0.6-0.2,1.1-0.6,1.5-1c0.4-0.4,0.7-0.9,1-1.5c0.2-0.6,0.4-1.2,0.4-1.8
				s-0.1-1.2-0.4-1.8c-0.2-0.6-0.6-1-1-1.5c-0.4-0.4-0.9-0.8-1.5-1C556.9,41.6,556.3,41.5,555.6,41.5z"/>
			<path fill="#F79334" d="M567.8,40.1v0.3c0.7-0.5,1.4-0.9,2.1-1.2s1.6-0.4,2.5-0.4c0.4,0,0.8,0,1.2,0.1c0.4,0.1,0.9,0.1,1.2,0.3
				c0.4,0.1,0.7,0.3,0.9,0.6s0.4,0.5,0.4,0.9c0,0.2,0,0.4-0.1,0.5c-0.1,0.2-0.2,0.3-0.3,0.4c-0.1,0.1-0.3,0.2-0.4,0.3
				S575,42,574.8,42c-0.2,0-0.4,0-0.6-0.1c-0.6-0.2-1.2-0.3-1.8-0.3c-0.6,0-1.2,0.1-1.8,0.4c-0.6,0.2-1.1,0.6-1.5,1
				c-0.4,0.4-0.7,0.9-1,1.5c-0.2,0.6-0.4,1.2-0.4,1.8v6c0,0.4-0.1,0.7-0.4,1c-0.3,0.3-0.6,0.4-1,0.4c-0.4,0-0.7-0.1-1-0.4
				c-0.3-0.3-0.4-0.6-0.4-1v-12c0-0.4,0.1-0.7,0.4-1c0.3-0.3,0.6-0.4,1-0.4c0.4,0,0.7,0.1,1,0.4C567.7,39.4,567.8,39.7,567.8,40.1z"
				/>
			<path fill="#F79334" d="M589.8,51.9c-1.3,1.1-2.9,1.6-4.6,1.6c-2,0-3.8-0.7-5.2-2.2s-2.2-3.2-2.2-5.2s0.7-3.8,2.2-5.2
				s3.2-2.2,5.2-2.2c2,0,3.8,0.7,5.2,2.2c1.4,1.4,2.2,3.2,2.2,5.2v7.3c0,0.6-0.1,1.2-0.3,1.8s-0.5,1.1-0.8,1.5
				c-0.3,0.5-0.7,0.9-1.2,1.3c-0.5,0.4-1,0.7-1.5,1c-0.5,0.3-1.1,0.5-1.7,0.6s-1.2,0.2-1.8,0.2c-0.7,0-1.4-0.1-2.1-0.3
				c-0.7-0.2-1.3-0.4-1.9-0.8c-0.6-0.4-1.2-0.8-1.7-1.3c-0.5-0.5-0.9-1.1-1.3-1.7c-0.1-0.2-0.2-0.4-0.2-0.7c0-0.4,0.1-0.7,0.4-1
				c0.3-0.3,0.6-0.4,1-0.4c0.3,0,0.5,0.1,0.7,0.2c0.2,0.1,0.4,0.4,0.7,0.8c0.3,0.4,0.6,0.7,0.8,1c1,1,2.2,1.5,3.6,1.5
				c1.4,0,2.6-0.5,3.6-1.5c0.6-0.7,0.9-1.5,0.9-2.1V51.9z M585.2,41.5c-0.7,0-1.3,0.1-1.8,0.4s-1.1,0.6-1.5,1
				c-0.4,0.4-0.7,0.9-1,1.5c-0.2,0.6-0.4,1.2-0.4,1.8s0.1,1.2,0.4,1.8c0.2,0.6,0.6,1.1,1,1.5c0.4,0.4,0.9,0.8,1.5,1
				c0.6,0.2,1.2,0.4,1.8,0.4c0.6,0,1.2-0.1,1.8-0.4c0.6-0.2,1.1-0.6,1.5-1c0.4-0.4,0.7-0.9,1-1.5c0.2-0.6,0.4-1.2,0.4-1.8
				s-0.1-1.2-0.4-1.8c-0.2-0.6-0.6-1-1-1.5c-0.4-0.4-0.9-0.8-1.5-1C586.4,41.6,585.8,41.5,585.2,41.5z"/>
			<path fill="#F79334" d="M606.7,52.1v-0.3c-0.7,0.5-1.4,0.9-2.1,1.2s-1.6,0.4-2.5,0.4c-2,0-3.8-0.7-5.2-2.2s-2.2-3.2-2.2-5.2
				s0.7-3.8,2.2-5.2s3.2-2.2,5.2-2.2c2,0,3.8,0.7,5.2,2.2c1.4,1.4,2.2,3.2,2.2,5.2v6c0,0.4-0.1,0.7-0.4,1c-0.3,0.3-0.6,0.4-1,0.4
				c-0.4,0-0.7-0.1-1-0.4C606.8,52.8,606.7,52.5,606.7,52.1z M602,41.5c-0.7,0-1.3,0.1-1.8,0.4s-1.1,0.6-1.5,1
				c-0.4,0.4-0.7,0.9-1,1.5c-0.2,0.6-0.4,1.2-0.4,1.8s0.1,1.2,0.4,1.8c0.2,0.6,0.6,1.1,1,1.5c0.4,0.4,0.9,0.8,1.5,1
				c0.6,0.2,1.2,0.4,1.8,0.4c0.6,0,1.2-0.1,1.8-0.4c0.6-0.2,1.1-0.6,1.5-1c0.4-0.4,0.7-0.9,1-1.5c0.2-0.6,0.4-1.2,0.4-1.8
				s-0.1-1.2-0.4-1.8c-0.2-0.6-0.6-1-1-1.5c-0.4-0.4-0.9-0.8-1.5-1C603.3,41.6,602.7,41.5,602,41.5z"/>
			<path fill="#F79334" d="M614.2,40.1v0.3c0.7-0.5,1.4-0.9,2.1-1.2s1.6-0.4,2.5-0.4c0.4,0,0.8,0,1.2,0.1c0.4,0.1,0.9,0.1,1.2,0.3
				c0.4,0.1,0.7,0.3,0.9,0.6s0.4,0.5,0.4,0.9c0,0.2,0,0.4-0.1,0.5c-0.1,0.2-0.2,0.3-0.3,0.4c-0.1,0.1-0.3,0.2-0.4,0.3
				s-0.3,0.1-0.5,0.1c-0.2,0-0.4,0-0.6-0.1c-0.6-0.2-1.2-0.3-1.8-0.3c-0.6,0-1.2,0.1-1.8,0.4c-0.6,0.2-1.1,0.6-1.5,1
				c-0.4,0.4-0.7,0.9-1,1.5c-0.2,0.6-0.4,1.2-0.4,1.8v6c0,0.4-0.1,0.7-0.4,1c-0.3,0.3-0.6,0.4-1,0.4c-0.4,0-0.7-0.1-1-0.4
				c-0.3-0.3-0.4-0.6-0.4-1v-12c0-0.4,0.1-0.7,0.4-1c0.3-0.3,0.6-0.4,1-0.4c0.4,0,0.7,0.1,1,0.4C614.1,39.4,614.2,39.7,614.2,40.1z"
				/>
			<path fill="#F79334" d="M627.9,36.1c0,0.4-0.2,0.8-0.5,1.1s-0.7,0.5-1.1,0.5s-0.8-0.2-1.1-0.5s-0.5-0.7-0.5-1.1
				c0-0.4,0.2-0.8,0.5-1.1s0.7-0.5,1.1-0.5s0.8,0.2,1.1,0.5S627.9,35.7,627.9,36.1z M624.9,52.1v-12c0-0.4,0.1-0.7,0.4-1
				c0.3-0.3,0.6-0.4,1-0.4s0.7,0.1,1,0.4c0.3,0.3,0.4,0.6,0.4,1v12c0,0.4-0.1,0.7-0.4,1c-0.3,0.3-0.6,0.4-1,0.4s-0.7-0.1-1-0.4
				C625.1,52.8,624.9,52.5,624.9,52.1z"/>
			<path fill="#F79334" d="M633.3,40.1c1.2-0.9,2.5-1.4,4.1-1.4c0.9,0,1.8,0.2,2.6,0.5c0.8,0.4,1.6,0.8,2.2,1.5
				c0.6,0.6,1.1,1.3,1.5,2.2c0.4,0.8,0.6,1.7,0.6,2.7v6.5c0,0.4-0.1,0.7-0.4,1c-0.3,0.3-0.6,0.4-1,0.4c-0.4,0-0.7-0.1-1-0.4
				c-0.3-0.3-0.4-0.6-0.4-1v-6.5c0-0.6-0.1-1.1-0.3-1.6c-0.2-0.5-0.5-0.9-0.9-1.3c-0.4-0.4-0.8-0.7-1.3-0.9s-1-0.3-1.6-0.3
				c-0.6,0-1.1,0.1-1.6,0.3c-0.5,0.2-0.9,0.5-1.3,0.9s-0.7,0.8-0.9,1.3c-0.2,0.5-0.3,1-0.3,1.6v6.5c0,0.4-0.1,0.7-0.4,1
				c-0.3,0.3-0.6,0.4-1,0.4c-0.4,0-0.7-0.1-1-0.4c-0.3-0.3-0.4-0.6-0.4-1v-12c0-0.4,0.1-0.7,0.4-1c0.3-0.3,0.6-0.4,1-0.4
				c0.4,0,0.7,0.1,1,0.4C633.1,39.4,633.3,39.7,633.3,40.1z"/>
			<path fill="#F79334" d="M657.6,49.3c0.4,0,0.7,0.1,1,0.4c0.3,0.3,0.4,0.6,0.4,1c0,0.4-0.1,0.7-0.4,1c-1.4,1.2-3,1.8-4.8,1.8
				c-2,0-3.8-0.7-5.2-2.2s-2.2-3.2-2.2-5.2s0.7-3.8,2.2-5.2s3.2-2.2,5.2-2.2c2,0,3.8,0.7,5.2,2.2c0.7,0.7,1.3,1.5,1.6,2.4
				c0.4,0.9,0.5,1.8,0.5,2.8c0,0.4-0.1,0.7-0.4,1c-0.3,0.3-0.6,0.4-1,0.4h-10.4c0.1,0.5,0.4,0.9,0.7,1.3c0.3,0.4,0.6,0.7,1,1
				c0.4,0.3,0.8,0.5,1.3,0.7c0.5,0.2,1,0.2,1.5,0.2c0.6,0,1.1-0.1,1.6-0.3c0.5-0.2,0.9-0.4,1.3-0.8
				C656.9,49.5,657.2,49.4,657.6,49.3z M658.2,44.7c-0.2-0.5-0.4-0.9-0.7-1.3c-0.3-0.4-0.6-0.7-1-1c-0.4-0.3-0.8-0.5-1.3-0.7
				c-0.5-0.2-1-0.2-1.5-0.2s-1,0.1-1.5,0.2s-0.9,0.4-1.3,0.7c-0.4,0.3-0.7,0.6-1,1c-0.3,0.4-0.5,0.8-0.6,1.3H658.2z"/>
			<path fill="#F79334" d="M540,84.5c0,0.4-0.1,0.7-0.4,1s-0.6,0.4-1,0.4s-0.7-0.1-1-0.4s-0.4-0.6-0.4-1v-7.8h-9.4v7.8
				c0,0.4-0.1,0.7-0.4,1c-0.3,0.3-0.6,0.4-1,0.4s-0.7-0.1-1-0.4s-0.4-0.6-0.4-1V66.2c0-0.4,0.1-0.7,0.4-1c0.3-0.3,0.6-0.4,1-0.4
				s0.7,0.1,1,0.4c0.3,0.3,0.4,0.6,0.4,1v7.8h9.4v-7.8c0-0.4,0.1-0.7,0.4-1c0.3-0.3,0.6-0.4,1-0.4s0.7,0.1,1,0.4
				c0.3,0.3,0.4,0.6,0.4,1V84.5z"/>
			<path fill="#F79334" d="M554.3,85.9c-0.4,0-0.7-0.1-1-0.4s-0.4-0.6-0.4-1c-0.6,0.5-1.2,0.8-1.9,1c-0.7,0.2-1.4,0.3-2.2,0.3
				c-0.9,0-1.8-0.2-2.7-0.5c-0.8-0.4-1.6-0.9-2.2-1.5c-0.6-0.6-1.1-1.4-1.5-2.2c-0.4-0.8-0.5-1.7-0.5-2.7v-6.5c0-0.4,0.1-0.7,0.4-1
				c0.3-0.3,0.6-0.4,1-0.4c0.4,0,0.7,0.1,1,0.4c0.3,0.3,0.4,0.6,0.4,1V79c0,0.6,0.1,1.1,0.3,1.6c0.2,0.5,0.5,0.9,0.9,1.3
				c0.4,0.4,0.8,0.7,1.3,0.9c0.5,0.2,1,0.3,1.6,0.3c0.6,0,1.1-0.1,1.6-0.3c0.5-0.2,0.9-0.5,1.3-0.9c0.4-0.4,0.7-0.8,0.9-1.3
				c0.2-0.5,0.3-1,0.3-1.6v-6.5c0-0.4,0.1-0.7,0.4-1c0.3-0.3,0.6-0.4,1-0.4c0.4,0,0.7,0.1,1,0.4c0.3,0.3,0.4,0.6,0.4,1v12
				c0,0.4-0.1,0.7-0.4,1C555,85.8,554.7,85.9,554.3,85.9z"/>
			<path fill="#F79334" d="M559,71.1h0.6v-5c0-0.4,0.1-0.7,0.4-1c0.3-0.3,0.6-0.4,1-0.4c0.4,0,0.7,0.1,1,0.4c0.3,0.3,0.4,0.6,0.4,1
				v5h1.6c0.4,0,0.7,0.1,1,0.4c0.3,0.3,0.4,0.6,0.4,1c0,0.4-0.1,0.7-0.4,1c-0.3,0.3-0.6,0.4-1,0.4h-1.6v6.6c0,1.7,0.9,2.6,2.6,2.6
				c0.4,0,0.7,0.1,1,0.4c0.3,0.3,0.4,0.6,0.4,1c0,0.4-0.1,0.7-0.4,1c-0.3,0.3-0.6,0.4-1,0.4c-3.6,0-5.4-1.8-5.4-5.4v-6.6H559
				c-0.4,0-0.7-0.1-1-0.4c-0.3-0.3-0.4-0.6-0.4-1c0-0.4,0.1-0.7,0.4-1C558.3,71.3,558.7,71.1,559,71.1z"/>
			<path fill="#F79334" d="M578.7,81.7c0.4,0,0.7,0.1,1,0.4c0.3,0.3,0.4,0.6,0.4,1c0,0.4-0.1,0.7-0.4,1c-1.4,1.2-3,1.8-4.8,1.8
				c-2,0-3.8-0.7-5.2-2.2s-2.2-3.2-2.2-5.2s0.7-3.8,2.2-5.2s3.2-2.2,5.2-2.2c2,0,3.8,0.7,5.2,2.2c0.7,0.7,1.3,1.5,1.6,2.4
				c0.4,0.9,0.5,1.8,0.5,2.8c0,0.4-0.1,0.7-0.4,1c-0.3,0.3-0.6,0.4-1,0.4h-10.4c0.1,0.5,0.4,0.9,0.7,1.3c0.3,0.4,0.6,0.7,1,1
				c0.4,0.3,0.8,0.5,1.3,0.7c0.5,0.2,1,0.2,1.5,0.2c0.6,0,1.1-0.1,1.6-0.3c0.5-0.2,0.9-0.4,1.3-0.8
				C578.1,81.9,578.4,81.8,578.7,81.7z M579.3,77.1c-0.2-0.5-0.4-0.9-0.7-1.3c-0.3-0.4-0.6-0.7-1-1c-0.4-0.3-0.8-0.5-1.3-0.7
				c-0.5-0.2-1-0.2-1.5-0.2s-1,0.1-1.5,0.2s-0.9,0.4-1.3,0.7c-0.4,0.3-0.7,0.6-1,1c-0.3,0.4-0.5,0.8-0.6,1.3H579.3z"/>
			<path fill="#F79334" d="M584.3,84.5V66.2c0-0.4,0.1-0.7,0.4-1c0.3-0.3,0.6-0.4,1-0.4s0.7,0.1,1,0.4c0.3,0.3,0.4,0.6,0.4,1v17h0.6
				c0.4,0,0.7,0.1,1,0.4c0.3,0.3,0.4,0.6,0.4,1c0,0.4-0.1,0.7-0.4,1c-0.3,0.3-0.6,0.4-1,0.4h-2c-0.4,0-0.7-0.1-1-0.4
				C584.4,85.2,584.3,84.9,584.3,84.5z"/>
			<path fill="#F79334" d="M590.6,84.5V66.2c0-0.4,0.1-0.7,0.4-1c0.3-0.3,0.6-0.4,1-0.4s0.7,0.1,1,0.4c0.3,0.3,0.4,0.6,0.4,1v17h0.6
				c0.4,0,0.7,0.1,1,0.4c0.3,0.3,0.4,0.6,0.4,1c0,0.4-0.1,0.7-0.4,1c-0.3,0.3-0.6,0.4-1,0.4h-2c-0.4,0-0.7-0.1-1-0.4
				C590.7,85.2,590.6,84.9,590.6,84.5z"/>
			<path fill="#F79334" d="M609,84.5v-0.3c-0.7,0.5-1.4,0.9-2.1,1.2s-1.6,0.4-2.5,0.4c-2,0-3.8-0.7-5.2-2.2s-2.2-3.2-2.2-5.2
				s0.7-3.8,2.2-5.2s3.2-2.2,5.2-2.2c2,0,3.8,0.7,5.2,2.2c1.4,1.4,2.2,3.2,2.2,5.2v6c0,0.4-0.1,0.7-0.4,1c-0.3,0.3-0.6,0.4-1,0.4
				c-0.4,0-0.7-0.1-1-0.4C609.2,85.2,609,84.9,609,84.5z M604.4,73.9c-0.7,0-1.3,0.1-1.8,0.4s-1.1,0.6-1.5,1c-0.4,0.4-0.7,0.9-1,1.5
				c-0.2,0.6-0.4,1.2-0.4,1.8s0.1,1.2,0.4,1.8c0.2,0.6,0.6,1.1,1,1.5c0.4,0.4,0.9,0.8,1.5,1c0.6,0.2,1.2,0.4,1.8,0.4
				c0.6,0,1.2-0.1,1.8-0.4c0.6-0.2,1.1-0.6,1.5-1c0.4-0.4,0.7-0.9,1-1.5c0.2-0.6,0.4-1.2,0.4-1.8s-0.1-1.2-0.4-1.8
				c-0.2-0.6-0.6-1-1-1.5c-0.4-0.4-0.9-0.8-1.5-1C605.7,74,605.1,73.9,604.4,73.9z"/>
			<path fill="#F79334" d="M546.1,107.7c0,2.9-1,5.4-3.1,7.5c-2.1,2.1-4.5,3.1-7.4,3.1c-2.9,0-5.4-1-7.5-3.1s-3.1-4.5-3.1-7.5
				c0-2.9,1-5.4,3.1-7.4c2.1-2.1,4.6-3.1,7.5-3.1c2.9,0,5.4,1,7.4,3.1c1,1,1.8,2.2,2.3,3.4C545.9,104.9,546.1,106.3,546.1,107.7z
				 M535.6,100c-1.1,0-2.1,0.2-3,0.6c-0.9,0.4-1.7,0.9-2.5,1.7c-0.8,0.8-1.3,1.6-1.7,2.5c-0.4,0.9-0.6,1.9-0.6,3
				c0,2.1,0.8,4,2.3,5.5s3.3,2.3,5.5,2.3s4-0.8,5.5-2.3s2.3-3.3,2.3-5.5c0-2.1-0.8-4-2.3-5.5C539.6,100.8,537.7,100,535.6,100z"/>
			<path fill="#F79334" d="M560.6,118.3c-0.4,0-0.7-0.1-1-0.4s-0.4-0.6-0.4-1c-0.6,0.5-1.2,0.8-1.9,1c-0.7,0.2-1.4,0.3-2.2,0.3
				c-0.9,0-1.8-0.2-2.7-0.5c-0.8-0.4-1.6-0.9-2.2-1.5c-0.6-0.6-1.1-1.4-1.5-2.2c-0.4-0.8-0.5-1.7-0.5-2.7v-6.5c0-0.4,0.1-0.7,0.4-1
				c0.3-0.3,0.6-0.4,1-0.4c0.4,0,0.7,0.1,1,0.4c0.3,0.3,0.4,0.6,0.4,1v6.5c0,0.6,0.1,1.1,0.3,1.6c0.2,0.5,0.5,0.9,0.9,1.3
				c0.4,0.4,0.8,0.7,1.3,0.9c0.5,0.2,1,0.3,1.6,0.3c0.6,0,1.1-0.1,1.6-0.3c0.5-0.2,0.9-0.5,1.3-0.9c0.4-0.4,0.7-0.8,0.9-1.3
				c0.2-0.5,0.3-1,0.3-1.6v-6.5c0-0.4,0.1-0.7,0.4-1c0.3-0.3,0.6-0.4,1-0.4c0.4,0,0.7,0.1,1,0.4c0.3,0.3,0.4,0.6,0.4,1v12
				c0,0.4-0.1,0.7-0.4,1C561.3,118.2,561,118.3,560.6,118.3z"/>
			<path fill="#F79334" d="M570.9,118.3c-0.6,0-1-0.2-1.2-0.7l-5.6-12.1c-0.1-0.2-0.1-0.4-0.1-0.6s0-0.4,0.1-0.5s0.2-0.3,0.3-0.4
				c0.1-0.1,0.3-0.2,0.4-0.3s0.3-0.1,0.5-0.1c0.2,0,0.5,0.1,0.7,0.2c0.2,0.1,0.4,0.3,0.5,0.5l4.3,9.4l4.3-9.4
				c0.3-0.5,0.7-0.7,1.2-0.7c0.2,0,0.4,0,0.5,0.1s0.3,0.2,0.4,0.3c0.1,0.1,0.2,0.3,0.3,0.4c0.1,0.2,0.1,0.3,0.1,0.5
				c0,0.2,0,0.4-0.1,0.6l-5.5,12.1C571.9,118,571.5,118.3,570.9,118.3z"/>
			<path fill="#F79334" d="M582.6,104.9v0.3c0.7-0.5,1.4-0.9,2.1-1.2s1.6-0.4,2.5-0.4c0.4,0,0.8,0,1.2,0.1c0.4,0.1,0.9,0.1,1.2,0.3
				c0.4,0.1,0.7,0.3,0.9,0.6s0.4,0.5,0.4,0.9c0,0.2,0,0.4-0.1,0.5c-0.1,0.2-0.2,0.3-0.3,0.4c-0.1,0.1-0.3,0.2-0.4,0.3
				s-0.3,0.1-0.5,0.1c-0.2,0-0.4,0-0.6-0.1c-0.6-0.2-1.2-0.3-1.8-0.3c-0.6,0-1.2,0.1-1.8,0.4c-0.6,0.2-1.1,0.6-1.5,1
				c-0.4,0.4-0.7,0.9-1,1.5c-0.2,0.6-0.4,1.2-0.4,1.8v6c0,0.4-0.1,0.7-0.4,1c-0.3,0.3-0.6,0.4-1,0.4c-0.4,0-0.7-0.1-1-0.4
				c-0.3-0.3-0.4-0.6-0.4-1v-12c0-0.4,0.1-0.7,0.4-1c0.3-0.3,0.6-0.4,1-0.4c0.4,0,0.7,0.1,1,0.4
				C582.5,104.2,582.6,104.5,582.6,104.9z"/>
			<path fill="#F79334" d="M603.8,114.1c0.4,0,0.7,0.1,1,0.4c0.3,0.3,0.4,0.6,0.4,1c0,0.4-0.1,0.7-0.4,1c-1.4,1.2-3,1.8-4.8,1.8
				c-2,0-3.8-0.7-5.2-2.2s-2.2-3.2-2.2-5.2s0.7-3.8,2.2-5.2s3.2-2.2,5.2-2.2c2,0,3.8,0.7,5.2,2.2c0.7,0.7,1.3,1.5,1.6,2.4
				c0.4,0.9,0.5,1.8,0.5,2.8c0,0.4-0.1,0.7-0.4,1c-0.3,0.3-0.6,0.4-1,0.4h-10.4c0.1,0.5,0.4,0.9,0.7,1.3c0.3,0.4,0.6,0.7,1,1
				c0.4,0.3,0.8,0.5,1.3,0.7c0.5,0.2,1,0.2,1.5,0.2c0.6,0,1.1-0.1,1.6-0.3c0.5-0.2,0.9-0.4,1.3-0.8
				C603.1,114.3,603.4,114.2,603.8,114.1z M604.4,109.5c-0.2-0.5-0.4-0.9-0.7-1.3c-0.3-0.4-0.6-0.7-1-1c-0.4-0.3-0.8-0.5-1.3-0.7
				c-0.5-0.2-1-0.2-1.5-0.2s-1,0.1-1.5,0.2s-0.9,0.4-1.3,0.7c-0.4,0.3-0.7,0.6-1,1c-0.3,0.4-0.5,0.8-0.6,1.3H604.4z"/>
			<path fill="#F79334" d="M612.1,111.3c-0.8-0.3-1.4-0.6-1.7-1h0c-0.7-0.7-1-1.5-1-2.4c0-0.7,0.2-1.3,0.5-1.8
				c0.4-0.5,0.8-1,1.4-1.4s1.2-0.7,1.9-0.9c0.7-0.2,1.4-0.3,2.2-0.3c2.2,0,4.1,0.9,5.7,2.7c0.2,0.2,0.3,0.5,0.3,0.8
				c0,0.4-0.1,0.7-0.4,1c-0.3,0.3-0.6,0.4-1,0.4c-0.3,0-0.5-0.1-0.7-0.2c-0.2-0.2-0.4-0.3-0.6-0.5c-0.9-0.9-2-1.3-3.3-1.3
				c-1.3,0-2.3,0.4-3,1.2c-0.1,0.1-0.2,0.3-0.2,0.6s0.1,0.4,0.3,0.5l6.2,2c0.9,0.3,1.4,0.7,1.7,1h0c0.7,0.7,1,1.5,1,2.4
				c0,0.7-0.2,1.3-0.5,1.8c-0.4,0.5-0.8,1-1.4,1.4c-0.6,0.4-1.2,0.7-1.9,0.9s-1.4,0.3-2.1,0.3c-2.2,0-4.1-0.9-5.7-2.6
				c-0.2-0.3-0.3-0.5-0.3-0.9c0-0.4,0.1-0.7,0.4-1c0.3-0.3,0.6-0.4,1-0.4c0.3,0,0.5,0.1,0.7,0.3c0.2,0.2,0.4,0.3,0.6,0.5
				c0.9,0.9,2,1.3,3.3,1.3c1.3,0,2.3-0.4,3-1.2c0.1-0.1,0.2-0.3,0.2-0.5c0-0.2-0.1-0.4-0.4-0.5L612.1,111.3z"/>
			<path fill="#F79334" d="M540,149.3c0,0.4-0.1,0.7-0.4,1s-0.6,0.4-1,0.4s-0.7-0.1-1-0.4s-0.4-0.6-0.4-1v-7.8h-9.4v7.8
				c0,0.4-0.1,0.7-0.4,1c-0.3,0.3-0.6,0.4-1,0.4s-0.7-0.1-1-0.4s-0.4-0.6-0.4-1V131c0-0.4,0.1-0.7,0.4-1c0.3-0.3,0.6-0.4,1-0.4
				s0.7,0.1,1,0.4c0.3,0.3,0.4,0.6,0.4,1v7.8h9.4V131c0-0.4,0.1-0.7,0.4-1c0.3-0.3,0.6-0.4,1-0.4s0.7,0.1,1,0.4
				c0.3,0.3,0.4,0.6,0.4,1V149.3z"/>
			<path fill="#F79334" d="M556.7,143.3c0,2.1-0.7,3.8-2.2,5.2c-1.5,1.4-3.2,2.2-5.2,2.2c-2,0-3.8-0.7-5.2-2.2s-2.2-3.2-2.2-5.2
				s0.7-3.8,2.2-5.2s3.2-2.2,5.2-2.2c2,0,3.8,0.7,5.2,2.2c0.7,0.7,1.3,1.5,1.6,2.4C556.5,141.3,556.7,142.3,556.7,143.3z
				 M549.3,138.7c-0.7,0-1.3,0.1-1.8,0.4s-1.1,0.6-1.5,1c-0.4,0.4-0.7,0.9-1,1.5c-0.2,0.6-0.4,1.2-0.4,1.8s0.1,1.2,0.4,1.8
				c0.2,0.6,0.6,1.1,1,1.5c0.4,0.4,0.9,0.8,1.5,1c0.6,0.2,1.2,0.4,1.8,0.4c0.6,0,1.2-0.1,1.8-0.4c0.6-0.2,1.1-0.6,1.5-1
				c0.4-0.4,0.7-0.9,1-1.5c0.2-0.6,0.4-1.2,0.4-1.8s-0.1-1.2-0.4-1.8c-0.2-0.6-0.6-1-1-1.5c-0.4-0.4-0.9-0.8-1.5-1
				C550.5,138.8,549.9,138.7,549.3,138.7z"/>
			<path fill="#F79334" d="M560.1,135.9h0.6v-5c0-0.4,0.1-0.7,0.4-1c0.3-0.3,0.6-0.4,1-0.4c0.4,0,0.7,0.1,1,0.4
				c0.3,0.3,0.4,0.6,0.4,1v5h1.6c0.4,0,0.7,0.1,1,0.4c0.3,0.3,0.4,0.6,0.4,1c0,0.4-0.1,0.7-0.4,1c-0.3,0.3-0.6,0.4-1,0.4h-1.6v6.6
				c0,1.7,0.9,2.6,2.6,2.6c0.4,0,0.7,0.1,1,0.4c0.3,0.3,0.4,0.6,0.4,1c0,0.4-0.1,0.7-0.4,1c-0.3,0.3-0.6,0.4-1,0.4
				c-3.6,0-5.4-1.8-5.4-5.4v-6.6h-0.6c-0.4,0-0.7-0.1-1-0.4c-0.3-0.3-0.4-0.6-0.4-1c0-0.4,0.1-0.7,0.4-1
				C559.4,136.1,559.7,135.9,560.1,135.9z"/>
			<path fill="#F79334" d="M585.4,132.4c-2.4,0-3.6,1.2-3.6,3.6v0.7h2.6c0.4,0,0.7,0.1,1,0.4c0.3,0.3,0.4,0.6,0.4,1
				c0,0.4-0.1,0.7-0.4,1c-0.3,0.3-0.6,0.4-1,0.4h-2.6v9.9c0,0.2,0,0.4-0.1,0.5c-0.1,0.2-0.2,0.3-0.3,0.4c-0.1,0.1-0.3,0.2-0.4,0.3
				s-0.3,0.1-0.5,0.1c-0.2,0-0.4,0-0.5-0.1s-0.3-0.2-0.4-0.3c-0.1-0.1-0.2-0.3-0.3-0.4c-0.1-0.2-0.1-0.3-0.1-0.5v-9.9h-0.6
				c-0.4,0-0.7-0.1-1-0.4c-0.3-0.3-0.4-0.6-0.4-1c0-0.4,0.1-0.7,0.4-1c0.3-0.3,0.6-0.4,1-0.4h0.6V136c0-4.3,2.1-6.4,6.4-6.4
				c0.4,0,0.7,0.1,1,0.4c0.3,0.3,0.4,0.6,0.4,1c0,0.4-0.1,0.7-0.4,1C586.1,132.2,585.8,132.4,585.4,132.4z"/>
			<path fill="#F79334" d="M600.2,150.7c-0.4,0-0.7-0.1-1-0.4s-0.4-0.6-0.4-1c-0.6,0.5-1.2,0.8-1.9,1c-0.7,0.2-1.4,0.3-2.2,0.3
				c-0.9,0-1.8-0.2-2.7-0.5c-0.8-0.4-1.6-0.9-2.2-1.5c-0.6-0.6-1.1-1.4-1.5-2.2c-0.4-0.8-0.5-1.7-0.5-2.7v-6.5c0-0.4,0.1-0.7,0.4-1
				c0.3-0.3,0.6-0.4,1-0.4c0.4,0,0.7,0.1,1,0.4c0.3,0.3,0.4,0.6,0.4,1v6.5c0,0.6,0.1,1.1,0.3,1.6c0.2,0.5,0.5,0.9,0.9,1.3
				c0.4,0.4,0.8,0.7,1.3,0.9c0.5,0.2,1,0.3,1.6,0.3c0.6,0,1.1-0.1,1.6-0.3c0.5-0.2,0.9-0.5,1.3-0.9c0.4-0.4,0.7-0.8,0.9-1.3
				c0.2-0.5,0.3-1,0.3-1.6v-6.5c0-0.4,0.1-0.7,0.4-1c0.3-0.3,0.6-0.4,1-0.4c0.4,0,0.7,0.1,1,0.4c0.3,0.3,0.4,0.6,0.4,1v12
				c0,0.4-0.1,0.7-0.4,1C600.9,150.6,600.5,150.7,600.2,150.7z"/>
			<path fill="#F79334" d="M611,135.9c1.7,0,3.3,0.5,4.6,1.6V131c0-0.4,0.1-0.7,0.4-1c0.3-0.3,0.6-0.4,1-0.4c0.4,0,0.7,0.1,1,0.4
				c0.3,0.3,0.4,0.6,0.4,1v12.3c0,2.1-0.7,3.8-2.2,5.2c-1.5,1.4-3.2,2.2-5.2,2.2c-2,0-3.8-0.7-5.2-2.2s-2.2-3.2-2.2-5.2
				s0.7-3.8,2.2-5.2S609,135.9,611,135.9z M615.6,143.3c0-0.6-0.1-1.2-0.4-1.8c-0.2-0.6-0.6-1-1-1.5c-0.4-0.4-0.9-0.8-1.5-1
				c-0.6-0.2-1.2-0.4-1.8-0.4c-0.7,0-1.3,0.1-1.8,0.4s-1.1,0.6-1.5,1c-0.4,0.4-0.7,0.9-1,1.5c-0.2,0.6-0.4,1.2-0.4,1.8
				s0.1,1.2,0.4,1.8c0.2,0.6,0.6,1.1,1,1.5c0.4,0.4,0.9,0.8,1.5,1c0.6,0.2,1.2,0.4,1.8,0.4c0.6,0,1.2-0.1,1.8-0.4
				c0.6-0.2,1.1-0.6,1.5-1c0.4-0.4,0.7-0.9,1-1.5C615.5,144.5,615.6,143.9,615.6,143.3z"/>
			<path fill="#F79334" d="M632.5,149.1c-1.3,1.1-2.9,1.6-4.6,1.6c-2,0-3.8-0.7-5.2-2.2s-2.2-3.2-2.2-5.2s0.7-3.8,2.2-5.2
				s3.2-2.2,5.2-2.2c2,0,3.8,0.7,5.2,2.2c1.4,1.4,2.2,3.2,2.2,5.2v7.3c0,0.6-0.1,1.2-0.3,1.8s-0.5,1.1-0.8,1.5
				c-0.3,0.5-0.7,0.9-1.2,1.3c-0.5,0.4-1,0.7-1.5,1c-0.5,0.3-1.1,0.5-1.7,0.6s-1.2,0.2-1.8,0.2c-0.7,0-1.4-0.1-2.1-0.3
				c-0.7-0.2-1.3-0.4-1.9-0.8c-0.6-0.4-1.2-0.8-1.7-1.3c-0.5-0.5-0.9-1.1-1.3-1.7c-0.1-0.2-0.2-0.4-0.2-0.7c0-0.4,0.1-0.7,0.4-1
				c0.3-0.3,0.6-0.4,1-0.4c0.3,0,0.5,0.1,0.7,0.2c0.2,0.1,0.4,0.4,0.7,0.8c0.3,0.4,0.6,0.7,0.8,1c1,1,2.2,1.5,3.6,1.5
				c1.4,0,2.6-0.5,3.6-1.5c0.6-0.7,0.9-1.5,0.9-2.1V149.1z M627.9,138.7c-0.7,0-1.3,0.1-1.8,0.4s-1.1,0.6-1.5,1
				c-0.4,0.4-0.7,0.9-1,1.5c-0.2,0.6-0.4,1.2-0.4,1.8s0.1,1.2,0.4,1.8c0.2,0.6,0.6,1.1,1,1.5c0.4,0.4,0.9,0.8,1.5,1
				c0.6,0.2,1.2,0.4,1.8,0.4c0.6,0,1.2-0.1,1.8-0.4c0.6-0.2,1.1-0.6,1.5-1c0.4-0.4,0.7-0.9,1-1.5c0.2-0.6,0.4-1.2,0.4-1.8
				s-0.1-1.2-0.4-1.8c-0.2-0.6-0.6-1-1-1.5c-0.4-0.4-0.9-0.8-1.5-1C629.1,138.8,628.5,138.7,627.9,138.7z"/>
			<path fill="#F79334" d="M648.6,146.5c0.4,0,0.7,0.1,1,0.4c0.3,0.3,0.4,0.6,0.4,1c0,0.4-0.1,0.7-0.4,1c-1.4,1.2-3,1.8-4.8,1.8
				c-2,0-3.8-0.7-5.2-2.2s-2.2-3.2-2.2-5.2s0.7-3.8,2.2-5.2s3.2-2.2,5.2-2.2c2,0,3.8,0.7,5.2,2.2c0.7,0.7,1.3,1.5,1.6,2.4
				c0.4,0.9,0.5,1.8,0.5,2.8c0,0.4-0.1,0.7-0.4,1c-0.3,0.3-0.6,0.4-1,0.4h-10.4c0.1,0.5,0.4,0.9,0.7,1.3c0.3,0.4,0.6,0.7,1,1
				c0.4,0.3,0.8,0.5,1.3,0.7c0.5,0.2,1,0.2,1.5,0.2c0.6,0,1.1-0.1,1.6-0.3c0.5-0.2,0.9-0.4,1.3-0.8
				C648,146.7,648.3,146.5,648.6,146.5z M649.2,141.9c-0.2-0.5-0.4-0.9-0.7-1.3c-0.3-0.4-0.6-0.7-1-1c-0.4-0.3-0.8-0.5-1.3-0.7
				c-0.5-0.2-1-0.2-1.5-0.2s-1,0.1-1.5,0.2s-0.9,0.4-1.3,0.7c-0.4,0.3-0.7,0.6-1,1c-0.3,0.4-0.5,0.8-0.6,1.3H649.2z"/>
			<path fill="#F79334" d="M525,181.7v-18.3c0-0.2,0-0.4,0.1-0.5c0.1-0.2,0.2-0.3,0.3-0.4c0.1-0.1,0.3-0.2,0.4-0.3s0.4-0.1,0.6-0.1
				c0.5,0,1,0.2,1.2,0.8l7.9,15.8l7.9-15.8c0.3-0.5,0.7-0.8,1.2-0.8c0.2,0,0.4,0,0.5,0.1c0.2,0.1,0.3,0.2,0.4,0.3
				c0.1,0.1,0.2,0.3,0.3,0.4c0.1,0.2,0.1,0.4,0.1,0.5v18.3c0,0.4-0.1,0.7-0.4,1c-0.3,0.3-0.6,0.4-1,0.4s-0.7-0.1-1-0.4
				s-0.4-0.6-0.4-1v-12.4l-6.5,13.1c-0.3,0.5-0.7,0.7-1.2,0.7c-0.6,0-1-0.3-1.3-0.8l-6.5-12.9v12.4c0,0.4-0.1,0.7-0.4,1
				c-0.3,0.3-0.6,0.4-1,0.4s-0.7-0.1-1-0.4S525,182.1,525,181.7z"/>
			<path fill="#F79334" d="M560.3,181.7v-0.3c-0.7,0.5-1.4,0.9-2.1,1.2s-1.6,0.4-2.5,0.4c-2,0-3.8-0.7-5.2-2.2s-2.2-3.2-2.2-5.2
				s0.7-3.8,2.2-5.2s3.2-2.2,5.2-2.2c2,0,3.8,0.7,5.2,2.2c1.4,1.4,2.2,3.2,2.2,5.2v6c0,0.4-0.1,0.7-0.4,1c-0.3,0.3-0.6,0.4-1,0.4
				c-0.4,0-0.7-0.1-1-0.4C560.4,182.4,560.3,182.1,560.3,181.7z M555.6,171.1c-0.7,0-1.3,0.1-1.8,0.4s-1.1,0.6-1.5,1
				c-0.4,0.4-0.7,0.9-1,1.5c-0.2,0.6-0.4,1.2-0.4,1.8s0.1,1.2,0.4,1.8c0.2,0.6,0.6,1.1,1,1.5c0.4,0.4,0.9,0.8,1.5,1
				c0.6,0.2,1.2,0.4,1.8,0.4c0.6,0,1.2-0.1,1.8-0.4c0.6-0.2,1.1-0.6,1.5-1c0.4-0.4,0.7-0.9,1-1.5c0.2-0.6,0.4-1.2,0.4-1.8
				s-0.1-1.2-0.4-1.8c-0.2-0.6-0.6-1-1-1.5c-0.4-0.4-0.9-0.8-1.5-1C556.9,171.2,556.3,171.1,555.6,171.1z"/>
			<path fill="#F79334" d="M567.8,169.7v0.3c0.7-0.5,1.4-0.9,2.1-1.2s1.6-0.4,2.5-0.4c0.4,0,0.8,0,1.2,0.1c0.4,0.1,0.9,0.1,1.2,0.3
				c0.4,0.1,0.7,0.3,0.9,0.6s0.4,0.5,0.4,0.9c0,0.2,0,0.4-0.1,0.5c-0.1,0.2-0.2,0.3-0.3,0.4c-0.1,0.1-0.3,0.2-0.4,0.3
				s-0.3,0.1-0.5,0.1c-0.2,0-0.4,0-0.6-0.1c-0.6-0.2-1.2-0.3-1.8-0.3c-0.6,0-1.2,0.1-1.8,0.4c-0.6,0.2-1.1,0.6-1.5,1
				c-0.4,0.4-0.7,0.9-1,1.5c-0.2,0.6-0.4,1.2-0.4,1.8v6c0,0.4-0.1,0.7-0.4,1c-0.3,0.3-0.6,0.4-1,0.4c-0.4,0-0.7-0.1-1-0.4
				c-0.3-0.3-0.4-0.6-0.4-1v-12c0-0.4,0.1-0.7,0.4-1c0.3-0.3,0.6-0.4,1-0.4c0.4,0,0.7,0.1,1,0.4C567.7,169,567.8,169.3,567.8,169.7z
				"/>
			<path fill="#F79334" d="M589.8,181.7v-0.3c-0.7,0.5-1.4,0.9-2.1,1.2s-1.6,0.4-2.5,0.4c-2,0-3.8-0.7-5.2-2.2s-2.2-3.2-2.2-5.2
				s0.7-3.8,2.2-5.2s3.2-2.2,5.2-2.2c2,0,3.8,0.7,5.2,2.2c1.4,1.4,2.2,3.2,2.2,5.2v6c0,0.4-0.1,0.7-0.4,1c-0.3,0.3-0.6,0.4-1,0.4
				c-0.4,0-0.7-0.1-1-0.4C589.9,182.4,589.8,182.1,589.8,181.7z M585.2,171.1c-0.7,0-1.3,0.1-1.8,0.4s-1.1,0.6-1.5,1
				c-0.4,0.4-0.7,0.9-1,1.5c-0.2,0.6-0.4,1.2-0.4,1.8s0.1,1.2,0.4,1.8c0.2,0.6,0.6,1.1,1,1.5c0.4,0.4,0.9,0.8,1.5,1
				c0.6,0.2,1.2,0.4,1.8,0.4c0.6,0,1.2-0.1,1.8-0.4c0.6-0.2,1.1-0.6,1.5-1c0.4-0.4,0.7-0.9,1-1.5c0.2-0.6,0.4-1.2,0.4-1.8
				s-0.1-1.2-0.4-1.8c-0.2-0.6-0.6-1-1-1.5c-0.4-0.4-0.9-0.8-1.5-1C586.4,171.2,585.8,171.1,585.2,171.1z"/>
			<path fill="#F79334" d="M597.3,176.1c-0.8-0.3-1.4-0.6-1.7-1h0c-0.7-0.7-1-1.5-1-2.4c0-0.7,0.2-1.3,0.5-1.8
				c0.4-0.5,0.8-1,1.4-1.4s1.2-0.7,1.9-0.9c0.7-0.2,1.4-0.3,2.2-0.3c2.2,0,4.1,0.9,5.7,2.7c0.2,0.2,0.3,0.5,0.3,0.8
				c0,0.4-0.1,0.7-0.4,1c-0.3,0.3-0.6,0.4-1,0.4c-0.3,0-0.5-0.1-0.7-0.2c-0.2-0.2-0.4-0.3-0.6-0.5c-0.9-0.9-2-1.3-3.3-1.3
				c-1.3,0-2.3,0.4-3,1.2c-0.1,0.1-0.2,0.3-0.2,0.6s0.1,0.4,0.3,0.5l6.2,2c0.9,0.3,1.4,0.7,1.7,1h0c0.7,0.7,1,1.5,1,2.4
				c0,0.7-0.2,1.3-0.5,1.8c-0.4,0.5-0.8,1-1.4,1.4c-0.6,0.4-1.2,0.7-1.9,0.9s-1.4,0.3-2.1,0.3c-2.2,0-4.1-0.9-5.7-2.6
				c-0.2-0.3-0.3-0.5-0.3-0.9c0-0.4,0.1-0.7,0.4-1c0.3-0.3,0.6-0.4,1-0.4c0.3,0,0.5,0.1,0.7,0.3c0.2,0.2,0.4,0.3,0.6,0.5
				c0.9,0.9,2,1.3,3.3,1.3c1.3,0,2.3-0.4,3-1.2c0.1-0.1,0.2-0.3,0.2-0.5c0-0.2-0.1-0.4-0.4-0.5L597.3,176.1z"/>
			<path fill="#F79334" d="M619.9,178.9c0.4,0,0.7,0.1,1,0.4c0.3,0.3,0.4,0.6,0.4,1c0,0.4-0.1,0.7-0.4,1c-1.4,1.2-3,1.8-4.8,1.8
				c-2,0-3.8-0.7-5.2-2.2s-2.2-3.2-2.2-5.2s0.7-3.8,2.2-5.2s3.2-2.2,5.2-2.2c1.9,0,3.5,0.6,4.8,1.8c0.3,0.3,0.5,0.6,0.5,1
				c0,0.4-0.1,0.7-0.4,1c-0.3,0.3-0.6,0.4-1,0.4c-0.3,0-0.6-0.1-0.9-0.3c-0.4-0.4-0.9-0.7-1.4-0.9c-0.5-0.2-1-0.3-1.6-0.3
				c-0.6,0-1.2,0.1-1.8,0.4c-0.6,0.2-1.1,0.6-1.5,1c-0.4,0.4-0.8,0.9-1,1.5c-0.2,0.6-0.4,1.2-0.4,1.8s0.1,1.2,0.4,1.8
				c0.2,0.6,0.6,1.1,1,1.5c0.4,0.4,0.9,0.7,1.5,1c0.6,0.2,1.2,0.4,1.8,0.4c0.6,0,1.1-0.1,1.6-0.3c0.5-0.2,1-0.5,1.4-0.8
				C619.2,179,619.5,178.9,619.9,178.9z"/>
			<path fill="#F79334" d="M626.1,181.7c0,0.4-0.1,0.7-0.4,1c-0.3,0.3-0.6,0.4-1,0.4c-0.4,0-0.7-0.1-1-0.4c-0.3-0.3-0.4-0.6-0.4-1
				v-18.3c0-0.4,0.1-0.7,0.4-1c0.3-0.3,0.6-0.4,1-0.4s0.7,0.1,1,0.4c0.3,0.3,0.4,0.6,0.4,1v6.3c1.2-0.9,2.5-1.4,4.1-1.4
				c0.9,0,1.8,0.2,2.6,0.5c0.8,0.4,1.6,0.9,2.2,1.5c0.6,0.6,1.1,1.3,1.5,2.2c0.4,0.8,0.6,1.7,0.6,2.7v6.5c0,0.4-0.1,0.7-0.4,1
				c-0.3,0.3-0.6,0.4-1,0.4s-0.7-0.1-1-0.4c-0.3-0.3-0.4-0.6-0.4-1v-6.5c0-0.6-0.1-1.1-0.3-1.6c-0.2-0.5-0.5-0.9-0.9-1.3
				c-0.4-0.4-0.8-0.7-1.3-0.9s-1-0.3-1.6-0.3c-0.6,0-1.1,0.1-1.6,0.3c-0.5,0.2-0.9,0.5-1.3,0.9c-0.4,0.4-0.7,0.8-0.9,1.3
				c-0.2,0.5-0.3,1-0.3,1.6V181.7z"/>
			<path fill="#F79334" d="M642.9,165.7c0,0.4-0.2,0.8-0.5,1.1s-0.7,0.5-1.1,0.5s-0.8-0.2-1.1-0.5s-0.5-0.7-0.5-1.1
				c0-0.4,0.2-0.8,0.5-1.1s0.7-0.5,1.1-0.5s0.8,0.2,1.1,0.5S642.9,165.3,642.9,165.7z M640,181.7v-12c0-0.4,0.1-0.7,0.4-1
				c0.3-0.3,0.6-0.4,1-0.4s0.7,0.1,1,0.4c0.3,0.3,0.4,0.6,0.4,1v12c0,0.4-0.1,0.7-0.4,1c-0.3,0.3-0.6,0.4-1,0.4s-0.7-0.1-1-0.4
				C640.1,182.4,640,182.1,640,181.7z"/>
			<path fill="#F79334" d="M648.3,169.7c1.2-0.9,2.5-1.4,4.1-1.4c0.9,0,1.8,0.2,2.6,0.5c0.8,0.4,1.6,0.8,2.2,1.5
				c0.6,0.6,1.1,1.3,1.5,2.2c0.4,0.8,0.6,1.7,0.6,2.7v6.5c0,0.4-0.1,0.7-0.4,1c-0.3,0.3-0.6,0.4-1,0.4c-0.4,0-0.7-0.1-1-0.4
				c-0.3-0.3-0.4-0.6-0.4-1v-6.5c0-0.6-0.1-1.1-0.3-1.6c-0.2-0.5-0.5-0.9-0.9-1.3c-0.4-0.4-0.8-0.7-1.3-0.9s-1-0.3-1.6-0.3
				c-0.6,0-1.1,0.1-1.6,0.3c-0.5,0.2-0.9,0.5-1.3,0.9s-0.7,0.8-0.9,1.3c-0.2,0.5-0.3,1-0.3,1.6v6.5c0,0.4-0.1,0.7-0.4,1
				c-0.3,0.3-0.6,0.4-1,0.4c-0.4,0-0.7-0.1-1-0.4c-0.3-0.3-0.4-0.6-0.4-1v-12c0-0.4,0.1-0.7,0.4-1c0.3-0.3,0.6-0.4,1-0.4
				c0.4,0,0.7,0.1,1,0.4C648.1,169,648.3,169.3,648.3,169.7z"/>
			<path fill="#F79334" d="M676.1,175.7c0,2.1-0.7,3.8-2.2,5.2c-1.5,1.4-3.2,2.2-5.2,2.2c-2,0-3.8-0.7-5.2-2.2s-2.2-3.2-2.2-5.2
				s0.7-3.8,2.2-5.2s3.2-2.2,5.2-2.2c2,0,3.8,0.7,5.2,2.2c0.7,0.7,1.3,1.5,1.6,2.4C675.9,173.7,676.1,174.7,676.1,175.7z
				 M668.7,171.1c-0.7,0-1.3,0.1-1.8,0.4s-1.1,0.6-1.5,1c-0.4,0.4-0.7,0.9-1,1.5c-0.2,0.6-0.4,1.2-0.4,1.8s0.1,1.2,0.4,1.8
				c0.2,0.6,0.6,1.1,1,1.5c0.4,0.4,0.9,0.8,1.5,1c0.6,0.2,1.2,0.4,1.8,0.4c0.6,0,1.2-0.1,1.8-0.4c0.6-0.2,1.1-0.6,1.5-1
				c0.4-0.4,0.7-0.9,1-1.5c0.2-0.6,0.4-1.2,0.4-1.8s-0.1-1.2-0.4-1.8c-0.2-0.6-0.6-1-1-1.5c-0.4-0.4-0.9-0.8-1.5-1
				C670,171.2,669.4,171.1,668.7,171.1z"/>
			<path fill="#F79334" d="M527.8,209c0,0.5,0.1,1,0.3,1.5s0.5,0.8,0.8,1.2c0.3,0.3,0.7,0.6,1.2,0.8s0.9,0.3,1.5,0.3
				c0.5,0,1-0.1,1.4-0.3c0.4-0.2,0.8-0.5,1.2-0.8c0.3-0.3,0.6-0.7,0.8-1.2c0.2-0.4,0.3-0.9,0.3-1.4v-13.2c0-0.4,0.1-0.7,0.4-1
				c0.3-0.3,0.6-0.4,1-0.4s0.7,0.1,1,0.4c0.3,0.3,0.4,0.6,0.4,1V209c0,0.9-0.2,1.7-0.5,2.5c-0.3,0.8-0.8,1.5-1.4,2.1
				c-0.6,0.6-1.3,1.1-2.1,1.4c-0.8,0.3-1.6,0.5-2.5,0.5c-0.9,0-1.7-0.2-2.5-0.5c-0.8-0.3-1.5-0.8-2.1-1.4c-0.6-0.6-1-1.3-1.4-2.1
				c-0.3-0.8-0.5-1.6-0.5-2.5c0-0.4,0.1-0.7,0.4-1c0.3-0.3,0.6-0.4,1-0.4s0.7,0.1,1,0.4S527.8,208.6,527.8,209z"/>
			<path fill="#F79334" d="M551.8,214.1v-0.3c-0.7,0.5-1.4,0.9-2.1,1.2s-1.6,0.4-2.5,0.4c-2,0-3.8-0.7-5.2-2.2s-2.2-3.2-2.2-5.2
				s0.7-3.8,2.2-5.2s3.2-2.2,5.2-2.2c2,0,3.8,0.7,5.2,2.2c1.4,1.4,2.2,3.2,2.2,5.2v6c0,0.4-0.1,0.7-0.4,1c-0.3,0.3-0.6,0.4-1,0.4
				c-0.4,0-0.7-0.1-1-0.4C552,214.8,551.8,214.5,551.8,214.1z M547.2,203.5c-0.7,0-1.3,0.1-1.8,0.4s-1.1,0.6-1.5,1
				c-0.4,0.4-0.7,0.9-1,1.5c-0.2,0.6-0.4,1.2-0.4,1.8s0.1,1.2,0.4,1.8c0.2,0.6,0.6,1.1,1,1.5c0.4,0.4,0.9,0.8,1.5,1
				c0.6,0.2,1.2,0.4,1.8,0.4c0.6,0,1.2-0.1,1.8-0.4c0.6-0.2,1.1-0.6,1.5-1c0.4-0.4,0.7-0.9,1-1.5c0.2-0.6,0.4-1.2,0.4-1.8
				s-0.1-1.2-0.4-1.8c-0.2-0.6-0.6-1-1-1.5c-0.4-0.4-0.9-0.8-1.5-1C548.4,203.6,547.8,203.5,547.2,203.5z"/>
			<path fill="#F79334" d="M577.5,214.1c0,0.4-0.1,0.7-0.4,1c-0.3,0.3-0.6,0.4-1,0.4c-0.4,0-0.7-0.1-1-0.4c-0.3-0.3-0.4-0.6-0.4-1
				v-7.5c0-0.4-0.1-0.8-0.2-1.2c-0.2-0.4-0.4-0.7-0.7-1c-0.3-0.3-0.6-0.5-1-0.7c-0.4-0.2-0.8-0.2-1.2-0.2c-0.4,0-0.8,0.1-1.2,0.2
				s-0.7,0.4-1,0.7c-0.3,0.3-0.5,0.6-0.7,1c-0.2,0.4-0.2,0.8-0.2,1.2v7.5c0,0.4-0.1,0.7-0.4,1c-0.3,0.3-0.6,0.4-1,0.4
				c-0.4,0-0.7-0.1-1-0.4c-0.3-0.3-0.4-0.6-0.4-1v-7.5c0-0.4-0.1-0.8-0.3-1.2s-0.4-0.7-0.7-1c-0.3-0.3-0.6-0.5-1-0.7
				s-0.8-0.2-1.2-0.2s-0.8,0.1-1.2,0.2c-0.4,0.2-0.7,0.4-1,0.7c-0.3,0.3-0.5,0.6-0.7,1c-0.2,0.4-0.2,0.8-0.2,1.2v7.5
				c0,0.4-0.1,0.7-0.4,1c-0.3,0.3-0.6,0.4-1,0.4c-0.4,0-0.7-0.1-1-0.4c-0.3-0.3-0.4-0.6-0.4-1v-12c0-0.4,0.1-0.7,0.4-1
				c0.3-0.3,0.6-0.4,1-0.4c0.3,0,0.6,0.1,0.8,0.3c0.2,0.2,0.4,0.4,0.5,0.7c0.9-0.6,2-0.9,3.2-0.9c0.9,0,1.7,0.2,2.5,0.5
				c0.8,0.3,1.5,0.9,2,1.6c1.2-1.4,2.7-2.1,4.5-2.1c0.8,0,1.6,0.2,2.3,0.5c0.7,0.3,1.3,0.7,1.9,1.3c0.5,0.5,1,1.2,1.3,1.9
				c0.3,0.7,0.5,1.5,0.5,2.3V214.1z"/>
			<path fill="#F79334" d="M530.4,226.8c0.7,0,1.5,0.1,2.1,0.4c0.7,0.3,1.2,0.7,1.7,1.2c0.5,0.5,0.9,1.1,1.2,1.7
				c0.3,0.7,0.4,1.4,0.4,2.1c0,1.3-0.4,2.5-1.2,3.5c0.5,0.3,1,0.7,1.4,1.1s0.7,0.9,1,1.4c0.3,0.5,0.5,1,0.6,1.5
				c0.1,0.5,0.2,1.1,0.2,1.7c0,0.9-0.2,1.7-0.5,2.5c-0.3,0.8-0.8,1.5-1.4,2.1c-0.6,0.6-1.3,1.1-2.1,1.4c-0.8,0.3-1.6,0.5-2.5,0.5
				h-5.1c-0.2,0-0.4,0-0.5-0.1c-0.2-0.1-0.3-0.2-0.4-0.3c-0.1-0.1-0.2-0.3-0.3-0.4c-0.1-0.2-0.1-0.4-0.1-0.5v-18.3
				c0-0.2,0-0.4,0.1-0.5c0.1-0.2,0.2-0.3,0.3-0.4c0.1-0.1,0.3-0.2,0.4-0.3c0.2-0.1,0.3-0.1,0.5-0.1H530.4z M527.8,229.6v5.3h2.7
				c0.4,0,0.7-0.1,1-0.2c0.3-0.1,0.6-0.3,0.8-0.6c0.2-0.2,0.4-0.5,0.6-0.9c0.1-0.3,0.2-0.7,0.2-1c0-0.4-0.1-0.7-0.2-1
				c-0.1-0.3-0.3-0.6-0.6-0.9s-0.5-0.4-0.8-0.6c-0.3-0.1-0.7-0.2-1-0.2H527.8z M527.8,237.7v7.4h3.7c0.5,0,1-0.1,1.4-0.3
				c0.4-0.2,0.8-0.5,1.2-0.8c0.3-0.3,0.6-0.7,0.8-1.2c0.2-0.4,0.3-0.9,0.3-1.4c0-0.5-0.1-1-0.3-1.4s-0.5-0.8-0.8-1.2
				c-0.3-0.3-0.7-0.6-1.2-0.8c-0.4-0.2-0.9-0.3-1.4-0.3H527.8z"/>
			<path fill="#F79334" d="M551,243.7c0.4,0,0.7,0.1,1,0.4c0.3,0.3,0.4,0.6,0.4,1c0,0.4-0.1,0.7-0.4,1c-1.4,1.2-3,1.8-4.8,1.8
				c-2,0-3.8-0.7-5.2-2.2s-2.2-3.2-2.2-5.2s0.7-3.8,2.2-5.2s3.2-2.2,5.2-2.2c2,0,3.8,0.7,5.2,2.2c0.7,0.7,1.3,1.5,1.6,2.4
				c0.4,0.9,0.5,1.8,0.5,2.8c0,0.4-0.1,0.7-0.4,1c-0.3,0.3-0.6,0.4-1,0.4h-10.4c0.1,0.5,0.4,0.9,0.7,1.3c0.3,0.4,0.6,0.7,1,1
				c0.4,0.3,0.8,0.5,1.3,0.7c0.5,0.2,1,0.2,1.5,0.2c0.6,0,1.1-0.1,1.6-0.3c0.5-0.2,0.9-0.4,1.3-0.8
				C550.4,243.9,550.7,243.8,551,243.7z M551.6,239.1c-0.2-0.5-0.4-0.9-0.7-1.3c-0.3-0.4-0.6-0.7-1-1c-0.4-0.3-0.8-0.5-1.3-0.7
				c-0.5-0.2-1-0.2-1.5-0.2s-1,0.1-1.5,0.2s-0.9,0.4-1.3,0.7c-0.4,0.3-0.7,0.6-1,1c-0.3,0.4-0.5,0.8-0.6,1.3H551.6z"/>
			<path fill="#F79334" d="M567.9,243.7c0.4,0,0.7,0.1,1,0.4c0.3,0.3,0.4,0.6,0.4,1c0,0.4-0.1,0.7-0.4,1c-1.4,1.2-3,1.8-4.8,1.8
				c-2,0-3.8-0.7-5.2-2.2s-2.2-3.2-2.2-5.2s0.7-3.8,2.2-5.2s3.2-2.2,5.2-2.2c2,0,3.8,0.7,5.2,2.2c0.7,0.7,1.3,1.5,1.6,2.4
				c0.4,0.9,0.5,1.8,0.5,2.8c0,0.4-0.1,0.7-0.4,1c-0.3,0.3-0.6,0.4-1,0.4h-10.4c0.1,0.5,0.4,0.9,0.7,1.3c0.3,0.4,0.6,0.7,1,1
				c0.4,0.3,0.8,0.5,1.3,0.7c0.5,0.2,1,0.2,1.5,0.2c0.6,0,1.1-0.1,1.6-0.3c0.5-0.2,0.9-0.4,1.3-0.8
				C567.3,243.9,567.6,243.8,567.9,243.7z M568.5,239.1c-0.2-0.5-0.4-0.9-0.7-1.3c-0.3-0.4-0.6-0.7-1-1c-0.4-0.3-0.8-0.5-1.3-0.7
				c-0.5-0.2-1-0.2-1.5-0.2s-1,0.1-1.5,0.2s-0.9,0.4-1.3,0.7c-0.4,0.3-0.7,0.6-1,1c-0.3,0.4-0.5,0.8-0.6,1.3H568.5z"/>
			<path fill="#F79334" d="M576.3,234.5v0.3c0.7-0.5,1.4-0.9,2.1-1.2s1.6-0.4,2.5-0.4c0.4,0,0.8,0,1.2,0.1c0.4,0.1,0.9,0.1,1.2,0.3
				c0.4,0.1,0.7,0.3,0.9,0.6s0.4,0.5,0.4,0.9c0,0.2,0,0.4-0.1,0.5c-0.1,0.2-0.2,0.3-0.3,0.4c-0.1,0.1-0.3,0.2-0.4,0.3
				s-0.3,0.1-0.5,0.1c-0.2,0-0.4,0-0.6-0.1c-0.6-0.2-1.2-0.3-1.8-0.3c-0.6,0-1.2,0.1-1.8,0.4c-0.6,0.2-1.1,0.6-1.5,1
				c-0.4,0.4-0.7,0.9-1,1.5c-0.2,0.6-0.4,1.2-0.4,1.8v6c0,0.4-0.1,0.7-0.4,1c-0.3,0.3-0.6,0.4-1,0.4c-0.4,0-0.7-0.1-1-0.4
				c-0.3-0.3-0.4-0.6-0.4-1v-12c0-0.4,0.1-0.7,0.4-1c0.3-0.3,0.6-0.4,1-0.4c0.4,0,0.7,0.1,1,0.4
				C576.1,233.8,576.3,234.1,576.3,234.5z"/>
		</g>
		<line fill="none" stroke="#F79334" stroke-width="6" stroke-miterlimit="10" x1="0" y1="128.3" x2="487" y2="128.3"/>
	</g>
	<g>
		<g>
			<path fill="#F79334" d="M273.2,108.6V72.2c0-0.4,0.1-0.7,0.2-1.1c0.1-0.3,0.3-0.6,0.6-0.9s0.5-0.4,0.9-0.6s0.7-0.2,1.1-0.2
				c1.1,0,1.9,0.5,2.5,1.5l15.7,31.4L309.8,71c0.6-1,1.4-1.5,2.5-1.5c0.4,0,0.7,0.1,1.1,0.2c0.3,0.1,0.6,0.3,0.9,0.6
				s0.4,0.5,0.6,0.9c0.1,0.3,0.2,0.7,0.2,1.1v36.3c0,0.8-0.3,1.4-0.8,2c-0.5,0.5-1.2,0.8-2,0.8c-0.8,0-1.4-0.3-2-0.8
				c-0.5-0.5-0.8-1.2-0.8-2V84l-13,25.9c-0.5,0.9-1.3,1.4-2.4,1.4c-1.2,0-2-0.6-2.5-1.7L278.7,84v24.5c0,0.8-0.3,1.4-0.8,2
				c-0.5,0.5-1.2,0.8-2,0.8c-0.8,0-1.4-0.3-2-0.8C273.5,110,273.2,109.3,273.2,108.6z"/>
			<path fill="#F79334" d="M348.6,96.7c0,4.1-1.4,7.5-4.3,10.4c-2.9,2.9-6.4,4.3-10.4,4.3c-4,0-7.5-1.4-10.4-4.3s-4.3-6.3-4.3-10.4
				c0-4,1.4-7.5,4.3-10.4s6.3-4.3,10.4-4.3c4,0,7.5,1.4,10.4,4.3c1.4,1.4,2.5,3,3.2,4.7C348.2,92.8,348.5,94.7,348.6,96.7z
				 M333.9,87.5c-1.3,0-2.5,0.2-3.6,0.7c-1.1,0.5-2.1,1.1-2.9,2c-0.8,0.8-1.5,1.8-2,2.9c-0.5,1.1-0.7,2.3-0.7,3.6
				c0,1.3,0.2,2.4,0.7,3.6c0.5,1.1,1.1,2.1,2,2.9c0.8,0.8,1.8,1.5,2.9,2c1.1,0.5,2.3,0.7,3.6,0.7c1.3,0,2.5-0.2,3.6-0.7
				c1.1-0.5,2.1-1.2,2.9-2c0.8-0.8,1.5-1.8,2-2.9c0.5-1.1,0.7-2.3,0.7-3.5c0-1.3-0.2-2.4-0.7-3.5c-0.5-1.1-1.1-2.1-2-2.9
				c-0.8-0.8-1.8-1.5-2.9-2S335.2,87.5,333.9,87.5z"/>
			<path fill="#F79334" d="M358.2,84.7c2.3-1.8,5.1-2.7,8.2-2.7c1.8,0,3.6,0.4,5.2,1.1c1.6,0.7,3.1,1.7,4.4,2.9
				c1.3,1.2,2.3,2.7,3,4.3c0.7,1.7,1.1,3.4,1.1,5.3v12.9c0,0.8-0.3,1.4-0.8,2c-0.5,0.5-1.2,0.8-1.9,0.8c-0.8,0-1.4-0.3-2-0.8
				s-0.8-1.2-0.8-2V95.7c0-1.1-0.2-2.2-0.7-3.2c-0.4-1-1-1.9-1.8-2.6c-0.7-0.7-1.6-1.3-2.6-1.8c-1-0.4-2-0.7-3.2-0.7
				c-1.1,0-2.2,0.2-3.2,0.6c-1,0.4-1.9,1-2.6,1.8c-0.8,0.8-1.3,1.6-1.8,2.6c-0.4,1-0.6,2.1-0.6,3.2v12.9c0,0.8-0.3,1.4-0.8,2
				s-1.2,0.8-1.9,0.8c-0.8,0-1.4-0.3-1.9-0.8c-0.5-0.5-0.8-1.2-0.8-2V84.8c0-0.8,0.3-1.4,0.8-1.9c0.5-0.5,1.2-0.8,1.9-0.8
				c0.8,0,1.4,0.3,1.9,0.8C357.9,83.4,358.2,84,358.2,84.7z"/>
			<path fill="#F79334" d="M386.7,82h1.2v-9.8c0-0.8,0.3-1.4,0.8-1.9s1.2-0.8,2-0.8c0.8,0,1.4,0.3,1.9,0.8c0.5,0.5,0.8,1.2,0.8,1.9
				V82h3.3c0.8,0,1.4,0.3,1.9,0.8s0.8,1.2,0.8,1.9c0,0.8-0.3,1.4-0.8,1.9s-1.2,0.8-1.9,0.8h-3.3v13.2c0,3.5,1.7,5.2,5.2,5.2
				c0.8,0,1.4,0.3,1.9,0.8s0.8,1.2,0.8,1.9c0,0.8-0.3,1.4-0.8,2s-1.2,0.8-1.9,0.8c-7.1,0-10.7-3.6-10.7-10.7V87.5h-1.2
				c-0.7,0-1.4-0.3-1.9-0.8s-0.8-1.2-0.8-1.9c0-0.8,0.3-1.4,0.8-1.9S386,82,386.7,82z"/>
			<path fill="#F79334" d="M410.5,108.6c0,0.8-0.3,1.4-0.8,2s-1.2,0.8-2,0.8c-0.8,0-1.4-0.3-1.9-0.8c-0.5-0.5-0.8-1.2-0.8-2V72.2
				c0-0.8,0.3-1.4,0.8-2c0.5-0.5,1.2-0.8,1.9-0.8s1.4,0.3,1.9,0.8s0.8,1.2,0.8,2v12.6c2.3-1.8,5.1-2.7,8.2-2.7
				c1.8,0,3.6,0.4,5.2,1.1s3.1,1.7,4.4,2.9c1.3,1.2,2.3,2.7,3,4.3c0.7,1.7,1.1,3.4,1.1,5.3v12.9c0,0.8-0.3,1.4-0.8,2
				s-1.2,0.8-1.9,0.8s-1.4-0.3-1.9-0.8s-0.8-1.2-0.8-2V95.7c0-1.1-0.2-2.2-0.7-3.2c-0.4-1-1-1.9-1.8-2.6c-0.7-0.7-1.6-1.3-2.6-1.8
				c-1-0.4-2-0.7-3.2-0.7c-1.1,0-2.2,0.2-3.2,0.6c-1,0.4-1.9,1-2.6,1.8c-0.8,0.8-1.3,1.6-1.8,2.6c-0.4,1-0.6,2-0.6,3.2V108.6z"/>
			<path fill="#F79334" d="M441.8,97.4c-1.6-0.6-2.8-1.3-3.5-1.9h0c-1.3-1.3-2-2.9-2-4.7c0-1.3,0.4-2.5,1.1-3.6s1.6-2,2.8-2.7
				c1.1-0.8,2.4-1.3,3.8-1.7c1.4-0.4,2.8-0.6,4.3-0.6c4.4,0,8.1,1.8,11.2,5.3c0.4,0.5,0.5,1,0.5,1.6c0,0.8-0.3,1.4-0.8,1.9
				s-1.2,0.8-1.9,0.8c-0.6,0-1-0.2-1.4-0.5c-0.4-0.3-0.8-0.7-1.1-1c-1.8-1.8-3.9-2.7-6.5-2.7c-2.5,0-4.5,0.8-6,2.3
				c-0.3,0.3-0.4,0.7-0.4,1.2c0,0.5,0.2,0.8,0.7,1l12.2,4c1.7,0.7,2.9,1.3,3.5,1.9h0c1.3,1.3,2,2.9,2,4.7c0,1.3-0.4,2.5-1.1,3.6
				c-0.7,1.1-1.6,2-2.8,2.7c-1.1,0.8-2.4,1.3-3.8,1.7c-1.4,0.4-2.8,0.6-4.3,0.6c-4.4,0-8.1-1.7-11.2-5.2c-0.4-0.5-0.6-1.1-0.6-1.7
				c0-0.8,0.3-1.4,0.8-2c0.5-0.5,1.2-0.8,2-0.8c0.6,0,1.1,0.2,1.5,0.5c0.4,0.3,0.8,0.7,1.1,1c1.8,1.8,4,2.7,6.5,2.7
				c2.5,0,4.5-0.8,6-2.4c0.3-0.3,0.4-0.7,0.4-1.1c0-0.5-0.2-0.8-0.7-1L441.8,97.4z"/>
		</g>
	</g>
</g>
</svg>
