<!-- Generator: Adobe Illustrator 18.0.0, SVG Export Plug-In  -->
<svg version="1.1"
	 xmlns="http://www.w3.org/2000/svg" xmlns:xlink="http://www.w3.org/1999/xlink" xmlns:a="http://ns.adobe.com/AdobeSVGViewerExtensions/3.0/"
	 x="0px" y="0px" width="494.7px" height="494.7px" viewBox="0 0 494.7 494.7" enable-background="new 0 0 494.7 494.7"
	 xml:space="preserve">
<defs>
</defs>
<g>
	<g>
		<g>
			<path fill="none" stroke="#006738" stroke-width="8" stroke-miterlimit="10" d="M10.3,299.2c-2.1-0.5-4.2-1.1-6.3-1.6
				c0-2.2,0-4.3,0-6.5"/>
			<path fill="none" stroke="#006738" stroke-width="8" stroke-miterlimit="10" stroke-dasharray="12.9944,6.997" d="M4,284.1
				C4,205,4,126,4,47c0.8-1.6,2-3.1,2.3-4.9C12,1.1,51.8-5.3,88.3,15.7c25.4,14.6,40.7,40.7,40.8,70.3c0.2,60.2,0,120.3,0.1,180.4
				c0,4.7,0.4,9.6,1.3,14.5c3.1,16.4,11.5,25.7,26.8,30.1c15.4,4.4,24.6-0.4,27.5-15c0.8-4.1,1.3-8.5,1.4-12.9
				c0.1-21.7,0-43.6,0.1-65.3c0.1-40.3-0.4-80.7,0.4-120.8c0.6-30.2,20.6-46.2,50.9-43.1c1.6,0.2,3.1-0.6,4.7-0.9
				c3.6,1,7.3,2,10.9,3c1,0.9,1.9,2.1,2.9,2.7c38,19.1,54.5,44.2,54.5,82.9c0,60.9,0,121.9,0,182.8c0,20.6,10.1,34.4,28.8,39.8
				c19.4,5.6,29.1-1.8,29.1-22.4c0-56.6-0.1-113.2,0.1-169.7c0-9.9,0.6-19.6,1.8-29.1c2.8-24.1,19.6-39.1,42.7-38.9
				c4.3,0,8.6,0.1,12.8,0.2c3,0.8,6.1,1.7,9.1,2.5c1,0.9,1.9,2.3,2.9,2.7c34.9,12.2,53,51,52.8,81c-0.5,75-0.2,150.3-0.2,225.4
				c0,23.9,0,23.5-23.6,17.2c-9.4-2.5-11.6-6.1-11.6-15.2c0.3-78,0.3-156,0.1-234.1c0-6-0.7-12.3-2.4-18.5
				c-3.5-12.6-12.2-20.8-23.8-23.7c-11.7-2.9-19.3,0.2-22.5,11.1c-1.9,6.6-2.9,14-3,21.4c-0.2,59.4-0.1,118.9-0.2,178.3
				c0,5.4,0.2,11.1-0.9,16c-7.3,31.7-36.5,42.7-72.8,27.8c-32.4-13.3-54.3-44.8-54.4-78.5c-0.1-60.9,0-121.8,0-182.7
				c0-3,0.1-6-0.1-9c-1.7-21.2-15.3-35.2-35.3-36.3c-11.6-0.7-18.7,7.8-18.7,23c-0.1,59.2,0,118.5-0.1,177.7
				c0,7.4-0.5,14.8-1.7,21.8c-9.5,53-69.7,41.5-99.5,12c-19-18.8-25.9-40.2-26-61.9c-0.5-62.6-0.1-125-0.2-187.5
				c0-15.5-9.2-27.6-24-32.8c-15.3-5.4-25.7-0.5-28.3,13.7c-0.9,5-1.4,10.2-1.4,15.5C40,144.9,40,218.8,40,292.6
				c0,2.4-0.2,4.7,0,7.1c0.5,5.9-2,7.3-8,5.4c-6.1-1.9-12.3-3.5-18.4-5.1"/>
		</g>
	</g>
	<g>
		<g>
			<g>
				<g>
					<polyline fill="none" stroke="#006738" stroke-width="3" stroke-miterlimit="10" points="23.9,337.2 25.5,330.9 33.7,333.3 
						33.7,339.8 					"/>
					<polyline fill="none" stroke="#006738" stroke-width="3" stroke-miterlimit="10" points="33.7,353.1 33.7,359.6 28.4,358 
						28.4,351.5 					"/>
					<path fill="none" stroke="#006738" stroke-width="3" stroke-miterlimit="10" d="M28.4,342.5v-2.2c0-0.5,0-1.2,0-2.1
						c0-0.9,0-1.6,0-2.1l-1.6,6.3"/>
					<polyline fill="none" stroke="#006738" stroke-width="3" stroke-miterlimit="10" points="24.8,350.2 23.3,356.5 17.7,354.9 
						16.4,348.5 					"/>
					<path fill="none" stroke="#006738" stroke-width="3" stroke-miterlimit="10" d="M14,337.7l-1.4-6.4c0,0.5,0,1.2,0,2.1
						c0,0.9,0,1.6,0,2.2v2.2"/>
					<polyline fill="none" stroke="#006738" stroke-width="3" stroke-miterlimit="10" points="12.7,346.9 12.7,353.4 7.4,351.8 
						7.4,345.3 					"/>
					<polyline fill="none" stroke="#006738" stroke-width="3" stroke-miterlimit="10" points="7.4,332.1 7.4,325.6 15.6,328 
						17.1,334.4 					"/>
					<polyline fill="none" stroke="#006738" stroke-width="3" stroke-miterlimit="10" points="19.2,343.8 20.6,350.1 22.2,343.8 
											"/>
				</g>
			</g>
		</g>
		<g>
			<g>
				<g>
					<polyline fill="none" stroke="#006738" stroke-width="3" stroke-miterlimit="10" points="53.7,339.2 59.9,341.1 59.9,345.7 
						53.7,343.9 					"/>
					<polyline fill="none" stroke="#006738" stroke-width="3" stroke-miterlimit="10" points="51.7,343.3 45.5,341.5 45.5,347.1 
						51.7,348.9 					"/>
					<polyline fill="none" stroke="#006738" stroke-width="3" stroke-miterlimit="10" points="52.5,349.1 58.7,351 58.7,355.5 
						52.5,353.7 					"/>
					<polyline fill="none" stroke="#006738" stroke-width="3" stroke-miterlimit="10" points="51.7,353.5 45.5,351.6 45.5,358.4 
						51.7,360.2 					"/>
					<polyline fill="none" stroke="#006738" stroke-width="3" stroke-miterlimit="10" points="54.3,361 60.5,362.8 60.5,367.6 
						54.3,365.7 					"/>
					<polyline fill="none" stroke="#006738" stroke-width="3" stroke-miterlimit="10" points="46.2,363.3 40,361.5 40,355 					"/>
					<polyline fill="none" stroke="#006738" stroke-width="3" stroke-miterlimit="10" points="40,341.7 40,335.2 46.2,337 					"/>
				</g>
			</g>
		</g>
		<g>
			<g>
				<g>
					<polyline fill="none" stroke="#006738" stroke-width="3" stroke-miterlimit="10" points="65.8,349.3 65.8,342.8 71.5,344.5 
						71.5,351 					"/>
					<polyline fill="none" stroke="#006738" stroke-width="3" stroke-miterlimit="10" points="71.5,359.6 71.5,366.1 77.8,367.9 
											"/>
					<polyline fill="none" stroke="#006738" stroke-width="3" stroke-miterlimit="10" points="78.9,368.3 85.1,370.1 85.1,374.8 
						78.9,373 					"/>
					<polyline fill="none" stroke="#006738" stroke-width="3" stroke-miterlimit="10" points="72.1,371 65.8,369.1 65.8,362.6 					
						"/>
				</g>
			</g>
		</g>
		<g>
			<g>
				<g>
					<path fill="none" stroke="#006738" stroke-width="3" stroke-miterlimit="10" d="M111.3,362.7c0,0.1,0,0.3,0,0.4
						c0,1.6-0.4,2.8-1.3,3.5c-0.5,0.4-1.2,0.7-2.1,0.9c1.4,0.9,2.4,2,3.1,3.3c0.3,0.6,0.6,1.2,0.7,1.8"/>
					<path fill="none" stroke="#006738" stroke-width="3" stroke-miterlimit="10" stroke-dasharray="10.7465,5.7866" d="
						M111.4,378.1c-0.1,0.2-0.3,0.4-0.4,0.6c-0.5,0.7-1.2,1.2-1.9,1.5c-0.9,0.4-1.9,0.5-3.1,0.4c-1.2-0.1-2.5-0.4-3.8-0.8l-3.2-1"/>
					<polyline fill="none" stroke="#006738" stroke-width="3" stroke-miterlimit="10" points="96.1,378.1 89.9,376.3 89.9,369.8 
											"/>
					<polyline fill="none" stroke="#006738" stroke-width="3" stroke-miterlimit="10" points="89.9,356.4 89.9,349.9 96.1,351.8 
											"/>
					<path fill="none" stroke="#006738" stroke-width="3" stroke-miterlimit="10" stroke-dasharray="9.7227,5.2353" d="M101.1,353.2
						l1.9,0.6c3.3,1,5.7,2.7,7,4.9c0.3,0.5,0.5,1,0.7,1.5"/>
				</g>
				<path fill="none" stroke="#006738" stroke-width="3" stroke-miterlimit="10" d="M101.5,357.9c-0.1,0-0.2-0.1-0.3-0.1l-5.9-1.7
					v5.8l6.2,1.8"/>
				<g>
					<polyline fill="none" stroke="#006738" stroke-width="3" stroke-miterlimit="10" points="101.5,368.1 95.3,366.3 95.3,373.3 
						101.5,375.1 					"/>
					<path fill="none" stroke="#006738" stroke-width="3" stroke-miterlimit="10" stroke-dasharray="6.8216,3.6732" d="M105.1,375.5
						c0.9-0.4,1.3-1.2,1.3-2.6c0-1.4-0.6-2.5-1.7-3.3c-0.4-0.3-0.9-0.5-1.4-0.8"/>
				</g>
			</g>
		</g>
		<g>
			<g>
				<path fill="none" stroke="#006738" stroke-width="3" stroke-miterlimit="10" stroke-dasharray="14.3099,7.7053" d="M138.8,388.4
					c-2.1,1.4-5,1.6-8.9,0.4c-3.9-1.2-6.9-3.1-8.9-5.7c-2.8-3.3-4.1-7.4-4.1-12.1c0-4.8,1.4-8.1,4.1-9.7c2.1-1.4,5-1.6,8.9-0.5
					c3.9,1.1,6.9,3,8.9,5.7c2.7,3.2,4.1,7.3,4.1,12.1C142.9,383.5,141.6,386.7,138.8,388.4z"/>
				<path fill="none" stroke="#006738" stroke-width="3" stroke-miterlimit="10" stroke-dasharray="11.7616,6.3332" d="M135.3,383.4
					c1.3-1.2,2-3.3,2-6.3c0-3-0.7-5.4-2-7.5c-1.3-2-3.1-3.3-5.4-4c-2.2-0.7-4-0.4-5.4,0.8c-1.3,1.2-2,3.3-2,6.3c0,3,0.7,5.5,2,7.5
					c1.3,2,3.1,3.3,5.4,4C132.2,384.9,134,384.6,135.3,383.4z"/>
			</g>
		</g>
		<g>
			<g>
				<g>
					<polyline fill="none" stroke="#006738" stroke-width="3" stroke-miterlimit="10" points="148.1,373.6 148.1,367.1 153.9,368.8 
						153.9,375.3 					"/>
					<path fill="none" stroke="#006738" stroke-width="3" stroke-miterlimit="10" stroke-dasharray="10.6401,5.7293" d="M153.9,381
						v4c0,1.8,0.2,3.2,0.7,4.2c0.7,1.7,2.2,2.9,4.5,3.5c2.3,0.7,3.8,0.4,4.5-0.9c0.4-0.7,0.7-2,0.7-3.8v-6.9"/>
					<polyline fill="none" stroke="#006738" stroke-width="3" stroke-miterlimit="10" points="164.2,378.3 164.2,371.8 170,373.6 
						170,380.1 					"/>
					<path fill="none" stroke="#006738" stroke-width="3" stroke-miterlimit="10" stroke-dasharray="15.3955,8.2899" d="M170,388.3
						v1.5c0,2.8-0.4,4.9-1.3,6.2c-1.7,2.4-4.9,2.9-9.6,1.5s-7.9-3.8-9.6-7.1c-0.9-1.8-1.3-4.1-1.3-7v-5.6"/>
				</g>
			</g>
		</g>
		<g>
			<g>
				<g>
					<path fill="none" stroke="#006738" stroke-width="3" stroke-miterlimit="10" d="M198.1,390.3c-0.1,0.9-0.4,1.8-0.9,2.6
						c-0.7,1-1.7,1.6-3.2,1.6c1.3,0.9,2.1,1.8,2.7,2.9c0.3,0.7,0.5,1.5,0.7,2.4"/>
					<path fill="none" stroke="#006738" stroke-width="3" stroke-miterlimit="10" d="M197.4,401.6
						C197.4,401.7,197.4,401.7,197.4,401.6l0,1.9c0,1.2,0,2,0.1,2.5c0.1,0.7,0.5,1.3,1,1.8v0.7l-6.3-1.9c-0.2-0.6-0.3-1.1-0.4-1.5
						c-0.1-0.8-0.2-1.6-0.2-2.4l0-2.5c0,0,0-0.1,0-0.1"/>
					<path fill="none" stroke="#006738" stroke-width="3" stroke-miterlimit="10" d="M188.2,395c-0.2-0.1-0.4-0.2-0.7-0.2l-5.5-1.6
						v10.4l-5.5-1.6v-6.5"/>
					<polyline fill="none" stroke="#006738" stroke-width="3" stroke-miterlimit="10" points="176.4,382 176.4,375.5 182.6,377.3 
											"/>
					<path fill="none" stroke="#006738" stroke-width="3" stroke-miterlimit="10" stroke-dasharray="10.7152,5.7697" d="
						M188.2,378.9l1.2,0.4c1.9,0.6,3.3,1.2,4.3,1.9c1,0.7,1.8,1.6,2.5,2.6c0.6,0.8,1,1.7,1.4,2.6c0.1,0.3,0.2,0.6,0.3,0.9"/>
				</g>
				<path fill="none" stroke="#006738" stroke-width="3" stroke-miterlimit="10" d="M188.2,383.5l-6.2-1.8v7.1l6.1,1.8
					c0,0,0.1,0,0.1,0"/>
			</g>
		</g>
		<g>
			<g>
				<g>
					<polyline fill="none" stroke="#006738" stroke-width="3" stroke-miterlimit="10" points="204.3,390.2 204.3,383.7 210.3,385.4 
						213.2,391.3 					"/>
					<polyline fill="none" stroke="#006738" stroke-width="3" stroke-miterlimit="10" points="218.2,401.3 221.1,407.1 221.1,400.6 
											"/>
					<polyline fill="none" stroke="#006738" stroke-width="3" stroke-miterlimit="10" points="221.1,395.1 221.1,388.6 226.4,390.2 
						226.4,396.7 					"/>
					
						<line fill="none" stroke="#006738" stroke-width="3" stroke-miterlimit="10" stroke-dasharray="6.5073,3.5039" x1="226.4" y1="400.2" x2="226.4" y2="408.5"/>
					<polyline fill="none" stroke="#006738" stroke-width="3" stroke-miterlimit="10" points="226.4,410.2 226.4,416.7 220.7,415 
						217.8,409.2 					"/>
					<polyline fill="none" stroke="#006738" stroke-width="3" stroke-miterlimit="10" points="212.5,398.8 209.6,393 209.6,399.5 
											"/>
					<polyline fill="none" stroke="#006738" stroke-width="3" stroke-miterlimit="10" points="209.6,405.2 209.6,411.7 204.3,410.2 
						204.3,403.7 					"/>
				</g>
			</g>
		</g>
		<g>
			<g>
				<g>
					<polyline fill="none" stroke="#006738" stroke-width="3" stroke-miterlimit="10" points="246.4,396.1 252.6,398 252.6,402.7 
						246.4,400.8 					"/>
					<polyline fill="none" stroke="#006738" stroke-width="3" stroke-miterlimit="10" points="244.5,400.2 238.3,398.4 238.3,404 
						244.5,405.9 					"/>
					<polyline fill="none" stroke="#006738" stroke-width="3" stroke-miterlimit="10" points="245.2,406.1 251.5,407.9 251.5,412.6 
						245.2,410.7 					"/>
					<polyline fill="none" stroke="#006738" stroke-width="3" stroke-miterlimit="10" points="244.5,410.5 238.3,408.6 238.3,415.5 
						244.5,417.3 					"/>
					<polyline fill="none" stroke="#006738" stroke-width="3" stroke-miterlimit="10" points="247.1,418.1 253.3,419.9 253.3,424.7 
						247.1,422.8 					"/>
					<polyline fill="none" stroke="#006738" stroke-width="3" stroke-miterlimit="10" points="238.9,420.4 232.7,418.6 232.7,412.1 
											"/>
					
						<line fill="none" stroke="#006738" stroke-width="3" stroke-miterlimit="10" stroke-dasharray="6.5111,3.506" x1="232.7" y1="408.6" x2="232.7" y2="400.3"/>
					<polyline fill="none" stroke="#006738" stroke-width="3" stroke-miterlimit="10" points="232.7,398.6 232.7,392.1 238.9,393.9 
											"/>
				</g>
			</g>
		</g>
		<g>
			<g>
				<g>
					<polyline fill="none" stroke="#006738" stroke-width="3" stroke-miterlimit="10" points="286.4,414.7 288,408.4 296.2,410.8 
						296.2,417.3 					"/>
					
						<line fill="none" stroke="#006738" stroke-width="3" stroke-miterlimit="10" stroke-dasharray="6.5492,3.5265" x1="296.2" y1="420.8" x2="296.2" y2="429.1"/>
					<polyline fill="none" stroke="#006738" stroke-width="3" stroke-miterlimit="10" points="296.2,430.9 296.2,437.4 290.9,435.8 
						290.9,429.3 					"/>
					<path fill="none" stroke="#006738" stroke-width="3" stroke-miterlimit="10" d="M290.9,420v-2.2c0-0.5,0-1.2,0-2.2
						c0-0.9,0-1.6,0-2.2l-1.6,6.3"/>
					<polyline fill="none" stroke="#006738" stroke-width="3" stroke-miterlimit="10" points="287.3,428 285.8,434.3 280.2,432.7 
						278.9,426.3 					"/>
					<path fill="none" stroke="#006738" stroke-width="3" stroke-miterlimit="10" d="M276.5,415.2l-1.4-6.4c0,0.5,0,1.2,0,2.2
						c0,0.9,0,1.7,0,2.2v2.2"/>
					<polyline fill="none" stroke="#006738" stroke-width="3" stroke-miterlimit="10" points="275.2,424.7 275.2,431.2 269.9,429.6 
						269.9,423.1 					"/>
					
						<line fill="none" stroke="#006738" stroke-width="3" stroke-miterlimit="10" stroke-dasharray="6.5334,3.518" x1="269.9" y1="419.6" x2="269.9" y2="411.3"/>
					<polyline fill="none" stroke="#006738" stroke-width="3" stroke-miterlimit="10" points="269.9,409.5 269.9,403 278.1,405.5 
						279.5,411.8 					"/>
					<polyline fill="none" stroke="#006738" stroke-width="3" stroke-miterlimit="10" points="281.7,421.5 283.1,427.8 284.7,421.5 
											"/>
				</g>
			</g>
		</g>
		<g>
			<g>
				<path fill="none" stroke="#006738" stroke-width="3" stroke-miterlimit="10" stroke-dasharray="14.3735,7.7396" d="M323.2,443
					c-2.1,1.5-5,1.6-8.9,0.5c-3.9-1.2-6.9-3.1-8.9-5.7c-2.8-3.4-4.1-7.4-4.1-12.2c0-4.9,1.4-8.1,4.1-9.8c2.1-1.5,5-1.6,8.9-0.5
					c3.9,1.1,6.9,3.1,8.9,5.7c2.7,3.3,4.1,7.3,4.1,12.2C327.3,438.1,325.9,441.3,323.2,443z"/>
				<path fill="none" stroke="#006738" stroke-width="3" stroke-miterlimit="10" stroke-dasharray="11.8206,6.3649" d="M319.7,437.9
					c1.3-1.2,2-3.4,2-6.4c0-3-0.7-5.5-2-7.5c-1.3-2-3.1-3.4-5.4-4c-2.2-0.7-4-0.4-5.4,0.8c-1.3,1.2-2,3.3-2,6.3c0,3,0.7,5.5,2,7.5
					c1.3,2,3.1,3.4,5.4,4C316.5,439.5,318.3,439.2,319.7,437.9z"/>
			</g>
		</g>
		<g>
			<g>
				<g>
					<polyline fill="none" stroke="#006738" stroke-width="3" stroke-miterlimit="10" points="346.4,432.4 348.4,426.2 354.3,428 
						352,434 					"/>
					<polyline fill="none" stroke="#006738" stroke-width="3" stroke-miterlimit="10" points="347.4,445.8 345.1,451.9 339.7,450.3 
						337.7,444.1 					"/>
					
						<line fill="none" stroke="#006738" stroke-width="3" stroke-miterlimit="10" stroke-dasharray="8.557,4.6076" x1="336.4" y1="439.7" x2="333.1" y2="429.3"/>
					<polyline fill="none" stroke="#006738" stroke-width="3" stroke-miterlimit="10" points="332.4,427.1 330.5,420.9 336.6,422.7 
						338.2,429 					"/>
					<polyline fill="none" stroke="#006738" stroke-width="3" stroke-miterlimit="10" points="340.8,438.4 342.5,444.7 344.5,438.5 
											"/>
				</g>
			</g>
		</g>
		<g>
			<g>
				<g>
					<polyline fill="none" stroke="#006738" stroke-width="3" stroke-miterlimit="10" points="372.4,433.3 378.7,435.1 378.7,439.9 
						372.4,438 					"/>
					<polyline fill="none" stroke="#006738" stroke-width="3" stroke-miterlimit="10" points="370.5,437.5 364.3,435.6 364.3,441.3 
						370.5,443.1 					"/>
					<polyline fill="none" stroke="#006738" stroke-width="3" stroke-miterlimit="10" points="371.2,443.3 377.5,445.2 377.5,449.8 
						371.2,448 					"/>
					<polyline fill="none" stroke="#006738" stroke-width="3" stroke-miterlimit="10" points="370.5,447.8 364.3,445.9 364.3,452.8 
						370.5,454.6 					"/>
					<polyline fill="none" stroke="#006738" stroke-width="3" stroke-miterlimit="10" points="373.1,455.4 379.3,457.2 379.3,462 
						373.1,460.2 					"/>
					<polyline fill="none" stroke="#006738" stroke-width="3" stroke-miterlimit="10" points="365,457.8 358.7,455.9 358.7,449.4 
											"/>
					
						<line fill="none" stroke="#006738" stroke-width="3" stroke-miterlimit="10" stroke-dasharray="6.5867,3.5467" x1="358.7" y1="445.9" x2="358.7" y2="437.5"/>
					<polyline fill="none" stroke="#006738" stroke-width="3" stroke-miterlimit="10" points="358.7,435.8 358.7,429.3 365,431.1 
											"/>
				</g>
			</g>
		</g>
		<g>
			<g>
				<g>
					<polyline fill="none" stroke="#006738" stroke-width="3" stroke-miterlimit="10" points="401.1,448.5 402.6,442.2 410.8,444.6 
						410.8,451.1 					"/>
					
						<line fill="none" stroke="#006738" stroke-width="3" stroke-miterlimit="10" stroke-dasharray="6.618,3.5635" x1="410.8" y1="454.7" x2="410.8" y2="463.1"/>
					<polyline fill="none" stroke="#006738" stroke-width="3" stroke-miterlimit="10" points="410.8,464.9 410.8,471.4 405.5,469.8 
						405.5,463.3 					"/>
					<path fill="none" stroke="#006738" stroke-width="3" stroke-miterlimit="10" d="M405.5,453.9v-2.2c0-0.5,0-1.2,0-2.2
						c0-0.9,0-1.7,0-2.2l-1.6,6.3"/>
					<polyline fill="none" stroke="#006738" stroke-width="3" stroke-miterlimit="10" points="402,462 400.4,468.3 394.9,466.7 
						393.5,460.3 					"/>
					<path fill="none" stroke="#006738" stroke-width="3" stroke-miterlimit="10" d="M391.1,449.1l-1.4-6.4c0,0.5,0,1.2,0,2.2
						c0,0.9,0,1.7,0,2.2v2.1"/>
					<polyline fill="none" stroke="#006738" stroke-width="3" stroke-miterlimit="10" points="389.8,458.6 389.8,465.1 384.5,463.6 
						384.5,457.1 					"/>
					
						<line fill="none" stroke="#006738" stroke-width="3" stroke-miterlimit="10" stroke-dasharray="6.6022,3.555" x1="384.5" y1="453.5" x2="384.5" y2="445.1"/>
					<polyline fill="none" stroke="#006738" stroke-width="3" stroke-miterlimit="10" points="384.5,443.4 384.5,436.9 392.8,439.3 
						394.2,445.7 					"/>
					<polyline fill="none" stroke="#006738" stroke-width="3" stroke-miterlimit="10" points="396.3,455.4 397.7,461.8 399.3,455.5 
											"/>
				</g>
			</g>
		</g>
		<g>
			<g>
				<g>
					<polyline fill="none" stroke="#006738" stroke-width="3" stroke-miterlimit="10" points="430.8,450.5 437,452.4 437,457.1 
						430.8,455.3 					"/>
					<polyline fill="none" stroke="#006738" stroke-width="3" stroke-miterlimit="10" points="428.9,454.7 422.7,452.9 422.7,458.5 
						428.9,460.4 					"/>
					<polyline fill="none" stroke="#006738" stroke-width="3" stroke-miterlimit="10" points="429.6,460.6 435.9,462.4 435.9,467.1 
						429.6,465.2 					"/>
					<polyline fill="none" stroke="#006738" stroke-width="3" stroke-miterlimit="10" points="428.9,465 422.7,463.2 422.7,470.1 
						428.9,471.9 					"/>
					<polyline fill="none" stroke="#006738" stroke-width="3" stroke-miterlimit="10" points="431.5,472.7 437.7,474.5 437.7,479.3 
						431.5,477.5 					"/>
					<polyline fill="none" stroke="#006738" stroke-width="3" stroke-miterlimit="10" points="423.3,475.1 417.1,473.2 417.1,466.7 
											"/>
					
						<line fill="none" stroke="#006738" stroke-width="3" stroke-miterlimit="10" stroke-dasharray="6.6217,3.5655" x1="417.1" y1="463.2" x2="417.1" y2="454.8"/>
					<polyline fill="none" stroke="#006738" stroke-width="3" stroke-miterlimit="10" points="417.1,453 417.1,446.5 423.3,448.3 
											"/>
				</g>
			</g>
		</g>
		<g>
			<g>
				<g>
					<polyline fill="none" stroke="#006738" stroke-width="3" stroke-miterlimit="10" points="442.9,460.6 442.9,454.1 448.8,455.8 
						451.7,461.7 					"/>
					<polyline fill="none" stroke="#006738" stroke-width="3" stroke-miterlimit="10" points="456.8,471.9 459.6,477.7 459.6,471.2 
											"/>
					<polyline fill="none" stroke="#006738" stroke-width="3" stroke-miterlimit="10" points="459.6,465.5 459.6,459 464.9,460.6 
						464.9,467.1 					"/>
					
						<line fill="none" stroke="#006738" stroke-width="3" stroke-miterlimit="10" stroke-dasharray="6.6504,3.581" x1="464.9" y1="470.7" x2="464.9" y2="479.1"/>
					<polyline fill="none" stroke="#006738" stroke-width="3" stroke-miterlimit="10" points="464.9,480.9 464.9,487.4 459.3,485.7 
						456.4,479.9 					"/>
					<polyline fill="none" stroke="#006738" stroke-width="3" stroke-miterlimit="10" points="451.1,469.3 448.2,463.4 448.2,469.9 
											"/>
					<polyline fill="none" stroke="#006738" stroke-width="3" stroke-miterlimit="10" points="448.2,475.9 448.2,482.4 442.9,480.9 
						442.9,474.4 					"/>
					
						<line fill="none" stroke="#006738" stroke-width="3" stroke-miterlimit="10" stroke-dasharray="6.6372,3.5739" x1="442.9" y1="470.8" x2="442.9" y2="462.4"/>
				</g>
			</g>
		</g>
		<g>
			<g>
				<g>
					<polyline fill="none" stroke="#006738" stroke-width="3" stroke-miterlimit="10" points="484.6,466.4 490.9,468.2 490.9,473 
						482.7,470.6 482.7,477.1 					"/>
					<polyline fill="none" stroke="#006738" stroke-width="3" stroke-miterlimit="10" points="482.7,486.2 482.7,492.7 477,491 
						477,484.5 					"/>
					<polyline fill="none" stroke="#006738" stroke-width="3" stroke-miterlimit="10" points="477,475.4 477,468.9 468.9,466.5 
						468.9,461.8 475.1,463.6 					"/>
				</g>
			</g>
		</g>
	</g>
</g>
</svg>
