<?xml version="1.0" encoding="utf-8"?>
<!-- Generator: Adobe Illustrator 18.1.1, SVG Export Plug-In . SVG Version: 6.00 Build 0)  -->
<svg version="1.1" id="Layer_1" xmlns="http://www.w3.org/2000/svg" xmlns:xlink="http://www.w3.org/1999/xlink" x="0px" y="0px"
	 viewBox="-445 167 460 460" enable-background="new -445 167 460 460" xml:space="preserve">
<g>
	
		<image overflow="visible" opacity="0.15" enable-background="new    " width="379" height="379" xlink:href="6CBF4BC534314F37.png"  transform="matrix(1.2137 0 0 1.2137 -445 167)">
	</image>
	<g>
		<g>
			<path fill="#2A3A8D" enable-background="new    " d="M-215.5,519.2c-68.5-1-122.7-55.7-122.2-123.7
				C-337.2,328-282,273.8-214,274.3c67.5,0.5,121.6,56.2,120.6,124.2C-93.9,465-149.6,519.7-215.5,519.2z M-215.5,500.8
				c56.7,0.5,103.8-46,104.3-102.7c0.5-58.3-45.5-104.8-103.2-105.3c-57.8-0.5-104.3,46-104.8,103.8
				C-319.8,453.7-273.3,500.2-215.5,500.8z"/>
			<path fill="#2A3A8D" enable-background="new    " d="M-217.6,503.8c-58.9-1.6-106.2-50.5-104.6-109.4
				c1.6-59.4,50-106.2,109.4-104.6s105.7,50.5,104.6,109.9C-109.8,458-159.3,504.8-217.6,503.8z M-172.9,401.7
				c0,0.5-0.5,0.5-1.1,1.1c-2.6-3.2-5.3-6.3-7.9-9.5c-6.3-7.9-12.6-16.3-19.5-24.2c-2.6-3.7-6.3-6.3-10.5-7.4
				c-6.3-1.6-12.6-3.7-18.9-5.3c-2.6-0.5-5.8-0.5-8.4,0c-5.8,1.6-11,3.7-16.8,5.8c-2.1,1.1-3.7,2.6-3.7,5.3
				c-0.5,8.4,7.9,15.2,15.8,12.6c2.1-0.5,4.2-1.6,6.3-2.1c1.1,0,1.6-0.5,2.6-0.5c8.9,2.6,18.4,3.7,22.6,14.2
				c0.5,1.6,2.1,3.2,2.6,4.7c0.5,0.5,0.5,1.6,0.5,2.6c-0.5,4.2-1.6,8.4-2.1,12.6c-0.5,2.1-1.1,3.2-3.7,3.2
				c-9.5,0.5-18.9,0.5-28.4,1.1c-4.7,0.5-8.4-0.5-10-5.3c-0.5-1.1-1.6-2.1-2.1-3.2c-1.1-2.6-3.2-5.3-3.2-8.4c0-5.3,1.1-11,1.6-16.3
				c0.5-3.2-0.5-5.3-3.2-7.4c-3.2-2.6-6.3-3.7-10-3.2c-4.7,0-7.9,3.2-8.4,7.9c-0.5,6.3-1.6,12.1-2.1,18.4c-0.5,5.3,0,10,2.1,14.7
				c8.9,19.5,17.4,38.9,25.8,58.4c3.2,6.8,6.3,13.7,5.3,22.1c0,0.5,1.1,2.1,1.6,2.6c18.4,5.8,36.8,6.3,55.7,1.6
				c1.6-0.5,2.1-1.6,2.1-3.2c0-3.2,0.5-6.3,1.1-9.5c5.3-17.4,10.5-34.2,15.8-51.5c2.1-6.8,3.2-13.7,2.1-20.5
				c-1.1-4.2-1.6-8.9-2.1-13.1c-4.2-21-7.9-42.6-12.1-63.6c-2.1-12.1-4.7-24.2-6.8-36.3c-0.5-3.2-2.6-4.7-5.3-4.7
				c-7.4,0-15.2,8.9-13.7,16.3c3.2,17.9,6.8,35.8,10,53.6c0,1.1,1.1,2.6,1.6,3.7c6.3,7.9,12.6,15.8,18.9,23.7
				C-176.6,395.4-174.5,398.6-172.9,401.7z M-172.9,372.3L-172.9,372.3c1.6-6.8,3.2-14.2,4.2-21c2.1-12.1,4.7-24.2,6.3-36.3
				c0.5-2.1-0.5-4.7-1.6-5.8c-4.2-4.7-15.2-3.2-17.4,2.6c-1.1,3.2-2.1,7.4-1.6,11c1.6,11,4.2,22.1,6.3,33.1
				C-175.6,360.7-174,366.5-172.9,372.3z M-169.8,390.7c0.5,0,0.5,0,1.1,0c5.8-14.2,12.1-28.9,17.4-43.1c0.5-1.1,0.5-3.2-0.5-4.2
				c-2.1-2.6-5.3-2.6-8.4-2.1c-2.6,0.5-4.7,2.1-5.3,5.3c-1.6,10-3.2,20-5.3,30C-171.9,381.2-170.3,386-169.8,390.7z"/>
			<g>
				<path fill="#E9C2A0" stroke="#FFFFFF" stroke-width="4" stroke-miterlimit="10" d="M-179,394.9c-2.2-3.2,6.7,4.5,4.6,1.8
					c-6.5-8.1-17.3-20.6-23.8-28.7c-1.1-1.1-1.6-2.2-1.6-3.8c-3.8-18.4-7.6-36.8-11.4-55.1c-1.6-7.6,5.9-16.8,13.5-17.3
					c2.7,0,4.9,1.6,5.4,4.9c2.7,12.4,5.4,24.9,7.6,36.8c4.3,21.6,9.2,43.3,13.5,64.9c1.1,4.3,1.6,9.2,2.7,13.5
					c1.6,7,0.5,14.6-1.6,21.6c-5.4,17.8-10.3,35.1-15.1,53c-1.1,3.2-1.1,6.5-1.1,9.7c0,1.6-0.5,2.7-2.2,3.2
					c-18.9,4.9-38.4,4.9-57.3-0.5c-0.5,0-2.2-1.6-1.6-2.7c1.1-8.1-2.2-15.1-5.4-22.2c-9.2-20-18.4-40-27.6-59.5
					c-2.2-4.9-3.2-9.7-2.7-15.1c0.5-6.5,1.1-12.4,2.2-18.9c0.5-4.9,3.8-7.6,8.7-8.1c3.8,0,7.6,1.1,10.3,3.2c2.2,2.2,3.8,4.3,3.2,7.6
					c-0.5,5.4-1.6,11.4-1.1,16.8c0,2.7,2.2,5.4,3.8,8.7c0.5,1.1,1.6,2.2,2.2,3.2c2.2,4.9,5.4,5.9,10.3,5.4
					c9.7-1.1,19.5-1.1,29.2-1.6c2.2,0,3.2-1.1,3.8-3.2c0.5-4.3,1.6-8.7,2.2-13c0-0.5,0-1.6-0.5-2.7c-1.1-1.6-2.2-3.2-2.7-4.9
					c-4.3-10.8-14.1-11.9-23.2-14.1c-0.5,0-1.6,0-2.7,0.5c-2.2,0.5-4.3,1.6-6.5,2.2c-8.1,2.7-16.8-3.8-16.2-13
					c0-2.7,1.6-4.3,3.8-5.4c5.4-2.2,11.4-4.3,16.8-5.9c2.7-0.5,5.9-1.1,8.7,0c6.5,1.6,13,3.2,19.5,4.9c4.3,1.1,8.1,3.8,10.8,7.6
					c6.5,8.1,13.5,16.2,20,24.3c2.7,3.2,3.2,3.3,6.5,6.5C-163.9,409.8-179.5,394.9-179,394.9z"/>
				<path fill="#E9C2A0" stroke="#FFFFFF" stroke-width="4" stroke-miterlimit="10" d="M-173.8,370.8c-1.1-5.9-2.2-11.4-3.8-17.3
					c-2.2-11.4-4.9-22.2-7-33.5c-0.5-3.8,0-7.6,1.1-11.4c2.2-5.9,13.5-8.1,17.8-3.2c1.1,1.6,2.2,4.3,1.6,5.9
					c-1.6,12.4-4.3,24.9-5.9,37.8C-171.1,356.7-172.2,363.7-173.8,370.8L-173.8,370.8z"/>
				<path fill="#E9C2A0" stroke="#FFFFFF" stroke-width="4" stroke-miterlimit="10" d="M-170,390.2c-0.5-4.9-2.7-9.7-1.6-15.7
					c2.2-10.3,3.2-20.5,4.9-30.8c0.5-3.2,2.7-4.9,5.4-5.4c3.2-0.5,6.5-1.1,8.7,2.2c0.5,1.1,1.1,3.2,0.5,4.3
					c-5.9,15.1-11.4,29.7-17.3,44.9C-169.5,390.2-169.5,390.2-170,390.2z"/>
			</g>
		</g>
	</g>
</g>
</svg>
