<!-- Generator: Adobe Illustrator 18.0.0, SVG Export Plug-In  -->
<svg version="1.1"
	 xmlns="http://www.w3.org/2000/svg" xmlns:xlink="http://www.w3.org/1999/xlink" xmlns:a="http://ns.adobe.com/AdobeSVGViewerExtensions/3.0/"
	 x="0px" y="0px" width="222.7px" height="107.4px" viewBox="0 0 222.7 107.4" enable-background="new 0 0 222.7 107.4"
	 xml:space="preserve">
<defs>
</defs>
<g id="item_1_">
	<g>
		<g>
			<path fill="#F3F3F3" d="M214.5,0.3l-201,68.1c0,0-5.3,21.4,8.9,39.1c8.2-3,198.9-70.6,198.9-70.6S227.1,21.3,214.5,0.3z"/>
		</g>
		<g>
			<line fill="none" stroke="#010101" stroke-width="2.2652" stroke-miterlimit="10" x1="192.6" y1="23.9" x2="197.8" y2="27.6"/>
			<line fill="none" stroke="#010101" stroke-width="2.2652" stroke-miterlimit="10" x1="182.2" y1="27.4" x2="179.1" y2="34"/>
			<line fill="none" stroke="#010101" stroke-width="2.2652" stroke-miterlimit="10" x1="190.2" y1="36.4" x2="191.4" y2="42.5"/>
		</g>
		<g>
			<line fill="none" stroke="#010101" stroke-width="2.2652" stroke-miterlimit="10" x1="142.8" y1="40.9" x2="148" y2="44.7"/>
			<line fill="none" stroke="#010101" stroke-width="2.2652" stroke-miterlimit="10" x1="132.5" y1="44.4" x2="129.4" y2="51.1"/>
			<line fill="none" stroke="#010101" stroke-width="2.2652" stroke-miterlimit="10" x1="139.1" y1="54" x2="140.4" y2="60.2"/>
		</g>
		<g>
			<line fill="none" stroke="#010101" stroke-width="2.2652" stroke-miterlimit="10" x1="95.2" y1="57.3" x2="100.5" y2="61.1"/>
			<line fill="none" stroke="#010101" stroke-width="2.2652" stroke-miterlimit="10" x1="84.9" y1="60.9" x2="81.9" y2="67.6"/>
			<line fill="none" stroke="#010101" stroke-width="2.2652" stroke-miterlimit="10" x1="92.6" y1="70.3" x2="94" y2="76.6"/>
		</g>
		<g>
			<path fill="#727373" d="M0.5,66.1c0,0-3.3,20,7.1,37.9l15.1,3.3c0,0-14.4-15.2-8.9-39.1C10.2,67.6,0.5,66.1,0.5,66.1z"/>
		</g>
		<g>
			<polygon fill="#A3A2A2" points="215.1,0.1 196.4,0 0.5,66.1 14.1,68.1 			"/>
		</g>
	</g>
</g>
</svg>
