<!-- Generator: Adobe Illustrator 18.0.0, SVG Export Plug-In  -->
<svg version="1.1"
	 xmlns="http://www.w3.org/2000/svg" xmlns:xlink="http://www.w3.org/1999/xlink" xmlns:a="http://ns.adobe.com/AdobeSVGViewerExtensions/3.0/"
	 x="0px" y="0px" width="203.4px" height="98.1px" viewBox="0 0 203.4 98.1" enable-background="new 0 0 203.4 98.1"
	 xml:space="preserve">
<defs>
</defs>
<g id="item_1_">
	<g>
		<g>
			<path fill="#F3F3F3" d="M196,0.2L12.4,62.4c0,0-4.9,19.6,8.2,35.7c7.5-2.7,181.7-64.5,181.7-64.5S207.5,19.4,196,0.2z"/>
		</g>
		<g>
			<line fill="none" stroke="#010101" stroke-width="2.0693" stroke-miterlimit="10" x1="176" y1="21.8" x2="180.7" y2="25.3"/>
			<line fill="none" stroke="#010101" stroke-width="2.0693" stroke-miterlimit="10" x1="166.5" y1="25.1" x2="163.6" y2="31.1"/>
			<line fill="none" stroke="#010101" stroke-width="2.0693" stroke-miterlimit="10" x1="173.8" y1="33.2" x2="174.8" y2="38.8"/>
		</g>
		<g>
			<line fill="none" stroke="#010101" stroke-width="2.0693" stroke-miterlimit="10" x1="130.5" y1="37.3" x2="135.2" y2="40.8"/>
			<line fill="none" stroke="#010101" stroke-width="2.0693" stroke-miterlimit="10" x1="121" y1="40.6" x2="118.2" y2="46.7"/>
			<line fill="none" stroke="#010101" stroke-width="2.0693" stroke-miterlimit="10" x1="127.1" y1="49.4" x2="128.2" y2="55"/>
		</g>
		<g>
			<line fill="none" stroke="#010101" stroke-width="2.0693" stroke-miterlimit="10" x1="87" y1="52.3" x2="91.8" y2="55.9"/>
			<line fill="none" stroke="#010101" stroke-width="2.0693" stroke-miterlimit="10" x1="77.6" y1="55.6" x2="74.8" y2="61.8"/>
			<line fill="none" stroke="#010101" stroke-width="2.0693" stroke-miterlimit="10" x1="84.6" y1="64.2" x2="85.8" y2="70"/>
		</g>
		<g>
			<path fill="#727373" d="M0.5,60.4c0,0-3.1,18.3,6.4,34.6l13.8,3c0,0-13.2-13.9-8.2-35.7C9.3,61.7,0.5,60.4,0.5,60.4z"/>
		</g>
		<g>
			<polygon fill="#A3A2A2" points="196.5,0.1 179.5,0 0.5,60.4 12.9,62.2 			"/>
		</g>
	</g>
</g>
</svg>
