<!-- Generator: Adobe Illustrator 18.0.0, SVG Export Plug-In  -->
<svg version="1.1"
	 xmlns="http://www.w3.org/2000/svg" xmlns:xlink="http://www.w3.org/1999/xlink" xmlns:a="http://ns.adobe.com/AdobeSVGViewerExtensions/3.0/"
	 x="0px" y="0px" width="659.5px" height="494.3px" viewBox="0 0 659.5 494.3" enable-background="new 0 0 659.5 494.3"
	 xml:space="preserve">
<defs>
</defs>
<g id="_x33_D_copy_2">
	<g id="Layer_8_copy_5">
	</g>
	<g id="Layer_5_copy_5">
	</g>
	<g id="Layer_4_copy_5">
		<g>
			<g>
				<g enable-background="new    ">
					<g enable-background="new    ">
						<defs>
							<path id="SVGID_1_" enable-background="new    " d="M9.7,122.8c-1.1-0.1-2.1,0.2-2.9,0.7L186,5.3c0.8-0.6,1.8-0.9,2.9-0.7"/>
						</defs>
						<clipPath id="SVGID_2_">
							<use xlink:href="#SVGID_1_"  overflow="visible"/>
						</clipPath>
						
							<use xlink:href="#SVGID_1_"  overflow="visible" fill="none" stroke="#2B388E" stroke-width="9" stroke-miterlimit="10" stroke-dasharray="13,6"/>
					</g>
					<g enable-background="new    ">
						<defs>
							<path id="SVGID_3_" enable-background="new    " d="M651.1,356.3c0,1.5-0.7,2.8-1.8,3.5L469.2,489.1"/>
						</defs>
						<clipPath id="SVGID_4_">
							<use xlink:href="#SVGID_3_"  overflow="visible"/>
						</clipPath>
						<g clip-path="url(#SVGID_4_)" enable-background="new    ">
							<g>
								<path fill="none" stroke="#2B388E" stroke-width="9" stroke-miterlimit="10" stroke-dasharray="2.8252" d="M469.2,489.1
									c0.8-0.5,1.3-1.3,1.6-2.3"/>
							</g>
							<g>
								<path fill="none" stroke="#2B388E" stroke-width="9" stroke-miterlimit="10" stroke-dasharray="2.8252" d="M650.9,357.6
									c-0.3,0.9-0.8,1.7-1.6,2.3"/>
							</g>
							<g>
								<path fill="none" d="M470.7,486.8"/>
							</g>
						</g>
						
							<use xlink:href="#SVGID_3_"  overflow="visible" fill="none" stroke="#2B388E" stroke-width="9" stroke-miterlimit="10" stroke-dasharray="13,6"/>
					</g>
					<g>
						<g>
							<g>
								<line fill="none" stroke="#2B388E" stroke-width="9" stroke-miterlimit="10" x1="188.9" y1="4.5" x2="195.4" y2="5.1"/>
								
									<line fill="none" stroke="#2B388E" stroke-width="9" stroke-miterlimit="10" stroke-dasharray="13.1093,6.0504" x1="201.4" y1="5.6" x2="637.5" y2="42.5"/>
								<polyline fill="none" stroke="#2B388E" stroke-width="9" stroke-miterlimit="10" points="640.5,42.8 647,43.3 641.7,47.1 
																	"/>
								
									<line fill="none" stroke="#2B388E" stroke-width="9" stroke-miterlimit="10" stroke-dasharray="12.6202,5.8247" x1="637" y1="50.5" x2="474.5" y2="167.1"/>
								<line fill="none" stroke="#2B388E" stroke-width="9" stroke-miterlimit="10" x1="472.1" y1="168.8" x2="466.8" y2="172.6"/>
							</g>
						</g>
					</g>
					<g>
						<g>
							<g>
								<line fill="none" stroke="#2B388E" stroke-width="9" stroke-miterlimit="10" x1="651.6" y1="48.7" x2="651.6" y2="55.2"/>
								
									<line fill="none" stroke="#2B388E" stroke-width="9" stroke-miterlimit="10" stroke-dasharray="13.1618,6.0747" x1="651.6" y1="61.2" x2="651.1" y2="346.7"/>
								<line fill="none" stroke="#2B388E" stroke-width="9" stroke-miterlimit="10" x1="651.1" y1="349.8" x2="651.1" y2="356.3"/>
							</g>
						</g>
					</g>
					<g>
						<g>
							<path fill="none" stroke="#2B388E" stroke-width="9" stroke-miterlimit="10" stroke-dasharray="13.055,6.0254" d="
								M466.8,172.6c2.6,0.3,4.7,2.7,4.7,5.3l-0.6,307.6c0,2.6-2.1,4.6-4.7,4.3L9.2,440c-2.6-0.3-4.7-2.7-4.7-5.3l0.6-307.6
								c0-2.7,2.1-4.6,4.7-4.3L466.8,172.6z"/>
						</g>
					</g>
					<g>
						<path fill="none" stroke="#2B388E" stroke-width="9" stroke-miterlimit="10" stroke-dasharray="7.7015" d="M647,43.3
							c2.6,0.3,4.7,2.7,4.7,5.3"/>
					</g>
				</g>
			</g>
			<g>
				<g>
					<g>
						<g>
							<polyline fill="none" stroke="#2B388E" stroke-width="9" stroke-miterlimit="10" points="221.7,176.9 221.7,170.4 
								215.3,169.7 							"/>
							
								<line fill="none" stroke="#2B388E" stroke-width="9" stroke-miterlimit="10" stroke-dasharray="13.4558,6.2104" x1="209.1" y1="169" x2="36.3" y2="150.1"/>
							<polyline fill="none" stroke="#2B388E" stroke-width="9" stroke-miterlimit="10" points="33.2,149.7 26.7,149 26.7,155.5 
															"/>
							
								<line fill="none" stroke="#2B388E" stroke-width="9" stroke-miterlimit="10" stroke-dasharray="16.6446,7.6821" x1="26.7" y1="163.2" x2="26.7" y2="183.7"/>
							<polyline fill="none" stroke="#2B388E" stroke-width="9" stroke-miterlimit="10" points="26.7,187.5 26.7,194 33.2,194.7 
															"/>
							
								<line fill="none" stroke="#2B388E" stroke-width="9" stroke-miterlimit="10" stroke-dasharray="13.4558,6.2104" x1="39.3" y1="195.4" x2="212.2" y2="214.4"/>
							<polyline fill="none" stroke="#2B388E" stroke-width="9" stroke-miterlimit="10" points="215.3,214.7 221.7,215.4 
								221.7,208.9 							"/>
							
								<line fill="none" stroke="#2B388E" stroke-width="9" stroke-miterlimit="10" stroke-dasharray="16.6446,7.6821" x1="221.7" y1="201.2" x2="221.7" y2="180.7"/>
						</g>
					</g>
				</g>
			</g>
			<g>
				<path fill="none" stroke="#2B388E" stroke-width="9" stroke-miterlimit="10" stroke-dasharray="13.4237,6.1955" d="M425.1,355.3
					c0,17.5-13.7,30.7-30.6,29.5c-16.9-1.3-30.6-16.5-30.6-34s13.7-30.7,30.6-29.5C411.3,322.5,425.1,337.8,425.1,355.3z"/>
			</g>
			<g>
				<path fill="none" stroke="#2B388E" stroke-width="9" stroke-miterlimit="10" stroke-dasharray="13.2139,6.0987" d="M441.3,293.7
					l-33.2-2.5c-5.5-0.4-10-5.2-10-10.7v-74.4c0-11,9-19.3,20-18.5l13.2,1c11,0.8,20,10.4,20,21.5v74.4
					C451.3,290,446.9,294.1,441.3,293.7z"/>
			</g>
		</g>
	</g>
</g>
</svg>
