<!-- Generator: Adobe Illustrator 18.0.0, SVG Export Plug-In  -->
<svg version="1.1"
	 xmlns="http://www.w3.org/2000/svg" xmlns:xlink="http://www.w3.org/1999/xlink" xmlns:a="http://ns.adobe.com/AdobeSVGViewerExtensions/3.0/"
	 x="0px" y="0px" width="523.2px" height="404.7px" viewBox="0 0 523.2 404.7" enable-background="new 0 0 523.2 404.7"
	 xml:space="preserve">
<defs>
</defs>
<g>
	<g>
		<g>
			<path fill="#E9C2A0" d="M127.9,205.1L474,98.3c0,0,36.6-22.1,21.6-57.5c-14.8-35.9-56.8-27.5-56.8-27.5L58.2,112.5L127.9,205.1z"
				/>
			<g>
				<path fill="#FFFFFF" d="M129.1,209.5c35.3-10.9,70.6-21.8,106-32.7c60.1-18.5,120.2-37.1,180.3-55.6c17.8-5.5,35.7-11,53.5-16.5
					c2.5-0.8,5.7-1.3,8-2.7c11-7.1,20-17.7,24.6-30c7.2-19.4-1.9-42-17.8-54.1c-11.4-8.6-27-11-40.9-9.7c-8.7,0.9-17.4,3.9-25.8,6.1
					C364,28.1,311.2,41.9,258.4,55.6C202.2,70.3,146.1,84.9,89.9,99.5c-11,2.9-21.9,5.7-32.9,8.6c-2.6,0.7-4.5,4.3-2.7,6.7
					c23.2,30.9,46.5,61.7,69.7,92.6c3.5,4.6,11.4,0.1,7.9-4.6c-23.2-30.9-46.5-61.7-69.7-92.6c-0.9,2.2-1.8,4.5-2.7,6.7
					c33.8-8.8,67.5-17.6,101.3-26.4c61.9-16.1,123.9-32.3,185.8-48.4c23.1-6,46.2-12,69.3-18.1c8.4-2.2,17.1-5.3,25.7-6.6
					c-1.3,0.2,1.2-0.1,1.6-0.2c1.1-0.1,2.3-0.2,3.4-0.2c3.2-0.2,6.4,0,9.7,0.3c7.8,0.7,15.4,3.4,21.9,7.8
					c17.1,11.6,21,35.6,10.4,52.6c-3.4,5.4-8.2,10.4-13.2,14.2c-1.1,0.8-2.2,1.6-3.4,2.4c-0.5,0.3,1.7-0.6,0.5-0.2
					c-3.9,1.2-7.8,2.4-11.7,3.6c-50.2,15.5-100.3,30.9-150.5,46.4c-54,16.6-107.9,33.3-161.9,49.9c-7.2,2.2-14.5,4.5-21.7,6.7
					C121.1,202.4,123.5,211.2,129.1,209.5z"/>
			</g>
		</g>
	</g>
	<g id="housewife_1_">
		<defs>
			
				<rect id="SVGID_1_" x="400.4" y="-11.6" transform="matrix(0.2459 0.9693 -0.9693 0.2459 392.1875 -385.2672)" width="86.6" height="142"/>
		</defs>
		<clipPath id="SVGID_2_">
			<use xlink:href="#SVGID_1_"  overflow="visible"/>
		</clipPath>
		<g clip-path="url(#SVGID_2_)">
			<path fill="#E8C19F" d="M324.6,134.3l-1.3-4.8l157.7-40c0,0,40-10.6,30.7-47.5c-9.9-39-49.3-25.9-49.3-25.9L339.6,47.4
				c-4.6,25.7-35.3,30.4-62.1,37.2l-62.4,15.8C217.8,227.8,70.6,202,100.9,204.1c86.4,6,118.2-56,114.3-103.7l89.7-22.8
				c0,0,43.6-8.5,33.8-47.1C331-0.1,302.3,2.7,290,5.9c-19.7,5-120.8,35.5-165.6,55.2C6.3,113.1-15.1,193.9,8.5,287.1
				c34.2,134.7,177.5,131.7,309,98.3c41.8-10.6,79.4-19,129.8-31.8"/>
		</g>
		<path clip-path="url(#SVGID_2_)" fill="#754D29" d="M478.7,90c-8.3-26.2,4.7-49.3,4.7-49.3c-20.7-9.1-21.2-17.8-22.1-24.5
			c27.8-7,44.7,0.2,51.3,26.1c4.7,18.4-4.8,30.6-11.9,36.4C494,84.3,488.4,87.7,478.7,90z"/>
		<g clip-path="url(#SVGID_2_)">
			<defs>
				
					<rect id="SVGID_3_" x="469.2" y="78.5" transform="matrix(0.3005 0.9538 -0.9538 0.3005 423.9654 -385.8186)" width="11.6" height="35.2"/>
			</defs>
			<clipPath id="SVGID_4_">
				<use xlink:href="#SVGID_3_"  overflow="visible"/>
			</clipPath>
			<circle clip-path="url(#SVGID_4_)" fill="#754D29" cx="473.6" cy="87.9" r="8.7"/>
		</g>
		<g clip-path="url(#SVGID_2_)">
			<defs>
				
					<rect id="SVGID_5_" x="447.9" y="-5.4" transform="matrix(-0.1905 -0.9817 0.9817 -0.1905 528.187 459.9668)" width="11.6" height="35.2"/>
			</defs>
			<clipPath id="SVGID_6_">
				<use xlink:href="#SVGID_5_"  overflow="visible"/>
			</clipPath>
			<circle clip-path="url(#SVGID_6_)" fill="#754D29" cx="456.4" cy="20.1" r="8.7"/>
		</g>
		<path clip-path="url(#SVGID_2_)" fill="#FFFFFF" d="M477.8,14c0,0,19.5,30.3,17.5,68.8c0,0,11.9-28.9,17.3-40.5L477.8,14z"/>
		<path clip-path="url(#SVGID_2_)" fill="#FFFFFF" d="M410.5,39c-3-0.2-6.1,0-9.2,0.8c-15.5,3.9-24.8,20.1-20.7,36.1
			s19.9,25.8,35.5,21.9c3.1-0.8,5.9-2,8.4-3.7C412.3,72.2,410.5,50,410.5,39z"/>
		<path clip-path="url(#SVGID_2_)" fill="none" stroke="#FFFFFF" stroke-width="1.5492" stroke-miterlimit="10" d="M411.2,30.4
			c0,0-4.7,37.6,19,70.8"/>
		<path display="none" clip-path="url(#SVGID_2_)" d="M444.7,74.9c-1.6-1-3.3-2.4-4.8-4.1c-0.9,0.3-1.7,0.9-2.4,1.7
			c-1.7,2.1-1.7,4.8,0,6.1c1.6,1.3,4.3,0.7,6-1.3C444.2,76.6,444.6,75.8,444.7,74.9z"/>
		<path clip-path="url(#SVGID_2_)" fill="none" stroke="#231F20" stroke-width="1.5492" stroke-miterlimit="10" d="M443.3,35.6
			c0,0-13.4,9.1-9.1,25.9c4.3,16.8,20.3,18.3,20.3,18.3"/>
		<path clip-path="url(#SVGID_2_)" fill="none" stroke="#231F20" stroke-width="1.5492" stroke-miterlimit="10" d="M443.3,35.6
			c0,0-13.4,9.1-9.1,25.9c4.3,16.8,20.3,18.3,20.3,18.3"/>
		<circle clip-path="url(#SVGID_2_)" fill="#231F20" cx="472.5" cy="69.8" r="3.3"/>
		<circle clip-path="url(#SVGID_2_)" fill="#FFFFFF" cx="473.3" cy="68.6" r="1.3"/>
		<circle clip-path="url(#SVGID_2_)" fill="#231F20" cx="464.6" cy="38.6" r="3.3"/>
		<circle clip-path="url(#SVGID_2_)" fill="#FFFFFF" cx="465.3" cy="37.4" r="1.3"/>
	</g>
</g>
</svg>
