<!-- Generator: Adobe Illustrator 18.0.0, SVG Export Plug-In  -->
<svg version="1.1"
	 xmlns="http://www.w3.org/2000/svg" xmlns:xlink="http://www.w3.org/1999/xlink" xmlns:a="http://ns.adobe.com/AdobeSVGViewerExtensions/3.0/"
	 x="0px" y="0px" width="212.9px" height="118.7px" viewBox="0 0 212.9 118.7" enable-background="new 0 0 212.9 118.7"
	 xml:space="preserve">
<defs>
</defs>
<path id="item_1_" fill="none" stroke="#E4BE22" stroke-width="3" stroke-miterlimit="10" stroke-dasharray="11.129,4.7696" d="
	M2.2,117.2h10.7c0,0,21.4-46.8,9.4-84.5c-2.6-6.1-5.7-19.2,3.6-21.2s8.1,9.2,6.3,18.6c-1.8,9.4-17.1,56.5,15.3,56.5
	c9.7,0,27.8-4.7,11.7-57.2c-0.8-3.3-2.5-12.8,6.4-14c8.9-1.1,9.2,7,7.6,11.4s-23,59.4,14.5,59.4c9.7,0,32.4-8.7,12.2-60.2
	c-2.3-6.6-1.8-10.3,6.1-10.6c7.9-0.4,8.9,4.5,7.1,9.3C112.2,28,95.6,86.9,129,87.1c31.4,0.2,16.8-42.1,12-59.2
	c-0.5-3.6-1.5-11.7,3.8-11.5c5.4,0.3,8.2,2.8,7.1,8.9c-1,6.1-11.7,61,12.2,61.5c24,0.5,27.5-19.9,14.3-54.3
	c-1.5-3.8-5.9-15.9,7.6-17.2s6.4,15.6,5.4,18.1c-1,2.6-13.3,40.8,6.6,83.8c5.1,0,12.2,0,12.2,0s-20.7-38.6-7.1-83.5
	c3.3-7.9,9.2-28.9-16.8-31.4S168,34.3,171.1,48.1c3.1,13.8,4.3,25.4-1.8,25.6c-6.1,0.3-13-1.9-6.6-26.3C169,22.9,167,4.1,145.6,4.5
	c-25.5,0.5-19.4,25-14.3,43.1c5.1,18.1,2.8,22.4-2.3,22.7c-5.1,0.3-14.2-6.6-7.7-25.5C127.9,25.6,131.8,5,106.3,4
	c-24.2-1-19.4,25.3-16.1,38.8s7.7,28.6-1.3,28.6S72.1,68,81.8,42.2S86.1,3.5,68,3.7S44.3,18.8,51.7,40.4s5.6,33.7-4.1,33.7
	s-12.5-12.5-4.1-35.2S46.1,0.6,27.7,1.5S7.3,12,11.1,36.7S20.3,72.2,2.2,117.2z"/>
</svg>
