<!-- Generator: Adobe Illustrator 18.1.1, SVG Export Plug-In  -->
<svg version="1.1"
	 xmlns="http://www.w3.org/2000/svg" xmlns:xlink="http://www.w3.org/1999/xlink" xmlns:a="http://ns.adobe.com/AdobeSVGViewerExtensions/3.0/"
	 x="0px" y="0px" width="406.6px" height="519.2px" viewBox="0 0 406.6 519.2" enable-background="new 0 0 406.6 519.2"
	 xml:space="preserve">
<defs>
</defs>
<g>
	<rect x="167.6" y="317" fill="#4C4C41" width="57.9" height="9.8"/>
	<rect x="167.6" y="176.3" fill="#9E9B8B" width="63.4" height="148.8"/>
	<polygon fill="#333333" points="365.7,435.8 297.3,432.2 292.2,439.5 291.4,465 368.7,477.8 	"/>
	<path fill="#4A4940" d="M147.9,518.1l256-27.8c1.5-0.2,2.7-1.5,2.7-3V481L0.1,466.3l0,9.2l20.2,19.6L77.9,512
		C100.6,518.6,124.4,520.7,147.9,518.1z"/>
	<path fill="#595851" d="M384.8,474.5l19.7,4.2c2.9,0.6,2.6,4.8-0.3,5.1l-272.5,26.5c-14.5,1.4-29.1,0.1-43-3.9l-64-18.2
		c-2.9-0.8-5.5-2.2-7.7-4.2L0.3,467.3c-0.7-0.7-0.3-1.9,0.7-2l45.2-3.5l274.3-2.7L384.8,474.5z"/>
	<rect x="147.8" y="406.3" fill="#20201D" width="91.9" height="11"/>
	<path fill="#BFBEAC" d="M152,434.7h-38.7c-3.7,0-6.7-3-6.7-6.8l0,0c0-3.7,3-6.8,6.7-6.8H152c3.7,0,6.7,3,6.7,6.8l0,0
		C158.8,431.7,155.8,434.7,152,434.7z"/>
	<path fill="#AFB2A3" d="M311.5,202.2c0,0-15.3-0.2-20.2,1c-5.3,1.3-23.3,7.2-23.3,7.2l43.5,2V202.2z"/>
	<polygon fill="#E5E5DC" points="155.8,184.4 146,180.2 139.1,174 136.3,170 133.8,157.3 131.3,143.7 129.3,129 128.5,116.8 
		129.3,91.3 130.5,86.8 137.6,82.2 144.6,79 152.1,75.6 167.6,62.8 167.6,184.4 	"/>
	<path fill="#AEAC9D" d="M188,188.1c14.6,6.4,31.8,4.2,43.9-6.2c1.2-1.1,2.4-2.2,3.3-3.3c4.3-5.1,8.1-16.5,10.4-24.5
		c1.5-5.3,2.3-10.9,2.3-16.4v-30.4c0-28.9-23.5-52.4-52.4-52.4h-3.8c-22.7,0-41.2,18.4-41.2,41.2v34.9
		C150.5,156.4,166,178.4,188,188.1z"/>
	<path fill="#040404" d="M340,464.3c-2.1,1.5-7.5,3.1-10,2.5c-2.5-0.6-5.6-5.3-7.7-6.8c-2-1.5-7.4-2.8-8.7-5
		c-1.7-2.9-1.5-10.4,0-13.3c0.9-1.7,4.5-4,6.3-4.6c5.3-1.7,22.3,0,22.3,0l9.5,9.2C351.8,446.3,344.4,461.2,340,464.3z"/>
	<path fill="#A8A696" d="M167.6,486.3V430l-83.9-2.9c-4.8-0.2-8.8,3.8-8.6,8.6l0,0l-0.3,25.8L167.6,486.3z"/>
	<path fill="#C9C8B6" d="M125,449l-53.9-12.1c-3.6-0.8-7.4-1-11.1-0.5h0c-3.3,0.4-6.5,1.8-9.1,3.9h0l46,8.7H125z"/>
	<path fill="#9F9F8D" d="M100.6,504L42.3,488l2.9-35.9c0.2-6.8,5.8-12,5.8-12l0,0l45.9,9c3.8,1.9,6.4,8.9,6.3,14.3L100.6,504z"/>
	<path fill="#151513" d="M269.7,408h4.3c1.1,0,1.9,0.8,2,1.9l0.9,12.5h-10l0.9-12.5C267.7,408.8,268.6,408,269.7,408z"/>
	<rect x="269.6" y="422.3" fill="#151513" width="4.4" height="6"/>
	<path fill="#20201D" d="M145.8,424.8h-13.3c0,0-3.6-11.7-4.3-15.8c-0.6-3.3-1-9.9-1.2-13.2c-0.3-7.8,0-31.3,0-31.3l0,0
		c7.7-4.7,17.4-4.4,24.8,0.8l0.3,0.2v32.2l-3,11.7L145.8,424.8z"/>
	<path fill="#E2E2E0" d="M126.9,370.5v-6c7.7-4.7,17.4-4.4,24.8,0.8l0.3,0.2v6l-0.3-0.2C144.3,366.2,134.6,365.9,126.9,370.5z"/>
	<path fill="#E2E2E0" d="M145.8,429l3.2-19.1l0,0c-5.7-5.7-15-5.7-20.7,0v0l4.2,19.1H145.8z"/>
	<path fill="#9A9A89" d="M167.6,431.5c12.4,1,37.3,0.8,49.7,0c6.4-0.4,25.5-3.2,25.5-3.2v-13.2c0-0.6-0.5-1.1-1.1-1
		c-6.6,0.6-40.5,2.1-52.9,2.1c-18.8,0-42-5.2-42-5.2l-1,18C145.8,429,162.1,431.1,167.6,431.5z"/>
	<path fill="#BFBEAC" d="M146.8,408.5c0,0,20.5,5.7,44.5,5.7c37.2,0,51.5-4.7,51.5-4.7v-72.8h-96V408.5z"/>
	<polygon fill="#AFAEA0" points="146.8,336.8 242.8,336.8 234.3,326.8 155.3,326.8 	"/>
	
		<ellipse transform="matrix(-0.8802 0.4745 -0.4745 -0.8802 407.7281 19.1138)" fill="#6F7162" cx="201.5" cy="61" rx="1.6" ry="2.5"/>
	
		<ellipse transform="matrix(-0.8802 0.4745 -0.4745 -0.8802 420.6544 13.8515)" fill="#FFFFF0" cx="208.6" cy="60" rx="1.6" ry="2.5"/>
	
		<ellipse transform="matrix(-0.8802 0.4745 -0.4745 -0.8802 436.0607 15.4612)" fill="#6F7162" cx="216.1" cy="62.8" rx="1.6" ry="2.5"/>
	<path fill="#121210" d="M234,125.5c-2.9,1.5-12.5,1.3-15.2,0c-4.9-2.4-10.3-9.5-14-14c-1-1.2-3.3-4.2-4.8-4.9l-9.6-4.1
		c-1.9-0.8-2.2-3.4-0.4-4.5l9.5-5.9c1.3-0.8,2.4-2,3.2-3.3c2.3-3.8,6.5-9.9,9.9-11.6c4.6-2.3,16.9-2.3,21.5,0
		c4.7,2.4,24.7,2.5,27.5,17.5C262.8,101.5,241.3,121.8,234,125.5z"/>
	<path fill="#F30043" d="M231.5,94.1c1.5,8.5,6,15.7,13.5,15.7s14.2-10.1,11.9-18.4c-2.1-7.7-3.7-11.4-10-13.8
		C237.9,74.1,229.5,82.7,231.5,94.1z"/>
	<path fill="#595750" d="M363.5,229.7c0,0-23.2,5.3-81.3,5.3s-90.5-6.3-90.5-6.3l-0.7-32.8h54.3c0,0,18.2,12.3,34.8,12.3
		c16.7,0,30.2-7.5,30.2-7.5l51.4,5c1,0.1,1.8,1,1.8,2V229.7z"/>
	<path fill="#3F3F37" d="M364.8,427.3l-51.6-6c-12.2-1.4-22.8,8.1-22.8,20.4v0v24.6l4.3,1.8l0-25.3c-0.2-4.5,3.8-8.2,8.3-7.6
		l55.1,6.6V483l26.7-4l-1.8-31.5C382.8,437.1,375,428.5,364.8,427.3z"/>
	<path fill="#6B6A5D" d="M345,484.7h13.7c2.8,0,5-2.2,5-5V452c0-1.7-1.3-3-3-3H343c-1.7,0-3,1.3-3,3v27.7
		C340,482.4,342.2,484.7,345,484.7z"/>
	<path fill="#6F7063" d="M299.3,426.1L299.3,426.1c5.8-3.3,12.6-4.6,19.2-3.7l45.2,6h0c-5.8,3.3-12.6,4.6-19.2,3.7L299.3,426.1z"/>
	<rect x="342.3" y="49.1" fill="#544E46" width="17.7" height="399.9"/>
	<path fill="#72695B" d="M317.7,443.4l-4.1-1.7L125,455.3l2,17.3L320.6,459h0C325.5,454.3,324,446.1,317.7,443.4z"/>
	<path fill="#3F3E39" d="M329.1,54.7c-4-0.6-11.4-4.2-15.2-5.6c-8.1-2.9-24.7-6.9-33-8.9c-7.5-1.8-22.4-5.2-30-6.5
		c-6.9-1.2-20.8-2.9-27.8-3.5c-4.1-0.4-12.3-1.1-16.4-1.2c-3.9-0.1-11.6-0.3-15.5,0c-3.7,0.3-11.1,2.9-14.8,2.5
		c-3.5-0.3-13.3-4.9-13.3-4.9V3.8l179.2,45.3V54C342.3,54,332.4,55.2,329.1,54.7z"/>
	<path fill="#666457" d="M133.3,502l-32.7,1.9l3-40L97,449h28l2.5,5.3c2.8,6,4.3,12.4,4.6,18.9L133.3,502z"/>
	<path fill="#89897C" d="M167.6,486.3l128.7-9.3l-7.3-38.2c-1.2-6.3-6.5-11-12.9-11.4l-39.1-2.6l-69.4,5.2V486.3z"/>
	<rect x="167.6" y="23" fill="#544E46" width="17.7" height="438.8"/>
	<path fill="#6B6A5D" d="M169.6,502h13.7c2.8,0,5-2.2,5-5v-34.2c0-1.7-1.3-3-3-3h-17.7c-1.7,0-3,1.3-3,3V497
		C164.6,499.7,166.9,502,169.6,502z"/>
	<path fill="#242421" d="M160.3,342h31.3c0,0,4.1-27.9,4.7-37.3c1.3-20.1,0.3-80.7,0.3-80.7h-42.3c0,0,0.7,60.5,2,80.7
		C156.9,314,160.3,342,160.3,342z"/>
	<path fill="#D6D5C3" d="M186.3,146.3h-24.2c-2.7,0-4.9,2.1-5,4.8l-2.8,72.9H197l-5.6-73.1C191.1,148.3,188.9,146.3,186.3,146.3z"/>
	<g>
		<path fill="#5B5A51" d="M362.3,51.3V33.7c0,0-22.6-8.9-30.3-11.2c-14.2-4.2-43.3-10.5-57.8-13.3c-16-3.1-48.2-8.7-64.5-9.2
			c-11.7-0.3-46.5,3.8-46.5,3.8v22.8l0,0c8.7-1.8,17.8-1.3,26.3,1.4l4.4,2.1c0,0,33-3.4,43.3-2.8c10.7,0.6,31.9,4.7,42.3,7.3
			c12.6,3.2,50,14.4,50,14.4l12.8,4.9c0,0,13.6,0.9,17.7-0.7C360.7,53.1,362.3,51.3,362.3,51.3z"/>
		<path fill="#161615" d="M254.8,5.6c7.4,1.3,14.2,2.5,19.3,3.5c8.5,1.6,21.9,4.5,34.4,7.4c-3.8,8.6-10.1,15.9-18.1,21.1
			c-4.4-1.2-8.2-2.3-10.9-3c-6-1.5-15.6-3.5-24.7-5.1V5.6z"/>
		<path fill="#282727" d="M254.8,5.7v23.9c-6.7-1.1-13.1-2-17.7-2.3c-3.6-0.2-10,0.1-16.8,0.6c-6.5-7.7-10.5-17.4-11-27.9
			c0.1,0,0.2,0,0.3,0C220.7,0.3,239.1,3,254.8,5.7z"/>
	</g>
</g>
</svg>
