<!-- Generator: Adobe Illustrator 18.0.0, SVG Export Plug-In  -->
<svg version="1.1"
	 xmlns="http://www.w3.org/2000/svg" xmlns:xlink="http://www.w3.org/1999/xlink" xmlns:a="http://ns.adobe.com/AdobeSVGViewerExtensions/3.0/"
	 x="0px" y="0px" width="35.6px" height="56.7px" viewBox="0 0 35.6 56.7" enable-background="new 0 0 35.6 56.7"
	 xml:space="preserve">
<defs>
</defs>
<path fill="none" stroke="#1C75BB" stroke-width="1.5" stroke-miterlimit="10" stroke-dasharray="3" d="M29.5,1
	c0.8,1.6,1.7,3.2,2.5,4.8c0.8,1.7,1.7,3.5,2.4,5.2c0.3,0.7,0.3,1.6,0.4,2.4c0.1,0.7,0,1.5,0,2.2c0,0,0,0,0,0c0,0.9,0,1.9,0,2.8
	c0,0.9-0.4,1.2-1.4,1.4c-0.6,0.1-0.5,0.1-0.6,0.6c-0.2,1.4-0.4,2.9-0.6,4.3c-0.3,1.9-0.5,3.8-0.8,5.7c-0.2,1.7-0.5,3.4-0.8,5.1
	c-0.3,1.7-0.5,3.4-0.8,5.1c-0.2,1.5-0.5,3.1-0.8,4.6c-0.2,1.2-0.4,2.3-0.6,3.5 M26.6,0.4 M4.7,0.5 M1.6,6 M28.4,49.7
	c-0.4,3.3-1,3.9-2,4.3c-0.3,0.1-0.7,0.2-1.1,0.3c-2.2,0.3-4.3,0.7-6.5,0.9c-3.2,0.3-6.4,0.5-9.5,0.7c-1.5,0.1-2.4-0.6-2.6-2
	c-0.1-0.8-0.1-1.5-0.2-2.3c-0.2-1.1-0.4-2.3-0.6-3.4c-0.3-1.8-0.5-3.5-0.8-5.3c-0.2-1.4-0.4-2.8-0.6-4.2c-0.3-2-0.5-4.1-0.8-6.1
	c-0.2-1.5-0.4-3.1-0.6-4.6c-0.3-2.2-0.5-4.3-0.8-6.5c0-0.3-0.1-0.7-0.1-1c0-0.1-0.1-0.2-0.1-0.3c-0.6-0.5-0.7-1.2-0.9-1.9
	c-0.6-2.4-0.4-4.8-0.3-7.3 M17.7,15.3 M26.9,14.2c0.8-0.2,1.6-0.7,1.7-1.5c0.2-0.7,0.1-1.5,0.1-2.3c0-0.7-0.2-1.3-0.3-2
	c-0.1-0.8-0.2-1.5-0.4-2.3c-0.1-0.8-0.3-1.6-0.5-2.3c-0.2-0.9-0.3-1.7-0.5-2.6c-0.1-0.4-0.3-0.5-0.8-0.5c-3.9,0-7.7,0.1-11.6,0.1
	C12,0.9,9.2,0.9,6.3,1C5.8,1,5.8,1,5.9,1.4C6,1.7,6,2,6,2.3c0.2,1.6,0.4,3.2,0.6,4.7c0.2,1.6,0.4,3.1,0.6,4.7c0.1,0.7,0.4,1.3,1,1.8
	c1,0.8,2.2,1.3,3.5,1.4 M22.7,15 M3.2,2.1C2.4,3.7,2,5.5,1.7,7.2c-0.4,2.5-0.5,5-0.6,7.5c0,1.5,0.2,3,0.7,4.4c0.2,0.5,0.5,0.8,1,1.1
	c0.8,0.4,1.7,0.4,2.5,0.4 M3.4,2.3 M34.2,18.4c0-1.5,0-2.9,0-4.4c0-0.1,0-0.2,0-0.2c-0.4,0.3-0.8,0.8-1.3,1
	c-1.1,0.5-2.2,0.9-3.3,1.3c-2.3,0.8-4.7,1.2-7.2,1.4c-2.5,0.2-5,0.2-7.5,0c-1-0.1-2.1-0.2-3.1-0.4c-1.5-0.2-2.9-0.6-4.4-0.9
	c-1-0.2-1.9-0.6-2.8-1.1c-1.1-0.7-1.9-1.6-2.1-2.9 M24.2,20.6 M25.4,53.8c0.8-0.1,1.4-0.6,1.6-1.3c0.2-0.6,0.2-1.1,0.3-1.7
	c0-0.2,0-0.3,0-0.5c-0.3,0.1-0.4,0.2-0.6,0.2c-1.8,0.3-3.6,0.6-5.3,0.8c-2.8,0.3-5.6,0.6-8.4,0.9c-1.6,0.1-3.1,0.2-4.7,0.2
	c-0.3,0-0.3,0.1-0.3,0.3c0.1,0.7,0.1,1.4,0.2,2.1c0.1,0.8,0.1,0.8,1,0.8c1.9-0.1,3.8-0.2,5.6-0.4 M7,52c0.1,0.9,0.2,1.7,0.3,2.5
	c0.1,0.3,0.3,0.6,0.7,0.7c0-0.2,0-0.3,0-0.5c-0.1-0.6-0.1-1.3-0.2-1.9C7.8,52.3,7.8,52.2,7,52z M10,14.8 M5.7,1.1"/>
</svg>
