<!-- Generator: Adobe Illustrator 18.0.0, SVG Export Plug-In  -->
<svg version="1.1"
	 xmlns="http://www.w3.org/2000/svg" xmlns:xlink="http://www.w3.org/1999/xlink" xmlns:a="http://ns.adobe.com/AdobeSVGViewerExtensions/3.0/"
	 x="0px" y="0px" width="221.3px" height="67.7px" viewBox="0 0 221.3 67.7" enable-background="new 0 0 221.3 67.7"
	 xml:space="preserve">
<defs>
</defs>
<path fill="#2A3A8D" stroke="#2A3A8D" stroke-width="9.2976" stroke-miterlimit="10" d="M110.7,20.7c-11.5,0.3-22.7,1.8-33.8,4.9
	c-14.3,4-27.6,10.3-39.9,19c-6.5,4.6-12.5,9.7-18.1,15.5c-3.3,3.4-7.4,4-10.8,1.5c-3.9-2.8-4.6-8.8-1.2-12.3
	c3.6-3.7,7.3-7.2,11.2-10.5c7.1-6.2,14.9-11.4,23.1-16c7.3-4.1,14.9-7.5,22.8-10.2c9.2-3.2,18.7-5.4,28.4-6.7
	c8.4-1.1,16.9-1.4,25.3-1c7.8,0.4,15.6,1.4,23.3,3.1c13.5,2.9,26.3,7.7,38.5,14.3c12.4,6.8,23.6,15.2,33.6,25.3
	c1.5,1.5,2.9,3.1,3.4,5.4c0.7,3.2-0.7,6.7-3.4,8.5c-2.7,1.8-6.5,1.8-8.9-0.2c-2.1-1.8-4.1-3.9-6.1-5.8
	c-10.5-9.8-22.2-17.5-35.2-23.3c-11.5-5.1-23.4-8.6-35.8-10C121.6,21.5,116.1,21.2,110.7,20.7z"/>
</svg>
