<!-- Generator: Adobe Illustrator 18.0.0, SVG Export Plug-In  -->
<svg version="1.1"
	 xmlns="http://www.w3.org/2000/svg" xmlns:xlink="http://www.w3.org/1999/xlink" xmlns:a="http://ns.adobe.com/AdobeSVGViewerExtensions/3.0/"
	 x="0px" y="0px" width="838.6px" height="194.8px" viewBox="0 0 838.6 194.8" enable-background="new 0 0 838.6 194.8"
	 xml:space="preserve">
<defs>
</defs>
<g>
	<g>
		<g>
			<path fill="#D45571" d="M0.1,30.8l7-18.1c0.3-0.6,0.7-0.9,1.3-0.9c0.6,0,1.1,0.3,1.3,0.9l7.1,18.2C17,31,17,31.2,17,31.4
				c0,0.4-0.1,0.7-0.4,1c-0.3,0.3-0.6,0.4-1,0.4s-0.7-0.1-1-0.4c-0.1-0.1-0.2-0.3-0.3-0.4l-2.4-6.3H5.1l-2.5,6.3
				c-0.1,0.2-0.2,0.3-0.3,0.4c-0.3,0.3-0.6,0.4-1,0.4s-0.7-0.1-1-0.4c-0.3-0.3-0.4-0.6-0.4-1C0,31.2,0,31,0.1,30.8z M10.8,22.9
				L8.5,17l-2.3,5.9H10.8z"/>
			<path fill="#D45571" d="M39.9,31.4c0,0.4-0.1,0.7-0.4,1c-0.3,0.3-0.6,0.4-1,0.4c-0.4,0-0.7-0.1-1-0.4c-0.3-0.3-0.4-0.6-0.4-1
				v-7.5c0-0.4-0.1-0.8-0.2-1.2c-0.2-0.4-0.4-0.7-0.7-1c-0.3-0.3-0.6-0.5-1-0.7c-0.4-0.2-0.8-0.2-1.2-0.2c-0.4,0-0.8,0.1-1.2,0.2
				s-0.7,0.4-1,0.7c-0.3,0.3-0.5,0.6-0.7,1c-0.2,0.4-0.2,0.8-0.2,1.2v7.5c0,0.4-0.1,0.7-0.4,1c-0.3,0.3-0.6,0.4-1,0.4
				c-0.4,0-0.7-0.1-1-0.4c-0.3-0.3-0.4-0.6-0.4-1v-7.5c0-0.4-0.1-0.8-0.3-1.2s-0.4-0.7-0.7-1c-0.3-0.3-0.6-0.5-1-0.7
				s-0.8-0.2-1.2-0.2s-0.8,0.1-1.2,0.2c-0.4,0.2-0.7,0.4-1,0.7c-0.3,0.3-0.5,0.6-0.7,1c-0.2,0.4-0.2,0.8-0.2,1.2v7.5
				c0,0.4-0.1,0.7-0.4,1c-0.3,0.3-0.6,0.4-1,0.4c-0.4,0-0.7-0.1-1-0.4c-0.3-0.3-0.4-0.6-0.4-1v-12c0-0.4,0.1-0.7,0.4-1
				c0.3-0.3,0.6-0.4,1-0.4c0.3,0,0.6,0.1,0.8,0.3c0.2,0.2,0.4,0.4,0.5,0.7c0.9-0.6,2-0.9,3.2-0.9c0.9,0,1.7,0.2,2.5,0.5
				c0.8,0.3,1.5,0.9,2,1.6c1.2-1.4,2.7-2.1,4.5-2.1c0.8,0,1.6,0.2,2.3,0.5c0.7,0.3,1.3,0.7,1.9,1.3c0.5,0.5,1,1.2,1.3,1.9
				c0.3,0.7,0.5,1.5,0.5,2.3V31.4z"/>
			<path fill="#D45571" d="M53.5,28.6c0.4,0,0.7,0.1,1,0.4c0.3,0.3,0.4,0.6,0.4,1c0,0.4-0.1,0.7-0.4,1c-1.4,1.2-3,1.8-4.8,1.8
				c-2,0-3.8-0.7-5.2-2.2s-2.2-3.2-2.2-5.2s0.7-3.8,2.2-5.2s3.2-2.2,5.2-2.2c2,0,3.8,0.7,5.2,2.2c0.7,0.7,1.3,1.5,1.6,2.4
				c0.4,0.9,0.5,1.8,0.5,2.8c0,0.4-0.1,0.7-0.4,1c-0.3,0.3-0.6,0.4-1,0.4H45.2c0.1,0.5,0.4,0.9,0.7,1.3c0.3,0.4,0.6,0.7,1,1
				c0.4,0.3,0.8,0.5,1.3,0.7c0.5,0.2,1,0.2,1.5,0.2c0.6,0,1.1-0.1,1.6-0.3c0.5-0.2,0.9-0.4,1.3-0.8C52.8,28.8,53.1,28.6,53.5,28.6z
				 M54.1,24c-0.2-0.5-0.4-0.9-0.7-1.3c-0.3-0.4-0.6-0.7-1-1c-0.4-0.3-0.8-0.5-1.3-0.7c-0.5-0.2-1-0.2-1.5-0.2s-1,0.1-1.5,0.2
				s-0.9,0.4-1.3,0.7c-0.4,0.3-0.7,0.6-1,1c-0.3,0.4-0.5,0.8-0.6,1.3H54.1z"/>
			<path fill="#D45571" d="M61.8,19.4v0.3c0.7-0.5,1.4-0.9,2.1-1.2s1.6-0.4,2.5-0.4c0.4,0,0.8,0,1.2,0.1c0.4,0.1,0.9,0.1,1.2,0.3
				c0.4,0.1,0.7,0.3,0.9,0.6s0.4,0.5,0.4,0.9c0,0.2,0,0.4-0.1,0.5c-0.1,0.2-0.2,0.3-0.3,0.4c-0.1,0.1-0.3,0.2-0.4,0.3
				s-0.3,0.1-0.5,0.1c-0.2,0-0.4,0-0.6-0.1c-0.6-0.2-1.2-0.3-1.8-0.3c-0.6,0-1.2,0.1-1.8,0.4c-0.6,0.2-1.1,0.6-1.5,1
				c-0.4,0.4-0.7,0.9-1,1.5c-0.2,0.6-0.4,1.2-0.4,1.8v6c0,0.4-0.1,0.7-0.4,1c-0.3,0.3-0.6,0.4-1,0.4c-0.4,0-0.7-0.1-1-0.4
				c-0.3-0.3-0.4-0.6-0.4-1v-12c0-0.4,0.1-0.7,0.4-1c0.3-0.3,0.6-0.4,1-0.4c0.4,0,0.7,0.1,1,0.4C61.7,18.7,61.8,19,61.8,19.4z"/>
			<path fill="#D45571" d="M75.5,15.4c0,0.4-0.2,0.8-0.5,1.1S74.3,17,73.9,17s-0.8-0.2-1.1-0.5s-0.5-0.7-0.5-1.1
				c0-0.4,0.2-0.8,0.5-1.1s0.7-0.5,1.1-0.5s0.8,0.2,1.1,0.5S75.5,14.9,75.5,15.4z M72.5,31.4v-12c0-0.4,0.1-0.7,0.4-1
				c0.3-0.3,0.6-0.4,1-0.4s0.7,0.1,1,0.4c0.3,0.3,0.4,0.6,0.4,1v12c0,0.4-0.1,0.7-0.4,1c-0.3,0.3-0.6,0.4-1,0.4s-0.7-0.1-1-0.4
				C72.6,32.1,72.5,31.8,72.5,31.4z"/>
			<path fill="#D45571" d="M89.3,28.6c0.4,0,0.7,0.1,1,0.4c0.3,0.3,0.4,0.6,0.4,1c0,0.4-0.1,0.7-0.4,1c-1.4,1.2-3,1.8-4.8,1.8
				c-2,0-3.8-0.7-5.2-2.2s-2.2-3.2-2.2-5.2s0.7-3.8,2.2-5.2s3.2-2.2,5.2-2.2c1.9,0,3.5,0.6,4.8,1.8c0.3,0.3,0.5,0.6,0.5,1
				c0,0.4-0.1,0.7-0.4,1c-0.3,0.3-0.6,0.4-1,0.4c-0.3,0-0.6-0.1-0.9-0.3c-0.4-0.4-0.9-0.7-1.4-0.9c-0.5-0.2-1-0.3-1.6-0.3
				c-0.6,0-1.2,0.1-1.8,0.4c-0.6,0.2-1.1,0.6-1.5,1c-0.4,0.4-0.8,0.9-1,1.5c-0.2,0.6-0.4,1.2-0.4,1.8s0.1,1.2,0.4,1.8
				c0.2,0.6,0.6,1.1,1,1.5c0.4,0.4,0.9,0.7,1.5,1c0.6,0.2,1.2,0.4,1.8,0.4c0.6,0,1.1-0.1,1.6-0.3c0.5-0.2,1-0.5,1.4-0.8
				C88.7,28.7,89,28.6,89.3,28.6z"/>
			<path fill="#D45571" d="M104.9,31.4v-0.3c-0.7,0.5-1.4,0.9-2.1,1.2s-1.6,0.4-2.5,0.4c-2,0-3.8-0.7-5.2-2.2s-2.2-3.2-2.2-5.2
				s0.7-3.8,2.2-5.2s3.2-2.2,5.2-2.2c2,0,3.8,0.7,5.2,2.2c1.4,1.4,2.2,3.2,2.2,5.2v6c0,0.4-0.1,0.7-0.4,1c-0.3,0.3-0.6,0.4-1,0.4
				c-0.4,0-0.7-0.1-1-0.4C105,32.1,104.9,31.8,104.9,31.4z M100.2,20.8c-0.7,0-1.3,0.1-1.8,0.4s-1.1,0.6-1.5,1
				c-0.4,0.4-0.7,0.9-1,1.5c-0.2,0.6-0.4,1.2-0.4,1.8s0.1,1.2,0.4,1.8c0.2,0.6,0.6,1.1,1,1.5c0.4,0.4,0.9,0.8,1.5,1
				c0.6,0.2,1.2,0.4,1.8,0.4c0.6,0,1.2-0.1,1.8-0.4c0.6-0.2,1.1-0.6,1.5-1c0.4-0.4,0.7-0.9,1-1.5c0.2-0.6,0.4-1.2,0.4-1.8
				s-0.1-1.2-0.4-1.8c-0.2-0.6-0.6-1-1-1.5c-0.4-0.4-0.9-0.8-1.5-1C101.5,20.9,100.9,20.8,100.2,20.8z"/>
			<path fill="#D45571" d="M112.5,19.4c1.2-0.9,2.5-1.4,4.1-1.4c0.9,0,1.8,0.2,2.6,0.5c0.8,0.4,1.6,0.8,2.2,1.5
				c0.6,0.6,1.1,1.3,1.5,2.2c0.4,0.8,0.6,1.7,0.6,2.7v6.5c0,0.4-0.1,0.7-0.4,1c-0.3,0.3-0.6,0.4-1,0.4c-0.4,0-0.7-0.1-1-0.4
				c-0.3-0.3-0.4-0.6-0.4-1v-6.5c0-0.6-0.1-1.1-0.3-1.6c-0.2-0.5-0.5-0.9-0.9-1.3c-0.4-0.4-0.8-0.7-1.3-0.9s-1-0.3-1.6-0.3
				c-0.6,0-1.1,0.1-1.6,0.3c-0.5,0.2-0.9,0.5-1.3,0.9s-0.7,0.8-0.9,1.3c-0.2,0.5-0.3,1-0.3,1.6v6.5c0,0.4-0.1,0.7-0.4,1
				c-0.3,0.3-0.6,0.4-1,0.4c-0.4,0-0.7-0.1-1-0.4c-0.3-0.3-0.4-0.6-0.4-1v-12c0-0.4,0.1-0.7,0.4-1c0.3-0.3,0.6-0.4,1-0.4
				c0.4,0,0.7,0.1,1,0.4C112.3,18.7,112.5,19,112.5,19.4z"/>
			<path fill="#D45571" d="M154.3,31.4c0,0.4-0.1,0.7-0.4,1c-0.3,0.3-0.6,0.4-1,0.4c-0.4,0-0.7-0.1-1-0.4c-0.3-0.3-0.4-0.6-0.4-1
				v-7.5c0-0.4-0.1-0.8-0.2-1.2c-0.2-0.4-0.4-0.7-0.7-1c-0.3-0.3-0.6-0.5-1-0.7c-0.4-0.2-0.8-0.2-1.2-0.2c-0.4,0-0.8,0.1-1.2,0.2
				s-0.7,0.4-1,0.7c-0.3,0.3-0.5,0.6-0.7,1c-0.2,0.4-0.2,0.8-0.2,1.2v7.5c0,0.4-0.1,0.7-0.4,1c-0.3,0.3-0.6,0.4-1,0.4
				c-0.4,0-0.7-0.1-1-0.4c-0.3-0.3-0.4-0.6-0.4-1v-7.5c0-0.4-0.1-0.8-0.3-1.2s-0.4-0.7-0.7-1c-0.3-0.3-0.6-0.5-1-0.7
				s-0.8-0.2-1.2-0.2s-0.8,0.1-1.2,0.2c-0.4,0.2-0.7,0.4-1,0.7c-0.3,0.3-0.5,0.6-0.7,1c-0.2,0.4-0.2,0.8-0.2,1.2v7.5
				c0,0.4-0.1,0.7-0.4,1c-0.3,0.3-0.6,0.4-1,0.4c-0.4,0-0.7-0.1-1-0.4c-0.3-0.3-0.4-0.6-0.4-1v-12c0-0.4,0.1-0.7,0.4-1
				c0.3-0.3,0.6-0.4,1-0.4c0.3,0,0.6,0.1,0.8,0.3c0.2,0.2,0.4,0.4,0.5,0.7c0.9-0.6,2-0.9,3.2-0.9c0.9,0,1.7,0.2,2.5,0.5
				c0.8,0.3,1.5,0.9,2,1.6c1.2-1.4,2.7-2.1,4.5-2.1c0.8,0,1.6,0.2,2.3,0.5c0.7,0.3,1.3,0.7,1.9,1.3c0.5,0.5,1,1.2,1.3,1.9
				c0.3,0.7,0.5,1.5,0.5,2.3V31.4z"/>
			<path fill="#D45571" d="M169,32.8c-0.4,0-0.7-0.1-1-0.4s-0.4-0.6-0.4-1c-0.6,0.5-1.2,0.8-1.9,1c-0.7,0.2-1.4,0.3-2.2,0.3
				c-0.9,0-1.8-0.2-2.7-0.5c-0.8-0.4-1.6-0.9-2.2-1.5c-0.6-0.6-1.1-1.4-1.5-2.2c-0.4-0.8-0.5-1.7-0.5-2.7v-6.5c0-0.4,0.1-0.7,0.4-1
				c0.3-0.3,0.6-0.4,1-0.4c0.4,0,0.7,0.1,1,0.4c0.3,0.3,0.4,0.6,0.4,1v6.5c0,0.6,0.1,1.1,0.3,1.6c0.2,0.5,0.5,0.9,0.9,1.3
				c0.4,0.4,0.8,0.7,1.3,0.9c0.5,0.2,1,0.3,1.6,0.3c0.6,0,1.1-0.1,1.6-0.3c0.5-0.2,0.9-0.5,1.3-0.9c0.4-0.4,0.7-0.8,0.9-1.3
				c0.2-0.5,0.3-1,0.3-1.6v-6.5c0-0.4,0.1-0.7,0.4-1c0.3-0.3,0.6-0.4,1-0.4c0.4,0,0.7,0.1,1,0.4c0.3,0.3,0.4,0.6,0.4,1v12
				c0,0.4-0.1,0.7-0.4,1C169.7,32.7,169.4,32.8,169,32.8z"/>
			<path fill="#D45571" d="M175.2,25.8c-0.8-0.3-1.4-0.6-1.7-1h0c-0.7-0.7-1-1.5-1-2.4c0-0.7,0.2-1.3,0.5-1.8c0.4-0.5,0.8-1,1.4-1.4
				s1.2-0.7,1.9-0.9c0.7-0.2,1.4-0.3,2.2-0.3c2.2,0,4.1,0.9,5.7,2.7c0.2,0.2,0.3,0.5,0.3,0.8c0,0.4-0.1,0.7-0.4,1
				c-0.3,0.3-0.6,0.4-1,0.4c-0.3,0-0.5-0.1-0.7-0.2c-0.2-0.2-0.4-0.3-0.6-0.5c-0.9-0.9-2-1.3-3.3-1.3c-1.3,0-2.3,0.4-3,1.2
				c-0.1,0.1-0.2,0.3-0.2,0.6s0.1,0.4,0.3,0.5l6.2,2c0.9,0.3,1.4,0.7,1.7,1h0c0.7,0.7,1,1.5,1,2.4c0,0.7-0.2,1.3-0.5,1.8
				c-0.4,0.5-0.8,1-1.4,1.4c-0.6,0.4-1.2,0.7-1.9,0.9s-1.4,0.3-2.1,0.3c-2.2,0-4.1-0.9-5.7-2.6c-0.2-0.3-0.3-0.5-0.3-0.9
				c0-0.4,0.1-0.7,0.4-1c0.3-0.3,0.6-0.4,1-0.4c0.3,0,0.5,0.1,0.7,0.3c0.2,0.2,0.4,0.3,0.6,0.5c0.9,0.9,2,1.3,3.3,1.3
				c1.3,0,2.3-0.4,3-1.2c0.1-0.1,0.2-0.3,0.2-0.5c0-0.2-0.1-0.4-0.4-0.5L175.2,25.8z"/>
			<path fill="#D45571" d="M187.7,18h0.6v-5c0-0.4,0.1-0.7,0.4-1c0.3-0.3,0.6-0.4,1-0.4c0.4,0,0.7,0.1,1,0.4c0.3,0.3,0.4,0.6,0.4,1
				v5h1.6c0.4,0,0.7,0.1,1,0.4c0.3,0.3,0.4,0.6,0.4,1c0,0.4-0.1,0.7-0.4,1c-0.3,0.3-0.6,0.4-1,0.4h-1.6v6.6c0,1.7,0.9,2.6,2.6,2.6
				c0.4,0,0.7,0.1,1,0.4c0.3,0.3,0.4,0.6,0.4,1c0,0.4-0.1,0.7-0.4,1c-0.3,0.3-0.6,0.4-1,0.4c-3.6,0-5.4-1.8-5.4-5.4v-6.6h-0.6
				c-0.4,0-0.7-0.1-1-0.4c-0.3-0.3-0.4-0.6-0.4-1c0-0.4,0.1-0.7,0.4-1C187.1,18.2,187.4,18,187.7,18z"/>
			<path fill="#D45571" d="M208.2,31.4v-0.3c-0.7,0.5-1.4,0.9-2.1,1.2s-1.6,0.4-2.5,0.4c-2,0-3.8-0.7-5.2-2.2s-2.2-3.2-2.2-5.2
				s0.7-3.8,2.2-5.2s3.2-2.2,5.2-2.2c2,0,3.8,0.7,5.2,2.2c1.4,1.4,2.2,3.2,2.2,5.2v6c0,0.4-0.1,0.7-0.4,1c-0.3,0.3-0.6,0.4-1,0.4
				c-0.4,0-0.7-0.1-1-0.4C208.4,32.1,208.2,31.8,208.2,31.4z M203.6,20.8c-0.7,0-1.3,0.1-1.8,0.4s-1.1,0.6-1.5,1
				c-0.4,0.4-0.7,0.9-1,1.5c-0.2,0.6-0.4,1.2-0.4,1.8s0.1,1.2,0.4,1.8c0.2,0.6,0.6,1.1,1,1.5c0.4,0.4,0.9,0.8,1.5,1
				c0.6,0.2,1.2,0.4,1.8,0.4c0.6,0,1.2-0.1,1.8-0.4c0.6-0.2,1.1-0.6,1.5-1c0.4-0.4,0.7-0.9,1-1.5c0.2-0.6,0.4-1.2,0.4-1.8
				s-0.1-1.2-0.4-1.8c-0.2-0.6-0.6-1-1-1.5c-0.4-0.4-0.9-0.8-1.5-1C204.9,20.9,204.2,20.8,203.6,20.8z"/>
			<path fill="#D45571" d="M215.8,19.4v0.3c0.7-0.5,1.4-0.9,2.1-1.2s1.6-0.4,2.5-0.4c0.4,0,0.8,0,1.2,0.1c0.4,0.1,0.9,0.1,1.2,0.3
				c0.4,0.1,0.7,0.3,0.9,0.6s0.4,0.5,0.4,0.9c0,0.2,0,0.4-0.1,0.5c-0.1,0.2-0.2,0.3-0.3,0.4c-0.1,0.1-0.3,0.2-0.4,0.3
				s-0.3,0.1-0.5,0.1c-0.2,0-0.4,0-0.6-0.1c-0.6-0.2-1.2-0.3-1.8-0.3c-0.6,0-1.2,0.1-1.8,0.4c-0.6,0.2-1.1,0.6-1.5,1
				c-0.4,0.4-0.7,0.9-1,1.5c-0.2,0.6-0.4,1.2-0.4,1.8v6c0,0.4-0.1,0.7-0.4,1c-0.3,0.3-0.6,0.4-1,0.4c-0.4,0-0.7-0.1-1-0.4
				c-0.3-0.3-0.4-0.6-0.4-1v-12c0-0.4,0.1-0.7,0.4-1c0.3-0.3,0.6-0.4,1-0.4c0.4,0,0.7,0.1,1,0.4C215.7,18.7,215.8,19,215.8,19.4z"/>
			<path fill="#D45571" d="M233.1,18c1.7,0,3.3,0.5,4.6,1.6v-6.6c0-0.4,0.1-0.7,0.4-1c0.3-0.3,0.6-0.4,1-0.4c0.4,0,0.7,0.1,1,0.4
				c0.3,0.3,0.4,0.6,0.4,1v12.3c0,2.1-0.7,3.8-2.2,5.2c-1.5,1.4-3.2,2.2-5.2,2.2c-2,0-3.8-0.7-5.2-2.2s-2.2-3.2-2.2-5.2
				s0.7-3.8,2.2-5.2S231.1,18,233.1,18z M237.8,25.4c0-0.6-0.1-1.2-0.4-1.8c-0.2-0.6-0.6-1-1-1.5c-0.4-0.4-0.9-0.8-1.5-1
				c-0.6-0.2-1.2-0.4-1.8-0.4c-0.7,0-1.3,0.1-1.8,0.4s-1.1,0.6-1.5,1c-0.4,0.4-0.7,0.9-1,1.5c-0.2,0.6-0.4,1.2-0.4,1.8
				s0.1,1.2,0.4,1.8c0.2,0.6,0.6,1.1,1,1.5c0.4,0.4,0.9,0.8,1.5,1c0.6,0.2,1.2,0.4,1.8,0.4c0.6,0,1.2-0.1,1.8-0.4
				c0.6-0.2,1.1-0.6,1.5-1c0.4-0.4,0.7-0.9,1-1.5C237.6,26.6,237.8,26,237.8,25.4z"/>
			<path fill="#D45571" d="M137.5,45.5c0-0.4,0.1-0.7,0.4-1c0.3-0.3,0.6-0.4,1-0.4c0.4,0,0.7,0.1,1,0.4c0.3,0.3,0.4,0.6,0.4,1v7.8
				l8.8-8.8c0.3-0.3,0.6-0.4,1-0.4c0.2,0,0.4,0,0.5,0.1c0.2,0.1,0.3,0.2,0.4,0.3c0.1,0.1,0.2,0.3,0.3,0.4c0.1,0.2,0.1,0.4,0.1,0.5
				c0,0.4-0.1,0.7-0.4,1l-6.9,6.9l7.1,9.6c0.2,0.2,0.3,0.5,0.3,0.8c0,0.2,0,0.4-0.1,0.5s-0.2,0.3-0.3,0.5c-0.1,0.1-0.3,0.2-0.4,0.3
				c-0.2,0.1-0.3,0.1-0.5,0.1c-0.5,0-0.9-0.2-1.2-0.6l-6.8-9.2l-1.9,1.9v6.5c0,0.4-0.1,0.7-0.4,1s-0.6,0.4-1,0.4
				c-0.4,0-0.7-0.1-1-0.4s-0.4-0.6-0.4-1V45.5z"/>
			<path fill="#D45571" d="M163.9,61c0.4,0,0.7,0.1,1,0.4c0.3,0.3,0.4,0.6,0.4,1c0,0.4-0.1,0.7-0.4,1c-1.4,1.2-3,1.8-4.8,1.8
				c-2,0-3.8-0.7-5.2-2.2s-2.2-3.2-2.2-5.2s0.7-3.8,2.2-5.2s3.2-2.2,5.2-2.2c2,0,3.8,0.7,5.2,2.2c0.7,0.7,1.3,1.5,1.6,2.4
				c0.4,0.9,0.5,1.8,0.5,2.8c0,0.4-0.1,0.7-0.4,1c-0.3,0.3-0.6,0.4-1,0.4h-10.4c0.1,0.5,0.4,0.9,0.7,1.3c0.3,0.4,0.6,0.7,1,1
				c0.4,0.3,0.8,0.5,1.3,0.7c0.5,0.2,1,0.2,1.5,0.2c0.6,0,1.1-0.1,1.6-0.3c0.5-0.2,0.9-0.4,1.3-0.8C163.3,61.2,163.6,61,163.9,61z
				 M164.5,56.4c-0.2-0.5-0.4-0.9-0.7-1.3c-0.3-0.4-0.6-0.7-1-1c-0.4-0.3-0.8-0.5-1.3-0.7c-0.5-0.2-1-0.2-1.5-0.2s-1,0.1-1.5,0.2
				s-0.9,0.4-1.3,0.7c-0.4,0.3-0.7,0.6-1,1c-0.3,0.4-0.5,0.8-0.6,1.3H164.5z"/>
			<path fill="#D45571" d="M170.9,50.4h0.6v-5c0-0.4,0.1-0.7,0.4-1c0.3-0.3,0.6-0.4,1-0.4c0.4,0,0.7,0.1,1,0.4
				c0.3,0.3,0.4,0.6,0.4,1v5h1.6c0.4,0,0.7,0.1,1,0.4c0.3,0.3,0.4,0.6,0.4,1c0,0.4-0.1,0.7-0.4,1c-0.3,0.3-0.6,0.4-1,0.4h-1.6v6.6
				c0,1.7,0.9,2.6,2.6,2.6c0.4,0,0.7,0.1,1,0.4c0.3,0.3,0.4,0.6,0.4,1c0,0.4-0.1,0.7-0.4,1c-0.3,0.3-0.6,0.4-1,0.4
				c-3.6,0-5.4-1.8-5.4-5.4v-6.6h-0.6c-0.4,0-0.7-0.1-1-0.4c-0.3-0.3-0.4-0.6-0.4-1c0-0.4,0.1-0.7,0.4-1
				C170.2,50.6,170.5,50.4,170.9,50.4z"/>
			<path fill="#D45571" d="M190.6,61c0.4,0,0.7,0.1,1,0.4c0.3,0.3,0.4,0.6,0.4,1c0,0.4-0.1,0.7-0.4,1c-1.4,1.2-3,1.8-4.8,1.8
				c-2,0-3.8-0.7-5.2-2.2s-2.2-3.2-2.2-5.2s0.7-3.8,2.2-5.2s3.2-2.2,5.2-2.2c1.9,0,3.5,0.6,4.8,1.8c0.3,0.3,0.5,0.6,0.5,1
				c0,0.4-0.1,0.7-0.4,1c-0.3,0.3-0.6,0.4-1,0.4c-0.3,0-0.6-0.1-0.9-0.3c-0.4-0.4-0.9-0.7-1.4-0.9c-0.5-0.2-1-0.3-1.6-0.3
				c-0.6,0-1.2,0.1-1.8,0.4c-0.6,0.2-1.1,0.6-1.5,1c-0.4,0.4-0.8,0.9-1,1.5c-0.2,0.6-0.4,1.2-0.4,1.8s0.1,1.2,0.4,1.8
				c0.2,0.6,0.6,1.1,1,1.5c0.4,0.4,0.9,0.7,1.5,1c0.6,0.2,1.2,0.4,1.8,0.4c0.6,0,1.1-0.1,1.6-0.3c0.5-0.2,1-0.5,1.4-0.8
				C190,61.1,190.2,61,190.6,61z"/>
			<path fill="#D45571" d="M196.9,63.8c0,0.4-0.1,0.7-0.4,1c-0.3,0.3-0.6,0.4-1,0.4c-0.4,0-0.7-0.1-1-0.4c-0.3-0.3-0.4-0.6-0.4-1
				V45.5c0-0.4,0.1-0.7,0.4-1c0.3-0.3,0.6-0.4,1-0.4s0.7,0.1,1,0.4c0.3,0.3,0.4,0.6,0.4,1v6.3c1.2-0.9,2.5-1.4,4.1-1.4
				c0.9,0,1.8,0.2,2.6,0.5c0.8,0.4,1.6,0.9,2.2,1.5c0.6,0.6,1.1,1.3,1.5,2.2c0.4,0.8,0.6,1.7,0.6,2.7v6.5c0,0.4-0.1,0.7-0.4,1
				c-0.3,0.3-0.6,0.4-1,0.4s-0.7-0.1-1-0.4c-0.3-0.3-0.4-0.6-0.4-1v-6.5c0-0.6-0.1-1.1-0.3-1.6c-0.2-0.5-0.5-0.9-0.9-1.3
				c-0.4-0.4-0.8-0.7-1.3-0.9s-1-0.3-1.6-0.3c-0.6,0-1.1,0.1-1.6,0.3c-0.5,0.2-0.9,0.5-1.3,0.9c-0.4,0.4-0.7,0.8-0.9,1.3
				c-0.2,0.5-0.3,1-0.3,1.6V63.8z"/>
			<path fill="#D45571" d="M222.3,65.2c-0.4,0-0.7-0.1-1-0.4s-0.4-0.6-0.4-1c-0.6,0.5-1.2,0.8-1.9,1c-0.7,0.2-1.4,0.3-2.2,0.3
				c-0.9,0-1.8-0.2-2.7-0.5c-0.8-0.4-1.6-0.9-2.2-1.5c-0.6-0.6-1.1-1.4-1.5-2.2c-0.4-0.8-0.5-1.7-0.5-2.7v-6.5c0-0.4,0.1-0.7,0.4-1
				c0.3-0.3,0.6-0.4,1-0.4c0.4,0,0.7,0.1,1,0.4c0.3,0.3,0.4,0.6,0.4,1v6.5c0,0.6,0.1,1.1,0.3,1.6c0.2,0.5,0.5,0.9,0.9,1.3
				c0.4,0.4,0.8,0.7,1.3,0.9c0.5,0.2,1,0.3,1.6,0.3c0.6,0,1.1-0.1,1.6-0.3c0.5-0.2,0.9-0.5,1.3-0.9c0.4-0.4,0.7-0.8,0.9-1.3
				c0.2-0.5,0.3-1,0.3-1.6v-6.5c0-0.4,0.1-0.7,0.4-1c0.3-0.3,0.6-0.4,1-0.4c0.4,0,0.7,0.1,1,0.4c0.3,0.3,0.4,0.6,0.4,1v12
				c0,0.4-0.1,0.7-0.4,1C223,65.1,222.7,65.2,222.3,65.2z"/>
			<path fill="#D45571" d="M233.1,65.2c-1.8,0-3.3-0.5-4.6-1.6v6.6c0,0.4-0.1,0.7-0.4,1c-0.3,0.3-0.6,0.4-1,0.4
				c-0.4,0-0.7-0.1-1-0.4c-0.3-0.3-0.4-0.6-0.4-1V57.8c0-2,0.7-3.8,2.2-5.2s3.2-2.2,5.2-2.2c2,0,3.8,0.7,5.2,2.2
				c0.7,0.7,1.3,1.5,1.6,2.4c0.4,0.9,0.5,1.8,0.5,2.8c0,2.1-0.7,3.8-2.2,5.2c-0.7,0.7-1.5,1.3-2.4,1.6
				C235.1,65,234.1,65.2,233.1,65.2z M228.5,57.8c0,0.6,0.1,1.2,0.4,1.8c0.2,0.6,0.6,1.1,1,1.5c0.4,0.4,0.9,0.8,1.5,1
				c0.6,0.2,1.2,0.4,1.8,0.4c0.6,0,1.2-0.1,1.8-0.4c0.6-0.2,1.1-0.6,1.5-1c0.4-0.4,0.7-0.9,1-1.5c0.2-0.6,0.4-1.2,0.4-1.8
				s-0.1-1.2-0.4-1.8c-0.2-0.6-0.6-1-1-1.5c-0.4-0.4-0.9-0.8-1.5-1c-0.6-0.2-1.2-0.4-1.8-0.4c-0.7,0-1.3,0.1-1.8,0.4s-1.1,0.6-1.5,1
				c-0.4,0.4-0.7,0.9-1,1.5C228.6,56.6,228.5,57.2,228.5,57.8z"/>
			<path fill="#D45571" d="M59.3,96.2c0,0.4-0.1,0.7-0.4,1s-0.6,0.4-1,0.4s-0.7-0.1-1-0.4s-0.4-0.6-0.4-1v-7.8h-9.4v7.8
				c0,0.4-0.1,0.7-0.4,1c-0.3,0.3-0.6,0.4-1,0.4s-0.7-0.1-1-0.4s-0.4-0.6-0.4-1V77.9c0-0.4,0.1-0.7,0.4-1c0.3-0.3,0.6-0.4,1-0.4
				s0.7,0.1,1,0.4c0.3,0.3,0.4,0.6,0.4,1v7.8h9.4v-7.8c0-0.4,0.1-0.7,0.4-1c0.3-0.3,0.6-0.4,1-0.4s0.7,0.1,1,0.4
				c0.3,0.3,0.4,0.6,0.4,1V96.2z"/>
			<path fill="#D45571" d="M76,90.2c0,2.1-0.7,3.8-2.2,5.2c-1.5,1.4-3.2,2.2-5.2,2.2c-2,0-3.8-0.7-5.2-2.2s-2.2-3.2-2.2-5.2
				s0.7-3.8,2.2-5.2s3.2-2.2,5.2-2.2c2,0,3.8,0.7,5.2,2.2c0.7,0.7,1.3,1.5,1.6,2.4C75.8,88.2,76,89.2,76,90.2z M68.6,85.6
				c-0.7,0-1.3,0.1-1.8,0.4s-1.1,0.6-1.5,1c-0.4,0.4-0.7,0.9-1,1.5C64.1,89,64,89.6,64,90.2s0.1,1.2,0.4,1.8c0.2,0.6,0.6,1.1,1,1.5
				c0.4,0.4,0.9,0.8,1.5,1c0.6,0.2,1.2,0.4,1.8,0.4c0.6,0,1.2-0.1,1.8-0.4c0.6-0.2,1.1-0.6,1.5-1c0.4-0.4,0.7-0.9,1-1.5
				c0.2-0.6,0.4-1.2,0.4-1.8s-0.1-1.2-0.4-1.8c-0.2-0.6-0.6-1-1-1.5c-0.4-0.4-0.9-0.8-1.5-1C69.8,85.7,69.2,85.6,68.6,85.6z"/>
			<path fill="#D45571" d="M80.8,84.2c1.2-0.9,2.5-1.4,4.1-1.4c0.9,0,1.8,0.2,2.6,0.5c0.8,0.4,1.6,0.8,2.2,1.5
				c0.6,0.6,1.1,1.3,1.5,2.2c0.4,0.8,0.6,1.7,0.6,2.7v6.5c0,0.4-0.1,0.7-0.4,1c-0.3,0.3-0.6,0.4-1,0.4c-0.4,0-0.7-0.1-1-0.4
				c-0.3-0.3-0.4-0.6-0.4-1v-6.5c0-0.6-0.1-1.1-0.3-1.6c-0.2-0.5-0.5-0.9-0.9-1.3c-0.4-0.4-0.8-0.7-1.3-0.9s-1-0.3-1.6-0.3
				c-0.6,0-1.1,0.1-1.6,0.3c-0.5,0.2-0.9,0.5-1.3,0.9s-0.7,0.8-0.9,1.3c-0.2,0.5-0.3,1-0.3,1.6v6.5c0,0.4-0.1,0.7-0.4,1
				c-0.3,0.3-0.6,0.4-1,0.4c-0.4,0-0.7-0.1-1-0.4c-0.3-0.3-0.4-0.6-0.4-1v-12c0-0.4,0.1-0.7,0.4-1c0.3-0.3,0.6-0.4,1-0.4
				c0.4,0,0.7,0.1,1,0.4C80.7,83.5,80.8,83.8,80.8,84.2z"/>
			<path fill="#D45571" d="M105.1,93.4c0.4,0,0.7,0.1,1,0.4c0.3,0.3,0.4,0.6,0.4,1c0,0.4-0.1,0.7-0.4,1c-1.4,1.2-3,1.8-4.8,1.8
				c-2,0-3.8-0.7-5.2-2.2s-2.2-3.2-2.2-5.2s0.7-3.8,2.2-5.2s3.2-2.2,5.2-2.2c2,0,3.8,0.7,5.2,2.2c0.7,0.7,1.3,1.5,1.6,2.4
				c0.4,0.9,0.5,1.8,0.5,2.8c0,0.4-0.1,0.7-0.4,1c-0.3,0.3-0.6,0.4-1,0.4H96.8c0.1,0.5,0.4,0.9,0.7,1.3c0.3,0.4,0.6,0.7,1,1
				c0.4,0.3,0.8,0.5,1.3,0.7c0.5,0.2,1,0.2,1.5,0.2c0.6,0,1.1-0.1,1.6-0.3c0.5-0.2,0.9-0.4,1.3-0.8
				C104.5,93.6,104.8,93.4,105.1,93.4z M105.7,88.8c-0.2-0.5-0.4-0.9-0.7-1.3c-0.3-0.4-0.6-0.7-1-1c-0.4-0.3-0.8-0.5-1.3-0.7
				c-0.5-0.2-1-0.2-1.5-0.2s-1,0.1-1.5,0.2s-0.9,0.4-1.3,0.7c-0.4,0.3-0.7,0.6-1,1c-0.3,0.4-0.5,0.8-0.6,1.3H105.7z"/>
			<path fill="#D45571" d="M115.6,96.2l-4.7-11.4c-0.1-0.2-0.1-0.4-0.1-0.6c0-0.2,0-0.4,0.1-0.5s0.2-0.3,0.3-0.4
				c0.1-0.1,0.3-0.2,0.4-0.3c0.2-0.1,0.3-0.1,0.5-0.1c0.3,0,0.5,0.1,0.8,0.2c0.2,0.2,0.4,0.4,0.5,0.7l3.7,8.8l3.7-8.9
				c0.1-0.3,0.3-0.5,0.5-0.6c0.2-0.2,0.5-0.2,0.8-0.2c0.2,0,0.4,0,0.5,0.1s0.3,0.2,0.4,0.3c0.1,0.1,0.2,0.3,0.3,0.4
				c0.1,0.2,0.1,0.3,0.1,0.5c0,0.2,0,0.4-0.1,0.6l-7.6,18.2c-0.1,0.3-0.3,0.5-0.5,0.7c-0.2,0.2-0.5,0.3-0.8,0.3
				c-0.4,0-0.7-0.1-1-0.4c-0.3-0.3-0.4-0.6-0.4-1c0-0.2,0-0.4,0.1-0.6L115.6,96.2z"/>
			<path fill="#D45571" d="M154.3,96.2c0,0.4-0.1,0.7-0.4,1c-0.3,0.3-0.6,0.4-1,0.4c-0.4,0-0.7-0.1-1-0.4c-0.3-0.3-0.4-0.6-0.4-1
				v-7.5c0-0.4-0.1-0.8-0.2-1.2c-0.2-0.4-0.4-0.7-0.7-1c-0.3-0.3-0.6-0.5-1-0.7c-0.4-0.2-0.8-0.2-1.2-0.2c-0.4,0-0.8,0.1-1.2,0.2
				s-0.7,0.4-1,0.7c-0.3,0.3-0.5,0.6-0.7,1c-0.2,0.4-0.2,0.8-0.2,1.2v7.5c0,0.4-0.1,0.7-0.4,1c-0.3,0.3-0.6,0.4-1,0.4
				c-0.4,0-0.7-0.1-1-0.4c-0.3-0.3-0.4-0.6-0.4-1v-7.5c0-0.4-0.1-0.8-0.3-1.2s-0.4-0.7-0.7-1c-0.3-0.3-0.6-0.5-1-0.7
				s-0.8-0.2-1.2-0.2s-0.8,0.1-1.2,0.2c-0.4,0.2-0.7,0.4-1,0.7c-0.3,0.3-0.5,0.6-0.7,1c-0.2,0.4-0.2,0.8-0.2,1.2v7.5
				c0,0.4-0.1,0.7-0.4,1c-0.3,0.3-0.6,0.4-1,0.4c-0.4,0-0.7-0.1-1-0.4c-0.3-0.3-0.4-0.6-0.4-1v-12c0-0.4,0.1-0.7,0.4-1
				c0.3-0.3,0.6-0.4,1-0.4c0.3,0,0.6,0.1,0.8,0.3c0.2,0.2,0.4,0.4,0.5,0.7c0.9-0.6,2-0.9,3.2-0.9c0.9,0,1.7,0.2,2.5,0.5
				c0.8,0.3,1.5,0.9,2,1.6c1.2-1.4,2.7-2.1,4.5-2.1c0.8,0,1.6,0.2,2.3,0.5c0.7,0.3,1.3,0.7,1.9,1.3c0.5,0.5,1,1.2,1.3,1.9
				c0.3,0.7,0.5,1.5,0.5,2.3V96.2z"/>
			<path fill="#D45571" d="M169,97.6c-0.4,0-0.7-0.1-1-0.4s-0.4-0.6-0.4-1c-0.6,0.5-1.2,0.8-1.9,1c-0.7,0.2-1.4,0.3-2.2,0.3
				c-0.9,0-1.8-0.2-2.7-0.5c-0.8-0.4-1.6-0.9-2.2-1.5c-0.6-0.6-1.1-1.4-1.5-2.2c-0.4-0.8-0.5-1.7-0.5-2.7v-6.5c0-0.4,0.1-0.7,0.4-1
				c0.3-0.3,0.6-0.4,1-0.4c0.4,0,0.7,0.1,1,0.4c0.3,0.3,0.4,0.6,0.4,1v6.5c0,0.6,0.1,1.1,0.3,1.6c0.2,0.5,0.5,0.9,0.9,1.3
				c0.4,0.4,0.8,0.7,1.3,0.9c0.5,0.2,1,0.3,1.6,0.3c0.6,0,1.1-0.1,1.6-0.3c0.5-0.2,0.9-0.5,1.3-0.9c0.4-0.4,0.7-0.8,0.9-1.3
				c0.2-0.5,0.3-1,0.3-1.6v-6.5c0-0.4,0.1-0.7,0.4-1c0.3-0.3,0.6-0.4,1-0.4c0.4,0,0.7,0.1,1,0.4c0.3,0.3,0.4,0.6,0.4,1v12
				c0,0.4-0.1,0.7-0.4,1C169.7,97.5,169.4,97.6,169,97.6z"/>
			<path fill="#D45571" d="M175.2,90.6c-0.8-0.3-1.4-0.6-1.7-1h0c-0.7-0.7-1-1.5-1-2.4c0-0.7,0.2-1.3,0.5-1.8c0.4-0.5,0.8-1,1.4-1.4
				s1.2-0.7,1.9-0.9c0.7-0.2,1.4-0.3,2.2-0.3c2.2,0,4.1,0.9,5.7,2.7c0.2,0.2,0.3,0.5,0.3,0.8c0,0.4-0.1,0.7-0.4,1
				c-0.3,0.3-0.6,0.4-1,0.4c-0.3,0-0.5-0.1-0.7-0.2c-0.2-0.2-0.4-0.3-0.6-0.5c-0.9-0.9-2-1.3-3.3-1.3c-1.3,0-2.3,0.4-3,1.2
				c-0.1,0.1-0.2,0.3-0.2,0.6s0.1,0.4,0.3,0.5l6.2,2c0.9,0.3,1.4,0.7,1.7,1h0c0.7,0.7,1,1.5,1,2.4c0,0.7-0.2,1.3-0.5,1.8
				c-0.4,0.5-0.8,1-1.4,1.4c-0.6,0.4-1.2,0.7-1.9,0.9s-1.4,0.3-2.1,0.3c-2.2,0-4.1-0.9-5.7-2.6c-0.2-0.3-0.3-0.5-0.3-0.9
				c0-0.4,0.1-0.7,0.4-1c0.3-0.3,0.6-0.4,1-0.4c0.3,0,0.5,0.1,0.7,0.3c0.2,0.2,0.4,0.3,0.6,0.5c0.9,0.9,2,1.3,3.3,1.3
				c1.3,0,2.3-0.4,3-1.2c0.1-0.1,0.2-0.3,0.2-0.5c0-0.2-0.1-0.4-0.4-0.5L175.2,90.6z"/>
			<path fill="#D45571" d="M187.7,82.8h0.6v-5c0-0.4,0.1-0.7,0.4-1c0.3-0.3,0.6-0.4,1-0.4c0.4,0,0.7,0.1,1,0.4
				c0.3,0.3,0.4,0.6,0.4,1v5h1.6c0.4,0,0.7,0.1,1,0.4c0.3,0.3,0.4,0.6,0.4,1c0,0.4-0.1,0.7-0.4,1c-0.3,0.3-0.6,0.4-1,0.4h-1.6v6.6
				c0,1.7,0.9,2.6,2.6,2.6c0.4,0,0.7,0.1,1,0.4c0.3,0.3,0.4,0.6,0.4,1c0,0.4-0.1,0.7-0.4,1c-0.3,0.3-0.6,0.4-1,0.4
				c-3.6,0-5.4-1.8-5.4-5.4v-6.6h-0.6c-0.4,0-0.7-0.1-1-0.4c-0.3-0.3-0.4-0.6-0.4-1c0-0.4,0.1-0.7,0.4-1
				C187.1,83,187.4,82.8,187.7,82.8z"/>
			<path fill="#D45571" d="M208.2,96.2V96c-0.7,0.5-1.4,0.9-2.1,1.2s-1.6,0.4-2.5,0.4c-2,0-3.8-0.7-5.2-2.2s-2.2-3.2-2.2-5.2
				s0.7-3.8,2.2-5.2s3.2-2.2,5.2-2.2c2,0,3.8,0.7,5.2,2.2c1.4,1.4,2.2,3.2,2.2,5.2v6c0,0.4-0.1,0.7-0.4,1c-0.3,0.3-0.6,0.4-1,0.4
				c-0.4,0-0.7-0.1-1-0.4C208.4,96.9,208.2,96.6,208.2,96.2z M203.6,85.6c-0.7,0-1.3,0.1-1.8,0.4s-1.1,0.6-1.5,1
				c-0.4,0.4-0.7,0.9-1,1.5c-0.2,0.6-0.4,1.2-0.4,1.8s0.1,1.2,0.4,1.8c0.2,0.6,0.6,1.1,1,1.5c0.4,0.4,0.9,0.8,1.5,1
				c0.6,0.2,1.2,0.4,1.8,0.4c0.6,0,1.2-0.1,1.8-0.4c0.6-0.2,1.1-0.6,1.5-1c0.4-0.4,0.7-0.9,1-1.5c0.2-0.6,0.4-1.2,0.4-1.8
				s-0.1-1.2-0.4-1.8c-0.2-0.6-0.6-1-1-1.5c-0.4-0.4-0.9-0.8-1.5-1C204.9,85.7,204.2,85.6,203.6,85.6z"/>
			<path fill="#D45571" d="M215.8,84.2v0.3c0.7-0.5,1.4-0.9,2.1-1.2s1.6-0.4,2.5-0.4c0.4,0,0.8,0,1.2,0.1c0.4,0.1,0.9,0.1,1.2,0.3
				c0.4,0.1,0.7,0.3,0.9,0.6s0.4,0.5,0.4,0.9c0,0.2,0,0.4-0.1,0.5c-0.1,0.2-0.2,0.3-0.3,0.4c-0.1,0.1-0.3,0.2-0.4,0.3
				s-0.3,0.1-0.5,0.1c-0.2,0-0.4,0-0.6-0.1c-0.6-0.2-1.2-0.3-1.8-0.3c-0.6,0-1.2,0.1-1.8,0.4c-0.6,0.2-1.1,0.6-1.5,1
				c-0.4,0.4-0.7,0.9-1,1.5c-0.2,0.6-0.4,1.2-0.4,1.8v6c0,0.4-0.1,0.7-0.4,1c-0.3,0.3-0.6,0.4-1,0.4c-0.4,0-0.7-0.1-1-0.4
				c-0.3-0.3-0.4-0.6-0.4-1v-12c0-0.4,0.1-0.7,0.4-1c0.3-0.3,0.6-0.4,1-0.4c0.4,0,0.7,0.1,1,0.4C215.7,83.5,215.8,83.8,215.8,84.2z"
				/>
			<path fill="#D45571" d="M233.1,82.8c1.7,0,3.3,0.5,4.6,1.6v-6.6c0-0.4,0.1-0.7,0.4-1c0.3-0.3,0.6-0.4,1-0.4c0.4,0,0.7,0.1,1,0.4
				c0.3,0.3,0.4,0.6,0.4,1v12.3c0,2.1-0.7,3.8-2.2,5.2c-1.5,1.4-3.2,2.2-5.2,2.2c-2,0-3.8-0.7-5.2-2.2s-2.2-3.2-2.2-5.2
				s0.7-3.8,2.2-5.2S231.1,82.8,233.1,82.8z M237.8,90.2c0-0.6-0.1-1.2-0.4-1.8c-0.2-0.6-0.6-1-1-1.5c-0.4-0.4-0.9-0.8-1.5-1
				c-0.6-0.2-1.2-0.4-1.8-0.4c-0.7,0-1.3,0.1-1.8,0.4s-1.1,0.6-1.5,1c-0.4,0.4-0.7,0.9-1,1.5c-0.2,0.6-0.4,1.2-0.4,1.8
				s0.1,1.2,0.4,1.8c0.2,0.6,0.6,1.1,1,1.5c0.4,0.4,0.9,0.8,1.5,1c0.6,0.2,1.2,0.4,1.8,0.4c0.6,0,1.2-0.1,1.8-0.4
				c0.6-0.2,1.1-0.6,1.5-1c0.4-0.4,0.7-0.9,1-1.5C237.6,91.4,237.8,90.8,237.8,90.2z"/>
			<path fill="#D45571" d="M103.4,128.6v-18.3c0-0.2,0-0.4,0.1-0.5c0.1-0.2,0.2-0.3,0.3-0.4c0.1-0.1,0.3-0.2,0.4-0.3
				s0.4-0.1,0.6-0.1H117c0.4,0,0.7,0.1,1,0.4c0.3,0.3,0.4,0.6,0.4,1s-0.1,0.7-0.4,1s-0.6,0.4-1,0.4h-10.8v6.4h7.8
				c0.4,0,0.7,0.1,1,0.4s0.4,0.6,0.4,1s-0.1,0.7-0.4,1c-0.3,0.3-0.6,0.4-1,0.4h-7.8v7.8c0,0.4-0.1,0.7-0.4,1c-0.3,0.3-0.6,0.4-1,0.4
				s-0.7-0.1-1-0.4S103.4,129,103.4,128.6z"/>
			<path fill="#D45571" d="M124,112.6c0,0.4-0.2,0.8-0.5,1.1s-0.7,0.5-1.1,0.5s-0.8-0.2-1.1-0.5s-0.5-0.7-0.5-1.1
				c0-0.4,0.2-0.8,0.5-1.1s0.7-0.5,1.1-0.5s0.8,0.2,1.1,0.5S124,112.1,124,112.6z M121,128.6v-12c0-0.4,0.1-0.7,0.4-1
				c0.3-0.3,0.6-0.4,1-0.4s0.7,0.1,1,0.4c0.3,0.3,0.4,0.6,0.4,1v12c0,0.4-0.1,0.7-0.4,1c-0.3,0.3-0.6,0.4-1,0.4s-0.7-0.1-1-0.4
				C121.2,129.3,121,129,121,128.6z"/>
			<path fill="#D45571" d="M129.3,123c-0.8-0.3-1.4-0.6-1.7-1h0c-0.7-0.7-1-1.5-1-2.4c0-0.7,0.2-1.3,0.5-1.8c0.4-0.5,0.8-1,1.4-1.4
				s1.2-0.7,1.9-0.9c0.7-0.2,1.4-0.3,2.2-0.3c2.2,0,4.1,0.9,5.7,2.7c0.2,0.2,0.3,0.5,0.3,0.8c0,0.4-0.1,0.7-0.4,1
				c-0.3,0.3-0.6,0.4-1,0.4c-0.3,0-0.5-0.1-0.7-0.2c-0.2-0.2-0.4-0.3-0.6-0.5c-0.9-0.9-2-1.3-3.3-1.3c-1.3,0-2.3,0.4-3,1.2
				c-0.1,0.1-0.2,0.3-0.2,0.6s0.1,0.4,0.3,0.5l6.2,2c0.9,0.3,1.4,0.7,1.7,1h0c0.7,0.7,1,1.5,1,2.4c0,0.7-0.2,1.3-0.5,1.8
				c-0.4,0.5-0.8,1-1.4,1.4c-0.6,0.4-1.2,0.7-1.9,0.9s-1.4,0.3-2.1,0.3c-2.2,0-4.1-0.9-5.7-2.6c-0.2-0.3-0.3-0.5-0.3-0.9
				c0-0.4,0.1-0.7,0.4-1c0.3-0.3,0.6-0.4,1-0.4c0.3,0,0.5,0.1,0.7,0.3c0.2,0.2,0.4,0.3,0.6,0.5c0.9,0.9,2,1.3,3.3,1.3
				c1.3,0,2.3-0.4,3-1.2c0.1-0.1,0.2-0.3,0.2-0.5c0-0.2-0.1-0.4-0.4-0.5L129.3,123z"/>
			<path fill="#D45571" d="M143.3,128.6c0,0.4-0.1,0.7-0.4,1c-0.3,0.3-0.6,0.4-1,0.4c-0.4,0-0.7-0.1-1-0.4c-0.3-0.3-0.4-0.6-0.4-1
				v-18.3c0-0.4,0.1-0.7,0.4-1c0.3-0.3,0.6-0.4,1-0.4s0.7,0.1,1,0.4c0.3,0.3,0.4,0.6,0.4,1v6.3c1.2-0.9,2.5-1.4,4.1-1.4
				c0.9,0,1.8,0.2,2.6,0.5c0.8,0.4,1.6,0.9,2.2,1.5c0.6,0.6,1.1,1.3,1.5,2.2c0.4,0.8,0.6,1.7,0.6,2.7v6.5c0,0.4-0.1,0.7-0.4,1
				c-0.3,0.3-0.6,0.4-1,0.4s-0.7-0.1-1-0.4c-0.3-0.3-0.4-0.6-0.4-1v-6.5c0-0.6-0.1-1.1-0.3-1.6c-0.2-0.5-0.5-0.9-0.9-1.3
				c-0.4-0.4-0.8-0.7-1.3-0.9s-1-0.3-1.6-0.3c-0.6,0-1.1,0.1-1.6,0.3c-0.5,0.2-0.9,0.5-1.3,0.9c-0.4,0.4-0.7,0.8-0.9,1.3
				c-0.2,0.5-0.3,1-0.3,1.6V128.6z"/>
			<path fill="#D45571" d="M167,123c-0.8-0.3-1.4-0.6-1.7-1h0c-0.7-0.7-1-1.5-1-2.4c0-0.7,0.2-1.3,0.5-1.8c0.4-0.5,0.8-1,1.4-1.4
				s1.2-0.7,1.9-0.9c0.7-0.2,1.4-0.3,2.2-0.3c2.2,0,4.1,0.9,5.7,2.7c0.2,0.2,0.3,0.5,0.3,0.8c0,0.4-0.1,0.7-0.4,1
				c-0.3,0.3-0.6,0.4-1,0.4c-0.3,0-0.5-0.1-0.7-0.2c-0.2-0.2-0.4-0.3-0.6-0.5c-0.9-0.9-2-1.3-3.3-1.3c-1.3,0-2.3,0.4-3,1.2
				c-0.1,0.1-0.2,0.3-0.2,0.6s0.1,0.4,0.3,0.5l6.2,2c0.9,0.3,1.4,0.7,1.7,1h0c0.7,0.7,1,1.5,1,2.4c0,0.7-0.2,1.3-0.5,1.8
				c-0.4,0.5-0.8,1-1.4,1.4c-0.6,0.4-1.2,0.7-1.9,0.9s-1.4,0.3-2.1,0.3c-2.2,0-4.1-0.9-5.7-2.6c-0.2-0.3-0.3-0.5-0.3-0.9
				c0-0.4,0.1-0.7,0.4-1c0.3-0.3,0.6-0.4,1-0.4c0.3,0,0.5,0.1,0.7,0.3c0.2,0.2,0.4,0.3,0.6,0.5c0.9,0.9,2,1.3,3.3,1.3
				c1.3,0,2.3-0.4,3-1.2c0.1-0.1,0.2-0.3,0.2-0.5c0-0.2-0.1-0.4-0.4-0.5L167,123z"/>
			<path fill="#D45571" d="M190.3,128.6v-0.3c-0.7,0.5-1.4,0.9-2.1,1.2s-1.6,0.4-2.5,0.4c-2,0-3.8-0.7-5.2-2.2s-2.2-3.2-2.2-5.2
				s0.7-3.8,2.2-5.2s3.2-2.2,5.2-2.2c2,0,3.8,0.7,5.2,2.2c1.4,1.4,2.2,3.2,2.2,5.2v6c0,0.4-0.1,0.7-0.4,1c-0.3,0.3-0.6,0.4-1,0.4
				c-0.4,0-0.7-0.1-1-0.4C190.4,129.3,190.3,129,190.3,128.6z M185.7,118c-0.7,0-1.3,0.1-1.8,0.4s-1.1,0.6-1.5,1
				c-0.4,0.4-0.7,0.9-1,1.5c-0.2,0.6-0.4,1.2-0.4,1.8s0.1,1.2,0.4,1.8c0.2,0.6,0.6,1.1,1,1.5c0.4,0.4,0.9,0.8,1.5,1
				c0.6,0.2,1.2,0.4,1.8,0.4c0.6,0,1.2-0.1,1.8-0.4c0.6-0.2,1.1-0.6,1.5-1c0.4-0.4,0.7-0.9,1-1.5c0.2-0.6,0.4-1.2,0.4-1.8
				s-0.1-1.2-0.4-1.8c-0.2-0.6-0.6-1-1-1.5c-0.4-0.4-0.9-0.8-1.5-1C186.9,118.1,186.3,118,185.7,118z"/>
			<path fill="#D45571" d="M207.5,130c-0.4,0-0.7-0.1-1-0.4s-0.4-0.6-0.4-1c-0.6,0.5-1.2,0.8-1.9,1c-0.7,0.2-1.4,0.3-2.2,0.3
				c-0.9,0-1.8-0.2-2.7-0.5c-0.8-0.4-1.6-0.9-2.2-1.5c-0.6-0.6-1.1-1.4-1.5-2.2c-0.4-0.8-0.5-1.7-0.5-2.7v-6.5c0-0.4,0.1-0.7,0.4-1
				c0.3-0.3,0.6-0.4,1-0.4c0.4,0,0.7,0.1,1,0.4c0.3,0.3,0.4,0.6,0.4,1v6.5c0,0.6,0.1,1.1,0.3,1.6c0.2,0.5,0.5,0.9,0.9,1.3
				c0.4,0.4,0.8,0.7,1.3,0.9c0.5,0.2,1,0.3,1.6,0.3c0.6,0,1.1-0.1,1.6-0.3c0.5-0.2,0.9-0.5,1.3-0.9c0.4-0.4,0.7-0.8,0.9-1.3
				c0.2-0.5,0.3-1,0.3-1.6v-6.5c0-0.4,0.1-0.7,0.4-1c0.3-0.3,0.6-0.4,1-0.4c0.4,0,0.7,0.1,1,0.4c0.3,0.3,0.4,0.6,0.4,1v12
				c0,0.4-0.1,0.7-0.4,1C208.2,129.9,207.9,130,207.5,130z"/>
			<path fill="#D45571" d="M222.2,125.8c0.4,0,0.7,0.1,1,0.4c0.3,0.3,0.4,0.6,0.4,1c0,0.4-0.1,0.7-0.4,1c-1.4,1.2-3,1.8-4.8,1.8
				c-2,0-3.8-0.7-5.2-2.2s-2.2-3.2-2.2-5.2s0.7-3.8,2.2-5.2s3.2-2.2,5.2-2.2c1.9,0,3.5,0.6,4.8,1.8c0.3,0.3,0.5,0.6,0.5,1
				c0,0.4-0.1,0.7-0.4,1c-0.3,0.3-0.6,0.4-1,0.4c-0.3,0-0.6-0.1-0.9-0.3c-0.4-0.4-0.9-0.7-1.4-0.9c-0.5-0.2-1-0.3-1.6-0.3
				c-0.6,0-1.2,0.1-1.8,0.4c-0.6,0.2-1.1,0.6-1.5,1c-0.4,0.4-0.8,0.9-1,1.5c-0.2,0.6-0.4,1.2-0.4,1.8s0.1,1.2,0.4,1.8
				c0.2,0.6,0.6,1.1,1,1.5c0.4,0.4,0.9,0.7,1.5,1c0.6,0.2,1.2,0.4,1.8,0.4c0.6,0,1.1-0.1,1.6-0.3c0.5-0.2,1-0.5,1.4-0.8
				C221.6,125.9,221.9,125.8,222.2,125.8z"/>
			<path fill="#D45571" d="M237,125.8c0.4,0,0.7,0.1,1,0.4c0.3,0.3,0.4,0.6,0.4,1c0,0.4-0.1,0.7-0.4,1c-1.4,1.2-3,1.8-4.8,1.8
				c-2,0-3.8-0.7-5.2-2.2s-2.2-3.2-2.2-5.2s0.7-3.8,2.2-5.2s3.2-2.2,5.2-2.2c2,0,3.8,0.7,5.2,2.2c0.7,0.7,1.3,1.5,1.6,2.4
				c0.4,0.9,0.5,1.8,0.5,2.8c0,0.4-0.1,0.7-0.4,1c-0.3,0.3-0.6,0.4-1,0.4h-10.4c0.1,0.5,0.4,0.9,0.7,1.3c0.3,0.4,0.6,0.7,1,1
				c0.4,0.3,0.8,0.5,1.3,0.7c0.5,0.2,1,0.2,1.5,0.2c0.6,0,1.1-0.1,1.6-0.3c0.5-0.2,0.9-0.4,1.3-0.8C236.3,126,236.6,125.8,237,125.8
				z M237.6,121.2c-0.2-0.5-0.4-0.9-0.7-1.3c-0.3-0.4-0.6-0.7-1-1c-0.4-0.3-0.8-0.5-1.3-0.7c-0.5-0.2-1-0.2-1.5-0.2s-1,0.1-1.5,0.2
				s-0.9,0.4-1.3,0.7c-0.4,0.3-0.7,0.6-1,1c-0.3,0.4-0.5,0.8-0.6,1.3H237.6z"/>
			<path fill="#D45571" d="M113.5,150.7c-0.7-0.6-1.1-1.2-1.4-1.8c-0.3-0.6-0.4-1.3-0.4-2c0-0.9,0.2-1.6,0.5-2.3
				c0.3-0.7,0.8-1.3,1.4-1.9h0c1-0.9,2.2-1.3,3.6-1.3c0.4,0,0.9,0.1,1.3,0.2c0.4,0.1,0.9,0.3,1.3,0.5c0.4,0.2,0.8,0.5,1.1,0.8
				c0.4,0.3,0.7,0.7,1,1.2c0.1,0.2,0.2,0.5,0.2,0.8c0,0.2,0,0.4-0.1,0.6s-0.2,0.3-0.3,0.4c-0.1,0.1-0.3,0.2-0.4,0.3
				c-0.2,0.1-0.4,0.1-0.5,0.1c-0.2,0-0.3,0-0.5-0.1c-0.1-0.1-0.3-0.1-0.4-0.2c-0.1-0.1-0.2-0.2-0.3-0.3c-0.1-0.1-0.2-0.3-0.3-0.4
				c-0.2-0.3-0.5-0.5-0.9-0.7c-0.4-0.2-0.8-0.2-1.2-0.2c-0.3,0-0.7,0.1-1,0.2c-0.3,0.1-0.6,0.3-0.8,0.6c-0.2,0.2-0.4,0.5-0.6,0.8
				c-0.2,0.3-0.2,0.7-0.2,1.1c0,0.7,0.2,1.2,0.6,1.6c0.4,0.4,1,0.7,1.9,1c1.5,0.4,2.8,1,3.6,1.8s1.5,1.5,1.8,2.3
				c0.3,0.7,0.5,1.5,0.5,2.4c0,2.1-0.8,3.7-2.3,5h0c-1.2,1-2.6,1.6-4.2,1.6c-0.5,0-1-0.1-1.6-0.2c-0.5-0.1-1-0.3-1.5-0.6
				c-0.5-0.2-0.9-0.6-1.3-0.9c-0.4-0.4-0.8-0.8-1.1-1.3c-0.2-0.2-0.3-0.5-0.3-0.8c0-0.2,0-0.4,0.1-0.5c0.1-0.2,0.2-0.3,0.3-0.4
				c0.1-0.1,0.3-0.2,0.4-0.3s0.4-0.1,0.6-0.1c0.5,0,0.9,0.2,1.2,0.6c0.4,0.6,0.8,1,1.4,1.3c0.6,0.3,1.2,0.4,1.8,0.4
				c0.5,0,1-0.1,1.4-0.3c0.4-0.2,0.8-0.5,1.2-0.8c0.3-0.3,0.6-0.7,0.8-1.2c0.2-0.5,0.3-0.9,0.3-1.4c0-0.5-0.1-0.9-0.3-1.4
				c-0.2-0.4-0.5-0.8-1-1.3c-0.5-0.4-1.3-0.8-2.4-1.1C115.1,151.7,114.1,151.2,113.5,150.7z"/>
			<path fill="#D45571" d="M139.5,155c0,2.1-0.7,3.8-2.2,5.2c-1.5,1.4-3.2,2.2-5.2,2.2c-2,0-3.8-0.7-5.2-2.2s-2.2-3.2-2.2-5.2
				s0.7-3.8,2.2-5.2s3.2-2.2,5.2-2.2c2,0,3.8,0.7,5.2,2.2c0.7,0.7,1.3,1.5,1.6,2.4C139.3,153,139.5,154,139.5,155z M132.2,150.4
				c-0.7,0-1.3,0.1-1.8,0.4s-1.1,0.6-1.5,1c-0.4,0.4-0.7,0.9-1,1.5c-0.2,0.6-0.4,1.2-0.4,1.8s0.1,1.2,0.4,1.8c0.2,0.6,0.6,1.1,1,1.5
				c0.4,0.4,0.9,0.8,1.5,1c0.6,0.2,1.2,0.4,1.8,0.4c0.6,0,1.2-0.1,1.8-0.4c0.6-0.2,1.1-0.6,1.5-1c0.4-0.4,0.7-0.9,1-1.5
				c0.2-0.6,0.4-1.2,0.4-1.8s-0.1-1.2-0.4-1.8c-0.2-0.6-0.6-1-1-1.5c-0.4-0.4-0.9-0.8-1.5-1C133.4,150.5,132.8,150.4,132.2,150.4z"
				/>
			<path fill="#D45571" d="M146.5,161l-4.7-11.4c-0.1-0.2-0.1-0.4-0.1-0.6c0-0.2,0-0.4,0.1-0.5s0.2-0.3,0.3-0.4
				c0.1-0.1,0.3-0.2,0.4-0.3c0.2-0.1,0.3-0.1,0.5-0.1c0.3,0,0.5,0.1,0.8,0.2c0.2,0.2,0.4,0.4,0.5,0.7l3.7,8.8l3.7-8.9
				c0.1-0.3,0.3-0.5,0.5-0.6c0.2-0.2,0.5-0.2,0.8-0.2c0.2,0,0.4,0,0.5,0.1s0.3,0.2,0.4,0.3c0.1,0.1,0.2,0.3,0.3,0.4
				c0.1,0.2,0.1,0.3,0.1,0.5c0,0.2,0,0.4-0.1,0.6l-7.6,18.2c-0.1,0.3-0.3,0.5-0.5,0.7c-0.2,0.2-0.5,0.3-0.8,0.3
				c-0.4,0-0.7-0.1-1-0.4c-0.3-0.3-0.4-0.6-0.4-1c0-0.2,0-0.4,0.1-0.6L146.5,161z"/>
			<path fill="#D45571" d="M167,155.4c-0.8-0.3-1.4-0.6-1.7-1h0c-0.7-0.7-1-1.5-1-2.4c0-0.7,0.2-1.3,0.5-1.8c0.4-0.5,0.8-1,1.4-1.4
				s1.2-0.7,1.9-0.9c0.7-0.2,1.4-0.3,2.2-0.3c2.2,0,4.1,0.9,5.7,2.7c0.2,0.2,0.3,0.5,0.3,0.8c0,0.4-0.1,0.7-0.4,1
				c-0.3,0.3-0.6,0.4-1,0.4c-0.3,0-0.5-0.1-0.7-0.2c-0.2-0.2-0.4-0.3-0.6-0.5c-0.9-0.9-2-1.3-3.3-1.3c-1.3,0-2.3,0.4-3,1.2
				c-0.1,0.1-0.2,0.3-0.2,0.6s0.1,0.4,0.3,0.5l6.2,2c0.9,0.3,1.4,0.7,1.7,1h0c0.7,0.7,1,1.5,1,2.4c0,0.7-0.2,1.3-0.5,1.8
				c-0.4,0.5-0.8,1-1.4,1.4c-0.6,0.4-1.2,0.7-1.9,0.9s-1.4,0.3-2.1,0.3c-2.2,0-4.1-0.9-5.7-2.6c-0.2-0.3-0.3-0.5-0.3-0.9
				c0-0.4,0.1-0.7,0.4-1c0.3-0.3,0.6-0.4,1-0.4c0.3,0,0.5,0.1,0.7,0.3c0.2,0.2,0.4,0.3,0.6,0.5c0.9,0.9,2,1.3,3.3,1.3
				c1.3,0,2.3-0.4,3-1.2c0.1-0.1,0.2-0.3,0.2-0.5c0-0.2-0.1-0.4-0.4-0.5L167,155.4z"/>
			<path fill="#D45571" d="M190.3,161v-0.3c-0.7,0.5-1.4,0.9-2.1,1.2s-1.6,0.4-2.5,0.4c-2,0-3.8-0.7-5.2-2.2s-2.2-3.2-2.2-5.2
				s0.7-3.8,2.2-5.2s3.2-2.2,5.2-2.2c2,0,3.8,0.7,5.2,2.2c1.4,1.4,2.2,3.2,2.2,5.2v6c0,0.4-0.1,0.7-0.4,1c-0.3,0.3-0.6,0.4-1,0.4
				c-0.4,0-0.7-0.1-1-0.4C190.4,161.7,190.3,161.4,190.3,161z M185.7,150.4c-0.7,0-1.3,0.1-1.8,0.4s-1.1,0.6-1.5,1
				c-0.4,0.4-0.7,0.9-1,1.5c-0.2,0.6-0.4,1.2-0.4,1.8s0.1,1.2,0.4,1.8c0.2,0.6,0.6,1.1,1,1.5c0.4,0.4,0.9,0.8,1.5,1
				c0.6,0.2,1.2,0.4,1.8,0.4c0.6,0,1.2-0.1,1.8-0.4c0.6-0.2,1.1-0.6,1.5-1c0.4-0.4,0.7-0.9,1-1.5c0.2-0.6,0.4-1.2,0.4-1.8
				s-0.1-1.2-0.4-1.8c-0.2-0.6-0.6-1-1-1.5c-0.4-0.4-0.9-0.8-1.5-1C186.9,150.5,186.3,150.4,185.7,150.4z"/>
			<path fill="#D45571" d="M207.5,162.4c-0.4,0-0.7-0.1-1-0.4s-0.4-0.6-0.4-1c-0.6,0.5-1.2,0.8-1.9,1c-0.7,0.2-1.4,0.3-2.2,0.3
				c-0.9,0-1.8-0.2-2.7-0.5c-0.8-0.4-1.6-0.9-2.2-1.5c-0.6-0.6-1.1-1.4-1.5-2.2c-0.4-0.8-0.5-1.7-0.5-2.7V149c0-0.4,0.1-0.7,0.4-1
				c0.3-0.3,0.6-0.4,1-0.4c0.4,0,0.7,0.1,1,0.4c0.3,0.3,0.4,0.6,0.4,1v6.5c0,0.6,0.1,1.1,0.3,1.6c0.2,0.5,0.5,0.9,0.9,1.3
				c0.4,0.4,0.8,0.7,1.3,0.9c0.5,0.2,1,0.3,1.6,0.3c0.6,0,1.1-0.1,1.6-0.3c0.5-0.2,0.9-0.5,1.3-0.9c0.4-0.4,0.7-0.8,0.9-1.3
				c0.2-0.5,0.3-1,0.3-1.6V149c0-0.4,0.1-0.7,0.4-1c0.3-0.3,0.6-0.4,1-0.4c0.4,0,0.7,0.1,1,0.4c0.3,0.3,0.4,0.6,0.4,1v12
				c0,0.4-0.1,0.7-0.4,1C208.2,162.3,207.9,162.4,207.5,162.4z"/>
			<path fill="#D45571" d="M222.2,158.2c0.4,0,0.7,0.1,1,0.4c0.3,0.3,0.4,0.6,0.4,1c0,0.4-0.1,0.7-0.4,1c-1.4,1.2-3,1.8-4.8,1.8
				c-2,0-3.8-0.7-5.2-2.2S211,157,211,155s0.7-3.8,2.2-5.2s3.2-2.2,5.2-2.2c1.9,0,3.5,0.6,4.8,1.8c0.3,0.3,0.5,0.6,0.5,1
				c0,0.4-0.1,0.7-0.4,1c-0.3,0.3-0.6,0.4-1,0.4c-0.3,0-0.6-0.1-0.9-0.3c-0.4-0.4-0.9-0.7-1.4-0.9c-0.5-0.2-1-0.3-1.6-0.3
				c-0.6,0-1.2,0.1-1.8,0.4c-0.6,0.2-1.1,0.6-1.5,1c-0.4,0.4-0.8,0.9-1,1.5c-0.2,0.6-0.4,1.2-0.4,1.8s0.1,1.2,0.4,1.8
				c0.2,0.6,0.6,1.1,1,1.5c0.4,0.4,0.9,0.7,1.5,1c0.6,0.2,1.2,0.4,1.8,0.4c0.6,0,1.1-0.1,1.6-0.3c0.5-0.2,1-0.5,1.4-0.8
				C221.6,158.3,221.9,158.2,222.2,158.2z"/>
			<path fill="#D45571" d="M237,158.2c0.4,0,0.7,0.1,1,0.4c0.3,0.3,0.4,0.6,0.4,1c0,0.4-0.1,0.7-0.4,1c-1.4,1.2-3,1.8-4.8,1.8
				c-2,0-3.8-0.7-5.2-2.2s-2.2-3.2-2.2-5.2s0.7-3.8,2.2-5.2s3.2-2.2,5.2-2.2c2,0,3.8,0.7,5.2,2.2c0.7,0.7,1.3,1.5,1.6,2.4
				c0.4,0.9,0.5,1.8,0.5,2.8c0,0.4-0.1,0.7-0.4,1c-0.3,0.3-0.6,0.4-1,0.4h-10.4c0.1,0.5,0.4,0.9,0.7,1.3c0.3,0.4,0.6,0.7,1,1
				c0.4,0.3,0.8,0.5,1.3,0.7c0.5,0.2,1,0.2,1.5,0.2c0.6,0,1.1-0.1,1.6-0.3c0.5-0.2,0.9-0.4,1.3-0.8
				C236.3,158.4,236.6,158.2,237,158.2z M237.6,153.6c-0.2-0.5-0.4-0.9-0.7-1.3c-0.3-0.4-0.6-0.7-1-1c-0.4-0.3-0.8-0.5-1.3-0.7
				c-0.5-0.2-1-0.2-1.5-0.2s-1,0.1-1.5,0.2s-0.9,0.4-1.3,0.7c-0.4,0.3-0.7,0.6-1,1c-0.3,0.4-0.5,0.8-0.6,1.3H237.6z"/>
			<path fill="#D45571" d="M41,174.6l3.8,13.5l3.7-13.5c0.1-0.3,0.2-0.5,0.5-0.7c0.3-0.2,0.5-0.3,0.9-0.3c0.3,0,0.5,0.1,0.8,0.2
				c0.3,0.2,0.4,0.4,0.5,0.7l3.8,13.5l3.8-13.5c0.1-0.2,0.2-0.4,0.3-0.5c0.3-0.3,0.6-0.4,1-0.4s0.7,0.1,1,0.4c0.3,0.3,0.4,0.6,0.4,1
				c0,0.2,0,0.4-0.1,0.6l-5,18c-0.1,0.3-0.3,0.6-0.6,0.8c-0.2,0.2-0.5,0.3-0.9,0.3c-0.4,0-0.7-0.1-1-0.4c-0.2-0.2-0.3-0.4-0.4-0.7
				l-3.7-13.3l-3.7,13.3c-0.1,0.3-0.3,0.6-0.6,0.8c-0.2,0.2-0.5,0.3-0.9,0.3c-0.4,0-0.7-0.1-1-0.4c-0.2-0.2-0.3-0.4-0.4-0.7l-5-18
				c-0.1-0.2-0.1-0.4-0.1-0.5c0-0.4,0.1-0.7,0.4-1c0.3-0.3,0.6-0.4,1-0.4s0.7,0.1,1,0.4C40.8,174.3,40.9,174.4,41,174.6z"/>
			<path fill="#D45571" d="M77.3,187.4c0,2.1-0.7,3.8-2.2,5.2c-1.5,1.4-3.2,2.2-5.2,2.2c-2,0-3.8-0.7-5.2-2.2s-2.2-3.2-2.2-5.2
				s0.7-3.8,2.2-5.2s3.2-2.2,5.2-2.2c2,0,3.8,0.7,5.2,2.2c0.7,0.7,1.3,1.5,1.6,2.4C77.1,185.4,77.3,186.4,77.3,187.4z M69.9,182.8
				c-0.7,0-1.3,0.1-1.8,0.4s-1.1,0.6-1.5,1c-0.4,0.4-0.7,0.9-1,1.5c-0.2,0.6-0.4,1.2-0.4,1.8s0.1,1.2,0.4,1.8c0.2,0.6,0.6,1.1,1,1.5
				c0.4,0.4,0.9,0.8,1.5,1c0.6,0.2,1.2,0.4,1.8,0.4c0.6,0,1.2-0.1,1.8-0.4c0.6-0.2,1.1-0.6,1.5-1c0.4-0.4,0.7-0.9,1-1.5
				c0.2-0.6,0.4-1.2,0.4-1.8s-0.1-1.2-0.4-1.8c-0.2-0.6-0.6-1-1-1.5c-0.4-0.4-0.9-0.8-1.5-1C71.2,182.9,70.6,182.8,69.9,182.8z"/>
			<path fill="#D45571" d="M82.1,181.4v0.3c0.7-0.5,1.4-0.9,2.1-1.2s1.6-0.4,2.5-0.4c0.4,0,0.8,0,1.2,0.1c0.4,0.1,0.9,0.1,1.2,0.3
				c0.4,0.1,0.7,0.3,0.9,0.6s0.4,0.5,0.4,0.9c0,0.2,0,0.4-0.1,0.5c-0.1,0.2-0.2,0.3-0.3,0.4c-0.1,0.1-0.3,0.2-0.4,0.3
				s-0.3,0.1-0.5,0.1c-0.2,0-0.4,0-0.6-0.1c-0.6-0.2-1.2-0.3-1.8-0.3c-0.6,0-1.2,0.1-1.8,0.4c-0.6,0.2-1.1,0.6-1.5,1
				c-0.4,0.4-0.7,0.9-1,1.5c-0.2,0.6-0.4,1.2-0.4,1.8v6c0,0.4-0.1,0.7-0.4,1c-0.3,0.3-0.6,0.4-1,0.4c-0.4,0-0.7-0.1-1-0.4
				c-0.3-0.3-0.4-0.6-0.4-1v-12c0-0.4,0.1-0.7,0.4-1c0.3-0.3,0.6-0.4,1-0.4c0.4,0,0.7,0.1,1,0.4C82,180.7,82.1,181,82.1,181.4z"/>
			<path fill="#D45571" d="M103.3,190.6c0.4,0,0.7,0.1,1,0.4c0.3,0.3,0.4,0.6,0.4,1c0,0.4-0.1,0.7-0.4,1c-1.4,1.2-3,1.8-4.8,1.8
				c-2,0-3.8-0.7-5.2-2.2s-2.2-3.2-2.2-5.2s0.7-3.8,2.2-5.2s3.2-2.2,5.2-2.2c1.9,0,3.5,0.6,4.8,1.8c0.3,0.3,0.5,0.6,0.5,1
				c0,0.4-0.1,0.7-0.4,1c-0.3,0.3-0.6,0.4-1,0.4c-0.3,0-0.6-0.1-0.9-0.3c-0.4-0.4-0.9-0.7-1.4-0.9c-0.5-0.2-1-0.3-1.6-0.3
				c-0.6,0-1.2,0.1-1.8,0.4c-0.6,0.2-1.1,0.6-1.5,1c-0.4,0.4-0.8,0.9-1,1.5c-0.2,0.6-0.4,1.2-0.4,1.8s0.1,1.2,0.4,1.8
				c0.2,0.6,0.6,1.1,1,1.5c0.4,0.4,0.9,0.7,1.5,1c0.6,0.2,1.2,0.4,1.8,0.4c0.6,0,1.1-0.1,1.6-0.3c0.5-0.2,1-0.5,1.4-0.8
				C102.7,190.7,103,190.6,103.3,190.6z"/>
			<path fill="#D45571" d="M118.1,190.6c0.4,0,0.7,0.1,1,0.4c0.3,0.3,0.4,0.6,0.4,1c0,0.4-0.1,0.7-0.4,1c-1.4,1.2-3,1.8-4.8,1.8
				c-2,0-3.8-0.7-5.2-2.2s-2.2-3.2-2.2-5.2s0.7-3.8,2.2-5.2s3.2-2.2,5.2-2.2c2,0,3.8,0.7,5.2,2.2c0.7,0.7,1.3,1.5,1.6,2.4
				c0.4,0.9,0.5,1.8,0.5,2.8c0,0.4-0.1,0.7-0.4,1c-0.3,0.3-0.6,0.4-1,0.4h-10.4c0.1,0.5,0.4,0.9,0.7,1.3c0.3,0.4,0.6,0.7,1,1
				c0.4,0.3,0.8,0.5,1.3,0.7c0.5,0.2,1,0.2,1.5,0.2c0.6,0,1.1-0.1,1.6-0.3c0.5-0.2,0.9-0.4,1.3-0.8
				C117.4,190.8,117.7,190.6,118.1,190.6z M118.7,186c-0.2-0.5-0.4-0.9-0.7-1.3c-0.3-0.4-0.6-0.7-1-1c-0.4-0.3-0.8-0.5-1.3-0.7
				c-0.5-0.2-1-0.2-1.5-0.2s-1,0.1-1.5,0.2s-0.9,0.4-1.3,0.7c-0.4,0.3-0.7,0.6-1,1c-0.3,0.4-0.5,0.8-0.6,1.3H118.7z"/>
			<path fill="#D45571" d="M126.4,187.8c-0.8-0.3-1.4-0.6-1.7-1h0c-0.7-0.7-1-1.5-1-2.4c0-0.7,0.2-1.3,0.5-1.8
				c0.4-0.5,0.8-1,1.4-1.4s1.2-0.7,1.9-0.9c0.7-0.2,1.4-0.3,2.2-0.3c2.2,0,4.1,0.9,5.7,2.7c0.2,0.2,0.3,0.5,0.3,0.8
				c0,0.4-0.1,0.7-0.4,1c-0.3,0.3-0.6,0.4-1,0.4c-0.3,0-0.5-0.1-0.7-0.2c-0.2-0.2-0.4-0.3-0.6-0.5c-0.9-0.9-2-1.3-3.3-1.3
				c-1.3,0-2.3,0.4-3,1.2c-0.1,0.1-0.2,0.3-0.2,0.6s0.1,0.4,0.3,0.5l6.2,2c0.9,0.3,1.4,0.7,1.7,1h0c0.7,0.7,1,1.5,1,2.4
				c0,0.7-0.2,1.3-0.5,1.8c-0.4,0.5-0.8,1-1.4,1.4c-0.6,0.4-1.2,0.7-1.9,0.9s-1.4,0.3-2.1,0.3c-2.2,0-4.1-0.9-5.7-2.6
				c-0.2-0.3-0.3-0.5-0.3-0.9c0-0.4,0.1-0.7,0.4-1c0.3-0.3,0.6-0.4,1-0.4c0.3,0,0.5,0.1,0.7,0.3c0.2,0.2,0.4,0.3,0.6,0.5
				c0.9,0.9,2,1.3,3.3,1.3c1.3,0,2.3-0.4,3-1.2c0.1-0.1,0.2-0.3,0.2-0.5c0-0.2-0.1-0.4-0.4-0.5L126.4,187.8z"/>
			<path fill="#D45571" d="M139,180h0.6v-5c0-0.4,0.1-0.7,0.4-1c0.3-0.3,0.6-0.4,1-0.4c0.4,0,0.7,0.1,1,0.4c0.3,0.3,0.4,0.6,0.4,1v5
				h1.6c0.4,0,0.7,0.1,1,0.4c0.3,0.3,0.4,0.6,0.4,1c0,0.4-0.1,0.7-0.4,1c-0.3,0.3-0.6,0.4-1,0.4h-1.6v6.6c0,1.7,0.9,2.6,2.6,2.6
				c0.4,0,0.7,0.1,1,0.4c0.3,0.3,0.4,0.6,0.4,1c0,0.4-0.1,0.7-0.4,1c-0.3,0.3-0.6,0.4-1,0.4c-3.6,0-5.4-1.8-5.4-5.4v-6.6H139
				c-0.4,0-0.7-0.1-1-0.4c-0.3-0.3-0.4-0.6-0.4-1c0-0.4,0.1-0.7,0.4-1C138.3,180.2,138.6,180,139,180z"/>
			<path fill="#D45571" d="M158.7,190.6c0.4,0,0.7,0.1,1,0.4c0.3,0.3,0.4,0.6,0.4,1c0,0.4-0.1,0.7-0.4,1c-1.4,1.2-3,1.8-4.8,1.8
				c-2,0-3.8-0.7-5.2-2.2s-2.2-3.2-2.2-5.2s0.7-3.8,2.2-5.2s3.2-2.2,5.2-2.2c2,0,3.8,0.7,5.2,2.2c0.7,0.7,1.3,1.5,1.6,2.4
				c0.4,0.9,0.5,1.8,0.5,2.8c0,0.4-0.1,0.7-0.4,1c-0.3,0.3-0.6,0.4-1,0.4h-10.4c0.1,0.5,0.4,0.9,0.7,1.3c0.3,0.4,0.6,0.7,1,1
				c0.4,0.3,0.8,0.5,1.3,0.7c0.5,0.2,1,0.2,1.5,0.2c0.6,0,1.1-0.1,1.6-0.3c0.5-0.2,0.9-0.4,1.3-0.8
				C158,190.8,158.3,190.6,158.7,190.6z M159.3,186c-0.2-0.5-0.4-0.9-0.7-1.3c-0.3-0.4-0.6-0.7-1-1c-0.4-0.3-0.8-0.5-1.3-0.7
				c-0.5-0.2-1-0.2-1.5-0.2s-1,0.1-1.5,0.2s-0.9,0.4-1.3,0.7c-0.4,0.3-0.7,0.6-1,1c-0.3,0.4-0.5,0.8-0.6,1.3H159.3z"/>
			<path fill="#D45571" d="M167,181.4v0.3c0.7-0.5,1.4-0.9,2.1-1.2s1.6-0.4,2.5-0.4c0.4,0,0.8,0,1.2,0.1c0.4,0.1,0.9,0.1,1.2,0.3
				c0.4,0.1,0.7,0.3,0.9,0.6s0.4,0.5,0.4,0.9c0,0.2,0,0.4-0.1,0.5c-0.1,0.2-0.2,0.3-0.3,0.4c-0.1,0.1-0.3,0.2-0.4,0.3
				s-0.3,0.1-0.5,0.1c-0.2,0-0.4,0-0.6-0.1c-0.6-0.2-1.2-0.3-1.8-0.3c-0.6,0-1.2,0.1-1.8,0.4c-0.6,0.2-1.1,0.6-1.5,1
				c-0.4,0.4-0.7,0.9-1,1.5c-0.2,0.6-0.4,1.2-0.4,1.8v6c0,0.4-0.1,0.7-0.4,1c-0.3,0.3-0.6,0.4-1,0.4c-0.4,0-0.7-0.1-1-0.4
				c-0.3-0.3-0.4-0.6-0.4-1v-12c0-0.4,0.1-0.7,0.4-1c0.3-0.3,0.6-0.4,1-0.4c0.4,0,0.7,0.1,1,0.4C166.9,180.7,167,181,167,181.4z"/>
			<path fill="#D45571" d="M179.7,187.8c-0.8-0.3-1.4-0.6-1.7-1h0c-0.7-0.7-1-1.5-1-2.4c0-0.7,0.2-1.3,0.5-1.8
				c0.4-0.5,0.8-1,1.4-1.4s1.2-0.7,1.9-0.9c0.7-0.2,1.4-0.3,2.2-0.3c2.2,0,4.1,0.9,5.7,2.7c0.2,0.2,0.3,0.5,0.3,0.8
				c0,0.4-0.1,0.7-0.4,1c-0.3,0.3-0.6,0.4-1,0.4c-0.3,0-0.5-0.1-0.7-0.2c-0.2-0.2-0.4-0.3-0.6-0.5c-0.9-0.9-2-1.3-3.3-1.3
				c-1.3,0-2.3,0.4-3,1.2c-0.1,0.1-0.2,0.3-0.2,0.6s0.1,0.4,0.3,0.5l6.2,2c0.9,0.3,1.4,0.7,1.7,1h0c0.7,0.7,1,1.5,1,2.4
				c0,0.7-0.2,1.3-0.5,1.8c-0.4,0.5-0.8,1-1.4,1.4c-0.6,0.4-1.2,0.7-1.9,0.9s-1.4,0.3-2.1,0.3c-2.2,0-4.1-0.9-5.7-2.6
				c-0.2-0.3-0.3-0.5-0.3-0.9c0-0.4,0.1-0.7,0.4-1c0.3-0.3,0.6-0.4,1-0.4c0.3,0,0.5,0.1,0.7,0.3c0.2,0.2,0.4,0.3,0.6,0.5
				c0.9,0.9,2,1.3,3.3,1.3c1.3,0,2.3-0.4,3-1.2c0.1-0.1,0.2-0.3,0.2-0.5c0-0.2-0.1-0.4-0.4-0.5L179.7,187.8z"/>
			<path fill="#D45571" d="M193.7,193.4c0,0.4-0.1,0.7-0.4,1c-0.3,0.3-0.6,0.4-1,0.4c-0.4,0-0.7-0.1-1-0.4c-0.3-0.3-0.4-0.6-0.4-1
				v-18.3c0-0.4,0.1-0.7,0.4-1c0.3-0.3,0.6-0.4,1-0.4s0.7,0.1,1,0.4c0.3,0.3,0.4,0.6,0.4,1v6.3c1.2-0.9,2.5-1.4,4.1-1.4
				c0.9,0,1.8,0.2,2.6,0.5c0.8,0.4,1.6,0.9,2.2,1.5c0.6,0.6,1.1,1.3,1.5,2.2c0.4,0.8,0.6,1.7,0.6,2.7v6.5c0,0.4-0.1,0.7-0.4,1
				c-0.3,0.3-0.6,0.4-1,0.4s-0.7-0.1-1-0.4c-0.3-0.3-0.4-0.6-0.4-1v-6.5c0-0.6-0.1-1.1-0.3-1.6c-0.2-0.5-0.5-0.9-0.9-1.3
				c-0.4-0.4-0.8-0.7-1.3-0.9s-1-0.3-1.6-0.3c-0.6,0-1.1,0.1-1.6,0.3c-0.5,0.2-0.9,0.5-1.3,0.9c-0.4,0.4-0.7,0.8-0.9,1.3
				c-0.2,0.5-0.3,1-0.3,1.6V193.4z"/>
			<path fill="#D45571" d="M210.5,177.4c0,0.4-0.2,0.8-0.5,1.1s-0.7,0.5-1.1,0.5s-0.8-0.2-1.1-0.5s-0.5-0.7-0.5-1.1
				c0-0.4,0.2-0.8,0.5-1.1s0.7-0.5,1.1-0.5s0.8,0.2,1.1,0.5S210.5,176.9,210.5,177.4z M207.5,193.4v-12c0-0.4,0.1-0.7,0.4-1
				c0.3-0.3,0.6-0.4,1-0.4s0.7,0.1,1,0.4c0.3,0.3,0.4,0.6,0.4,1v12c0,0.4-0.1,0.7-0.4,1c-0.3,0.3-0.6,0.4-1,0.4s-0.7-0.1-1-0.4
				C207.6,194.1,207.5,193.8,207.5,193.4z"/>
			<path fill="#D45571" d="M215.8,181.4v0.3c0.7-0.5,1.4-0.9,2.1-1.2s1.6-0.4,2.5-0.4c0.4,0,0.8,0,1.2,0.1c0.4,0.1,0.9,0.1,1.2,0.3
				c0.4,0.1,0.7,0.3,0.9,0.6s0.4,0.5,0.4,0.9c0,0.2,0,0.4-0.1,0.5c-0.1,0.2-0.2,0.3-0.3,0.4c-0.1,0.1-0.3,0.2-0.4,0.3
				s-0.3,0.1-0.5,0.1c-0.2,0-0.4,0-0.6-0.1c-0.6-0.2-1.2-0.3-1.8-0.3c-0.6,0-1.2,0.1-1.8,0.4c-0.6,0.2-1.1,0.6-1.5,1
				c-0.4,0.4-0.7,0.9-1,1.5c-0.2,0.6-0.4,1.2-0.4,1.8v6c0,0.4-0.1,0.7-0.4,1c-0.3,0.3-0.6,0.4-1,0.4c-0.4,0-0.7-0.1-1-0.4
				c-0.3-0.3-0.4-0.6-0.4-1v-12c0-0.4,0.1-0.7,0.4-1c0.3-0.3,0.6-0.4,1-0.4c0.4,0,0.7,0.1,1,0.4C215.7,180.7,215.8,181,215.8,181.4z
				"/>
			<path fill="#D45571" d="M237,190.6c0.4,0,0.7,0.1,1,0.4c0.3,0.3,0.4,0.6,0.4,1c0,0.4-0.1,0.7-0.4,1c-1.4,1.2-3,1.8-4.8,1.8
				c-2,0-3.8-0.7-5.2-2.2s-2.2-3.2-2.2-5.2s0.7-3.8,2.2-5.2s3.2-2.2,5.2-2.2c2,0,3.8,0.7,5.2,2.2c0.7,0.7,1.3,1.5,1.6,2.4
				c0.4,0.9,0.5,1.8,0.5,2.8c0,0.4-0.1,0.7-0.4,1c-0.3,0.3-0.6,0.4-1,0.4h-10.4c0.1,0.5,0.4,0.9,0.7,1.3c0.3,0.4,0.6,0.7,1,1
				c0.4,0.3,0.8,0.5,1.3,0.7c0.5,0.2,1,0.2,1.5,0.2c0.6,0,1.1-0.1,1.6-0.3c0.5-0.2,0.9-0.4,1.3-0.8
				C236.3,190.8,236.6,190.6,237,190.6z M237.6,186c-0.2-0.5-0.4-0.9-0.7-1.3c-0.3-0.4-0.6-0.7-1-1c-0.4-0.3-0.8-0.5-1.3-0.7
				c-0.5-0.2-1-0.2-1.5-0.2s-1,0.1-1.5,0.2s-0.9,0.4-1.3,0.7c-0.4,0.3-0.7,0.6-1,1c-0.3,0.4-0.5,0.8-0.6,1.3H237.6z"/>
		</g>
		<line fill="none" stroke="#D45571" stroke-width="6" stroke-miterlimit="10" x1="282.6" y1="56.7" x2="838.6" y2="56.7"/>
	</g>
	<g>
		<g>
			<path fill="#D45571" d="M302.2,1.1l9.4,14.1L321,1.1c0.5-0.7,1.2-1.1,2.2-1.1c0.7,0,1.4,0.3,1.9,0.8c0.5,0.5,0.8,1.1,0.8,1.9
				c0,0.6-0.1,1.1-0.4,1.5l-11.2,16.7v16.6c0,0.7-0.3,1.4-0.8,1.9c-0.5,0.5-1.1,0.8-1.9,0.8c-0.7,0-1.3-0.3-1.9-0.8
				c-0.5-0.5-0.8-1.1-0.8-1.9V20.8L297.8,4.2c-0.3-0.4-0.4-0.9-0.4-1.5c0-0.7,0.3-1.4,0.8-1.9c0.5-0.5,1.1-0.8,1.9-0.8
				C301,0,301.7,0.4,302.2,1.1z"/>
			<path fill="#D45571" d="M342,32.1c0.8,0,1.4,0.2,1.9,0.7c0.5,0.5,0.7,1.1,0.7,1.9c0,0.7-0.2,1.4-0.8,1.9
				c-2.6,2.3-5.6,3.4-9.2,3.4c-3.9,0-7.2-1.4-9.9-4.1s-4.1-6-4.1-9.9c0-3.9,1.4-7.2,4.1-9.9c2.7-2.7,6-4.1,9.9-4.1
				c3.8,0,7.1,1.4,9.9,4.1c1.4,1.4,2.4,2.9,3.1,4.5s1,3.5,1,5.4c0,0.8-0.3,1.4-0.8,1.9c-0.5,0.5-1.1,0.7-1.9,0.7h-19.8
				c0.3,0.9,0.7,1.8,1.3,2.5c0.5,0.8,1.2,1.4,1.9,2c0.7,0.5,1.6,1,2.5,1.3s1.8,0.5,2.8,0.5c1.1,0,2.1-0.2,3-0.5
				c0.9-0.3,1.8-0.8,2.6-1.5C340.8,32.4,341.4,32.2,342,32.1z M343.2,23.4c-0.3-0.9-0.7-1.8-1.3-2.5c-0.6-0.8-1.2-1.4-2-2
				c-0.7-0.5-1.6-1-2.5-1.3c-0.9-0.3-1.8-0.5-2.8-0.5c-1,0-1.9,0.1-2.8,0.5c-0.9,0.3-1.7,0.7-2.5,1.3c-0.8,0.5-1.4,1.2-2,2
				c-0.5,0.8-1,1.6-1.2,2.5H343.2z"/>
			<path fill="#D45571" d="M375.5,37.4v-0.5c-1.2,1-2.6,1.8-4.1,2.3c-1.5,0.5-3,0.8-4.7,0.8c-3.9,0-7.2-1.4-9.9-4.1s-4.1-6-4.1-9.9
				c0-3.9,1.4-7.2,4.1-9.9c2.7-2.7,6-4.1,9.9-4.1c3.8,0,7.1,1.4,9.9,4.1c2.7,2.7,4.1,6,4.1,9.9v11.4c0,0.7-0.3,1.3-0.8,1.8
				s-1.1,0.8-1.8,0.8c-0.7,0-1.4-0.3-1.9-0.8S375.5,38.1,375.5,37.4z M366.8,17.2c-1.2,0-2.4,0.2-3.5,0.7c-1.1,0.5-2,1.1-2.8,1.9
				c-0.8,0.8-1.4,1.7-1.9,2.8c-0.5,1.1-0.7,2.2-0.7,3.4s0.2,2.3,0.7,3.4c0.5,1.1,1.1,2,1.9,2.8c0.8,0.8,1.7,1.4,2.8,1.9
				c1.1,0.5,2.2,0.7,3.5,0.7c1.2,0,2.4-0.2,3.4-0.7c1.1-0.5,2-1.1,2.8-1.9c0.8-0.8,1.4-1.7,1.9-2.8c0.5-1.1,0.7-2.2,0.7-3.4
				s-0.2-2.3-0.7-3.4c-0.5-1.1-1.1-2-1.9-2.8s-1.7-1.4-2.8-1.9C369.1,17.5,368,17.2,366.8,17.2z"/>
			<path fill="#D45571" d="M389.9,14.6v0.5c1.3-1,2.6-1.8,4.1-2.3c1.5-0.5,3-0.8,4.7-0.8c0.7,0,1.5,0,2.4,0.1
				c0.8,0.1,1.6,0.3,2.3,0.5c0.7,0.3,1.3,0.6,1.8,1.1s0.7,1,0.7,1.8c0,0.4-0.1,0.7-0.2,1s-0.3,0.6-0.6,0.8c-0.2,0.2-0.5,0.4-0.8,0.6
				s-0.7,0.2-1,0.2c-0.3,0-0.7-0.1-1.1-0.3c-1-0.4-2.2-0.6-3.4-0.6c-1.2,0-2.4,0.2-3.4,0.7c-1.1,0.5-2,1.1-2.8,1.9s-1.4,1.7-1.9,2.8
				c-0.5,1.1-0.7,2.2-0.7,3.4v11.4c0,0.7-0.3,1.3-0.8,1.8S388,40,387.3,40c-0.7,0-1.4-0.3-1.9-0.8s-0.8-1.1-0.8-1.8V14.6
				c0-0.7,0.3-1.3,0.8-1.8s1.1-0.8,1.9-0.8c0.7,0,1.3,0.3,1.8,0.8S389.9,13.9,389.9,14.6z"/>
			<path fill="#D45571" d="M413.9,26.7c-1.6-0.6-2.7-1.2-3.3-1.9h0c-1.3-1.3-1.9-2.8-1.9-4.5c0-1.3,0.3-2.4,1-3.4s1.6-1.9,2.6-2.6
				c1.1-0.7,2.3-1.3,3.7-1.7c1.4-0.4,2.7-0.6,4.1-0.6c4.2,0,7.7,1.7,10.7,5c0.4,0.4,0.5,1,0.5,1.6c0,0.8-0.2,1.4-0.7,1.9
				c-0.5,0.5-1.1,0.7-1.9,0.7c-0.5,0-1-0.1-1.4-0.4c-0.4-0.3-0.7-0.6-1.1-1c-1.7-1.7-3.8-2.6-6.2-2.6c-2.4,0-4.3,0.7-5.8,2.2
				c-0.3,0.3-0.4,0.6-0.4,1.1s0.2,0.8,0.6,1l11.7,3.9c1.6,0.6,2.7,1.2,3.3,1.9h0c1.3,1.3,1.9,2.8,1.9,4.5c0,1.3-0.3,2.4-1,3.5
				c-0.7,1-1.6,1.9-2.6,2.6s-2.3,1.3-3.7,1.7c-1.3,0.4-2.7,0.6-4.1,0.6c-4.2,0-7.8-1.7-10.7-5c-0.4-0.5-0.5-1-0.5-1.6
				c0-0.8,0.2-1.4,0.7-1.9c0.5-0.5,1.1-0.7,1.9-0.7c0.6,0,1,0.2,1.4,0.5c0.4,0.3,0.7,0.6,1.1,0.9c1.7,1.7,3.8,2.6,6.2,2.6
				c2.4,0,4.3-0.8,5.8-2.3c0.2-0.3,0.4-0.6,0.4-1c0-0.5-0.2-0.8-0.7-1L413.9,26.7z"/>
		</g>
	</g>
</g>
</svg>
